%FSTAX23Y23*%
%MOIN*%
%SFA1B1*%

%IPPOS*%
%AMD35*
4,1,4,0.012600,0.000000,0.000000,0.012600,-0.012600,0.000000,0.000000,-0.012600,0.012600,0.000000,0.0*
%
%ADD18R,0.009400X0.007900*%
G04~CAMADD=35~10~0.0~178.2~0.0~0.0~0.0~0.0~0~0.0~0.0~0.0~0.0~0~0.0~0.0~0.0~0.0~0~0.0~0.0~0.0~315.0~178.2~0.0*
%ADD35D35*%
%ADD36R,0.029700X0.029700*%
%ADD37R,0.029700X0.029700*%
%ADD38C,0.023700*%
%ADD39R,0.232400X0.232400*%
%ADD40R,0.041500X0.019800*%
%ADD41R,0.019800X0.041500*%
%ADD42R,0.035600X0.019800*%
%ADD43R,0.047400X0.074900*%
%ADD44C,0.039000*%
%ADD45R,0.037500X0.031600*%
%ADD46R,0.037500X0.045400*%
%ADD47R,0.076900X0.078900*%
%ADD48R,0.023700X0.031600*%
%ADD49R,0.031600X0.023700*%
%ADD50C,0.074900*%
%ADD51C,0.027500*%
%ADD52R,0.067100X0.067100*%
%ADD53C,0.067100*%
%ADD54C,0.031600*%
%LNmcu_pcb-1*%
%LPD*%
G36*
X0241Y01716D02*
X02411Y01716D01*
X02411Y01716*
X02412Y01715*
X02412Y01715*
X02412Y01715*
X02419Y01709*
X02419Y01708*
X02419Y01708*
X0242Y01707*
X0242Y01707*
X0242Y01706*
Y01706*
Y01703*
Y01703*
X0242Y01702*
X0242Y01702*
X02419Y01701*
X02419Y01701*
X02419Y017*
X02418Y017*
X02418Y017*
X02417Y017*
X02417Y01699*
X02416Y01699*
X02416*
X02399*
X02399*
X02398Y01699*
X02398Y017*
X02397Y017*
X02397Y017*
X02397Y017*
X02396Y01701*
X02396Y01701*
X02396Y01702*
X02396Y01702*
X02395Y01703*
Y01703*
Y01712*
Y01713*
X02396Y01713*
X02396Y01714*
X02396Y01714*
X02396Y01714*
X02397Y01715*
X02397Y01715*
X02397Y01715*
X02398Y01716*
X02398Y01716*
X02399Y01716*
X02399*
X0241*
X0241*
G37*
G36*
X02416Y01735D02*
X02417Y01735D01*
X02417Y01735*
X02418Y01734*
X02418Y01734*
X02419Y01734*
X02419Y01733*
X02419Y01733*
X0242Y01732*
X0242Y01732*
X0242Y01731*
Y01731*
Y01729*
Y01728*
X0242Y01727*
X0242Y01727*
X02419Y01727*
X02419Y01726*
X02419Y01726*
X02412Y01719*
X02412Y01719*
X02412Y01719*
X02411Y01719*
X02411Y01718*
X0241Y01718*
X0241*
X02399*
X02399*
X02398Y01718*
X02398Y01719*
X02397Y01719*
X02397Y01719*
X02397Y01719*
X02396Y0172*
X02396Y0172*
X02396Y01721*
X02396Y01721*
X02395Y01722*
Y01722*
Y01731*
Y01731*
X02396Y01732*
X02396Y01732*
X02396Y01733*
X02396Y01733*
X02397Y01734*
X02397Y01734*
X02397Y01734*
X02398Y01735*
X02398Y01735*
X02399Y01735*
X02399*
X02416*
X02416*
G37*
G36*
X02447Y01716D02*
X02448Y01716D01*
X02448Y01716*
X02449Y01715*
X02449Y01715*
X0245Y01715*
X0245Y01714*
X0245Y01714*
X0245Y01714*
X02451Y01713*
X02451Y01713*
Y01712*
Y01703*
Y01703*
X02451Y01702*
X0245Y01702*
X0245Y01701*
X0245Y01701*
X0245Y017*
X02449Y017*
X02449Y017*
X02448Y017*
X02448Y01699*
X02447Y01699*
X02447*
X0243*
X0243*
X02429Y01699*
X02429Y017*
X02428Y017*
X02428Y017*
X02427Y017*
X02427Y01701*
X02427Y01701*
X02426Y01702*
X02426Y01702*
X02426Y01703*
Y01703*
Y01706*
Y01706*
X02426Y01707*
X02426Y01707*
X02427Y01708*
X02427Y01708*
X02427Y01709*
X02434Y01715*
X02434Y01715*
X02434Y01715*
X02435Y01716*
X02435Y01716*
X02436Y01716*
X02436*
X02447*
X02447*
G37*
G36*
Y01735D02*
X02448Y01735D01*
X02448Y01735*
X02449Y01734*
X02449Y01734*
X0245Y01734*
X0245Y01733*
X0245Y01733*
X0245Y01732*
X02451Y01732*
X02451Y01731*
Y01731*
Y01722*
Y01722*
X02451Y01721*
X0245Y01721*
X0245Y0172*
X0245Y0172*
X0245Y01719*
X02449Y01719*
X02449Y01719*
X02448Y01719*
X02448Y01718*
X02447Y01718*
X02447*
X02436*
X02436*
X02435Y01718*
X02435Y01719*
X02434Y01719*
X02434Y01719*
X02434Y01719*
X02427Y01726*
X02427Y01726*
X02427Y01727*
X02426Y01727*
X02426Y01727*
X02426Y01728*
Y01729*
Y01731*
Y01731*
X02426Y01732*
X02426Y01732*
X02427Y01733*
X02427Y01733*
X02427Y01734*
X02428Y01734*
X02428Y01734*
X02429Y01735*
X02429Y01735*
X0243Y01735*
X0243*
X02447*
X02447*
G37*
G54D18*
X02405Y01708D03*
Y01727D03*
X02442D03*
Y01708D03*
G54D35*
X02423Y01717D03*
G54D36*
X02396Y01681D03*
X02442D03*
X02496Y01766D03*
X0245D03*
X02317Y01734D03*
X02363D03*
X03242Y0163D03*
X03288D03*
X02708Y015D03*
X02662D03*
X02657Y01605D03*
X02703D03*
X02102Y01666D03*
X02148D03*
X02362Y01702D03*
X02316D03*
X02317Y01772D03*
X02363D03*
X02053Y01641D03*
X02007D03*
G54D37*
X02481Y01685D03*
Y01731D03*
X0328Y01552D03*
Y01598D03*
X03245Y01552D03*
Y01598D03*
X0321Y01552D03*
Y01598D03*
X0254Y01687D03*
Y01733D03*
X02144Y01726D03*
Y01772D03*
X0211D03*
Y01726D03*
X02074Y01772D03*
Y01726D03*
X0332Y01718D03*
Y01672D03*
X0327Y01718D03*
Y01672D03*
X0313Y01718D03*
Y01672D03*
X0308D03*
Y01718D03*
G54D38*
X02544Y01763D03*
X02706Y01728D03*
X0266Y01735D03*
X02563Y01661D03*
X02481Y01607D03*
X02585Y01786D03*
X02388Y01737D03*
X02667Y0169D03*
X02592Y01555D03*
X02685Y01635D03*
X03209Y0163D03*
X03081Y01568D03*
X03083Y01619D03*
X02319Y01669D03*
X02282Y01686D03*
X0232Y01582D03*
X02169Y01787D03*
X02724Y0177D03*
X01934Y0168D03*
X01951Y01523D03*
X01876Y01779D03*
X01797Y01519D03*
X01745Y01555D03*
G54D39*
X02886Y01636D03*
G54D40*
X0275Y01528D03*
Y01548D03*
Y01568D03*
Y01587D03*
Y01607D03*
Y01627D03*
Y01646D03*
Y01666D03*
Y01686D03*
Y01705D03*
Y01725D03*
Y01745D03*
X03022D03*
Y01725D03*
Y01705D03*
Y01686D03*
Y01666D03*
Y01646D03*
Y01627D03*
Y01607D03*
Y01587D03*
Y01568D03*
Y01548D03*
Y01528D03*
G54D41*
X02778Y01772D03*
X02798D03*
X02817D03*
X02837D03*
X02857D03*
X02876D03*
X02896D03*
X02916D03*
X02935D03*
X02955D03*
X02975D03*
X02995D03*
Y01501D03*
X02975D03*
X02955D03*
X02935D03*
X02916D03*
X02896D03*
X02876D03*
X02857D03*
X02837D03*
X02817D03*
X02798D03*
X02778D03*
G54D42*
X02186Y01764D03*
Y01745D03*
Y01725D03*
Y01705D03*
X02268D03*
Y01725D03*
Y01745D03*
Y01764D03*
G54D43*
X02227Y01735D03*
G54D44*
X01769Y01706D03*
X01819D03*
X01769Y01656D03*
X01819D03*
X01769Y01606D03*
X01819D03*
G54D45*
X03079Y0175D03*
X03122D03*
X03279D03*
X03322D03*
G54D46*
X03406Y01775D03*
X03473D03*
G54D47*
X02426Y01585D03*
X02145D03*
G54D48*
X03175Y01777D03*
X032D03*
X03226D03*
X03175Y01723D03*
X032D03*
X03226D03*
G54D49*
X0324Y0175D03*
X03161D03*
G54D50*
X026Y0173D03*
X0197D03*
G54D51*
X01834Y01756D03*
X01754D03*
X01794Y01556D03*
G54D52*
X0344Y0154D03*
G54D53*
X0334Y0154D03*
G54D54*
X02886Y01643D03*
X02918Y01693D03*
X02858Y01695D03*
X02955Y01655D03*
X0292Y01605D03*
X02805Y0165D03*
Y01605D03*
X0298Y0172D03*
X0286Y01605D03*
X0296Y01555D03*
X02805D03*
Y01725D03*
M02*