%FSTAX23Y23*%
%MOIN*%
%SFA1B1*%

%IPPOS*%
%ADD14C,0.010000*%
%ADD15C,0.008000*%
%ADD20R,0.021700X0.021700*%
%ADD21R,0.021700X0.021700*%
%ADD22C,0.015700*%
%ADD55C,0.006000*%
%ADD56C,0.004000*%
%ADD57C,0.012000*%
%ADD58C,0.018000*%
%ADD64C,0.019500*%
%ADD65R,0.059100X0.059100*%
%ADD66C,0.059100*%
%ADD67C,0.011800*%
%ADD68C,0.023600*%
%ADD71R,0.031500X0.011800*%
%ADD72R,0.068900X0.061000*%
%ADD73C,0.008200*%
%ADD74R,0.027600X0.029500*%
%ADD75R,0.023600X0.047200*%
%ADD76R,0.045300X0.057100*%
%ADD77R,0.039400X0.035400*%
%ADD78R,0.015700X0.053100*%
%ADD79R,0.086600X0.063000*%
%ADD80R,0.070900X0.074800*%
%ADD81R,0.074800X0.074800*%
%ADD82R,0.011800X0.043300*%
%ADD83R,0.039400X0.070900*%
%ADD84R,0.033500X0.033500*%
%ADD85R,0.031500X0.031500*%
%ADD86C,0.014000*%
%LNmcu_pcb-1*%
%LPD*%
G36*
X03368Y01603D02*
X03369Y016D01*
X03372Y01598*
X0349*
Y0148*
X03092*
X03091Y01482*
X03091Y01483*
X03094Y01485*
X03129*
Y01505*
X03136*
Y01505*
X0317*
Y01504*
X0321*
Y01545*
Y01585*
X03181*
X03181Y01586*
X03179Y01589*
X03176Y01591*
X03173Y01592*
Y01627*
X03138*
X03137*
X03133*
X03132*
X03106*
X03105Y01627*
X03102*
X03097Y01633*
Y01638*
X03098Y01642*
X03133*
X03137*
X03138*
X03173*
Y0168*
X03151*
X03151Y01681*
X03149Y01683*
X03057Y01776*
X03055Y01778*
X03052Y01781*
X03048Y01781*
X03044Y01781*
X03041Y01778*
X03038Y01775*
X03038Y01771*
X03038Y01767*
X03041Y01764*
X03044Y01762*
X03048Y01761*
X0305Y01762*
X03108Y01704*
X03106Y017*
X03105Y017*
X03101Y01699*
X03101Y01699*
X031Y01698*
X03095Y017*
X03094Y017*
X0306Y01735*
X03059Y01738*
X03057Y01742*
X03053Y01744*
X0305Y01745*
X03046Y01744*
X03042Y01742*
X0304Y01738*
X0304Y01738*
X03039Y01735*
X03035Y01735*
X03035*
X03031Y01734*
X0303Y01734*
X03022*
Y01749*
X03028*
Y01765*
X03008*
Y01775*
X03028*
Y0179*
X03032Y01793*
X03368*
Y01603*
G37*
%LNmcu_pcb-2*%
%LPC*%
G36*
X03235Y01698D02*
X03231Y01697D01*
X03228Y01695*
X03225Y01691*
X03225Y01687*
X03225Y01684*
X03228Y0168*
X03231Y01678*
X03235Y01677*
X03239Y01678*
X03242Y0168*
X03244Y01684*
X03245Y01687*
X03244Y01691*
X03242Y01695*
X03239Y01697*
X03235Y01698*
G37*
G36*
X03235Y016D02*
X03231Y01599D01*
X03227Y01597*
X03225Y01593*
X03224Y0159*
X0322Y01585*
X0322*
Y01545*
Y01504*
X03259*
Y01505*
X03293*
Y01526*
X03309*
X0331Y01523*
X03316Y01516*
X03323Y0151*
X03331Y01507*
X0334Y01506*
X03348Y01507*
X03356Y0151*
X03363Y01516*
X03369Y01523*
X03372Y01531*
X03373Y0154*
X03372Y01548*
X03369Y01556*
X03363Y01563*
X03356Y01569*
X03348Y01572*
X0334Y01573*
X03331Y01572*
X03323Y01569*
X03316Y01563*
X0331Y01556*
X03307Y01548*
X03306Y01544*
X03293*
Y01584*
X03275*
X03274Y01584*
X03272Y01584*
X03272*
X03271Y01587*
X03269Y0159*
X03263Y01596*
X03261Y01598*
X03257Y01599*
X03239*
X03238Y01599*
X03235Y016*
G37*
%LNmcu_pcb-3*%
%LPD*%
G54D14*
X0209Y01688D02*
X02136D01*
X02074Y01672D02*
X0209Y01688D01*
X02047Y01672D02*
X02074D01*
X02136Y01688D02*
X02142Y01693D01*
X02189*
X03062Y01567D02*
X03065Y0157D01*
X03069Y01599D02*
Y01675D01*
X01967Y01548D02*
Y01587D01*
X01945Y01547D02*
X01945Y01546D01*
X03164Y01574D02*
X03172Y01582D01*
X01838Y01587D02*
X0184D01*
X018D02*
X01838D01*
X01787Y01678D02*
X01813Y01652D01*
X01781Y01678D02*
X01787D01*
X01763Y01696D02*
X01781Y01678D01*
X03275Y01515D02*
Y0153D01*
X01788Y01617D02*
X01788D01*
X01797Y01626*
X01796Y01591D02*
X018Y01587D01*
X01795Y01591D02*
X01796D01*
X01843Y01657D02*
X01862D01*
X01834Y01665D02*
X01843Y01657D01*
X01834Y01665D02*
Y01702D01*
Y01647D02*
Y01665D01*
X01834Y01665*
X01813Y01641D02*
Y01652D01*
X01763Y01696D02*
Y01702D01*
X01828Y01641D02*
X01834Y01647D01*
X01797Y01626D02*
X01813D01*
X02189Y01693D02*
X02192Y0169D01*
Y01663D02*
Y0169D01*
Y01663D02*
X02195Y0166D01*
X03065Y0157D02*
Y01595D01*
X03069Y01599*
X03008Y01717D02*
Y01735D01*
Y017D02*
Y01717D01*
X03013Y01705D02*
X0304D01*
X03008Y017D02*
X03013Y01705D01*
X0304D02*
X03069Y01675D01*
X02735Y01686D02*
X02773Y01724D01*
X02988Y0168D02*
X0299Y01682D01*
X03008Y017*
X0299Y01653D02*
Y01682D01*
X03008Y01717D02*
X03015Y01725D01*
X03035*
X02773Y01724D02*
Y0175D01*
X03155Y01574D02*
X03164D01*
X02717Y0158D02*
X0274D01*
X0269Y01607D02*
X02717Y0158D01*
X0311Y01515D02*
X03155D01*
X03109Y01505D02*
X0311Y01505D01*
X03263Y01575D02*
Y01584D01*
X03257Y0159D02*
X03263Y01584D01*
X03235Y0159D02*
X03257D01*
X03114Y0154D02*
X03115Y0154D01*
X03114Y0154D02*
Y01549D01*
X031Y01564D02*
X03114Y01549D01*
X031Y01505D02*
X03109D01*
X03326Y0154D02*
X0334D01*
X03274Y01535D02*
X03311D01*
G54D15*
X0239Y01724D02*
X02416Y0175D01*
X02383Y01724D02*
X0239D01*
X02416Y0175D02*
Y01754D01*
X02353Y01694D02*
X02383Y01724D01*
X02353Y0167D02*
Y01694D01*
X02024Y01546D02*
X02024Y01547D01*
X0176Y01525D02*
X01781D01*
X02779Y01756D02*
X02784D01*
X02773Y0175D02*
X02779Y01756D01*
X02784D02*
X0281Y01782D01*
X03205Y01525D02*
X03215Y01535D01*
X03155Y01535D02*
X03205D01*
G54D20*
X02727Y0175D03*
X02773D03*
X03008Y0177D03*
X02962D03*
Y01735D03*
X03008D03*
X02962Y017D03*
X03008D03*
G54D21*
X0299Y01653D03*
Y01607D03*
X01753Y01648D03*
Y01602D03*
X02647D03*
Y01648D03*
X02685Y01602D03*
Y01648D03*
X0286Y01527D03*
Y01573D03*
X02895D03*
Y01527D03*
X0303Y01607D03*
Y01653D03*
X0299Y01558D03*
Y01512D03*
G54D22*
X02934Y01515D03*
X0287Y01502D03*
X01795Y01591D03*
X01862Y01657D03*
X03065Y01595D03*
X02705Y0152D03*
X0281Y01782D03*
G54D55*
X02288Y01768D02*
X02646D01*
X0263Y01671D02*
X02653Y01648D01*
X0207Y01748D02*
X02109D01*
X02063Y01754D02*
X0207Y01748D01*
X02063Y01754D02*
Y01763D01*
X01923Y01651D02*
X02148D01*
X01883Y01611D02*
X01923Y01651D01*
X02148D02*
X02157Y0166D01*
Y0166*
X02245Y01715D02*
X02259Y01729D01*
X02025Y01715D02*
X02245D01*
X02033Y01725D02*
X02175D01*
X02024Y01734D02*
X02033Y01725D01*
X02004Y01736D02*
X02025Y01715D01*
X02464Y01683D02*
X02473D01*
X0246Y01679D02*
X02464Y01683D01*
X0246Y01679D02*
Y01679D01*
X02451Y0167D02*
X0246Y01679D01*
X0245Y0167D02*
X02451D01*
X02473Y01683D02*
X02494Y01704D01*
Y01714*
X02494Y01714D02*
X02494Y01714D01*
X02976Y01529D02*
X02977D01*
X02972Y01525D02*
X02976Y01529D01*
X02972Y01524D02*
Y01525D01*
X02956Y01508D02*
X02972Y01524D01*
X02977Y01529D02*
X02979Y01531D01*
X03023*
X03033Y01541D02*
Y01552D01*
X03023Y01531D02*
X03033Y01541D01*
X03011Y01504D02*
X03016Y01499D01*
X02997Y01504D02*
X03011D01*
X02993Y01508D02*
X02997Y01504D01*
X02988Y01508D02*
X02993D01*
X02983Y01503D02*
X02988Y01508D01*
X02983Y01497D02*
Y01503D01*
X0297Y01485D02*
X02983Y01497D01*
X02925Y01485D02*
X0297D01*
X03016Y01499D02*
X0304D01*
X03017Y01548D02*
X03019Y01545D01*
X03017Y01543D02*
Y01548D01*
X03006Y01543D02*
X03017D01*
X0292Y0148D02*
X0292D01*
X02925Y01485*
X0304Y01499D02*
X03045Y01503D01*
X03032Y01553D02*
X03033Y01552D01*
X03032Y01553D02*
Y01565D01*
X03008Y01589D02*
X03032Y01565D01*
X0296Y01589D02*
X03008D01*
X029Y01555D02*
X0292Y01535D01*
X02259Y01739D02*
X02288Y01768D01*
X02186Y01779D02*
X02195Y01771D01*
X02665Y01629D02*
X02668D01*
X02839Y01544D02*
X02877D01*
X02825Y0153D02*
X02839Y01544D01*
X028Y0153D02*
X02825D01*
X02877Y01544D02*
X02895Y01527D01*
X03023Y01677D02*
X03043D01*
X03007Y01662D02*
X03023Y01677D01*
X03043D02*
X03055Y01666D01*
Y01655D02*
Y01666D01*
X0309Y0163D02*
Y01695D01*
X02785Y01668D02*
X02827D01*
X02831Y01664D02*
X02902D01*
X02827Y01668D02*
X02831Y01664D01*
X02936Y01647D02*
Y01648D01*
Y01647D02*
X02958Y01625D01*
X02902Y01663D02*
Y01664D01*
Y01663D02*
X02931Y01633D01*
X02931*
X02948Y01616*
Y01616D02*
Y01616D01*
Y01616D02*
X02958Y01607D01*
X0285Y01676D02*
X02864D01*
X02847Y01678D02*
X0285Y01676D01*
X02864Y01675D02*
X02908D01*
X02864Y01676D02*
X02864Y01675D01*
X02908D02*
X02936Y01648D01*
X02785Y01623D02*
X02927D01*
X02938Y01612*
X02754Y01655D02*
X02785Y01623D01*
X02515Y01755D02*
X02608D01*
X02958Y01625D02*
X02993D01*
X02781Y01678D02*
X02847D01*
X02779Y01676D02*
X02781Y01678D01*
X02783Y01666D02*
X02785Y01668D01*
X02781Y01666D02*
X02783D01*
X0278Y01665D02*
X02781Y01666D01*
X02725Y01655D02*
X02754D01*
X01904Y01742D02*
X01914Y01751D01*
X01899Y01742D02*
X01904D01*
X01914Y01751D02*
X01923D01*
X01926Y01754*
Y01763*
X02024Y01734D02*
Y01763D01*
X02004Y01736D02*
Y01763D01*
X02004Y01763D02*
X02004Y01763D01*
X01968Y01777D02*
X01976D01*
X01965Y01774D02*
X01968Y01777D01*
X01965Y01763D02*
Y01774D01*
X02045Y01577D02*
X02045Y01578D01*
X02045Y01564D02*
Y01577D01*
X02044Y01563D02*
X02045Y01564D01*
X02044Y01563D02*
X02044Y01562D01*
Y01546D02*
Y01562D01*
X01895Y01575D02*
X01925Y01605D01*
X02049D02*
X0217Y01485D01*
X01925Y01605D02*
X02049D01*
X02024Y01577D02*
X02024Y01576D01*
Y01547D02*
Y01576D01*
Y01547D02*
X02024Y01546D01*
X0208Y0153D02*
X02081D01*
X02063Y01546D02*
X0208Y0153D01*
X01845Y01533D02*
Y01552D01*
X01838Y01526D02*
X01845Y01533D01*
X02649Y01673D02*
X02651D01*
X02646Y01676D02*
X02646D01*
X02642Y0168D02*
D01*
X02594Y01725D02*
X02632Y01687D01*
X02635D02*
X02642Y0168D01*
X02646Y01676D01*
X02646D02*
X02649Y01673D01*
X0245Y0165D02*
Y0167D01*
X02424Y0165D02*
Y0169D01*
X0246Y01725*
X02632Y01687D02*
X02635D01*
X01808Y01611D02*
X01883D01*
X02938D02*
X0296Y01589D01*
X02938Y01611D02*
Y01612D01*
X02667Y01697D02*
Y01715D01*
Y01697D02*
X02705Y0166D01*
X02677Y01702D02*
X02725Y01655D01*
X02677Y01702D02*
Y01719D01*
X02638Y01745D02*
X02667Y01715D01*
X0264Y01757D02*
X02677Y01719D01*
X01885Y0159D02*
X01915Y0162D01*
X01805Y01608D02*
X01808Y01611D01*
X01804Y01608D02*
X01805D01*
X02685Y01648D02*
X0269D01*
X02653D02*
X02685D01*
X02195Y01759D02*
Y01771D01*
X0253Y01745D02*
X02638D01*
X02556Y01714D02*
X02572D01*
X03042Y01607D02*
X03055Y0162D01*
X0303Y01607D02*
X03042D01*
X0301Y01627D02*
X03034D01*
X0299Y01607D02*
X0301Y01627D01*
X03007Y01639D02*
Y01662D01*
X0305Y01735D02*
X0309Y01695D01*
Y0163D02*
X03099Y0162D01*
X03105*
X03116Y01609*
Y01608D02*
Y01609D01*
X03051Y01771D02*
X03144Y01678D01*
Y01672D02*
Y01678D01*
Y01672D02*
X03155Y01661D01*
X02993Y01625D02*
X03007Y01639D01*
X02958Y01607D02*
X0299D01*
X0261Y01757D02*
X0264D01*
X02608Y01755D02*
X0261Y01757D01*
X0271Y0175D02*
X02727D01*
X02705Y0163D02*
Y0166D01*
Y0163D02*
X02713Y01622D01*
X02665Y0157D02*
Y01604D01*
X0265Y01605D02*
X02664D01*
X01915Y0162D02*
X02199D01*
X02615Y01585D02*
Y0159D01*
X02635Y01535D02*
Y01568D01*
X02613Y016D02*
X02634Y0162D01*
X02658*
X02665Y01627*
X02375Y016D02*
X02613D01*
X02572Y01714D02*
X02598Y01688D01*
Y01626D02*
Y01688D01*
Y01626D02*
X0261Y01615D01*
X02402Y01682D02*
X02455Y01735D01*
X02398Y0165D02*
X02402Y01653D01*
Y01682*
X0263Y01671D02*
Y01675D01*
X02957Y01765D02*
X02962Y0177D01*
X01875Y01575D02*
X01895D01*
X03048Y01771D02*
X03051D01*
X02764Y01605D02*
X0278Y01589D01*
X02731Y01605D02*
X02764D01*
X02714Y01622D02*
X02731Y01605D01*
X02199Y0162D02*
X02219Y0164D01*
X02223*
X02232Y01649*
Y0166*
X02259Y01729D02*
Y01739D01*
X02725Y0179D02*
X02749Y01765D01*
Y01757D02*
Y01765D01*
X02895Y0173D02*
X02912Y01746D01*
Y01757*
X02886Y01782D02*
X02912Y01757D01*
X02878Y01782D02*
X02886D01*
X0284Y01765D02*
Y01781D01*
X02839Y01744D02*
Y01764D01*
X0284Y01765*
X02824Y0173D02*
X02839Y01744D01*
X02839Y01782D02*
X0284Y01781D01*
X02912Y01757D02*
X0292Y01765D01*
X02957*
X0284Y01555D02*
X029D01*
X02665Y01627D02*
Y01629D01*
X02664Y01629D02*
X02665Y01629D01*
X02749Y0152D02*
X02803D01*
X0269Y01495D02*
X02792D01*
X02799Y01502*
X0265Y01535D02*
X0269Y01495D01*
X02819Y01502D02*
Y01503D01*
X0274Y0153D02*
Y0158D01*
X02803Y0152D02*
X02819Y01503D01*
X02713Y01622D02*
X02714D01*
X0273Y01635D02*
X02748D01*
X02725Y01639D02*
X0273Y01635D01*
X02748D02*
X02803Y0158D01*
X02724Y01639D02*
X02725D01*
X0278Y0155D02*
Y01589D01*
X02803Y0158D02*
X02815D01*
X0278Y0155D02*
X028Y0153D01*
X02815Y0158D02*
X0284Y01555D01*
X02635Y01535D02*
X0265D01*
X0217Y01485D02*
X0282D01*
X02827Y01492*
X02839*
X02898D02*
Y01523D01*
X02839Y01492D02*
Y01506D01*
X0286Y01527*
X02895D02*
X02898Y01523D01*
G54D56*
X02285Y01777D02*
X02649D01*
X02281Y01785D02*
X02653D01*
X02278Y01793D02*
X02656D01*
X02503Y01723D02*
X02539D01*
X02494Y01714D02*
X02503Y01723D01*
X02466Y01731D02*
X02527D01*
X0246Y0174D02*
X02525D01*
X02175Y01725D02*
X02243D01*
X02956Y01502D02*
Y01508D01*
X02968Y01535D02*
X02973Y0154D01*
X0292Y01535D02*
X02968D01*
X02973Y0154D02*
X03003D01*
X03006Y01543*
X02656Y01793D02*
X0266Y0179D01*
X02274D02*
X02278Y01793D01*
X02653Y01785D02*
X02714Y01725D01*
X02276Y0178D02*
X02281Y01785D01*
X02649Y01777D02*
X02698Y01729D01*
X0225Y01742D02*
X02285Y01777D01*
X02181Y0179D02*
X02274D01*
X02172Y0178D02*
X02181Y0179D01*
X02167Y0178D02*
X02172D01*
X02157Y0177D02*
X02167Y0178D01*
X02157Y01759D02*
Y0177D01*
X02243Y01725D02*
X0225Y01733D01*
X01892Y01787D02*
X019Y01795D01*
X02002*
X02004Y01792*
Y01763D02*
Y01792D01*
X01965Y01546D02*
X01967Y01548D01*
X02857Y01493D02*
X02859D01*
X02868Y01502*
X0287*
X02542Y01725D02*
X02594D01*
X02539Y01723D02*
X02542Y01725D01*
X02347Y01589D02*
X0237Y01611D01*
X02378D02*
X02387Y0162D01*
X02527Y01731D02*
X02531Y01735D01*
X0233Y01587D02*
X02332Y01589D01*
X02398Y01631D02*
Y0165D01*
X0263Y01735D02*
X02655Y0171D01*
X02392Y01625D02*
X02398Y01631D01*
X02332Y01589D02*
X02347D01*
X02387Y01623D02*
X02389Y01625D01*
X02387Y0162D02*
Y01623D01*
X0237Y01611D02*
X02378D01*
X0246Y01725D02*
X02466Y01731D01*
X02389Y01625D02*
X02392D01*
X02531Y01735D02*
X0263D01*
X0246Y01725D02*
X0246D01*
X02714Y01725D02*
X0274D01*
X02525Y0174D02*
X0253Y01745D01*
X0225Y01733D02*
Y01742D01*
X02455Y01735D02*
X0246Y0174D01*
X02698Y01707D02*
Y01729D01*
Y01707D02*
X02723Y01681D01*
Y01681D02*
Y01681D01*
Y01681D02*
X0273Y01674D01*
X02739*
X02741Y01676*
X02779*
X02727Y01665D02*
X0278D01*
X0269Y01702D02*
X02727Y01665D01*
X0266Y0179D02*
X02725D01*
X0269Y01702D02*
Y01722D01*
X02664Y01605D02*
X02665Y01604D01*
X02647Y01602D02*
X0265Y01605D01*
X0265Y01555D02*
X02665Y0157D01*
X0265Y0155D02*
Y01555D01*
X02672Y0174D02*
X0269Y01722D01*
X02672Y0174D02*
Y01743D01*
X02646Y01768D02*
X02672Y01743D01*
X02242Y0178D02*
X02276D01*
X02232Y01771D02*
X02242Y0178D01*
X02232Y01759D02*
Y01771D01*
G54D57*
X02314Y0163D02*
X02355D01*
X01828Y01626D02*
X01873D01*
X02479Y0167D02*
X02514Y01705D01*
X02477Y0167D02*
X02479D01*
X02475Y01668D02*
X02477Y0167D01*
X02475Y0165D02*
Y01668D01*
X02355Y0163D02*
X02356Y01631D01*
X023Y01645D02*
X02314Y0163D01*
X02355Y0163D02*
X02355Y0163D01*
X02356Y01631D02*
X02371D01*
X02373Y01633*
Y0165*
X01917Y01725D02*
X01918D01*
X0192Y01727*
X01923Y01724*
X01929Y01729*
X0193*
X01932Y01731*
X01936*
X01945Y01741*
Y01763*
X01756Y01598D02*
Y01602D01*
X01926Y01763D02*
X01926Y01763D01*
X02471Y01544D02*
X02501Y01515D01*
X0253*
X02266Y01544D02*
X02282Y0156D01*
X02504Y01619D02*
X02522D01*
X02282Y0156D02*
X02325D01*
X025Y01615D02*
X02504Y01619D01*
X02522D02*
X02548Y01645D01*
X02325Y0156D02*
X02345D01*
X02348Y01556*
X0253Y01515D02*
X02552D01*
X02348Y01556D02*
X02365D01*
X02552Y01515D02*
X02581Y01544D01*
X02365Y01556D02*
X02377Y01544D01*
X02581Y01544D02*
Y01544D01*
X01868Y0163D02*
X01869D01*
X01873Y01626*
X01783Y01648D02*
X01789Y01641D01*
X01797*
X01756Y01602D02*
X01757Y01603D01*
X01753Y01602D02*
X01756Y01598D01*
X0286Y01573D02*
Y01605D01*
Y01573D02*
X02895D01*
X0296Y01555D02*
X02961Y01556D01*
X02988*
X0299Y01558*
X03274Y01554D02*
Y01574D01*
G54D58*
X01766Y01631D02*
X01783Y01648D01*
X01904Y01525D02*
X01919D01*
X01872Y01493D02*
X01904Y01525D01*
X0178Y01493D02*
X01872D01*
X01919Y01525D02*
Y01534D01*
X0176Y01525D02*
Y01595D01*
Y01514D02*
Y01525D01*
Y01514D02*
X0178Y01493D01*
X01753Y01648D02*
X01783D01*
X01764Y01631D02*
X01766D01*
X01756Y01598D02*
X0176Y01595D01*
X02978Y01721D02*
X0298Y0172D01*
X02975Y01721D02*
X02978D01*
X02962Y01735D02*
X02975Y01721D01*
X02978Y01718D02*
X0298Y0172D01*
X02978Y01716D02*
Y01718D01*
X02962Y017D02*
X02978Y01716D01*
G54D64*
X01834Y01756D03*
X01754D03*
X01794Y01556D03*
G54D65*
X0344Y0154D03*
G54D66*
X0334Y0154D03*
G54D67*
X02398Y01753D03*
X02425Y0174D03*
X02513Y01752D03*
X02109Y01748D03*
X02128Y01666D03*
X0213Y01703D03*
X02505Y01672D03*
X02354Y01668D03*
X0292Y0148D03*
X02956Y01502D03*
X02935D03*
X03021Y01547D03*
X02389Y01711D03*
X02209Y01777D03*
X02355Y0163D03*
X03035Y01665D03*
X03055Y01655D03*
X01892Y01787D03*
X01899Y01742D03*
X01804Y01608D03*
X01884Y0159D03*
X01797Y01719D03*
X01874Y01575D03*
X02043Y01784D03*
X01976Y01777D03*
X02005Y01525D03*
X01985D03*
X02024Y01577D03*
X02081Y0153D03*
X01845Y01552D03*
X03172Y01582D03*
X02857Y01493D03*
X025Y01615D03*
X0233Y01587D03*
X02655Y0171D03*
X02325Y0156D03*
X0253Y01515D03*
X02651Y01673D03*
X01781Y01525D03*
X03295Y01699D03*
X0274Y01725D03*
X03191Y01688D03*
X03034Y01627D03*
X02878Y01782D03*
X02839D03*
X03035Y01725D03*
X02839Y01492D03*
X02665Y01627D03*
X02799Y01502D03*
X0305Y01735D03*
X02749Y01757D03*
X02735Y01686D03*
X02898Y01492D03*
X03048Y01771D03*
X02819Y01502D03*
X0261Y01615D03*
X01764Y01631D03*
X03148Y01774D03*
X03256D03*
X03202Y01752D03*
X03478Y01502D03*
X03479Y01519D03*
Y01538D03*
Y01558D03*
Y01578D03*
X0346Y01582D03*
X0344D03*
X0342D03*
X03355Y01687D03*
X02416Y01754D03*
X02556Y01714D03*
X03055Y0162D03*
X03105Y0169D03*
X0271Y0175D03*
X02615Y01585D03*
X0263Y01675D03*
X0264Y015D03*
X0219Y0157D03*
X0311Y0178D03*
X03462Y01493D03*
X0344D03*
X03419D03*
X03397Y01579D03*
Y01536D03*
Y01493D03*
X03375Y01579D03*
X03386Y01558D03*
Y01514D03*
X03375Y01493D03*
X03354Y01752D03*
Y01709D03*
Y01666D03*
Y01623D03*
Y01579D03*
Y01493D03*
X03343Y01774D03*
Y01644D03*
X03332Y01623D03*
X03343Y01601D03*
X03332Y01493D03*
X03321Y01774D03*
Y01644D03*
Y01601D03*
X0331Y01493D03*
X033Y01774D03*
X03289Y01493D03*
X03278Y01774D03*
X03267Y01493D03*
X03246D03*
X03235Y01687D03*
X03224Y01666D03*
Y01493D03*
X03213Y01687D03*
X03202Y01493D03*
X03181D03*
X03159D03*
X03137D03*
X03127Y01774D03*
X02724Y01639D03*
X02375Y016D03*
X03235Y0159D03*
X033Y01585D03*
X03115Y0154D03*
G54D68*
X02047Y01672D03*
X02886Y01643D03*
X02918Y01693D03*
X02858Y01695D03*
X01917Y01725D03*
X01884Y01704D03*
X02045Y01578D03*
X01967Y01587D03*
X02514Y01705D03*
X02955Y01655D03*
X0292Y01605D03*
X01868Y0163D03*
X02805Y0165D03*
Y01605D03*
X0298Y0172D03*
X0286Y01605D03*
X0296Y01555D03*
X02805D03*
Y01725D03*
G54D71*
X03274Y01574D03*
Y01554D03*
Y01535D03*
Y01515D03*
X03155D03*
Y01535D03*
Y01554D03*
Y01574D03*
G54D72*
X03215Y01545D03*
G54D73*
X01797Y01641D03*
Y01626D03*
X01813Y01641D03*
Y01626D03*
X01828Y01641D03*
Y01626D03*
G54D74*
X03155Y01608D03*
Y01661D03*
X03116D03*
Y01608D03*
G54D75*
X02157Y0166D03*
X02195D03*
X02232D03*
Y01759D03*
X02195D03*
X02157D03*
G54D76*
X02844Y01745D03*
X02915D03*
X01763Y01702D03*
X01834D03*
G54D77*
X03063Y01567D03*
Y01504D03*
G54D78*
X02475Y0165D03*
X0245D03*
X02424D03*
X02398D03*
X02373D03*
G54D79*
X02548Y01645D03*
X023D03*
G54D80*
X02581Y01544D03*
X02266D03*
G54D81*
X02471Y01544D03*
X02377D03*
G54D82*
X02063Y01546D03*
Y01763D03*
X02044Y01546D03*
Y01763D03*
X02024Y01546D03*
Y01763D03*
X02004Y01546D03*
Y01763D03*
X01985Y01546D03*
Y01763D03*
X01965Y01546D03*
Y01763D03*
X01945Y01546D03*
Y01763D03*
X01926Y01546D03*
Y01763D03*
G54D83*
X0265Y0155D03*
X02749D03*
G54D84*
X01838Y01587D03*
Y01526D03*
G54D85*
X0311Y01505D03*
Y01564D03*
G54D86*
X01757Y01603D02*
X01774D01*
X01788Y01617*
M02*