%FSTAX23Y23*%
%MOIN*%
%SFA1B1*%

%IPPOS*%
%AMD19*
4,1,4,0.006900,0.000000,0.000000,0.006900,-0.006900,0.000000,0.000000,-0.006900,0.006900,0.000000,0.0*
%
%ADD14C,0.010000*%
%ADD15C,0.008000*%
%ADD18R,0.009400X0.007900*%
G04~CAMADD=19~10~0.0~98.3~0.0~0.0~0.0~0.0~0~0.0~0.0~0.0~0.0~0~0.0~0.0~0.0~0.0~0~0.0~0.0~0.0~315.0~98.3~0.0*
%ADD19D19*%
%ADD20R,0.021700X0.021700*%
%ADD21R,0.021700X0.021700*%
%ADD22C,0.015700*%
%ADD23R,0.224400X0.224400*%
%ADD24R,0.033500X0.011800*%
%ADD25R,0.011800X0.033500*%
%ADD26R,0.027600X0.011800*%
%ADD27R,0.039400X0.066900*%
%ADD28C,0.031000*%
%ADD29R,0.029500X0.023600*%
%ADD30R,0.029500X0.037400*%
%ADD31R,0.068900X0.070900*%
%ADD32R,0.015700X0.023600*%
%ADD33R,0.023600X0.015700*%
%ADD34C,0.066900*%
%ADD55C,0.006000*%
%ADD56C,0.004000*%
%ADD57C,0.012000*%
%ADD58C,0.018000*%
%ADD59R,0.033500X0.087800*%
%ADD60R,0.045000X0.031500*%
%ADD61R,0.098400X0.019700*%
%ADD62R,0.019700X0.177200*%
%ADD63R,0.019700X0.059100*%
%ADD64C,0.019500*%
%ADD65R,0.059100X0.059100*%
%ADD66C,0.059100*%
%ADD67C,0.011800*%
%ADD68C,0.023600*%
%LNmcu_pcb-1*%
%LPD*%
G36*
X02399Y01712D02*
Y01703D01*
X02416*
Y01706*
X0241Y01712*
X02399*
G37*
G36*
Y01722D02*
Y01731D01*
X02416*
Y01729*
X0241Y01722*
X02399*
G37*
G36*
X02447Y01712D02*
Y01703D01*
X0243*
Y01706*
X02436Y01712*
X02447*
G37*
G36*
Y01722D02*
Y01731D01*
X0243*
Y01729*
X02436Y01722*
X02447*
G37*
G36*
X03368Y01746D02*
X03341D01*
Y01765*
X03303*
Y01734*
X03305Y01732*
Y01703*
X03335*
Y0172*
X03368*
Y01603*
X03369Y016*
X03372Y01598*
X0349*
Y0148*
X03015*
Y01518*
X03043*
Y0154*
X0306*
X03064Y01542*
X03078Y01556*
X03081Y01555*
X03085Y01556*
X03089Y01559*
X03092Y01563*
X03093Y01568*
X03092Y01572*
X03089Y01576*
X03085Y01579*
X03081Y0158*
X03076Y01579*
X03072Y01576*
X03069Y01572*
X03068Y01568*
X03069Y01565*
X03057Y01553*
X03043*
Y01577*
Y01622*
X03044Y01623*
X03044Y01627*
X03044Y01631*
X03043Y01632*
Y01639*
X03046*
X03049Y0164*
X03051Y01641*
X03072Y01621*
X03071Y01619*
X03072Y01614*
X03075Y0161*
X03079Y01607*
X03083Y01606*
X03088Y01607*
X03092Y0161*
X03094Y01614*
X03095Y01619*
X03094Y01623*
X03092Y01627*
X03088Y0163*
X03083Y01631*
X03081Y0163*
X03065Y01646*
X03067Y01651*
X03075*
Y01672*
X03085*
Y01651*
X03101*
Y01675*
X03103Y01677*
X03105*
X03105Y01677*
X03125*
Y01692*
X03115*
X03115Y01693*
X03112Y01697*
X03109Y01699*
X03105Y017*
X03101Y01699*
X03098Y01697*
X03096Y01693*
X03096Y01692*
X03082*
X0308Y01697*
X03085Y01702*
X03085Y01703*
X03095*
Y01732*
X03097Y01734*
Y01765*
X03061*
X03061Y01766*
X03057Y01769*
X03058Y01771*
X03057Y01775*
X03055Y01778*
X03052Y01781*
X03048Y01781*
X03046Y01783*
X03044Y01785*
X03041Y01785*
X03015*
Y01793*
X03157*
Y01782*
X03175*
Y01772*
X03157*
Y01763*
X03141*
Y01765*
X03103*
Y01734*
X03113*
Y01722*
X03114Y01716*
X03115Y01714*
Y01703*
X03145*
Y01732*
X03148Y01736*
X03157*
Y01728*
X03175*
Y01723*
X0318*
Y01701*
X03192*
Y01707*
X03208*
Y01701*
X03228*
X03229Y01696*
X03228Y01695*
X03225Y01691*
X03225Y01687*
X03225Y01684*
X03228Y0168*
X03231Y01678*
X03235Y01677*
X03239Y01678*
X03242Y0168*
X03248Y0168*
X03249Y0168*
Y01677*
X03265*
Y01692*
X03249*
X03246Y01692*
X03244Y01692*
X03242Y01695*
X0324Y01696*
X03242Y01701*
X03244*
Y01718*
X03226*
Y01728*
X03244*
Y01736*
X03252*
X03255Y01732*
Y01703*
X03284*
Y01732*
X03289Y01734*
X03297*
Y01765*
X0326*
Y01763*
X03244*
Y01772*
X03226*
Y01782*
X03244*
Y01793*
X03368*
Y01746*
G37*
%LNmcu_pcb-2*%
%LPC*%
G36*
X0317Y01718D02*
X03157D01*
Y01701*
X0317*
Y01718*
G37*
G36*
X03341Y01692D02*
X03325D01*
Y01677*
X03341*
Y01692*
G37*
G36*
X0329D02*
X03275D01*
Y01677*
X0329*
Y01692*
G37*
G36*
X03151D02*
X03135D01*
Y01677*
X03151*
Y01692*
G37*
G36*
X03315D02*
X03299D01*
Y01677*
X03315*
Y01692*
G37*
G36*
X03341Y01667D02*
X03325D01*
Y01651*
X03341*
Y01667*
G37*
G36*
X03151D02*
X03135D01*
Y01651*
X03151*
Y01667*
G37*
G36*
X03125D02*
X03109D01*
Y01651*
X03125*
Y01667*
G37*
G36*
X03256Y01644D02*
X03227D01*
Y01637*
X03218*
X03217Y01638*
X03213Y01641*
X03209Y01642*
X03204Y01641*
X032Y01638*
X03197Y01634*
X03196Y0163*
X03197Y01625*
X032Y01621*
X03204Y01618*
X03209Y01617*
X03213Y01618*
X03217Y01621*
X03218Y01622*
X03227*
Y01616*
X03225Y01614*
X03223Y01612*
X03195*
Y01605*
X03188*
X03185Y01604*
X03183Y01603*
X03172Y01592*
X03168Y01591*
X03165Y01589*
X03162Y01586*
X03162Y01582*
X03162Y01578*
X03165Y01575*
X03168Y01572*
X03172Y01572*
X03176Y01572*
X03179Y01575*
X03181Y01578*
X03182Y01582*
X0319Y0159*
X03195Y01589*
Y01583*
X03223*
X03225Y01583*
X03229Y01581*
X03231Y0158*
X03235Y01579*
X03238Y0158*
X03242Y01582*
X03242Y01583*
X03259*
Y01577*
X03275*
Y01598*
X0328*
Y01603*
X033*
Y01609*
X03308*
Y01625*
X03267*
Y01622*
X03263Y01619*
X03258Y01619*
X03256Y01622*
Y01644*
G37*
G36*
X0329Y01667D02*
X0327D01*
X03249*
Y01651*
X03262*
X03267Y0165*
Y01646*
Y01635*
X03308*
Y0165*
X03313Y01651*
X03315*
Y01667*
X03299*
Y01652*
X03295Y01651*
X0329Y01652*
Y01655*
Y01667*
G37*
G36*
X03065Y01607D02*
X0306Y01606D01*
X03056Y01603*
X03053Y01599*
X03052Y01595*
X03053Y0159*
X03056Y01586*
X0306Y01583*
X03065Y01582*
X03069Y01583*
X03073Y01586*
X03076Y0159*
X03077Y01595*
X03076Y01599*
X03073Y01603*
X03069Y01606*
X03065Y01607*
G37*
G36*
X033Y01593D02*
X03285D01*
Y01577*
X033*
Y01593*
G37*
G36*
X0334Y01573D02*
X03331Y01572D01*
X03323Y01569*
X03316Y01563*
X03313Y0156*
X03294*
Y01566*
X03265*
Y01537*
X03294*
Y01543*
X03302*
X03306Y0154*
Y0154*
X03307Y01531*
X0331Y01523*
X03316Y01516*
X03323Y0151*
X03331Y01507*
X0334Y01506*
X03348Y01507*
X03356Y0151*
X03363Y01516*
X03369Y01523*
X03372Y01531*
X03373Y0154*
X03372Y01548*
X03369Y01556*
X03363Y01563*
X03356Y01569*
X03348Y01572*
X0334Y01573*
G37*
G36*
X03205Y01572D02*
X03189D01*
Y01557*
X03205*
Y01572*
G37*
G36*
X0323D02*
X03215D01*
Y01552*
X0321*
Y01547*
X03189*
Y01538*
X03138*
X0313Y01545*
X03128Y01547*
X03125Y01548*
X0312*
X03118Y01549*
X03115Y0155*
X03111Y01549*
X03107Y01547*
X03105Y01543*
X03104Y0154*
X03105Y01536*
X03107Y01532*
X03111Y0153*
X03115Y01529*
X03118Y0153*
X0312Y01531*
X03121*
X03129Y01524*
X03131Y01522*
X03135Y01521*
X03221*
X03224Y01522*
X03226Y01524*
X03234Y01532*
X03236Y01534*
Y01534*
X03238Y01537*
X03239Y01537*
X03259*
Y01566*
X0323*
Y01572*
G37*
%LNmcu_pcb-3*%
%LPD*%
G54D14*
X02209Y01777D02*
X02219Y01766D01*
X02517Y01786D02*
X02585D01*
X02512Y01791D02*
X02517Y01786D01*
X02416Y01754D02*
Y0179D01*
G54D15*
X0296Y01705D02*
X03022D01*
X02103Y01732D02*
X0211Y01726D01*
X02091Y01745D02*
X02103Y01732D01*
X02112*
X02101D02*
X02103D01*
X02122Y01742D02*
X02125Y01745D01*
X02122Y01742D02*
Y01742D01*
X02114Y01734D02*
X02122Y01742D01*
X02114Y01734D02*
X02114D01*
X02112Y01732D02*
X02114Y01734D01*
X02074Y01772D02*
X02109D01*
X0211Y01772*
X02074D02*
X02074Y01772D01*
X02091Y01743D02*
X02101Y01732D01*
X02091Y01743D02*
Y01745D01*
X02043D02*
X02091D01*
X02066Y01663D02*
Y0168D01*
Y01663D02*
X02088Y01642D01*
X02043Y01704D02*
X02066Y0168D01*
X02104Y01688D02*
X02251D01*
X02171Y01772D02*
Y01778D01*
X0217Y0178D02*
X02171Y01778D01*
X0217Y0178D02*
Y01785D01*
X02169Y01787D02*
X0217Y01785D01*
X02259Y01696D02*
X02268Y01705D01*
X02251Y01688D02*
X02265Y01702D01*
X02334Y01791D02*
X02417D01*
X0231Y01767D02*
X02334Y01791D01*
X02417D02*
X02512D01*
X02295Y01764D02*
X02298Y01767D01*
X0231*
X02268Y01764D02*
X02295D01*
X02088Y01642D02*
X02188D01*
X02215Y01615*
X02144Y01772D02*
X02171D01*
X02125Y01745D02*
X02186D01*
X02043Y01704D02*
Y01745D01*
X0211Y01772D02*
X02144D01*
X02125Y01745D02*
X02144Y01726D01*
X02043Y01745D02*
Y01784D01*
X01775Y01606D02*
X01777D01*
X01792Y01591D02*
X01795D01*
X01777Y01606D02*
X01792Y01591D01*
X02702Y0169D02*
X02725Y01666D01*
X02667Y0169D02*
X02702D01*
X0266Y01682D02*
X02663D01*
X02652Y01673D02*
X0266Y01682D01*
X02749Y01747D02*
Y01757D01*
X02651Y01673D02*
X02652D01*
X02749Y01747D02*
X0275Y01745D01*
X02725Y01666D02*
X0275D01*
X02215Y01615D02*
X02405D01*
Y01588D02*
Y01615D01*
Y01588D02*
X02422D01*
X02426Y01585*
X03235Y0159D02*
X03238Y01593D01*
X02705Y0152D02*
X02706Y01518D01*
Y01501D02*
Y01518D01*
Y01501D02*
X02708Y015D01*
X03238Y01591D02*
Y01593D01*
Y01591D02*
X03245Y01598D01*
X03125Y0154D02*
X03135Y0153D01*
X03115Y0154D02*
X03125D01*
X03235Y01545D02*
X03238D01*
X0324Y01547*
X03221Y0153D02*
X03228Y01537D01*
X03135Y0153D02*
X03221D01*
X0324Y01547D02*
Y0155D01*
X03242Y01552D02*
X03245D01*
X0324Y0155D02*
X03242Y01552D01*
X03228Y01537D02*
Y01538D01*
X03235Y01545*
X03242Y0163D02*
X03245Y01627D01*
Y01598D02*
Y01627D01*
X03326Y0154D02*
X0334D01*
X03314Y01552D02*
X03326Y0154D01*
X0328Y01552D02*
X03314D01*
G54D18*
X02405Y01708D03*
Y01727D03*
X02442D03*
Y01708D03*
G54D19*
X02423Y01717D03*
G54D20*
X02396Y01681D03*
X02442D03*
X02496Y01766D03*
X0245D03*
X02317Y01734D03*
X02363D03*
X03242Y0163D03*
X03288D03*
X02708Y015D03*
X02662D03*
X02657Y01605D03*
X02703D03*
X02102Y01666D03*
X02148D03*
X02362Y01702D03*
X02316D03*
X02317Y01772D03*
X02363D03*
X02053Y01641D03*
X02007D03*
G54D21*
X02481Y01685D03*
Y01731D03*
X0328Y01552D03*
Y01598D03*
X03245Y01552D03*
Y01598D03*
X0321Y01552D03*
Y01598D03*
X0254Y01687D03*
Y01733D03*
X02144Y01726D03*
Y01772D03*
X0211D03*
Y01726D03*
X02074Y01772D03*
Y01726D03*
X0332Y01718D03*
Y01672D03*
X0327Y01718D03*
Y01672D03*
X0313Y01718D03*
Y01672D03*
X0308D03*
Y01718D03*
G54D22*
X02544Y01763D03*
X02706Y01728D03*
X0266Y01735D03*
X02563Y01661D03*
X02481Y01607D03*
X02585Y01786D03*
X02388Y01737D03*
X02667Y0169D03*
X02592Y01555D03*
X02685Y01635D03*
X03209Y0163D03*
X03081Y01568D03*
X03083Y01619D03*
X02319Y01669D03*
X02282Y01686D03*
X0232Y01582D03*
X02169Y01787D03*
X02724Y0177D03*
X01934Y0168D03*
X01951Y01523D03*
X01876Y01779D03*
X01797Y01519D03*
X01745Y01555D03*
X01795Y01591D03*
X01862Y01657D03*
X03065Y01595D03*
X02705Y0152D03*
X0281Y01782D03*
G54D23*
X02886Y01636D03*
G54D24*
X0275Y01528D03*
Y01548D03*
Y01568D03*
Y01587D03*
Y01607D03*
Y01627D03*
Y01646D03*
Y01666D03*
Y01686D03*
Y01705D03*
Y01725D03*
Y01745D03*
X03022D03*
Y01725D03*
Y01705D03*
Y01686D03*
Y01666D03*
Y01646D03*
Y01627D03*
Y01607D03*
Y01587D03*
Y01568D03*
Y01548D03*
Y01528D03*
G54D25*
X02778Y01772D03*
X02798D03*
X02817D03*
X02837D03*
X02857D03*
X02876D03*
X02896D03*
X02916D03*
X02935D03*
X02955D03*
X02975D03*
X02995D03*
Y01501D03*
X02975D03*
X02955D03*
X02935D03*
X02916D03*
X02896D03*
X02876D03*
X02857D03*
X02837D03*
X02817D03*
X02798D03*
X02778D03*
G54D26*
X02186Y01764D03*
Y01745D03*
Y01725D03*
Y01705D03*
X02268D03*
Y01725D03*
Y01745D03*
Y01764D03*
G54D27*
X02227Y01735D03*
G54D28*
X01769Y01706D03*
X01819D03*
X01769Y01656D03*
X01819D03*
X01769Y01606D03*
X01819D03*
G54D29*
X03079Y0175D03*
X03122D03*
X03279D03*
X03322D03*
G54D30*
X03406Y01775D03*
X03473D03*
G54D31*
X02426Y01585D03*
X02145D03*
G54D32*
X03175Y01777D03*
X032D03*
X03226D03*
X03175Y01723D03*
X032D03*
X03226D03*
G54D33*
X0324Y0175D03*
X03161D03*
G54D34*
X026Y0173D03*
X0197D03*
G54D55*
X02377Y01772D02*
X02396Y01753D01*
X02398*
X02391Y0174D02*
X02404Y01727D01*
X0239Y0174D02*
X02391D01*
X02376Y01754D02*
X0239Y0174D01*
X02424Y0174D02*
X02425D01*
X02404Y01727D02*
X02405D01*
X02513Y01752D02*
Y01757D01*
X02504Y01766D02*
X02513Y01757D01*
X02423Y01717D02*
Y0174D01*
X02128Y01666D02*
X02148D01*
X02102D02*
Y0169D01*
X0213Y01703D02*
X02131Y01704D01*
X02184*
X02186Y01705*
X02494Y01672D02*
X02505D01*
X02481Y01685D02*
X02494Y01672D01*
X02442Y01681D02*
X0245Y01689D01*
X02477Y01681D02*
X02481Y01685D01*
X02442Y01681D02*
X02477D01*
X02358Y0167D02*
X02377D01*
X02355Y01668D02*
X02358Y0167D01*
X02354Y01668D02*
X02355D01*
X02354D02*
X02355Y01669D01*
X02377Y0167D02*
X02405Y01698D01*
X02679Y01786D02*
X02777D01*
X02642Y01749D02*
X02679Y01786D01*
X02778Y01772D02*
Y01784D01*
X02777Y01786D02*
X02778Y01784D01*
X03024Y01628D02*
X03034D01*
X02322Y017D02*
X02361Y01739D01*
X02317Y017D02*
X02322D01*
X02311D02*
X02317D01*
X02369Y01709D02*
X02387D01*
X02362Y01702D02*
X02369Y01709D01*
X02387D02*
X02389Y01711D01*
X02343Y01754D02*
X02376D01*
X02363Y01772D02*
X02377D01*
X02324Y01741D02*
X0233D01*
X02343Y01754*
X02317Y01734D02*
X02324Y01741D01*
X02309Y01745D02*
X02315Y01739D01*
X02268Y01745D02*
X02309D01*
X02219Y01743D02*
Y01766D01*
Y01743D02*
X02227Y01735D01*
X02186Y01705D02*
Y01725D01*
X02228Y01704D02*
Y01734D01*
X02227Y01735D02*
X02228Y01734D01*
X02499Y01717D02*
Y01763D01*
X0249Y01708D02*
X02499Y01717D01*
X02442Y01708D02*
X0249D01*
X02405Y01698D02*
Y01708D01*
X02496Y01766D02*
X02499Y01763D01*
X02442Y01727D02*
X02442D01*
X02444Y01728*
Y01729*
X02448Y01733*
X02473*
X02454Y01751D02*
X02473Y01733D01*
X02454Y01751D02*
Y01761D01*
X0245Y01766D02*
X02454Y01761D01*
X02423Y0174D02*
X02424Y0174D01*
X02287Y01724D02*
X02311Y017D01*
X02416Y0179D02*
X02417Y01791D01*
X02269Y01724D02*
X02287D01*
X02268Y01725D02*
X02269Y01724D01*
X02102Y0169D02*
X02104Y01688D01*
X02074Y01718D02*
X02102Y0169D01*
X02074Y01718D02*
Y01726D01*
X02665Y0163D02*
X02666Y01628D01*
X02053Y01641D02*
Y0165D01*
Y01639D02*
Y01641D01*
X02062Y0163D02*
X02184D01*
X02053Y01639D02*
X02062Y0163D01*
X02184D02*
X02214Y016D01*
X03046Y01646D02*
X03055Y01655D01*
X0193Y01699D02*
X01934Y01695D01*
Y0168D02*
Y01695D01*
X01921Y01707D02*
X0193Y01699D01*
X01921Y01707D02*
Y01722D01*
X01919Y01725D02*
X01921Y01722D01*
X01917Y01725D02*
X01919D01*
X01898Y01716D02*
Y01741D01*
X01898Y01716D02*
X01898Y01716D01*
Y01741D02*
X01899Y01742D01*
X01898Y01716D02*
X0191Y01704D01*
X01804Y01608D02*
X01806Y01606D01*
X0185Y01622D02*
Y01631D01*
X0183Y01632D02*
X0184Y01622D01*
X01799Y01632D02*
X0183D01*
X01883Y01591D02*
X01884Y0159D01*
X0187Y0161D02*
X01883Y01597D01*
X01775Y01656D02*
X01799Y01632D01*
X01861Y01611D02*
X01867D01*
X0184Y01618D02*
Y01622D01*
X01847Y01602D02*
X01874Y01575D01*
X01847Y01602D02*
Y0161D01*
X01806Y01606D02*
X01819D01*
X01867Y01611D02*
X01868Y0161D01*
X01825Y01656D02*
X0185Y01631D01*
X01819Y01606D02*
X01825D01*
X01883Y01591D02*
Y01597D01*
X01868Y0161D02*
X0187D01*
X0185Y01622D02*
X01861Y01611D01*
X0184Y01618D02*
X01847Y0161D01*
X0191Y01596D02*
Y01704D01*
X02024Y01558D02*
X02039Y01542D01*
X02021Y01543D02*
X0204Y01525D01*
X01985Y01543D02*
X02021D01*
X02039Y01542D02*
X02107D01*
X0204Y01525D02*
X02067D01*
X02024Y01558D02*
Y01577D01*
X02475Y01542D02*
X02582Y01649D01*
X02022Y01507D02*
X02471D01*
X02005Y01525D02*
X02022Y01507D01*
X01971Y01543D02*
X01985D01*
Y01525D02*
Y01543D01*
X01937Y01497D02*
X02477D01*
X02471Y01507D02*
X02587Y01623D01*
X02477Y01497D02*
X02556Y01576D01*
X01892Y01543D02*
X01937Y01497D01*
X02467Y01517D02*
X02577Y01627D01*
X02075Y01517D02*
X02467D01*
X02067Y01525D02*
X02075Y01517D01*
X02107Y01542D02*
X02475D01*
X02107Y01542D02*
X02107Y01542D01*
X03188Y01598D02*
X0321D01*
X03172Y01582D02*
X03188Y01598D01*
X02642Y01709D02*
Y01749D01*
X01781Y01525D02*
X01785D01*
X01789Y0152*
X01795*
X01797Y01519*
X02597Y01664D02*
Y01672D01*
X02582Y01649D02*
X02597Y01664D01*
Y01672D02*
X02619Y01694D01*
X02627*
X02642Y01709*
X02556Y01576D02*
X02597Y01617D01*
X02571Y01576D02*
X02592Y01556D01*
Y01555D02*
Y01556D01*
X02664Y0164D02*
X02677Y01653D01*
X02556Y01576D02*
X02571D01*
X02659Y01639D02*
X02659Y0164D01*
X02664*
X03209Y0163D02*
X03242D01*
X0267Y01622D02*
X02674Y01618D01*
X02669Y01622D02*
X0267D01*
X02665Y01627D02*
X02669Y01622D01*
X02674Y01601D02*
Y01618D01*
X02692Y01653D02*
X02718Y01626D01*
X02677Y01653D02*
X02692D01*
X02696Y01663D02*
X0272Y01639D01*
X02673Y01663D02*
X02696D01*
X02671Y01661D02*
X02673Y01663D01*
X02671Y01661D02*
X02671D01*
X0266Y01651D02*
X02671Y01661D01*
X02703Y01673D02*
X02724Y01652D01*
X02668Y01673D02*
X02703D01*
X02667Y01671D02*
X02668Y01673D01*
X02667Y01671D02*
X02667D01*
X02656Y01661D02*
X02667Y01671D01*
X02656Y01651D02*
X0266D01*
X02654Y01649D02*
X02656Y01651D01*
X02652Y01661D02*
X02656D01*
X0265Y01659D02*
X02652Y01661D01*
X0267Y01705D02*
Y01727D01*
X02669Y01728D02*
X0267Y01727D01*
X02659Y01705D02*
X0267D01*
X02655Y0171D02*
X02659Y01705D01*
X0267D02*
X0275D01*
X01892Y01578D02*
X0191Y01596D01*
X03022Y01646D02*
X03046D01*
X0274Y01568D02*
X0275D01*
X02602Y01579D02*
X02621Y0156D01*
X02674Y01601D02*
X02701Y01574D01*
X02738Y01548D02*
X0275D01*
X03022Y01627D02*
X03024Y01628D01*
X02602Y01579D02*
Y01597D01*
X02737Y0157D02*
Y01571D01*
X02995Y01778D02*
X03041D01*
X03022Y01745D02*
X03039D01*
X02621Y0156D02*
X02726D01*
X03039Y01745D02*
X0305Y01735D01*
X02665Y0163D02*
D01*
X02733Y01574D02*
X02737Y01571D01*
X02602Y01597D02*
X0261Y01605D01*
X02995Y01772D02*
Y01778D01*
X02665Y01627D02*
Y0163D01*
X02701Y01574D02*
X02733D01*
X0261Y01605D02*
Y01615D01*
X02726Y0156D02*
X02738Y01548D01*
X02995Y01778D02*
X02995Y01778D01*
X03041D02*
X03048Y01771D01*
X02737Y0157D02*
X0274Y01568D01*
X01892Y01543D02*
Y01578D01*
X02556Y01705D02*
Y01714D01*
X02555Y01703D02*
X02556Y01705D01*
X02555Y01703D02*
X02556Y01701D01*
X0254Y01685D02*
X02556Y01701D01*
X02615Y01585D02*
X02616Y01586D01*
X02608Y01659D02*
X0265D01*
X02612Y01649D02*
X02654D01*
X02616Y01639D02*
X02659D01*
X02597Y0162D02*
X02616Y01639D01*
X02587Y01624D02*
X02612Y01649D01*
X02577Y01628D02*
X02608Y01659D01*
X02577Y01627D02*
Y01628D01*
X02587Y01623D02*
Y01624D01*
X02597Y01617D02*
Y0162D01*
X02616Y01586D02*
Y01591D01*
X0263Y01605*
X02657*
X0272Y01639D02*
X02724D01*
X0264Y015D02*
X02662D01*
X02732Y01649D02*
X02748D01*
X02729Y01652D02*
X02732Y01649D01*
X02724Y01652D02*
X02729D01*
X02724D02*
D01*
D01*
X0254Y01682D02*
Y01685D01*
Y01728D02*
X02598D01*
X02718Y01626D02*
X0275D01*
X0275Y01627*
X02748Y01649D02*
X0275Y01646D01*
X02214Y016D02*
X02375D01*
X02598Y01728D02*
X026Y0173D01*
X02745Y01605D02*
X0275Y0161D01*
X02703Y01605D02*
X02745D01*
X0275Y0161D02*
X0275Y01609D01*
Y01607D02*
Y01609D01*
G54D56*
X02513Y01752D02*
Y01755D01*
X02521Y01763*
X02432Y0159D02*
X02464D01*
X02426Y01585D02*
X02432Y0159D01*
X02464D02*
X02481Y01607D01*
X02171Y01772D02*
X02174Y01769D01*
Y01768D02*
Y01769D01*
Y01768D02*
X02178Y01764D01*
X02186*
X03023Y01547D02*
X0306D01*
X03081Y01568*
X02724Y0177D02*
X02736D01*
X02749Y01757*
X02317Y017D02*
X02318Y017D01*
X02316Y01702D02*
X02317Y017D01*
X02318Y01684D02*
X02319Y01683D01*
X02318Y01684D02*
Y017D01*
X02319Y01669D02*
Y01683D01*
X02521Y01763D02*
X02544D01*
X02496Y01766D02*
X02504D01*
X02265Y01702D02*
X02282Y01686D01*
X02265Y01702D02*
D01*
X03055Y01655D02*
X03055Y01654D01*
X01884Y01787D02*
X01892D01*
X01876Y01779D02*
X01884Y01787D01*
X0197Y0173D02*
X02007Y01693D01*
Y0165D02*
Y01693D01*
X01951Y01523D02*
X01971Y01543D01*
X02857Y01493D02*
Y01499D01*
X02857Y01499*
Y01501*
X02662Y01735D02*
X02669Y01728D01*
X0266Y01735D02*
X02662D01*
X02577Y01649D02*
X02582D01*
X02565Y01661D02*
X02577Y01649D01*
X02563Y01661D02*
X02565D01*
X03055Y01647D02*
X03083Y01619D01*
X03055Y01647D02*
Y01654D01*
X02706Y01727D02*
X02737D01*
X02706Y01728D02*
X02706Y01727D01*
X02737D02*
X0274Y01725D01*
X01739Y01562D02*
X01743Y01557D01*
X01744*
X01747Y01554*
X01751*
X01739Y01562D02*
Y01625D01*
X01769Y01656*
X02685Y01623D02*
Y01635D01*
Y01623D02*
X02703Y01605D01*
G54D57*
X02857Y01666D02*
Y01772D01*
Y01666D02*
X02886Y01636D01*
X02761Y01511D02*
Y01528D01*
X03075Y01711D02*
Y01713D01*
X0308Y01718*
X03022Y01686D02*
X0305D01*
X01827Y01704D02*
X01884D01*
X01822D02*
X01827D01*
X01822D02*
X01824Y01706D01*
X01778D02*
X01792Y0172D01*
X01793Y01719*
X01819Y01706D02*
X01824D01*
X01793Y01719D02*
X01797D01*
X02778Y01501D02*
Y01511D01*
X02778Y01511D02*
X02778Y01511D01*
X0275Y01528D02*
X02761D01*
Y01511D02*
X02778D01*
X03374Y01733D02*
X03374Y01732D01*
X03385*
X03386Y01732*
X0327Y01718D02*
X03274Y01722D01*
Y01745*
X03279Y0175*
X03122D02*
X03126Y01745D01*
Y01722D02*
X0313Y01718D01*
X0216Y0157D02*
X0219D01*
X02145Y01585D02*
X0216Y0157D01*
X03291Y01593D02*
X033Y01585D01*
X03284Y01593D02*
X03291D01*
X0328Y01598D02*
X03285Y01603D01*
X0328Y01598D02*
X03284Y01593D01*
X03285Y01627D02*
X03288Y0163D01*
X03285Y01603D02*
Y01627D01*
X02708Y015D02*
X02778D01*
X02778Y015D02*
Y01501D01*
X02778Y015D02*
X02778Y015D01*
G54D58*
X03057Y01693D02*
X03075Y01711D01*
X0305Y01686D02*
X03057Y01693D01*
X01825Y01706D02*
X01827Y01704D01*
X01827Y01703*
X01775Y01706D02*
X01778D01*
X0308Y01718D02*
Y01746D01*
X03321Y01733D02*
X03374D01*
X0324Y0175D02*
X03279D01*
X03122D02*
X03161D01*
X03126Y01722D02*
Y01745D01*
G54D59*
X03403Y01751D03*
G54D60*
X03397Y01723D03*
G54D61*
X03439Y01626D03*
G54D62*
X03478Y01705D03*
G54D63*
X03399Y01646D03*
G54D64*
X01834Y01756D03*
X01754D03*
X01794Y01556D03*
G54D65*
X0344Y0154D03*
G54D66*
X0334Y0154D03*
G54D67*
X02398Y01753D03*
X02425Y0174D03*
X02513Y01752D03*
X02109Y01748D03*
X02128Y01666D03*
X0213Y01703D03*
X02505Y01672D03*
X02354Y01668D03*
X0292Y0148D03*
X02956Y01502D03*
X02935D03*
X03021Y01547D03*
X02389Y01711D03*
X02209Y01777D03*
X02355Y0163D03*
X03035Y01665D03*
X03055Y01655D03*
X01892Y01787D03*
X01899Y01742D03*
X01804Y01608D03*
X01884Y0159D03*
X01797Y01719D03*
X01874Y01575D03*
X02043Y01784D03*
X01976Y01777D03*
X02005Y01525D03*
X01985D03*
X02024Y01577D03*
X02081Y0153D03*
X01845Y01552D03*
X03172Y01582D03*
X02857Y01493D03*
X025Y01615D03*
X0233Y01587D03*
X02655Y0171D03*
X02325Y0156D03*
X0253Y01515D03*
X02651Y01673D03*
X01781Y01525D03*
X03295Y01699D03*
X0274Y01725D03*
X03191Y01688D03*
X03034Y01627D03*
X02878Y01782D03*
X02839D03*
X03035Y01725D03*
X02839Y01492D03*
X02665Y01627D03*
X02799Y01502D03*
X0305Y01735D03*
X02749Y01757D03*
X02735Y01686D03*
X02898Y01492D03*
X03048Y01771D03*
X02819Y01502D03*
X0261Y01615D03*
X01764Y01631D03*
X03148Y01774D03*
X03256D03*
X03202Y01752D03*
X03478Y01502D03*
X03479Y01519D03*
Y01538D03*
Y01558D03*
Y01578D03*
X0346Y01582D03*
X0344D03*
X0342D03*
X03355Y01687D03*
X02416Y01754D03*
X02556Y01714D03*
X03055Y0162D03*
X03105Y0169D03*
X0271Y0175D03*
X02615Y01585D03*
X0263Y01675D03*
X0264Y015D03*
X0219Y0157D03*
X0311Y0178D03*
X03462Y01493D03*
X0344D03*
X03419D03*
X03397Y01579D03*
Y01536D03*
Y01493D03*
X03375Y01579D03*
X03386Y01558D03*
Y01514D03*
X03375Y01493D03*
X03354Y01752D03*
Y01709D03*
Y01666D03*
Y01623D03*
Y01579D03*
Y01493D03*
X03343Y01774D03*
Y01644D03*
X03332Y01623D03*
X03343Y01601D03*
X03332Y01493D03*
X03321Y01774D03*
Y01644D03*
Y01601D03*
X0331Y01493D03*
X033Y01774D03*
X03289Y01493D03*
X03278Y01774D03*
X03267Y01493D03*
X03246D03*
X03235Y01687D03*
X03224Y01666D03*
Y01493D03*
X03213Y01687D03*
X03202Y01493D03*
X03181D03*
X03159D03*
X03137D03*
X03127Y01774D03*
X02724Y01639D03*
X02375Y016D03*
X03235Y0159D03*
X033Y01585D03*
X03115Y0154D03*
G54D68*
X02047Y01672D03*
X02886Y01643D03*
X02918Y01693D03*
X02858Y01695D03*
X01917Y01725D03*
X01884Y01704D03*
X02045Y01578D03*
X01967Y01587D03*
X02514Y01705D03*
X02955Y01655D03*
X0292Y01605D03*
X01868Y0163D03*
X02805Y0165D03*
Y01605D03*
X0298Y0172D03*
X0286Y01605D03*
X0296Y01555D03*
X02805D03*
Y01725D03*
M02*