%FSTAX23Y23*%
%MOIN*%
%SFA1B1*%

%IPPOS*%
%ADD9500C,0.005900*%
%ADD9501C,0.007900*%
%ADD9502C,0.011800*%
%ADD9503C,0.035400*%
%ADD9504C,0.039000*%
%LNmcu_pcb-1*%
%LPD*%
G54D9500*
X01781Y01525D03*
X01845Y01552D03*
X01985Y01525D03*
X02005D03*
X02081Y0153D03*
X02325Y0156D03*
X0253Y01515D03*
X0264Y015D03*
X02799Y01502D03*
X02819D03*
X02839Y01492D03*
X02857Y01493D03*
X02898Y01492D03*
X0292Y0148D03*
X02935Y01502D03*
X02956D03*
X03021Y01547D03*
X03115Y0154D03*
X03137Y01493D03*
X03159D03*
X03181D03*
X03202D03*
X03224D03*
X03246D03*
X03267D03*
X03289D03*
X0331D03*
X03332D03*
X03354D03*
X03375D03*
X03397D03*
X03419D03*
X0344D03*
X03462D03*
X03478Y01502D03*
X03479Y01519D03*
Y01538D03*
Y01558D03*
X03386Y01558D03*
X03397Y01536D03*
X03386Y01514D03*
X03397Y01579D03*
X03375D03*
X03354D03*
X03343Y01601D03*
X03321D03*
X03332Y01623D03*
X03354D03*
X03343Y01644D03*
X03321D03*
X03354Y01666D03*
X03355Y01687D03*
X03354Y01709D03*
Y01752D03*
X03343Y01774D03*
X03321D03*
X033D03*
X03278D03*
X03256D03*
X03202Y01752D03*
X03148Y01774D03*
X03127D03*
X03191Y01688D03*
X03213Y01687D03*
X03235D03*
X03224Y01666D03*
X03235Y0159D03*
X033Y01585D03*
X03295Y01699D03*
X03172Y01582D03*
X0342D03*
X0344D03*
X0346D03*
X03479Y01578D03*
X03055Y0162D03*
X03034Y01627D03*
X03035Y01665D03*
X03055Y01655D03*
X0305Y01735D03*
X03035Y01725D03*
X03048Y01771D03*
X0311Y0178D03*
X03105Y0169D03*
X02878Y01782D03*
X02839D03*
X02749Y01757D03*
X0274Y01725D03*
X02735Y01686D03*
X02724Y01639D03*
X02665Y01627D03*
X02651Y01673D03*
X0263Y01675D03*
X02655Y0171D03*
X0271Y0175D03*
X02556Y01714D03*
X02513Y01752D03*
X02505Y01672D03*
X025Y01615D03*
X0261D03*
X02615Y01585D03*
X02375Y016D03*
X02355Y0163D03*
X02354Y01668D03*
X02389Y01711D03*
X02398Y01753D03*
X02416Y01754D03*
X02425Y0174D03*
X0233Y01587D03*
X0219Y0157D03*
X02128Y01666D03*
X0213Y01703D03*
X02109Y01748D03*
X02043Y01784D03*
X01976Y01777D03*
X01892Y01787D03*
X01899Y01742D03*
X01797Y01719D03*
X01804Y01608D03*
X01764Y01631D03*
X01884Y0159D03*
X01874Y01575D03*
X02024Y01577D03*
X02209Y01777D03*
G54D9501*
X02705Y0152D03*
X0281Y01782D03*
X03065Y01595D03*
X01862Y01657D03*
X01795Y01591D03*
G54D9502*
X02805Y01555D03*
X0296D03*
X0292Y01605D03*
X0286D03*
X02805D03*
Y0165D03*
Y01725D03*
X02858Y01695D03*
X02918Y01693D03*
X02955Y01655D03*
X02886Y01643D03*
X0298Y0172D03*
X02514Y01705D03*
X02047Y01672D03*
X02045Y01578D03*
X01967Y01587D03*
X01868Y0163D03*
X01884Y01704D03*
X01917Y01725D03*
G54D9503*
X0334Y0154D03*
X0344D03*
G54D9504*
X01794Y01556D03*
X01834Y01756D03*
X01754D03*
M02*