%FSTAX23Y23*%
%MOIN*%
%SFA1B1*%

%IPPOS*%
%ADD40R,0.029650X0.029650*%
%ADD47R,0.029650X0.029650*%
%ADD57C,0.027490*%
%ADD58R,0.067060X0.067060*%
%ADD59C,0.067060*%
%ADD93R,0.026900X0.033390*%
%ADD94R,0.045400X0.043430*%
%ADD95R,0.033590X0.021780*%
%ADD96R,0.051310X0.074930*%
%ADD97R,0.039500X0.019810*%
%ADD98R,0.076900X0.069020*%
%ADD99R,0.035560X0.037530*%
%ADD100R,0.031620X0.055240*%
%ADD101R,0.053280X0.065090*%
%ADD102R,0.047370X0.043430*%
%ADD103R,0.023750X0.061150*%
%ADD104R,0.094610X0.070990*%
%ADD105R,0.078870X0.082800*%
%ADD106R,0.082800X0.082800*%
%ADD107R,0.019810X0.051310*%
%ADD108R,0.047370X0.078870*%
%LNmcu_pcb_v2-1*%
%LPD*%
G54D40*
X022Y01606D03*
X02154D03*
X02727Y0175D03*
X02773D03*
X03008Y0177D03*
X02962D03*
Y01735D03*
X03008D03*
X02962Y017D03*
X03008D03*
G54D47*
X01833Y01627D03*
Y01581D03*
Y01501D03*
Y01547D03*
X0299Y01653D03*
Y01607D03*
X0264Y01602D03*
Y01648D03*
X02678Y01602D03*
Y01648D03*
X0286Y01527D03*
Y01573D03*
X02895D03*
Y01527D03*
X03034Y01604D03*
Y0165D03*
X0299Y01558D03*
Y01512D03*
G54D57*
X01834Y01756D03*
X01754D03*
X01794Y01556D03*
G54D58*
X0344Y0154D03*
G54D59*
X0334Y0154D03*
G54D93*
X02186Y01509D03*
X02147D03*
X02167Y01568D03*
G54D94*
X03108Y01506D03*
Y01565D03*
G54D95*
X0176Y01656D03*
Y01682D03*
Y01707D03*
X01847D03*
Y01682D03*
Y01656D03*
G54D96*
X01803Y01682D03*
G54D97*
X03274Y01574D03*
Y01554D03*
Y01535D03*
Y01515D03*
X03155D03*
Y01535D03*
Y01554D03*
Y01574D03*
G54D98*
X03215Y01545D03*
G54D99*
X03155Y01608D03*
Y01661D03*
X03116D03*
Y01608D03*
G54D100*
X02157Y0166D03*
X02195D03*
X02232D03*
Y01759D03*
X02195D03*
X02157D03*
G54D101*
X02844Y01745D03*
X02915D03*
G54D102*
X03063Y01567D03*
Y01504D03*
G54D103*
X02475Y0165D03*
X0245D03*
X02424D03*
X02398D03*
X02373D03*
G54D104*
X02548Y01645D03*
X023D03*
G54D105*
X02581Y01544D03*
X02266D03*
G54D106*
X02471Y01544D03*
X02377D03*
G54D107*
X02063Y01546D03*
Y01763D03*
X02044Y01546D03*
Y01763D03*
X02024Y01546D03*
Y01763D03*
X02004Y01546D03*
Y01763D03*
X01985Y01546D03*
Y01763D03*
X01965Y01546D03*
Y01763D03*
X01945Y01546D03*
Y01763D03*
X01926Y01546D03*
Y01763D03*
G54D108*
X0265Y0155D03*
X02749D03*
M02*