%FSTAX23Y23*%
%MOIN*%
%SFA1B1*%

%IPPOS*%
%ADD10C,0.010000*%
%ADD27C,0.015750*%
%ADD71R,0.059060X0.059060*%
%ADD73C,0.023620*%
%ADD74C,0.030000*%
%LNmcu_pcb_v2-1*%
%LPD*%
G36*
X03368Y01603D02*
X03369Y016D01*
X03372Y01598*
X03488*
Y0148*
X03037*
X03034Y01485*
X03035Y01488*
X03034Y01492*
X03031Y01496*
X03027Y01499*
X03023Y015*
X03018Y01499*
X03014Y01496*
X03011Y01492*
X0301Y01488*
X03011Y01485*
X03008Y0148*
X02992*
X02989Y01483*
X02989Y01484*
X02988Y01488*
X02985Y01492*
X02981Y01495*
X02977Y01496*
X02972Y01495*
X02968Y01492*
X02966Y01488*
X02965Y01484*
X02965Y01483*
X02962Y0148*
X02933*
X0293Y01484*
X02932Y01488*
X02934Y0149*
X02935Y0149*
X02939Y01491*
X02943Y01493*
X02947Y01496*
X02951Y01493*
X02956Y01492*
X0296Y01493*
X02964Y01496*
X02967Y015*
X02968Y01505*
X02967Y01509*
X02964Y01513*
X0296Y01516*
X02956Y01517*
X02951Y01516*
X02947Y01513*
X02943Y0151*
X02939Y01513*
X02935Y01514*
X0293Y01513*
X02926Y0151*
X02923Y01506*
X02922Y01502*
X02918Y015*
X02918Y015*
X02913Y01499*
X02913Y01499*
X02909Y01496*
X02906Y015*
X02902Y01503*
X02898Y01504*
X02893Y01503*
X02889Y015*
X02889Y015*
X02884Y01498*
X0288Y01501*
X02876Y01502*
X02871Y01501*
X02867Y01498*
X02864Y01494*
X02863Y0149*
X02864Y01485*
X02865Y01485*
X02862Y0148*
X02849*
X02847Y01485*
X02848Y01486*
X02849Y01491*
X02848Y01495*
X02845Y01499*
X02841Y01502*
X02837Y01503*
X02836Y01502*
X02832Y01502*
X0283Y01506*
X0283Y01506*
X02827Y0151*
X02824Y01513*
X02819Y01514*
X02814Y01513*
X02812Y01512*
X02807Y0151*
X02803Y01513*
X02799Y01514*
X02794Y01513*
X0279Y0151*
X02787Y01506*
X02786Y01502*
X02787Y01497*
X0279Y01493*
X02794Y0149*
X02799Y01489*
X02803Y0149*
X02805Y01492*
X0281Y01493*
X02814Y01491*
X02819Y0149*
X0282Y0149*
X02824Y0149*
X02825Y01486*
X02825Y01486*
X02826Y01485*
X02824Y0148*
X0173*
Y01741*
X01735Y01743*
X01737Y01739*
X01745Y01733*
X01754Y01732*
X01763Y01733*
X01771Y01739*
X01776Y01746*
X01778Y01756*
X01776Y01765*
X01771Y01772*
X01763Y01778*
X01754Y01779*
X01745Y01778*
X01737Y01772*
X01735Y01768*
X0173Y0177*
Y01795*
X01877*
X0188Y0179*
X01879Y01787*
X0188Y01782*
X01883Y01778*
X01887Y01775*
X01892Y01774*
X01896Y01775*
X019Y01778*
X01903Y01782*
X01904Y01787*
X01903Y0179*
X01906Y01795*
X0203*
X02032Y0179*
X02031Y01788*
X0203Y01784*
X02031Y01779*
X02034Y01775*
X02038Y01772*
X02043Y01771*
X02047Y01772*
X02051Y01775*
X02054Y01779*
X02055Y01784*
X02054Y01788*
X02053Y0179*
X02055Y01795*
X02271*
Y01776*
X02272Y01772*
X02276Y01771*
X02281*
X02284Y01766*
X02284Y01765*
X02214Y01695*
X02142Y01623*
X02105*
X02102Y01625*
X02098Y01626*
X02093Y01625*
X02089Y01622*
X02086Y01618*
X02085Y01614*
X02086Y01609*
X02089Y01605*
X02093Y01602*
X02098Y01601*
X02102Y01602*
X02105Y01604*
X02146*
X02149Y01605*
X02152Y01607*
X02221Y01676*
X02231Y01665*
X02234Y01663*
X02237Y01662*
X02345*
X02349Y01663*
X02352Y01665*
X02363Y01676*
X02365Y01679*
X02377*
X0238Y01677*
X02384Y01676*
X02389Y01677*
X02393Y01679*
X02395Y01683*
X02396Y01688*
X02395Y01693*
X02393Y01697*
X02389Y01699*
X02384Y017*
X0238Y01699*
X02377Y01697*
X02362*
X02359Y01698*
X02356Y01697*
X02354Y01696*
X02351Y01696*
X02347Y01697*
X02347Y01697*
X02343Y017*
X02339Y01701*
X02334Y017*
X0233Y01697*
X02327Y01693*
X02326Y01689*
X02327Y01686*
X02324Y01681*
X02241*
X02233Y01689*
X02297Y01752*
X023Y01752*
X02304Y01755*
X02307Y01759*
X02308Y01764*
X02307Y01766*
X0231Y01771*
X02317*
X0232Y01772*
X02321Y01776*
Y01795*
X02798*
X02799Y01793*
X028Y0179*
X02798Y01786*
X02797Y01782*
X02798Y01777*
X02801Y01773*
X02805Y01771*
X0281Y0177*
X02814Y01771*
X02818Y01773*
X02821Y01777*
X02822Y01782*
X02821Y01786*
X02819Y0179*
X0282Y01793*
X02821Y01795*
X02827*
X02828Y01793*
X02829Y0179*
X02827Y01786*
X02826Y01782*
X02827Y01777*
X0283Y01773*
X02834Y01771*
X02839Y0177*
X02843Y01771*
X02847Y01773*
X0285Y01777*
X02851Y01782*
X0285Y01786*
X02848Y0179*
X02849Y01793*
X0285Y01795*
X02867*
X02868Y01793*
X02869Y0179*
X02867Y01786*
X02866Y01782*
X02867Y01777*
X02869Y01773*
X02873Y01771*
X02878Y0177*
X02883Y01771*
X02886Y01773*
X02889Y01777*
X0289Y01782*
X02889Y01786*
X02887Y0179*
X02888Y01793*
X02889Y01795*
X03368*
Y01603*
G37*
%LNmcu_pcb_v2-2*%
%LPC*%
G36*
X0275Y01775D02*
X02745Y01774D01*
X02741Y01772*
X02738Y01768*
X02737Y01763*
X02738Y01758*
X02741Y01754*
X02745Y01752*
X0275Y01751*
X02754Y01752*
X02758Y01754*
X02761Y01758*
X02762Y01763*
X02761Y01768*
X02758Y01772*
X02754Y01774*
X0275Y01775*
G37*
G36*
X02439Y01761D02*
Y01749D01*
X02451*
X0245Y0175*
X02446Y01756*
X0244Y0176*
X02439Y01761*
G37*
G36*
X02515Y01766D02*
X0251Y01765D01*
X02506Y01762*
X02503Y01758*
X02502Y01754*
X02503Y01749*
X02506Y01745*
X0251Y01742*
X02515Y01742*
X02519Y01742*
X02523Y01745*
X02526Y01749*
X02527Y01754*
X02526Y01758*
X02523Y01762*
X02519Y01765*
X02515Y01766*
G37*
G36*
X03046Y01784D02*
X03041Y01783D01*
X03037Y0178*
X03034Y01776*
X03033Y01772*
X03034Y01767*
X03037Y01763*
X03041Y0176*
X03043Y0176*
X03044Y01755*
X03043Y01754*
X0304Y0175*
X03039Y01746*
X0304Y01741*
X03041Y0174*
X03038Y01736*
X03035Y01737*
X0303Y01736*
X03026Y01733*
X03023Y01729*
X03022Y01725*
X03023Y0172*
X03026Y01716*
X0303Y01713*
X03035Y01712*
X03039Y01713*
X03043Y01716*
X03046Y0172*
X03047Y01725*
X03046Y01729*
X03045Y0173*
X03048Y01734*
X03052Y01733*
X03056Y01734*
X0306Y01737*
X03063Y01741*
X03064Y01746*
X03063Y0175*
X0306Y01754*
X03056Y01757*
X03054Y01757*
X03053Y01762*
X03054Y01763*
X03057Y01767*
X03058Y01772*
X03057Y01776*
X03054Y0178*
X0305Y01783*
X03046Y01784*
G37*
G36*
X01834Y01779D02*
X01825Y01778D01*
X01817Y01772*
X01812Y01765*
X0181Y01756*
X01812Y01746*
X01817Y01739*
X01825Y01733*
X01834Y01732*
X01843Y01733*
X01851Y01739*
X01856Y01746*
X01858Y01756*
X01856Y01765*
X01851Y01772*
X01843Y01778*
X01834Y01779*
G37*
G36*
X02451Y01739D02*
X02439D01*
Y01726*
X0244Y01727*
X02446Y01731*
X0245Y01737*
X02451Y01739*
G37*
G36*
X02416Y01766D02*
X02411Y01765D01*
X02407Y01762*
X02404Y01758*
X02403Y01754*
X02404Y01749*
X02407Y01745*
X02411Y01742*
X02416Y01741*
X02416Y01741*
X02417Y01737*
X02421Y01731*
X02427Y01727*
X02429Y01726*
Y01744*
Y01761*
X02427Y0176*
X02425Y01761*
X02424Y01762*
X0242Y01765*
X02416Y01766*
G37*
G36*
X0274Y01737D02*
X02735Y01736D01*
X02731Y01733*
X02728Y01729*
X02727Y01725*
X02728Y0172*
X02731Y01716*
X02735Y01713*
X0274Y01712*
X02744Y01713*
X02748Y01716*
X02751Y0172*
X02752Y01725*
X02751Y01729*
X02748Y01733*
X02744Y01736*
X0274Y01737*
G37*
G36*
X01899Y01754D02*
X01894Y01753D01*
X0189Y0175*
X01887Y01746*
X01886Y01742*
X01887Y01737*
X0189Y01733*
X01894Y0173*
X01899Y01729*
X01901Y01727*
X019Y01725*
X01902Y01718*
X01905Y01713*
X0191Y0171*
X01917Y01708*
X01923Y0171*
X01928Y01713*
X01931Y01718*
X01933Y01725*
X01931Y01731*
X01928Y01736*
X01923Y01739*
X01917Y01741*
X01915Y0174*
X01911Y01742*
X0191Y01746*
X01907Y0175*
X01903Y01753*
X01899Y01754*
G37*
G36*
X02656Y01728D02*
X02651Y01727D01*
X02647Y01724*
X02644Y0172*
X02643Y01716*
X02644Y01711*
X02647Y01707*
X02651Y01704*
X02656Y01703*
X0266Y01704*
X02664Y01707*
X02667Y01711*
X02668Y01716*
X02667Y0172*
X02664Y01724*
X0266Y01727*
X02656Y01728*
G37*
G36*
X02557Y01718D02*
X02552Y01717D01*
X02548Y01714*
X02545Y0171*
X02544Y01706*
X02545Y01701*
X02548Y01697*
X02552Y01694*
X02557Y01693*
X02561Y01694*
X02565Y01697*
X02568Y01701*
X02569Y01706*
X02568Y0171*
X02565Y01714*
X02561Y01717*
X02557Y01718*
G37*
G36*
X02514Y01721D02*
X02508Y0172D01*
X02503Y01717*
X02499Y01711*
X02498Y01705*
X02499Y01699*
X02503Y01694*
X02508Y0169*
X02514Y01689*
X0252Y0169*
X02526Y01694*
X02529Y01699*
X0253Y01705*
X02529Y01711*
X02526Y01717*
X0252Y0172*
X02514Y01721*
G37*
G36*
X01884Y0172D02*
X01877Y01718D01*
X01872Y01715*
X01869Y0171*
X01867Y01704*
X01869Y01697*
X01872Y01692*
X01877Y01689*
X01884Y01687*
X0189Y01689*
X01895Y01692*
X01898Y01697*
X019Y01704*
X01898Y0171*
X01895Y01715*
X0189Y01718*
X01884Y0172*
G37*
G36*
X02743Y01699D02*
X02738Y01698D01*
X02734Y01695*
X02731Y01691*
X0273Y01687*
X02731Y01682*
X02734Y01678*
X02738Y01675*
X02743Y01674*
X02747Y01675*
X02751Y01678*
X02754Y01682*
X02755Y01687*
X02754Y01691*
X02751Y01695*
X02747Y01698*
X02743Y01699*
G37*
G36*
X02691Y0169D02*
X02686Y01689D01*
X02682Y01687*
X02679Y01683*
X02678Y01678*
X02679Y01674*
X02682Y0167*
X02686Y01667*
X02691Y01666*
X02695Y01667*
X02699Y0167*
X02702Y01674*
X02703Y01678*
X02702Y01683*
X02699Y01687*
X02695Y01689*
X02691Y0169*
G37*
G36*
X02651Y0169D02*
X02646Y01689D01*
X02642Y01686*
X02639Y01682*
X02638Y01678*
X02639Y01673*
X02642Y01669*
X02646Y01666*
X02651Y01665*
X02655Y01666*
X02659Y01669*
X02662Y01673*
X02663Y01678*
X02662Y01682*
X02659Y01686*
X02655Y01689*
X02651Y0169*
G37*
G36*
X02047Y01688D02*
X0204Y01686D01*
X02035Y01683*
X02032Y01678*
X0203Y01672*
X02032Y01665*
X02035Y0166*
X0204Y01657*
X02047Y01655*
X02053Y01657*
X02058Y0166*
X02061Y01665*
X02063Y01672*
X02061Y01678*
X02058Y01683*
X02053Y01686*
X02047Y01688*
G37*
G36*
X01881Y01669D02*
X01876Y01668D01*
X01872Y01665*
X01869Y01661*
X01868Y01657*
X01869Y01652*
X01872Y01648*
X01876Y01645*
X01881Y01644*
X01885Y01645*
X01889Y01648*
X01892Y01652*
X01893Y01657*
X01892Y01661*
X01889Y01665*
X01885Y01668*
X01881Y01669*
G37*
G36*
X03035Y01677D02*
X0303Y01676D01*
X03026Y01673*
X03023Y01669*
X03022Y01665*
X03023Y0166*
X03026Y01656*
X0303Y01653*
X03035Y01652*
X03039Y01653*
X03041Y01655*
X03042Y01655*
X03046Y01652*
X03047Y01649*
X03049Y01646*
X03053Y01643*
X03058Y01642*
X03063Y01643*
X03066Y01646*
X03069Y01649*
X0307Y01654*
X03069Y01659*
X03066Y01663*
X03063Y01665*
X03058Y01666*
X03053Y01665*
X03051Y01664*
X03051Y01664*
X03046Y01666*
X03046Y01669*
X03043Y01673*
X03039Y01676*
X03035Y01677*
G37*
G36*
X02722Y01652D02*
X02717Y01651D01*
X02713Y01648*
X0271Y01644*
X02709Y0164*
X0271Y01635*
X02713Y01631*
X02717Y01628*
X02722Y01627*
X02726Y01628*
X0273Y01631*
X02733Y01635*
X02734Y0164*
X02733Y01644*
X0273Y01648*
X02726Y01651*
X02722Y01652*
G37*
G36*
X03034Y01639D02*
X0303Y01638D01*
X03026Y01636*
X03023Y01632*
X03022Y01627*
X03023Y01623*
X03026Y01619*
X0303Y01616*
X03034Y01615*
X03039Y01616*
X03043Y01619*
X03046Y01623*
X03046Y01627*
X03046Y01632*
X03043Y01636*
X03039Y01638*
X03034Y01639*
G37*
G36*
X02659Y01639D02*
X02655Y01638D01*
X02651Y01636*
X02648Y01632*
X02647Y01627*
X02648Y01623*
X02651Y01619*
X02655Y01616*
X02659Y01615*
X02664Y01616*
X02668Y01619*
X02671Y01623*
X02671Y01627*
X02671Y01632*
X02668Y01636*
X02664Y01638*
X02659Y01639*
G37*
G36*
X02607Y01628D02*
X02602Y01627D01*
X02598Y01624*
X02595Y0162*
X02594Y01616*
X02595Y01611*
X02598Y01607*
X02602Y01604*
X02607Y01603*
X02611Y01604*
X02615Y01607*
X02618Y01611*
X02619Y01616*
X02618Y0162*
X02615Y01624*
X02611Y01627*
X02607Y01628*
G37*
G36*
X03074Y01635D02*
X03069Y01634D01*
X03065Y01631*
X03063Y01627*
X03062Y01623*
X03063Y01618*
X03065Y01614*
X03069Y01612*
X03073Y01611*
X03074Y0161*
X03078Y01606*
X03078Y01604*
X03081Y016*
X03085Y01597*
X0309Y01596*
X03094Y01597*
X03098Y016*
X03101Y01604*
X03102Y01609*
X03101Y01613*
X03098Y01617*
X03094Y0162*
X03091Y0162*
X03089Y01621*
X03086Y01625*
X03085Y01627*
X03082Y01631*
X03078Y01634*
X03074Y01635*
G37*
G36*
X01858Y01616D02*
X01853Y01615D01*
X01849Y01612*
X01846Y01608*
X01846Y01604*
X01846Y01599*
X01849Y01595*
X01853Y01592*
X01858Y01591*
X01862Y01592*
X01866Y01595*
X01869Y01599*
X0187Y01604*
X01869Y01608*
X01866Y01612*
X01862Y01615*
X01858Y01616*
G37*
G36*
X03185Y01612D02*
X0318Y01611D01*
X03176Y01609*
X03174Y01605*
X03173Y016*
X03174Y01595*
X03176Y01591*
X0318Y01589*
X03185Y01588*
X0319Y01589*
X03194Y01591*
X03196Y01595*
X03197Y016*
X03196Y01605*
X03194Y01609*
X0319Y01611*
X03185Y01612*
G37*
G36*
X02375Y01612D02*
X0237Y01611D01*
X02366Y01608*
X02363Y01604*
X02362Y016*
X02363Y01595*
X02366Y01591*
X0237Y01588*
X02375Y01587*
X02379Y01588*
X02383Y01591*
X02386Y01595*
X02387Y016*
X02386Y01604*
X02383Y01608*
X02379Y01611*
X02375Y01612*
G37*
G36*
X02049Y01599D02*
X02042Y01597D01*
X02037Y01594*
X02034Y01589*
X02028Y01587*
X02027Y01588*
X02022Y01589*
X02017Y01588*
X02013Y01585*
X02011Y01581*
X0201Y01577*
X02011Y01572*
X02013Y01568*
X02017Y01565*
X02022Y01564*
X02027Y01565*
X02031Y01568*
X02032Y0157*
X02035Y01571*
X02037Y01571*
X02038Y01571*
X02042Y01568*
X02049Y01566*
X02055Y01568*
X0206Y01571*
X02063Y01576*
X02065Y01583*
X02063Y01589*
X0206Y01594*
X02055Y01597*
X02049Y01599*
G37*
G36*
X03235Y01602D02*
X0323Y01601D01*
X03226Y01598*
X03223Y01594*
X03222Y0159*
X03223Y01585*
X03226Y01581*
X0323Y01578*
X03235Y01577*
X03239Y01578*
X03243Y01581*
X03246Y01585*
X03247Y0159*
X03246Y01594*
X03243Y01598*
X03239Y01601*
X03235Y01602*
G37*
G36*
X0233D02*
X02325Y01601D01*
X02321Y01598*
X02318Y01594*
X02317Y0159*
X02318Y01585*
X02321Y01581*
X02325Y01578*
X0233Y01577*
X02334Y01578*
X02338Y01581*
X02341Y01585*
X02342Y0159*
X02341Y01594*
X02338Y01598*
X02334Y01601*
X0233Y01602*
G37*
G36*
X01967Y01603D02*
X0196Y01601D01*
X01955Y01598*
X01952Y01593*
X0195Y01587*
X01952Y0158*
X01955Y01575*
X0196Y01572*
X01967Y0157*
X01973Y01572*
X01978Y01575*
X01981Y0158*
X01983Y01587*
X01981Y01593*
X01978Y01598*
X01973Y01601*
X01967Y01603*
G37*
G36*
X01889Y01606D02*
X01885Y01605D01*
X01881Y01602*
X01878Y01598*
X01877Y01594*
X01878Y01589*
X01881Y01585*
X01881Y01585*
X01883Y01579*
X01882Y01575*
X01883Y0157*
X01886Y01566*
X0189Y01563*
X01895Y01562*
X01899Y01563*
X01903Y01566*
X01906Y0157*
X01907Y01575*
X01906Y01579*
X01903Y01583*
X01902Y01583*
X01901Y01589*
X01901Y01594*
X01901Y01598*
X01898Y01602*
X01894Y01605*
X01889Y01606*
G37*
G36*
X02192Y01573D02*
X02187Y01572D01*
X02183Y01569*
X0218Y01565*
X02179Y01561*
X0218Y01556*
X02183Y01552*
X02187Y01549*
X02192Y01548*
X02196Y01549*
X022Y01552*
X02203Y01556*
X02204Y01561*
X02203Y01565*
X022Y01569*
X02196Y01572*
X02192Y01573*
G37*
G36*
X03021Y01559D02*
X03016Y01558D01*
X03012Y01555*
X03009Y01551*
X03008Y01547*
X03009Y01542*
X03012Y01538*
X03016Y01535*
X03021Y01534*
X03025Y01535*
X03029Y01538*
X03032Y01542*
X03033Y01547*
X03032Y01551*
X03029Y01555*
X03025Y01558*
X03021Y01559*
G37*
G36*
X02005Y01537D02*
X02Y01536D01*
X01998Y01535*
X01995Y01533*
X01991Y01535*
X01989Y01536*
X01985Y01537*
X0198Y01536*
X01976Y01533*
X01973Y01529*
X01972Y01525*
X01973Y0152*
X01976Y01516*
X0198Y01513*
X01985Y01512*
X01989Y01513*
X01991Y01514*
X01995Y01516*
X01998Y01514*
X02Y01513*
X02005Y01512*
X02009Y01513*
X02013Y01516*
X02016Y0152*
X02017Y01525*
X02016Y01529*
X02013Y01533*
X02009Y01536*
X02005Y01537*
G37*
G36*
X02219Y01543D02*
X02214Y01542D01*
X0221Y01539*
X02207Y01535*
X02206Y01531*
X02207Y01526*
X0221Y01522*
X02214Y01519*
X02219Y01518*
X02223Y01519*
X02227Y01522*
X0223Y01526*
X02231Y01531*
X0223Y01535*
X02227Y01539*
X02223Y01542*
X02219Y01543*
G37*
G36*
X01795Y01603D02*
X0179Y01602D01*
X01786Y01599*
X01783Y01595*
X01782Y01591*
X01783Y01586*
X01786Y01583*
X01785Y0158*
X01784Y01577*
X01777Y01572*
X01772Y01565*
X0177Y01556*
X01772Y01546*
X01776Y01541*
X01776Y0154*
X01775Y01535*
X01774Y01535*
X01772Y01533*
X01769Y01529*
X01768Y01525*
X01769Y0152*
X01772Y01516*
X01776Y01513*
X01781Y01512*
X01785Y01513*
X01789Y01516*
X01792Y0152*
X01793Y01525*
X01792Y01527*
X01793Y01528*
X01795Y01531*
X01796Y01532*
X01803Y01533*
X01811Y01539*
X01816Y01546*
X01818Y01556*
X01816Y01565*
X01811Y01572*
X01804Y01577*
X01803Y01581*
X01803Y01583*
X01806Y01586*
X01807Y01591*
X01806Y01595*
X01803Y01599*
X01799Y01602*
X01795Y01603*
G37*
G36*
X02705Y01532D02*
X027Y01531D01*
X02696Y01528*
X02693Y01524*
X02692Y0152*
X02693Y01515*
X02696Y01511*
X027Y01508*
X02705Y01507*
X02709Y01508*
X02713Y01511*
X02716Y01515*
X02717Y0152*
X02716Y01524*
X02713Y01528*
X02709Y01531*
X02705Y01532*
G37*
G36*
X0334Y01573D02*
X03331Y01572D01*
X03323Y01569*
X03316Y01563*
X0331Y01556*
X03307Y01548*
X03306Y0154*
X03307Y01531*
X0331Y01523*
X03316Y01516*
X03323Y0151*
X03331Y01507*
X0334Y01506*
X03348Y01507*
X03356Y0151*
X03363Y01516*
X03369Y01523*
X03372Y01531*
X03373Y0154*
X03372Y01548*
X03369Y01556*
X03363Y01563*
X03356Y01569*
X03348Y01572*
X0334Y01573*
G37*
%LNmcu_pcb_v2-3*%
%LPD*%
G54D10*
X02221Y01689D02*
X02237Y01672D01*
X02345*
X02356Y01683D02*
Y01686D01*
X02345Y01672D02*
X02356Y01683D01*
Y01686D02*
X02359Y01689D01*
X0236Y01688D02*
X02384D01*
X02359Y01689D02*
X0236Y01688D01*
X02221Y01689D02*
X02296Y01764D01*
X02146Y01614D02*
X02221Y01689D01*
X02098Y01614D02*
X02146D01*
G54D27*
X03462Y01493D03*
X0344D03*
X03419D03*
X03397Y01579D03*
Y01536D03*
Y01493D03*
X03375Y01579D03*
X03386Y01558D03*
Y01514D03*
X03375Y01493D03*
X03354Y01752D03*
Y01709D03*
Y01666D03*
Y01623D03*
Y01579D03*
Y01493D03*
X03343Y01774D03*
X03332Y01623D03*
X03343Y01601D03*
X03332Y01493D03*
X03321Y01774D03*
Y01601D03*
X0331Y01493D03*
X033Y01774D03*
X03289Y01493D03*
X03278Y01774D03*
X03267Y01493D03*
X03256Y01774D03*
X03246Y01493D03*
X03235Y01687D03*
X03224Y01493D03*
X03202Y01752D03*
X03213Y01687D03*
X03202Y01493D03*
X03181D03*
X03159D03*
X03148Y01774D03*
X03126D03*
X03054Y01621D03*
X02385Y01722D03*
X02396Y01754D03*
X02384Y01688D03*
X02506Y0167D03*
X02519Y01505D03*
X02127Y01704D03*
X02128Y01666D03*
X02434Y01744D03*
X02208Y01778D03*
X02111Y01748D03*
X02355Y0163D03*
X02082Y01531D03*
X02101Y01584D03*
X02296Y01764D03*
X02098Y01614D03*
X0271Y0175D03*
X01976Y01777D03*
X025Y01615D03*
X02325Y0156D03*
X02615Y01585D03*
X0263Y01675D03*
X0264Y015D03*
G54D71*
X0344Y0154D03*
G54D73*
X02875Y01701D03*
X02886Y01643D03*
X02955Y01655D03*
X0292Y01605D03*
X02805Y0165D03*
Y01605D03*
X0298Y0172D03*
X0286Y01605D03*
X0296Y01555D03*
X02805D03*
Y01725D03*
G54D74*
X0186Y01564D03*
X01791Y01739D03*
M02*