%FSTAX23Y23*%
%MOIN*%
%SFA1B1*%

%IPPOS*%
%ADD12C,0.010000*%
%ADD22C,0.015700*%
%ADD58C,0.012000*%
%ADD68C,0.059100*%
%ADD69C,0.011800*%
%ADD70C,0.023600*%
%ADD71C,0.016000*%
%ADD72C,0.040000*%
%LNmcu_pcb-1*%
%LPD*%
G36*
X01879Y01795D02*
X0188Y01793D01*
X01882Y0179*
X01881Y01787*
X01882Y01783*
X01884Y01779*
X01888Y01777*
X01892Y01776*
X01895Y01777*
X01899Y01779*
X01901Y01783*
X01902Y01787*
X01901Y0179*
X01903Y01793*
X01904Y01795*
X02032*
X02033Y01793*
X02035Y0179*
X02033Y01787*
X02032Y01784*
X02033Y0178*
X02035Y01776*
X02039Y01774*
X02043Y01773*
X02046Y01774*
X0205Y01776*
X02052Y0178*
X02053Y01784*
X02052Y01787*
X0205Y0179*
X02052Y01793*
X02053Y01795*
X02798*
X02799Y01793*
X028Y0179*
X02798Y01786*
X02797Y01782*
X02798Y01777*
X02801Y01773*
X02805Y01771*
X0281Y0177*
X02814Y01771*
X02818Y01773*
X02821Y01777*
X02822Y01782*
X02821Y01786*
X02819Y0179*
X0282Y01793*
X02821Y01795*
X02831*
X02832Y0179*
X02831Y01789*
X02829Y01786*
X02829Y01782*
X02829Y01778*
X02831Y01775*
X02835Y01773*
X02839Y01772*
X02842Y01773*
X02846Y01775*
X02848Y01778*
X02849Y01782*
X02848Y01786*
X02846Y01789*
X02845Y0179*
X02846Y01795*
X0287*
X02872Y0179*
X02871Y01789*
X02869Y01786*
X02868Y01782*
X02869Y01778*
X02871Y01775*
X02874Y01773*
X02878Y01772*
X02882Y01773*
X02885Y01775*
X02887Y01778*
X02888Y01782*
X02887Y01786*
X02885Y01789*
X02884Y0179*
X02886Y01795*
X03085*
Y01745*
X0305*
X0305Y01745*
X03049Y01745*
X02757*
X02756Y0175*
X02756Y0175*
X02758Y01753*
X02759Y01757*
X02758Y01761*
X02756Y01764*
X02752Y01766*
X02749Y01767*
X02745Y01766*
X02741Y01764*
X02739Y01761*
X02739Y01757*
X02739Y01753*
X02741Y0175*
X02742Y0175*
X0274Y01745*
X02724*
X0272Y0175*
X02719Y01753*
X02717Y01757*
X02713Y01759*
X0271Y0176*
X02706Y01759*
X02702Y01757*
X027Y01753*
X02699Y0175*
X02695Y01745*
X02525*
X02522Y0175*
X02523Y01752*
X02522Y01755*
X0252Y01759*
X02516Y01761*
X02513Y01762*
X02509Y01761*
X02505Y01759*
X02503Y01755*
X02502Y01752*
X02503Y0175*
X025Y01745*
X02433*
X02432Y01747*
X02429Y01748*
X02428Y01749*
X02426Y01754*
X02425Y01757*
X02423Y01761*
X02419Y01763*
X02416Y01764*
X02412Y01763*
X0241Y01761*
X02405Y0176*
X02401Y01762*
X02398Y01763*
X02394Y01762*
X0239Y0176*
X02388Y01756*
X02387Y01753*
X02388Y0175*
X02386Y01746*
X02385Y01745*
X02121*
X02119Y01748*
X02118Y01751*
X02116Y01755*
X02112Y01757*
X02109Y01758*
X02105Y01757*
X02101Y01755*
X02099Y01751*
X02098Y01748*
X02096Y01745*
X01926*
X01925Y01745*
X01917Y01747*
X01913Y01746*
X01908Y01745*
X01906Y01749*
X01902Y01751*
X01899Y01752*
X01895Y01751*
X01891Y01749*
X01889Y01745*
X01889Y01745*
X01861*
X01857Y0175*
X01858Y01756*
X01856Y01765*
X01851Y01772*
X01843Y01778*
X01834Y0178*
X01825Y01778*
X01817Y01772*
X01812Y01765*
X0181Y01756*
X01811Y0175*
X01808Y01745*
X01781*
X01777Y0175*
X01778Y01756*
X01776Y01765*
X01771Y01772*
X01763Y01778*
X01754Y0178*
X01745Y01778*
X01744Y01777*
X0174Y01779*
Y01795*
X01879*
G37*
G36*
X02964Y0172D02*
X02963Y0172D01*
X02965Y01713*
X02968Y01708*
X02971Y01707*
X0297Y01705*
X02974*
X0298Y01703*
X02985Y01705*
X03075*
X03175Y01605*
X03227*
X0324Y01592*
Y01577*
X03238Y01575*
X03185*
X03184Y01575*
X03181Y0158*
X03182Y01582*
X03181Y01586*
X03179Y01589*
X03176Y01591*
X03172Y01592*
X03168Y01591*
X03165Y01589*
X03164Y01587*
X03158Y01586*
X03065Y0168*
X02934*
X02931Y01685*
X02932Y01686*
X02934Y01693*
X02932Y01699*
X02932Y017*
X02933Y01702*
X02931*
X02929Y01704*
X02924Y01707*
X02918Y01709*
X02911Y01707*
X02906Y01704*
X02905Y01702*
X02872*
X02869Y01706*
X02864Y01709*
X02858Y01711*
X02851Y01709*
X02846Y01706*
X02843Y01702*
X02841*
X02842Y017*
X02841Y01695*
X02843Y01688*
X02845Y01685*
X02843Y0168*
X02843Y0168*
X02748*
X02748Y0168*
X02744Y01685*
X02745Y01686*
X02744Y0169*
X02742Y01693*
X02738Y01695*
X02735Y01696*
X02731Y01695*
X02727Y01693*
X02725Y0169*
X02724Y01686*
X02725Y01685*
X02721Y0168*
X02721Y0168*
X02658*
X02658Y01681*
X02655Y01683*
X02651Y01684*
X02647Y01683*
X02644Y01681*
X02643Y0168*
X02638*
X02637Y01682*
X02633Y01684*
X0263Y01685*
X02626Y01684*
X02622Y01682*
X02621Y0168*
X0251*
X02508Y01681*
X02505Y01682*
X02501Y01681*
X02499Y0168*
X0174*
Y01705*
X02118*
X0212Y01703*
X02121Y01699*
X02123Y01695*
X02126Y01693*
X0213Y01692*
X02134Y01693*
X02137Y01695*
X02139Y01699*
X0214Y01703*
X02142Y01705*
X02381*
X02381Y01703*
X02385Y01701*
X02389Y017*
X02392Y01701*
X02396Y01703*
X02396Y01705*
X02552*
X02552Y01704*
X02556Y01703*
X0256Y01704*
X02561Y01705*
X02615*
X02625Y01715*
X0264*
X02644Y0171*
X02645Y01706*
X02647Y01702*
X02651Y017*
X02654Y017*
X02655Y01699*
X02658Y017*
X02662Y01702*
X02663Y01705*
X02664Y01706*
X02665Y0171*
X02669Y01715*
X02739*
X0274Y01714*
X0274Y01715*
X0276*
X0277Y01705*
X02813*
X02812Y01706*
X02845Y01739*
X02946*
X02964Y0172*
G37*
G36*
X01843Y0167D02*
X01845Y01665D01*
X01845Y01664*
X01844Y01662*
X01879*
X01878Y01664*
X01878Y01665*
X0188Y0167*
X02031*
X02032Y01665*
X02035Y0166*
X02036Y0166*
Y01591*
X02034Y01589*
X02033Y01588*
X02033Y01588*
X02029Y01585*
X02027Y01586*
X02026Y01586*
X02024Y01587*
X0202Y01586*
X02016Y01584*
X02014Y0158*
X02013Y01577*
X02014Y01573*
X02016Y01569*
X0202Y01567*
X02024Y01566*
X02027Y01567*
X02031Y01569*
X02034Y01567*
X02034Y01567*
X02039Y01563*
X02045Y01562*
X02051Y01563*
X02057Y01567*
X0206Y01572*
X02061Y01578*
X0206Y01584*
X02057Y01589*
X02054Y01591*
Y01658*
X02058Y0166*
X02061Y01665*
X02062Y0167*
X02113*
X02117Y01666*
X02118Y01662*
X0212Y01658*
X02124Y01656*
X02128Y01655*
X02131Y01656*
X02135Y01658*
X02137Y01662*
X02138Y01666*
X02142Y0167*
X02495*
X02495Y01668*
X02497Y01664*
X02501Y01662*
X02505Y01661*
X02508Y01662*
X02512Y01664*
X02514Y01668*
X02514Y0167*
X02621*
X02622Y01667*
X02626Y01665*
X0263Y01664*
X02633Y01665*
X02637Y01667*
X02637Y01668*
X02642*
X02644Y01666*
X02647Y01664*
X02651Y01663*
X02655Y01664*
X02658Y01666*
X0266Y0167*
X02734*
X02735Y01669*
X02735Y0167*
X02798*
X02799Y01665*
X02798Y01664*
X02793Y01661*
X0279Y01656*
X02788Y0165*
X0279Y01643*
X02793Y01638*
X02798Y01635*
X02805Y01633*
X02811Y01635*
X02816Y01638*
X02819Y01643*
X02821Y0165*
X02819Y01656*
X02816Y01661*
X02811Y01664*
X0281Y01665*
X02811Y0167*
X0294*
X0294Y01669*
X02942Y01665*
X0294Y01661*
X02938Y01655*
X0294Y01648*
X02943Y01643*
X02948Y0164*
X02955Y01638*
X02961Y0164*
X02966Y01643*
X02969Y01648*
X02971Y01655*
X02969Y01661*
X02967Y01665*
X02969Y01669*
X02969Y0167*
X03*
X03019Y01661*
X0302Y01658*
X03023Y01653*
X03028Y0165*
X03035Y01648*
X03041Y0165*
X03041Y0165*
X03047Y01648*
X03047Y01647*
X03051Y01645*
X03055Y01644*
X03057Y01645*
X0309Y01631*
Y01485*
X02929*
X02927Y01487*
X02924Y0149*
X0292Y0149*
X02916Y0149*
X02913Y01488*
X02912Y01488*
X02908Y01492*
X02907Y01496*
X02905Y01499*
X02902Y01501*
X02898Y01502*
X02894Y01501*
X02891Y01499*
X02888Y01496*
X02888Y01492*
X02888Y0149*
X02886Y01485*
X02885Y01485*
X02869*
X02868Y01486*
X02866Y0149*
X02867Y01493*
X02866Y01496*
X02864Y015*
X0286Y01502*
X02857Y01503*
X02853Y01502*
X02851Y01501*
X02848Y015*
X02844Y015*
X02842Y01501*
X02839Y01502*
X02835Y01501*
X02834Y01501*
X02832Y01501*
X02829Y01503*
X02828Y01506*
X02826Y01509*
X02823Y01511*
X02819Y01512*
X02815Y01511*
X02812Y01509*
X02806*
X02803Y01511*
X02799Y01512*
X02795Y01511*
X02792Y01509*
X0279Y01506*
X02789Y01502*
X0279Y01498*
X02792Y01495*
X02795Y01493*
X02799Y01492*
X02803Y01493*
X02806Y01495*
X02812*
X02815Y01493*
X02819Y01492*
X02823Y01493*
X02824Y01493*
X02825Y01493*
X02829Y0149*
X02829Y0149*
X02827Y01485*
X02826Y01485*
X02642*
X02641Y0149*
X02643Y0149*
X02643Y0149*
X02644*
X02647Y01492*
X02649Y01496*
X0265Y015*
X02649Y01503*
X02647Y01507*
X02643Y01509*
X0264Y0151*
X02636Y01509*
X02632Y01507*
X0263Y01503*
X02629Y015*
X0263Y01496*
X02632Y01492*
X02635Y0149*
X02636Y0149*
X02636Y0149*
X02638Y0149*
X02637Y01485*
X0174*
Y0167*
X01843*
G37*
%LNmcu_pcb-2*%
%LPC*%
G36*
X02209Y01787D02*
X02205Y01786D01*
X02201Y01784*
X02199Y0178*
X02198Y01777*
X02199Y01773*
X02201Y01769*
X02205Y01767*
X02209Y01766*
X02212Y01767*
X02216Y01769*
X02218Y01773*
X02219Y01777*
X02218Y0178*
X02216Y01784*
X02212Y01786*
X02209Y01787*
G37*
G36*
X01976D02*
X01972Y01786D01*
X01968Y01784*
X01966Y0178*
X01965Y01777*
X01966Y01773*
X01968Y01769*
X01972Y01767*
X01976Y01766*
X01979Y01767*
X01983Y01769*
X01985Y01773*
X01986Y01777*
X01985Y0178*
X01983Y01784*
X01979Y01786*
X01976Y01787*
G37*
G36*
X03048Y01781D02*
X03044Y01781D01*
X03041Y01778*
X03038Y01775*
X03038Y01771*
X03038Y01767*
X03041Y01764*
X03044Y01762*
X03048Y01761*
X03052Y01762*
X03055Y01764*
X03057Y01767*
X03058Y01771*
X03057Y01775*
X03055Y01778*
X03052Y01781*
X03048Y01781*
G37*
G36*
X02724Y01649D02*
X0272Y01648D01*
X02717Y01646*
X02714Y01643*
X02714Y01639*
X02714Y01635*
X02717Y01632*
X0272Y0163*
X02724Y01629*
X02728Y0163*
X02731Y01632*
X02733Y01635*
X02734Y01639*
X02733Y01643*
X02731Y01646*
X02728Y01648*
X02724Y01649*
G37*
G36*
X02886Y01659D02*
X02879Y01657D01*
X02874Y01654*
X02871Y01649*
X02869Y01643*
X02871Y01636*
X02874Y01631*
X02879Y01628*
X02886Y01626*
X02892Y01628*
X02897Y01631*
X029Y01636*
X02902Y01643*
X029Y01649*
X02897Y01654*
X02892Y01657*
X02886Y01659*
G37*
G36*
X01764Y01641D02*
X0176Y0164D01*
X01756Y01638*
X01754Y01634*
X01753Y01631*
X01754Y01627*
X01756Y01623*
X0176Y01621*
X01764Y0162*
X01767Y01621*
X01771Y01623*
X01773Y01627*
X01774Y01631*
X01773Y01634*
X01771Y01638*
X01767Y0164*
X01764Y01641*
G37*
G36*
X02355Y0164D02*
X02351Y01639D01*
X02347Y01637*
X02345Y01633*
X02344Y0163*
X02345Y01626*
X02347Y01622*
X02351Y0162*
X02355Y01619*
X02358Y0162*
X02362Y01622*
X02364Y01626*
X02365Y0163*
X02364Y01633*
X02362Y01637*
X02358Y01639*
X02355Y0164*
G37*
G36*
X02665Y01637D02*
X02661Y01636D01*
X02657Y01634*
X02655Y01631*
X02654Y01627*
X02655Y01623*
X02657Y0162*
X02661Y01617*
X02665Y01617*
X02668Y01617*
X02672Y0162*
X02674Y01623*
X02675Y01627*
X02674Y01631*
X02672Y01634*
X02668Y01636*
X02665Y01637*
G37*
G36*
X01879Y01652D02*
X01844D01*
X01845Y0165*
X01849Y01644*
X01851Y01642*
X01853Y01636*
X01852Y0163*
X01853Y01623*
X01857Y01618*
X01862Y01615*
X01868Y01613*
X01875Y01615*
X0188Y01618*
X01883Y01623*
X01885Y0163*
X01883Y01636*
X0188Y01641*
X01875Y01644*
X01878Y0165*
X01879Y01652*
G37*
G36*
X0261Y01625D02*
X02606Y01624D01*
X02602Y01622*
X026Y01618*
X02599Y01615*
X026Y01611*
X02602Y01607*
X02606Y01605*
X0261Y01604*
X02613Y01605*
X02617Y01607*
X02619Y01611*
X0262Y01615*
X02619Y01618*
X02617Y01622*
X02613Y01624*
X0261Y01625*
G37*
G36*
X025D02*
X02496Y01624D01*
X02492Y01622*
X0249Y01618*
X02489Y01615*
X0249Y01611*
X02492Y01607*
X02496Y01605*
X025Y01604*
X02503Y01605*
X02507Y01607*
X02509Y01611*
X0251Y01615*
X02509Y01618*
X02507Y01622*
X02503Y01624*
X025Y01625*
G37*
G36*
X03034Y01637D02*
X03031Y01637D01*
X03027Y01634*
X03025Y01631*
X03024Y01627*
X03025Y01623*
X03027Y0162*
X03031Y01618*
X03034Y01617*
X03038Y01618*
X0304Y01619*
X03045Y01617*
X03045Y01617*
X03045Y01616*
X03047Y01612*
X03049Y01611*
X03049Y01611*
X0305Y01606*
X0305Y01605*
X03048Y01602*
X03047Y016*
X03082*
X03081Y01602*
X03077Y01607*
X03072Y01611*
X03068Y01612*
X03067Y01613*
X03064Y01617*
Y01618*
X03065Y0162*
X03064Y01623*
X03062Y01627*
X03058Y01629*
X03055Y0163*
X03051Y01629*
X03049Y01628*
X03044Y0163*
X03044Y0163*
X03044Y01631*
X03042Y01634*
X03038Y01637*
X03034Y01637*
G37*
G36*
X01804Y01618D02*
X018Y01617D01*
X01796Y01615*
X01794Y01611*
X01794Y01609*
X01788Y01608*
X01782Y01604*
X01778Y01598*
X01777Y01596*
X01812*
X01811Y01598*
X0181Y01599*
X01811Y016*
X01813Y01604*
X01814Y01608*
X01813Y01611*
X01811Y01615*
X01807Y01617*
X01804Y01618*
G37*
G36*
X01972Y01608D02*
Y01592D01*
X01988*
X01987Y01595*
X01982Y01602*
X01975Y01607*
X01972Y01608*
G37*
G36*
X01962D02*
X01958Y01607D01*
X01951Y01602*
X01946Y01595*
X01945Y01592*
X01962*
Y01608*
G37*
G36*
X02375Y0161D02*
X02371Y01609D01*
X02367Y01607*
X02365Y01603*
X02364Y016*
X02365Y01596*
X02367Y01592*
X02371Y0159*
X02375Y01589*
X02378Y0159*
X02382Y01592*
X02384Y01596*
X02385Y016*
X02384Y01603*
X02382Y01607*
X02378Y01609*
X02375Y0161*
G37*
G36*
X0292Y01621D02*
X02913Y01619D01*
X02908Y01616*
X02905Y01611*
X02903Y01605*
X02905Y01598*
X02908Y01593*
X02913Y0159*
X0292Y01588*
X02926Y0159*
X02931Y01593*
X02934Y01598*
X02936Y01605*
X02934Y01611*
X02931Y01616*
X02926Y01619*
X0292Y01621*
G37*
G36*
X0286D02*
X02853Y01619D01*
X02848Y01616*
X02845Y01611*
X02843Y01605*
X02845Y01598*
X02848Y01593*
X02853Y0159*
X0286Y01588*
X02866Y0159*
X02871Y01593*
X02874Y01598*
X02876Y01605*
X02874Y01611*
X02871Y01616*
X02866Y01619*
X0286Y01621*
G37*
G36*
X02805D02*
X02798Y01619D01*
X02793Y01616*
X0279Y01611*
X02788Y01605*
X0279Y01598*
X02793Y01593*
X02798Y0159*
X02805Y01588*
X02811Y0159*
X02816Y01593*
X02819Y01598*
X02821Y01605*
X02819Y01611*
X02816Y01616*
X02811Y01619*
X02805Y01621*
G37*
G36*
X03082Y0159D02*
X0307D01*
Y01577*
X03072Y01578*
X03077Y01582*
X03081Y01588*
X03082Y0159*
G37*
G36*
X0306D02*
X03047D01*
X03048Y01588*
X03052Y01582*
X03058Y01578*
X0306Y01577*
Y0159*
G37*
G36*
X0233Y01597D02*
X02326Y01596D01*
X02322Y01594*
X0232Y0159*
X02319Y01587*
X0232Y01583*
X02322Y01579*
X02326Y01577*
X0233Y01576*
X02333Y01577*
X02337Y01579*
X02339Y01583*
X0234Y01587*
X02339Y0159*
X02337Y01594*
X02333Y01596*
X0233Y01597*
G37*
G36*
X02615Y01595D02*
X02611Y01594D01*
X02607Y01592*
X02605Y01588*
X02604Y01585*
X02605Y01581*
X02607Y01577*
X02611Y01575*
X02615Y01574*
X02618Y01575*
X02622Y01577*
X02624Y01581*
X02625Y01585*
X02624Y01588*
X02622Y01592*
X02618Y01594*
X02615Y01595*
G37*
G36*
X01988Y01582D02*
X01972D01*
Y01565*
X01975Y01566*
X01982Y01571*
X01987Y01578*
X01988Y01582*
G37*
G36*
X01962D02*
X01945D01*
X01946Y01578*
X01951Y01571*
X01958Y01566*
X01962Y01565*
Y01582*
G37*
G36*
X01884Y016D02*
X01881Y01599D01*
X01877Y01597*
X01875Y01593*
X01874Y0159*
X01874Y01589*
Y01585*
X01871Y01584*
X01871Y01584*
X01867Y01582*
X01865Y01578*
X01864Y01575*
X01865Y01571*
X01867Y01567*
X01871Y01565*
X01874Y01564*
X01878Y01565*
X01882Y01567*
X01884Y01571*
X01885Y01575*
Y01575*
X01884Y01579*
X01888Y0158*
X01888Y0158*
X01892Y01582*
X01894Y01586*
X01895Y0159*
X01894Y01593*
X01892Y01597*
X01888Y01599*
X01884Y016*
G37*
G36*
X0219Y0158D02*
X02186Y01579D01*
X02182Y01577*
X0218Y01573*
X02179Y0157*
X0218Y01566*
X02182Y01562*
X02186Y0156*
X0219Y01559*
X02193Y0156*
X02197Y01562*
X02199Y01566*
X022Y0157*
X02199Y01573*
X02197Y01577*
X02193Y01579*
X0219Y0158*
G37*
G36*
X02325Y0157D02*
X02321Y01569D01*
X02317Y01567*
X02315Y01563*
X02314Y0156*
X02315Y01556*
X02317Y01552*
X02321Y0155*
X02325Y01549*
X02328Y0155*
X02332Y01552*
X02334Y01556*
X02335Y0156*
X02334Y01563*
X02332Y01567*
X02328Y01569*
X02325Y0157*
G37*
G36*
X01845Y01562D02*
X01841Y01561D01*
X01837Y01559*
X01835Y01555*
X01834Y01552*
X01835Y01548*
X01837Y01544*
X01841Y01542*
X01845Y01541*
X01848Y01542*
X01852Y01544*
X01854Y01548*
X01855Y01552*
X01854Y01555*
X01852Y01559*
X01848Y01561*
X01845Y01562*
G37*
G36*
X0296Y01571D02*
X02953Y01569D01*
X02948Y01566*
X02945Y01561*
X02943Y01555*
X02945Y01548*
X02948Y01543*
X02953Y0154*
X0296Y01538*
X02966Y0154*
X02971Y01543*
X02974Y01548*
X02976Y01555*
X02974Y01561*
X02971Y01566*
X02966Y01569*
X0296Y01571*
G37*
G36*
X02805D02*
X02798Y01569D01*
X02793Y01566*
X0279Y01561*
X02788Y01555*
X0279Y01548*
X02793Y01543*
X02798Y0154*
X02805Y01538*
X02811Y0154*
X02816Y01543*
X02819Y01548*
X02821Y01555*
X02819Y01561*
X02816Y01566*
X02811Y01569*
X02805Y01571*
G37*
G36*
X03021Y01557D02*
X03017Y01556D01*
X03013Y01554*
X03011Y0155*
X0301Y01547*
X03011Y01543*
X03013Y01539*
X03017Y01537*
X03021Y01536*
X03024Y01537*
X03028Y01539*
X0303Y01543*
X03031Y01547*
X0303Y0155*
X03028Y01554*
X03024Y01556*
X03021Y01557*
G37*
G36*
X02005Y01535D02*
X02001Y01534D01*
X01997Y01532*
X01992*
X01988Y01534*
X01985Y01535*
X01981Y01534*
X01977Y01532*
X01975Y01528*
X01974Y01525*
X01975Y01521*
X01977Y01517*
X01981Y01515*
X01985Y01514*
X01988Y01515*
X01992Y01517*
X01997*
X02001Y01515*
X02005Y01514*
X02008Y01515*
X02012Y01517*
X02014Y01521*
X02015Y01525*
X02014Y01528*
X02012Y01532*
X02008Y01534*
X02005Y01535*
G37*
G36*
X01812Y01586D02*
X01777D01*
X01778Y01584*
X01782Y01578*
Y01575*
X01777Y01572*
X01772Y01565*
X0177Y01556*
X01772Y01546*
X01777Y01539*
X01777Y01537*
X01776Y01533*
X01773Y01532*
X01771Y01528*
X0177Y01525*
X01771Y01521*
X01773Y01517*
X01777Y01515*
X01781Y01514*
X01784Y01515*
X01788Y01517*
X0179Y01521*
X01791Y01525*
X0179Y01527*
X01792Y0153*
X01794Y01532*
X01794Y01532*
X01803Y01533*
X01811Y01539*
X01816Y01546*
X01818Y01556*
X01816Y01565*
X01811Y01572*
X01807Y01575*
Y01578*
X01811Y01584*
X01812Y01586*
G37*
G36*
X0271Y01537D02*
Y01525D01*
X02722*
X02721Y01527*
X02717Y01532*
X02712Y01536*
X0271Y01537*
G37*
G36*
X027D02*
X02698Y01536D01*
X02692Y01532*
X02688Y01527*
X02687Y01525*
X027*
Y01537*
G37*
G36*
X02081Y0154D02*
X02077Y01539D01*
X02073Y01537*
X02071Y01533*
X0207Y0153*
X02071Y01526*
X02073Y01522*
X02077Y0152*
X02081Y01519*
X02084Y0152*
X02088Y01522*
X0209Y01526*
X02091Y0153*
X0209Y01533*
X02088Y01537*
X02084Y01539*
X02081Y0154*
G37*
G36*
X02956Y01512D02*
X02952Y01511D01*
X02948Y01509*
X02948Y01508*
X02942*
X02942Y01509*
X02938Y01511*
X02935Y01512*
X02931Y01511*
X02927Y01509*
X02925Y01506*
X02924Y01502*
X02925Y01498*
X02927Y01495*
X02931Y01493*
X02935Y01492*
X02938Y01493*
X02942Y01495*
X02942Y01495*
X02948*
X02948Y01495*
X02952Y01493*
X02956Y01492*
X02959Y01493*
X02963Y01495*
X02965Y01498*
X02966Y01502*
X02965Y01506*
X02963Y01509*
X02959Y01511*
X02956Y01512*
G37*
G36*
X0253Y01525D02*
X02526Y01524D01*
X02522Y01522*
X0252Y01518*
X02519Y01515*
X0252Y01511*
X02522Y01507*
X02526Y01505*
X0253Y01504*
X02533Y01505*
X02537Y01507*
X02539Y01511*
X0254Y01515*
X02539Y01518*
X02537Y01522*
X02533Y01524*
X0253Y01525*
G37*
G36*
X02722Y01515D02*
X0271D01*
Y01502*
X02712Y01503*
X02717Y01507*
X02721Y01513*
X02722Y01515*
G37*
G36*
X027D02*
X02687D01*
X02688Y01513*
X02692Y01507*
X02698Y01503*
X027Y01502*
Y01515*
G37*
%LNmcu_pcb-3*%
%LPD*%
G54D12*
X02045Y0167D02*
X02047Y01672D01*
X02042Y01575D02*
D01*
X02045Y01578*
X03023Y01653D02*
X03035Y01665D01*
X02045Y01578D02*
Y0167D01*
X01883Y01645D02*
X01885D01*
X02098Y01758D02*
Y01759D01*
X0209Y0175D02*
X02098Y01758D01*
X0273Y0166D02*
X02735Y01665D01*
Y01686*
X03165Y01605D02*
X03165Y01604D01*
X03173*
X03173Y01604*
X03186*
X03201Y0159*
X03235*
G54D22*
X01795Y01591D03*
X01862Y01657D03*
X03065Y01595D03*
X02705Y0152D03*
G54D58*
X01917Y01753D02*
X0192Y01756D01*
X01918Y01758D02*
X0192Y01756D01*
G54D68*
X0334Y0154D03*
G54D69*
X02354Y01668D03*
X03035Y01665D03*
X02735Y01686D03*
X03235Y0159D03*
G54D70*
X02047Y01672D03*
X01917Y01725D03*
X01884Y01704D03*
X02045Y01578D03*
X01967Y01587D03*
X02514Y01705D03*
G54D71*
X01917Y01725D02*
Y01753D01*
G54D72*
X03161Y01675D02*
X032Y01636D01*
X03117Y01725D02*
X03161Y01681D01*
Y01675D02*
Y01681D01*
X0323Y01636D02*
X03264Y01602D01*
X032Y01636D02*
X0323D01*
X03078Y01764D02*
Y0177D01*
Y01764D02*
X03088Y01753D01*
X03117Y01725*
X03264Y01577D02*
Y01602D01*
X03287Y01555D02*
X03319D01*
X03264Y01577D02*
X03287Y01555D01*
X03319D02*
X03334Y0154D01*
X0334*
M02*