%FSTAX23Y23*%
%MOIN*%
%SFA1B1*%

%IPPOS*%
%ADD10C,0.010000*%
%ADD71R,0.059060X0.059060*%
%ADD73C,0.011810*%
%ADD74C,0.023620*%
%ADD75C,0.030000*%
%LNmcu_pcb_v2-1*%
%LPD*%
G36*
X03368Y01603D02*
X03369Y016D01*
X03372Y01598*
X03488*
Y0148*
X03035*
X03034Y01481*
X03032Y01485*
X03033Y01488*
X03032Y01491*
X0303Y01495*
X03026Y01497*
X03023Y01498*
X03019Y01497*
X03015Y01495*
X03013Y01491*
X03012Y01488*
X03013Y01485*
X03011Y01481*
X0301Y0148*
X02991*
X02987Y01485*
X02986Y01488*
X02984Y01492*
X0298Y01494*
X02977Y01495*
X02973Y01494*
X02969Y01492*
X02967Y01488*
X02966Y01485*
X02962Y0148*
X02926*
X02925Y01481*
X02923Y01485*
X02924Y01488*
X02923Y01491*
X02921Y01495*
X02917Y01497*
X02914Y01498*
X0291Y01497*
X02905Y01499*
X02901Y01501*
X02898Y01502*
X02894Y01501*
X0289Y01499*
X02888Y01496*
X02888Y01495*
X02887Y01494*
X02883Y01494*
X0288Y01495*
X02877Y01496*
X02873Y01495*
X02871Y01494*
X02866Y01496*
X02866Y01496*
X02866Y01496*
X02864Y015*
X0286Y01502*
X02857Y01503*
X02853Y01502*
X02851Y01501*
X02848Y015*
X02844Y015*
X02842Y01501*
X02839Y01502*
X02835Y01501*
X02834Y01501*
X02832Y01501*
X02829Y01503*
X02828Y01506*
X02826Y01509*
X02823Y01511*
X02819Y01512*
X02815Y01511*
X02812Y01509*
X02806*
X02803Y01511*
X02799Y01512*
X02795Y01511*
X02792Y01509*
X0279Y01506*
X02789Y01502*
X0279Y01498*
X02792Y01495*
X02795Y01492*
X02799Y01492*
X02803Y01492*
X02806Y01495*
X02812*
X02815Y01492*
X02819Y01492*
X02823Y01492*
X02824Y01493*
X02825Y01493*
X02829Y0149*
X02829Y01488*
X02831Y01485*
X02832Y01485*
X0283Y0148*
X0173*
Y01741*
X01735Y01743*
X01737Y01739*
X01745Y01733*
X01754Y01732*
X01763Y01733*
X01771Y01739*
X01776Y01746*
X01778Y01756*
X01776Y01765*
X01771Y01772*
X01763Y01778*
X01754Y01779*
X01745Y01778*
X01737Y01772*
X01735Y01768*
X0173Y0177*
Y01795*
X01879*
X0188Y01793*
X01882Y0179*
X01881Y01787*
X01882Y01783*
X01884Y01779*
X01888Y01777*
X01892Y01776*
X01895Y01777*
X01899Y01779*
X01901Y01783*
X01902Y01787*
X01901Y0179*
X01903Y01793*
X01904Y01795*
X02032*
X02033Y01793*
X02035Y0179*
X02033Y01787*
X02032Y01784*
X02033Y0178*
X02035Y01776*
X02039Y01774*
X02043Y01773*
X02046Y01774*
X0205Y01776*
X02052Y0178*
X02053Y01784*
X02052Y01787*
X0205Y0179*
X02052Y01793*
X02053Y01795*
X02271*
Y01775*
X02272Y01771*
X02276Y0177*
X02282*
X02284Y01765*
X02214Y01695*
X02142Y01623*
X02102*
X02101Y01623*
X02098Y01624*
X02094Y01623*
X0209Y01621*
X02088Y01617*
X02087Y01614*
X02088Y0161*
X0209Y01606*
X02094Y01604*
X02098Y01603*
X02101Y01604*
X02102Y01604*
X02146*
X02149Y01605*
X02152Y01607*
X02222Y01677*
X02224Y01676*
X02341*
X02344Y01671*
X02343Y01668*
X02344Y01664*
X02346Y0166*
X0235Y01658*
X02354Y01657*
X02357Y01658*
X02361Y0166*
X02363Y01664*
X02364Y01668*
X02363Y01671*
X02366Y01676*
X02381*
X02382Y01676*
X02386Y01675*
X02389Y01676*
X02393Y01678*
X02395Y01682*
X02396Y01686*
X02395Y01689*
X02393Y01693*
X02389Y01695*
X02386Y01696*
X02382Y01695*
X02381Y01695*
X02246*
X02244Y01699*
X02299Y01754*
X02299Y01754*
X02303Y01756*
X02305Y0176*
X02306Y01764*
X02305Y01765*
X02309Y0177*
X02317*
X0232Y01771*
X02321Y01775*
Y01795*
X02798*
X02799Y01793*
X028Y0179*
X02798Y01786*
X02797Y01782*
X02798Y01777*
X02801Y01773*
X02805Y01771*
X0281Y0177*
X02814Y01771*
X02818Y01773*
X02821Y01777*
X02822Y01782*
X02821Y01786*
X02819Y0179*
X0282Y01793*
X02821Y01795*
X02831*
X02832Y0179*
X02831Y01789*
X02829Y01786*
X02828Y01782*
X02829Y01778*
X02831Y01775*
X02835Y01772*
X02839Y01772*
X02842Y01772*
X02846Y01775*
X02848Y01778*
X02849Y01782*
X02848Y01786*
X02846Y01789*
X02845Y0179*
X02846Y01795*
X0287*
X02872Y0179*
X02871Y01789*
X02869Y01786*
X02868Y01782*
X02869Y01778*
X02871Y01775*
X02874Y01772*
X02878Y01772*
X02882Y01772*
X02885Y01775*
X02887Y01778*
X02888Y01782*
X02887Y01786*
X02885Y01789*
X02884Y0179*
X02886Y01795*
X03368*
Y01603*
G37*
%LNmcu_pcb_v2-2*%
%LPC*%
G36*
X03048Y01781D02*
X03044Y01781D01*
X03041Y01778*
X03038Y01775*
X03038Y01771*
X03038Y01767*
X03041Y01764*
X03044Y01762*
X03048Y01761*
X03052Y01762*
X03055Y01764*
X03057Y01767*
X03058Y01771*
X03057Y01775*
X03055Y01778*
X03052Y01781*
X03048Y01781*
G37*
G36*
X02749Y01767D02*
X02745Y01766D01*
X02741Y01764*
X02739Y01761*
X02738Y01757*
X02739Y01753*
X02741Y0175*
X02745Y01747*
X02749Y01747*
X02752Y01747*
X02756Y0175*
X02758Y01753*
X02759Y01757*
X02758Y01761*
X02756Y01764*
X02752Y01766*
X02749Y01767*
G37*
G36*
X02513Y01762D02*
X02509Y01761D01*
X02505Y01759*
X02503Y01755*
X02502Y01752*
X02503Y01748*
X02505Y01744*
X02509Y01742*
X02513Y01741*
X02516Y01742*
X0252Y01744*
X02522Y01748*
X02523Y01752*
X02522Y01755*
X0252Y01759*
X02516Y01761*
X02513Y01762*
G37*
G36*
X0305Y01745D02*
X03046Y01744D01*
X03042Y01742*
X0304Y01738*
X0304Y01738*
X03039Y01735*
X03035Y01735*
X03035Y01735*
X03031Y01734*
X03027Y01732*
X03025Y01728*
X03024Y01725*
X03025Y01721*
X03027Y01717*
X03031Y01715*
X03035Y01714*
X03038Y01715*
X03042Y01717*
X03044Y01721*
X03044Y01721*
X03045Y01724*
X03049Y01724*
X0305Y01724*
X03053Y01725*
X03057Y01727*
X03059Y01731*
X0306Y01735*
X03059Y01738*
X03057Y01742*
X03053Y01744*
X0305Y01745*
G37*
G36*
X01834Y01779D02*
X01825Y01778D01*
X01817Y01772*
X01812Y01765*
X0181Y01756*
X01812Y01746*
X01817Y01739*
X01825Y01733*
X01834Y01732*
X01843Y01733*
X01851Y01739*
X01856Y01746*
X01858Y01756*
X01856Y01765*
X01851Y01772*
X01843Y01778*
X01834Y01779*
G37*
G36*
X0244Y01735D02*
X0243D01*
Y01724*
X02431Y01725*
X02436Y01728*
X02439Y01733*
X0244Y01735*
G37*
G36*
X02416Y01764D02*
X02412Y01763D01*
X02408Y01761*
X02406Y01757*
X02405Y01754*
X02406Y0175*
X02408Y01746*
X0241Y01746*
X02408Y0174*
X0241Y01733*
X02413Y01728*
X02418Y01725*
X0242Y01724*
Y0174*
X02425*
Y01745*
X0244*
X02439Y01746*
X02436Y01751*
X02431Y01754*
X02425Y01756*
X02425Y01757*
X02423Y01761*
X02419Y01763*
X02416Y01764*
G37*
G36*
X0274Y01735D02*
X02736Y01734D01*
X02732Y01732*
X0273Y01728*
X02729Y01725*
X0273Y01721*
X02732Y01717*
X02736Y01715*
X0274Y01714*
X02743Y01715*
X02747Y01717*
X02749Y01721*
X0275Y01725*
X02749Y01728*
X02747Y01732*
X02743Y01734*
X0274Y01735*
G37*
G36*
X01899Y01752D02*
X01895Y01751D01*
X01891Y01749*
X01889Y01745*
X01888Y01742*
X01889Y01738*
X01891Y01734*
X01895Y01732*
X01897Y01732*
X01899Y01731*
X01901Y01727*
X019Y01725*
X01902Y01718*
X01905Y01713*
X0191Y0171*
X01917Y01708*
X01923Y0171*
X01928Y01713*
X01931Y01718*
X01933Y01725*
X01931Y01731*
X01928Y01736*
X01923Y01739*
X01917Y01741*
X01913Y0174*
X01909Y01741*
X01908Y01744*
X01908Y01745*
X01906Y01749*
X01902Y01751*
X01899Y01752*
G37*
G36*
X02556Y01724D02*
X02552Y01723D01*
X02549Y01721*
X02547Y01717*
X02546Y01713*
X02547Y0171*
X02549Y01706*
X02552Y01704*
X02556Y01703*
X0256Y01704*
X02563Y01706*
X02565Y0171*
X02566Y01713*
X02565Y01717*
X02563Y01721*
X0256Y01723*
X02556Y01724*
G37*
G36*
X02655Y0172D02*
X02651Y01719D01*
X02647Y01717*
X02645Y01713*
X02644Y0171*
X02645Y01706*
X02647Y01702*
X02651Y017*
X02655Y01699*
X02658Y017*
X02662Y01702*
X02664Y01706*
X02665Y0171*
X02664Y01713*
X02662Y01717*
X02658Y01719*
X02655Y0172*
G37*
G36*
X02514Y01721D02*
X02508Y0172D01*
X02503Y01717*
X02499Y01711*
X02498Y01705*
X02499Y01699*
X02503Y01694*
X02508Y0169*
X02514Y01689*
X0252Y0169*
X02526Y01694*
X02529Y01699*
X0253Y01705*
X02529Y01711*
X02526Y01717*
X0252Y0172*
X02514Y01721*
G37*
G36*
X01884Y0172D02*
X01877Y01718D01*
X01872Y01715*
X01869Y0171*
X01867Y01704*
X01869Y01697*
X01872Y01692*
X01877Y01689*
X01884Y01687*
X0189Y01689*
X01895Y01692*
X01898Y01697*
X019Y01704*
X01898Y0171*
X01895Y01715*
X0189Y01718*
X01884Y0172*
G37*
G36*
X03105Y017D02*
X03101Y01699D01*
X03098Y01697*
X03096Y01693*
X03095Y0169*
X03096Y01686*
X03098Y01682*
X03101Y0168*
X03105Y01679*
X03109Y0168*
X03112Y01682*
X03114Y01686*
X03115Y0169*
X03114Y01693*
X03112Y01697*
X03109Y01699*
X03105Y017*
G37*
G36*
X02734Y01696D02*
X02731Y01695D01*
X02727Y01693*
X02725Y01689*
X02724Y01686*
X02725Y01682*
X02727Y01678*
X02731Y01676*
X02734Y01675*
X02738Y01676*
X02742Y01678*
X02744Y01682*
X02745Y01686*
X02744Y01689*
X02742Y01693*
X02738Y01695*
X02734Y01696*
G37*
G36*
X02687Y01688D02*
X02683Y01687D01*
X0268Y01685*
X02678Y01682*
X02677Y01678*
X02678Y01674*
X0268Y01671*
X02683Y01668*
X02687Y01668*
X02691Y01668*
X02694Y01671*
X02696Y01674*
X02697Y01678*
X02696Y01682*
X02694Y01685*
X02691Y01687*
X02687Y01688*
G37*
G36*
X02651Y01683D02*
X02647Y01683D01*
X02643Y01681*
X02641Y01677*
X02641Y01673*
X02641Y0167*
X02643Y01666*
X02647Y01664*
X02651Y01663*
X02654Y01664*
X02658Y01666*
X0266Y0167*
X02661Y01673*
X0266Y01677*
X02658Y01681*
X02654Y01683*
X02651Y01683*
G37*
G36*
X02047Y01688D02*
X0204Y01686D01*
X02035Y01683*
X02032Y01678*
X0203Y01672*
X02032Y01665*
X02035Y0166*
X0204Y01657*
X02047Y01655*
X02053Y01657*
X02058Y0166*
X02061Y01665*
X02063Y01672*
X02061Y01678*
X02058Y01683*
X02053Y01686*
X02047Y01688*
G37*
G36*
X03035Y01675D02*
X03031Y01674D01*
X03027Y01672*
X03025Y01668*
X03024Y01665*
X03025Y01661*
X03027Y01657*
X03031Y01655*
X03035Y01654*
X03038Y01655*
X0304Y01656*
X03041Y01655*
X03045Y01653*
X03045Y01651*
X03047Y01647*
X03051Y01645*
X03055Y01644*
X03058Y01645*
X03062Y01647*
X03064Y01651*
X03065Y01655*
X03064Y01658*
X03062Y01662*
X03058Y01664*
X03055Y01665*
X03051Y01664*
X03049Y01663*
X03048Y01664*
X03044Y01666*
X03044Y01668*
X03042Y01672*
X03038Y01674*
X03035Y01675*
G37*
G36*
X01881Y01669D02*
X01876Y01668D01*
X01872Y01665*
X01869Y01661*
X01868Y01657*
X01869Y01652*
X01872Y01648*
X01876Y01645*
X01881Y01644*
X01885Y01645*
X01889Y01648*
X01892Y01652*
X01893Y01657*
X01892Y01661*
X01889Y01665*
X01885Y01668*
X01881Y01669*
G37*
G36*
X02724Y01649D02*
X0272Y01648D01*
X02717Y01646*
X02714Y01643*
X02714Y01639*
X02714Y01635*
X02717Y01632*
X0272Y0163*
X02724Y01629*
X02728Y0163*
X02731Y01632*
X02733Y01635*
X02734Y01639*
X02733Y01643*
X02731Y01646*
X02728Y01648*
X02724Y01649*
G37*
G36*
X03034Y01637D02*
X0303Y01637D01*
X03027Y01634*
X03025Y01631*
X03024Y01627*
X03025Y01623*
X03027Y0162*
X0303Y01618*
X03034Y01617*
X03038Y01618*
X03041Y0162*
X03044Y01623*
X03044Y01627*
X03044Y01631*
X03041Y01634*
X03038Y01637*
X03034Y01637*
G37*
G36*
X02665Y01637D02*
X02661Y01636D01*
X02657Y01634*
X02655Y01631*
X02654Y01627*
X02655Y01623*
X02657Y0162*
X02661Y01617*
X02665Y01617*
X02668Y01617*
X02672Y0162*
X02674Y01623*
X02675Y01627*
X02674Y01631*
X02672Y01634*
X02668Y01636*
X02665Y01637*
G37*
G36*
X0261Y01625D02*
X02606Y01624D01*
X02602Y01622*
X026Y01618*
X02599Y01615*
X026Y01611*
X02602Y01607*
X02606Y01605*
X0261Y01604*
X02613Y01605*
X02617Y01607*
X02619Y01611*
X0262Y01615*
X02619Y01618*
X02617Y01622*
X02613Y01624*
X0261Y01625*
G37*
G36*
X03073Y01633D02*
X03068Y01632D01*
X03064Y01629*
X03061Y01625*
X0306Y01621*
X03061Y01616*
X03064Y01612*
X03068Y0161*
X03073Y01609*
X03075Y01609*
X0308Y01607*
X03082Y01603*
X03086Y01601*
X0309Y016*
X03093Y01601*
X03097Y01603*
X03099Y01607*
X031Y01611*
X03099Y01614*
X03097Y01618*
X03093Y0162*
X0309Y01621*
X03089Y01621*
X03085Y01621*
X03084Y01624*
X03084Y01625*
X03081Y01629*
X03077Y01632*
X03073Y01633*
G37*
G36*
X0186Y01615D02*
X01856Y01614D01*
X01852Y01612*
X0185Y01608*
X01849Y01605*
X0185Y01601*
X01852Y01597*
X01856Y01595*
X0186Y01594*
X01863Y01595*
X01867Y01597*
X01869Y01601*
X0187Y01605*
X01869Y01608*
X01867Y01612*
X01863Y01614*
X0186Y01615*
G37*
G36*
X02375Y0161D02*
X02371Y01609D01*
X02367Y01607*
X02365Y01603*
X02364Y016*
X02365Y01596*
X02367Y01592*
X02371Y0159*
X02375Y01589*
X02378Y0159*
X02382Y01592*
X02384Y01596*
X02385Y016*
X02384Y01603*
X02382Y01607*
X02378Y01609*
X02375Y0161*
G37*
G36*
X02044Y01592D02*
X02038Y01591D01*
X02032Y01587*
X02032Y01587*
X02029Y01584*
X02026Y01586*
X02022Y01587*
X02018Y01586*
X02015Y01584*
X02013Y0158*
X02012Y01577*
X02013Y01573*
X02015Y01569*
X02018Y01567*
X02022Y01566*
X02026Y01567*
X02029Y01569*
X02032Y01564*
X02038Y01561*
X02044Y0156*
X0205Y01561*
X02055Y01564*
X02059Y01569*
X0206Y01576*
X02059Y01582*
X02055Y01587*
X0205Y01591*
X02044Y01592*
G37*
G36*
X03235Y016D02*
X03231Y01599D01*
X03227Y01597*
X03225Y01593*
X03224Y0159*
X03225Y01586*
X03227Y01582*
X03231Y0158*
X03235Y01579*
X03238Y0158*
X03242Y01582*
X03244Y01586*
X03245Y0159*
X03244Y01593*
X03242Y01597*
X03238Y01599*
X03235Y016*
G37*
G36*
X0233Y01597D02*
X02326Y01596D01*
X02322Y01594*
X0232Y0159*
X02319Y01587*
X0232Y01583*
X02322Y01579*
X02326Y01577*
X0233Y01576*
X02333Y01577*
X02337Y01579*
X02339Y01583*
X0234Y01587*
X02339Y0159*
X02337Y01594*
X02333Y01596*
X0233Y01597*
G37*
G36*
X03172Y01592D02*
X03168Y01591D01*
X03165Y01589*
X03162Y01586*
X03162Y01582*
X03162Y01578*
X03165Y01575*
X03168Y01572*
X03172Y01572*
X03176Y01572*
X03179Y01575*
X03181Y01578*
X03182Y01582*
X03181Y01586*
X03179Y01589*
X03176Y01591*
X03172Y01592*
G37*
G36*
X01967Y01603D02*
X0196Y01601D01*
X01955Y01598*
X01952Y01593*
X0195Y01587*
X01952Y0158*
X01955Y01575*
X0196Y01572*
X01967Y0157*
X01973Y01572*
X01978Y01575*
X01981Y0158*
X01983Y01587*
X01981Y01593*
X01978Y01598*
X01973Y01601*
X01967Y01603*
G37*
G36*
X01884Y016D02*
X01881Y01599D01*
X01877Y01597*
X01875Y01593*
X01874Y0159*
X01875Y01586*
X01877Y01582*
X01881Y0158*
X01881Y0158*
X01884Y01579*
X01884Y01575*
X01884Y01575*
X01885Y01571*
X01887Y01567*
X01891Y01565*
X01895Y01564*
X01898Y01565*
X01902Y01567*
X01904Y01571*
X01905Y01575*
X01904Y01578*
X01902Y01582*
X01898Y01584*
X01898Y01584*
X01895Y01585*
X01894Y01589*
X01895Y0159*
X01894Y01593*
X01892Y01597*
X01888Y01599*
X01884Y016*
G37*
G36*
X02192Y01571D02*
X02188Y0157D01*
X02184Y01568*
X02182Y01564*
X02181Y01561*
X02182Y01557*
X02184Y01553*
X02188Y01551*
X02192Y0155*
X02195Y01551*
X02199Y01553*
X02201Y01557*
X02202Y01561*
X02201Y01564*
X02199Y01568*
X02195Y0157*
X02192Y01571*
G37*
G36*
X03021Y01557D02*
X03017Y01556D01*
X03013Y01554*
X03011Y0155*
X0301Y01547*
X03011Y01543*
X03013Y01539*
X03017Y01537*
X03021Y01536*
X03024Y01537*
X03028Y01539*
X0303Y01543*
X03031Y01547*
X0303Y0155*
X03028Y01554*
X03024Y01556*
X03021Y01557*
G37*
G36*
X02005Y01535D02*
X02001Y01534D01*
X01997Y01532*
X01992*
X01988Y01534*
X01985Y01535*
X01981Y01534*
X01977Y01532*
X01975Y01528*
X01974Y01525*
X01975Y01521*
X01977Y01517*
X01981Y01515*
X01985Y01514*
X01988Y01515*
X01992Y01517*
X01997*
X02001Y01515*
X02005Y01514*
X02008Y01515*
X02012Y01517*
X02014Y01521*
X02015Y01525*
X02014Y01528*
X02012Y01532*
X02008Y01534*
X02005Y01535*
G37*
G36*
X01795Y01603D02*
X0179Y01602D01*
X01786Y01599*
X01783Y01595*
X01782Y01591*
X01783Y01586*
X01786Y01583*
X01785Y0158*
X01784Y01577*
X01777Y01572*
X01772Y01565*
X0177Y01556*
X01772Y01546*
X01777Y01539*
X01777Y01537*
X01776Y01533*
X01773Y01532*
X01771Y01528*
X0177Y01525*
X01771Y01521*
X01773Y01517*
X01777Y01515*
X01781Y01514*
X01784Y01515*
X01788Y01517*
X0179Y01521*
X01791Y01525*
X0179Y01527*
X01792Y0153*
X01794Y01532*
X01794Y01532*
X01803Y01533*
X01811Y01539*
X01816Y01546*
X01818Y01556*
X01816Y01565*
X01811Y01572*
X01804Y01577*
X01803Y01581*
X01803Y01583*
X01806Y01586*
X01807Y01591*
X01806Y01595*
X01803Y01599*
X01799Y01602*
X01795Y01603*
G37*
G36*
X02219Y01541D02*
X02215Y0154D01*
X02211Y01538*
X02209Y01534*
X02208Y01531*
X02209Y01527*
X02211Y01523*
X02215Y01521*
X02219Y0152*
X02222Y01521*
X02226Y01523*
X02228Y01527*
X02229Y01531*
X02228Y01534*
X02226Y01538*
X02222Y0154*
X02219Y01541*
G37*
G36*
X02956Y01512D02*
X02952Y01511D01*
X02948Y01509*
X02948Y01508*
X02942*
X02942Y01509*
X02938Y01511*
X02935Y01512*
X02931Y01511*
X02927Y01509*
X02925Y01506*
X02924Y01502*
X02925Y01498*
X02927Y01495*
X02931Y01492*
X02935Y01492*
X02938Y01492*
X02942Y01495*
X02942Y01495*
X02948*
X02948Y01495*
X02952Y01492*
X02956Y01492*
X02959Y01492*
X02963Y01495*
X02965Y01498*
X02966Y01502*
X02965Y01506*
X02963Y01509*
X02959Y01511*
X02956Y01512*
G37*
G36*
X02705Y01532D02*
X027Y01531D01*
X02696Y01528*
X02693Y01524*
X02692Y0152*
X02693Y01515*
X02696Y01511*
X027Y01508*
X02705Y01507*
X02709Y01508*
X02713Y01511*
X02716Y01515*
X02717Y0152*
X02716Y01524*
X02713Y01528*
X02709Y01531*
X02705Y01532*
G37*
G36*
X0334Y01573D02*
X03331Y01572D01*
X03323Y01569*
X03316Y01563*
X0331Y01556*
X03307Y01548*
X03306Y0154*
X03307Y01531*
X0331Y01523*
X03316Y01516*
X03323Y0151*
X03331Y01507*
X0334Y01506*
X03348Y01507*
X03356Y0151*
X03363Y01516*
X03369Y01523*
X03372Y01531*
X03373Y0154*
X03372Y01548*
X03369Y01556*
X03363Y01563*
X03356Y01569*
X03348Y01572*
X0334Y01573*
G37*
%LNmcu_pcb_v2-3*%
%LPD*%
G54D10*
X02221Y01689D02*
X02296Y01764D01*
X02146Y01614D02*
X02221Y01689D01*
X02224Y01686D02*
X02386D01*
X02221Y01689D02*
X02224Y01686D01*
X02098Y01614D02*
X02146D01*
G54D71*
X0344Y0154D03*
G54D73*
X02101Y01584D03*
X02385Y01719D03*
X02386Y01686D03*
X02296Y01764D03*
X02098Y01614D03*
X02527Y01503D03*
X02081Y0153D03*
X0271Y0175D03*
X03354Y01709D03*
X03235Y01688D03*
X02398Y01753D03*
X02425Y0174D03*
X02109Y01748D03*
X02128Y01666D03*
X0213Y01703D03*
X02505Y01672D03*
X02209Y01777D03*
X02355Y0163D03*
X01976Y01777D03*
X025Y01615D03*
X02325Y0156D03*
X03295Y01699D03*
X03148Y01774D03*
X03256D03*
X03202Y01752D03*
X03478Y01502D03*
X03479Y01519D03*
Y01538D03*
Y01558D03*
Y01578D03*
X0346Y01582D03*
X0344D03*
X0342D03*
X03355Y01687D03*
X03055Y0162D03*
X02615Y01585D03*
X0263Y01675D03*
X0264Y015D03*
X03109Y0178D03*
X03462Y01493D03*
X0344D03*
X03418D03*
X03397Y01579D03*
Y01536D03*
Y01493D03*
X03375Y01579D03*
X03386Y01558D03*
Y01514D03*
X03375Y01493D03*
X03354Y01752D03*
Y01666D03*
Y01623D03*
Y01579D03*
Y01493D03*
X03343Y01774D03*
Y01644D03*
X03332Y01623D03*
X03343Y01601D03*
X03332Y01493D03*
X03321Y01774D03*
Y01644D03*
Y01601D03*
X0331Y01493D03*
X03299Y01774D03*
X03289Y01493D03*
X03278Y01774D03*
X03267Y01493D03*
X03245D03*
X03224Y01666D03*
Y01493D03*
X03213Y01688D03*
X03202Y01493D03*
X0318D03*
X03159D03*
X03126Y01774D03*
X033Y01585D03*
G54D74*
X02875Y01701D03*
X02886Y01643D03*
X02955Y01655D03*
X0292Y01605D03*
X02805Y0165D03*
Y01605D03*
X0298Y0172D03*
X0286Y01605D03*
X0296Y01555D03*
X02805D03*
Y01725D03*
G54D75*
X0186Y01564D03*
X01791Y01739D03*
M02*