%FSTAX23Y23*%
%MOIN*%
%SFA1B1*%

%IPPOS*%
%ADD14C,0.010000*%
%ADD15C,0.006000*%
%ADD88C,0.070900*%
%ADD89C,0.012000*%
%ADD90C,0.008000*%
%ADD91C,0.062000*%
%ADD92R,0.062000X0.062000*%
%ADD93C,0.019500*%
%ADD94C,0.047200*%
%ADD95C,0.065000*%
%ADD96C,0.022000*%
%ADD97C,0.026000*%
%LNmcu_pcb-1*%
%LPD*%
G36*
X05269Y0135D02*
X05272Y01343D01*
X05275Y01336*
X05271Y01331*
X0527Y01327*
X05291*
Y01322*
X05296*
Y01302*
X05299Y01303*
X05306Y01307*
X05311Y01314*
X05311Y01317*
X05326*
X05326Y01314*
X05331Y01307*
X05338Y01303*
X05341Y01302*
Y01322*
X05351*
Y01302*
X05354Y01303*
X05357Y01305*
X0537Y01301*
X05372Y01299*
X05388Y01189*
X05387Y01188*
X05379Y01181*
Y01157*
Y01137*
X05381Y01137*
X05382*
X05396Y0113*
X05405Y01067*
X05403Y01066*
X05389Y01062*
X05382Y01067*
X05379Y01067*
Y01047*
Y01026*
X05382Y01027*
X05389Y01032*
X05393Y01039*
X05394Y01042*
X05408Y01042*
X05411Y01025*
X05401Y01013*
X05393Y01011*
X05386Y01007*
X05381Y01*
X05381Y00997*
X05401*
Y00992*
X05406*
Y0097*
X05417Y00964*
X0542Y00962*
X05422Y00942*
X05423Y00937*
X05426Y00933*
X0543Y00932*
X05435Y00932*
X05562Y0095*
X05562Y0095*
X05569Y00942*
X05594*
Y00937*
X05599*
Y00916*
X05602Y00917*
X05608Y00921*
X05613Y0092*
X05623Y00917*
X05631Y00855*
X05518Y0082*
X05514Y00822*
X05504Y0083*
X05504Y00835*
X05499Y00841*
X05492Y00846*
X05489Y00847*
Y00826*
X05479*
Y00847*
X05476Y00846*
X05469Y00841*
X05464Y00835*
X05464Y00832*
X05463Y00831*
X0545*
X05449Y00833*
X05448Y00835*
X05444Y00841*
X05437Y00846*
X05434Y00847*
Y00826*
Y00806*
X05437Y00807*
X05444Y00811*
X05444Y00812*
X0546Y00814*
X05461Y00814*
X05463Y00811*
X05459Y00797*
X05361Y00755*
X05241Y007*
X05081Y00645*
X05073Y00643*
X05062Y00655*
X05062Y00655*
X05061Y00661*
X05057Y00667*
X05051Y00671*
X05045Y00672*
X0504Y00671*
X05038Y00673*
X05034Y00674*
X04924*
X0492Y00673*
X04917Y00671*
X04913Y00667*
X04906Y00668*
X04898Y00672*
X04897Y00677*
X04893Y00683*
X04887Y00687*
X0488Y00689*
X04872Y00687*
X04866Y00683*
X04864Y0068*
X04833Y00677*
X04833Y00677*
X04832Y00676*
X04787Y00666*
X04786Y00666*
X04785Y00666*
X04784Y00665*
X04783Y00665*
X04782Y00664*
X04781Y00663*
X0478Y00662*
X04757*
X04746Y00675*
X04744Y00683*
X0474Y0069*
X04733Y00694*
X0473Y00695*
Y00675*
X0472*
Y00695*
X04716Y00694*
X04709Y0069*
X04705Y00683*
X04703Y00675*
X04691Y00664*
X04652Y00667*
Y00685*
X04655Y0069*
X04657Y00697*
X04655Y00705*
X04651Y00711*
X04645Y00715*
X04637Y00717*
X0463Y00715*
X04624Y00711*
X04619Y00705*
X04618Y00697*
X04619Y0069*
X04624Y00684*
X0462Y00675*
X04614Y00669*
X03869Y0072*
X03862Y00724*
X03799Y00788*
X03799Y0079*
X03797Y00797*
X03793Y00803*
X03787Y00807*
X0378Y00809*
X03772Y00807*
X03766Y00803*
X03762Y00797*
X0376Y0079*
X03762Y00782*
X03766Y00776*
X03772Y00772*
X0378Y0077*
X03781Y00771*
X03838Y00714*
X03831Y00701*
X03591Y00716*
X03551Y00756*
X03548Y00758*
X03545Y00759*
X03532*
X03525Y00766*
X03524Y00769*
X03525Y00779*
X03528Y00783*
X0353Y00784*
X03534Y00791*
X03535Y00795*
X03494*
X03495Y00791*
X03499Y00784*
X03501Y00783*
X03508Y00772*
X03508Y00767*
X03502Y00762*
X03499Y00756*
X03497Y0075*
X03499Y00743*
X03502Y00737*
X03508Y00734*
X03515Y00732*
X03521Y00734*
X03527Y00737*
X03528Y00738*
X03542Y00739*
X03562Y00719*
X03556Y00706*
X03135Y00734*
X02434Y00779*
Y00809*
X02433Y00813*
X02431Y00816*
X02369Y00878*
X02366Y0088*
X02362Y00881*
X02025*
X02025Y00882*
X02021Y00891*
X02014Y00899*
X02006Y00905*
X01997Y00909*
X01987Y0091*
X01977Y00909*
X01968Y00905*
X0196Y00899*
X01959Y00899*
X01946Y00904*
Y00914*
X01945Y00918*
X01942Y00922*
X01937Y00927*
X01933Y0093*
X01929Y00931*
X01848*
X01844Y0093*
X0184Y00927*
X01822Y00909*
X01819Y00906*
X01818Y00901*
X01805Y00902*
X0178Y01087*
X01793Y01095*
X01794Y01095*
X01797Y01094*
Y01114*
Y01135*
X01794Y01134*
X01788Y0113*
X01781Y01132*
X01774Y01135*
X01756Y01266*
X01764Y01281*
X01822Y01287*
X01827Y01282*
X01831Y01274*
X01831Y01274*
X01831Y01273*
X0183Y0127*
Y01245*
X01831Y01241*
X01833Y01238*
X01843Y01228*
X01842Y01225*
X01844Y01218*
X01847Y01212*
X01844Y01198*
X01833Y01188*
X01831Y01185*
Y01184*
X0183Y01184*
X01824Y0118*
X01821Y01175*
X01819Y01168*
X01821Y01162*
X01824Y01156*
X0183Y01152*
X01833Y01138*
X0183Y01134*
X01815Y01131*
X0181Y01134*
X01807Y01135*
Y01114*
Y01089*
X01815Y01082*
Y01051*
X01816Y01048*
X01818Y01045*
X01845Y01018*
X01848Y01016*
X01847Y01015*
X01849Y01008*
X01852Y01002*
X01857Y00997*
X01855Y00988*
X01854Y00985*
X01895*
X01894Y00988*
X0189Y00995*
X01889Y00995*
X01882Y01005*
X01882Y01014*
X01882Y01015*
X01881Y01021*
X01877Y01027*
X01876Y01027*
X01875Y01029*
X01879Y01036*
X01881Y01045*
X01882Y01045*
X02353*
X02357Y01046*
X0236Y01048*
X02418Y01106*
X02434Y01103*
X02441Y01099*
X02445Y01098*
Y01118*
X0245*
Y01123*
X0247*
X02469Y01127*
X02465Y01134*
X02465Y01149*
X02556*
X02559Y01147*
X02566Y01135*
X02566Y01134*
X02567Y01127*
X02571Y01121*
X02576Y01118*
X02583Y01116*
X0259Y01118*
X02595Y01121*
X02599Y01127*
X026Y01134*
X02614Y01137*
X02959*
X02962Y01135*
X02968Y01125*
X03011*
X03017Y01135*
X0302Y01137*
X03201*
X03201Y01137*
X03205Y01131*
X03206Y01126*
X03199Y01112*
X03189Y0111*
X03186Y01109*
X03179Y01105*
X03175Y01098*
X03174Y01095*
X03195*
Y0109*
X032*
Y01069*
X03203Y0107*
X0321Y01074*
X03214Y01081*
X03215Y01083*
X0322Y01096*
X03227Y01097*
X03235Y01099*
X03242Y01095*
X03243Y01095*
X03248Y01091*
X03251Y01091*
X03251Y0109*
X03288Y01053*
X03287Y0105*
X03289Y01043*
X03292Y01037*
X03298Y01034*
X03305Y01032*
X03311Y01034*
X03317Y01037*
X03321Y01043*
X03322Y0105*
X03321Y01056*
X0332Y01058*
X03325Y01071*
X03326Y01072*
X03615*
X03627Y01061*
X03629Y01053*
X03633Y01046*
X0364Y01041*
X03643Y0104*
Y01061*
X03653*
Y0104*
X03657Y01041*
X03663Y01046*
X03668Y01053*
X0367Y01061*
X03681Y01073*
X03769*
X03781Y01063*
X03783Y01055*
X03788Y01048*
X03795Y01043*
X03798Y01042*
Y01063*
X03808*
Y01042*
X03811Y01043*
X03818Y01048*
X03834Y01047*
X0385Y01031*
X03849Y01015*
X03845Y01008*
Y01008*
X03832Y01007*
X0383Y01007*
X03826Y01013*
X0382Y01017*
X03813Y01019*
X03805Y01017*
X03799Y01013*
X03795Y01007*
X03793Y01*
X03795Y00992*
X03799Y00986*
X03805Y00982*
X03813Y0098*
X0382Y00982*
X03826Y00986*
X0383Y00992*
X03832Y00992*
X03845Y00991*
Y00991*
X03849Y00984*
X03856Y0098*
X0386Y00979*
Y01*
X0387*
Y00979*
X03873Y0098*
X0388Y00984*
X03884Y00991*
X03886Y01*
X03887Y01001*
X04045*
X04052Y00987*
X0405Y00984*
X04025*
X04021Y00983*
X04018Y00981*
X03981Y00944*
X03594*
X03592Y00947*
X03586Y00951*
X0358Y00952*
X03573Y00951*
X03567Y00947*
X03564Y00941*
X03562Y00935*
X03564Y00928*
X03567Y00922*
X03573Y00919*
X0358Y00917*
X03586Y00919*
X03592Y00922*
X03594Y00925*
X03985*
X03988Y00926*
X03991Y00928*
X04028Y00965*
X0406*
X04062Y00962*
X04068Y00959*
X04075Y00957*
X04081Y00959*
X04087Y00962*
X04091Y00968*
X04092Y00975*
X04091Y00981*
X04087Y00987*
X04086Y00987*
X0409Y01001*
X04153*
X04156Y01002*
X04159Y01004*
X0416Y01004*
X0422*
X04221Y01004*
X04226Y0099*
X04226Y00989*
X04224Y00983*
X04225Y00978*
X04198Y00951*
X04196Y00948*
X04195Y00945*
Y00925*
X04196Y00921*
X04198Y00918*
X04258Y00858*
X04257Y00855*
X04259Y00848*
X04262Y00842*
X04268Y00839*
X04275Y00837*
X04281Y00839*
X04287Y00842*
X04292Y00848*
X04301Y00847*
X04303Y00846*
X04308Y00845*
X04314Y00847*
X0432Y0085*
X04324Y00856*
X04325Y00863*
X04324Y00869*
X0432Y00875*
X04314Y00879*
X04308Y0088*
X04307Y0088*
X04286Y00901*
X04287Y00905*
X04286Y00911*
X04282Y00917*
X04276Y00921*
X0427Y00922*
X04263Y00921*
X04259Y00918*
X04242Y00935*
X04241Y00941*
X04237Y00947*
X04236Y00952*
X04242Y00965*
X04248Y00967*
X04254Y0097*
X04258Y00976*
X04259Y00983*
X04258Y00989*
X04257Y0099*
X04263Y01004*
X04263Y01004*
X04331*
X04343Y00995*
X04345Y00986*
X04349Y00979*
X04356Y00975*
X0436Y00974*
Y00995*
X0437*
Y00974*
X04373Y00975*
X04387Y00969*
X04388Y00966*
Y00966*
X04387Y0096*
X04389Y00953*
X04392Y00947*
X04398Y00944*
X04405Y00942*
X04411Y00944*
X0442Y00946*
X04428Y00944*
X04435Y00942*
X04441Y00944*
X04449Y00943*
X04452Y00937*
X04458Y00934*
X04465Y00932*
X04471Y00934*
X04477Y00937*
X04481Y00943*
X04481Y00943*
X04486Y0094*
X0449Y00939*
Y0096*
X045*
Y00939*
X04503Y0094*
X0451Y00944*
X04526Y00943*
X04568Y00901*
X04571Y00899*
X04575Y00898*
X04646*
X0465Y00899*
X04653Y00901*
X04666Y00914*
X04668Y00917*
X04668Y00921*
Y0097*
X04686Y00988*
X048*
X04804Y00976*
X04804Y00974*
X048Y00968*
X04799Y00964*
X04795Y00961*
X04788Y00958*
X04785Y00958*
X04781Y0096*
X04777Y00961*
Y00941*
Y0092*
X04781Y00921*
X04787Y00926*
X04792Y00933*
X04793Y00937*
X04797Y00939*
X04804Y00942*
X04807Y00943*
X04811Y0094*
X04815Y00939*
Y0096*
X0482*
Y00965*
X0484*
X04839Y00968*
X04835Y00974*
X04835Y00976*
X04839Y00988*
X04865*
X04869Y00976*
X04869Y00974*
X04865Y00968*
X04864Y00965*
X04906*
X04911Y00974*
X0492Y00966*
Y00892*
X04919Y00891*
X04904Y00893*
X049Y009*
X04893Y00904*
X0489Y00905*
Y00885*
X04885*
Y0088*
X04864*
X04865Y00876*
X04869Y00869*
X04876Y00865*
X04885Y00863*
X04886Y00863*
X04892Y0085*
X04876Y00834*
X04825*
X04821Y00833*
X04818Y00831*
X04763Y00776*
X04757*
X04753Y00775*
X04752Y00774*
X04746Y00776*
X04739Y00774*
X04733Y00771*
X0473Y00765*
X04728Y00758*
X0473Y00752*
X04733Y00746*
X04739Y00742*
X04746Y00741*
X04752Y00742*
X04761Y00735*
X04767Y00731*
X04774Y00729*
X0478Y00731*
X04781Y00732*
X04813*
X04816Y00732*
X04819Y00734*
X04823Y00738*
X04837Y00742*
X04843Y00739*
X0485Y00737*
X04856Y00739*
X04862Y00742*
X04866Y00748*
X04867Y00755*
X0488Y00761*
X05036*
X05039Y00762*
X05042Y00764*
X05124Y00846*
X05126Y00849*
X05127Y00852*
Y01024*
X05131Y01027*
X05141Y0103*
X05145Y01027*
X05148Y01026*
Y01047*
Y01067*
X05145Y01067*
X05141Y01064*
X05131Y01067*
X05127Y0107*
Y01212*
X05126Y01216*
X05124Y01219*
X05074Y01269*
X05071Y01271*
X05067Y01272*
X04907*
X04896Y01285*
X04894Y01293*
X0489Y013*
X04883Y01304*
X0488Y01305*
Y01285*
X0487*
Y01305*
X04866Y01304*
X04859Y013*
X04855Y01293*
X04853Y01285*
X04842Y01272*
X04769*
X04759Y01285*
X04757Y01292*
X04753Y01298*
X04747Y01302*
X04736Y0131*
X04734Y01318*
X0473Y01325*
X04723Y01329*
X0472Y0133*
Y0131*
X04715*
Y01305*
X04689*
X04688Y01303*
X04357*
X04356Y01305*
X04354Y01313*
X0435Y0132*
X04343Y01324*
X0434Y01325*
Y01305*
X0433*
Y01325*
X04326Y01324*
X04319Y0132*
X04315Y01313*
X04306Y01307*
X04298Y01305*
X04292Y01301*
X04276Y01299*
X04238Y01337*
X04244Y01351*
X05269Y0135*
G37*
%LNmcu_pcb-2*%
%LPC*%
G36*
X0471Y0133D02*
X04706Y01329D01*
X04699Y01325*
X04695Y01318*
X04694Y01315*
X0471*
Y0133*
G37*
G36*
X05286Y01317D02*
X0527D01*
X05271Y01314*
X05276Y01307*
X05283Y01303*
X05286Y01302*
Y01317*
G37*
G36*
X05323Y01288D02*
Y01272D01*
X05339*
X05338Y01275*
X05334Y01282*
X05327Y01287*
X05323Y01288*
G37*
G36*
X05313D02*
X0531Y01287D01*
X05303Y01282*
X05299Y01275*
X05298Y01272*
X05313*
Y01288*
G37*
G36*
X05339Y01262D02*
X05323D01*
Y01247*
X05327Y01247*
X05334Y01252*
X05338Y01259*
X05339Y01262*
G37*
G36*
X05313D02*
X05298D01*
X05299Y01259*
X05303Y01252*
X0531Y01247*
X05313Y01247*
Y01262*
G37*
G36*
X05351Y01233D02*
Y01217D01*
X05366*
X05366Y0122*
X05361Y01227*
X05354Y01232*
X05351Y01233*
G37*
G36*
X05286D02*
X05283Y01232D01*
X05276Y01227*
X05271Y0122*
X0527Y01217*
X05286*
Y01233*
G37*
G36*
X05341D02*
X05338Y01232D01*
X05331Y01227*
X05326Y0122*
X05326Y01217*
X05311*
X05311Y0122*
X05306Y01227*
X05299Y01232*
X05296Y01233*
Y01212*
Y01192*
X05299Y01192*
X05306Y01197*
X05311Y01204*
X05311Y01207*
X05326*
X05326Y01204*
X05331Y01197*
X05338Y01192*
X05341Y01192*
Y01212*
Y01233*
G37*
G36*
X05366Y01207D02*
X05351D01*
Y01192*
X05354Y01192*
X05361Y01197*
X05366Y01204*
X05366Y01207*
G37*
G36*
X05286D02*
X0527D01*
X05271Y01204*
X05276Y01197*
X05283Y01192*
X05286Y01192*
Y01207*
G37*
G36*
X05313Y01177D02*
X0531Y01177D01*
X05303Y01172*
X05299Y01165*
X05298Y01162*
X05313*
Y01177*
G37*
G36*
X05369D02*
X05365Y01177D01*
X05358Y01172*
X05354Y01165*
X05353Y01162*
X05339*
X05338Y01165*
X05334Y01172*
X05327Y01177*
X05323Y01177*
Y01157*
Y01137*
X05327Y01137*
X05334Y01142*
X05338Y01149*
X05339Y01152*
X05353*
X05354Y01149*
X05358Y01142*
X05365Y01137*
X05369Y01137*
Y01157*
Y01177*
G37*
G36*
X05313Y01152D02*
X05298D01*
X05299Y01149*
X05303Y01142*
X0531Y01137*
X05313Y01137*
Y01152*
G37*
G36*
X05351Y01122D02*
Y01107D01*
X05366*
X05366Y0111*
X05361Y01117*
X05354Y01122*
X05351Y01122*
G37*
G36*
X05286D02*
X05283Y01122D01*
X05276Y01117*
X05271Y0111*
X0527Y01107*
X05286*
Y01122*
G37*
G36*
X05341D02*
X05338Y01122D01*
X05331Y01117*
X05326Y0111*
X05326Y01107*
X05311*
X05311Y0111*
X05306Y01117*
X05299Y01122*
X05296Y01122*
Y01102*
Y01082*
X05299Y01082*
X05306Y01087*
X05311Y01094*
X05311Y01097*
X05326*
X05326Y01094*
X05331Y01087*
X05338Y01082*
X05341Y01082*
Y01102*
Y01122*
G37*
G36*
X02875Y01115D02*
Y011D01*
X0289*
X02889Y01103*
X02885Y0111*
X02878Y01114*
X02875Y01115*
G37*
G36*
X02865D02*
X02861Y01114D01*
X02854Y0111*
X0285Y01103*
X02849Y011*
X02865*
Y01115*
G37*
G36*
X0247Y01113D02*
X02455D01*
Y01098*
X02458Y01099*
X02465Y01103*
X02469Y0111*
X0247Y01113*
G37*
G36*
X02725Y0111D02*
Y01095D01*
X0274*
X02739Y01098*
X02735Y01105*
X02728Y01109*
X02725Y0111*
G37*
G36*
X02715D02*
X02711Y01109D01*
X02704Y01105*
X027Y01098*
X02699Y01095*
X02715*
Y0111*
G37*
G36*
X05366Y01097D02*
X05351D01*
Y01082*
X05354Y01082*
X05361Y01087*
X05366Y01094*
X05366Y01097*
G37*
G36*
X05286D02*
X0527D01*
X05271Y01094*
X05276Y01087*
X05283Y01082*
X05286Y01082*
Y01097*
G37*
G36*
X0289Y0109D02*
X02875D01*
Y01074*
X02878Y01075*
X02885Y01079*
X02889Y01086*
X0289Y0109*
G37*
G36*
X02865D02*
X02849D01*
X0285Y01086*
X02854Y01079*
X02861Y01075*
X02865Y01074*
Y0109*
G37*
G36*
X0319Y01085D02*
X03174D01*
X03175Y01081*
X03179Y01074*
X03186Y0107*
X0319Y01069*
Y01085*
G37*
G36*
X0274D02*
X02725D01*
Y01069*
X02728Y0107*
X02735Y01074*
X02739Y01081*
X0274Y01085*
G37*
G36*
X02715D02*
X02699D01*
X027Y01081*
X02704Y01074*
X02711Y0107*
X02715Y01069*
Y01085*
G37*
G36*
X0301Y01115D02*
X02969D01*
X0297Y01111*
X02974Y01104*
X02975Y01104*
X02976Y01101*
X02974Y01088*
X02972Y01087*
X02969Y01081*
X02967Y01075*
X02969Y01068*
X02972Y01062*
X02978Y01059*
X02985Y01057*
X02991Y01059*
X02997Y01062*
X02999Y01065*
X03015*
X03017Y01062*
X03023Y01059*
X0303Y01057*
X03036Y01059*
X03042Y01062*
X03046Y01068*
X03047Y01075*
X03046Y01081*
X03042Y01087*
X03036Y01091*
X0303Y01092*
X03023Y01091*
X0302Y01089*
X03007Y0109*
X03004Y01091*
X02999Y01098*
X03Y01101*
X03005Y01104*
X03009Y01111*
X0301Y01115*
G37*
G36*
X05369Y01067D02*
X05365Y01067D01*
X05358Y01062*
X05354Y01055*
X05353Y01052*
X05339*
X05338Y01055*
X05334Y01062*
X05327Y01067*
X05323Y01067*
Y01047*
Y01026*
X05327Y01027*
X05334Y01032*
X05338Y01039*
X05339Y01042*
X05353*
X05354Y01039*
X05358Y01032*
X05365Y01027*
X05369Y01026*
Y01047*
Y01067*
G37*
G36*
X05313D02*
X0531Y01067D01*
X05303Y01062*
X05299Y01055*
X05298Y01052*
X05284*
X05283Y01055*
X05278Y01062*
X05272Y01067*
X05268Y01067*
Y01047*
Y01026*
X05272Y01027*
X05278Y01032*
X05283Y01039*
X05284Y01042*
X05298*
X05299Y01039*
X05303Y01032*
X0531Y01027*
X05313Y01026*
Y01047*
Y01067*
G37*
G36*
X05258D02*
X05255Y01067D01*
X05248Y01062*
X05244Y01055*
X05243Y01052*
X05229*
X05228Y01055*
X05223Y01062*
X05216Y01067*
X05213Y01067*
Y01047*
Y01026*
X05216Y01027*
X05223Y01032*
X05228Y01039*
X05229Y01042*
X05243*
X05244Y01039*
X05248Y01032*
X05255Y01027*
X05258Y01026*
Y01047*
Y01067*
G37*
G36*
X05203D02*
X052Y01067D01*
X05193Y01062*
X05188Y01055*
X05188Y01052*
X05174*
X05173Y01055*
X05168Y01062*
X05161Y01067*
X05158Y01067*
Y01047*
Y01026*
X05161Y01027*
X05168Y01032*
X05173Y01039*
X05174Y01042*
X05188*
X05188Y01039*
X05193Y01032*
X052Y01027*
X05203Y01026*
Y01047*
Y01067*
G37*
G36*
X0266Y01035D02*
Y0102D01*
X02675*
X02674Y01023*
X0267Y0103*
X02663Y01034*
X0266Y01035*
G37*
G36*
X0265D02*
X02646Y01034D01*
X02639Y0103*
X02635Y01023*
X02634Y0102*
X0265*
Y01035*
G37*
G36*
X03443Y01019D02*
X03435Y01018D01*
X03428Y01015*
X03422Y0101*
X03417Y01004*
X03415Y00999*
X03407Y00997*
X034Y00999*
X03398Y01004*
X03393Y0101*
X03387Y01015*
X0338Y01018*
X03372Y01019*
X03364Y01018*
X03357Y01015*
X03351Y0101*
X03346Y01004*
X03343Y00997*
X03342Y00989*
X03343Y00981*
X03346Y00974*
X03351Y00968*
X03357Y00963*
X03362Y00961*
X03364Y00954*
X03362Y00946*
X03357Y00944*
X03351Y00939*
X03346Y00933*
X03343Y00926*
X03342Y00918*
X03343Y00911*
X03346Y00903*
X03351Y00897*
X03357Y00892*
X03364Y00889*
X03372Y00888*
X0338Y00889*
X03387Y00892*
X03393Y00897*
X03398Y00903*
X034Y00909*
X03407Y0091*
X03415Y00909*
X03417Y00903*
X03422Y00897*
X03428Y00892*
X03435Y00889*
X03443Y00888*
X03451Y00889*
X03458Y00892*
X03464Y00897*
X03469Y00903*
X03472Y00911*
X03473Y00918*
X03472Y00926*
X03469Y00933*
X03464Y00939*
X03458Y00944*
X03452Y00946*
X03451Y00954*
X03452Y00961*
X03458Y00963*
X03464Y00968*
X03469Y00974*
X03472Y00981*
X03473Y00989*
X03472Y00997*
X03469Y01004*
X03464Y0101*
X03458Y01015*
X03451Y01018*
X03443Y01019*
G37*
G36*
X02675Y0101D02*
X0266D01*
Y00994*
X02663Y00995*
X0267Y00999*
X02674Y01006*
X02675Y0101*
G37*
G36*
X0265D02*
X02634D01*
X02635Y01006*
X02639Y00999*
X02646Y00995*
X0265Y00994*
Y0101*
G37*
G36*
X0246Y01D02*
Y00985D01*
X02475*
X02474Y00988*
X0247Y00995*
X02463Y00999*
X0246Y01*
G37*
G36*
X0245D02*
X02446Y00999D01*
X02439Y00995*
X02435Y00988*
X02434Y00985*
X0245*
Y01*
G37*
G36*
X0274Y00995D02*
Y0098D01*
X02755*
X02754Y00983*
X0275Y0099*
X02743Y00994*
X0274Y00995*
G37*
G36*
X0273D02*
X02726Y00994D01*
X02719Y0099*
X02715Y00983*
X02714Y0098*
X0273*
Y00995*
G37*
G36*
X05396Y00987D02*
X05381D01*
X05381Y00983*
X05386Y00977*
X05393Y00972*
X05396Y00971*
Y00987*
G37*
G36*
X02475Y00975D02*
X0246D01*
Y00959*
X02463Y0096*
X0247Y00964*
X02474Y00971*
X02475Y00975*
G37*
G36*
X0245D02*
X02434D01*
X02435Y00971*
X02439Y00964*
X02446Y0096*
X0245Y00959*
Y00975*
G37*
G36*
X01895D02*
X0188D01*
Y00959*
X01883Y0096*
X0189Y00964*
X01894Y00971*
X01895Y00975*
G37*
G36*
X0187D02*
X01854D01*
X01855Y00971*
X01859Y00964*
X01866Y0096*
X0187Y00959*
Y00975*
G37*
G36*
X03071Y00973D02*
Y00958D01*
X03087*
X03086Y00961*
X03082Y00968*
X03075Y00972*
X03071Y00973*
G37*
G36*
X03061D02*
X03058Y00972D01*
X03051Y00968*
X03047Y00961*
X03046Y00958*
X03061*
Y00973*
G37*
G36*
X02755Y0097D02*
X0274D01*
Y00954*
X02743Y00955*
X0275Y00959*
X02754Y00966*
X02755Y0097*
G37*
G36*
X0273D02*
X02714D01*
X02715Y00966*
X02719Y00959*
X02726Y00955*
X0273Y00954*
Y0097*
G37*
G36*
X04767Y00961D02*
X04764Y0096D01*
X04757Y00956*
X04755Y00953*
X04753Y00952*
X04742*
X0474Y00953*
X04737Y00956*
X04731Y0096*
X04727Y00961*
Y00941*
Y0092*
X04731Y00921*
X04737Y00926*
X0474Y00929*
X04742Y00929*
X04753*
X04755Y00929*
X04757Y00926*
X04764Y00921*
X04767Y0092*
Y00941*
Y00961*
G37*
G36*
X04717D02*
X04714Y0096D01*
X04707Y00956*
X04703Y00949*
X04702Y00946*
X04717*
Y00961*
G37*
G36*
X04905Y00955D02*
X0489D01*
Y00939*
X04893Y0094*
X049Y00944*
X04904Y00951*
X04905Y00955*
G37*
G36*
X0488D02*
X04864D01*
X04865Y00951*
X04869Y00944*
X04876Y0094*
X0488Y00939*
Y00955*
G37*
G36*
X0484D02*
X04825D01*
Y00939*
X04828Y0094*
X04835Y00944*
X04839Y00951*
X0484Y00955*
G37*
G36*
X03087Y00948D02*
X03071D01*
Y00932*
X03075Y00933*
X03082Y00938*
X03086Y00944*
X03087Y00948*
G37*
G36*
X03061D02*
X03046D01*
X03047Y00944*
X03051Y00938*
X03058Y00933*
X03061Y00932*
Y00948*
G37*
G36*
X04717Y00936D02*
X04702D01*
X04703Y00933*
X04707Y00926*
X04714Y00921*
X04717Y0092*
Y00936*
G37*
G36*
X05589Y00932D02*
X05574D01*
X05574Y00928*
X05579Y00921*
X05586Y00917*
X05589Y00916*
Y00932*
G37*
G36*
X0488Y00905D02*
X04876Y00904D01*
X04869Y009*
X04865Y00893*
X04864Y0089*
X0488*
Y00905*
G37*
G36*
X04825D02*
Y0089D01*
X0484*
X04839Y00893*
X04835Y009*
X04828Y00904*
X04825Y00905*
G37*
G36*
X04815D02*
X04811Y00904D01*
X04804Y009*
X048Y00893*
X04799Y0089*
X04815*
Y00905*
G37*
G36*
X05571Y00902D02*
Y00886D01*
X05587*
X05586Y0089*
X05582Y00897*
X05575Y00901*
X05571Y00902*
G37*
G36*
X05396D02*
X05393Y00901D01*
X05386Y00897*
X05381Y0089*
X05381Y00886*
X05396*
Y00902*
G37*
G36*
X05241D02*
Y00886D01*
X05256*
X05256Y0089*
X05251Y00897*
X05244Y00901*
X05241Y00902*
G37*
G36*
X05176D02*
X05172Y00901D01*
X05166Y00897*
X05161Y0089*
X0516Y00886*
X05176*
Y00902*
G37*
G36*
X05561D02*
X05558Y00901D01*
X05551Y00897*
X05547Y0089*
X05546Y00886*
X05532*
X05531Y0089*
X05526Y00897*
X0552Y00901*
X05516Y00902*
Y00881*
Y00861*
X0552Y00862*
X05526Y00866*
X05531Y00873*
X05532Y00877*
X05546*
X05547Y00873*
X05551Y00866*
X05558Y00862*
X05561Y00861*
Y00881*
Y00902*
G37*
G36*
X05506D02*
X05503Y00901D01*
X05496Y00897*
X05492Y0089*
X05491Y00886*
X05477*
X05476Y0089*
X05471Y00897*
X05464Y00901*
X05461Y00902*
Y00881*
Y00861*
X05464Y00862*
X05471Y00866*
X05476Y00873*
X05477Y00877*
X05491*
X05492Y00873*
X05496Y00866*
X05503Y00862*
X05506Y00861*
Y00881*
Y00902*
G37*
G36*
X05451D02*
X05448Y00901D01*
X05441Y00897*
X05436Y0089*
X05436Y00886*
X05422*
X05421Y0089*
X05416Y00897*
X05409Y00901*
X05406Y00902*
Y00881*
Y00861*
X05409Y00862*
X05416Y00866*
X05421Y00873*
X05422Y00877*
X05436*
X05436Y00873*
X05441Y00866*
X05448Y00862*
X05451Y00861*
Y00881*
Y00902*
G37*
G36*
X05231D02*
X05228Y00901D01*
X05221Y00897*
X05216Y0089*
X05215Y00886*
X05201*
X052Y0089*
X05196Y00897*
X05189Y00901*
X05186Y00902*
Y00881*
Y00861*
X05189Y00862*
X05196Y00866*
X052Y00873*
X05201Y00877*
X05215*
X05216Y00873*
X05221Y00866*
X05228Y00862*
X05231Y00861*
Y00881*
Y00902*
G37*
G36*
X0274Y00895D02*
Y0088D01*
X02755*
X02754Y00883*
X0275Y0089*
X02743Y00894*
X0274Y00895*
G37*
G36*
X0273D02*
X02726Y00894D01*
X02719Y0089*
X02715Y00883*
X02714Y0088*
X0273*
Y00895*
G37*
G36*
X04815Y0088D02*
X04799D01*
X04799Y00879*
X04798Y00878*
X04789Y00872*
X04788Y00871*
X04787Y00872*
X04783Y00874*
X0478Y00875*
Y0086*
X04795*
X04795Y0086*
X04796Y00862*
X04805Y00867*
X04806Y00868*
X04808Y00867*
X04811Y00865*
X04815Y00864*
Y0088*
G37*
G36*
X0477Y00875D02*
X04766Y00874D01*
X04759Y0087*
X04757Y00867*
X04755Y00866*
X04744*
X04742Y00867*
X0474Y0087*
X04733Y00874*
X0473Y00875*
Y00855*
Y00834*
X04733Y00835*
X0474Y00839*
X04742Y00843*
X04744Y00843*
X04755*
X04757Y00843*
X04759Y00839*
X04766Y00835*
X0477Y00834*
Y00855*
Y00875*
G37*
G36*
X0484Y0088D02*
X04825D01*
Y00864*
X04828Y00865*
X04835Y00869*
X04839Y00876*
X0484Y0088*
G37*
G36*
X05587Y00876D02*
X05571D01*
Y00861*
X05575Y00862*
X05582Y00866*
X05586Y00873*
X05587Y00876*
G37*
G36*
X05396D02*
X05381D01*
X05381Y00873*
X05386Y00866*
X05393Y00862*
X05396Y00861*
Y00876*
G37*
G36*
X05256D02*
X05241D01*
Y00861*
X05244Y00862*
X05251Y00866*
X05256Y00873*
X05256Y00876*
G37*
G36*
X05176D02*
X0516D01*
X05161Y00873*
X05166Y00866*
X05172Y00862*
X05176Y00861*
Y00876*
G37*
G36*
X0472Y00875D02*
X04716Y00874D01*
X04709Y0087*
X04705Y00863*
X04704Y0086*
X0472*
Y00875*
G37*
G36*
X0385Y0087D02*
Y00855D01*
X03865*
X03864Y00858*
X0386Y00865*
X03853Y00869*
X0385Y0087*
G37*
G36*
X0384D02*
X03836Y00869D01*
X03829Y00865*
X03825Y00858*
X03824Y00855*
X0384*
Y0087*
G37*
G36*
X02755Y0087D02*
X0274D01*
Y00854*
X02743Y00855*
X0275Y00859*
X02754Y00866*
X02755Y0087*
G37*
G36*
X0273D02*
X02714D01*
X02715Y00866*
X02719Y00859*
X02726Y00855*
X0273Y00854*
Y0087*
G37*
G36*
X04795Y0085D02*
X0478D01*
Y00834*
X04783Y00835*
X0479Y00839*
X04794Y00846*
X04795Y0085*
G37*
G36*
X0472D02*
X04704D01*
X04705Y00846*
X04709Y00839*
X04716Y00835*
X0472Y00834*
Y0085*
G37*
G36*
X05148Y00847D02*
X05145Y00846D01*
X05138Y00841*
X05133Y00835*
X05133Y00831*
X05148*
Y00847*
G37*
G36*
X05424D02*
X0542Y00846D01*
X05414Y00841*
X05409Y00835*
X05408Y00831*
X05394*
X05393Y00835*
X05389Y00841*
X05382Y00846*
X05379Y00847*
Y00826*
Y00806*
X05382Y00807*
X05389Y00811*
X05393Y00818*
X05394Y00821*
X05408*
X05409Y00818*
X05414Y00811*
X0542Y00807*
X05424Y00806*
Y00826*
Y00847*
G37*
G36*
X05369D02*
X05365Y00846D01*
X05358Y00841*
X05354Y00835*
X05353Y00831*
X05339*
X05338Y00835*
X05334Y00841*
X05327Y00846*
X05323Y00847*
Y00826*
Y00806*
X05327Y00807*
X05334Y00811*
X05338Y00818*
X05339Y00821*
X05353*
X05354Y00818*
X05358Y00811*
X05365Y00807*
X05369Y00806*
Y00826*
Y00847*
G37*
G36*
X05313D02*
X0531Y00846D01*
X05303Y00841*
X05299Y00835*
X05298Y00831*
X05284*
X05283Y00835*
X05278Y00841*
X05272Y00846*
X05268Y00847*
Y00826*
Y00806*
X05272Y00807*
X05278Y00811*
X05283Y00818*
X05284Y00821*
X05298*
X05299Y00818*
X05303Y00811*
X0531Y00807*
X05313Y00806*
Y00826*
Y00847*
G37*
G36*
X05258D02*
X05255Y00846D01*
X05248Y00841*
X05244Y00835*
X05243Y00831*
X05229*
X05228Y00835*
X05223Y00841*
X05216Y00846*
X05213Y00847*
Y00826*
Y00806*
X05216Y00807*
X05223Y00811*
X05228Y00818*
X05229Y00821*
X05243*
X05244Y00818*
X05248Y00811*
X05255Y00807*
X05258Y00806*
Y00826*
Y00847*
G37*
G36*
X05203D02*
X052Y00846D01*
X05193Y00841*
X05188Y00835*
X05188Y00831*
X05174*
X05173Y00835*
X05168Y00841*
X05161Y00846*
X05158Y00847*
Y00826*
Y00806*
X05161Y00807*
X05168Y00811*
X05173Y00818*
X05174Y00821*
X05188*
X05188Y00818*
X05193Y00811*
X052Y00807*
X05203Y00806*
Y00826*
Y00847*
G37*
G36*
X0296Y00845D02*
Y0083D01*
X02975*
X02974Y00833*
X0297Y0084*
X02963Y00844*
X0296Y00845*
G37*
G36*
X0295D02*
X02946Y00844D01*
X02939Y0084*
X02935Y00833*
X02934Y0083*
X0295*
Y00845*
G37*
G36*
X03865Y00845D02*
X0385D01*
Y00829*
X03853Y0083*
X0386Y00834*
X03864Y00841*
X03865Y00845*
G37*
G36*
X0384D02*
X03824D01*
X03825Y00841*
X03829Y00834*
X03836Y0083*
X0384Y00829*
Y00845*
G37*
G36*
X05148Y00821D02*
X05133D01*
X05133Y00818*
X05138Y00811*
X05145Y00807*
X05148Y00806*
Y00821*
G37*
G36*
X0352Y0082D02*
Y00805D01*
X03535*
X03534Y00808*
X0353Y00815*
X03523Y00819*
X0352Y0082*
G37*
G36*
X0351D02*
X03506Y00819D01*
X03499Y00815*
X03495Y00808*
X03494Y00805*
X0351*
Y0082*
G37*
G36*
X02975Y0082D02*
X0296D01*
Y00804*
X02963Y00805*
X0297Y00809*
X02974Y00816*
X02975Y0082*
G37*
G36*
X0295D02*
X02934D01*
X02935Y00816*
X02939Y00809*
X02946Y00805*
X0295Y00804*
Y0082*
G37*
G36*
X03105Y00805D02*
Y0079D01*
X0312*
X03119Y00793*
X03115Y008*
X03108Y00804*
X03105Y00805*
G37*
G36*
X03095D02*
X03091Y00804D01*
X03084Y008*
X0308Y00793*
X03079Y0079*
X03095*
Y00805*
G37*
G36*
X05241Y00792D02*
Y00776D01*
X05256*
X05256Y00779*
X05251Y00786*
X05244Y00791*
X05241Y00792*
G37*
G36*
X05121D02*
X05117Y00791D01*
X0511Y00786*
X05106Y00779*
X05105Y00776*
X05121*
Y00792*
G37*
G36*
X05231D02*
X05228Y00791D01*
X05221Y00786*
X05216Y00779*
X05215Y00776*
X05201*
X052Y00779*
X05196Y00786*
X05189Y00791*
X05186Y00792*
Y00771*
Y00751*
X05189Y00751*
X05196Y00756*
X052Y00763*
X05201Y00766*
X05215*
X05216Y00763*
X05221Y00756*
X05228Y00751*
X05231Y00751*
Y00771*
Y00792*
G37*
G36*
X05176D02*
X05172Y00791D01*
X05166Y00786*
X05161Y00779*
X0516Y00776*
X05146*
X05145Y00779*
X05141Y00786*
X05134Y00791*
X05131Y00792*
Y00771*
Y00751*
X05134Y00751*
X05141Y00756*
X05145Y00763*
X05146Y00766*
X0516*
X05161Y00763*
X05166Y00756*
X05172Y00751*
X05176Y00751*
Y00771*
Y00792*
G37*
G36*
X0312Y0078D02*
X03105D01*
Y00764*
X03108Y00765*
X03115Y00769*
X03119Y00776*
X0312Y0078*
G37*
G36*
X03095D02*
X03079D01*
X0308Y00776*
X03084Y00769*
X03091Y00765*
X03095Y00764*
Y0078*
G37*
G36*
X04635Y00775D02*
Y0076D01*
X0465*
X04649Y00763*
X04645Y0077*
X04638Y00774*
X04635Y00775*
G37*
G36*
X04625D02*
X04621Y00774D01*
X04614Y0077*
X0461Y00763*
X04609Y0076*
X04625*
Y00775*
G37*
G36*
X05256Y00766D02*
X05241D01*
Y00751*
X05244Y00751*
X05251Y00756*
X05256Y00763*
X05256Y00766*
G37*
G36*
X05121D02*
X05105D01*
X05106Y00763*
X0511Y00756*
X05117Y00751*
X05121Y00751*
Y00766*
G37*
G36*
X04475Y00755D02*
Y0074D01*
X0449*
X04489Y00743*
X04485Y0075*
X04478Y00754*
X04475Y00755*
G37*
G36*
X04465D02*
X04461Y00754D01*
X04454Y0075*
X0445Y00743*
X04449Y0074*
X04465*
Y00755*
G37*
G36*
X0465Y0075D02*
X04635D01*
Y00734*
X04638Y00735*
X04645Y00739*
X04649Y00746*
X0465Y0075*
G37*
G36*
X04625D02*
X04609D01*
X0461Y00746*
X04614Y00739*
X04621Y00735*
X04625Y00734*
Y0075*
G37*
G36*
X04975Y0074D02*
Y00725D01*
X0499*
X04989Y00728*
X04985Y00735*
X04978Y00739*
X04975Y0074*
G37*
G36*
X04965D02*
X04961Y00739D01*
X04954Y00735*
X0495Y00728*
X04949Y00725*
X04965*
Y0074*
G37*
G36*
X0449Y0073D02*
X04475D01*
Y00714*
X04478Y00715*
X04485Y00719*
X04489Y00726*
X0449Y0073*
G37*
G36*
X04465D02*
X04449D01*
X0445Y00726*
X04454Y00719*
X04461Y00715*
X04465Y00714*
Y0073*
G37*
G36*
X0499Y00715D02*
X04975D01*
Y00699*
X04978Y007*
X04985Y00704*
X04989Y00711*
X0499Y00715*
G37*
G36*
X04965D02*
X04949D01*
X0495Y00711*
X04954Y00704*
X04961Y007*
X04965Y00699*
Y00715*
G37*
%LNmcu_pcb-3*%
%LPD*%
G54D14*
X0183Y00855D02*
Y00901D01*
X01848Y0092*
X01929*
X02395Y00754D02*
X03355Y0069D01*
X01929Y0092D02*
X01935Y00914D01*
Y0084D02*
Y00914D01*
Y0084D02*
X01945Y0083D01*
X02295Y008*
X02355*
X02395Y0076*
Y00754D02*
Y0076D01*
X03355Y0069D02*
X0452Y0061D01*
X04745Y006*
X0485Y0061*
X04945Y0063*
G54D15*
X01865Y01015D02*
Y01015D01*
X01855Y01025D02*
X01865Y01015D01*
X02379Y01283D02*
X02404Y01308D01*
X02353Y01055D02*
X02434Y01135D01*
X02352Y0107D02*
X02429Y01147D01*
X0235Y01085D02*
X02424Y01159D01*
X02348Y011D02*
X02419Y01171D01*
X02351Y0112D02*
X02414Y01183D01*
X02354Y0114D02*
X02409Y01195D01*
X02461Y01159D02*
X03553D01*
X02437Y01135D02*
X02461Y01159D01*
X02434Y01135D02*
X02437D01*
X02456Y01171D02*
X03548D01*
X02433Y01147D02*
X02456Y01171D01*
X02429Y01147D02*
X02433D01*
X02451Y01183D02*
X03543D01*
X02428Y01159D02*
X02451Y01183D01*
X02424Y01159D02*
X02428D01*
X02446Y01195D02*
X03538D01*
X02423Y01171D02*
X02446Y01195D01*
X02419Y01171D02*
X02423D01*
X02442Y01207D02*
X03533D01*
X02418Y01183D02*
X02442Y01207D01*
X02414Y01183D02*
X02418D01*
X02438Y0122D02*
X03529D01*
X02413Y01195D02*
X02438Y0122D01*
X02409Y01195D02*
X02413D01*
X02434Y01233D02*
X03184D01*
X02408Y01207D02*
X02434Y01233D01*
X02404Y01207D02*
X02408D01*
X0239Y01193D02*
X02404Y01207D01*
X02435Y01255D02*
X02441Y01261D01*
X02435Y01251D02*
Y01255D01*
X02403Y01219D02*
X02435Y01251D01*
X02399Y01219D02*
X02403D01*
X02385Y01205D02*
X02399Y01219D01*
X02423Y0126D02*
X02436Y01273D01*
X02423Y01256D02*
Y0126D01*
X02398Y01231D02*
X02423Y01256D01*
X02394Y01231D02*
X02398D01*
X0238Y01217D02*
X02394Y01231D01*
X02411Y01265D02*
X02431Y01285D01*
X02411Y01261D02*
Y01265D01*
X02393Y01243D02*
X02411Y01261D01*
X02389Y01243D02*
X02393D01*
X02375Y01229D02*
X02389Y01243D01*
X02399Y01271D02*
X02428Y013D01*
X02399Y01266D02*
Y01271D01*
X02388Y01255D02*
X02399Y01266D01*
X02383Y01255D02*
X02388D01*
X02369Y01241D02*
X02383Y01255D01*
X02379Y01275D02*
Y01283D01*
X01878Y01055D02*
X02353D01*
X01925Y0107D02*
X02352D01*
X0195Y01085D02*
X0235D01*
X0196Y011D02*
X02348D01*
X02075Y0112D02*
X02351D01*
X02028Y0114D02*
X02354D01*
X02191Y01193D02*
X0239D01*
X02174Y01205D02*
X02385D01*
X02147Y01217D02*
X0238D01*
X02169Y01229D02*
X02375D01*
X02211Y01241D02*
X02369D01*
X02441Y01261D02*
X03004D01*
X02404Y01308D02*
X02419D01*
X02187Y01264D02*
X02211Y01241D01*
X02425Y0077D02*
X03135Y00725D01*
X01987Y00872D02*
X02362D01*
X02425Y00809*
Y0077D02*
Y00809D01*
X0228Y01345D02*
X0323D01*
X0226Y01325D02*
X0228Y01345D01*
X0219Y01325D02*
X0226D01*
X0217Y01305D02*
X0219Y01325D01*
X0209Y01305D02*
X0217D01*
X0204Y01255D02*
X0209Y01305D01*
X0199Y01255D02*
X0204D01*
X0184Y01245D02*
Y0127D01*
X02185Y01287D02*
X02187Y01284D01*
X02185Y01255D02*
Y01287D01*
X02187Y01264D02*
Y01284D01*
X02163Y01235D02*
X02169Y01229D01*
X02144Y01235D02*
X02163D01*
X02139Y0124D02*
X02144Y01235D01*
X02135Y0124D02*
X02139D01*
X04773Y00741D02*
X04813D01*
X0312Y01285D02*
X03125Y0128D01*
X0215Y01215D02*
X02155D01*
X02147Y01217D02*
X0215Y01215D01*
X0372Y01297D02*
X03725D01*
X048Y0076D02*
X04841Y00801D01*
X02023Y01152D02*
X0215D01*
X02021Y0115D02*
X02023Y01152D01*
X0201Y0115D02*
X02021D01*
X01904Y01181D02*
X01967Y01118D01*
X01905Y012D02*
X01975Y0113D01*
X02018*
X01967Y01118D02*
X02068D01*
X0207Y0112*
X02018Y0113D02*
X02028Y0114D01*
X02005Y0118D02*
X02033D01*
X01985Y0116D02*
X02005Y0118D01*
X0198Y0116D02*
X01985D01*
X01871Y01181D02*
X01904D01*
X01905Y01155D02*
X0196Y011D01*
X01868Y01155D02*
X01905D01*
X01892Y01143D02*
X0195Y01085D01*
X01873Y01143D02*
X01892D01*
X01858Y012D02*
X01905D01*
X01865Y01175D02*
X01871Y01181D01*
X02134Y01165D02*
X02174Y01205D01*
X02048Y01165D02*
X02134D01*
X02033Y0118D02*
X02048Y01165D01*
X0215Y01152D02*
X02191Y01193D01*
X0184Y01245D02*
X0186Y01225D01*
X01858Y012D02*
D01*
X0184Y01181D02*
X01858Y012D01*
X01825Y01111D02*
X01868Y01155D01*
X01852Y01121D02*
X01873Y01143D01*
X0426Y01115D02*
X045D01*
X0188D02*
X01925Y0107D01*
X03892Y01093D02*
X03908Y01109D01*
X01859Y01073D02*
X01878Y01055D01*
X01855Y01073D02*
X01859D01*
X01852Y01103D02*
Y01121D01*
X01849Y01101D02*
X01852Y01103D01*
X01825Y01051D02*
Y01111D01*
X03275Y0111D02*
Y01116D01*
Y0111D02*
X03303Y01081D01*
X03222Y01127D02*
X03263D01*
X0322Y01125D02*
X03222Y01127D01*
X03263D02*
X03275Y01116D01*
X03258Y01096D02*
X03305Y0105D01*
X03258Y01096D02*
Y01104D01*
X03255Y01107D02*
X03258Y01104D01*
X04304Y01224D02*
X04312Y01216D01*
X04261Y01224D02*
X04304D01*
X04205Y0128D02*
X04261Y01224D01*
X043Y01212D02*
X04308Y01204D01*
X04238Y01212D02*
X043D01*
X04129Y0132D02*
X04238Y01212D01*
X04298Y01197D02*
X04303Y01192D01*
X04268Y01197D02*
X04298D01*
X04265Y012D02*
X04268Y01197D01*
X0422Y012D02*
X04265D01*
X04151Y01268D02*
X0422Y012D01*
X0433Y01236D02*
X04336D01*
X04609Y01037D02*
X04946D01*
X04585Y01061D02*
X04609Y01037D01*
X04585Y01061D02*
Y01078D01*
X04955Y0089D02*
Y01005D01*
X04935Y01025D02*
X04955Y01005D01*
X04603Y01025D02*
X04935D01*
X04967Y0091D02*
Y01016D01*
X04946Y01037D02*
X04967Y01016D01*
X04598Y0107D02*
X04619Y01049D01*
X04979Y00926D02*
Y01021D01*
X04951Y01049D02*
X04979Y01021D01*
X04619Y01049D02*
X04951D01*
X04635Y01068D02*
X04956D01*
X04628D02*
X04635D01*
X04628D02*
X04635Y01062D01*
X05005Y0093D02*
Y0102D01*
X04956Y01068D02*
X05005Y0102D01*
X04675Y0101D02*
X04915D01*
X04943Y00982*
X0414Y01049D02*
X04142Y01051D01*
X0491Y00998D02*
X0493Y00978D01*
X04683Y00998D02*
X0491D01*
X0452Y01096D02*
Y01113D01*
X04519Y01095D02*
X0452Y01096D01*
X04506Y01127D02*
X0452Y01113D01*
X04355Y01079D02*
X04358Y01076D01*
X04251Y01079D02*
X04355D01*
X04358Y01076D02*
X04373D01*
X04404D02*
X04405Y01075D01*
X04375Y01076D02*
X04404D01*
X04374Y01075D02*
X04375Y01076D01*
X04373D02*
X04374Y01075D01*
X04405D02*
X04442D01*
X04546Y0097D02*
X04573D01*
X04442Y01075D02*
X04546Y0097D01*
X04437Y01063D02*
X0458Y0092D01*
X044Y01063D02*
X04437D01*
X04397Y0105D02*
X04433D01*
X04379Y01063D02*
X0438Y01064D01*
X04369Y01063D02*
X04379D01*
X04368Y01064D02*
X04369Y01063D01*
X04343Y01064D02*
X04368D01*
X0434Y01067D02*
X04343Y01064D01*
X04142Y01051D02*
X04384D01*
X04385Y01052*
X0414Y01049D02*
D01*
X04135Y01055D02*
X0414Y01049D01*
X04346Y01039D02*
X04384D01*
X04455Y00968*
Y00961D02*
Y00968D01*
Y00961D02*
X04465Y00951D01*
Y0095D02*
Y00951D01*
X04395Y01052D02*
X04397Y0105D01*
X04385Y01052D02*
X04395D01*
X03794Y01083D02*
X03795Y01083D01*
X03658Y01083D02*
X03794D01*
X03657Y01081D02*
X03658Y01083D01*
X04146Y01038D02*
X04345D01*
X04143Y01035D02*
X04146Y01038D01*
X0389Y01023D02*
X04148D01*
X03885Y01011D02*
X04153D01*
X04148Y01023D02*
X04151Y01026D01*
X04153Y01011D02*
X04156Y01014D01*
X04355D02*
X04356Y01015D01*
X04156Y01014D02*
X04355D01*
X03881Y01015D02*
X03885Y01011D01*
X03879Y01015D02*
X03881D01*
X03811Y01083D02*
X03879Y01015D01*
X0435Y01026D02*
X04351Y01027D01*
X04151Y01026D02*
X0435D01*
X03886Y01027D02*
X0389Y01023D01*
X03884Y01027D02*
X03886D01*
X03816Y01095D02*
X03884Y01027D01*
X03895Y01035D02*
X04143D01*
X03822Y01107D02*
X03895Y01035D01*
X04345Y01038D02*
X04346Y01039D01*
X04143Y01075D02*
X04151Y01067D01*
X0424Y0109D02*
X04251Y01079D01*
X04151Y01067D02*
X0434D01*
X03872Y01075D02*
X04143D01*
X03827Y01119D02*
X03872Y01075D01*
X04575Y00908D02*
X04646D01*
X04433Y0105D02*
X04575Y00908D01*
X0458Y0092D02*
X04633D01*
X04605Y00976D02*
D01*
Y0096D02*
Y00976D01*
Y0096D02*
X04625Y0094D01*
X04511Y01139D02*
X04532Y01118D01*
Y01091D02*
Y01118D01*
X04531Y0109D02*
X04532Y01091D01*
X04531Y0103D02*
Y0109D01*
X04311Y01203D02*
X04338D01*
X0389Y0132D02*
X04129D01*
X03835Y01265D02*
X0389Y0132D01*
X03712Y01265D02*
X03835D01*
X03634Y01215D02*
X0386D01*
X03631Y01218D02*
X03634Y01215D01*
X0386D02*
X03869Y01206D01*
X03539Y0123D02*
X03636D01*
X03638Y01228*
X0366Y01255D02*
X03673Y01241D01*
X0361Y01155D02*
X03646Y01119D01*
X03566Y01155D02*
X0361D01*
X03558Y01147D02*
X03566Y01155D01*
X03585Y01135D02*
X03595D01*
X03623Y01107*
X03529Y0122D02*
X03539Y0123D01*
X03128Y0126D02*
X03133Y01265D01*
X03111Y0126D02*
X03128D01*
X03106Y01265D02*
X03111Y0126D01*
X02596Y01147D02*
X03558D01*
X02583Y01134D02*
X02596Y01147D01*
X0184Y01171D02*
Y01181D01*
X01837Y01168D02*
X0184Y01171D01*
X04225Y0094D02*
X0426Y00905D01*
X04649Y01138D02*
X04658Y01147D01*
X04678*
X0468Y01145D02*
X04692D01*
X04678Y01147D02*
X0468Y01145D01*
X01825Y01051D02*
X01851Y01025D01*
X01855*
X02431Y01285D02*
X03097D01*
X02436Y01273D02*
X03009D01*
X03553Y01159D02*
X03564Y0117D01*
X03548Y01171D02*
X03559Y01182D01*
X03533Y01207D02*
X03544Y01218D01*
X03184Y01233D02*
X03196Y01245D01*
X03538Y01195D02*
X03549Y01206D01*
X03543Y01183D02*
X03554Y01194D01*
X034Y0112D02*
X03425Y01095D01*
X03295Y0112D02*
X034D01*
X0322Y01113D02*
Y01125D01*
X03179Y01245D02*
X03196Y01262D01*
X0302Y01245D02*
X03179D01*
X03004Y01261D02*
X0302Y01245D01*
X03017Y01265D02*
X0308D01*
X03009Y01273D02*
X03017Y01265D01*
X03133D02*
X03182D01*
X0309D02*
X03106D01*
X03182D02*
X03192Y01274D01*
X03196Y01245D02*
X03405D01*
X03544Y01218D02*
X03631D01*
X03626Y01206D02*
X03664Y01168D01*
X03549Y01206D02*
X03626D01*
X03621Y01194D02*
X03659Y01156D01*
X03554Y01194D02*
X03621D01*
X03616Y01182D02*
X03654Y01144D01*
X03559Y01182D02*
X03616D01*
X03612Y0117D02*
X03651Y01131D01*
X03564Y0117D02*
X03612D01*
X03988Y01109D02*
X03989Y0111D01*
X03908Y01109D02*
X03988D01*
X03889Y01121D02*
X03983D01*
X03883Y01115D02*
X03889Y01121D01*
X03866Y01115D02*
X03883D01*
X03859Y01122D02*
X03866Y01115D01*
X03858Y01122D02*
X03859D01*
X03984D02*
X04253D01*
X03983Y01121D02*
X03984Y01122D01*
X03837Y01143D02*
X03858Y01122D01*
X03989Y0111D02*
X04248D01*
X03881Y01103D02*
X03888Y01095D01*
X03861Y01103D02*
X03881D01*
X03832Y01131D02*
X03861Y01103D01*
X03775Y01131D02*
X03832D01*
X03888Y01095D02*
X03892D01*
Y01093D02*
Y01095D01*
X03978Y01133D02*
X03979Y01134D01*
X03887Y01133D02*
X03978D01*
X03887Y01134D02*
X03887Y01133D01*
X03876Y01134D02*
X03887D01*
X03875Y01135D02*
X03876Y01134D01*
X03974Y01146D02*
X04263D01*
X03973Y01145D02*
X03974Y01146D01*
X03892Y01145D02*
X03973D01*
X03881Y01157D02*
X03892Y01145D01*
X04037Y01158D02*
X04268D01*
X03995Y012D02*
X04037Y01158D01*
X04067Y0117D02*
X04273D01*
X0401Y01227D02*
X04067Y0117D01*
X04015Y01239D02*
X04019Y01235D01*
X04003Y01239D02*
X04015D01*
X04Y01241D02*
X04003Y01239D01*
X04035Y01235D02*
X04085Y01185D01*
X04019Y01235D02*
X04035D01*
X03673Y01241D02*
X04D01*
X0339Y01262D02*
X03401Y01273D01*
X03196Y01262D02*
X0339D01*
X03385Y01274D02*
X03396Y01285D01*
X03192Y01274D02*
X03385D01*
X03405Y01245D02*
X03415Y01255D01*
X0366*
X03948Y01227D02*
X0401D01*
X03946Y01228D02*
X03948Y01227D01*
X03638Y01228D02*
X03946D01*
X03869Y01206D02*
X03903Y01171D01*
X03948Y01173D02*
X03955D01*
X03946Y01171D02*
X03948Y01173D01*
X03903Y01171D02*
X03946D01*
X03976Y012D02*
X03995D01*
X03869Y01206D02*
D01*
X03955Y01173D02*
Y01178D01*
X03976Y012*
X03859Y01168D02*
X0387Y01157D01*
X03881*
X03659Y01156D02*
X03854D01*
X03869Y0114*
X03785Y01107D02*
X03822D01*
X0378Y01119D02*
X03827D01*
X0379Y01095D02*
X03816D01*
X03795Y01083D02*
X03811D01*
X03654Y01144D02*
X03835D01*
X03835Y01143*
X03837*
X03923Y01308D02*
X04083D01*
X03868Y01253D02*
X03923Y01308D01*
X03857Y01332D02*
X04213D01*
X03333Y01344D02*
X04218D01*
X04297Y01265*
X04083Y01308D02*
X04123Y01268D01*
X04213Y01332D02*
X04292Y01253D01*
X03805Y0128D02*
X03857Y01332D01*
X03707Y01253D02*
X03868D01*
X033Y01312D02*
X03333Y01344D01*
X04085Y01185D02*
X04293D01*
X03664Y01168D02*
X03859D01*
X03687Y01273D02*
X03707Y01253D01*
X03401Y01273D02*
X03687D01*
X03692Y01285D02*
X03712Y01265D01*
X03396Y01285D02*
X03692D01*
X03697Y01297D02*
X03717Y01277D01*
X03392Y01297D02*
X03697D01*
X03389Y01294D02*
X03392Y01297D01*
X03373Y01294D02*
X03389D01*
X03365Y01286D02*
X03373Y01294D01*
X03733Y01277D02*
X03736Y0128D01*
X03805*
X03717Y01277D02*
X03733D01*
X03725Y01297D02*
X03725D01*
X03708Y01309D02*
X03719Y01297D01*
X03371Y01309D02*
X03708D01*
X031Y01283D02*
X03118D01*
X03097Y01285D02*
X031Y01283D01*
X02428Y013D02*
X03128D01*
X02423Y01312D02*
X03244D01*
X03265D02*
X033D01*
X03263Y0131D02*
X03265Y01312D01*
X03246Y0131D02*
X03263D01*
X03244Y01312D02*
X03246Y0131D01*
X03118Y01283D02*
X0312Y01285D01*
X03187Y01286D02*
X03365D01*
X03181Y0128D02*
X03187Y01286D01*
X03125Y0128D02*
X03181D01*
X03128Y013D02*
X0313Y01298D01*
X0336*
X03371Y01309*
X02419Y01308D02*
X02423Y01312D01*
X04293Y01185D02*
X04299Y01179D01*
X04486*
X04496Y01189*
X04518Y01153D02*
X04544D01*
X04516Y01151D02*
X04518Y01153D01*
X0455Y01159D02*
X0461D01*
X04544Y01153D02*
X0455Y01159D01*
X04631Y01177D02*
X0465D01*
X0463Y01176D02*
X04631Y01177D01*
X0462Y01176D02*
X0463D01*
X04615Y01171D02*
X0462Y01176D01*
X04546Y01171D02*
X04615D01*
X0454Y01165D02*
X04546Y01171D01*
X04278Y01165D02*
X0454D01*
X04273Y0117D02*
X04278Y01165D01*
X04679Y01176D02*
X04755Y011D01*
X04651Y01176D02*
X04679D01*
X0465Y01177D02*
X04651Y01176D01*
X04265Y01127D02*
X04506D01*
X04631Y01138D02*
X04649D01*
X0461Y01159D02*
X04631Y01138D01*
X04275Y01151D02*
X04516D01*
X04268Y01158D02*
X04275Y01151D01*
X0427Y01139D02*
X04511D01*
X04263Y01146D02*
X0427Y01139D01*
X04258Y01134D02*
X04265Y01127D01*
X03979Y01134D02*
X04258D01*
X04364Y01213D02*
X04391Y0124D01*
X04363Y01213D02*
X04364D01*
X04339Y01216D02*
X04375Y01252D01*
X04326Y01236D02*
X0433D01*
X04325Y01235D02*
X04326Y01236D01*
X04308Y01204D02*
X0431D01*
X04338Y01203D02*
X04339Y01204D01*
X0435*
X04361Y01215*
X04363Y01213*
X04315Y01216D02*
X04316Y01215D01*
X04333*
X04334Y01216*
X04339*
X04312D02*
X04315D01*
X0431Y01204D02*
X04311Y01203D01*
X04303Y01192D02*
X04305D01*
X04336Y01236D02*
X04364Y01264D01*
X0435Y01267D02*
X04359Y01276D01*
X04316Y01267D02*
X0435D01*
X04375Y01252D02*
X04685D01*
X04306Y01253D02*
X04325Y01235D01*
X04755Y011D02*
X0481D01*
X04754Y01118D02*
X04799D01*
X04496Y01189D02*
X04497Y01188D01*
X04625*
X04626Y01189*
X04655*
X0472Y012D02*
X04788Y01132D01*
X04655Y01189D02*
X04656Y01188D01*
X04684*
X04754Y01118*
X04661Y012D02*
X0472D01*
X04488Y01201D02*
X0466D01*
X04478Y01191D02*
X04488Y01201D01*
X04306Y01191D02*
X04478D01*
X04693Y0122D02*
X04699Y01214D01*
X0467Y0122D02*
X04693D01*
X0466Y01201D02*
X04661Y012D01*
X04695Y01276D02*
X04699Y01272D01*
X0469Y01264D02*
X04694Y0126D01*
X04685Y01252D02*
X04689Y01248D01*
X0468Y0124D02*
X04684Y01236D01*
X04391Y0124D02*
X0468D01*
X04364Y01264D02*
X0469D01*
X04359Y01276D02*
X04695D01*
X04684Y01236D02*
X04703D01*
X04689Y01248D02*
X04708D01*
X04694Y0126D02*
X04713D01*
X04699Y01272D02*
X04718D01*
X04703Y01236D02*
X04712Y01227D01*
X04708Y01248D02*
X04717Y01239D01*
X04722Y01251D02*
X05062D01*
X04713Y0126D02*
X04722Y01251D01*
X04727Y01263D02*
X05067D01*
X04718Y01272D02*
X04727Y01263D01*
X04315Y01265D02*
X04316Y01267D01*
X04297Y01265D02*
X04315D01*
X04692Y01107D02*
Y01145D01*
X04675Y0109D02*
X04692Y01107D01*
X04788Y01132D02*
X04843D01*
X04253Y01122D02*
X0426Y01115D01*
X0426Y01095D02*
X04439D01*
X04399Y01064D02*
X044Y01063D01*
X0438Y01064D02*
X04399D01*
X0426Y01095D02*
Y01098D01*
X04248Y0111D02*
X0426Y01098D01*
X04389Y01017D02*
X04435Y00971D01*
X04388Y01017D02*
X04389D01*
X04378Y01027D02*
X04388Y01017D01*
X04351Y01027D02*
X04378D01*
X04383Y01005D02*
X04384D01*
X04373Y01015D02*
X04383Y01005D01*
X04356Y01015D02*
X04373D01*
X04384Y01005D02*
X0441Y00979D01*
X03985Y00935D02*
X04025Y00975D01*
X0358Y00935D02*
X03985D01*
X04025Y00975D02*
X04075D01*
X03774Y01131D02*
X03775Y01131D01*
X03651Y01131D02*
X03774D01*
X03789Y01095D02*
X0379Y01095D01*
X03425Y01095D02*
X03789D01*
X03303Y01081D02*
X03657D01*
X03779Y01119D02*
X0378Y01119D01*
X03646Y01119D02*
X03779D01*
X03784Y01107D02*
X03785Y01107D01*
X03623Y01107D02*
X03784D01*
X04305Y01192D02*
X04306Y01191D01*
X04435Y0096D02*
Y00971D01*
X0441Y0097D02*
Y00979D01*
X04799Y01118D02*
X04801Y0112D01*
X04825*
X0484Y01105*
X04843Y01132D02*
X0487Y01105D01*
X04123Y01268D02*
X04151D01*
X04205Y00945D02*
X04242Y00982D01*
X04205Y00925D02*
Y00945D01*
Y00925D02*
X04275Y00855D01*
X0299Y01075D02*
X0303D01*
X03722Y013D02*
X03725Y01297D01*
X0372D02*
X03722Y013D01*
X03725Y01297D02*
X03731Y01303D01*
X03245Y0133D02*
X03255D01*
X0323Y01345D02*
X03245Y0133D01*
X04308Y00863D02*
Y00867D01*
X0427Y00905D02*
X04308Y00867D01*
X0426Y00905D02*
X0427D01*
X04308Y00867D02*
X0431Y00869D01*
X047Y00635D02*
X0483D01*
X04813Y00741D02*
X04824Y00752D01*
X04646Y00908D02*
X04659Y00921D01*
X04647Y00934D02*
Y00982D01*
X04633Y0092D02*
X04647Y00934D01*
X04659Y00921D02*
Y00974D01*
X04242Y00982D02*
Y00983D01*
X04405Y0096D02*
Y00965D01*
X0441Y0097*
X0458Y01011D02*
X04605Y00986D01*
Y00976D02*
Y00986D01*
X04593Y00949D02*
Y00971D01*
X0459Y00946D02*
X04593Y00949D01*
X04575Y00999D02*
X04593Y00981D01*
Y00971D02*
Y00981D01*
Y00971D02*
D01*
X04647Y00982D02*
X04675Y0101D01*
X04659Y00974D02*
X04683Y00998D01*
X04546Y00999D02*
X04575D01*
X04519Y01026D02*
X04546Y00999D01*
X0455Y01011D02*
X0458D01*
X04531Y0103D02*
X0455Y01011D01*
X04565Y01045D02*
X04567D01*
X04598Y0107D02*
X04605D01*
X05067Y01263D02*
X05118Y01212D01*
X05036Y00771D02*
X05118Y00852D01*
X05062Y01251D02*
X05106Y01208D01*
X05031Y00783D02*
X05106Y00857D01*
X05058Y01239D02*
X05094Y01203D01*
X05075Y00855D02*
X05094Y00874D01*
X05053Y01227D02*
X05082Y01198D01*
X0505Y00862D02*
X05082Y00894D01*
X05019Y01214D02*
X0507Y01163D01*
Y00925D02*
Y01163D01*
X05005Y0086D02*
X0507Y00925D01*
X05082Y00894D02*
Y01198D01*
X05094Y00874D02*
Y01203D01*
X05106Y00857D02*
Y01208D01*
X05118Y00852D02*
Y01212D01*
X04866Y00771D02*
X05036D01*
X04966Y00783D02*
X05031D01*
X0505Y0085D02*
Y00862D01*
X04995Y00795D02*
X0505Y0085D01*
X0485Y00755D02*
X04866Y00771D01*
X04971Y00795D02*
X04995D01*
X04943Y00874D02*
X0498Y00837D01*
X04974Y0087D02*
X04975D01*
X04955Y0089D02*
X04974Y0087D01*
X0496Y00789D02*
X04966Y00783D01*
X04846Y00789D02*
X0496D01*
X04965Y00801D02*
X04971Y00795D01*
X04841Y00801D02*
X04965D01*
X0498Y00815D02*
Y00837D01*
X04798Y00762D02*
Y00762D01*
Y00762D02*
X048Y0076D01*
X04748Y00758D02*
X04757Y00767D01*
X04746Y00758D02*
X04748D01*
X04824Y00752D02*
Y00767D01*
X04924Y00665D02*
X05034D01*
X04909Y0065D02*
X04924Y00665D01*
X04929Y00653D02*
X05002D01*
X04914Y00638D02*
X04929Y00653D01*
X05002D02*
X0501Y00645D01*
X04572Y0105D02*
X04585Y01037D01*
X04519Y01026D02*
Y01095D01*
X04567Y01045D02*
X04572Y0105D01*
X04586Y01079D02*
Y01109D01*
X04585Y01078D02*
X04586Y01079D01*
X0457Y01125D02*
X04586Y01109D01*
X04635Y01068D02*
Y01075D01*
X04585Y01037D02*
X04591D01*
X04603Y01025*
X04824Y00767D02*
X04846Y00789D01*
X04773Y00741D02*
X04775Y00742D01*
X04774Y00743D02*
X04775Y00742D01*
X04774Y00743D02*
Y00747D01*
X04699Y01214D02*
X05019D01*
X04635Y01062D02*
Y01068D01*
X04839Y00636D02*
X04845Y00642D01*
X04839Y00636D02*
D01*
X0483Y00635D02*
X04839Y00636D01*
X0483Y00635D02*
D01*
X04901Y00649D02*
D01*
X04867Y00642D02*
X04901Y00649D01*
X04845Y00642D02*
X04867D01*
X04712Y01227D02*
X05053D01*
X04717Y01239D02*
X05058D01*
X04292Y01253D02*
X04306D01*
X03545Y0075D02*
X03587Y00707D01*
X047Y00635*
X04802Y0062D02*
D01*
X04745D02*
X04802D01*
X03135Y00725D02*
X04745Y0062D01*
X04909Y0065D02*
D01*
X04901Y00649D02*
X04909Y0065D01*
X04844Y00624D02*
X0485Y0063D01*
X04802Y0062D02*
X04844Y00624D01*
X0485Y0063D02*
X04872D01*
X04914Y00638*
X04757Y00767D02*
X04767D01*
X04825Y00825*
X03515Y0075D02*
X03545D01*
X04225Y00935D02*
Y0094D01*
X0493Y00875D02*
Y00978D01*
X0488Y00825D02*
X0493Y00875D01*
X04825Y00825D02*
X0488D01*
X05034Y00665D02*
X05044Y00655D01*
X05045*
X04943Y00874D02*
Y00982D01*
X04975Y009D02*
Y00902D01*
X04967Y0091D02*
X04975Y00902D01*
X04979Y00926D02*
X05005Y009D01*
G54D88*
X02082Y01215D03*
G54D89*
X04738Y01287D02*
X0474Y01285D01*
X04705Y01287D02*
X04738D01*
X04325Y01282D02*
X04344D01*
X04322Y01285D02*
X04325Y01282D01*
X04308Y01285D02*
X04322D01*
X04306Y01287D02*
X04308Y01285D01*
X04344Y01282D02*
X04353Y01291D01*
X04701D02*
X04705Y01287D01*
X04353Y01291D02*
X04701D01*
X0378Y0079D02*
X03855Y00715D01*
X04737Y0065D02*
X04785D01*
X0479Y00655*
X05037Y00947D02*
Y01102D01*
X0504Y01105*
X0464Y00655D02*
X04706Y00651D01*
X03865Y00708D02*
X0464Y00655D01*
X0464Y00657D02*
X0464Y00656D01*
X0464Y00657D02*
Y00695D01*
X04637Y00697D02*
X0464Y00695D01*
X04737Y0065D02*
X04737Y0065D01*
X0479Y00655D02*
X04835Y00665D01*
X0488Y0067*
X04706Y00651D02*
X04737Y0065D01*
X03855Y00715D02*
X03865Y00708D01*
X03648Y01061D02*
X0365Y0106D01*
G54D90*
X04544Y01133D02*
X04556Y01146D01*
X04544Y01124D02*
Y01133D01*
Y01124D02*
X04545Y01123D01*
Y01086D02*
Y01123D01*
X04544Y01085D02*
X04545Y01086D01*
X04544Y01036D02*
Y01085D01*
X04625Y00985D02*
Y00987D01*
X0467Y01127D02*
Y0113D01*
X03898Y01158D02*
X03963D01*
X03985Y0118*
X03863Y01193D02*
X03898Y01158D01*
X03842Y01193D02*
X03863D01*
X0384Y01195D02*
X03842Y01193D01*
X04654Y01125D02*
X04662Y01132D01*
X04604Y01146D02*
X04625Y01125D01*
X04556Y01146D02*
X04604D01*
X04625Y01125D02*
X04654D01*
X04667Y01132D02*
X0467Y0113D01*
X04662Y01132D02*
X04667D01*
X04544Y01036D02*
X04556Y01024D01*
X04585*
X04597Y01012*
X046*
X04625Y00987*
G54D91*
X02227Y01281D03*
G54D92*
X02327Y01281D03*
G54D93*
X03935Y0128D03*
Y012D03*
X04135Y0124D03*
G54D94*
X03372Y00989D03*
Y00918D03*
X03443D03*
Y00989D03*
G54D95*
X01987Y00872D03*
X01887D03*
G54D96*
X01865Y01015D03*
X02379Y01275D03*
X0183Y00855D03*
X01848Y0127D03*
X0199Y01255D03*
X02185D03*
X02155Y01215D03*
X02135Y0124D03*
X0201Y0115D03*
X0198Y0116D03*
X0186Y01225D03*
X01865Y01175D03*
X0207Y0112D03*
X0188Y01115D03*
X05594Y00937D03*
X05566Y00881D03*
X05511D03*
X05456D03*
X05484Y00826D03*
X05401Y00992D03*
Y00881D03*
X05429Y00826D03*
X05346Y01322D03*
Y01212D03*
X05374Y01157D03*
X05346Y01102D03*
X05374Y01047D03*
Y00826D03*
X05291Y01322D03*
X05318Y01267D03*
X05291Y01212D03*
X05318Y01157D03*
X05291Y01102D03*
X05318Y01047D03*
Y00826D03*
X05263Y01047D03*
X05236Y00881D03*
X05263Y00826D03*
X05236Y00771D03*
X05208Y01047D03*
X05181Y00881D03*
X05208Y00826D03*
X05181Y00771D03*
X05153Y01047D03*
Y00826D03*
X05126Y00771D03*
X04135Y01055D03*
X03585Y01135D03*
X0467Y01127D03*
X01802Y01114D03*
X01837Y01168D03*
X01849Y01101D03*
X01855Y01073D03*
X0245Y01118D03*
X0299Y0112D03*
X03295D03*
X03305Y0105D03*
X03255Y01107D03*
X0322Y01113D03*
X02583Y01134D03*
X03892Y01095D03*
X03985Y0118D03*
X03875Y01135D03*
X03865Y01D03*
X0384Y01195D03*
X0309Y01265D03*
X045Y01105D03*
X04364Y01213D03*
X0433Y01236D03*
X0467Y0122D03*
X0457Y01125D03*
X04445Y01095D03*
X0424Y0109D03*
X04365Y00995D03*
X04075Y00975D03*
X0272Y0109D03*
X03803Y01063D03*
X0484Y01105D03*
X0481Y011D03*
X01875Y0098D03*
X0186Y01045D03*
X05075Y00855D03*
X04205Y0128D03*
X0358Y00935D03*
X031Y00785D03*
X02955Y00825D03*
X02985Y01075D03*
X0303D03*
X03725Y01297D03*
X03255Y0133D03*
X0312Y0128D03*
X03195Y0109D03*
X03066Y00953D03*
X02735Y00975D03*
Y00875D03*
X04275Y00855D03*
X04308Y00863D03*
X0427Y00905D03*
X03845Y0085D03*
X04725Y00675D03*
X04875Y01285D03*
X04625Y0094D03*
Y00985D03*
X04242Y00983D03*
X04405Y0096D03*
X04495D03*
X04573Y0097D03*
X04565Y01045D03*
X04605Y0107D03*
X0459Y00946D03*
X04335Y01305D03*
X04715Y0131D03*
X04975Y0087D03*
X0498Y00815D03*
X04798Y00762D03*
X04746Y00758D03*
X0485Y00755D03*
X04635Y01075D03*
X04675Y0109D03*
X05005Y0086D03*
X04774Y00747D03*
X0497Y0072D03*
X0463Y00755D03*
X0447Y00735D03*
X03648Y01061D03*
X03515Y008D03*
X0287Y01095D03*
X02655Y01015D03*
X02455Y0098D03*
X04885Y00885D03*
Y0096D03*
X04772Y00941D03*
X04722D03*
X04775Y00855D03*
X04725D03*
X0482Y00885D03*
Y0096D03*
X03515Y0075D03*
X04225Y00935D03*
X05045Y00655D03*
X04435Y0096D03*
X04465Y0095D03*
X0501Y00645D03*
X04945Y0063D03*
X04975Y009D03*
X05005D03*
Y0093D03*
X0487Y01105D03*
G54D97*
X03813Y01D03*
X0378Y0079D03*
X05037Y00947D03*
X0504Y01105D03*
X0474Y01285D03*
X04306Y01287D03*
X04637Y00697D03*
X0488Y0067D03*
M02*