%FSTAX23Y23*%
%MOIN*%
%SFA1B1*%

%IPPOS*%
%ADD10C,0.003900*%
%ADD11C,0.009800*%
%ADD12C,0.007900*%
%ADD13C,0.011800*%
%ADD14C,0.010000*%
%ADD15C,0.006000*%
%LNmcu_pcb-1*%
%LPD*%
G54D10*
X0298Y00859D02*
D01*
X0298Y00859*
X0298Y00859*
X0298Y00859*
X0298Y00859*
X0298Y00859*
X02981Y00859*
X02981Y00859*
X02981Y00859*
X02981Y00859*
X02981Y00859*
X02981Y00859*
X02981Y0086*
X02981Y0086*
X02981Y0086*
X02982Y0086*
X02982Y0086*
X02982Y0086*
X02982Y0086*
X02982Y0086*
X02982Y00861*
X02982Y00861*
X02982Y00861*
Y00861*
X02982Y00861*
X02982Y00861*
X02982Y00861*
X02982Y00862*
X02982Y00862*
X02982Y00862*
X02982Y00862*
X02981Y00862*
X02981Y00862*
X02981Y00862*
X02981Y00862*
X02981Y00862*
X02981Y00863*
X02981Y00863*
X02981Y00863*
X02981Y00863*
X0298Y00863*
X0298Y00863*
X0298Y00863*
X0298Y00863*
X0298Y00863*
X0298Y00863*
D01*
X0298Y00863*
X0298Y00863*
X02979Y00863*
X02979Y00863*
X02979Y00863*
X02979Y00863*
X02979Y00863*
X02979Y00863*
X02979Y00863*
X02979Y00862*
X02978Y00862*
X02978Y00862*
X02978Y00862*
X02978Y00862*
X02978Y00862*
X02978Y00862*
X02978Y00862*
X02978Y00862*
X02978Y00861*
X02978Y00861*
X02978Y00861*
X02978Y00861*
Y00861*
X02978Y00861*
X02978Y00861*
X02978Y0086*
X02978Y0086*
X02978Y0086*
X02978Y0086*
X02978Y0086*
X02978Y0086*
X02978Y0086*
X02978Y0086*
X02978Y00859*
X02979Y00859*
X02979Y00859*
X02979Y00859*
X02979Y00859*
X02979Y00859*
X02979Y00859*
X02979Y00859*
X02979Y00859*
X0298Y00859*
X0298Y00859*
X0298Y00859*
X05013Y01132D02*
D01*
X05013Y01132*
X05013Y01132*
X05013Y01131*
X05013Y01131*
X05013Y01131*
X05013Y01131*
X05013Y01131*
X05013Y01131*
X05013Y01131*
X05013Y01131*
X05013Y01131*
X05013Y0113*
X05014Y0113*
X05014Y0113*
X05014Y0113*
X05014Y0113*
X05014Y0113*
X05014Y0113*
X05014Y0113*
X05014Y0113*
X05015Y0113*
X05015Y0113*
X05015*
X05015Y0113*
X05015Y0113*
X05015Y0113*
X05015Y0113*
X05016Y0113*
X05016Y0113*
X05016Y0113*
X05016Y0113*
X05016Y0113*
X05016Y0113*
X05016Y01131*
X05016Y01131*
X05016Y01131*
X05016Y01131*
X05017Y01131*
X05017Y01131*
X05017Y01131*
X05017Y01131*
X05017Y01131*
X05017Y01132*
X05017Y01132*
X05017Y01132*
D01*
X05017Y01132*
X05017Y01132*
X05017Y01132*
X05017Y01132*
X05017Y01133*
X05017Y01133*
X05016Y01133*
X05016Y01133*
X05016Y01133*
X05016Y01133*
X05016Y01133*
X05016Y01133*
X05016Y01133*
X05016Y01134*
X05016Y01134*
X05016Y01134*
X05015Y01134*
X05015Y01134*
X05015Y01134*
X05015Y01134*
X05015Y01134*
X05015Y01134*
X05015*
X05014Y01134*
X05014Y01134*
X05014Y01134*
X05014Y01134*
X05014Y01134*
X05014Y01134*
X05014Y01134*
X05014Y01134*
X05013Y01133*
X05013Y01133*
X05013Y01133*
X05013Y01133*
X05013Y01133*
X05013Y01133*
X05013Y01133*
X05013Y01133*
X05013Y01133*
X05013Y01132*
X05013Y01132*
X05013Y01132*
X05013Y01132*
X05013Y01132*
X04086Y01373D02*
D01*
X04086Y01374*
X04086Y01374*
X04086Y01374*
X04086Y01374*
X04086Y01374*
X04086Y01374*
X04085Y01374*
X04085Y01374*
X04085Y01375*
X04085Y01375*
X04085Y01375*
X04085Y01375*
X04085Y01375*
X04085Y01375*
X04085Y01375*
X04085Y01375*
X04084Y01375*
X04084Y01375*
X04084Y01375*
X04084Y01375*
X04084Y01375*
X04084Y01375*
X04084*
X04083Y01375*
X04083Y01375*
X04083Y01375*
X04083Y01375*
X04083Y01375*
X04083Y01375*
X04083Y01375*
X04083Y01375*
X04082Y01375*
X04082Y01375*
X04082Y01375*
X04082Y01375*
X04082Y01375*
X04082Y01374*
X04082Y01374*
X04082Y01374*
X04082Y01374*
X04082Y01374*
X04082Y01374*
X04082Y01374*
X04082Y01374*
X04082Y01373*
D01*
X04082Y01373*
X04082Y01373*
X04082Y01373*
X04082Y01373*
X04082Y01373*
X04082Y01373*
X04082Y01372*
X04082Y01372*
X04082Y01372*
X04082Y01372*
X04082Y01372*
X04082Y01372*
X04082Y01372*
X04083Y01372*
X04083Y01372*
X04083Y01372*
X04083Y01372*
X04083Y01371*
X04083Y01371*
X04083Y01371*
X04083Y01371*
X04084Y01371*
X04084*
X04084Y01371*
X04084Y01371*
X04084Y01371*
X04084Y01371*
X04084Y01372*
X04085Y01372*
X04085Y01372*
X04085Y01372*
X04085Y01372*
X04085Y01372*
X04085Y01372*
X04085Y01372*
X04085Y01372*
X04085Y01372*
X04085Y01372*
X04086Y01373*
X04086Y01373*
X04086Y01373*
X04086Y01373*
X04086Y01373*
X04086Y01373*
X04086Y01373*
X02992Y00847D02*
X03023D01*
X02992Y01052D02*
X03023D01*
X0311D02*
X03141D01*
X0311Y00847D02*
X03141D01*
X02865Y00909D02*
Y0094D01*
X02924Y00909D02*
Y0094D01*
X0423Y0112D02*
Y0136D01*
X0384D02*
X0423D01*
X0384Y0112D02*
Y0136D01*
Y0112D02*
X0423D01*
X04032Y00591D02*
X04034Y00616D01*
X03733Y0061D02*
X04032Y00591D01*
X03733Y0061D02*
X03735Y00636D01*
X03975Y00804D02*
X04046Y00799D01*
X04043Y00754D02*
X04046Y00799D01*
X03747Y00818D02*
X03818Y00814D01*
X03744Y00773D02*
X03747Y00818D01*
X0184Y01279D02*
X01928Y0129D01*
X01932Y01257*
X01885Y00939D02*
X01973Y00951D01*
X01969Y00984D02*
X01973Y00951D01*
X05265Y00945D02*
Y00995D01*
X05185D02*
X05263D01*
X05185Y00945D02*
X05263D01*
X05185D02*
Y00994D01*
G54D11*
X04672Y00777D02*
D01*
X04672Y00777*
X04672Y00778*
X04671Y00778*
X04671Y00778*
X04671Y00779*
X04671Y00779*
X04671Y00779*
X04671Y00779*
X04671Y0078*
X0467Y0078*
X0467Y0078*
X0467Y00781*
X0467Y00781*
X04669Y00781*
X04669Y00781*
X04669Y00781*
X04669Y00781*
X04668Y00782*
X04668Y00782*
X04668Y00782*
X04667Y00782*
X04667Y00782*
X04667*
X04666Y00782*
X04666Y00782*
X04666Y00782*
X04665Y00782*
X04665Y00781*
X04665Y00781*
X04664Y00781*
X04664Y00781*
X04664Y00781*
X04663Y00781*
X04663Y0078*
X04663Y0078*
X04663Y0078*
X04663Y00779*
X04662Y00779*
X04662Y00779*
X04662Y00779*
X04662Y00778*
X04662Y00778*
X04662Y00778*
X04662Y00777*
X04662Y00777*
X04662Y00777*
X04662Y00776*
X04662Y00776*
X04662Y00776*
X04662Y00775*
X04662Y00775*
X04662Y00775*
X04663Y00774*
X04663Y00774*
X04663Y00774*
X04663Y00773*
X04663Y00773*
X04664Y00773*
X04664Y00773*
X04664Y00773*
X04665Y00772*
X04665Y00772*
X04665Y00772*
X04666Y00772*
X04666Y00772*
X04666Y00772*
X04667Y00772*
X04667*
X04667Y00772*
X04668Y00772*
X04668Y00772*
X04668Y00772*
X04669Y00772*
X04669Y00772*
X04669Y00773*
X04669Y00773*
X0467Y00773*
X0467Y00773*
X0467Y00773*
X0467Y00774*
X04671Y00774*
X04671Y00774*
X04671Y00775*
X04671Y00775*
X04671Y00775*
X04671Y00776*
X04671Y00776*
X04672Y00776*
X04672Y00777*
X04672Y00777*
X05178Y01006D02*
D01*
X05178Y01006*
X05178Y01007*
X05178Y01007*
X05178Y01007*
X05178Y01008*
X05178Y01008*
X05178Y01008*
X05177Y01008*
X05177Y01009*
X05177Y01009*
X05177Y01009*
X05177Y0101*
X05176Y0101*
X05176Y0101*
X05176Y0101*
X05175Y0101*
X05175Y0101*
X05175Y01011*
X05174Y01011*
X05174Y01011*
X05174Y01011*
X05173Y01011*
X05173*
X05173Y01011*
X05172Y01011*
X05172Y01011*
X05172Y01011*
X05171Y0101*
X05171Y0101*
X05171Y0101*
X05171Y0101*
X0517Y0101*
X0517Y0101*
X0517Y01009*
X0517Y01009*
X05169Y01009*
X05169Y01008*
X05169Y01008*
X05169Y01008*
X05169Y01008*
X05169Y01007*
X05169Y01007*
X05168Y01007*
X05168Y01006*
X05168Y01006*
X05168Y01006*
X05168Y01005*
X05169Y01005*
X05169Y01005*
X05169Y01004*
X05169Y01004*
X05169Y01004*
X05169Y01003*
X05169Y01003*
X0517Y01003*
X0517Y01002*
X0517Y01002*
X0517Y01002*
X05171Y01002*
X05171Y01002*
X05171Y01001*
X05171Y01001*
X05172Y01001*
X05172Y01001*
X05172Y01001*
X05173Y01001*
X05173Y01001*
X05173*
X05174Y01001*
X05174Y01001*
X05174Y01001*
X05175Y01001*
X05175Y01001*
X05175Y01001*
X05176Y01002*
X05176Y01002*
X05176Y01002*
X05177Y01002*
X05177Y01002*
X05177Y01003*
X05177Y01003*
X05177Y01003*
X05178Y01004*
X05178Y01004*
X05178Y01004*
X05178Y01005*
X05178Y01005*
X05178Y01005*
X05178Y01006*
X05178Y01006*
X04605Y01167D02*
D01*
X04605Y01167*
X04605Y01168*
X04605Y01168*
X04605Y01168*
X04605Y01169*
X04605Y01169*
X04605Y01169*
X04605Y01169*
X04604Y0117*
X04604Y0117*
X04604Y0117*
X04604Y01171*
X04604Y01171*
X04603Y01171*
X04603Y01171*
X04603Y01171*
X04602Y01171*
X04602Y01172*
X04602Y01172*
X04601Y01172*
X04601Y01172*
X04601Y01172*
X046*
X046Y01172*
X046Y01172*
X04599Y01172*
X04599Y01172*
X04599Y01171*
X04598Y01171*
X04598Y01171*
X04598Y01171*
X04597Y01171*
X04597Y01171*
X04597Y0117*
X04597Y0117*
X04597Y0117*
X04596Y01169*
X04596Y01169*
X04596Y01169*
X04596Y01169*
X04596Y01168*
X04596Y01168*
X04596Y01168*
X04596Y01167*
X04596Y01167*
X04596Y01167*
X04596Y01166*
X04596Y01166*
X04596Y01166*
X04596Y01165*
X04596Y01165*
X04596Y01165*
X04596Y01164*
X04597Y01164*
X04597Y01164*
X04597Y01163*
X04597Y01163*
X04597Y01163*
X04598Y01163*
X04598Y01163*
X04598Y01162*
X04599Y01162*
X04599Y01162*
X04599Y01162*
X046Y01162*
X046Y01162*
X046Y01162*
X04601*
X04601Y01162*
X04601Y01162*
X04602Y01162*
X04602Y01162*
X04602Y01162*
X04603Y01162*
X04603Y01163*
X04603Y01163*
X04604Y01163*
X04604Y01163*
X04604Y01163*
X04604Y01164*
X04604Y01164*
X04605Y01164*
X04605Y01165*
X04605Y01165*
X04605Y01165*
X04605Y01166*
X04605Y01166*
X04605Y01166*
X04605Y01167*
X04605Y01167*
X04579Y0118D02*
D01*
X04579Y0118*
X04579Y0118*
X04579Y01181*
X04579Y01181*
X04579Y01181*
X04578Y01182*
X04578Y01182*
X04578Y01182*
X04578Y01183*
X04578Y01183*
X04577Y01183*
X04577Y01183*
X04577Y01184*
X04577Y01184*
X04576Y01184*
X04576Y01184*
X04576Y01184*
X04575Y01184*
X04575Y01184*
X04575Y01185*
X04574Y01185*
X04574Y01185*
X04574*
X04573Y01185*
X04573Y01185*
X04573Y01184*
X04572Y01184*
X04572Y01184*
X04572Y01184*
X04571Y01184*
X04571Y01184*
X04571Y01184*
X04571Y01183*
X0457Y01183*
X0457Y01183*
X0457Y01183*
X0457Y01182*
X0457Y01182*
X04569Y01182*
X04569Y01181*
X04569Y01181*
X04569Y01181*
X04569Y0118*
X04569Y0118*
X04569Y0118*
X04569Y01179*
X04569Y01179*
X04569Y01179*
X04569Y01178*
X04569Y01178*
X04569Y01178*
X0457Y01177*
X0457Y01177*
X0457Y01177*
X0457Y01177*
X0457Y01176*
X04571Y01176*
X04571Y01176*
X04571Y01176*
X04571Y01175*
X04572Y01175*
X04572Y01175*
X04572Y01175*
X04573Y01175*
X04573Y01175*
X04573Y01175*
X04574Y01175*
X04574*
X04574Y01175*
X04575Y01175*
X04575Y01175*
X04575Y01175*
X04576Y01175*
X04576Y01175*
X04576Y01175*
X04577Y01176*
X04577Y01176*
X04577Y01176*
X04577Y01176*
X04578Y01177*
X04578Y01177*
X04578Y01177*
X04578Y01177*
X04578Y01178*
X04579Y01178*
X04579Y01178*
X04579Y01179*
X04579Y01179*
X04579Y01179*
X04579Y0118*
G54D12*
X04421Y01191D02*
D01*
X04421Y01191*
X04421Y01191*
X04421Y01191*
X04421Y01191*
X04421Y01191*
X04421Y01191*
X0442Y01191*
X0442Y01191*
X0442Y01192*
X0442Y01192*
X0442Y01192*
X0442Y01192*
X0442Y01192*
X0442Y01192*
X0442Y01192*
X0442Y01192*
X0442Y01192*
X0442Y01192*
X0442Y01192*
X0442Y01192*
X0442Y01192*
X0442Y01192*
X04419*
X04419Y01192*
X04419Y01192*
X04419Y01192*
X04419Y01192*
X04419Y01192*
X04419Y01192*
X04419Y01192*
X04419Y01192*
X04419Y01192*
X04419Y01192*
X04419Y01192*
X04419Y01192*
X04419Y01192*
X04419Y01191*
X04419Y01191*
X04418Y01191*
X04418Y01191*
X04418Y01191*
X04418Y01191*
X04418Y01191*
X04418Y01191*
X04418Y01191*
X04418Y01191*
X04418Y01191*
X04418Y01191*
X04418Y01191*
X04418Y01191*
X04418Y0119*
X04419Y0119*
X04419Y0119*
X04419Y0119*
X04419Y0119*
X04419Y0119*
X04419Y0119*
X04419Y0119*
X04419Y0119*
X04419Y0119*
X04419Y0119*
X04419Y0119*
X04419Y0119*
X04419Y0119*
X04419Y0119*
X04419Y0119*
X04419Y0119*
X0442*
X0442Y0119*
X0442Y0119*
X0442Y0119*
X0442Y0119*
X0442Y0119*
X0442Y0119*
X0442Y0119*
X0442Y0119*
X0442Y0119*
X0442Y0119*
X0442Y0119*
X0442Y0119*
X0442Y0119*
X0442Y0119*
X0442Y0119*
X04421Y0119*
X04421Y01191*
X04421Y01191*
X04421Y01191*
X04421Y01191*
X04421Y01191*
X04421Y01191*
X03848Y00853D02*
D01*
X03848Y00853*
X03847Y00853*
X03847Y00853*
X03847Y00853*
X03847Y00853*
X03846Y00853*
X03846Y00853*
X03846Y00853*
X03846Y00853*
X03845Y00852*
X03845Y00852*
X03845Y00852*
X03845Y00852*
X03845Y00852*
X03844Y00852*
X03844Y00851*
X03844Y00851*
X03844Y00851*
X03844Y00851*
X03844Y0085*
X03844Y0085*
X03844Y0085*
X03844Y00849*
X03844Y00849*
X03844Y00849*
X03844Y00849*
X03844Y00848*
X03844Y00848*
X03844Y00848*
X03844Y00848*
X03844Y00847*
X03844Y00847*
X03845Y00847*
X03845Y00847*
X03845Y00847*
X03845Y00846*
X03845Y00846*
X03846Y00846*
X03846Y00846*
X03846Y00846*
X03846Y00846*
X03847Y00846*
X03847Y00845*
X03847Y00845*
X03847Y00845*
Y00845*
D01*
X03848Y00845*
X03848Y00845*
X03848Y00845*
X03848Y00845*
X03849Y00845*
X03849Y00846*
X03849Y00846*
X0385Y00846*
X0385Y00846*
X0385Y00846*
X0385Y00846*
X0385Y00846*
X03851Y00847*
X03851Y00847*
X03851Y00847*
X03851Y00847*
X03851Y00847*
X03851Y00848*
X03851Y00848*
X03851Y00848*
X03852Y00848*
X03852Y00849*
X03852Y00849*
X03852Y00849*
X03852Y0085*
X03852Y0085*
X03852Y0085*
X03851Y0085*
X03851Y00851*
X03851Y00851*
X03851Y00851*
X03851Y00851*
X03851Y00852*
X03851Y00852*
X0385Y00852*
X0385Y00852*
X0385Y00852*
X0385Y00853*
X0385Y00853*
X03849Y00853*
X03849Y00853*
X03849Y00853*
X03849Y00853*
X03848Y00853*
X03848Y00853*
Y00853*
X0237Y0119D02*
Y01281D01*
X02185Y0119D02*
X0237D01*
X02185D02*
Y01391D01*
X02631Y01246D02*
Y01306D01*
X02433Y01233D02*
X02626D01*
X02433Y01107D02*
Y01233D01*
Y01107D02*
X02626D01*
Y01233*
X03798Y00912D02*
Y01057D01*
X03601Y00912D02*
X03798D01*
X03601D02*
Y01057D01*
X03798*
X03799Y01071D02*
Y01129D01*
X04423Y0099D02*
Y01037D01*
X04302Y00976D02*
X04417D01*
X04302Y00953D02*
Y00976D01*
Y00953D02*
X04417D01*
Y00976*
X02816Y01212D02*
Y01237D01*
X02933*
Y01212D02*
Y01237D01*
X02816Y01212D02*
X02933D01*
X02815Y01153D02*
Y01198D01*
X0479Y01159D02*
Y012D01*
X04875Y00698D02*
Y00721D01*
X05105Y00964D02*
Y00975D01*
X0534Y00964D02*
Y00975D01*
X04496Y01105D02*
X0451D01*
X04496D02*
Y01134D01*
X04569Y01105D02*
X04583D01*
Y01134*
X04509Y01286D02*
Y01312D01*
X04541*
X04509Y01197D02*
Y01223D01*
Y01197D02*
X04541D01*
G54D13*
X05478Y01004D02*
D01*
X05478Y01004*
X05478Y01005*
X05478Y01005*
X05478Y01005*
X05478Y01005*
X05478Y01006*
X05478Y01006*
X05478Y01006*
X05477Y01006*
X05477Y01007*
X05477Y01007*
X05477Y01007*
X05477Y01007*
X05476Y01007*
X05476Y01007*
X05476Y01008*
X05476Y01008*
X05476Y01008*
X05475Y01008*
X05475Y01008*
X05475Y01008*
X05474Y01008*
X05474*
X05474Y01008*
X05474Y01008*
X05473Y01008*
X05473Y01008*
X05473Y01008*
X05473Y01008*
X05472Y01007*
X05472Y01007*
X05472Y01007*
X05472Y01007*
X05471Y01007*
X05471Y01007*
X05471Y01006*
X05471Y01006*
X05471Y01006*
X05471Y01006*
X05471Y01005*
X05471Y01005*
X0547Y01005*
X0547Y01005*
X0547Y01004*
X0547Y01004*
X0547Y01004*
X0547Y01003*
X0547Y01003*
X05471Y01003*
X05471Y01003*
X05471Y01002*
X05471Y01002*
X05471Y01002*
X05471Y01002*
X05471Y01001*
X05471Y01001*
X05472Y01001*
X05472Y01001*
X05472Y01001*
X05472Y01001*
X05473Y01*
X05473Y01*
X05473Y01*
X05473Y01*
X05474Y01*
X05474Y01*
X05474Y01*
X05474*
X05475Y01*
X05475Y01*
X05475Y01*
X05476Y01*
X05476Y01*
X05476Y01*
X05476Y01001*
X05476Y01001*
X05477Y01001*
X05477Y01001*
X05477Y01001*
X05477Y01001*
X05477Y01002*
X05478Y01002*
X05478Y01002*
X05478Y01002*
X05478Y01003*
X05478Y01003*
X05478Y01003*
X05478Y01003*
X05478Y01004*
X05478Y01004*
G54D14*
X03129Y00828D02*
X032D01*
X03129Y00781D02*
X032D01*
X03024Y01118D02*
X03095D01*
X03024Y01071D02*
X03095D01*
X03109Y01118D02*
X0318D01*
X03109Y01071D02*
X0318D01*
X04589Y007D02*
Y00739D01*
X0453Y007D02*
Y00739D01*
X04606Y01119D02*
Y0119D01*
X04653Y01119D02*
Y0119D01*
X02895Y0111D02*
Y0113D01*
X05005Y01055D02*
X05025D01*
X0505D02*
X0507D01*
X05035Y00845D02*
X05055D01*
X0496Y007D02*
X0498D01*
X04785Y00695D02*
X04805D01*
X04768Y00659D02*
Y0073D01*
X04721Y00659D02*
Y0073D01*
X0466Y00735D02*
Y00755D01*
X0448Y0068D02*
X045D01*
X0448Y0076D02*
X045D01*
X04487Y00863D02*
X04558D01*
X04487Y00816D02*
X04558D01*
X04487Y00906D02*
X04558D01*
X04487Y00859D02*
X04558D01*
X04487Y00949D02*
X04558D01*
X04487Y00902D02*
X04558D01*
X0452Y00955D02*
Y00975D01*
X04675Y01155D02*
X04695D01*
X04703Y01244D02*
Y01315D01*
X04656Y01244D02*
Y01315D01*
X04653Y01244D02*
Y01315D01*
X04606Y01244D02*
Y01315D01*
X04391Y01089D02*
Y0116D01*
X04438Y01089D02*
Y0116D01*
X04346Y01089D02*
Y0116D01*
X04393Y01089D02*
Y0116D01*
X04305Y01125D02*
X04325D01*
X04265D02*
X04285D01*
X03857Y00985D02*
Y01005D01*
Y00945D02*
Y00965D01*
X03535Y0084D02*
Y0086D01*
X03545Y00915D02*
X03565D01*
X03531Y00969D02*
Y0104D01*
X03578Y00969D02*
Y0104D01*
X03543Y01054D02*
Y01125D01*
X03496Y01054D02*
Y01125D01*
X03465Y01092D02*
X03485D01*
X0342D02*
X0344D01*
X03361Y01054D02*
Y01125D01*
X03408Y01054D02*
Y01125D01*
X0332Y01095D02*
X0334D01*
X03015Y0125D02*
X03035D01*
X0297D02*
X0299D01*
X02686Y01219D02*
Y0129D01*
X02733Y01219D02*
Y0129D01*
X0265Y01255D02*
X0267D01*
X0265Y0117D02*
X0267D01*
X0265Y0106D02*
X0267D01*
X02686Y01134D02*
Y01205D01*
X02733Y01134D02*
Y01205D01*
X02534Y00971D02*
X02605D01*
X02534Y01018D02*
X02605D01*
X02444Y00971D02*
X02515D01*
X02444Y01018D02*
X02515D01*
X02041Y00889D02*
Y0096D01*
X02088Y00889D02*
Y0096D01*
X0376Y0116D02*
Y0118D01*
X0486D02*
X0488D01*
G54D15*
X02865Y01045D02*
Y0104D01*
X02875Y0103*
X02885Y0104*
Y01045*
X02875Y0103D02*
Y01015D01*
X02895Y0104D02*
X029Y01045D01*
X0291*
X02915Y0104*
Y01035*
X0291Y0103*
X02905*
X0291*
X02915Y01025*
Y0102*
X0291Y01015*
X029*
X02895Y0102*
X03225Y0106D02*
X03195D01*
Y01075*
X032Y0108*
X0321*
X03215Y01075*
Y0106*
Y0107D02*
X03225Y0108D01*
Y0111D02*
Y0109D01*
X03205Y0111*
X032*
X03195Y01105*
Y01095*
X032Y0109*
X03225Y0114D02*
Y0112D01*
X03205Y0114*
X032*
X03195Y01135*
Y01125*
X032Y0112*
X03145Y0074D02*
Y0077D01*
X0316*
X03165Y00765*
Y00755*
X0316Y0075*
X03145*
X03155D02*
X03165Y0074D01*
X03175D02*
X03185D01*
X0318*
Y0077*
X03175Y00765*
X032D02*
X03205Y0077D01*
X03215*
X0322Y00765*
Y00745*
X03215Y0074*
X03205*
X032Y00745*
Y00765*
X0305Y0113D02*
Y0116D01*
X03065*
X0307Y01155*
Y01145*
X03065Y0114*
X0305*
X0306D02*
X0307Y0113D01*
X03095D02*
Y0116D01*
X0308Y01145*
X031*
X0276Y01025D02*
X02755Y0103D01*
X02745*
X0274Y01025*
Y01005*
X02745Y01*
X02755*
X0276Y01005*
X0277Y01025D02*
X02775Y0103D01*
X02785*
X0279Y01025*
Y0102*
X02785Y01015*
X0278*
X02785*
X0279Y0101*
Y01005*
X02785Y01*
X02775*
X0277Y01005*
X0282Y0103D02*
X0281Y01025D01*
X028Y01015*
Y01005*
X02805Y01*
X02815*
X0282Y01005*
Y0101*
X02815Y01015*
X028*
X0276Y00925D02*
X02755Y0093D01*
X02745*
X0274Y00925*
Y00905*
X02745Y009*
X02755*
X0276Y00905*
X0277Y00925D02*
X02775Y0093D01*
X02785*
X0279Y00925*
Y0092*
X02785Y00915*
X0278*
X02785*
X0279Y0091*
Y00905*
X02785Y009*
X02775*
X0277Y00905*
X0282Y0093D02*
X028D01*
Y00915*
X0281Y0092*
X02815*
X0282Y00915*
Y00905*
X02815Y009*
X02805*
X028Y00905*
X0323Y00915D02*
X03225Y0091D01*
Y009*
X0323Y00895*
X0325*
X03255Y009*
Y0091*
X0325Y00915*
X0323Y00925D02*
X03225Y0093D01*
Y0094*
X0323Y00945*
X03235*
X0324Y0094*
Y00935*
Y0094*
X03245Y00945*
X0325*
X03255Y0094*
Y0093*
X0325Y00925*
X03255Y0097D02*
X03225D01*
X0324Y00955*
Y00975*
X03055Y00765D02*
X0305Y0077D01*
X0304*
X03035Y00765*
Y00745*
X0304Y0074*
X0305*
X03055Y00745*
X03065Y00765D02*
X0307Y0077D01*
X0308*
X03085Y00765*
Y0076*
X0308Y00755*
X03075*
X0308*
X03085Y0075*
Y00745*
X0308Y0074*
X0307*
X03065Y00745*
X03095Y00765D02*
X031Y0077D01*
X0311*
X03115Y00765*
Y0076*
X0311Y00755*
X03105*
X0311*
X03115Y0075*
Y00745*
X0311Y0074*
X031*
X03095Y00745*
X0289Y00805D02*
X02885Y0081D01*
X02875*
X0287Y00805*
Y00785*
X02875Y0078*
X02885*
X0289Y00785*
X029Y00805D02*
X02905Y0081D01*
X02915*
X0292Y00805*
Y008*
X02915Y00795*
X0291*
X02915*
X0292Y0079*
Y00785*
X02915Y0078*
X02905*
X029Y00785*
X0295Y0078D02*
X0293D01*
X0295Y008*
Y00805*
X02945Y0081*
X02935*
X0293Y00805*
X0295Y01065D02*
Y01085D01*
X0296Y01095*
X0297Y01085*
Y01065*
Y0108*
X0295*
X03Y0109D02*
X02995Y01095D01*
X02985*
X0298Y0109*
Y0107*
X02985Y01065*
X02995*
X03Y0107*
X0301Y01065D02*
X0302D01*
X03015*
Y01095*
X0301Y0109*
X0444Y00815D02*
X04435Y0081D01*
Y008*
X0444Y00795*
X04445*
X0445Y008*
Y0081*
X04455Y00815*
X0446*
X04465Y0081*
Y008*
X0446Y00795*
X04435Y00825D02*
X04465D01*
Y0084*
X0446Y00845*
X04455*
X0445Y0084*
Y00825*
Y0084*
X04445Y00845*
X0444*
X04435Y0084*
Y00825*
X04465Y0087D02*
X04435D01*
X0445Y00855*
Y00875*
X0447Y0117D02*
Y0119D01*
X04465Y01195*
X04455*
X0445Y0119*
Y0117*
X04455Y01165*
X04465*
X0446Y01175D02*
X0447Y01165D01*
X04465D02*
X0447Y0117D01*
X0448Y01165D02*
X0449D01*
X04485*
Y01195*
X0448Y0119*
X03695Y0083D02*
X03685D01*
X0369*
Y00805*
X03685Y008*
X0368*
X03675Y00805*
X03705Y008D02*
X03715D01*
X0371*
Y0083*
X03705Y00825*
X02025Y00985D02*
Y01015D01*
X0204*
X02045Y0101*
Y01*
X0204Y00995*
X02025*
X02035D02*
X02045Y00985D01*
X02055D02*
X02065D01*
X0206*
Y01015*
X02055Y0101*
X0208D02*
X02085Y01015D01*
X02095*
X021Y0101*
Y01005*
X02095Y01*
X021Y00995*
Y0099*
X02095Y00985*
X02085*
X0208Y0099*
Y00995*
X02085Y01*
X0208Y01005*
Y0101*
X02085Y01D02*
X02095D01*
X0349Y0127D02*
Y013D01*
X03505*
X0351Y01295*
Y01285*
X03505Y0128*
X0349*
X03535Y013D02*
X03525D01*
X0352Y01295*
Y01275*
X03525Y0127*
X03535*
X0354Y01275*
Y01295*
X03535Y013*
X0357Y01295D02*
X03565Y013D01*
X03555*
X0355Y01295*
Y01275*
X03555Y0127*
X03565*
X0357Y01275*
Y01285*
X0356*
X03595Y013D02*
X03585D01*
X0358Y01295*
Y01275*
X03585Y0127*
X03595*
X036Y01275*
Y01295*
X03595Y013*
X0361Y01265D02*
X0363D01*
X0364Y0127D02*
Y013D01*
X03654*
X03659Y01295*
Y01285*
X03654Y0128*
X0364*
X03669Y013D02*
X03679D01*
X03674*
Y0127*
X03669*
X03679*
X03694D02*
Y013D01*
X03714Y0127*
Y013*
X03724Y01295D02*
X03729Y013D01*
X03739*
X03744Y01295*
Y0129*
X03739Y01285*
X03734*
X03739*
X03744Y0128*
Y01275*
X03739Y0127*
X03729*
X03724Y01275*
X0328Y01315D02*
Y01345D01*
X03295*
X033Y0134*
Y0133*
X03295Y01325*
X0328*
X03325Y01345D02*
X03315D01*
X0331Y0134*
Y0132*
X03315Y01315*
X03325*
X0333Y0132*
Y0134*
X03325Y01345*
X0336Y0134D02*
X03355Y01345D01*
X03345*
X0334Y0134*
Y0132*
X03345Y01315*
X03355*
X0336Y0132*
Y0133*
X0335*
X03385Y01345D02*
X03375D01*
X0337Y0134*
Y0132*
X03375Y01315*
X03385*
X0339Y0132*
Y0134*
X03385Y01345*
X034Y0131D02*
X0342D01*
X0343Y01315D02*
Y01345D01*
X03444*
X03449Y0134*
Y0133*
X03444Y01325*
X0343*
X03459Y01345D02*
X03469D01*
X03464*
Y01315*
X03459*
X03469*
X03484D02*
Y01345D01*
X03504Y01315*
Y01345*
X03534Y01315D02*
X03514D01*
X03534Y01335*
Y0134*
X03529Y01345*
X03519*
X03514Y0134*
X03045Y01268D02*
Y01298D01*
X0306*
X03065Y01293*
Y01283*
X0306Y01278*
X03045*
X0309Y01298D02*
X0308D01*
X03075Y01293*
Y01273*
X0308Y01268*
X0309*
X03095Y01273*
Y01293*
X0309Y01298*
X03125Y01293D02*
X0312Y01298D01*
X0311*
X03105Y01293*
Y01273*
X0311Y01268*
X0312*
X03125Y01273*
Y01283*
X03115*
X0315Y01298D02*
X0314D01*
X03135Y01293*
Y01273*
X0314Y01268*
X0315*
X03155Y01273*
Y01293*
X0315Y01298*
X03165Y01263D02*
X03185D01*
X03195Y01268D02*
Y01298D01*
X0321*
X03215Y01293*
Y01283*
X0321Y01278*
X03195*
X03225Y01298D02*
X03235D01*
X0323*
Y01268*
X03225*
X03235*
X0325D02*
Y01298D01*
X0327Y01268*
Y01298*
X0328Y01268D02*
X0329D01*
X03285*
Y01298*
X0328Y01293*
X0203Y01095D02*
X0201D01*
Y0108*
X0202*
X0201*
Y01065*
X0204D02*
Y01095D01*
X02055*
X0206Y0109*
Y0108*
X02055Y01075*
X0204*
X0209Y0109D02*
X02085Y01095D01*
X02075*
X0207Y0109*
Y0107*
X02075Y01065*
X02085*
X0209Y0107*
X021Y0106D02*
X0212D01*
X0213Y01065D02*
Y01095D01*
X0214Y01085*
X0215Y01095*
Y01065*
X02179Y0109D02*
X02174Y01095D01*
X02164*
X0216Y0109*
Y0107*
X02164Y01065*
X02174*
X02179Y0107*
X02189Y01095D02*
Y0107D01*
X02194Y01065*
X02204*
X02209Y0107*
Y01095*
X0495Y0125D02*
Y01245D01*
X0496Y01235*
X0497Y01245*
Y0125*
X0496Y01235D02*
Y0122D01*
X05D02*
X0498D01*
X05Y0124*
Y01245*
X04995Y0125*
X04985*
X0498Y01245*
X04605Y008D02*
Y00795D01*
X04615Y00785*
X04625Y00795*
Y008*
X04615Y00785D02*
Y0077D01*
X04635D02*
X04645D01*
X0464*
Y008*
X04635Y00795*
X0435Y00695D02*
X04345Y007D01*
X04335*
X0433Y00695*
Y0069*
X04335Y00685*
X04345*
X0435Y0068*
Y00675*
X04345Y0067*
X04335*
X0433Y00675*
X0436Y007D02*
Y0067D01*
X04375*
X0438Y00675*
Y0068*
X04375Y00685*
X0436*
X04375*
X0438Y0069*
Y00695*
X04375Y007*
X0436*
X0441D02*
X0439D01*
Y00685*
X044Y0069*
X04405*
X0441Y00685*
Y00675*
X04405Y0067*
X04395*
X0439Y00675*
X0413D02*
X04125Y0068D01*
X04115*
X0411Y00675*
Y0067*
X04115Y00665*
X04125*
X0413Y0066*
Y00655*
X04125Y0065*
X04115*
X0411Y00655*
X0414Y0068D02*
Y0065D01*
X04155*
X0416Y00655*
Y0066*
X04155Y00665*
X0414*
X04155*
X0416Y0067*
Y00675*
X04155Y0068*
X0414*
X0417Y00675D02*
X04175Y0068D01*
X04185*
X0419Y00675*
Y0067*
X04185Y00665*
X0418*
X04185*
X0419Y0066*
Y00655*
X04185Y0065*
X04175*
X0417Y00655*
X0413Y00755D02*
X04125Y0076D01*
X04115*
X0411Y00755*
Y0075*
X04115Y00745*
X04125*
X0413Y0074*
Y00735*
X04125Y0073*
X04115*
X0411Y00735*
X0414Y0076D02*
Y0073D01*
X04155*
X0416Y00735*
Y0074*
X04155Y00745*
X0414*
X04155*
X0416Y0075*
Y00755*
X04155Y0076*
X0414*
X0419Y0073D02*
X0417D01*
X0419Y0075*
Y00755*
X04185Y0076*
X04175*
X0417Y00755*
X04135Y0084D02*
X0413Y00845D01*
X0412*
X04115Y0084*
Y00835*
X0412Y0083*
X0413*
X04135Y00825*
Y0082*
X0413Y00815*
X0412*
X04115Y0082*
X04145Y00845D02*
Y00815D01*
X0416*
X04165Y0082*
Y00825*
X0416Y0083*
X04145*
X0416*
X04165Y00835*
Y0084*
X0416Y00845*
X04145*
X04175Y00815D02*
X04185D01*
X0418*
Y00845*
X04175Y0084*
X04945Y0065D02*
X0494Y00655D01*
X0493*
X04925Y0065*
Y00645*
X0493Y0064*
X0494*
X04945Y00635*
Y0063*
X0494Y00625*
X0493*
X04925Y0063*
X04955Y00655D02*
Y00625D01*
X0497*
X04975Y0063*
Y00635*
X0497Y0064*
X04955*
X0497*
X04975Y00645*
Y0065*
X0497Y00655*
X04955*
X04985D02*
X05005D01*
Y0065*
X04985Y0063*
Y00625*
X0478Y0132D02*
X04775Y01325D01*
X04765*
X0476Y0132*
Y01315*
X04765Y0131*
X04775*
X0478Y01305*
Y013*
X04775Y01295*
X04765*
X0476Y013*
X0479Y01325D02*
Y01295D01*
X04805*
X0481Y013*
Y01305*
X04805Y0131*
X0479*
X04805*
X0481Y01315*
Y0132*
X04805Y01325*
X0479*
X0484D02*
X0483Y0132D01*
X0482Y0131*
Y013*
X04825Y01295*
X04835*
X0484Y013*
Y01305*
X04835Y0131*
X0482*
X04575Y00905D02*
Y00935D01*
X0459*
X04595Y0093*
Y0092*
X0459Y00915*
X04575*
X04585D02*
X04595Y00905D01*
X04605Y0093D02*
X0461Y00935D01*
X0462*
X04625Y0093*
Y00925*
X0462Y0092*
X04615*
X0462*
X04625Y00915*
Y0091*
X0462Y00905*
X0461*
X04605Y0091*
X04575Y0086D02*
Y0089D01*
X0459*
X04595Y00885*
Y00875*
X0459Y0087*
X04575*
X04585D02*
X04595Y0086D01*
X04625D02*
X04605D01*
X04625Y0088*
Y00885*
X0462Y0089*
X0461*
X04605Y00885*
X04575Y00815D02*
Y00845D01*
X0459*
X04595Y0084*
Y0083*
X0459Y00825*
X04575*
X04585D02*
X04595Y00815D01*
X04605D02*
X04615D01*
X0461*
Y00845*
X04605Y0084*
X0471Y0067D02*
X0468D01*
Y00685*
X04685Y0069*
X04695*
X047Y00685*
Y0067*
Y0068D02*
X0471Y0069D01*
X0468Y007D02*
Y0072D01*
X04685*
X04705Y007*
X0471*
X0346Y00785D02*
X0343D01*
Y008*
X03435Y00805*
X03445*
X0345Y008*
Y00785*
Y00795D02*
X0346Y00805D01*
Y00835D02*
Y00815D01*
X0344Y00835*
X03435*
X0343Y0083*
Y0082*
X03435Y00815*
Y00845D02*
X0343Y0085D01*
Y0086*
X03435Y00865*
X03455*
X0346Y0086*
Y0085*
X03455Y00845*
X03435*
X03325Y0079D02*
X03295D01*
Y00805*
X033Y0081*
X0331*
X03315Y00805*
Y0079*
Y008D02*
X03325Y0081D01*
Y0082D02*
Y0083D01*
Y00825*
X03295*
X033Y0082*
X0332Y00845D02*
X03325Y0085D01*
Y0086*
X0332Y00865*
X033*
X03295Y0086*
Y0085*
X033Y00845*
X03305*
X0331Y0085*
Y00865*
X03531Y00969D02*
X03501D01*
Y00984*
X03506Y00989*
X03516*
X03521Y00984*
Y00969*
Y00979D02*
X03531Y00989D01*
Y01019D02*
Y00999D01*
X03511Y01019*
X03506*
X03501Y01014*
Y01004*
X03506Y00999*
X03531Y01029D02*
Y01039D01*
Y01034*
X03501*
X03506Y01029*
X0262Y00975D02*
Y01005D01*
X02635*
X0264Y01*
Y0099*
X02635Y00985*
X0262*
X0263D02*
X0264Y00975D01*
X0265D02*
X0266D01*
X02655*
Y01005*
X0265Y01*
X02695Y01005D02*
X02685Y01D01*
X02675Y0099*
Y0098*
X0268Y00975*
X0269*
X02695Y0098*
Y00985*
X0269Y0099*
X02675*
X02355Y00975D02*
Y01005D01*
X0237*
X02375Y01*
Y0099*
X0237Y00985*
X02355*
X02365D02*
X02375Y00975D01*
X02385D02*
X02395D01*
X0239*
Y01005*
X02385Y01*
X0241Y01005D02*
X0243D01*
Y01*
X0241Y0098*
Y00975*
X02785Y0122D02*
X02755D01*
Y01235*
X0276Y0124*
X0277*
X02775Y01235*
Y0122*
Y0123D02*
X02785Y0124D01*
Y0125D02*
Y0126D01*
Y01255*
X02755*
X0276Y0125*
X02755Y01295D02*
Y01275D01*
X0277*
X02765Y01285*
Y0129*
X0277Y01295*
X0278*
X02785Y0129*
Y0128*
X0278Y01275*
X02785Y0113D02*
X02755D01*
Y01145*
X0276Y0115*
X0277*
X02775Y01145*
Y0113*
Y0114D02*
X02785Y0115D01*
Y0116D02*
Y0117D01*
Y01165*
X02755*
X0276Y0116*
X02785Y012D02*
X02755D01*
X0277Y01185*
Y01205*
X0457Y01325D02*
Y01355D01*
X04585*
X0459Y0135*
Y0134*
X04585Y01335*
X0457*
X0458D02*
X0459Y01325D01*
X046D02*
X0461D01*
X04605*
Y01355*
X046Y0135*
X04625D02*
X0463Y01355D01*
X0464*
X04645Y0135*
Y01345*
X0464Y0134*
X04635*
X0464*
X04645Y01335*
Y0133*
X0464Y01325*
X0463*
X04625Y0133*
X04665Y01325D02*
Y01355D01*
X0468*
X04685Y0135*
Y0134*
X0468Y01335*
X04665*
X04675D02*
X04685Y01325D01*
X04695D02*
X04705D01*
X047*
Y01355*
X04695Y0135*
X0474Y01325D02*
X0472D01*
X0474Y01345*
Y0135*
X04735Y01355*
X04725*
X0472Y0135*
X0464Y0105D02*
X0461D01*
Y01065*
X04615Y0107*
X04625*
X0463Y01065*
Y0105*
Y0106D02*
X0464Y0107D01*
Y0108D02*
Y0109D01*
Y01085*
X0461*
X04615Y0108*
X0464Y01105D02*
Y01115D01*
Y0111*
X0461*
X04615Y01105*
X04295Y0102D02*
X04265D01*
Y01035*
X0427Y0104*
X0428*
X04285Y01035*
Y0102*
Y0103D02*
X04295Y0104D01*
X04265Y0107D02*
X0427Y0106D01*
X0428Y0105*
X0429*
X04295Y01055*
Y01065*
X0429Y0107*
X04285*
X0428Y01065*
Y0105*
X0425Y0102D02*
X0422D01*
Y01035*
X04225Y0104*
X04235*
X0424Y01035*
Y0102*
Y0103D02*
X0425Y0104D01*
X0422Y0107D02*
Y0105D01*
X04235*
X0423Y0106*
Y01065*
X04235Y0107*
X04245*
X0425Y01065*
Y01055*
X04245Y0105*
X04465Y01295D02*
Y01315D01*
X0446Y0132*
X0445*
X04445Y01315*
Y01295*
X0445Y0129*
X0446*
X04455Y013D02*
X04465Y0129D01*
X0446D02*
X04465Y01295D01*
X04495Y0129D02*
X04475D01*
X04495Y0131*
Y01315*
X0449Y0132*
X0448*
X04475Y01315*
X0517Y0105D02*
Y0102D01*
X0519*
X052D02*
Y0105D01*
X05215*
X0522Y01045*
Y01035*
X05215Y0103*
X052*
X0525Y0105D02*
X0523D01*
Y01035*
X0524*
X0523*
Y0102*
X0526D02*
X0527D01*
X05265*
Y0105*
X0526Y01045*
X0531Y0103D02*
Y01D01*
X0533*
X0536D02*
X0534D01*
X0536Y0102*
Y01025*
X05355Y0103*
X05345*
X0534Y01025*
X04675Y0123D02*
Y012D01*
X04695*
X04705Y01225D02*
X0471Y0123D01*
X0472*
X04725Y01225*
Y0122*
X0472Y01215*
X04715*
X0472*
X04725Y0121*
Y01205*
X0472Y012*
X0471*
X04705Y01205*
X05015Y00985D02*
Y00955D01*
X05035*
X05045D02*
X05055D01*
X0505*
Y00985*
X05045Y0098*
X03825Y01473D02*
X03815D01*
X0382*
Y01448*
X03815Y01443*
X0381*
X03805Y01448*
X03855Y01443D02*
X03835D01*
X03855Y01463*
Y01468*
X0385Y01473*
X0384*
X03835Y01468*
X04215Y00975D02*
X04225D01*
X0422*
Y00945*
X04215*
X04225*
X0426Y0097D02*
X04255Y00975D01*
X04245*
X0424Y0097*
Y0095*
X04245Y00945*
X04255*
X0426Y0095*
X0427Y00945D02*
X0428D01*
X04275*
Y00975*
X0427Y0097*
X03825Y011D02*
X03835D01*
X0383*
Y0107*
X03825*
X03835*
X0387Y01095D02*
X03865Y011D01*
X03855*
X0385Y01095*
Y01075*
X03855Y0107*
X03865*
X0387Y01075*
X039Y011D02*
X0389Y01095D01*
X0388Y01085*
Y01075*
X03885Y0107*
X03895*
X039Y01075*
Y0108*
X03895Y01085*
X0388*
X0235Y0116D02*
X0236D01*
X02355*
Y0113*
X0235*
X0236*
X02395Y01155D02*
X0239Y0116D01*
X0238*
X02375Y01155*
Y01135*
X0238Y0113*
X0239*
X02395Y01135*
X0242Y0113D02*
Y0116D01*
X02405Y01145*
X02425*
X04315Y01315D02*
X04325D01*
X0432*
Y01285*
X04315*
X04325*
X0436Y0131D02*
X04355Y01315D01*
X04345*
X0434Y0131*
Y0129*
X04345Y01285*
X04355*
X0436Y0129*
X0439Y01315D02*
X0437D01*
Y013*
X0438Y01305*
X04385*
X0439Y013*
Y0129*
X04385Y01285*
X04375*
X0437Y0129*
X0284Y0134D02*
X0285D01*
X02845*
Y0131*
X0284*
X0285*
X02885Y01335D02*
X0288Y0134D01*
X0287*
X02865Y01335*
Y01315*
X0287Y0131*
X0288*
X02885Y01315*
X02895Y01335D02*
X029Y0134D01*
X0291*
X02915Y01335*
Y0133*
X0291Y01325*
X02905*
X0291*
X02915Y0132*
Y01315*
X0291Y0131*
X029*
X02895Y01315*
X0456Y0103D02*
X0457D01*
X04565*
Y01*
X0456*
X0457*
X04605Y01025D02*
X046Y0103D01*
X0459*
X04585Y01025*
Y01005*
X0459Y01*
X046*
X04605Y01005*
X04635Y01D02*
X04615D01*
X04635Y0102*
Y01025*
X0463Y0103*
X0462*
X04615Y01025*
X049Y0077D02*
X0488D01*
Y00755*
X0489*
X0488*
Y0074*
X0491Y0077D02*
Y0074D01*
X04925*
X0493Y00745*
Y0075*
X04925Y00755*
X0491*
X04925*
X0493Y0076*
Y00765*
X04925Y0077*
X0491*
X0494Y0074D02*
X0495D01*
X04945*
Y0077*
X0494Y00765*
X02125Y0133D02*
Y013D01*
X0214*
X02145Y01305*
Y01325*
X0214Y0133*
X02125*
X02155Y013D02*
X02165D01*
X0216*
Y0133*
X02155Y01325*
X04595Y00975D02*
X0459Y0098D01*
X0458*
X04575Y00975*
Y00955*
X0458Y0095*
X0459*
X04595Y00955*
X04605Y0095D02*
X04615D01*
X0461*
Y0098*
X04605Y00975*
X03345Y00805D02*
X0334Y008D01*
Y0079*
X03345Y00785*
X03365*
X0337Y0079*
Y008*
X03365Y00805*
X0337Y00835D02*
Y00815D01*
X0335Y00835*
X03345*
X0334Y0083*
Y0082*
X03345Y00815*
Y00845D02*
X0334Y0085D01*
Y0086*
X03345Y00865*
X0335*
X03355Y0086*
X0336Y00865*
X03365*
X0337Y0086*
Y0085*
X03365Y00845*
X0336*
X03355Y0085*
X0335Y00845*
X03345*
X03355Y0085D02*
Y0086D01*
X0339Y00805D02*
X03385Y008D01*
Y0079*
X0339Y00785*
X0341*
X03415Y0079*
Y008*
X0341Y00805*
X03415Y00835D02*
Y00815D01*
X03395Y00835*
X0339*
X03385Y0083*
Y0082*
X0339Y00815*
X03385Y00845D02*
Y00865D01*
X0339*
X0341Y00845*
X03415*
X03925Y0101D02*
X0392Y01015D01*
X0391*
X03905Y0101*
Y0099*
X0391Y00985*
X0392*
X03925Y0099*
X03955Y00985D02*
X03935D01*
X03955Y01005*
Y0101*
X0395Y01015*
X0394*
X03935Y0101*
X03985Y01015D02*
X03975Y0101D01*
X03965Y01*
Y0099*
X0397Y00985*
X0398*
X03985Y0099*
Y00995*
X0398Y01*
X03965*
X03925Y00965D02*
X0392Y0097D01*
X0391*
X03905Y00965*
Y00945*
X0391Y0094*
X0392*
X03925Y00945*
X03955Y0094D02*
X03935D01*
X03955Y0096*
Y00965*
X0395Y0097*
X0394*
X03935Y00965*
X03985Y0097D02*
X03965D01*
Y00955*
X03975Y0096*
X0398*
X03985Y00955*
Y00945*
X0398Y0094*
X0397*
X03965Y00945*
X03748Y01236D02*
X03743Y01241D01*
X03733*
X03728Y01236*
Y01216*
X03733Y01211*
X03743*
X03748Y01216*
X03778Y01211D02*
X03758D01*
X03778Y01231*
Y01236*
X03773Y01241*
X03763*
X03758Y01236*
X03803Y01211D02*
Y01241D01*
X03788Y01226*
X03808*
X03255Y00805D02*
X0325Y008D01*
Y0079*
X03255Y00785*
X03275*
X0328Y0079*
Y008*
X03275Y00805*
X0328Y00835D02*
Y00815D01*
X0326Y00835*
X03255*
X0325Y0083*
Y0082*
X03255Y00815*
X03275Y00845D02*
X0328Y0085D01*
Y0086*
X03275Y00865*
X03255*
X0325Y0086*
Y0085*
X03255Y00845*
X0326*
X03265Y0085*
Y00865*
X03515Y0082D02*
X0351Y00825D01*
X035*
X03495Y0082*
Y008*
X035Y00795*
X0351*
X03515Y008*
X03525Y0082D02*
X0353Y00825D01*
X0354*
X03545Y0082*
Y00815*
X0354Y0081*
X03535*
X0354*
X03545Y00805*
Y008*
X0354Y00795*
X0353*
X03525Y008*
X03555Y0082D02*
X0356Y00825D01*
X0357*
X03575Y0082*
Y008*
X0357Y00795*
X0356*
X03555Y008*
Y0082*
X03505Y009D02*
X035Y00895D01*
Y00885*
X03505Y0088*
X03525*
X0353Y00885*
Y00895*
X03525Y009*
X03505Y0091D02*
X035Y00915D01*
Y00925*
X03505Y0093*
X0351*
X03515Y00925*
Y0092*
Y00925*
X0352Y0093*
X03525*
X0353Y00925*
Y00915*
X03525Y0091*
X0353Y0094D02*
Y0095D01*
Y00945*
X035*
X03505Y0094*
X0269Y0104D02*
X02685Y01035D01*
Y01025*
X0269Y0102*
X0271*
X02715Y01025*
Y01035*
X0271Y0104*
X02715Y0107D02*
Y0105D01*
X02695Y0107*
X0269*
X02685Y01065*
Y01055*
X0269Y0105*
X02715Y0108D02*
Y0109D01*
Y01085*
X02685*
X0269Y0108*
X02665Y01125D02*
X0266Y0113D01*
X0265*
X02645Y01125*
Y01105*
X0265Y011*
X0266*
X02665Y01105*
X02675Y011D02*
X02685D01*
X0268*
Y0113*
X02675Y01125*
X027Y01105D02*
X02705Y011D01*
X02715*
X0272Y01105*
Y01125*
X02715Y0113*
X02705*
X027Y01125*
Y0112*
X02705Y01115*
X0272*
X02655Y01325D02*
X0265Y0133D01*
X0264*
X02635Y01325*
Y01305*
X0264Y013*
X0265*
X02655Y01305*
X02685Y013D02*
X02665D01*
X02685Y0132*
Y01325*
X0268Y0133*
X0267*
X02665Y01325*
X02695D02*
X027Y0133D01*
X0271*
X02715Y01325*
Y01305*
X0271Y013*
X027*
X02695Y01305*
Y01325*
X0418Y01035D02*
X04175Y0103D01*
Y0102*
X0418Y01015*
X042*
X04205Y0102*
Y0103*
X042Y01035*
X04205Y01065D02*
Y01045D01*
X04185Y01065*
X0418*
X04175Y0106*
Y0105*
X0418Y01045*
Y01075D02*
X04175Y0108D01*
Y0109*
X0418Y01095*
X04185*
X0419Y0109*
Y01085*
Y0109*
X04195Y01095*
X042*
X04205Y0109*
Y0108*
X042Y01075*
X04135Y01035D02*
X0413Y0103D01*
Y0102*
X04135Y01015*
X04155*
X0416Y0102*
Y0103*
X04155Y01035*
X0416Y01065D02*
Y01045D01*
X0414Y01065*
X04135*
X0413Y0106*
Y0105*
X04135Y01045*
X0416Y01095D02*
Y01075D01*
X0414Y01095*
X04135*
X0413Y0109*
Y0108*
X04135Y01075*
X05385Y0086D02*
X0538Y00865D01*
X0537*
X05365Y0086*
Y0084*
X0537Y00835*
X0538*
X05385Y0084*
X05395Y00865D02*
X05415D01*
Y0086*
X05395Y0084*
Y00835*
X0529Y0086D02*
X05285Y00865D01*
X05275*
X0527Y0086*
Y0084*
X05275Y00835*
X05285*
X0529Y0084*
X0532Y00865D02*
X0531Y0086D01*
X053Y0085*
Y0084*
X05305Y00835*
X05315*
X0532Y0084*
Y00845*
X05315Y0085*
X053*
X02875Y01095D02*
X0287Y011D01*
X0286*
X02855Y01095*
Y01075*
X0286Y0107*
X0287*
X02875Y01075*
X02885Y0107D02*
X02895D01*
X0289*
Y011*
X02885Y01095*
X0291D02*
X02915Y011D01*
X02925*
X0293Y01095*
Y0109*
X02925Y01085*
X0293Y0108*
Y01075*
X02925Y0107*
X02915*
X0291Y01075*
Y0108*
X02915Y01085*
X0291Y0109*
Y01095*
X02915Y01085D02*
X02925D01*
X03015Y0115D02*
X0301Y01145D01*
Y01135*
X03015Y0113*
X03035*
X0304Y01135*
Y01145*
X03035Y0115*
X0304Y0116D02*
Y0117D01*
Y01165*
X0301*
X03015Y0116*
X0301Y01185D02*
Y01205D01*
X03015*
X03035Y01185*
X0304*
X0297Y0115D02*
X02965Y01145D01*
Y01135*
X0297Y0113*
X0299*
X02995Y01135*
Y01145*
X0299Y0115*
X02995Y0116D02*
Y0117D01*
Y01165*
X02965*
X0297Y0116*
X02965Y01205D02*
X0297Y01195D01*
X0298Y01185*
X0299*
X02995Y0119*
Y012*
X0299Y01205*
X02985*
X0298Y012*
Y01185*
X0497Y0103D02*
X04965Y01025D01*
Y01015*
X0497Y0101*
X0499*
X04995Y01015*
Y01025*
X0499Y0103*
X04995Y0104D02*
Y0105D01*
Y01045*
X04965*
X0497Y0104*
X04965Y01085D02*
Y01065D01*
X0498*
X04975Y01075*
Y0108*
X0498Y01085*
X0499*
X04995Y0108*
Y0107*
X0499Y01065*
X0509Y01035D02*
X05085Y0103D01*
Y0102*
X0509Y01015*
X0511*
X05115Y0102*
Y0103*
X0511Y01035*
X05115Y01045D02*
Y01055D01*
Y0105*
X05085*
X0509Y01045*
X05115Y01085D02*
X05085D01*
X051Y0107*
Y0109*
X05035Y00795D02*
X0503Y008D01*
X0502*
X05015Y00795*
Y00775*
X0502Y0077*
X0503*
X05035Y00775*
X05045Y0077D02*
X05055D01*
X0505*
Y008*
X05045Y00795*
X0507D02*
X05075Y008D01*
X05085*
X0509Y00795*
Y0079*
X05085Y00785*
X0508*
X05085*
X0509Y0078*
Y00775*
X05085Y0077*
X05075*
X0507Y00775*
X05Y0069D02*
X04995Y00685D01*
Y00675*
X05Y0067*
X0502*
X05025Y00675*
Y00685*
X0502Y0069*
X05025Y007D02*
Y0071D01*
Y00705*
X04995*
X05Y007*
Y00725D02*
X04995Y0073D01*
Y0074*
X05Y00745*
X0502*
X05025Y0074*
Y0073*
X0502Y00725*
X05*
X04755Y0064D02*
X0475Y00645D01*
X0474*
X04735Y0064*
Y0062*
X0474Y00615*
X0475*
X04755Y0062*
X04765Y00615D02*
X04775D01*
X0477*
Y00645*
X04765Y0064*
X0481Y00615D02*
X0479D01*
X0481Y00635*
Y0064*
X04805Y00645*
X04795*
X0479Y0064*
X0473Y0113D02*
X04725Y01135D01*
X04715*
X0471Y0113*
Y0111*
X04715Y01105*
X04725*
X0473Y0111*
X0474Y01105D02*
X0475D01*
X04745*
Y01135*
X0474Y0113*
X04765Y01105D02*
X04775D01*
X0477*
Y01135*
X04765Y0113*
X0463Y00715D02*
X04625Y0072D01*
X04615*
X0461Y00715*
Y00695*
X04615Y0069*
X04625*
X0463Y00695*
X0464D02*
X04645Y0069D01*
X04655*
X0466Y00695*
Y00715*
X04655Y0072*
X04645*
X0464Y00715*
Y0071*
X04645Y00705*
X0466*
X04881Y01269D02*
X04876Y01274D01*
X04866*
X04861Y01269*
Y01249*
X04866Y01244*
X04876*
X04881Y01249*
X04891Y01269D02*
X04896Y01274D01*
X04906*
X04911Y01269*
Y01264*
X04906Y01259*
X04911Y01254*
Y01249*
X04906Y01244*
X04896*
X04891Y01249*
Y01254*
X04896Y01259*
X04891Y01264*
Y01269*
X04896Y01259D02*
X04906D01*
X0512Y00835D02*
X05115Y0083D01*
Y0082*
X0512Y00815*
X0514*
X05145Y0082*
Y0083*
X0514Y00835*
X05115Y00865D02*
Y00845D01*
X0513*
X05125Y00855*
Y0086*
X0513Y00865*
X0514*
X05145Y0086*
Y0085*
X0514Y00845*
X05075Y00835D02*
X0507Y0083D01*
Y0082*
X05075Y00815*
X05095*
X051Y0082*
Y0083*
X05095Y00835*
X051Y0086D02*
X0507D01*
X05085Y00845*
Y00865*
X04445Y00675D02*
X0444Y0067D01*
Y0066*
X04445Y00655*
X04465*
X0447Y0066*
Y0067*
X04465Y00675*
X04445Y00685D02*
X0444Y0069D01*
Y007*
X04445Y00705*
X0445*
X04455Y007*
Y00695*
Y007*
X0446Y00705*
X04465*
X0447Y007*
Y0069*
X04465Y00685*
X04445Y00745D02*
X0444Y0074D01*
Y0073*
X04445Y00725*
X04465*
X0447Y0073*
Y0074*
X04465Y00745*
X0447Y00775D02*
Y00755D01*
X0445Y00775*
X04445*
X0444Y0077*
Y0076*
X04445Y00755*
X05335Y0131D02*
Y0133D01*
X05345Y0134*
X05355Y0133*
Y0131*
Y01325*
X05335*
X05365Y0131D02*
Y0134D01*
X05385Y0131*
Y0134*
X05395D02*
X05415D01*
X05405*
Y0131*
X05425D02*
X05435D01*
X0543*
Y0134*
X05425Y01335*
M02*