%FSTAX23Y23*%
%MOIN*%
%SFA1B1*%

%IPPOS*%
%ADD36R,0.029700X0.029700*%
%ADD39C,0.023700*%
%ADD42R,0.029700X0.029700*%
%ADD52C,0.027500*%
%ADD53R,0.067100X0.067100*%
%ADD54C,0.067100*%
%ADD89R,0.039500X0.019800*%
%ADD90R,0.076900X0.069000*%
%ADD91C,0.016200*%
%ADD92R,0.035600X0.037500*%
%ADD93R,0.031600X0.055200*%
%ADD94R,0.053300X0.065100*%
%ADD95R,0.047400X0.043400*%
%ADD96R,0.023700X0.061100*%
%ADD97R,0.094600X0.071000*%
%ADD98R,0.078900X0.082800*%
%ADD99R,0.082800X0.082800*%
%ADD100R,0.019800X0.051300*%
%ADD101R,0.047400X0.078900*%
%ADD102R,0.041500X0.041500*%
%ADD103R,0.039500X0.039500*%
%LNmcu_pcb-1*%
%LPD*%
G54D36*
X02727Y0175D03*
X02773D03*
X03008Y0177D03*
X02962D03*
Y01735D03*
X03008D03*
X02962Y017D03*
X03008D03*
G54D39*
X0287Y01502D03*
X02934Y01515D03*
G54D42*
X0299Y01653D03*
Y01607D03*
X01753Y01648D03*
Y01602D03*
X02647D03*
Y01648D03*
X02685Y01602D03*
Y01648D03*
X0286Y01527D03*
Y01573D03*
X02895D03*
Y01527D03*
X0303Y01607D03*
Y01653D03*
X0299Y01558D03*
Y01512D03*
G54D52*
X01834Y01756D03*
X01754D03*
X01794Y01556D03*
G54D53*
X0344Y0154D03*
G54D54*
X0334Y0154D03*
G54D89*
X03274Y01574D03*
Y01554D03*
Y01535D03*
Y01515D03*
X03155D03*
Y01535D03*
Y01554D03*
Y01574D03*
G54D90*
X03215Y01545D03*
G54D91*
X01797Y01641D03*
Y01626D03*
X01813Y01641D03*
Y01626D03*
X01828Y01641D03*
Y01626D03*
G54D92*
X03155Y01608D03*
Y01661D03*
X03116D03*
Y01608D03*
G54D93*
X02157Y0166D03*
X02195D03*
X02232D03*
Y01759D03*
X02195D03*
X02157D03*
G54D94*
X02844Y01745D03*
X02915D03*
X01763Y01702D03*
X01834D03*
G54D95*
X03063Y01567D03*
Y01504D03*
G54D96*
X02475Y0165D03*
X0245D03*
X02424D03*
X02398D03*
X02373D03*
G54D97*
X02548Y01645D03*
X023D03*
G54D98*
X02581Y01544D03*
X02266D03*
G54D99*
X02471Y01544D03*
X02377D03*
G54D100*
X02063Y01546D03*
Y01763D03*
X02044Y01546D03*
Y01763D03*
X02024Y01546D03*
Y01763D03*
X02004Y01546D03*
Y01763D03*
X01985Y01546D03*
Y01763D03*
X01965Y01546D03*
Y01763D03*
X01945Y01546D03*
Y01763D03*
X01926Y01546D03*
Y01763D03*
G54D101*
X0265Y0155D03*
X02749D03*
G54D102*
X01838Y01587D03*
Y01526D03*
G54D103*
X0311Y01505D03*
Y01564D03*
M02*