G04*
G04 #@! TF.GenerationSoftware,Altium Limited,Altium Designer,19.1.5 (86)*
G04*
G04 Layer_Physical_Order=1*
G04 Layer_Color=255*
%FSLAX44Y44*%
%MOMM*%
G71*
G01*
G75*
%ADD12C,0.2540*%
%ADD15C,0.1524*%
%ADD18R,1.8000X1.7500*%
%ADD19R,1.8000X1.7500*%
%ADD20R,1.4750X0.4500*%
%ADD21R,0.5500X0.5500*%
%ADD22R,0.4000X0.6000*%
%ADD23R,0.6000X0.4000*%
%ADD24R,0.7500X0.6000*%
%ADD25R,0.7500X0.9500*%
%ADD26R,0.4500X0.4500*%
%ADD27R,0.4000X0.4500*%
%ADD28C,0.4000*%
%ADD29O,1.0000X0.5000*%
%ADD30R,0.4000X1.3500*%
%ADD31R,2.2000X1.6000*%
%ADD32R,1.8000X1.9000*%
%ADD33R,1.9000X1.9000*%
%ADD34R,0.5500X0.5500*%
%ADD35C,1.7000*%
%ADD36R,1.8000X1.0000*%
%ADD37R,1.0000X0.9000*%
%ADD38R,5.7000X5.7000*%
%ADD39R,0.3000X0.8500*%
%ADD40R,0.8500X0.3000*%
%ADD41R,0.7000X0.3000*%
%ADD42R,1.0000X1.7000*%
%ADD43R,0.6200X0.6000*%
%ADD44R,1.0000X1.8000*%
%ADD45R,0.2500X0.6750*%
%ADD46R,0.5750X0.2500*%
%ADD47R,0.7000X0.7500*%
%ADD48R,1.4500X1.1500*%
%ADD49R,0.6000X1.2000*%
%ADD50C,0.7870*%
%ADD51R,0.8000X0.3000*%
%ADD52R,0.8000X0.2500*%
%ADD53R,0.3500X0.8500*%
%ADD54R,0.8500X0.8500*%
%ADD55C,0.2080*%
%ADD56R,0.8500X0.2500*%
%ADD57R,0.2500X0.8500*%
%ADD58R,3.6000X3.6000*%
%ADD59R,0.7500X0.7000*%
%ADD60R,0.6000X0.6200*%
%ADD61R,1.0000X0.8000*%
%ADD62R,0.7000X1.5000*%
%ADD63R,0.8000X0.8000*%
%ADD64R,1.7500X1.5500*%
%ADD65R,2.4500X1.7000*%
%ADD66R,0.6000X0.7500*%
%ADD67R,1.0500X1.0000*%
%ADD68R,0.4000X0.8000*%
%ADD133C,0.2032*%
%ADD134C,0.3556*%
%ADD135C,0.5080*%
%ADD136C,0.3048*%
%ADD137C,0.7620*%
%ADD138C,0.4064*%
%ADD139R,0.5000X1.5000*%
%ADD140R,0.5000X4.5000*%
%ADD141R,2.5000X0.5000*%
%ADD142R,1.1430X0.8000*%
%ADD143R,0.8500X2.2300*%
%ADD144C,1.2000*%
%ADD145O,1.3000X1.3000*%
%ADD146C,0.4950*%
%ADD147C,1.4000*%
%ADD148R,1.5000X1.5000*%
%ADD149C,1.5000*%
G04:AMPARAMS|DCode=150|XSize=1.1mm|YSize=0.9mm|CornerRadius=0.225mm|HoleSize=0mm|Usage=FLASHONLY|Rotation=180.000|XOffset=0mm|YOffset=0mm|HoleType=Round|Shape=RoundedRectangle|*
%AMROUNDEDRECTD150*
21,1,1.1000,0.4500,0,0,180.0*
21,1,0.6500,0.9000,0,0,180.0*
1,1,0.4500,-0.3250,0.2250*
1,1,0.4500,0.3250,0.2250*
1,1,0.4500,0.3250,-0.2250*
1,1,0.4500,-0.3250,-0.2250*
%
%ADD150ROUNDEDRECTD150*%
%ADD151R,1.6500X1.6500*%
%ADD152C,1.6500*%
%ADD153O,1.4000X2.0000*%
%ADD154O,2.0000X1.4000*%
%ADD155C,0.6000*%
%ADD156C,0.7620*%
%ADD157C,1.2700*%
%ADD158C,1.0000*%
G36*
X722208Y306792D02*
Y292032D01*
X695304D01*
Y294084D01*
X685574D01*
X684756Y294084D01*
X683486Y294084D01*
X673756D01*
Y292927D01*
X668574D01*
Y293084D01*
X665090D01*
Y295140D01*
X660550D01*
Y296410D01*
X659280D01*
Y301950D01*
X656010D01*
Y300934D01*
X652090D01*
Y301950D01*
X648820D01*
Y296410D01*
X647550D01*
Y295140D01*
X643010D01*
Y293084D01*
X639526D01*
Y292927D01*
X630534D01*
Y294084D01*
X620804D01*
X619986Y294084D01*
X618716Y294084D01*
X608986D01*
Y290430D01*
X588312D01*
X587123Y290193D01*
X586115Y289520D01*
X546744Y250149D01*
X546071Y249141D01*
X545834Y247952D01*
Y168250D01*
X542749D01*
Y172570D01*
X542532Y173660D01*
X541914Y174584D01*
X541914Y174584D01*
X539224Y177274D01*
X538300Y177892D01*
X537210Y178109D01*
X537210Y178109D01*
X528828D01*
Y179534D01*
X527403D01*
Y181146D01*
X528828D01*
Y189694D01*
X520280D01*
Y181146D01*
X521705D01*
Y179534D01*
X520280D01*
Y176837D01*
X519333Y175890D01*
X518160Y176376D01*
Y184150D01*
X512870D01*
Y186690D01*
X518160D01*
Y190710D01*
X512251D01*
X511987Y191724D01*
X512993Y192507D01*
X514350Y192237D01*
X516115Y192589D01*
X517612Y193588D01*
X518611Y195085D01*
X518963Y196850D01*
X518611Y198615D01*
X517612Y200112D01*
X517044Y200491D01*
Y234189D01*
X517044Y234189D01*
Y241968D01*
X519182Y244106D01*
X519430Y244057D01*
X520805Y244331D01*
X521971Y245109D01*
X522749Y246275D01*
X523023Y247650D01*
X522749Y249025D01*
X521971Y250191D01*
X520805Y250970D01*
X519430Y251243D01*
X518055Y250970D01*
X516889Y250191D01*
X516110Y249025D01*
X515837Y247650D01*
X515886Y247402D01*
X514985Y246501D01*
X512778Y248708D01*
X513531Y249835D01*
X513883Y251600D01*
X513531Y253365D01*
X512532Y254862D01*
X512406Y254946D01*
X512347Y255996D01*
X513407Y256966D01*
X514350Y256842D01*
X516902Y257178D01*
X519279Y258162D01*
X521321Y259729D01*
X522887Y261771D01*
X523872Y264149D01*
X524208Y266700D01*
X523872Y269251D01*
X522887Y271629D01*
X521321Y273671D01*
X519279Y275238D01*
X516902Y276222D01*
X514350Y276558D01*
X512898Y276367D01*
X511628Y277479D01*
Y280582D01*
X512583Y281420D01*
X513080Y281354D01*
Y292070D01*
Y302786D01*
X512583Y302721D01*
X511628Y303558D01*
Y307331D01*
X721310Y307690D01*
X722208Y306792D01*
D02*
G37*
G36*
X673756Y285036D02*
X675331D01*
Y281896D01*
X673906D01*
Y273348D01*
X682454D01*
Y281896D01*
X681029D01*
Y284138D01*
X681927Y285036D01*
X684304Y285036D01*
X685574Y285036D01*
X687181D01*
Y281896D01*
X686606D01*
Y273348D01*
X695154D01*
Y281896D01*
X692879D01*
Y284351D01*
X693950Y284981D01*
X694225Y285036D01*
X695304D01*
Y285299D01*
X722208D01*
Y259372D01*
X722692Y258206D01*
X723858Y257722D01*
X753110D01*
Y135892D01*
X693210D01*
X693033Y136782D01*
X692528Y137538D01*
X637644Y192422D01*
X637356Y192614D01*
X634644Y195326D01*
X634452Y195614D01*
X631568Y198498D01*
X630812Y199003D01*
X629920Y199181D01*
X590615D01*
X590532Y200451D01*
X592121Y200660D01*
X594036Y201453D01*
X595681Y202715D01*
X596943Y204360D01*
X597737Y206276D01*
X598008Y208331D01*
X597737Y210387D01*
X596943Y212302D01*
X595681Y213947D01*
X594036Y215209D01*
X592121Y216003D01*
X590065Y216273D01*
X588010Y216003D01*
X586095Y215209D01*
X584450Y213947D01*
X583188Y212302D01*
X582394Y210387D01*
X582324Y209851D01*
X573804Y201331D01*
X573186Y200407D01*
X572969Y199317D01*
X572969Y199317D01*
Y198030D01*
X569078Y194139D01*
X564559D01*
Y185591D01*
X563924Y184614D01*
X563924D01*
Y180683D01*
X562037D01*
X561144Y180505D01*
X560388Y180000D01*
X553320Y172931D01*
X552050Y173416D01*
Y246665D01*
X589599Y284214D01*
X595928D01*
X596607Y282944D01*
X596100Y282185D01*
X595923Y281294D01*
X606715D01*
X606537Y282185D01*
X606030Y282944D01*
X606709Y284214D01*
X608601D01*
X609136Y283166D01*
Y274618D01*
X617684D01*
Y283166D01*
X617237D01*
X616816Y284436D01*
X617416Y285036D01*
X619534Y285036D01*
X620575Y285036D01*
X621175Y284436D01*
X620754Y283166D01*
X620566D01*
Y274618D01*
X629114D01*
Y283166D01*
X628207D01*
Y285036D01*
X630534D01*
Y286193D01*
X639526D01*
Y286036D01*
X643010D01*
Y283980D01*
X647550D01*
Y282710D01*
X648820D01*
Y277170D01*
X652090D01*
Y278186D01*
X656010D01*
Y277170D01*
X659280D01*
Y282710D01*
X660550D01*
Y283980D01*
X665090D01*
Y286036D01*
X668574D01*
Y286193D01*
X673756D01*
Y285036D01*
D02*
G37*
G36*
X627589Y186262D02*
X627275Y186199D01*
X626109Y185421D01*
X625331Y184255D01*
X625057Y182880D01*
X625331Y181505D01*
X626109Y180339D01*
X627275Y179561D01*
X628650Y179287D01*
X630025Y179561D01*
X631191Y180339D01*
X631969Y181505D01*
X632243Y182880D01*
X632043Y183883D01*
X632073Y183928D01*
X632251Y184820D01*
Y189468D01*
X633424Y189954D01*
X634252Y189126D01*
X634540Y188934D01*
X686409Y137065D01*
X685923Y135892D01*
X658615D01*
X657774Y136732D01*
X657018Y137237D01*
X656126Y137415D01*
X641796D01*
X640544Y137458D01*
Y146006D01*
X631996D01*
Y144063D01*
X627554D01*
Y147529D01*
X635000D01*
X635892Y147707D01*
X636648Y148212D01*
X639832Y151396D01*
X640080Y151347D01*
X641455Y151621D01*
X642621Y152399D01*
X643400Y153565D01*
X643673Y154940D01*
X643400Y156315D01*
X642621Y157481D01*
X641455Y158259D01*
X640080Y158533D01*
X638705Y158259D01*
X637539Y157481D01*
X636760Y156315D01*
X636487Y154940D01*
X636536Y154692D01*
X634035Y152191D01*
X628410D01*
X627554Y153106D01*
X627554Y153345D01*
Y165154D01*
X614506D01*
Y164938D01*
X613236Y163916D01*
X612450Y164073D01*
X610685Y163722D01*
X609188Y162722D01*
X608189Y161225D01*
X607837Y159460D01*
X608189Y157695D01*
X609188Y156198D01*
X610685Y155198D01*
X612450Y154847D01*
X613221Y155001D01*
X614186Y154227D01*
X614213Y153260D01*
X613205Y152247D01*
X610926D01*
X610034Y152069D01*
X609278Y151564D01*
X604505Y146791D01*
X602674D01*
Y157484D01*
X594534D01*
X594277Y157859D01*
X594948Y159129D01*
X596900D01*
X597792Y159307D01*
X598548Y159812D01*
X606141Y167404D01*
X606955Y166861D01*
X608330Y166587D01*
X609705Y166861D01*
X610871Y167639D01*
X611650Y168805D01*
X611923Y170180D01*
X611650Y171555D01*
X610871Y172721D01*
X609705Y173500D01*
X608330Y173773D01*
X606955Y173500D01*
X605789Y172721D01*
X605548Y172359D01*
X605468D01*
X604576Y172182D01*
X603820Y171677D01*
X595935Y163791D01*
X593910D01*
X592969Y164653D01*
X592924Y164877D01*
Y167234D01*
X592231D01*
Y177379D01*
X592057Y178253D01*
X592271Y178575D01*
X592623Y180340D01*
X592271Y182105D01*
X591272Y183602D01*
X589775Y184601D01*
X588010Y184953D01*
X586442Y184641D01*
X585172Y185222D01*
Y185630D01*
X584791D01*
Y190843D01*
X588467Y194519D01*
X627589D01*
Y186262D01*
D02*
G37*
%LPC*%
G36*
X665090Y301950D02*
X661820D01*
Y297680D01*
X665090D01*
Y301950D01*
D02*
G37*
G36*
X646280D02*
X643010D01*
Y297680D01*
X646280D01*
Y301950D01*
D02*
G37*
G36*
X515620Y302786D02*
Y293340D01*
X525066D01*
X524862Y294887D01*
X523775Y297512D01*
X522046Y299765D01*
X519791Y301495D01*
X517167Y302582D01*
X515620Y302786D01*
D02*
G37*
G36*
X525066Y290800D02*
X515620D01*
Y281354D01*
X517167Y281558D01*
X519791Y282645D01*
X522046Y284375D01*
X523775Y286628D01*
X524862Y289253D01*
X525066Y290800D01*
D02*
G37*
G36*
X665090Y281440D02*
X661820D01*
Y277170D01*
X665090D01*
Y281440D01*
D02*
G37*
G36*
X646280D02*
X643010D01*
Y277170D01*
X646280D01*
Y281440D01*
D02*
G37*
G36*
X606715Y278754D02*
X602589D01*
Y274628D01*
X603480Y274805D01*
X605313Y276030D01*
X606537Y277862D01*
X606715Y278754D01*
D02*
G37*
G36*
X600049D02*
X595923D01*
X596100Y277862D01*
X597325Y276030D01*
X599157Y274805D01*
X600049Y274628D01*
Y278754D01*
D02*
G37*
G36*
X626110Y272498D02*
Y268478D01*
X630130D01*
Y272498D01*
X626110D01*
D02*
G37*
G36*
X612140D02*
X608120D01*
Y268478D01*
X612140D01*
Y272498D01*
D02*
G37*
G36*
X696170Y271228D02*
X692150D01*
Y267208D01*
X696170D01*
Y271228D01*
D02*
G37*
G36*
X683470D02*
X679450D01*
Y267208D01*
X683470D01*
Y271228D01*
D02*
G37*
G36*
X689610D02*
X685590D01*
Y267208D01*
X689610D01*
Y271228D01*
D02*
G37*
G36*
X676910D02*
X672890D01*
Y267208D01*
X676910D01*
Y271228D01*
D02*
G37*
G36*
X630130Y265938D02*
X626110D01*
Y261918D01*
X630130D01*
Y265938D01*
D02*
G37*
G36*
X612140D02*
X608120D01*
Y261918D01*
X612140D01*
Y265938D01*
D02*
G37*
G36*
X618700Y272498D02*
X618280Y272498D01*
X614680D01*
Y267208D01*
Y261918D01*
X618280D01*
X619550Y261918D01*
X619970Y261918D01*
X623570D01*
Y267208D01*
Y272498D01*
X619970D01*
X618700Y272498D01*
D02*
G37*
G36*
X696170Y264668D02*
X692150D01*
Y260648D01*
X696170D01*
Y264668D01*
D02*
G37*
G36*
X689610D02*
X685590D01*
Y260648D01*
X689610D01*
Y264668D01*
D02*
G37*
G36*
X683470D02*
X679450D01*
Y260648D01*
X683470D01*
Y264668D01*
D02*
G37*
G36*
X676910D02*
X672890D01*
Y260648D01*
X676910D01*
Y264668D01*
D02*
G37*
%LPD*%
D12*
X410529Y131126D02*
Y141812D01*
Y131126D02*
X413862D01*
X404860Y131560D02*
X406445D01*
X406879Y131126D02*
X410529D01*
X410510Y141831D02*
Y144660D01*
X406445Y131560D02*
X406879Y131126D01*
X410490Y144680D02*
X410510Y144660D01*
Y141831D02*
X410529Y141812D01*
X108980Y41670D02*
X112432D01*
X202366Y28496D02*
X210820Y36950D01*
X186880Y32256D02*
Y35570D01*
X190640Y28496D02*
X202366D01*
X186880Y32256D02*
X190640Y28496D01*
X186650Y35800D02*
X186880Y35570D01*
X185976Y35800D02*
X186650D01*
X112432Y41670D02*
X118520Y35582D01*
X109220Y41910D02*
X110600D01*
X108980Y41670D02*
X109220Y41910D01*
X93980D02*
X100308Y35582D01*
X524554Y175260D02*
Y185420D01*
X568927Y181069D02*
Y189865D01*
X524554Y175260D02*
X537210D01*
X705126Y31474D02*
X717622D01*
X475615Y225425D02*
X480060Y229870D01*
X472440Y222250D02*
X475615Y225425D01*
X491490Y177810D02*
X498526D01*
X499250Y177086D02*
X501596D01*
X498526Y177810D02*
X499250Y177086D01*
X501596D02*
X504190Y174492D01*
Y172667D02*
Y174492D01*
Y172667D02*
X507947Y168910D01*
X516382D01*
X522732Y175260D01*
X375920Y132560D02*
X387350D01*
X376428Y119380D02*
Y132052D01*
X337319Y87630D02*
X346710D01*
X147320Y156210D02*
X165100D01*
X144780Y153670D02*
X147320Y156210D01*
X189368Y201372D02*
Y202390D01*
X470763Y222250D02*
X472440D01*
X470564Y222052D02*
X470763Y222250D01*
X466593Y222052D02*
X470564D01*
X466395Y222250D02*
X466593Y222052D01*
X462280Y222250D02*
X466395D01*
X480060Y229870D02*
X483108D01*
X484378Y231140D01*
X475615Y225425D02*
X476250Y224790D01*
X665480Y49530D02*
X681990D01*
X584832Y208331D02*
X590065D01*
X575818Y199317D02*
X584832Y208331D01*
X575818Y196850D02*
Y199317D01*
X233680Y93472D02*
Y97790D01*
X225957Y123493D02*
X234367Y115083D01*
X223520Y137160D02*
X225464Y135216D01*
X225957Y123493D02*
Y126893D01*
X225464Y127387D02*
X225957Y126893D01*
X225464Y127387D02*
Y135216D01*
X492760Y237490D02*
X496062Y234188D01*
X726338Y31474D02*
X735194D01*
X725830Y30966D02*
X726338Y31474D01*
X718130Y30966D02*
X725830D01*
X717622Y31474D02*
X718130Y30966D01*
X735194Y31474D02*
X735980Y32260D01*
X633730Y81280D02*
X665480Y49530D01*
X622300Y81280D02*
X633730D01*
X406400Y11430D02*
X411351Y16381D01*
Y16436D01*
X416634Y21719D01*
X427106D01*
X432315Y16510D01*
X433070D01*
X496780Y94698D02*
X506222Y104140D01*
X307131Y77000D02*
X308087Y77956D01*
X306643Y76512D02*
X307131Y77000D01*
X173990Y191770D02*
X182650Y200430D01*
X188426D01*
X189368Y201372D01*
Y202390D02*
X193551D01*
X388350Y131560D02*
X404860D01*
X317485Y77956D02*
X318647Y79117D01*
X308087Y77956D02*
X317485D01*
X318647Y79117D02*
X328807D01*
X337319Y87630D01*
X441280Y207250D02*
Y212250D01*
X130810Y62230D02*
X141478D01*
X130810D02*
X140970Y52070D01*
Y49022D02*
Y52070D01*
X245718Y158142D02*
Y169518D01*
Y158142D02*
X257621Y146239D01*
X263148D01*
X245718Y169518D02*
X246380Y170180D01*
X259080Y167450D02*
X262724Y163806D01*
X624332Y116840D02*
X631190D01*
X642112Y130048D02*
X642620Y129540D01*
X636270Y130048D02*
X642112D01*
X635762Y129540D02*
X636270Y130048D01*
X624332Y129540D02*
X635762D01*
X146050Y91440D02*
X148590Y93980D01*
X144780Y91440D02*
X146050D01*
X126712Y175224D02*
X135585D01*
X124384Y172896D02*
X126712Y175224D01*
X135585D02*
X135771Y175410D01*
X123190Y172720D02*
X123366Y172896D01*
X124384D01*
X246380Y170180D02*
X252730D01*
X255460Y167450D01*
X259080D01*
X568833Y189865D02*
X575818Y196850D01*
X568198Y180340D02*
X568927Y181069D01*
X568927Y189865D02*
X568927Y189865D01*
X568833Y189865D02*
X568927D01*
X612450Y159460D02*
X620700D01*
X621030Y159130D01*
X603650Y92460D02*
X611628D01*
X612648Y91440D01*
X596900Y99210D02*
X603650Y92460D01*
X596900Y99210D02*
Y99460D01*
X589900Y92460D02*
X603650D01*
Y87661D02*
Y92460D01*
Y87661D02*
X606100Y85211D01*
Y84530D02*
Y85211D01*
X305373Y143699D02*
X314452Y134620D01*
X269788Y152298D02*
X275848Y146239D01*
X255270Y118301D02*
Y119380D01*
Y118301D02*
X258131Y115439D01*
Y112000D02*
Y115439D01*
X189368Y203338D02*
Y206930D01*
X190348Y207910D01*
X194531D01*
X180030Y127420D02*
X181610Y125840D01*
X163900Y143700D02*
X165150D01*
X11430Y77978D02*
X12683Y76725D01*
X84270Y27450D02*
Y35950D01*
X191262Y59690D02*
X203080D01*
X188722Y62230D02*
X191262Y59690D01*
X151140Y35570D02*
X153920D01*
X154150Y35800D01*
Y40800D01*
X11430Y76708D02*
X13208Y74930D01*
X24250D01*
X24370Y75050D01*
X60622Y68798D02*
X77470D01*
X57100Y72320D02*
X60622Y68798D01*
X77470D02*
Y69970D01*
X57100Y72320D02*
Y74820D01*
X56870Y75050D02*
X57100Y74820D01*
X54370Y75050D02*
X56870D01*
X77470Y69970D02*
X85090Y77590D01*
X59831Y89344D02*
X60134Y89041D01*
X58588Y89344D02*
X59831D01*
X58112Y89820D02*
X58588Y89344D01*
X54600Y89820D02*
X58112D01*
X54370Y90050D02*
X54600Y89820D01*
X60134Y89041D02*
X70471D01*
X71120Y88392D01*
X23622Y102870D02*
X47498D01*
X81280Y101600D02*
X83968Y98912D01*
Y93712D02*
Y98912D01*
Y93712D02*
X85090Y92590D01*
X59182Y101600D02*
X81280D01*
X154178Y62230D02*
X177038D01*
X153162D02*
X154178D01*
X203080Y59690D02*
X210820Y51950D01*
X184150Y50800D02*
X196422D01*
X196720Y50502D01*
X197910D01*
X199390Y49022D01*
X366500Y33020D02*
X367555Y31965D01*
X362204Y33020D02*
X366500D01*
X158940Y119380D02*
X164370D01*
X693950Y287830D02*
X694786Y288666D01*
X691760Y287830D02*
X693950D01*
X690030Y289560D02*
X691760Y287830D01*
X690030Y278472D02*
X690880Y277622D01*
X690030Y278472D02*
Y289560D01*
X678180Y277622D02*
Y288710D01*
X679030Y289560D01*
X539900Y161460D02*
Y172570D01*
X537210Y175260D02*
X539900Y172570D01*
D15*
X587475Y179804D02*
X589900Y177379D01*
X405122Y121560D02*
X405610Y121072D01*
X404860Y121560D02*
X405122D01*
X397510Y143910D02*
Y146050D01*
X405610Y113430D02*
Y121072D01*
X464820Y137304D02*
Y152544D01*
X445490Y110084D02*
Y113430D01*
X447805Y107769D02*
X452817D01*
X452745Y136560D02*
X454209Y135096D01*
X454454Y109406D02*
Y116634D01*
X471126Y122795D02*
Y139300D01*
X463042Y154323D02*
Y161283D01*
X463344Y162910D02*
Y168559D01*
X458896Y121076D02*
X469407D01*
X463344Y162910D02*
X463550Y162705D01*
X452817Y107769D02*
X454454Y109406D01*
Y116634D02*
X458896Y121076D01*
X468630Y156355D02*
X473202Y151783D01*
X463344Y168559D02*
X465171Y170386D01*
X461010Y133495D02*
X464820Y137304D01*
X473202Y142068D02*
Y151783D01*
X397510Y143910D02*
X404860Y136560D01*
X471126Y139300D02*
X472738Y140912D01*
X451120Y136560D02*
X452745D01*
X454942Y135096D02*
X456543Y133495D01*
X468836Y170386D02*
X471170Y172720D01*
X469407Y121076D02*
X471126Y122795D01*
X471170Y172720D02*
X473710D01*
X463550Y161791D02*
Y162705D01*
X472738Y141604D02*
X473202Y142068D01*
X468630Y156355D02*
Y162705D01*
X472738Y140912D02*
Y141604D01*
X465171Y170386D02*
X468836D01*
X445490Y110084D02*
X447805Y107769D01*
X463042Y154323D02*
X464820Y152544D01*
X463042Y161283D02*
X463550Y161791D01*
X454209Y135096D02*
X454942D01*
X456543Y133495D02*
X461010D01*
X321945Y208280D02*
X322580D01*
X321945Y207645D02*
X335074Y194516D01*
X635996Y190774D02*
X690880Y135890D01*
X635900Y190774D02*
X635996D01*
X632804Y193871D02*
X635900Y190774D01*
X632804Y193871D02*
Y193966D01*
X629920Y196850D02*
X632804Y193966D01*
X321369Y208280D02*
X321945D01*
X556680Y64770D02*
Y86697D01*
Y40720D02*
Y64770D01*
X549910Y66040D02*
X555410D01*
X556680Y64770D01*
X92931Y182372D02*
X93566Y181737D01*
X150842Y261620D02*
X158462Y254000D01*
X405610Y99060D02*
Y113430D01*
X283556Y93576D02*
Y94500D01*
X265131Y112000D02*
X282631Y94500D01*
X258131Y87000D02*
X275131D01*
X283556Y93576D02*
X300131Y77000D01*
X439420Y201750D02*
X440276Y200894D01*
X449967Y212937D02*
X451780Y214750D01*
X549905Y85095D02*
X549910Y85090D01*
X549905Y85095D02*
Y92455D01*
X549900Y92460D02*
X549905Y92455D01*
X543686Y79884D02*
X543797Y79773D01*
X542763Y71120D02*
X543797D01*
X539987Y73897D02*
X542763Y71120D01*
X543797D02*
Y79773D01*
X537447Y73897D02*
X539987D01*
X556114Y87263D02*
X556680Y86697D01*
X562750Y41150D02*
Y69052D01*
X561340Y72390D02*
X562610Y71120D01*
X568036Y65906D02*
Y74584D01*
X574040Y60960D02*
Y63500D01*
X543686Y79884D02*
Y91246D01*
X559900Y82720D02*
X568036Y74584D01*
X559900Y82720D02*
Y92460D01*
X588439Y71961D02*
X632109D01*
X581114Y79286D02*
X588439Y71961D01*
X581114Y79286D02*
Y88496D01*
X556114Y87263D02*
Y91246D01*
X564900Y82030D02*
Y92460D01*
Y82030D02*
X573322Y73608D01*
X519080Y85296D02*
X536719D01*
X534900Y90305D02*
Y92460D01*
X534162Y89567D02*
X534900Y90305D01*
X519119Y89567D02*
X534162D01*
X573322Y64218D02*
Y73608D01*
X569900Y83642D02*
X582676Y70866D01*
X554900Y92460D02*
X556114Y91246D01*
X543686D02*
X544900Y92460D01*
X539162Y87739D02*
Y91722D01*
X536719Y85296D02*
X539162Y87739D01*
Y91722D02*
X539900Y92460D01*
X517809Y86566D02*
X519080Y85296D01*
X554900Y119460D02*
X562400Y126960D01*
X527900Y119460D02*
X554900D01*
X39370Y82550D02*
Y92710D01*
X280558Y36805D02*
X284120D01*
X187150Y24940D02*
X210317D01*
X184610Y27480D02*
X187150Y24940D01*
X152860Y27480D02*
X184610D01*
X210317Y24940D02*
X229173Y43796D01*
X193040Y34290D02*
Y40800D01*
X195928D01*
X184150D02*
X193040D01*
X152400Y27940D02*
X152860Y27480D01*
X195928Y40800D02*
X199390Y37338D01*
X121368Y48216D02*
X121876D01*
X119380Y46228D02*
X121368Y48216D01*
X121876D02*
X125730Y52070D01*
X674370Y30988D02*
X674489Y30869D01*
Y15118D02*
Y30869D01*
X645279Y15118D02*
Y30866D01*
X607060Y67310D02*
X629285D01*
X603250Y63500D02*
X607060Y67310D01*
X598932Y63500D02*
X603250D01*
X629285Y67310D02*
X629920Y66675D01*
X625602Y90170D02*
X629920D01*
X624332Y91440D02*
X625602Y90170D01*
X660550Y271100D02*
X660590Y271060D01*
X587502Y187960D02*
X588010D01*
X579882Y180340D02*
X587502Y187960D01*
X629920Y184820D02*
Y196850D01*
X566114Y169256D02*
X573234Y176376D01*
X459696Y189230D02*
X473688Y175238D01*
X299212Y192532D02*
X299720D01*
X299212D02*
X300990Y190754D01*
X587502Y196850D02*
X629920D01*
X580517Y189865D02*
X587502Y196850D01*
X382270Y45640D02*
X387350Y50720D01*
X501650Y184294D02*
X506012Y188657D01*
X501650Y182880D02*
Y184294D01*
X495676Y191356D02*
X499524D01*
X495164Y191868D02*
X495676Y191356D01*
X485238Y191868D02*
X495164D01*
X497176Y194916D02*
X500799Y198539D01*
X483976Y194916D02*
X497176D01*
X544900Y144460D02*
X562400Y126960D01*
X544900Y144460D02*
Y161460D01*
X389034Y96934D02*
X389890Y97790D01*
X386614Y96934D02*
X389034D01*
X379610Y89930D02*
X386614Y96934D01*
X379610Y87430D02*
Y89930D01*
X576185Y185533D02*
X580517Y189865D01*
X276163Y123887D02*
Y132015D01*
X404724Y87578D02*
X421282D01*
X274893Y116607D02*
Y122617D01*
X398780Y106001D02*
X399565Y106786D01*
X399198Y96139D02*
Y100268D01*
X380576Y111191D02*
X388275D01*
X396079Y94947D02*
Y99076D01*
X385261Y105905D02*
X389250D01*
X396079Y99076D01*
X388275Y111191D02*
X399198Y100268D01*
X399565Y106786D02*
X400156D01*
X384405Y105049D02*
X385261Y105905D01*
X370284Y100899D02*
X380576Y111191D01*
X363949Y86538D02*
X382460Y105049D01*
X384405D01*
X396079Y94947D02*
X396475Y94551D01*
X559985Y161545D02*
Y168825D01*
X399198Y96139D02*
X401663Y93674D01*
X387110Y89930D02*
X387350Y90170D01*
X367895Y116826D02*
Y126636D01*
X366824Y115755D02*
X367895Y116826D01*
X366824Y109571D02*
Y115755D01*
X364847Y118088D02*
Y127898D01*
X361950Y115191D02*
X364847Y118088D01*
X361950Y106680D02*
Y115191D01*
X361799Y119351D02*
Y135419D01*
X358902Y116454D02*
X361799Y119351D01*
X358902Y116098D02*
Y116454D01*
X353294Y110490D02*
X358902Y116098D01*
X358751Y120613D02*
Y125767D01*
X354978Y116840D02*
X358751Y120613D01*
X372110Y87223D02*
X372948Y88062D01*
X370284Y97183D02*
Y100899D01*
X359446Y86345D02*
X370284Y97183D01*
X367236Y98446D02*
Y109158D01*
X356398Y87608D02*
X367236Y98446D01*
X337441Y155831D02*
X351338D01*
X365296Y128347D02*
Y141873D01*
X240236Y198326D02*
X313153D01*
X368344Y127085D02*
Y143135D01*
X371392Y112312D02*
Y144398D01*
X274671Y201724D02*
X314066D01*
X355924Y141294D02*
Y143769D01*
X355344Y144349D02*
X355924Y143769D01*
X351338Y155831D02*
X365296Y141873D01*
X313153Y198326D02*
X368344Y143135D01*
X314066Y201724D02*
X371392Y144398D01*
X355924Y141294D02*
X361799Y135419D01*
X364847Y127898D02*
X365296Y128347D01*
X367895Y126636D02*
X368344Y127085D01*
X320929Y109220D02*
X322580D01*
X313709Y102000D02*
X320929Y109220D01*
X313667Y109803D02*
Y109967D01*
X312328Y108464D02*
X313667Y109803D01*
Y109967D02*
X326890Y123190D01*
X311595Y108464D02*
X312328D01*
X309775Y112488D02*
Y116735D01*
X309287Y112000D02*
X309775Y112488D01*
X307131Y112000D02*
X309287D01*
X330200Y114300D02*
X334842D01*
X375920Y132560D02*
X376428Y132052D01*
X355600Y128918D02*
X358751Y125767D01*
X352530Y135890D02*
X355600Y132820D01*
Y128918D02*
Y132820D01*
X337382Y116840D02*
X354978D01*
X352530Y110490D02*
X353294D01*
X334842Y114300D02*
X337382Y116840D01*
X243505Y80696D02*
X251142D01*
X116840Y104140D02*
Y140970D01*
Y143510D01*
X375920Y62230D02*
X376910D01*
X349347Y63686D02*
X365592Y79930D01*
X348085Y66734D02*
X363949Y82598D01*
Y86538D01*
X346823Y69782D02*
X359446Y82406D01*
Y86345D01*
X345560Y72830D02*
X356398Y83668D01*
Y87608D01*
X360680Y67310D02*
X361891D01*
X376910Y62230D02*
X379610Y64930D01*
X310084Y56301D02*
X335029D01*
X311346Y59349D02*
X333766D01*
X314950Y62397D02*
X332504D01*
X372110Y84930D02*
Y87223D01*
X342486Y72830D02*
X345560D01*
X333843Y64187D02*
X342486Y72830D01*
X343748Y69782D02*
X346823D01*
X336891Y62925D02*
X343748Y69782D01*
X345011Y66734D02*
X348085D01*
X339939Y61662D02*
X345011Y66734D01*
X339939Y61211D02*
Y61662D01*
X335029Y56301D02*
X339939Y61211D01*
X365592Y79930D02*
X372110D01*
X364511Y69930D02*
X372110D01*
X361891Y67310D02*
X364511Y69930D01*
X372110Y74930D02*
X387110D01*
X392107Y74492D02*
X401320Y65278D01*
X387548Y74492D02*
X392107D01*
X387110Y74930D02*
X387548Y74492D01*
X133175Y142065D02*
X144780Y153670D01*
X130133D02*
X144780D01*
X127383Y150921D02*
X130133Y153670D01*
X127002Y150921D02*
X127383D01*
X233703Y250068D02*
X355722D01*
X102870Y163830D02*
X110696Y156004D01*
X125709Y158242D02*
X144272D01*
X123471Y156004D02*
X125709Y158242D01*
X110696Y156004D02*
X123471D01*
X144272Y158242D02*
X165151Y179121D01*
X77470Y127351D02*
X77930Y127810D01*
X83425Y133306D01*
X99060Y156210D02*
X106886Y148384D01*
Y101394D02*
Y148384D01*
X54610Y156210D02*
X99060D01*
X106886Y101394D02*
X128524Y79756D01*
X99060Y130810D02*
X101600D01*
X96520Y128270D02*
X99060Y130810D01*
X87122Y128270D02*
X96520D01*
X130127Y142065D02*
X133175D01*
X129032Y140970D02*
X130127Y142065D01*
X77470Y127351D02*
Y128270D01*
X514764Y63914D02*
X515620Y64770D01*
X512697Y63914D02*
X514764D01*
X512489Y63706D02*
X512697Y63914D01*
X508350Y63706D02*
X512489D01*
X508144Y63500D02*
X508350Y63706D01*
X496570Y63500D02*
X508144D01*
X505460Y50803D02*
Y53340D01*
Y30124D02*
Y50803D01*
X505457Y50800D02*
X505460Y50803D01*
X496570Y50800D02*
X505457D01*
X628650Y183550D02*
X629920Y184820D01*
X628650Y182880D02*
Y183550D01*
X477520Y232410D02*
X480060Y229870D01*
X477520Y232410D02*
Y247650D01*
X468898Y229235D02*
Y230520D01*
Y229235D02*
X469372Y228761D01*
X466499Y232920D02*
X468898Y230520D01*
X458470Y232920D02*
X466499D01*
X401268Y87578D02*
X404724D01*
X405299Y87002D01*
Y86861D02*
Y87002D01*
Y86861D02*
X406400Y85760D01*
Y85090D02*
Y85760D01*
X404274Y212946D02*
X405130Y212090D01*
X404274Y212946D02*
Y214216D01*
X398780Y219710D02*
X404274Y214216D01*
X262128Y192532D02*
X290830Y163830D01*
X262636Y193040D02*
X288290D01*
X262128Y192532D02*
X262636Y193040D01*
X596900Y161460D02*
X605468Y170028D01*
X608178D01*
X608330Y170180D01*
X589900Y161460D02*
X596900D01*
X240030Y198120D02*
X240236Y198326D01*
X292172Y155012D02*
X293926Y153258D01*
X276580Y170605D02*
X292172Y155012D01*
X288290Y180340D02*
X297942Y170688D01*
Y160782D02*
Y170688D01*
X292172Y155012D02*
X297942Y160782D01*
X300990Y158598D02*
Y190754D01*
X297891Y155499D02*
X300990Y158598D01*
X273567Y43796D02*
X280558Y36805D01*
X280285Y54320D02*
X307755D01*
X308228Y53846D02*
X308821Y53253D01*
X307755Y54320D02*
X308228Y53846D01*
Y48642D02*
Y53846D01*
Y48642D02*
X308610Y48260D01*
X279023Y51272D02*
X298450D01*
Y50800D02*
Y51272D01*
Y50800D02*
X340316Y8934D01*
X392474D01*
X338711Y5459D02*
X394970D01*
X295946Y48224D02*
X338711Y5459D01*
X277760Y48224D02*
X295946D01*
X336219Y2411D02*
X482057D01*
X293563Y45066D02*
X336219Y2411D01*
X276607Y45066D02*
X293563D01*
X218109Y181233D02*
X226832Y172509D01*
X230029Y170021D02*
X237490Y162560D01*
X228217Y170021D02*
X230029D01*
X226281Y171958D02*
X228217Y170021D01*
X398167Y14627D02*
X403860Y20320D01*
X392474Y8934D02*
X398167Y14627D01*
X396694Y16100D02*
X398167Y14627D01*
X396230Y16100D02*
X396694D01*
X395290Y17040D02*
X396230Y16100D01*
X394620Y17040D02*
X395290D01*
X313881Y120841D02*
X328930Y135890D01*
X309775Y116735D02*
X313881Y120841D01*
X312006Y122716D02*
X313881Y120841D01*
X310354Y122716D02*
X312006D01*
X309880Y123190D02*
X310354Y122716D01*
X330200Y123190D02*
Y128270D01*
Y123190D02*
X339830D01*
X328930Y135890D02*
X339830D01*
X246380Y63250D02*
X257810D01*
X227580D02*
X246380D01*
Y69850D01*
X299779Y207010D02*
X300990D01*
X298509Y208280D02*
X299779Y207010D01*
X288290Y208280D02*
X298509D01*
X396475Y94551D02*
X400401Y90626D01*
X395444Y93520D02*
X396475Y94551D01*
X395444Y91914D02*
Y93520D01*
X394970Y91440D02*
X395444Y91914D01*
X271094Y240220D02*
X318770D01*
X259080D02*
X271094D01*
Y242979D01*
X273050Y244935D01*
Y245110D01*
X352378Y15923D02*
X354332Y13970D01*
X349837Y15923D02*
X352378D01*
X342900Y22860D02*
X349837Y15923D01*
X85344Y193040D02*
X85852Y193548D01*
X76200Y193040D02*
X85344D01*
X122141Y212090D02*
Y216121D01*
X124460Y218440D01*
X477199Y183829D02*
Y184471D01*
X472440Y189230D02*
X477199Y184471D01*
X453910Y150610D02*
X458990D01*
X448830D02*
X453910D01*
Y156619D01*
X453864Y156665D02*
X453910Y156619D01*
X453864Y156665D02*
Y158276D01*
X453390Y158750D02*
X453864Y158276D01*
X501650Y248092D02*
X509183Y240559D01*
Y235518D02*
Y240559D01*
Y235518D02*
X509428Y235273D01*
X180340Y71120D02*
X194310D01*
X176530Y154940D02*
X180030Y151440D01*
Y142240D02*
Y151440D01*
X208280Y171958D02*
X216121D01*
X204408D02*
X208280D01*
Y165770D02*
Y171958D01*
X207010Y164500D02*
X208280Y165770D01*
X207010Y163830D02*
Y164500D01*
X514714Y243476D02*
X515256D01*
X519430Y247650D01*
X509270Y248920D02*
Y251600D01*
Y248920D02*
X514714Y243476D01*
X307131Y102000D02*
X313709D01*
X326890Y123190D02*
X330200D01*
X310619Y107488D02*
X311595Y108464D01*
X310131Y107000D02*
X310619Y107488D01*
X320464Y101600D02*
X322580D01*
X312980Y94115D02*
X320464Y101600D01*
X312980Y93381D02*
Y94115D01*
X312087Y92488D02*
X312980Y93381D01*
X307619Y92488D02*
X312087D01*
X307131Y92000D02*
X307619Y92488D01*
X320466Y93980D02*
X322580D01*
X313486Y87000D02*
X320466Y93980D01*
X307131Y87000D02*
X313486D01*
X319656Y86360D02*
X322580D01*
X317449Y84153D02*
X319656Y86360D01*
X314950Y84153D02*
X317449D01*
X312796Y82000D02*
X314950Y84153D01*
X307131Y82000D02*
X312796D01*
X236475Y103632D02*
X239382Y100725D01*
X240195D01*
X242433Y98487D01*
X243644D01*
X234950Y243840D02*
X240630D01*
X241900Y245110D01*
X242570D01*
X471428Y200660D02*
X475744Y204976D01*
X471170Y200660D02*
X471428D01*
X49530Y247650D02*
X73660D01*
X120022Y16510D02*
X120650Y15882D01*
Y5080D02*
Y15882D01*
X687276Y25606D02*
Y116489D01*
X681639Y122126D02*
X687276Y116489D01*
X679244Y122126D02*
X681639D01*
X675640Y125730D02*
X679244Y122126D01*
X627033Y149860D02*
X635000D01*
X640080Y154940D01*
X387350Y132560D02*
X388350Y131560D01*
X103730Y56410D02*
Y56924D01*
X104718Y57912D01*
X119380D01*
X129506Y56944D02*
X132080Y54370D01*
X128621Y56944D02*
X129506D01*
X125524Y60040D02*
X128621Y56944D01*
X125524Y60040D02*
Y60926D01*
X120446Y66004D02*
X125524Y60926D01*
X132080Y33020D02*
Y54370D01*
X119631Y66004D02*
X120446D01*
X119596Y66040D02*
X119631Y66004D01*
X97627Y66040D02*
X119596D01*
X122578Y76708D02*
X175624D01*
X80160Y119126D02*
X122578Y76708D01*
X81280Y198120D02*
Y215900D01*
Y198120D02*
X85852Y193548D01*
X75438Y128270D02*
X77470D01*
X92343Y133306D02*
X98285Y139249D01*
X83425Y133306D02*
X92343D01*
X88948Y141526D02*
Y143558D01*
X87122Y139700D02*
X88948Y141526D01*
Y143558D02*
X95250Y149860D01*
X49530Y151130D02*
X64008D01*
X75438Y139700D01*
X58445Y139610D02*
X58640D01*
X54207Y135371D02*
X58445Y139610D01*
X66280Y128270D02*
X75424Y119126D01*
X58640Y135910D02*
X66280Y128270D01*
X482057Y2411D02*
X515826Y36179D01*
X66280Y128270D02*
X75438D01*
X515826Y36179D02*
Y64564D01*
X75424Y119126D02*
X80160D01*
X58640Y135910D02*
Y139610D01*
X93980Y151130D02*
X95250Y149860D01*
X443480Y189230D02*
X452850Y179860D01*
X436880Y189230D02*
X443480D01*
X452850Y179860D02*
X452950D01*
X442604Y194516D02*
X448147Y188974D01*
X335074Y194516D02*
X442604D01*
X448147Y188974D02*
X455140D01*
X455396Y189230D02*
X459696D01*
X455140Y188974D02*
X455396Y189230D01*
X468630Y165100D02*
X473067D01*
X474345Y158115D02*
X476250Y156210D01*
X453763Y145383D02*
X458990Y150610D01*
X441960Y157480D02*
X448830Y150610D01*
X451608Y145383D02*
X453763D01*
X451120Y144895D02*
X451608Y145383D01*
X451120Y144680D02*
Y144895D01*
X321339Y208251D02*
X321369Y208280D01*
X320099Y207010D02*
X321339Y208251D01*
X458681Y75898D02*
X502920D01*
X510334Y83312D02*
Y83469D01*
X502920Y75898D02*
X510334Y83312D01*
X501500Y78946D02*
X512168Y89614D01*
X459944Y78946D02*
X501500D01*
X519072Y89614D02*
X519119Y89567D01*
X512168Y89614D02*
X519072D01*
X513430Y86566D02*
X517809D01*
X510334Y83469D02*
X513430Y86566D01*
X515620Y64770D02*
X515826Y64564D01*
X505460Y53340D02*
X510540Y58420D01*
X128524Y79756D02*
X173651D01*
X175349Y81454D02*
X199381D01*
X173651Y79756D02*
X175349Y81454D01*
X476250Y85090D02*
Y100304D01*
Y85090D02*
X497840D01*
X503472Y90722D01*
X486465Y96465D02*
X490783D01*
X482416Y100514D02*
X486465Y96465D01*
X496062Y218229D02*
X497631Y216660D01*
X233680Y93472D02*
X235523Y91629D01*
X215839D02*
X227842Y103632D01*
X213933Y91629D02*
X215839D01*
X227842Y103632D02*
X236475D01*
X211699Y104211D02*
X224110D01*
X205913Y109997D02*
X211699Y104211D01*
X224110D02*
X226580Y106680D01*
X237737D01*
X240645Y103773D01*
X239622Y109772D02*
X242395Y107000D01*
X258131D01*
X222634Y117259D02*
X230121Y109772D01*
X239622D01*
X222151Y117259D02*
X222634D01*
X219413Y119997D02*
X222151Y117259D01*
X242984Y113886D02*
Y120236D01*
X240645Y103773D02*
X251827D01*
X239220Y84981D02*
X243505Y80696D01*
X208389Y84981D02*
X239220D01*
X496062Y231140D02*
Y234188D01*
X447040Y244604D02*
X458470D01*
X687173Y25503D02*
X687276Y25606D01*
X594281Y75009D02*
X633651D01*
X664840Y43820D01*
X632109Y71961D02*
X645279Y58792D01*
X586114Y83176D02*
X594281Y75009D01*
X664840Y43820D02*
X674489D01*
X645279Y42550D02*
Y58792D01*
X496526Y94698D02*
X496780D01*
X494538Y92710D02*
X496526Y94698D01*
X442687Y107769D02*
X445002Y110084D01*
X355600Y247650D02*
Y249946D01*
X355722Y250068D01*
X223906Y253116D02*
X379344D01*
X319850Y241300D02*
X369760D01*
X372110Y238950D02*
X372113Y238947D01*
X318770Y240220D02*
X319850Y241300D01*
X379344Y253116D02*
X384810Y247650D01*
X369760Y241300D02*
X372110Y238950D01*
X372486Y264029D02*
X377435Y259080D01*
X372486Y264029D02*
Y271064D01*
X361950Y281600D02*
X372486Y271064D01*
X361950Y281600D02*
Y292070D01*
X377691Y259080D02*
X387858Y248913D01*
X377435Y259080D02*
X377691D01*
X246476Y218680D02*
Y225183D01*
X236709Y234950D02*
X246476Y225183D01*
X235870Y208074D02*
X246476Y218680D01*
X165151Y201981D02*
X219710Y256540D01*
X255658Y256492D02*
X255986Y256164D01*
X239642Y256492D02*
X255658D01*
X239314Y256164D02*
X239642Y256492D01*
X230538Y256164D02*
X239314D01*
X230162Y256540D02*
X230538Y256164D01*
X219710Y256540D02*
X230162D01*
X229664Y246029D02*
X233703Y250068D01*
X229664Y241651D02*
Y246029D01*
Y241651D02*
X236364Y234950D01*
X236709D01*
X209550Y238760D02*
X223906Y253116D01*
X234950Y242097D02*
Y243840D01*
X173489Y287020D02*
X182024Y278486D01*
X255986Y256164D02*
X326014D01*
X182024Y278486D02*
X225676D01*
X227474Y280284D01*
X248564D01*
X260350Y292070D01*
X238123Y221447D02*
Y226060D01*
X235322Y218646D02*
X238123Y221447D01*
X233187Y208074D02*
X235870D01*
X226281Y201168D02*
X233187Y208074D01*
X234950Y242097D02*
X253321Y223726D01*
X263320Y225630D02*
X270716Y218234D01*
X275590Y232410D02*
X303057D01*
X501650Y248092D02*
Y254000D01*
X514350Y266700D01*
X514714Y234189D02*
Y243476D01*
X514714Y234189D02*
X514714Y234189D01*
X514714Y197214D02*
Y234189D01*
X514350Y196850D02*
X514714Y197214D01*
X502667Y207815D02*
X507863Y202619D01*
X502062Y198539D02*
X502577Y198024D01*
X500799Y198539D02*
X502062D01*
X507863Y195835D02*
Y202619D01*
X506012Y193984D02*
X507863Y195835D01*
X506012Y188657D02*
Y193984D01*
X483320Y194260D02*
X483976Y194916D01*
X452950Y194260D02*
X483320D01*
X461010Y200660D02*
Y206512D01*
X461748Y207250D01*
X462280D01*
X473688Y175238D02*
Y175238D01*
X434463Y223135D02*
X443432D01*
X451360Y227330D02*
X454962Y230932D01*
X447627Y227330D02*
X451360D01*
X443432Y223135D02*
X447627Y227330D01*
X320040Y209550D02*
X321339Y208251D01*
X300990Y207010D02*
X320099D01*
X258445Y217950D02*
X274671Y201724D01*
X299720Y192532D02*
Y193040D01*
X297891Y154236D02*
Y155499D01*
X296974Y153320D02*
X297891Y154236D01*
X296974Y143365D02*
Y153320D01*
Y143365D02*
X301677Y138663D01*
X304481D01*
X305373Y137770D01*
Y132015D02*
Y137770D01*
X293926Y138232D02*
Y153258D01*
Y138232D02*
X295131Y137027D01*
Y116845D02*
Y137027D01*
X294876Y116590D02*
X295131Y116845D01*
X366446Y227914D02*
X372110Y222250D01*
X257631Y77000D02*
X257810Y76821D01*
Y63250D02*
Y76821D01*
X474980Y257810D02*
Y280640D01*
X463550Y292070D02*
X474980Y280640D01*
X473334Y256164D02*
X474980Y257810D01*
X477199Y183829D02*
X485238Y191868D01*
X499524Y191356D02*
X500380Y190500D01*
X478834Y139079D02*
X482719Y142964D01*
X483870D01*
X473067Y165100D02*
X477199Y169231D01*
Y183829D01*
X471170Y172720D02*
X473688Y175238D01*
X554625Y170940D02*
X562037Y178352D01*
X554625Y161735D02*
X554900Y161460D01*
X587475Y179804D02*
X588010Y180340D01*
X554625Y161735D02*
Y170940D01*
X559911Y168619D02*
Y168751D01*
X559985Y168825D01*
X421078Y96902D02*
X431945Y107769D01*
X424126Y95639D02*
X433208Y104721D01*
X467048D02*
X471170Y108843D01*
X427174Y94377D02*
X434470Y101673D01*
X456045Y100304D02*
X476250D01*
X454675Y101673D02*
X456045Y100304D01*
X434470Y101673D02*
X454675D01*
X433208Y104721D02*
X467048D01*
X431945Y107769D02*
X442687D01*
X476250Y100304D02*
Y114131D01*
X333843Y63736D02*
Y64187D01*
X332504Y62397D02*
X333843Y63736D01*
X333766Y59349D02*
X336891Y62474D01*
X336291Y53253D02*
X342987Y59949D01*
X308821Y53253D02*
X336291D01*
X342987Y59949D02*
Y60400D01*
X336891Y62474D02*
Y62925D01*
X398018Y26162D02*
Y56642D01*
Y26162D02*
X403860Y20320D01*
X387110Y67550D02*
X398018Y56642D01*
X287934Y63464D02*
X313883D01*
X314950Y62397D01*
X283541Y60416D02*
X310280D01*
X311346Y59349D01*
X281548Y57368D02*
X309017D01*
X310084Y56301D01*
X346273Y63686D02*
X349347D01*
X342987Y60400D02*
X346273Y63686D01*
X339830Y109750D02*
Y110490D01*
X439420Y201750D02*
Y203200D01*
X441280Y205060D01*
Y207250D01*
X229680Y46844D02*
X274829D01*
X233318Y49892D02*
X276092D01*
X211349Y71861D02*
X233318Y49892D01*
X229173Y43796D02*
X273567D01*
X198118Y78406D02*
X229680Y46844D01*
X274829D02*
X276607Y45066D01*
X276092Y49892D02*
X277760Y48224D01*
X265619Y64675D02*
X279023Y51272D01*
X270619Y63986D02*
X280285Y54320D01*
X275452Y63464D02*
X281548Y57368D01*
X280131Y63825D02*
X283541Y60416D01*
X285619Y65779D02*
X287934Y63464D01*
X285619Y65779D02*
Y69512D01*
X280131Y63825D02*
Y66869D01*
X199381Y81454D02*
X208974Y71861D01*
X154150Y62202D02*
X154178Y62230D01*
X617684Y111804D02*
X625407D01*
X625657Y111554D01*
X633380D01*
X647186Y108506D02*
X649170Y110490D01*
X620668Y108506D02*
X647186D01*
X620418Y108756D02*
X620668Y108506D01*
X597604Y108756D02*
X620418D01*
X633380Y111554D02*
X637310Y115485D01*
Y115863D01*
X641241Y119794D01*
X645574D01*
X646430Y120650D01*
X201248Y84502D02*
X208897Y76853D01*
X148357Y82804D02*
X150055Y84502D01*
X177322Y78406D02*
X198118D01*
X175624Y76708D02*
X177322Y78406D01*
X150055Y84502D02*
X201248D01*
X116840Y104140D02*
X138176Y82804D01*
X148357D01*
X215921Y74909D02*
X227580Y63250D01*
X387350Y50720D02*
Y54610D01*
X382270Y45640D02*
X384620Y43290D01*
X208897Y76248D02*
X210236Y74909D01*
X208897Y76248D02*
Y76853D01*
X208974Y71861D02*
X211349D01*
X210236Y74909D02*
X215921D01*
X224790Y73660D02*
Y79371D01*
X225363Y79945D01*
X124904Y181910D02*
X135771D01*
X119060Y176066D02*
X124904Y181910D01*
X100043Y176066D02*
X119060D01*
X92710Y217170D02*
X92931Y216949D01*
Y205232D02*
Y216949D01*
X40640Y170180D02*
X54610Y156210D01*
X282631Y94500D02*
X283556D01*
X275131Y87000D02*
X282631Y94500D01*
X300131Y70000D02*
Y77000D01*
X265131Y112000D02*
Y119000D01*
X213182Y218646D02*
X235322D01*
X210436Y215900D02*
X213182Y218646D01*
X190500Y215900D02*
X210436D01*
X226789Y213360D02*
X233680D01*
X226281Y212852D02*
X226789Y213360D01*
X233080Y194910D02*
X235458Y192532D01*
X194531Y194910D02*
X233080D01*
X231954Y191726D02*
X234244Y189436D01*
X211161Y191726D02*
X231954D01*
X229977Y188678D02*
X234506Y184150D01*
X212424Y188678D02*
X229977D01*
X194531Y181910D02*
X196019Y183398D01*
X234244Y189436D02*
X258077D01*
X235458Y192532D02*
X262128D01*
X234506Y184150D02*
X234950D01*
X216121Y212852D02*
X226281D01*
X358140Y175260D02*
X359410D01*
X361717Y172953D01*
X366607D01*
X372110Y167450D01*
X270716Y218234D02*
X380794D01*
X253650Y223726D02*
X258445Y218930D01*
X253321Y223726D02*
X253650D01*
X258445Y217950D02*
Y218930D01*
X303057Y232410D02*
X307553Y227914D01*
X366446D01*
X260350Y266700D02*
X271780Y278130D01*
X323850D01*
X321310Y209550D02*
X322580Y208280D01*
X320040Y209550D02*
X321310D01*
X154940Y214221D02*
Y222250D01*
X147320Y229870D02*
X154940Y222250D01*
X147320Y229870D02*
Y251460D01*
X170180Y254000D02*
X172720Y251460D01*
X158462Y254000D02*
X170180D01*
X127000Y261620D02*
X150842D01*
X243644Y98487D02*
X243667Y98464D01*
X251142Y80696D02*
X252863Y82417D01*
X196850Y96520D02*
X208389Y84981D01*
X196850Y96520D02*
Y142527D01*
X226281Y171958D01*
X490783Y96465D02*
X494538Y92710D01*
X487886Y16861D02*
Y37036D01*
X483596Y12571D02*
X487886Y16861D01*
X481930Y19720D02*
X482600Y19050D01*
X481930Y19720D02*
Y26670D01*
X480924Y5588D02*
X505460Y30124D01*
X447620Y5588D02*
X480924D01*
X466896Y12571D02*
X483596D01*
X463589Y15879D02*
X466896Y12571D01*
X459101Y15879D02*
X463589D01*
X458470Y16510D02*
X459101Y15879D01*
X267861Y139591D02*
X279545D01*
X279849Y139286D01*
X282354D01*
X283210Y138430D01*
X269643Y119000D02*
Y122405D01*
X481667Y19050D02*
X482600D01*
X387110Y67550D02*
Y69930D01*
X582188Y169023D02*
X583686Y167525D01*
X582188Y169023D02*
Y170234D01*
X583686Y165424D02*
Y167525D01*
X584900Y161460D02*
Y164210D01*
X589900Y163914D02*
Y177379D01*
X582188Y170234D02*
X582537D01*
X408432Y76962D02*
X408940Y77470D01*
X314452Y134620D02*
X314960D01*
X269788Y152298D02*
Y153122D01*
X132080Y33020D02*
X135890Y29210D01*
X90730Y58910D02*
X91718Y59898D01*
X92301D02*
X93194Y60791D01*
Y61607D02*
X97627Y66040D01*
X93194Y60791D02*
Y61607D01*
X90730Y56410D02*
Y58910D01*
X91718Y59898D02*
X92301D01*
X265619Y64675D02*
Y66512D01*
X264775Y67357D02*
X265619Y66512D01*
X270619Y63986D02*
Y66512D01*
X269775Y67357D02*
X270619Y66512D01*
X275452Y63464D02*
Y66548D01*
X284120Y34010D02*
Y36805D01*
X281382Y30117D02*
X284120Y32855D01*
Y34010D01*
X224414Y281534D02*
X234950Y292070D01*
X183286Y281534D02*
X224414D01*
X173886Y290934D02*
X183286Y281534D01*
X105193Y290934D02*
X173886D01*
X99060Y287020D02*
X173489D01*
X93980Y292100D02*
X99060Y287020D01*
X93980Y292100D02*
Y296880D01*
X93378Y297482D02*
X93980Y296880D01*
X93378Y297482D02*
Y297982D01*
X89640Y301720D02*
X93378Y297982D01*
X89140Y301720D02*
X89640D01*
X101378Y293982D02*
X102145D01*
X105193Y290934D01*
X100140Y295220D02*
X101378Y293982D01*
X100140Y295220D02*
Y297220D01*
X110426Y294934D02*
X176236D01*
X108140Y297220D02*
X110426Y294934D01*
X176236D02*
X179100Y292070D01*
X209550D01*
X88392Y281940D02*
X166040D01*
X64676Y305656D02*
X88392Y281940D01*
X166040D02*
X196380Y251600D01*
X449868Y256164D02*
X473334D01*
X439025Y245321D02*
X449868Y256164D01*
X439025Y244715D02*
Y245321D01*
X426720Y232410D02*
X439025Y244715D01*
X453050Y266700D02*
X463550D01*
X414188Y227838D02*
X453050Y266700D01*
X412122Y227838D02*
X414188D01*
X407670Y227330D02*
X411614D01*
X412122Y227838D01*
X372110Y222250D02*
Y223520D01*
X372113Y234947D02*
X404622Y202438D01*
X389890Y226060D02*
X390604Y225346D01*
X395032Y228394D02*
X402239D01*
X392080Y231346D02*
X395032Y228394D01*
X390954Y231346D02*
X392080D01*
X384810Y237490D02*
X390954Y231346D01*
X380794Y218234D02*
X381000Y218440D01*
X390604Y225346D02*
X405686D01*
X372113Y234947D02*
Y238947D01*
X384810Y237490D02*
Y247650D01*
X404622Y202438D02*
X414020D01*
X398780Y234950D02*
X400050Y233680D01*
X20437Y305656D02*
X64676D01*
X19544Y304763D02*
X20437Y305656D01*
X19544Y301526D02*
Y304763D01*
X12830Y294812D02*
X19544Y301526D01*
X12830Y293370D02*
Y294812D01*
X24130Y272538D02*
X44830Y293238D01*
X379610Y64930D02*
Y67430D01*
X412750Y281600D02*
X423286Y271064D01*
X406800Y238320D02*
X423286Y254806D01*
Y271064D01*
X412750Y281600D02*
Y292070D01*
X405686Y225346D02*
X407670Y227330D01*
X404986Y231140D02*
X407670D01*
X402239Y228394D02*
X404986Y231140D01*
X398779Y254000D02*
X398780D01*
X397886Y254893D02*
X398779Y254000D01*
X397886Y254893D02*
Y271064D01*
X387350Y281600D02*
X397886Y271064D01*
X387350Y281600D02*
Y292070D01*
X387858Y243762D02*
X393300Y238320D01*
X387858Y243762D02*
Y248913D01*
X405130Y212090D02*
Y216535D01*
X413385Y224790D01*
X427990D01*
X445052Y241852D01*
Y242616D01*
X447040Y244604D01*
X454962Y230932D02*
X456482D01*
X458470Y232920D01*
X425450Y214122D02*
X434463Y223135D01*
X414020Y214122D02*
X419862D01*
X412750D02*
X414020D01*
X407670Y231140D02*
X438150Y261620D01*
X160020Y204470D02*
X209550Y254000D01*
X160020Y180301D02*
Y204470D01*
X209550Y254000D02*
Y266700D01*
X146050Y215900D02*
X147320D01*
X141703Y211553D02*
X146050Y215900D01*
X141703Y209398D02*
Y211553D01*
X139315Y207010D02*
X141703Y209398D01*
X137160Y207010D02*
X139315D01*
X135771Y201410D02*
X142128D01*
X136260Y207910D02*
X137160Y207010D01*
X135771Y207910D02*
X136260D01*
X438150Y261620D02*
Y266700D01*
X326014Y256164D02*
X336550Y266700D01*
X285750Y241300D02*
Y243840D01*
X366824Y109571D02*
X367236Y109158D01*
X144093Y164374D02*
X160020Y180301D01*
X120650Y161290D02*
X137160D01*
X140244Y164374D01*
X144093D01*
X377250Y41640D02*
X384500D01*
X262986Y134716D02*
X267861Y139591D01*
X261874Y133604D02*
X262986Y134716D01*
X261874Y133604D02*
X267764Y127714D01*
X270090Y122042D02*
Y125025D01*
X267764Y127351D02*
X270090Y125025D01*
X267764Y127351D02*
Y127714D01*
X270090Y122042D02*
X270131Y122000D01*
X269643Y122488D02*
X270090Y122042D01*
Y119042D02*
Y122042D01*
Y119042D02*
X270131Y119000D01*
X269560Y122488D02*
X269643Y122405D01*
X269560Y122488D02*
X269643D01*
X270131Y119000D02*
Y122000D01*
X289560Y134620D02*
Y149860D01*
X285131Y130191D02*
X289560Y134620D01*
X285131Y119000D02*
Y130191D01*
X305373Y127573D02*
Y132015D01*
X300131Y122331D02*
X305373Y127573D01*
X300131Y119000D02*
Y122331D01*
X307131Y107000D02*
X310131D01*
X310619Y107488D02*
Y107571D01*
X252863Y82417D02*
X257715D01*
X258131Y82000D01*
X235523Y91629D02*
X257760D01*
X258131Y92000D01*
X243667Y98464D02*
X253751D01*
X254643Y97571D01*
Y97488D02*
Y97571D01*
Y97488D02*
X255131Y97000D01*
X258131D01*
X253112Y102488D02*
X257643D01*
X258131Y102000D01*
X251827Y103773D02*
X253112Y102488D01*
X490498Y166092D02*
Y166322D01*
X490450Y166370D02*
X490498Y166322D01*
X490220Y166370D02*
X490450D01*
X494741Y161846D02*
X534514D01*
X491974Y164613D02*
X494741Y161846D01*
X491974Y164613D02*
Y164616D01*
X490498Y166092D02*
X491974Y164616D01*
X487760Y168830D02*
X490220Y166370D01*
X394674Y126560D02*
X404860D01*
X388112Y119998D02*
X394674Y126560D01*
X388112Y119380D02*
Y119998D01*
X396240Y108541D02*
Y120650D01*
Y108541D02*
X398780Y106001D01*
X400401Y90626D02*
X420019D01*
X401663Y93674D02*
X418757D01*
X100330Y160020D02*
X116840Y143510D01*
X67455Y160020D02*
X100330D01*
X50854Y176621D02*
X67455Y160020D01*
X71120Y163830D02*
X102870D01*
X64770Y170180D02*
X71120Y163830D01*
X40640Y170180D02*
Y181610D01*
X285131Y70000D02*
X285619Y69512D01*
X274320Y163830D02*
X275590D01*
X289560Y149860D01*
X394970Y5459D02*
X395099Y5588D01*
X417242D01*
X461047Y22731D02*
X466925Y16853D01*
X454531Y22731D02*
X461047D01*
X449524Y17724D02*
X454531Y22731D01*
X417242Y5588D02*
X417371Y5459D01*
X447491D01*
X447620Y5588D01*
X455853Y83037D02*
X459944Y78946D01*
X457109Y77470D02*
X458681Y75898D01*
X436674Y80483D02*
X439687Y77470D01*
X457109D01*
X573322Y64218D02*
X574040Y63500D01*
X569900Y83642D02*
Y92460D01*
X582676Y70866D02*
X587248Y66294D01*
X580390Y68580D02*
X582676Y70866D01*
X587248Y63500D02*
Y66294D01*
X562978Y69280D02*
X563180D01*
X562750Y69052D02*
X562978Y69280D01*
X562750Y41150D02*
X563180Y40720D01*
X559900Y161460D02*
X559985Y161545D01*
X474174Y138038D02*
X475786Y139649D01*
Y140341D02*
X476250Y140805D01*
X475786Y139649D02*
Y140341D01*
X478834Y138387D02*
Y139079D01*
X476250Y140805D02*
Y156210D01*
X477222Y136775D02*
X478834Y138387D01*
X477222Y115103D02*
Y136775D01*
X474174Y121533D02*
Y138038D01*
X476250Y114131D02*
X477222Y115103D01*
X471170Y118529D02*
X474174Y121533D01*
X471170Y108843D02*
Y118529D01*
X589900Y163914D02*
X590638Y164652D01*
X589900Y161460D02*
Y163914D01*
X573234Y176376D02*
Y182425D01*
X566114Y165424D02*
Y169256D01*
X583686Y165424D02*
X584900Y164210D01*
X313690Y144780D02*
X314702D01*
X317371Y142111D01*
X342407D01*
X302260Y151130D02*
X332740D01*
X337441Y155831D01*
X346051Y129669D02*
Y138467D01*
X342407Y142111D02*
X346051Y138467D01*
Y129669D02*
X352530Y123190D01*
X387110Y84930D02*
Y89930D01*
Y84930D02*
X398620D01*
X401268Y87578D01*
X398352Y79930D02*
X401320Y76962D01*
X387110Y79930D02*
X398352D01*
X421282Y87578D02*
X427174Y93470D01*
Y94377D01*
X421078Y95995D02*
Y96902D01*
X418757Y93674D02*
X421078Y95995D01*
X424126Y94733D02*
Y95639D01*
X420019Y90626D02*
X424126Y94733D01*
X165151Y179121D02*
Y201981D01*
X45073Y173367D02*
X48260Y170180D01*
X45073Y173367D02*
Y177371D01*
X40835Y181610D02*
X45073Y177371D01*
X40640Y181610D02*
X40835D01*
X50854Y176621D02*
Y196034D01*
X194531Y181910D02*
X205656D01*
X212424Y188678D01*
X207845Y188410D02*
X211161Y191726D01*
X194531Y188410D02*
X207845D01*
X258077Y189436D02*
X276580Y170933D01*
Y170605D02*
Y170933D01*
X200956Y174110D02*
Y175410D01*
X202444Y173922D02*
X204408Y171958D01*
X201144Y173922D02*
X202444D01*
X200956Y174110D02*
X201144Y173922D01*
X218109Y185043D02*
Y185464D01*
X37338Y209550D02*
X50854Y196034D01*
X564900Y164210D02*
X566114Y165424D01*
X564900Y161460D02*
Y164210D01*
X566210Y178352D02*
X568198Y180340D01*
X562037Y178352D02*
X566210D01*
X420490Y111305D02*
Y113430D01*
X420002Y110817D02*
X420490Y111305D01*
X419993Y110817D02*
X420002D01*
X419993Y103763D02*
Y110817D01*
X419100Y68580D02*
X421640Y66040D01*
X415290Y68580D02*
X419100D01*
X478236Y15619D02*
X481667Y19050D01*
X466925Y16853D02*
X466937D01*
X468171Y15619D01*
X478236D01*
X446984Y17724D02*
X449524D01*
X445770Y16510D02*
X446984Y17724D01*
X612648Y116840D02*
X617684Y111804D01*
X596900Y109460D02*
X597604Y108756D01*
X607060Y123190D02*
X637540D01*
X621143Y135084D02*
X656126D01*
X616791Y130732D02*
X621143Y135084D01*
X613840Y130732D02*
X616791D01*
X621928Y141732D02*
X636270D01*
X620530Y143130D02*
X621928Y141732D01*
X616792Y139392D02*
X620530Y143130D01*
X616792Y138892D02*
Y139392D01*
X612476Y134576D02*
X616792Y138892D01*
X626977Y149916D02*
X627033Y149860D01*
X610926Y149916D02*
X626977D01*
X605470Y144460D02*
X610926Y149916D01*
X612648Y129540D02*
X613840Y130732D01*
X597016Y134576D02*
X612476D01*
X596900Y134460D02*
X597016Y134576D01*
X596900Y144460D02*
X605470D01*
X673564Y65234D02*
Y117646D01*
X432460Y86970D02*
Y87430D01*
Y85275D02*
Y86970D01*
X419100Y80010D02*
X425040D01*
X428067Y83037D01*
X430222D01*
X432460Y85275D01*
X690880Y71360D02*
Y135890D01*
Y71360D02*
X721980Y40260D01*
X503472Y90722D02*
X504234D01*
X506222Y92710D01*
X367555Y31965D02*
X368610Y30910D01*
X164370Y119380D02*
X165910Y117840D01*
X84230Y56410D02*
Y57112D01*
X83242Y58100D02*
X84230Y57112D01*
X70260Y58100D02*
X83242D01*
X274643Y116357D02*
X274893Y116607D01*
Y122617D02*
X276163Y123887D01*
X415490Y144680D02*
Y175260D01*
X410567Y170660D02*
Y172877D01*
X397950Y170660D02*
X410567D01*
X415290Y99060D02*
X419993Y103763D01*
X414810Y99060D02*
X415290D01*
X437950Y174498D02*
Y175260D01*
Y173105D02*
Y174498D01*
X421640Y147955D02*
Y159950D01*
X420490Y146805D02*
X421640Y147955D01*
X420490Y144680D02*
Y146805D01*
X421640Y159950D02*
X429450Y167760D01*
X430450D01*
X431557Y168867D01*
X433712D01*
X437950Y173105D01*
X412950Y175260D02*
X415490D01*
X410567Y172877D02*
X412950Y175260D01*
X442188Y170260D02*
X452950D01*
X437950Y174498D02*
X442188Y170260D01*
X676496Y65626D02*
X680720Y69850D01*
X673956Y65626D02*
X676496D01*
X673564Y65234D02*
X673956Y65626D01*
X651510Y86360D02*
X668528D01*
X452950Y170260D02*
Y170660D01*
X102870Y205453D02*
X103091Y205232D01*
X102870Y205453D02*
Y213360D01*
X45116Y238094D02*
X74930Y208280D01*
X45116Y238094D02*
Y238382D01*
X35848Y247650D02*
X45116Y238382D01*
X24130Y247650D02*
X35848D01*
X44830Y293238D02*
Y293370D01*
X24130Y247650D02*
Y272538D01*
X142128Y201410D02*
X154940Y214221D01*
X81280Y215900D02*
X127000Y261620D01*
X85852Y193548D02*
X92931D01*
X49530Y247650D02*
X81280Y215900D01*
X194531Y201410D02*
X194773Y201168D01*
X216121D01*
X216881Y201928D01*
X225520D01*
X226281Y201168D01*
X89419Y176066D02*
X100043D01*
X120559Y188410D02*
X135771D01*
X113251Y181102D02*
X120559Y188410D01*
X102236Y180108D02*
X104085D01*
X100043Y176066D02*
X101242Y177266D01*
Y179114D01*
X102236Y180108D01*
X82771Y169418D02*
X89419Y176066D01*
X92931Y169418D02*
X103091D01*
X113251D01*
X134409Y193548D02*
X135771Y194910D01*
X113251Y193548D02*
X134409D01*
X92931Y181102D02*
X93566Y181737D01*
X92931Y182372D02*
Y193548D01*
X87851Y181610D02*
X88359Y181102D01*
X83279Y181610D02*
X87851D01*
X82771Y181102D02*
X83279Y181610D01*
X88359Y181102D02*
X92931D01*
Y193548D02*
X103091D01*
X113251D01*
X109949Y212090D02*
X122141D01*
X126320Y207910D02*
X135771D01*
X122141Y212090D02*
X126320Y207910D01*
X103091Y205232D02*
X109949Y212090D01*
X113251Y205232D02*
X117073Y201410D01*
X135771D01*
X30992Y151130D02*
X49530D01*
X12832Y169290D02*
X30992Y151130D01*
X15240Y170560D02*
X15372D01*
X35312Y130810D02*
X49840D01*
X54207Y135177D01*
Y135371D01*
X12832Y153290D02*
X35312Y130810D01*
X12700Y153290D02*
X12832D01*
X43759Y145358D02*
X49530Y151130D01*
X43759Y142729D02*
Y145358D01*
X40640Y139610D02*
X43759Y142729D01*
X41375Y182880D02*
X43180D01*
X37695Y186560D02*
X41375Y182880D01*
X15240Y186560D02*
X37695D01*
X12830Y239900D02*
Y293370D01*
Y239900D02*
X17780Y234950D01*
X36830D01*
X37338Y234442D01*
Y209550D02*
Y234442D01*
X500520Y210820D02*
X502667Y208673D01*
Y207815D02*
Y208673D01*
X489501Y210820D02*
X500520D01*
X483661Y216660D02*
X489501Y210820D01*
X483661Y204976D02*
X497631D01*
X430486Y210425D02*
Y211058D01*
X429147Y209086D02*
X430486Y210425D01*
X428514Y209086D02*
X429147D01*
X427438Y208010D02*
X428514Y209086D01*
X427438Y204426D02*
Y208010D01*
X430486Y211058D02*
X436387Y216958D01*
X440988D01*
X441280Y217250D01*
X425450Y202438D02*
X427438Y204426D01*
X462440Y212090D02*
X468630D01*
X462280Y212250D02*
X462440Y212090D01*
X468630D02*
X475744Y204976D01*
X483661D01*
X462280Y217250D02*
X462870Y216660D01*
X483661D01*
X414020Y202438D02*
X425450D01*
X419862Y214122D02*
X420370Y214630D01*
X424942D01*
X425450Y214122D01*
X537210Y73660D02*
X537447Y73897D01*
X673100Y60960D02*
X673564Y65234D01*
X445770Y29210D02*
Y39370D01*
X432460Y52680D02*
X445770Y39370D01*
X656126Y135084D02*
X673564Y117646D01*
X599666Y49756D02*
X614680Y60960D01*
X571726Y49756D02*
X599666D01*
X570230Y48260D02*
X571726Y49756D01*
X570230Y41270D02*
Y48260D01*
X569680Y40720D02*
X570230Y41270D01*
X464620Y87430D02*
X464820Y87630D01*
X451460Y87430D02*
X464620D01*
X432460Y52680D02*
Y62430D01*
X451460Y36220D02*
X458470Y29210D01*
X451460Y36220D02*
Y62430D01*
X436674Y80483D02*
Y81299D01*
X435781Y82192D02*
X436674Y81299D01*
X434698Y82192D02*
X435781D01*
X434340Y82550D02*
X434698Y82192D01*
X434340Y82550D02*
Y85090D01*
X432460Y86970D02*
X434340Y85090D01*
X453698Y83037D02*
X455853D01*
X451460Y85275D02*
X453698Y83037D01*
X451460Y85275D02*
Y87430D01*
X586114Y83176D02*
Y88496D01*
X584900Y89710D02*
X586114Y88496D01*
X584900Y89710D02*
Y92460D01*
X579900Y89710D02*
X581114Y88496D01*
X579900Y89710D02*
Y92460D01*
X576185Y185376D02*
Y185533D01*
X573234Y182425D02*
X576185Y185376D01*
X499762Y135382D02*
X500380Y136000D01*
X483870Y135382D02*
X499762D01*
X518928Y118110D02*
X521364Y115674D01*
X523936D01*
X525150Y114460D01*
X527900D01*
X500490Y118110D02*
X518928D01*
X500380Y118000D02*
X500490Y118110D01*
X505858Y136000D02*
X517398Y124460D01*
X527900D01*
X500380Y136000D02*
X505858D01*
X518995Y92710D02*
X525745Y99460D01*
X506222Y92710D02*
X518995D01*
X525745Y99460D02*
X527900D01*
X650240Y85090D02*
X651510Y86360D01*
X650040Y85290D02*
X650240Y85090D01*
X648970Y85290D02*
X650040D01*
X649170Y110490D02*
X668528D01*
X639452Y89528D02*
X642577D01*
X624520Y104460D02*
X639452Y89528D01*
X596900Y104460D02*
X624520D01*
X642577Y89528D02*
X646815Y85290D01*
X648970D01*
X525150Y154460D02*
X527900D01*
X523800Y155810D02*
X525150Y154460D01*
X497760Y155810D02*
X523800D01*
X534514Y161846D02*
X534900Y161460D01*
X487760Y168830D02*
Y169310D01*
X603330Y119460D02*
X607060Y123190D01*
X596900Y119460D02*
X603330D01*
X610268Y114460D02*
X612648Y116840D01*
X596900Y114460D02*
X610268D01*
X596900Y129460D02*
X596980Y129540D01*
X612648D01*
X527900Y104460D02*
Y109460D01*
X527580Y104140D02*
X527900Y104460D01*
X506222Y104140D02*
X527580D01*
D18*
X372110Y167450D02*
D03*
Y238950D02*
D03*
D19*
X259080D02*
D03*
Y167450D02*
D03*
X317500D02*
D03*
Y238950D02*
D03*
D20*
X135771Y207910D02*
D03*
Y201410D02*
D03*
Y194910D02*
D03*
Y188410D02*
D03*
Y181910D02*
D03*
Y175410D02*
D03*
Y168910D02*
D03*
X194531D02*
D03*
Y175410D02*
D03*
Y181910D02*
D03*
Y188410D02*
D03*
Y194910D02*
D03*
Y201410D02*
D03*
Y207910D02*
D03*
D21*
X624840Y278892D02*
D03*
Y267208D02*
D03*
X613410D02*
D03*
Y278892D02*
D03*
X678180Y277622D02*
D03*
Y265938D02*
D03*
X690880Y277622D02*
D03*
Y265938D02*
D03*
X645279Y30866D02*
D03*
Y42550D02*
D03*
X674370Y30988D02*
D03*
Y42672D02*
D03*
X636270Y130048D02*
D03*
Y141732D02*
D03*
X497631Y204976D02*
D03*
Y216660D02*
D03*
X483661D02*
D03*
Y204976D02*
D03*
X458470Y244604D02*
D03*
Y232920D02*
D03*
X447040D02*
D03*
Y244604D02*
D03*
X425450Y202438D02*
D03*
Y214122D02*
D03*
X414020D02*
D03*
Y202438D02*
D03*
X483870Y123698D02*
D03*
Y135382D02*
D03*
X466090Y114808D02*
D03*
Y126492D02*
D03*
X401320Y65278D02*
D03*
Y76962D02*
D03*
X328807Y79117D02*
D03*
Y67433D02*
D03*
X318647D02*
D03*
Y79117D02*
D03*
X305373Y143699D02*
D03*
Y132015D02*
D03*
X275848Y146239D02*
D03*
Y134555D02*
D03*
X263148D02*
D03*
Y146239D02*
D03*
X234950Y114808D02*
D03*
Y126492D02*
D03*
X235523Y91629D02*
D03*
Y79945D02*
D03*
X225363Y91629D02*
D03*
Y79945D02*
D03*
X213933D02*
D03*
Y91629D02*
D03*
X199390Y49022D02*
D03*
Y37338D02*
D03*
X140970Y49022D02*
D03*
Y37338D02*
D03*
X119380Y57912D02*
D03*
Y46228D02*
D03*
X118520Y35582D02*
D03*
Y23898D02*
D03*
X70260Y35582D02*
D03*
Y23898D02*
D03*
X71120Y88392D02*
D03*
Y76708D02*
D03*
X11430Y88392D02*
D03*
Y76708D02*
D03*
X113251Y169418D02*
D03*
Y181102D02*
D03*
X103091D02*
D03*
Y169418D02*
D03*
X92931D02*
D03*
Y181102D02*
D03*
X82771D02*
D03*
Y169418D02*
D03*
X113251Y205232D02*
D03*
Y193548D02*
D03*
X103091Y205232D02*
D03*
Y193548D02*
D03*
X92931D02*
D03*
Y205232D02*
D03*
X226281Y183642D02*
D03*
Y171958D02*
D03*
X216121Y183642D02*
D03*
Y171958D02*
D03*
X226281Y212852D02*
D03*
Y201168D02*
D03*
X216121D02*
D03*
Y212852D02*
D03*
D22*
X647550Y296410D02*
D03*
X654050D02*
D03*
X660550D02*
D03*
X647550Y282710D02*
D03*
X654050D02*
D03*
X660550D02*
D03*
D23*
X664050Y289560D02*
D03*
X644050D02*
D03*
D24*
X679030D02*
D03*
X690030D02*
D03*
X614260D02*
D03*
X625260D02*
D03*
D25*
X731910Y302260D02*
D03*
X748910D02*
D03*
D26*
X393300Y238320D02*
D03*
X406800D02*
D03*
Y246820D02*
D03*
X393300D02*
D03*
D27*
X400050Y238320D02*
D03*
Y246820D02*
D03*
D28*
X73660Y247650D02*
D03*
X120650Y5080D02*
D03*
X207010Y163830D02*
D03*
X246380Y69850D02*
D03*
X288290Y208280D02*
D03*
X394970Y91440D02*
D03*
X273050Y245110D02*
D03*
X342900Y22860D02*
D03*
X76200Y193040D02*
D03*
X124460Y218440D02*
D03*
X472440Y189230D02*
D03*
X453390Y158750D02*
D03*
X194310Y71120D02*
D03*
X173990Y154940D02*
D03*
X308610Y48260D02*
D03*
X237490Y162560D02*
D03*
X394620Y17040D02*
D03*
X309880Y123190D02*
D03*
X330200Y128270D02*
D03*
X288290Y193040D02*
D03*
Y180340D02*
D03*
X468579Y226845D02*
D03*
X398780Y219710D02*
D03*
X608330Y170180D02*
D03*
X471170Y200660D02*
D03*
X477520Y247650D02*
D03*
X496570Y63500D02*
D03*
Y50800D02*
D03*
X628650Y182880D02*
D03*
X406400Y85090D02*
D03*
X519430Y247650D02*
D03*
X242570Y245110D02*
D03*
X537210Y73660D02*
D03*
X549910Y66040D02*
D03*
X580390Y68580D02*
D03*
X680720Y69850D02*
D03*
X637540Y123190D02*
D03*
X640080Y154940D02*
D03*
X481930Y26670D02*
D03*
X464820Y87630D02*
D03*
X419100Y80010D02*
D03*
X415290Y68580D02*
D03*
D29*
X322580Y109220D02*
D03*
Y101600D02*
D03*
Y93980D02*
D03*
Y86360D02*
D03*
D30*
X550180Y40720D02*
D03*
X556680D02*
D03*
X563180D02*
D03*
X569680D02*
D03*
X576180D02*
D03*
D31*
X531680Y39470D02*
D03*
X594680D02*
D03*
D32*
X523180Y13970D02*
D03*
X603180D02*
D03*
D33*
X551180D02*
D03*
X575180D02*
D03*
D34*
X587248Y63500D02*
D03*
X598932D02*
D03*
X624332Y129540D02*
D03*
X612648D02*
D03*
Y116840D02*
D03*
X624332D02*
D03*
Y91440D02*
D03*
X612648D02*
D03*
X680212Y85090D02*
D03*
X668528D02*
D03*
X680212Y110490D02*
D03*
X668528D02*
D03*
X579882Y180340D02*
D03*
X568198D02*
D03*
X568833Y189865D02*
D03*
X580517D02*
D03*
X512870Y175260D02*
D03*
X524554D02*
D03*
X512870Y185420D02*
D03*
X524554D02*
D03*
X496062Y231140D02*
D03*
X484378D02*
D03*
X376428Y119380D02*
D03*
X388112D02*
D03*
X494538Y104140D02*
D03*
X506222D02*
D03*
X494538Y92710D02*
D03*
X506222D02*
D03*
X353568Y13970D02*
D03*
X365252D02*
D03*
X141478Y62230D02*
D03*
X153162D02*
D03*
X47498Y102870D02*
D03*
X59182D02*
D03*
X11938D02*
D03*
X23622D02*
D03*
X129032Y140970D02*
D03*
X117348D02*
D03*
X87122Y128270D02*
D03*
X75438D02*
D03*
Y139700D02*
D03*
X87122D02*
D03*
X177038Y62230D02*
D03*
X188722D02*
D03*
D35*
X674489Y15118D02*
D03*
X645279D02*
D03*
D36*
X648970Y110290D02*
D03*
Y85290D02*
D03*
D37*
X621030Y159130D02*
D03*
Y143130D02*
D03*
X119140Y301720D02*
D03*
X89140D02*
D03*
D38*
X562400Y126960D02*
D03*
D39*
X589900Y92460D02*
D03*
X584900D02*
D03*
X579900D02*
D03*
X574900D02*
D03*
X569900D02*
D03*
X564900D02*
D03*
X559900D02*
D03*
X554900D02*
D03*
X549900D02*
D03*
X544900D02*
D03*
X539900D02*
D03*
X534900D02*
D03*
Y161460D02*
D03*
X539900D02*
D03*
X544900D02*
D03*
X549900D02*
D03*
X554900D02*
D03*
X559900D02*
D03*
X564900D02*
D03*
X569900D02*
D03*
X574900D02*
D03*
X579900D02*
D03*
X584900D02*
D03*
X589900D02*
D03*
D40*
X527900Y99460D02*
D03*
Y104460D02*
D03*
Y109460D02*
D03*
Y114460D02*
D03*
Y119460D02*
D03*
Y124460D02*
D03*
Y129460D02*
D03*
Y134460D02*
D03*
Y139460D02*
D03*
Y144460D02*
D03*
Y149460D02*
D03*
Y154460D02*
D03*
X596900D02*
D03*
Y149460D02*
D03*
Y144460D02*
D03*
Y139460D02*
D03*
Y134460D02*
D03*
Y129460D02*
D03*
Y124460D02*
D03*
Y119460D02*
D03*
Y114460D02*
D03*
Y109460D02*
D03*
Y104460D02*
D03*
Y99460D02*
D03*
D41*
X441280Y222250D02*
D03*
Y217250D02*
D03*
Y212250D02*
D03*
Y207250D02*
D03*
X462280D02*
D03*
Y212250D02*
D03*
Y217250D02*
D03*
Y222250D02*
D03*
D42*
X451780Y214750D02*
D03*
D43*
X387350Y141760D02*
D03*
Y132560D02*
D03*
X377190Y140490D02*
D03*
Y131290D02*
D03*
X397950Y179860D02*
D03*
Y170660D02*
D03*
X452950Y179860D02*
D03*
Y170660D02*
D03*
D44*
X437950Y175260D02*
D03*
X412950D02*
D03*
D45*
X405490Y144680D02*
D03*
X404860Y113430D02*
D03*
X410490D02*
D03*
X415490D02*
D03*
X420490D02*
D03*
X425490D02*
D03*
X430490D02*
D03*
X435490D02*
D03*
X440490D02*
D03*
X445490D02*
D03*
X450620D02*
D03*
X451120Y144680D02*
D03*
X445490D02*
D03*
X440490D02*
D03*
X435490D02*
D03*
X430490D02*
D03*
X425490D02*
D03*
X420490D02*
D03*
X415490D02*
D03*
X410490D02*
D03*
D46*
X404860Y136560D02*
D03*
Y131560D02*
D03*
Y126560D02*
D03*
Y121560D02*
D03*
X451120D02*
D03*
Y126560D02*
D03*
Y131560D02*
D03*
Y136560D02*
D03*
D47*
X487760Y169310D02*
D03*
Y155810D02*
D03*
X497760D02*
D03*
Y169310D02*
D03*
D48*
X500380Y118000D02*
D03*
Y136000D02*
D03*
X384620Y25290D02*
D03*
Y43290D02*
D03*
X181610Y107840D02*
D03*
Y125840D02*
D03*
D49*
X451460Y62430D02*
D03*
X441960D02*
D03*
X432460D02*
D03*
Y87430D02*
D03*
X441960D02*
D03*
X451460D02*
D03*
D50*
X433070Y16510D02*
D03*
Y29210D02*
D03*
X445770Y16510D02*
D03*
Y29210D02*
D03*
X458470Y16510D02*
D03*
Y29210D02*
D03*
X352530Y110490D02*
D03*
X339830D02*
D03*
X352530Y123190D02*
D03*
X339830D02*
D03*
X352530Y135890D02*
D03*
X339830D02*
D03*
D51*
X372110Y84930D02*
D03*
Y69930D02*
D03*
X387110D02*
D03*
Y84930D02*
D03*
X154150Y50800D02*
D03*
Y45800D02*
D03*
Y40800D02*
D03*
Y35800D02*
D03*
X184150D02*
D03*
Y40800D02*
D03*
Y45800D02*
D03*
Y50800D02*
D03*
X24370Y90050D02*
D03*
Y85050D02*
D03*
Y80050D02*
D03*
Y75050D02*
D03*
X54370D02*
D03*
Y80050D02*
D03*
Y85050D02*
D03*
Y90050D02*
D03*
D52*
X372110Y79930D02*
D03*
Y74930D02*
D03*
X387110D02*
D03*
Y79930D02*
D03*
D53*
X379610Y67430D02*
D03*
Y87430D02*
D03*
X103730Y56410D02*
D03*
X97230D02*
D03*
X90730D02*
D03*
X84230D02*
D03*
Y27410D02*
D03*
X90730D02*
D03*
X97230D02*
D03*
X103730D02*
D03*
D54*
X351470Y57150D02*
D03*
X366970D02*
D03*
D55*
X361950Y29020D02*
D03*
X357950D02*
D03*
X361950Y33020D02*
D03*
X357950D02*
D03*
X361950Y37020D02*
D03*
X357950D02*
D03*
X158940Y115380D02*
D03*
X154940D02*
D03*
X158940Y119380D02*
D03*
X154940D02*
D03*
X158940Y123380D02*
D03*
X154940D02*
D03*
D56*
X258131Y112000D02*
D03*
Y107000D02*
D03*
Y102000D02*
D03*
Y97000D02*
D03*
Y92000D02*
D03*
Y87000D02*
D03*
Y82000D02*
D03*
Y77000D02*
D03*
X307131D02*
D03*
Y82000D02*
D03*
Y87000D02*
D03*
Y92000D02*
D03*
Y97000D02*
D03*
Y102000D02*
D03*
Y107000D02*
D03*
Y112000D02*
D03*
D57*
X265131Y70000D02*
D03*
X270131D02*
D03*
X275131D02*
D03*
X280131D02*
D03*
X285131D02*
D03*
X290131D02*
D03*
X295131D02*
D03*
X300131D02*
D03*
Y119000D02*
D03*
X295131D02*
D03*
X290131D02*
D03*
X285131D02*
D03*
X280131D02*
D03*
X275131D02*
D03*
X270131D02*
D03*
X265131D02*
D03*
D58*
X282631Y94500D02*
D03*
D59*
X205913Y109997D02*
D03*
X219413D02*
D03*
Y119997D02*
D03*
X205913D02*
D03*
D60*
X151800Y97980D02*
D03*
X161000D02*
D03*
X405610Y99060D02*
D03*
X414810D02*
D03*
D61*
X298120Y5510D02*
D03*
Y27510D02*
D03*
X225120Y5510D02*
D03*
Y27510D02*
D03*
D62*
X284120Y34010D02*
D03*
X269120D02*
D03*
X239120D02*
D03*
D63*
X210820Y36950D02*
D03*
Y51950D02*
D03*
X85090Y77590D02*
D03*
Y92590D02*
D03*
D64*
X169150Y43300D02*
D03*
X39370Y82550D02*
D03*
D65*
X93980Y41910D02*
D03*
D66*
X70260Y47100D02*
D03*
Y58100D02*
D03*
D67*
X148900Y143700D02*
D03*
X163900D02*
D03*
D68*
X100140Y297220D02*
D03*
X108140D02*
D03*
D133*
X420874Y130303D02*
X426758D01*
X412131Y121560D02*
X420874Y130303D01*
X405122Y121560D02*
X412131D01*
X425490Y113430D02*
Y127962D01*
Y133478D02*
Y144680D01*
X679448Y85090D02*
X680720Y83818D01*
X483870Y114808D02*
Y123698D01*
Y114808D02*
X485394Y113284D01*
X375920Y141760D02*
X381635D01*
X320040Y71120D02*
X323727Y67433D01*
X311150Y71120D02*
X320040D01*
X63500Y80010D02*
X67818D01*
X512870Y185420D02*
X518160Y190710D01*
X512870Y175260D02*
Y185420D01*
X348845Y94475D02*
Y100735D01*
X339830Y109750D02*
X348845Y100735D01*
Y94475D02*
X353060Y90260D01*
Y85000D02*
Y90260D01*
X344192Y76132D02*
X353060Y85000D01*
X341118Y76132D02*
X344192D01*
X340293Y75307D02*
X341118Y76132D01*
X336550Y74930D02*
X336927Y75307D01*
X496062Y218229D02*
Y231140D01*
X237682Y125538D02*
X242984Y120236D01*
X234663Y175260D02*
X238760D01*
X226281Y183642D02*
X234663Y175260D01*
X462128Y113074D02*
X464356D01*
X466090Y114808D01*
X464820Y238760D02*
X466090Y240030D01*
X452880Y238760D02*
X464820D01*
X447040Y232920D02*
X452880Y238760D01*
X487299Y111379D02*
X494538Y104140D01*
X487680Y111760D02*
Y115570D01*
X487299Y111379D02*
X487680Y111760D01*
X408940Y248960D02*
Y251460D01*
X406800Y246820D02*
X408940Y248960D01*
X400050Y246820D02*
X406800D01*
X393300D02*
X400050D01*
X128810Y301720D02*
X129540Y300990D01*
X119140Y301720D02*
X128810D01*
X168910Y34290D02*
X169150Y34530D01*
Y43300D01*
X381635Y141760D02*
X387350D01*
X381000Y148590D02*
X381635Y147955D01*
Y141760D02*
Y147955D01*
X679450Y116840D02*
X679831Y116459D01*
Y110871D02*
Y116459D01*
Y110871D02*
X680212Y110490D01*
X680720Y78740D02*
Y83818D01*
X679448Y85090D02*
X680212D01*
X439420Y96387D02*
X440179Y95628D01*
Y89211D02*
Y95628D01*
Y89211D02*
X441960Y87430D01*
X401320Y36830D02*
X410210Y27940D01*
X401320Y36830D02*
Y65278D01*
X323727Y67433D02*
X328807D01*
X336927Y75307D02*
X340293D01*
X66040Y40640D02*
Y41578D01*
X68276Y43814D01*
Y45116D01*
X70260Y47100D01*
X54410Y80010D02*
X61114D01*
X63500Y77624D01*
Y77470D02*
Y77624D01*
X54370Y80050D02*
X54410Y80010D01*
X67818D02*
X71120Y76708D01*
X11430Y95250D02*
X11684Y95504D01*
Y102616D01*
X11938Y102870D01*
X11430Y88392D02*
Y95250D01*
X213933Y79945D02*
X225363D01*
X235523D01*
X225363Y91629D02*
X235523D01*
X451120Y126560D02*
X466022D01*
X401320Y76962D02*
X408432D01*
D134*
X600680Y13970D02*
Y16970D01*
X531680Y35560D02*
X538590D01*
X446004Y200894D02*
X449967Y204857D01*
X440276Y200894D02*
X446004D01*
X449967Y204857D02*
Y212937D01*
X629920Y66040D02*
Y66675D01*
X603350Y39470D02*
X629920Y66040D01*
X593430Y40720D02*
X594680Y39470D01*
X576180Y40720D02*
X593430D01*
X594680Y39470D02*
X603350D01*
X531680Y22970D02*
Y35560D01*
X576180Y35970D02*
Y40720D01*
X575180Y13970D02*
X600680D01*
X594680Y22970D02*
X600680Y16970D01*
X594680Y22970D02*
Y39470D01*
X551180Y13970D02*
X575180D01*
X523180D02*
X551180D01*
X523180D02*
Y14470D01*
X531680Y22970D01*
X624840Y278892D02*
Y289140D01*
X625260Y289560D02*
X644050D01*
X694786Y288666D02*
X729874D01*
X664050Y289560D02*
X679030D01*
D135*
X148900Y128920D02*
Y134930D01*
X161000Y97980D02*
Y105535D01*
X364178Y15240D02*
X372111D01*
X363700Y14762D02*
X364178Y15240D01*
X351600Y41990D02*
Y56770D01*
X23622Y88138D02*
Y102870D01*
X120022Y16510D02*
X127000D01*
X146050D01*
X355770Y15408D02*
Y31370D01*
X177800Y126030D02*
Y129540D01*
X160740Y125180D02*
X173700D01*
X363700Y14762D02*
Y26160D01*
X152640Y113580D02*
Y117270D01*
X153210Y117840D01*
X354332Y13970D02*
X355770Y15408D01*
X362744Y27116D02*
X363700Y26160D01*
X346710Y48260D02*
X351470Y53020D01*
Y57150D01*
X121630Y70830D02*
X144562D01*
X107358Y85103D02*
X121630Y70830D01*
X23622Y88138D02*
X24130Y87630D01*
X90230Y41910D02*
X93980D01*
X78980D02*
X90230D01*
X418605Y46069D02*
X423259D01*
X424180Y46990D01*
X366600Y41410D02*
Y56770D01*
X180050Y70830D02*
X180340Y71120D01*
X144562Y70830D02*
X180050D01*
X144562D02*
X153162Y62230D01*
X107322Y85103D02*
X107358D01*
X78125Y114300D02*
X107322Y85103D01*
X55880Y114300D02*
X78125D01*
X47708Y106128D02*
X55880Y114300D01*
X47708Y103080D02*
Y106128D01*
X47498Y102870D02*
X47708Y103080D01*
X161000Y105535D02*
Y113090D01*
X166245Y105535D02*
X166370Y105410D01*
X161000Y105535D02*
X166245D01*
X148900Y134930D02*
Y143700D01*
X144780Y130810D02*
X148900Y134930D01*
X174550Y126030D02*
X177800D01*
X163900Y128340D02*
Y143700D01*
Y126660D02*
Y128340D01*
X173700Y125180D02*
X174550Y126030D01*
X160740Y125180D02*
X163900Y128340D01*
X101600Y15240D02*
X102870D01*
X97230Y19610D02*
X101600Y15240D01*
X41910Y16510D02*
X71120D01*
X75968Y17370D02*
X76378Y17780D01*
X70260Y17370D02*
X75968D01*
X70260D02*
X71120Y16510D01*
X70260Y17370D02*
Y23898D01*
X120022Y16510D02*
Y22396D01*
X118520Y23898D02*
X120022Y22396D01*
X84270Y35950D02*
X90230Y41910D01*
X97230Y19610D02*
Y27410D01*
X374430Y38820D02*
X377250Y41640D01*
X364010Y38820D02*
X374430D01*
X364010D02*
X366600Y41410D01*
X368610Y30910D02*
X373382Y26138D01*
X382002D01*
X384500Y23640D01*
X76378Y17780D02*
X90170D01*
X143510Y35570D02*
X151140D01*
X24370Y75050D02*
Y79486D01*
Y63260D02*
X41910Y45720D01*
X24370Y63260D02*
Y75050D01*
X41910Y16510D02*
Y45720D01*
X144777Y17783D02*
Y33531D01*
Y17783D02*
X146050Y16510D01*
X351600Y41990D02*
X355340Y38250D01*
X160044Y114046D02*
X161000Y113090D01*
X148900Y128920D02*
X152640Y125180D01*
X151800Y97980D02*
Y112740D01*
X152640Y113580D01*
X165910Y117840D02*
X170682Y113068D01*
X179302D01*
X181800Y110570D01*
X115008Y27410D02*
X118520Y23898D01*
X105410Y27410D02*
X115008D01*
X90170Y17780D02*
Y22860D01*
X624840Y289140D02*
X625260Y289560D01*
D136*
X530155Y70555D02*
X550180Y50530D01*
X519995Y70555D02*
X530155D01*
X489792Y183722D02*
X492652Y186582D01*
X484712Y183722D02*
X489792D01*
X492652Y186582D02*
X492975D01*
X421640Y52070D02*
X433070Y40640D01*
X481212Y150798D02*
Y180222D01*
X482998Y149012D02*
X507578D01*
X481212Y180222D02*
X484712Y183722D01*
X515620Y74930D02*
X519995Y70555D01*
X515620Y74930D02*
Y81280D01*
X443011Y72088D02*
X516890D01*
X441960Y71037D02*
X443011Y72088D01*
X438150Y292070D02*
X450880Y304800D01*
X466798D01*
X475534Y296064D01*
Y289508D02*
Y296064D01*
Y289508D02*
X484270Y280772D01*
X495198D01*
X501650Y274320D01*
Y262553D02*
Y274320D01*
X496872Y257775D02*
X501650Y262553D01*
X496872Y247482D02*
Y257775D01*
Y247482D02*
X501860Y242494D01*
Y232200D02*
Y242494D01*
Y232200D02*
X505460Y228600D01*
X481212Y150798D02*
X482998Y149012D01*
X507578D02*
X513080Y143510D01*
X391160Y180340D02*
X397470D01*
X397950Y179860D01*
X307340Y180340D02*
X317500Y170180D01*
Y167450D02*
Y170180D01*
X261620Y31750D02*
X267144D01*
X269120Y33726D01*
Y34010D01*
X550180Y40720D02*
Y50530D01*
X421640Y66040D02*
Y69230D01*
Y52070D02*
Y66040D01*
X548942Y167479D02*
Y247952D01*
X588312Y287322D01*
X611272D01*
X548942Y167479D02*
X549448Y166973D01*
Y161912D02*
Y166973D01*
Y161912D02*
X549900Y161460D01*
X466022Y126560D02*
X466090Y126492D01*
X424340Y71930D02*
X441067D01*
X421640Y69230D02*
X424340Y71930D01*
X441960Y62430D02*
Y71037D01*
X441067Y71930D02*
X441960Y71037D01*
X433070Y29210D02*
Y40640D01*
X613870Y289560D02*
X614260D01*
X613510D02*
X613870D01*
X611272Y287322D02*
X613510Y289560D01*
X613410Y289100D02*
X613870Y289560D01*
X613410Y278892D02*
Y289100D01*
D137*
X335280Y45030D02*
X354500Y25810D01*
X148590Y93980D02*
X151800D01*
Y97980D01*
X180030Y127420D02*
Y142240D01*
D138*
X154150Y48260D02*
Y50800D01*
Y62202D01*
D139*
X730688Y270322D02*
D03*
D140*
X750688Y285322D02*
D03*
D141*
X740688Y265322D02*
D03*
D142*
X730123Y289802D02*
D03*
D143*
X731588Y296952D02*
D03*
D144*
X24130Y247650D02*
D03*
X36830Y234950D02*
D03*
X49530Y247650D02*
D03*
X36830Y260350D02*
D03*
X147320Y251460D02*
D03*
X160020Y238760D02*
D03*
X172720Y251460D02*
D03*
X160020Y264160D02*
D03*
D145*
X721980Y56260D02*
D03*
X735980Y64260D02*
D03*
Y48260D02*
D03*
Y32260D02*
D03*
X721980Y40260D02*
D03*
D146*
X420370Y33020D02*
D03*
Y12700D02*
D03*
X471170Y22860D02*
D03*
X336020Y97790D02*
D03*
X356340D02*
D03*
X346180Y148590D02*
D03*
D147*
X276620Y16510D02*
D03*
X246620D02*
D03*
D148*
X171450D02*
D03*
X16510D02*
D03*
D149*
X146050D02*
D03*
X41910D02*
D03*
D150*
X58640Y181610D02*
D03*
Y139610D02*
D03*
X40640Y181610D02*
D03*
Y139610D02*
D03*
D151*
X209550Y266700D02*
D03*
D152*
Y292070D02*
D03*
X234950Y266700D02*
D03*
Y292070D02*
D03*
X260350Y266700D02*
D03*
Y292070D02*
D03*
X285750Y266700D02*
D03*
Y292070D02*
D03*
X311150Y266700D02*
D03*
Y292070D02*
D03*
X336550Y266700D02*
D03*
Y292070D02*
D03*
X361950Y266700D02*
D03*
Y292070D02*
D03*
X387350Y266700D02*
D03*
Y292070D02*
D03*
X412750Y266700D02*
D03*
Y292070D02*
D03*
X438150Y266700D02*
D03*
Y292070D02*
D03*
X463550Y266700D02*
D03*
Y292070D02*
D03*
X488950Y266700D02*
D03*
Y292070D02*
D03*
X514350Y266700D02*
D03*
Y292070D02*
D03*
D153*
X60830Y293370D02*
D03*
X44830D02*
D03*
X28830D02*
D03*
X12830D02*
D03*
D154*
X12700Y185290D02*
D03*
Y169290D02*
D03*
Y153290D02*
D03*
Y137290D02*
D03*
D155*
X598620Y294620D02*
D03*
X586327Y294225D02*
D03*
X576942Y286274D02*
D03*
X568245Y277576D02*
D03*
X559548Y268879D02*
D03*
X550850Y260181D02*
D03*
X542502Y251148D02*
D03*
X541644Y238878D02*
D03*
Y226578D02*
D03*
Y214278D02*
D03*
Y201978D02*
D03*
Y189678D02*
D03*
X556240Y192401D02*
D03*
Y204701D02*
D03*
Y217001D02*
D03*
Y229301D02*
D03*
Y241600D02*
D03*
X563112Y251801D02*
D03*
X571810Y260499D02*
D03*
X580507Y269196D02*
D03*
X589205Y277894D02*
D03*
X601319Y280024D02*
D03*
X620172Y297779D02*
D03*
X553720Y135890D02*
D03*
X541020Y120650D02*
D03*
X553720D02*
D03*
X426758Y130303D02*
D03*
X471170Y172720D02*
D03*
X397510Y146050D02*
D03*
X443230Y121920D02*
D03*
X461010Y133495D02*
D03*
X413862Y131126D02*
D03*
X543797Y71120D02*
D03*
X562610D02*
D03*
X549910Y85090D02*
D03*
X568036Y65906D02*
D03*
X574040Y60960D02*
D03*
X39370Y92710D02*
D03*
X193040Y34290D02*
D03*
X125730Y52070D02*
D03*
X110600Y41910D02*
D03*
X629920Y90170D02*
D03*
X588010Y187960D02*
D03*
X501650Y182880D02*
D03*
X492975Y186582D02*
D03*
X491490Y177810D02*
D03*
X400156Y106786D02*
D03*
X389890Y97790D02*
D03*
X385261Y105905D02*
D03*
X387350Y90170D02*
D03*
X372110Y111760D02*
D03*
X372948Y88062D02*
D03*
X355344Y144349D02*
D03*
X330200Y114300D02*
D03*
X405130Y68580D02*
D03*
X375920Y62230D02*
D03*
X360680Y67310D02*
D03*
X336550Y74930D02*
D03*
X127002Y150921D02*
D03*
X101600Y130810D02*
D03*
X166370Y157480D02*
D03*
X509270Y251600D02*
D03*
X95250Y149860D02*
D03*
X98285Y139249D02*
D03*
X436880Y189230D02*
D03*
X468630Y165100D02*
D03*
X474345Y158115D02*
D03*
X458990Y150610D02*
D03*
X570590Y211060D02*
D03*
X660590Y181060D02*
D03*
X615590Y241060D02*
D03*
X540590Y271060D02*
D03*
X735590Y211060D02*
D03*
X645590Y271060D02*
D03*
X690590Y181060D02*
D03*
X683090Y256060D02*
D03*
X660590Y211060D02*
D03*
Y271060D02*
D03*
X728090Y226060D02*
D03*
X593090Y256060D02*
D03*
X645590Y241060D02*
D03*
X705590Y151060D02*
D03*
X713090Y166060D02*
D03*
X705590Y181060D02*
D03*
X600590Y241060D02*
D03*
X653090Y196060D02*
D03*
X615590Y211060D02*
D03*
X675590D02*
D03*
X735590Y151060D02*
D03*
X690590Y211060D02*
D03*
X698090Y196060D02*
D03*
X735590Y181060D02*
D03*
X683090Y166060D02*
D03*
X743090Y226060D02*
D03*
X735590Y241060D02*
D03*
X698090Y226060D02*
D03*
X638090Y256060D02*
D03*
X593090Y226060D02*
D03*
X645590Y211060D02*
D03*
X570590Y241060D02*
D03*
X743090Y166060D02*
D03*
X623090Y226060D02*
D03*
X675590Y181060D02*
D03*
X563090Y286060D02*
D03*
X698090Y166060D02*
D03*
X720590Y151060D02*
D03*
X533090Y196060D02*
D03*
X585590Y241060D02*
D03*
X743090Y196060D02*
D03*
X525590Y211060D02*
D03*
X668090Y226060D02*
D03*
X705590Y241060D02*
D03*
X578090Y226060D02*
D03*
X713090D02*
D03*
X728090Y166060D02*
D03*
X690590Y151060D02*
D03*
X660590Y241060D02*
D03*
X653090Y226060D02*
D03*
X668090Y256060D02*
D03*
X683090Y226060D02*
D03*
X713090Y196060D02*
D03*
X533090Y226060D02*
D03*
Y286060D02*
D03*
X623090Y256060D02*
D03*
X705590Y271060D02*
D03*
X668090Y196060D02*
D03*
X600590Y271060D02*
D03*
X630590Y211060D02*
D03*
X638090Y226060D02*
D03*
X705590Y211060D02*
D03*
X608090Y256060D02*
D03*
X690590Y241060D02*
D03*
X720590Y211060D02*
D03*
Y241060D02*
D03*
X608090Y226060D02*
D03*
X713090Y256060D02*
D03*
X675590Y241060D02*
D03*
X683090Y196060D02*
D03*
X578090Y256060D02*
D03*
X533090D02*
D03*
X525590Y241060D02*
D03*
X653090Y256060D02*
D03*
X720590Y181060D02*
D03*
X548090Y286060D02*
D03*
X630590Y241060D02*
D03*
X698090Y256060D02*
D03*
X728090Y196060D02*
D03*
X515620Y81280D02*
D03*
X510540Y58420D02*
D03*
X515620Y64770D02*
D03*
X476250Y85090D02*
D03*
X482416Y100514D02*
D03*
X242984Y113886D02*
D03*
X233680Y97790D02*
D03*
X492760Y237490D02*
D03*
X687173Y25503D02*
D03*
X681990Y49530D02*
D03*
X622300Y81280D02*
D03*
X629920Y66675D02*
D03*
X705160Y31955D02*
D03*
X406400Y11430D02*
D03*
X372111Y15240D02*
D03*
X346710Y48260D02*
D03*
X238760Y175260D02*
D03*
X459740Y111760D02*
D03*
X355600Y247650D02*
D03*
X234950Y243840D02*
D03*
X238123Y226060D02*
D03*
X263320Y225630D02*
D03*
X275590Y232410D02*
D03*
X509428Y235273D02*
D03*
X502577Y198024D02*
D03*
X461010Y200660D02*
D03*
X452950Y194260D02*
D03*
X441960Y157480D02*
D03*
X466090Y240030D02*
D03*
X300990Y207010D02*
D03*
X299720Y193040D02*
D03*
X487680Y115570D02*
D03*
X505460Y228600D02*
D03*
X483870Y142964D02*
D03*
X513080Y143510D02*
D03*
X408940Y251460D02*
D03*
X129540Y300990D02*
D03*
X168910Y34290D02*
D03*
X381000Y148590D02*
D03*
X679450Y116840D02*
D03*
X680720Y78740D02*
D03*
X559911Y168619D02*
D03*
X588010Y180340D02*
D03*
X439420Y96387D02*
D03*
X410210Y27940D02*
D03*
X311150Y71120D02*
D03*
X439420Y201750D02*
D03*
X391160Y180340D02*
D03*
X307340D02*
D03*
X261620Y31750D02*
D03*
X152400Y27940D02*
D03*
X130810Y62230D02*
D03*
X631190Y116840D02*
D03*
X642620Y129540D02*
D03*
X78980Y41910D02*
D03*
X66040Y40640D02*
D03*
X63500Y77470D02*
D03*
X11430Y95250D02*
D03*
X257810Y63250D02*
D03*
X224790Y73660D02*
D03*
X123190Y172720D02*
D03*
X166370Y105410D02*
D03*
X144780Y130810D02*
D03*
X92710Y217170D02*
D03*
X568960Y135890D02*
D03*
X584200Y120650D02*
D03*
Y106680D02*
D03*
Y135890D02*
D03*
X553720Y149860D02*
D03*
X568960D02*
D03*
X584200D02*
D03*
X541020Y135890D02*
D03*
Y149860D02*
D03*
X568960Y106680D02*
D03*
X541020D02*
D03*
X553720D02*
D03*
X568960Y120650D02*
D03*
X294640Y93980D02*
D03*
X283556Y94500D02*
D03*
X283210Y83820D02*
D03*
X271780D02*
D03*
Y95250D02*
D03*
X294640Y83820D02*
D03*
Y105410D02*
D03*
X283210D02*
D03*
X271201Y105160D02*
D03*
X233680Y213360D02*
D03*
X246380Y170180D02*
D03*
X358140Y175260D02*
D03*
X323850Y278130D02*
D03*
X322580Y208280D02*
D03*
X243644Y98487D02*
D03*
X244222Y80696D02*
D03*
X476250Y224790D02*
D03*
X612450Y159460D02*
D03*
X606100Y84530D02*
D03*
X487680Y39370D02*
D03*
X482600Y19050D02*
D03*
X582188Y170234D02*
D03*
X408940Y77470D02*
D03*
X269788Y152298D02*
D03*
X314960Y134620D02*
D03*
X135890Y29210D02*
D03*
X500380Y190500D02*
D03*
X514350Y196850D02*
D03*
X426720Y232410D02*
D03*
X372110Y223520D02*
D03*
X389890Y226060D02*
D03*
X381000Y218440D02*
D03*
X400050Y233680D02*
D03*
X196380Y251600D02*
D03*
X398780Y254000D02*
D03*
X405130Y212090D02*
D03*
X190500Y215900D02*
D03*
X147320D02*
D03*
X209550Y238760D02*
D03*
X285750Y243840D02*
D03*
X120650Y161290D02*
D03*
X277059Y127951D02*
D03*
X283210Y138430D02*
D03*
X396240Y120650D02*
D03*
X274320Y163830D02*
D03*
X570230Y171450D02*
D03*
X313690Y144780D02*
D03*
X302260Y151130D02*
D03*
X361950Y106680D02*
D03*
X403860Y20320D02*
D03*
X48260Y170180D02*
D03*
X64770D02*
D03*
X234950Y184150D02*
D03*
X240030Y198120D02*
D03*
X290830Y163830D02*
D03*
X646430Y120650D02*
D03*
X675640Y125730D02*
D03*
X102870Y213360D02*
D03*
X74930Y208280D02*
D03*
X673100Y60960D02*
D03*
X614680D02*
D03*
D156*
X346710Y87630D02*
D03*
X255270Y119380D02*
D03*
D157*
X590065Y208331D02*
D03*
X223520Y137160D02*
D03*
X335280Y44450D02*
D03*
X387350Y54610D02*
D03*
X144780Y91440D02*
D03*
X173990Y191770D02*
D03*
X180030Y142240D02*
D03*
X102870Y15240D02*
D03*
D158*
X418605Y46069D02*
D03*
X180340Y71120D02*
D03*
M02*
