G04*
G04 #@! TF.GenerationSoftware,Altium Limited,Altium Designer,19.1.5 (86)*
G04*
G04 Layer_Color=65535*
%FSLAX44Y44*%
%MOMM*%
G71*
G01*
G75*
%ADD10C,0.1000*%
%ADD11C,0.2000*%
%ADD12C,0.2540*%
%ADD13C,0.2500*%
%ADD14C,0.1300*%
%ADD15C,0.1524*%
%ADD16C,0.4000*%
%ADD17C,0.1500*%
D10*
X387104Y229163D02*
G03*
X387104Y229163I-500J0D01*
G01*
X550680Y49470D02*
G03*
X549680Y49470I-500J0D01*
G01*
D02*
G03*
X550680Y49470I500J0D01*
G01*
X405990Y151060D02*
G03*
X404990Y151060I-500J0D01*
G01*
D02*
G03*
X405990Y151060I500J0D01*
G01*
X481760Y169560D02*
G03*
X480760Y169560I-500J0D01*
G01*
D02*
G03*
X481760Y169560I500J0D01*
G01*
X466590Y39370D02*
G03*
X465590Y39370I-500J0D01*
G01*
D02*
G03*
X466590Y39370I500J0D01*
G01*
X365610Y84430D02*
G03*
X365610Y85430I0J500D01*
G01*
D02*
G03*
X365610Y84430I0J-500D01*
G01*
X205663Y103997D02*
G03*
X205663Y102997I0J-500D01*
G01*
D02*
G03*
X205663Y103997I0J500D01*
G01*
X330940Y149090D02*
G03*
X330940Y148090I0J-500D01*
G01*
D02*
G03*
X330940Y149090I0J500D01*
G01*
X352110Y202395D02*
Y204101D01*
X392110Y202395D02*
Y204101D01*
X278580Y181200D02*
Y225200D01*
X239580Y181200D02*
X278580D01*
X239580D02*
Y225200D01*
X278580D01*
X298000D02*
X337000D01*
X298000Y181200D02*
Y225200D01*
Y181200D02*
X337000D01*
Y225200D01*
X643890Y283210D02*
Y295710D01*
Y283210D02*
X663890D01*
X643890Y295910D02*
X663890D01*
X664210Y283410D02*
Y295910D01*
X525680Y-7530D02*
Y2470D01*
Y-7530D02*
X600680D01*
Y2470D01*
X421450Y167760D02*
X429450D01*
X421450Y182760D02*
X429450D01*
X401990Y110060D02*
Y118060D01*
X453990Y110060D02*
Y118060D01*
Y140060D02*
Y148060D01*
X401990Y140060D02*
Y148060D01*
X68254Y146082D02*
X68254Y175082D01*
X68194Y175141D02*
X68254Y175082D01*
X41637Y175141D02*
X68194D01*
X32254Y165758D02*
X41637Y175141D01*
X32254Y146082D02*
Y165758D01*
Y146082D02*
X68254D01*
X63003Y170245D02*
X63003Y151253D01*
X62854Y170394D02*
X63003Y170245D01*
X54991Y170394D02*
X62854D01*
X54991Y151253D02*
Y170394D01*
Y151253D02*
X63003Y151253D01*
X38224Y151402D02*
X46237D01*
X38224D02*
X38224Y170542D01*
X46088Y170542D01*
X46237Y151402D02*
X46237Y170394D01*
D11*
X260080Y252200D02*
G03*
X258080Y252200I-1000J0D01*
G01*
D02*
G03*
X260080Y252200I1000J0D01*
G01*
X316500D02*
G03*
X318500Y252200I1000J0D01*
G01*
D02*
G03*
X316500Y252200I-1000J0D01*
G01*
X367490Y24480D02*
G03*
X367490Y24480I-1000J0D01*
G01*
X164480Y110840D02*
G03*
X164480Y110840I-1000J0D01*
G01*
X146651Y213410D02*
X183651D01*
Y163410D02*
Y213410D01*
X146651Y163410D02*
X183651D01*
X146651D02*
Y213410D01*
X128401Y213660D02*
X143151D01*
X684530Y288060D02*
Y291060D01*
X724660Y310510D02*
X748910D01*
X724660Y294010D02*
Y310510D01*
Y294010D02*
X748910D01*
X618030Y151130D02*
X624030D01*
X495130Y127000D02*
X505630D01*
X457960Y81430D02*
Y93430D01*
X427340Y77930D02*
X456580D01*
X427340Y71930D02*
Y77930D01*
Y71930D02*
X456580D01*
Y77930D01*
X353410Y24480D02*
X361950D01*
X353410D02*
Y41560D01*
X366490D01*
Y29020D02*
Y41560D01*
X361950Y24480D02*
X366490Y29020D01*
X379370Y34290D02*
X389870D01*
X176360Y116840D02*
X186860D01*
X133350Y3810D02*
Y29210D01*
X184150D01*
Y3810D02*
Y29210D01*
X133350Y3810D02*
X184150D01*
X150400Y110840D02*
X158940D01*
X150400D02*
Y127920D01*
X163480D01*
Y115380D02*
Y127920D01*
X158940Y110840D02*
X163480Y115380D01*
X197800Y254100D02*
Y266700D01*
Y254100D02*
X526100D01*
Y304670D01*
X209550D02*
X526100D01*
X619760Y288060D02*
Y291060D01*
X54610Y3810D02*
Y29210D01*
X3810Y3810D02*
X54610D01*
X3810D02*
Y29210D01*
X54610D01*
D12*
X37104Y280850D02*
G03*
X37104Y280850I-325J0D01*
G01*
X63830Y247650D02*
G03*
X63830Y247650I-27000J0D01*
G01*
X240443Y48667D02*
G03*
X240443Y48667I-1033J0D01*
G01*
X160294Y284660D02*
G03*
X160294Y284660I-325J0D01*
G01*
X187020Y251460D02*
G03*
X187020Y251460I-27000J0D01*
G01*
X88960Y293970D02*
G03*
X88960Y293970I-120J0D01*
G01*
X113368Y308576D02*
G03*
X94906Y308560I-9227J-3841D01*
G01*
X3830Y300870D02*
G03*
X3830Y300870I-500J0D01*
G01*
X5700Y127790D02*
G03*
X5700Y127790I-500J0D01*
G01*
X13690Y276990D02*
X20370Y270310D01*
X7820Y271120D02*
X13690Y276990D01*
X7820Y271120D02*
X15170Y263770D01*
X622300Y273048D02*
X627380D01*
X610870Y273052D02*
X615950D01*
X675640Y271778D02*
X680720D01*
X688340D02*
X693420D01*
X593092Y60960D02*
Y66040D01*
X651279Y27708D02*
Y45708D01*
X639279Y27708D02*
Y45708D01*
X680370Y27830D02*
Y45830D01*
X668370Y27830D02*
Y45830D01*
X618488Y127000D02*
Y132080D01*
X609490Y110840D02*
X627490D01*
X609490Y122840D02*
X627490D01*
X633730Y135892D02*
X638810D01*
X618488Y88900D02*
Y93980D01*
X674368Y82550D02*
Y87630D01*
X641470Y92790D02*
Y102790D01*
X656470Y92790D02*
Y102790D01*
X674368Y107950D02*
Y113030D01*
X574038Y177800D02*
Y182880D01*
X565675Y183865D02*
X583675D01*
X565675Y195865D02*
X583675D01*
X518714Y172720D02*
Y177800D01*
Y182880D02*
Y187960D01*
X503631Y201818D02*
Y219818D01*
X491631Y201818D02*
Y219818D01*
X490218Y228600D02*
Y233680D01*
X477661Y201818D02*
Y219818D01*
X489661Y201818D02*
Y219818D01*
X455930Y238760D02*
X461010D01*
X453040Y229762D02*
Y247762D01*
X441040Y229762D02*
Y247762D01*
X422910Y208282D02*
X427990D01*
X408020Y199280D02*
Y217280D01*
X420020Y199280D02*
Y217280D01*
X373270Y113380D02*
X391270D01*
X373270Y125380D02*
X391270D01*
X481330Y129542D02*
X486410D01*
X472090Y111650D02*
Y129650D01*
X460090Y111650D02*
Y129650D01*
X500382Y101600D02*
Y106680D01*
X491380Y86710D02*
X509380D01*
X491380Y98710D02*
X509380D01*
X398780Y71122D02*
X403860D01*
X359412Y11430D02*
Y16510D01*
X326267Y73274D02*
X331347D01*
X316107Y73277D02*
X321187D01*
X299373Y128857D02*
Y146857D01*
X311373Y128857D02*
Y146857D01*
X269848Y131397D02*
Y149397D01*
X281848Y131397D02*
Y149397D01*
X269148Y131397D02*
Y149397D01*
X257148Y131397D02*
Y149397D01*
X232410Y120652D02*
X237490D01*
X232983Y85785D02*
X238063D01*
X222823D02*
X227903D01*
X211393Y85788D02*
X216473D01*
X295120Y12510D02*
Y20510D01*
X228120Y12510D02*
Y20510D01*
X245620Y29510D02*
X262620D01*
X228120Y-11490D02*
Y-1837D01*
X295120Y-11490D02*
Y-2133D01*
X228120Y-11490D02*
X295120D01*
X193390Y34180D02*
Y52180D01*
X205390Y34180D02*
Y52180D01*
X147322Y59690D02*
Y64770D01*
X138430Y43178D02*
X143510D01*
X113380Y43070D02*
Y61070D01*
X125380Y43070D02*
Y61070D01*
X115980Y29738D02*
X121060D01*
X67720D02*
X72800D01*
X65120Y73550D02*
Y91550D01*
X77120Y73550D02*
Y91550D01*
X44340Y96870D02*
X62340D01*
X44340Y108870D02*
X62340D01*
X8890Y82548D02*
X13970D01*
X17782Y100330D02*
Y105410D01*
X110711Y175262D02*
X115791D01*
X97091Y166260D02*
Y184260D01*
X109091Y166260D02*
Y184260D01*
X98931Y166260D02*
Y184260D01*
X86931Y166260D02*
Y184260D01*
X80231Y175258D02*
X85311D01*
X114190Y146970D02*
X132190D01*
X114190Y134970D02*
X132190D01*
X72280Y134270D02*
X90280D01*
X72280Y122270D02*
X90280D01*
X81282Y137160D02*
Y142240D01*
X110711Y199388D02*
X115791D01*
X100551D02*
X105631D01*
X90391Y199392D02*
X95471D01*
X223741Y177798D02*
X228821D01*
X210121Y168800D02*
Y186800D01*
X222121Y168800D02*
Y186800D01*
X223741Y207008D02*
X228821D01*
X213581Y207012D02*
X218661D01*
X136880Y280800D02*
X143560Y274120D01*
X131010Y274930D02*
X136880Y280800D01*
X131010Y274930D02*
X138360Y267580D01*
X173880Y56230D02*
X191880D01*
X173880Y68230D02*
X191880D01*
D13*
X642300Y298810D02*
G03*
X642300Y298810I-1250J0D01*
G01*
X602400Y91960D02*
G03*
X602400Y91960I-1250J0D01*
G01*
X439030Y228750D02*
G03*
X439030Y228750I-1250J0D01*
G01*
X255131Y119500D02*
G03*
X255131Y119500I-1250J0D01*
G01*
X151400Y57300D02*
G03*
X151400Y57300I-1250J0D01*
G01*
X111730Y60660D02*
G03*
X111730Y60660I-1250J0D01*
G01*
X21620Y96550D02*
G03*
X21620Y96550I-1250J0D01*
G01*
D14*
X76660Y247650D02*
G03*
X76660Y247650I-3000J0D01*
G01*
X123650Y5080D02*
G03*
X123650Y5080I-3000J0D01*
G01*
X210010Y163830D02*
G03*
X210010Y163830I-3000J0D01*
G01*
X249380Y69850D02*
G03*
X249380Y69850I-3000J0D01*
G01*
X291290Y208280D02*
G03*
X291290Y208280I-3000J0D01*
G01*
X397970Y91440D02*
G03*
X397970Y91440I-3000J0D01*
G01*
X276050Y245110D02*
G03*
X276050Y245110I-3000J0D01*
G01*
X345900Y22860D02*
G03*
X345900Y22860I-3000J0D01*
G01*
X79200Y193040D02*
G03*
X79200Y193040I-3000J0D01*
G01*
X127460Y218440D02*
G03*
X127460Y218440I-3000J0D01*
G01*
X475440Y189230D02*
G03*
X475440Y189230I-3000J0D01*
G01*
X456390Y158750D02*
G03*
X456390Y158750I-3000J0D01*
G01*
X197310Y71120D02*
G03*
X197310Y71120I-3000J0D01*
G01*
X176990Y154940D02*
G03*
X176990Y154940I-3000J0D01*
G01*
X311610Y48260D02*
G03*
X311610Y48260I-3000J0D01*
G01*
X240490Y162560D02*
G03*
X240490Y162560I-3000J0D01*
G01*
X397620Y17040D02*
G03*
X397620Y17040I-3000J0D01*
G01*
X312880Y123190D02*
G03*
X312880Y123190I-3000J0D01*
G01*
X333200Y128270D02*
G03*
X333200Y128270I-3000J0D01*
G01*
X291290Y193040D02*
G03*
X291290Y193040I-3000J0D01*
G01*
Y180340D02*
G03*
X291290Y180340I-3000J0D01*
G01*
X471579Y226845D02*
G03*
X471579Y226845I-3000J0D01*
G01*
X401780Y219710D02*
G03*
X401780Y219710I-3000J0D01*
G01*
X611330Y170180D02*
G03*
X611330Y170180I-3000J0D01*
G01*
X474170Y200660D02*
G03*
X474170Y200660I-3000J0D01*
G01*
X480520Y247650D02*
G03*
X480520Y247650I-3000J0D01*
G01*
X499570Y63500D02*
G03*
X499570Y63500I-3000J0D01*
G01*
Y50800D02*
G03*
X499570Y50800I-3000J0D01*
G01*
X631650Y182880D02*
G03*
X631650Y182880I-3000J0D01*
G01*
X409400Y85090D02*
G03*
X409400Y85090I-3000J0D01*
G01*
X522430Y247650D02*
G03*
X522430Y247650I-3000J0D01*
G01*
X245570Y245110D02*
G03*
X245570Y245110I-3000J0D01*
G01*
X540210Y73660D02*
G03*
X540210Y73660I-3000J0D01*
G01*
X552910Y66040D02*
G03*
X552910Y66040I-3000J0D01*
G01*
X583390Y68580D02*
G03*
X583390Y68580I-3000J0D01*
G01*
X683720Y69850D02*
G03*
X683720Y69850I-3000J0D01*
G01*
X640540Y123190D02*
G03*
X640540Y123190I-3000J0D01*
G01*
X643080Y154940D02*
G03*
X643080Y154940I-3000J0D01*
G01*
X484930Y26670D02*
G03*
X484930Y26670I-3000J0D01*
G01*
X467820Y87630D02*
G03*
X467820Y87630I-3000J0D01*
G01*
X422100Y80010D02*
G03*
X422100Y80010I-3000J0D01*
G01*
X418290Y68580D02*
G03*
X418290Y68580I-3000J0D01*
G01*
D15*
X359219Y53150D02*
Y61149D01*
X119380Y124460D02*
Y132078D01*
X123189D01*
X124458Y130808D01*
Y128269D01*
X123189Y126999D01*
X119380D01*
X121919D02*
X124458Y124460D01*
X126997D02*
X129537D01*
X128267D01*
Y132078D01*
X126997Y130808D01*
X382272Y221447D02*
X389890D01*
Y226526D01*
X382272Y234143D02*
Y229065D01*
X389890D01*
Y234143D01*
X386081Y229065D02*
Y231604D01*
X382272Y236682D02*
X389890D01*
Y240491D01*
X388620Y241761D01*
X383542D01*
X382272Y240491D01*
Y236682D01*
X389890Y249378D02*
Y244300D01*
X384812Y249378D01*
X383542D01*
X382272Y248109D01*
Y245570D01*
X383542Y244300D01*
X99060Y288288D02*
Y280670D01*
X104138D01*
X111756Y288288D02*
X106678D01*
Y280670D01*
X111756D01*
X106678Y284479D02*
X109217D01*
X114295Y288288D02*
Y280670D01*
X118104D01*
X119373Y281940D01*
Y287018D01*
X118104Y288288D01*
X114295D01*
X121913Y280670D02*
X124452D01*
X123182D01*
Y288288D01*
X121913Y287018D01*
X182746Y301119D02*
X180207D01*
X181477D01*
Y294772D01*
X180207Y293502D01*
X178938D01*
X177668Y294772D01*
X185286Y299850D02*
X186555Y301119D01*
X189094D01*
X190364Y299850D01*
Y298580D01*
X189094Y297311D01*
X190364Y296041D01*
Y294772D01*
X189094Y293502D01*
X186555D01*
X185286Y294772D01*
Y296041D01*
X186555Y297311D01*
X185286Y298580D01*
Y299850D01*
X186555Y297311D02*
X189094D01*
X378460Y16508D02*
Y8890D01*
X383538D01*
X389886D02*
Y16508D01*
X386077Y12699D01*
X391156D01*
X175260Y100328D02*
Y92710D01*
X180338D01*
X187956Y100328D02*
X182878D01*
Y96519D01*
X185417Y97788D01*
X186686D01*
X187956Y96519D01*
Y93980D01*
X186686Y92710D01*
X184147D01*
X182878Y93980D01*
X154938Y158748D02*
X153669Y160018D01*
X151130D01*
X149860Y158748D01*
Y153670D01*
X151130Y152400D01*
X153669D01*
X154938Y153670D01*
X161286Y152400D02*
Y160018D01*
X157478Y156209D01*
X162556D01*
X165095Y152400D02*
X167634D01*
X166365D01*
Y160018D01*
X165095Y158748D01*
X155133Y90850D02*
X153864Y92120D01*
X151325D01*
X150055Y90850D01*
Y85772D01*
X151325Y84502D01*
X153864D01*
X155133Y85772D01*
X161481Y84502D02*
Y92120D01*
X157673Y88311D01*
X162751D01*
X165290Y90850D02*
X166560Y92120D01*
X169099D01*
X170369Y90850D01*
Y85772D01*
X169099Y84502D01*
X166560D01*
X165290Y85772D01*
Y90850D01*
X77470Y11430D02*
Y19047D01*
X81279D01*
X82548Y17778D01*
Y15239D01*
X81279Y13969D01*
X77470D01*
X90166Y17778D02*
X88896Y19047D01*
X86357D01*
X85087Y17778D01*
Y16508D01*
X86357Y15239D01*
X88896D01*
X90166Y13969D01*
Y12700D01*
X88896Y11430D01*
X86357D01*
X85087Y12700D01*
X92705Y11430D02*
X95244D01*
X93975D01*
Y19047D01*
X92705Y17778D01*
X27940Y69847D02*
X30479D01*
X29210D01*
Y62230D01*
X27940D01*
X30479D01*
X39366Y68578D02*
X38097Y69847D01*
X35557D01*
X34288Y68578D01*
Y63500D01*
X35557Y62230D01*
X38097D01*
X39366Y63500D01*
X41905Y62230D02*
X44445D01*
X43175D01*
Y69847D01*
X41905Y68578D01*
X48253D02*
X49523Y69847D01*
X52062D01*
X53332Y68578D01*
Y63500D01*
X52062Y62230D01*
X49523D01*
X48253Y63500D01*
Y68578D01*
X180340Y161287D02*
X182879D01*
X181610D01*
Y153670D01*
X180340D01*
X182879D01*
X191766Y160018D02*
X190497Y161287D01*
X187957D01*
X186688Y160018D01*
Y154940D01*
X187957Y153670D01*
X190497D01*
X191766Y154940D01*
X194305D02*
X195575Y153670D01*
X198114D01*
X199384Y154940D01*
Y160018D01*
X198114Y161287D01*
X195575D01*
X194305Y160018D01*
Y158748D01*
X195575Y157479D01*
X199384D01*
X124460Y116838D02*
X126999D01*
X125730D01*
Y109220D01*
X124460D01*
X126999D01*
X135886Y115568D02*
X134617Y116838D01*
X132078D01*
X130808Y115568D01*
Y110490D01*
X132078Y109220D01*
X134617D01*
X135886Y110490D01*
X143504Y116838D02*
X140965Y115568D01*
X138426Y113029D01*
Y110490D01*
X139695Y109220D01*
X142234D01*
X143504Y110490D01*
Y111759D01*
X142234Y113029D01*
X138426D01*
X330200Y34288D02*
X332739D01*
X331470D01*
Y26670D01*
X330200D01*
X332739D01*
X341626Y33018D02*
X340357Y34288D01*
X337817D01*
X336548Y33018D01*
Y27940D01*
X337817Y26670D01*
X340357D01*
X341626Y27940D01*
X349244Y34288D02*
X344165D01*
Y30479D01*
X346705Y31748D01*
X347974D01*
X349244Y30479D01*
Y27940D01*
X347974Y26670D01*
X345435D01*
X344165Y27940D01*
X351790Y236217D02*
Y228600D01*
X355599D01*
X356868Y229870D01*
Y234948D01*
X355599Y236217D01*
X351790D01*
X359408Y228600D02*
X361947D01*
X360677D01*
Y236217D01*
X359408Y234948D01*
X419100Y194307D02*
Y193038D01*
X421639Y190499D01*
X424178Y193038D01*
Y194307D01*
X421639Y190499D02*
Y186690D01*
X431796Y194307D02*
X426717D01*
Y190499D01*
X429257Y191768D01*
X430526D01*
X431796Y190499D01*
Y187960D01*
X430526Y186690D01*
X427987D01*
X426717Y187960D01*
X414020Y151130D02*
Y156208D01*
X416559Y158748D01*
X419098Y156208D01*
Y151130D01*
Y154939D01*
X414020D01*
X426716Y157478D02*
X425446Y158748D01*
X422907D01*
X421637Y157478D01*
Y152400D01*
X422907Y151130D01*
X425446D01*
X426716Y152400D01*
X429255Y151130D02*
X431794D01*
X430525D01*
Y158748D01*
X429255Y157478D01*
X57150Y198118D02*
Y191770D01*
X58420Y190500D01*
X60959D01*
X62228Y191770D01*
Y198118D01*
X64767Y190500D02*
X67307D01*
X66037D01*
Y198118D01*
X64767Y196848D01*
X93980Y121920D02*
Y129537D01*
X97789D01*
X99058Y128268D01*
Y125729D01*
X97789Y124459D01*
X93980D01*
X96519D02*
X99058Y121920D01*
X101597Y128268D02*
X102867Y129537D01*
X105406D01*
X106676Y128268D01*
Y126998D01*
X105406Y125729D01*
X104137D01*
X105406D01*
X106676Y124459D01*
Y123190D01*
X105406Y121920D01*
X102867D01*
X101597Y123190D01*
X93980Y133350D02*
Y140968D01*
X97789D01*
X99058Y139698D01*
Y137159D01*
X97789Y135889D01*
X93980D01*
X96519D02*
X99058Y133350D01*
X106676D02*
X101597D01*
X106676Y138428D01*
Y139698D01*
X105406Y140968D01*
X102867D01*
X101597Y139698D01*
X445376Y199363D02*
X447915D01*
X446645D01*
Y191745D01*
X445376D01*
X447915D01*
X456802Y198093D02*
X455532Y199363D01*
X452993D01*
X451724Y198093D01*
Y193015D01*
X452993Y191745D01*
X455532D01*
X456802Y193015D01*
X459341Y199363D02*
X464419D01*
Y198093D01*
X459341Y193015D01*
Y191745D01*
X641350Y274317D02*
Y266700D01*
X646428D01*
X648968D02*
Y274317D01*
X652776D01*
X654046Y273048D01*
Y270509D01*
X652776Y269239D01*
X648968D01*
X661663Y274317D02*
X656585D01*
Y270509D01*
X659124D01*
X656585D01*
Y266700D01*
X664203D02*
X666742D01*
X665472D01*
Y274317D01*
X664203Y273048D01*
X201930Y134618D02*
Y133348D01*
X204469Y130809D01*
X207008Y133348D01*
Y134618D01*
X204469Y130809D02*
Y127000D01*
X209548Y133348D02*
X210817Y134618D01*
X213356D01*
X214626Y133348D01*
Y132078D01*
X213356Y130809D01*
X212087D01*
X213356D01*
X214626Y129539D01*
Y128270D01*
X213356Y127000D01*
X210817D01*
X209548Y128270D01*
X490220Y182878D02*
Y181608D01*
X492759Y179069D01*
X495298Y181608D01*
Y182878D01*
X492759Y179069D02*
Y175260D01*
X502916D02*
X497837D01*
X502916Y180338D01*
Y181608D01*
X501646Y182878D01*
X499107D01*
X497837Y181608D01*
X645160Y77467D02*
Y76198D01*
X647699Y73659D01*
X650238Y76198D01*
Y77467D01*
X647699Y73659D02*
Y69850D01*
X652777D02*
X655317D01*
X654047D01*
Y77467D01*
X652777Y76198D01*
X364490Y99058D02*
Y97788D01*
X367029Y95249D01*
X369568Y97788D01*
Y99058D01*
X367029Y95249D02*
Y91440D01*
X375916D02*
Y99058D01*
X372108Y95249D01*
X377186D01*
X66040Y265427D02*
Y259080D01*
X67310Y257810D01*
X69849D01*
X71118Y259080D01*
Y265427D01*
X78736Y257810D02*
X73657D01*
X78736Y262888D01*
Y264158D01*
X77466Y265427D01*
X74927D01*
X73657Y264158D01*
X115570Y264158D02*
Y257810D01*
X116840Y256540D01*
X119379D01*
X120648Y257810D01*
Y264158D01*
X123188Y262888D02*
X124457Y264158D01*
X126996D01*
X128266Y262888D01*
Y261618D01*
X126996Y260349D01*
X125727D01*
X126996D01*
X128266Y259079D01*
Y257810D01*
X126996Y256540D01*
X124457D01*
X123188Y257810D01*
X253998Y44448D02*
X252729Y45718D01*
X250190D01*
X248920Y44448D01*
Y43178D01*
X250190Y41909D01*
X252729D01*
X253998Y40639D01*
Y39370D01*
X252729Y38100D01*
X250190D01*
X248920Y39370D01*
X256537Y38100D02*
X259077D01*
X257807D01*
Y45718D01*
X256537Y44448D01*
X254000Y132080D02*
X246383D01*
Y135889D01*
X247652Y137158D01*
X250191D01*
X251461Y135889D01*
Y132080D01*
Y134619D02*
X254000Y137158D01*
Y139698D02*
Y142237D01*
Y140967D01*
X246383D01*
X247652Y139698D01*
X246383Y146046D02*
Y151124D01*
X247652D01*
X252730Y146046D01*
X254000D01*
X293370Y132080D02*
X285753D01*
Y135889D01*
X287022Y137158D01*
X289561D01*
X290831Y135889D01*
Y132080D01*
Y134619D02*
X293370Y137158D01*
Y139698D02*
Y142237D01*
Y140967D01*
X285753D01*
X287022Y139698D01*
X285753Y151124D02*
X287022Y148585D01*
X289561Y146046D01*
X292100D01*
X293370Y147315D01*
Y149854D01*
X292100Y151124D01*
X290831D01*
X289561Y149854D01*
Y146046D01*
X514350Y203200D02*
X506732D01*
Y207009D01*
X508002Y208278D01*
X510541D01*
X511811Y207009D01*
Y203200D01*
Y205739D02*
X514350Y208278D01*
Y210818D02*
Y213357D01*
Y212087D01*
X506732D01*
X508002Y210818D01*
X514350Y220974D02*
X506732D01*
X510541Y217166D01*
Y222244D01*
X323850Y128270D02*
X316232D01*
Y132079D01*
X317502Y133348D01*
X320041D01*
X321311Y132079D01*
Y128270D01*
Y130809D02*
X323850Y133348D01*
Y135887D02*
Y138427D01*
Y137157D01*
X316232D01*
X317502Y135887D01*
X316232Y147314D02*
Y142235D01*
X320041D01*
X318772Y144775D01*
Y146044D01*
X320041Y147314D01*
X322580D01*
X323850Y146044D01*
Y143505D01*
X322580Y142235D01*
X486932Y180862D02*
X479314D01*
Y184671D01*
X480584Y185940D01*
X483123D01*
X484393Y184671D01*
Y180862D01*
Y183401D02*
X486932Y185940D01*
Y188480D02*
Y191019D01*
Y189749D01*
X479314D01*
X480584Y188480D01*
Y194827D02*
X479314Y196097D01*
Y198636D01*
X480584Y199906D01*
X481854D01*
X483123Y198636D01*
Y197367D01*
Y198636D01*
X484393Y199906D01*
X485662D01*
X486932Y198636D01*
Y196097D01*
X485662Y194827D01*
X468630Y132080D02*
X461012D01*
Y135889D01*
X462282Y137158D01*
X464821D01*
X466091Y135889D01*
Y132080D01*
Y134619D02*
X468630Y137158D01*
Y144776D02*
Y139698D01*
X463552Y144776D01*
X462282D01*
X461012Y143506D01*
Y140967D01*
X462282Y139698D01*
X461012Y147315D02*
Y152393D01*
X462282D01*
X467360Y147315D01*
X468630D01*
X417830Y220980D02*
X410213D01*
Y224789D01*
X411482Y226058D01*
X414021D01*
X415291Y224789D01*
Y220980D01*
Y223519D02*
X417830Y226058D01*
Y228598D02*
Y231137D01*
Y229867D01*
X410213D01*
X411482Y228598D01*
X417830Y240024D02*
Y234946D01*
X412752Y240024D01*
X411482D01*
X410213Y238754D01*
Y236215D01*
X411482Y234946D01*
X370840Y102870D02*
Y110487D01*
X374649D01*
X375918Y109218D01*
Y106679D01*
X374649Y105409D01*
X370840D01*
X373379D02*
X375918Y102870D01*
X383536D02*
X378457D01*
X383536Y107948D01*
Y109218D01*
X382266Y110487D01*
X379727D01*
X378457Y109218D01*
X391153Y110487D02*
X388614Y109218D01*
X386075Y106679D01*
Y104140D01*
X387345Y102870D01*
X389884D01*
X391153Y104140D01*
Y105409D01*
X389884Y106679D01*
X386075D01*
X438150Y233680D02*
X430532D01*
Y237489D01*
X431802Y238758D01*
X434341D01*
X435611Y237489D01*
Y233680D01*
Y236219D02*
X438150Y238758D01*
Y241297D02*
Y243837D01*
Y242567D01*
X430532D01*
X431802Y241297D01*
X438150Y247645D02*
Y250185D01*
Y248915D01*
X430532D01*
X431802Y247645D01*
X203200Y12700D02*
X195583D01*
Y16509D01*
X196852Y17778D01*
X199391D01*
X200661Y16509D01*
Y12700D01*
Y15239D02*
X203200Y17778D01*
Y20317D02*
Y22857D01*
Y21587D01*
X195583D01*
X196852Y20317D01*
Y26665D02*
X195583Y27935D01*
Y30474D01*
X196852Y31744D01*
X201930D01*
X203200Y30474D01*
Y27935D01*
X201930Y26665D01*
X196852D01*
X174244Y76200D02*
Y83818D01*
X178053D01*
X179322Y82548D01*
Y80009D01*
X178053Y78739D01*
X174244D01*
X176783D02*
X179322Y76200D01*
X181861Y77470D02*
X183131Y76200D01*
X185670D01*
X186940Y77470D01*
Y82548D01*
X185670Y83818D01*
X183131D01*
X181861Y82548D01*
Y81278D01*
X183131Y80009D01*
X186940D01*
X219710Y146050D02*
X212092D01*
Y149859D01*
X213362Y151128D01*
X215901D01*
X217171Y149859D01*
Y146050D01*
Y148589D02*
X219710Y151128D01*
Y158746D02*
Y153667D01*
X214632Y158746D01*
X213362D01*
X212092Y157476D01*
Y154937D01*
X213362Y153667D01*
Y161285D02*
X212092Y162555D01*
Y165094D01*
X213362Y166363D01*
X214632D01*
X215901Y165094D01*
Y163824D01*
Y165094D01*
X217171Y166363D01*
X218440D01*
X219710Y165094D01*
Y162555D01*
X218440Y161285D01*
X612140Y100330D02*
Y107948D01*
X615949D01*
X617218Y106678D01*
Y104139D01*
X615949Y102869D01*
X612140D01*
X614679D02*
X617218Y100330D01*
X619757Y106678D02*
X621027Y107948D01*
X623566D01*
X624836Y106678D01*
Y105408D01*
X623566Y104139D01*
X624836Y102869D01*
Y101600D01*
X623566Y100330D01*
X621027D01*
X619757Y101600D01*
Y102869D01*
X621027Y104139D01*
X619757Y105408D01*
Y106678D01*
X621027Y104139D02*
X623566D01*
X74930Y95250D02*
X67312D01*
Y99059D01*
X68582Y100328D01*
X71121D01*
X72391Y99059D01*
Y95250D01*
Y97789D02*
X74930Y100328D01*
Y107946D02*
Y102867D01*
X69852Y107946D01*
X68582D01*
X67312Y106676D01*
Y104137D01*
X68582Y102867D01*
X74930Y115563D02*
Y110485D01*
X69852Y115563D01*
X68582D01*
X67312Y114294D01*
Y111755D01*
X68582Y110485D01*
X476250Y88900D02*
Y96517D01*
X480059D01*
X481328Y95248D01*
Y92709D01*
X480059Y91439D01*
X476250D01*
X478789D02*
X481328Y88900D01*
X483867Y96517D02*
X488946D01*
Y95248D01*
X483867Y90170D01*
Y88900D01*
X44450Y113030D02*
Y120647D01*
X48259D01*
X49528Y119378D01*
Y116839D01*
X48259Y115569D01*
X44450D01*
X46989D02*
X49528Y113030D01*
X57146D02*
X52067D01*
X57146Y118108D01*
Y119378D01*
X55876Y120647D01*
X53337D01*
X52067Y119378D01*
X59685Y113030D02*
X62224D01*
X60955D01*
Y120647D01*
X59685Y119378D01*
X590550Y187960D02*
Y195578D01*
X594359D01*
X595628Y194308D01*
Y191769D01*
X594359Y190499D01*
X590550D01*
X593089D02*
X595628Y187960D01*
X603246Y195578D02*
X600707Y194308D01*
X598167Y191769D01*
Y189230D01*
X599437Y187960D01*
X601976D01*
X603246Y189230D01*
Y190499D01*
X601976Y191769D01*
X598167D01*
X64770Y43180D02*
X57153D01*
Y46989D01*
X58422Y48258D01*
X60961D01*
X62231Y46989D01*
Y43180D01*
Y45719D02*
X64770Y48258D01*
Y55876D02*
Y50798D01*
X59692Y55876D01*
X58422D01*
X57153Y54606D01*
Y52067D01*
X58422Y50798D01*
Y58415D02*
X57153Y59685D01*
Y62224D01*
X58422Y63493D01*
X63500D01*
X64770Y62224D01*
Y59685D01*
X63500Y58415D01*
X58422D01*
X638810Y49530D02*
Y57147D01*
X642619D01*
X643888Y55878D01*
Y53339D01*
X642619Y52069D01*
X638810D01*
X641349D02*
X643888Y49530D01*
X651506Y57147D02*
X646428D01*
Y53339D01*
X648967Y54608D01*
X650236D01*
X651506Y53339D01*
Y50800D01*
X650236Y49530D01*
X647697D01*
X646428Y50800D01*
X122780Y64240D02*
X115162D01*
Y68049D01*
X116432Y69318D01*
X118971D01*
X120241Y68049D01*
Y64240D01*
Y66779D02*
X122780Y69318D01*
Y71858D02*
Y74397D01*
Y73127D01*
X115162D01*
X116432Y71858D01*
X121510Y78205D02*
X122780Y79475D01*
Y82014D01*
X121510Y83284D01*
X116432D01*
X115162Y82014D01*
Y79475D01*
X116432Y78205D01*
X117702D01*
X118971Y79475D01*
Y83284D01*
X667901Y48382D02*
Y55999D01*
X671710D01*
X672980Y54730D01*
Y52191D01*
X671710Y50921D01*
X667901D01*
X670441D02*
X672980Y48382D01*
X679328D02*
Y55999D01*
X675519Y52191D01*
X680597D01*
X186690Y2540D02*
Y10158D01*
X190499D01*
X191768Y8888D01*
Y6349D01*
X190499Y5079D01*
X186690D01*
X194307Y8888D02*
X195577Y10158D01*
X198116D01*
X199386Y8888D01*
Y7618D01*
X198116Y6349D01*
X196847D01*
X198116D01*
X199386Y5079D01*
Y3810D01*
X198116Y2540D01*
X195577D01*
X194307Y3810D01*
X619760Y11430D02*
Y19047D01*
X623569D01*
X624838Y17778D01*
Y15239D01*
X623569Y13969D01*
X619760D01*
X632456Y11430D02*
X627378D01*
X632456Y16508D01*
Y17778D01*
X631186Y19047D01*
X628647D01*
X627378Y17778D01*
X688340Y11430D02*
Y19047D01*
X692149D01*
X693418Y17778D01*
Y15239D01*
X692149Y13969D01*
X688340D01*
X695957Y11430D02*
X698497D01*
X697227D01*
Y19047D01*
X695957Y17778D01*
X4318Y36830D02*
Y44447D01*
X8127D01*
X9396Y43178D01*
Y40639D01*
X8127Y39369D01*
X4318D01*
X15744Y36830D02*
Y44447D01*
X11935Y40639D01*
X17014D01*
X505460Y152397D02*
Y144780D01*
X510538D01*
X513078Y151128D02*
X514347Y152397D01*
X516886D01*
X518156Y151128D01*
Y149858D01*
X516886Y148589D01*
X515617D01*
X516886D01*
X518156Y147319D01*
Y146050D01*
X516886Y144780D01*
X514347D01*
X513078Y146050D01*
X678180Y303528D02*
Y295910D01*
X683258D01*
X690876D02*
X685798D01*
X690876Y300988D01*
Y302258D01*
X689606Y303528D01*
X687067D01*
X685798Y302258D01*
X614680Y303528D02*
Y295910D01*
X619758D01*
X622298D02*
X624837D01*
X623567D01*
Y303528D01*
X622298Y302258D01*
X466088Y67308D02*
X463549D01*
X464819D01*
Y60960D01*
X463549Y59690D01*
X462280D01*
X461010Y60960D01*
X473706Y67308D02*
X468628D01*
Y63499D01*
X471167Y64768D01*
X472436D01*
X473706Y63499D01*
Y60960D01*
X472436Y59690D01*
X469897D01*
X468628Y60960D01*
X492758Y12697D02*
X490219D01*
X491489D01*
Y6350D01*
X490219Y5080D01*
X488950D01*
X487680Y6350D01*
X499106Y5080D02*
Y12697D01*
X495298Y8889D01*
X500376D01*
X336526Y167892D02*
X333987D01*
X335257D01*
Y161544D01*
X333987Y160274D01*
X332718D01*
X331448Y161544D01*
X344144Y167892D02*
X341605Y166622D01*
X339066Y164083D01*
Y161544D01*
X340335Y160274D01*
X342874D01*
X344144Y161544D01*
Y162813D01*
X342874Y164083D01*
X339066D01*
X273050Y60957D02*
X275589D01*
X274320D01*
Y53340D01*
X273050D01*
X275589D01*
X284476Y59688D02*
X283207Y60957D01*
X280667D01*
X279398Y59688D01*
Y54610D01*
X280667Y53340D01*
X283207D01*
X284476Y54610D01*
X287015Y59688D02*
X288285Y60957D01*
X290824D01*
X292094Y59688D01*
Y58418D01*
X290824Y57149D01*
X292094Y55879D01*
Y54610D01*
X290824Y53340D01*
X288285D01*
X287015Y54610D01*
Y55879D01*
X288285Y57149D01*
X287015Y58418D01*
Y59688D01*
X288285Y57149D02*
X290824D01*
X126669Y224028D02*
X129208D01*
X127938D01*
Y216410D01*
X126669D01*
X129208D01*
X138095Y222758D02*
X136826Y224028D01*
X134286D01*
X133017Y222758D01*
Y217680D01*
X134286Y216410D01*
X136826D01*
X138095Y217680D01*
X140634Y216410D02*
X143174D01*
X141904D01*
Y224028D01*
X140634Y222758D01*
X146982Y216410D02*
X149522D01*
X148252D01*
Y224028D01*
X146982Y222758D01*
X583686Y175143D02*
X586225D01*
X584956D01*
Y167525D01*
X583686D01*
X586225D01*
X595112Y173873D02*
X593843Y175143D01*
X591303D01*
X590034Y173873D01*
Y168795D01*
X591303Y167525D01*
X593843D01*
X595112Y168795D01*
X601460Y167525D02*
Y175143D01*
X597651Y171334D01*
X602730D01*
X438150Y52067D02*
X440689D01*
X439420D01*
Y44450D01*
X438150D01*
X440689D01*
X449576Y50798D02*
X448307Y52067D01*
X445768D01*
X444498Y50798D01*
Y45720D01*
X445768Y44450D01*
X448307D01*
X449576Y45720D01*
X452116Y50798D02*
X453385Y52067D01*
X455924D01*
X457194Y50798D01*
Y49528D01*
X455924Y48259D01*
X454655D01*
X455924D01*
X457194Y46989D01*
Y45720D01*
X455924Y44450D01*
X453385D01*
X452116Y45720D01*
X709930Y90168D02*
Y82550D01*
Y86359D01*
X715008D01*
Y90168D01*
Y82550D01*
X717548D02*
X720087D01*
X718817D01*
Y90168D01*
X717548Y88898D01*
X618488Y175257D02*
X613410D01*
Y171449D01*
X615949D01*
X613410D01*
Y167640D01*
X621027Y175257D02*
Y167640D01*
X624836D01*
X626106Y168910D01*
Y170179D01*
X624836Y171449D01*
X621027D01*
X624836D01*
X626106Y172718D01*
Y173988D01*
X624836Y175257D01*
X621027D01*
X628645Y167640D02*
X631184D01*
X629915D01*
Y175257D01*
X628645Y173988D01*
X218442Y38100D02*
X226060D01*
Y41909D01*
X224790Y43178D01*
X219712D01*
X218442Y41909D01*
Y38100D01*
X219712Y50796D02*
X218442Y49526D01*
Y46987D01*
X219712Y45718D01*
X220982D01*
X222251Y46987D01*
Y49526D01*
X223521Y50796D01*
X224790D01*
X226060Y49526D01*
Y46987D01*
X224790Y45718D01*
X226060Y53335D02*
Y55874D01*
Y54605D01*
X218442D01*
X219712Y53335D01*
X92712Y76200D02*
X100330D01*
Y80009D01*
X99060Y81278D01*
X93982D01*
X92712Y80009D01*
Y76200D01*
X93982Y88896D02*
X92712Y87626D01*
Y85087D01*
X93982Y83818D01*
X95252D01*
X96521Y85087D01*
Y87626D01*
X97791Y88896D01*
X99060D01*
X100330Y87626D01*
Y85087D01*
X99060Y83818D01*
X100330Y96513D02*
Y91435D01*
X95252Y96513D01*
X93982D01*
X92712Y95244D01*
Y92705D01*
X93982Y91435D01*
X293370Y237488D02*
Y229870D01*
X297179D01*
X298448Y231140D01*
Y236218D01*
X297179Y237488D01*
X293370D01*
X306066Y229870D02*
X300987D01*
X306066Y234948D01*
Y236218D01*
X304796Y237488D01*
X302257D01*
X300987Y236218D01*
X234862Y236939D02*
Y229322D01*
X238671D01*
X239940Y230591D01*
Y235670D01*
X238671Y236939D01*
X234862D01*
X242479Y235670D02*
X243749Y236939D01*
X246288D01*
X247558Y235670D01*
Y234400D01*
X246288Y233130D01*
X245019D01*
X246288D01*
X247558Y231861D01*
Y230591D01*
X246288Y229322D01*
X243749D01*
X242479Y230591D01*
X9269Y206627D02*
X8000Y207896D01*
X5461D01*
X4191Y206627D01*
Y201549D01*
X5461Y200279D01*
X8000D01*
X9269Y201549D01*
X15617Y207896D02*
X13078D01*
X11809Y206627D01*
Y201549D01*
X13078Y200279D01*
X15617D01*
X16887Y201549D01*
Y206627D01*
X15617Y207896D01*
X19426Y200279D02*
Y207896D01*
X24504Y200279D01*
Y207896D01*
X27044Y200279D02*
Y207896D01*
X32122Y200279D01*
Y207896D01*
X34661Y199009D02*
X39739D01*
X47357Y200279D02*
X42279D01*
X47357Y205357D01*
Y206627D01*
X46087Y207896D01*
X43548D01*
X42279Y206627D01*
X58418Y279398D02*
X57149Y280667D01*
X54610D01*
X53340Y279398D01*
Y274320D01*
X54610Y273050D01*
X57149D01*
X58418Y274320D01*
X64766Y280667D02*
X62227D01*
X60957Y279398D01*
Y274320D01*
X62227Y273050D01*
X64766D01*
X66036Y274320D01*
Y279398D01*
X64766Y280667D01*
X68575Y273050D02*
Y280667D01*
X73653Y273050D01*
Y280667D01*
X76193Y273050D02*
Y280667D01*
X81271Y273050D01*
Y280667D01*
X83810Y271780D02*
X88889D01*
X91428Y273050D02*
X93967D01*
X92697D01*
Y280667D01*
X91428Y279398D01*
X326392Y45718D02*
X325122Y44449D01*
Y41910D01*
X326392Y40640D01*
X331470D01*
X332740Y41910D01*
Y44449D01*
X331470Y45718D01*
X326392Y48257D02*
X325122Y49527D01*
Y52066D01*
X326392Y53336D01*
X327662D01*
X328931Y52066D01*
Y50797D01*
Y52066D01*
X330201Y53336D01*
X331470D01*
X332740Y52066D01*
Y49527D01*
X331470Y48257D01*
X332740Y59684D02*
X325122D01*
X328931Y55875D01*
Y60953D01*
X314962Y45718D02*
X313692Y44449D01*
Y41910D01*
X314962Y40640D01*
X320040D01*
X321310Y41910D01*
Y44449D01*
X320040Y45718D01*
X314962Y48257D02*
X313692Y49527D01*
Y52066D01*
X314962Y53336D01*
X316232D01*
X317501Y52066D01*
Y50797D01*
Y52066D01*
X318771Y53336D01*
X320040D01*
X321310Y52066D01*
Y49527D01*
X320040Y48257D01*
X314962Y55875D02*
X313692Y57145D01*
Y59684D01*
X314962Y60953D01*
X316232D01*
X317501Y59684D01*
Y58414D01*
Y59684D01*
X318771Y60953D01*
X320040D01*
X321310Y59684D01*
Y57145D01*
X320040Y55875D01*
X421642Y226058D02*
X420373Y224789D01*
Y222250D01*
X421642Y220980D01*
X426720D01*
X427990Y222250D01*
Y224789D01*
X426720Y226058D01*
X421642Y228598D02*
X420373Y229867D01*
Y232406D01*
X421642Y233676D01*
X422912D01*
X424181Y232406D01*
Y231137D01*
Y232406D01*
X425451Y233676D01*
X426720D01*
X427990Y232406D01*
Y229867D01*
X426720Y228598D01*
X421642Y236215D02*
X420373Y237485D01*
Y240024D01*
X421642Y241293D01*
X426720D01*
X427990Y240024D01*
Y237485D01*
X426720Y236215D01*
X421642D01*
X465652Y236488D02*
X464383Y235219D01*
Y232680D01*
X465652Y231410D01*
X470730D01*
X472000Y232680D01*
Y235219D01*
X470730Y236488D01*
X472000Y244106D02*
Y239028D01*
X466922Y244106D01*
X465652D01*
X464383Y242836D01*
Y240297D01*
X465652Y239028D01*
X470730Y246645D02*
X472000Y247915D01*
Y250454D01*
X470730Y251723D01*
X465652D01*
X464383Y250454D01*
Y247915D01*
X465652Y246645D01*
X466922D01*
X468191Y247915D01*
Y251723D01*
X234952Y138428D02*
X233682Y137159D01*
Y134620D01*
X234952Y133350D01*
X240030D01*
X241300Y134620D01*
Y137159D01*
X240030Y138428D01*
X234952Y140968D02*
X233682Y142237D01*
Y144776D01*
X234952Y146046D01*
X236222D01*
X237491Y144776D01*
Y143507D01*
Y144776D01*
X238761Y146046D01*
X240030D01*
X241300Y144776D01*
Y142237D01*
X240030Y140968D01*
X241300Y148585D02*
Y151124D01*
Y149855D01*
X233682D01*
X234952Y148585D01*
X486408Y245108D02*
X485139Y246378D01*
X482600D01*
X481330Y245108D01*
Y240030D01*
X482600Y238760D01*
X485139D01*
X486408Y240030D01*
X494026Y238760D02*
X488947D01*
X494026Y243838D01*
Y245108D01*
X492756Y246378D01*
X490217D01*
X488947Y245108D01*
X496565D02*
X497835Y246378D01*
X500374D01*
X501643Y245108D01*
Y243838D01*
X500374Y242569D01*
X501643Y241299D01*
Y240030D01*
X500374Y238760D01*
X497835D01*
X496565Y240030D01*
Y241299D01*
X497835Y242569D01*
X496565Y243838D01*
Y245108D01*
X497835Y242569D02*
X500374D01*
X462282Y170178D02*
X461012Y168909D01*
Y166370D01*
X462282Y165100D01*
X467360D01*
X468630Y166370D01*
Y168909D01*
X467360Y170178D01*
X461012Y177796D02*
Y172717D01*
X464821D01*
X463552Y175257D01*
Y176526D01*
X464821Y177796D01*
X467360D01*
X468630Y176526D01*
Y173987D01*
X467360Y172717D01*
X461012Y185413D02*
X462282Y182874D01*
X464821Y180335D01*
X467360D01*
X468630Y181605D01*
Y184144D01*
X467360Y185413D01*
X466091D01*
X464821Y184144D01*
Y180335D01*
X129542Y38098D02*
X128272Y36829D01*
Y34290D01*
X129542Y33020D01*
X134620D01*
X135890Y34290D01*
Y36829D01*
X134620Y38098D01*
X135890Y45716D02*
Y40637D01*
X130812Y45716D01*
X129542D01*
X128272Y44446D01*
Y41907D01*
X129542Y40637D01*
X128272Y48255D02*
Y53333D01*
X129542D01*
X134620Y48255D01*
X135890D01*
X394972Y191768D02*
X393703Y190499D01*
Y187960D01*
X394972Y186690D01*
X400050D01*
X401320Y187960D01*
Y190499D01*
X400050Y191768D01*
X393703Y199386D02*
Y194307D01*
X397511D01*
X396242Y196847D01*
Y198116D01*
X397511Y199386D01*
X400050D01*
X401320Y198116D01*
Y195577D01*
X400050Y194307D01*
X393703Y207003D02*
Y201925D01*
X397511D01*
X396242Y204464D01*
Y205734D01*
X397511Y207003D01*
X400050D01*
X401320Y205734D01*
Y203195D01*
X400050Y201925D01*
X140968Y73658D02*
X139699Y74928D01*
X137160D01*
X135890Y73658D01*
Y68580D01*
X137160Y67310D01*
X139699D01*
X140968Y68580D01*
X148586Y67310D02*
X143507D01*
X148586Y72388D01*
Y73658D01*
X147316Y74928D01*
X144777D01*
X143507Y73658D01*
X156203Y74928D02*
X153664Y73658D01*
X151125Y71119D01*
Y68580D01*
X152395Y67310D01*
X154934D01*
X156203Y68580D01*
Y69849D01*
X154934Y71119D01*
X151125D01*
X407414Y116838D02*
X406145Y118108D01*
X403606D01*
X402336Y116838D01*
Y111760D01*
X403606Y110490D01*
X406145D01*
X407414Y111760D01*
X415032Y118108D02*
X409953D01*
Y114299D01*
X412493Y115568D01*
X413762D01*
X415032Y114299D01*
Y111760D01*
X413762Y110490D01*
X411223D01*
X409953Y111760D01*
X421380Y110490D02*
Y118108D01*
X417571Y114299D01*
X422649D01*
X347553Y70546D02*
X346283Y71816D01*
X343744D01*
X342475Y70546D01*
Y65468D01*
X343744Y64198D01*
X346283D01*
X347553Y65468D01*
X355171Y64198D02*
X350092D01*
X355171Y69276D01*
Y70546D01*
X353901Y71816D01*
X351362D01*
X350092Y70546D01*
X362788Y71816D02*
X357710D01*
Y68007D01*
X360249Y69276D01*
X361519D01*
X362788Y68007D01*
Y65468D01*
X361519Y64198D01*
X358979D01*
X357710Y65468D01*
X365456Y132115D02*
X364187Y130846D01*
Y128307D01*
X365456Y127037D01*
X370534D01*
X371804Y128307D01*
Y130846D01*
X370534Y132115D01*
X364187Y139733D02*
Y134655D01*
X367995D01*
X366726Y137194D01*
Y138463D01*
X367995Y139733D01*
X370534D01*
X371804Y138463D01*
Y135924D01*
X370534Y134655D01*
X365456Y142272D02*
X364187Y143542D01*
Y146081D01*
X365456Y147351D01*
X366726D01*
X367995Y146081D01*
Y144811D01*
Y146081D01*
X369265Y147351D01*
X370534D01*
X371804Y146081D01*
Y143542D01*
X370534Y142272D01*
X332738Y16508D02*
X331469Y17778D01*
X328930D01*
X327660Y16508D01*
Y11430D01*
X328930Y10160D01*
X331469D01*
X332738Y11430D01*
X340356Y10160D02*
X335277D01*
X340356Y15238D01*
Y16508D01*
X339086Y17778D01*
X336547D01*
X335277Y16508D01*
X346704Y10160D02*
Y17778D01*
X342895Y13969D01*
X347973D01*
X384812Y153668D02*
X383543Y152399D01*
Y149860D01*
X384812Y148590D01*
X389890D01*
X391160Y149860D01*
Y152399D01*
X389890Y153668D01*
X383543Y161286D02*
Y156208D01*
X387351D01*
X386082Y158747D01*
Y160016D01*
X387351Y161286D01*
X389890D01*
X391160Y160016D01*
Y157477D01*
X389890Y156208D01*
X391160Y168903D02*
Y163825D01*
X386082Y168903D01*
X384812D01*
X383543Y167634D01*
Y165095D01*
X384812Y163825D01*
X512912Y197668D02*
X511643Y198938D01*
X509104D01*
X507834Y197668D01*
Y192590D01*
X509104Y191320D01*
X511643D01*
X512912Y192590D01*
X520530Y191320D02*
X515452D01*
X520530Y196399D01*
Y197668D01*
X519260Y198938D01*
X516721D01*
X515452Y197668D01*
X523069D02*
X524339Y198938D01*
X526878D01*
X528147Y197668D01*
Y196399D01*
X526878Y195129D01*
X525608D01*
X526878D01*
X528147Y193859D01*
Y192590D01*
X526878Y191320D01*
X524339D01*
X523069Y192590D01*
X514160Y168194D02*
X512891Y169464D01*
X510352D01*
X509082Y168194D01*
Y163116D01*
X510352Y161846D01*
X512891D01*
X514160Y163116D01*
X521778Y161846D02*
X516700D01*
X521778Y166924D01*
Y168194D01*
X520508Y169464D01*
X517969D01*
X516700Y168194D01*
X529395Y161846D02*
X524317D01*
X529395Y166924D01*
Y168194D01*
X528126Y169464D01*
X525587D01*
X524317Y168194D01*
X594978Y183727D02*
X593709Y184997D01*
X591170D01*
X589900Y183727D01*
Y178649D01*
X591170Y177379D01*
X593709D01*
X594978Y178649D01*
X602596Y177379D02*
X597518D01*
X602596Y182457D01*
Y183727D01*
X601326Y184997D01*
X598787D01*
X597518Y183727D01*
X605135Y177379D02*
X607674D01*
X606405D01*
Y184997D01*
X605135Y183727D01*
X224792Y151128D02*
X223522Y149859D01*
Y147320D01*
X224792Y146050D01*
X229870D01*
X231140Y147320D01*
Y149859D01*
X229870Y151128D01*
X231140Y157476D02*
X223522D01*
X227331Y153667D01*
Y158746D01*
X229870Y161285D02*
X231140Y162555D01*
Y165094D01*
X229870Y166363D01*
X224792D01*
X223522Y165094D01*
Y162555D01*
X224792Y161285D01*
X226062D01*
X227331Y162555D01*
Y166363D01*
X606128Y139654D02*
X604859Y138385D01*
Y135846D01*
X606128Y134576D01*
X611206D01*
X612476Y135846D01*
Y138385D01*
X611206Y139654D01*
X612476Y147272D02*
Y142193D01*
X607398Y147272D01*
X606128D01*
X604859Y146002D01*
Y143463D01*
X606128Y142193D01*
Y149811D02*
X604859Y151081D01*
Y153620D01*
X606128Y154889D01*
X611206D01*
X612476Y153620D01*
Y151081D01*
X611206Y149811D01*
X606128D01*
X88902Y217168D02*
X87633Y215899D01*
Y213360D01*
X88902Y212090D01*
X93980D01*
X95250Y213360D01*
Y215899D01*
X93980Y217168D01*
X95250Y223516D02*
X87633D01*
X91441Y219708D01*
Y224786D01*
X88902Y227325D02*
X87633Y228595D01*
Y231134D01*
X88902Y232403D01*
X90172D01*
X91441Y231134D01*
X92711Y232403D01*
X93980D01*
X95250Y231134D01*
Y228595D01*
X93980Y227325D01*
X92711D01*
X91441Y228595D01*
X90172Y227325D01*
X88902D01*
X91441Y228595D02*
Y231134D01*
X474978Y106678D02*
X473709Y107948D01*
X471170D01*
X469900Y106678D01*
Y101600D01*
X471170Y100330D01*
X473709D01*
X474978Y101600D01*
X477518Y100330D02*
X480057D01*
X478787D01*
Y107948D01*
X477518Y106678D01*
X483866Y101600D02*
X485135Y100330D01*
X487674D01*
X488944Y101600D01*
Y106678D01*
X487674Y107948D01*
X485135D01*
X483866Y106678D01*
Y105408D01*
X485135Y104139D01*
X488944D01*
X111762Y217168D02*
X110492Y215899D01*
Y213360D01*
X111762Y212090D01*
X116840D01*
X118110Y213360D01*
Y215899D01*
X116840Y217168D01*
X118110Y223516D02*
X110492D01*
X114301Y219708D01*
Y224786D01*
X110492Y227325D02*
Y232403D01*
X111762D01*
X116840Y227325D01*
X118110D01*
X643892Y134618D02*
X642623Y133349D01*
Y130810D01*
X643892Y129540D01*
X648970D01*
X650240Y130810D01*
Y133349D01*
X648970Y134618D01*
X650240Y137157D02*
Y139697D01*
Y138427D01*
X642623D01*
X643892Y137157D01*
Y143505D02*
X642623Y144775D01*
Y147314D01*
X643892Y148584D01*
X645162D01*
X646431Y147314D01*
X647701Y148584D01*
X648970D01*
X650240Y147314D01*
Y144775D01*
X648970Y143505D01*
X647701D01*
X646431Y144775D01*
X645162Y143505D01*
X643892D01*
X646431Y144775D02*
Y147314D01*
X223522Y224788D02*
X222253Y223519D01*
Y220980D01*
X223522Y219710D01*
X228600D01*
X229870Y220980D01*
Y223519D01*
X228600Y224788D01*
X229870Y231136D02*
X222253D01*
X226061Y227327D01*
Y232406D01*
X222253Y240023D02*
X223522Y237484D01*
X226061Y234945D01*
X228600D01*
X229870Y236215D01*
Y238754D01*
X228600Y240023D01*
X227331D01*
X226061Y238754D01*
Y234945D01*
X614678Y83818D02*
X613409Y85087D01*
X610870D01*
X609600Y83818D01*
Y78740D01*
X610870Y77470D01*
X613409D01*
X614678Y78740D01*
X617217Y77470D02*
X619757D01*
X618487D01*
Y85087D01*
X617217Y83818D01*
X623565Y85087D02*
X628644D01*
Y83818D01*
X623565Y78740D01*
Y77470D01*
X212092Y224788D02*
X210823Y223519D01*
Y220980D01*
X212092Y219710D01*
X217170D01*
X218440Y220980D01*
Y223519D01*
X217170Y224788D01*
X218440Y231136D02*
X210823D01*
X214631Y227327D01*
Y232406D01*
X210823Y240023D02*
Y234945D01*
X214631D01*
X213362Y237484D01*
Y238754D01*
X214631Y240023D01*
X217170D01*
X218440Y238754D01*
Y236215D01*
X217170Y234945D01*
X472442Y138428D02*
X471172Y137159D01*
Y134620D01*
X472442Y133350D01*
X477520D01*
X478790Y134620D01*
Y137159D01*
X477520Y138428D01*
X478790Y140968D02*
Y143507D01*
Y142237D01*
X471172D01*
X472442Y140968D01*
X471172Y152394D02*
X472442Y149855D01*
X474981Y147316D01*
X477520D01*
X478790Y148585D01*
Y151124D01*
X477520Y152394D01*
X476251D01*
X474981Y151124D01*
Y147316D01*
X100332Y217168D02*
X99062Y215899D01*
Y213360D01*
X100332Y212090D01*
X105410D01*
X106680Y213360D01*
Y215899D01*
X105410Y217168D01*
X106680Y223516D02*
X99062D01*
X102871Y219708D01*
Y224786D01*
X106680Y231134D02*
X99062D01*
X102871Y227325D01*
Y232403D01*
X688342Y243838D02*
X687073Y242569D01*
Y240030D01*
X688342Y238760D01*
X693420D01*
X694690Y240030D01*
Y242569D01*
X693420Y243838D01*
X694690Y246378D02*
Y248917D01*
Y247647D01*
X687073D01*
X688342Y246378D01*
X687073Y257804D02*
Y252726D01*
X690881D01*
X689612Y255265D01*
Y256534D01*
X690881Y257804D01*
X693420D01*
X694690Y256534D01*
Y253995D01*
X693420Y252726D01*
X8892Y54608D02*
X7623Y53339D01*
Y50800D01*
X8892Y49530D01*
X13970D01*
X15240Y50800D01*
Y53339D01*
X13970Y54608D01*
X15240Y60956D02*
X7623D01*
X11431Y57147D01*
Y62226D01*
X8892Y64765D02*
X7623Y66035D01*
Y68574D01*
X8892Y69843D01*
X10162D01*
X11431Y68574D01*
Y67304D01*
Y68574D01*
X12701Y69843D01*
X13970D01*
X15240Y68574D01*
Y66035D01*
X13970Y64765D01*
X675642Y243838D02*
X674372Y242569D01*
Y240030D01*
X675642Y238760D01*
X680720D01*
X681990Y240030D01*
Y242569D01*
X680720Y243838D01*
X681990Y246378D02*
Y248917D01*
Y247647D01*
X674372D01*
X675642Y246378D01*
X681990Y256534D02*
X674372D01*
X678181Y252726D01*
Y257804D01*
X13968Y115568D02*
X12699Y116838D01*
X10160D01*
X8890Y115568D01*
Y110490D01*
X10160Y109220D01*
X12699D01*
X13968Y110490D01*
X20316Y109220D02*
Y116838D01*
X16508Y113029D01*
X21586D01*
X29203Y109220D02*
X24125D01*
X29203Y114298D01*
Y115568D01*
X27934Y116838D01*
X25395D01*
X24125Y115568D01*
X622302Y245108D02*
X621032Y243839D01*
Y241300D01*
X622302Y240030D01*
X627380D01*
X628650Y241300D01*
Y243839D01*
X627380Y245108D01*
X628650Y247647D02*
Y250187D01*
Y248917D01*
X621032D01*
X622302Y247647D01*
Y253995D02*
X621032Y255265D01*
Y257804D01*
X622302Y259074D01*
X623572D01*
X624841Y257804D01*
Y256535D01*
Y257804D01*
X626111Y259074D01*
X627380D01*
X628650Y257804D01*
Y255265D01*
X627380Y253995D01*
X610872Y245108D02*
X609603Y243839D01*
Y241300D01*
X610872Y240030D01*
X615950D01*
X617220Y241300D01*
Y243839D01*
X615950Y245108D01*
X617220Y247647D02*
Y250187D01*
Y248917D01*
X609603D01*
X610872Y247647D01*
X617220Y259074D02*
Y253995D01*
X612142Y259074D01*
X610872D01*
X609603Y257804D01*
Y255265D01*
X610872Y253995D01*
X690878Y114298D02*
X689609Y115568D01*
X687070D01*
X685800Y114298D01*
Y109220D01*
X687070Y107950D01*
X689609D01*
X690878Y109220D01*
X693418Y107950D02*
X695957D01*
X694687D01*
Y115568D01*
X693418Y114298D01*
X699765Y107950D02*
X702305D01*
X701035D01*
Y115568D01*
X699765Y114298D01*
X401322Y44448D02*
X400052Y43179D01*
Y40640D01*
X401322Y39370D01*
X406400D01*
X407670Y40640D01*
Y43179D01*
X406400Y44448D01*
X401322Y46988D02*
X400052Y48257D01*
Y50796D01*
X401322Y52066D01*
X402592D01*
X403861Y50796D01*
Y49527D01*
Y50796D01*
X405131Y52066D01*
X406400D01*
X407670Y50796D01*
Y48257D01*
X406400Y46988D01*
Y54605D02*
X407670Y55875D01*
Y58414D01*
X406400Y59683D01*
X401322D01*
X400052Y58414D01*
Y55875D01*
X401322Y54605D01*
X402592D01*
X403861Y55875D01*
Y59683D01*
X670558Y97788D02*
X669289Y99058D01*
X666750D01*
X665480Y97788D01*
Y92710D01*
X666750Y91440D01*
X669289D01*
X670558Y92710D01*
X673098Y91440D02*
X675637D01*
X674367D01*
Y99058D01*
X673098Y97788D01*
X679445D02*
X680715Y99058D01*
X683254D01*
X684524Y97788D01*
Y92710D01*
X683254Y91440D01*
X680715D01*
X679445Y92710D01*
Y97788D01*
X58422Y24128D02*
X57153Y22859D01*
Y20320D01*
X58422Y19050D01*
X63500D01*
X64770Y20320D01*
Y22859D01*
X63500Y24128D01*
X58422Y26667D02*
X57153Y27937D01*
Y30476D01*
X58422Y31746D01*
X59692D01*
X60961Y30476D01*
Y29207D01*
Y30476D01*
X62231Y31746D01*
X63500D01*
X64770Y30476D01*
Y27937D01*
X63500Y26667D01*
X58422Y34285D02*
X57153Y35555D01*
Y38094D01*
X58422Y39363D01*
X59692D01*
X60961Y38094D01*
X62231Y39363D01*
X63500D01*
X64770Y38094D01*
Y35555D01*
X63500Y34285D01*
X62231D01*
X60961Y35555D01*
X59692Y34285D01*
X58422D01*
X60961Y35555D02*
Y38094D01*
X609598Y66038D02*
X608329Y67308D01*
X605790D01*
X604520Y66038D01*
Y60960D01*
X605790Y59690D01*
X608329D01*
X609598Y60960D01*
X612137D02*
X613407Y59690D01*
X615946D01*
X617216Y60960D01*
Y66038D01*
X615946Y67308D01*
X613407D01*
X612137Y66038D01*
Y64768D01*
X613407Y63499D01*
X617216D01*
X115568Y17778D02*
X114299Y19047D01*
X111760D01*
X110490Y17778D01*
Y12700D01*
X111760Y11430D01*
X114299D01*
X115568Y12700D01*
X118108Y17778D02*
X119377Y19047D01*
X121916D01*
X123186Y17778D01*
Y16508D01*
X121916Y15239D01*
X120647D01*
X121916D01*
X123186Y13969D01*
Y12700D01*
X121916Y11430D01*
X119377D01*
X118108Y12700D01*
X125725Y19047D02*
X130803D01*
Y17778D01*
X125725Y12700D01*
Y11430D01*
X723900Y246380D02*
Y251458D01*
X726439Y253997D01*
X728978Y251458D01*
Y246380D01*
Y250189D01*
X723900D01*
X731517Y246380D02*
Y253997D01*
X736596Y246380D01*
Y253997D01*
X739135D02*
X744213D01*
X741674D01*
Y246380D01*
X746753D02*
X749292D01*
X748022D01*
Y253997D01*
X746753Y252728D01*
D16*
X206820Y27950D02*
X214820D01*
X81090Y68590D02*
X89090D01*
D17*
X95250Y149860D02*
X90252D01*
Y152359D01*
X91085Y153192D01*
X92751D01*
X93584Y152359D01*
Y149860D01*
Y151526D02*
X95250Y153192D01*
Y158191D02*
Y154858D01*
X91918Y158191D01*
X91085D01*
X90252Y157358D01*
Y155691D01*
X91085Y154858D01*
X90252Y163189D02*
Y159857D01*
X92751D01*
X91918Y161523D01*
Y162356D01*
X92751Y163189D01*
X94417D01*
X95250Y162356D01*
Y160690D01*
X94417Y159857D01*
X105410Y149860D02*
X100412D01*
Y152359D01*
X101245Y153192D01*
X102911D01*
X103744Y152359D01*
Y149860D01*
Y151526D02*
X105410Y153192D01*
Y158191D02*
Y154858D01*
X102078Y158191D01*
X101245D01*
X100412Y157358D01*
Y155691D01*
X101245Y154858D01*
X105410Y162356D02*
X100412D01*
X102911Y159857D01*
Y163189D01*
X223602Y63689D02*
X222602Y62689D01*
Y60690D01*
X223602Y59690D01*
X227600D01*
X228600Y60690D01*
Y62689D01*
X227600Y63689D01*
X223602Y65688D02*
X222602Y66688D01*
Y68687D01*
X223602Y69687D01*
X224601D01*
X225601Y68687D01*
Y67687D01*
Y68687D01*
X226601Y69687D01*
X227600D01*
X228600Y68687D01*
Y66688D01*
X227600Y65688D01*
X222602Y75685D02*
X223602Y73685D01*
X225601Y71686D01*
X227600D01*
X228600Y72686D01*
Y74685D01*
X227600Y75685D01*
X226601D01*
X225601Y74685D01*
Y71686D01*
X233762Y63689D02*
X232762Y62689D01*
Y60690D01*
X233762Y59690D01*
X237760D01*
X238760Y60690D01*
Y62689D01*
X237760Y63689D01*
X233762Y65688D02*
X232762Y66688D01*
Y68687D01*
X233762Y69687D01*
X234761D01*
X235761Y68687D01*
Y67687D01*
Y68687D01*
X236761Y69687D01*
X237760D01*
X238760Y68687D01*
Y66688D01*
X237760Y65688D01*
X232762Y75685D02*
Y71686D01*
X235761D01*
X234761Y73685D01*
Y74685D01*
X235761Y75685D01*
X237760D01*
X238760Y74685D01*
Y72686D01*
X237760Y71686D01*
X212172Y63689D02*
X211172Y62689D01*
Y60690D01*
X212172Y59690D01*
X216170D01*
X217170Y60690D01*
Y62689D01*
X216170Y63689D01*
X212172Y65688D02*
X211172Y66688D01*
Y68687D01*
X212172Y69687D01*
X213171D01*
X214171Y68687D01*
Y67687D01*
Y68687D01*
X215171Y69687D01*
X216170D01*
X217170Y68687D01*
Y66688D01*
X216170Y65688D01*
X217170Y75685D02*
Y71686D01*
X213171Y75685D01*
X212172D01*
X211172Y74685D01*
Y72686D01*
X212172Y71686D01*
X80925Y154462D02*
X80092Y153629D01*
Y151963D01*
X80925Y151130D01*
X84257D01*
X85090Y151963D01*
Y153629D01*
X84257Y154462D01*
X80092Y159461D02*
Y156128D01*
X82591D01*
X81758Y157795D01*
Y158628D01*
X82591Y159461D01*
X84257D01*
X85090Y158628D01*
Y156961D01*
X84257Y156128D01*
X85090Y161127D02*
Y162793D01*
Y161960D01*
X80092D01*
X80925Y161127D01*
X111405Y153192D02*
X110572Y152359D01*
Y150693D01*
X111405Y149860D01*
X114737D01*
X115570Y150693D01*
Y152359D01*
X114737Y153192D01*
X110572Y158191D02*
Y154858D01*
X113071D01*
X112238Y156524D01*
Y157358D01*
X113071Y158191D01*
X114737D01*
X115570Y157358D01*
Y155691D01*
X114737Y154858D01*
X111405Y159857D02*
X110572Y160690D01*
Y162356D01*
X111405Y163189D01*
X114737D01*
X115570Y162356D01*
Y160690D01*
X114737Y159857D01*
X111405D01*
M02*
