M48
;Layer_Color=9474304
;FILE_FORMAT=2:5
INCH,LZ
;TYPE=PLATED
T1F00S00C0.01181
T2F00S00C0.01500
T3F00S00C0.01968
T5F00S00C0.02756
T6F00S00C0.02800
T7F00S00C0.03150
T8F00S00C0.03543
T9F00S00C0.03937
T10F00S00C0.04331
;TYPE=NON_PLATED
T11F00S00C0.03902
%
T01
X0026Y0016
X0031095Y00165
X0043543
X00495Y00205
X00515Y00245
X00535Y00115
X0025Y00305
X00155Y00365
X00045Y00375
X004Y00515
X0038695Y0054822
X0057Y00515
X00655Y00415
X00665Y00135
X006Y0011
X0076Y00135
X0103Y00125
X01015Y0024902
X009615Y003177
X0095923Y0038774
X0092Y00385
X0095663Y0044837
X0106772Y0041401
X0107Y00375
Y0033
X01115
X0111636Y0037205
X01115Y00415
X0116
Y0037
Y0033
X01225Y0028
X01325Y00295
X0142Y00265
X0148Y00245
X014683Y003467
X01525Y00355
X01535Y00385
X0151678Y0041695
X0157542Y0042042
X0156Y00475
X0162938Y0051624
X0168015Y0051301
X01745Y0048
X0181Y0044
X01815Y0052557
X0192Y00455
X0189927Y0039573
X01875Y00335
X0203Y0032
Y00255
X0201Y0023
X0192Y00155
X019Y00075
X0159Y0008
X016Y00045
X01615Y0011
X01595Y0027
X0161Y00305
X0173Y0037948
X01465Y0044
X01425Y0042
X013Y0045
X0124Y0053
X01115Y00545
X0109078Y0050374
X00885Y0029
X01365Y0019
X01465Y0006
X0214093Y0028
X02215
X0223636Y0025947
X0226Y0024
X0242
X0248Y002625
X0245Y0032
X0248Y00355
X02485Y0046
X02545Y00475
X0253Y0051
X0266Y00495
X02675Y0046
X0268Y0031
X0265Y0024
X02685Y00195
X027054Y0010041
X0277622Y0012581
X0238622Y0033279
X023Y0042
Y00475
Y00535
X0224
X0218
X0213
Y00475
X0218
Y0042
X0213
X0224
Y00475
X02165Y00335
X0218Y0059
X0213
X0224
X023
X0229208Y0067021
X02245Y00675
X0220437Y0066385
X0218992Y0075748
Y0080591
Y0085433
Y0090276
Y0095118
X0224642Y0094906
X0230547
X0236453
X0242358
X0248264
X0254169
X0260075
X026598
X0271886
X0277791
X0283697
X0289602
X0292555Y0089
X028665
X0280744
X0274839
X0268933
X0263028
X0257122
X0251217
X0245311
X0239405
X02335
X0227594
X0224642Y0083095
X0213246Y0084361
Y0089204
Y0094046
X0213584Y0098877
X021687Y0102434
X0220294Y0105858
X0223719Y0109282
X0221689Y0112622
X0227143Y0112706
X0230837Y0115837
X0235677Y0115992
X023674Y0110246
X0236453Y0106717
X023197Y0109407
X0228546Y0105983
X0227594Y0100811
X0225122Y0102559
X0221698Y0099134
X02335Y0100811
X0239405
X0245311
X0251217
X0257122
X0263028
X0268933
X0274839
X0280744
X0277791Y0106717
X0260075
X0254169
X0244162Y0117236
X0215784Y0112622
X0212831Y0106717
X0213246Y0079519
Y0074676
X02315Y0074
Y0071
X0241122Y0062779
X0242358Y0083095
X0248264
X0254169
X0260075
X026598
X0271886
X0277791
X0283697
X0289602
X0292555Y0077189
X028665
X0280744
X0274839
X0268933
X0263028
X0257122
X0260075Y0071284
X026598
X0271886
X0277791
X0283697
X0289602
X0292555Y0065378
X028665
X0280744
X0274839
X0268933
X0271886Y0059473
X0277791
X0283697
X0289602
X0202Y00565
X01905Y0056285
X018675Y006225
X01845Y0065
X01855Y0068
X01935Y0070004
X0194085Y0073457
X0197Y0075
X01975Y0072
X0197865Y0077962
X02025Y00775
X0209878Y0077189
X0206925Y0083095
X0209878Y0089
X0206925Y0094906
X0200562Y0092627
X0199Y009
X0194Y00935
X01835Y00945
X01875Y00885
X01815Y0079
X0178327Y007648
X0173Y0079429
X0172Y00745
X0174Y0062
X0180705Y0059295
X01565Y00575
X015Y00585
X0139899Y005683
X0141Y0069
X0154Y0071
X01595Y00835
X01575Y0092
X01535Y0089
X015Y0086
X01465Y0088
X014Y00975
X0157Y01
X0161Y0099
X0168Y00915
X02005Y0099055
X0209878Y0100811
Y0112622
X01275Y01095
X0127Y0082
X01185Y00815
X0118Y0076
X0121Y0071
X01145Y00645
X0108
X0106216Y005996
X0119Y00595
X01235Y0057
X0097Y0067
X0094Y0069
X00925Y00725
X00945Y0078
X0092Y0084
X0093749Y0089
X00925Y0096
X00825Y0094
X0077315Y0099055
X0075Y0085
X0058
X00655Y0062
X0103669Y0088831
X01085Y00915
X01125Y0096
X0051Y01185
X00405Y0084
X00365Y00855
X00295Y0082
X00255Y0067
X0019
X00375Y0059
X0050001Y0059418
X00475Y00635
X00485Y0068
T02
X01005Y0047
X01365Y00345
T03
X0071Y0028
X0164805Y0018137
T05
X0285032Y0009157
Y0028842
X0063Y0094
X0058Y0099
X0068
X0063Y0104
X00195Y00975
X00095
X00145Y00925
Y01025
T06
X00405Y0006
X0057Y0036
X0070878Y0056
X0088Y0054
X0132Y00175
X01525Y00215
X0232309Y008202
X00685Y00755
T07
X0284244Y001585
Y002215
X0289756Y0025299
Y0019
Y0012701
T08
X00065Y00065
X00165
X00575
X00675
X0097095
X0108905
T09
X0005Y0054051
Y006035
Y006665
Y0072949
X0005051Y01155
X001135
X001765
X0023949
T10
X00825Y0105
Y0114988
X00925
Y0105
X01025
Y0114988
X01125
Y0105
X01225
Y0114988
X01325
Y0105
X01425
Y0114988
X01525
Y0105
X01625
Y0114988
X01725
Y0105
X01825
Y0114988
X01925
Y0105
X02025
Y0114988
T11
X01655Y0005
Y0013
X01855Y0009
X0140291Y00385
X0132291
X0136291Y00585
M30
