G04*
G04 #@! TF.GenerationSoftware,Altium Limited,Altium Designer,19.1.5 (86)*
G04*
G04 Layer_Color=8388736*
%FSLAX44Y44*%
%MOMM*%
G71*
G01*
G75*
%ADD69R,2.0032X1.9532*%
%ADD70R,2.0032X1.9532*%
%ADD71R,1.6782X0.6532*%
%ADD72R,0.7532X0.7532*%
%ADD73R,0.6032X0.8032*%
%ADD74R,0.8032X0.6032*%
%ADD75R,0.9532X0.8032*%
%ADD76R,0.9532X1.1532*%
%ADD77R,0.6532X0.6532*%
%ADD78R,0.6032X0.6532*%
%ADD79C,0.6032*%
%ADD80O,1.2032X0.7032*%
%ADD81R,0.6032X1.5532*%
%ADD82R,2.4032X1.8032*%
%ADD83R,2.0032X2.1032*%
%ADD84R,2.1032X2.1032*%
%ADD85R,0.7532X0.7532*%
%ADD86C,1.9032*%
%ADD87R,2.0032X1.2032*%
%ADD88R,1.2032X1.1032*%
%ADD89R,5.9032X5.9032*%
%ADD90R,0.5032X1.0532*%
%ADD91R,1.0532X0.5032*%
%ADD92R,0.9032X0.5032*%
%ADD93R,1.2032X1.9032*%
%ADD94R,0.8232X0.8032*%
%ADD95R,1.2032X2.0032*%
%ADD96R,0.4532X0.8782*%
%ADD97R,0.7782X0.4532*%
%ADD98R,0.9032X0.9532*%
%ADD99R,1.6532X1.3532*%
%ADD100R,0.8032X1.4032*%
%ADD101C,0.9902*%
%ADD102R,1.0032X0.5032*%
%ADD103R,1.0032X0.4532*%
%ADD104R,0.5532X1.0532*%
%ADD105R,1.0532X1.0532*%
%ADD106C,0.4112*%
%ADD107R,1.0532X0.4532*%
%ADD108R,0.4532X1.0532*%
%ADD109R,3.8032X3.8032*%
%ADD110R,0.9532X0.9032*%
%ADD111R,0.8032X0.8232*%
%ADD112R,1.2032X1.0032*%
%ADD113R,0.9032X1.7032*%
%ADD114R,1.0032X1.0032*%
%ADD115R,1.9532X1.7532*%
%ADD116R,2.6532X1.9032*%
%ADD117R,0.8032X0.9532*%
%ADD118R,1.2532X1.2032*%
%ADD119R,0.6032X1.0032*%
%ADD120C,1.4032*%
%ADD121O,1.5032X1.5032*%
%ADD122C,0.2032*%
%ADD123C,0.6982*%
%ADD124C,1.6032*%
%ADD125R,1.7032X1.7032*%
%ADD126C,1.7032*%
G04:AMPARAMS|DCode=127|XSize=1.3032mm|YSize=1.1032mm|CornerRadius=0.3266mm|HoleSize=0mm|Usage=FLASHONLY|Rotation=180.000|XOffset=0mm|YOffset=0mm|HoleType=Round|Shape=RoundedRectangle|*
%AMROUNDEDRECTD127*
21,1,1.3032,0.4500,0,0,180.0*
21,1,0.6500,1.1032,0,0,180.0*
1,1,0.6532,-0.3250,0.2250*
1,1,0.6532,0.3250,0.2250*
1,1,0.6532,0.3250,-0.2250*
1,1,0.6532,-0.3250,-0.2250*
%
%ADD127ROUNDEDRECTD127*%
%ADD128R,1.8532X1.8532*%
%ADD129C,1.8532*%
%ADD130O,1.1000X1.7000*%
%ADD131O,1.7000X1.1000*%
%ADD132C,0.8032*%
D69*
X372110Y167450D02*
D03*
Y238950D02*
D03*
D70*
X259080D02*
D03*
Y167450D02*
D03*
X317500D02*
D03*
Y238950D02*
D03*
D71*
X135771Y207910D02*
D03*
Y201410D02*
D03*
Y194910D02*
D03*
Y188410D02*
D03*
Y181910D02*
D03*
Y175410D02*
D03*
Y168910D02*
D03*
X194531D02*
D03*
Y175410D02*
D03*
Y181910D02*
D03*
Y188410D02*
D03*
Y194910D02*
D03*
Y201410D02*
D03*
Y207910D02*
D03*
D72*
X624840Y278892D02*
D03*
Y267208D02*
D03*
X613410D02*
D03*
Y278892D02*
D03*
X678180Y277622D02*
D03*
Y265938D02*
D03*
X690880Y277622D02*
D03*
Y265938D02*
D03*
X645279Y30866D02*
D03*
Y42550D02*
D03*
X674370Y30988D02*
D03*
Y42672D02*
D03*
X636270Y130048D02*
D03*
Y141732D02*
D03*
X497631Y204976D02*
D03*
Y216660D02*
D03*
X483661D02*
D03*
Y204976D02*
D03*
X458470Y244604D02*
D03*
Y232920D02*
D03*
X447040D02*
D03*
Y244604D02*
D03*
X425450Y202438D02*
D03*
Y214122D02*
D03*
X414020D02*
D03*
Y202438D02*
D03*
X483870Y123698D02*
D03*
Y135382D02*
D03*
X466090Y114808D02*
D03*
Y126492D02*
D03*
X401320Y65278D02*
D03*
Y76962D02*
D03*
X328807Y79117D02*
D03*
Y67433D02*
D03*
X318647D02*
D03*
Y79117D02*
D03*
X305373Y143699D02*
D03*
Y132015D02*
D03*
X275848Y146239D02*
D03*
Y134555D02*
D03*
X263148D02*
D03*
Y146239D02*
D03*
X234950Y114808D02*
D03*
Y126492D02*
D03*
X235523Y91629D02*
D03*
Y79945D02*
D03*
X225363Y91629D02*
D03*
Y79945D02*
D03*
X213933D02*
D03*
Y91629D02*
D03*
X199390Y49022D02*
D03*
Y37338D02*
D03*
X140970Y49022D02*
D03*
Y37338D02*
D03*
X119380Y57912D02*
D03*
Y46228D02*
D03*
X118520Y35582D02*
D03*
Y23898D02*
D03*
X70260Y35582D02*
D03*
Y23898D02*
D03*
X71120Y88392D02*
D03*
Y76708D02*
D03*
X11430Y88392D02*
D03*
Y76708D02*
D03*
X113251Y169418D02*
D03*
Y181102D02*
D03*
X103091D02*
D03*
Y169418D02*
D03*
X92931D02*
D03*
Y181102D02*
D03*
X82771D02*
D03*
Y169418D02*
D03*
X113251Y205232D02*
D03*
Y193548D02*
D03*
X103091Y205232D02*
D03*
Y193548D02*
D03*
X92931D02*
D03*
Y205232D02*
D03*
X226281Y183642D02*
D03*
Y171958D02*
D03*
X216121Y183642D02*
D03*
Y171958D02*
D03*
X226281Y212852D02*
D03*
Y201168D02*
D03*
X216121D02*
D03*
Y212852D02*
D03*
D73*
X647550Y296410D02*
D03*
X654050D02*
D03*
X660550D02*
D03*
X647550Y282710D02*
D03*
X654050D02*
D03*
X660550D02*
D03*
D74*
X664050Y289560D02*
D03*
X644050D02*
D03*
D75*
X679030D02*
D03*
X690030D02*
D03*
X614260D02*
D03*
X625260D02*
D03*
D76*
X731910Y302260D02*
D03*
X748910D02*
D03*
D77*
X393300Y238320D02*
D03*
X406800D02*
D03*
Y246820D02*
D03*
X393300D02*
D03*
D78*
X400050Y238320D02*
D03*
Y246820D02*
D03*
D79*
X73660Y247650D02*
D03*
X120650Y5080D02*
D03*
X207010Y163830D02*
D03*
X246380Y69850D02*
D03*
X288290Y208280D02*
D03*
X394970Y91440D02*
D03*
X273050Y245110D02*
D03*
X342900Y22860D02*
D03*
X76200Y193040D02*
D03*
X124460Y218440D02*
D03*
X472440Y189230D02*
D03*
X453390Y158750D02*
D03*
X194310Y71120D02*
D03*
X173990Y154940D02*
D03*
X308610Y48260D02*
D03*
X237490Y162560D02*
D03*
X394620Y17040D02*
D03*
X309880Y123190D02*
D03*
X330200Y128270D02*
D03*
X288290Y193040D02*
D03*
Y180340D02*
D03*
X468579Y226845D02*
D03*
X398780Y219710D02*
D03*
X608330Y170180D02*
D03*
X471170Y200660D02*
D03*
X477520Y247650D02*
D03*
X496570Y63500D02*
D03*
Y50800D02*
D03*
X628650Y182880D02*
D03*
X406400Y85090D02*
D03*
X519430Y247650D02*
D03*
X242570Y245110D02*
D03*
X537210Y73660D02*
D03*
X549910Y66040D02*
D03*
X580390Y68580D02*
D03*
X680720Y69850D02*
D03*
X637540Y123190D02*
D03*
X640080Y154940D02*
D03*
X481930Y26670D02*
D03*
X464820Y87630D02*
D03*
X419100Y80010D02*
D03*
X415290Y68580D02*
D03*
D80*
X322580Y109220D02*
D03*
Y101600D02*
D03*
Y93980D02*
D03*
Y86360D02*
D03*
D81*
X550180Y40720D02*
D03*
X556680D02*
D03*
X563180D02*
D03*
X569680D02*
D03*
X576180D02*
D03*
D82*
X531680Y39470D02*
D03*
X594680D02*
D03*
D83*
X523180Y13970D02*
D03*
X603180D02*
D03*
D84*
X551180D02*
D03*
X575180D02*
D03*
D85*
X587248Y63500D02*
D03*
X598932D02*
D03*
X624332Y129540D02*
D03*
X612648D02*
D03*
Y116840D02*
D03*
X624332D02*
D03*
Y91440D02*
D03*
X612648D02*
D03*
X680212Y85090D02*
D03*
X668528D02*
D03*
X680212Y110490D02*
D03*
X668528D02*
D03*
X579882Y180340D02*
D03*
X568198D02*
D03*
X568833Y189865D02*
D03*
X580517D02*
D03*
X512870Y175260D02*
D03*
X524554D02*
D03*
X512870Y185420D02*
D03*
X524554D02*
D03*
X496062Y231140D02*
D03*
X484378D02*
D03*
X376428Y119380D02*
D03*
X388112D02*
D03*
X494538Y104140D02*
D03*
X506222D02*
D03*
X494538Y92710D02*
D03*
X506222D02*
D03*
X353568Y13970D02*
D03*
X365252D02*
D03*
X141478Y62230D02*
D03*
X153162D02*
D03*
X47498Y102870D02*
D03*
X59182D02*
D03*
X11938D02*
D03*
X23622D02*
D03*
X129032Y140970D02*
D03*
X117348D02*
D03*
X87122Y128270D02*
D03*
X75438D02*
D03*
Y139700D02*
D03*
X87122D02*
D03*
X177038Y62230D02*
D03*
X188722D02*
D03*
D86*
X674489Y15118D02*
D03*
X645279D02*
D03*
D87*
X648970Y110290D02*
D03*
Y85290D02*
D03*
D88*
X621030Y159130D02*
D03*
Y143130D02*
D03*
X119140Y301720D02*
D03*
X89140D02*
D03*
D89*
X562400Y126960D02*
D03*
D90*
X589900Y92460D02*
D03*
X584900D02*
D03*
X579900D02*
D03*
X574900D02*
D03*
X569900D02*
D03*
X564900D02*
D03*
X559900D02*
D03*
X554900D02*
D03*
X549900D02*
D03*
X544900D02*
D03*
X539900D02*
D03*
X534900D02*
D03*
Y161460D02*
D03*
X539900D02*
D03*
X544900D02*
D03*
X549900D02*
D03*
X554900D02*
D03*
X559900D02*
D03*
X564900D02*
D03*
X569900D02*
D03*
X574900D02*
D03*
X579900D02*
D03*
X584900D02*
D03*
X589900D02*
D03*
D91*
X527900Y99460D02*
D03*
Y104460D02*
D03*
Y109460D02*
D03*
Y114460D02*
D03*
Y119460D02*
D03*
Y124460D02*
D03*
Y129460D02*
D03*
Y134460D02*
D03*
Y139460D02*
D03*
Y144460D02*
D03*
Y149460D02*
D03*
Y154460D02*
D03*
X596900D02*
D03*
Y149460D02*
D03*
Y144460D02*
D03*
Y139460D02*
D03*
Y134460D02*
D03*
Y129460D02*
D03*
Y124460D02*
D03*
Y119460D02*
D03*
Y114460D02*
D03*
Y109460D02*
D03*
Y104460D02*
D03*
Y99460D02*
D03*
D92*
X441280Y222250D02*
D03*
Y217250D02*
D03*
Y212250D02*
D03*
Y207250D02*
D03*
X462280D02*
D03*
Y212250D02*
D03*
Y217250D02*
D03*
Y222250D02*
D03*
D93*
X451780Y214750D02*
D03*
D94*
X387350Y141760D02*
D03*
Y132560D02*
D03*
X377190Y140490D02*
D03*
Y131290D02*
D03*
X397950Y179860D02*
D03*
Y170660D02*
D03*
X452950Y179860D02*
D03*
Y170660D02*
D03*
D95*
X437950Y175260D02*
D03*
X412950D02*
D03*
D96*
X405490Y144680D02*
D03*
X404860Y113430D02*
D03*
X410490D02*
D03*
X415490D02*
D03*
X420490D02*
D03*
X425490D02*
D03*
X430490D02*
D03*
X435490D02*
D03*
X440490D02*
D03*
X445490D02*
D03*
X450620D02*
D03*
X451120Y144680D02*
D03*
X445490D02*
D03*
X440490D02*
D03*
X435490D02*
D03*
X430490D02*
D03*
X425490D02*
D03*
X420490D02*
D03*
X415490D02*
D03*
X410490D02*
D03*
D97*
X404860Y136560D02*
D03*
Y131560D02*
D03*
Y126560D02*
D03*
Y121560D02*
D03*
X451120D02*
D03*
Y126560D02*
D03*
Y131560D02*
D03*
Y136560D02*
D03*
D98*
X487760Y169310D02*
D03*
Y155810D02*
D03*
X497760D02*
D03*
Y169310D02*
D03*
D99*
X500380Y118000D02*
D03*
Y136000D02*
D03*
X384620Y25290D02*
D03*
Y43290D02*
D03*
X181610Y107840D02*
D03*
Y125840D02*
D03*
D100*
X451460Y62430D02*
D03*
X441960D02*
D03*
X432460D02*
D03*
Y87430D02*
D03*
X441960D02*
D03*
X451460D02*
D03*
D101*
X433070Y16510D02*
D03*
Y29210D02*
D03*
X445770Y16510D02*
D03*
Y29210D02*
D03*
X458470Y16510D02*
D03*
Y29210D02*
D03*
X352530Y110490D02*
D03*
X339830D02*
D03*
X352530Y123190D02*
D03*
X339830D02*
D03*
X352530Y135890D02*
D03*
X339830D02*
D03*
D102*
X372110Y84930D02*
D03*
Y69930D02*
D03*
X387110D02*
D03*
Y84930D02*
D03*
X154150Y50800D02*
D03*
Y45800D02*
D03*
Y40800D02*
D03*
Y35800D02*
D03*
X184150D02*
D03*
Y40800D02*
D03*
Y45800D02*
D03*
Y50800D02*
D03*
X24370Y90050D02*
D03*
Y85050D02*
D03*
Y80050D02*
D03*
Y75050D02*
D03*
X54370D02*
D03*
Y80050D02*
D03*
Y85050D02*
D03*
Y90050D02*
D03*
D103*
X372110Y79930D02*
D03*
Y74930D02*
D03*
X387110D02*
D03*
Y79930D02*
D03*
D104*
X379610Y67430D02*
D03*
Y87430D02*
D03*
X103730Y56410D02*
D03*
X97230D02*
D03*
X90730D02*
D03*
X84230D02*
D03*
Y27410D02*
D03*
X90730D02*
D03*
X97230D02*
D03*
X103730D02*
D03*
D105*
X351470Y57150D02*
D03*
X366970D02*
D03*
D106*
X361950Y29020D02*
D03*
X357950D02*
D03*
X361950Y33020D02*
D03*
X357950D02*
D03*
X361950Y37020D02*
D03*
X357950D02*
D03*
X158940Y115380D02*
D03*
X154940D02*
D03*
X158940Y119380D02*
D03*
X154940D02*
D03*
X158940Y123380D02*
D03*
X154940D02*
D03*
D107*
X258131Y112000D02*
D03*
Y107000D02*
D03*
Y102000D02*
D03*
Y97000D02*
D03*
Y92000D02*
D03*
Y87000D02*
D03*
Y82000D02*
D03*
Y77000D02*
D03*
X307131D02*
D03*
Y82000D02*
D03*
Y87000D02*
D03*
Y92000D02*
D03*
Y97000D02*
D03*
Y102000D02*
D03*
Y107000D02*
D03*
Y112000D02*
D03*
D108*
X265131Y70000D02*
D03*
X270131D02*
D03*
X275131D02*
D03*
X280131D02*
D03*
X285131D02*
D03*
X290131D02*
D03*
X295131D02*
D03*
X300131D02*
D03*
Y119000D02*
D03*
X295131D02*
D03*
X290131D02*
D03*
X285131D02*
D03*
X280131D02*
D03*
X275131D02*
D03*
X270131D02*
D03*
X265131D02*
D03*
D109*
X282631Y94500D02*
D03*
D110*
X205913Y109997D02*
D03*
X219413D02*
D03*
Y119997D02*
D03*
X205913D02*
D03*
D111*
X151800Y97980D02*
D03*
X161000D02*
D03*
X405610Y99060D02*
D03*
X414810D02*
D03*
D112*
X298120Y5510D02*
D03*
Y27510D02*
D03*
X225120Y5510D02*
D03*
Y27510D02*
D03*
D113*
X284120Y34010D02*
D03*
X269120D02*
D03*
X239120D02*
D03*
D114*
X210820Y36950D02*
D03*
Y51950D02*
D03*
X85090Y77590D02*
D03*
Y92590D02*
D03*
D115*
X169150Y43300D02*
D03*
X39370Y82550D02*
D03*
D116*
X93980Y41910D02*
D03*
D117*
X70260Y47100D02*
D03*
Y58100D02*
D03*
D118*
X148900Y143700D02*
D03*
X163900D02*
D03*
D119*
X100140Y297220D02*
D03*
X108140D02*
D03*
D120*
X24130Y247650D02*
D03*
X36830Y234950D02*
D03*
X49530Y247650D02*
D03*
X36830Y260350D02*
D03*
X147320Y251460D02*
D03*
X160020Y238760D02*
D03*
X172720Y251460D02*
D03*
X160020Y264160D02*
D03*
D121*
X721980Y56260D02*
D03*
X735980Y64260D02*
D03*
Y48260D02*
D03*
Y32260D02*
D03*
X721980Y40260D02*
D03*
D122*
X723980Y73260D02*
D03*
Y23260D02*
D03*
D123*
X420370Y33020D02*
D03*
Y12700D02*
D03*
X471170Y22860D02*
D03*
X336020Y97790D02*
D03*
X356340D02*
D03*
X346180Y148590D02*
D03*
D124*
X276620Y16510D02*
D03*
X246620D02*
D03*
D125*
X171450D02*
D03*
X16510D02*
D03*
D126*
X146050D02*
D03*
X41910D02*
D03*
D127*
X58640Y181610D02*
D03*
Y139610D02*
D03*
X40640Y181610D02*
D03*
Y139610D02*
D03*
D128*
X209550Y266700D02*
D03*
D129*
Y292070D02*
D03*
X234950Y266700D02*
D03*
Y292070D02*
D03*
X260350Y266700D02*
D03*
Y292070D02*
D03*
X285750Y266700D02*
D03*
Y292070D02*
D03*
X311150Y266700D02*
D03*
Y292070D02*
D03*
X336550Y266700D02*
D03*
Y292070D02*
D03*
X361950Y266700D02*
D03*
Y292070D02*
D03*
X387350Y266700D02*
D03*
Y292070D02*
D03*
X412750Y266700D02*
D03*
Y292070D02*
D03*
X438150Y266700D02*
D03*
Y292070D02*
D03*
X463550Y266700D02*
D03*
Y292070D02*
D03*
X488950Y266700D02*
D03*
Y292070D02*
D03*
X514350Y266700D02*
D03*
Y292070D02*
D03*
D130*
X60830Y293370D02*
D03*
X44830D02*
D03*
X28830D02*
D03*
X12830D02*
D03*
D131*
X12700Y185290D02*
D03*
Y169290D02*
D03*
Y153290D02*
D03*
Y137290D02*
D03*
D132*
X553720Y135890D02*
D03*
X541020Y120650D02*
D03*
X553720D02*
D03*
X568960Y135890D02*
D03*
X584200Y120650D02*
D03*
Y106680D02*
D03*
Y135890D02*
D03*
X553720Y149860D02*
D03*
X568960D02*
D03*
X584200D02*
D03*
X541020Y135890D02*
D03*
Y149860D02*
D03*
X568960Y106680D02*
D03*
X541020D02*
D03*
X553720D02*
D03*
X568960Y120650D02*
D03*
X294640Y93980D02*
D03*
X283556Y94500D02*
D03*
X283210Y83820D02*
D03*
X271780D02*
D03*
Y95250D02*
D03*
X294640Y83820D02*
D03*
Y105410D02*
D03*
X283210D02*
D03*
X271201Y105160D02*
D03*
M02*
