G04*
G04 #@! TF.GenerationSoftware,Altium Limited,Altium Designer,19.1.5 (86)*
G04*
G04 Layer_Physical_Order=2*
G04 Layer_Color=1930808*
%FSLAX44Y44*%
%MOMM*%
G71*
G01*
G75*
%ADD12C,0.2540*%
%ADD15C,0.1524*%
%ADD133C,0.2032*%
%ADD135C,0.5080*%
%ADD136C,0.3048*%
%ADD144C,1.2000*%
%ADD145O,1.3000X1.3000*%
%ADD146C,0.4950*%
%ADD147C,1.4000*%
%ADD148R,1.5000X1.5000*%
%ADD149C,1.5000*%
G04:AMPARAMS|DCode=150|XSize=1.1mm|YSize=0.9mm|CornerRadius=0.225mm|HoleSize=0mm|Usage=FLASHONLY|Rotation=180.000|XOffset=0mm|YOffset=0mm|HoleType=Round|Shape=RoundedRectangle|*
%AMROUNDEDRECTD150*
21,1,1.1000,0.4500,0,0,180.0*
21,1,0.6500,0.9000,0,0,180.0*
1,1,0.4500,-0.3250,0.2250*
1,1,0.4500,0.3250,0.2250*
1,1,0.4500,0.3250,-0.2250*
1,1,0.4500,-0.3250,-0.2250*
%
%ADD150ROUNDEDRECTD150*%
%ADD151R,1.6500X1.6500*%
%ADD152C,1.6500*%
%ADD153O,1.4000X2.0000*%
%ADD154O,2.0000X1.4000*%
%ADD155C,0.6000*%
%ADD156C,0.7620*%
%ADD157C,1.2700*%
%ADD158C,1.0000*%
%ADD159C,1.2700*%
G36*
X722208Y304866D02*
Y259372D01*
X722692Y258206D01*
X723858Y257722D01*
X747902D01*
X750596Y255028D01*
X750541Y39373D01*
X747007Y37042D01*
X746731Y37074D01*
X746414Y37547D01*
X741686Y42276D01*
X741703Y42537D01*
X742989Y44213D01*
X743798Y46165D01*
X744073Y48260D01*
X743798Y50355D01*
X742989Y52307D01*
X742325Y53172D01*
X742308Y53202D01*
X742293Y57103D01*
X742427Y57813D01*
X743876Y59701D01*
X744787Y61900D01*
X744931Y62990D01*
X735980D01*
Y64260D01*
X734710D01*
Y73211D01*
X733620Y73067D01*
X732797Y72727D01*
X732220Y72810D01*
X729397Y74272D01*
X728771Y74925D01*
X728712Y75220D01*
X727602Y76882D01*
X725940Y77993D01*
X723980Y78382D01*
X722020Y77993D01*
X720358Y76882D01*
X719248Y75220D01*
X718858Y73260D01*
X719248Y71300D01*
X720358Y69638D01*
X721527Y68857D01*
X722361Y66036D01*
X722421Y65596D01*
X721655Y64310D01*
X719885Y64078D01*
X717933Y63269D01*
X716257Y61983D01*
X714971Y60307D01*
X714163Y58355D01*
X714117Y58005D01*
X680800D01*
X677713Y60960D01*
X677362Y62725D01*
X676362Y64222D01*
X674865Y65222D01*
X673100Y65573D01*
X671335Y65222D01*
X669838Y64222D01*
X669216Y63291D01*
X625592D01*
X623863Y67101D01*
X623950Y67310D01*
X623950Y67310D01*
X623950Y68787D01*
Y76996D01*
X624065Y77018D01*
X625562Y78018D01*
X626562Y79515D01*
X626913Y81280D01*
X626912Y81284D01*
X629731Y84479D01*
X629854Y84535D01*
X629920Y84522D01*
X632082Y84951D01*
X633914Y86176D01*
X635139Y88008D01*
X635316Y88900D01*
X629920D01*
Y90170D01*
X628650D01*
Y95566D01*
X627758Y95389D01*
X623950Y97426D01*
Y110847D01*
X625546Y111830D01*
X627760Y112469D01*
X629028Y111621D01*
X629920Y111444D01*
Y116840D01*
Y122236D01*
X629028Y122059D01*
X627760Y121211D01*
X625546Y121850D01*
X623950Y122833D01*
X623950Y166370D01*
X623466Y167536D01*
X623257Y167623D01*
Y192405D01*
X623257Y192405D01*
X623122Y193433D01*
X622986Y194461D01*
X622193Y196376D01*
X620931Y198021D01*
X620931Y198021D01*
X605005Y213947D01*
X603360Y215209D01*
X601444Y216003D01*
X600416Y216138D01*
X599389Y216273D01*
X599389Y216273D01*
X590065D01*
X588010Y216003D01*
X586095Y215209D01*
X584450Y213947D01*
X583188Y212302D01*
X582394Y210387D01*
X582124Y208331D01*
X582394Y206276D01*
X583188Y204360D01*
X584450Y202715D01*
X586095Y201453D01*
X588010Y200660D01*
X590065Y200389D01*
X596099D01*
X607373Y189115D01*
Y167623D01*
X607164Y167536D01*
X607164Y167536D01*
X606680Y166370D01*
Y164898D01*
X606680Y164897D01*
X606776Y164667D01*
X606752Y164421D01*
X606751Y164419D01*
X607009Y164105D01*
X607164Y163731D01*
X608189Y161225D01*
X607837Y159460D01*
X608189Y157695D01*
X607164Y155189D01*
X607009Y154815D01*
X606752Y154501D01*
X606776Y154253D01*
X606680Y154023D01*
X606680Y92847D01*
X606502Y91711D01*
X602458Y89815D01*
X601996Y90066D01*
X601622Y90222D01*
X601308Y90478D01*
X601060Y90454D01*
X600830Y90550D01*
X555374Y90550D01*
X555144Y90454D01*
X554895Y90478D01*
X554582Y90222D01*
X554208Y90066D01*
X551675Y89352D01*
X549910Y89703D01*
X549214Y89564D01*
X545612Y90066D01*
X544925Y90479D01*
X544676Y90454D01*
X544446Y90550D01*
X542002Y90550D01*
X510244D01*
X509941Y90424D01*
X509613D01*
X509381Y90192D01*
X509078Y90066D01*
X505759Y91726D01*
X490756Y106729D01*
X490634Y107210D01*
X491448Y111425D01*
X491674Y111576D01*
X492899Y113408D01*
X493076Y114300D01*
X487680D01*
Y116840D01*
X493076D01*
X492899Y117732D01*
X491674Y119564D01*
X489842Y120789D01*
X487680Y121219D01*
X484740Y124502D01*
Y129825D01*
X495317Y140402D01*
X509715D01*
X509818Y140248D01*
X511315Y139249D01*
X513080Y138897D01*
X514845Y139249D01*
X516342Y140248D01*
X517341Y141745D01*
X517693Y143510D01*
X520780Y146465D01*
X527236D01*
X528128Y146643D01*
X528884Y147148D01*
X540865Y159129D01*
X567860D01*
X568752Y159307D01*
X569508Y159812D01*
X575275Y165579D01*
X578927Y166972D01*
X580423Y165972D01*
X582188Y165621D01*
X583954Y165972D01*
X585450Y166972D01*
X586450Y168469D01*
X586801Y170234D01*
X586450Y171999D01*
X586331Y172177D01*
X587362Y174356D01*
X588346Y175794D01*
X589775Y176078D01*
X591272Y177078D01*
X592271Y178575D01*
X592623Y180340D01*
X592271Y182105D01*
X591272Y183602D01*
X589775Y184601D01*
X588010Y184953D01*
X586245Y184601D01*
X584748Y183602D01*
X584126Y182671D01*
X552945D01*
X552053Y182493D01*
X551297Y181988D01*
X550699Y181391D01*
X508193D01*
X505984Y184579D01*
X505999Y184793D01*
X508000Y188169D01*
X508892Y188347D01*
X509648Y188852D01*
X513252Y192456D01*
X514350Y192237D01*
X516115Y192589D01*
X517612Y193588D01*
X518611Y195085D01*
X518963Y196850D01*
X518611Y198615D01*
X517612Y200112D01*
X516115Y201112D01*
X514350Y201463D01*
X512585Y201112D01*
X511088Y200112D01*
X510757Y199616D01*
X507703Y199751D01*
X506847Y199895D01*
X506739Y199938D01*
X505838Y201286D01*
X504907Y201908D01*
Y214591D01*
X514728Y224412D01*
X515233Y225168D01*
X515411Y226060D01*
Y233680D01*
X515233Y234572D01*
X514728Y235328D01*
X513992Y236065D01*
X513866Y236148D01*
X513689Y237038D01*
X512689Y238535D01*
X511193Y239534D01*
X509428Y239886D01*
X507662Y239534D01*
X506166Y238535D01*
X505166Y237038D01*
X504815Y235273D01*
X505166Y233508D01*
X504172Y232957D01*
X503695Y232861D01*
X502198Y231862D01*
X501199Y230365D01*
X501079Y229766D01*
X500723Y229527D01*
X490777Y219582D01*
X490103Y218574D01*
X489867Y217385D01*
Y203400D01*
X484192D01*
Y224790D01*
X483921Y226845D01*
X483128Y228761D01*
X481866Y230406D01*
X480221Y231668D01*
X478306Y232461D01*
X476250Y232732D01*
X474194Y232461D01*
X472279Y231668D01*
X470634Y230406D01*
X469372Y228761D01*
X468579Y226845D01*
X468308Y224790D01*
Y204739D01*
X464861Y203693D01*
X464272Y203922D01*
X462775Y204921D01*
X461010Y205273D01*
X459912Y205054D01*
X451228Y213738D01*
X450472Y214243D01*
X449580Y214421D01*
X409014D01*
X408392Y215352D01*
X406895Y216352D01*
X405130Y216703D01*
X403365Y216352D01*
X401868Y215352D01*
X400868Y213855D01*
X400517Y212090D01*
X400868Y210325D01*
X401868Y208828D01*
X403365Y207829D01*
X405130Y207477D01*
X406895Y207829D01*
X408392Y208828D01*
X409014Y209759D01*
X434577D01*
X435733Y205949D01*
X435426Y205744D01*
X434201Y203912D01*
X434024Y203020D01*
X439420D01*
Y201750D01*
X440690D01*
Y196354D01*
X441582Y196531D01*
X442382Y197066D01*
X444810Y194107D01*
X441582Y190878D01*
X441077Y190122D01*
X440899Y189230D01*
Y161882D01*
X440195Y161742D01*
X438698Y160742D01*
X437699Y159245D01*
X437347Y157480D01*
X437699Y155715D01*
X438698Y154218D01*
X440195Y153218D01*
X441960Y152867D01*
X445271Y150194D01*
X445390Y149961D01*
Y129341D01*
X444500Y128611D01*
Y121920D01*
X443230D01*
Y120650D01*
X437834D01*
X438011Y119758D01*
X439236Y117926D01*
X441068Y116701D01*
X443021Y116313D01*
X443377Y115901D01*
X445390Y112788D01*
X445390Y112769D01*
Y103643D01*
X441582Y101606D01*
X440690Y101783D01*
Y96387D01*
X438150D01*
Y101783D01*
X437258Y101606D01*
X435426Y100381D01*
X434201Y98549D01*
X433772Y96387D01*
X430495Y93437D01*
X427116D01*
X423196Y97357D01*
X421536Y100675D01*
X421662Y100979D01*
X421894Y101211D01*
Y101539D01*
X422020Y101842D01*
X422020Y128937D01*
X422020Y128937D01*
X421807Y129451D01*
X421645Y129984D01*
X421645D01*
X421569Y130024D01*
X421536Y130104D01*
X421536Y130104D01*
X421022Y130316D01*
X420532Y130579D01*
X419133Y130951D01*
X418124Y132891D01*
X417124Y134388D01*
X415627Y135387D01*
X414684Y135575D01*
X413862Y135738D01*
X413862Y135738D01*
X411996Y135481D01*
X410210Y137132D01*
X409891Y137268D01*
X409641Y137509D01*
X409641Y137509D01*
X409332Y137504D01*
X409048Y137624D01*
X409048Y137624D01*
X408712Y137627D01*
X401811Y137678D01*
X400668Y141497D01*
X401504Y142056D01*
X402729Y143888D01*
X402906Y144780D01*
X392114D01*
X392291Y143888D01*
X393516Y142056D01*
X394281Y141545D01*
X393112Y137744D01*
X362113Y137975D01*
X360303Y141799D01*
X360563Y142187D01*
X360740Y143079D01*
X355344D01*
Y144349D01*
X354074D01*
Y150462D01*
X352283Y151118D01*
X350851Y153261D01*
X348708Y154693D01*
X346180Y155196D01*
X343652Y154693D01*
X341509Y153261D01*
X340077Y151118D01*
X339574Y148590D01*
X340077Y146062D01*
X341509Y143919D01*
X343652Y142487D01*
X346180Y141984D01*
X346239Y141904D01*
X344307Y138109D01*
X331096Y138207D01*
X321292Y141763D01*
X318400Y142847D01*
X318303Y144780D01*
X318303Y144780D01*
X317952Y146545D01*
X316952Y148042D01*
X315455Y149042D01*
X313690Y149393D01*
X311925Y149042D01*
X307752Y149874D01*
X307299Y150184D01*
X306831Y150921D01*
X306873Y151130D01*
X306521Y152895D01*
X305522Y154392D01*
X304025Y155392D01*
X302260Y155743D01*
X300495Y155392D01*
X298998Y154392D01*
X298376Y153461D01*
X288435D01*
X286982Y153694D01*
X286640Y154007D01*
X286373Y154387D01*
X286189Y154419D01*
X286050Y154546D01*
X281968Y156026D01*
X280974Y160440D01*
X282021Y161499D01*
X286946D01*
X287568Y160568D01*
X289065Y159569D01*
X290830Y159217D01*
X292595Y159569D01*
X294092Y160568D01*
X295091Y162065D01*
X295443Y163830D01*
X295091Y165595D01*
X294092Y167092D01*
X292595Y168092D01*
X290830Y168443D01*
X289065Y168092D01*
X287568Y167092D01*
X286946Y166161D01*
X278204D01*
X277582Y167092D01*
X276085Y168092D01*
X274320Y168443D01*
X272555Y168092D01*
X271058Y167092D01*
X270058Y165595D01*
X269837Y164479D01*
X268347Y163006D01*
X266240Y161731D01*
X251962Y166909D01*
X251599Y168018D01*
X251776Y168910D01*
X246380D01*
Y170180D01*
X245110D01*
Y175576D01*
X244375Y175430D01*
X243979Y177422D01*
X242754Y179254D01*
X242027Y179740D01*
X239212Y182385D01*
X239563Y184150D01*
X239212Y185915D01*
X239023Y186197D01*
X241678Y188852D01*
X242183Y189608D01*
X242361Y190500D01*
Y194236D01*
X243292Y194858D01*
X244291Y196355D01*
X244643Y198120D01*
X244291Y199885D01*
X243292Y201382D01*
X241795Y202381D01*
X240030Y202733D01*
X238265Y202381D01*
X236768Y201382D01*
X235769Y199885D01*
X235417Y198120D01*
X235769Y196355D01*
X236768Y194858D01*
X236963Y191669D01*
X234950Y188763D01*
X233185Y188412D01*
X231688Y187412D01*
X230688Y185915D01*
X230337Y184150D01*
X230688Y182385D01*
X231688Y180888D01*
X231756Y180843D01*
X231537Y178866D01*
X227597Y176790D01*
X184494Y194905D01*
X184269Y194907D01*
X184075Y195020D01*
X183660Y194910D01*
X183232Y194912D01*
X180093Y196751D01*
X179606Y197386D01*
X177961Y198648D01*
X176045Y199441D01*
X173990Y199712D01*
X173779Y199684D01*
X172428Y199848D01*
X169767Y200571D01*
X169463Y200879D01*
X169463Y200879D01*
X169247Y201254D01*
X169034Y201311D01*
X168879Y201468D01*
X159834Y205270D01*
X159177Y205546D01*
X159177Y205546D01*
X159006Y205547D01*
X158864Y205643D01*
X158863Y205642D01*
X158393Y205550D01*
X157914Y205553D01*
X157782Y205430D01*
X157625Y205399D01*
X157625Y205399D01*
X156567Y204697D01*
X156567Y204697D01*
X156477Y204563D01*
X156313Y204489D01*
X156130Y204046D01*
X155863Y203649D01*
X155863Y203649D01*
X155896Y203481D01*
X155830Y203323D01*
X155830Y203323D01*
X155830Y202610D01*
Y153670D01*
X155942Y153401D01*
X155928Y153110D01*
X162348Y135330D01*
X162480Y135185D01*
X162516Y134993D01*
X164986Y131183D01*
X165018Y131160D01*
X165027Y131122D01*
X165533Y130806D01*
X166026Y130467D01*
X166064Y130474D01*
X166098Y130453D01*
X235089Y118900D01*
X235697Y118252D01*
X237227Y115156D01*
X242984D01*
Y112616D01*
X237588D01*
X237765Y111725D01*
X238180Y111104D01*
X238244Y110974D01*
X238552Y108653D01*
X237680Y106185D01*
X233862Y102367D01*
X233680Y102403D01*
X231915Y102051D01*
X230418Y101052D01*
X229419Y99555D01*
X229067Y97790D01*
X229419Y96025D01*
X230418Y94528D01*
X231915Y93528D01*
X233680Y93177D01*
X235445Y93528D01*
X236942Y94528D01*
X240030Y95154D01*
X241252Y94644D01*
X241879Y94225D01*
X243644Y93874D01*
X245409Y94225D01*
X246905Y95225D01*
X247905Y96721D01*
X248256Y98487D01*
X248038Y99585D01*
X259153Y110699D01*
X307631D01*
X308523Y110877D01*
X309279Y111382D01*
X309867Y111969D01*
X326316D01*
X326938Y111038D01*
X328435Y110038D01*
X330200Y109687D01*
X331090Y109865D01*
X333881Y108328D01*
X334444Y107825D01*
X334017Y103997D01*
X333492Y103893D01*
X331349Y102461D01*
X329917Y100318D01*
X329414Y97790D01*
X329917Y95262D01*
X331349Y93119D01*
X333492Y91687D01*
X334830Y91421D01*
X334900Y91290D01*
Y86865D01*
X333004D01*
X332112Y86687D01*
X331356Y86182D01*
X329039Y83865D01*
X299830D01*
X298938Y83687D01*
X298181Y83182D01*
X295864Y80865D01*
X249025D01*
X248745Y81145D01*
X248483Y82461D01*
X247483Y83957D01*
X245987Y84957D01*
X244222Y85308D01*
X242456Y84957D01*
X240960Y83957D01*
X239960Y82461D01*
X239609Y80696D01*
X239960Y78931D01*
X240960Y77434D01*
X242456Y76434D01*
X244222Y76083D01*
X245987Y76434D01*
X246537Y76802D01*
X247168Y76381D01*
X248060Y76203D01*
X296829D01*
X297722Y76381D01*
X298478Y76886D01*
X300795Y79203D01*
X306418D01*
X307574Y75393D01*
X307156Y75114D01*
X305931Y73282D01*
X305754Y72390D01*
X311150D01*
Y69850D01*
X305754D01*
X305796Y69641D01*
X304469Y67123D01*
X303439Y65831D01*
X261527D01*
X261072Y66512D01*
X259575Y67511D01*
X257810Y67863D01*
X256045Y67511D01*
X254548Y66512D01*
X253549Y65015D01*
X253197Y63250D01*
X250087Y60329D01*
X246378D01*
X245659Y61048D01*
X244315Y61946D01*
X242729Y62262D01*
X195058D01*
X186836Y70483D01*
X186920Y71120D01*
X186696Y72823D01*
X186039Y74410D01*
X184993Y75773D01*
X183630Y76819D01*
X182043Y77476D01*
X180340Y77700D01*
X178637Y77476D01*
X177050Y76819D01*
X175687Y75773D01*
X174641Y74410D01*
X173984Y72823D01*
X173760Y71120D01*
X173984Y69417D01*
X174641Y67830D01*
X175687Y66467D01*
X177050Y65421D01*
X178637Y64764D01*
X180340Y64540D01*
X180977Y64623D01*
X186434Y59166D01*
X184976Y55646D01*
X171202D01*
X170602Y55567D01*
X152722D01*
Y91440D01*
X152451Y93496D01*
X151658Y95411D01*
X150396Y97056D01*
X148751Y98318D01*
X146835Y99111D01*
X144780Y99382D01*
X142725Y99111D01*
X140809Y98318D01*
X139164Y97056D01*
X137902Y95411D01*
X137109Y93496D01*
X136838Y91440D01*
Y69447D01*
X133028Y67411D01*
X132972Y67449D01*
X132080Y67626D01*
Y62230D01*
X130810D01*
Y60960D01*
X125414D01*
X125544Y60309D01*
X125495Y59847D01*
X123965Y56332D01*
X122468Y55332D01*
X121468Y53835D01*
X121117Y52070D01*
X121468Y50305D01*
X122468Y48808D01*
X121363Y44965D01*
X119830Y43432D01*
X116830Y43910D01*
X115524Y44513D01*
X114594Y45904D01*
X112762Y47129D01*
X111870Y47306D01*
Y41910D01*
X110600D01*
Y40640D01*
X105204D01*
X105381Y39748D01*
X106606Y37916D01*
X107997Y36986D01*
X108600Y35680D01*
X109078Y32680D01*
X97254Y20856D01*
X95992Y19211D01*
X95199Y17296D01*
X94928Y15240D01*
X95199Y13184D01*
X95992Y11269D01*
X97254Y9624D01*
X98899Y8362D01*
X100815Y7569D01*
X102870Y7298D01*
X104925Y7569D01*
X106841Y8362D01*
X108486Y9624D01*
X127593Y28732D01*
X131629Y27445D01*
X132628Y25948D01*
X134125Y24948D01*
X135890Y24597D01*
X136113Y24642D01*
X138263Y21185D01*
X138168Y21061D01*
X137258Y18866D01*
X136948Y16510D01*
X137258Y14154D01*
X138168Y11959D01*
X139614Y10074D01*
X141499Y8628D01*
X143694Y7718D01*
X146050Y7408D01*
X148406Y7718D01*
X150601Y8628D01*
X152486Y10074D01*
X153932Y11959D01*
X154842Y14154D01*
X155152Y16510D01*
X154842Y18866D01*
X154435Y19848D01*
X154296Y21821D01*
X155662Y24678D01*
X156662Y26175D01*
X157013Y27940D01*
X156662Y29705D01*
X155662Y31202D01*
X154165Y32201D01*
X152400Y32553D01*
X150635Y32201D01*
X149138Y31202D01*
X148516Y30271D01*
X140292D01*
X140152Y30975D01*
X139152Y32472D01*
X137655Y33472D01*
X136368Y37507D01*
X140130Y41268D01*
X140809Y40747D01*
X142725Y39954D01*
X144780Y39683D01*
X161268D01*
X162791Y37653D01*
X163576Y35873D01*
X163514Y35560D01*
X174306D01*
X174228Y35952D01*
X174644Y37172D01*
X176499Y39762D01*
X185451D01*
X187306Y37172D01*
X187722Y35952D01*
X187644Y35560D01*
X198436D01*
X198358Y35952D01*
X198774Y37172D01*
X200629Y39762D01*
X235245D01*
X236376Y38894D01*
X238292Y38101D01*
X240347Y37830D01*
X240348Y37830D01*
X254437D01*
X256474Y34020D01*
X256401Y33912D01*
X256224Y33020D01*
X267016D01*
X266839Y33912D01*
X266766Y34020D01*
X268803Y37830D01*
X330973D01*
X331309Y37572D01*
X333224Y36779D01*
X334252Y36643D01*
X335280Y36508D01*
X336308Y36643D01*
X337336Y36779D01*
X339251Y37572D01*
X340896Y38834D01*
X342158Y40479D01*
X342951Y42394D01*
X343087Y43422D01*
X343222Y44450D01*
X343087Y45478D01*
X342951Y46505D01*
X342158Y48421D01*
X341368Y49450D01*
X341953Y51606D01*
X343089Y53260D01*
X347280D01*
X365370Y35170D01*
X366714Y34272D01*
X368300Y33956D01*
X410066D01*
X413036Y33204D01*
X414267Y30492D01*
X415699Y28349D01*
X417842Y26917D01*
X419100Y26667D01*
X418724Y22857D01*
X407606D01*
X407122Y23582D01*
X405625Y24581D01*
X403860Y24933D01*
X402095Y24581D01*
X400598Y23582D01*
X399599Y22085D01*
X399247Y20320D01*
X399599Y18555D01*
X400598Y17058D01*
X401997Y15794D01*
X401181Y13592D01*
X401004Y12700D01*
X406400D01*
Y10160D01*
X401004D01*
X401181Y9268D01*
X402406Y7436D01*
X404031Y6350D01*
X404077Y6069D01*
X402364Y2540D01*
X2540D01*
X2540Y91214D01*
X6068Y92927D01*
X6350Y92881D01*
X7436Y91256D01*
X9268Y90031D01*
X10160Y89854D01*
Y95250D01*
Y100646D01*
X9268Y100469D01*
X7436Y99244D01*
X6350Y97619D01*
X6068Y97573D01*
X2540Y99286D01*
Y125957D01*
X3037Y126592D01*
X6350Y128352D01*
X7210Y127996D01*
X9700Y127668D01*
X11430D01*
Y137290D01*
X12700D01*
Y138560D01*
X25155D01*
X24994Y139780D01*
X24033Y142101D01*
X23050Y143383D01*
X21779Y147211D01*
X23146Y148991D01*
X24005Y151065D01*
X24298Y153290D01*
X24005Y155515D01*
X23146Y157589D01*
X22093Y158961D01*
X21779Y159392D01*
Y163188D01*
X22093Y163619D01*
X23146Y164991D01*
X24005Y167065D01*
X24298Y169290D01*
X24005Y171515D01*
X23146Y173589D01*
X22093Y174961D01*
X21779Y175392D01*
Y179188D01*
X22093Y179619D01*
X23146Y180991D01*
X24005Y183065D01*
X24298Y185290D01*
X24005Y187515D01*
X23146Y189589D01*
X21779Y191369D01*
X19999Y192736D01*
X17925Y193595D01*
X15700Y193888D01*
X9700D01*
X7475Y193595D01*
X6350Y193129D01*
X3609Y194369D01*
X2540Y195343D01*
X2540Y283519D01*
X6350Y284813D01*
X6751Y284291D01*
X8531Y282924D01*
X10605Y282065D01*
X12830Y281772D01*
X15055Y282065D01*
X17129Y282924D01*
X18501Y283977D01*
X18932Y284291D01*
X22727D01*
X23159Y283977D01*
X24531Y282924D01*
X26605Y282065D01*
X26843Y282034D01*
Y281977D01*
X27020Y281085D01*
X27525Y280329D01*
X35255Y272599D01*
X34890Y270411D01*
X34031Y268434D01*
X32523Y267810D01*
X30739Y266441D01*
X29370Y264657D01*
X28510Y262579D01*
X28384Y261620D01*
X36830D01*
Y259080D01*
X28384D01*
X28510Y258121D01*
X28518Y258100D01*
X26905Y256024D01*
X25663Y255037D01*
X24130Y255239D01*
X22166Y254980D01*
X20336Y254222D01*
X18764Y253016D01*
X17558Y251444D01*
X16800Y249614D01*
X16541Y247650D01*
X16800Y245686D01*
X17558Y243855D01*
X18764Y242284D01*
X20336Y241078D01*
X22166Y240320D01*
X24130Y240061D01*
X26094Y240320D01*
X27153Y240758D01*
X28119Y240132D01*
X29312Y238939D01*
X29938Y237973D01*
X29500Y236914D01*
X29241Y234950D01*
X29500Y232986D01*
X30258Y231155D01*
X31464Y229584D01*
X33036Y228378D01*
X34866Y227620D01*
X36830Y227361D01*
X38794Y227620D01*
X40624Y228378D01*
X42196Y229584D01*
X43402Y231155D01*
X44160Y232986D01*
X44419Y234950D01*
X44160Y236914D01*
X43722Y237973D01*
X44348Y238939D01*
X45542Y240132D01*
X46507Y240758D01*
X47566Y240320D01*
X49530Y240061D01*
X51494Y240320D01*
X53324Y241078D01*
X54896Y242284D01*
X56102Y243855D01*
X56860Y245686D01*
X57119Y247650D01*
X56860Y249614D01*
X56102Y251444D01*
X54896Y253016D01*
X53324Y254222D01*
X53131Y254302D01*
Y260350D01*
X52953Y261242D01*
X52448Y261998D01*
X34736Y279711D01*
X34909Y284273D01*
X34932Y284291D01*
X38728D01*
X39159Y283977D01*
X40531Y282924D01*
X42605Y282065D01*
X44830Y281772D01*
X47055Y282065D01*
X49129Y282924D01*
X50909Y284291D01*
X54737Y283020D01*
X56019Y282037D01*
X58340Y281075D01*
X59560Y280915D01*
Y293370D01*
X60830D01*
Y294640D01*
X70452D01*
Y296370D01*
X70124Y298860D01*
X69163Y301181D01*
X67634Y303174D01*
X67429Y303331D01*
X68721Y307142D01*
X122492Y307177D01*
X124466Y303368D01*
X124321Y303152D01*
X124144Y302260D01*
X134936D01*
X134759Y303152D01*
X134610Y303375D01*
X136575Y307186D01*
X719513Y307559D01*
X722208Y304866D01*
D02*
G37*
G36*
X489867Y189947D02*
X489713Y189844D01*
X488713Y188347D01*
X488362Y186582D01*
X488713Y184817D01*
X489077Y184272D01*
X489111Y184104D01*
X488683Y182598D01*
X487496Y181804D01*
X486271Y179972D01*
X486094Y179080D01*
X491490D01*
Y176540D01*
X486094D01*
X486271Y175648D01*
X487496Y173816D01*
X489328Y172591D01*
X491171Y172225D01*
X491043Y160339D01*
X489867Y159859D01*
X475479Y174247D01*
X475432Y174485D01*
X474432Y175982D01*
X472935Y176982D01*
X471170Y177333D01*
X469405Y176982D01*
X467908Y175982D01*
X466908Y174485D01*
X466557Y172720D01*
X466908Y170955D01*
X467289Y170385D01*
X466865Y169361D01*
X465368Y168362D01*
X464369Y166865D01*
X464017Y165100D01*
X464369Y163335D01*
X465368Y161838D01*
X466299Y161216D01*
Y156355D01*
X466477Y155463D01*
X466982Y154706D01*
X468403Y153285D01*
X467917Y152112D01*
X463304D01*
X463251Y152375D01*
X462252Y153872D01*
X460755Y154872D01*
X458990Y155223D01*
X457225Y154872D01*
X455728Y153872D01*
X454729Y152375D01*
X454377Y150610D01*
X454729Y148845D01*
X455728Y147348D01*
X457225Y146348D01*
X458990Y145997D01*
X460755Y146348D01*
X462252Y147348D01*
X462320Y147450D01*
X476088D01*
X479476Y144062D01*
X479257Y142964D01*
X479608Y141199D01*
X480608Y139702D01*
X482105Y138702D01*
X482878Y138549D01*
X483296Y137171D01*
X479435Y133309D01*
X478761Y132301D01*
X478524Y131112D01*
Y111458D01*
X478761Y110269D01*
X479435Y109261D01*
X481433Y107262D01*
X481015Y105884D01*
X480254Y105733D01*
X478422Y104508D01*
X477197Y102676D01*
X477020Y101784D01*
X482416D01*
Y100514D01*
X483686D01*
Y95118D01*
X484577Y95296D01*
X486410Y96520D01*
X487634Y98352D01*
X487786Y99113D01*
X489164Y99531D01*
X490376Y98319D01*
X490275Y88900D01*
X499795D01*
X509211Y79484D01*
X510219Y78810D01*
X511409Y78573D01*
X511987D01*
X512358Y78018D01*
X513855Y77018D01*
X515620Y76667D01*
X517385Y77018D01*
X518882Y78018D01*
X519882Y79515D01*
X520233Y81280D01*
X519882Y83045D01*
X518882Y84542D01*
X517385Y85541D01*
X515620Y85893D01*
X513855Y85541D01*
X512729Y84789D01*
X512696D01*
X509758Y87727D01*
X510244Y88900D01*
X544446D01*
X545045Y87780D01*
X544691Y87252D01*
X544514Y86360D01*
X555306D01*
X555129Y87252D01*
X554776Y87780D01*
X555374Y88900D01*
X600830Y88900D01*
X601508Y87630D01*
X600881Y86692D01*
X600704Y85800D01*
X611496D01*
X611319Y86692D01*
X610094Y88524D01*
X608330Y89703D01*
X608330Y154023D01*
X609600Y154701D01*
X610288Y154241D01*
X611180Y154064D01*
Y159460D01*
Y164856D01*
X610288Y164679D01*
X609600Y164219D01*
X608330Y164897D01*
Y166370D01*
X622300Y166370D01*
X622300Y81280D01*
Y67310D01*
X572369Y67310D01*
X572298Y67671D01*
X571298Y69167D01*
X569801Y70167D01*
X568036Y70518D01*
X567121Y71631D01*
X566871Y72885D01*
X565872Y74382D01*
X564375Y75381D01*
X562610Y75733D01*
X560845Y75381D01*
X559348Y74382D01*
X558726Y73451D01*
X547680D01*
X547058Y74382D01*
X545562Y75381D01*
X543797Y75733D01*
X542032Y75381D01*
X540535Y74382D01*
X539535Y72885D01*
X539184Y71120D01*
X539535Y69355D01*
X540193Y68371D01*
X539557Y67101D01*
X519504D01*
X518882Y68032D01*
X517385Y69032D01*
X515620Y69383D01*
X513855Y69032D01*
X512358Y68032D01*
X511358Y66535D01*
X511007Y64770D01*
X511118Y64212D01*
X510540Y63033D01*
X508775Y62681D01*
X507278Y61682D01*
X506278Y60185D01*
X505927Y58420D01*
X506263Y56735D01*
X506263Y56734D01*
X506207Y56656D01*
X504990Y56210D01*
X493269Y67931D01*
Y70402D01*
X493092Y71294D01*
X492587Y72050D01*
X480644Y83992D01*
X480863Y85090D01*
X480512Y86855D01*
X479512Y88352D01*
X478015Y89352D01*
X476250Y89703D01*
X474485Y89352D01*
X472988Y88352D01*
X471988Y86855D01*
X471637Y85090D01*
X471988Y83325D01*
X472988Y81828D01*
X474485Y80829D01*
X476250Y80477D01*
X477348Y80696D01*
X488608Y69436D01*
Y66966D01*
X488785Y66074D01*
X489290Y65318D01*
X503122Y51486D01*
X503878Y50981D01*
X504770Y50803D01*
X526101D01*
X526587Y49630D01*
X511247Y34290D01*
X492161D01*
X491797Y35560D01*
X492899Y37208D01*
X493076Y38100D01*
X482284D01*
X482461Y37208D01*
X483563Y35560D01*
X483199Y34290D01*
X426723D01*
X426473Y35548D01*
X425041Y37691D01*
X422898Y39123D01*
X422405Y39221D01*
X422224Y39630D01*
X422151Y40567D01*
X423258Y41416D01*
X424304Y42779D01*
X424961Y44366D01*
X425185Y46069D01*
X424961Y47772D01*
X424304Y49359D01*
X423258Y50722D01*
X421895Y51768D01*
X420308Y52425D01*
X418605Y52649D01*
X416902Y52425D01*
X415315Y51768D01*
X413952Y50722D01*
X412906Y49359D01*
X412249Y47772D01*
X412025Y46069D01*
X412249Y44366D01*
X412498Y43763D01*
X410979Y42244D01*
X370016D01*
X356870Y55390D01*
Y59406D01*
X357220Y59693D01*
X372174D01*
X372658Y58968D01*
X374155Y57969D01*
X375920Y57617D01*
X377685Y57969D01*
X377767Y58023D01*
X378792Y57181D01*
X378689Y56931D01*
X378550Y55880D01*
X386080D01*
Y63410D01*
X385029Y63271D01*
X382867Y62375D01*
X381674Y61461D01*
X380522Y62177D01*
X380533Y62230D01*
X380182Y63995D01*
X379182Y65492D01*
X377685Y66491D01*
X375920Y66843D01*
X374155Y66491D01*
X372658Y65492D01*
X371899Y64355D01*
X365493D01*
X364961Y65351D01*
X364957Y65625D01*
X365293Y67310D01*
X364941Y69075D01*
X364424Y69850D01*
X365103Y71120D01*
X374631D01*
X376646Y69106D01*
X376646Y69106D01*
X377570Y68488D01*
X378660Y68271D01*
X378660Y68271D01*
X397602D01*
X398998Y66875D01*
X399922Y66258D01*
X401012Y66041D01*
X401012Y66041D01*
X401386D01*
X401868Y65318D01*
X403365Y64318D01*
X405130Y63967D01*
X406895Y64318D01*
X408392Y65318D01*
X409392Y66815D01*
X409743Y68580D01*
X409490Y69850D01*
X410285Y71120D01*
X447040D01*
Y88257D01*
X454877D01*
X455868Y88454D01*
X456708Y89016D01*
X467111Y99419D01*
X467673Y100259D01*
X467870Y101250D01*
Y129211D01*
X467673Y130202D01*
X467111Y131043D01*
X465463Y132691D01*
X465623Y133495D01*
X465271Y135260D01*
X464272Y136756D01*
X462775Y137756D01*
X461010Y138107D01*
X459245Y137756D01*
X457748Y136756D01*
X456749Y135260D01*
X456397Y133495D01*
X456749Y131729D01*
X457748Y130233D01*
X459245Y129233D01*
X461010Y128882D01*
X461791Y129037D01*
X462690Y128139D01*
Y116577D01*
X461699Y116047D01*
X461420Y116038D01*
X459740Y116373D01*
X457975Y116021D01*
X456478Y115022D01*
X456030Y114350D01*
X454463D01*
X447685Y121128D01*
X447843Y121920D01*
X447491Y123685D01*
X447040Y124361D01*
Y180760D01*
X462654Y196374D01*
X462775Y196399D01*
X464272Y197398D01*
X465271Y198895D01*
X465295Y199016D01*
X468030Y201750D01*
X489867D01*
Y189947D01*
D02*
G37*
G36*
X168240Y199948D02*
X168403Y198688D01*
X167650Y198110D01*
X166225Y196253D01*
X165329Y194091D01*
X165191Y193040D01*
X183403D01*
X183855Y193385D01*
X236784Y171139D01*
X236995Y170998D01*
X237231Y170952D01*
X242014Y168941D01*
X242118Y168415D01*
X243118Y166918D01*
X244615Y165919D01*
X246380Y165567D01*
X248145Y165919D01*
X248747Y166321D01*
X268805Y159046D01*
X268705Y157731D01*
X267627Y157517D01*
X265794Y156292D01*
X264570Y154460D01*
X264393Y153568D01*
X275184D01*
X275007Y154460D01*
X274138Y155761D01*
X274962Y156812D01*
X285488Y152995D01*
X285763Y151755D01*
X274781Y140773D01*
X274276Y140017D01*
X274099Y139125D01*
Y131413D01*
X273798Y131212D01*
X272798Y129716D01*
X272447Y127951D01*
X272798Y126186D01*
X273798Y124689D01*
X275294Y123689D01*
X277059Y123338D01*
X278824Y123689D01*
X280321Y124689D01*
X281321Y126186D01*
X281672Y127951D01*
X281321Y129716D01*
X280321Y131212D01*
X278824Y132212D01*
X278760Y132225D01*
Y134660D01*
X279598Y135019D01*
X280030Y135114D01*
X281445Y134169D01*
X283210Y133817D01*
X284975Y134169D01*
X286472Y135168D01*
X287472Y136665D01*
X287823Y138430D01*
X287604Y139528D01*
X290525Y142449D01*
X309806D01*
X310428Y141518D01*
X311727Y140650D01*
X311904Y139786D01*
X311889Y139231D01*
X310966Y138614D01*
X309741Y136782D01*
X309564Y135890D01*
X320356D01*
X320179Y136782D01*
X318954Y138614D01*
X317690Y139459D01*
X317496Y140921D01*
X317518Y140985D01*
X317839Y141261D01*
X330800Y136560D01*
X409035Y135975D01*
X409588Y134701D01*
X408643Y133287D01*
X408466Y132396D01*
X413862D01*
Y131126D01*
X415132D01*
Y125730D01*
X416024Y125907D01*
X417856Y127132D01*
X419081Y128964D01*
X419100Y129062D01*
X420370Y128937D01*
Y101842D01*
X419197Y101356D01*
X400695Y119858D01*
X400853Y120650D01*
X400502Y122415D01*
X399502Y123912D01*
X398005Y124911D01*
X396240Y125263D01*
X394475Y124911D01*
X392978Y123912D01*
X391978Y122415D01*
X391627Y120650D01*
X391978Y118885D01*
X392978Y117388D01*
X394475Y116389D01*
X396240Y116037D01*
X397033Y116195D01*
X400628Y112599D01*
X400301Y111768D01*
X400053Y111378D01*
X398391Y111047D01*
X396894Y110047D01*
X395894Y108551D01*
X395543Y106786D01*
X395656Y106217D01*
X391518Y102079D01*
X389890Y102403D01*
X389889Y102402D01*
X389126Y103546D01*
X389523Y104140D01*
X389874Y105905D01*
X389523Y107670D01*
X388523Y109167D01*
X387027Y110167D01*
X385261Y110518D01*
X383496Y110167D01*
X382000Y109167D01*
X381351Y108196D01*
X380662Y108059D01*
X379906Y107553D01*
X378868Y108298D01*
X376504Y110662D01*
X376723Y111760D01*
X376371Y113525D01*
X375372Y115022D01*
X373875Y116021D01*
X372110Y116373D01*
X370345Y116021D01*
X368848Y115022D01*
X367849Y113525D01*
X367497Y111760D01*
X367849Y109995D01*
X368848Y108498D01*
X370345Y107499D01*
X372110Y107147D01*
X373208Y107366D01*
X375881Y104693D01*
X375355Y103423D01*
X366742D01*
X366063Y104693D01*
X366212Y104915D01*
X366563Y106680D01*
X366212Y108445D01*
X365212Y109942D01*
X363715Y110941D01*
X361950Y111293D01*
X360185Y110941D01*
X358688Y109942D01*
X357688Y108445D01*
X357337Y106680D01*
X357583Y105443D01*
X356668Y104331D01*
X356340Y104396D01*
X353812Y103893D01*
X351669Y102461D01*
X350237Y100318D01*
X349734Y97790D01*
X350237Y95262D01*
X351669Y93119D01*
X353812Y91687D01*
X356340Y91184D01*
X358868Y91687D01*
X361011Y93119D01*
X362443Y95262D01*
X362946Y97790D01*
X362855Y98247D01*
X363998Y99011D01*
X364106Y98939D01*
X364998Y98761D01*
X378003D01*
X383786Y92978D01*
X383088Y91935D01*
X382737Y90170D01*
X383088Y88405D01*
X384088Y86908D01*
X385585Y85908D01*
X387350Y85557D01*
X389115Y85908D01*
X390612Y86908D01*
X391612Y88405D01*
X391963Y90170D01*
X391612Y91935D01*
X391231Y92505D01*
X391655Y93528D01*
X393152Y94528D01*
X394151Y96025D01*
X394503Y97790D01*
X394390Y98358D01*
X398528Y102497D01*
X400156Y102173D01*
X401921Y102524D01*
X403417Y103524D01*
X404417Y105021D01*
X404748Y106684D01*
X405138Y106931D01*
X405969Y107258D01*
X420370Y92858D01*
Y73660D01*
X414404D01*
X413806Y74780D01*
X414159Y75308D01*
X414336Y76200D01*
X403544D01*
X403721Y75308D01*
X404075Y74780D01*
X403476Y73660D01*
X400009D01*
X399872Y73752D01*
X398782Y73969D01*
X398782Y73969D01*
X379840D01*
X375797Y78012D01*
Y84524D01*
X376210Y84800D01*
X377210Y86296D01*
X377561Y88062D01*
X377210Y89827D01*
X376210Y91323D01*
X374714Y92323D01*
X372948Y92674D01*
X371183Y92323D01*
X369687Y91323D01*
X368687Y89827D01*
X368336Y88062D01*
X368687Y86296D01*
X369687Y84800D01*
X370100Y84524D01*
Y76832D01*
X370100Y76832D01*
X370317Y75741D01*
X370859Y74930D01*
X370691Y74230D01*
X370455Y73660D01*
X355355D01*
X342833Y86182D01*
X342077Y86687D01*
X341185Y86865D01*
X336550D01*
Y91290D01*
X338548Y91687D01*
X340691Y93119D01*
X342123Y95262D01*
X342626Y97790D01*
X342123Y100318D01*
X340691Y102461D01*
X338548Y103893D01*
X336550Y104291D01*
Y111760D01*
X335410Y111843D01*
X334589Y113175D01*
X334813Y114300D01*
X334462Y116065D01*
X333462Y117562D01*
X331965Y118561D01*
X330200Y118913D01*
X328435Y118561D01*
X326938Y117562D01*
X326316Y116631D01*
X308901D01*
X308009Y116453D01*
X307253Y115948D01*
X306666Y115361D01*
X286859D01*
X262270Y117143D01*
X261533Y118110D01*
X255270D01*
Y119380D01*
X254000D01*
Y125602D01*
X252792Y125362D01*
X250692Y123958D01*
X249288Y121858D01*
X248796Y119380D01*
X248804Y119336D01*
X247920Y118424D01*
X166370Y132080D01*
X163900Y135890D01*
X157480Y153670D01*
Y203323D01*
X158538Y204025D01*
X168240Y199948D01*
D02*
G37*
G36*
X451559Y109929D02*
X452399Y109367D01*
X453390Y109170D01*
X456030D01*
X456478Y108498D01*
X457975Y107499D01*
X459740Y107147D01*
X461420Y107482D01*
X461699Y107473D01*
X462690Y106943D01*
Y102323D01*
X453804Y93437D01*
X447040D01*
Y112788D01*
X448213Y113274D01*
X451559Y109929D01*
D02*
G37*
%LPC*%
G36*
X134936Y299720D02*
X130810D01*
Y295594D01*
X131702Y295771D01*
X133534Y296996D01*
X134759Y298828D01*
X134936Y299720D01*
D02*
G37*
G36*
X128270D02*
X124144D01*
X124321Y298828D01*
X125546Y296996D01*
X127378Y295771D01*
X128270Y295594D01*
Y299720D01*
D02*
G37*
G36*
X515620Y302786D02*
Y293340D01*
X525066D01*
X524862Y294887D01*
X523775Y297512D01*
X522046Y299765D01*
X519791Y301495D01*
X517167Y302582D01*
X515620Y302786D01*
D02*
G37*
G36*
X487680D02*
X486133Y302582D01*
X483508Y301495D01*
X481255Y299765D01*
X479525Y297512D01*
X478438Y294887D01*
X478234Y293340D01*
X487680D01*
Y302786D01*
D02*
G37*
G36*
X337820D02*
Y293340D01*
X347266D01*
X347062Y294887D01*
X345975Y297512D01*
X344245Y299765D01*
X341992Y301495D01*
X339367Y302582D01*
X337820Y302786D01*
D02*
G37*
G36*
X284480D02*
X282933Y302582D01*
X280308Y301495D01*
X278055Y299765D01*
X276325Y297512D01*
X275238Y294887D01*
X275034Y293340D01*
X284480D01*
Y302786D01*
D02*
G37*
G36*
X513080D02*
X511533Y302582D01*
X508909Y301495D01*
X506655Y299765D01*
X504925Y297512D01*
X503838Y294887D01*
X503571Y292864D01*
X499729D01*
X499462Y294887D01*
X498375Y297512D01*
X496646Y299765D01*
X494392Y301495D01*
X491767Y302582D01*
X490220Y302786D01*
Y292070D01*
Y281354D01*
X491767Y281558D01*
X494392Y282645D01*
X496646Y284375D01*
X498375Y286628D01*
X499462Y289253D01*
X499729Y291276D01*
X503571D01*
X503838Y289253D01*
X504925Y286628D01*
X506655Y284375D01*
X508909Y282645D01*
X511533Y281558D01*
X513080Y281354D01*
Y292070D01*
Y302786D01*
D02*
G37*
G36*
X335280D02*
X333733Y302582D01*
X331109Y301495D01*
X328854Y299765D01*
X327125Y297512D01*
X326038Y294887D01*
X325771Y292864D01*
X321929D01*
X321662Y294887D01*
X320575Y297512D01*
X318846Y299765D01*
X316591Y301495D01*
X313967Y302582D01*
X312420Y302786D01*
Y292070D01*
Y281354D01*
X313967Y281558D01*
X315845Y282336D01*
X318136Y280791D01*
X319033Y279716D01*
X318807Y277611D01*
X318370Y277231D01*
X315561Y275452D01*
X313701Y276222D01*
X311150Y276558D01*
X308598Y276222D01*
X306221Y275238D01*
X304179Y273671D01*
X302612Y271629D01*
X301628Y269251D01*
X301292Y266700D01*
X301628Y264149D01*
X302612Y261771D01*
X304179Y259729D01*
X306221Y258162D01*
X308598Y257178D01*
X311150Y256842D01*
X313701Y257178D01*
X316079Y258162D01*
X316439Y258439D01*
X320249Y256560D01*
Y212164D01*
X319318Y211542D01*
X318319Y210045D01*
X317967Y208280D01*
X318319Y206515D01*
X319318Y205018D01*
X320815Y204018D01*
X322580Y203667D01*
X324345Y204018D01*
X325842Y205018D01*
X326842Y206515D01*
X327193Y208280D01*
X326842Y210045D01*
X325842Y211542D01*
X324911Y212164D01*
Y259746D01*
X328721Y260848D01*
X329579Y259729D01*
X331621Y258162D01*
X333998Y257178D01*
X336550Y256842D01*
X339101Y257178D01*
X341479Y258162D01*
X343521Y259729D01*
X345088Y261771D01*
X346072Y264149D01*
X346408Y266700D01*
X346072Y269251D01*
X345088Y271629D01*
X343521Y273671D01*
X341479Y275238D01*
X339101Y276222D01*
X336550Y276558D01*
X333998Y276222D01*
X332139Y275452D01*
X329329Y277231D01*
X328893Y277611D01*
X328667Y279716D01*
X329564Y280791D01*
X331855Y282336D01*
X333733Y281558D01*
X335280Y281354D01*
Y292070D01*
Y302786D01*
D02*
G37*
G36*
X309880D02*
X308333Y302582D01*
X305709Y301495D01*
X303454Y299765D01*
X301725Y297512D01*
X300638Y294887D01*
X300371Y292864D01*
X296529D01*
X296262Y294887D01*
X295175Y297512D01*
X293445Y299765D01*
X291192Y301495D01*
X288567Y302582D01*
X287020Y302786D01*
Y292070D01*
Y281354D01*
X288567Y281558D01*
X291192Y282645D01*
X293445Y284375D01*
X295175Y286628D01*
X296262Y289253D01*
X296529Y291276D01*
X300371D01*
X300638Y289253D01*
X301725Y286628D01*
X303454Y284375D01*
X305709Y282645D01*
X308333Y281558D01*
X309880Y281354D01*
Y292070D01*
Y302786D01*
D02*
G37*
G36*
X463550Y301928D02*
X460998Y301592D01*
X458621Y300608D01*
X456579Y299041D01*
X455013Y296999D01*
X454028Y294622D01*
X453692Y292070D01*
X454028Y289519D01*
X455013Y287141D01*
X456579Y285099D01*
X458621Y283533D01*
X460998Y282548D01*
X463550Y282212D01*
X466101Y282548D01*
X468479Y283533D01*
X470521Y285099D01*
X472088Y287141D01*
X473072Y289519D01*
X473408Y292070D01*
X473072Y294622D01*
X472088Y296999D01*
X470521Y299041D01*
X468479Y300608D01*
X466101Y301592D01*
X463550Y301928D01*
D02*
G37*
G36*
X438150D02*
X435598Y301592D01*
X433221Y300608D01*
X431179Y299041D01*
X429613Y296999D01*
X428628Y294622D01*
X428292Y292070D01*
X428628Y289519D01*
X429613Y287141D01*
X431179Y285099D01*
X433221Y283533D01*
X435598Y282548D01*
X438150Y282212D01*
X440701Y282548D01*
X443079Y283533D01*
X445121Y285099D01*
X446688Y287141D01*
X447672Y289519D01*
X448008Y292070D01*
X447672Y294622D01*
X446688Y296999D01*
X445121Y299041D01*
X443079Y300608D01*
X440701Y301592D01*
X438150Y301928D01*
D02*
G37*
G36*
X412750D02*
X410199Y301592D01*
X407821Y300608D01*
X405779Y299041D01*
X404212Y296999D01*
X403228Y294622D01*
X402892Y292070D01*
X403228Y289519D01*
X404212Y287141D01*
X405779Y285099D01*
X407821Y283533D01*
X410199Y282548D01*
X412750Y282212D01*
X415302Y282548D01*
X417679Y283533D01*
X419721Y285099D01*
X421287Y287141D01*
X422272Y289519D01*
X422608Y292070D01*
X422272Y294622D01*
X421287Y296999D01*
X419721Y299041D01*
X417679Y300608D01*
X415302Y301592D01*
X412750Y301928D01*
D02*
G37*
G36*
X387350D02*
X384799Y301592D01*
X382421Y300608D01*
X380379Y299041D01*
X378812Y296999D01*
X377828Y294622D01*
X377492Y292070D01*
X377828Y289519D01*
X378812Y287141D01*
X380379Y285099D01*
X382421Y283533D01*
X384799Y282548D01*
X387350Y282212D01*
X389902Y282548D01*
X392279Y283533D01*
X394321Y285099D01*
X395887Y287141D01*
X396872Y289519D01*
X397208Y292070D01*
X396872Y294622D01*
X395887Y296999D01*
X394321Y299041D01*
X392279Y300608D01*
X389902Y301592D01*
X387350Y301928D01*
D02*
G37*
G36*
X361950D02*
X359398Y301592D01*
X357021Y300608D01*
X354979Y299041D01*
X353413Y296999D01*
X352428Y294622D01*
X352092Y292070D01*
X352428Y289519D01*
X353413Y287141D01*
X354979Y285099D01*
X357021Y283533D01*
X359398Y282548D01*
X361950Y282212D01*
X364501Y282548D01*
X366879Y283533D01*
X368921Y285099D01*
X370488Y287141D01*
X371472Y289519D01*
X371808Y292070D01*
X371472Y294622D01*
X370488Y296999D01*
X368921Y299041D01*
X366879Y300608D01*
X364501Y301592D01*
X361950Y301928D01*
D02*
G37*
G36*
X260350D02*
X257799Y301592D01*
X255421Y300608D01*
X253379Y299041D01*
X251812Y296999D01*
X250828Y294622D01*
X250492Y292070D01*
X250828Y289519D01*
X251812Y287141D01*
X253379Y285099D01*
X255421Y283533D01*
X257799Y282548D01*
X260350Y282212D01*
X262901Y282548D01*
X265279Y283533D01*
X267321Y285099D01*
X268888Y287141D01*
X269872Y289519D01*
X270208Y292070D01*
X269872Y294622D01*
X268888Y296999D01*
X267321Y299041D01*
X265279Y300608D01*
X262901Y301592D01*
X260350Y301928D01*
D02*
G37*
G36*
X234950D02*
X232398Y301592D01*
X230021Y300608D01*
X227979Y299041D01*
X226413Y296999D01*
X225428Y294622D01*
X225092Y292070D01*
X225428Y289519D01*
X226413Y287141D01*
X227979Y285099D01*
X230021Y283533D01*
X232398Y282548D01*
X234950Y282212D01*
X237502Y282548D01*
X239879Y283533D01*
X241921Y285099D01*
X243487Y287141D01*
X244472Y289519D01*
X244808Y292070D01*
X244472Y294622D01*
X243487Y296999D01*
X241921Y299041D01*
X239879Y300608D01*
X237502Y301592D01*
X234950Y301928D01*
D02*
G37*
G36*
X209550D02*
X206999Y301592D01*
X204621Y300608D01*
X202579Y299041D01*
X201012Y296999D01*
X200028Y294622D01*
X199692Y292070D01*
X200028Y289519D01*
X201012Y287141D01*
X202579Y285099D01*
X204621Y283533D01*
X206999Y282548D01*
X209550Y282212D01*
X212101Y282548D01*
X214479Y283533D01*
X216521Y285099D01*
X218088Y287141D01*
X219072Y289519D01*
X219408Y292070D01*
X219072Y294622D01*
X218088Y296999D01*
X216521Y299041D01*
X214479Y300608D01*
X212101Y301592D01*
X209550Y301928D01*
D02*
G37*
G36*
X525066Y290800D02*
X515620D01*
Y281354D01*
X517167Y281558D01*
X519791Y282645D01*
X522046Y284375D01*
X523775Y286628D01*
X524862Y289253D01*
X525066Y290800D01*
D02*
G37*
G36*
X487680D02*
X478234D01*
X478438Y289253D01*
X479525Y286628D01*
X481255Y284375D01*
X483508Y282645D01*
X486133Y281558D01*
X487680Y281354D01*
Y290800D01*
D02*
G37*
G36*
X347266D02*
X337820D01*
Y281354D01*
X339367Y281558D01*
X341992Y282645D01*
X344245Y284375D01*
X345975Y286628D01*
X347062Y289253D01*
X347266Y290800D01*
D02*
G37*
G36*
X284480D02*
X275034D01*
X275238Y289253D01*
X276325Y286628D01*
X278055Y284375D01*
X280308Y282645D01*
X282933Y281558D01*
X284480Y281354D01*
Y290800D01*
D02*
G37*
G36*
X602589Y285420D02*
Y281294D01*
X606715D01*
X606537Y282185D01*
X605313Y284018D01*
X603480Y285243D01*
X602589Y285420D01*
D02*
G37*
G36*
X600049D02*
X599157Y285243D01*
X597325Y284018D01*
X596100Y282185D01*
X595923Y281294D01*
X600049D01*
Y285420D01*
D02*
G37*
G36*
X70452Y292100D02*
X62100D01*
Y280915D01*
X63320Y281075D01*
X65641Y282037D01*
X67634Y283566D01*
X69163Y285559D01*
X70124Y287880D01*
X70452Y290370D01*
Y292100D01*
D02*
G37*
G36*
X606715Y278754D02*
X602589D01*
Y274628D01*
X603480Y274805D01*
X605313Y276030D01*
X606537Y277862D01*
X606715Y278754D01*
D02*
G37*
G36*
X600049D02*
X595923D01*
X596100Y277862D01*
X597325Y276030D01*
X599157Y274805D01*
X600049Y274628D01*
Y278754D01*
D02*
G37*
G36*
X388620Y277416D02*
Y267970D01*
X398066D01*
X397862Y269517D01*
X396775Y272141D01*
X395046Y274396D01*
X392791Y276125D01*
X390167Y277212D01*
X388620Y277416D01*
D02*
G37*
G36*
X386080D02*
X384533Y277212D01*
X381908Y276125D01*
X379655Y274396D01*
X377925Y272141D01*
X376838Y269517D01*
X376634Y267970D01*
X386080D01*
Y277416D01*
D02*
G37*
G36*
X160020Y271749D02*
X158056Y271490D01*
X156226Y270732D01*
X154654Y269526D01*
X153448Y267955D01*
X152690Y266124D01*
X152431Y264160D01*
X152690Y262196D01*
X153128Y261137D01*
X152502Y260172D01*
X151308Y258978D01*
X150343Y258352D01*
X149284Y258790D01*
X147320Y259049D01*
X145356Y258790D01*
X143525Y258032D01*
X141954Y256826D01*
X140748Y255254D01*
X139990Y253424D01*
X139731Y251460D01*
X139990Y249496D01*
X140748Y247666D01*
X141954Y246094D01*
X143525Y244888D01*
X145356Y244130D01*
X147320Y243871D01*
X149284Y244130D01*
X150343Y244568D01*
X151308Y243942D01*
X152502Y242749D01*
X153128Y241783D01*
X152690Y240724D01*
X152431Y238760D01*
X152690Y236796D01*
X153448Y234965D01*
X154654Y233394D01*
X156226Y232188D01*
X158056Y231430D01*
X160020Y231171D01*
X161984Y231430D01*
X163815Y232188D01*
X165386Y233394D01*
X166592Y234965D01*
X167350Y236796D01*
X167609Y238760D01*
X167350Y240724D01*
X166912Y241783D01*
X167538Y242749D01*
X168731Y243942D01*
X169697Y244568D01*
X170756Y244130D01*
X172720Y243871D01*
X174684Y244130D01*
X176514Y244888D01*
X178086Y246094D01*
X182493Y246011D01*
X191392Y237112D01*
X192148Y236607D01*
X193040Y236429D01*
X205666D01*
X206288Y235498D01*
X207785Y234499D01*
X209550Y234147D01*
X211315Y234499D01*
X212812Y235498D01*
X213811Y236995D01*
X214163Y238760D01*
X213811Y240525D01*
X212812Y242022D01*
X211315Y243022D01*
X209550Y243373D01*
X207785Y243022D01*
X206288Y242022D01*
X205666Y241091D01*
X194005D01*
X181988Y253108D01*
X181232Y253613D01*
X180340Y253791D01*
X179898D01*
X179292Y255254D01*
X178086Y256826D01*
X176514Y258032D01*
X174684Y258790D01*
X172720Y259049D01*
X170756Y258790D01*
X169697Y258352D01*
X168731Y258978D01*
X167538Y260172D01*
X166912Y261137D01*
X167350Y262196D01*
X167609Y264160D01*
X167350Y266124D01*
X166592Y267955D01*
X165386Y269526D01*
X163815Y270732D01*
X161984Y271490D01*
X160020Y271749D01*
D02*
G37*
G36*
X514350Y276558D02*
X511799Y276222D01*
X509421Y275238D01*
X507379Y273671D01*
X505812Y271629D01*
X504828Y269251D01*
X504492Y266700D01*
X504828Y264149D01*
X505812Y261771D01*
X504671Y258657D01*
X504041Y257821D01*
X504031Y257819D01*
X503451Y257948D01*
X502956Y258280D01*
X502064Y258457D01*
X500489D01*
X497352Y261594D01*
X497487Y261771D01*
X498472Y264149D01*
X498808Y266700D01*
X498472Y269251D01*
X497487Y271629D01*
X495921Y273671D01*
X493879Y275238D01*
X491502Y276222D01*
X488950Y276558D01*
X486399Y276222D01*
X484021Y275238D01*
X481979Y273671D01*
X480412Y271629D01*
X479428Y269251D01*
X479092Y266700D01*
X479428Y264149D01*
X480412Y261771D01*
X481979Y259729D01*
X484021Y258162D01*
X486399Y257178D01*
X488950Y256842D01*
X491502Y257178D01*
X493879Y258162D01*
X494056Y258298D01*
X497876Y254478D01*
X498632Y253973D01*
X499524Y253796D01*
X501098D01*
X504942Y249952D01*
X504992Y249918D01*
X505009Y249835D01*
X506008Y248338D01*
X507505Y247339D01*
X509270Y246987D01*
X511035Y247339D01*
X512532Y248338D01*
X513531Y249835D01*
X513883Y251600D01*
X513584Y253100D01*
X513587Y253589D01*
X515648Y257013D01*
X516902Y257178D01*
X519279Y258162D01*
X521321Y259729D01*
X522887Y261771D01*
X523872Y264149D01*
X524208Y266700D01*
X523872Y269251D01*
X522887Y271629D01*
X521321Y273671D01*
X519279Y275238D01*
X516902Y276222D01*
X514350Y276558D01*
D02*
G37*
G36*
X412750D02*
X410199Y276222D01*
X407821Y275238D01*
X405779Y273671D01*
X404212Y271629D01*
X403228Y269251D01*
X402892Y266700D01*
X403228Y264149D01*
X404212Y261771D01*
X403963Y260329D01*
X402578Y257703D01*
X401716Y257479D01*
X400545Y258262D01*
X399446Y258480D01*
X398484Y259481D01*
X398099Y260104D01*
X397154Y262174D01*
X397862Y263883D01*
X398066Y265430D01*
X388620D01*
Y255984D01*
X390167Y256188D01*
X390767Y256437D01*
X394069Y254070D01*
X394219Y253742D01*
X394519Y252235D01*
X395518Y250738D01*
X397015Y249739D01*
X397719Y249598D01*
Y237564D01*
X396788Y236942D01*
X396056Y235845D01*
X395095Y235114D01*
X392080Y233677D01*
X391848Y233677D01*
X379936D01*
X379044Y233499D01*
X378288Y232994D01*
X373208Y227914D01*
X372110Y228133D01*
X370345Y227782D01*
X368848Y226782D01*
X367849Y225285D01*
X367497Y223520D01*
X367849Y221755D01*
X368848Y220258D01*
X370345Y219258D01*
X372110Y218907D01*
X372683Y219021D01*
X374444Y218745D01*
X376739Y216675D01*
X377738Y215178D01*
X379235Y214179D01*
X381000Y213827D01*
X382765Y214179D01*
X384262Y215178D01*
X385261Y216675D01*
X385613Y218440D01*
X385457Y219222D01*
X388111Y221808D01*
X388125Y221798D01*
X389890Y221447D01*
X391655Y221798D01*
X393152Y222798D01*
X394151Y224295D01*
X395030Y226061D01*
X398092Y226063D01*
X402239D01*
X403131Y226241D01*
X403888Y226746D01*
X404681Y227539D01*
X419100D01*
X419992Y227717D01*
X423458Y229148D01*
X424955Y228148D01*
X426720Y227797D01*
X428485Y228148D01*
X429982Y229148D01*
X430981Y230645D01*
X431333Y232410D01*
X430981Y234175D01*
X429982Y235672D01*
X428485Y236672D01*
X426720Y237023D01*
X424955Y236672D01*
X423458Y235672D01*
X422836Y234741D01*
X421640D01*
X420748Y234563D01*
X419992Y234058D01*
X418135Y232201D01*
X405877D01*
X404663Y233680D01*
X404311Y235445D01*
X403312Y236942D01*
X402381Y237564D01*
Y244946D01*
X402422Y244987D01*
X406191Y246634D01*
X406778Y246241D01*
X407670Y246064D01*
Y251460D01*
X408940D01*
Y252730D01*
X414336D01*
X414243Y253195D01*
X414349Y254072D01*
X416134Y257523D01*
X417679Y258162D01*
X419721Y259729D01*
X421287Y261771D01*
X422272Y264149D01*
X422608Y266700D01*
X422272Y269251D01*
X421287Y271629D01*
X419721Y273671D01*
X417679Y275238D01*
X415302Y276222D01*
X412750Y276558D01*
D02*
G37*
G36*
X463550D02*
X460998Y276222D01*
X458621Y275238D01*
X456579Y273671D01*
X455013Y271629D01*
X454028Y269251D01*
X453692Y266700D01*
X454028Y264149D01*
X455013Y261771D01*
X456579Y259729D01*
X458621Y258162D01*
X460998Y257178D01*
X463550Y256842D01*
X466101Y257178D01*
X468479Y258162D01*
X470521Y259729D01*
X472088Y261771D01*
X473072Y264149D01*
X473408Y266700D01*
X473072Y269251D01*
X472088Y271629D01*
X470521Y273671D01*
X468479Y275238D01*
X466101Y276222D01*
X463550Y276558D01*
D02*
G37*
G36*
X438150D02*
X435598Y276222D01*
X433221Y275238D01*
X431179Y273671D01*
X429613Y271629D01*
X428628Y269251D01*
X428292Y266700D01*
X428628Y264149D01*
X429613Y261771D01*
X431179Y259729D01*
X433221Y258162D01*
X435598Y257178D01*
X438150Y256842D01*
X440701Y257178D01*
X443079Y258162D01*
X445121Y259729D01*
X446688Y261771D01*
X447672Y264149D01*
X448008Y266700D01*
X447672Y269251D01*
X446688Y271629D01*
X445121Y273671D01*
X443079Y275238D01*
X440701Y276222D01*
X438150Y276558D01*
D02*
G37*
G36*
X260350D02*
X257799Y276222D01*
X255421Y275238D01*
X253379Y273671D01*
X251812Y271629D01*
X250828Y269251D01*
X250492Y266700D01*
X250828Y264149D01*
X251812Y261771D01*
X253379Y259729D01*
X255421Y258162D01*
X257799Y257178D01*
X260350Y256842D01*
X262901Y257178D01*
X265279Y258162D01*
X267321Y259729D01*
X268888Y261771D01*
X269872Y264149D01*
X270208Y266700D01*
X269872Y269251D01*
X268888Y271629D01*
X267321Y273671D01*
X265279Y275238D01*
X262901Y276222D01*
X260350Y276558D01*
D02*
G37*
G36*
X386080Y265430D02*
X376634D01*
X376838Y263883D01*
X377925Y261259D01*
X379655Y259004D01*
X381908Y257275D01*
X384533Y256188D01*
X386080Y255984D01*
Y265430D01*
D02*
G37*
G36*
X414336Y250190D02*
X410210D01*
Y246064D01*
X411102Y246241D01*
X412934Y247466D01*
X414159Y249298D01*
X414336Y250190D01*
D02*
G37*
G36*
X361950Y276558D02*
X359398Y276222D01*
X357021Y275238D01*
X354979Y273671D01*
X353413Y271629D01*
X352428Y269251D01*
X352092Y266700D01*
X352428Y264149D01*
X353413Y261771D01*
X353796Y261271D01*
X353769Y261244D01*
X353207Y260403D01*
X353010Y259412D01*
Y251360D01*
X352338Y250912D01*
X351339Y249415D01*
X350987Y247650D01*
X351339Y245885D01*
X352338Y244388D01*
X353835Y243389D01*
X355600Y243037D01*
X357365Y243389D01*
X358862Y244388D01*
X359861Y245885D01*
X360213Y247650D01*
X359861Y249415D01*
X358862Y250912D01*
X359323Y254724D01*
X361950Y256842D01*
X364501Y257178D01*
X366879Y258162D01*
X368921Y259729D01*
X370488Y261771D01*
X371472Y264149D01*
X371808Y266700D01*
X371472Y269251D01*
X370488Y271629D01*
X368921Y273671D01*
X366879Y275238D01*
X364501Y276222D01*
X361950Y276558D01*
D02*
G37*
G36*
X467360Y245426D02*
Y241300D01*
X471486D01*
X471309Y242192D01*
X470084Y244024D01*
X468252Y245249D01*
X467360Y245426D01*
D02*
G37*
G36*
X464820D02*
X463928Y245249D01*
X462096Y244024D01*
X460871Y242192D01*
X460694Y241300D01*
X464820D01*
Y245426D01*
D02*
G37*
G36*
X234950Y276558D02*
X232398Y276222D01*
X230021Y275238D01*
X227979Y273671D01*
X226413Y271629D01*
X225428Y269251D01*
X225092Y266700D01*
X225428Y264149D01*
X226413Y261771D01*
X227979Y259729D01*
X230021Y258162D01*
X232398Y257178D01*
X232619Y257148D01*
Y247724D01*
X231688Y247102D01*
X230688Y245605D01*
X230337Y243840D01*
X227250Y240885D01*
X225961D01*
X213738Y253108D01*
X213726Y253116D01*
X214371Y256926D01*
X219324D01*
Y276474D01*
X199776D01*
Y259126D01*
X199674Y258921D01*
X196382Y256214D01*
X196271Y256191D01*
X194615Y255861D01*
X193118Y254862D01*
X192118Y253365D01*
X191767Y251600D01*
X192118Y249835D01*
X193118Y248338D01*
X194615Y247339D01*
X196380Y246987D01*
X198145Y247339D01*
X199642Y248338D01*
X200170Y249129D01*
X211125D01*
X223348Y236906D01*
X224104Y236401D01*
X224996Y236223D01*
X268481D01*
X271196Y233508D01*
X270977Y232410D01*
X271329Y230645D01*
X272328Y229148D01*
X273825Y228148D01*
X275590Y227797D01*
X277355Y228148D01*
X278852Y229148D01*
X279851Y230645D01*
X280203Y232410D01*
X279851Y234175D01*
X278852Y235672D01*
X277355Y236672D01*
X275590Y237023D01*
X274492Y236804D01*
X271094Y240202D01*
X270338Y240707D01*
X269446Y240885D01*
X242650D01*
X239563Y243840D01*
X239212Y245605D01*
X238212Y247102D01*
X237281Y247724D01*
Y257148D01*
X237502Y257178D01*
X239879Y258162D01*
X241921Y259729D01*
X243487Y261771D01*
X244472Y264149D01*
X244808Y266700D01*
X244472Y269251D01*
X243487Y271629D01*
X241921Y273671D01*
X239879Y275238D01*
X237502Y276222D01*
X234950Y276558D01*
D02*
G37*
G36*
X285750D02*
X283199Y276222D01*
X280821Y275238D01*
X278779Y273671D01*
X277213Y271629D01*
X276228Y269251D01*
X275892Y266700D01*
X276228Y264149D01*
X277213Y261771D01*
X278779Y259729D01*
X280821Y258162D01*
X283199Y257178D01*
X283419Y257148D01*
Y247724D01*
X282488Y247102D01*
X281488Y245605D01*
X281137Y243840D01*
X281488Y242075D01*
X282488Y240578D01*
X283985Y239578D01*
X285750Y239227D01*
X287515Y239578D01*
X289012Y240578D01*
X290012Y242075D01*
X290363Y243840D01*
X290012Y245605D01*
X289012Y247102D01*
X288081Y247724D01*
Y257148D01*
X288302Y257178D01*
X290679Y258162D01*
X292721Y259729D01*
X294287Y261771D01*
X295272Y264149D01*
X295608Y266700D01*
X295272Y269251D01*
X294287Y271629D01*
X292721Y273671D01*
X290679Y275238D01*
X288302Y276222D01*
X285750Y276558D01*
D02*
G37*
G36*
X494030Y242886D02*
Y238760D01*
X498156D01*
X497979Y239652D01*
X496754Y241484D01*
X494922Y242709D01*
X494030Y242886D01*
D02*
G37*
G36*
X491490D02*
X490598Y242709D01*
X488766Y241484D01*
X487541Y239652D01*
X487364Y238760D01*
X491490D01*
Y242886D01*
D02*
G37*
G36*
X471486Y238760D02*
X467360D01*
Y234634D01*
X468252Y234811D01*
X470084Y236036D01*
X471309Y237868D01*
X471486Y238760D01*
D02*
G37*
G36*
X464820D02*
X460694D01*
X460871Y237868D01*
X462096Y236036D01*
X463928Y234811D01*
X464820Y234634D01*
Y238760D01*
D02*
G37*
G36*
X498156Y236220D02*
X494030D01*
Y232094D01*
X494922Y232271D01*
X496754Y233496D01*
X497979Y235328D01*
X498156Y236220D01*
D02*
G37*
G36*
X491490D02*
X487364D01*
X487541Y235328D01*
X488766Y233496D01*
X490598Y232271D01*
X491490Y232094D01*
Y236220D01*
D02*
G37*
G36*
X238123Y230673D02*
X236358Y230322D01*
X234862Y229322D01*
X233862Y227825D01*
X233511Y226060D01*
X233862Y224295D01*
X234862Y222798D01*
X235161Y222599D01*
X233684Y219019D01*
X231518Y218579D01*
X229686Y217354D01*
X228461Y215522D01*
X228284Y214630D01*
X239076D01*
X238899Y215522D01*
X237674Y217354D01*
X237239Y217645D01*
X237039Y217778D01*
X237929Y220788D01*
X238341Y221491D01*
X238682Y221558D01*
X239889Y221798D01*
X241385Y222798D01*
X241863Y223514D01*
X259293D01*
X260058Y222368D01*
X261555Y221369D01*
X263320Y221017D01*
X265085Y221369D01*
X266582Y222368D01*
X267582Y223865D01*
X267933Y225630D01*
X267582Y227395D01*
X266582Y228892D01*
X265085Y229891D01*
X263320Y230243D01*
X261555Y229891D01*
X260058Y228892D01*
X259580Y228176D01*
X242151D01*
X241385Y229322D01*
X239889Y230322D01*
X238123Y230673D01*
D02*
G37*
G36*
X91440Y222566D02*
X90548Y222389D01*
X88716Y221164D01*
X87491Y219332D01*
X87314Y218440D01*
X91440D01*
Y222566D01*
D02*
G37*
G36*
X190500Y220513D02*
X188735Y220161D01*
X187238Y219162D01*
X186616Y218231D01*
X152686D01*
X152099Y218818D01*
X151343Y219323D01*
X150451Y219501D01*
X150160Y219443D01*
X149085Y220161D01*
X147320Y220513D01*
X145555Y220161D01*
X144058Y219162D01*
X143059Y217665D01*
X142707Y215900D01*
X143059Y214135D01*
X144058Y212638D01*
X145555Y211639D01*
X147320Y211287D01*
X149085Y211639D01*
X150582Y212638D01*
X151264Y213660D01*
X151721Y213569D01*
X186616D01*
X187238Y212638D01*
X188735Y211639D01*
X190500Y211287D01*
X192265Y211639D01*
X193762Y212638D01*
X194762Y214135D01*
X195113Y215900D01*
X194762Y217665D01*
X193762Y219162D01*
X192265Y220161D01*
X190500Y220513D01*
D02*
G37*
G36*
X93980Y222566D02*
Y217170D01*
X92710D01*
Y215900D01*
X87314D01*
X87491Y215008D01*
X87884Y214421D01*
X86237Y210652D01*
X86196Y210611D01*
X78814D01*
X78192Y211542D01*
X76695Y212542D01*
X74930Y212893D01*
X73165Y212542D01*
X71668Y211542D01*
X70669Y210045D01*
X70317Y208280D01*
X70669Y206515D01*
X71668Y205018D01*
X73165Y204018D01*
X74930Y203667D01*
X76695Y204018D01*
X78192Y205018D01*
X78814Y205949D01*
X100330D01*
X101222Y206127D01*
X101978Y206632D01*
X104397Y209051D01*
X104635Y209098D01*
X106132Y210098D01*
X107132Y211595D01*
X107483Y213360D01*
X107132Y215125D01*
X106132Y216622D01*
X104635Y217621D01*
X102870Y217973D01*
X102076Y217815D01*
X101070Y217640D01*
X99740Y218357D01*
X97582Y219850D01*
X96704Y221164D01*
X94872Y222389D01*
X93980Y222566D01*
D02*
G37*
G36*
X239076Y212090D02*
X234950D01*
Y207964D01*
X235842Y208141D01*
X237674Y209366D01*
X238899Y211198D01*
X239076Y212090D01*
D02*
G37*
G36*
X232410D02*
X228284D01*
X228461Y211198D01*
X229686Y209366D01*
X231518Y208141D01*
X232410Y207964D01*
Y212090D01*
D02*
G37*
G36*
X438150Y200480D02*
X434024D01*
X434201Y199588D01*
X435426Y197756D01*
X437258Y196531D01*
X438150Y196354D01*
Y200480D01*
D02*
G37*
G36*
X300990Y211623D02*
X299225Y211271D01*
X297728Y210272D01*
X296728Y208775D01*
X296377Y207010D01*
X296728Y205245D01*
X297389Y204256D01*
Y196924D01*
X296458Y196302D01*
X295459Y194805D01*
X295107Y193040D01*
X295459Y191275D01*
X296458Y189778D01*
X297955Y188778D01*
X299720Y188427D01*
X301485Y188778D01*
X302982Y189778D01*
X303981Y191275D01*
X304333Y193040D01*
X303981Y194805D01*
X302982Y196302D01*
X302051Y196924D01*
Y202608D01*
X302755Y202749D01*
X304252Y203748D01*
X305252Y205245D01*
X305603Y207010D01*
X305252Y208775D01*
X304252Y210272D01*
X302755Y211271D01*
X300990Y211623D01*
D02*
G37*
G36*
X57370Y188744D02*
X55390D01*
X53521Y188372D01*
X51937Y187313D01*
X51146Y186130D01*
X49614Y185800D01*
X47036Y185944D01*
X46611Y186581D01*
X45363Y187415D01*
X43890Y187708D01*
X37390D01*
X35917Y187415D01*
X34669Y186581D01*
X33835Y185333D01*
X33542Y183860D01*
Y179360D01*
X33835Y177887D01*
X34669Y176639D01*
X35917Y175805D01*
X37390Y175512D01*
X41800D01*
X43950Y172023D01*
X43955Y171729D01*
X43647Y170180D01*
X43998Y168415D01*
X44998Y166918D01*
X46495Y165919D01*
X48260Y165567D01*
X50025Y165919D01*
X51522Y166918D01*
X52144Y167849D01*
X60886D01*
X61508Y166918D01*
X63005Y165919D01*
X64770Y165567D01*
X66535Y165919D01*
X68032Y166918D01*
X69032Y168415D01*
X69383Y170180D01*
X69032Y171945D01*
X68032Y173442D01*
X68011Y173456D01*
X66557Y177103D01*
X66567Y178320D01*
X66774Y179360D01*
Y180340D01*
X58640D01*
Y181610D01*
X57370D01*
Y188744D01*
D02*
G37*
G36*
X61890D02*
X59910D01*
Y182880D01*
X66774D01*
Y183860D01*
X66402Y185729D01*
X65343Y187313D01*
X63759Y188372D01*
X61890Y188744D01*
D02*
G37*
G36*
X392430Y185736D02*
Y181610D01*
X396556D01*
X396379Y182502D01*
X395154Y184334D01*
X393322Y185559D01*
X392430Y185736D01*
D02*
G37*
G36*
X389890D02*
X388998Y185559D01*
X387166Y184334D01*
X385941Y182502D01*
X385764Y181610D01*
X389890D01*
Y185736D01*
D02*
G37*
G36*
X308610D02*
Y181610D01*
X312736D01*
X312559Y182502D01*
X311334Y184334D01*
X309502Y185559D01*
X308610Y185736D01*
D02*
G37*
G36*
X306070D02*
X305178Y185559D01*
X303346Y184334D01*
X302121Y182502D01*
X301944Y181610D01*
X306070D01*
Y185736D01*
D02*
G37*
G36*
X359410Y180656D02*
Y176530D01*
X363536D01*
X363359Y177422D01*
X362134Y179254D01*
X360302Y180479D01*
X359410Y180656D01*
D02*
G37*
G36*
X356870D02*
X355978Y180479D01*
X354146Y179254D01*
X352921Y177422D01*
X352744Y176530D01*
X356870D01*
Y180656D01*
D02*
G37*
G36*
X396556Y179070D02*
X392430D01*
Y174944D01*
X393322Y175121D01*
X395154Y176346D01*
X396379Y178178D01*
X396556Y179070D01*
D02*
G37*
G36*
X389890D02*
X385764D01*
X385941Y178178D01*
X387166Y176346D01*
X388998Y175121D01*
X389890Y174944D01*
Y179070D01*
D02*
G37*
G36*
X312736D02*
X308610D01*
Y174944D01*
X309502Y175121D01*
X311334Y176346D01*
X312559Y178178D01*
X312736Y179070D01*
D02*
G37*
G36*
X306070D02*
X301944D01*
X302121Y178178D01*
X303346Y176346D01*
X305178Y175121D01*
X306070Y174944D01*
Y179070D01*
D02*
G37*
G36*
X124460Y178116D02*
Y173990D01*
X128586D01*
X128409Y174882D01*
X127184Y176714D01*
X125352Y177939D01*
X124460Y178116D01*
D02*
G37*
G36*
X121920D02*
X121028Y177939D01*
X119196Y176714D01*
X117971Y174882D01*
X117794Y173990D01*
X121920D01*
Y178116D01*
D02*
G37*
G36*
X247650Y175576D02*
Y171450D01*
X251776D01*
X251599Y172342D01*
X250374Y174174D01*
X248542Y175399D01*
X247650Y175576D01*
D02*
G37*
G36*
X363536Y173990D02*
X359410D01*
Y169864D01*
X360302Y170041D01*
X362134Y171266D01*
X363359Y173098D01*
X363536Y173990D01*
D02*
G37*
G36*
X356870D02*
X352744D01*
X352921Y173098D01*
X354146Y171266D01*
X355978Y170041D01*
X356870Y169864D01*
Y173990D01*
D02*
G37*
G36*
X93980Y155256D02*
X93088Y155079D01*
X91256Y153854D01*
X90031Y152022D01*
X89854Y151130D01*
X93980D01*
Y155256D01*
D02*
G37*
G36*
X382270Y153986D02*
Y149860D01*
X386396D01*
X386219Y150752D01*
X384994Y152584D01*
X383162Y153809D01*
X382270Y153986D01*
D02*
G37*
G36*
X379730D02*
X378838Y153809D01*
X377006Y152584D01*
X375781Y150752D01*
X375604Y149860D01*
X379730D01*
Y153986D01*
D02*
G37*
G36*
X128586Y171450D02*
X117794D01*
X117971Y170558D01*
X118741Y169408D01*
X118811Y167524D01*
X117987Y164951D01*
X117388Y164552D01*
X116389Y163055D01*
X116037Y161290D01*
X116229Y160327D01*
X104540Y148638D01*
X102333Y149378D01*
X100812Y150297D01*
X100469Y152022D01*
X99244Y153854D01*
X97412Y155079D01*
X96520Y155256D01*
Y149860D01*
X95250D01*
Y148590D01*
X89854D01*
X90031Y147698D01*
X91256Y145866D01*
X92483Y145046D01*
X93953Y141290D01*
X94024Y141014D01*
Y141014D01*
X93939Y140588D01*
X93673Y139249D01*
X94024Y137483D01*
X95024Y135987D01*
X96520Y134987D01*
X97338Y132575D01*
X96987Y130810D01*
X97338Y129045D01*
X98338Y127548D01*
X99835Y126549D01*
X101600Y126197D01*
X103365Y126549D01*
X104862Y127548D01*
X105862Y129045D01*
X106213Y130810D01*
X105994Y131908D01*
X120194Y146108D01*
X123740Y147659D01*
X125237Y146659D01*
X127002Y146308D01*
X128767Y146659D01*
X130264Y147659D01*
X131264Y149156D01*
X131615Y150921D01*
X131264Y152686D01*
X130264Y154182D01*
X128767Y155182D01*
X127002Y155533D01*
X126398Y155413D01*
X126180Y155641D01*
X124509Y158922D01*
X124911Y159525D01*
X125263Y161290D01*
X124911Y163055D01*
X124632Y163474D01*
X125160Y166427D01*
X125363Y167006D01*
X125853Y167837D01*
X127184Y168726D01*
X128409Y170558D01*
X128586Y171450D01*
D02*
G37*
G36*
X398780Y151446D02*
Y147320D01*
X402906D01*
X402729Y148212D01*
X401504Y150044D01*
X399672Y151269D01*
X398780Y151446D01*
D02*
G37*
G36*
X396240D02*
X395348Y151269D01*
X393516Y150044D01*
X392291Y148212D01*
X392114Y147320D01*
X396240D01*
Y151446D01*
D02*
G37*
G36*
X356614Y149745D02*
Y145619D01*
X360740D01*
X360563Y146511D01*
X359338Y148343D01*
X357506Y149567D01*
X356614Y149745D01*
D02*
G37*
G36*
X386396Y147320D02*
X382270D01*
Y143194D01*
X383162Y143371D01*
X384994Y144596D01*
X386219Y146428D01*
X386396Y147320D01*
D02*
G37*
G36*
X379730D02*
X375604D01*
X375781Y146428D01*
X377006Y144596D01*
X378838Y143371D01*
X379730Y143194D01*
Y147320D01*
D02*
G37*
G36*
X43890Y145708D02*
X37390D01*
X35917Y145415D01*
X34669Y144581D01*
X33835Y143333D01*
X33542Y141860D01*
Y137360D01*
X33835Y135887D01*
X34669Y134639D01*
X35917Y133805D01*
X37390Y133512D01*
X43890D01*
X45363Y133805D01*
X46611Y134639D01*
X47445Y135887D01*
X47738Y137360D01*
X51542Y137360D01*
X51835Y135887D01*
X52669Y134639D01*
X53917Y133805D01*
X55390Y133512D01*
X61890D01*
X63362Y133805D01*
X64611Y134639D01*
X65445Y135887D01*
X65738Y137360D01*
Y141860D01*
X65445Y143333D01*
X64611Y144581D01*
X63362Y145415D01*
X61890Y145708D01*
X55390D01*
X53917Y145415D01*
X52669Y144581D01*
X51835Y143333D01*
X51542Y141860D01*
X47738Y141860D01*
X47445Y143333D01*
X46611Y144581D01*
X45363Y145415D01*
X43890Y145708D01*
D02*
G37*
G36*
X641350Y134936D02*
X640458Y134759D01*
X638626Y133534D01*
X637401Y131702D01*
X637224Y130810D01*
X641350D01*
Y134936D01*
D02*
G37*
G36*
X25155Y136020D02*
X13970D01*
Y127668D01*
X15700D01*
X18190Y127996D01*
X20511Y128957D01*
X22504Y130486D01*
X24033Y132479D01*
X24994Y134800D01*
X25155Y136020D01*
D02*
G37*
G36*
X441960Y127316D02*
X441068Y127139D01*
X439236Y125914D01*
X438011Y124082D01*
X437834Y123190D01*
X441960D01*
Y127316D01*
D02*
G37*
G36*
X643890Y134936D02*
Y129540D01*
X642620D01*
Y128270D01*
X637224D01*
X637401Y127378D01*
X638626Y125546D01*
X639353Y125060D01*
X642169Y122415D01*
X641817Y120650D01*
X642169Y118885D01*
X643168Y117388D01*
X644665Y116389D01*
X646430Y116037D01*
X648195Y116389D01*
X649692Y117388D01*
X650692Y118885D01*
X651043Y120650D01*
X651035Y120689D01*
X653745Y123399D01*
X671756D01*
X672378Y122468D01*
X673875Y121468D01*
X673937Y118110D01*
X684846D01*
X684669Y119002D01*
X683444Y120834D01*
X682717Y121320D01*
X679902Y123965D01*
X680253Y125730D01*
X679902Y127495D01*
X678902Y128992D01*
X677405Y129992D01*
X675640Y130343D01*
X673875Y129992D01*
X672378Y128992D01*
X671756Y128061D01*
X652780D01*
X651888Y127883D01*
X651814Y127834D01*
X649303Y128920D01*
X648208Y129843D01*
X647839Y131702D01*
X646614Y133534D01*
X644782Y134759D01*
X643890Y134936D01*
D02*
G37*
G36*
X632460Y122236D02*
Y118110D01*
X636586D01*
X636409Y119002D01*
X635184Y120834D01*
X633352Y122059D01*
X632460Y122236D01*
D02*
G37*
G36*
X684846Y115570D02*
X680720D01*
Y111444D01*
X681612Y111621D01*
X683444Y112846D01*
X684669Y114678D01*
X684846Y115570D01*
D02*
G37*
G36*
X678180D02*
X674054D01*
X674231Y114678D01*
X675456Y112846D01*
X677288Y111621D01*
X678180Y111444D01*
Y115570D01*
D02*
G37*
G36*
X636586D02*
X632460D01*
Y111444D01*
X633352Y111621D01*
X635184Y112846D01*
X636409Y114678D01*
X636586Y115570D01*
D02*
G37*
G36*
X12700Y100646D02*
Y96520D01*
X16826D01*
X16649Y97412D01*
X15424Y99244D01*
X13592Y100469D01*
X12700Y100646D01*
D02*
G37*
G36*
X40640Y98106D02*
Y93980D01*
X44766D01*
X44589Y94872D01*
X43364Y96704D01*
X41532Y97929D01*
X40640Y98106D01*
D02*
G37*
G36*
X38100D02*
X37208Y97929D01*
X35376Y96704D01*
X34151Y94872D01*
X33974Y93980D01*
X38100D01*
Y98106D01*
D02*
G37*
G36*
X631190Y95566D02*
Y91440D01*
X635316D01*
X635139Y92332D01*
X633914Y94164D01*
X632082Y95389D01*
X631190Y95566D01*
D02*
G37*
G36*
X16826Y93980D02*
X12700D01*
Y89854D01*
X13592Y90031D01*
X15424Y91256D01*
X16649Y93088D01*
X16826Y93980D01*
D02*
G37*
G36*
X44766Y91440D02*
X40640D01*
Y87314D01*
X41532Y87491D01*
X43364Y88716D01*
X44589Y90548D01*
X44766Y91440D01*
D02*
G37*
G36*
X38100D02*
X33974D01*
X34151Y90548D01*
X35376Y88716D01*
X37208Y87491D01*
X38100Y87314D01*
Y91440D01*
D02*
G37*
G36*
X681990Y84136D02*
Y80010D01*
X686116D01*
X685939Y80902D01*
X684714Y82734D01*
X682882Y83959D01*
X681990Y84136D01*
D02*
G37*
G36*
X679450D02*
X678558Y83959D01*
X676726Y82734D01*
X675501Y80902D01*
X675324Y80010D01*
X679450D01*
Y84136D01*
D02*
G37*
G36*
X64770Y82866D02*
Y78740D01*
X68896D01*
X68719Y79632D01*
X67494Y81464D01*
X65662Y82689D01*
X64770Y82866D01*
D02*
G37*
G36*
X62230D02*
X61338Y82689D01*
X59506Y81464D01*
X58281Y79632D01*
X58104Y78740D01*
X62230D01*
Y82866D01*
D02*
G37*
G36*
X226060Y79056D02*
Y74930D01*
X230186D01*
X230009Y75822D01*
X228784Y77654D01*
X226952Y78879D01*
X226060Y79056D01*
D02*
G37*
G36*
X223520D02*
X222628Y78879D01*
X220796Y77654D01*
X219571Y75822D01*
X219394Y74930D01*
X223520D01*
Y79056D01*
D02*
G37*
G36*
X686116Y77470D02*
X681990D01*
Y73344D01*
X682882Y73521D01*
X684714Y74746D01*
X685939Y76578D01*
X686116Y77470D01*
D02*
G37*
G36*
X679450D02*
X675324D01*
X675501Y76578D01*
X676726Y74746D01*
X678558Y73521D01*
X679450Y73344D01*
Y77470D01*
D02*
G37*
G36*
X68896Y76200D02*
X64770D01*
Y72074D01*
X65662Y72251D01*
X67494Y73476D01*
X68719Y75308D01*
X68896Y76200D01*
D02*
G37*
G36*
X62230D02*
X58104D01*
X58281Y75308D01*
X59506Y73476D01*
X61338Y72251D01*
X62230Y72074D01*
Y76200D01*
D02*
G37*
G36*
X230186Y72390D02*
X226060D01*
Y68264D01*
X226952Y68441D01*
X228784Y69666D01*
X230009Y71498D01*
X230186Y72390D01*
D02*
G37*
G36*
X223520D02*
X219394D01*
X219571Y71498D01*
X220796Y69666D01*
X222628Y68441D01*
X223520Y68264D01*
Y72390D01*
D02*
G37*
G36*
X737250Y73211D02*
Y65530D01*
X744931D01*
X744787Y66620D01*
X743876Y68819D01*
X742427Y70707D01*
X740539Y72156D01*
X738340Y73067D01*
X737250Y73211D01*
D02*
G37*
G36*
X129540Y67626D02*
X128648Y67449D01*
X126816Y66224D01*
X125591Y64392D01*
X125414Y63500D01*
X129540D01*
Y67626D01*
D02*
G37*
G36*
X77710Y47306D02*
X76818Y47129D01*
X74986Y45904D01*
X74377Y44993D01*
X71073Y44477D01*
X70034Y44634D01*
X68202Y45859D01*
X67310Y46036D01*
Y40640D01*
Y35244D01*
X68202Y35421D01*
X70034Y36646D01*
X70643Y37557D01*
X73947Y38073D01*
X74986Y37916D01*
X76818Y36691D01*
X77710Y36514D01*
Y41910D01*
Y47306D01*
D02*
G37*
G36*
X109330D02*
X108438Y47129D01*
X106606Y45904D01*
X105381Y44072D01*
X105204Y43180D01*
X109330D01*
Y47306D01*
D02*
G37*
G36*
X80250D02*
Y43180D01*
X84376D01*
X84199Y44072D01*
X82974Y45904D01*
X81142Y47129D01*
X80250Y47306D01*
D02*
G37*
G36*
X64770Y46036D02*
X63878Y45859D01*
X62046Y44634D01*
X60821Y42802D01*
X60644Y41910D01*
X64770D01*
Y46036D01*
D02*
G37*
G36*
X84376Y40640D02*
X80250D01*
Y36514D01*
X81142Y36691D01*
X82974Y37916D01*
X84199Y39748D01*
X84376Y40640D01*
D02*
G37*
G36*
X64770Y39370D02*
X60644D01*
X60821Y38478D01*
X62046Y36646D01*
X63878Y35421D01*
X64770Y35244D01*
Y39370D01*
D02*
G37*
G36*
X198436Y33020D02*
X194310D01*
Y28894D01*
X195202Y29071D01*
X197034Y30296D01*
X198259Y32128D01*
X198436Y33020D01*
D02*
G37*
G36*
X191770D02*
X187644D01*
X187821Y32128D01*
X189046Y30296D01*
X190878Y29071D01*
X191770Y28894D01*
Y33020D01*
D02*
G37*
G36*
X267016Y30480D02*
X262890D01*
Y26354D01*
X263782Y26531D01*
X265614Y27756D01*
X266839Y29588D01*
X267016Y30480D01*
D02*
G37*
G36*
X260350D02*
X256224D01*
X256401Y29588D01*
X257626Y27756D01*
X259458Y26531D01*
X260350Y26354D01*
Y30480D01*
D02*
G37*
G36*
X26550Y26550D02*
X17780D01*
Y17780D01*
X26550D01*
Y26550D01*
D02*
G37*
G36*
X15240D02*
X6470D01*
Y17780D01*
X15240D01*
Y26550D01*
D02*
G37*
G36*
X174306Y33020D02*
X163514D01*
X163691Y32128D01*
X164916Y30296D01*
X163664Y26550D01*
X161410D01*
Y17780D01*
X171450D01*
X181490D01*
Y26550D01*
X174156D01*
X172904Y30296D01*
X174129Y32128D01*
X174306Y33020D01*
D02*
G37*
G36*
X276620Y25108D02*
X274395Y24815D01*
X272321Y23956D01*
X270541Y22589D01*
X269174Y20809D01*
X268315Y18735D01*
X268022Y16510D01*
X268315Y14285D01*
X269174Y12211D01*
X270541Y10431D01*
X272321Y9064D01*
X274395Y8205D01*
X276620Y7912D01*
X278845Y8205D01*
X280919Y9064D01*
X282699Y10431D01*
X284066Y12211D01*
X284925Y14285D01*
X285217Y16510D01*
X284925Y18735D01*
X284066Y20809D01*
X282699Y22589D01*
X280919Y23956D01*
X278845Y24815D01*
X276620Y25108D01*
D02*
G37*
G36*
X246620D02*
X244395Y24815D01*
X242321Y23956D01*
X240541Y22589D01*
X239174Y20809D01*
X238315Y18735D01*
X238022Y16510D01*
X238315Y14285D01*
X239174Y12211D01*
X240541Y10431D01*
X242321Y9064D01*
X244395Y8205D01*
X246620Y7912D01*
X248845Y8205D01*
X250919Y9064D01*
X252699Y10431D01*
X254066Y12211D01*
X254925Y14285D01*
X255217Y16510D01*
X254925Y18735D01*
X254066Y20809D01*
X252699Y22589D01*
X250919Y23956D01*
X248845Y24815D01*
X246620Y25108D01*
D02*
G37*
G36*
X41910Y25612D02*
X39554Y25302D01*
X37359Y24392D01*
X35474Y22946D01*
X34028Y21061D01*
X33118Y18866D01*
X32808Y16510D01*
X33118Y14154D01*
X34028Y11959D01*
X35474Y10074D01*
X37359Y8628D01*
X39554Y7718D01*
X41910Y7408D01*
X44266Y7718D01*
X46461Y8628D01*
X48346Y10074D01*
X49792Y11959D01*
X50702Y14154D01*
X51012Y16510D01*
X50702Y18866D01*
X49792Y21061D01*
X48346Y22946D01*
X46461Y24392D01*
X44266Y25302D01*
X41910Y25612D01*
D02*
G37*
G36*
X181490Y15240D02*
X172720D01*
Y6470D01*
X181490D01*
Y15240D01*
D02*
G37*
G36*
X170180D02*
X161410D01*
Y6470D01*
X170180D01*
Y15240D01*
D02*
G37*
G36*
X26550D02*
X17780D01*
Y6470D01*
X26550D01*
Y15240D01*
D02*
G37*
G36*
X15240D02*
X6470D01*
Y6470D01*
X15240D01*
Y15240D01*
D02*
G37*
G36*
X613720Y164856D02*
Y160730D01*
X617846D01*
X617669Y161622D01*
X616444Y163454D01*
X614612Y164679D01*
X613720Y164856D01*
D02*
G37*
G36*
X617846Y158190D02*
X613720D01*
Y154064D01*
X614612Y154241D01*
X616444Y155466D01*
X617669Y157298D01*
X617846Y158190D01*
D02*
G37*
G36*
X481146Y99244D02*
X477020D01*
X477197Y98352D01*
X478422Y96520D01*
X480254Y95296D01*
X481146Y95118D01*
Y99244D01*
D02*
G37*
G36*
X555306Y83820D02*
X551180D01*
Y79694D01*
X552072Y79871D01*
X553904Y81096D01*
X555129Y82928D01*
X555306Y83820D01*
D02*
G37*
G36*
X548640D02*
X544514D01*
X544691Y82928D01*
X545916Y81096D01*
X547748Y79871D01*
X548640Y79694D01*
Y83820D01*
D02*
G37*
G36*
X611496Y83260D02*
X607370D01*
Y79134D01*
X608262Y79311D01*
X610094Y80536D01*
X611319Y82368D01*
X611496Y83260D01*
D02*
G37*
G36*
X604830D02*
X600704D01*
X600881Y82368D01*
X602106Y80536D01*
X603938Y79311D01*
X604830Y79134D01*
Y83260D01*
D02*
G37*
G36*
X388620Y63410D02*
Y55880D01*
X396149D01*
X396011Y56931D01*
X395115Y59093D01*
X393690Y60950D01*
X391833Y62375D01*
X389671Y63271D01*
X388620Y63410D01*
D02*
G37*
G36*
X396149Y53340D02*
X388620D01*
Y45810D01*
X389671Y45949D01*
X391833Y46845D01*
X393690Y48270D01*
X395115Y50127D01*
X396011Y52289D01*
X396149Y53340D01*
D02*
G37*
G36*
X386080D02*
X378550D01*
X378689Y52289D01*
X379585Y50127D01*
X381010Y48270D01*
X382867Y46845D01*
X385029Y45949D01*
X386080Y45810D01*
Y53340D01*
D02*
G37*
G36*
X488950Y44766D02*
Y40640D01*
X493076D01*
X492899Y41532D01*
X491674Y43364D01*
X489842Y44589D01*
X488950Y44766D01*
D02*
G37*
G36*
X486410D02*
X485518Y44589D01*
X483686Y43364D01*
X482461Y41532D01*
X482284Y40640D01*
X486410D01*
Y44766D01*
D02*
G37*
G36*
X182789Y190500D02*
X175260D01*
Y182971D01*
X176311Y183109D01*
X178473Y184005D01*
X180330Y185430D01*
X181755Y187287D01*
X182651Y189449D01*
X182789Y190500D01*
D02*
G37*
G36*
X172720D02*
X165191D01*
X165329Y189449D01*
X166225Y187287D01*
X167650Y185430D01*
X169507Y184005D01*
X171669Y183109D01*
X172720Y182971D01*
Y190500D01*
D02*
G37*
G36*
X275184Y151028D02*
X271058D01*
Y146902D01*
X271950Y147079D01*
X273783Y148304D01*
X275007Y150136D01*
X275184Y151028D01*
D02*
G37*
G36*
X268518D02*
X264393D01*
X264570Y150136D01*
X265794Y148304D01*
X267627Y147079D01*
X268518Y146902D01*
Y151028D01*
D02*
G37*
G36*
X181300Y151039D02*
Y143510D01*
X188829D01*
X188691Y144561D01*
X187795Y146723D01*
X186370Y148580D01*
X184513Y150005D01*
X182351Y150901D01*
X181300Y151039D01*
D02*
G37*
G36*
X178760D02*
X177709Y150901D01*
X175547Y150005D01*
X173690Y148580D01*
X172265Y146723D01*
X171369Y144561D01*
X171231Y143510D01*
X178760D01*
Y151039D01*
D02*
G37*
G36*
X224790Y145960D02*
Y138430D01*
X232320D01*
X232181Y139481D01*
X231285Y141643D01*
X229860Y143500D01*
X228003Y144925D01*
X225841Y145821D01*
X224790Y145960D01*
D02*
G37*
G36*
X222250D02*
X221199Y145821D01*
X219037Y144925D01*
X217180Y143500D01*
X215755Y141643D01*
X214859Y139481D01*
X214720Y138430D01*
X222250D01*
Y145960D01*
D02*
G37*
G36*
X188829Y140970D02*
X181300D01*
Y133441D01*
X182351Y133579D01*
X184513Y134475D01*
X186370Y135900D01*
X187795Y137757D01*
X188691Y139919D01*
X188829Y140970D01*
D02*
G37*
G36*
X178760D02*
X171231D01*
X171369Y139919D01*
X172265Y137757D01*
X173690Y135900D01*
X175547Y134475D01*
X177709Y133579D01*
X178760Y133441D01*
Y140970D01*
D02*
G37*
G36*
X320356Y133350D02*
X316230D01*
Y129224D01*
X317122Y129401D01*
X318954Y130626D01*
X320179Y132458D01*
X320356Y133350D01*
D02*
G37*
G36*
X313690D02*
X309564D01*
X309741Y132458D01*
X310966Y130626D01*
X312798Y129401D01*
X313690Y129224D01*
Y133350D01*
D02*
G37*
G36*
X232320Y135890D02*
X224790D01*
Y128361D01*
X225841Y128499D01*
X228003Y129395D01*
X229860Y130820D01*
X231285Y132677D01*
X232181Y134839D01*
X232320Y135890D01*
D02*
G37*
G36*
X222250D02*
X214720D01*
X214859Y134839D01*
X215755Y132677D01*
X217180Y130820D01*
X219037Y129395D01*
X221199Y128499D01*
X222250Y128361D01*
Y135890D01*
D02*
G37*
G36*
X412592Y129856D02*
X408466D01*
X408643Y128964D01*
X409868Y127132D01*
X411700Y125907D01*
X412592Y125730D01*
Y129856D01*
D02*
G37*
G36*
X256540Y125602D02*
Y120650D01*
X261492D01*
X261252Y121858D01*
X259848Y123958D01*
X257748Y125362D01*
X256540Y125602D01*
D02*
G37*
G36*
X410210Y82866D02*
Y78740D01*
X414336D01*
X414159Y79632D01*
X412934Y81464D01*
X411102Y82689D01*
X410210Y82866D01*
D02*
G37*
G36*
X407670D02*
X406778Y82689D01*
X404946Y81464D01*
X403721Y79632D01*
X403544Y78740D01*
X407670D01*
Y82866D01*
D02*
G37*
%LPD*%
D12*
X238760Y175260D02*
X245110Y181610D01*
X378660Y71120D02*
X398782D01*
X372948Y76832D02*
X378660Y71120D01*
X372948Y76832D02*
Y88062D01*
X398782Y71120D02*
X401012Y68890D01*
X404820D01*
X405130Y68580D01*
X681990Y49530D02*
X683260D01*
X700784Y32006D01*
X705109D01*
X705160Y31955D01*
D15*
X551665Y179060D02*
X552945Y180340D01*
X245110Y181610D02*
Y184150D01*
X125730Y52070D02*
X132715Y45085D01*
X172720Y251460D02*
X180340D01*
X543797Y71120D02*
X562610D01*
X567824Y65906D02*
X568036D01*
X573700Y60620D02*
X574040Y60960D01*
X530972Y55674D02*
X721394D01*
X361311Y104779D02*
Y106041D01*
Y104779D02*
X364998Y101092D01*
X361311Y106041D02*
X361950Y106680D01*
X523725Y60620D02*
X573700D01*
X389890Y97790D02*
X390525D01*
X386863D02*
X389890D01*
X501650Y181564D02*
Y182880D01*
Y181564D02*
X503774Y179440D01*
X503394Y179060D02*
X503774Y179440D01*
X503394Y179060D02*
X551665D01*
X399521Y106786D02*
X400156D01*
X390525Y97790D02*
X399521Y106786D01*
X364998Y101092D02*
X378968D01*
X386767Y97694D02*
X386863Y97790D01*
X387350Y90170D02*
Y92710D01*
X378968Y101092D02*
X387350Y92710D01*
X381554Y105905D02*
X385261D01*
X386671Y97790D02*
X386767Y97694D01*
X379789Y104140D02*
X381554Y105905D01*
X372110Y111760D02*
X378151Y105719D01*
X308901Y114300D02*
X330200D01*
X375714Y62024D02*
X375920Y62230D01*
X358409Y67310D02*
X360680D01*
X352854Y66391D02*
X357220Y62024D01*
X352854Y66391D02*
Y68554D01*
X339922Y81486D02*
X352854Y68554D01*
X357220Y62024D02*
X375714D01*
X341185Y84534D02*
X358409Y67310D01*
X333004Y84534D02*
X341185D01*
X334267Y81486D02*
X339922D01*
X121716Y150926D02*
X126997D01*
X127002Y150921D01*
X101600Y130810D02*
X121716Y150926D01*
X120488Y161290D02*
X120650D01*
X98447Y139249D02*
X120488Y161290D01*
X98285Y139249D02*
X98447D01*
X403860Y19941D02*
X404445Y20526D01*
X245060Y81534D02*
X248060Y78534D01*
X490938Y66966D02*
X504770Y53134D01*
X490938Y66966D02*
Y70402D01*
X476250Y85090D02*
X490938Y70402D01*
X258187Y113030D02*
X307631D01*
X308901Y114300D01*
X468630Y156355D02*
Y165100D01*
X474345Y158115D02*
X482321D01*
X472155Y152829D02*
X483297D01*
X477053Y149781D02*
X483870Y142964D01*
X459819Y149781D02*
X477053D01*
X468630Y156355D02*
X472155Y152829D01*
X458990Y150610D02*
X459819Y149781D01*
X483297Y152829D02*
X487329Y148796D01*
X482321Y158115D02*
X488592Y151844D01*
X528432Y53134D02*
X530972Y55674D01*
X504770Y53134D02*
X528432D01*
X521525Y58420D02*
X523725Y60620D01*
X510540Y58420D02*
X521525D01*
X515620Y64770D02*
X558945D01*
X560215Y66040D01*
X488950Y25400D02*
X687070D01*
X687173Y25503D01*
X482600Y19050D02*
X488950Y25400D01*
X404445Y20526D02*
X463264D01*
X479980Y3810D01*
X212090Y251460D02*
X224996Y238554D01*
X269446D01*
X275590Y232410D01*
X234950Y243840D02*
Y266700D01*
X238338Y225845D02*
X262675D01*
X238123Y226060D02*
X238338Y225845D01*
X262890Y226060D02*
X263320Y225630D01*
X506590Y251600D02*
X509270D01*
X502064Y256126D02*
X506590Y251600D01*
X512344Y234416D02*
X513080Y233680D01*
X510284Y234416D02*
X512344D01*
X509428Y235273D02*
X510284Y234416D01*
X513080Y226060D02*
Y233680D01*
X502577Y215557D02*
X513080Y226060D01*
X502577Y198024D02*
Y215557D01*
X552945Y180340D02*
X588010D01*
X449580Y212090D02*
X461010Y200660D01*
X448260Y194260D02*
X452950D01*
X443230Y189230D02*
X448260Y194260D01*
X443230Y160611D02*
Y189230D01*
X442816Y160197D02*
X443230Y160611D01*
X442816Y158336D02*
Y160197D01*
X441960Y157480D02*
X442816Y158336D01*
X299720Y193040D02*
Y206117D01*
X488950Y266700D02*
X499524Y256126D01*
X502064D01*
X487329Y148796D02*
X527236D01*
X488592Y151844D02*
X524512D01*
X491538Y154892D02*
X523192D01*
X473710Y172720D02*
X491538Y154892D01*
X523192D02*
X542496Y174196D01*
X527236Y148796D02*
X539900Y161460D01*
X524512Y151844D02*
X541077Y168409D01*
X471170Y172720D02*
X473710D01*
X541077Y168409D02*
X559701D01*
X559911Y168619D01*
X559324Y174196D02*
X567484D01*
X559033Y173905D02*
X559324Y174196D01*
X552510Y173905D02*
X559033D01*
X552218Y174196D02*
X552510Y173905D01*
X542496Y174196D02*
X552218D01*
X248060Y78534D02*
X296829D01*
X330004Y81534D02*
X333004Y84534D01*
X299830Y81534D02*
X330004D01*
X296829Y78534D02*
X299830Y81534D01*
X244222Y80696D02*
X245060Y81534D01*
X258060Y63500D02*
X326390D01*
X331267Y78486D02*
X334267Y81486D01*
X257810Y63250D02*
X258060Y63500D01*
X326390D02*
X331264Y68374D01*
Y77119D01*
X331267Y77122D01*
Y78486D01*
X137160Y27940D02*
X152400D01*
X567860Y161460D02*
X576634Y170234D01*
X539900Y161460D02*
X567860D01*
X243644Y98487D02*
X258187Y113030D01*
X262675Y225845D02*
X262890Y226060D01*
X196380Y251600D02*
X196520Y251460D01*
X212090D01*
X322580Y276860D02*
X323850Y278130D01*
X322580Y208280D02*
Y276860D01*
X721360Y3810D02*
X744766Y27216D01*
X479980Y3810D02*
X721360D01*
X576634Y170234D02*
X582188D01*
X135890Y29210D02*
X137160Y27940D01*
X500380Y190500D02*
X508000D01*
X514350Y196850D01*
X421640Y232410D02*
X426720D01*
X419100Y229870D02*
X421640Y232410D01*
X403716Y229870D02*
X419100D01*
X402239Y228394D02*
X403716Y229870D01*
X395032Y228394D02*
X402239D01*
X392080Y231346D02*
X395032Y228394D01*
X379936Y231346D02*
X392080D01*
X372110Y223520D02*
X379936Y231346D01*
X389890Y226060D02*
X391865D01*
X381000Y218440D02*
X388375Y225815D01*
X392110D01*
X391865Y226060D02*
X392110Y225815D01*
X400050Y233680D02*
Y250869D01*
X399636Y251283D02*
X400050Y250869D01*
X399636Y251283D02*
Y253144D01*
X398780Y254000D02*
X399636Y253144D01*
X151721Y215900D02*
X190500D01*
X150451Y217170D02*
X151721Y215900D01*
X150037Y216756D02*
X150451Y217170D01*
X148176Y216756D02*
X150037D01*
X147320Y215900D02*
X148176Y216756D01*
X193040Y238760D02*
X209550D01*
X180340Y251460D02*
X193040Y238760D01*
X285750Y243840D02*
Y266700D01*
X378151Y105719D02*
X378210D01*
X379789Y104140D01*
X276430Y139125D02*
X288435Y151130D01*
X276430Y128580D02*
Y139125D01*
Y128580D02*
X277059Y127951D01*
X560420Y65834D02*
X564799D01*
X567690Y66040D02*
X567824Y65906D01*
X565005Y66040D02*
X567690D01*
X564799Y65834D02*
X565005Y66040D01*
X560215D02*
X560420Y65834D01*
X721394Y55674D02*
X721980Y56260D01*
X567484Y174196D02*
X570230Y171450D01*
X288435Y151130D02*
X302260D01*
X289560Y144780D02*
X313690D01*
X283210Y138430D02*
X289560Y144780D01*
X48260Y170180D02*
X64770D01*
X234950Y184150D02*
Y185420D01*
X240030Y190500D01*
Y198120D01*
X274320Y163830D02*
X290830D01*
X646430Y120650D02*
X646434Y120646D01*
X647696D01*
X652780Y125730D01*
X675640D01*
X744766Y27216D02*
Y35899D01*
X738881Y41784D02*
X744766Y35899D01*
X738881Y41784D02*
Y42253D01*
X735980Y45155D02*
X738881Y42253D01*
X735980Y45155D02*
Y48260D01*
X102870Y210820D02*
Y213360D01*
X100330Y208280D02*
X102870Y210820D01*
X74930Y208280D02*
X100330D01*
X50800Y248920D02*
Y260350D01*
X49530Y247650D02*
X50800Y248920D01*
X29173Y281977D02*
X50800Y260350D01*
X29173Y281977D02*
Y293027D01*
X28830Y293370D02*
X29173Y293027D01*
X405130Y212090D02*
X449580D01*
X614680Y60960D02*
X673100D01*
D133*
X443230Y121920D02*
X453390Y111760D01*
X459740D01*
X454877Y90847D02*
X465280Y101250D01*
Y129211D01*
X461010Y133481D02*
X465280Y129211D01*
X461010Y133481D02*
Y133495D01*
X355600Y247650D02*
Y259412D01*
X361950Y265762D01*
Y266700D01*
X396240Y120650D02*
X426043Y90847D01*
X454877D01*
D135*
X242729Y58118D02*
X244661Y56186D01*
X193342Y58118D02*
X242729D01*
X180340Y71120D02*
X193342Y58118D01*
X337599Y57404D02*
X348996D01*
X302549D02*
X337599D01*
X412695Y38100D02*
X416634Y42039D01*
X368300Y38100D02*
X412695D01*
X348996Y57404D02*
X368300Y38100D01*
X301331Y56186D02*
X302549Y57404D01*
X244661Y56186D02*
X301331D01*
D136*
X337599Y57404D02*
Y74930D01*
X492975Y186582D02*
Y217385D01*
X481632Y111458D02*
X511409Y81681D01*
X515219D01*
X515620Y81280D01*
X249126Y113236D02*
X255270Y119380D01*
X249126Y110841D02*
Y113236D01*
X243332Y105046D02*
X249126Y110841D01*
X240936Y105046D02*
X243332D01*
X233680Y97790D02*
X240936Y105046D01*
X492975Y217385D02*
X502920Y227330D01*
X504190D01*
X505460Y228600D01*
X481632Y131112D02*
X494030Y143510D01*
X481632Y111458D02*
Y131112D01*
X494030Y143510D02*
X513080D01*
D144*
X24130Y247650D02*
D03*
X36830Y234950D02*
D03*
X49530Y247650D02*
D03*
X36830Y260350D02*
D03*
X147320Y251460D02*
D03*
X160020Y238760D02*
D03*
X172720Y251460D02*
D03*
X160020Y264160D02*
D03*
D145*
X721980Y56260D02*
D03*
X735980Y64260D02*
D03*
Y48260D02*
D03*
Y32260D02*
D03*
X721980Y40260D02*
D03*
D146*
X420370Y33020D02*
D03*
Y12700D02*
D03*
X471170Y22860D02*
D03*
X336020Y97790D02*
D03*
X356340D02*
D03*
X346180Y148590D02*
D03*
D147*
X276620Y16510D02*
D03*
X246620D02*
D03*
D148*
X171450D02*
D03*
X16510D02*
D03*
D149*
X146050D02*
D03*
X41910D02*
D03*
D150*
X58640Y181610D02*
D03*
Y139610D02*
D03*
X40640Y181610D02*
D03*
Y139610D02*
D03*
D151*
X209550Y266700D02*
D03*
D152*
Y292070D02*
D03*
X234950Y266700D02*
D03*
Y292070D02*
D03*
X260350Y266700D02*
D03*
Y292070D02*
D03*
X285750Y266700D02*
D03*
Y292070D02*
D03*
X311150Y266700D02*
D03*
Y292070D02*
D03*
X336550Y266700D02*
D03*
Y292070D02*
D03*
X361950Y266700D02*
D03*
Y292070D02*
D03*
X387350Y266700D02*
D03*
Y292070D02*
D03*
X412750Y266700D02*
D03*
Y292070D02*
D03*
X438150Y266700D02*
D03*
Y292070D02*
D03*
X463550Y266700D02*
D03*
Y292070D02*
D03*
X488950Y266700D02*
D03*
Y292070D02*
D03*
X514350Y266700D02*
D03*
Y292070D02*
D03*
D153*
X60830Y293370D02*
D03*
X44830D02*
D03*
X28830D02*
D03*
X12830D02*
D03*
D154*
X12700Y185290D02*
D03*
Y169290D02*
D03*
Y153290D02*
D03*
Y137290D02*
D03*
D155*
X598620Y294620D02*
D03*
X586327Y294225D02*
D03*
X576942Y286274D02*
D03*
X568245Y277576D02*
D03*
X559548Y268879D02*
D03*
X550850Y260181D02*
D03*
X542502Y251148D02*
D03*
X541644Y238878D02*
D03*
Y226578D02*
D03*
Y214278D02*
D03*
Y201978D02*
D03*
Y189678D02*
D03*
X556240Y192401D02*
D03*
Y204701D02*
D03*
Y217001D02*
D03*
Y229301D02*
D03*
Y241600D02*
D03*
X563112Y251801D02*
D03*
X571810Y260499D02*
D03*
X580507Y269196D02*
D03*
X589205Y277894D02*
D03*
X601319Y280024D02*
D03*
X620172Y297779D02*
D03*
X553720Y135890D02*
D03*
X541020Y120650D02*
D03*
X553720D02*
D03*
X426758Y130303D02*
D03*
X471170Y172720D02*
D03*
X397510Y146050D02*
D03*
X443230Y121920D02*
D03*
X461010Y133495D02*
D03*
X413862Y131126D02*
D03*
X543797Y71120D02*
D03*
X562610D02*
D03*
X549910Y85090D02*
D03*
X568036Y65906D02*
D03*
X574040Y60960D02*
D03*
X39370Y92710D02*
D03*
X193040Y34290D02*
D03*
X125730Y52070D02*
D03*
X110600Y41910D02*
D03*
X629920Y90170D02*
D03*
X588010Y187960D02*
D03*
X501650Y182880D02*
D03*
X492975Y186582D02*
D03*
X491490Y177810D02*
D03*
X400156Y106786D02*
D03*
X389890Y97790D02*
D03*
X385261Y105905D02*
D03*
X387350Y90170D02*
D03*
X372110Y111760D02*
D03*
X372948Y88062D02*
D03*
X355344Y144349D02*
D03*
X330200Y114300D02*
D03*
X405130Y68580D02*
D03*
X375920Y62230D02*
D03*
X360680Y67310D02*
D03*
X336550Y74930D02*
D03*
X127002Y150921D02*
D03*
X101600Y130810D02*
D03*
X166370Y157480D02*
D03*
X509270Y251600D02*
D03*
X95250Y149860D02*
D03*
X98285Y139249D02*
D03*
X436880Y189230D02*
D03*
X468630Y165100D02*
D03*
X474345Y158115D02*
D03*
X458990Y150610D02*
D03*
X570590Y211060D02*
D03*
X660590Y181060D02*
D03*
X615590Y241060D02*
D03*
X540590Y271060D02*
D03*
X735590Y211060D02*
D03*
X645590Y271060D02*
D03*
X690590Y181060D02*
D03*
X683090Y256060D02*
D03*
X660590Y211060D02*
D03*
Y271060D02*
D03*
X728090Y226060D02*
D03*
X593090Y256060D02*
D03*
X645590Y241060D02*
D03*
X705590Y151060D02*
D03*
X713090Y166060D02*
D03*
X705590Y181060D02*
D03*
X600590Y241060D02*
D03*
X653090Y196060D02*
D03*
X615590Y211060D02*
D03*
X675590D02*
D03*
X735590Y151060D02*
D03*
X690590Y211060D02*
D03*
X698090Y196060D02*
D03*
X735590Y181060D02*
D03*
X683090Y166060D02*
D03*
X743090Y226060D02*
D03*
X735590Y241060D02*
D03*
X698090Y226060D02*
D03*
X638090Y256060D02*
D03*
X593090Y226060D02*
D03*
X645590Y211060D02*
D03*
X570590Y241060D02*
D03*
X743090Y166060D02*
D03*
X623090Y226060D02*
D03*
X675590Y181060D02*
D03*
X563090Y286060D02*
D03*
X698090Y166060D02*
D03*
X720590Y151060D02*
D03*
X533090Y196060D02*
D03*
X585590Y241060D02*
D03*
X743090Y196060D02*
D03*
X525590Y211060D02*
D03*
X668090Y226060D02*
D03*
X705590Y241060D02*
D03*
X578090Y226060D02*
D03*
X713090D02*
D03*
X728090Y166060D02*
D03*
X690590Y151060D02*
D03*
X660590Y241060D02*
D03*
X653090Y226060D02*
D03*
X668090Y256060D02*
D03*
X683090Y226060D02*
D03*
X713090Y196060D02*
D03*
X533090Y226060D02*
D03*
Y286060D02*
D03*
X623090Y256060D02*
D03*
X705590Y271060D02*
D03*
X668090Y196060D02*
D03*
X600590Y271060D02*
D03*
X630590Y211060D02*
D03*
X638090Y226060D02*
D03*
X705590Y211060D02*
D03*
X608090Y256060D02*
D03*
X690590Y241060D02*
D03*
X720590Y211060D02*
D03*
Y241060D02*
D03*
X608090Y226060D02*
D03*
X713090Y256060D02*
D03*
X675590Y241060D02*
D03*
X683090Y196060D02*
D03*
X578090Y256060D02*
D03*
X533090D02*
D03*
X525590Y241060D02*
D03*
X653090Y256060D02*
D03*
X720590Y181060D02*
D03*
X548090Y286060D02*
D03*
X630590Y241060D02*
D03*
X698090Y256060D02*
D03*
X728090Y196060D02*
D03*
X515620Y81280D02*
D03*
X510540Y58420D02*
D03*
X515620Y64770D02*
D03*
X476250Y85090D02*
D03*
X482416Y100514D02*
D03*
X242984Y113886D02*
D03*
X233680Y97790D02*
D03*
X492760Y237490D02*
D03*
X687173Y25503D02*
D03*
X681990Y49530D02*
D03*
X622300Y81280D02*
D03*
X629920Y66675D02*
D03*
X705160Y31955D02*
D03*
X406400Y11430D02*
D03*
X372111Y15240D02*
D03*
X346710Y48260D02*
D03*
X238760Y175260D02*
D03*
X459740Y111760D02*
D03*
X355600Y247650D02*
D03*
X234950Y243840D02*
D03*
X238123Y226060D02*
D03*
X263320Y225630D02*
D03*
X275590Y232410D02*
D03*
X509428Y235273D02*
D03*
X502577Y198024D02*
D03*
X461010Y200660D02*
D03*
X452950Y194260D02*
D03*
X441960Y157480D02*
D03*
X466090Y240030D02*
D03*
X300990Y207010D02*
D03*
X299720Y193040D02*
D03*
X487680Y115570D02*
D03*
X505460Y228600D02*
D03*
X483870Y142964D02*
D03*
X513080Y143510D02*
D03*
X408940Y251460D02*
D03*
X129540Y300990D02*
D03*
X168910Y34290D02*
D03*
X381000Y148590D02*
D03*
X679450Y116840D02*
D03*
X680720Y78740D02*
D03*
X559911Y168619D02*
D03*
X588010Y180340D02*
D03*
X439420Y96387D02*
D03*
X410210Y27940D02*
D03*
X311150Y71120D02*
D03*
X439420Y201750D02*
D03*
X391160Y180340D02*
D03*
X307340D02*
D03*
X261620Y31750D02*
D03*
X152400Y27940D02*
D03*
X130810Y62230D02*
D03*
X631190Y116840D02*
D03*
X642620Y129540D02*
D03*
X78980Y41910D02*
D03*
X66040Y40640D02*
D03*
X63500Y77470D02*
D03*
X11430Y95250D02*
D03*
X257810Y63250D02*
D03*
X224790Y73660D02*
D03*
X123190Y172720D02*
D03*
X166370Y105410D02*
D03*
X144780Y130810D02*
D03*
X92710Y217170D02*
D03*
X568960Y135890D02*
D03*
X584200Y120650D02*
D03*
Y106680D02*
D03*
Y135890D02*
D03*
X553720Y149860D02*
D03*
X568960D02*
D03*
X584200D02*
D03*
X541020Y135890D02*
D03*
Y149860D02*
D03*
X568960Y106680D02*
D03*
X541020D02*
D03*
X553720D02*
D03*
X568960Y120650D02*
D03*
X294640Y93980D02*
D03*
X283556Y94500D02*
D03*
X283210Y83820D02*
D03*
X271780D02*
D03*
Y95250D02*
D03*
X294640Y83820D02*
D03*
Y105410D02*
D03*
X283210D02*
D03*
X271201Y105160D02*
D03*
X233680Y213360D02*
D03*
X246380Y170180D02*
D03*
X358140Y175260D02*
D03*
X323850Y278130D02*
D03*
X322580Y208280D02*
D03*
X243644Y98487D02*
D03*
X244222Y80696D02*
D03*
X476250Y224790D02*
D03*
X612450Y159460D02*
D03*
X606100Y84530D02*
D03*
X487680Y39370D02*
D03*
X482600Y19050D02*
D03*
X582188Y170234D02*
D03*
X408940Y77470D02*
D03*
X269788Y152298D02*
D03*
X314960Y134620D02*
D03*
X135890Y29210D02*
D03*
X500380Y190500D02*
D03*
X514350Y196850D02*
D03*
X426720Y232410D02*
D03*
X372110Y223520D02*
D03*
X389890Y226060D02*
D03*
X381000Y218440D02*
D03*
X400050Y233680D02*
D03*
X196380Y251600D02*
D03*
X398780Y254000D02*
D03*
X405130Y212090D02*
D03*
X190500Y215900D02*
D03*
X147320D02*
D03*
X209550Y238760D02*
D03*
X285750Y243840D02*
D03*
X120650Y161290D02*
D03*
X277059Y127951D02*
D03*
X283210Y138430D02*
D03*
X396240Y120650D02*
D03*
X274320Y163830D02*
D03*
X570230Y171450D02*
D03*
X313690Y144780D02*
D03*
X302260Y151130D02*
D03*
X361950Y106680D02*
D03*
X403860Y20320D02*
D03*
X48260Y170180D02*
D03*
X64770D02*
D03*
X234950Y184150D02*
D03*
X240030Y198120D02*
D03*
X290830Y163830D02*
D03*
X646430Y120650D02*
D03*
X675640Y125730D02*
D03*
X102870Y213360D02*
D03*
X74930Y208280D02*
D03*
X673100Y60960D02*
D03*
X614680D02*
D03*
D156*
X346710Y87630D02*
D03*
X255270Y119380D02*
D03*
D157*
X590065Y208331D02*
D03*
X223520Y137160D02*
D03*
X335280Y44450D02*
D03*
X387350Y54610D02*
D03*
X144780Y91440D02*
D03*
X173990Y191770D02*
D03*
X180030Y142240D02*
D03*
X102870Y15240D02*
D03*
D158*
X418605Y46069D02*
D03*
X180340Y71120D02*
D03*
D159*
X132715Y45085D02*
X142240Y54610D01*
X102870Y15240D02*
X132715Y45085D01*
X238415Y47704D02*
X240347Y45772D01*
X171202Y47704D02*
X238415D01*
X171123Y47625D02*
X171202Y47704D01*
X144780Y47625D02*
X171123D01*
X476250Y198120D02*
Y224790D01*
X599389Y208331D02*
X615315Y192405D01*
X590065Y208331D02*
X599389D01*
X333958Y45772D02*
X335280Y44450D01*
X240347Y45772D02*
X333958D01*
X144780Y52070D02*
Y91440D01*
X142240Y54610D02*
X144780Y52070D01*
X615315Y166370D02*
Y192405D01*
M02*
