%FSTAX23Y23*%
%MOIN*%
%SFA1B1*%

%IPPOS*%
%AMD55*
4,1,4,-0.038900,0.000000,0.000000,-0.038900,0.038900,0.000000,0.000000,0.038900,-0.038900,0.000000,0.0*
%
%ADD20R,0.021650X0.021650*%
%ADD25R,0.021650X0.021650*%
%ADD50R,0.025590X0.013780*%
%ADD51R,0.043310X0.066930*%
%ADD52R,0.027560X0.029530*%
%ADD53R,0.005910X0.019680*%
%ADD54R,0.009840X0.070870*%
G04~CAMADD=55~10~0.0~551.2~0.0~0.0~0.0~0.0~0~0.0~0.0~0.0~0.0~0~0.0~0.0~0.0~0.0~0~0.0~0.0~0.0~135.0~551.2~0.0*
%ADD55D55*%
%ADD56R,0.029530X0.047240*%
%ADD57R,0.025590X0.023620*%
%LNlogger_layout_v2_5mil-1*%
%LPD*%
G54D20*
X00332Y0038D03*
X00378D03*
Y0032D03*
X00332D03*
X00417D03*
X00463D03*
X00088Y00195D03*
X00042D03*
G54D25*
X00222Y00325D03*
Y00371D03*
X00575Y00278D03*
Y00232D03*
X00185Y00422D03*
Y00468D03*
X0012Y0027D03*
Y00224D03*
X00038Y00271D03*
Y00225D03*
X00123Y00132D03*
Y00086D03*
X00086Y00122D03*
Y00168D03*
G54D50*
X00047Y00304D03*
Y0033D03*
Y00355D03*
X0013D03*
Y0033D03*
Y00304D03*
G54D51*
X00088Y0033D03*
G54D52*
X00129Y00481D03*
Y00428D03*
X0009D03*
Y00481D03*
G54D53*
X001Y00232D03*
X00086D03*
X00072D03*
X00058D03*
Y0026D03*
X00072D03*
X00086D03*
X001D03*
G54D54*
X00221Y00243D03*
Y00086D03*
X00241Y00243D03*
Y00086D03*
X0026Y00243D03*
Y00086D03*
X0028Y00243D03*
Y00086D03*
X003Y00243D03*
Y00086D03*
X00319Y00243D03*
Y00086D03*
X00339Y00243D03*
Y00086D03*
X00359Y00243D03*
Y00086D03*
X00378Y00243D03*
Y00086D03*
X00398Y00243D03*
Y00086D03*
G54D55*
X00295Y00486D03*
X00234Y00547D03*
G54D56*
X00525Y00296D03*
Y00163D03*
G54D57*
X00262Y00322D03*
X00297D03*
Y00377D03*
X00262D03*
M02*