%FSTAX23Y23*%
%MOIN*%
%SFA1B1*%

%IPPOS*%
%AMD31*
4,1,4,-0.027400,-0.031800,0.036600,-0.020600,0.027400,0.031800,-0.036600,0.020600,-0.027400,-0.031800,0.0*
%
%AMD33*
4,1,4,0.002100,0.024400,-0.024400,-0.002100,-0.002100,-0.024400,0.024400,0.002100,0.002100,0.024400,0.0*
%
%AMD36*
4,1,4,-0.040400,0.000000,0.000000,-0.040400,0.040400,0.000000,0.000000,0.040400,-0.040400,0.000000,0.0*
%
%AMD40*
4,1,4,0.000000,-0.020900,0.020900,0.000000,0.000000,0.020900,-0.020900,0.000000,0.000000,-0.020900,0.0*
%
%AMD41*
4,1,4,-0.020900,0.000000,0.000000,-0.020900,0.020900,0.000000,0.000000,0.020900,-0.020900,0.000000,0.0*
%
%ADD28R,0.232410X0.232410*%
%ADD29R,0.019810X0.041470*%
%ADD30R,0.041470X0.019810*%
G04~CAMADD=31~9~0.0~0.0~650.9~532.8~0.0~0.0~0~0.0~0.0~0.0~0.0~0~0.0~0.0~0.0~0.0~0~0.0~0.0~0.0~190.0~732.0~635.0*
%ADD31D31*%
%ADD32R,0.047370X0.043430*%
G04~CAMADD=33~9~0.0~0.0~375.3~316.2~0.0~0.0~0~0.0~0.0~0.0~0.0~0~0.0~0.0~0.0~0.0~0~0.0~0.0~0.0~45.0~488.0~487.0*
%ADD33D33*%
%ADD34R,0.029650X0.029650*%
%ADD35R,0.078870X0.047370*%
G04~CAMADD=36~10~0.0~572.1~0.0~0.0~0.0~0.0~0~0.0~0.0~0.0~0.0~0~0.0~0.0~0.0~0.0~0~0.0~0.0~0.0~135.0~572.1~0.0*
%ADD36D36*%
%ADD37R,0.023750X0.031620*%
%ADD38R,0.031620X0.023750*%
%ADD39R,0.029650X0.029650*%
G04~CAMADD=40~10~0.0~296.6~0.0~0.0~0.0~0.0~0~0.0~0.0~0.0~0.0~0~0.0~0.0~0.0~0.0~0~0.0~0.0~0.0~225.0~296.6~0.0*
%ADD40D40*%
G04~CAMADD=41~10~0.0~296.6~0.0~0.0~0.0~0.0~0~0.0~0.0~0.0~0.0~0~0.0~0.0~0.0~0.0~0~0.0~0.0~0.0~135.0~296.6~0.0*
%ADD41D41*%
%ADD42C,0.070990*%
%LNlogger_layout_v2_5mil-1*%
%LPD*%
G54D28*
X0025Y00284D03*
G54D29*
X00358Y00148D03*
X00338D03*
X00318D03*
X00299D03*
X00279D03*
X00259D03*
X0024D03*
X0022D03*
X002D03*
X00181D03*
X00161D03*
X00141D03*
Y0042D03*
X00161D03*
X00181D03*
X002D03*
X0022D03*
X0024D03*
X00259D03*
X00279D03*
X00299D03*
X00318D03*
X00338D03*
X00358D03*
G54D30*
X00114Y00175D03*
Y00195D03*
Y00215D03*
Y00234D03*
Y00254D03*
Y00274D03*
Y00294D03*
Y00313D03*
Y00333D03*
Y00353D03*
Y00372D03*
Y00392D03*
X00385D03*
Y00372D03*
Y00353D03*
Y00333D03*
Y00313D03*
Y00294D03*
Y00274D03*
Y00254D03*
Y00234D03*
Y00215D03*
Y00195D03*
Y00175D03*
G54D31*
X00057Y0021D03*
X00045Y00279D03*
G54D32*
X00535Y00263D03*
Y00326D03*
G54D33*
X00194Y00479D03*
X00225Y0051D03*
G54D34*
X00242Y00079D03*
Y0005D03*
X00347D03*
Y00079D03*
X00382Y00055D03*
X00428D03*
X00147Y00075D03*
X00193D03*
X00507Y0022D03*
X00553D03*
X00488Y00325D03*
X00442D03*
X00298Y0047D03*
X00252D03*
X00553Y00185D03*
X00507D03*
X00488Y00285D03*
X00442D03*
X00488Y0025D03*
X00442D03*
X00132Y00515D03*
X00178D03*
X00223Y0055D03*
X00177D03*
G54D35*
X00454Y00203D03*
Y00104D03*
G54D36*
X00497Y0056D03*
X00434Y00497D03*
X0056D03*
X00497Y00434D03*
G54D37*
X00274Y00566D03*
X003D03*
X00325D03*
X00274Y00513D03*
X003D03*
X00325D03*
G54D38*
X00339Y0054D03*
X0026D03*
G54D39*
X001Y00437D03*
Y00483D03*
X00385Y00087D03*
Y00133D03*
X0058Y00282D03*
Y00328D03*
X00035Y00388D03*
Y00342D03*
G54D40*
X00093Y00131D03*
X00126Y00098D03*
G54D41*
X00541Y00156D03*
X00508Y00123D03*
G54D42*
X0029Y0D03*
X0004Y00145D03*
M02*