M48
;Layer_Color=9474304
;FILE_FORMAT=2:5
INCH,TZ
;TYPE=PLATED
T1F00S00C0.00591
T2F00S00C0.00787
T3F00S00C0.01181
T4F00S00C0.01378
T5F00S00C0.02756
T6F00S00C0.03150
T7F00S00C0.03543
;TYPE=NON_PLATED
T8F00S00C0.03902
%
T01
X22000Y3500
T02
X15500Y4000
X19295Y3386
X26000Y6000
X28000Y5500
X32000Y5000
X36000Y6500
X34000Y9000
X37365Y11046
X45573Y13114
X51500Y13000
X51000Y16000
X55000Y18500
X57288Y18212
X60000Y18000
X58500Y20500
X62853Y20230
X64000Y23500
X59000Y26000
Y29000
X53500Y20000
X47000Y23500
X36562Y21522
X32987Y20409
X32000Y30500
X41000
X22000
X20009Y25094
X25000Y24500
X21500Y17000
Y13500
X24500Y12000
X17139Y11139
X16500Y27500
X14500Y30500
X10000Y25000
X3500Y27500
X58000Y13000
X63000Y15380
X66500Y16000
X74970Y18331
X76500Y20344
X76948Y22412
X74000Y24000
X76174Y26326
X74500Y30197
X81500Y27000
X84303Y28003
X86264Y27774
X89113Y29029
X92356Y27894
X94325Y29313
X100000Y30000
X98000Y26000
X105500
X109270Y25820
X111453Y28693
X113390Y29077
X113257Y26996
X120020Y25809
X119000Y29544
X125422Y30050
X131401Y30387
X129254Y14525
X126500Y16000
X124514Y15486
X125500Y13500
X122105Y18632
X104000Y20155
X102500Y18500
X100647Y17305
X100500Y13500
X104500Y11500
Y8500
X103000Y6000
X103500Y2500
X98000Y6500
X94500Y4500
X90379Y4621
X86578Y4509
X88000Y11655
X85000
Y16156
X88000Y16500
X91000
X94000
X93875Y21164
X91000Y21156
X88000
X85000
X91000Y11655
X93875Y11664
X101000Y21430
X106500Y29000
X131457Y6030
X77500Y7500
X70000Y6000
X68000
X56919Y3387
X138000Y6830
X136367Y9705
X137984Y15500
X139422Y14078
X139000Y17500
X134709Y16500
X135000Y25500
X139995Y24014
X140000Y31000
X146500
X145230Y26583
X151392Y23593
X156318Y19631
X152984Y13923
X152500Y11500
X149000Y8000
X157000Y6500
X156000Y3000
X162000Y14500
X163000Y17000
Y22500
X167425Y27110
X174500Y27000
Y16000
X168500
X156000Y31500
T03
X10500Y11500
X20000Y10500
T04
X132809Y12365
T05
X107205Y16250
X117205
X112205Y21250
Y11250
T06
X128595Y3803
X134500Y4000
X140405
X146311
X152216
T07
X51095Y6500
X62906
X161500
X171500
T08
X123500Y25291
X143500Y21291
Y29291
M30
