G04*
G04 #@! TF.GenerationSoftware,Altium Limited,Altium Designer,19.1.5 (86)*
G04*
G04 Layer_Color=16711935*
%FSAX24Y24*%
%MOIN*%
G70*
G01*
G75*
%ADD17C,0.0631*%
%ADD18R,0.0700X0.0700*%
%ADD19C,0.0700*%
%ADD20C,0.0671*%
%ADD21R,0.0671X0.0671*%
%ADD22C,0.0080*%
%ADD23O,0.0592X0.0592*%
G04:AMPARAMS|DCode=45|XSize=67.1mil|YSize=35.6mil|CornerRadius=0mil|HoleSize=0mil|Usage=FLASHONLY|Rotation=86.250|XOffset=0mil|YOffset=0mil|HoleType=Round|Shape=Rectangle|*
%AMROTATEDRECTD45*
4,1,4,0.0155,-0.0346,-0.0199,-0.0323,-0.0155,0.0346,0.0199,0.0323,0.0155,-0.0346,0.0*
%
%ADD45ROTATEDRECTD45*%

G04:AMPARAMS|DCode=46|XSize=47.4mil|YSize=39.5mil|CornerRadius=0mil|HoleSize=0mil|Usage=FLASHONLY|Rotation=176.250|XOffset=0mil|YOffset=0mil|HoleType=Round|Shape=Rectangle|*
%AMROTATEDRECTD46*
4,1,4,0.0249,0.0182,0.0223,-0.0213,-0.0249,-0.0182,-0.0223,0.0213,0.0249,0.0182,0.0*
%
%ADD46ROTATEDRECTD46*%

%ADD47R,0.0395X0.0434*%
%ADD48R,0.0297X0.0297*%
%ADD49R,0.0631X0.0316*%
%ADD50R,0.0297X0.0297*%
%ADD51R,0.0395X0.0395*%
G04:AMPARAMS|DCode=52|XSize=39.5mil|YSize=18.2mil|CornerRadius=0mil|HoleSize=0mil|Usage=FLASHONLY|Rotation=7.550|XOffset=0mil|YOffset=0mil|HoleType=Round|Shape=Rectangle|*
%AMROTATEDRECTD52*
4,1,4,-0.0184,-0.0116,-0.0208,0.0064,0.0184,0.0116,0.0208,-0.0064,-0.0184,-0.0116,0.0*
%
%ADD52ROTATEDRECTD52*%

G04:AMPARAMS|DCode=53|XSize=33.6mil|YSize=18.2mil|CornerRadius=0mil|HoleSize=0mil|Usage=FLASHONLY|Rotation=7.550|XOffset=0mil|YOffset=0mil|HoleType=Round|Shape=Rectangle|*
%AMROTATEDRECTD53*
4,1,4,-0.0155,-0.0112,-0.0178,0.0068,0.0155,0.0112,0.0178,-0.0068,-0.0155,-0.0112,0.0*
%
%ADD53ROTATEDRECTD53*%

G04:AMPARAMS|DCode=54|XSize=41.5mil|YSize=23.7mil|CornerRadius=0mil|HoleSize=0mil|Usage=FLASHONLY|Rotation=7.550|XOffset=0mil|YOffset=0mil|HoleType=Round|Shape=Rectangle|*
%AMROTATEDRECTD54*
4,1,4,-0.0190,-0.0145,-0.0221,0.0090,0.0190,0.0145,0.0221,-0.0090,-0.0190,-0.0145,0.0*
%
%ADD54ROTATEDRECTD54*%

D17*
X010979Y003223D02*
D03*
X009800Y003300D02*
D03*
D18*
X007771Y008113D02*
D03*
D19*
X008771D02*
D03*
D20*
X015750Y003900D02*
D03*
D21*
Y002900D02*
D03*
D22*
X013627Y005475D02*
D03*
X015595D02*
D03*
D23*
X014296Y005396D02*
D03*
X013981Y005947D02*
D03*
X014611D02*
D03*
X015241D02*
D03*
X014926Y005396D02*
D03*
D45*
X011318Y003891D02*
D03*
X010140Y003968D02*
D03*
X009550Y004007D02*
D03*
D46*
X011852Y003600D02*
D03*
X011795Y002735D02*
D03*
X008984Y003787D02*
D03*
X008927Y002923D02*
D03*
D47*
X010250Y006956D02*
D03*
X010624Y007744D02*
D03*
X009876D02*
D03*
D48*
X009970Y006250D02*
D03*
X010430D02*
D03*
X012180Y007150D02*
D03*
X011720D02*
D03*
Y007950D02*
D03*
X012180D02*
D03*
X015380Y008500D02*
D03*
X014920D02*
D03*
D49*
X013842Y007924D02*
D03*
Y007550D02*
D03*
Y007176D02*
D03*
X012858D02*
D03*
Y007924D02*
D03*
D50*
X014600Y007270D02*
D03*
Y007730D02*
D03*
D51*
X015300Y007895D02*
D03*
Y007305D02*
D03*
D52*
X003881Y005057D02*
D03*
X003850Y005291D02*
D03*
X003819Y005525D02*
D03*
X003788Y005759D02*
D03*
X003757Y005993D02*
D03*
X003726Y006227D02*
D03*
X003695Y006462D02*
D03*
X003664Y006696D02*
D03*
X003633Y006930D02*
D03*
X003602Y007164D02*
D03*
X003571Y007398D02*
D03*
X003540Y007632D02*
D03*
D53*
X004988Y005322D02*
D03*
X004957Y005557D02*
D03*
X004926Y005791D02*
D03*
X004895Y006025D02*
D03*
X004864Y006259D02*
D03*
X004833Y006493D02*
D03*
X004802Y006727D02*
D03*
X004771Y006962D02*
D03*
X004740Y007196D02*
D03*
X004709Y007430D02*
D03*
X004678Y007664D02*
D03*
D54*
X004045Y004800D02*
D03*
X003631Y007922D02*
D03*
M02*
