G04*
G04 #@! TF.GenerationSoftware,Altium Limited,Altium Designer,20.0.13 (296)*
G04*
G04 Layer_Color=8388736*
%FSAX25Y25*%
%MOIN*%
G70*
G01*
G75*
%ADD22C,0.00394*%
%ADD37C,0.01784*%
%ADD38R,0.03458X0.01784*%
%ADD39R,0.01784X0.03064*%
%ADD40R,0.02965X0.02965*%
%ADD41R,0.02965X0.02965*%
%ADD42P,0.04194X4X90.0*%
%ADD43R,0.02946X0.03359*%
%ADD44R,0.02178X0.03359*%
%ADD45R,0.07493X0.05131*%
%ADD46O,0.04737X0.02769*%
%ADD47R,0.04147X0.02178*%
%ADD48R,0.07493X0.10446*%
%ADD49R,0.07887X0.04737*%
%ADD50C,0.03898*%
%ADD51R,0.03162X0.03753*%
%ADD52R,0.03162X0.03241*%
%ADD53R,0.03162X0.03041*%
%ADD54R,0.04737X0.03950*%
%ADD55R,0.03556X0.06706*%
%ADD56R,0.01981X0.05131*%
%ADD57C,0.05600*%
%ADD58C,0.02749*%
%ADD59C,0.06312*%
%ADD60C,0.05524*%
%ADD61C,0.06706*%
%ADD62R,0.06706X0.06706*%
%ADD63C,0.01378*%
D22*
X0157750Y0130404D02*
D03*
D37*
X0157671Y0130365D02*
G03*
X0157671Y0130365I-0002362J0000000D01*
G01*
D38*
X0181335Y0131724D02*
D03*
Y0133692D02*
D03*
Y0135661D02*
D03*
Y0137629D02*
D03*
Y0139598D02*
D03*
Y0141567D02*
D03*
Y0143535D02*
D03*
Y0145503D02*
D03*
Y0147720D02*
D03*
X0193638Y0147523D02*
D03*
Y0145503D02*
D03*
Y0143535D02*
D03*
Y0141567D02*
D03*
Y0139598D02*
D03*
Y0137629D02*
D03*
Y0135661D02*
D03*
Y0133692D02*
D03*
Y0131724D02*
D03*
Y0129507D02*
D03*
X0181335Y0129755D02*
D03*
D39*
X0184531Y0147720D02*
D03*
X0186500D02*
D03*
X0188469D02*
D03*
X0190437D02*
D03*
Y0129507D02*
D03*
X0188469D02*
D03*
X0186500D02*
D03*
X0184531D02*
D03*
D40*
X0133300Y0121000D02*
D03*
X0128700D02*
D03*
X0090800Y0144000D02*
D03*
X0086200D02*
D03*
X0106800Y0125500D02*
D03*
X0102200D02*
D03*
X0177800Y0127000D02*
D03*
X0173200D02*
D03*
X0155800Y0136000D02*
D03*
X0151200D02*
D03*
X0167300Y0127500D02*
D03*
X0162700D02*
D03*
X0167300Y0131000D02*
D03*
X0162700D02*
D03*
X0141300Y0121000D02*
D03*
X0136700D02*
D03*
X0111700Y0125500D02*
D03*
X0116300D02*
D03*
X0102700Y0138000D02*
D03*
X0107300D02*
D03*
Y0141500D02*
D03*
X0102700D02*
D03*
X0086200Y0140500D02*
D03*
X0090800D02*
D03*
X0086200Y0147000D02*
D03*
X0090800D02*
D03*
D41*
X0197300Y0147300D02*
D03*
Y0142700D02*
D03*
X0123500Y0124300D02*
D03*
Y0119700D02*
D03*
X0029500Y0123700D02*
D03*
Y0128300D02*
D03*
X0034500Y0140300D02*
D03*
Y0135700D02*
D03*
D42*
X0126626Y0146126D02*
D03*
X0123374Y0142874D02*
D03*
D43*
X0149500Y0128500D02*
D03*
X0149494Y0132226D02*
D03*
D44*
X0025941Y0131839D02*
D03*
X0028500D02*
D03*
X0031059D02*
D03*
Y0140500D02*
D03*
X0028500D02*
D03*
X0025941D02*
D03*
D45*
X0028500Y0136169D02*
D03*
D46*
X0120500Y0131000D02*
D03*
X0120650Y0134650D02*
D03*
X0120500Y0138000D02*
D03*
Y0141000D02*
D03*
D47*
X0069500Y0146618D02*
D03*
Y0144059D02*
D03*
Y0141500D02*
D03*
Y0138941D02*
D03*
X0080917D02*
D03*
Y0141500D02*
D03*
Y0144059D02*
D03*
Y0146618D02*
D03*
D48*
X0075209Y0142780D02*
D03*
D49*
X0173000Y0144921D02*
D03*
Y0135079D02*
D03*
D50*
X0161000Y0145791D02*
D03*
Y0140791D02*
D03*
X0156000Y0145791D02*
D03*
Y0140791D02*
D03*
X0151000Y0145791D02*
D03*
Y0140791D02*
D03*
D51*
X0064000Y0145665D02*
D03*
Y0141335D02*
D03*
D52*
X0163189Y0135500D02*
D03*
X0166811D02*
D03*
D53*
X0170189Y0148500D02*
D03*
X0173811D02*
D03*
D54*
X0093870Y0120169D02*
D03*
Y0128831D02*
D03*
X0065130Y0120169D02*
D03*
Y0128831D02*
D03*
D55*
X0088358Y0131390D02*
D03*
X0082453D02*
D03*
X0070642D02*
D03*
D56*
X0056390Y0146827D02*
D03*
Y0125173D02*
D03*
X0054421Y0146827D02*
D03*
Y0125173D02*
D03*
X0052453Y0146827D02*
D03*
Y0125173D02*
D03*
X0050484Y0146827D02*
D03*
Y0125173D02*
D03*
X0048516Y0146827D02*
D03*
Y0125173D02*
D03*
X0046547Y0146827D02*
D03*
Y0125173D02*
D03*
X0044579Y0146827D02*
D03*
Y0125173D02*
D03*
X0042610Y0146827D02*
D03*
Y0125173D02*
D03*
D57*
X0174716Y0122000D02*
D03*
X0168811D02*
D03*
X0151094Y0121803D02*
D03*
X0157000Y0122000D02*
D03*
X0162906D02*
D03*
D58*
X0166000Y0139291D02*
D03*
Y0147291D02*
D03*
X0146000Y0143291D02*
D03*
D59*
X0085405Y0124500D02*
D03*
X0073594D02*
D03*
D60*
X0139705Y0134250D02*
D03*
X0134705Y0139250D02*
D03*
X0129705Y0134250D02*
D03*
X0134705Y0129250D02*
D03*
D61*
X0184000Y0124500D02*
D03*
D62*
X0194000D02*
D03*
D63*
X0155309Y0130365D02*
D03*
M02*
