M48
;Layer_Color=9474304
;FILE_FORMAT=2:5
INCH,TZ
;TYPE=PLATED
T1F00S00C0.00591
T2F00S00C0.00787
T3F00S00C0.01181
T4F00S00C0.01378
T5F00S00C0.02756
T6F00S00C0.03150
T7F00S00C0.03543
;TYPE=NON_PLATED
T8F00S00C0.03902
%
T01
X15500Y4000
X19295Y3386
X22000Y3500
X26000Y6000
X28000Y5500
X32000Y5000
X36000Y6500
X34000Y9000
X37365Y11046
X45573Y13114
X51500Y13000
X51000Y16000
X55000Y18500
X57438Y18865
X59326Y18674
X58500Y20500
X61427Y21000
X64000Y23500
X59000Y26000
Y29000
X53500Y20000
X47000Y23500
X41000Y30500
X32000
X32394Y21000
X35575Y20173
X25000Y24500
X20000Y25500
X16500Y27500
X14500Y30500
X10000Y25000
X3500Y27500
X21500Y17000
Y13500
X24500Y12000
X17000Y11000
X58000Y13000
X63000Y15500
X66500Y16000
X74970Y18331
X76603Y20631
X76948Y22412
X74383Y22990
X76174Y26326
X74500Y30000
X81500Y27000
X84500Y28000
X86491
X89310Y29147
X92250Y28000
X94500Y29500
X99500Y30500
X98000Y26000
X100496Y21496
X100500Y19500
X100650Y17119
X100500Y13500
X104500Y11500
Y8500
X103000Y6000
X103500Y2500
X98000Y6500
X94500Y4500
X90500
X86500Y4587
X85000Y11655
X88000
X91000
X93875Y11664
X94000Y16500
X91000
X88000
X85000Y16156
Y21156
X88000
X91000
X93875Y21164
X104000Y20155
X105500Y26000
X107191Y29309
X111000Y28125
X113000Y28500
X113187Y26925
X109825Y23825
X120697Y26486
X119000Y30472
X125000
X131401Y30354
X126500Y16000
X124514Y15486
X125842Y12842
X130000Y9694
X131500Y6194
X121966Y18493
X77500Y7500
X70000Y6000
X68000
X57000Y3191
X137000Y9000
X138291Y14933
X138500Y16500
X139727Y14232
X134709Y16500
X135000Y25500
X139339Y24335
X140000Y31000
X136000
X146500
X155500
X151392Y23593
X156119Y19631
X163042Y19000
X163517Y17272
X162000Y14500
X168500Y16000
X175000
X174500Y27000
X168818Y26390
X163000Y22500
X153000Y14000
X152500Y11500
X148361Y7759
X143174Y6027
X157500Y7000
X156000Y3000
T02
X22000Y30500
T03
X10500Y11500
X20000Y10500
T04
X132809Y12365
T05
X107205Y16250
X117205
X112205Y21250
Y11250
T06
X128595Y3803
X134500Y4000
X140405
X146311
X152216
T07
X51095Y6500
X62906
X161500
X171500
T08
X123500Y25291
X143500Y21291
Y29291
M30
