G04*
G04 #@! TF.GenerationSoftware,Altium Limited,Altium Designer,19.1.5 (86)*
G04*
G04 Layer_Physical_Order=2*
G04 Layer_Color=3326705*
%FSAX24Y24*%
%MOIN*%
G70*
G01*
G75*
%ADD12C,0.0100*%
%ADD24C,0.0709*%
%ADD27C,0.0140*%
%ADD28C,0.0620*%
%ADD29R,0.0620X0.0620*%
%ADD30O,0.0512X0.0512*%
%ADD31C,0.0551*%
%ADD32C,0.0591*%
%ADD33R,0.0591X0.0591*%
%ADD34C,0.0500*%
%ADD35C,0.0200*%
%ADD36C,0.0216*%
%ADD37R,0.0551X0.0236*%
G04:AMPARAMS|DCode=38|XSize=59.1mil|YSize=27.6mil|CornerRadius=0mil|HoleSize=0mil|Usage=FLASHONLY|Rotation=86.250|XOffset=0mil|YOffset=0mil|HoleType=Round|Shape=Rectangle|*
%AMROTATEDRECTD38*
4,1,4,0.0118,-0.0304,-0.0157,-0.0286,-0.0118,0.0304,0.0157,0.0286,0.0118,-0.0304,0.0*
%
%ADD38ROTATEDRECTD38*%

G04:AMPARAMS|DCode=39|XSize=39.4mil|YSize=31.5mil|CornerRadius=0mil|HoleSize=0mil|Usage=FLASHONLY|Rotation=176.250|XOffset=0mil|YOffset=0mil|HoleType=Round|Shape=Rectangle|*
%AMROTATEDRECTD39*
4,1,4,0.0207,0.0144,0.0186,-0.0170,-0.0207,-0.0144,-0.0186,0.0170,0.0207,0.0144,0.0*
%
%ADD39ROTATEDRECTD39*%

G04:AMPARAMS|DCode=40|XSize=31.5mil|YSize=10.2mil|CornerRadius=0mil|HoleSize=0mil|Usage=FLASHONLY|Rotation=7.550|XOffset=0mil|YOffset=0mil|HoleType=Round|Shape=Rectangle|*
%AMROTATEDRECTD40*
4,1,4,-0.0149,-0.0071,-0.0163,0.0030,0.0149,0.0071,0.0163,-0.0030,-0.0149,-0.0071,0.0*
%
%ADD40ROTATEDRECTD40*%

G04:AMPARAMS|DCode=41|XSize=25.6mil|YSize=10.2mil|CornerRadius=0mil|HoleSize=0mil|Usage=FLASHONLY|Rotation=7.550|XOffset=0mil|YOffset=0mil|HoleType=Round|Shape=Rectangle|*
%AMROTATEDRECTD41*
4,1,4,-0.0120,-0.0068,-0.0134,0.0034,0.0120,0.0068,0.0134,-0.0034,-0.0120,-0.0068,0.0*
%
%ADD41ROTATEDRECTD41*%

G04:AMPARAMS|DCode=42|XSize=33.5mil|YSize=15.7mil|CornerRadius=0mil|HoleSize=0mil|Usage=FLASHONLY|Rotation=7.550|XOffset=0mil|YOffset=0mil|HoleType=Round|Shape=Rectangle|*
%AMROTATEDRECTD42*
4,1,4,-0.0156,-0.0100,-0.0176,0.0056,0.0156,0.0100,0.0176,-0.0056,-0.0156,-0.0100,0.0*
%
%ADD42ROTATEDRECTD42*%

%ADD43R,0.0315X0.0354*%
%ADD44R,0.0217X0.0217*%
%ADD45R,0.0217X0.0217*%
%ADD46R,0.0315X0.0315*%
G36*
X017300Y006247D02*
X017250Y006231D01*
X017223Y006273D01*
X016473Y007023D01*
X016416Y007060D01*
X016350Y007073D01*
X015557D01*
Y007562D01*
X015294D01*
X015272Y007590D01*
X015293Y007638D01*
X015557D01*
Y008153D01*
X015473D01*
Y008292D01*
X015588D01*
Y008708D01*
X015178D01*
X015172Y008708D01*
Y008708D01*
X015128D01*
Y008708D01*
X014712D01*
Y008537D01*
X014596Y008422D01*
X013532D01*
X013532Y008422D01*
X013466Y008408D01*
X013410Y008371D01*
X013274Y008235D01*
X013236Y008179D01*
X013229Y008142D01*
X012482D01*
Y008097D01*
X012388D01*
Y008158D01*
X011978D01*
X011972Y008158D01*
X011928D01*
X011922Y008158D01*
X011587D01*
X011531Y008196D01*
X011450Y008212D01*
X011369Y008196D01*
X011300Y008150D01*
X011254Y008081D01*
X011238Y008000D01*
X011254Y007919D01*
X011300Y007850D01*
X011369Y007804D01*
X011450Y007788D01*
X011462Y007790D01*
X011512Y007751D01*
Y007742D01*
X011922D01*
X011928Y007742D01*
X011972D01*
X011978Y007742D01*
X012388D01*
Y007751D01*
X012482D01*
Y007706D01*
X013145D01*
X013165Y007660D01*
X012941Y007436D01*
X012913Y007394D01*
X012482D01*
Y007351D01*
X012436Y007337D01*
X012430Y007338D01*
X012388Y007358D01*
X012388Y007358D01*
X012388Y007358D01*
X011994D01*
X011952Y007400D01*
X011962Y007450D01*
X011946Y007531D01*
X011900Y007600D01*
X011831Y007646D01*
X011750Y007662D01*
X011669Y007646D01*
X011600Y007600D01*
X011554Y007531D01*
X011538Y007450D01*
X011546Y007408D01*
X011512Y007358D01*
X011512D01*
Y006942D01*
X011922D01*
X011928Y006942D01*
X011972D01*
X011978Y006942D01*
X012088D01*
X012105Y006892D01*
X012050Y006850D01*
X011994Y006777D01*
X011959Y006691D01*
X011947Y006600D01*
X011959Y006509D01*
X011994Y006423D01*
X012050Y006350D01*
X012123Y006294D01*
X012209Y006259D01*
X012300Y006247D01*
X012391Y006259D01*
X012477Y006294D01*
X012550Y006350D01*
X012606Y006423D01*
X012641Y006509D01*
X012653Y006600D01*
X012641Y006691D01*
X012606Y006777D01*
X012573Y006819D01*
Y006958D01*
X013233D01*
Y007207D01*
X013237Y007224D01*
Y007242D01*
X013420Y007425D01*
X013467Y007406D01*
Y006958D01*
X013877D01*
X013887Y006904D01*
X013925Y006848D01*
X013996Y006777D01*
X014052Y006740D01*
X014118Y006727D01*
X016278D01*
X016927Y006078D01*
Y004422D01*
X016558Y004053D01*
X016114D01*
X016095Y004099D01*
X016032Y004182D01*
X015949Y004245D01*
X015853Y004285D01*
X015750Y004299D01*
X015647Y004285D01*
X015551Y004245D01*
X015468Y004182D01*
X015405Y004099D01*
X015394Y004073D01*
X012322D01*
X011908Y004487D01*
X011852Y004525D01*
X011785Y004538D01*
X011087D01*
X011021Y004525D01*
X010965Y004487D01*
X010835Y004357D01*
X010249D01*
X009928Y004378D01*
X009884Y003705D01*
X009844Y003674D01*
X009825Y003678D01*
X009805Y003677D01*
X009769Y003712D01*
X009789Y004015D01*
X009797Y004027D01*
X009811Y004094D01*
Y004287D01*
X009808Y004300D01*
X009814Y004386D01*
X009774Y004388D01*
X009760Y004410D01*
X009704Y004447D01*
X009637Y004461D01*
X009571Y004447D01*
X009515Y004410D01*
X009512Y004405D01*
X009339Y004417D01*
X009336Y004374D01*
X009284Y004348D01*
X009266Y004360D01*
X009200Y004373D01*
X009134Y004360D01*
X009079Y004323D01*
X008607D01*
X008606Y004327D01*
X008550Y004400D01*
X008477Y004456D01*
X008391Y004491D01*
X008300Y004503D01*
X008209Y004491D01*
X008123Y004456D01*
X008050Y004400D01*
X007994Y004327D01*
X007959Y004241D01*
X007947Y004150D01*
X007959Y004059D01*
X007994Y003973D01*
X008050Y003900D01*
X008123Y003844D01*
X008209Y003809D01*
X008300Y003797D01*
X008391Y003809D01*
X008477Y003844D01*
X008550Y003900D01*
X008606Y003973D01*
X008607Y003977D01*
X008662D01*
X008696Y003940D01*
X008671Y003550D01*
X009263Y003511D01*
X009268Y003586D01*
X009287Y003628D01*
X009509Y003613D01*
X009530Y003562D01*
X009485Y003510D01*
X009441Y003422D01*
X009422Y003325D01*
X009428Y003226D01*
X009460Y003132D01*
X009515Y003050D01*
X009590Y002985D01*
X009678Y002941D01*
X009775Y002922D01*
X009874Y002928D01*
X009968Y002960D01*
X010050Y003015D01*
X010115Y003090D01*
X010159Y003178D01*
X010178Y003275D01*
X010172Y003374D01*
X010140Y003468D01*
X010102Y003524D01*
X010130Y003573D01*
X010351Y003558D01*
X010381Y004010D01*
X010907D01*
X010973Y004024D01*
X011029Y004061D01*
X011045Y004077D01*
X011091Y004057D01*
X011063Y003627D01*
X011023Y003597D01*
X011003Y003601D01*
X010905Y003594D01*
X010811Y003563D01*
X010729Y003508D01*
X010664Y003433D01*
X010620Y003345D01*
X010601Y003248D01*
X010607Y003149D01*
X010639Y003055D01*
X010694Y002973D01*
X010768Y002908D01*
X010857Y002864D01*
X010954Y002845D01*
X011052Y002851D01*
X011146Y002883D01*
X011228Y002938D01*
X011294Y003012D01*
X011337Y003101D01*
X011357Y003198D01*
X011350Y003297D01*
X011318Y003390D01*
X011280Y003447D01*
X011308Y003495D01*
X011496Y003483D01*
X011543Y003437D01*
X011538Y003362D01*
X012131Y003323D01*
X012156Y003703D01*
X012208Y003735D01*
X012250Y003727D01*
X015394D01*
X015405Y003701D01*
X015468Y003618D01*
X015551Y003555D01*
X015647Y003515D01*
X015750Y003501D01*
X015853Y003515D01*
X015949Y003555D01*
X016032Y003618D01*
X016095Y003701D01*
X016114Y003747D01*
X016573D01*
X016584Y003740D01*
X016650Y003727D01*
X016716Y003740D01*
X016773Y003777D01*
X017223Y004227D01*
X017250Y004268D01*
X017300Y004253D01*
Y002237D01*
X017263Y002202D01*
X012080Y002545D01*
X012108Y002973D01*
X011516Y003012D01*
X011490Y002620D01*
X011452Y002587D01*
X009212Y002735D01*
X009240Y003161D01*
X008929Y003181D01*
X008929Y003182D01*
X008922Y003189D01*
X008917Y003198D01*
X008902Y003211D01*
X008888Y003225D01*
X008878Y003229D01*
X008870Y003236D01*
X008851Y003241D01*
X008833Y003249D01*
X008823Y003250D01*
X008813Y003252D01*
X003616Y003702D01*
X003008Y008071D01*
X003039Y008110D01*
X003995Y008204D01*
X004000Y008198D01*
X003988Y008130D01*
X003977Y008123D01*
X003940Y008066D01*
X003931Y008065D01*
X003876Y008105D01*
X003872Y008135D01*
X003342Y008065D01*
X003382Y007764D01*
X003265Y007748D01*
X003296Y007514D01*
X003296D01*
X003336Y007215D01*
X003336D01*
X003358Y007046D01*
X003358D01*
X003383Y006859D01*
X003389Y006812D01*
X003389Y006812D01*
X003445Y006391D01*
X003451Y006343D01*
X003451Y006343D01*
X003482Y006109D01*
X003482D01*
X003522Y005810D01*
X003522D01*
X003544Y005641D01*
X003544D01*
X003569Y005454D01*
X003575Y005407D01*
X003575Y005407D01*
X003615Y005107D01*
X003646Y004873D01*
X003763Y004888D01*
X003803Y004588D01*
X004333Y004658D01*
X004286Y005012D01*
X004149Y004994D01*
X004101Y005361D01*
X004095Y005409D01*
X004088Y005456D01*
X004063Y005643D01*
X004063D01*
X004059Y005674D01*
X004308Y005923D01*
X004341Y005972D01*
X004353Y006031D01*
Y006169D01*
X004388Y006222D01*
X004404Y006300D01*
X004388Y006378D01*
X004344Y006444D01*
X004278Y006488D01*
X004215Y006501D01*
X004147Y006570D01*
X004097Y006603D01*
X004038Y006615D01*
X003935D01*
X003915Y006766D01*
X003908Y006814D01*
X003902Y006861D01*
X003877Y007048D01*
X003877D01*
X003877Y007050D01*
X003919Y007077D01*
X004154Y007312D01*
X004166Y007315D01*
X004223Y007352D01*
X004398Y007528D01*
X004412Y007549D01*
X004432Y007550D01*
X004465Y007537D01*
X004525Y007081D01*
X004525D01*
X004556Y006847D01*
X004556D01*
X004618Y006379D01*
X004618D01*
X004649Y006145D01*
X004649D01*
X004680Y005911D01*
X004680D01*
X004724Y005576D01*
X004950Y005606D01*
X005191Y005638D01*
X005200Y005646D01*
X005278Y005662D01*
X005297Y005674D01*
X005347Y005648D01*
Y004750D01*
X005359Y004691D01*
X005392Y004642D01*
X005543Y004490D01*
X005494Y004427D01*
X005459Y004341D01*
X005447Y004250D01*
X005459Y004159D01*
X005494Y004073D01*
X005550Y004000D01*
X005623Y003944D01*
X005709Y003909D01*
X005800Y003897D01*
X005891Y003909D01*
X005977Y003944D01*
X006050Y004000D01*
X006106Y004073D01*
X006141Y004159D01*
X006153Y004250D01*
X006141Y004341D01*
X006106Y004427D01*
X006050Y004500D01*
X006046Y004503D01*
X006060Y004555D01*
X006091Y004559D01*
X006177Y004594D01*
X006250Y004650D01*
X006306Y004723D01*
X006341Y004809D01*
X006353Y004900D01*
X006341Y004991D01*
X006306Y005077D01*
X006250Y005150D01*
X006177Y005206D01*
X006091Y005241D01*
X006003Y005253D01*
Y005684D01*
X005991Y005743D01*
X005958Y005792D01*
X005909Y005826D01*
X005906Y005826D01*
X005894Y005844D01*
X005828Y005888D01*
X005750Y005904D01*
X005703Y005895D01*
X005653Y005931D01*
Y005950D01*
X005641Y006009D01*
X005608Y006058D01*
X005565Y006101D01*
X005589Y006148D01*
X005600Y006147D01*
X005691Y006159D01*
X005777Y006194D01*
X005850Y006250D01*
X005906Y006323D01*
X005941Y006409D01*
X005952Y006490D01*
X005996Y006517D01*
X006011Y006502D01*
X006027Y006478D01*
X006084Y006440D01*
X006150Y006427D01*
X006222D01*
X006254Y006388D01*
X006246Y006350D01*
X006262Y006272D01*
X006297Y006219D01*
Y005838D01*
X006290Y005800D01*
X006301Y005741D01*
X006334Y005692D01*
X006384Y005659D01*
X006443Y005647D01*
X006501Y005659D01*
X006551Y005692D01*
X006558Y005699D01*
X006591Y005749D01*
X006603Y005807D01*
Y006219D01*
X006638Y006272D01*
X006651Y006334D01*
X006700Y006355D01*
X008250Y004804D01*
X008307Y004767D01*
X008373Y004754D01*
X014457D01*
X014523Y004767D01*
X014579Y004804D01*
X014827Y005052D01*
X014833Y005049D01*
X014926Y005037D01*
X015019Y005049D01*
X015105Y005085D01*
X015180Y005142D01*
X015237Y005217D01*
X015273Y005303D01*
X015285Y005396D01*
X015273Y005489D01*
X015252Y005539D01*
X015283Y005594D01*
X015333Y005600D01*
X015352Y005586D01*
X015370Y005561D01*
X015353Y005475D01*
X015371Y005382D01*
X015424Y005303D01*
X015502Y005251D01*
X015595Y005232D01*
X015688Y005251D01*
X015767Y005303D01*
X015819Y005382D01*
X015838Y005475D01*
X015819Y005568D01*
X015767Y005646D01*
X015688Y005699D01*
X015595Y005717D01*
X015573Y005713D01*
X015544Y005758D01*
X015552Y005768D01*
X015588Y005854D01*
X015600Y005947D01*
X015588Y006040D01*
X015552Y006127D01*
X015495Y006201D01*
X015420Y006258D01*
X015334Y006294D01*
X015241Y006306D01*
X015148Y006294D01*
X015061Y006258D01*
X014987Y006201D01*
X014957Y006162D01*
X014894D01*
X014865Y006201D01*
X014791Y006258D01*
X014704Y006294D01*
X014611Y006306D01*
X014518Y006294D01*
X014432Y006258D01*
X014357Y006201D01*
X014328Y006162D01*
X014265D01*
X014235Y006201D01*
X014161Y006258D01*
X014074Y006294D01*
X014031Y006300D01*
Y005947D01*
X013981D01*
Y005897D01*
X013629D01*
X013634Y005854D01*
X013670Y005768D01*
X013678Y005758D01*
X013649Y005713D01*
X013627Y005717D01*
X013534Y005699D01*
X013455Y005646D01*
X013403Y005568D01*
X013384Y005475D01*
X013401Y005390D01*
X013376Y005340D01*
X008561D01*
X007344Y006557D01*
X007360Y006605D01*
X007391Y006609D01*
X007477Y006644D01*
X007484Y006650D01*
X007592Y006542D01*
X007641Y006509D01*
X007700Y006497D01*
X008323D01*
X008334Y006490D01*
X008400Y006477D01*
X009498D01*
X009762Y006213D01*
Y006042D01*
X009884D01*
X009889Y005992D01*
X009872Y005988D01*
X009819Y005953D01*
X009257D01*
X009199Y005941D01*
X009149Y005908D01*
X009116Y005859D01*
X009105Y005800D01*
X009116Y005741D01*
X009149Y005692D01*
X009199Y005659D01*
X009257Y005647D01*
X009819D01*
X009872Y005612D01*
X009950Y005596D01*
X010028Y005612D01*
X010094Y005656D01*
X010138Y005722D01*
X010154Y005800D01*
X010138Y005878D01*
X010094Y005944D01*
X010028Y005988D01*
X010011Y005992D01*
X010016Y006042D01*
X010178D01*
X010178Y006042D01*
X010222D01*
Y006042D01*
X010228Y006042D01*
X010515D01*
X010548Y006004D01*
X010547Y006000D01*
X010559Y005909D01*
X010594Y005823D01*
X010650Y005750D01*
X010723Y005694D01*
X010809Y005659D01*
X010900Y005647D01*
X010991Y005659D01*
X011077Y005694D01*
X011150Y005750D01*
X011206Y005823D01*
X011241Y005909D01*
X011253Y006000D01*
X011241Y006091D01*
X011206Y006177D01*
X011150Y006250D01*
X011077Y006306D01*
X011070Y006309D01*
X011060Y006356D01*
X011023Y006412D01*
X010507Y006927D01*
Y007233D01*
X010423D01*
Y007467D01*
X010676D01*
X010748Y007395D01*
X010759Y007309D01*
X010794Y007223D01*
X010850Y007150D01*
X010923Y007094D01*
X011009Y007059D01*
X011100Y007047D01*
X011191Y007059D01*
X011277Y007094D01*
X011350Y007150D01*
X011406Y007223D01*
X011441Y007309D01*
X011453Y007400D01*
X011441Y007491D01*
X011406Y007577D01*
X011350Y007650D01*
X011277Y007706D01*
X011191Y007741D01*
X011100Y007753D01*
X011009Y007741D01*
X010926Y007707D01*
X010881Y007751D01*
Y008021D01*
X010553D01*
X010537Y008024D01*
X010520Y008021D01*
X010404D01*
X010373Y008067D01*
X010373Y008067D01*
X010226Y008213D01*
X010170Y008251D01*
X010104Y008264D01*
X010031D01*
X009973Y008323D01*
X009916Y008360D01*
X009850Y008373D01*
X009435D01*
X009132Y008676D01*
X009127Y008694D01*
X009135Y008740D01*
X009140Y008747D01*
X009147Y008753D01*
X009157Y008772D01*
X009169Y008789D01*
X009171Y008798D01*
X009175Y008806D01*
X009177Y008827D01*
X009181Y008848D01*
X009184Y008850D01*
X017300D01*
Y006247D01*
D02*
G37*
%LPC*%
G36*
X013931Y006300D02*
X013888Y006294D01*
X013802Y006258D01*
X013727Y006201D01*
X013670Y006127D01*
X013634Y006040D01*
X013629Y005997D01*
X013931D01*
Y006300D01*
D02*
G37*
G36*
X005190Y005537D02*
X004964Y005507D01*
X004738Y005477D01*
X004742Y005442D01*
X004742D01*
X004755Y005342D01*
X004981Y005372D01*
X005207Y005402D01*
X005203Y005437D01*
X005203D01*
X005190Y005537D01*
D02*
G37*
G36*
X005221Y005303D02*
X005044Y005279D01*
X005057Y005179D01*
X005234Y005202D01*
X005221Y005303D01*
D02*
G37*
G36*
X004945Y005266D02*
X004769Y005243D01*
X004782Y005143D01*
X004958Y005166D01*
X004945Y005266D01*
D02*
G37*
G36*
X016145Y003295D02*
X015355D01*
Y002505D01*
X016145D01*
Y003295D01*
D02*
G37*
%LPD*%
D12*
X005768Y006962D02*
X006129Y006600D01*
X006150D01*
X004771Y006962D02*
X005768D01*
X007300Y006950D02*
X007400D01*
X007700Y006650D01*
X008400D01*
X004200Y006031D02*
Y006300D01*
X003950Y005780D02*
X004200Y006031D01*
X003810Y005780D02*
X003950D01*
X003788Y005759D02*
X003810Y005780D01*
X004038Y006462D02*
X004200Y006300D01*
X003695Y006462D02*
X004038D01*
X004709Y007550D02*
X005050D01*
X004709Y007430D02*
Y007550D01*
X004693Y007445D02*
Y007649D01*
Y007445D02*
X004709Y007430D01*
X004678Y007664D02*
X004693Y007649D01*
X005173Y005850D02*
X005200D01*
X005131Y005808D02*
X005173Y005850D01*
X004944Y005808D02*
X005131D01*
X004926Y005791D02*
X004944Y005808D01*
X005208Y006242D02*
X005500Y005950D01*
X004833Y006493D02*
X004882D01*
X005500Y004750D02*
X005800Y004450D01*
X005500Y004750D02*
Y005950D01*
X005800Y004250D02*
Y004450D01*
X004848Y006476D02*
X004900D01*
X004882Y006493D02*
X004900Y006476D01*
X004997Y006242D02*
X005208D01*
X005766Y005684D02*
X005850D01*
X005750Y005700D02*
X005766Y005684D01*
X004848Y006277D02*
X004879Y006246D01*
X004994D01*
X004848Y006277D02*
Y006476D01*
X004994Y006246D02*
X004997Y006242D01*
X005572Y006500D02*
X005600D01*
X005345Y006727D02*
X005572Y006500D01*
X004802Y006727D02*
X005345D01*
X005593Y006493D02*
X005600Y006500D01*
X009950Y005800D02*
X010000D01*
X009257D02*
X009950D01*
X006443D02*
X006450Y005807D01*
Y006350D01*
X005850Y005050D02*
Y005684D01*
Y005050D02*
X006000Y004900D01*
X015800Y003800D02*
X015900Y003900D01*
X016650D01*
X015750Y003850D02*
X015800Y003800D01*
X015750Y003850D02*
Y003900D01*
X011720Y007420D02*
X011750Y007450D01*
X011720Y007150D02*
Y007420D01*
X011450Y008000D02*
X011500Y007950D01*
X011720D01*
X014600Y007730D02*
X014638Y007692D01*
X004740Y007196D02*
X005646D01*
X003957Y007857D02*
X004100Y008000D01*
X003957Y007804D02*
Y007857D01*
X003825Y007672D02*
X003957Y007804D01*
X003702Y007672D02*
X003825D01*
X003684Y007654D02*
X003702Y007672D01*
X003562Y007654D02*
X003684D01*
X003540Y007632D02*
X003562Y007654D01*
X003811Y007186D02*
X004100Y007475D01*
X003624Y007186D02*
X003811D01*
X003602Y007164D02*
X003624Y007186D01*
D24*
X006274Y007507D02*
D03*
D27*
X014158Y005390D02*
Y005434D01*
X007041Y007470D02*
X007214D01*
X006799Y007712D02*
X007041Y007470D01*
X006799Y007712D02*
Y007725D01*
X006090Y006950D02*
X006706D01*
X005859Y007182D02*
X006090Y006950D01*
X004352Y008142D02*
X005828D01*
X005660Y007182D02*
X005859D01*
X007039Y007811D02*
X007100Y007750D01*
X007039Y007811D02*
Y007824D01*
X006591Y008272D02*
X007039Y007824D01*
X005958Y008272D02*
X006591D01*
X005828Y008142D02*
X005958Y008272D01*
X006492Y008032D02*
X006799Y007725D01*
X006057Y008032D02*
X006492D01*
X005888Y007862D02*
X006057Y008032D01*
X005888Y007862D02*
X005888D01*
X005848Y007902D02*
X005888Y007862D01*
X006706Y006950D02*
X008489Y005167D01*
X005646Y007196D02*
X005660Y007182D01*
X006680Y006620D02*
X008373Y004927D01*
X006338Y006620D02*
X006680D01*
X006318Y006600D02*
X006338Y006620D01*
X006150Y006600D02*
X006318D01*
X008450Y008600D02*
X008963D01*
X008291Y008441D02*
X008450Y008600D01*
X008291Y007849D02*
Y008441D01*
X008251Y007809D02*
X008291Y007849D01*
X008251Y007732D02*
Y007809D01*
X008152Y007633D02*
X008251Y007732D01*
X008251Y007393D02*
X008491Y007633D01*
Y007703D01*
X008771Y007983D01*
Y008113D01*
X007291Y007393D02*
X008251D01*
X007273Y007750D02*
X007391Y007633D01*
X008152D01*
X007100Y007750D02*
X007273D01*
X008489Y005167D02*
X013935D01*
X007214Y007470D02*
X007291Y007393D01*
X004276Y007726D02*
X004452Y007902D01*
X004276Y007651D02*
Y007726D01*
X004100Y007475D02*
X004276Y007651D01*
X004452Y007902D02*
X005848D01*
X008400Y006650D02*
X009570D01*
X008373Y004927D02*
X014457D01*
X008963Y008600D02*
X009363Y008200D01*
X004211Y008000D02*
X004352Y008142D01*
X004100Y008000D02*
X004211D01*
X014362Y007692D02*
X014638D01*
X014220Y007550D02*
X014320Y007650D01*
X009200Y004200D02*
X009275Y004125D01*
X009150Y004150D02*
X009200Y004200D01*
X008300Y004150D02*
X009150D01*
X009570Y006650D02*
X009970Y006250D01*
X014320Y007650D02*
X014362Y007692D01*
X013842Y007550D02*
X014220D01*
X016650Y003900D02*
X017100Y004350D01*
X012250Y003900D02*
X015750D01*
X014300Y007650D02*
X014320D01*
X014600Y006900D02*
X016350D01*
X014779Y008008D02*
X014973Y007814D01*
X014084Y008008D02*
X014779D01*
X014668Y008248D02*
X014920Y008500D01*
X013532Y008248D02*
X014668D01*
X016350Y006900D02*
X017100Y006150D01*
X013397Y008113D02*
X013532Y008248D01*
X013842Y007924D02*
X014000D01*
X014973Y007637D02*
Y007814D01*
X014000Y007924D02*
X014084Y008008D01*
X015078Y007526D02*
X015300Y007305D01*
X015078Y007526D02*
Y007532D01*
X014973Y007637D02*
X015078Y007532D01*
X011087Y004365D02*
X011785D01*
X010907Y004184D02*
X011087Y004365D01*
X010227Y004184D02*
X010907D01*
X010140Y004097D02*
X010227Y004184D01*
X010140Y003968D02*
Y004097D01*
X014047Y006971D02*
Y007128D01*
X013999Y007176D02*
X014047Y007128D01*
X013842Y007176D02*
X013999D01*
X012500D02*
X012858D01*
X012400Y006700D02*
Y007150D01*
X012474D01*
X012180D02*
X012400D01*
X012474D02*
X012500Y007176D01*
X012300Y006600D02*
X012400Y006700D01*
X010900Y006000D02*
Y006290D01*
X017100Y004350D02*
Y006150D01*
X014118Y006900D02*
X014600D01*
X014047Y006971D02*
X014118Y006900D01*
X014600D02*
Y007270D01*
X014457Y004927D02*
X014926Y005396D01*
X013935Y005167D02*
X014158Y005390D01*
Y005434D02*
X014195Y005396D01*
X011785Y004365D02*
X012250Y003900D01*
X010624Y007763D02*
X010987Y007400D01*
X010537Y007851D02*
X010624Y007763D01*
X010987Y007400D02*
X011100D01*
X009850Y008200D02*
X009959Y008091D01*
X009363Y008200D02*
X009850D01*
X009959Y008091D02*
X010104D01*
X010250Y007945D01*
Y006956D02*
Y007945D01*
X003540Y007437D02*
X003571Y007406D01*
X003540Y007437D02*
Y007632D01*
X010250Y006940D02*
X010900Y006290D01*
X009275Y004125D02*
X009464D01*
X009550Y004038D01*
Y004007D02*
Y004038D01*
X014195Y005396D02*
X014296D01*
X009637Y004094D02*
Y004287D01*
X009550Y004007D02*
X009637Y004094D01*
X010624Y007744D02*
Y007763D01*
X009923Y006709D02*
Y007697D01*
Y006709D02*
X010022Y006609D01*
X010071D01*
X010430Y006250D01*
X009876Y007744D02*
X009923Y007697D01*
X012180Y007950D02*
X012206Y007924D01*
X012858D01*
X010250Y006940D02*
Y006956D01*
X013063Y007224D02*
Y007313D01*
X013015Y007176D02*
X013063Y007224D01*
X012858Y007176D02*
X013015D01*
X013063Y007313D02*
X013397Y007647D01*
Y008113D01*
X015300Y008420D02*
X015380Y008500D01*
X015300Y007895D02*
Y008420D01*
D28*
X008771Y008113D02*
D03*
D29*
X007771D02*
D03*
D30*
X014926Y005396D02*
D03*
X015241Y005947D02*
D03*
X014611D02*
D03*
X013981D02*
D03*
X014296Y005396D02*
D03*
D31*
X010979Y003223D02*
D03*
X009800Y003300D02*
D03*
D32*
X015750Y003900D02*
D03*
D33*
Y002900D02*
D03*
D34*
X007300Y006950D02*
D03*
X008300Y004150D02*
D03*
X006000Y004900D02*
D03*
X005800Y004250D02*
D03*
X012300Y006600D02*
D03*
X010900Y006000D02*
D03*
X005600Y006500D02*
D03*
X011100Y007400D02*
D03*
D35*
X004200Y006300D02*
D03*
X005050Y007550D02*
D03*
X005200Y005850D02*
D03*
X005750Y005700D02*
D03*
X009950Y005800D02*
D03*
X006450Y006350D02*
D03*
D36*
X011750Y007450D02*
D03*
X011450Y008000D02*
D03*
X014300Y007650D02*
D03*
D37*
X012858Y007924D02*
D03*
Y007176D02*
D03*
X013842D02*
D03*
Y007550D02*
D03*
Y007924D02*
D03*
D38*
X011318Y003891D02*
D03*
X010140Y003968D02*
D03*
X009550Y004007D02*
D03*
D39*
X011852Y003600D02*
D03*
X011795Y002735D02*
D03*
X008984Y003787D02*
D03*
X008927Y002923D02*
D03*
D40*
X003881Y005057D02*
D03*
X003850Y005291D02*
D03*
X003819Y005525D02*
D03*
X003788Y005759D02*
D03*
X003757Y005993D02*
D03*
X003726Y006227D02*
D03*
X003695Y006462D02*
D03*
X003664Y006696D02*
D03*
X003633Y006930D02*
D03*
X003602Y007164D02*
D03*
X003571Y007398D02*
D03*
X003540Y007632D02*
D03*
D41*
X004988Y005322D02*
D03*
X004957Y005557D02*
D03*
X004926Y005791D02*
D03*
X004895Y006025D02*
D03*
X004864Y006259D02*
D03*
X004833Y006493D02*
D03*
X004802Y006727D02*
D03*
X004771Y006962D02*
D03*
X004740Y007196D02*
D03*
X004709Y007430D02*
D03*
X004678Y007664D02*
D03*
D42*
X004045Y004800D02*
D03*
X003631Y007922D02*
D03*
D43*
X010250Y006956D02*
D03*
X010624Y007744D02*
D03*
X009876D02*
D03*
D44*
X009970Y006250D02*
D03*
X010430D02*
D03*
X012180Y007150D02*
D03*
X011720D02*
D03*
Y007950D02*
D03*
X012180D02*
D03*
X015380Y008500D02*
D03*
X014920D02*
D03*
D45*
X014600Y007270D02*
D03*
Y007730D02*
D03*
D46*
X015300Y007895D02*
D03*
Y007305D02*
D03*
M02*
