G04*
G04 #@! TF.GenerationSoftware,Altium Limited,Altium Designer,20.0.13 (296)*
G04*
G04 Layer_Physical_Order=4*
G04 Layer_Color=1930808*
%FSAX25Y25*%
%MOIN*%
G70*
G01*
G75*
%ADD12C,0.01000*%
%ADD14C,0.00800*%
%ADD15C,0.00500*%
%ADD16C,0.00600*%
%ADD19R,0.02165X0.02165*%
%ADD20R,0.02165X0.02165*%
%ADD32R,0.02362X0.02441*%
%ADD63C,0.01378*%
%ADD64C,0.00400*%
%ADD66C,0.04800*%
%ADD67C,0.01949*%
%ADD68C,0.05512*%
%ADD69C,0.04724*%
%ADD70C,0.05906*%
%ADD71R,0.05906X0.05906*%
%ADD72C,0.01575*%
%ADD73C,0.02362*%
%ADD74C,0.01181*%
%ADD75C,0.01600*%
%ADD76R,0.01890X0.02539*%
%ADD77R,0.03543X0.03740*%
%ADD78R,0.03937X0.06693*%
%ADD79R,0.02756X0.01181*%
%ADD80R,0.02126X0.01654*%
%ADD81R,0.03150X0.01181*%
%ADD82R,0.06890X0.06102*%
%ADD83R,0.03347X0.00984*%
%ADD84R,0.00984X0.03347*%
%ADD85R,0.14173X0.14173*%
%ADD86R,0.02756X0.02953*%
%ADD87R,0.05807X0.01772*%
%ADD88R,0.02441X0.02362*%
%ADD89R,0.06890X0.07087*%
%ADD90C,0.01400*%
%ADD91C,0.02000*%
D12*
X0099000Y0138344D02*
Y0138458D01*
X0099138Y0138596D01*
X0127965Y0144035D02*
X0128000Y0144000D01*
X0126203Y0138452D02*
X0126500Y0138155D01*
X0126417Y0140283D02*
X0127000Y0139700D01*
X0126203Y0138452D02*
Y0140283D01*
X0185500Y0140500D02*
Y0141765D01*
X0106631Y0134610D02*
X0111854D01*
X0106156Y0129656D02*
X0107500D01*
X0102209Y0137563D02*
X0103374D01*
X0100875Y0135594D02*
X0102209D01*
X0118736Y0144248D02*
X0118744Y0144256D01*
X0100299Y0136171D02*
X0100875Y0135594D01*
X0107200Y0129956D02*
X0111854Y0134610D01*
X0116392Y0139148D01*
X0099635Y0136698D02*
X0100163Y0136171D01*
X0099635Y0136698D02*
Y0136834D01*
X0104965Y0124965D02*
X0104973Y0124972D01*
X0118727Y0142780D02*
X0118736Y0142790D01*
X0100163Y0136171D02*
X0100299D01*
X0099138Y0137332D02*
Y0138596D01*
Y0137332D02*
X0099635Y0136834D01*
X0118736Y0142790D02*
Y0144248D01*
X0176531Y0147269D02*
X0176800Y0147000D01*
X0176500Y0147300D02*
X0176531Y0147269D01*
X0177000D01*
X0173031D02*
X0176531D01*
X0173000Y0147300D02*
X0173031Y0147269D01*
X0189453Y0136500D02*
X0190653D01*
X0191700D01*
X0193500Y0141095D02*
X0194500D01*
X0188811D02*
X0193394D01*
X0185000Y0142221D02*
X0185043D01*
X0188811Y0141363D02*
Y0143063D01*
X0185043Y0142221D02*
X0185500Y0141765D01*
X0128456Y0144256D02*
X0129500Y0145300D01*
X0128000Y0144256D02*
X0128456D01*
X0126203Y0140283D02*
X0126417D01*
X0126221Y0144035D02*
X0127965D01*
X0126000Y0144256D02*
X0126221Y0144035D01*
X0127000Y0139700D02*
X0129500D01*
X0080977Y0138216D02*
X0081000Y0138238D01*
Y0138500D01*
X0032500Y0144150D02*
X0032825Y0143825D01*
X0031300Y0145350D02*
X0032500Y0144150D01*
X0099890Y0125610D02*
X0100000Y0125500D01*
X0047000Y0130000D02*
X0047295Y0129705D01*
X0051000D01*
X0188811Y0141095D02*
Y0141363D01*
X0194500Y0133000D02*
Y0141095D01*
X0173000Y0142700D02*
X0173363Y0143063D01*
X0034700Y0145700D02*
Y0147500D01*
X0032825Y0143825D02*
X0034700Y0145700D01*
X0032344Y0143000D02*
X0032500D01*
X0031935Y0142590D02*
X0032344Y0143000D01*
X0027957Y0142590D02*
X0031935D01*
X0027866Y0142500D02*
X0027957Y0142590D01*
X0032500Y0143000D02*
Y0144150D01*
X0031300Y0145350D02*
Y0147500D01*
X0099890Y0125610D02*
Y0125910D01*
X0098500Y0127300D02*
X0099890Y0125910D01*
X0100393Y0122307D02*
X0102200Y0120500D01*
X0098500Y0122700D02*
X0098893Y0122307D01*
X0100393D01*
X0098921Y0127720D02*
X0102209D01*
X0098500Y0127300D02*
X0098921Y0127720D01*
X0027866Y0139941D02*
Y0142500D01*
D14*
X0190934Y0144928D02*
X0191681Y0144181D01*
X0189925Y0145109D02*
X0190752D01*
X0190934Y0144928D01*
X0188915D02*
X0190934D01*
X0191681Y0144181D01*
X0104973Y0124972D02*
Y0128472D01*
X0106156Y0129656D01*
X0104255Y0136987D02*
X0106631Y0134610D01*
X0103950Y0136987D02*
X0104255D01*
X0103374Y0137563D02*
X0103950Y0136987D01*
X0121500Y0141500D02*
X0122665D01*
X0118727Y0141483D02*
Y0142780D01*
X0122665Y0141500D02*
X0122673Y0141492D01*
X0116392Y0139148D02*
X0118727Y0141483D01*
X0194383Y0143817D02*
X0196010Y0142190D01*
Y0142190D02*
Y0142190D01*
X0191681Y0144181D02*
X0192044Y0143817D01*
X0194383D01*
X0188811Y0145031D02*
X0188915Y0144928D01*
X0188811Y0145031D02*
Y0145300D01*
Y0147000D01*
X0193500Y0145800D02*
X0197000D01*
X0196653Y0127153D02*
Y0128653D01*
X0193394Y0141095D02*
X0193500Y0141200D01*
X0197000Y0137200D02*
Y0141200D01*
D15*
X0165876Y0143093D02*
X0166469Y0142500D01*
X0167500D01*
X0151733Y0148267D02*
Y0148652D01*
X0142986Y0149741D02*
X0150644D01*
X0151733Y0148652D01*
Y0148267D02*
X0153000Y0147000D01*
X0177769Y0128769D02*
Y0128963D01*
X0178167Y0129362D02*
Y0133580D01*
X0177769Y0133979D02*
X0178167Y0133580D01*
X0177769Y0128963D02*
X0178167Y0129362D01*
X0176974Y0133500D02*
X0177267Y0133207D01*
X0175595Y0128063D02*
X0177267Y0129735D01*
Y0133207D01*
X0177769Y0133979D02*
Y0135500D01*
X0163500Y0125267D02*
X0165552D01*
X0174587Y0133500D02*
X0176974D01*
X0162848Y0125267D02*
X0163500D01*
X0096852Y0143500D02*
X0097033D01*
X0097697Y0142836D01*
X0099842D01*
X0083927Y0139177D02*
X0084526Y0138577D01*
X0085062Y0138230D02*
X0085353D01*
X0083927Y0141180D02*
X0087781Y0145034D01*
X0084715Y0138577D02*
X0085062Y0138230D01*
X0084526Y0138577D02*
X0084715D01*
X0083927Y0139177D02*
Y0141180D01*
X0142958Y0149712D02*
X0142986Y0149741D01*
X0162000Y0132500D02*
X0163251Y0133751D01*
X0161922Y0132078D02*
Y0132422D01*
X0162000Y0132500D01*
X0178063Y0125563D02*
X0179634Y0127134D01*
X0178063Y0121437D02*
Y0125563D01*
Y0121437D02*
X0178500Y0121000D01*
X0153206Y0126267D02*
X0161848D01*
X0165552Y0125267D02*
X0166500Y0126215D01*
X0161848Y0126267D02*
X0162848Y0125267D01*
X0164200Y0128031D02*
Y0129754D01*
X0150316Y0129053D02*
X0152917Y0126453D01*
X0153021D02*
X0153206Y0126267D01*
X0152917Y0126453D02*
X0153021D01*
X0167448Y0128733D02*
X0172073D01*
X0169237Y0127437D02*
X0172095D01*
X0168800Y0127000D02*
X0169237Y0127437D01*
X0172743Y0128063D02*
X0175595D01*
X0172073Y0128733D02*
X0172743Y0128063D01*
X0172533Y0127000D02*
X0176000D01*
X0172095Y0127437D02*
X0172533Y0127000D01*
X0150316Y0133120D02*
X0151158Y0133962D01*
X0150316Y0129053D02*
Y0133120D01*
X0166500Y0126215D02*
Y0127785D01*
X0167448Y0128733D01*
X0152000Y0133962D02*
Y0135200D01*
X0151158Y0133962D02*
X0152000D01*
X0136257Y0149712D02*
X0142958D01*
X0175268Y0136000D02*
X0177269D01*
X0177769Y0135500D01*
X0176000Y0127000D02*
X0177769Y0128769D01*
X0169000Y0141000D02*
X0171615D01*
X0167500Y0142500D02*
X0168062Y0141937D01*
Y0141937D02*
X0169000Y0141000D01*
X0168062Y0141937D02*
Y0141937D01*
X0171615Y0141000D02*
X0172493Y0140122D01*
X0155114Y0139500D02*
X0155614Y0139000D01*
X0154814Y0139800D02*
X0155114Y0139500D01*
X0160800Y0127500D02*
X0163669D01*
X0125009Y0119509D02*
X0126000Y0120500D01*
X0124000Y0119509D02*
X0125009D01*
X0163669Y0127500D02*
X0164200Y0128031D01*
X0173268Y0134031D02*
X0174055D01*
X0174587Y0133500D01*
X0152000Y0139800D02*
X0152540Y0140340D01*
Y0141340D01*
X0154200Y0143000D01*
X0150000Y0143189D02*
X0150249Y0142940D01*
Y0141551D02*
Y0142940D01*
Y0141551D02*
X0152000Y0139800D01*
X0154814D01*
X0155614Y0139000D02*
X0155850D01*
X0164720Y0133751D02*
X0165000Y0134031D01*
X0163251Y0133751D02*
X0164720D01*
X0173268Y0136000D02*
X0175268D01*
X0164200Y0127000D02*
Y0128031D01*
Y0129754D02*
X0164541Y0130095D01*
X0165000D01*
X0177057Y0140122D02*
X0177961Y0139219D01*
X0172493Y0140122D02*
X0177057D01*
X0100835Y0141692D02*
Y0141842D01*
Y0141692D02*
X0100985D01*
X0099842Y0142836D02*
X0100835Y0141842D01*
X0095319Y0145034D02*
X0096852Y0143500D01*
X0100985Y0141692D02*
X0101177Y0141500D01*
X0102209D01*
X0087781Y0145034D02*
X0095319D01*
D16*
X0133611Y0145038D02*
X0138000Y0140650D01*
X0133611Y0145038D02*
Y0146292D01*
X0133953Y0146634D02*
Y0146693D01*
X0133611Y0146292D02*
X0133953Y0146634D01*
X0068673Y0120900D02*
X0075165D01*
X0047534Y0120600D02*
X0068373D01*
X0068673Y0120900D01*
X0047234D02*
X0047534Y0120600D01*
X0047214Y0120900D02*
X0047234D01*
X0108764Y0145774D02*
X0108991D01*
X0108902Y0145402D02*
X0108991Y0145491D01*
Y0145774D01*
X0043263Y0125009D02*
X0045413Y0122860D01*
Y0122721D02*
Y0122860D01*
X0046187Y0121926D02*
Y0121946D01*
X0045413Y0122721D02*
X0046187Y0121946D01*
X0038342Y0125009D02*
X0043263D01*
X0079887Y0121387D02*
X0080887Y0122387D01*
X0079419Y0121387D02*
X0079887D01*
X0096837Y0148034D02*
X0097000Y0148197D01*
X0094700Y0148034D02*
X0096837D01*
X0046000Y0141614D02*
Y0143500D01*
X0046500Y0145500D02*
X0048000D01*
X0046000Y0143500D02*
X0048000Y0145500D01*
X0048500D01*
X0039500Y0129278D02*
Y0130000D01*
Y0129278D02*
X0039639Y0129139D01*
X0147922Y0148050D02*
X0148343Y0147629D01*
X0050397Y0147500D02*
X0052000D01*
X0052487Y0147013D02*
X0055713D01*
X0052000Y0147500D02*
X0052487Y0147013D01*
X0055713D02*
X0057000Y0148300D01*
X0053009Y0145117D02*
X0053892Y0146000D01*
X0058165D01*
X0053009Y0143086D02*
Y0145117D01*
X0081011Y0134724D02*
X0082287Y0136000D01*
X0079172Y0134724D02*
X0081011D01*
X0077500Y0136397D02*
X0079172Y0134724D01*
X0077500Y0136397D02*
Y0136500D01*
X0082287Y0136000D02*
X0082500D01*
X0085500Y0131462D02*
Y0133380D01*
X0123965Y0140917D02*
X0124866D01*
X0123899Y0140983D02*
X0123965Y0140917D01*
X0123198Y0140983D02*
X0123899D01*
X0122689Y0141492D02*
X0123198Y0140983D01*
X0122673Y0141492D02*
X0122689D01*
X0162922Y0130975D02*
Y0130975D01*
X0162538Y0130591D02*
X0162922Y0130975D01*
X0161306Y0130591D02*
X0162538D01*
X0160606Y0131291D02*
X0161306Y0130591D01*
X0163332Y0131385D02*
X0163535D01*
X0162922Y0130975D02*
X0163332Y0131385D01*
X0158847Y0131291D02*
X0160606D01*
X0159800Y0137000D02*
X0161300Y0135500D01*
X0161500D02*
X0162000D01*
X0162500Y0136000D01*
X0161300Y0135500D02*
X0161500D01*
X0162500Y0136000D02*
X0165000D01*
X0051882Y0136500D02*
X0058227D01*
X0055487Y0138409D02*
Y0138440D01*
X0055311Y0138616D02*
X0055487Y0138440D01*
X0051000Y0137382D02*
X0051882Y0136500D01*
X0055217Y0138710D02*
X0055311Y0138616D01*
X0055217Y0138427D02*
Y0138710D01*
X0059062Y0139160D02*
Y0139523D01*
X0057964Y0138062D02*
X0059062Y0139160D01*
X0060987Y0139287D02*
X0062283Y0140583D01*
X0060987Y0138884D02*
Y0139287D01*
X0060116Y0138013D02*
X0060987Y0138884D01*
X0059713Y0138013D02*
X0060116D01*
X0059290Y0137591D02*
X0059713Y0138013D01*
X0059290Y0137563D02*
Y0137591D01*
X0058227Y0136500D02*
X0059290Y0137563D01*
X0042509Y0143094D02*
Y0143594D01*
X0042500Y0143604D02*
X0042509Y0143594D01*
X0178500Y0149500D02*
X0178943D01*
X0178500D02*
X0178657Y0149343D01*
X0177257Y0149187D02*
X0178500D01*
X0178657Y0149343D02*
X0178943Y0149500D01*
X0171545Y0149283D02*
X0177161D01*
X0177257Y0149187D01*
X0156705Y0129148D02*
X0158847Y0131291D01*
X0155700Y0127500D02*
X0156200Y0128000D01*
X0153213Y0127500D02*
X0155700D01*
X0151754Y0128959D02*
X0153213Y0127500D01*
X0124866Y0140917D02*
X0125217Y0140566D01*
Y0140483D02*
Y0140566D01*
Y0140483D02*
X0125417Y0140283D01*
X0126203D01*
X0148000Y0130500D02*
Y0131500D01*
X0146462Y0128962D02*
X0148000Y0130500D01*
X0117000Y0122500D02*
Y0123000D01*
X0112839Y0122661D02*
X0112879Y0122621D01*
X0151754Y0128959D02*
Y0132525D01*
X0143000Y0122948D02*
X0150544D01*
X0143000D02*
Y0123039D01*
X0184500Y0132500D02*
X0185000Y0132000D01*
X0186189D01*
X0185300Y0130000D02*
X0185820Y0130520D01*
Y0131631D01*
X0186189Y0132000D01*
X0188189Y0134000D01*
X0187189Y0132000D02*
X0188189Y0131000D01*
X0186189Y0132000D02*
X0187189D01*
X0191811Y0131000D02*
Y0134000D01*
X0163535Y0131385D02*
X0164213Y0132063D01*
X0157972Y0143187D02*
X0158613D01*
X0158800Y0143000D01*
X0173892Y0141593D02*
X0174003Y0141704D01*
X0175374Y0142654D02*
X0175725Y0143005D01*
X0174725Y0142235D02*
Y0142244D01*
X0175725Y0143005D02*
Y0143041D01*
X0174194Y0141704D02*
X0174725Y0142235D01*
X0175725Y0143041D02*
X0176016Y0143332D01*
X0177000D01*
X0174003Y0141704D02*
X0174194D01*
X0174725Y0142244D02*
X0175135Y0142654D01*
X0175374D01*
X0171217Y0148217D02*
Y0148673D01*
X0167187Y0144187D02*
X0171217Y0148217D01*
Y0148673D02*
X0171545Y0149000D01*
Y0149283D01*
X0170000Y0143300D02*
X0172400D01*
X0173000Y0142700D01*
X0169134Y0133047D02*
Y0133896D01*
X0167465Y0135564D02*
X0169134Y0133896D01*
X0166617Y0135564D02*
X0167465D01*
X0166472Y0135709D02*
X0166617Y0135564D01*
X0165291Y0135709D02*
X0166472D01*
X0165000Y0136000D02*
X0165291Y0135709D01*
X0147500Y0120217D02*
X0148816Y0118902D01*
X0168905Y0122000D02*
Y0122500D01*
X0061500Y0135200D02*
X0065000D01*
X0054855Y0132317D02*
X0056817D01*
X0059700Y0135200D02*
X0061500D01*
X0056817Y0132317D02*
X0059700Y0135200D01*
X0055627Y0138017D02*
X0057508D01*
X0057553Y0138062D02*
X0057964D01*
X0057508Y0138017D02*
X0057553Y0138062D01*
X0063217Y0141173D02*
Y0141173D01*
X0062283Y0140583D02*
X0062627D01*
X0063217Y0141173D01*
X0063952Y0141908D02*
X0066624D01*
X0067791Y0143075D01*
Y0144291D01*
X0063217Y0141173D02*
X0063952Y0141908D01*
X0046187Y0121926D02*
X0047214Y0120900D01*
X0075165D02*
X0077250Y0122986D01*
X0125500Y0129500D02*
X0127000D01*
X0111178Y0120409D02*
X0121909D01*
X0124000Y0122500D02*
X0133545D01*
X0121909Y0120409D02*
X0124000Y0122500D01*
X0133545D02*
X0135827Y0120217D01*
X0144970Y0128962D02*
X0146462D01*
X0164213Y0132063D02*
X0165000D01*
X0149182Y0147629D02*
X0150000Y0146811D01*
X0148343Y0147629D02*
X0149182D01*
X0168661Y0148661D02*
X0169000Y0149000D01*
Y0133181D02*
X0169134Y0133047D01*
X0155891Y0128250D02*
X0156705Y0129063D01*
Y0129148D01*
X0118936Y0124500D02*
X0120500D01*
X0121500Y0127720D02*
X0122677D01*
X0118744Y0124692D02*
Y0124965D01*
X0125110Y0126500D02*
X0127000D01*
X0032118Y0137382D02*
X0039500Y0130000D01*
X0135827Y0120217D02*
X0147500D01*
X0138500Y0126800D02*
X0139383Y0127683D01*
X0139753D01*
X0139962Y0127891D01*
X0140287D01*
X0141032Y0128636D01*
Y0128961D01*
X0150544Y0122948D02*
X0151189Y0122303D01*
X0143000Y0122845D02*
Y0122948D01*
X0138500Y0122200D02*
X0142355D01*
X0143000Y0122845D01*
X0104136Y0145636D02*
X0104965Y0144808D01*
X0112839Y0122661D02*
Y0124965D01*
X0116968Y0123032D02*
Y0124773D01*
X0116776Y0124965D02*
X0116968Y0124773D01*
X0108902Y0144256D02*
Y0145402D01*
X0100739Y0139532D02*
X0102209D01*
X0104965Y0144708D02*
Y0144808D01*
X0099635Y0140635D02*
X0100739Y0139532D01*
X0116968Y0123032D02*
X0117000Y0123000D01*
X0118744Y0124692D02*
X0118936Y0124500D01*
X0024673Y0128732D02*
X0024875D01*
X0025981Y0123219D02*
X0026700Y0122500D01*
X0025981Y0123219D02*
Y0124019D01*
X0025000Y0125000D02*
X0025981Y0124019D01*
X0025000Y0125000D02*
Y0125101D01*
X0024263Y0125839D02*
X0025000Y0125101D01*
X0024263Y0125839D02*
Y0128321D01*
X0024673Y0128732D01*
X0024875D02*
X0025848Y0129705D01*
X0027866D01*
X0056480Y0142917D02*
X0058666D01*
X0196300Y0136500D02*
X0197000Y0137200D01*
X0072190Y0149691D02*
X0082614D01*
X0068283Y0145783D02*
X0072190Y0149691D01*
X0064272Y0145783D02*
X0068283D01*
X0129945Y0134009D02*
X0135117D01*
X0077250Y0123212D02*
X0085500Y0131462D01*
X0077250Y0122986D02*
Y0123212D01*
X0182905Y0144316D02*
X0185000Y0142221D01*
X0047396Y0148500D02*
X0054500D01*
X0042500Y0143604D02*
X0047396Y0148500D01*
X0059544Y0145683D02*
X0064172D01*
X0059017Y0143269D02*
Y0145156D01*
X0070200Y0145000D02*
X0073690Y0148491D01*
X0064172Y0145683D02*
X0064272Y0145783D01*
X0059017Y0145156D02*
X0059544Y0145683D01*
X0059583Y0146883D02*
X0061000Y0148300D01*
X0059048Y0146883D02*
X0059583D01*
X0058165Y0146000D02*
X0059048Y0146883D01*
X0054276Y0140714D02*
X0056480Y0142917D01*
X0053791Y0140714D02*
X0054276D01*
X0052424Y0142500D02*
X0053009Y0143086D01*
X0048500Y0145604D02*
X0050397Y0147500D01*
X0048500Y0145500D02*
Y0145604D01*
X0055217Y0138427D02*
X0055627Y0138017D01*
X0097470Y0136147D02*
X0099799Y0133818D01*
X0078000Y0142500D02*
X0079500Y0144000D01*
X0081500D01*
Y0147000D02*
X0081642D01*
X0082142Y0146500D01*
X0083500D01*
X0051000Y0142500D02*
X0052424D01*
X0047500D02*
X0051000D01*
X0077904Y0148491D02*
X0082117D01*
X0073690D02*
X0077904D01*
X0109194Y0122394D02*
X0111178Y0120409D01*
X0094468Y0141532D02*
Y0142657D01*
X0099565Y0131850D02*
X0102016D01*
X0135117Y0134009D02*
X0136442Y0135335D01*
X0194000Y0124500D02*
X0196653Y0127153D01*
Y0128653D02*
X0197000Y0129000D01*
Y0129189D01*
X0136442Y0135835D02*
X0138000Y0137392D01*
X0136442Y0135335D02*
Y0135835D01*
X0094468Y0141532D02*
X0095392Y0140608D01*
Y0140373D02*
Y0140608D01*
Y0140373D02*
X0095509Y0140256D01*
Y0139883D02*
Y0140256D01*
Y0139883D02*
X0095746Y0139646D01*
Y0135668D02*
Y0139646D01*
X0082871Y0149434D02*
X0091000D01*
X0082614Y0149691D02*
X0082871Y0149434D01*
X0082374Y0148234D02*
X0094500D01*
X0082117Y0148491D02*
X0082374Y0148234D01*
X0038000Y0122000D02*
X0038500Y0122500D01*
X0039300D01*
X0039500D01*
X0054801Y0132264D02*
X0054855Y0132317D01*
X0044000Y0131500D02*
Y0132500D01*
X0067645Y0131114D02*
X0068073D01*
X0067000Y0130470D02*
X0067645Y0131114D01*
X0067000Y0130000D02*
Y0130470D01*
X0066000Y0129000D02*
X0067000Y0130000D01*
X0064500Y0129000D02*
X0066000D01*
X0197000Y0145000D02*
Y0145800D01*
X0097470Y0136147D02*
Y0136331D01*
X0095746Y0135668D02*
X0099565Y0131850D01*
X0096467Y0133443D02*
X0100030Y0129881D01*
X0093241Y0133443D02*
X0096467D01*
X0129705Y0134250D02*
X0129945Y0134009D01*
X0039000Y0145500D02*
X0039300Y0145800D01*
Y0147500D01*
X0026000Y0145500D02*
X0026700Y0146200D01*
Y0147500D01*
X0044197Y0139811D02*
X0044311D01*
X0042234Y0137883D02*
X0043198Y0138847D01*
X0044197Y0139811D02*
X0046000Y0141614D01*
X0043233Y0138847D02*
X0044197Y0139811D01*
X0043198Y0138847D02*
X0043233D01*
X0035833Y0122500D02*
X0038342Y0125009D01*
X0042234Y0134266D02*
X0044000Y0132500D01*
X0044311Y0139811D02*
X0046000Y0141500D01*
X0042234Y0134266D02*
Y0137883D01*
X0051000Y0132264D02*
X0054801D01*
X0083891Y0128156D02*
X0086920D01*
X0080887Y0125152D02*
X0083891Y0128156D01*
X0100393Y0122307D02*
X0103307D01*
X0104591Y0123591D01*
X0104772D01*
X0105000Y0123819D01*
Y0124000D01*
X0104965Y0124035D02*
X0105000Y0124000D01*
X0104965Y0124035D02*
Y0124965D01*
X0106933Y0120633D02*
Y0124965D01*
X0106800Y0120500D02*
X0106933Y0120633D01*
X0069673Y0145000D02*
X0070200D01*
X0069356Y0144683D02*
X0069673Y0145000D01*
X0068909Y0144291D02*
X0069300Y0144683D01*
X0067791Y0144291D02*
X0068909D01*
X0065591D02*
X0067791D01*
X0090531Y0136152D02*
X0093241Y0133443D01*
X0090531Y0136152D02*
Y0137343D01*
X0121689Y0129500D02*
X0125500D01*
X0058666Y0142917D02*
X0059017Y0143269D01*
X0086920Y0128156D02*
X0087076Y0128000D01*
X0080887Y0122387D02*
Y0125152D01*
X0087076Y0128000D02*
X0090500D01*
X0034700Y0122500D02*
X0035833D01*
X0027866Y0137382D02*
X0032118D01*
X0090500Y0128000D02*
X0091500Y0129000D01*
X0092650D01*
X0100030Y0129881D02*
X0102016D01*
X0099799Y0133818D02*
X0102016D01*
X0121500Y0129689D02*
X0121689Y0129500D01*
X0123221Y0126500D02*
X0125110D01*
X0122869Y0126851D02*
X0123221Y0126500D01*
X0122869Y0126851D02*
Y0127528D01*
X0122677Y0127720D02*
X0122869Y0127528D01*
X0102016Y0129881D02*
X0102209Y0129689D01*
X0102016Y0133818D02*
X0102209Y0133626D01*
X0102016Y0131850D02*
X0102209Y0131658D01*
X0046000Y0139000D02*
Y0141500D01*
Y0139000D02*
X0047548Y0137452D01*
X0050930D01*
X0051000Y0137382D01*
X0031300Y0122500D02*
X0034700D01*
X0053018Y0139941D02*
X0053791Y0140714D01*
X0061000Y0143700D02*
X0065000D01*
X0051000Y0139941D02*
X0053018D01*
D19*
X0168800Y0127000D02*
D03*
X0164200D02*
D03*
X0031300Y0122500D02*
D03*
X0026700D02*
D03*
X0192200Y0137047D02*
D03*
X0196800D02*
D03*
X0106800Y0120500D02*
D03*
X0102200D02*
D03*
X0180700Y0130000D02*
D03*
X0185300D02*
D03*
X0159800Y0137000D02*
D03*
X0155200D02*
D03*
X0159300Y0143500D02*
D03*
X0154700D02*
D03*
X0156200Y0128000D02*
D03*
X0160800D02*
D03*
X0039300Y0147500D02*
D03*
X0034700D02*
D03*
X0031300D02*
D03*
X0026700D02*
D03*
X0034700Y0122500D02*
D03*
X0039300D02*
D03*
D20*
X0138500Y0126800D02*
D03*
Y0122200D02*
D03*
X0150000Y0147300D02*
D03*
Y0142700D02*
D03*
X0065000Y0139800D02*
D03*
Y0135200D02*
D03*
X0173000Y0147300D02*
D03*
Y0142700D02*
D03*
X0152000Y0139800D02*
D03*
Y0135200D02*
D03*
X0170000Y0138700D02*
D03*
Y0143300D02*
D03*
X0197000Y0145800D02*
D03*
Y0141200D02*
D03*
X0126000Y0144300D02*
D03*
Y0139700D02*
D03*
X0129500D02*
D03*
Y0144300D02*
D03*
X0098500Y0127300D02*
D03*
Y0122700D02*
D03*
X0061500Y0135200D02*
D03*
Y0139800D02*
D03*
X0065000Y0148300D02*
D03*
Y0143700D02*
D03*
X0061000D02*
D03*
Y0148300D02*
D03*
X0057000D02*
D03*
Y0143700D02*
D03*
X0193500Y0145800D02*
D03*
Y0141200D02*
D03*
D32*
X0191811Y0134000D02*
D03*
X0188189D02*
D03*
X0191811Y0131000D02*
D03*
X0188189D02*
D03*
D63*
X0155309Y0130365D02*
D03*
D64*
X0131770Y0142730D02*
Y0143820D01*
Y0142730D02*
X0131883Y0142617D01*
X0135750Y0147217D02*
X0135890Y0147077D01*
X0136049Y0148880D02*
X0139132Y0145798D01*
X0132231Y0148880D02*
X0136049D01*
X0139132Y0143053D02*
Y0145798D01*
X0135906Y0147094D02*
X0138132Y0144868D01*
X0134527Y0148080D02*
X0134896Y0147712D01*
X0131938Y0148587D02*
X0132231Y0148880D01*
X0132314Y0147016D02*
X0133378Y0148080D01*
X0134527D01*
X0131016Y0147016D02*
X0132314D01*
X0134896Y0147712D02*
X0135288D01*
X0135750Y0147217D02*
Y0147250D01*
X0131000Y0147000D02*
X0131016Y0147016D01*
X0128579Y0142617D02*
X0131883D01*
X0130117Y0141383D02*
X0130831D01*
X0131183Y0141031D01*
Y0140134D02*
Y0141031D01*
Y0140134D02*
X0131977Y0139339D01*
X0129683Y0141817D02*
X0130117Y0141383D01*
X0128911Y0141817D02*
X0129683D01*
X0163445Y0143093D02*
X0165876D01*
X0163136Y0143402D02*
X0163445Y0143093D01*
X0162598Y0143402D02*
X0163136D01*
X0159000Y0147000D02*
X0162598Y0143402D01*
X0153000Y0147000D02*
X0159000D01*
X0113000Y0144417D02*
Y0148182D01*
X0102172Y0148416D02*
X0112766D01*
X0111108Y0146232D02*
X0111613Y0146737D01*
X0112839Y0144256D02*
X0113000Y0144417D01*
X0112766Y0148416D02*
X0113000Y0148182D01*
X0111613Y0146737D02*
Y0147029D01*
X0069046Y0120000D02*
X0088331D01*
X0046730Y0119000D02*
X0046830Y0118900D01*
X0069077D02*
X0069177Y0119000D01*
X0047061Y0119800D02*
X0047161Y0119700D01*
X0068746D01*
X0069046Y0120000D01*
X0069177Y0119000D02*
X0088745D01*
X0046830Y0118900D02*
X0069077D01*
X0047907Y0121500D02*
X0068000D01*
X0043380Y0119800D02*
X0047061D01*
X0040500Y0119000D02*
X0046730D01*
X0041795Y0121386D02*
X0043380Y0119800D01*
X0046313Y0123094D02*
X0047907Y0121500D01*
X0068000D02*
X0070000Y0123500D01*
X0049682Y0123000D02*
X0050182Y0123500D01*
X0047925Y0122613D02*
X0049075D01*
X0049462Y0123000D02*
X0049682D01*
X0049075Y0122613D02*
X0049462Y0123000D01*
X0047113Y0123425D02*
X0047925Y0122613D01*
X0108410Y0146446D02*
Y0146581D01*
X0108764Y0145774D02*
Y0146092D01*
X0108410Y0146446D02*
X0108764Y0146092D01*
X0107600Y0147391D02*
X0108410Y0146581D01*
X0044691Y0126126D02*
X0047113Y0123704D01*
X0043576Y0126109D02*
X0046313Y0123372D01*
Y0123094D02*
Y0123372D01*
X0047113Y0123425D02*
Y0123704D01*
X0039891Y0126109D02*
X0043576D01*
X0050182Y0123500D02*
X0050500D01*
X0095941Y0146809D02*
X0099929D01*
X0100510Y0147391D01*
X0116841Y0147329D02*
X0119957D01*
X0116825Y0147313D02*
X0116841Y0147329D01*
X0119957D02*
X0124669Y0142617D01*
X0122269Y0148648D02*
X0122716Y0148202D01*
X0121887Y0146613D02*
X0124868D01*
X0118913Y0149587D02*
X0121887Y0146613D01*
X0122500Y0148000D02*
Y0148418D01*
X0122269Y0148648D02*
X0122500Y0148418D01*
X0111344Y0149587D02*
X0118913D01*
X0120500Y0144000D02*
X0120507Y0144007D01*
X0122716Y0148000D02*
Y0148202D01*
X0178619Y0134331D02*
Y0137431D01*
X0178819Y0137631D01*
X0037500Y0128500D02*
Y0129966D01*
Y0128500D02*
X0039891Y0126109D01*
X0035203Y0132264D02*
X0037500Y0129966D01*
X0141500Y0146615D02*
Y0147544D01*
X0175484Y0131923D02*
Y0132016D01*
X0175469Y0132032D02*
X0175484Y0132016D01*
X0178619Y0128611D02*
X0179017Y0129010D01*
X0178619Y0134331D02*
X0179017Y0133932D01*
Y0129010D02*
Y0133932D01*
X0178619Y0127619D02*
Y0128611D01*
X0146789Y0133711D02*
X0147014Y0133486D01*
X0144480Y0138020D02*
X0145180D01*
X0146789Y0133711D02*
Y0134211D01*
X0141300Y0141200D02*
X0144480Y0138020D01*
X0145180D02*
X0145993Y0137207D01*
Y0135008D02*
X0146789Y0134211D01*
X0145993Y0135008D02*
Y0137207D01*
X0143858Y0136769D02*
X0144468D01*
X0144605Y0136632D01*
X0079788Y0136212D02*
Y0137566D01*
X0073736Y0133713D02*
X0082175D01*
X0073500Y0133948D02*
X0073736Y0133713D01*
X0082175D02*
X0084000Y0135538D01*
Y0137749D01*
X0083077Y0138672D02*
Y0138846D01*
Y0138672D02*
X0084000Y0137749D01*
X0082536Y0139387D02*
X0083077Y0138846D01*
X0084697Y0134767D02*
X0088121D01*
X0082539Y0132609D02*
X0084697Y0134767D01*
X0071876Y0132609D02*
X0082539D01*
X0088121Y0134767D02*
X0088888Y0134000D01*
X0089000D01*
X0082536Y0139387D02*
Y0141345D01*
X0138132Y0142922D02*
X0139700Y0141354D01*
Y0139575D02*
Y0141354D01*
X0138900Y0139244D02*
Y0141022D01*
X0139132Y0143053D02*
X0140500Y0141685D01*
X0138000Y0137392D02*
Y0140650D01*
X0140500Y0139907D02*
Y0141685D01*
X0138132Y0142922D02*
Y0144868D01*
X0135923Y0143999D02*
Y0144830D01*
X0135288Y0147712D02*
X0135750Y0147250D01*
X0135757Y0144996D02*
X0135923Y0144830D01*
Y0143999D02*
X0138900Y0141022D01*
X0129000Y0147000D02*
X0130381D01*
X0130691Y0147309D01*
X0126842Y0148587D02*
X0131938D01*
X0125018Y0149712D02*
X0136257D01*
X0130691Y0147309D02*
X0131000Y0147000D01*
X0124868Y0146613D02*
X0126842Y0148587D01*
X0123305Y0148000D02*
X0125018Y0149712D01*
X0128906Y0141813D02*
X0128911Y0141817D01*
X0127094Y0141813D02*
X0128906D01*
X0127089Y0141817D02*
X0127094Y0141813D01*
X0124337Y0141817D02*
X0127089D01*
X0128575Y0142613D02*
X0128579Y0142617D01*
X0127425Y0142613D02*
X0128575D01*
X0127421Y0142617D02*
X0127425Y0142613D01*
X0124669Y0142617D02*
X0127421D01*
X0123563Y0142592D02*
X0124337Y0141817D01*
X0160216Y0133495D02*
X0160484Y0133227D01*
Y0133500D01*
X0177150Y0126150D02*
X0178619Y0127619D01*
X0173650Y0126150D02*
X0177150D01*
X0063113Y0137113D02*
X0064352Y0138352D01*
X0060113Y0137113D02*
X0063113D01*
X0057823Y0134823D02*
X0060113Y0137113D01*
X0141132Y0146248D02*
X0141500Y0146615D01*
X0141132Y0143234D02*
Y0146248D01*
Y0143234D02*
X0141300Y0143066D01*
Y0141200D02*
Y0143066D01*
X0142520Y0143808D02*
X0143048Y0144337D01*
X0158867Y0127705D02*
X0160595D01*
X0160800Y0127500D01*
X0157825Y0125417D02*
X0160743Y0122500D01*
X0152854Y0125417D02*
X0157825D01*
X0165614Y0118803D02*
X0168811Y0122000D01*
X0149852Y0118803D02*
X0165614D01*
X0185500Y0135000D02*
X0185745D01*
X0185988Y0135242D01*
X0180407D02*
X0185988D01*
X0180172Y0135477D02*
X0180407Y0135242D01*
X0131977Y0139339D02*
X0134615D01*
X0134705Y0139250D01*
X0122925Y0136887D02*
X0124613D01*
X0122909Y0136871D02*
X0122925Y0136887D01*
X0122192Y0136871D02*
X0122909D01*
X0121500Y0137563D02*
X0122192Y0136871D01*
X0124613Y0136887D02*
X0125000Y0136500D01*
X0121500Y0133626D02*
X0124874D01*
X0108951Y0122637D02*
X0109078Y0122509D01*
X0109194Y0122394D01*
X0170000Y0122500D02*
X0173650Y0126150D01*
X0174789Y0129500D02*
X0175000D01*
X0152668Y0125603D02*
X0152854Y0125417D01*
X0145763Y0125603D02*
X0152668D01*
X0152940Y0124200D02*
X0153700D01*
X0152337Y0124803D02*
X0152940Y0124200D01*
X0160743Y0122500D02*
X0163000D01*
X0145431Y0124803D02*
X0152337D01*
X0143048Y0143909D02*
Y0144337D01*
X0180172Y0135477D02*
Y0136828D01*
X0180700Y0128200D02*
Y0130000D01*
X0179634Y0127134D02*
X0180700Y0128200D01*
X0173268Y0130095D02*
X0173658Y0129704D01*
X0174585D02*
X0174789Y0129500D01*
X0173658Y0129704D02*
X0174585D01*
X0173268Y0132063D02*
X0173299Y0132032D01*
X0175469D01*
X0158000Y0135786D02*
X0159152Y0134634D01*
X0158000Y0135786D02*
Y0139000D01*
X0027866Y0132264D02*
X0035203D01*
X0172480Y0136000D02*
X0173268D01*
X0172090Y0136391D02*
X0172480Y0136000D01*
X0172090Y0136391D02*
Y0136610D01*
X0170000Y0138700D02*
X0172090Y0136610D01*
X0149753Y0118902D02*
X0149852Y0118803D01*
X0148816Y0118902D02*
X0149753D01*
X0051000Y0134823D02*
X0057823D01*
X0064352Y0139152D02*
X0065000Y0139800D01*
X0064352Y0138352D02*
Y0139152D01*
X0039702Y0119798D02*
X0040500Y0119000D01*
X0088745D02*
X0092500Y0122755D01*
X0088331Y0120000D02*
X0090500Y0122169D01*
X0144700Y0139800D02*
X0152000D01*
X0143000Y0141500D02*
X0144700Y0139800D01*
X0138900Y0139244D02*
X0142322Y0135822D01*
X0142322D01*
X0142667Y0135477D01*
X0143124Y0127111D02*
X0145431Y0124803D01*
X0152000Y0135200D02*
X0152048Y0135248D01*
X0153448D01*
X0155200Y0137000D01*
X0159182Y0134634D02*
X0160216Y0133600D01*
Y0133495D02*
Y0133600D01*
X0159152Y0134634D02*
X0159182D01*
X0159000Y0140000D02*
X0162150D01*
X0158000Y0139000D02*
X0159000Y0140000D01*
X0144275Y0127091D02*
X0145763Y0125603D01*
X0143124Y0127111D02*
Y0130432D01*
X0143000Y0130555D02*
Y0132500D01*
Y0130555D02*
X0143124Y0130432D01*
X0142667Y0133333D02*
X0143084Y0132916D01*
Y0132584D02*
Y0132916D01*
X0143000Y0132500D02*
X0143084Y0132584D01*
X0142667Y0133333D02*
Y0135477D01*
X0142435Y0138191D02*
X0143858Y0136769D01*
X0144275Y0127091D02*
X0144275D01*
X0143924Y0127442D02*
X0144275Y0127091D01*
X0139700Y0139575D02*
X0144500Y0134775D01*
X0143924Y0127442D02*
Y0130479D01*
X0144500Y0131055D02*
Y0134775D01*
X0143924Y0130479D02*
X0144500Y0131055D01*
X0142215Y0138191D02*
X0142435D01*
X0140500Y0139907D02*
X0142215Y0138191D01*
X0143000Y0143861D02*
X0143048Y0143909D01*
X0143000Y0141500D02*
Y0143861D01*
X0124874Y0133626D02*
X0132212Y0126288D01*
X0136444Y0126800D02*
X0138500D01*
X0135932Y0126288D02*
X0136444Y0126800D01*
X0132212Y0126288D02*
X0135932D01*
X0129275Y0120000D02*
X0133000D01*
X0125009Y0119509D02*
X0128785D01*
X0129275Y0120000D01*
X0110522Y0119509D02*
X0124000D01*
X0168905Y0122500D02*
X0170000D01*
X0037034Y0134967D02*
X0041500Y0130500D01*
X0037000Y0134967D02*
X0037034D01*
X0037000D02*
Y0148500D01*
X0108951Y0122637D02*
Y0124915D01*
X0117068Y0145729D02*
X0117266D01*
X0118003Y0146529D02*
X0119485D01*
X0116776Y0145437D02*
X0117068Y0145729D01*
X0117500Y0146026D02*
X0118003Y0146529D01*
X0116776Y0144256D02*
Y0145437D01*
X0108902Y0124965D02*
X0108951Y0124915D01*
X0091436Y0147134D02*
X0091536Y0147034D01*
X0079610Y0137745D02*
Y0139832D01*
Y0137745D02*
X0079788Y0137566D01*
X0120507Y0144007D02*
Y0145507D01*
X0100510Y0147391D02*
X0101146D01*
X0111108Y0144494D02*
Y0146232D01*
X0086911Y0147134D02*
X0091436D01*
X0079610Y0139832D02*
X0086911Y0147134D01*
X0104673Y0145000D02*
X0104965Y0144708D01*
X0117500Y0145964D02*
Y0146026D01*
X0094500Y0147034D02*
X0094643Y0146891D01*
X0119485Y0146529D02*
X0120507Y0145507D01*
X0091536Y0147034D02*
X0094500D01*
X0104000Y0145000D02*
X0104673D01*
X0117266Y0145729D02*
X0117500Y0145964D01*
X0094643Y0146891D02*
X0095860D01*
X0104965Y0144256D02*
Y0144708D01*
X0101146Y0147391D02*
X0102172Y0148416D01*
X0110870Y0144256D02*
X0111108Y0144494D01*
X0095860Y0146891D02*
X0095941Y0146809D01*
X0120507Y0145507D02*
X0123422Y0142592D01*
X0123563D01*
X0123148Y0148000D02*
X0123305D01*
X0045491Y0127009D02*
Y0132565D01*
X0043019Y0130500D02*
X0044281Y0129238D01*
X0041500Y0130500D02*
X0043019D01*
X0044281Y0128219D02*
Y0129238D01*
X0045491Y0127009D02*
X0048500Y0124000D01*
X0044000Y0134056D02*
X0045491Y0132565D01*
X0073500Y0133948D02*
Y0134000D01*
X0069500Y0134985D02*
X0071876Y0132609D01*
X0069500Y0134985D02*
Y0136112D01*
X0044691Y0126126D02*
Y0127809D01*
X0044281Y0128219D02*
X0044691Y0127809D01*
X0059865Y0125865D02*
Y0129046D01*
X0058500Y0124500D02*
X0059865Y0125865D01*
X0095585Y0146034D02*
X0095729Y0145891D01*
X0100424D01*
X0073500Y0134000D02*
X0075000Y0135500D01*
X0092650Y0129000D02*
X0093650Y0130000D01*
X0097500D01*
X0051000Y0142500D02*
Y0146000D01*
X0023358Y0132858D02*
X0025323Y0134823D01*
X0023358Y0122546D02*
Y0132858D01*
X0077904Y0148491D02*
X0078500Y0147895D01*
Y0146500D02*
Y0147895D01*
X0025452Y0120452D02*
X0026105Y0119798D01*
X0023358Y0122546D02*
X0025452Y0120452D01*
X0109532Y0120500D02*
X0110522Y0119509D01*
X0025163Y0138068D02*
X0025848Y0137382D01*
X0027866D01*
X0106800Y0120500D02*
X0109532D01*
X0100424Y0145891D02*
X0100924Y0146391D01*
X0082536Y0141345D02*
X0087325Y0146134D01*
X0026105Y0119798D02*
X0039702D01*
X0087325Y0146134D02*
X0091022D01*
X0094500Y0148234D02*
X0094700Y0148034D01*
X0091122Y0146034D02*
X0095585D01*
X0100924Y0146391D02*
X0101891D01*
X0091022Y0146134D02*
X0091122Y0146034D01*
X0102891Y0147391D02*
X0107600D01*
X0101891Y0146391D02*
X0102891Y0147391D01*
X0070000Y0123500D02*
Y0129500D01*
X0070712Y0130212D01*
X0073212D01*
X0074000Y0131000D01*
X0044000Y0134056D02*
Y0135000D01*
X0090500Y0122169D02*
Y0124000D01*
X0092500Y0122755D02*
Y0124000D01*
X0179781Y0139219D02*
X0180206Y0138794D01*
Y0136974D02*
Y0138794D01*
X0180116Y0136884D02*
X0180206Y0136974D01*
X0178609Y0140465D02*
X0180500D01*
X0178375Y0140699D02*
X0178609Y0140465D01*
X0178375Y0140699D02*
Y0140972D01*
X0177984Y0141363D02*
X0178375Y0140972D01*
X0177000Y0141363D02*
X0177984D01*
X0180500Y0140465D02*
X0180842Y0140122D01*
X0180877D01*
X0180116Y0136884D02*
X0180172Y0136828D01*
X0177961Y0139219D02*
X0179781D01*
X0182047Y0137500D02*
Y0138953D01*
X0180877Y0140122D02*
X0182047Y0138953D01*
X0069500Y0137617D02*
Y0141500D01*
X0069405Y0137522D02*
X0069500Y0137617D01*
X0069405Y0136207D02*
Y0137522D01*
Y0136207D02*
X0069500Y0136112D01*
X0069300Y0144683D02*
X0069356D01*
X0065000Y0143700D02*
X0065591Y0144291D01*
X0091154Y0149587D02*
X0111344D01*
X0091000Y0149434D02*
X0091154Y0149587D01*
X0025323Y0134823D02*
X0027677D01*
D66*
X0174716Y0122000D02*
D03*
X0168811D02*
D03*
X0151094Y0121803D02*
D03*
X0157000Y0122000D02*
D03*
X0162906D02*
D03*
D67*
X0166000Y0139291D02*
D03*
Y0147291D02*
D03*
X0146000Y0143291D02*
D03*
D68*
X0085405Y0124500D02*
D03*
X0073594D02*
D03*
D69*
X0139705Y0134250D02*
D03*
X0134705Y0139250D02*
D03*
X0129705Y0134250D02*
D03*
X0134705Y0129250D02*
D03*
D70*
X0184000Y0124500D02*
D03*
D71*
X0194000D02*
D03*
D72*
X0083500Y0146500D02*
D03*
X0075000Y0135500D02*
D03*
X0097500Y0130000D02*
D03*
X0078000Y0142500D02*
D03*
X0046500Y0145500D02*
D03*
X0051000Y0146000D02*
D03*
X0123148Y0148000D02*
D03*
X0025000Y0125000D02*
D03*
X0078500Y0146500D02*
D03*
X0131000Y0147000D02*
D03*
X0125110Y0126500D02*
D03*
X0125500Y0129500D02*
D03*
X0098635Y0134983D02*
D03*
X0133000Y0120000D02*
D03*
X0131770Y0143820D02*
D03*
X0135890Y0147077D02*
D03*
X0133953Y0146693D02*
D03*
X0167730Y0144583D02*
D03*
X0162495Y0142014D02*
D03*
X0114856Y0145894D02*
D03*
X0111613Y0147029D02*
D03*
X0054500Y0123000D02*
D03*
X0106803Y0146003D02*
D03*
X0108764Y0145774D02*
D03*
X0079419Y0121387D02*
D03*
X0097000Y0148197D02*
D03*
X0116825Y0147313D02*
D03*
X0122500Y0148000D02*
D03*
X0120500Y0144000D02*
D03*
X0099000Y0138344D02*
D03*
X0178819Y0137631D02*
D03*
X0157500Y0143500D02*
D03*
X0153901Y0148387D02*
D03*
X0039639Y0129139D02*
D03*
X0147922Y0148050D02*
D03*
X0141500Y0147544D02*
D03*
X0175484Y0131923D02*
D03*
X0144605Y0136632D02*
D03*
X0096500Y0142000D02*
D03*
X0079788Y0136212D02*
D03*
X0082500Y0136000D02*
D03*
X0085353Y0138230D02*
D03*
X0085500Y0133380D02*
D03*
X0135757Y0144996D02*
D03*
X0129000Y0147000D02*
D03*
X0123500Y0139430D02*
D03*
X0161922Y0132078D02*
D03*
X0160484Y0133500D02*
D03*
X0161500Y0135500D02*
D03*
X0179500Y0124500D02*
D03*
X0055487Y0138409D02*
D03*
X0059062Y0139523D02*
D03*
X0142520Y0143808D02*
D03*
X0042509Y0143094D02*
D03*
X0178500Y0149500D02*
D03*
X0160500Y0124830D02*
D03*
X0158867Y0127705D02*
D03*
X0153957Y0124030D02*
D03*
X0171500Y0126000D02*
D03*
X0185500Y0135000D02*
D03*
X0128000Y0144000D02*
D03*
X0123147Y0135306D02*
D03*
X0125000Y0136500D02*
D03*
X0126500Y0138155D02*
D03*
X0148000Y0131500D02*
D03*
X0149000Y0134000D02*
D03*
X0147014Y0133486D02*
D03*
X0197000Y0134000D02*
D03*
X0189925Y0145109D02*
D03*
X0109078Y0122509D02*
D03*
X0117000Y0122500D02*
D03*
X0112879Y0122621D02*
D03*
X0175000Y0129500D02*
D03*
X0151754Y0132525D02*
D03*
X0184500Y0132500D02*
D03*
X0185500Y0140500D02*
D03*
X0157209Y0134500D02*
D03*
X0178500Y0121000D02*
D03*
X0173892Y0141593D02*
D03*
X0127000Y0129500D02*
D03*
X0126000Y0120500D02*
D03*
X0125500Y0124000D02*
D03*
X0162500Y0149000D02*
D03*
X0169000D02*
D03*
X0127000Y0126500D02*
D03*
X0120500Y0124500D02*
D03*
X0107500Y0129656D02*
D03*
X0110500Y0139155D02*
D03*
X0113500Y0134500D02*
D03*
X0099448Y0140412D02*
D03*
X0116375Y0139164D02*
D03*
X0113500Y0129656D02*
D03*
X0110500Y0134500D02*
D03*
X0116500D02*
D03*
X0110500Y0129656D02*
D03*
X0116375Y0129664D02*
D03*
X0123000Y0131500D02*
D03*
X0104000Y0145000D02*
D03*
X0113500Y0139155D02*
D03*
X0107500D02*
D03*
Y0134155D02*
D03*
X0191000Y0134000D02*
D03*
X0054500Y0148500D02*
D03*
X0044500D02*
D03*
X0050500Y0123500D02*
D03*
X0048500Y0124000D02*
D03*
X0056500Y0127000D02*
D03*
X0098674Y0144326D02*
D03*
X0081000Y0138500D02*
D03*
X0063500Y0148500D02*
D03*
X0081500Y0147000D02*
D03*
X0041795Y0121386D02*
D03*
X0038000Y0122000D02*
D03*
X0059865Y0129046D02*
D03*
X0058500Y0124500D02*
D03*
X0081500Y0144000D02*
D03*
X0044000Y0131500D02*
D03*
X0077500Y0136500D02*
D03*
X0073500Y0134000D02*
D03*
X0080500Y0131000D02*
D03*
X0076000Y0138000D02*
D03*
X0068073Y0131114D02*
D03*
X0197000Y0145000D02*
D03*
X0097470Y0136331D02*
D03*
X0039000Y0145500D02*
D03*
X0026000D02*
D03*
X0037000Y0148500D02*
D03*
X0044000Y0135000D02*
D03*
X0047500Y0142500D02*
D03*
X0090500Y0124000D02*
D03*
X0092500D02*
D03*
X0100000Y0125500D02*
D03*
X0047000Y0130000D02*
D03*
X0086500Y0141500D02*
D03*
X0032500Y0143000D02*
D03*
X0069500Y0141500D02*
D03*
X0089000Y0134000D02*
D03*
X0074000Y0131000D02*
D03*
D73*
X0033000Y0129500D02*
D03*
X0042500Y0128500D02*
D03*
D74*
X0044500Y0121500D02*
D03*
D75*
X0186000Y0124500D02*
X0189947Y0128447D01*
D76*
X0143500Y0123039D02*
D03*
X0145468Y0128961D02*
D03*
X0141532D02*
D03*
D77*
X0188500Y0138000D02*
D03*
X0182595D02*
D03*
D78*
X0169134Y0133047D02*
D03*
D79*
X0173268Y0130095D02*
D03*
Y0132063D02*
D03*
Y0134031D02*
D03*
Y0136000D02*
D03*
X0165000D02*
D03*
Y0134031D02*
D03*
Y0132063D02*
D03*
Y0130095D02*
D03*
D80*
X0155850Y0140000D02*
D03*
X0162150D02*
D03*
D81*
X0188811Y0147269D02*
D03*
Y0145300D02*
D03*
Y0143332D02*
D03*
Y0141363D02*
D03*
X0177000D02*
D03*
Y0143332D02*
D03*
Y0145300D02*
D03*
Y0147269D02*
D03*
D82*
X0182905Y0144316D02*
D03*
D83*
X0102209Y0127720D02*
D03*
Y0129689D02*
D03*
Y0131658D02*
D03*
Y0133626D02*
D03*
Y0135594D02*
D03*
Y0137563D02*
D03*
Y0139532D02*
D03*
Y0141500D02*
D03*
X0121500D02*
D03*
Y0139532D02*
D03*
Y0137563D02*
D03*
Y0135594D02*
D03*
Y0133626D02*
D03*
Y0131658D02*
D03*
Y0129689D02*
D03*
Y0127720D02*
D03*
D84*
X0104965Y0144256D02*
D03*
X0106933D02*
D03*
X0108902D02*
D03*
X0110870D02*
D03*
X0112839D02*
D03*
X0114807D02*
D03*
X0116776D02*
D03*
X0118744D02*
D03*
Y0124965D02*
D03*
X0116776D02*
D03*
X0114807D02*
D03*
X0112839D02*
D03*
X0110870D02*
D03*
X0108902D02*
D03*
X0106933D02*
D03*
X0104965D02*
D03*
D85*
X0111854Y0134610D02*
D03*
D86*
X0089531Y0142657D02*
D03*
Y0137343D02*
D03*
X0093468D02*
D03*
Y0142657D02*
D03*
D87*
X0051000Y0142500D02*
D03*
Y0139941D02*
D03*
Y0137382D02*
D03*
Y0134823D02*
D03*
Y0132264D02*
D03*
Y0129705D02*
D03*
Y0127146D02*
D03*
X0027866D02*
D03*
Y0129705D02*
D03*
Y0132264D02*
D03*
Y0134823D02*
D03*
Y0137382D02*
D03*
Y0139941D02*
D03*
Y0142500D02*
D03*
D88*
X0197000Y0129189D02*
D03*
Y0132811D02*
D03*
D89*
X0092650Y0129000D02*
D03*
X0064500D02*
D03*
D90*
X0194500Y0129373D02*
Y0133000D01*
X0193680Y0128553D02*
X0194500Y0129373D01*
X0190053Y0128553D02*
X0193680D01*
X0189947Y0128447D02*
X0190053Y0128553D01*
D91*
X0184000Y0124500D02*
X0186000D01*
M02*
