M48
;Layer_Color=9474304
;FILE_FORMAT=2:4
INCH
;TYPE=PLATED
T1F00S00C0.0100
T2F00S00C0.0118
T3F00S00C0.0276
T4F00S00C0.0280
T5F00S00C0.0315
T6F00S00C0.0354
T7F00S00C0.0413
T8F00S00C0.0709
%
T01
X004200Y006300
X005200Y005850
X005750Y005700
X006450Y006350
X005050Y007550
X009950Y005800
T02
X011750Y007450
X011450Y008000
X014300Y007650
T03
X013627Y005475
X015595
T04
X005800Y004250
X006000Y004900
X005600Y006500
X007300Y006950
X008300Y004150
X010900Y006000
X011100Y007400
X012300Y006600
T05
X014296Y005396
X014926
X015241Y005947
X014611
X013981
T06
X009800Y003300
X010979Y003223
X015750Y002900
Y003900
T07
X007771Y008113
X008771
T08
X006274Y007507
M30
