G04*
G04 #@! TF.GenerationSoftware,Altium Limited,Altium Designer,20.0.13 (296)*
G04*
G04 Layer_Color=65280*
%FSAX25Y25*%
%MOIN*%
G70*
G01*
G75*
%ADD10C,0.00984*%
%ADD11C,0.00394*%
%ADD12C,0.01000*%
%ADD13C,0.00787*%
%ADD14C,0.00800*%
%ADD15C,0.00500*%
%ADD16C,0.00600*%
%ADD108C,0.00512*%
D10*
X0164114Y0127535D02*
G03*
X0164114Y0127535I-0000492J0000000D01*
G01*
X0188492Y0149500D02*
G03*
X0188492Y0149500I-0000492J0000000D01*
G01*
X0101028Y0124768D02*
G03*
X0101028Y0124768I-0000492J0000000D01*
G01*
D11*
X0095831Y0142756D02*
G03*
X0096224Y0142756I0000197J0000000D01*
G01*
D02*
G03*
X0095831Y0142756I-0000197J0000000D01*
G01*
D12*
X0166499Y0126000D02*
Y0128000D01*
X0149000Y0144999D02*
X0151000D01*
X0180500Y0119000D02*
Y0122000D01*
X0192500Y0120000D02*
X0195500D01*
X0179000Y0120500D02*
X0182000D01*
X0196000Y0143499D02*
X0198000D01*
X0125000Y0141999D02*
X0127000D01*
X0128500Y0142001D02*
X0130500D01*
X0097500Y0124999D02*
X0099500D01*
X0060500Y0137499D02*
X0062500D01*
X0064000Y0146001D02*
X0066000D01*
X0060000Y0145999D02*
X0062000D01*
X0056000Y0146001D02*
X0058000D01*
X0037001Y0146500D02*
Y0148500D01*
X0029001Y0146500D02*
Y0148500D01*
X0036999Y0121500D02*
Y0123500D01*
X0192500Y0143499D02*
X0194500D01*
D13*
X0097866Y0128606D02*
G03*
X0097866Y0129394I0000000J0000394D01*
G01*
D02*
G03*
X0097866Y0128606I0000000J-0000394D01*
G01*
X0139602Y0127693D02*
Y0130232D01*
X0140350Y0126315D02*
X0146650D01*
Y0125685D02*
Y0126315D01*
X0140350Y0125685D02*
X0146650D01*
X0140350D02*
Y0126315D01*
X0179445Y0141248D02*
X0188500D01*
X0179445Y0134752D02*
Y0141248D01*
Y0134752D02*
X0188500D01*
X0154787Y0138425D02*
X0161362D01*
X0156638Y0141575D02*
X0161362D01*
X0032150Y0144665D02*
X0046716D01*
X0032150Y0124980D02*
Y0144665D01*
Y0124980D02*
X0046716D01*
Y0144665D01*
X0048094Y0144764D02*
X0053902D01*
D14*
X0104821Y0375557D02*
X0104830Y0377918D01*
X0103649Y0377923D01*
X0103254Y0377530D01*
X0103251Y0376743D01*
X0103643Y0376348D01*
X0104824Y0376344D01*
X0102459Y0375566D02*
X0102465Y0377140D01*
X0101681Y0377930D01*
X0100891Y0377146D01*
X0100885Y0375571D01*
X0100890Y0376752D01*
X0102464Y0376746D01*
X0100107Y0377936D02*
X0098532Y0377942D01*
X0099320Y0377939D01*
X0099311Y0375577D01*
X0097737Y0375583D02*
X0097745Y0377945D01*
X0096565Y0377949D01*
X0096170Y0377557D01*
X0096167Y0376770D01*
X0096559Y0376375D01*
X0097739Y0376370D01*
X0096952Y0376373D02*
X0096162Y0375589D01*
X0095384Y0377954D02*
X0094597Y0377956D01*
X0094990Y0377955D01*
X0094981Y0375593D01*
X0095375Y0375592D01*
X0094588Y0375595D01*
X0091840Y0377573D02*
X0092235Y0377965D01*
X0093023Y0377962D01*
X0093415Y0377567D01*
X0093409Y0375993D01*
X0093014Y0375601D01*
X0092226Y0375604D01*
X0091834Y0375999D01*
X0091055Y0377970D02*
X0091046Y0375608D01*
X0091049Y0376395D01*
X0089480Y0377976D01*
X0090657Y0376790D01*
X0089472Y0375614D01*
X0084756Y0377600D02*
X0085151Y0377992D01*
X0085938Y0377989D01*
X0086330Y0377594D01*
X0086325Y0376020D01*
X0085929Y0375627D01*
X0085142Y0375630D01*
X0084750Y0376025D01*
X0083970Y0377996D02*
X0083962Y0375635D01*
X0083966Y0376816D01*
X0082392Y0376821D01*
X0082396Y0378002D01*
X0082387Y0375641D01*
X0081609Y0378005D02*
X0081600Y0375644D01*
X0080816Y0376434D01*
X0080026Y0375649D01*
X0080035Y0378011D01*
X0079239Y0375652D02*
X0079245Y0377227D01*
X0078460Y0378017D01*
X0077670Y0377233D01*
X0077664Y0375658D01*
X0077669Y0376839D01*
X0079243Y0376833D01*
X0076886Y0378023D02*
X0076877Y0375661D01*
X0075303Y0375667D01*
X0072950Y0378037D02*
X0074525Y0378031D01*
X0074516Y0375670D01*
X0072942Y0375676D01*
X0074520Y0376851D02*
X0073733Y0376854D01*
X0072163Y0378040D02*
X0072154Y0375679D01*
X0072157Y0376466D01*
X0070589Y0378046D01*
X0071765Y0376861D01*
X0070580Y0375685D01*
X0104812Y0373164D02*
X0104803Y0370803D01*
X0103622Y0370807D01*
X0103230Y0371202D01*
X0103236Y0372777D01*
X0103631Y0373169D01*
X0104812Y0373164D01*
X0102442Y0370812D02*
X0102447Y0372386D01*
X0101663Y0373176D01*
X0100873Y0372392D01*
X0100867Y0370818D01*
X0100872Y0371998D01*
X0102446Y0371992D01*
X0100089Y0373182D02*
X0100083Y0371608D01*
X0099293Y0370824D01*
X0098509Y0371614D01*
X0098515Y0373188D01*
X0097728Y0373191D02*
X0096940Y0373194D01*
X0097334Y0373192D01*
X0097325Y0370831D01*
X0097719Y0370830D01*
X0096932Y0370832D01*
X0095760Y0373198D02*
X0095751Y0370837D01*
X0094570Y0370841D01*
X0094178Y0371236D01*
X0094184Y0372811D01*
X0094579Y0373203D01*
X0095760Y0373198D01*
X0091028Y0370854D02*
X0091037Y0373216D01*
X0089856Y0373220D01*
X0089461Y0372828D01*
X0089458Y0372041D01*
X0089850Y0371646D01*
X0091031Y0371642D01*
X0090244Y0371645D02*
X0089454Y0370860D01*
X0088667Y0370863D02*
X0088673Y0372438D01*
X0087888Y0373228D01*
X0087098Y0372444D01*
X0087092Y0370869D01*
X0087097Y0372050D01*
X0088671Y0372044D01*
X0086305Y0370872D02*
X0086314Y0373234D01*
X0085524Y0372449D01*
X0084740Y0373239D01*
X0084731Y0370878D01*
X0082377Y0372855D02*
X0082772Y0373247D01*
X0083559Y0373244D01*
X0083951Y0372849D01*
X0083950Y0372455D01*
X0083555Y0372063D01*
X0082767Y0372066D01*
X0082372Y0371674D01*
X0082371Y0371281D01*
X0082763Y0370885D01*
X0083550Y0370883D01*
X0083945Y0371275D01*
X0081582Y0370890D02*
X0081588Y0372464D01*
X0080804Y0373254D01*
X0080014Y0372470D01*
X0080008Y0370896D01*
X0080013Y0372077D01*
X0081587Y0372071D01*
X0079230Y0373260D02*
X0079228Y0372867D01*
X0078438Y0372082D01*
X0077654Y0372872D01*
X0077656Y0373266D01*
X0078438Y0372082D02*
X0078434Y0370902D01*
D15*
X0189000Y0129000D02*
X0194500D01*
X0189000Y0121873D02*
Y0129000D01*
X0194500Y0128963D02*
Y0136373D01*
X0175666Y0127833D02*
X0176083Y0128250D01*
X0176916D01*
X0177332Y0127833D01*
Y0126167D01*
X0176916Y0125750D01*
X0176083D01*
X0175666Y0126167D01*
X0173167Y0125750D02*
X0174833D01*
X0173167Y0127417D01*
Y0127833D01*
X0173583Y0128250D01*
X0174416D01*
X0174833Y0127833D01*
X0172334Y0126167D02*
X0171917Y0125750D01*
X0171084D01*
X0170668Y0126167D01*
Y0127833D01*
X0171084Y0128250D01*
X0171917D01*
X0172334Y0127833D01*
Y0127417D01*
X0171917Y0127000D01*
X0170668D01*
X0178665Y0139750D02*
Y0137250D01*
X0176999D01*
X0174500Y0139750D02*
X0176166D01*
Y0137250D01*
X0174500D01*
X0176166Y0138500D02*
X0175333D01*
X0173667Y0139750D02*
Y0137250D01*
X0172417D01*
X0172001Y0137667D01*
Y0139333D01*
X0172417Y0139750D01*
X0173667D01*
X0171168Y0137250D02*
X0170335D01*
X0170751D01*
Y0139750D01*
X0171168Y0139333D01*
X0163292Y0132366D02*
Y0129867D01*
X0162042D01*
X0161626Y0130283D01*
Y0131949D01*
X0162042Y0132366D01*
X0163292D01*
X0159126Y0129867D02*
X0160792D01*
X0159126Y0131533D01*
Y0131949D01*
X0159543Y0132366D01*
X0160376D01*
X0160792Y0131949D01*
X0167666Y0141844D02*
Y0144343D01*
X0166417D01*
X0166000Y0143926D01*
Y0143093D01*
X0166417Y0142677D01*
X0167666D01*
X0166833D02*
X0166000Y0141844D01*
X0165167D02*
X0164334D01*
X0164750D01*
Y0144343D01*
X0165167Y0143926D01*
X0161418Y0144343D02*
X0163084D01*
Y0143093D01*
X0162251Y0143510D01*
X0161835D01*
X0161418Y0143093D01*
Y0142260D01*
X0161835Y0141844D01*
X0162668D01*
X0163084Y0142260D01*
X0154124Y0126123D02*
Y0128623D01*
X0152874D01*
X0152458Y0128206D01*
Y0127373D01*
X0152874Y0126956D01*
X0154124D01*
X0153291D02*
X0152458Y0126123D01*
X0151625D02*
X0150792D01*
X0151208D01*
Y0128623D01*
X0151625Y0128206D01*
X0149542Y0128623D02*
X0147876D01*
Y0128206D01*
X0149542Y0126540D01*
Y0126123D01*
X0160124Y0146250D02*
Y0148750D01*
X0158874D01*
X0158458Y0148333D01*
Y0147500D01*
X0158874Y0147083D01*
X0160124D01*
X0159291D02*
X0158458Y0146250D01*
X0157625D02*
X0156792D01*
X0157208D01*
Y0148750D01*
X0157625Y0148333D01*
X0155542Y0146667D02*
X0155126Y0146250D01*
X0154293D01*
X0153876Y0146667D01*
Y0148333D01*
X0154293Y0148750D01*
X0155126D01*
X0155542Y0148333D01*
Y0147916D01*
X0155126Y0147500D01*
X0153876D01*
X0146750Y0134584D02*
X0149250D01*
Y0135834D01*
X0148833Y0136250D01*
X0148000D01*
X0147583Y0135834D01*
Y0134584D01*
Y0135417D02*
X0146750Y0136250D01*
Y0138750D02*
Y0137083D01*
X0148416Y0138750D01*
X0148833D01*
X0149250Y0138333D01*
Y0137500D01*
X0148833Y0137083D01*
X0146750Y0139583D02*
Y0140416D01*
Y0139999D01*
X0149250D01*
X0148833Y0139583D01*
X0160542Y0133250D02*
Y0135750D01*
X0159292D01*
X0158876Y0135333D01*
Y0134500D01*
X0159292Y0134083D01*
X0160542D01*
X0159709D02*
X0158876Y0133250D01*
X0156376D02*
X0158043D01*
X0156376Y0134916D01*
Y0135333D01*
X0156793Y0135750D01*
X0157626D01*
X0158043Y0135333D01*
X0155543D02*
X0155127Y0135750D01*
X0154294D01*
X0153877Y0135333D01*
Y0134916D01*
X0154294Y0134500D01*
X0154710D01*
X0154294D01*
X0153877Y0134083D01*
Y0133667D01*
X0154294Y0133250D01*
X0155127D01*
X0155543Y0133667D01*
X0177750Y0128876D02*
Y0129709D01*
Y0129293D01*
X0175250D01*
Y0128876D01*
Y0129709D01*
X0177333Y0132625D02*
X0177750Y0132208D01*
Y0131375D01*
X0177333Y0130959D01*
X0175667D01*
X0175250Y0131375D01*
Y0132208D01*
X0175667Y0132625D01*
X0177750Y0135124D02*
X0177333Y0134291D01*
X0176500Y0133458D01*
X0175667D01*
X0175250Y0133874D01*
Y0134707D01*
X0175667Y0135124D01*
X0176084D01*
X0176500Y0134707D01*
Y0133458D01*
X0146666Y0148333D02*
X0147083Y0148750D01*
X0147916D01*
X0148332Y0148333D01*
Y0146667D01*
X0147916Y0146250D01*
X0147083D01*
X0146666Y0146667D01*
X0145833Y0148333D02*
X0145416Y0148750D01*
X0144583D01*
X0144167Y0148333D01*
Y0147916D01*
X0144583Y0147500D01*
X0145000D01*
X0144583D01*
X0144167Y0147083D01*
Y0146667D01*
X0144583Y0146250D01*
X0145416D01*
X0145833Y0146667D01*
X0143334Y0148333D02*
X0142917Y0148750D01*
X0142084D01*
X0141668Y0148333D01*
Y0146667D01*
X0142084Y0146250D01*
X0142917D01*
X0143334Y0146667D01*
Y0148333D01*
X0178750Y0121876D02*
X0181250D01*
Y0123126D01*
X0180833Y0123542D01*
X0180000D01*
X0179584Y0123126D01*
Y0121876D01*
Y0122709D02*
X0178750Y0123542D01*
Y0124375D02*
Y0125208D01*
Y0124792D01*
X0181250D01*
X0180833Y0124375D01*
X0181250Y0128124D02*
X0180833Y0127291D01*
X0180000Y0126458D01*
X0179167D01*
X0178750Y0126874D01*
Y0127708D01*
X0179167Y0128124D01*
X0179584D01*
X0180000Y0127708D01*
Y0126458D01*
X0094500Y0147499D02*
Y0147083D01*
X0093667Y0146250D01*
X0092834Y0147083D01*
Y0147499D01*
X0093667Y0146250D02*
Y0145000D01*
X0092001Y0147083D02*
X0091584Y0147499D01*
X0090751D01*
X0090335Y0147083D01*
Y0146666D01*
X0090751Y0146250D01*
X0091168D01*
X0090751D01*
X0090335Y0145833D01*
Y0145416D01*
X0090751Y0145000D01*
X0091584D01*
X0092001Y0145416D01*
X0115500Y0119000D02*
Y0121499D01*
X0114250D01*
X0113834Y0121083D01*
Y0120250D01*
X0114250Y0119833D01*
X0115500D01*
X0114667D02*
X0113834Y0119000D01*
X0113001D02*
X0112168D01*
X0112584D01*
Y0121499D01*
X0113001Y0121083D01*
X0110918D02*
X0110502Y0121499D01*
X0109669D01*
X0109252Y0121083D01*
Y0120666D01*
X0109669Y0120250D01*
X0110085D01*
X0109669D01*
X0109252Y0119833D01*
Y0119416D01*
X0109669Y0119000D01*
X0110502D01*
X0110918Y0119416D01*
X0097834Y0120583D02*
X0098250Y0120999D01*
X0099084D01*
X0099500Y0120583D01*
Y0118916D01*
X0099084Y0118500D01*
X0098250D01*
X0097834Y0118916D01*
X0095335Y0118500D02*
X0097001D01*
X0095335Y0120166D01*
Y0120583D01*
X0095751Y0120999D01*
X0096584D01*
X0097001Y0120583D01*
X0094502Y0118500D02*
X0093669D01*
X0094085D01*
Y0120999D01*
X0094502Y0120583D01*
X0136466Y0144375D02*
X0136882Y0144791D01*
X0137715D01*
X0138132Y0144375D01*
Y0142709D01*
X0137715Y0142292D01*
X0136882D01*
X0136466Y0142709D01*
X0133966Y0142292D02*
X0135632D01*
X0133966Y0143958D01*
Y0144375D01*
X0134383Y0144791D01*
X0135216D01*
X0135632Y0144375D01*
X0131884Y0142292D02*
Y0144791D01*
X0133133Y0143542D01*
X0131467D01*
X0126083Y0133166D02*
X0126499Y0132750D01*
Y0131916D01*
X0126083Y0131500D01*
X0124416D01*
X0124000Y0131916D01*
Y0132750D01*
X0124416Y0133166D01*
X0124000Y0135665D02*
Y0133999D01*
X0125666Y0135665D01*
X0126083D01*
X0126499Y0135249D01*
Y0134416D01*
X0126083Y0133999D01*
Y0136498D02*
X0126499Y0136915D01*
Y0137748D01*
X0126083Y0138164D01*
X0125666D01*
X0125250Y0137748D01*
Y0137331D01*
Y0137748D01*
X0124833Y0138164D01*
X0124416D01*
X0124000Y0137748D01*
Y0136915D01*
X0124416Y0136498D01*
X0125000Y0122499D02*
X0124167D01*
X0124583D01*
Y0120000D01*
X0125000D01*
X0124167D01*
X0121251Y0122083D02*
X0121668Y0122499D01*
X0122501D01*
X0122917Y0122083D01*
Y0120416D01*
X0122501Y0120000D01*
X0121668D01*
X0121251Y0120416D01*
X0119169Y0120000D02*
Y0122499D01*
X0120418Y0121250D01*
X0118752D01*
X0197334Y0149583D02*
X0197750Y0149999D01*
X0198583D01*
X0199000Y0149583D01*
Y0147916D01*
X0198583Y0147500D01*
X0197750D01*
X0197334Y0147916D01*
X0194835Y0149999D02*
X0195668Y0149583D01*
X0196501Y0148750D01*
Y0147916D01*
X0196084Y0147500D01*
X0195251D01*
X0194835Y0147916D01*
Y0148333D01*
X0195251Y0148750D01*
X0196501D01*
X0094500Y0124499D02*
Y0122000D01*
X0093250D01*
X0092834Y0122416D01*
Y0124083D01*
X0093250Y0124499D01*
X0094500D01*
X0092001Y0122000D02*
X0091168D01*
X0091584D01*
Y0124499D01*
X0092001Y0124083D01*
X0199083Y0122666D02*
X0199499Y0122250D01*
Y0121416D01*
X0199083Y0121000D01*
X0197416D01*
X0197000Y0121416D01*
Y0122250D01*
X0197416Y0122666D01*
X0197000Y0123499D02*
Y0124332D01*
Y0123916D01*
X0199499D01*
X0199083Y0123499D01*
Y0125582D02*
X0199499Y0125998D01*
Y0126831D01*
X0199083Y0127248D01*
X0198666D01*
X0198250Y0126831D01*
X0197833Y0127248D01*
X0197416D01*
X0197000Y0126831D01*
Y0125998D01*
X0197416Y0125582D01*
X0197833D01*
X0198250Y0125998D01*
X0198666Y0125582D01*
X0199083D01*
X0198250Y0125998D02*
Y0126831D01*
X0191334Y0128583D02*
X0191750Y0128999D01*
X0192584D01*
X0193000Y0128583D01*
Y0126917D01*
X0192584Y0126500D01*
X0191750D01*
X0191334Y0126917D01*
X0190501Y0126500D02*
X0189668D01*
X0190084D01*
Y0128999D01*
X0190501Y0128583D01*
X0188418Y0128999D02*
X0186752D01*
Y0128583D01*
X0188418Y0126917D01*
Y0126500D01*
X0183928Y0134083D02*
X0184345Y0134499D01*
X0185178D01*
X0185594Y0134083D01*
Y0132416D01*
X0185178Y0132000D01*
X0184345D01*
X0183928Y0132416D01*
X0183095Y0132000D02*
X0182262D01*
X0182679D01*
Y0134499D01*
X0183095Y0134083D01*
X0179347Y0134499D02*
X0180180Y0134083D01*
X0181013Y0133250D01*
Y0132416D01*
X0180596Y0132000D01*
X0179763D01*
X0179347Y0132416D01*
Y0132833D01*
X0179763Y0133250D01*
X0181013D01*
X0065583Y0136166D02*
X0065999Y0135750D01*
Y0134916D01*
X0065583Y0134500D01*
X0063916D01*
X0063500Y0134916D01*
Y0135750D01*
X0063916Y0136166D01*
X0063500Y0136999D02*
Y0137832D01*
Y0137416D01*
X0065999D01*
X0065583Y0136999D01*
X0065999Y0140748D02*
Y0139082D01*
X0064750D01*
X0065166Y0139915D01*
Y0140331D01*
X0064750Y0140748D01*
X0063916D01*
X0063500Y0140331D01*
Y0139498D01*
X0063916Y0139082D01*
X0030834Y0145658D02*
X0031250Y0146074D01*
X0032083D01*
X0032500Y0145658D01*
Y0143991D01*
X0032083Y0143575D01*
X0031250D01*
X0030834Y0143991D01*
X0030001Y0143575D02*
X0029168D01*
X0029584D01*
Y0146074D01*
X0030001Y0145658D01*
X0027918D02*
X0027502Y0146074D01*
X0026669D01*
X0026252Y0145658D01*
Y0143991D01*
X0026669Y0143575D01*
X0027502D01*
X0027918Y0143991D01*
Y0145658D01*
X0043334Y0149583D02*
X0043750Y0149999D01*
X0044583D01*
X0045000Y0149583D01*
Y0147916D01*
X0044583Y0147500D01*
X0043750D01*
X0043334Y0147916D01*
X0042501D02*
X0042084Y0147500D01*
X0041251D01*
X0040835Y0147916D01*
Y0149583D01*
X0041251Y0149999D01*
X0042084D01*
X0042501Y0149583D01*
Y0149166D01*
X0042084Y0148750D01*
X0040835D01*
X0073583Y0137666D02*
X0073999Y0137250D01*
Y0136416D01*
X0073583Y0136000D01*
X0071917D01*
X0071500Y0136416D01*
Y0137250D01*
X0071917Y0137666D01*
X0071500Y0138499D02*
Y0139332D01*
Y0138916D01*
X0073999D01*
X0073583Y0138499D01*
X0071500Y0140582D02*
Y0141415D01*
Y0140998D01*
X0073999D01*
X0073583Y0140582D01*
X0082083Y0137666D02*
X0082499Y0137250D01*
Y0136416D01*
X0082083Y0136000D01*
X0080417D01*
X0080000Y0136416D01*
Y0137250D01*
X0080417Y0137666D01*
X0080000Y0138499D02*
Y0139332D01*
Y0138916D01*
X0082499D01*
X0082083Y0138499D01*
X0080000Y0142248D02*
Y0140582D01*
X0081666Y0142248D01*
X0082083D01*
X0082499Y0141831D01*
Y0140998D01*
X0082083Y0140582D01*
X0047834Y0123083D02*
X0048250Y0123499D01*
X0049084D01*
X0049500Y0123083D01*
Y0121416D01*
X0049084Y0121000D01*
X0048250D01*
X0047834Y0121416D01*
X0047001Y0121000D02*
X0046168D01*
X0046584D01*
Y0123499D01*
X0047001Y0123083D01*
X0044918D02*
X0044502Y0123499D01*
X0043668D01*
X0043252Y0123083D01*
Y0122666D01*
X0043668Y0122250D01*
X0044085D01*
X0043668D01*
X0043252Y0121833D01*
Y0121416D01*
X0043668Y0121000D01*
X0044502D01*
X0044918Y0121416D01*
X0168500Y0145500D02*
X0170999D01*
Y0146750D01*
X0170583Y0147166D01*
X0169750D01*
X0169333Y0146750D01*
Y0145500D01*
Y0146333D02*
X0168500Y0147166D01*
X0170999Y0149665D02*
Y0147999D01*
X0169750D01*
X0170166Y0148832D01*
Y0149249D01*
X0169750Y0149665D01*
X0168916D01*
X0168500Y0149249D01*
Y0148416D01*
X0168916Y0147999D01*
X0190500Y0119047D02*
Y0121546D01*
X0189250D01*
X0188834Y0121130D01*
Y0120297D01*
X0189250Y0119880D01*
X0190500D01*
X0189667D02*
X0188834Y0119047D01*
X0186751D02*
Y0121546D01*
X0188001Y0120297D01*
X0186335D01*
X0032000Y0118000D02*
Y0120499D01*
X0030750D01*
X0030334Y0120083D01*
Y0119250D01*
X0030750Y0118833D01*
X0032000D01*
X0031167D02*
X0030334Y0118000D01*
X0027835Y0120499D02*
X0028668Y0120083D01*
X0029501Y0119250D01*
Y0118417D01*
X0029084Y0118000D01*
X0028251D01*
X0027835Y0118417D01*
Y0118833D01*
X0028251Y0119250D01*
X0029501D01*
X0186000Y0150499D02*
X0185167D01*
X0185583D01*
Y0148000D01*
X0186000D01*
X0185167D01*
X0182251Y0150083D02*
X0182668Y0150499D01*
X0183501D01*
X0183917Y0150083D01*
Y0148416D01*
X0183501Y0148000D01*
X0182668D01*
X0182251Y0148416D01*
X0179752Y0148000D02*
X0181418D01*
X0179752Y0149666D01*
Y0150083D01*
X0180169Y0150499D01*
X0181002D01*
X0181418Y0150083D01*
X0053000Y0149999D02*
X0052167D01*
X0052583D01*
Y0147500D01*
X0053000D01*
X0052167D01*
X0049251Y0149583D02*
X0049668Y0149999D01*
X0050501D01*
X0050917Y0149583D01*
Y0147916D01*
X0050501Y0147500D01*
X0049668D01*
X0049251Y0147916D01*
X0048418Y0149583D02*
X0048002Y0149999D01*
X0047168D01*
X0046752Y0149583D01*
Y0149166D01*
X0047168Y0148750D01*
X0047585D01*
X0047168D01*
X0046752Y0148333D01*
Y0147916D01*
X0047168Y0147500D01*
X0048002D01*
X0048418Y0147916D01*
X0192334Y0149583D02*
X0192750Y0149999D01*
X0193584D01*
X0194000Y0149583D01*
Y0147916D01*
X0193584Y0147500D01*
X0192750D01*
X0192334Y0147916D01*
X0191501Y0149999D02*
X0189835D01*
Y0149583D01*
X0191501Y0147916D01*
Y0147500D01*
D16*
X0144000Y0119000D02*
Y0121000D01*
X0144500Y0121500D01*
X0145499D01*
X0145999Y0121000D01*
Y0119000D01*
X0145499Y0118500D01*
X0144500D01*
X0145000Y0119500D02*
X0144000Y0118500D01*
X0144500D02*
X0144000Y0119000D01*
X0141001Y0118500D02*
X0143000D01*
X0141001Y0120500D01*
Y0121000D01*
X0141501Y0121500D01*
X0142500D01*
X0143000Y0121000D01*
X0133501Y0121001D02*
X0136500D01*
Y0122500D01*
X0136000Y0123000D01*
X0135000D01*
X0134500Y0122500D01*
Y0121001D01*
Y0122001D02*
X0133501Y0123000D01*
X0136000Y0124000D02*
X0136500Y0124500D01*
Y0125499D01*
X0136000Y0125999D01*
X0135500D01*
X0135000Y0125499D01*
X0134500Y0125999D01*
X0134000D01*
X0133501Y0125499D01*
Y0124500D01*
X0134000Y0124000D01*
X0134500D01*
X0135000Y0124500D01*
X0135500Y0124000D01*
X0136000D01*
X0135000Y0124500D02*
Y0125499D01*
X0077999Y0137999D02*
X0078499Y0137499D01*
Y0136500D01*
X0077999Y0136000D01*
X0076000D01*
X0075500Y0136500D01*
Y0137499D01*
X0076000Y0137999D01*
X0077999Y0138999D02*
X0078499Y0139499D01*
Y0140499D01*
X0077999Y0140998D01*
X0077499D01*
X0076999Y0140499D01*
X0076500Y0140998D01*
X0076000D01*
X0075500Y0140499D01*
Y0139499D01*
X0076000Y0138999D01*
X0076500D01*
X0076999Y0139499D01*
X0077499Y0138999D01*
X0077999D01*
X0076999Y0139499D02*
Y0140499D01*
X0063500Y0118500D02*
X0065999D01*
Y0119750D01*
X0065583Y0120166D01*
X0064750D01*
X0064333Y0119750D01*
Y0118500D01*
Y0119333D02*
X0063500Y0120166D01*
X0065999Y0120999D02*
Y0122665D01*
X0065583D01*
X0063916Y0120999D01*
X0063500D01*
D108*
X0084681Y0146500D02*
G03*
X0084681Y0146500I-0001181J0000000D01*
G01*
X0076181Y0135500D02*
G03*
X0076181Y0135500I-0001181J0000000D01*
G01*
X0098681Y0130000D02*
G03*
X0098681Y0130000I-0001181J0000000D01*
G01*
X0079181Y0142500D02*
G03*
X0079181Y0142500I-0001181J0000000D01*
G01*
X0047681Y0145500D02*
G03*
X0047681Y0145500I-0001181J0000000D01*
G01*
X0052181Y0146000D02*
G03*
X0052181Y0146000I-0001181J0000000D01*
G01*
X0124329Y0148000D02*
G03*
X0124329Y0148000I-0001181J0000000D01*
G01*
X0026181Y0125000D02*
G03*
X0026181Y0125000I-0001181J0000000D01*
G01*
X0079681Y0146500D02*
G03*
X0079681Y0146500I-0001181J0000000D01*
G01*
X0132181Y0147000D02*
G03*
X0132181Y0147000I-0001181J0000000D01*
G01*
X0126291Y0126500D02*
G03*
X0126291Y0126500I-0001181J0000000D01*
G01*
X0126681Y0129500D02*
G03*
X0126681Y0129500I-0001181J0000000D01*
G01*
X0099816Y0134983D02*
G03*
X0099816Y0134983I-0001181J0000000D01*
G01*
X0134181Y0120000D02*
G03*
X0134181Y0120000I-0001181J0000000D01*
G01*
M02*
