G04*
G04 #@! TF.GenerationSoftware,Altium Limited,Altium Designer,20.0.13 (296)*
G04*
G04 Layer_Physical_Order=3*
G04 Layer_Color=16440176*
%FSAX25Y25*%
%MOIN*%
G70*
G01*
G75*
%ADD16C,0.00500*%
%ADD66C,0.04800*%
%ADD69C,0.04724*%
%ADD71R,0.05906X0.05906*%
%ADD72C,0.01575*%
%ADD73C,0.02362*%
G36*
X0198700Y0149345D02*
X0198699Y0146570D01*
X0198526Y0146451D01*
X0198199Y0146348D01*
X0197697Y0146684D01*
X0197500Y0146723D01*
Y0145000D01*
Y0143277D01*
X0197697Y0143316D01*
X0198199Y0143651D01*
X0198527Y0143547D01*
X0198698Y0143430D01*
X0198691Y0118801D01*
X0176954Y0118801D01*
X0176785Y0119301D01*
X0177141Y0119575D01*
X0177579Y0120146D01*
X0177644Y0120144D01*
X0178037Y0119881D01*
X0178500Y0119789D01*
X0178963Y0119881D01*
X0179356Y0120144D01*
X0179619Y0120537D01*
X0179711Y0121000D01*
X0179619Y0121463D01*
X0179356Y0121856D01*
X0178963Y0122118D01*
X0178500Y0122211D01*
X0178371Y0122551D01*
X0178799Y0122814D01*
X0178826Y0122812D01*
X0179000Y0122777D01*
Y0124500D01*
Y0126223D01*
X0178803Y0126184D01*
X0178211Y0125789D01*
X0177816Y0125197D01*
X0177685Y0124538D01*
X0177556Y0124463D01*
X0177197Y0124352D01*
X0177141Y0124425D01*
X0176431Y0124970D01*
X0175604Y0125312D01*
X0175216Y0125364D01*
Y0122000D01*
X0174216D01*
Y0125364D01*
X0173829Y0125312D01*
X0173002Y0124970D01*
X0172292Y0124425D01*
X0171747Y0123715D01*
X0171690Y0123579D01*
X0171142Y0123562D01*
X0170808Y0123997D01*
X0170223Y0124446D01*
X0169542Y0124728D01*
X0168811Y0124824D01*
X0168080Y0124728D01*
X0167399Y0124446D01*
X0166814Y0123997D01*
X0166365Y0123412D01*
X0166118Y0122815D01*
X0165858Y0122770D01*
X0165598Y0122815D01*
X0165351Y0123412D01*
X0164902Y0123997D01*
X0164318Y0124446D01*
X0163637Y0124728D01*
X0162906Y0124824D01*
X0162391Y0124757D01*
X0162322Y0124830D01*
X0162184Y0125527D01*
X0161789Y0126119D01*
X0161197Y0126514D01*
X0161000Y0126553D01*
Y0124830D01*
X0160000D01*
Y0126800D01*
X0159845Y0127032D01*
X0159985Y0127241D01*
X0160077Y0127705D01*
X0159985Y0128168D01*
X0159872Y0128337D01*
X0160139Y0128837D01*
X0174015D01*
X0174144Y0128644D01*
X0174537Y0128382D01*
X0175000Y0128289D01*
X0175463Y0128382D01*
X0175856Y0128644D01*
X0176119Y0129037D01*
X0176211Y0129500D01*
X0176119Y0129963D01*
X0175903Y0130286D01*
X0175928Y0130578D01*
X0176016Y0130850D01*
X0176340Y0131067D01*
X0176603Y0131459D01*
X0176695Y0131923D01*
X0176603Y0132386D01*
X0176340Y0132779D01*
X0175948Y0133041D01*
X0175484Y0133133D01*
X0175021Y0133041D01*
X0174628Y0132779D01*
X0174366Y0132386D01*
X0174274Y0131923D01*
X0174366Y0131459D01*
X0174581Y0131137D01*
X0174556Y0130844D01*
X0174468Y0130572D01*
X0174144Y0130356D01*
X0174015Y0130163D01*
X0158342D01*
X0155843Y0132662D01*
X0156161Y0133051D01*
X0156512Y0132816D01*
X0156709Y0132777D01*
Y0134000D01*
X0155487D01*
X0155526Y0133803D01*
X0155760Y0133452D01*
X0155372Y0133133D01*
X0155175Y0133330D01*
X0154960Y0133474D01*
X0154706Y0133524D01*
X0153725D01*
X0153668Y0133581D01*
X0153662Y0133590D01*
X0152783Y0134469D01*
X0152568Y0134612D01*
X0152315Y0134663D01*
X0149960D01*
X0149823Y0134868D01*
X0149431Y0135131D01*
X0148967Y0135223D01*
X0148504Y0135131D01*
X0148111Y0134868D01*
X0147849Y0134475D01*
X0147739Y0134430D01*
X0147477Y0134605D01*
X0147014Y0134697D01*
X0146550Y0134605D01*
X0146158Y0134343D01*
X0145895Y0133950D01*
X0145803Y0133486D01*
X0145895Y0133023D01*
X0146158Y0132630D01*
X0146550Y0132368D01*
X0146551Y0132368D01*
X0146881Y0131963D01*
X0146789Y0131500D01*
X0146881Y0131037D01*
X0147144Y0130644D01*
X0147537Y0130382D01*
X0148000Y0130289D01*
X0148463Y0130382D01*
X0148856Y0130644D01*
X0149118Y0131037D01*
X0149211Y0131500D01*
X0149118Y0131963D01*
X0148884Y0132314D01*
X0148914Y0132486D01*
X0149062Y0132820D01*
X0149431Y0132894D01*
X0149823Y0133156D01*
X0149864Y0133217D01*
X0150300Y0133209D01*
X0150598Y0132793D01*
X0150545Y0132527D01*
X0150637Y0132063D01*
X0150899Y0131670D01*
X0151292Y0131408D01*
X0151755Y0131316D01*
X0152219Y0131408D01*
X0152612Y0131670D01*
X0152782Y0131925D01*
X0153196Y0132249D01*
X0153450Y0132199D01*
X0154431D01*
X0154787Y0131843D01*
X0154674Y0131250D01*
X0154526Y0131151D01*
X0154285Y0130791D01*
X0154201Y0130366D01*
X0154285Y0129941D01*
X0154526Y0129581D01*
X0154886Y0129340D01*
X0155311Y0129256D01*
X0155736Y0129340D01*
X0156096Y0129581D01*
X0156195Y0129729D01*
X0156788Y0129842D01*
X0157599Y0129031D01*
X0157717Y0128953D01*
X0157824Y0128810D01*
X0157880Y0128365D01*
X0157748Y0128168D01*
X0157656Y0127705D01*
X0157748Y0127241D01*
X0158011Y0126849D01*
X0158403Y0126586D01*
X0158867Y0126494D01*
X0158913Y0126503D01*
X0159047Y0126331D01*
X0159161Y0126043D01*
X0158816Y0125527D01*
X0158678Y0124830D01*
X0158229Y0124522D01*
X0157731Y0124728D01*
X0157000Y0124824D01*
X0156269Y0124728D01*
X0155588Y0124446D01*
X0155560Y0124424D01*
X0154991Y0124618D01*
X0154813Y0124886D01*
X0154420Y0125148D01*
X0153957Y0125241D01*
X0153493Y0125148D01*
X0153101Y0124886D01*
X0152896Y0124580D01*
X0152771Y0124474D01*
X0152297Y0124336D01*
X0151825Y0124531D01*
X0151094Y0124627D01*
X0150364Y0124531D01*
X0149682Y0124249D01*
X0149098Y0123800D01*
X0148649Y0123215D01*
X0148367Y0122534D01*
X0148270Y0121803D01*
X0148367Y0121072D01*
X0148649Y0120391D01*
X0149098Y0119806D01*
X0149682Y0119357D01*
X0149818Y0119301D01*
X0149718Y0118801D01*
X0126110Y0118801D01*
X0126060Y0119301D01*
X0126463Y0119381D01*
X0126856Y0119644D01*
X0127119Y0120037D01*
X0127211Y0120500D01*
X0127119Y0120963D01*
X0126856Y0121356D01*
X0126463Y0121618D01*
X0126000Y0121711D01*
X0125537Y0121618D01*
X0125144Y0121356D01*
X0124881Y0120963D01*
X0124789Y0120500D01*
X0124881Y0120037D01*
X0125144Y0119644D01*
X0125537Y0119381D01*
X0125940Y0119301D01*
X0125890Y0118801D01*
X0023304Y0118801D01*
X0023302Y0149342D01*
X0023655Y0149696D01*
X0043316Y0149696D01*
X0043326Y0149685D01*
X0043537Y0149196D01*
X0043382Y0148963D01*
X0043289Y0148500D01*
X0043382Y0148037D01*
X0043644Y0147644D01*
X0044037Y0147381D01*
X0044500Y0147289D01*
X0044963Y0147381D01*
X0045356Y0147644D01*
X0045619Y0148037D01*
X0045711Y0148500D01*
X0045619Y0148963D01*
X0045463Y0149196D01*
X0045674Y0149685D01*
X0045684Y0149696D01*
X0053316Y0149696D01*
X0053326Y0149685D01*
X0053537Y0149196D01*
X0053382Y0148963D01*
X0053289Y0148500D01*
X0053382Y0148037D01*
X0053644Y0147644D01*
X0054037Y0147381D01*
X0054500Y0147289D01*
X0054963Y0147381D01*
X0055356Y0147644D01*
X0055619Y0148037D01*
X0055711Y0148500D01*
X0055619Y0148963D01*
X0055463Y0149196D01*
X0055674Y0149685D01*
X0055684Y0149696D01*
X0061644Y0149696D01*
X0061880Y0149255D01*
X0061816Y0149160D01*
X0061777Y0148963D01*
X0065223D01*
X0065184Y0149160D01*
X0065120Y0149255D01*
X0065356Y0149696D01*
X0122384Y0149697D01*
X0122433Y0149197D01*
X0122037Y0149118D01*
X0121644Y0148856D01*
X0121381Y0148463D01*
X0121289Y0148000D01*
X0121381Y0147537D01*
X0121644Y0147144D01*
X0122037Y0146881D01*
X0122500Y0146789D01*
X0122963Y0146881D01*
X0123356Y0147144D01*
X0123618Y0147537D01*
X0123711Y0148000D01*
X0123618Y0148463D01*
X0123356Y0148856D01*
X0122963Y0149118D01*
X0122567Y0149197D01*
X0122616Y0149697D01*
X0146339Y0149698D01*
X0146539Y0149198D01*
X0146238Y0148748D01*
X0146199Y0148550D01*
X0149645D01*
X0149605Y0148748D01*
X0149304Y0149198D01*
X0149504Y0149698D01*
X0160307Y0149698D01*
X0160469Y0149500D01*
X0162500D01*
Y0149000D01*
X0163000D01*
Y0147277D01*
X0163130Y0147303D01*
X0163222Y0147301D01*
X0163657Y0147022D01*
X0163786Y0146374D01*
X0164305Y0145597D01*
X0165083Y0145077D01*
X0166000Y0144895D01*
X0166174Y0144929D01*
X0166519Y0144583D01*
X0166611Y0144120D01*
X0166874Y0143727D01*
X0167267Y0143465D01*
X0167730Y0143373D01*
X0168193Y0143465D01*
X0168586Y0143727D01*
X0168848Y0144120D01*
X0168941Y0144583D01*
X0168848Y0145046D01*
X0168586Y0145439D01*
X0168313Y0145622D01*
X0168090Y0146189D01*
X0168214Y0146374D01*
X0168397Y0147291D01*
X0168402Y0147297D01*
X0168500Y0147277D01*
Y0149000D01*
X0169000D01*
Y0149500D01*
X0171031D01*
X0171193Y0149698D01*
X0176881Y0149698D01*
X0177292Y0149198D01*
X0177289Y0149187D01*
X0177382Y0148723D01*
X0177644Y0148330D01*
X0178037Y0148068D01*
X0178500Y0147976D01*
X0178963Y0148068D01*
X0179356Y0148330D01*
X0179619Y0148723D01*
X0179711Y0149187D01*
X0179708Y0149198D01*
X0180119Y0149698D01*
X0198347Y0149699D01*
X0198700Y0149345D01*
D02*
G37*
%LPC*%
G36*
X0170723Y0148500D02*
X0169500D01*
Y0147277D01*
X0169697Y0147316D01*
X0170289Y0147711D01*
X0170684Y0148303D01*
X0170723Y0148500D01*
D02*
G37*
G36*
X0162000D02*
X0160777D01*
X0160816Y0148303D01*
X0161211Y0147711D01*
X0161803Y0147316D01*
X0162000Y0147277D01*
Y0148500D01*
D02*
G37*
G36*
X0116825Y0148523D02*
X0116361Y0148431D01*
X0115969Y0148169D01*
X0115706Y0147776D01*
X0115632Y0147405D01*
X0115510Y0147252D01*
X0115158Y0147045D01*
X0114856Y0147105D01*
X0114393Y0147012D01*
X0114000Y0146750D01*
X0113737Y0146357D01*
X0113645Y0145894D01*
X0113737Y0145431D01*
X0114000Y0145038D01*
X0114393Y0144775D01*
X0114856Y0144683D01*
X0115319Y0144775D01*
X0115712Y0145038D01*
X0115974Y0145431D01*
X0116048Y0145802D01*
X0116171Y0145955D01*
X0116523Y0146162D01*
X0116825Y0146102D01*
X0117288Y0146194D01*
X0117681Y0146457D01*
X0117943Y0146849D01*
X0118035Y0147313D01*
X0117943Y0147776D01*
X0117681Y0148169D01*
X0117288Y0148431D01*
X0116825Y0148523D01*
D02*
G37*
G36*
X0065223Y0147963D02*
X0064000D01*
Y0146740D01*
X0064197Y0146779D01*
X0064789Y0147174D01*
X0065184Y0147766D01*
X0065223Y0147963D01*
D02*
G37*
G36*
X0063000D02*
X0061777D01*
X0061816Y0147766D01*
X0062211Y0147174D01*
X0062803Y0146779D01*
X0063000Y0146740D01*
Y0147963D01*
D02*
G37*
G36*
X0098248Y0148896D02*
X0097785Y0148803D01*
X0097392Y0148541D01*
X0097129Y0148148D01*
X0097037Y0147685D01*
X0097129Y0147222D01*
X0097392Y0146829D01*
X0097785Y0146566D01*
X0098248Y0146474D01*
X0098711Y0146566D01*
X0099104Y0146829D01*
X0099366Y0147222D01*
X0099458Y0147685D01*
X0099366Y0148148D01*
X0099104Y0148541D01*
X0098711Y0148803D01*
X0098248Y0148896D01*
D02*
G37*
G36*
X0149645Y0147550D02*
X0148422D01*
Y0146327D01*
X0148619Y0146367D01*
X0149210Y0146762D01*
X0149605Y0147353D01*
X0149645Y0147550D01*
D02*
G37*
G36*
X0147422D02*
X0146199D01*
X0146238Y0147353D01*
X0146633Y0146762D01*
X0147224Y0146367D01*
X0147422Y0146327D01*
Y0147550D01*
D02*
G37*
G36*
X0141500Y0148600D02*
X0141037Y0148508D01*
X0140644Y0148245D01*
X0140382Y0147853D01*
X0140289Y0147389D01*
X0140382Y0146926D01*
X0140644Y0146533D01*
X0141037Y0146271D01*
X0141500Y0146179D01*
X0141963Y0146271D01*
X0142356Y0146533D01*
X0142619Y0146926D01*
X0142711Y0147389D01*
X0142619Y0147853D01*
X0142356Y0148245D01*
X0141963Y0148508D01*
X0141500Y0148600D01*
D02*
G37*
G36*
X0039500Y0147223D02*
Y0146000D01*
X0040723D01*
X0040684Y0146197D01*
X0040289Y0146789D01*
X0039697Y0147184D01*
X0039500Y0147223D01*
D02*
G37*
G36*
X0038500D02*
X0038303Y0147184D01*
X0037711Y0146789D01*
X0037316Y0146197D01*
X0037277Y0146000D01*
X0038500D01*
Y0147223D01*
D02*
G37*
G36*
X0026500D02*
Y0146000D01*
X0027723D01*
X0027684Y0146197D01*
X0027289Y0146789D01*
X0026697Y0147184D01*
X0026500Y0147223D01*
D02*
G37*
G36*
X0025500D02*
X0025303Y0147184D01*
X0024711Y0146789D01*
X0024316Y0146197D01*
X0024277Y0146000D01*
X0025500D01*
Y0147223D01*
D02*
G37*
G36*
X0111613Y0148240D02*
X0111149Y0148148D01*
X0110757Y0147885D01*
X0110494Y0147492D01*
X0110402Y0147029D01*
X0110494Y0146566D01*
X0110757Y0146173D01*
X0111149Y0145911D01*
X0111613Y0145818D01*
X0112076Y0145911D01*
X0112469Y0146173D01*
X0112731Y0146566D01*
X0112823Y0147029D01*
X0112731Y0147492D01*
X0112469Y0147885D01*
X0112076Y0148148D01*
X0111613Y0148240D01*
D02*
G37*
G36*
X0081500Y0148211D02*
X0081037Y0148118D01*
X0080644Y0147856D01*
X0080382Y0147463D01*
X0080289Y0147000D01*
X0080382Y0146537D01*
X0080644Y0146144D01*
X0081037Y0145881D01*
X0081500Y0145789D01*
X0081963Y0145881D01*
X0082356Y0146144D01*
X0082618Y0146537D01*
X0082711Y0147000D01*
X0082618Y0147463D01*
X0082356Y0147856D01*
X0081963Y0148118D01*
X0081500Y0148211D01*
D02*
G37*
G36*
X0196500Y0146723D02*
X0196303Y0146684D01*
X0195711Y0146289D01*
X0195316Y0145697D01*
X0195277Y0145500D01*
X0196500D01*
Y0146723D01*
D02*
G37*
G36*
X0099174Y0145803D02*
Y0144580D01*
X0100397D01*
X0100357Y0144778D01*
X0099962Y0145369D01*
X0099371Y0145764D01*
X0099174Y0145803D01*
D02*
G37*
G36*
X0098174D02*
X0097976Y0145764D01*
X0097385Y0145369D01*
X0096990Y0144778D01*
X0096951Y0144580D01*
X0098174D01*
Y0145803D01*
D02*
G37*
G36*
X0146000Y0145688D02*
X0145083Y0145506D01*
X0144305Y0144986D01*
X0144034Y0144580D01*
X0143432Y0144580D01*
X0143376Y0144665D01*
X0142983Y0144927D01*
X0142520Y0145019D01*
X0142057Y0144927D01*
X0141664Y0144665D01*
X0141401Y0144272D01*
X0141309Y0143808D01*
X0141401Y0143345D01*
X0141664Y0142953D01*
X0142057Y0142690D01*
X0142520Y0142598D01*
X0142983Y0142690D01*
X0143186Y0142826D01*
X0143708Y0142659D01*
X0143734Y0142636D01*
X0143786Y0142374D01*
X0144305Y0141596D01*
X0145083Y0141077D01*
X0146000Y0140894D01*
X0146917Y0141077D01*
X0147695Y0141596D01*
X0148214Y0142374D01*
X0148397Y0143291D01*
X0148214Y0144209D01*
X0147695Y0144986D01*
X0146917Y0145506D01*
X0146000Y0145688D01*
D02*
G37*
G36*
X0106803Y0147214D02*
X0106340Y0147122D01*
X0105947Y0146859D01*
X0105684Y0146467D01*
X0105592Y0146003D01*
X0105684Y0145540D01*
X0105947Y0145147D01*
X0106340Y0144885D01*
X0106803Y0144792D01*
X0107266Y0144885D01*
X0107659Y0145147D01*
X0107877Y0144964D01*
X0107908Y0144918D01*
X0108301Y0144655D01*
X0108764Y0144563D01*
X0109228Y0144655D01*
X0109620Y0144918D01*
X0109883Y0145310D01*
X0109975Y0145774D01*
X0109883Y0146237D01*
X0109620Y0146630D01*
X0109228Y0146892D01*
X0108764Y0146984D01*
X0108301Y0146892D01*
X0107908Y0146630D01*
X0107812D01*
X0107659Y0146859D01*
X0107266Y0147122D01*
X0106803Y0147214D01*
D02*
G37*
G36*
X0129055Y0148138D02*
X0128591Y0148046D01*
X0128199Y0147784D01*
X0127936Y0147391D01*
X0127844Y0146928D01*
X0127936Y0146464D01*
X0128044Y0146302D01*
X0128039Y0146246D01*
X0127799Y0145782D01*
X0127303Y0145684D01*
X0126711Y0145289D01*
X0126316Y0144697D01*
X0126277Y0144500D01*
X0129723D01*
X0129684Y0144697D01*
X0129289Y0145289D01*
X0129435Y0145792D01*
X0129518Y0145809D01*
X0129911Y0146072D01*
X0130173Y0146464D01*
X0130265Y0146928D01*
X0130173Y0147391D01*
X0129911Y0147784D01*
X0129518Y0148046D01*
X0129055Y0148138D01*
D02*
G37*
G36*
X0158000Y0145223D02*
Y0144000D01*
X0159223D01*
X0159184Y0144197D01*
X0158789Y0144789D01*
X0158197Y0145184D01*
X0158000Y0145223D01*
D02*
G37*
G36*
X0157000D02*
X0156803Y0145184D01*
X0156211Y0144789D01*
X0155816Y0144197D01*
X0155777Y0144000D01*
X0157000D01*
Y0145223D01*
D02*
G37*
G36*
X0189925Y0146320D02*
X0189461Y0146228D01*
X0189069Y0145966D01*
X0188806Y0145573D01*
X0188714Y0145109D01*
X0188806Y0144646D01*
X0189069Y0144253D01*
X0189461Y0143991D01*
X0189925Y0143899D01*
X0190388Y0143991D01*
X0190781Y0144253D01*
X0191043Y0144646D01*
X0191135Y0145109D01*
X0191043Y0145573D01*
X0190781Y0145966D01*
X0190388Y0146228D01*
X0189925Y0146320D01*
D02*
G37*
G36*
X0104000Y0146211D02*
X0103537Y0146118D01*
X0103144Y0145856D01*
X0102882Y0145463D01*
X0102789Y0145000D01*
X0102882Y0144537D01*
X0103144Y0144144D01*
X0103537Y0143881D01*
X0104000Y0143789D01*
X0104463Y0143881D01*
X0104856Y0144144D01*
X0105119Y0144537D01*
X0105211Y0145000D01*
X0105119Y0145463D01*
X0104856Y0145856D01*
X0104463Y0146118D01*
X0104000Y0146211D01*
D02*
G37*
G36*
X0133681Y0147115D02*
X0133218Y0147022D01*
X0132825Y0146760D01*
X0132562Y0146367D01*
X0132470Y0145904D01*
X0132562Y0145441D01*
X0132825Y0145048D01*
X0133218Y0144785D01*
X0133681Y0144693D01*
X0134144Y0144785D01*
X0134639Y0144532D01*
X0134901Y0144140D01*
X0135294Y0143877D01*
X0135757Y0143785D01*
X0136221Y0143877D01*
X0136613Y0144140D01*
X0136876Y0144532D01*
X0136968Y0144996D01*
X0136876Y0145459D01*
X0136613Y0145852D01*
X0136221Y0146114D01*
X0135757Y0146206D01*
X0135294Y0146114D01*
X0134799Y0146367D01*
X0134537Y0146760D01*
X0134144Y0147022D01*
X0133681Y0147115D01*
D02*
G37*
G36*
X0040723Y0145000D02*
X0039500D01*
Y0143777D01*
X0039697Y0143816D01*
X0040289Y0144211D01*
X0040684Y0144803D01*
X0040723Y0145000D01*
D02*
G37*
G36*
X0038500D02*
X0037277D01*
X0037316Y0144803D01*
X0037711Y0144211D01*
X0038303Y0143816D01*
X0038500Y0143777D01*
Y0145000D01*
D02*
G37*
G36*
X0027723D02*
X0026500D01*
Y0143777D01*
X0026697Y0143816D01*
X0027289Y0144211D01*
X0027684Y0144803D01*
X0027723Y0145000D01*
D02*
G37*
G36*
X0025500D02*
X0024277D01*
X0024316Y0144803D01*
X0024711Y0144211D01*
X0025303Y0143816D01*
X0025500Y0143777D01*
Y0145000D01*
D02*
G37*
G36*
X0120773Y0145826D02*
X0120310Y0145733D01*
X0119917Y0145471D01*
X0119655Y0145078D01*
X0119562Y0144615D01*
X0119655Y0144152D01*
X0119917Y0143759D01*
X0120310Y0143496D01*
X0120773Y0143404D01*
X0121237Y0143496D01*
X0121629Y0143759D01*
X0121892Y0144152D01*
X0121984Y0144615D01*
X0121892Y0145078D01*
X0121629Y0145471D01*
X0121237Y0145733D01*
X0120773Y0145826D01*
D02*
G37*
G36*
X0196500Y0144500D02*
X0195277D01*
X0195316Y0144303D01*
X0195711Y0143711D01*
X0196303Y0143316D01*
X0196500Y0143277D01*
Y0144500D01*
D02*
G37*
G36*
X0081500Y0145211D02*
X0081037Y0145118D01*
X0080644Y0144856D01*
X0080382Y0144463D01*
X0080289Y0144000D01*
X0080382Y0143537D01*
X0080644Y0143144D01*
X0081037Y0142882D01*
X0081500Y0142789D01*
X0081963Y0142882D01*
X0082356Y0143144D01*
X0082618Y0143537D01*
X0082711Y0144000D01*
X0082618Y0144463D01*
X0082356Y0144856D01*
X0081963Y0145118D01*
X0081500Y0145211D01*
D02*
G37*
G36*
X0100397Y0143580D02*
X0099174D01*
Y0142357D01*
X0099371Y0142397D01*
X0099962Y0142792D01*
X0100357Y0143383D01*
X0100397Y0143580D01*
D02*
G37*
G36*
X0129723Y0143500D02*
X0128500D01*
Y0142277D01*
X0128697Y0142316D01*
X0129289Y0142711D01*
X0129684Y0143303D01*
X0129723Y0143500D01*
D02*
G37*
G36*
X0127500D02*
X0126277D01*
X0126316Y0143303D01*
X0126711Y0142711D01*
X0127303Y0142316D01*
X0127500Y0142277D01*
Y0143500D01*
D02*
G37*
G36*
X0174392Y0143316D02*
Y0142093D01*
X0175615D01*
X0175575Y0142291D01*
X0175180Y0142882D01*
X0174589Y0143277D01*
X0174392Y0143316D01*
D02*
G37*
G36*
X0173392D02*
X0173194Y0143277D01*
X0172603Y0142882D01*
X0172208Y0142291D01*
X0172169Y0142093D01*
X0173392D01*
Y0143316D01*
D02*
G37*
G36*
X0042509Y0144305D02*
X0042046Y0144212D01*
X0041653Y0143950D01*
X0041391Y0143557D01*
X0041299Y0143094D01*
X0041391Y0142631D01*
X0041653Y0142238D01*
X0042046Y0141975D01*
X0042509Y0141883D01*
X0042973Y0141975D01*
X0043365Y0142238D01*
X0043628Y0142631D01*
X0043720Y0143094D01*
X0043628Y0143557D01*
X0043365Y0143950D01*
X0042973Y0144212D01*
X0042509Y0144305D01*
D02*
G37*
G36*
X0095738Y0143060D02*
X0095540Y0143020D01*
X0094949Y0142625D01*
X0094554Y0142034D01*
X0094515Y0141837D01*
X0095738D01*
Y0143060D01*
D02*
G37*
G36*
X0032500Y0144211D02*
X0032037Y0144118D01*
X0031644Y0143856D01*
X0031381Y0143463D01*
X0031289Y0143000D01*
X0031381Y0142537D01*
X0031644Y0142144D01*
X0032037Y0141882D01*
X0032500Y0141789D01*
X0032963Y0141882D01*
X0033356Y0142144D01*
X0033619Y0142537D01*
X0033711Y0143000D01*
X0033619Y0143463D01*
X0033356Y0143856D01*
X0032963Y0144118D01*
X0032500Y0144211D01*
D02*
G37*
G36*
X0159223Y0143000D02*
X0158000D01*
Y0141777D01*
X0158197Y0141816D01*
X0158789Y0142211D01*
X0159184Y0142803D01*
X0159223Y0143000D01*
D02*
G37*
G36*
X0157000D02*
X0155777D01*
X0155816Y0142803D01*
X0156211Y0142211D01*
X0156803Y0141816D01*
X0157000Y0141777D01*
Y0143000D01*
D02*
G37*
G36*
X0047500Y0143711D02*
X0047037Y0143619D01*
X0046644Y0143356D01*
X0046382Y0142963D01*
X0046289Y0142500D01*
X0046382Y0142037D01*
X0046644Y0141644D01*
X0047037Y0141382D01*
X0047500Y0141289D01*
X0047963Y0141382D01*
X0048356Y0141644D01*
X0048619Y0142037D01*
X0048711Y0142500D01*
X0048619Y0142963D01*
X0048356Y0143356D01*
X0047963Y0143619D01*
X0047500Y0143711D01*
D02*
G37*
G36*
X0186000Y0142223D02*
Y0141000D01*
X0187223D01*
X0187184Y0141197D01*
X0186789Y0141789D01*
X0186197Y0142184D01*
X0186000Y0142223D01*
D02*
G37*
G36*
X0185000D02*
X0184803Y0142184D01*
X0184211Y0141789D01*
X0183816Y0141197D01*
X0183777Y0141000D01*
X0185000D01*
Y0142223D01*
D02*
G37*
G36*
X0162495Y0143225D02*
X0162031Y0143133D01*
X0161638Y0142870D01*
X0161376Y0142478D01*
X0161284Y0142014D01*
X0161376Y0141551D01*
X0161638Y0141158D01*
X0162031Y0140896D01*
X0162495Y0140804D01*
X0162958Y0140896D01*
X0163351Y0141158D01*
X0163613Y0141551D01*
X0163705Y0142014D01*
X0163613Y0142478D01*
X0163351Y0142870D01*
X0162958Y0143133D01*
X0162495Y0143225D01*
D02*
G37*
G36*
X0113000Y0140878D02*
X0112803Y0140839D01*
X0112335Y0140527D01*
X0112000Y0140476D01*
X0111665Y0140527D01*
X0111197Y0140839D01*
X0111000Y0140878D01*
Y0139155D01*
Y0137433D01*
X0111197Y0137472D01*
X0111665Y0137784D01*
X0112000Y0137835D01*
X0112335Y0137784D01*
X0112803Y0137472D01*
X0113000Y0137433D01*
Y0139155D01*
Y0140878D01*
D02*
G37*
G36*
X0110000D02*
X0109803Y0140839D01*
X0109335Y0140527D01*
X0109000Y0140476D01*
X0108665Y0140527D01*
X0108197Y0140839D01*
X0108000Y0140878D01*
Y0139155D01*
Y0137433D01*
X0108197Y0137472D01*
X0108665Y0137784D01*
X0109000Y0137835D01*
X0109335Y0137784D01*
X0109803Y0137472D01*
X0110000Y0137433D01*
Y0139155D01*
Y0140878D01*
D02*
G37*
G36*
X0115875Y0140887D02*
X0115678Y0140848D01*
X0115292Y0140590D01*
X0114789Y0140444D01*
X0114197Y0140839D01*
X0114000Y0140878D01*
Y0139155D01*
Y0137433D01*
X0114197Y0137472D01*
X0114583Y0137729D01*
X0115086Y0137875D01*
X0115678Y0137480D01*
X0115875Y0137441D01*
Y0139164D01*
Y0140887D01*
D02*
G37*
G36*
X0086500Y0142711D02*
X0086037Y0142619D01*
X0085644Y0142356D01*
X0085382Y0141963D01*
X0085289Y0141500D01*
X0085382Y0141037D01*
X0085644Y0140644D01*
X0086037Y0140382D01*
X0086500Y0140289D01*
X0086963Y0140382D01*
X0087356Y0140644D01*
X0087618Y0141037D01*
X0087711Y0141500D01*
X0087618Y0141963D01*
X0087356Y0142356D01*
X0086963Y0142619D01*
X0086500Y0142711D01*
D02*
G37*
G36*
X0069500D02*
X0069037Y0142619D01*
X0068644Y0142356D01*
X0068382Y0141963D01*
X0068289Y0141500D01*
X0068382Y0141037D01*
X0068644Y0140644D01*
X0069037Y0140382D01*
X0069500Y0140289D01*
X0069963Y0140382D01*
X0070356Y0140644D01*
X0070618Y0141037D01*
X0070711Y0141500D01*
X0070618Y0141963D01*
X0070356Y0142356D01*
X0069963Y0142619D01*
X0069500Y0142711D01*
D02*
G37*
G36*
X0175615Y0141093D02*
X0174392D01*
Y0139870D01*
X0174589Y0139909D01*
X0175180Y0140305D01*
X0175575Y0140896D01*
X0175615Y0141093D01*
D02*
G37*
G36*
X0173392D02*
X0172169D01*
X0172208Y0140896D01*
X0172603Y0140305D01*
X0173194Y0139909D01*
X0173392Y0139870D01*
Y0141093D01*
D02*
G37*
G36*
X0116875Y0140887D02*
Y0139664D01*
X0118098D01*
X0118059Y0139862D01*
X0117664Y0140453D01*
X0117072Y0140848D01*
X0116875Y0140887D01*
D02*
G37*
G36*
X0107000Y0140878D02*
X0106803Y0140839D01*
X0106211Y0140444D01*
X0105816Y0139853D01*
X0105777Y0139655D01*
X0107000D01*
Y0140878D01*
D02*
G37*
G36*
X0095738Y0140837D02*
X0094515D01*
X0094554Y0140639D01*
X0094949Y0140048D01*
X0095540Y0139653D01*
X0095738Y0139613D01*
Y0140837D01*
D02*
G37*
G36*
X0081500Y0140223D02*
Y0139000D01*
X0082723D01*
X0082684Y0139197D01*
X0082289Y0139789D01*
X0081697Y0140184D01*
X0081500Y0140223D01*
D02*
G37*
G36*
X0080500D02*
X0080303Y0140184D01*
X0079711Y0139789D01*
X0079316Y0139197D01*
X0079277Y0139000D01*
X0080500D01*
Y0140223D01*
D02*
G37*
G36*
X0187223Y0140000D02*
X0186000D01*
Y0138777D01*
X0186197Y0138816D01*
X0186789Y0139211D01*
X0187184Y0139803D01*
X0187223Y0140000D01*
D02*
G37*
G36*
X0185000D02*
X0183777D01*
X0183816Y0139803D01*
X0184211Y0139211D01*
X0184803Y0138816D01*
X0185000Y0138777D01*
Y0140000D01*
D02*
G37*
G36*
X0075500Y0139723D02*
X0075303Y0139684D01*
X0074711Y0139289D01*
X0074316Y0138697D01*
X0074277Y0138500D01*
X0075500D01*
Y0139723D01*
D02*
G37*
G36*
X0059062Y0140733D02*
X0058599Y0140641D01*
X0058206Y0140378D01*
X0057943Y0139986D01*
X0057851Y0139523D01*
X0057943Y0139059D01*
X0058206Y0138666D01*
X0058599Y0138404D01*
X0059062Y0138312D01*
X0059525Y0138404D01*
X0059918Y0138666D01*
X0060180Y0139059D01*
X0060273Y0139523D01*
X0060180Y0139986D01*
X0059918Y0140378D01*
X0059525Y0140641D01*
X0059062Y0140733D01*
D02*
G37*
G36*
X0123500Y0140641D02*
X0123037Y0140548D01*
X0122644Y0140286D01*
X0122381Y0139893D01*
X0122289Y0139430D01*
X0122381Y0138967D01*
X0122644Y0138574D01*
X0123037Y0138311D01*
X0123500Y0138219D01*
X0123963Y0138311D01*
X0124356Y0138574D01*
X0124618Y0138967D01*
X0124711Y0139430D01*
X0124618Y0139893D01*
X0124356Y0140286D01*
X0123963Y0140548D01*
X0123500Y0140641D01*
D02*
G37*
G36*
X0118098Y0138664D02*
X0116875D01*
Y0137441D01*
X0117072Y0137480D01*
X0117664Y0137875D01*
X0118059Y0138467D01*
X0118098Y0138664D01*
D02*
G37*
G36*
X0107000Y0138655D02*
X0105777D01*
X0105816Y0138458D01*
X0106211Y0137867D01*
X0106803Y0137472D01*
X0107000Y0137433D01*
Y0138655D01*
D02*
G37*
G36*
X0055487Y0139620D02*
X0055024Y0139528D01*
X0054631Y0139266D01*
X0054369Y0138873D01*
X0054276Y0138409D01*
X0054369Y0137946D01*
X0054631Y0137553D01*
X0055024Y0137291D01*
X0055487Y0137199D01*
X0055950Y0137291D01*
X0056343Y0137553D01*
X0056605Y0137946D01*
X0056698Y0138409D01*
X0056605Y0138873D01*
X0056343Y0139266D01*
X0055950Y0139528D01*
X0055487Y0139620D01*
D02*
G37*
G36*
X0085353Y0139441D02*
X0084890Y0139348D01*
X0084497Y0139086D01*
X0084234Y0138693D01*
X0084142Y0138230D01*
X0084234Y0137767D01*
X0084497Y0137374D01*
X0084890Y0137111D01*
X0085353Y0137019D01*
X0085816Y0137111D01*
X0086209Y0137374D01*
X0086471Y0137767D01*
X0086564Y0138230D01*
X0086471Y0138693D01*
X0086209Y0139086D01*
X0085816Y0139348D01*
X0085353Y0139441D01*
D02*
G37*
G36*
X0166000Y0141688D02*
X0165083Y0141506D01*
X0164305Y0140986D01*
X0163786Y0140209D01*
X0163603Y0139291D01*
X0163786Y0138374D01*
X0164305Y0137596D01*
X0165083Y0137077D01*
X0166000Y0136895D01*
X0166917Y0137077D01*
X0167695Y0137596D01*
X0168214Y0138374D01*
X0168397Y0139291D01*
X0168214Y0140209D01*
X0167695Y0140986D01*
X0166917Y0141506D01*
X0166000Y0141688D01*
D02*
G37*
G36*
X0126500Y0139366D02*
X0126037Y0139274D01*
X0125644Y0139012D01*
X0125382Y0138619D01*
X0125289Y0138155D01*
X0125000Y0137711D01*
X0124537Y0137619D01*
X0124144Y0137356D01*
X0123881Y0136963D01*
X0123858Y0136846D01*
X0123652Y0136495D01*
X0123315Y0136483D01*
X0123147Y0136516D01*
X0122684Y0136424D01*
X0122291Y0136162D01*
X0122029Y0135769D01*
X0121936Y0135306D01*
X0122029Y0134842D01*
X0122291Y0134449D01*
X0122684Y0134187D01*
X0123147Y0134095D01*
X0123610Y0134187D01*
X0124003Y0134449D01*
X0124266Y0134842D01*
X0124289Y0134960D01*
X0124495Y0135310D01*
X0124832Y0135323D01*
X0125000Y0135289D01*
X0125463Y0135381D01*
X0125856Y0135644D01*
X0126119Y0136037D01*
X0126211Y0136500D01*
X0126500Y0136945D01*
X0126963Y0137037D01*
X0127356Y0137300D01*
X0127619Y0137692D01*
X0127711Y0138155D01*
X0127619Y0138619D01*
X0127356Y0139012D01*
X0126963Y0139274D01*
X0126500Y0139366D01*
D02*
G37*
G36*
X0132303Y0143108D02*
X0131840Y0143016D01*
X0131447Y0142754D01*
X0131184Y0142361D01*
X0131092Y0141898D01*
X0131184Y0141434D01*
X0131447Y0141042D01*
X0131840Y0140779D01*
X0132115Y0140215D01*
X0132014Y0139971D01*
X0131919Y0139250D01*
X0132014Y0138529D01*
X0132292Y0137857D01*
X0132735Y0137280D01*
X0133312Y0136837D01*
X0133984Y0136559D01*
X0134705Y0136464D01*
X0135426Y0136559D01*
X0136098Y0136837D01*
X0136675Y0137280D01*
X0137118Y0137857D01*
X0137396Y0138529D01*
X0137491Y0139250D01*
X0137396Y0139971D01*
X0137118Y0140643D01*
X0136675Y0141220D01*
X0136098Y0141663D01*
X0135426Y0141941D01*
X0134705Y0142036D01*
X0133984Y0141941D01*
X0133442Y0142258D01*
X0133421Y0142361D01*
X0133159Y0142754D01*
X0132766Y0143016D01*
X0132303Y0143108D01*
D02*
G37*
G36*
X0178819Y0138842D02*
X0178355Y0138750D01*
X0177962Y0138487D01*
X0177700Y0138094D01*
X0177608Y0137631D01*
X0177700Y0137168D01*
X0177962Y0136775D01*
X0178355Y0136513D01*
X0178819Y0136421D01*
X0179282Y0136513D01*
X0179675Y0136775D01*
X0179937Y0137168D01*
X0180029Y0137631D01*
X0179937Y0138094D01*
X0179675Y0138487D01*
X0179282Y0138750D01*
X0178819Y0138842D01*
D02*
G37*
G36*
X0162000Y0137223D02*
Y0136000D01*
X0163223D01*
X0163184Y0136197D01*
X0162789Y0136789D01*
X0162197Y0137184D01*
X0162000Y0137223D01*
D02*
G37*
G36*
X0161000D02*
X0160803Y0137184D01*
X0160211Y0136789D01*
X0159816Y0136197D01*
X0159777Y0136000D01*
X0161000D01*
Y0137223D01*
D02*
G37*
G36*
X0116000Y0136223D02*
X0115803Y0136184D01*
X0115335Y0135871D01*
X0115000Y0135821D01*
X0114665Y0135871D01*
X0114197Y0136184D01*
X0114000Y0136223D01*
Y0134500D01*
Y0132777D01*
X0114197Y0132816D01*
X0114665Y0133129D01*
X0115000Y0133179D01*
X0115335Y0133129D01*
X0115803Y0132816D01*
X0116000Y0132777D01*
Y0134500D01*
Y0136223D01*
D02*
G37*
G36*
X0113000D02*
X0112803Y0136184D01*
X0112335Y0135871D01*
X0112000Y0135821D01*
X0111665Y0135871D01*
X0111197Y0136184D01*
X0111000Y0136223D01*
Y0134500D01*
Y0132777D01*
X0111197Y0132816D01*
X0111665Y0133129D01*
X0112000Y0133179D01*
X0112335Y0133129D01*
X0112803Y0132816D01*
X0113000Y0132777D01*
Y0134500D01*
Y0136223D01*
D02*
G37*
G36*
X0110000D02*
X0109803Y0136184D01*
X0109211Y0135789D01*
X0109163Y0135716D01*
X0108543Y0135608D01*
X0108197Y0135839D01*
X0108000Y0135879D01*
Y0134155D01*
Y0132433D01*
X0108197Y0132472D01*
X0108789Y0132867D01*
X0108837Y0132940D01*
X0109457Y0133047D01*
X0109803Y0132816D01*
X0110000Y0132777D01*
Y0134500D01*
Y0136223D01*
D02*
G37*
G36*
X0144605Y0137843D02*
X0144142Y0137751D01*
X0143749Y0137488D01*
X0143487Y0137096D01*
X0143394Y0136632D01*
X0143487Y0136169D01*
X0143749Y0135776D01*
X0144142Y0135514D01*
X0144605Y0135422D01*
X0145068Y0135514D01*
X0145461Y0135776D01*
X0145724Y0136169D01*
X0145816Y0136632D01*
X0145724Y0137096D01*
X0145461Y0137488D01*
X0145068Y0137751D01*
X0144605Y0137843D01*
D02*
G37*
G36*
X0076500Y0139723D02*
Y0138000D01*
X0076000D01*
Y0137500D01*
X0074277D01*
X0074316Y0137303D01*
X0074711Y0136711D01*
X0075303Y0136316D01*
X0076000Y0136178D01*
X0076340Y0136245D01*
X0076381Y0136037D01*
X0076644Y0135644D01*
X0077037Y0135381D01*
X0077500Y0135289D01*
X0077963Y0135381D01*
X0078237Y0135564D01*
X0078394Y0135631D01*
X0078848Y0135481D01*
X0078932Y0135356D01*
X0079325Y0135093D01*
X0079788Y0135001D01*
X0080252Y0135093D01*
X0080644Y0135356D01*
X0080907Y0135748D01*
X0081434Y0135837D01*
X0081483Y0135764D01*
X0081875Y0135501D01*
X0082339Y0135409D01*
X0082802Y0135501D01*
X0083195Y0135764D01*
X0083457Y0136157D01*
X0083549Y0136620D01*
X0083457Y0137083D01*
X0083195Y0137476D01*
X0082802Y0137738D01*
X0082778Y0137743D01*
X0082684Y0137803D01*
X0082723Y0138000D01*
X0079277D01*
X0079316Y0137803D01*
X0079109Y0137384D01*
X0078661Y0137158D01*
X0078440Y0137231D01*
X0078356Y0137356D01*
X0077963Y0137619D01*
X0077755Y0137660D01*
X0077822Y0138000D01*
X0077684Y0138697D01*
X0077289Y0139289D01*
X0076697Y0139684D01*
X0076500Y0139723D01*
D02*
G37*
G36*
X0156709Y0136223D02*
X0156512Y0136184D01*
X0155921Y0135789D01*
X0155526Y0135197D01*
X0155487Y0135000D01*
X0156709D01*
Y0136223D01*
D02*
G37*
G36*
X0117000D02*
Y0135000D01*
X0118223D01*
X0118184Y0135197D01*
X0117789Y0135789D01*
X0117197Y0136184D01*
X0117000Y0136223D01*
D02*
G37*
G36*
X0098174Y0143580D02*
X0096951D01*
X0096962Y0143525D01*
X0096738Y0143218D01*
Y0141337D01*
Y0139613D01*
X0096935Y0139653D01*
X0097527Y0140048D01*
X0097765Y0140404D01*
X0098268Y0140257D01*
X0098329Y0139948D01*
X0098592Y0139556D01*
X0098985Y0139293D01*
X0099005Y0139289D01*
Y0138779D01*
X0098885Y0138756D01*
X0098492Y0138493D01*
X0098229Y0138100D01*
X0098143Y0137665D01*
X0098137Y0137637D01*
X0097736Y0137275D01*
X0097273Y0137183D01*
X0096880Y0136920D01*
X0096618Y0136528D01*
X0096526Y0136064D01*
X0096618Y0135601D01*
X0096880Y0135208D01*
X0097273Y0134946D01*
X0097736Y0134854D01*
X0098200Y0134946D01*
X0098592Y0135208D01*
X0098855Y0135601D01*
X0098941Y0136036D01*
X0098947Y0136064D01*
X0099348Y0136426D01*
X0099811Y0136519D01*
X0100204Y0136781D01*
X0100467Y0137174D01*
X0100559Y0137637D01*
X0100467Y0138100D01*
X0100204Y0138493D01*
X0099811Y0138756D01*
X0099791Y0138760D01*
Y0139269D01*
X0099911Y0139293D01*
X0100304Y0139556D01*
X0100566Y0139948D01*
X0100659Y0140412D01*
X0100566Y0140875D01*
X0100304Y0141268D01*
X0099911Y0141530D01*
X0099448Y0141622D01*
X0098985Y0141530D01*
X0098592Y0141268D01*
X0098542Y0141193D01*
X0098145Y0141311D01*
X0098055Y0141364D01*
X0097950Y0141892D01*
X0098174Y0142199D01*
Y0143580D01*
D02*
G37*
G36*
X0107000Y0135879D02*
X0106803Y0135839D01*
X0106211Y0135444D01*
X0105816Y0134853D01*
X0105777Y0134655D01*
X0107000D01*
Y0135879D01*
D02*
G37*
G36*
X0191500Y0135723D02*
Y0134500D01*
X0192723D01*
X0192684Y0134697D01*
X0192289Y0135289D01*
X0191697Y0135684D01*
X0191500Y0135723D01*
D02*
G37*
G36*
X0190500D02*
X0190303Y0135684D01*
X0189711Y0135289D01*
X0189316Y0134697D01*
X0189277Y0134500D01*
X0190500D01*
Y0135723D01*
D02*
G37*
G36*
X0044000Y0136211D02*
X0043537Y0136118D01*
X0043144Y0135856D01*
X0042882Y0135463D01*
X0042789Y0135000D01*
X0042882Y0134537D01*
X0043144Y0134144D01*
X0043537Y0133881D01*
X0044000Y0133789D01*
X0044463Y0133881D01*
X0044856Y0134144D01*
X0045118Y0134537D01*
X0045211Y0135000D01*
X0045118Y0135463D01*
X0044856Y0135856D01*
X0044463Y0136118D01*
X0044000Y0136211D01*
D02*
G37*
G36*
X0196732Y0135211D02*
X0196269Y0135118D01*
X0195876Y0134856D01*
X0195613Y0134463D01*
X0195521Y0134000D01*
X0195613Y0133537D01*
X0195876Y0133144D01*
X0196269Y0132881D01*
X0196732Y0132789D01*
X0197195Y0132881D01*
X0197588Y0133144D01*
X0197850Y0133537D01*
X0197943Y0134000D01*
X0197850Y0134463D01*
X0197588Y0134856D01*
X0197195Y0135118D01*
X0196732Y0135211D01*
D02*
G37*
G36*
X0089000D02*
X0088537Y0135118D01*
X0088144Y0134856D01*
X0087881Y0134463D01*
X0087789Y0134000D01*
X0087881Y0133537D01*
X0088144Y0133144D01*
X0088537Y0132881D01*
X0089000Y0132789D01*
X0089463Y0132881D01*
X0089856Y0133144D01*
X0090118Y0133537D01*
X0090211Y0134000D01*
X0090118Y0134463D01*
X0089856Y0134856D01*
X0089463Y0135118D01*
X0089000Y0135211D01*
D02*
G37*
G36*
X0073500D02*
X0073037Y0135118D01*
X0072644Y0134856D01*
X0072382Y0134463D01*
X0072289Y0134000D01*
X0072382Y0133537D01*
X0072644Y0133144D01*
X0073037Y0132881D01*
X0073500Y0132789D01*
X0073963Y0132881D01*
X0074356Y0133144D01*
X0074619Y0133537D01*
X0074711Y0134000D01*
X0074619Y0134463D01*
X0074356Y0134856D01*
X0073963Y0135118D01*
X0073500Y0135211D01*
D02*
G37*
G36*
X0118223Y0134000D02*
X0117000D01*
Y0132777D01*
X0117197Y0132816D01*
X0117789Y0133211D01*
X0118184Y0133803D01*
X0118223Y0134000D01*
D02*
G37*
G36*
X0107000Y0133656D02*
X0105777D01*
X0105816Y0133458D01*
X0106211Y0132867D01*
X0106803Y0132472D01*
X0107000Y0132433D01*
Y0133656D01*
D02*
G37*
G36*
X0192723Y0133500D02*
X0191500D01*
Y0132277D01*
X0191697Y0132316D01*
X0192289Y0132711D01*
X0192684Y0133303D01*
X0192723Y0133500D01*
D02*
G37*
G36*
X0190500D02*
X0189277D01*
X0189316Y0133303D01*
X0189711Y0132711D01*
X0190303Y0132316D01*
X0190500Y0132277D01*
Y0133500D01*
D02*
G37*
G36*
X0085500Y0134591D02*
X0085037Y0134499D01*
X0084644Y0134236D01*
X0084382Y0133843D01*
X0084289Y0133380D01*
X0084382Y0132917D01*
X0084644Y0132524D01*
X0085037Y0132262D01*
X0085500Y0132169D01*
X0085963Y0132262D01*
X0086356Y0132524D01*
X0086619Y0132917D01*
X0086711Y0133380D01*
X0086619Y0133843D01*
X0086356Y0134236D01*
X0085963Y0134499D01*
X0085500Y0134591D01*
D02*
G37*
G36*
X0068573Y0132837D02*
Y0131614D01*
X0069796D01*
X0069757Y0131812D01*
X0069362Y0132403D01*
X0068771Y0132798D01*
X0068573Y0132837D01*
D02*
G37*
G36*
X0067573D02*
X0067376Y0132798D01*
X0066785Y0132403D01*
X0066390Y0131812D01*
X0066350Y0131614D01*
X0067573D01*
Y0132837D01*
D02*
G37*
G36*
X0081000Y0132723D02*
Y0131500D01*
X0082223D01*
X0082184Y0131697D01*
X0081789Y0132289D01*
X0081197Y0132684D01*
X0081000Y0132723D01*
D02*
G37*
G36*
X0080000D02*
X0079803Y0132684D01*
X0079211Y0132289D01*
X0078816Y0131697D01*
X0078777Y0131500D01*
X0080000D01*
Y0132723D01*
D02*
G37*
G36*
X0139705Y0137036D02*
X0138984Y0136941D01*
X0138312Y0136663D01*
X0137735Y0136220D01*
X0137292Y0135643D01*
X0137014Y0134971D01*
X0136919Y0134250D01*
X0137014Y0133529D01*
X0137292Y0132857D01*
X0137735Y0132280D01*
X0138312Y0131837D01*
X0138984Y0131559D01*
X0139705Y0131464D01*
X0140426Y0131559D01*
X0141098Y0131837D01*
X0141675Y0132280D01*
X0142118Y0132857D01*
X0142396Y0133529D01*
X0142491Y0134250D01*
X0142396Y0134971D01*
X0142118Y0135643D01*
X0141675Y0136220D01*
X0141098Y0136663D01*
X0140426Y0136941D01*
X0139705Y0137036D01*
D02*
G37*
G36*
X0129705D02*
X0128984Y0136941D01*
X0128312Y0136663D01*
X0127735Y0136220D01*
X0127292Y0135643D01*
X0127014Y0134971D01*
X0126919Y0134250D01*
X0127014Y0133529D01*
X0127292Y0132857D01*
X0127735Y0132280D01*
X0128312Y0131837D01*
X0128984Y0131559D01*
X0129705Y0131464D01*
X0130426Y0131559D01*
X0131098Y0131837D01*
X0131675Y0132280D01*
X0132117Y0132857D01*
X0132396Y0133529D01*
X0132491Y0134250D01*
X0132396Y0134971D01*
X0132117Y0135643D01*
X0131675Y0136220D01*
X0131098Y0136663D01*
X0130426Y0136941D01*
X0129705Y0137036D01*
D02*
G37*
G36*
X0185500Y0136211D02*
X0185037Y0136118D01*
X0184644Y0135856D01*
X0184381Y0135463D01*
X0184289Y0135000D01*
X0184381Y0134537D01*
X0184607Y0134199D01*
X0184557Y0133972D01*
X0184417Y0133694D01*
X0184037Y0133618D01*
X0183644Y0133356D01*
X0183381Y0132963D01*
X0183289Y0132500D01*
X0183381Y0132037D01*
X0183644Y0131644D01*
X0184037Y0131381D01*
X0184500Y0131289D01*
X0184963Y0131381D01*
X0185356Y0131644D01*
X0185618Y0132037D01*
X0185711Y0132500D01*
X0185618Y0132963D01*
X0185393Y0133301D01*
X0185443Y0133528D01*
X0185583Y0133806D01*
X0185963Y0133881D01*
X0186356Y0134144D01*
X0186618Y0134537D01*
X0186711Y0135000D01*
X0186618Y0135463D01*
X0186356Y0135856D01*
X0185963Y0136118D01*
X0185500Y0136211D01*
D02*
G37*
G36*
X0113000Y0131378D02*
X0112803Y0131339D01*
X0112335Y0131027D01*
X0112000Y0130976D01*
X0111665Y0131027D01*
X0111197Y0131339D01*
X0111000Y0131378D01*
Y0129656D01*
Y0127933D01*
X0111197Y0127972D01*
X0111665Y0128284D01*
X0112000Y0128335D01*
X0112335Y0128284D01*
X0112803Y0127972D01*
X0113000Y0127933D01*
Y0129656D01*
Y0131378D01*
D02*
G37*
G36*
X0110000D02*
X0109803Y0131339D01*
X0109335Y0131027D01*
X0109000Y0130976D01*
X0108665Y0131027D01*
X0108197Y0131339D01*
X0108000Y0131378D01*
Y0129656D01*
Y0127933D01*
X0108197Y0127972D01*
X0108665Y0128284D01*
X0109000Y0128335D01*
X0109335Y0128284D01*
X0109803Y0127972D01*
X0110000Y0127933D01*
Y0129656D01*
Y0131378D01*
D02*
G37*
G36*
X0115875Y0131387D02*
X0115678Y0131348D01*
X0115292Y0131090D01*
X0114789Y0130944D01*
X0114197Y0131339D01*
X0114000Y0131378D01*
Y0129656D01*
Y0127933D01*
X0114197Y0127972D01*
X0114583Y0128229D01*
X0115086Y0128375D01*
X0115678Y0127980D01*
X0115875Y0127941D01*
Y0129664D01*
Y0131387D01*
D02*
G37*
G36*
X0157709Y0136223D02*
Y0134500D01*
Y0132777D01*
X0157907Y0132816D01*
X0158498Y0133211D01*
X0158794Y0133655D01*
X0159205Y0133522D01*
X0159278Y0133478D01*
X0159365Y0133037D01*
X0159628Y0132644D01*
X0160021Y0132381D01*
X0160252Y0132335D01*
X0160711Y0132078D01*
X0160803Y0131615D01*
X0161066Y0131222D01*
X0161459Y0130960D01*
X0161922Y0130868D01*
X0162385Y0130960D01*
X0162778Y0131222D01*
X0163040Y0131615D01*
X0163133Y0132078D01*
X0163040Y0132542D01*
X0162778Y0132934D01*
X0162385Y0133197D01*
X0162153Y0133243D01*
X0162081Y0133283D01*
X0162163Y0133809D01*
X0162197Y0133816D01*
X0162789Y0134211D01*
X0163184Y0134803D01*
X0163223Y0135000D01*
X0159777D01*
X0159816Y0134803D01*
X0159752Y0134477D01*
X0159501Y0134297D01*
X0159238Y0134411D01*
X0159021Y0134557D01*
X0158893Y0135197D01*
X0158498Y0135789D01*
X0157907Y0136184D01*
X0157709Y0136223D01*
D02*
G37*
G36*
X0047500Y0131723D02*
Y0130500D01*
X0048723D01*
X0048684Y0130697D01*
X0048289Y0131289D01*
X0047697Y0131684D01*
X0047500Y0131723D01*
D02*
G37*
G36*
X0044000Y0132711D02*
X0043537Y0132618D01*
X0043144Y0132356D01*
X0042882Y0131963D01*
X0042789Y0131500D01*
X0042882Y0131037D01*
X0043144Y0130644D01*
X0043537Y0130382D01*
X0044000Y0130289D01*
X0044463Y0130382D01*
X0044787Y0130597D01*
X0045044Y0130500D01*
X0046500D01*
Y0131723D01*
X0046303Y0131684D01*
X0045711Y0131289D01*
X0045665Y0131219D01*
X0045193Y0131414D01*
X0045211Y0131500D01*
X0045118Y0131963D01*
X0044856Y0132356D01*
X0044463Y0132618D01*
X0044000Y0132711D01*
D02*
G37*
G36*
X0123000D02*
X0122537Y0132618D01*
X0122144Y0132356D01*
X0121881Y0131963D01*
X0121789Y0131500D01*
X0121881Y0131037D01*
X0122144Y0130644D01*
X0122537Y0130382D01*
X0123000Y0130289D01*
X0123463Y0130382D01*
X0123856Y0130644D01*
X0124118Y0131037D01*
X0124211Y0131500D01*
X0124118Y0131963D01*
X0123856Y0132356D01*
X0123463Y0132618D01*
X0123000Y0132711D01*
D02*
G37*
G36*
X0116875Y0131387D02*
Y0130164D01*
X0118098D01*
X0118059Y0130361D01*
X0117664Y0130953D01*
X0117072Y0131348D01*
X0116875Y0131387D01*
D02*
G37*
G36*
X0107000Y0131378D02*
X0106803Y0131339D01*
X0106211Y0130944D01*
X0105816Y0130353D01*
X0105777Y0130156D01*
X0107000D01*
Y0131378D01*
D02*
G37*
G36*
X0074000Y0132211D02*
X0073537Y0132118D01*
X0073144Y0131856D01*
X0072882Y0131463D01*
X0072789Y0131000D01*
X0072882Y0130537D01*
X0073144Y0130144D01*
X0073537Y0129882D01*
X0074000Y0129789D01*
X0074463Y0129882D01*
X0074856Y0130144D01*
X0075118Y0130537D01*
X0075211Y0131000D01*
X0075118Y0131463D01*
X0074856Y0131856D01*
X0074463Y0132118D01*
X0074000Y0132211D01*
D02*
G37*
G36*
X0135205Y0132575D02*
Y0129750D01*
X0138030D01*
X0137980Y0130128D01*
X0137642Y0130946D01*
X0137103Y0131648D01*
X0136400Y0132187D01*
X0135582Y0132526D01*
X0135205Y0132575D01*
D02*
G37*
G36*
X0134205D02*
X0133827Y0132526D01*
X0133009Y0132187D01*
X0132307Y0131648D01*
X0131768Y0130946D01*
X0131429Y0130128D01*
X0131379Y0129750D01*
X0134205D01*
Y0132575D01*
D02*
G37*
G36*
X0069796Y0130614D02*
X0068573D01*
Y0129391D01*
X0068771Y0129431D01*
X0069362Y0129826D01*
X0069757Y0130417D01*
X0069796Y0130614D01*
D02*
G37*
G36*
X0067573D02*
X0066350D01*
X0066390Y0130417D01*
X0066785Y0129826D01*
X0067376Y0129431D01*
X0067573Y0129391D01*
Y0130614D01*
D02*
G37*
G36*
X0082223Y0130500D02*
X0081000D01*
Y0129277D01*
X0081197Y0129316D01*
X0081789Y0129711D01*
X0082184Y0130303D01*
X0082223Y0130500D01*
D02*
G37*
G36*
X0080000D02*
X0078777D01*
X0078816Y0130303D01*
X0079211Y0129711D01*
X0079803Y0129316D01*
X0080000Y0129277D01*
Y0130500D01*
D02*
G37*
G36*
X0127000Y0130711D02*
X0126537Y0130619D01*
X0126144Y0130356D01*
X0125882Y0129963D01*
X0125789Y0129500D01*
X0125882Y0129037D01*
X0126144Y0128644D01*
X0126537Y0128382D01*
X0127000Y0128289D01*
X0127463Y0128382D01*
X0127856Y0128644D01*
X0128119Y0129037D01*
X0128211Y0129500D01*
X0128119Y0129963D01*
X0127856Y0130356D01*
X0127463Y0130619D01*
X0127000Y0130711D01*
D02*
G37*
G36*
X0048723Y0129500D02*
X0047500D01*
Y0128277D01*
X0047697Y0128316D01*
X0048289Y0128711D01*
X0048684Y0129303D01*
X0048723Y0129500D01*
D02*
G37*
G36*
X0046500D02*
X0045277D01*
X0045316Y0129303D01*
X0045711Y0128711D01*
X0046303Y0128316D01*
X0046500Y0128277D01*
Y0129500D01*
D02*
G37*
G36*
X0118098Y0129164D02*
X0116875D01*
Y0127941D01*
X0117072Y0127980D01*
X0117664Y0128375D01*
X0118059Y0128967D01*
X0118098Y0129164D01*
D02*
G37*
G36*
X0107000Y0129156D02*
X0105777D01*
X0105816Y0128958D01*
X0106211Y0128367D01*
X0106803Y0127972D01*
X0107000Y0127933D01*
Y0129156D01*
D02*
G37*
G36*
X0059865Y0130256D02*
X0059401Y0130164D01*
X0059009Y0129902D01*
X0058746Y0129509D01*
X0058654Y0129046D01*
X0058746Y0128582D01*
X0059009Y0128190D01*
X0059401Y0127927D01*
X0059865Y0127835D01*
X0060328Y0127927D01*
X0060721Y0128190D01*
X0060983Y0128582D01*
X0061075Y0129046D01*
X0060983Y0129509D01*
X0060721Y0129902D01*
X0060328Y0130164D01*
X0059865Y0130256D01*
D02*
G37*
G36*
X0057000Y0128723D02*
Y0127500D01*
X0058223D01*
X0058184Y0127697D01*
X0057789Y0128289D01*
X0057197Y0128684D01*
X0057000Y0128723D01*
D02*
G37*
G36*
X0056000D02*
X0055803Y0128684D01*
X0055211Y0128289D01*
X0054816Y0127697D01*
X0054777Y0127500D01*
X0056000D01*
Y0128723D01*
D02*
G37*
G36*
X0039639Y0130350D02*
X0039176Y0130258D01*
X0038783Y0129995D01*
X0038521Y0129603D01*
X0038429Y0129139D01*
X0038521Y0128676D01*
X0038783Y0128283D01*
X0039176Y0128021D01*
X0039639Y0127928D01*
X0040102Y0128021D01*
X0040430Y0128240D01*
X0040742Y0128184D01*
X0040969Y0128092D01*
X0041011Y0127883D01*
X0041360Y0127360D01*
X0041883Y0127011D01*
X0042500Y0126888D01*
X0043117Y0127011D01*
X0043640Y0127360D01*
X0043989Y0127883D01*
X0044112Y0128500D01*
X0043989Y0129117D01*
X0043640Y0129640D01*
X0043117Y0129989D01*
X0042500Y0130112D01*
X0041883Y0129989D01*
X0041360Y0129640D01*
X0041283Y0129525D01*
X0040758Y0129603D01*
X0040495Y0129995D01*
X0040102Y0130258D01*
X0039639Y0130350D01*
D02*
G37*
G36*
X0184000Y0127882D02*
X0183125Y0127767D01*
X0182309Y0127429D01*
X0181609Y0126891D01*
X0181071Y0126191D01*
X0180456Y0126011D01*
X0180197Y0126184D01*
X0180000Y0126223D01*
Y0124500D01*
Y0122777D01*
X0180197Y0122816D01*
X0180456Y0122989D01*
X0181071Y0122809D01*
X0181609Y0122109D01*
X0182309Y0121571D01*
X0183125Y0121233D01*
X0184000Y0121118D01*
X0184875Y0121233D01*
X0185691Y0121571D01*
X0186391Y0122109D01*
X0186929Y0122809D01*
X0187267Y0123625D01*
X0187382Y0124500D01*
X0187267Y0125375D01*
X0186929Y0126191D01*
X0186391Y0126891D01*
X0185691Y0127429D01*
X0184875Y0127767D01*
X0184000Y0127882D01*
D02*
G37*
G36*
X0069209Y0128427D02*
X0068745Y0128335D01*
X0068353Y0128073D01*
X0068090Y0127680D01*
X0067998Y0127216D01*
X0068090Y0126753D01*
X0068353Y0126360D01*
X0068745Y0126098D01*
X0069209Y0126006D01*
X0069672Y0126098D01*
X0070065Y0126360D01*
X0070327Y0126753D01*
X0070419Y0127216D01*
X0070327Y0127680D01*
X0070065Y0128073D01*
X0069672Y0128335D01*
X0069209Y0128427D01*
D02*
G37*
G36*
X0138030Y0128750D02*
X0135205D01*
Y0125925D01*
X0135582Y0125974D01*
X0136400Y0126313D01*
X0137103Y0126852D01*
X0137642Y0127554D01*
X0137980Y0128372D01*
X0138030Y0128750D01*
D02*
G37*
G36*
X0134205D02*
X0131379D01*
X0131429Y0128372D01*
X0131768Y0127554D01*
X0132307Y0126852D01*
X0133009Y0126313D01*
X0133827Y0125974D01*
X0134205Y0125925D01*
Y0128750D01*
D02*
G37*
G36*
X0127000Y0127711D02*
X0126537Y0127619D01*
X0126144Y0127356D01*
X0125882Y0126963D01*
X0125789Y0126500D01*
X0125882Y0126037D01*
X0126144Y0125644D01*
X0126537Y0125382D01*
X0127000Y0125289D01*
X0127463Y0125382D01*
X0127856Y0125644D01*
X0128119Y0126037D01*
X0128211Y0126500D01*
X0128119Y0126963D01*
X0127856Y0127356D01*
X0127463Y0127619D01*
X0127000Y0127711D01*
D02*
G37*
G36*
X0056000Y0126500D02*
X0054777D01*
X0054816Y0126303D01*
X0055211Y0125711D01*
X0055803Y0125316D01*
X0056000Y0125277D01*
Y0126500D01*
D02*
G37*
G36*
X0197953Y0128453D02*
X0194500D01*
Y0125000D01*
X0197953D01*
Y0128453D01*
D02*
G37*
G36*
X0193500D02*
X0190047D01*
Y0125000D01*
X0193500D01*
Y0128453D01*
D02*
G37*
G36*
X0092500Y0125211D02*
X0092037Y0125119D01*
X0091644Y0124856D01*
X0091356D01*
X0090963Y0125119D01*
X0090500Y0125211D01*
X0090037Y0125119D01*
X0089644Y0124856D01*
X0089381Y0124463D01*
X0089289Y0124000D01*
X0089381Y0123537D01*
X0089644Y0123144D01*
X0090037Y0122881D01*
X0090500Y0122789D01*
X0090963Y0122881D01*
X0091139Y0122999D01*
X0091500Y0123103D01*
X0091861Y0122999D01*
X0092037Y0122881D01*
X0092500Y0122789D01*
X0092963Y0122881D01*
X0093356Y0123144D01*
X0093619Y0123537D01*
X0093711Y0124000D01*
X0093619Y0124463D01*
X0093356Y0124856D01*
X0092963Y0125119D01*
X0092500Y0125211D01*
D02*
G37*
G36*
X0171500Y0127211D02*
X0171037Y0127119D01*
X0170644Y0126856D01*
X0170381Y0126463D01*
X0170289Y0126000D01*
X0170381Y0125537D01*
X0170644Y0125144D01*
X0171037Y0124881D01*
X0171500Y0124789D01*
X0171963Y0124881D01*
X0172356Y0125144D01*
X0172618Y0125537D01*
X0172711Y0126000D01*
X0172618Y0126463D01*
X0172356Y0126856D01*
X0171963Y0127119D01*
X0171500Y0127211D01*
D02*
G37*
G36*
X0100000Y0126711D02*
X0099537Y0126619D01*
X0099144Y0126356D01*
X0098882Y0125963D01*
X0098789Y0125500D01*
X0098882Y0125037D01*
X0099144Y0124644D01*
X0099537Y0124381D01*
X0100000Y0124289D01*
X0100463Y0124381D01*
X0100856Y0124644D01*
X0101119Y0125037D01*
X0101211Y0125500D01*
X0101119Y0125963D01*
X0100856Y0126356D01*
X0100463Y0126619D01*
X0100000Y0126711D01*
D02*
G37*
G36*
X0120500Y0125711D02*
X0120037Y0125619D01*
X0119644Y0125356D01*
X0119381Y0124963D01*
X0119289Y0124500D01*
X0119381Y0124037D01*
X0119644Y0123644D01*
X0120037Y0123381D01*
X0120500Y0123289D01*
X0120963Y0123381D01*
X0121356Y0123644D01*
X0121618Y0124037D01*
X0121711Y0124500D01*
X0121618Y0124963D01*
X0121356Y0125356D01*
X0120963Y0125619D01*
X0120500Y0125711D01*
D02*
G37*
G36*
X0125500Y0125211D02*
X0125037Y0125119D01*
X0124644Y0124856D01*
X0124381Y0124463D01*
X0124289Y0124000D01*
X0124381Y0123537D01*
X0124644Y0123144D01*
X0125037Y0122881D01*
X0125500Y0122789D01*
X0125963Y0122881D01*
X0126356Y0123144D01*
X0126619Y0123537D01*
X0126711Y0124000D01*
X0126619Y0124463D01*
X0126356Y0124856D01*
X0125963Y0125119D01*
X0125500Y0125211D01*
D02*
G37*
G36*
X0048500D02*
X0048037Y0125119D01*
X0047644Y0124856D01*
X0047381Y0124463D01*
X0047289Y0124000D01*
X0047381Y0123537D01*
X0047644Y0123144D01*
X0048037Y0122881D01*
X0048500Y0122789D01*
X0048963Y0122881D01*
X0049356Y0123144D01*
X0049619Y0123537D01*
X0049711Y0124000D01*
X0049619Y0124463D01*
X0049356Y0124856D01*
X0048963Y0125119D01*
X0048500Y0125211D01*
D02*
G37*
G36*
X0038500Y0123723D02*
Y0122500D01*
X0039723D01*
X0039684Y0122697D01*
X0039289Y0123289D01*
X0038697Y0123684D01*
X0038500Y0123723D01*
D02*
G37*
G36*
X0037500D02*
X0037303Y0123684D01*
X0036711Y0123289D01*
X0036316Y0122697D01*
X0036277Y0122500D01*
X0037500D01*
Y0123723D01*
D02*
G37*
G36*
X0044500Y0122711D02*
X0044037Y0122618D01*
X0043644Y0122356D01*
X0043387Y0121971D01*
X0043175Y0121917D01*
X0042864Y0121923D01*
X0042651Y0122242D01*
X0042258Y0122504D01*
X0041795Y0122596D01*
X0041331Y0122504D01*
X0040938Y0122242D01*
X0040676Y0121849D01*
X0040584Y0121386D01*
X0040676Y0120923D01*
X0040938Y0120530D01*
X0041331Y0120267D01*
X0041795Y0120175D01*
X0042258Y0120267D01*
X0042651Y0120530D01*
X0042908Y0120914D01*
X0043120Y0120969D01*
X0043431Y0120963D01*
X0043644Y0120644D01*
X0044037Y0120381D01*
X0044500Y0120289D01*
X0044963Y0120381D01*
X0045356Y0120644D01*
X0045619Y0121037D01*
X0045711Y0121500D01*
X0045619Y0121963D01*
X0045356Y0122356D01*
X0044963Y0122618D01*
X0044500Y0122711D01*
D02*
G37*
G36*
X0054500Y0124211D02*
X0054037Y0124118D01*
X0053644Y0123856D01*
X0053382Y0123463D01*
X0053289Y0123000D01*
X0053382Y0122537D01*
X0053644Y0122144D01*
X0054037Y0121881D01*
X0054500Y0121789D01*
X0054963Y0121881D01*
X0055356Y0122144D01*
X0055619Y0122537D01*
X0055711Y0123000D01*
X0055619Y0123463D01*
X0055356Y0123856D01*
X0054963Y0124118D01*
X0054500Y0124211D01*
D02*
G37*
G36*
X0058223Y0126500D02*
X0057000D01*
Y0125265D01*
X0057147Y0125149D01*
X0057363Y0124872D01*
X0057289Y0124500D01*
X0057381Y0124037D01*
X0057644Y0123644D01*
X0058037Y0123381D01*
X0058500Y0123289D01*
X0058670Y0123323D01*
X0059099Y0122926D01*
X0059102Y0122918D01*
X0059193Y0122462D01*
X0059455Y0122069D01*
X0059848Y0121807D01*
X0060311Y0121714D01*
X0060774Y0121807D01*
X0061167Y0122069D01*
X0061430Y0122462D01*
X0061522Y0122925D01*
X0061430Y0123389D01*
X0061167Y0123781D01*
X0060774Y0124044D01*
X0060311Y0124136D01*
X0060141Y0124102D01*
X0059712Y0124499D01*
X0059709Y0124507D01*
X0059619Y0124963D01*
X0059356Y0125356D01*
X0058963Y0125619D01*
X0058500Y0125711D01*
X0058373Y0125685D01*
X0058072Y0126135D01*
X0058184Y0126303D01*
X0058223Y0126500D01*
D02*
G37*
G36*
X0112879Y0123832D02*
X0112416Y0123740D01*
X0112023Y0123477D01*
X0111760Y0123084D01*
X0111668Y0122621D01*
X0111760Y0122158D01*
X0112023Y0121765D01*
X0112416Y0121503D01*
X0112879Y0121410D01*
X0113342Y0121503D01*
X0113735Y0121765D01*
X0113997Y0122158D01*
X0114090Y0122621D01*
X0113997Y0123084D01*
X0113735Y0123477D01*
X0113342Y0123740D01*
X0112879Y0123832D01*
D02*
G37*
G36*
X0085405Y0127683D02*
X0084582Y0127575D01*
X0083814Y0127257D01*
X0083155Y0126751D01*
X0082649Y0126092D01*
X0082331Y0125324D01*
X0082222Y0124500D01*
X0082331Y0123676D01*
X0082649Y0122908D01*
X0083155Y0122249D01*
X0083814Y0121743D01*
X0084582Y0121425D01*
X0085405Y0121317D01*
X0086229Y0121425D01*
X0086997Y0121743D01*
X0087656Y0122249D01*
X0088162Y0122908D01*
X0088480Y0123676D01*
X0088589Y0124500D01*
X0088480Y0125324D01*
X0088162Y0126092D01*
X0087656Y0126751D01*
X0086997Y0127257D01*
X0086229Y0127575D01*
X0085405Y0127683D01*
D02*
G37*
G36*
X0073594D02*
X0072771Y0127575D01*
X0072003Y0127257D01*
X0071344Y0126751D01*
X0070838Y0126092D01*
X0070520Y0125324D01*
X0070411Y0124500D01*
X0070520Y0123676D01*
X0070838Y0122908D01*
X0071344Y0122249D01*
X0072003Y0121743D01*
X0072771Y0121425D01*
X0073594Y0121317D01*
X0074418Y0121425D01*
X0075186Y0121743D01*
X0075845Y0122249D01*
X0076351Y0122908D01*
X0076669Y0123676D01*
X0076778Y0124500D01*
X0076669Y0125324D01*
X0076351Y0126092D01*
X0075845Y0126751D01*
X0075186Y0127257D01*
X0074418Y0127575D01*
X0073594Y0127683D01*
D02*
G37*
G36*
X0116888Y0123733D02*
X0116425Y0123641D01*
X0116032Y0123379D01*
X0115770Y0122986D01*
X0115677Y0122523D01*
X0115770Y0122059D01*
X0116032Y0121667D01*
X0116425Y0121404D01*
X0116888Y0121312D01*
X0117351Y0121404D01*
X0117744Y0121667D01*
X0118007Y0122059D01*
X0118099Y0122523D01*
X0118007Y0122986D01*
X0117744Y0123379D01*
X0117351Y0123641D01*
X0116888Y0123733D01*
D02*
G37*
G36*
X0109078Y0123720D02*
X0108615Y0123628D01*
X0108222Y0123365D01*
X0107960Y0122972D01*
X0107868Y0122509D01*
X0107960Y0122046D01*
X0108222Y0121653D01*
X0108615Y0121391D01*
X0109078Y0121299D01*
X0109542Y0121391D01*
X0109934Y0121653D01*
X0110197Y0122046D01*
X0110289Y0122509D01*
X0110197Y0122972D01*
X0109934Y0123365D01*
X0109542Y0123628D01*
X0109078Y0123720D01*
D02*
G37*
G36*
X0197953Y0124000D02*
X0194500D01*
Y0120547D01*
X0197953D01*
Y0124000D01*
D02*
G37*
G36*
X0193500D02*
X0190047D01*
Y0120547D01*
X0193500D01*
Y0124000D01*
D02*
G37*
G36*
X0039723Y0121500D02*
X0038500D01*
Y0120277D01*
X0038697Y0120316D01*
X0039289Y0120711D01*
X0039684Y0121303D01*
X0039723Y0121500D01*
D02*
G37*
G36*
X0037500D02*
X0036277D01*
X0036316Y0121303D01*
X0036711Y0120711D01*
X0037303Y0120316D01*
X0037500Y0120277D01*
Y0121500D01*
D02*
G37*
G36*
X0079419Y0122598D02*
X0078956Y0122506D01*
X0078563Y0122243D01*
X0078301Y0121851D01*
X0078209Y0121387D01*
X0078301Y0120924D01*
X0078563Y0120531D01*
X0078956Y0120269D01*
X0079419Y0120177D01*
X0079882Y0120269D01*
X0080275Y0120531D01*
X0080538Y0120924D01*
X0080630Y0121387D01*
X0080538Y0121851D01*
X0080275Y0122243D01*
X0079882Y0122506D01*
X0079419Y0122598D01*
D02*
G37*
%LPD*%
D16*
X0153450Y0132862D02*
X0154706D01*
X0153193Y0133119D02*
X0153450Y0132862D01*
X0153193Y0133119D02*
Y0133122D01*
X0152315Y0134000D02*
X0153193Y0133122D01*
X0149000Y0134000D02*
X0152315D01*
X0148988Y0134012D02*
X0149000Y0134000D01*
X0148967Y0134012D02*
X0148988D01*
X0154706Y0132862D02*
X0158068Y0129500D01*
X0175000D01*
D66*
X0174716Y0122000D02*
D03*
D69*
X0134705Y0129250D02*
D03*
D71*
X0194000Y0124500D02*
D03*
D72*
X0148967Y0134012D02*
D03*
X0096238Y0141337D02*
D03*
X0147922Y0148050D02*
D03*
X0098674Y0144080D02*
D03*
X0063500Y0148463D02*
D03*
X0157500Y0143500D02*
D03*
X0161500Y0135500D02*
D03*
X0179500Y0124500D02*
D03*
X0160500Y0124830D02*
D03*
X0128000Y0144000D02*
D03*
X0175000Y0129500D02*
D03*
X0185500Y0140500D02*
D03*
X0157209Y0134500D02*
D03*
X0173892Y0141593D02*
D03*
X0162500Y0149000D02*
D03*
X0169000D02*
D03*
X0107500Y0129656D02*
D03*
X0110500Y0139155D02*
D03*
X0113500Y0134500D02*
D03*
X0116375Y0139164D02*
D03*
X0113500Y0129656D02*
D03*
X0110500Y0134500D02*
D03*
X0116500D02*
D03*
X0110500Y0129656D02*
D03*
X0116375Y0129664D02*
D03*
X0113500Y0139155D02*
D03*
X0107500D02*
D03*
Y0134155D02*
D03*
X0191000Y0134000D02*
D03*
X0056500Y0127000D02*
D03*
X0081000Y0138500D02*
D03*
X0038000Y0122000D02*
D03*
X0080500Y0131000D02*
D03*
X0076000Y0138000D02*
D03*
X0068073Y0131114D02*
D03*
X0197000Y0145000D02*
D03*
X0039000Y0145500D02*
D03*
X0026000D02*
D03*
X0047000Y0130000D02*
D03*
D73*
X0033000Y0129500D02*
D03*
M02*
