G04*
G04 #@! TF.GenerationSoftware,Altium Limited,Altium Designer,19.1.5 (86)*
G04*
G04 Layer_Physical_Order=4*
G04 Layer_Color=1930808*
%FSAX24Y24*%
%MOIN*%
G70*
G01*
G75*
%ADD13C,0.0100*%
%ADD14C,0.0080*%
%ADD16C,0.0060*%
%ADD18R,0.0335X0.0138*%
%ADD26R,0.0236X0.0244*%
%ADD33R,0.0217X0.0217*%
%ADD34R,0.0217X0.0217*%
%ADD62C,0.0040*%
%ADD65C,0.0140*%
%ADD66C,0.0160*%
%ADD67C,0.0480*%
%ADD68C,0.0195*%
%ADD69C,0.0551*%
%ADD70C,0.0472*%
%ADD71C,0.0591*%
%ADD72R,0.0591X0.0591*%
%ADD73C,0.0118*%
%ADD74C,0.0157*%
%ADD75C,0.0236*%
%ADD76R,0.0315X0.0118*%
%ADD77R,0.0689X0.0610*%
%ADD78R,0.0335X0.0098*%
%ADD79R,0.0098X0.0335*%
%ADD80R,0.1417X0.1417*%
%ADD81R,0.0276X0.0295*%
%ADD82R,0.0581X0.0177*%
%ADD83R,0.0244X0.0236*%
%ADD84R,0.0118X0.0315*%
%ADD85R,0.0098X0.0315*%
%ADD86R,0.0689X0.0709*%
%ADD87R,0.0315X0.0315*%
%ADD88C,0.0200*%
D13*
X012642Y014028D02*
X012700Y013970D01*
X012620Y013845D02*
Y014028D01*
X012432D02*
X012620D01*
X017653Y014727D02*
X017680Y014700D01*
X017650Y014730D02*
X017653Y014727D01*
X017700D01*
X017303D02*
X017653D01*
X017300Y014730D02*
X017303Y014727D01*
X018945Y013650D02*
X019065D01*
X019170D01*
X019350Y014109D02*
X019450D01*
X018881D02*
X019339D01*
X018500Y014222D02*
X018504D01*
X018550Y014050D02*
Y014176D01*
X018881Y014136D02*
Y014306D01*
X018504Y014222D02*
X018550Y014176D01*
X017336Y014306D02*
X018050D01*
X012846Y014426D02*
X012950Y014530D01*
X012800Y014426D02*
X012846D01*
X011185Y013461D02*
X011873Y014148D01*
X010890Y013756D02*
X011185Y013461D01*
X010498Y012774D02*
X011185Y013461D01*
X012620Y014028D02*
Y014050D01*
Y014028D02*
X012642D01*
X012388Y014072D02*
X012432Y014028D01*
X012388Y014072D02*
X012388D01*
X012361Y014099D02*
X012388Y014072D01*
X012318Y014099D02*
X012361D01*
X012267Y014149D02*
X012318Y014099D01*
X012797Y014403D02*
X012800Y014400D01*
X012622Y014403D02*
X012797D01*
X012600Y014426D02*
X012622Y014403D01*
X012700Y013970D02*
X012950D01*
X009910Y013863D02*
X009914Y013860D01*
X010030Y013617D02*
X010088Y013559D01*
X010016Y013617D02*
X010030D01*
X009964Y013670D02*
X010016Y013617D01*
X009964Y013670D02*
Y013683D01*
X009914Y013733D02*
X009964Y013683D01*
X010088Y013559D02*
X010221D01*
X008098Y013822D02*
X008100Y013824D01*
Y013850D01*
X003250Y014415D02*
X003282Y014382D01*
X003130Y014535D02*
X003250Y014415D01*
X009914Y013733D02*
Y013860D01*
X009989Y012561D02*
X010000Y012550D01*
X004700Y013000D02*
X004730Y012970D01*
X005100D01*
X018881Y014109D02*
Y014136D01*
X019450Y013300D02*
Y014109D01*
X012620Y013845D02*
X012650Y013816D01*
X017300Y014270D02*
X017336Y014306D01*
X003470Y014570D02*
Y014750D01*
X003282Y014382D02*
X003470Y014570D01*
X003234Y014300D02*
X003250D01*
X003193Y014259D02*
X003234Y014300D01*
X002796Y014259D02*
X003193D01*
X002787Y014250D02*
X002796Y014259D01*
X003250Y014300D02*
Y014415D01*
X003130Y014535D02*
Y014750D01*
X009989Y012561D02*
Y012591D01*
X009850Y012730D02*
X009989Y012591D01*
X010039Y012231D02*
X010220Y012050D01*
X009850Y012270D02*
X009889Y012231D01*
X010039D01*
X010498Y012644D02*
Y012774D01*
X010497Y012643D02*
X010498Y012644D01*
X010497Y012497D02*
Y012643D01*
X010496Y012496D02*
X010497Y012497D01*
X010221Y013756D02*
X010890D01*
X011873Y014148D02*
Y014278D01*
X011874Y014279D01*
Y014425D01*
X011874Y014426D01*
X009892Y012772D02*
X010221D01*
X009850Y012730D02*
X009892Y012772D01*
X002787Y013994D02*
Y014250D01*
D14*
X019132Y014439D02*
X019147D01*
X019168Y014418D01*
X019438Y014382D02*
X019601Y014219D01*
Y014219D02*
Y014219D01*
X019168Y014418D02*
X019204Y014382D01*
X019438D01*
X019093Y014493D02*
X019168Y014418D01*
X018892Y014493D02*
X019093D01*
X018881Y014503D02*
X018892Y014493D01*
X018881Y014503D02*
Y014530D01*
Y014700D01*
X019350Y014580D02*
X019700D01*
X012267Y014150D02*
X012267Y014149D01*
X012150Y014150D02*
X012267D01*
X019665Y012715D02*
Y012865D01*
X019339Y014109D02*
X019350Y014120D01*
X019700Y013720D02*
Y014120D01*
D16*
X002467Y012873D02*
X002488D01*
X002598Y012322D02*
X002670Y012250D01*
X002598Y012322D02*
Y012402D01*
X002500Y012500D02*
X002598Y012402D01*
X002500Y012500D02*
Y012510D01*
X002426Y012584D02*
X002500Y012510D01*
X002426Y012584D02*
Y012832D01*
X002467Y012873D01*
X002488D02*
X002585Y012970D01*
X002787D01*
X005648Y014292D02*
X005867D01*
X010414Y014564D02*
X010496Y014481D01*
X019630Y013650D02*
X019700Y013720D01*
X007219Y014969D02*
X008261D01*
X006828Y014578D02*
X007219Y014969D01*
X006427Y014578D02*
X006828D01*
X012995Y013401D02*
X013512D01*
X018619Y013200D02*
X018819Y013400D01*
X018500Y013200D02*
X018619D01*
X018719D01*
X018819Y013100D01*
X007725Y012321D02*
X008550Y013146D01*
X007725Y012299D02*
Y012321D01*
X007511Y012084D02*
X007725Y012299D01*
X004727Y012084D02*
X007511D01*
X008550Y013146D02*
Y013350D01*
X019181Y013100D02*
Y013400D01*
X018291Y014432D02*
X018500Y014222D01*
X017200Y012150D02*
X017400D01*
X016266Y013836D02*
X016269Y013833D01*
X016250Y014050D02*
X016261Y014061D01*
X016101Y013988D02*
X016188Y013901D01*
X016101Y013988D02*
Y014162D01*
X015981Y013939D02*
Y014032D01*
X015927Y014086D02*
X015981Y014032D01*
X015569Y014841D02*
Y014859D01*
X015550Y014850D02*
X015560D01*
X014350Y014820D02*
X014350Y014820D01*
X014331Y014839D02*
X014350Y014820D01*
X014311Y014839D02*
X014340Y014810D01*
X014350Y014820D01*
X016034Y013800D02*
Y013885D01*
X015350Y013857D02*
X015451D01*
X013449Y012062D02*
X015852D01*
X016791Y013000D01*
X005591Y014721D02*
X005700Y014830D01*
X005397Y014721D02*
X005591D01*
X004740Y014850D02*
X005450D01*
X004250Y014360D02*
X004740Y014850D01*
X004250Y014350D02*
Y014360D01*
X005367Y014750D02*
X005397Y014721D01*
X005040Y014750D02*
X005367D01*
X005954Y014568D02*
X006417D01*
X005902Y014327D02*
Y014516D01*
X007020Y014500D02*
X007369Y014849D01*
X006417Y014568D02*
X006427Y014578D01*
X005902Y014516D02*
X005954Y014568D01*
X005958Y014688D02*
X006100Y014830D01*
X005905Y014688D02*
X005958D01*
X005816Y014600D02*
X005905Y014688D01*
X005389Y014600D02*
X005816D01*
X005489Y013884D02*
Y013900D01*
X005428Y014071D02*
X005648Y014292D01*
X005379Y014071D02*
X005428D01*
X005301Y014309D02*
Y014512D01*
X005242Y014250D02*
X005301Y014309D01*
X005788Y013750D02*
X005800D01*
X006014D02*
X006614D01*
X005922Y013657D02*
X006014Y013750D01*
X005922Y013622D02*
Y013657D01*
X005820Y013520D02*
X005922Y013622D01*
X004850Y014560D02*
X005040Y014750D01*
X004850Y014550D02*
Y014560D01*
X004650Y014550D02*
X004850D01*
X004581Y014281D02*
X004850Y014550D01*
X004581Y014180D02*
Y014281D01*
X005522Y013843D02*
Y013852D01*
X005489Y013884D02*
X005522Y013852D01*
Y013843D02*
X005563Y013802D01*
X005736D01*
X005788Y013750D01*
X005700Y013520D02*
X005820D01*
X004619Y012193D02*
X004727Y012084D01*
X003950Y012900D02*
Y013000D01*
X003212Y013738D02*
X003950Y013000D01*
X009863Y013498D02*
X009980Y013382D01*
X009964Y014064D02*
X010074Y013953D01*
X009747Y013615D02*
X009863Y013498D01*
X015569Y014713D02*
Y014841D01*
X015247Y014903D02*
X015323Y014979D01*
X012550Y012950D02*
X012700D01*
X012511Y012650D02*
X012700D01*
X007800Y014250D02*
X007950Y014400D01*
X008150D01*
Y014700D02*
X008164D01*
X008214Y014650D01*
X008350D01*
X005100Y014250D02*
X005242D01*
X004750D02*
X005100D01*
X007790Y014849D02*
X008212D01*
X007369D02*
X007790D01*
X011118Y012041D02*
X012858D01*
X012997Y012179D01*
X013331D02*
X013449Y012062D01*
X012997Y012179D02*
X013331D01*
X016261Y014061D02*
X016311D01*
X016391Y014141D01*
Y014241D01*
X016400Y014250D01*
X010919Y012239D02*
X011118Y012041D01*
X011700Y012250D02*
Y012300D01*
X009447Y014153D02*
Y014266D01*
X009956Y013185D02*
X010202D01*
X012615Y013515D02*
Y013530D01*
X015765Y014385D02*
Y014401D01*
X015748Y014417D02*
X015765Y014401D01*
X015748Y014417D02*
Y014695D01*
X016034Y013800D02*
X016050D01*
X015981Y013939D02*
X016034Y013885D01*
X015679Y014859D02*
X015715Y014823D01*
X015729D01*
X015748Y014804D01*
Y014695D02*
Y014804D01*
X015603Y014979D02*
X015679Y014903D01*
Y014859D02*
Y014903D01*
X015323Y014979D02*
X015603D01*
X015230Y014903D02*
X015247D01*
X015077Y014750D02*
X015230Y014903D01*
X015560Y014850D02*
X015569Y014859D01*
X015552Y014695D02*
X015569Y014713D01*
X015560Y014850D02*
X015569Y014841D01*
X014880Y014750D02*
X015077D01*
X014350Y014820D02*
Y014850D01*
X013361Y014496D02*
X013800Y014057D01*
X014311Y014839D02*
X014331D01*
X013512Y013401D02*
X013644Y013533D01*
X016866Y014866D02*
X016900Y014900D01*
X019400Y012450D02*
X019665Y012715D01*
Y012865D02*
X019700Y012900D01*
Y012919D01*
X013644Y013583D02*
X013800Y013739D01*
X012600Y013500D02*
X012615Y013515D01*
X013644Y013533D02*
Y013583D01*
X009934Y014284D02*
X010000Y014350D01*
X009766Y014284D02*
X009934D01*
X009700Y014350D02*
X009766Y014284D01*
X009447Y014153D02*
X009539Y014061D01*
Y014037D02*
Y014061D01*
Y014037D02*
X009551Y014026D01*
Y013988D02*
Y014026D01*
Y013988D02*
X009575Y013965D01*
Y013567D02*
Y013965D01*
X008393Y013900D02*
Y014118D01*
X005301Y014512D02*
X005389Y014600D01*
X013361Y014496D02*
Y014601D01*
X013350Y014612D02*
X013361Y014601D01*
X008287Y014943D02*
X009100D01*
X008261Y014969D02*
X008287Y014943D01*
X008237Y014823D02*
X009450D01*
X008212Y014849D02*
X008237Y014823D01*
X016142Y014400D02*
X016181Y014361D01*
X016266Y013836D02*
Y013846D01*
X015504Y014057D02*
X015552Y014105D01*
X016127Y014400D02*
X016142D01*
X016101Y014162D02*
X016181Y014242D01*
X015451Y013857D02*
X015504Y013910D01*
X016044Y014400D02*
X016127D01*
X016211Y013901D02*
X016266Y013846D01*
X015350Y013800D02*
Y013857D01*
X016188Y013901D02*
X016211D01*
X015927Y014086D02*
X015945Y014105D01*
X016181Y014242D02*
Y014361D01*
X015504Y013910D02*
Y014057D01*
X014350Y014820D02*
X014420Y014750D01*
X003800Y012200D02*
X003850Y012250D01*
X003930D01*
X003950D01*
X008393Y014118D02*
X008778Y014503D01*
X004400Y013150D02*
Y013250D01*
X009470Y014803D02*
X009697D01*
X007863Y013537D02*
X008056D01*
X007750Y013650D02*
X007863Y013537D01*
X008056D02*
X008183Y013665D01*
X006764Y013111D02*
X006807D01*
X006700Y013047D02*
X006764Y013111D01*
X006700Y013000D02*
Y013047D01*
X006600Y012900D02*
X006700Y013000D01*
X006450Y012900D02*
X006600D01*
X014400Y014730D02*
X014420Y014750D01*
X016145Y014419D02*
X016719D01*
X018550Y013700D02*
X018551D01*
X019700Y014500D02*
Y014580D01*
X009747Y013615D02*
Y013633D01*
X009575Y013567D02*
X009956Y013185D01*
X009647Y013344D02*
X010003Y012988D01*
X009324Y013344D02*
X009647D01*
X010899Y014551D02*
Y014600D01*
X012970Y013425D02*
X012995Y013401D01*
X010890Y014540D02*
X010900Y014550D01*
X010899Y014551D02*
X010900Y014550D01*
X010890Y014426D02*
Y014540D01*
X003900Y014550D02*
X003930Y014580D01*
Y014750D01*
X002600Y014550D02*
X002670Y014620D01*
Y014750D01*
X004420Y013981D02*
X004431D01*
X004223Y013788D02*
X004320Y013885D01*
X004420Y013981D02*
X004600Y014161D01*
X004323Y013885D02*
X004420Y013981D01*
X004320Y013885D02*
X004323D01*
X003834Y012501D02*
X004326D01*
X003583Y012250D02*
X003834Y012501D01*
X004326D02*
X004619Y012208D01*
Y012193D02*
Y012208D01*
X004223Y013427D02*
X004400Y013250D01*
X004431Y013981D02*
X004600Y014150D01*
X004223Y013427D02*
Y013788D01*
X007950Y012100D02*
X008089Y012239D01*
X008389Y012816D02*
X008692D01*
X008089Y012515D02*
X008389Y012816D01*
X010039Y012231D02*
X010331D01*
X010459Y012359D01*
X010477D01*
X010500Y012382D01*
Y012400D01*
X010496Y012404D02*
X010500Y012400D01*
X010496Y012404D02*
Y012496D01*
X016963Y014663D02*
Y014737D01*
X016719Y014419D02*
X016963Y014663D01*
X017781Y014919D02*
X017800Y014900D01*
X017726Y014919D02*
X017781D01*
X016127Y014400D02*
X016145Y014419D01*
X011894Y012450D02*
X012050D01*
X011874Y012469D02*
X011894Y012450D01*
X011874Y012469D02*
Y012496D01*
X010693Y012063D02*
Y012496D01*
X010680Y012050D02*
X010693Y012063D01*
X016963Y014737D02*
X017154Y014928D01*
X017716D01*
X017726Y014919D01*
X006967Y014500D02*
X007020D01*
X006936Y014468D02*
X006967Y014500D01*
X006891Y014429D02*
X006930Y014468D01*
X006779Y014429D02*
X006891D01*
X006559D02*
X006779D01*
X009053Y013615D02*
X009324Y013344D01*
X009053Y013615D02*
Y013734D01*
X006570Y013450D02*
X006650D01*
X006500Y013520D02*
X006570Y013450D01*
X012169Y012950D02*
X012550D01*
X004581Y014180D02*
X004600Y014161D01*
X010496Y014471D02*
Y014481D01*
X010000Y014350D02*
X010099Y014251D01*
X005867Y014292D02*
X005902Y014327D01*
X008692Y012816D02*
X008708Y012800D01*
X008089Y012239D02*
Y012515D01*
X008708Y012800D02*
X009050D01*
X011697Y012303D02*
X011700Y012300D01*
X011697Y012303D02*
Y012477D01*
X011678Y012496D02*
X011697Y012477D01*
X003470Y012250D02*
X003583D01*
X002787Y013738D02*
X003212D01*
X011284Y012266D02*
X011300Y012250D01*
X011284Y012266D02*
Y012496D01*
X009050Y012800D02*
X009150Y012900D01*
X009265D01*
X010003Y012988D02*
X010202D01*
X009980Y013382D02*
X010202D01*
X010074Y013953D02*
X010221D01*
X010118Y014150D02*
X010221D01*
X010099Y014169D02*
X010118Y014150D01*
X010099Y014169D02*
Y014251D01*
X014297Y012938D02*
X014700Y012535D01*
X012150Y012969D02*
X012169Y012950D01*
X012322Y012650D02*
X012511D01*
X012287Y012685D02*
X012322Y012650D01*
X012287Y012685D02*
Y012753D01*
X012268Y012772D02*
X012287Y012753D01*
X012150Y012772D02*
X012268D01*
X010202Y012988D02*
X010221Y012969D01*
X010202Y013382D02*
X010221Y013363D01*
X010202Y013185D02*
X010221Y013166D01*
X004600Y013900D02*
Y014150D01*
Y013900D02*
X004755Y013745D01*
X005093D01*
X005100Y013738D01*
X003130Y012250D02*
X003470D01*
X005302Y013994D02*
X005379Y014071D01*
X006100Y014370D02*
X006500D01*
X005482Y013738D02*
X005700Y013520D01*
X005100Y013738D02*
X005482D01*
X006100Y013980D02*
X006500D01*
X005700D02*
X006100D01*
X005100Y013994D02*
X005302D01*
D18*
X016044Y014400D02*
D03*
X015256D02*
D03*
D26*
X019181Y013400D02*
D03*
X018819D02*
D03*
X019181Y013100D02*
D03*
X018819D02*
D03*
D33*
X019700Y014580D02*
D03*
Y014120D02*
D03*
X017300Y014730D02*
D03*
Y014270D02*
D03*
X012600Y014430D02*
D03*
Y013970D02*
D03*
X012950D02*
D03*
Y014430D02*
D03*
X006100Y013520D02*
D03*
Y013980D02*
D03*
X006500Y013520D02*
D03*
Y013980D02*
D03*
X009850Y012730D02*
D03*
Y012270D02*
D03*
X006500Y014830D02*
D03*
Y014370D02*
D03*
X006100D02*
D03*
Y014830D02*
D03*
X005700D02*
D03*
Y014370D02*
D03*
Y013980D02*
D03*
Y013520D02*
D03*
X019350Y014580D02*
D03*
Y014120D02*
D03*
D34*
X019680Y013705D02*
D03*
X019220D02*
D03*
X014420Y014750D02*
D03*
X014880D02*
D03*
X010680Y012050D02*
D03*
X010220D02*
D03*
X007580Y014500D02*
D03*
X007120D02*
D03*
X003930Y014750D02*
D03*
X003470D02*
D03*
X003130D02*
D03*
X002670D02*
D03*
X003130Y012250D02*
D03*
X002670D02*
D03*
X003470D02*
D03*
X003930D02*
D03*
D62*
X014025Y014054D02*
Y014129D01*
X013925Y014013D02*
X014230Y013708D01*
X013925Y014013D02*
Y014087D01*
X018064Y013513D02*
X018587D01*
X018602Y013527D01*
X012200Y014850D02*
X012322D01*
X012272Y014800D02*
X012322Y014850D01*
X004918Y012300D02*
X005050D01*
X013188Y014262D02*
X013250Y014200D01*
X013040Y014182D02*
X013376Y013845D01*
X012434Y014182D02*
X013040D01*
X012467Y014262D02*
X013188D01*
X013207Y013741D02*
X013339Y013609D01*
X012839Y013741D02*
X013207D01*
X013370Y013609D02*
X013429Y013550D01*
X013339Y013609D02*
X013370D01*
X013376Y013845D02*
X013456Y013925D01*
X004071Y012611D02*
X004358D01*
X008812Y013477D02*
X008889Y013400D01*
X008330Y013477D02*
X008812D01*
X008114Y013261D02*
X008330Y013477D01*
X018017Y013559D02*
X018064Y013513D01*
X015587Y013669D02*
X017543D01*
X014794Y013188D02*
X014881Y013274D01*
X014691Y013188D02*
X014794D01*
X014591Y013288D02*
Y013467D01*
Y013288D02*
X014691Y013188D01*
X014881Y013274D02*
Y013399D01*
X015387Y013469D02*
X015587Y013669D01*
X014881Y013399D02*
X014951Y013469D01*
X015387D01*
X014461Y013901D02*
X014750Y013612D01*
Y013350D02*
Y013612D01*
X014577Y013481D02*
X014589Y013492D01*
X014577Y013481D02*
Y013481D01*
Y013481D02*
X014591Y013467D01*
X014589Y013492D02*
Y013631D01*
X014853Y013650D02*
X015455D01*
X014561Y013942D02*
X014853Y013650D01*
X014435Y013565D02*
X014450Y013550D01*
X014230Y013694D02*
X014297Y013627D01*
Y012938D02*
Y013627D01*
X016791Y013119D02*
X017171Y013500D01*
X017599D01*
X016791Y013000D02*
Y013119D01*
X014117Y014628D02*
X014150Y014662D01*
Y014850D01*
X012050Y014400D02*
X012051Y014401D01*
Y014551D01*
X012342Y014259D01*
X011948Y014653D02*
X012051Y014551D01*
X012969Y014731D02*
X013069D01*
X013100Y014700D01*
X012342Y014259D02*
X012356D01*
X012064Y014665D02*
Y014673D01*
X012487Y014661D02*
X012684Y014859D01*
X011891Y014959D02*
X012189Y014661D01*
X012487D01*
X012331Y014800D02*
X012502Y014971D01*
X012315Y014800D02*
X012331D01*
X012250D02*
X012272D01*
X011987Y014750D02*
X012064Y014673D01*
X011700Y014750D02*
X011987D01*
X011800Y014653D02*
X011948D01*
X011750Y014603D02*
X011800Y014653D01*
X011134Y014959D02*
X011891D01*
X013100Y014700D02*
X013213D01*
X012502Y014971D02*
X013626D01*
X013456Y013925D02*
X013470D01*
X012064Y014665D02*
X012467Y014262D01*
X012684Y014859D02*
X013194D01*
X012356Y014259D02*
X012434Y014182D01*
X011750Y014596D02*
Y014603D01*
X011727Y014573D02*
X011750Y014596D01*
X011707Y014573D02*
X011727D01*
X011678Y014544D02*
X011707Y014573D01*
X011678Y014426D02*
Y014544D01*
X004549Y012701D02*
Y013257D01*
X004302Y013050D02*
X004428Y012924D01*
X004150Y013050D02*
X004302D01*
X004428Y012822D02*
Y012924D01*
X004549Y012701D02*
X004850Y012400D01*
X004400Y013406D02*
X004549Y013257D01*
X006030Y013520D02*
X006100D01*
X005842Y013332D02*
X006030Y013520D01*
X005978Y013313D02*
X006024D01*
X007350Y013395D02*
X007374Y013371D01*
X007350Y013395D02*
Y013400D01*
X006950Y013499D02*
X007188Y013261D01*
X008114D01*
X006950Y013499D02*
Y013611D01*
X005897Y013232D02*
X005978Y013313D01*
X005544Y013332D02*
X005842D01*
X005050Y012300D02*
Y012350D01*
X004788Y012181D02*
X006831D01*
X004899Y012281D02*
X004918Y012300D01*
X004801Y012281D02*
X004899D01*
X004469Y012613D02*
X004801Y012281D01*
X004469Y012613D02*
Y012781D01*
X004428Y012822D02*
X004469Y012781D01*
X004358Y012611D02*
X004788Y012181D01*
X003703Y013497D02*
X004150Y013050D01*
X003520Y013226D02*
X003831Y012916D01*
X002787Y013226D02*
X003520D01*
X003831Y012851D02*
X004071Y012611D01*
X003831Y012851D02*
Y012916D01*
X003700Y013497D02*
X003703D01*
X006831Y012181D02*
X007000Y012350D01*
X017599Y013500D02*
X017862Y013763D01*
X014252Y014381D02*
Y014402D01*
X014278Y014428D01*
Y014478D01*
X014300Y014500D01*
X005986Y012586D02*
Y012905D01*
X005850Y012450D02*
X005986Y012586D01*
X014975Y014000D02*
X015250D01*
X014700D02*
X014975D01*
X009559Y014603D02*
X009573Y014589D01*
X010042D01*
X009154Y014703D02*
X009450D01*
X009594Y014681D02*
X009749D01*
X009757Y014689D02*
X010001D01*
X009450Y014703D02*
X009464Y014689D01*
X009586D01*
X009594Y014681D01*
X009749D02*
X009757Y014689D01*
X011367Y014641D02*
Y014742D01*
X011267Y014842D02*
X011367Y014742D01*
X010217Y014842D02*
X011267D01*
X010115Y014739D02*
X010217Y014842D01*
X011284Y014558D02*
X011367Y014641D01*
X014219Y014180D02*
Y014232D01*
Y014180D02*
X014461Y013938D01*
X014869Y014449D02*
X014901D01*
X015706Y013900D02*
Y013967D01*
X015455Y013650D02*
X015706Y013900D01*
X015748Y013996D02*
Y014105D01*
X015706Y013967D02*
X015719D01*
X015748Y013996D01*
X011111Y014449D02*
Y014623D01*
X012294Y013756D02*
X012300Y013750D01*
X012150Y013756D02*
X012294D01*
X012437Y013650D02*
X012452Y013665D01*
X007350Y013400D02*
X007500Y013550D01*
X009265Y012900D02*
X009365Y013000D01*
X009750D01*
X005100Y014250D02*
Y014600D01*
X016719Y014419D02*
X016837Y014300D01*
X016850D01*
X002336Y013286D02*
X002532Y013482D01*
X002336Y012255D02*
Y013286D01*
X007790Y014849D02*
X007850Y014789D01*
Y014650D02*
Y014789D01*
X015945Y014695D02*
X015950Y014700D01*
X016200D01*
X002545Y012045D02*
X002610Y011980D01*
X002336Y012255D02*
X002545Y012045D01*
X002527D02*
X002545D01*
X002482Y012000D02*
X002527Y012045D01*
X002450Y012000D02*
X002482D01*
X011651Y012131D02*
X011831D01*
X011900Y012200D01*
X012518D01*
X012718Y012400D01*
X011500Y012300D02*
Y012477D01*
X011481Y012496D02*
X011500Y012477D01*
X010953Y012050D02*
X011052Y011951D01*
X011500Y012300D02*
X011581Y012219D01*
Y012201D02*
Y012219D01*
Y012201D02*
X011651Y012131D01*
X011052Y011951D02*
X012951D01*
X013050Y012050D01*
X012718Y012400D02*
X012850D01*
X002400Y013917D02*
Y014450D01*
X002495Y013822D02*
X002516D01*
X002400Y013917D02*
X002495Y013822D01*
X002516Y013807D02*
Y013822D01*
Y013807D02*
X002585Y013738D01*
X002787D01*
X013050Y012050D02*
X013062D01*
X013112Y012000D01*
X013300D01*
X010895Y012264D02*
X010900Y012259D01*
X010919Y012239D01*
X010680Y012050D02*
X010953D01*
X014561Y013942D02*
Y013979D01*
X014325Y014215D02*
X014561Y013979D01*
X014461Y013901D02*
Y013938D01*
X014357Y013864D02*
X014589Y013631D01*
X014357Y013864D02*
Y013900D01*
X014125Y014132D02*
X014357Y013900D01*
X017543Y013669D02*
X017796Y013922D01*
X015381Y014827D02*
Y014869D01*
X008778Y014503D02*
X009532D01*
X014712Y014606D02*
Y014638D01*
Y014606D02*
X014869Y014449D01*
X009685Y014350D02*
X009700D01*
X009532Y014503D02*
X009685Y014350D01*
X014901Y014449D02*
X015151D01*
X015200Y014400D02*
X015256D01*
X015151Y014449D02*
X015200Y014400D01*
X014089Y014989D02*
X014511D01*
X014608Y014891D01*
Y014742D02*
X014712Y014638D01*
X014608Y014742D02*
Y014891D01*
X014125Y014132D02*
Y014170D01*
X014325Y014215D02*
Y014281D01*
X013913Y014241D02*
X014025Y014129D01*
X014013Y014282D02*
X014125Y014170D01*
X014205Y014232D02*
X014219D01*
X014113Y014323D02*
X014205Y014232D01*
X014113Y014323D02*
Y014439D01*
X014271Y014336D02*
X014325Y014281D01*
X014271Y014336D02*
Y014371D01*
X013800Y013739D02*
Y014057D01*
X014113Y014439D02*
X014117Y014442D01*
Y014628D01*
X014013Y014282D02*
Y014480D01*
X014017Y014484D01*
Y014580D01*
X013913Y014241D02*
Y014522D01*
X013917Y014525D01*
Y014539D01*
X013813Y014199D02*
X013925Y014087D01*
X013584Y014871D02*
X013917Y014539D01*
X013813Y014199D02*
Y014487D01*
X013529Y014771D02*
X013813Y014487D01*
X013429Y013550D02*
X013450D01*
X014230Y013694D02*
Y013708D01*
X014025Y014054D02*
X014435Y013644D01*
X012558Y013669D02*
X012767D01*
X012554Y013665D02*
X012558Y013669D01*
X012452Y013665D02*
X012554D01*
X012767Y013669D02*
X012839Y013741D01*
X010042Y014589D02*
X010092Y014639D01*
X010001Y014689D02*
X010051Y014739D01*
X007961Y013775D02*
X007979Y013757D01*
Y013701D02*
Y013757D01*
X007961Y013775D02*
Y013983D01*
X008254Y014135D02*
X008733Y014613D01*
X007961Y013983D02*
X008691Y014713D01*
X007979Y013701D02*
X007994Y013686D01*
X008322Y013610D02*
Y013774D01*
X008254Y013842D02*
X008322Y013774D01*
X008254Y013842D02*
Y014135D01*
X008691Y014713D02*
X009144D01*
X008081Y013369D02*
X008322Y013610D01*
X013529Y014671D02*
X013550Y014650D01*
X013950Y014850D02*
X014089Y014989D01*
X013626Y014971D02*
X014017Y014580D01*
X013206Y014871D02*
X013584D01*
X013284Y014771D02*
X013529D01*
X013213Y014700D02*
X013284Y014771D01*
X013194Y014859D02*
X013206Y014871D01*
X013529Y014671D02*
Y014771D01*
X015355Y014048D02*
Y014105D01*
X015316Y014009D02*
X015355Y014048D01*
X015259Y014009D02*
X015316D01*
X015352Y014698D02*
X015355Y014695D01*
X015250Y014000D02*
X015259Y014009D01*
X004344Y011974D02*
X005006D01*
X005020Y011961D02*
X008794D01*
X005006Y011974D02*
X005020Y011961D01*
X004179Y012139D02*
X004344Y011974D01*
X004089Y011861D02*
X008835D01*
X003970Y011980D02*
X004089Y011861D01*
X002610Y011980D02*
X003970D01*
X005485Y013232D02*
X005897D01*
X005440Y013436D02*
X005544Y013332D01*
X005480Y013226D02*
X005485Y013232D01*
X008733Y014613D02*
X009102D01*
X007374Y013371D02*
X008001D01*
X008003Y013369D02*
X008081D01*
X008001Y013371D02*
X008003Y013369D01*
X009450Y014823D02*
X009470Y014803D01*
X009697D02*
X009700Y014800D01*
X009112Y014603D02*
X009559D01*
X010051Y014739D02*
X010115D01*
X010092Y014639D02*
X010189D01*
X010000Y014350D02*
X010150Y014500D01*
X014435Y013565D02*
Y013644D01*
X008183Y013665D02*
Y013667D01*
X009102Y014613D02*
X009112Y014603D01*
X009144Y014713D02*
X009154Y014703D01*
X010400Y014500D02*
X010467D01*
X010760Y014739D02*
X010899Y014600D01*
X010289Y014739D02*
X010760D01*
X010467Y014500D02*
X010496Y014471D01*
X010189Y014639D02*
X010289Y014739D01*
X011087Y014426D02*
X011111Y014449D01*
Y014623D02*
X011200Y014712D01*
X011087Y014485D02*
X011102Y014500D01*
X011087Y014426D02*
Y014485D01*
X011284Y014426D02*
Y014558D01*
X010895Y012264D02*
Y012492D01*
X010890Y012496D02*
X010895Y012492D01*
X003700Y013497D02*
Y014850D01*
X007000Y012350D02*
Y012950D01*
X007071Y013021D01*
X007321D01*
X007400Y013100D01*
X008835Y011861D02*
X009250Y012276D01*
X008794Y011961D02*
X009050Y012217D01*
X008889Y013400D02*
X008900D01*
X004400Y013406D02*
Y013500D01*
X005100Y013226D02*
X005480D01*
X009050Y012217D02*
Y012400D01*
X009250Y012276D02*
Y012400D01*
X017978Y013922D02*
X018021Y013879D01*
Y013697D02*
Y013879D01*
X018012Y013688D02*
X018021Y013697D01*
X017861Y014046D02*
X018050D01*
X017837Y014070D02*
X017861Y014046D01*
X017837Y014070D02*
Y014097D01*
X017798Y014136D02*
X017837Y014097D01*
X017700Y014136D02*
X017798D01*
X018050Y014046D02*
X018084Y014012D01*
X018088D01*
X018012Y013688D02*
X018017Y013683D01*
Y013559D02*
Y013683D01*
X017796Y013922D02*
X017978D01*
X018205Y013750D02*
Y013895D01*
X018088Y014012D02*
X018205Y013895D01*
X006779Y014395D02*
Y014429D01*
X006695Y014310D02*
X006779Y014395D01*
X006695Y014260D02*
Y014310D01*
X006691Y014257D02*
X006695Y014260D01*
X006691Y014124D02*
Y014257D01*
X006688Y014121D02*
X006691Y014124D01*
X006795Y014269D02*
X006834Y014309D01*
X006791Y013591D02*
Y014216D01*
X006795Y014219D02*
Y014269D01*
X006791Y014216D02*
X006795Y014219D01*
X006650Y013450D02*
X006791Y013591D01*
X006950Y013762D02*
Y014150D01*
X006940Y013752D02*
X006950Y013762D01*
X006940Y013621D02*
Y013752D01*
Y013621D02*
X006950Y013611D01*
X006688Y013824D02*
Y014121D01*
X006614Y013750D02*
X006688Y013824D01*
X006834Y014309D02*
X007389D01*
X006930Y014468D02*
X006936D01*
X007389Y014309D02*
X007580Y014500D01*
X006500Y014370D02*
X006559Y014429D01*
X007020Y014500D02*
X007120D01*
X010496Y014426D02*
Y014471D01*
X009115Y014959D02*
X011134D01*
X009100Y014943D02*
X009115Y014959D01*
X005146Y013436D02*
X005440D01*
X002532Y013482D02*
X002768D01*
X005100D02*
X005146Y013436D01*
X005141Y013185D02*
X005445D01*
X005100Y013226D02*
X005141Y013185D01*
D65*
X019450Y012937D02*
Y013300D01*
X019368Y012855D02*
X019450Y012937D01*
X019005Y012855D02*
X019368D01*
X018995Y012845D02*
X019005Y012855D01*
D66*
X018600Y012450D02*
X018995Y012845D01*
D67*
X017381Y013000D02*
D03*
X016791D02*
D03*
X015019Y012980D02*
D03*
X015609Y013000D02*
D03*
X016200D02*
D03*
D68*
X016600Y013929D02*
D03*
Y014729D02*
D03*
X014600Y014329D02*
D03*
D69*
X008541Y012450D02*
D03*
X007359D02*
D03*
D70*
X013970Y013425D02*
D03*
X013470Y013925D02*
D03*
X012970Y013425D02*
D03*
X013470Y012925D02*
D03*
D71*
X018400Y012450D02*
D03*
D72*
X019400D02*
D03*
D73*
X018602Y013527D02*
D03*
X019132Y014439D02*
D03*
X013250Y014200D02*
D03*
X018500Y013200D02*
D03*
X018000Y012750D02*
D03*
X019100Y013400D02*
D03*
X018550Y014050D02*
D03*
X017200Y012150D02*
D03*
X016269Y013833D02*
D03*
X016250Y014050D02*
D03*
X016100Y013450D02*
D03*
X015000Y013350D02*
D03*
X014750D02*
D03*
X014450Y013550D02*
D03*
X012050Y014400D02*
D03*
X012969Y014731D02*
D03*
X012200Y014850D02*
D03*
X012300Y013950D02*
D03*
X012800Y014400D02*
D03*
X011700Y014750D02*
D03*
X005450Y014850D02*
D03*
X005489Y013900D02*
D03*
X005800Y013750D02*
D03*
X004250Y014350D02*
D03*
X006024Y013313D02*
D03*
X005050Y012350D02*
D03*
X004850Y012400D02*
D03*
X003950Y012900D02*
D03*
X005450Y012300D02*
D03*
X005650Y012700D02*
D03*
X017862Y013763D02*
D03*
X009910Y013863D02*
D03*
X012315Y013512D02*
D03*
X012300Y013150D02*
D03*
Y013750D02*
D03*
X012437Y013650D02*
D03*
X011700Y012250D02*
D03*
X010900Y012259D02*
D03*
X003500Y014150D02*
D03*
X014700Y014000D02*
D03*
X012615Y013530D02*
D03*
X015765Y014385D02*
D03*
X016050Y013800D02*
D03*
X015550Y014850D02*
D03*
X015381Y014827D02*
D03*
X014150Y014850D02*
D03*
X014350D02*
D03*
X014252Y014381D02*
D03*
X013450Y013550D02*
D03*
X016900Y014900D02*
D03*
X009867Y014433D02*
D03*
X009688Y014099D02*
D03*
X008100Y013850D02*
D03*
X008393Y013900D02*
D03*
X006350Y014850D02*
D03*
X008150Y014700D02*
D03*
X013550Y014600D02*
D03*
X013950Y014850D02*
D03*
X013350Y014612D02*
D03*
X015350Y013800D02*
D03*
X004450Y012150D02*
D03*
X004179Y012139D02*
D03*
X003800Y012200D02*
D03*
X005986Y012905D02*
D03*
X005850Y012450D02*
D03*
X008150Y014400D02*
D03*
X004400Y013150D02*
D03*
X009700Y014800D02*
D03*
X010150Y014500D02*
D03*
X008550Y013350D02*
D03*
X008183Y013667D02*
D03*
X007750Y013650D02*
D03*
X007350Y013400D02*
D03*
X007994Y013686D02*
D03*
X008050Y013100D02*
D03*
X007600Y013800D02*
D03*
X011050Y013450D02*
D03*
X011650D02*
D03*
X011350D02*
D03*
Y013916D02*
D03*
X011050D02*
D03*
X010750D02*
D03*
X011638Y013916D02*
D03*
X010750Y013416D02*
D03*
X011350Y012966D02*
D03*
X011050D02*
D03*
X010750D02*
D03*
X011638Y012966D02*
D03*
X016250Y014900D02*
D03*
X006807Y013111D02*
D03*
X012550Y012400D02*
D03*
X018551Y013700D02*
D03*
X019700Y014500D02*
D03*
X009747Y013633D02*
D03*
X009945Y014041D02*
D03*
X010400Y014500D02*
D03*
X010700Y014600D02*
D03*
X010899D02*
D03*
X012650Y013816D02*
D03*
X011200Y014712D02*
D03*
X003900Y014550D02*
D03*
X002600D02*
D03*
X003700Y014850D02*
D03*
X003550Y013000D02*
D03*
X002900Y012350D02*
D03*
X004400Y013500D02*
D03*
X004750Y014250D02*
D03*
X007950Y012100D02*
D03*
X009050Y012400D02*
D03*
X009250D02*
D03*
X010000Y012550D02*
D03*
X004700Y013000D02*
D03*
X017800Y014900D02*
D03*
X015950D02*
D03*
X008650Y014150D02*
D03*
X003250Y014300D02*
D03*
X013050Y012050D02*
D03*
X012050Y012450D02*
D03*
X019750Y013400D02*
D03*
X006950Y014150D02*
D03*
X008900Y013400D02*
D03*
X006650Y013450D02*
D03*
X012700Y012950D02*
D03*
X007400Y013100D02*
D03*
X011300Y012250D02*
D03*
X014700Y012535D02*
D03*
X012700Y012650D02*
D03*
D74*
X012850Y012400D02*
D03*
X013300Y012000D02*
D03*
X017400Y012150D02*
D03*
X016850Y014300D02*
D03*
X016400Y014250D02*
D03*
X014975Y014000D02*
D03*
X014901Y014449D02*
D03*
X016200Y014700D02*
D03*
X014300Y014500D02*
D03*
X012315Y014800D02*
D03*
X013100Y014700D02*
D03*
X009750Y013000D02*
D03*
X009863Y013498D02*
D03*
X007500Y013550D02*
D03*
X007800Y014250D02*
D03*
X007850Y014650D02*
D03*
X008350D02*
D03*
X005100Y014600D02*
D03*
X004650Y014550D02*
D03*
X002400Y014450D02*
D03*
X002500Y012500D02*
D03*
X002450Y012000D02*
D03*
X012511Y012650D02*
D03*
X012550Y012950D02*
D03*
X004450Y014850D02*
D03*
D75*
X004250Y012850D02*
D03*
X003500Y012800D02*
D03*
D76*
X018881Y014727D02*
D03*
Y014530D02*
D03*
Y014333D02*
D03*
Y014136D02*
D03*
X017700D02*
D03*
Y014333D02*
D03*
Y014530D02*
D03*
Y014727D02*
D03*
D77*
X018291Y014432D02*
D03*
D78*
X010221Y012772D02*
D03*
Y012969D02*
D03*
Y013166D02*
D03*
Y013363D02*
D03*
Y013559D02*
D03*
Y013756D02*
D03*
Y013953D02*
D03*
Y014150D02*
D03*
X012150D02*
D03*
Y013953D02*
D03*
Y013756D02*
D03*
Y013559D02*
D03*
Y013363D02*
D03*
Y013166D02*
D03*
Y012969D02*
D03*
Y012772D02*
D03*
D79*
X010496Y014426D02*
D03*
X010693D02*
D03*
X010890D02*
D03*
X011087D02*
D03*
X011284D02*
D03*
X011481D02*
D03*
X011678D02*
D03*
X011874D02*
D03*
Y012496D02*
D03*
X011678D02*
D03*
X011481D02*
D03*
X011284D02*
D03*
X011087D02*
D03*
X010890D02*
D03*
X010693D02*
D03*
X010496D02*
D03*
D80*
X011185Y013461D02*
D03*
D81*
X008953Y014266D02*
D03*
Y013734D02*
D03*
X009347D02*
D03*
Y014266D02*
D03*
D82*
X005100Y014250D02*
D03*
Y013994D02*
D03*
Y013738D02*
D03*
Y013482D02*
D03*
Y013226D02*
D03*
Y012970D02*
D03*
Y012715D02*
D03*
X002787D02*
D03*
Y012970D02*
D03*
Y013226D02*
D03*
Y013482D02*
D03*
Y013738D02*
D03*
Y013994D02*
D03*
Y014250D02*
D03*
D83*
X019700Y012919D02*
D03*
Y013281D02*
D03*
D84*
X015945Y014695D02*
D03*
X015355D02*
D03*
Y014105D02*
D03*
X015945D02*
D03*
D85*
X015748Y014695D02*
D03*
X015552D02*
D03*
Y014105D02*
D03*
X015748D02*
D03*
D86*
X009265Y012900D02*
D03*
X006450D02*
D03*
D87*
X018305Y013750D02*
D03*
X018895D02*
D03*
D88*
X018400Y012450D02*
X018600D01*
M02*
