G04*
G04 #@! TF.GenerationSoftware,Altium Limited,Altium Designer,20.0.13 (296)*
G04*
G04 Layer_Physical_Order=1*
G04 Layer_Color=255*
%FSAX25Y25*%
%MOIN*%
G70*
G01*
G75*
%ADD10C,0.00984*%
%ADD12C,0.01000*%
%ADD15C,0.00500*%
%ADD16C,0.00600*%
%ADD17R,0.02165X0.02165*%
%ADD18R,0.02165X0.02165*%
%ADD19P,0.03062X4X90.0*%
%ADD20C,0.00394*%
%ADD21R,0.02146X0.02559*%
%ADD22R,0.01378X0.02559*%
%ADD23R,0.06693X0.04331*%
%ADD24O,0.03937X0.01968*%
%ADD25R,0.03347X0.01378*%
%ADD26R,0.06693X0.09646*%
%ADD27R,0.07087X0.03937*%
%ADD28C,0.03098*%
%ADD29R,0.02362X0.02953*%
%ADD30R,0.02362X0.02441*%
%ADD31R,0.02362X0.02241*%
%ADD32R,0.03937X0.03150*%
%ADD33R,0.02756X0.05906*%
%ADD34R,0.01181X0.04331*%
%ADD35R,0.02657X0.00984*%
%ADD36R,0.00984X0.02264*%
%ADD63C,0.01378*%
%ADD65C,0.00400*%
%ADD66C,0.01200*%
%ADD67C,0.04800*%
%ADD68C,0.01949*%
%ADD69C,0.05512*%
%ADD70C,0.04724*%
%ADD71C,0.05906*%
%ADD72R,0.05906X0.05906*%
%ADD73C,0.01181*%
%ADD74C,0.02362*%
%ADD75C,0.01575*%
D10*
X0157671Y0130365D02*
G03*
X0157671Y0130365I-0002362J0000000D01*
G01*
D12*
X0026130Y0140500D02*
Y0141279D01*
X0157757Y0129678D02*
Y0130365D01*
Y0130404D01*
X0157005Y0134295D02*
X0157668Y0133632D01*
Y0130486D02*
Y0133632D01*
Y0130486D02*
X0157750Y0130404D01*
X0157005Y0134295D02*
X0157209Y0134500D01*
X0031500Y0132429D02*
Y0136403D01*
X0031202Y0136702D02*
X0031500Y0136403D01*
X0031248Y0131059D02*
Y0131839D01*
X0032280Y0132618D02*
X0033537Y0133876D01*
X0031441Y0131059D02*
X0033000Y0129500D01*
X0031248Y0131059D02*
X0031441D01*
X0031500Y0131839D02*
Y0132429D01*
X0033000Y0129000D02*
Y0129500D01*
X0032300Y0128300D02*
X0033000Y0129000D01*
X0027000Y0142241D02*
Y0142414D01*
X0026911Y0142152D02*
X0027000Y0142241D01*
X0026911Y0141933D02*
Y0142152D01*
X0026258Y0141279D02*
X0026911Y0141933D01*
X0026130Y0141279D02*
X0026258D01*
X0027000Y0142414D02*
X0027586Y0143000D01*
X0032500D01*
X0155800Y0135500D02*
X0157005Y0134295D01*
X0029500Y0128300D02*
X0032300D01*
X0031000Y0123500D02*
X0039000Y0131500D01*
X0026382Y0124086D02*
X0026968Y0123500D01*
X0026382Y0124086D02*
Y0131839D01*
X0026968Y0123500D02*
X0031000D01*
X0029473Y0136702D02*
X0031202D01*
X0028941Y0136169D02*
X0029473Y0136702D01*
X0033537Y0135237D02*
X0034000Y0135700D01*
X0033537Y0133876D02*
Y0135237D01*
X0031689Y0132618D02*
X0032280D01*
X0031500Y0132429D02*
X0031689Y0132618D01*
X0033089Y0141211D02*
X0034000Y0140300D01*
X0033089Y0141211D02*
Y0142152D01*
X0032535Y0142707D02*
X0033089Y0142152D01*
X0032535Y0142707D02*
Y0142965D01*
X0032500Y0143000D02*
X0032535Y0142965D01*
X0042500Y0128500D02*
Y0130500D01*
X0039000Y0131500D02*
X0041500D01*
X0042500Y0130500D01*
X0078638Y0139323D02*
X0081500D01*
X0075791Y0142169D02*
Y0143161D01*
X0063500Y0148358D02*
Y0148500D01*
Y0148358D02*
X0064000Y0147858D01*
Y0145665D02*
Y0147858D01*
X0056692Y0148692D02*
X0056884Y0148500D01*
X0063500D01*
X0056680Y0148692D02*
X0056692D01*
X0056390Y0148402D02*
X0056680Y0148692D01*
X0056390Y0146827D02*
Y0148402D01*
X0099103Y0138631D02*
X0099152D01*
X0099783Y0138000D01*
X0081000Y0138500D02*
Y0138858D01*
X0080917Y0138941D02*
X0081000Y0138858D01*
X0081500Y0141882D02*
X0082382Y0141000D01*
X0075791Y0138209D02*
X0076000Y0138000D01*
X0099783D02*
X0102700D01*
X0075791Y0142169D02*
X0078638Y0139323D01*
X0100000Y0125500D02*
X0102200D01*
X0086500Y0141300D02*
Y0141500D01*
X0086200Y0141000D02*
X0086500Y0141300D01*
X0102700Y0138000D02*
Y0141500D01*
X0075791Y0138209D02*
Y0142169D01*
D15*
X0146799Y0122527D02*
Y0122527D01*
X0141495Y0121000D02*
X0145272D01*
X0146799Y0122527D01*
X0169326Y0132000D02*
X0175500D01*
X0168800Y0129500D02*
X0175000D01*
X0169033Y0132293D02*
X0169326Y0132000D01*
X0169033Y0132293D02*
Y0132352D01*
X0160791Y0132933D02*
X0160921Y0133063D01*
X0161304D01*
X0161714Y0133473D01*
X0162227Y0131833D02*
Y0132232D01*
X0162868Y0133346D02*
X0168039D01*
X0162741Y0133473D02*
X0162868Y0133346D01*
X0161714Y0133473D02*
X0162741D01*
X0136873Y0125100D02*
X0150264Y0138491D01*
X0136500Y0125000D02*
X0136600Y0125100D01*
X0132000Y0126000D02*
X0136500D01*
X0148651Y0138151D01*
Y0141906D01*
X0150264Y0138491D02*
Y0139352D01*
X0136600Y0125100D02*
X0136873D01*
X0151000Y0140088D02*
Y0140791D01*
X0128500Y0125000D02*
X0136500D01*
X0150264Y0139352D02*
X0151000Y0140088D01*
X0139202Y0125000D02*
X0143500D01*
X0137352Y0123150D02*
X0139202Y0125000D01*
X0167300Y0131000D02*
X0168800Y0129500D01*
X0178500Y0121000D02*
X0180450Y0119050D01*
X0151362Y0127091D02*
X0151713D01*
X0152316Y0127694D02*
X0152500D01*
X0151713Y0127091D02*
X0152316Y0127694D01*
X0141300Y0120805D02*
X0141495Y0121000D01*
X0141300Y0120805D02*
Y0121000D01*
X0147000Y0128500D02*
X0149500D01*
X0143500Y0125000D02*
X0147000Y0128500D01*
X0131000Y0122500D02*
X0131650Y0123150D01*
X0137352D01*
X0128500Y0129500D02*
X0132000Y0126000D01*
X0127000Y0129500D02*
X0128500D01*
X0128700Y0121000D02*
X0130200Y0122500D01*
X0131000D01*
X0133300Y0121000D02*
X0136700D01*
X0146799Y0122527D02*
X0151362Y0127091D01*
X0127000Y0126500D02*
X0128500Y0125000D01*
X0162360Y0131700D02*
X0162633D01*
X0162227Y0131833D02*
X0162360Y0131700D01*
X0168039Y0133346D02*
X0169033Y0132352D01*
X0187844Y0120000D02*
X0197207D01*
X0186893Y0119050D02*
X0187844Y0120000D01*
X0180450Y0119050D02*
X0186893D01*
X0197500Y0120293D02*
Y0121175D01*
X0197207Y0120000D02*
X0197500Y0120293D01*
Y0121175D02*
X0198741Y0122416D01*
Y0136259D01*
X0193638Y0139598D02*
X0193659Y0139576D01*
X0195424D01*
X0198741Y0136259D01*
X0148651Y0141906D02*
X0150245Y0143500D01*
X0163240Y0130460D02*
X0163533Y0130167D01*
X0163240Y0130460D02*
Y0130760D01*
X0166467Y0128213D02*
X0166500Y0128180D01*
X0163833Y0130167D02*
X0165787Y0128213D01*
X0163533Y0130167D02*
X0163833D01*
X0166500Y0127500D02*
X0167300D01*
X0166500Y0127500D02*
Y0128180D01*
X0165787Y0128213D02*
X0166467D01*
X0163833Y0130167D02*
X0165787Y0128213D01*
X0162700Y0131000D02*
X0163533Y0130167D01*
X0165787Y0128213D02*
X0166467D01*
Y0128213D02*
X0166500Y0128180D01*
X0163533Y0130167D02*
X0163833D01*
X0166500Y0127500D02*
Y0128180D01*
X0153291Y0143500D02*
X0156000Y0140791D01*
X0150245Y0143500D02*
X0153291D01*
D16*
X0185542Y0137000D02*
X0185670D01*
X0126500Y0138155D02*
Y0139747D01*
Y0138000D02*
Y0138155D01*
X0180000Y0127500D02*
X0180863Y0128363D01*
X0180000Y0125000D02*
Y0127500D01*
X0186500Y0129507D02*
X0186692Y0129700D01*
Y0130555D01*
X0185222Y0137448D02*
X0185670Y0137000D01*
X0185161Y0137629D02*
X0185222Y0137568D01*
Y0137448D02*
Y0137568D01*
X0181335Y0137629D02*
X0185161D01*
X0184500Y0132500D02*
X0186308Y0130692D01*
X0183215Y0132500D02*
X0184500D01*
X0186308Y0129700D02*
Y0130692D01*
X0178619Y0137631D02*
Y0145881D01*
X0191000Y0136398D02*
X0192007Y0137405D01*
X0191000Y0134000D02*
Y0136398D01*
X0180863Y0128363D02*
X0183036D01*
X0159500Y0129175D02*
Y0135500D01*
X0158500Y0136500D02*
Y0142175D01*
Y0136500D02*
X0159500Y0135500D01*
Y0129175D02*
X0160818Y0127857D01*
X0165674Y0124027D02*
Y0124326D01*
X0163483Y0126517D02*
X0165674Y0124326D01*
X0162700Y0127500D02*
X0163483Y0126717D01*
Y0126517D02*
Y0126717D01*
X0160818Y0126493D02*
Y0127857D01*
X0160035Y0125709D02*
X0160818Y0126493D01*
X0159167Y0125709D02*
X0160035D01*
X0158957Y0125499D02*
X0159167Y0125709D01*
X0158957Y0125499D02*
Y0125499D01*
X0157755Y0124297D02*
X0158957Y0125499D01*
X0162308Y0134580D02*
X0163189Y0135461D01*
X0162268Y0134580D02*
X0162308D01*
X0162189Y0134500D02*
X0162268Y0134580D01*
X0161000Y0134500D02*
X0162189D01*
X0182631Y0131916D02*
X0183215Y0132500D01*
X0158500Y0144457D02*
Y0149000D01*
Y0144457D02*
X0158791Y0144167D01*
Y0142465D02*
Y0144167D01*
X0158500Y0142175D02*
X0158791Y0142465D01*
X0153595Y0119000D02*
X0157095Y0122500D01*
X0058000Y0138098D02*
X0058075Y0138173D01*
X0058000Y0137500D02*
Y0138098D01*
X0180152Y0147414D02*
X0181847D01*
X0144309Y0136493D02*
X0144466D01*
X0142464Y0136327D02*
X0144142D01*
X0144309Y0136493D01*
X0139705Y0134250D02*
X0140387D01*
X0142464Y0136327D01*
X0186500Y0120000D02*
X0188469Y0121968D01*
X0181500Y0120000D02*
X0186500D01*
X0188469Y0121968D02*
Y0129507D01*
X0180500Y0121000D02*
X0181500Y0120000D01*
X0123500Y0124300D02*
X0123800Y0124000D01*
X0125500D01*
X0163189Y0135461D02*
Y0135500D01*
X0161000Y0145791D02*
X0161277Y0146069D01*
Y0147777D02*
X0162500Y0149000D01*
X0161277Y0146069D02*
Y0147777D01*
X0169689Y0149000D02*
X0170189Y0148500D01*
X0169000Y0149000D02*
X0169689D01*
X0171212Y0126268D02*
Y0126320D01*
X0172520D01*
X0170861Y0125917D02*
X0171212Y0126268D01*
X0170861Y0125759D02*
Y0125917D01*
X0172520Y0126320D02*
X0173200Y0127000D01*
X0149500Y0133800D02*
X0151200Y0135500D01*
X0180500Y0121000D02*
Y0121500D01*
X0177800Y0124200D02*
X0180500Y0121500D01*
X0177800Y0124200D02*
Y0127000D01*
X0173000Y0135079D02*
X0174386Y0133692D01*
X0181335D01*
X0186308Y0129700D02*
X0186500Y0129507D01*
X0181527Y0131916D02*
X0182631D01*
X0181335Y0131724D02*
X0181527Y0131916D01*
X0192007Y0137405D02*
X0192609D01*
X0166841Y0134800D02*
X0172721D01*
X0185044Y0148438D02*
X0185236Y0148246D01*
X0184404Y0148438D02*
X0185044D01*
X0185236Y0147606D02*
Y0148246D01*
X0123374Y0142874D02*
X0126500Y0139747D01*
X0051890Y0128609D02*
X0056857D01*
X0049491Y0131009D02*
X0051890Y0128609D01*
X0058000Y0137500D02*
X0058443Y0137057D01*
X0042500Y0127500D02*
Y0128500D01*
Y0127500D02*
X0042555Y0127445D01*
Y0125228D02*
Y0127445D01*
Y0125228D02*
X0042610Y0125173D01*
X0058443Y0137057D02*
X0074835D01*
X0054421Y0123079D02*
X0054500Y0123000D01*
X0054421Y0123079D02*
Y0125173D01*
X0177328Y0137097D02*
Y0142172D01*
X0174669Y0143253D02*
X0176247D01*
X0173000Y0144921D02*
X0174669Y0143253D01*
X0176247D02*
X0177328Y0142172D01*
Y0137097D02*
X0178764Y0135661D01*
X0180932D01*
X0181011Y0135739D01*
X0172930Y0148461D02*
X0173371Y0148020D01*
X0178619Y0145881D02*
X0180152Y0147414D01*
X0173000Y0144921D02*
X0173500Y0145421D01*
X0116300Y0129589D02*
X0116375Y0129664D01*
X0116300Y0125500D02*
Y0129589D01*
X0098173Y0140500D02*
X0099360D01*
X0098173Y0140456D02*
Y0140500D01*
X0097417Y0139700D02*
X0098173Y0140456D01*
X0096700Y0139700D02*
X0097417D01*
X0096500Y0139500D02*
X0096700Y0139700D01*
X0197000Y0143000D02*
Y0145000D01*
Y0143000D02*
X0197300Y0142700D01*
X0089500Y0138000D02*
X0095000D01*
X0085778Y0134130D02*
X0089500Y0137852D01*
Y0138000D01*
X0085778Y0133935D02*
Y0134130D01*
X0085500Y0133657D02*
X0085778Y0133935D01*
X0085500Y0133500D02*
Y0133657D01*
X0091238Y0147000D02*
X0092729Y0145509D01*
X0090800Y0147000D02*
X0091238D01*
X0092729Y0145509D02*
X0097491D01*
X0098674Y0144326D01*
X0096592Y0140700D02*
X0096883Y0140990D01*
X0096003Y0140700D02*
X0096592D01*
X0099360Y0140500D02*
X0099448Y0140412D01*
X0095803Y0140500D02*
X0096003Y0140700D01*
X0090800Y0140500D02*
X0095803D01*
X0083927Y0138809D02*
Y0139000D01*
X0081299Y0147000D02*
X0081500D01*
X0080917Y0146618D02*
X0081299Y0147000D01*
X0161000Y0140791D02*
X0161478Y0141269D01*
X0044500Y0121500D02*
X0044579Y0121579D01*
Y0125173D01*
X0056390Y0126890D02*
X0056500Y0127000D01*
X0056390Y0125173D02*
Y0126890D01*
X0078117Y0135009D02*
X0079938Y0136830D01*
X0081000Y0144000D02*
X0081500D01*
X0080941Y0144059D02*
X0081000Y0144000D01*
X0080917Y0144059D02*
X0080941D01*
X0079938Y0136830D02*
Y0136865D01*
X0081826Y0136674D02*
X0082285D01*
X0074835Y0137057D02*
X0075392Y0136500D01*
X0077500D01*
X0082285Y0136674D02*
X0083491Y0137879D01*
X0077658Y0135009D02*
X0078117D01*
X0074000Y0131352D02*
X0077658Y0135009D01*
X0083927Y0138809D02*
X0084000Y0138736D01*
X0107500Y0139155D02*
Y0139313D01*
X0107300Y0139513D02*
X0107500Y0139313D01*
X0107300Y0139513D02*
Y0141500D01*
X0095000Y0138000D02*
X0096500Y0139500D01*
X0108991Y0146000D02*
X0109000D01*
X0042610Y0146110D02*
Y0146827D01*
X0043883Y0133009D02*
X0047513D01*
X0042509Y0134383D02*
X0043883Y0133009D01*
X0042509Y0134383D02*
Y0142697D01*
X0074000Y0131000D02*
Y0131352D01*
X0047513Y0133009D02*
X0049491Y0131032D01*
X0096543Y0122313D02*
X0099856Y0119000D01*
X0178000Y0149000D02*
X0183843D01*
X0184404Y0148438D01*
X0174500Y0134655D02*
X0174870D01*
X0192609Y0137405D02*
Y0137437D01*
X0192801Y0137629D01*
X0193638D01*
X0183036Y0128363D02*
X0183508Y0128835D01*
X0184339D01*
X0184531Y0129027D01*
Y0129507D01*
X0193638Y0127185D02*
Y0129507D01*
X0192315Y0127185D02*
X0193638D01*
X0190824Y0128675D02*
X0192315Y0127185D01*
X0190629Y0128675D02*
X0190824D01*
X0190437Y0128868D02*
X0190629Y0128675D01*
X0190437Y0128868D02*
Y0129507D01*
X0173371Y0148020D02*
X0173811Y0148461D01*
X0172930Y0147580D02*
X0173371Y0148020D01*
X0173500Y0147891D01*
Y0145421D02*
Y0147891D01*
X0172930Y0147580D02*
Y0148461D01*
X0173811D02*
Y0148500D01*
X0088000Y0133500D02*
X0088358Y0133142D01*
X0088500Y0134000D02*
X0089000D01*
X0066712Y0139323D02*
X0069189D01*
X0069199Y0139313D01*
X0088000Y0130000D02*
X0088358Y0130358D01*
Y0131390D01*
X0066176Y0139858D02*
X0066712Y0139323D01*
X0065881Y0139858D02*
X0066176D01*
X0083491Y0138227D02*
X0084000Y0138736D01*
X0083491Y0137879D02*
Y0138227D01*
X0088358Y0131390D02*
Y0133142D01*
X0088000Y0133500D02*
X0088500Y0134000D01*
X0065000Y0140739D02*
X0065881Y0139858D01*
X0065000Y0140739D02*
Y0141035D01*
D17*
X0133300Y0121000D02*
D03*
X0128700D02*
D03*
X0090800Y0144000D02*
D03*
X0086200D02*
D03*
X0106800Y0125500D02*
D03*
X0102200D02*
D03*
X0177800Y0127000D02*
D03*
X0173200D02*
D03*
X0155800Y0136000D02*
D03*
X0151200D02*
D03*
X0167300Y0127500D02*
D03*
X0162700D02*
D03*
X0167300Y0131000D02*
D03*
X0162700D02*
D03*
X0141300Y0121000D02*
D03*
X0136700D02*
D03*
X0111700Y0125500D02*
D03*
X0116300D02*
D03*
X0102700Y0138000D02*
D03*
X0107300D02*
D03*
Y0141500D02*
D03*
X0102700D02*
D03*
X0086200Y0140500D02*
D03*
X0090800D02*
D03*
X0086200Y0147000D02*
D03*
X0090800D02*
D03*
D18*
X0197300Y0147300D02*
D03*
Y0142700D02*
D03*
X0123500Y0124300D02*
D03*
Y0119700D02*
D03*
X0029500Y0123700D02*
D03*
Y0128300D02*
D03*
X0034500Y0140300D02*
D03*
Y0135700D02*
D03*
D19*
X0126626Y0146126D02*
D03*
X0123374Y0142874D02*
D03*
D20*
X0157750Y0130404D02*
D03*
D21*
X0149500Y0128500D02*
D03*
X0149494Y0132226D02*
D03*
D22*
X0025941Y0131839D02*
D03*
X0028500D02*
D03*
X0031059D02*
D03*
Y0140500D02*
D03*
X0028500D02*
D03*
X0025941D02*
D03*
D23*
X0028500Y0136169D02*
D03*
D24*
X0120500Y0131000D02*
D03*
X0120650Y0134650D02*
D03*
X0120500Y0138000D02*
D03*
Y0141000D02*
D03*
D25*
X0069500Y0146618D02*
D03*
Y0144059D02*
D03*
Y0141500D02*
D03*
Y0138941D02*
D03*
X0080917D02*
D03*
Y0141500D02*
D03*
Y0144059D02*
D03*
Y0146618D02*
D03*
D26*
X0075209Y0142780D02*
D03*
D27*
X0173000Y0144921D02*
D03*
Y0135079D02*
D03*
D28*
X0161000Y0145791D02*
D03*
Y0140791D02*
D03*
X0156000Y0145791D02*
D03*
Y0140791D02*
D03*
X0151000Y0145791D02*
D03*
Y0140791D02*
D03*
D29*
X0064000Y0145665D02*
D03*
Y0141335D02*
D03*
D30*
X0163189Y0135500D02*
D03*
X0166811D02*
D03*
D31*
X0170189Y0148500D02*
D03*
X0173811D02*
D03*
D32*
X0093870Y0120169D02*
D03*
Y0128831D02*
D03*
X0065130Y0120169D02*
D03*
Y0128831D02*
D03*
D33*
X0088358Y0131390D02*
D03*
X0082453D02*
D03*
X0070642D02*
D03*
D34*
X0056390Y0146827D02*
D03*
Y0125173D02*
D03*
X0054421Y0146827D02*
D03*
Y0125173D02*
D03*
X0052453Y0146827D02*
D03*
Y0125173D02*
D03*
X0050484Y0146827D02*
D03*
Y0125173D02*
D03*
X0048516Y0146827D02*
D03*
Y0125173D02*
D03*
X0046547Y0146827D02*
D03*
Y0125173D02*
D03*
X0044579Y0146827D02*
D03*
Y0125173D02*
D03*
X0042610Y0146827D02*
D03*
Y0125173D02*
D03*
D35*
X0181335Y0129755D02*
D03*
X0193638Y0129507D02*
D03*
Y0131724D02*
D03*
Y0133692D02*
D03*
Y0135661D02*
D03*
Y0137629D02*
D03*
Y0139598D02*
D03*
Y0141567D02*
D03*
Y0143535D02*
D03*
Y0145503D02*
D03*
Y0147523D02*
D03*
X0181335Y0147720D02*
D03*
Y0145503D02*
D03*
Y0143535D02*
D03*
Y0141567D02*
D03*
Y0139598D02*
D03*
Y0137629D02*
D03*
Y0135661D02*
D03*
Y0133692D02*
D03*
Y0131724D02*
D03*
D36*
X0184531Y0129507D02*
D03*
X0186500D02*
D03*
X0188469D02*
D03*
X0190437D02*
D03*
Y0147720D02*
D03*
X0188469D02*
D03*
X0186500D02*
D03*
X0184531D02*
D03*
D63*
X0155309Y0130365D02*
D03*
D65*
X0186386Y0135272D02*
X0189734Y0138621D01*
X0186017Y0135272D02*
X0186386D01*
X0132325Y0141825D02*
X0132650Y0142149D01*
X0154194Y0124194D02*
X0157000Y0127000D01*
X0154000Y0124194D02*
X0154194D01*
X0157000Y0127000D02*
X0159500D01*
X0146500Y0133500D02*
X0147000D01*
X0147014Y0133486D01*
X0137000Y0124000D02*
X0146500Y0133500D01*
X0136617Y0148128D02*
X0138380Y0149891D01*
X0136617Y0147617D02*
Y0148128D01*
X0111968Y0147305D02*
Y0147740D01*
X0111809Y0147147D02*
X0111968Y0147305D01*
Y0147740D02*
X0112000Y0147772D01*
Y0148500D01*
X0103414Y0148687D02*
X0112187D01*
X0149742Y0118913D02*
X0149852Y0118803D01*
X0153398D01*
X0153595Y0119000D01*
X0079007Y0122381D02*
X0079993D01*
X0077123Y0123000D02*
X0078494D01*
X0077538Y0122000D02*
X0078626D01*
X0080374D02*
X0081463D01*
X0078676Y0123181D02*
X0080325D01*
X0078494Y0123000D02*
X0078676Y0123181D01*
X0079993Y0122381D02*
X0080374Y0122000D01*
X0080506Y0123000D02*
X0081877D01*
X0078916Y0121041D02*
X0079351D01*
X0078875Y0121000D02*
X0078916Y0121041D01*
X0080325Y0123181D02*
X0080506Y0123000D01*
X0078626Y0122000D02*
X0079007Y0122381D01*
X0079351Y0121041D02*
X0079500Y0121191D01*
X0081877Y0123000D02*
X0083933Y0120944D01*
X0075067D02*
X0077123Y0123000D01*
X0059865Y0128846D02*
X0060076D01*
X0081463Y0122000D02*
X0083518Y0119944D01*
X0075482D02*
X0077538Y0122000D01*
X0077952Y0121000D02*
X0078875D01*
X0135066Y0144934D02*
X0135500Y0144500D01*
X0133007Y0144934D02*
X0135066D01*
X0132000Y0146000D02*
X0132075D01*
X0132309Y0145766D01*
Y0145632D02*
Y0145766D01*
Y0145632D02*
X0133007Y0144934D01*
X0126000Y0149000D02*
X0126058Y0149057D01*
X0129626D01*
X0130881Y0147803D01*
Y0147119D02*
Y0147803D01*
Y0147119D02*
X0132000Y0146000D01*
X0129924Y0149891D02*
X0131681Y0148134D01*
Y0147819D02*
Y0148134D01*
Y0147819D02*
X0133375Y0146125D01*
X0133500D01*
X0128743Y0148258D02*
X0129691Y0147309D01*
X0098891Y0149891D02*
X0129924D01*
X0116809Y0146309D02*
X0117493D01*
X0122815Y0146500D02*
X0124515Y0148200D01*
X0116500Y0146000D02*
X0116809Y0146309D01*
X0122493Y0147309D02*
X0124184Y0149000D01*
X0124515Y0148200D02*
X0126331D01*
X0126389Y0148258D02*
X0128743D01*
X0126331Y0148200D02*
X0126389Y0148258D01*
X0117493Y0146309D02*
X0118493Y0147309D01*
X0122493D01*
X0124184Y0149000D02*
X0126000D01*
X0114750Y0146000D02*
X0116500D01*
X0124440Y0133256D02*
X0126400Y0135216D01*
X0124440Y0133175D02*
Y0133256D01*
X0124206Y0132940D02*
X0124440Y0133175D01*
X0111500Y0132940D02*
X0124206D01*
X0126400Y0135216D02*
Y0135900D01*
X0129895Y0139395D01*
Y0142079D01*
X0097803Y0136331D02*
X0101193Y0132940D01*
X0111500D01*
X0129895Y0142079D02*
X0131507Y0143691D01*
X0126000Y0120500D02*
Y0122500D01*
X0127500Y0124000D02*
X0137000D01*
X0126000Y0122500D02*
X0127500Y0124000D01*
X0153291Y0147000D02*
X0156000D01*
X0141500Y0148472D02*
X0141562D01*
X0153814Y0148441D02*
Y0148466D01*
Y0148441D02*
X0153901Y0148354D01*
X0141562Y0148472D02*
X0142924Y0147109D01*
X0142294Y0143583D02*
X0143198Y0144486D01*
X0139242Y0146042D02*
X0147139D01*
X0137783Y0144583D02*
X0139242Y0146042D01*
X0147139D02*
X0147390Y0145791D01*
X0138086Y0143583D02*
X0142294D01*
X0119000Y0123000D02*
X0120500Y0124500D01*
X0192976Y0145581D02*
X0193346Y0145211D01*
X0190581Y0145581D02*
X0192976D01*
X0189734Y0144734D02*
X0190581Y0145581D01*
X0189734Y0138621D02*
Y0144734D01*
X0172721Y0134800D02*
X0173000Y0135079D01*
X0119000Y0119000D02*
X0123500D01*
X0126200Y0145700D02*
X0126626Y0146126D01*
X0122200Y0145700D02*
X0126200D01*
X0120500Y0144000D02*
X0122200Y0145700D01*
X0110811Y0142700D02*
X0115331D01*
X0119131Y0146500D02*
X0122815D01*
X0115331Y0142700D02*
X0119131Y0146500D01*
X0097000Y0148000D02*
X0098891Y0149891D01*
X0109901Y0143609D02*
X0110811Y0142700D01*
X0105391Y0143609D02*
X0109901D01*
X0104000Y0145000D02*
X0105391Y0143609D01*
X0132650Y0142149D02*
X0133132D01*
X0120685Y0148891D02*
X0121076Y0148500D01*
X0122000D01*
X0112391Y0148891D02*
X0120685D01*
X0136701Y0143612D02*
X0137672Y0144583D01*
X0132756Y0143612D02*
X0136701D01*
X0132678Y0143691D02*
X0132756Y0143612D01*
X0131507Y0143691D02*
X0132678D01*
X0122992Y0139496D02*
X0122996D01*
X0121488Y0141000D02*
X0122992Y0139496D01*
X0120500Y0141000D02*
X0121488D01*
X0114500Y0147500D02*
X0117000D01*
X0112187Y0148687D02*
X0112391Y0148891D01*
X0092000Y0150000D02*
X0093900Y0148100D01*
X0041500Y0150000D02*
X0092000D01*
X0040000Y0148500D02*
X0041500Y0150000D01*
X0057000Y0132500D02*
Y0136816D01*
X0056810Y0137007D02*
X0057000Y0136816D01*
X0056810Y0137007D02*
Y0138100D01*
X0056885Y0138175D01*
Y0139922D01*
X0056010Y0130991D02*
Y0138432D01*
X0056085Y0138507D01*
Y0139493D01*
X0054675Y0140903D02*
X0056085Y0139493D01*
X0054707Y0139000D02*
X0054894D01*
X0052453Y0144354D02*
X0056885Y0139922D01*
X0054675Y0140903D02*
Y0141000D01*
X0050484Y0145191D02*
X0054675Y0141000D01*
X0049294Y0144413D02*
X0054707Y0139000D01*
X0042500Y0143500D02*
X0042509Y0143491D01*
Y0142697D02*
Y0143491D01*
X0048516Y0145252D02*
X0048906Y0144861D01*
X0049294Y0144413D02*
Y0144627D01*
X0049059Y0144861D02*
X0049294Y0144627D01*
X0048906Y0144861D02*
X0049059D01*
X0056010Y0130991D02*
X0058436Y0128564D01*
X0050484Y0145191D02*
Y0146827D01*
X0052453Y0144354D02*
Y0146827D01*
X0057000Y0132500D02*
X0058000Y0131500D01*
X0058436Y0128444D02*
Y0128564D01*
X0072357Y0135143D02*
X0073500Y0134000D01*
X0052811Y0121809D02*
X0058072D01*
X0052811D02*
Y0124815D01*
X0052453Y0125173D02*
X0052811Y0124815D01*
X0046500Y0127000D02*
Y0127500D01*
X0039500Y0123500D02*
Y0129000D01*
X0044000Y0130000D02*
X0046500Y0127500D01*
X0044000Y0130000D02*
Y0131500D01*
X0058072Y0121809D02*
X0058497Y0122234D01*
X0111500Y0132940D02*
X0111700Y0132740D01*
Y0125500D02*
Y0132740D01*
X0122619Y0135119D02*
X0123150D01*
X0123150Y0135119D01*
X0065745Y0131500D02*
X0068087Y0133843D01*
X0121000Y0131500D02*
X0123000D01*
X0120500Y0131000D02*
X0121000Y0131500D01*
X0120650Y0134650D02*
X0120950Y0134950D01*
X0122450D01*
X0097470Y0136331D02*
X0097803D01*
X0122450Y0134950D02*
X0122619Y0135119D01*
X0122789Y0137500D02*
X0123000D01*
X0122589Y0137700D02*
X0122789Y0137500D01*
X0120800Y0137700D02*
X0122589D01*
X0120500Y0138000D02*
X0120800Y0137700D01*
X0115000Y0120500D02*
X0117000Y0122500D01*
X0099757Y0123913D02*
X0101169Y0122500D01*
X0099343Y0122913D02*
X0101255Y0121000D01*
X0108500Y0123212D02*
X0109000Y0122712D01*
X0108500Y0123212D02*
Y0124000D01*
X0107883Y0124617D02*
X0108500Y0124000D01*
X0109000Y0122587D02*
Y0122712D01*
X0108913Y0122500D02*
X0109000Y0122587D01*
X0109886Y0121000D02*
X0111386Y0122500D01*
X0101255Y0121000D02*
X0109886D01*
X0110801Y0120500D02*
X0115000D01*
X0110301Y0120000D02*
X0110801Y0120500D01*
X0100427Y0120000D02*
X0110301D01*
X0112734Y0145734D02*
X0114500Y0147500D01*
X0111424Y0145734D02*
X0112734D01*
X0156000Y0145791D02*
Y0147000D01*
X0152151Y0148141D02*
X0153291Y0147000D01*
X0149641Y0148141D02*
X0152151D01*
X0152389Y0149891D02*
X0153814Y0148466D01*
X0151637Y0149891D02*
X0152389D01*
X0136916Y0142412D02*
X0138086Y0143583D01*
X0133395Y0142412D02*
X0136916D01*
X0137672Y0144583D02*
X0137783D01*
X0142924Y0147109D02*
X0148609D01*
X0101336Y0146609D02*
X0103414Y0148687D01*
X0094933Y0148100D02*
X0096424Y0146609D01*
X0093900Y0148100D02*
X0094933D01*
X0096424Y0146609D02*
X0101336D01*
X0135500Y0146500D02*
X0136617Y0147617D01*
X0133132Y0142149D02*
X0133395Y0142412D01*
X0041614Y0121386D02*
X0041795D01*
X0056857Y0128609D02*
X0062922Y0122544D01*
X0067552D01*
X0058436Y0128444D02*
X0063337Y0123544D01*
X0058497Y0124497D02*
X0058500Y0124500D01*
X0058000Y0131500D02*
X0065745D01*
X0060451Y0128549D02*
X0063656Y0125344D01*
X0060373Y0128549D02*
X0060451D01*
X0060076Y0128846D02*
X0060373Y0128549D01*
X0063337Y0123544D02*
X0067966D01*
X0148609Y0147109D02*
X0149641Y0148141D01*
X0147390Y0145791D02*
X0151000D01*
X0138380Y0149891D02*
X0151637D01*
X0108415Y0147391D02*
X0109767D01*
X0107649Y0146625D02*
X0108415Y0147391D01*
X0107500Y0146625D02*
X0107649D01*
X0107000Y0146000D02*
Y0146125D01*
X0107500Y0146625D01*
X0109767Y0147391D02*
X0111424Y0145734D01*
X0112000Y0148500D02*
X0112187Y0148687D01*
X0107683Y0124617D02*
X0107883D01*
X0106800Y0125500D02*
X0107683Y0124617D01*
X0037000Y0148500D02*
X0040000D01*
X0049491Y0131009D02*
Y0131032D01*
X0067966Y0123544D02*
X0071566Y0119944D01*
X0067552Y0122544D02*
X0071152Y0118944D01*
X0071566Y0119944D02*
X0075482D01*
X0067722Y0125344D02*
X0072122Y0120944D01*
X0063656Y0125344D02*
X0067722D01*
X0071152Y0118944D02*
X0075896D01*
X0044000Y0135000D02*
X0047500Y0138500D01*
Y0142500D01*
X0039500Y0123500D02*
X0041614Y0121386D01*
X0075896Y0118944D02*
X0077952Y0121000D01*
X0091456Y0122658D02*
X0091570Y0122544D01*
X0091125Y0122658D02*
X0091456D01*
X0088411Y0119944D02*
X0091125Y0122658D01*
X0083518Y0119944D02*
X0088411D01*
X0058497Y0122234D02*
Y0124497D01*
X0072122Y0120944D02*
X0075067D01*
X0083933D02*
X0086878D01*
X0088961Y0123027D01*
Y0124428D01*
X0090924Y0126391D01*
X0091935D01*
X0092000Y0126456D01*
X0091924Y0125391D02*
X0096450D01*
X0090534Y0124000D02*
X0091924Y0125391D01*
X0090500Y0124000D02*
X0090534D01*
X0092500D02*
X0096427D01*
X0096450Y0125391D02*
X0098928Y0122913D01*
X0092000Y0126456D02*
X0096799D01*
X0099343Y0123913D01*
X0099757D01*
X0096427Y0124000D02*
X0100427Y0120000D01*
X0098928Y0122913D02*
X0099343D01*
X0101169Y0122500D02*
X0108913D01*
X0096402Y0122313D02*
X0096543D01*
X0099856Y0119000D02*
X0114000D01*
X0111386Y0122500D02*
X0113000D01*
X0193346Y0145211D02*
X0193638Y0145503D01*
X0123587Y0118913D02*
X0149742D01*
X0123500Y0119000D02*
X0123587Y0118913D01*
X0119000Y0119000D02*
Y0123000D01*
X0196059Y0135441D02*
X0197500Y0134000D01*
X0193638Y0135441D02*
X0196059D01*
X0188761Y0148579D02*
X0189682Y0149500D01*
X0188761Y0147792D02*
Y0148579D01*
X0188469Y0147500D02*
X0188761Y0147792D01*
X0189682Y0149500D02*
X0195300D01*
X0197500Y0147300D01*
X0070038Y0135143D02*
X0072357D01*
X0069500Y0141500D02*
X0070000D01*
X0068932Y0135143D02*
X0070038D01*
X0068087Y0134298D02*
X0068932Y0135143D01*
X0068087Y0133843D02*
Y0134298D01*
X0087638Y0149000D02*
X0088609Y0148029D01*
X0071000Y0149000D02*
X0087638D01*
X0070237Y0148238D02*
X0071000Y0149000D01*
X0088609Y0145753D02*
Y0148029D01*
X0070237Y0147155D02*
Y0148238D01*
X0070083Y0147000D02*
X0070237Y0147155D01*
X0096170Y0122544D02*
X0096402Y0122313D01*
X0091570Y0122544D02*
X0096170D01*
X0114000Y0119000D02*
X0119000D01*
X0088609Y0145753D02*
X0089579Y0144783D01*
X0090017D01*
X0090800Y0144000D01*
D66*
X0082382Y0141000D02*
X0086200D01*
X0081500Y0144441D02*
X0085759D01*
X0086200Y0144000D01*
X0081500Y0147000D02*
X0086200D01*
D67*
X0174716Y0122000D02*
D03*
X0168811D02*
D03*
X0151094Y0121803D02*
D03*
X0157000Y0122000D02*
D03*
X0162906D02*
D03*
D68*
X0166000Y0139291D02*
D03*
Y0147291D02*
D03*
X0146000Y0143291D02*
D03*
D69*
X0085405Y0124500D02*
D03*
X0073594D02*
D03*
D70*
X0139705Y0134250D02*
D03*
X0134705Y0139250D02*
D03*
X0129705Y0134250D02*
D03*
X0134705Y0129250D02*
D03*
D71*
X0184000Y0124500D02*
D03*
D72*
X0194000D02*
D03*
D73*
X0185542Y0137000D02*
D03*
X0180000Y0125000D02*
D03*
X0175000Y0129500D02*
D03*
X0184500Y0132500D02*
D03*
X0186017Y0135272D02*
D03*
X0185500Y0140500D02*
D03*
X0178619Y0137631D02*
D03*
X0175500Y0132000D02*
D03*
X0132325Y0141825D02*
D03*
X0160791Y0132933D02*
D03*
X0165674Y0124027D02*
D03*
X0159500Y0127000D02*
D03*
X0162227Y0132232D02*
D03*
X0157209Y0134500D02*
D03*
X0147014Y0133486D02*
D03*
X0111809Y0147147D02*
D03*
X0157500Y0143500D02*
D03*
X0178500Y0121000D02*
D03*
X0161839Y0142335D02*
D03*
X0173892Y0141593D02*
D03*
X0058075Y0138173D02*
D03*
X0079500Y0121191D02*
D03*
X0154000Y0124194D02*
D03*
X0152500Y0127694D02*
D03*
X0144466Y0136493D02*
D03*
X0135500Y0146500D02*
D03*
X0135687Y0144925D02*
D03*
X0129691Y0147309D02*
D03*
X0114750Y0146000D02*
D03*
X0126500Y0138155D02*
D03*
X0127000Y0129500D02*
D03*
X0126000Y0120500D02*
D03*
X0149000Y0134000D02*
D03*
X0148342Y0130842D02*
D03*
X0161000Y0134500D02*
D03*
X0147500Y0148472D02*
D03*
X0141500D02*
D03*
X0153901Y0148354D02*
D03*
X0143198Y0144486D02*
D03*
X0125500Y0124000D02*
D03*
X0162500Y0149000D02*
D03*
X0169000D02*
D03*
X0158500D02*
D03*
X0170861Y0125759D02*
D03*
X0127000Y0126500D02*
D03*
X0120500Y0124500D02*
D03*
X0107500Y0129656D02*
D03*
X0123000Y0137500D02*
D03*
X0110500Y0139155D02*
D03*
X0123150Y0135119D02*
D03*
X0113500Y0134500D02*
D03*
X0099448Y0140412D02*
D03*
X0117000Y0122500D02*
D03*
X0116375Y0139164D02*
D03*
X0113500Y0129656D02*
D03*
X0113000Y0122500D02*
D03*
X0110500Y0134500D02*
D03*
X0120500Y0144000D02*
D03*
X0122996Y0139496D02*
D03*
X0099103Y0138631D02*
D03*
X0116500Y0134500D02*
D03*
X0110500Y0129656D02*
D03*
X0116375Y0129664D02*
D03*
X0079938Y0136865D02*
D03*
X0123000Y0131500D02*
D03*
X0104000Y0145000D02*
D03*
X0113500Y0139155D02*
D03*
X0108991Y0146000D02*
D03*
X0107500Y0139155D02*
D03*
X0109000Y0122587D02*
D03*
X0107500Y0134155D02*
D03*
X0083927Y0139000D02*
D03*
X0191319Y0144390D02*
D03*
X0191000Y0134000D02*
D03*
X0122000Y0148500D02*
D03*
X0128000Y0144000D02*
D03*
X0117000Y0147500D02*
D03*
X0054500Y0148500D02*
D03*
X0054894Y0139000D02*
D03*
X0042500Y0143500D02*
D03*
X0050500Y0123500D02*
D03*
X0048500Y0124000D02*
D03*
X0039500Y0129000D02*
D03*
X0054500Y0123000D02*
D03*
X0056500Y0127000D02*
D03*
X0098674Y0144326D02*
D03*
X0096883Y0140990D02*
D03*
X0081000Y0138500D02*
D03*
X0063500Y0148500D02*
D03*
X0081500Y0147000D02*
D03*
X0133500Y0146125D02*
D03*
X0044500Y0121500D02*
D03*
X0041795Y0121386D02*
D03*
X0038000Y0122000D02*
D03*
X0059865Y0129046D02*
D03*
X0058500Y0124500D02*
D03*
X0081500Y0144000D02*
D03*
X0044000Y0131500D02*
D03*
X0097000Y0148000D02*
D03*
X0085500Y0133500D02*
D03*
X0081826Y0136674D02*
D03*
X0077500Y0136500D02*
D03*
X0073500Y0134000D02*
D03*
X0080500Y0131000D02*
D03*
X0076000Y0138000D02*
D03*
X0068073Y0131114D02*
D03*
X0197000Y0145000D02*
D03*
X0097470Y0136331D02*
D03*
X0107000Y0146000D02*
D03*
X0039000Y0145500D02*
D03*
X0026000D02*
D03*
X0037000Y0148500D02*
D03*
X0044000Y0135000D02*
D03*
X0047500Y0142500D02*
D03*
X0090500Y0124000D02*
D03*
X0092500D02*
D03*
X0100000Y0125500D02*
D03*
X0047000Y0130000D02*
D03*
X0178000Y0149000D02*
D03*
X0086500Y0141500D02*
D03*
X0032500Y0143000D02*
D03*
X0197500Y0134000D02*
D03*
X0069500Y0141500D02*
D03*
X0089000Y0134000D02*
D03*
X0074000Y0131000D02*
D03*
D74*
X0033000Y0129500D02*
D03*
X0042500Y0128500D02*
D03*
D75*
X0044500Y0148500D02*
D03*
M02*
