G04*
G04 #@! TF.GenerationSoftware,Altium Limited,Altium Designer,20.0.13 (296)*
G04*
G04 Layer_Physical_Order=2*
G04 Layer_Color=36540*
%FSAX25Y25*%
%MOIN*%
G70*
G01*
G75*
%ADD14C,0.00800*%
%ADD66C,0.04800*%
%ADD70C,0.05906*%
%ADD72C,0.01575*%
%ADD73C,0.02362*%
%ADD74C,0.01600*%
G36*
X0198700Y0149345D02*
X0198699Y0145108D01*
X0198199Y0145059D01*
X0198118Y0145463D01*
X0197856Y0145856D01*
X0197463Y0146118D01*
X0197000Y0146211D01*
X0196537Y0146118D01*
X0196144Y0145856D01*
X0195881Y0145463D01*
X0195789Y0145000D01*
X0195881Y0144537D01*
X0196144Y0144144D01*
X0196537Y0143881D01*
X0197000Y0143789D01*
X0197463Y0143881D01*
X0197856Y0144144D01*
X0198118Y0144537D01*
X0198199Y0144941D01*
X0198699Y0144892D01*
X0198691Y0118801D01*
X0183000Y0118801D01*
Y0120342D01*
X0183200Y0120518D01*
Y0124500D01*
Y0128482D01*
X0183000Y0128658D01*
Y0129500D01*
X0193500Y0129500D01*
Y0142000D01*
X0191806D01*
X0190740Y0143066D01*
Y0144226D01*
X0190781Y0144253D01*
X0191043Y0144646D01*
X0191135Y0145109D01*
X0191043Y0145573D01*
X0190781Y0145966D01*
X0190388Y0146228D01*
X0189925Y0146320D01*
X0189461Y0146228D01*
X0189069Y0145966D01*
X0188806Y0145573D01*
X0188714Y0145109D01*
X0188736Y0145000D01*
D01*
X0188806Y0144646D01*
X0189069Y0144253D01*
X0189109Y0144226D01*
Y0142728D01*
X0189109Y0142728D01*
X0189154Y0142500D01*
X0188988Y0142181D01*
X0188848Y0142000D01*
X0175021D01*
X0175010Y0142056D01*
X0174748Y0142449D01*
X0174355Y0142712D01*
X0173892Y0142804D01*
X0173428Y0142712D01*
X0173036Y0142449D01*
X0172773Y0142056D01*
X0172762Y0142000D01*
X0163718Y0142000D01*
Y0142014D01*
X0163625Y0142482D01*
X0163360Y0142879D01*
X0162963Y0143145D01*
X0162495Y0143238D01*
X0162026Y0143145D01*
X0161629Y0142879D01*
X0161364Y0142482D01*
X0161271Y0142014D01*
Y0142000D01*
X0158292D01*
X0158141Y0142500D01*
X0158356Y0142644D01*
X0158618Y0143037D01*
X0158711Y0143500D01*
X0158618Y0143963D01*
X0158356Y0144356D01*
X0157963Y0144618D01*
X0157500Y0144711D01*
X0157037Y0144618D01*
X0156859Y0144500D01*
X0156644Y0144356D01*
X0156381Y0143963D01*
X0156289Y0143500D01*
X0156381Y0143037D01*
X0156644Y0142644D01*
X0156859Y0142500D01*
X0156708Y0142000D01*
X0150500D01*
X0150500Y0144500D01*
X0148020D01*
X0147695Y0144986D01*
X0146917Y0145506D01*
X0146000Y0145688D01*
X0145083Y0145506D01*
X0144305Y0144986D01*
X0143980Y0144500D01*
X0143486D01*
X0143376Y0144665D01*
X0142983Y0144927D01*
X0142520Y0145019D01*
X0142057Y0144927D01*
X0141664Y0144665D01*
X0141554Y0144500D01*
X0137379Y0144500D01*
X0136968Y0144996D01*
X0136876Y0145459D01*
X0136613Y0145852D01*
X0136221Y0146114D01*
X0135757Y0146206D01*
X0135294Y0146114D01*
X0134799Y0146367D01*
X0134537Y0146760D01*
X0134144Y0147022D01*
X0133681Y0147115D01*
X0133218Y0147022D01*
X0132825Y0146760D01*
X0132562Y0146367D01*
X0132470Y0145904D01*
X0132562Y0145441D01*
X0132825Y0145048D01*
X0132896Y0145000D01*
X0132745Y0144500D01*
X0129094D01*
X0128856Y0144856D01*
X0128463Y0145118D01*
X0128000Y0145211D01*
X0127537Y0145118D01*
X0127144Y0144856D01*
X0126906Y0144500D01*
X0122078D01*
X0121984Y0144615D01*
X0121892Y0145078D01*
X0121629Y0145471D01*
X0121237Y0145733D01*
X0120773Y0145826D01*
X0120310Y0145733D01*
X0119917Y0145471D01*
X0119655Y0145078D01*
X0119562Y0144615D01*
X0119468Y0144500D01*
X0115807D01*
X0115655Y0145000D01*
X0115712Y0145038D01*
X0115974Y0145431D01*
X0116048Y0145802D01*
X0116171Y0145955D01*
X0116523Y0146162D01*
X0116825Y0146102D01*
X0117288Y0146194D01*
X0117681Y0146457D01*
X0117943Y0146849D01*
X0118035Y0147313D01*
X0117943Y0147776D01*
X0117681Y0148169D01*
X0117288Y0148431D01*
X0116825Y0148523D01*
X0116361Y0148431D01*
X0115969Y0148169D01*
X0115706Y0147776D01*
X0115632Y0147405D01*
X0115510Y0147252D01*
X0115158Y0147045D01*
X0114856Y0147105D01*
X0114393Y0147012D01*
X0114000Y0146750D01*
X0113737Y0146357D01*
X0113645Y0145894D01*
X0113737Y0145431D01*
X0114000Y0145038D01*
X0114057Y0145000D01*
X0113905Y0144500D01*
X0109895D01*
X0109768Y0144693D01*
X0109675Y0145000D01*
X0109883Y0145310D01*
X0109975Y0145774D01*
X0109883Y0146237D01*
X0109620Y0146630D01*
X0109228Y0146892D01*
X0108764Y0146984D01*
X0108301Y0146892D01*
X0107908Y0146630D01*
X0107812D01*
X0107659Y0146859D01*
X0107266Y0147122D01*
X0106803Y0147214D01*
X0106340Y0147122D01*
X0105947Y0146859D01*
X0105684Y0146467D01*
X0105592Y0146003D01*
X0105684Y0145540D01*
X0105947Y0145147D01*
X0105959Y0145139D01*
X0105829Y0144624D01*
X0105542Y0144597D01*
X0105211Y0145000D01*
X0105119Y0145463D01*
X0104856Y0145856D01*
X0104463Y0146118D01*
X0104000Y0146211D01*
X0103537Y0146118D01*
X0103144Y0145856D01*
X0102882Y0145463D01*
X0102789Y0145000D01*
X0102379Y0144500D01*
X0099801D01*
X0099792Y0144544D01*
X0099530Y0144936D01*
X0099137Y0145199D01*
X0098674Y0145291D01*
X0098210Y0145199D01*
X0097818Y0144936D01*
X0097555Y0144544D01*
X0097546Y0144500D01*
X0088000D01*
Y0141000D01*
X0083500D01*
Y0144500D01*
X0083500D01*
X0083500Y0149697D01*
X0122384Y0149697D01*
X0122433Y0149197D01*
X0122037Y0149118D01*
X0121644Y0148856D01*
X0121381Y0148463D01*
X0121289Y0148000D01*
X0121381Y0147537D01*
X0121644Y0147144D01*
X0122037Y0146881D01*
X0122500Y0146789D01*
X0122963Y0146881D01*
X0123356Y0147144D01*
X0123618Y0147537D01*
X0123711Y0148000D01*
X0123618Y0148463D01*
X0123356Y0148856D01*
X0122963Y0149118D01*
X0122567Y0149197D01*
X0122616Y0149697D01*
X0147555Y0149698D01*
X0147605Y0149198D01*
X0147458Y0149169D01*
X0147066Y0148906D01*
X0146803Y0148513D01*
X0146711Y0148050D01*
X0146803Y0147587D01*
X0147066Y0147194D01*
X0147458Y0146932D01*
X0147922Y0146840D01*
X0148385Y0146932D01*
X0148778Y0147194D01*
X0149040Y0147587D01*
X0149132Y0148050D01*
X0149040Y0148513D01*
X0148778Y0148906D01*
X0148385Y0149169D01*
X0148239Y0149198D01*
X0148288Y0149698D01*
X0160983Y0149698D01*
X0161329Y0149198D01*
X0161289Y0149000D01*
X0161381Y0148537D01*
X0161644Y0148144D01*
X0162037Y0147881D01*
X0162500Y0147789D01*
X0162963Y0147881D01*
X0163249Y0148072D01*
X0163648Y0147880D01*
X0163709Y0147824D01*
X0163603Y0147291D01*
Y0147291D01*
D01*
X0163786Y0146374D01*
X0164305Y0145597D01*
X0165083Y0145077D01*
X0166000Y0144895D01*
X0166174Y0144929D01*
X0166519Y0144583D01*
X0166611Y0144120D01*
X0166874Y0143727D01*
X0167267Y0143465D01*
X0167730Y0143373D01*
X0168193Y0143465D01*
X0168586Y0143727D01*
X0168848Y0144120D01*
X0168941Y0144583D01*
X0168848Y0145046D01*
X0168586Y0145439D01*
X0168313Y0145622D01*
X0168090Y0146189D01*
X0168214Y0146374D01*
X0168397Y0147291D01*
X0168368Y0147439D01*
X0168800Y0147829D01*
X0169000Y0147789D01*
X0169463Y0147881D01*
X0169856Y0148144D01*
X0170118Y0148537D01*
X0170211Y0149000D01*
X0170171Y0149198D01*
X0170517Y0149698D01*
X0176881Y0149698D01*
X0177292Y0149198D01*
X0177289Y0149187D01*
X0177382Y0148723D01*
X0177644Y0148330D01*
X0178037Y0148068D01*
X0178500Y0147976D01*
X0178963Y0148068D01*
X0179356Y0148330D01*
X0179619Y0148723D01*
X0179711Y0149187D01*
X0179708Y0149198D01*
X0180119Y0149698D01*
X0198347Y0149699D01*
X0198700Y0149345D01*
D02*
G37*
G36*
X0082500Y0149343D02*
Y0145294D01*
X0082000Y0145094D01*
X0081963Y0145118D01*
X0081500Y0145211D01*
X0081037Y0145118D01*
X0080859Y0145000D01*
X0041000D01*
Y0149696D01*
X0053316Y0149696D01*
X0053326Y0149685D01*
X0053537Y0149196D01*
X0053382Y0148963D01*
X0053289Y0148500D01*
X0053382Y0148037D01*
X0053644Y0147644D01*
X0054037Y0147381D01*
X0054500Y0147289D01*
X0054963Y0147381D01*
X0055356Y0147644D01*
X0055619Y0148037D01*
X0055711Y0148500D01*
X0055619Y0148963D01*
X0055463Y0149196D01*
X0055674Y0149685D01*
X0055684Y0149696D01*
X0062340Y0149696D01*
X0062408Y0149612D01*
X0062562Y0149196D01*
X0062382Y0148926D01*
X0062289Y0148463D01*
X0062382Y0148000D01*
X0062644Y0147607D01*
X0063037Y0147345D01*
X0063500Y0147252D01*
X0063963Y0147345D01*
X0064356Y0147607D01*
X0064618Y0148000D01*
X0064711Y0148463D01*
X0064618Y0148926D01*
X0064438Y0149196D01*
X0064592Y0149612D01*
X0064660Y0149696D01*
X0082146Y0149697D01*
X0082500Y0149343D01*
D02*
G37*
G36*
X0040000Y0149342D02*
Y0146861D01*
X0039500Y0146594D01*
X0039463Y0146618D01*
X0039000Y0146711D01*
X0038537Y0146618D01*
X0038144Y0146356D01*
X0037881Y0145963D01*
X0037789Y0145500D01*
X0037881Y0145037D01*
X0038144Y0144644D01*
X0038537Y0144381D01*
X0039000Y0144289D01*
X0039463Y0144381D01*
X0039500Y0144406D01*
X0040000Y0144139D01*
Y0144000D01*
X0041085D01*
X0041349Y0143619D01*
X0041380Y0143500D01*
X0041299Y0143094D01*
X0041391Y0142631D01*
X0041653Y0142238D01*
X0042046Y0141975D01*
X0042509Y0141883D01*
X0042973Y0141975D01*
X0043365Y0142238D01*
X0043628Y0142631D01*
X0043720Y0143094D01*
X0043639Y0143500D01*
X0043670Y0143619D01*
X0043933Y0144000D01*
X0046708D01*
X0046859Y0143500D01*
X0046644Y0143356D01*
X0046382Y0142963D01*
X0046289Y0142500D01*
X0046382Y0142037D01*
X0046644Y0141644D01*
X0047037Y0141382D01*
X0047500Y0141289D01*
X0047963Y0141382D01*
X0048356Y0141644D01*
X0048619Y0142037D01*
X0048711Y0142500D01*
X0048619Y0142963D01*
X0048356Y0143356D01*
X0048141Y0143500D01*
X0048292Y0144000D01*
X0053000D01*
Y0136500D01*
X0031500D01*
Y0130063D01*
X0031388Y0129500D01*
X0031500Y0128937D01*
Y0126500D01*
X0032000Y0126000D01*
Y0122000D01*
X0032500Y0121500D01*
X0036906D01*
X0037144Y0121144D01*
X0037537Y0120881D01*
X0038000Y0120789D01*
X0038463Y0120881D01*
X0038856Y0121144D01*
X0039094Y0121500D01*
X0040490D01*
X0040584Y0121386D01*
X0040676Y0120923D01*
X0040938Y0120530D01*
X0041331Y0120267D01*
X0041795Y0120175D01*
X0042258Y0120267D01*
X0042651Y0120530D01*
X0042908Y0120914D01*
X0043120Y0120969D01*
X0043431Y0120963D01*
X0043644Y0120644D01*
X0044037Y0120381D01*
X0044500Y0120289D01*
X0044963Y0120381D01*
X0045356Y0120644D01*
X0045619Y0121037D01*
X0045711Y0121500D01*
X0064000D01*
Y0132000D01*
X0066636D01*
X0066825Y0131749D01*
X0066939Y0131500D01*
X0066863Y0131114D01*
X0066955Y0130651D01*
X0067217Y0130258D01*
X0067610Y0129996D01*
X0068073Y0129904D01*
X0068537Y0129996D01*
X0068929Y0130258D01*
X0069192Y0130651D01*
X0069284Y0131114D01*
X0069207Y0131500D01*
X0069322Y0131749D01*
X0069511Y0132000D01*
X0072639D01*
X0072906Y0131500D01*
X0072882Y0131463D01*
X0072789Y0131000D01*
X0072882Y0130537D01*
X0073144Y0130144D01*
X0073537Y0129882D01*
X0074000Y0129789D01*
X0074463Y0129882D01*
X0074856Y0130144D01*
X0075118Y0130537D01*
X0075211Y0131000D01*
X0075118Y0131463D01*
X0075094Y0131500D01*
X0075361Y0132000D01*
X0079139D01*
X0079406Y0131500D01*
X0079382Y0131463D01*
X0079289Y0131000D01*
X0079382Y0130537D01*
X0079644Y0130144D01*
X0080037Y0129882D01*
X0080500Y0129789D01*
X0080963Y0129882D01*
X0081356Y0130144D01*
X0081618Y0130537D01*
X0081711Y0131000D01*
X0081618Y0131463D01*
X0081594Y0131500D01*
X0081861Y0132000D01*
X0089000D01*
X0093500Y0136500D01*
X0093500Y0139155D01*
X0097612D01*
X0097879Y0138655D01*
X0097664Y0138334D01*
X0097526Y0137637D01*
X0097603Y0137249D01*
X0097273Y0137183D01*
X0096880Y0136920D01*
X0096618Y0136528D01*
X0096526Y0136064D01*
X0096618Y0135601D01*
X0096880Y0135208D01*
X0097273Y0134946D01*
X0097736Y0134854D01*
X0098200Y0134946D01*
X0098592Y0135208D01*
X0098855Y0135601D01*
X0098914Y0135901D01*
X0099348Y0135814D01*
X0100046Y0135953D01*
X0100637Y0136348D01*
X0101032Y0136940D01*
X0101071Y0137137D01*
X0099348D01*
Y0138137D01*
X0101071D01*
X0101032Y0138334D01*
X0100817Y0138655D01*
X0101084Y0139155D01*
X0106289D01*
X0106381Y0138692D01*
X0106644Y0138300D01*
X0107037Y0138037D01*
X0107500Y0137945D01*
X0107963Y0138037D01*
X0108356Y0138300D01*
X0108618Y0138692D01*
X0108711Y0139155D01*
X0109289D01*
X0109381Y0138692D01*
X0109644Y0138300D01*
X0110037Y0138037D01*
X0110500Y0137945D01*
X0110963Y0138037D01*
X0111356Y0138300D01*
X0111618Y0138692D01*
X0111711Y0139155D01*
X0112289D01*
X0112381Y0138692D01*
X0112644Y0138300D01*
X0113037Y0138037D01*
X0113500Y0137945D01*
X0113963Y0138037D01*
X0114356Y0138300D01*
X0114619Y0138692D01*
X0114683Y0139019D01*
X0115193D01*
X0115257Y0138701D01*
X0115519Y0138308D01*
X0115912Y0138046D01*
X0116375Y0137953D01*
X0116838Y0138046D01*
X0117231Y0138308D01*
X0117494Y0138701D01*
X0117584Y0139155D01*
X0122344D01*
X0122381Y0138967D01*
X0122644Y0138574D01*
X0123037Y0138311D01*
X0123500Y0138219D01*
X0123963Y0138311D01*
X0124356Y0138574D01*
X0124618Y0138967D01*
X0124656Y0139155D01*
X0131344D01*
X0132044Y0138456D01*
X0132292Y0137857D01*
X0132735Y0137280D01*
X0133312Y0136837D01*
X0133911Y0136589D01*
X0137000Y0133500D01*
X0137026D01*
X0137292Y0132857D01*
X0137735Y0132280D01*
X0138312Y0131837D01*
X0138984Y0131559D01*
X0139705Y0131464D01*
X0140426Y0131559D01*
X0141098Y0131837D01*
X0141675Y0132280D01*
X0142118Y0132857D01*
X0142384Y0133500D01*
X0145792D01*
X0145803Y0133486D01*
X0145895Y0133023D01*
X0146158Y0132630D01*
X0146550Y0132368D01*
X0146551Y0132368D01*
X0146881Y0131963D01*
X0146789Y0131500D01*
X0146881Y0131037D01*
X0147144Y0130644D01*
X0147537Y0130382D01*
X0148000Y0130289D01*
X0148463Y0130382D01*
X0148856Y0130644D01*
X0149118Y0131037D01*
X0149211Y0131500D01*
X0149118Y0131963D01*
X0148884Y0132314D01*
X0148914Y0132486D01*
X0149062Y0132820D01*
X0149431Y0132894D01*
X0149823Y0133156D01*
X0149930Y0133317D01*
X0150270Y0133306D01*
X0150325Y0133258D01*
X0150610Y0132852D01*
X0150545Y0132527D01*
X0150637Y0132063D01*
X0150899Y0131670D01*
X0151292Y0131408D01*
X0151755Y0131316D01*
X0152219Y0131408D01*
X0152612Y0131670D01*
X0152874Y0132063D01*
X0152966Y0132527D01*
X0152874Y0132990D01*
X0152867Y0133000D01*
X0153134Y0133500D01*
X0156569D01*
X0156746Y0133381D01*
X0157209Y0133289D01*
X0157673Y0133381D01*
X0157850Y0133500D01*
X0159273D01*
X0159365Y0133037D01*
X0159628Y0132644D01*
X0160021Y0132381D01*
X0160252Y0132335D01*
X0160711Y0132078D01*
X0160803Y0131615D01*
X0161066Y0131222D01*
X0161459Y0130960D01*
X0161922Y0130868D01*
X0162385Y0130960D01*
X0162778Y0131222D01*
X0163040Y0131615D01*
X0163133Y0132078D01*
X0163040Y0132542D01*
X0162778Y0132934D01*
X0162680Y0133000D01*
X0162831Y0133500D01*
X0174876Y0133500D01*
X0174959Y0133237D01*
X0174959Y0133000D01*
X0174628Y0132779D01*
X0174366Y0132386D01*
X0174274Y0131923D01*
X0174366Y0131459D01*
X0174581Y0131137D01*
X0174556Y0130844D01*
X0174468Y0130572D01*
X0174144Y0130356D01*
X0173881Y0129963D01*
X0173789Y0129500D01*
X0173881Y0129037D01*
X0174144Y0128644D01*
X0174537Y0128382D01*
X0175000Y0128289D01*
X0175463Y0128382D01*
X0175856Y0128644D01*
X0176119Y0129037D01*
X0176211Y0129500D01*
X0176119Y0129963D01*
X0175903Y0130286D01*
X0175928Y0130578D01*
X0176016Y0130850D01*
X0176340Y0131067D01*
X0176603Y0131459D01*
X0176695Y0131923D01*
X0176603Y0132386D01*
X0176340Y0132779D01*
X0176009Y0133000D01*
X0176010Y0133237D01*
X0176093Y0133500D01*
X0189906D01*
X0190144Y0133144D01*
X0190537Y0132881D01*
X0191000Y0132789D01*
X0191463Y0132881D01*
X0191856Y0133144D01*
X0192094Y0133500D01*
X0193000D01*
Y0130000D01*
X0183000D01*
Y0129933D01*
X0182694Y0129806D01*
X0182567Y0129500D01*
Y0128658D01*
X0182573Y0128644D01*
X0182568Y0128630D01*
X0182635Y0128493D01*
X0182694Y0128352D01*
X0182708Y0128346D01*
X0182714Y0128332D01*
X0182767Y0128286D01*
Y0127618D01*
X0182309Y0127429D01*
X0181609Y0126891D01*
X0181071Y0126191D01*
X0180814Y0125570D01*
X0180659Y0125498D01*
X0180327Y0125425D01*
X0180237Y0125435D01*
X0179963Y0125619D01*
X0179500Y0125711D01*
X0179037Y0125619D01*
X0178644Y0125356D01*
X0178382Y0124963D01*
X0178289Y0124500D01*
X0178382Y0124037D01*
X0178644Y0123644D01*
X0179037Y0123381D01*
X0179500Y0123289D01*
X0179963Y0123381D01*
X0180237Y0123565D01*
X0180327Y0123575D01*
X0180659Y0123502D01*
X0180814Y0123430D01*
X0181071Y0122809D01*
X0181609Y0122109D01*
X0182309Y0121571D01*
X0182767Y0121382D01*
Y0120714D01*
X0182714Y0120668D01*
X0182708Y0120654D01*
X0182694Y0120648D01*
X0182635Y0120507D01*
X0182568Y0120370D01*
X0182573Y0120356D01*
X0182567Y0120342D01*
Y0118801D01*
X0182067Y0118801D01*
X0175556D01*
X0175447Y0119272D01*
X0176129Y0119554D01*
X0176714Y0120003D01*
X0176954Y0120317D01*
X0177555Y0120278D01*
X0177644Y0120144D01*
X0178037Y0119881D01*
X0178500Y0119789D01*
X0178963Y0119881D01*
X0179356Y0120144D01*
X0179619Y0120537D01*
X0179711Y0121000D01*
X0179619Y0121463D01*
X0179356Y0121856D01*
X0178963Y0122118D01*
X0178500Y0122211D01*
X0178037Y0122118D01*
X0178030Y0122114D01*
X0177494Y0122357D01*
X0177445Y0122731D01*
X0177162Y0123412D01*
X0176714Y0123997D01*
X0176129Y0124446D01*
X0175447Y0124728D01*
X0174716Y0124824D01*
X0173986Y0124728D01*
X0173304Y0124446D01*
X0172720Y0123997D01*
X0172271Y0123412D01*
X0172024Y0122815D01*
X0171764Y0122770D01*
X0171504Y0122815D01*
X0171257Y0123412D01*
X0170982Y0123771D01*
X0171000Y0123801D01*
Y0125500D01*
X0169777D01*
X0169816Y0125303D01*
X0169952Y0125099D01*
X0169621Y0124695D01*
X0169542Y0124728D01*
X0168811Y0124824D01*
X0168080Y0124728D01*
X0167399Y0124446D01*
X0166814Y0123997D01*
X0166365Y0123412D01*
X0166118Y0122815D01*
X0165858Y0122770D01*
X0165598Y0122815D01*
X0165351Y0123412D01*
X0164902Y0123997D01*
X0164318Y0124446D01*
X0163637Y0124728D01*
X0162906Y0124824D01*
X0162175Y0124728D01*
X0162160Y0124722D01*
X0161665Y0125058D01*
X0161618Y0125293D01*
X0161356Y0125686D01*
X0160963Y0125948D01*
X0160500Y0126041D01*
X0160037Y0125948D01*
X0159644Y0125686D01*
X0159381Y0125293D01*
X0159289Y0124830D01*
X0159381Y0124367D01*
X0159644Y0123974D01*
X0160037Y0123711D01*
X0160060Y0123707D01*
X0160107Y0123673D01*
X0160287Y0123272D01*
X0160155Y0123003D01*
X0159607Y0123023D01*
X0159446Y0123412D01*
X0158997Y0123997D01*
X0158412Y0124446D01*
X0157731Y0124728D01*
X0157000Y0124824D01*
X0156269Y0124728D01*
X0155588Y0124446D01*
X0155560Y0124424D01*
X0154991Y0124618D01*
X0154813Y0124886D01*
X0154420Y0125148D01*
X0153957Y0125241D01*
X0153493Y0125148D01*
X0153101Y0124886D01*
X0153052Y0124813D01*
X0152809Y0124773D01*
X0151982Y0125116D01*
X0151594Y0125167D01*
Y0121803D01*
X0151094D01*
Y0121303D01*
X0147731D01*
X0147782Y0120916D01*
X0148125Y0120089D01*
X0148670Y0119378D01*
X0148770Y0119301D01*
X0148600Y0118801D01*
X0126110Y0118801D01*
X0126060Y0119301D01*
X0126463Y0119381D01*
X0126856Y0119644D01*
X0127119Y0120037D01*
X0127211Y0120500D01*
X0127119Y0120963D01*
X0126856Y0121356D01*
X0126463Y0121618D01*
X0126000Y0121711D01*
X0125537Y0121618D01*
X0125144Y0121356D01*
X0124881Y0120963D01*
X0124789Y0120500D01*
X0124881Y0120037D01*
X0125144Y0119644D01*
X0125537Y0119381D01*
X0125940Y0119301D01*
X0125890Y0118801D01*
X0023304Y0118801D01*
X0023302Y0149342D01*
X0023655Y0149696D01*
X0039646Y0149696D01*
X0040000Y0149342D01*
D02*
G37*
G36*
X0082500Y0139292D02*
X0082000Y0139141D01*
X0081856Y0139356D01*
X0081463Y0139619D01*
X0081000Y0139711D01*
X0080537Y0139619D01*
X0080144Y0139356D01*
X0079906Y0139000D01*
X0076641D01*
X0076463Y0139119D01*
X0076000Y0139211D01*
X0075537Y0139119D01*
X0075359Y0139000D01*
X0060678D01*
X0060268Y0139500D01*
X0060273Y0139523D01*
X0060180Y0139986D01*
X0059918Y0140378D01*
X0059525Y0140641D01*
X0059062Y0140733D01*
X0058599Y0140641D01*
X0058206Y0140378D01*
X0057943Y0139986D01*
X0057851Y0139523D01*
X0057943Y0139059D01*
X0058206Y0138666D01*
X0058599Y0138404D01*
X0059062Y0138312D01*
X0059173Y0138334D01*
X0059673Y0137947D01*
Y0130218D01*
X0059401Y0130164D01*
X0059009Y0129902D01*
X0058746Y0129509D01*
X0058654Y0129046D01*
X0058746Y0128582D01*
X0059009Y0128190D01*
X0059401Y0127927D01*
X0059673Y0127873D01*
Y0127000D01*
X0057711D01*
X0057618Y0127463D01*
X0057356Y0127856D01*
X0056963Y0128119D01*
X0056500Y0128211D01*
X0056037Y0128119D01*
X0055644Y0127856D01*
X0055382Y0127463D01*
X0055289Y0127000D01*
X0032500D01*
Y0127593D01*
X0032886Y0127910D01*
X0033000Y0127888D01*
X0033617Y0128011D01*
X0034140Y0128360D01*
X0034489Y0128883D01*
X0034612Y0129500D01*
X0034489Y0130117D01*
X0034140Y0130640D01*
X0033617Y0130989D01*
X0033000Y0131112D01*
X0032886Y0131089D01*
X0032500Y0131407D01*
Y0135957D01*
X0042610D01*
X0042882Y0135463D01*
X0042789Y0135000D01*
X0042882Y0134537D01*
X0043144Y0134144D01*
X0043537Y0133881D01*
X0044000Y0133789D01*
X0044463Y0133881D01*
X0044856Y0134144D01*
X0045118Y0134537D01*
X0045211Y0135000D01*
X0045118Y0135463D01*
X0045390Y0135957D01*
X0054000D01*
Y0137598D01*
X0054500Y0137749D01*
X0054631Y0137553D01*
X0055024Y0137291D01*
X0055487Y0137199D01*
X0055950Y0137291D01*
X0056343Y0137553D01*
X0056605Y0137946D01*
X0056698Y0138409D01*
X0056605Y0138873D01*
X0056343Y0139266D01*
X0055950Y0139528D01*
X0055487Y0139620D01*
X0055024Y0139528D01*
X0054631Y0139266D01*
X0054500Y0139069D01*
X0054000Y0139221D01*
Y0144000D01*
X0082500D01*
Y0139292D01*
D02*
G37*
G36*
X0097479Y0144000D02*
X0097555Y0143617D01*
X0097818Y0143224D01*
X0098210Y0142962D01*
X0098674Y0142870D01*
X0099137Y0142962D01*
X0099530Y0143224D01*
X0099792Y0143617D01*
X0099868Y0144000D01*
X0103359D01*
X0103537Y0143881D01*
X0104000Y0143789D01*
X0104463Y0143881D01*
X0104641Y0144000D01*
X0119756Y0144000D01*
X0119917Y0143759D01*
X0120310Y0143496D01*
X0120773Y0143404D01*
X0121237Y0143496D01*
X0121629Y0143759D01*
X0121790Y0144000D01*
X0126789D01*
X0126882Y0143537D01*
X0127144Y0143144D01*
X0127537Y0142882D01*
X0128000Y0142789D01*
X0128463Y0142882D01*
X0128856Y0143144D01*
X0129119Y0143537D01*
X0129211Y0144000D01*
X0135110D01*
X0135294Y0143877D01*
X0135757Y0143785D01*
X0136221Y0143877D01*
X0136404Y0144000D01*
X0141152D01*
X0141309Y0143808D01*
X0141401Y0143345D01*
X0141664Y0142953D01*
X0142057Y0142690D01*
X0142520Y0142598D01*
X0142983Y0142690D01*
X0143186Y0142826D01*
X0143708Y0142659D01*
X0143734Y0142636D01*
X0143786Y0142374D01*
X0144305Y0141596D01*
X0144450Y0141500D01*
X0145083Y0141077D01*
X0146000Y0140894D01*
X0146917Y0141077D01*
X0147695Y0141596D01*
X0148214Y0142374D01*
X0148397Y0143291D01*
X0148333Y0143614D01*
X0148650Y0144000D01*
X0149500D01*
Y0141500D01*
X0160774D01*
X0160811Y0141317D01*
X0161206Y0140726D01*
X0161797Y0140331D01*
X0161995Y0140291D01*
Y0142014D01*
X0162995D01*
Y0140291D01*
X0163192Y0140331D01*
X0163361Y0140444D01*
X0163533Y0140348D01*
X0163767Y0140113D01*
X0163603Y0139291D01*
X0163786Y0138374D01*
X0164305Y0137596D01*
X0165083Y0137077D01*
X0166000Y0136895D01*
X0166917Y0137077D01*
X0167695Y0137596D01*
X0168214Y0138374D01*
X0168397Y0139291D01*
X0168214Y0140209D01*
X0167695Y0140986D01*
X0167642Y0141022D01*
X0167787Y0141500D01*
X0172699Y0141500D01*
X0172773Y0141130D01*
X0173036Y0140737D01*
X0173428Y0140475D01*
X0173892Y0140383D01*
X0174355Y0140475D01*
X0174748Y0140737D01*
X0175010Y0141130D01*
X0175084Y0141500D01*
X0184139D01*
X0184406Y0141000D01*
X0184381Y0140963D01*
X0184289Y0140500D01*
X0184381Y0140037D01*
X0184644Y0139644D01*
X0185037Y0139382D01*
X0185500Y0139289D01*
X0185963Y0139382D01*
X0186356Y0139644D01*
X0186618Y0140037D01*
X0186711Y0140500D01*
X0186618Y0140963D01*
X0186594Y0141000D01*
X0186861Y0141500D01*
X0192850D01*
Y0134354D01*
X0192683Y0134186D01*
X0192141Y0134348D01*
X0192119Y0134463D01*
X0191856Y0134856D01*
X0191463Y0135118D01*
X0191000Y0135211D01*
X0190537Y0135118D01*
X0190144Y0134856D01*
X0189882Y0134463D01*
X0189789Y0134000D01*
X0189289Y0134000D01*
X0186861D01*
X0186594Y0134500D01*
X0186618Y0134537D01*
X0186711Y0135000D01*
X0186618Y0135463D01*
X0186356Y0135856D01*
X0185963Y0136118D01*
X0185500Y0136211D01*
X0185037Y0136118D01*
X0184644Y0135856D01*
X0184381Y0135463D01*
X0184289Y0135000D01*
X0184381Y0134537D01*
X0184406Y0134500D01*
X0184139Y0134000D01*
X0162292Y0134000D01*
X0162141Y0134500D01*
X0162356Y0134644D01*
X0162619Y0135037D01*
X0162711Y0135500D01*
X0162619Y0135963D01*
X0162356Y0136356D01*
X0161963Y0136618D01*
X0161500Y0136711D01*
X0161037Y0136618D01*
X0160644Y0136356D01*
X0160381Y0135963D01*
X0160289Y0135500D01*
X0160381Y0135037D01*
X0160055Y0134625D01*
X0160021Y0134618D01*
X0159628Y0134356D01*
X0159390Y0134000D01*
X0158830D01*
X0158420Y0134500D01*
X0158328Y0134963D01*
X0158065Y0135356D01*
X0157673Y0135618D01*
X0157209Y0135711D01*
X0156746Y0135618D01*
X0156353Y0135356D01*
X0156091Y0134963D01*
X0155999Y0134500D01*
X0155588Y0134000D01*
X0150188Y0134000D01*
X0150178Y0134012D01*
X0150086Y0134475D01*
X0149823Y0134868D01*
X0149431Y0135131D01*
X0148967Y0135223D01*
X0148504Y0135131D01*
X0148111Y0134868D01*
X0147849Y0134475D01*
X0147739Y0134430D01*
X0147477Y0134605D01*
X0147014Y0134697D01*
X0146550Y0134605D01*
X0146158Y0134343D01*
X0145929Y0134000D01*
X0143000D01*
Y0136024D01*
X0143463Y0136156D01*
X0143500Y0136149D01*
X0143749Y0135776D01*
X0144142Y0135514D01*
X0144605Y0135422D01*
X0145068Y0135514D01*
X0145461Y0135776D01*
X0145724Y0136169D01*
X0145816Y0136632D01*
X0145724Y0137096D01*
X0145461Y0137488D01*
X0145068Y0137751D01*
X0144605Y0137843D01*
X0144142Y0137751D01*
X0143749Y0137488D01*
X0143500Y0137116D01*
X0143463Y0137108D01*
X0143000Y0137240D01*
Y0137449D01*
X0137363Y0137449D01*
X0137156Y0137949D01*
X0137396Y0138529D01*
X0137491Y0139250D01*
X0137396Y0139971D01*
X0137118Y0140643D01*
X0136675Y0141220D01*
X0136098Y0141663D01*
X0135426Y0141941D01*
X0134705Y0142036D01*
X0133984Y0141941D01*
X0133442Y0142258D01*
X0133421Y0142361D01*
X0133159Y0142754D01*
X0132766Y0143016D01*
X0132303Y0143108D01*
X0131840Y0143016D01*
X0131447Y0142754D01*
X0131184Y0142361D01*
X0131092Y0141898D01*
X0131184Y0141434D01*
X0131447Y0141042D01*
X0131840Y0140779D01*
X0131926Y0140601D01*
X0131828Y0140364D01*
X0131500Y0140000D01*
X0124547D01*
X0124356Y0140286D01*
X0123963Y0140548D01*
X0123500Y0140641D01*
X0123037Y0140548D01*
X0122644Y0140286D01*
X0122453Y0140000D01*
X0117245D01*
X0117231Y0140020D01*
X0116838Y0140283D01*
X0116375Y0140375D01*
X0115912Y0140283D01*
X0115519Y0140020D01*
X0115506Y0140000D01*
X0114364D01*
X0114356Y0140012D01*
X0113963Y0140274D01*
X0113500Y0140366D01*
X0113037Y0140274D01*
X0112644Y0140012D01*
X0112636Y0140000D01*
X0111364D01*
X0111356Y0140012D01*
X0110963Y0140274D01*
X0110500Y0140366D01*
X0110037Y0140274D01*
X0109644Y0140012D01*
X0109636Y0140000D01*
X0108364D01*
X0108356Y0140012D01*
X0107963Y0140274D01*
X0107500Y0140366D01*
X0107037Y0140274D01*
X0106644Y0140012D01*
X0106636Y0140000D01*
X0100971D01*
X0100654Y0140386D01*
X0100659Y0140412D01*
X0100566Y0140875D01*
X0100304Y0141268D01*
X0099911Y0141530D01*
X0099448Y0141622D01*
X0098985Y0141530D01*
X0098592Y0141268D01*
X0098329Y0140875D01*
X0098237Y0140412D01*
X0098242Y0140386D01*
X0097925Y0140000D01*
X0097275D01*
X0097130Y0140385D01*
X0097107Y0140500D01*
X0097356Y0140873D01*
X0097449Y0141337D01*
X0097356Y0141800D01*
X0097094Y0142193D01*
X0096701Y0142455D01*
X0096238Y0142547D01*
X0095775Y0142455D01*
X0095382Y0142193D01*
X0095120Y0141800D01*
X0095027Y0141337D01*
X0095120Y0140873D01*
X0095369Y0140500D01*
X0095346Y0140385D01*
X0095201Y0140000D01*
X0092500D01*
X0092500Y0137000D01*
X0090311Y0134811D01*
X0089856Y0134856D01*
X0089463Y0135118D01*
X0089000Y0135211D01*
X0088537Y0135118D01*
X0088144Y0134856D01*
X0087881Y0134463D01*
X0087789Y0134000D01*
X0087379Y0133500D01*
X0086687D01*
X0086619Y0133843D01*
X0086356Y0134236D01*
X0085963Y0134499D01*
X0085500Y0134591D01*
X0085037Y0134499D01*
X0084644Y0134236D01*
X0084382Y0133843D01*
X0084313Y0133500D01*
X0075121D01*
X0074711Y0134000D01*
X0074619Y0134463D01*
X0074356Y0134856D01*
X0073963Y0135118D01*
X0073500Y0135211D01*
X0073037Y0135118D01*
X0072644Y0134856D01*
X0072382Y0134463D01*
X0072289Y0134000D01*
X0071879Y0133500D01*
X0064000D01*
X0063000Y0132500D01*
Y0122000D01*
X0061722D01*
X0061441Y0122443D01*
X0061437Y0122500D01*
X0061522Y0122925D01*
X0061430Y0123389D01*
X0061167Y0123781D01*
X0060774Y0124044D01*
X0060311Y0124136D01*
X0060141Y0124102D01*
X0059712Y0124499D01*
X0059709Y0124507D01*
X0059619Y0124963D01*
X0059356Y0125356D01*
X0058963Y0125619D01*
X0058500Y0125711D01*
X0058037Y0125619D01*
X0057644Y0125356D01*
X0057381Y0124963D01*
X0057289Y0124500D01*
X0057381Y0124037D01*
X0057644Y0123644D01*
X0058037Y0123381D01*
X0058500Y0123289D01*
X0058670Y0123323D01*
X0059099Y0122926D01*
X0059101Y0122920D01*
X0059104Y0122905D01*
X0059174Y0122433D01*
X0058900Y0122000D01*
X0045594D01*
X0045356Y0122356D01*
X0044963Y0122618D01*
X0044500Y0122711D01*
X0044037Y0122618D01*
X0043644Y0122356D01*
X0043406Y0122000D01*
X0042812D01*
X0042651Y0122242D01*
X0042258Y0122504D01*
X0041795Y0122596D01*
X0041331Y0122504D01*
X0040938Y0122242D01*
X0040777Y0122000D01*
X0039211D01*
X0039118Y0122463D01*
X0038856Y0122856D01*
X0038463Y0123118D01*
X0038000Y0123211D01*
X0037537Y0123118D01*
X0037144Y0122856D01*
X0036882Y0122463D01*
X0036789Y0122000D01*
X0033000D01*
Y0126500D01*
X0055406D01*
X0055644Y0126144D01*
X0056037Y0125882D01*
X0056500Y0125789D01*
X0056963Y0125882D01*
X0057356Y0126144D01*
X0057594Y0126500D01*
X0060500D01*
Y0128042D01*
X0060721Y0128190D01*
X0060983Y0128582D01*
X0061075Y0129046D01*
X0060983Y0129509D01*
X0060721Y0129902D01*
X0060500Y0130049D01*
Y0138500D01*
X0074379D01*
X0074789Y0138000D01*
X0074882Y0137537D01*
X0075144Y0137144D01*
X0075537Y0136881D01*
X0076000Y0136789D01*
X0076289Y0136500D01*
X0076381Y0136037D01*
X0076644Y0135644D01*
X0077037Y0135381D01*
X0077500Y0135289D01*
X0077963Y0135381D01*
X0078237Y0135564D01*
X0078394Y0135631D01*
X0078848Y0135481D01*
X0078932Y0135356D01*
X0079325Y0135093D01*
X0079788Y0135001D01*
X0080252Y0135093D01*
X0080644Y0135356D01*
X0080907Y0135748D01*
X0081434Y0135837D01*
X0081483Y0135764D01*
X0081875Y0135501D01*
X0082339Y0135409D01*
X0082802Y0135501D01*
X0083195Y0135764D01*
X0083457Y0136157D01*
X0083549Y0136620D01*
X0083457Y0137083D01*
X0083195Y0137476D01*
X0082802Y0137738D01*
X0082718Y0137755D01*
X0082534Y0138083D01*
X0082527Y0138364D01*
X0082619Y0138500D01*
X0083500D01*
Y0140000D01*
X0089000D01*
Y0144000D01*
X0097479D01*
D02*
G37*
%LPC*%
G36*
X0098248Y0148896D02*
X0097785Y0148803D01*
X0097392Y0148541D01*
X0097129Y0148148D01*
X0097037Y0147685D01*
X0097129Y0147222D01*
X0097392Y0146829D01*
X0097785Y0146566D01*
X0098248Y0146474D01*
X0098711Y0146566D01*
X0099104Y0146829D01*
X0099366Y0147222D01*
X0099458Y0147685D01*
X0099366Y0148148D01*
X0099104Y0148541D01*
X0098711Y0148803D01*
X0098248Y0148896D01*
D02*
G37*
G36*
X0141500Y0148600D02*
X0141037Y0148508D01*
X0140644Y0148245D01*
X0140382Y0147853D01*
X0140289Y0147389D01*
X0140382Y0146926D01*
X0140644Y0146533D01*
X0141037Y0146271D01*
X0141500Y0146179D01*
X0141963Y0146271D01*
X0142356Y0146533D01*
X0142619Y0146926D01*
X0142711Y0147389D01*
X0142619Y0147853D01*
X0142356Y0148245D01*
X0141963Y0148508D01*
X0141500Y0148600D01*
D02*
G37*
G36*
X0111613Y0148240D02*
X0111149Y0148148D01*
X0110757Y0147885D01*
X0110494Y0147492D01*
X0110402Y0147029D01*
X0110494Y0146566D01*
X0110757Y0146173D01*
X0111149Y0145911D01*
X0111613Y0145818D01*
X0112076Y0145911D01*
X0112469Y0146173D01*
X0112731Y0146566D01*
X0112823Y0147029D01*
X0112731Y0147492D01*
X0112469Y0147885D01*
X0112076Y0148148D01*
X0111613Y0148240D01*
D02*
G37*
G36*
X0129055Y0148138D02*
X0128591Y0148046D01*
X0128199Y0147784D01*
X0127936Y0147391D01*
X0127844Y0146928D01*
X0127936Y0146464D01*
X0128199Y0146072D01*
X0128591Y0145809D01*
X0129055Y0145717D01*
X0129518Y0145809D01*
X0129911Y0146072D01*
X0130173Y0146464D01*
X0130265Y0146928D01*
X0130173Y0147391D01*
X0129911Y0147784D01*
X0129518Y0148046D01*
X0129055Y0148138D01*
D02*
G37*
G36*
X0196732Y0135211D02*
X0196269Y0135118D01*
X0195876Y0134856D01*
X0195613Y0134463D01*
X0195521Y0134000D01*
X0195613Y0133537D01*
X0195876Y0133144D01*
X0196269Y0132881D01*
X0196732Y0132789D01*
X0197195Y0132881D01*
X0197588Y0133144D01*
X0197850Y0133537D01*
X0197943Y0134000D01*
X0197850Y0134463D01*
X0197588Y0134856D01*
X0197195Y0135118D01*
X0196732Y0135211D01*
D02*
G37*
G36*
X0184800Y0128180D02*
Y0125300D01*
X0187680D01*
X0187656Y0125480D01*
X0187278Y0126393D01*
X0186677Y0127176D01*
X0185893Y0127778D01*
X0184980Y0128156D01*
X0184800Y0128180D01*
D02*
G37*
G36*
X0197353Y0127853D02*
X0190647D01*
Y0121147D01*
X0197353D01*
Y0127853D01*
D02*
G37*
G36*
X0187680Y0123700D02*
X0184800D01*
Y0120820D01*
X0184980Y0120844D01*
X0185893Y0121222D01*
X0186677Y0121824D01*
X0187278Y0122607D01*
X0187656Y0123520D01*
X0187680Y0123700D01*
D02*
G37*
G36*
X0026000Y0146711D02*
X0025537Y0146618D01*
X0025144Y0146356D01*
X0024882Y0145963D01*
X0024789Y0145500D01*
X0024882Y0145037D01*
X0025144Y0144644D01*
X0025537Y0144381D01*
X0026000Y0144289D01*
X0026463Y0144381D01*
X0026856Y0144644D01*
X0027119Y0145037D01*
X0027211Y0145500D01*
X0027119Y0145963D01*
X0026856Y0146356D01*
X0026463Y0146618D01*
X0026000Y0146711D01*
D02*
G37*
G36*
X0125000Y0137711D02*
X0124537Y0137619D01*
X0124144Y0137356D01*
X0123881Y0136963D01*
X0123858Y0136846D01*
X0123652Y0136495D01*
X0123315Y0136483D01*
X0123147Y0136516D01*
X0122684Y0136424D01*
X0122291Y0136162D01*
X0122029Y0135769D01*
X0121936Y0135306D01*
X0122029Y0134842D01*
X0122291Y0134449D01*
X0122684Y0134187D01*
X0123147Y0134095D01*
X0123610Y0134187D01*
X0124003Y0134449D01*
X0124266Y0134842D01*
X0124289Y0134960D01*
X0124495Y0135310D01*
X0124832Y0135323D01*
X0125000Y0135289D01*
X0125463Y0135381D01*
X0125856Y0135644D01*
X0126119Y0136037D01*
X0126211Y0136500D01*
X0126119Y0136963D01*
X0125856Y0137356D01*
X0125463Y0137619D01*
X0125000Y0137711D01*
D02*
G37*
G36*
X0116500Y0135711D02*
X0116037Y0135618D01*
X0115644Y0135356D01*
X0115382Y0134963D01*
X0115289Y0134500D01*
X0115382Y0134037D01*
X0115644Y0133644D01*
X0116037Y0133381D01*
X0116500Y0133289D01*
X0116963Y0133381D01*
X0117356Y0133644D01*
X0117619Y0134037D01*
X0117711Y0134500D01*
X0117619Y0134963D01*
X0117356Y0135356D01*
X0116963Y0135618D01*
X0116500Y0135711D01*
D02*
G37*
G36*
X0113500D02*
X0113037Y0135618D01*
X0112644Y0135356D01*
X0112381Y0134963D01*
X0112289Y0134500D01*
X0112381Y0134037D01*
X0112644Y0133644D01*
X0113037Y0133381D01*
X0113500Y0133289D01*
X0113963Y0133381D01*
X0114356Y0133644D01*
X0114619Y0134037D01*
X0114711Y0134500D01*
X0114619Y0134963D01*
X0114356Y0135356D01*
X0113963Y0135618D01*
X0113500Y0135711D01*
D02*
G37*
G36*
X0110500D02*
X0110037Y0135618D01*
X0109644Y0135356D01*
X0109381Y0134963D01*
X0109289Y0134500D01*
X0109381Y0134037D01*
X0109644Y0133644D01*
X0110037Y0133381D01*
X0110500Y0133289D01*
X0110963Y0133381D01*
X0111356Y0133644D01*
X0111618Y0134037D01*
X0111711Y0134500D01*
X0111618Y0134963D01*
X0111356Y0135356D01*
X0110963Y0135618D01*
X0110500Y0135711D01*
D02*
G37*
G36*
X0107500Y0135366D02*
X0107037Y0135274D01*
X0106644Y0135012D01*
X0106381Y0134619D01*
X0106289Y0134155D01*
X0106381Y0133692D01*
X0106644Y0133300D01*
X0107037Y0133037D01*
X0107500Y0132945D01*
X0107963Y0133037D01*
X0108356Y0133300D01*
X0108618Y0133692D01*
X0108711Y0134155D01*
X0108618Y0134619D01*
X0108356Y0135012D01*
X0107963Y0135274D01*
X0107500Y0135366D01*
D02*
G37*
G36*
X0129705Y0137036D02*
X0128984Y0136941D01*
X0128312Y0136663D01*
X0127735Y0136220D01*
X0127292Y0135643D01*
X0127014Y0134971D01*
X0126919Y0134250D01*
X0127014Y0133529D01*
X0127292Y0132857D01*
X0127735Y0132280D01*
X0128312Y0131837D01*
X0128984Y0131559D01*
X0129705Y0131464D01*
X0130426Y0131559D01*
X0131098Y0131837D01*
X0131675Y0132280D01*
X0132117Y0132857D01*
X0132396Y0133529D01*
X0132491Y0134250D01*
X0132396Y0134971D01*
X0132117Y0135643D01*
X0131675Y0136220D01*
X0131098Y0136663D01*
X0130426Y0136941D01*
X0129705Y0137036D01*
D02*
G37*
G36*
X0123000Y0132711D02*
X0122537Y0132618D01*
X0122144Y0132356D01*
X0121881Y0131963D01*
X0121789Y0131500D01*
X0121881Y0131037D01*
X0122144Y0130644D01*
X0122537Y0130382D01*
X0123000Y0130289D01*
X0123463Y0130382D01*
X0123856Y0130644D01*
X0124118Y0131037D01*
X0124211Y0131500D01*
X0124118Y0131963D01*
X0123856Y0132356D01*
X0123463Y0132618D01*
X0123000Y0132711D01*
D02*
G37*
G36*
X0116375Y0130875D02*
X0115912Y0130783D01*
X0115519Y0130520D01*
X0115257Y0130127D01*
X0115192Y0129801D01*
X0114682D01*
X0114619Y0130119D01*
X0114356Y0130512D01*
X0113963Y0130774D01*
X0113500Y0130866D01*
X0113037Y0130774D01*
X0112644Y0130512D01*
X0112381Y0130119D01*
X0112289Y0129656D01*
X0112381Y0129192D01*
X0112644Y0128799D01*
X0113037Y0128537D01*
X0113500Y0128445D01*
X0113963Y0128537D01*
X0114356Y0128799D01*
X0114619Y0129192D01*
X0114683Y0129519D01*
X0115193D01*
X0115257Y0129201D01*
X0115519Y0128808D01*
X0115912Y0128546D01*
X0116375Y0128453D01*
X0116838Y0128546D01*
X0117231Y0128808D01*
X0117494Y0129201D01*
X0117586Y0129664D01*
X0117494Y0130127D01*
X0117231Y0130520D01*
X0116838Y0130783D01*
X0116375Y0130875D01*
D02*
G37*
G36*
X0155311Y0131476D02*
X0154886Y0131392D01*
X0154526Y0131151D01*
X0154285Y0130791D01*
X0154201Y0130366D01*
X0154285Y0129941D01*
X0154526Y0129581D01*
X0154886Y0129340D01*
X0155311Y0129256D01*
X0155736Y0129340D01*
X0156096Y0129581D01*
X0156337Y0129941D01*
X0156421Y0130366D01*
X0156337Y0130791D01*
X0156096Y0131151D01*
X0155736Y0131392D01*
X0155311Y0131476D01*
D02*
G37*
G36*
X0110500Y0130866D02*
X0110037Y0130774D01*
X0109644Y0130512D01*
X0109381Y0130119D01*
X0109289Y0129656D01*
X0109381Y0129192D01*
X0109644Y0128799D01*
X0110037Y0128537D01*
X0110500Y0128445D01*
X0110963Y0128537D01*
X0111356Y0128799D01*
X0111618Y0129192D01*
X0111711Y0129656D01*
X0111618Y0130119D01*
X0111356Y0130512D01*
X0110963Y0130774D01*
X0110500Y0130866D01*
D02*
G37*
G36*
X0107500D02*
X0107037Y0130774D01*
X0106644Y0130512D01*
X0106381Y0130119D01*
X0106289Y0129656D01*
X0106381Y0129192D01*
X0106644Y0128799D01*
X0107037Y0128537D01*
X0107500Y0128445D01*
X0107963Y0128537D01*
X0108356Y0128799D01*
X0108618Y0129192D01*
X0108711Y0129656D01*
X0108618Y0130119D01*
X0108356Y0130512D01*
X0107963Y0130774D01*
X0107500Y0130866D01*
D02*
G37*
G36*
X0127000Y0130711D02*
X0126537Y0130619D01*
X0126144Y0130356D01*
X0125882Y0129963D01*
X0125789Y0129500D01*
X0125882Y0129037D01*
X0126144Y0128644D01*
X0126537Y0128382D01*
X0127000Y0128289D01*
X0127463Y0128382D01*
X0127856Y0128644D01*
X0128119Y0129037D01*
X0128211Y0129500D01*
X0128119Y0129963D01*
X0127856Y0130356D01*
X0127463Y0130619D01*
X0127000Y0130711D01*
D02*
G37*
G36*
X0172000Y0127723D02*
Y0126500D01*
X0173223D01*
X0173184Y0126697D01*
X0172789Y0127289D01*
X0172197Y0127684D01*
X0172000Y0127723D01*
D02*
G37*
G36*
X0171000D02*
X0170803Y0127684D01*
X0170211Y0127289D01*
X0169816Y0126697D01*
X0169777Y0126500D01*
X0171000D01*
Y0127723D01*
D02*
G37*
G36*
X0158867Y0128915D02*
X0158403Y0128823D01*
X0158011Y0128561D01*
X0157748Y0128168D01*
X0157656Y0127705D01*
X0157748Y0127241D01*
X0158011Y0126849D01*
X0158403Y0126586D01*
X0158867Y0126494D01*
X0159330Y0126586D01*
X0159723Y0126849D01*
X0159985Y0127241D01*
X0160077Y0127705D01*
X0159985Y0128168D01*
X0159723Y0128561D01*
X0159330Y0128823D01*
X0158867Y0128915D01*
D02*
G37*
G36*
X0134705Y0132036D02*
X0133984Y0131941D01*
X0133312Y0131663D01*
X0132735Y0131220D01*
X0132292Y0130643D01*
X0132014Y0129971D01*
X0131919Y0129250D01*
X0132014Y0128529D01*
X0132292Y0127857D01*
X0132735Y0127280D01*
X0133312Y0126837D01*
X0133984Y0126559D01*
X0134705Y0126464D01*
X0135426Y0126559D01*
X0136098Y0126837D01*
X0136675Y0127280D01*
X0137118Y0127857D01*
X0137396Y0128529D01*
X0137491Y0129250D01*
X0137396Y0129971D01*
X0137118Y0130643D01*
X0136675Y0131220D01*
X0136098Y0131663D01*
X0135426Y0131941D01*
X0134705Y0132036D01*
D02*
G37*
G36*
X0069209Y0128427D02*
X0068745Y0128335D01*
X0068353Y0128073D01*
X0068090Y0127680D01*
X0067998Y0127216D01*
X0068090Y0126753D01*
X0068353Y0126360D01*
X0068745Y0126098D01*
X0069209Y0126006D01*
X0069672Y0126098D01*
X0070065Y0126360D01*
X0070327Y0126753D01*
X0070419Y0127216D01*
X0070327Y0127680D01*
X0070065Y0128073D01*
X0069672Y0128335D01*
X0069209Y0128427D01*
D02*
G37*
G36*
X0127000Y0127711D02*
X0126537Y0127619D01*
X0126144Y0127356D01*
X0125882Y0126963D01*
X0125789Y0126500D01*
X0125882Y0126037D01*
X0126144Y0125644D01*
X0126537Y0125382D01*
X0127000Y0125289D01*
X0127463Y0125382D01*
X0127856Y0125644D01*
X0128119Y0126037D01*
X0128211Y0126500D01*
X0128119Y0126963D01*
X0127856Y0127356D01*
X0127463Y0127619D01*
X0127000Y0127711D01*
D02*
G37*
G36*
X0092500Y0125211D02*
X0092037Y0125119D01*
X0091861Y0125001D01*
X0091500Y0124897D01*
X0091139Y0125001D01*
X0090963Y0125119D01*
X0090500Y0125211D01*
X0090037Y0125119D01*
X0089644Y0124856D01*
X0089381Y0124463D01*
X0089289Y0124000D01*
X0089381Y0123537D01*
X0089644Y0123144D01*
X0090037Y0122881D01*
X0090500Y0122789D01*
X0090963Y0122881D01*
X0091139Y0122999D01*
X0091500Y0123103D01*
X0091861Y0122999D01*
X0092037Y0122881D01*
X0092500Y0122789D01*
X0092963Y0122881D01*
X0093356Y0123144D01*
X0093619Y0123537D01*
X0093711Y0124000D01*
X0093619Y0124463D01*
X0093356Y0124856D01*
X0092963Y0125119D01*
X0092500Y0125211D01*
D02*
G37*
G36*
X0173223Y0125500D02*
X0172000D01*
Y0124277D01*
X0172197Y0124316D01*
X0172789Y0124711D01*
X0173184Y0125303D01*
X0173223Y0125500D01*
D02*
G37*
G36*
X0120500Y0125711D02*
X0120037Y0125619D01*
X0119644Y0125356D01*
X0119381Y0124963D01*
X0119289Y0124500D01*
X0119381Y0124037D01*
X0119644Y0123644D01*
X0120037Y0123381D01*
X0120500Y0123289D01*
X0120963Y0123381D01*
X0121356Y0123644D01*
X0121618Y0124037D01*
X0121711Y0124500D01*
X0121618Y0124963D01*
X0121356Y0125356D01*
X0120963Y0125619D01*
X0120500Y0125711D01*
D02*
G37*
G36*
X0150594Y0125167D02*
X0150207Y0125116D01*
X0149380Y0124773D01*
X0148670Y0124228D01*
X0148125Y0123518D01*
X0147782Y0122691D01*
X0147731Y0122303D01*
X0150594D01*
Y0125167D01*
D02*
G37*
G36*
X0112879Y0123832D02*
X0112416Y0123740D01*
X0112023Y0123477D01*
X0111760Y0123084D01*
X0111668Y0122621D01*
X0111760Y0122158D01*
X0112023Y0121765D01*
X0112416Y0121503D01*
X0112879Y0121410D01*
X0113342Y0121503D01*
X0113735Y0121765D01*
X0113997Y0122158D01*
X0114090Y0122621D01*
X0113997Y0123084D01*
X0113735Y0123477D01*
X0113342Y0123740D01*
X0112879Y0123832D01*
D02*
G37*
G36*
X0085405Y0127683D02*
X0084582Y0127575D01*
X0083814Y0127257D01*
X0083155Y0126751D01*
X0082649Y0126092D01*
X0082331Y0125324D01*
X0082222Y0124500D01*
X0082331Y0123676D01*
X0082649Y0122908D01*
X0083155Y0122249D01*
X0083814Y0121743D01*
X0084582Y0121425D01*
X0085405Y0121317D01*
X0086229Y0121425D01*
X0086997Y0121743D01*
X0087656Y0122249D01*
X0088162Y0122908D01*
X0088480Y0123676D01*
X0088589Y0124500D01*
X0088480Y0125324D01*
X0088162Y0126092D01*
X0087656Y0126751D01*
X0086997Y0127257D01*
X0086229Y0127575D01*
X0085405Y0127683D01*
D02*
G37*
G36*
X0073594D02*
X0072771Y0127575D01*
X0072003Y0127257D01*
X0071344Y0126751D01*
X0070838Y0126092D01*
X0070520Y0125324D01*
X0070411Y0124500D01*
X0070520Y0123676D01*
X0070838Y0122908D01*
X0071344Y0122249D01*
X0072003Y0121743D01*
X0072771Y0121425D01*
X0073594Y0121317D01*
X0074418Y0121425D01*
X0075186Y0121743D01*
X0075845Y0122249D01*
X0076351Y0122908D01*
X0076669Y0123676D01*
X0076778Y0124500D01*
X0076669Y0125324D01*
X0076351Y0126092D01*
X0075845Y0126751D01*
X0075186Y0127257D01*
X0074418Y0127575D01*
X0073594Y0127683D01*
D02*
G37*
G36*
X0116888Y0123733D02*
X0116425Y0123641D01*
X0116032Y0123379D01*
X0115770Y0122986D01*
X0115677Y0122523D01*
X0115770Y0122059D01*
X0116032Y0121667D01*
X0116425Y0121404D01*
X0116888Y0121312D01*
X0117351Y0121404D01*
X0117744Y0121667D01*
X0118007Y0122059D01*
X0118099Y0122523D01*
X0118007Y0122986D01*
X0117744Y0123379D01*
X0117351Y0123641D01*
X0116888Y0123733D01*
D02*
G37*
G36*
X0109078Y0123720D02*
X0108615Y0123628D01*
X0108222Y0123365D01*
X0107960Y0122972D01*
X0107868Y0122509D01*
X0107960Y0122046D01*
X0108222Y0121653D01*
X0108615Y0121391D01*
X0109078Y0121299D01*
X0109542Y0121391D01*
X0109934Y0121653D01*
X0110197Y0122046D01*
X0110289Y0122509D01*
X0110197Y0122972D01*
X0109934Y0123365D01*
X0109542Y0123628D01*
X0109078Y0123720D01*
D02*
G37*
G36*
X0079419Y0122598D02*
X0078956Y0122506D01*
X0078563Y0122243D01*
X0078301Y0121851D01*
X0078209Y0121387D01*
X0078301Y0120924D01*
X0078563Y0120531D01*
X0078956Y0120269D01*
X0079419Y0120177D01*
X0079882Y0120269D01*
X0080275Y0120531D01*
X0080538Y0120924D01*
X0080630Y0121387D01*
X0080538Y0121851D01*
X0080275Y0122243D01*
X0079882Y0122506D01*
X0079419Y0122598D01*
D02*
G37*
G36*
X0069500Y0142711D02*
X0069037Y0142619D01*
X0068644Y0142356D01*
X0068382Y0141963D01*
X0068289Y0141500D01*
X0068382Y0141037D01*
X0068644Y0140644D01*
X0069037Y0140382D01*
X0069500Y0140289D01*
X0069963Y0140382D01*
X0070356Y0140644D01*
X0070618Y0141037D01*
X0070711Y0141500D01*
X0070618Y0141963D01*
X0070356Y0142356D01*
X0069963Y0142619D01*
X0069500Y0142711D01*
D02*
G37*
G36*
X0044000Y0132711D02*
X0043537Y0132618D01*
X0043144Y0132356D01*
X0042882Y0131963D01*
X0042789Y0131500D01*
X0042882Y0131037D01*
X0043144Y0130644D01*
X0043537Y0130382D01*
X0044000Y0130289D01*
X0044463Y0130382D01*
X0044856Y0130644D01*
X0045118Y0131037D01*
X0045211Y0131500D01*
X0045118Y0131963D01*
X0044856Y0132356D01*
X0044463Y0132618D01*
X0044000Y0132711D01*
D02*
G37*
G36*
X0047000Y0131211D02*
X0046537Y0131119D01*
X0046144Y0130856D01*
X0045882Y0130463D01*
X0045789Y0130000D01*
X0045882Y0129537D01*
X0046144Y0129144D01*
X0046537Y0128882D01*
X0047000Y0128789D01*
X0047463Y0128882D01*
X0047856Y0129144D01*
X0048118Y0129537D01*
X0048211Y0130000D01*
X0048118Y0130463D01*
X0047856Y0130856D01*
X0047463Y0131119D01*
X0047000Y0131211D01*
D02*
G37*
G36*
X0039639Y0130350D02*
X0039176Y0130258D01*
X0038783Y0129995D01*
X0038521Y0129603D01*
X0038429Y0129139D01*
X0038521Y0128676D01*
X0038783Y0128283D01*
X0039176Y0128021D01*
X0039639Y0127928D01*
X0040102Y0128021D01*
X0040495Y0128283D01*
X0040758Y0128676D01*
X0040850Y0129139D01*
X0040758Y0129603D01*
X0040495Y0129995D01*
X0040102Y0130258D01*
X0039639Y0130350D01*
D02*
G37*
G36*
X0085353Y0139441D02*
X0084890Y0139348D01*
X0084497Y0139086D01*
X0084234Y0138693D01*
X0084142Y0138230D01*
X0084234Y0137767D01*
X0084497Y0137374D01*
X0084890Y0137111D01*
X0085353Y0137019D01*
X0085816Y0137111D01*
X0086209Y0137374D01*
X0086471Y0137767D01*
X0086564Y0138230D01*
X0086471Y0138693D01*
X0086209Y0139086D01*
X0085816Y0139348D01*
X0085353Y0139441D01*
D02*
G37*
G36*
X0178819Y0138842D02*
X0178355Y0138750D01*
X0177962Y0138487D01*
X0177700Y0138094D01*
X0177608Y0137631D01*
X0177700Y0137168D01*
X0177962Y0136775D01*
X0178355Y0136513D01*
X0178819Y0136421D01*
X0179282Y0136513D01*
X0179675Y0136775D01*
X0179937Y0137168D01*
X0180029Y0137631D01*
X0179937Y0138094D01*
X0179675Y0138487D01*
X0179282Y0138750D01*
X0178819Y0138842D01*
D02*
G37*
G36*
X0048500Y0125211D02*
X0048037Y0125119D01*
X0047644Y0124856D01*
X0047381Y0124463D01*
X0047289Y0124000D01*
X0047381Y0123537D01*
X0047644Y0123144D01*
X0048037Y0122881D01*
X0048500Y0122789D01*
X0048963Y0122881D01*
X0049356Y0123144D01*
X0049619Y0123537D01*
X0049711Y0124000D01*
X0049619Y0124463D01*
X0049356Y0124856D01*
X0048963Y0125119D01*
X0048500Y0125211D01*
D02*
G37*
%LPD*%
D14*
X0189925Y0142728D02*
X0191576Y0141076D01*
X0189925Y0142728D02*
Y0145109D01*
X0191500Y0141000D02*
X0191576Y0141076D01*
D66*
X0151094Y0121803D02*
D03*
D70*
X0184000Y0124500D02*
D03*
D72*
X0099348Y0137637D02*
D03*
X0054500Y0123000D02*
D03*
X0162495Y0142014D02*
D03*
X0171500Y0126000D02*
D03*
X0126500Y0138155D02*
D03*
X0189925Y0145109D02*
D03*
X0184500Y0132500D02*
D03*
X0125500Y0124000D02*
D03*
X0044500Y0148500D02*
D03*
X0081500Y0147000D02*
D03*
Y0144000D02*
D03*
X0100000Y0125500D02*
D03*
X0086500Y0141500D02*
D03*
X0032500Y0143000D02*
D03*
D73*
X0042500Y0128500D02*
D03*
D74*
X0162495Y0141369D02*
Y0142014D01*
X0161839Y0140713D02*
X0162495Y0141369D01*
M02*
