M48
;Layer_Color=9474304
;FILE_FORMAT=2:5
INCH,TZ
;TYPE=PLATED
T1F00S00C0.00787
T2F00S00C0.01181
T3F00S00C0.01378
T4F00S00C0.02756
T5F00S00C0.03150
T6F00S00C0.03543
;TYPE=NON_PLATED
T7F00S00C0.03902
%
T01
X15500Y4000
X19295Y3386
X22000Y3500
X26000Y6000
X32000Y5000
X36000Y6500
X37811Y4925
X37365Y11046
X34000Y9000
X32987Y20409
X36562Y21522
X47000Y23500
X53500Y20000
X55000Y18500
X57288Y18212
X59839Y18620
X58500Y20500
X62853Y20230
X64000Y23500
X59000Y26000
Y29000
X58000Y13000
X51500
X51000Y16000
X45573Y13114
X46709Y9217
X56919Y3387
X68000Y6000
X70000
X77500Y7500
X85000Y11655
X88000
X91000
X93875Y11664
X94000Y16500
X91000
X88000
X85000Y16156
Y21156
X88000
X91000
X93875Y21164
X101000Y21430
X104000Y20155
X102500Y18500
X100647Y17305
X100500Y13500
X104500Y11500
Y8500
X103000Y6000
X103500Y2500
X98000Y6500
X94388Y4523
X90379Y4621
X86578Y4509
X86264Y27774
X84303Y28003
X81500Y27000
X76174Y26080
X75748Y29685
X73738Y23336
X76948Y22412
X76848Y19637
X75236Y18064
X66500Y16000
X63000Y15380
X41000Y30463
X32000Y30500
X22000
X20009Y25094
X25000Y24500
X21500Y17000
Y13500
X24500Y12000
X17139Y11139
X16500Y27500
X10000Y25000
X3500Y27500
X89113Y29029
X92356Y27894
X94325Y29313
X100000Y30000
X98273Y26615
X105500Y26000
X106555Y28928
X111181Y27904
X113257Y26996
X109803Y23898
X120020Y25809
X119000Y29389
X125422Y30050
X122105Y18632
X124514Y15486
X126467Y16012
X125500Y13500
X129255Y14526
X131457Y6030
X138000Y6830
X136367Y9705
X137984Y15500
X139422Y14078
X139000Y17500
X134709Y16500
X135000Y25500
X139995Y24014
X140000Y31000
X146500
X145230Y26583
X151392Y23593
X156318Y19631
X152984Y13923
X152500Y11500
X149000Y8000
X157000Y6500
X156000Y3000
X162000Y14500
X163000Y17000
Y22500
X167425Y27110
X174500Y27000
X174232Y16000
X168500
X156000Y31187
T02
X10500Y11500
X20000Y10500
T03
X132811Y12366
T04
X107205Y16250
X117205
X112205Y21250
Y11250
T05
X128595Y3803
X134500Y4000
X140405
X146311
X152216
T06
X51095Y6500
X62906
X161500
X171500
T07
X123500Y25291
X143500Y21291
Y29291
M30
