G04*
G04 #@! TF.GenerationSoftware,Altium Limited,Altium Designer,19.1.5 (86)*
G04*
G04 Layer_Physical_Order=2*
G04 Layer_Color=1930808*
%FSLAX25Y25*%
%MOIN*%
G70*
G01*
G75*
%ADD10C,0.01000*%
%ADD15C,0.00050*%
%ADD23C,0.04800*%
%ADD24C,0.05000*%
%ADD25R,0.04724X0.04724*%
%ADD26R,0.06299X0.05906*%
G36*
X236000Y101000D02*
X153500D01*
X135305Y117647D01*
X135624Y118416D01*
X135675Y118803D01*
X132311D01*
Y119803D01*
X135675D01*
X135624Y120191D01*
X135281Y121018D01*
X134736Y121728D01*
X134381Y122000D01*
X134551Y122500D01*
X151000D01*
X165500Y108000D01*
X203163D01*
X204614Y109451D01*
X206899D01*
Y110361D01*
X207361Y110553D01*
X208122Y109792D01*
X207881Y109210D01*
X207774Y108401D01*
X207881Y107592D01*
X208193Y106838D01*
X208690Y106190D01*
X209338Y105693D01*
X210092Y105381D01*
X210901Y105274D01*
X211710Y105381D01*
X212464Y105693D01*
X213112Y106190D01*
X213609Y106838D01*
X213921Y107592D01*
X214028Y108401D01*
X213955Y108951D01*
X214316Y109451D01*
X218527D01*
X218746Y108951D01*
X218480Y108309D01*
X218373Y107500D01*
X218480Y106691D01*
X218792Y105937D01*
X219289Y105289D01*
X219937Y104792D01*
X220691Y104480D01*
X221500Y104373D01*
X222309Y104480D01*
X223063Y104792D01*
X223711Y105289D01*
X224208Y105937D01*
X224520Y106691D01*
X224627Y107500D01*
X224520Y108309D01*
X224254Y108951D01*
X224473Y109451D01*
X227399D01*
Y115376D01*
X223559D01*
Y115913D01*
X223473Y116343D01*
X223230Y116706D01*
X222866Y116950D01*
X222437Y117035D01*
X222008Y116950D01*
X221644Y116706D01*
X221401Y116343D01*
X221316Y115913D01*
Y110602D01*
X220691Y110520D01*
X220025Y110245D01*
X219525Y110450D01*
Y115376D01*
X213601D01*
Y110753D01*
X213287Y110646D01*
X213101Y110621D01*
X212464Y111109D01*
X211710Y111421D01*
X210901Y111528D01*
X210092Y111421D01*
X209790Y111296D01*
X208124Y112962D01*
X212542Y117379D01*
X213309Y117480D01*
X214063Y117792D01*
X214711Y118289D01*
X215208Y118937D01*
X215520Y119691D01*
X215621Y120458D01*
X216819Y121656D01*
X224250D01*
Y125000D01*
X236000D01*
X236000Y101000D01*
D02*
G37*
G36*
X257500D02*
X237500D01*
X237500Y125000D01*
X236500Y126000D01*
X232234Y126000D01*
X232208Y126063D01*
X231711Y126711D01*
X231063Y127208D01*
X230309Y127520D01*
X229500Y127627D01*
X228691Y127520D01*
X227937Y127208D01*
X227289Y126711D01*
X226792Y126063D01*
X226766Y126000D01*
X224250Y126000D01*
Y128761D01*
X218533D01*
X217653Y129641D01*
X217653Y129641D01*
X217267Y130028D01*
X216903Y130271D01*
X216474Y130356D01*
X216474Y130356D01*
X215321D01*
X213223Y132455D01*
X212859Y132698D01*
X212430Y132783D01*
X212430Y132783D01*
X177229D01*
X177229Y132783D01*
X176800Y132698D01*
X176436Y132455D01*
X176436Y132454D01*
X173703Y129722D01*
X134034D01*
X133864Y130222D01*
X134045Y130360D01*
X134526Y130987D01*
X134828Y131717D01*
X134931Y132500D01*
X134828Y133283D01*
X134526Y134013D01*
X134045Y134640D01*
X133419Y135120D01*
X132689Y135423D01*
X131905Y135526D01*
X131122Y135423D01*
X130393Y135120D01*
X129766Y134640D01*
X129285Y134013D01*
X129223Y133864D01*
X128682D01*
X128621Y134013D01*
X128140Y134640D01*
X127513Y135120D01*
X126783Y135423D01*
X126000Y135526D01*
X125217Y135423D01*
X124487Y135120D01*
X123860Y134640D01*
X123380Y134013D01*
X123318Y133864D01*
X122777D01*
X122715Y134013D01*
X122234Y134640D01*
X121607Y135120D01*
X120878Y135423D01*
X120095Y135526D01*
X119311Y135423D01*
X118581Y135120D01*
X117955Y134640D01*
X117474Y134013D01*
X117412Y133864D01*
X116871D01*
X116809Y134013D01*
X116329Y134640D01*
X115702Y135120D01*
X114972Y135423D01*
X114189Y135526D01*
X113406Y135423D01*
X112676Y135120D01*
X112049Y134640D01*
X111568Y134013D01*
X111548Y133963D01*
X111006Y133963D01*
X110904Y134210D01*
X110423Y134836D01*
X109796Y135317D01*
X109067Y135620D01*
X108283Y135723D01*
X107500Y135620D01*
X106771Y135317D01*
X106144Y134836D01*
X105663Y134210D01*
X105361Y133480D01*
X105258Y132697D01*
X105361Y131914D01*
X105663Y131184D01*
X106144Y130557D01*
X106771Y130076D01*
X107500Y129774D01*
X108283Y129671D01*
X109067Y129774D01*
X109595Y129993D01*
X110426Y129161D01*
X110193Y128688D01*
X109920Y128724D01*
X109111Y128617D01*
X108356Y128305D01*
X107709Y127808D01*
X107212Y127160D01*
X106900Y126406D01*
X106793Y125597D01*
X106900Y124788D01*
X107212Y124033D01*
X107709Y123386D01*
X107799Y123317D01*
X107800Y123104D01*
X107693Y122768D01*
X106974Y122470D01*
X106264Y121925D01*
X105719Y121215D01*
X105377Y120388D01*
X105325Y120000D01*
X108689D01*
Y119500D01*
X109189D01*
Y116137D01*
X109577Y116188D01*
X110404Y116530D01*
X111114Y117075D01*
X111392Y117437D01*
X111892D01*
X112170Y117075D01*
X112880Y116530D01*
X113707Y116188D01*
X114094Y116137D01*
Y119500D01*
X115094D01*
Y116137D01*
X115482Y116188D01*
X116309Y116530D01*
X117019Y117075D01*
X117484Y117681D01*
X117877Y117749D01*
X118081Y117725D01*
X118360Y117360D01*
X118987Y116879D01*
X119717Y116577D01*
X120500Y116474D01*
X121283Y116577D01*
X122013Y116879D01*
X122640Y117360D01*
X123120Y117987D01*
X123182Y118136D01*
X123723D01*
X123785Y117987D01*
X124266Y117360D01*
X124893Y116879D01*
X125622Y116577D01*
X126406Y116474D01*
X127189Y116577D01*
X127919Y116879D01*
X128545Y117360D01*
X128788Y117677D01*
X129443Y117759D01*
X147978Y100973D01*
X147795Y100507D01*
X101500Y101000D01*
Y138500D01*
X257500D01*
Y101000D01*
D02*
G37*
%LPC*%
G36*
X108189Y119000D02*
X105325D01*
X105377Y118612D01*
X105719Y117785D01*
X106264Y117075D01*
X106974Y116530D01*
X107801Y116188D01*
X108189Y116137D01*
Y119000D01*
D02*
G37*
G36*
X108595Y110223D02*
X107811Y110120D01*
X107081Y109817D01*
X106455Y109336D01*
X105974Y108710D01*
X105672Y107980D01*
X105569Y107197D01*
X105672Y106414D01*
X105974Y105684D01*
X106455Y105057D01*
X107081Y104576D01*
X107811Y104274D01*
X108595Y104171D01*
X109378Y104274D01*
X110107Y104576D01*
X110734Y105057D01*
X111215Y105684D01*
X111236Y105734D01*
X111777D01*
X111880Y105487D01*
X112360Y104860D01*
X112987Y104379D01*
X113717Y104077D01*
X114500Y103974D01*
X115283Y104077D01*
X116013Y104379D01*
X116640Y104860D01*
X117121Y105487D01*
X117182Y105636D01*
X117723D01*
X117785Y105487D01*
X118266Y104860D01*
X118893Y104379D01*
X119622Y104077D01*
X120405Y103974D01*
X121189Y104077D01*
X121918Y104379D01*
X122545Y104860D01*
X123026Y105487D01*
X123088Y105636D01*
X123629D01*
X123690Y105487D01*
X124171Y104860D01*
X124798Y104379D01*
X125528Y104077D01*
X126311Y103974D01*
X127094Y104077D01*
X127824Y104379D01*
X128451Y104860D01*
X128931Y105487D01*
X128993Y105636D01*
X129534D01*
X129596Y105487D01*
X130077Y104860D01*
X130704Y104379D01*
X131433Y104077D01*
X132217Y103974D01*
X133000Y104077D01*
X133730Y104379D01*
X134356Y104860D01*
X134837Y105487D01*
X135139Y106217D01*
X135242Y107000D01*
X135139Y107783D01*
X134837Y108513D01*
X134356Y109140D01*
X133730Y109620D01*
X133000Y109923D01*
X132217Y110026D01*
X131433Y109923D01*
X130704Y109620D01*
X130077Y109140D01*
X129596Y108513D01*
X129534Y108364D01*
X128993D01*
X128931Y108513D01*
X128451Y109140D01*
X127824Y109620D01*
X127094Y109923D01*
X126311Y110026D01*
X125528Y109923D01*
X124798Y109620D01*
X124171Y109140D01*
X123690Y108513D01*
X123629Y108364D01*
X123088D01*
X123026Y108513D01*
X122545Y109140D01*
X121918Y109620D01*
X121189Y109923D01*
X120405Y110026D01*
X119622Y109923D01*
X118893Y109620D01*
X118266Y109140D01*
X117785Y108513D01*
X117723Y108364D01*
X117182D01*
X117121Y108513D01*
X116640Y109140D01*
X116013Y109620D01*
X115283Y109923D01*
X114500Y110026D01*
X113717Y109923D01*
X112987Y109620D01*
X112360Y109140D01*
X111880Y108513D01*
X111859Y108463D01*
X111317Y108463D01*
X111215Y108710D01*
X110734Y109336D01*
X110107Y109817D01*
X109378Y110120D01*
X108595Y110223D01*
D02*
G37*
%LPD*%
D10*
X179661Y115690D02*
X182937Y112413D01*
X177229Y131661D02*
X212430D01*
X208331Y129661D02*
X209993Y128000D01*
X211000D01*
X212430Y131661D02*
X214857Y129235D01*
X216474D01*
X212500Y120500D02*
X213500D01*
X216436Y123436D01*
X118595Y132500D02*
X122494Y128600D01*
X172000Y134000D02*
X173000Y135000D01*
X222437Y109937D02*
Y115913D01*
X220500Y108000D02*
X222437Y109937D01*
X205185Y114315D02*
X210901Y108599D01*
X221000Y107500D02*
X221500D01*
X220500Y108000D02*
X221000Y107500D01*
X210901Y108401D02*
Y108599D01*
X216860Y128848D02*
X217850Y127858D01*
X216474Y129235D02*
X216860Y128848D01*
X217850Y127661D02*
Y127858D01*
Y127661D02*
X220303Y125209D01*
X220500D01*
X216436Y123436D02*
X218727D01*
X220500Y125209D01*
X196229Y129661D02*
X208331D01*
X117900Y128600D02*
X119900Y126600D01*
X108283Y132697D02*
X108477D01*
X112574Y128600D02*
X117900D01*
X108477Y132697D02*
X112574Y128600D01*
X108985Y125597D02*
X109920D01*
X108582Y126000D02*
X108985Y125597D01*
X109920D02*
X110388D01*
X110791Y126000D01*
X109146Y124354D02*
X110791Y126000D01*
X108582D02*
X110082Y124500D01*
X119900Y126600D02*
X179023D01*
X118595Y132500D02*
X118985D01*
X110082Y124500D02*
X171485D01*
X175229Y120756D01*
X185598D01*
X190000Y116354D01*
X174168Y128600D02*
X177229Y131661D01*
X122494Y128600D02*
X174168D01*
X179023Y126600D02*
X179518Y126104D01*
X196020Y129453D02*
X196229Y129661D01*
X181453Y129453D02*
X196020D01*
X181076Y129076D02*
X181453Y129453D01*
X181076Y127661D02*
Y129076D01*
X179518Y126104D02*
X181076Y127661D01*
X190000Y116354D02*
X196402Y122756D01*
X197547D01*
X200000Y125209D01*
X203535Y114315D02*
X205185D01*
D15*
X100000Y100000D02*
Y139500D01*
X258500D01*
Y100000D02*
Y139500D01*
X100000Y100000D02*
X258500D01*
D23*
X131905Y132500D02*
D03*
X126000D02*
D03*
X108283Y132697D02*
D03*
X114189Y132500D02*
D03*
X120095D02*
D03*
X132217Y107000D02*
D03*
X126311D02*
D03*
X108595Y107197D02*
D03*
X114500Y107000D02*
D03*
X120405D02*
D03*
X108689Y119500D02*
D03*
X114594D02*
D03*
X132311Y119303D02*
D03*
X126406Y119500D02*
D03*
X120500D02*
D03*
D24*
X249000Y135500D02*
D03*
X180395Y116756D02*
D03*
X221000Y136000D02*
D03*
X138000Y106500D02*
D03*
X139000Y134000D02*
D03*
X160000Y109500D02*
D03*
X211000Y128000D02*
D03*
X212500Y120500D02*
D03*
X173000Y135000D02*
D03*
X229500Y124500D02*
D03*
X241000Y104000D02*
D03*
X221500Y107500D02*
D03*
X210901Y108401D02*
D03*
X198500Y106500D02*
D03*
X109920Y125597D02*
D03*
X190000Y116354D02*
D03*
D25*
X224437Y112413D02*
D03*
X216563D02*
D03*
X203937D02*
D03*
X196063D02*
D03*
X182937D02*
D03*
X175063D02*
D03*
D26*
X220500Y125209D02*
D03*
X200000D02*
D03*
X179000D02*
D03*
M02*
