M48
;Layer_Color=9474304
;FILE_FORMAT=2:5
INCH,LZ
;TYPE=PLATED
T1F00S00C0.02800
T2F00S00C0.03150
%
T01
X010992Y0125597
X0139Y0134
X0138Y01065
X016Y01095
X0180395Y0116756
X019Y0116354
X01985Y01065
X0210901Y0108401
X02215Y01075
X02125Y01205
X0211Y0128
X0221Y0136
X02295Y01245
X0249Y01355
X0241Y0104
X0173Y0135
T02
X0108595Y0107197
X01145Y0107
X0120405
X0126311
X0132217
X0132311Y0119303
X0126406Y01195
X01205
X0114594
X0108689
X0108283Y0132697
X0114189Y01325
X0120095
X0126
X0131905
M30
