G04*
G04 #@! TF.GenerationSoftware,Altium Limited,Altium Designer,19.1.5 (86)*
G04*
G04 Layer_Color=65280*
%FSLAX25Y25*%
%MOIN*%
G70*
G01*
G75*
%ADD11C,0.00787*%
%ADD12C,0.00394*%
%ADD14C,0.00600*%
%ADD15C,0.00050*%
D11*
X228768Y112413D02*
G03*
X228768Y113201I0J394D01*
G01*
D02*
G03*
X228768Y112413I0J-394D01*
G01*
X208268D02*
G03*
X208268Y113201I0J394D01*
G01*
D02*
G03*
X208268Y112413I0J-394D01*
G01*
X187268D02*
G03*
X187268Y113201I0J394D01*
G01*
D02*
G03*
X187268Y112413I0J-394D01*
G01*
D12*
X225224Y126390D02*
X226406D01*
Y117532D02*
Y126390D01*
X214595D02*
X215776D01*
X214595Y117532D02*
Y126390D01*
X220106Y111626D02*
X220894D01*
X204724Y126390D02*
X205906D01*
Y117532D02*
Y126390D01*
X194095D02*
X195276D01*
X194095Y117532D02*
Y126390D01*
X199606Y111626D02*
X200394D01*
X183724Y126390D02*
X184906D01*
Y117532D02*
Y126390D01*
X173094D02*
X174276D01*
X173094Y117532D02*
Y126390D01*
X178606Y111626D02*
X179394D01*
D14*
X254901Y137638D02*
X255400Y138138D01*
X256400D01*
X256900Y137638D01*
Y137138D01*
X256400Y136638D01*
X255400D01*
X254901Y136138D01*
Y135638D01*
X255400Y135138D01*
X256400D01*
X256900Y135638D01*
X251902Y137138D02*
X253401D01*
X253901Y136638D01*
Y135638D01*
X253401Y135138D01*
X251902D01*
X250902D02*
X249902D01*
X250402D01*
Y137138D01*
X250902D01*
X246403Y138138D02*
X248403D01*
Y136638D01*
X247403D01*
X248403D01*
Y135138D01*
X244904Y137138D02*
X243904D01*
X243404Y136638D01*
Y135138D01*
X244904D01*
X245404Y135638D01*
X244904Y136138D01*
X243404D01*
X242405Y138138D02*
Y135138D01*
X240905D01*
X240405Y135638D01*
Y136138D01*
Y136638D01*
X240905Y137138D01*
X242405D01*
X234407Y135138D02*
X236407D01*
X234407Y137138D01*
Y137638D01*
X234907Y138138D01*
X235907D01*
X236407Y137638D01*
X233408D02*
X232908Y138138D01*
X231908D01*
X231408Y137638D01*
Y135638D01*
X231908Y135138D01*
X232908D01*
X233408Y135638D01*
Y137638D01*
X230409Y135138D02*
X229409D01*
X229909D01*
Y138138D01*
X230409Y137638D01*
X227909Y135638D02*
X227410Y135138D01*
X226410D01*
X225910Y135638D01*
Y137638D01*
X226410Y138138D01*
X227410D01*
X227909Y137638D01*
Y137138D01*
X227410Y136638D01*
X225910D01*
X256900Y133099D02*
Y130100D01*
X255400D01*
X254901Y130599D01*
Y131099D01*
X255400Y131599D01*
X256900D01*
X255400D01*
X254901Y132099D01*
Y132599D01*
X255400Y133099D01*
X256900D01*
X253901Y132099D02*
Y130599D01*
X253401Y130100D01*
X251902D01*
Y129600D01*
X252401Y129100D01*
X252901D01*
X251902Y130100D02*
Y132099D01*
X250902D02*
X250402D01*
Y131599D01*
X250902D01*
Y132099D01*
Y130599D02*
X250402D01*
Y130100D01*
X250902D01*
Y130599D01*
X245404Y130100D02*
Y133099D01*
X243904D01*
X243404Y132599D01*
Y131599D01*
X243904Y131099D01*
X245404D01*
X241905Y132099D02*
X240905D01*
X240405Y131599D01*
Y130100D01*
X241905D01*
X242405Y130599D01*
X241905Y131099D01*
X240405D01*
X238906Y132599D02*
Y132099D01*
X239406D01*
X238406D01*
X238906D01*
Y130599D01*
X238406Y130100D01*
X236907Y132099D02*
Y130100D01*
Y131099D01*
X236407Y131599D01*
X235907Y132099D01*
X235407D01*
X233907Y130100D02*
X232908D01*
X233408D01*
Y132099D01*
X233907D01*
X229409D02*
X230908D01*
X231408Y131599D01*
Y130599D01*
X230908Y130100D01*
X229409D01*
X228409D02*
Y133099D01*
Y131099D02*
X226910Y132099D01*
X228409Y131099D02*
X226910Y130100D01*
X220412Y132599D02*
X220912Y133099D01*
X221911D01*
X222411Y132599D01*
Y130599D01*
X221911Y130100D01*
X220912D01*
X220412Y130599D01*
X219412Y133099D02*
Y130100D01*
Y131599D01*
X218912Y132099D01*
X217913D01*
X217413Y131599D01*
Y130100D01*
X216413Y132099D02*
Y130599D01*
X215913Y130100D01*
X215413Y130599D01*
X214914Y130100D01*
X214414Y130599D01*
Y132099D01*
X212914D02*
X211915D01*
X211415Y131599D01*
Y130100D01*
X212914D01*
X213414Y130599D01*
X212914Y131099D01*
X211415D01*
X210415Y130100D02*
X209415D01*
X209915D01*
Y133099D01*
X210415D01*
X206416Y130100D02*
X207416D01*
X207916Y130599D01*
Y131599D01*
X207416Y132099D01*
X206416D01*
X205917Y131599D01*
Y131099D01*
X207916D01*
X204917Y130100D02*
Y133099D01*
Y131099D02*
X203417Y132099D01*
X204917Y131099D02*
X203417Y130100D01*
X137001Y138999D02*
X138000D01*
X138500Y138499D01*
Y136500D01*
X138000Y136000D01*
X137001D01*
X136501Y136500D01*
Y138499D01*
X137001Y138999D01*
X135501D02*
Y136500D01*
X135001Y136000D01*
X134001D01*
X133502Y136500D01*
Y138999D01*
X132502D02*
X130503D01*
X131502D01*
Y136000D01*
X126504Y137999D02*
X126004D01*
Y137499D01*
X126504D01*
Y137999D01*
Y136500D02*
X126004D01*
Y136000D01*
X126504D01*
Y136500D01*
X121006Y138499D02*
X120506Y138999D01*
X119506D01*
X119006Y138499D01*
Y137999D01*
X119506Y137499D01*
X120006D01*
X119506D01*
X119006Y137000D01*
Y136500D01*
X119506Y136000D01*
X120506D01*
X121006Y136500D01*
X113008Y136000D02*
X115008D01*
X113008Y137999D01*
Y138499D01*
X113508Y138999D01*
X114508D01*
X115008Y138499D01*
X109010Y136000D02*
X108010D01*
X108510D01*
Y138999D01*
X109010Y138499D01*
X135000Y103999D02*
X134000D01*
X134500D01*
Y101000D01*
X135000D01*
X134000D01*
X132501D02*
Y103999D01*
X130501Y101000D01*
Y103999D01*
X126503Y102999D02*
X126003D01*
Y102499D01*
X126503D01*
Y102999D01*
Y101500D02*
X126003D01*
Y101000D01*
X126503D01*
Y101500D01*
X121004Y103499D02*
X120505Y103999D01*
X119505D01*
X119005Y103499D01*
Y102999D01*
X119505Y102499D01*
X120005D01*
X119505D01*
X119005Y102000D01*
Y101500D01*
X119505Y101000D01*
X120505D01*
X121004Y101500D01*
X113007Y101000D02*
X115006D01*
X113007Y102999D01*
Y103499D01*
X113507Y103999D01*
X114507D01*
X115006Y103499D01*
X109008Y101000D02*
X108009D01*
X108509D01*
Y103999D01*
X109008Y103499D01*
X133500Y114499D02*
X131501D01*
X132500Y115499D02*
Y113500D01*
X127502Y114499D02*
X125503D01*
X126502Y115499D02*
Y113500D01*
X115506Y114499D02*
X113506D01*
X109508D02*
X107508D01*
X224000Y106999D02*
Y105000D01*
X223000Y104000D01*
X222001Y105000D01*
Y106999D01*
X221001Y104000D02*
Y106999D01*
X219501D01*
X219002Y106499D01*
Y105499D01*
X219501Y105000D01*
X221001D01*
X220001D02*
X219002Y104000D01*
X218002D02*
X217002D01*
X217502D01*
Y106999D01*
X218002Y106499D01*
X204000Y106499D02*
Y104500D01*
X203000Y103500D01*
X202001Y104500D01*
Y106499D01*
X201001Y103500D02*
Y106499D01*
X199501D01*
X199002Y105999D01*
Y104999D01*
X199501Y104500D01*
X201001D01*
X200001D02*
X199002Y103500D01*
X198002Y105999D02*
X197502Y106499D01*
X196502D01*
X196003Y105999D01*
Y105499D01*
X196502Y104999D01*
X197002D01*
X196502D01*
X196003Y104500D01*
Y104000D01*
X196502Y103500D01*
X197502D01*
X198002Y104000D01*
X183000Y106499D02*
Y104500D01*
X182000Y103500D01*
X181001Y104500D01*
Y106499D01*
X180001Y103500D02*
Y106499D01*
X178501D01*
X178002Y105999D01*
Y104999D01*
X178501Y104500D01*
X180001D01*
X179001D02*
X178002Y103500D01*
X175003D02*
X177002D01*
X175003Y105499D01*
Y105999D01*
X175502Y106499D01*
X176502D01*
X177002Y105999D01*
D15*
X100000Y100000D02*
Y139500D01*
X258500D01*
Y100000D02*
Y139500D01*
X100000Y100000D02*
X258500D01*
M02*
