G04*
G04 #@! TF.GenerationSoftware,Altium Limited,Altium Designer,19.1.5 (86)*
G04*
G04 Layer_Color=16711935*
%FSLAX25Y25*%
%MOIN*%
G70*
G01*
G75*
G04:AMPARAMS|DCode=25|XSize=43.31mil|YSize=66.93mil|CornerRadius=0mil|HoleSize=0mil|Usage=FLASHONLY|Rotation=235.000|XOffset=0mil|YOffset=0mil|HoleType=Round|Shape=Round|*
%AMOVALD25*
21,1,0.02362,0.04331,0.00000,0.00000,325.0*
1,1,0.04331,-0.00968,0.00677*
1,1,0.04331,0.00968,-0.00677*
%
%ADD25OVALD25*%

G04:AMPARAMS|DCode=26|XSize=43.31mil|YSize=66.93mil|CornerRadius=0mil|HoleSize=0mil|Usage=FLASHONLY|Rotation=125.000|XOffset=0mil|YOffset=0mil|HoleType=Round|Shape=Round|*
%AMOVALD26*
21,1,0.02362,0.04331,0.00000,0.00000,215.0*
1,1,0.04331,0.00968,0.00677*
1,1,0.04331,-0.00968,-0.00677*
%
%ADD26OVALD26*%

%ADD55R,0.07690X0.07887*%
%ADD56R,0.02572X0.02572*%
%ADD57R,0.02375X0.02572*%
D25*
X49715Y23261D02*
D03*
X53328Y28421D02*
D03*
X56941Y33581D02*
D03*
X60554Y38741D02*
D03*
D26*
X-49714Y23260D02*
D03*
X-53327Y28420D02*
D03*
X-56940Y33580D02*
D03*
X-60553Y38740D02*
D03*
D55*
X-14100Y47900D02*
D03*
X14050D02*
D03*
D56*
X-269342Y53527D02*
D03*
X-274658D02*
D03*
Y56873D02*
D03*
X-269342D02*
D03*
X274658Y56874D02*
D03*
X269342D02*
D03*
Y53528D02*
D03*
X274658D02*
D03*
D57*
X-272000Y53527D02*
D03*
Y56873D02*
D03*
X272000Y56874D02*
D03*
Y53528D02*
D03*
M02*
