G04*
G04 #@! TF.GenerationSoftware,Altium Limited,Altium Designer,20.2.3 (150)*
G04*
G04 Layer_Color=32896*
%FSLAX25Y25*%
%MOIN*%
G70*
G04*
G04 #@! TF.SameCoordinates,1A6DCC39-EBF3-408F-891E-A4E00116EB29*
G04*
G04*
G04 #@! TF.FilePolarity,Positive*
G04*
G01*
G75*
%ADD73C,0.00010*%
%ADD74C,0.00200*%
D73*
X36769Y57810D02*
X36780Y57701D01*
X36816Y57598D01*
X37548Y56035D01*
X38320Y52385D01*
X38127Y49574D02*
X38320Y52385D01*
X37568Y47637D02*
X38127Y49574D01*
X37548Y47550D02*
X37568Y47637D01*
X37348Y45692D02*
X37548Y47550D01*
X36788Y43991D02*
X37348Y45692D01*
X35560Y42153D02*
X36788Y43991D01*
X33769Y40759D02*
X35560Y42153D01*
X31911Y39432D02*
X33769Y40759D01*
X30670Y38543D02*
X31911Y39432D01*
X30607Y38491D02*
X30670Y38543D01*
X30584Y38468D02*
X30607Y38491D01*
X29782Y37423D02*
X30584Y38468D01*
X29278Y36207D02*
X29782Y37423D01*
X29107Y34901D02*
X29278Y36207D01*
X29107Y34901D02*
X29131Y34743D01*
X32044Y25806D01*
X32084Y25716D01*
X38403Y14310D01*
X38489Y14196D01*
X39174Y13670D01*
X39972Y13340D01*
X40828Y13228D01*
X41001Y13259D01*
X52151Y17361D01*
X56733Y19031D01*
X56824Y19070D01*
X60493Y21299D01*
X60540Y21362D01*
X60548Y21373D01*
X60552D01*
X62485Y23834D01*
X62564Y23976D01*
X63958Y27921D01*
X63985Y28082D01*
X64021Y31255D01*
X64012Y31360D02*
X64021Y31255D01*
X63981Y31460D02*
X64012Y31360D01*
X61899Y36295D02*
X63981Y31460D01*
X61856Y36377D02*
X61899Y36295D01*
X61796Y36448D02*
X61856Y36377D01*
X59580Y38716D02*
X61796Y36448D01*
X59430Y38822D02*
X59580Y38716D01*
X55623Y40594D02*
X59430Y38822D01*
X55532Y40630D02*
X55623Y40594D01*
X55434Y40641D02*
X55532Y40630D01*
X51237Y40822D02*
X55434Y40641D01*
X51152Y40822D02*
X51237Y40822D01*
X51068Y40802D02*
X51152Y40822D01*
X47450Y39708D02*
X51068Y40802D01*
X47354Y39668D02*
X47450Y39708D01*
X47269Y39610D02*
X47354Y39668D01*
X44277Y37070D02*
X47269Y39610D01*
X44159Y36928D02*
X44277Y37070D01*
X42832Y34527D02*
X44159Y36928D01*
X42785Y34409D02*
X42832Y34527D01*
X42769Y34283D02*
X42785Y34409D01*
X42603Y33030D02*
X42769Y34283D01*
X42120Y31862D02*
X42603Y33030D01*
X41352Y30858D02*
X42120Y31862D01*
X41044Y30609D02*
X41352Y30858D01*
X40693Y30428D02*
X41044Y30609D01*
X40312Y30322D02*
X40693Y30428D01*
X39989Y30745D02*
X40312Y30322D01*
X39785Y31236D02*
X39989Y30745D01*
X39714Y31763D02*
X39785Y31236D01*
X39714Y31763D02*
X39799Y32399D01*
X40045Y32993D01*
X40434Y33503D01*
X40657Y33674D01*
X40916Y33782D01*
X41194Y33818D01*
X41556Y33857D01*
X41901Y33974D01*
X42212Y34162D01*
X42476Y34413D01*
X42678Y34716D01*
X45450Y39334D01*
X45501Y39448D01*
X46151Y41586D01*
X48159Y47125D01*
X49899Y51098D01*
X50852Y52917D01*
X54103Y58456D01*
X56950Y62350D01*
X59737Y65551D01*
X62021Y68169D01*
X63930Y70255D01*
X64003Y70357D01*
X64048Y70474D01*
X64064Y70598D01*
Y70961D01*
X66069Y72968D01*
X69849Y76417D01*
X73786Y79681D01*
X78848Y83441D01*
X84140Y86913D01*
X89266Y89870D01*
X95108Y92807D01*
X101089Y95366D01*
X106636Y97370D01*
X112904Y99228D01*
X119223Y100689D01*
X125667Y101768D01*
X132167Y102449D01*
X138703Y102736D01*
X144616Y102650D01*
X151175Y102173D01*
X157018Y101500D01*
X162837Y100681D01*
X171577Y99177D01*
X180372Y97331D01*
X189081Y95165D01*
X199443Y92146D01*
X202947Y90933D01*
X206187Y89598D01*
X209337Y88098D01*
X213337Y85866D01*
X217486Y83134D01*
X221187Y80260D01*
X221419Y80425D01*
X221534Y80398D01*
X227018Y75705D01*
X229758Y75681D01*
X241719Y75571D01*
X242041Y75539D01*
X242380Y75433D01*
X242687Y75252D01*
X242943Y75008D01*
X243136Y74713D01*
X243258Y74382D01*
X243301Y74024D01*
X243282Y71819D02*
X243301Y74024D01*
X243238Y71677D02*
X243282Y71819D01*
X243236Y71574D02*
X243238Y71677D01*
X243030Y71575D02*
X243236Y71574D01*
X238203Y71614D02*
X243030Y71575D01*
X234270Y71650D02*
X238203Y71614D01*
X221057Y71772D02*
X234270Y71650D01*
X192502Y72031D02*
X221057Y71772D01*
X132604Y72579D02*
X192502Y72031D01*
X132463Y72622D02*
X132604Y72579D01*
X132352Y83185D02*
X132463Y72622D01*
X131278Y84287D02*
X132352Y83185D01*
X105431Y84287D02*
X131278D01*
X105431Y57335D02*
Y84287D01*
Y57335D02*
X192211Y56539D01*
X220766Y56276D01*
X234128Y56154D01*
X238053Y56118D01*
X242951Y56075D01*
X243730Y55472D01*
X244270Y54756D01*
X244648Y53941D01*
X244841Y53063D01*
X244845Y52165D01*
X244659Y51287D02*
X244845Y52165D01*
X244289Y50468D02*
X244659Y51287D01*
X243754Y49748D02*
X244289Y50468D01*
X243081Y49154D02*
X243754Y49748D01*
X242293Y48717D02*
X243081Y49154D01*
X241565Y48496D02*
X242293Y48717D01*
X241565Y48496D02*
X242089Y46524D01*
X243061Y42004D01*
X243593Y37402D01*
X243675Y32768D01*
X243321Y28303D02*
X243675Y32768D01*
X243321Y28303D02*
X250789Y28236D01*
X251242Y32697D01*
X252258Y37228D01*
X253821Y41606D01*
X255789Y45551D01*
X248160Y45618D02*
X255789Y45551D01*
X248022Y45661D02*
X248160Y45618D01*
X248002Y55921D02*
X248022Y45661D01*
X248002Y55921D02*
X248045Y56059D01*
X256663Y56094D01*
X258124Y56079D01*
X272644Y55945D01*
X274274Y56106D01*
X275833Y56606D01*
X277975Y57846D01*
X279396Y59846D01*
X279471Y68843D01*
X279510Y73307D01*
X279518Y74291D01*
X279553Y78709D01*
X279561Y79394D01*
X279664Y89106D01*
X276140D02*
X279664D01*
X260148Y89130D02*
X276140Y89106D01*
X260065Y79650D02*
X260148Y89130D01*
X260057Y78890D02*
X260065Y79650D01*
X260022Y74472D02*
X260057Y78890D01*
X260014Y73488D02*
X260022Y74472D01*
X259975Y69134D02*
X260014Y73488D01*
X259746Y68886D02*
X259975Y69134D01*
X259136Y68953D02*
X259746Y68886D01*
X258455Y69193D02*
X259136Y68953D01*
X257845Y69583D02*
X258455Y69193D01*
X257341Y70094D02*
X257845Y69583D01*
X256963Y70709D02*
X257341Y70094D01*
X256730Y71390D02*
X256963Y70709D01*
X256671Y71996D02*
X256730Y71390D01*
X256565Y72031D02*
X256671Y71996D01*
X256443Y72098D02*
X256565Y72031D01*
X256337Y72185D02*
X256443Y72098D01*
X256254Y72295D02*
X256337Y72185D01*
X256191Y72421D02*
X256254Y72295D01*
X256191Y72421D02*
X256230Y72957D01*
X256309Y73071D01*
X256412Y73165D01*
X256526Y73240D01*
X256660Y73287D01*
X256766Y83957D01*
X256734Y84291D02*
X256766Y83957D01*
X256632Y84602D02*
X256734Y84291D01*
X256467Y84890D02*
X256632Y84602D01*
X256238Y85130D02*
X256467Y84890D01*
X255967Y85319D02*
X256238Y85130D01*
X255660Y85441D02*
X255967Y85319D01*
X255329Y85496D02*
X255660Y85441D01*
X255199Y85496D02*
X255329D01*
X248963Y85543D02*
X255199Y85496D01*
X248825Y85583D02*
X248963Y85543D01*
X248719Y90752D02*
X248825Y85583D01*
X246793Y91299D02*
X248719Y90752D01*
X244789Y91976D02*
X246793Y91299D01*
X241112Y93532D02*
X244789Y91976D01*
X237636Y95433D02*
X241112Y93532D01*
X229919Y97732D02*
X237636Y95433D01*
X221534Y100256D02*
X229919Y97732D01*
X221372Y100409D02*
X221534Y100256D01*
X202998Y105890D02*
X221372Y100409D01*
X200837Y106532D02*
X202998Y105890D01*
X198569Y107201D02*
X200837Y106532D01*
X196132Y107925D02*
X198569Y107201D01*
X188715Y109941D02*
X196132Y107925D01*
X181667Y111528D02*
X188715Y109941D01*
X174549Y112807D02*
X181667Y111528D01*
X166573Y113866D02*
X174549Y112807D01*
X158557Y114535D02*
X166573Y113866D01*
X139175Y114508D02*
X158557Y114535D01*
X131727Y113874D02*
X139175Y114508D01*
X124309Y112898D02*
X131727Y113874D01*
X116467Y111472D02*
X124309Y112898D01*
X109439Y109846D02*
X116467Y111472D01*
X102482Y107902D02*
X109439Y109846D01*
X94868Y105382D02*
X102482Y107902D01*
X88097Y102776D02*
X94868Y105382D01*
X81459Y99870D02*
X88097Y102776D01*
X75124Y96760D02*
X81459Y99870D01*
X68908Y93366D02*
X75124Y96760D01*
X62837Y89701D02*
X68908Y93366D01*
X57541Y86201D02*
X62837Y89701D01*
X52380Y82500D02*
X57541Y86201D01*
X47392Y78618D02*
X52380Y82500D01*
X43309Y78681D02*
X47392Y78618D01*
X39683Y81850D02*
X43309Y78681D01*
X37628Y83685D02*
X39683Y81850D01*
X36931Y83972D02*
X37628Y83685D01*
X35514Y85126D02*
X36931Y83972D01*
X34415Y86035D02*
X35514Y85126D01*
X32699Y85098D02*
X34415Y86035D01*
X32569Y85039D02*
X32699Y85098D01*
X32187Y84909D02*
X32569Y85039D01*
X31789Y84831D02*
X32187Y84909D01*
X31388Y84803D02*
X31789Y84831D01*
X-31254Y84803D02*
X31388D01*
X-31640Y84827D02*
X-31254Y84803D01*
X-32037Y84902D02*
X-31640Y84827D01*
X-32431Y85031D02*
X-32037Y84902D01*
X-32565Y85091D02*
X-32431Y85031D01*
X-34293Y86043D02*
X-32565Y85091D01*
X-35392Y85130D02*
X-34293Y86043D01*
X-36750Y84012D02*
X-35392Y85130D01*
X-37482Y83705D02*
X-36750Y84012D01*
X-39565Y81850D02*
X-37482Y83705D01*
X-43033Y78748D02*
X-39565Y81850D01*
X-47112Y78567D02*
X-43033Y78748D01*
X-49789Y80614D02*
X-47112Y78567D01*
X-53777Y83614D02*
X-49789Y80614D01*
X-57899Y86528D02*
X-53777Y83614D01*
X-58419Y86882D02*
X-57899Y86528D01*
X-62714Y89697D02*
X-58419Y86882D01*
X-68785Y93362D02*
X-62714Y89697D01*
X-75002Y96756D02*
X-68785Y93362D01*
X-81333Y99866D02*
X-75002Y96756D01*
X-87522Y102586D02*
X-81333Y99866D01*
X-93825Y105043D02*
X-87522Y102586D01*
X-100663Y107374D02*
X-93825Y105043D01*
X-108360Y109594D02*
X-100663Y107374D01*
X-116096Y111417D02*
X-108360Y109594D01*
X-123167Y112728D02*
X-116096Y111417D01*
X-131092Y113815D02*
X-123167Y112728D01*
X-139053Y114504D02*
X-131092Y113815D01*
X-158439Y114532D02*
X-139053Y114504D01*
X-162644Y114232D02*
X-158439Y114532D01*
X-166840Y113823D02*
X-162644Y114232D01*
X-174104Y112858D02*
X-166840Y113823D01*
X-181388Y111559D02*
X-174104Y112858D01*
X-188600Y109941D02*
X-181388Y111559D01*
X-196022Y107921D02*
X-188600Y109941D01*
X-198289Y107252D02*
X-196022Y107921D01*
X-200557Y106579D02*
X-198289Y107252D01*
X-202880Y105890D02*
X-200557Y106579D01*
X-221242Y100453D02*
X-202880Y105890D01*
X-229770Y97740D02*
X-221242Y100453D01*
X-237498Y95441D02*
X-229770Y97740D01*
X-239632Y94224D02*
X-237498Y95441D01*
X-241860Y93126D02*
X-239632Y94224D01*
X-245222Y91780D02*
X-241860Y93126D01*
X-248588Y90768D02*
X-245222Y91780D01*
X-248596Y85791D02*
X-248588Y90768D01*
X-248640Y85654D02*
X-248596Y85791D01*
X-255081Y85496D02*
X-248640Y85654D01*
X-255195Y85496D02*
X-255081D01*
X-255525Y85445D02*
X-255195Y85496D01*
X-255833Y85327D02*
X-255525Y85445D01*
X-256108Y85142D02*
X-255833Y85327D01*
X-256336Y84905D02*
X-256108Y85142D01*
X-256506Y84622D02*
X-256336Y84905D01*
X-256612Y84311D02*
X-256506Y84622D01*
X-256651Y83968D02*
X-256612Y84311D01*
X-256651Y83968D02*
X-256553Y73291D01*
X-256336Y73197D01*
X-256230Y73110D01*
X-256144Y73004D01*
X-256081Y72882D01*
X-256187Y72224D02*
X-256081Y72882D01*
X-256399Y72055D02*
X-256187Y72224D01*
X-256529Y72004D02*
X-256399Y72055D01*
X-256604Y71441D02*
X-256529Y72004D01*
X-256821Y70760D02*
X-256604Y71441D01*
X-257187Y70138D02*
X-256821Y70760D01*
X-257683Y69618D02*
X-257187Y70138D01*
X-258285Y69220D02*
X-257683Y69618D01*
X-258962Y68968D02*
X-258285Y69220D01*
X-259577Y68886D02*
X-258962Y68968D01*
X-259730Y68917D02*
X-259577Y68886D01*
X-259896Y73488D02*
X-259730Y68917D01*
X-259904Y74472D02*
X-259896Y73488D01*
X-259943Y78890D02*
X-259904Y74472D01*
X-259947Y79650D02*
X-259943Y78890D01*
X-260029Y89130D02*
X-259947Y79650D01*
X-275809Y88996D02*
X-260029Y89130D01*
X-279440Y88996D02*
X-275809D01*
X-279440D02*
X-279439Y78713D01*
X-279399Y74295D01*
X-279392Y73311D01*
X-279352Y68843D01*
X-279277Y59846D01*
X-278356Y58543D01*
X-277148Y57441D01*
X-275734Y56614D01*
X-274179Y56110D01*
X-272537Y55949D01*
X-258006Y56079D01*
X-256545Y56094D01*
X-248140Y56169D01*
X-247998Y56130D01*
X-247793Y45874D01*
X-255675Y45551D02*
X-247793Y45874D01*
X-255675Y45551D02*
X-253714Y41634D01*
X-252151Y37260D01*
X-251128Y32728D01*
X-250675Y28236D01*
X-243203Y28303D01*
X-243557Y32740D02*
X-243203Y28303D01*
X-243557Y32740D02*
X-243478Y37374D01*
X-242947Y41976D01*
X-241974Y46512D01*
X-241447Y48496D01*
X-242128Y48697D02*
X-241447Y48496D01*
X-242915Y49122D02*
X-242128Y48697D01*
X-243600Y49705D02*
X-242915Y49122D01*
X-244144Y50421D02*
X-243600Y49705D01*
X-244526Y51236D02*
X-244144Y50421D01*
X-244722Y52110D02*
X-244526Y51236D01*
X-244730Y53008D02*
X-244722Y52110D01*
X-244730Y53008D02*
X-244545Y53890D01*
X-244183Y54709D01*
X-243652Y55433D01*
X-242998Y56012D01*
X-242730Y56075D01*
Y56075D02*
Y56075D01*
Y56075D02*
X-242337Y56078D01*
X-237943Y56118D01*
X-234010Y56154D01*
X-220648Y56276D01*
X-192092Y56539D01*
X-105336Y57335D01*
Y84315D01*
X-131187Y84287D02*
X-105336Y84315D01*
X-132262Y83213D02*
X-131187Y84287D01*
X-132262Y72831D02*
Y83213D01*
X-132301Y72693D02*
X-132262Y72831D01*
X-192384Y72031D02*
X-132301Y72693D01*
X-220943Y71772D02*
X-192384Y72031D01*
X-234152Y71650D02*
X-220943Y71772D01*
X-238081Y71614D02*
X-234152Y71650D01*
X-242482Y71571D02*
X-238081Y71614D01*
X-242876Y71567D02*
X-242482Y71571D01*
X-242876Y71567D02*
Y71567D01*
X-243053Y71610D02*
X-242876Y71567D01*
X-243187Y73996D02*
X-243053Y71610D01*
X-243187Y73996D02*
X-243151Y74323D01*
X-243045Y74661D01*
X-242860Y74964D01*
X-242616Y75217D01*
X-242317Y75409D01*
X-241986Y75528D01*
X-241624Y75567D01*
X-229640Y75681D01*
X-226900Y75705D01*
X-221466Y80362D01*
X-221305Y80425D01*
X-221191Y80398D01*
X-218596Y82240D01*
X-215770Y84248D01*
X-211880Y86661D01*
X-207459Y88964D01*
X-202848Y90925D01*
X-199348Y92142D01*
X-188986Y95157D01*
X-179722Y97449D01*
X-170372Y99382D01*
X-160750Y100972D01*
X-151077Y102169D01*
X-146486Y102547D01*
X-141880Y102724D01*
X-135978Y102669D01*
X-130088Y102283D01*
X-124238Y101579D01*
X-117836Y100425D01*
X-112100Y99039D01*
X-105829Y97138D01*
X-99714Y94862D01*
X-94325Y92492D01*
X-89045Y89815D01*
X-83380Y86512D01*
X-78427Y83228D01*
X-73679Y79685D01*
X-69742Y76425D01*
X-65959Y72980D01*
X-62344Y69358D01*
X-61196Y68040D01*
X-61223Y67470D02*
X-61196Y68040D01*
X-61223Y67470D02*
X-59447Y65435D01*
X-56995Y62620D01*
X-55137Y60258D01*
X-52904Y57045D01*
X-49912Y51864D01*
X-48526Y48911D01*
X-47345Y46033D01*
X-47330Y45987D01*
X-47305Y45946D01*
X-47271Y45910D01*
X-47231Y45884D01*
X-43727Y44864D01*
X-43585Y44656D01*
X-43493Y44421D01*
X-43456Y44172D01*
X-43477Y43920D02*
X-43456Y44172D01*
X-43554Y43680D02*
X-43477Y43920D01*
X-43683Y43463D02*
X-43554Y43680D01*
X-43857Y43281D02*
X-43683Y43463D01*
X-44404Y43281D02*
X-43857D01*
X-48495Y42588D02*
X-44404Y43281D01*
X-48769Y42563D02*
X-48495Y42588D01*
X-49033Y42483D02*
X-48769Y42563D01*
X-49275Y42352D02*
X-49033Y42483D01*
X-49487Y42175D02*
X-49275Y42352D01*
X-56255Y35407D02*
X-49487Y42175D01*
X-57417Y33892D02*
X-56255Y35407D01*
X-58149Y32128D02*
X-57417Y33892D01*
X-58400Y30234D02*
X-58149Y32128D01*
X-58400Y28935D02*
Y30234D01*
X-58427Y28694D02*
X-58400Y28935D01*
X-58506Y28466D02*
X-58427Y28694D01*
X-58635Y28261D02*
X-58506Y28466D01*
X-58806Y28090D02*
X-58635Y28261D01*
X-59010Y27962D02*
X-58806Y28090D01*
X-59239Y27883D02*
X-59010Y27962D01*
X-59479Y27856D02*
X-59239Y27883D01*
X-63097Y27246D02*
X-59479Y27856D01*
X-63621Y27246D02*
X-63097D01*
X-64082Y27194D02*
X-63621Y27246D01*
X-64519Y27041D02*
X-64082Y27194D01*
X-64912Y26794D02*
X-64519Y27041D01*
X-65240Y26466D02*
X-64912Y26794D01*
X-65487Y26074D02*
X-65240Y26466D01*
X-65640Y25636D02*
X-65487Y26074D01*
X-65692Y25175D02*
X-65640Y25636D01*
X-65692Y25175D02*
X-65554Y24021D01*
X-64015Y14911D01*
X-63766Y13801D01*
X-63022Y13053D01*
X-62633Y12756D01*
X-62181Y12569D01*
X-61696Y12506D01*
X-57471Y13187D01*
X-44125Y15443D01*
X-46609Y30136D02*
X-44125Y15443D01*
X-46609Y30136D02*
Y30332D01*
X-46577Y30620D01*
X-46481Y30893D01*
X-46327Y31138D01*
X-46123Y31342D01*
X-45878Y31496D01*
X-45605Y31592D01*
X-45318Y31624D01*
X-44203Y31813D01*
X-41727Y32230D01*
X-36601Y32305D01*
X-33963Y32329D01*
X-33160D01*
X-32712Y32379D01*
X-32286Y32528D01*
X-31903Y32768D01*
X-31584Y33088D01*
X-31344Y33470D01*
X-31195Y33896D01*
X-31144Y34344D01*
X-31995Y38710D02*
X-31144Y34344D01*
X-33861Y40273D02*
X-31995Y38710D01*
X-34448Y40836D02*
X-33861Y40273D01*
X-35727Y42451D02*
X-34448Y40836D01*
X-36522Y43769D02*
X-35727Y42451D01*
X-37066Y44746D02*
X-36522Y43769D01*
X-37416Y45624D02*
X-37066Y44746D01*
X-37762Y46553D02*
X-37416Y45624D01*
X-38066Y47569D02*
X-37762Y46553D01*
X-38333Y48454D02*
X-38066Y47569D01*
X-38463Y49344D02*
X-38333Y48454D01*
X-38574Y50096D02*
X-38463Y49344D01*
X-38593Y51108D02*
X-38574Y50096D01*
X-38593Y51108D02*
Y51970D01*
X-38463Y52848D01*
X-38318Y53797D01*
X-38156Y54864D01*
X-38156Y55011D01*
X-37911Y55779D01*
X-36986Y57598D01*
X-35754Y59291D01*
X-35577Y59429D01*
X-29632Y63516D01*
X-28860Y63898D01*
X-27277Y64626D01*
X-22663Y66366D01*
X-20474Y67000D01*
X-18246Y67528D01*
X-14604Y68138D01*
X-8884Y68500D01*
X8982D01*
X14695Y68142D01*
X16994Y67791D01*
X19246Y67331D01*
X22758Y66374D01*
X27380Y64634D01*
X28971Y63898D01*
X29715Y63535D01*
X35695Y59429D01*
X35809Y59350D01*
X36772Y58097D01*
X36769Y57810D02*
X36772Y58097D01*
D74*
X-276384Y87848D02*
X-275870Y88022D01*
X-276857Y87582D02*
X-276384Y87848D01*
X-277274Y87235D02*
X-276857Y87582D01*
X-277620Y86817D02*
X-277274Y87235D01*
X-277883Y86343D02*
X-277620Y86817D01*
X-278056Y85828D02*
X-277883Y86343D01*
X-278131Y85291D02*
X-278056Y85828D01*
X-278131Y85291D02*
X-278107Y84749D01*
X-277984Y84220D01*
X-277766Y83723D01*
X-277461Y83274D01*
X-277079Y82889D01*
X-276634Y82580D01*
X-276138Y82357D01*
X-275611Y82229D01*
X-275070Y82200D01*
X-274780Y82226D01*
X-274494Y82279D01*
X-273980Y82454D01*
X-273507Y82719D01*
X-273091Y83067D01*
X-272745Y83485D01*
X-272481Y83959D01*
X-272309Y84473D01*
X-272233Y85011D01*
X-272257Y85553D02*
X-272233Y85011D01*
X-272380Y86081D02*
X-272257Y85553D01*
X-272598Y86578D02*
X-272380Y86081D01*
X-272903Y87027D02*
X-272598Y86578D01*
X-273285Y87413D02*
X-272903Y87027D01*
X-273731Y87722D02*
X-273285Y87413D01*
X-274226Y87944D02*
X-273731Y87722D01*
X-274753Y88072D02*
X-274226Y87944D01*
X-275295Y88101D02*
X-274753Y88072D01*
X-275584Y88076D02*
X-275295Y88101D01*
X-275870Y88022D02*
X-275584Y88076D01*
X274497Y82279D02*
X275034Y82202D01*
X275576Y82224D01*
X276105Y82345D01*
X276603Y82561D01*
X277053Y82864D01*
X277439Y83245D01*
X277750Y83689D01*
X277974Y84184D01*
X278104Y84710D01*
X278135Y85252D01*
X278067Y85790D02*
X278135Y85252D01*
X277902Y86307D02*
X278067Y85790D01*
X277644Y86785D02*
X277902Y86307D01*
X277304Y87207D02*
X277644Y86785D01*
X276892Y87560D02*
X277304Y87207D01*
X276422Y87832D02*
X276892Y87560D01*
X276152Y87941D02*
X276422Y87832D01*
X275873Y88022D02*
X276152Y87941D01*
X275336Y88100D02*
X275873Y88022D01*
X274794Y88077D02*
X275336Y88100D01*
X274265Y87956D02*
X274794Y88077D01*
X273767Y87741D02*
X274265Y87956D01*
X273318Y87437D02*
X273767Y87741D01*
X272931Y87057D02*
X273318Y87437D01*
X272620Y86612D02*
X272931Y87057D01*
X272396Y86118D02*
X272620Y86612D01*
X272266Y85591D02*
X272396Y86118D01*
X272235Y85049D02*
X272266Y85591D01*
X272235Y85049D02*
X272303Y84511D01*
X272469Y83994D01*
X272726Y83517D01*
X273066Y83094D01*
X273478Y82741D01*
X273948Y82470D01*
X274218Y82361D01*
X274497Y82279D01*
M02*
