G04*
G04 #@! TF.GenerationSoftware,Altium Limited,Altium Designer,19.1.5 (86)*
G04*
G04 Layer_Color=32896*
%FSLAX25Y25*%
%MOIN*%
G70*
G01*
G75*
%ADD12C,0.00600*%
%ADD13C,0.00394*%
D12*
X-32546Y50799D02*
X-31133Y49385D01*
X-31839Y48679D01*
X-32311Y48679D01*
X-32546Y48914D01*
X-32546Y49385D01*
X-31839Y50092D01*
X-32546Y49385D01*
X-33018D01*
X-33253Y49621D01*
Y50092D01*
X-32546Y50799D01*
X-33960Y49385D02*
X-32546Y47972D01*
X-33489Y47029D01*
X-35374Y47972D02*
X-35845Y47501D01*
X-35609Y47736D01*
X-34196Y46322D01*
X-33960Y46558D01*
X-34431Y46087D01*
X-35138Y45380D02*
X-36552Y46794D01*
X-36081Y44437D01*
X-37495Y45851D01*
X-37966Y45380D02*
X-36552Y43966D01*
X-37023Y44437D01*
X-38908D01*
X-37495D01*
Y43024D01*
X-37730Y42317D02*
X-38673Y41374D01*
X-41500Y41374D02*
Y41845D01*
X-41029Y42317D01*
X-40558Y42317D01*
X-39615Y41374D01*
Y40903D01*
X-40086Y40432D01*
X-40558Y40432D01*
X-40793Y39725D02*
X-41736Y40667D01*
X-42678D01*
Y39725D01*
X-41736Y38782D01*
X-42443Y39489D01*
X-41500Y40432D01*
X-43621Y39725D02*
X-44563Y38782D01*
X-44092Y39254D01*
X-42678Y37840D01*
X-45035Y38311D02*
X-43621Y36897D01*
X-44328Y37604D01*
X-45270Y36662D01*
X-45977Y37369D01*
X-44563Y35955D01*
X-47155Y36190D02*
X-46684Y36662D01*
X-46213D01*
X-45270Y35719D01*
Y35248D01*
X-45741Y34777D01*
X-46213Y34777D01*
X-47155Y35719D01*
Y36190D01*
X-47862Y35484D02*
X-46448Y34070D01*
X-47155Y33363D01*
X-47626Y33363D01*
X-48569Y34305D01*
Y34777D01*
X-47862Y35484D01*
X-50218Y33127D02*
X-49276Y34070D01*
X-47862Y32656D01*
X-48805Y31714D01*
X-48569Y33363D02*
X-49040Y32892D01*
X-54466Y45379D02*
Y45850D01*
X-53995Y46321D01*
X-53524Y46321D01*
X-52582Y45379D01*
Y44907D01*
X-53053Y44436D01*
X-53524Y44436D01*
X-53995Y44907D01*
X-53524Y45379D01*
X-53760Y43729D02*
X-55173Y45143D01*
X-54702Y42787D01*
X-56116Y44200D01*
X-56587Y43729D02*
X-55173Y42315D01*
X-55880Y41608D01*
X-56352Y41609D01*
X-57294Y42551D01*
Y43022D01*
X-56587Y43729D01*
X-42446Y49385D02*
X-41032Y47971D01*
X-41739Y47264D01*
X-42210Y47264D01*
X-42446Y47500D01*
X-42446Y47971D01*
X-41739Y48678D01*
X-42446Y47971D01*
X-42917D01*
X-43153Y48207D01*
Y48678D01*
X-42446Y49385D01*
X-43860Y47971D02*
X-42446Y46558D01*
X-43388Y45615D01*
X-45273Y46558D02*
X-45745Y46086D01*
X-45509Y46322D01*
X-44095Y44908D01*
X-43860Y45144D01*
X-44331Y44673D01*
X-45038Y43966D02*
X-46452Y45379D01*
X-45980Y43023D01*
X-47394Y44437D01*
X-47865Y43966D02*
X-46452Y42552D01*
X-46923Y43023D01*
X-48808D01*
X-47394D01*
Y41609D01*
X-47630Y40903D02*
X-48572Y39960D01*
X-51400Y39960D02*
Y40431D01*
X-50928Y40903D01*
X-50457Y40903D01*
X-50222Y40667D01*
X-50222Y40196D01*
X-50693Y39724D01*
Y39253D01*
X-50457Y39018D01*
X-49986Y39018D01*
X-49515Y39489D01*
Y39960D01*
X-52107Y39724D02*
X-52578Y39253D01*
X-52342Y39489D01*
X-50928Y38075D01*
X-50693Y38311D01*
X-51164Y37839D01*
X-53992Y37368D02*
Y37839D01*
X-53520Y38311D01*
X-53049D01*
X-52107Y37368D01*
Y36897D01*
X-52578Y36426D01*
X-53049Y36426D01*
X-53520Y36897D01*
X-53049Y37368D01*
X-34803Y41742D02*
X-33389Y40328D01*
X-34096Y39621D01*
X-34567Y39621D01*
X-34803Y39857D01*
X-34803Y40328D01*
X-34096Y41035D01*
X-34803Y40328D01*
X-35274D01*
X-35510Y40564D01*
Y41035D01*
X-34803Y41742D01*
X-36217Y40328D02*
X-34803Y38915D01*
X-35745Y37972D01*
X-37631Y38915D02*
X-38102Y38443D01*
X-37866Y38679D01*
X-36452Y37265D01*
X-36217Y37501D01*
X-36688Y37030D01*
X-37395Y36323D02*
X-38809Y37736D01*
X-38337Y35380D01*
X-39751Y36794D01*
X-40222Y36323D02*
X-38809Y34909D01*
X-39280Y35380D01*
X-41165D01*
X-39751D01*
Y33966D01*
X-39987Y33260D02*
X-40929Y32317D01*
X-41636Y32081D02*
X-43050Y33495D01*
X-43757Y32788D01*
Y32317D01*
X-43286Y31846D01*
X-42814Y31846D01*
X-42107Y32553D01*
X-44464Y32081D02*
X-43050Y30668D01*
X-43992D01*
Y29725D01*
X-45406Y31139D01*
X-44464Y29254D02*
X-45877Y30668D01*
Y29725D01*
X-46820D01*
X-45406Y28311D01*
X47364Y28396D02*
X46600Y29488D01*
X46982Y28942D01*
X45344Y27795D01*
X44579Y28887D02*
X46217Y30034D01*
X45644Y30853D01*
X45180Y30935D01*
X44634Y30552D01*
X44552Y30088D01*
X45125Y29269D01*
X43160Y30334D02*
X42395Y31426D01*
X43924Y33309D02*
X43159Y34401D01*
X43541Y33855D01*
X41904Y32708D01*
X42777Y34947D02*
X41139Y33800D01*
X41958Y34374D01*
X41194Y35466D01*
X42012Y36039D01*
X40375Y34892D01*
X40866Y37677D02*
X41630Y36585D01*
X39992Y35438D01*
X39228Y36530D01*
X40811Y36011D02*
X40429Y36557D01*
X38846Y37076D02*
X40483Y38223D01*
X39910Y39042D01*
X39446Y39123D01*
X38900Y38741D01*
X38818Y38277D01*
X39391Y37458D01*
X39009Y38004D02*
X38081Y38168D01*
X37699Y38714D02*
X39336Y39860D01*
X38408Y40024D01*
X38572Y40952D01*
X36934Y39805D01*
X38190Y41498D02*
X37808Y42044D01*
X37999Y41771D01*
X36361Y40624D01*
X36552Y40352D01*
X36170Y40897D01*
X36197Y43764D02*
X36661Y43682D01*
X37043Y43136D01*
X36961Y42672D01*
X36688Y42481D01*
X36224Y42563D01*
X35842Y43109D01*
X35378Y43190D01*
X35105Y42999D01*
X35023Y42535D01*
X35405Y41989D01*
X35869Y41907D01*
X36087Y44501D02*
X35323Y45593D01*
X35705Y45047D01*
X34067Y43900D01*
X34367Y46957D02*
X34749Y46412D01*
X34668Y45948D01*
X33576Y45183D01*
X33112Y45265D01*
X32729Y45811D01*
X32811Y46275D01*
X33903Y47039D01*
X34367Y46957D01*
X32156Y46630D02*
X33794Y47776D01*
X33220Y48595D01*
X32756Y48677D01*
X32210Y48295D01*
X32129Y47831D01*
X32702Y47012D01*
X32320Y47558D02*
X31392Y47721D01*
X50551Y32981D02*
X49786Y34073D01*
X50168Y33527D01*
X48531Y32380D01*
X47766Y33472D02*
X49404Y34619D01*
X48830Y35438D01*
X48366Y35519D01*
X47820Y35137D01*
X47739Y34673D01*
X48312Y33854D01*
X46346Y34919D02*
X45582Y36010D01*
X45472Y36748D02*
X47110Y37894D01*
X44708Y37839D01*
X46346Y38986D01*
X45390Y40351D02*
X45772Y39805D01*
X45691Y39341D01*
X44599Y38576D01*
X44135Y38658D01*
X43752Y39204D01*
X43834Y39668D01*
X44926Y40433D01*
X45390Y40351D01*
X43779Y42070D02*
X44243Y41989D01*
X44625Y41443D01*
X44544Y40979D01*
X44271Y40788D01*
X43807Y40869D01*
X43424Y41415D01*
X42960Y41497D01*
X42687Y41306D01*
X42606Y40842D01*
X42988Y40296D01*
X43452Y40214D01*
X42905Y43899D02*
X43670Y42808D01*
X42032Y41661D01*
X41268Y42753D01*
X42851Y42234D02*
X42469Y42780D01*
X40612Y43108D02*
X39848Y44199D01*
X40339Y46984D02*
X40803Y46902D01*
X41185Y46356D01*
X41103Y45892D01*
X40012Y45127D01*
X39547Y45209D01*
X39165Y45755D01*
X39247Y46219D01*
X39793Y46602D01*
X40175Y46056D01*
X38592Y46574D02*
X40229Y47721D01*
X37827Y47666D01*
X39465Y48813D01*
X39083Y49359D02*
X37445Y48212D01*
X36872Y49031D01*
X36953Y49495D01*
X38045Y50259D01*
X38509Y50178D01*
X39083Y49359D01*
X56431Y43666D02*
X56895Y43584D01*
X57278Y43038D01*
X57196Y42574D01*
X56104Y41809D01*
X55640Y41891D01*
X55257Y42437D01*
X55339Y42901D01*
X55885Y43283D01*
X56267Y42737D01*
X54684Y43256D02*
X56322Y44403D01*
X53920Y44348D01*
X55557Y45494D01*
X55175Y46040D02*
X53537Y44894D01*
X52964Y45712D01*
X53046Y46176D01*
X54138Y46941D01*
X54602Y46859D01*
X55175Y46040D01*
X54377Y38238D02*
X53612Y39329D01*
X53995Y38783D01*
X52357Y37637D01*
X51592Y38728D02*
X53230Y39875D01*
X52657Y40694D01*
X52193Y40776D01*
X51647Y40394D01*
X51565Y39930D01*
X52138Y39111D01*
X50173Y40175D02*
X49408Y41267D01*
X49299Y42004D02*
X50937Y43151D01*
X48534Y43096D01*
X50172Y44243D01*
X49216Y45607D02*
X49599Y45061D01*
X49517Y44597D01*
X48425Y43833D01*
X47961Y43915D01*
X47579Y44461D01*
X47660Y44925D01*
X48752Y45689D01*
X49216Y45607D01*
X47606Y47327D02*
X48070Y47245D01*
X48452Y46699D01*
X48370Y46235D01*
X48097Y46044D01*
X47633Y46126D01*
X47251Y46672D01*
X46787Y46754D01*
X46514Y46562D01*
X46432Y46098D01*
X46814Y45553D01*
X47278Y45471D01*
X46732Y49156D02*
X47496Y48064D01*
X45858Y46917D01*
X45094Y48009D01*
X46677Y47491D02*
X46295Y48037D01*
X278580Y50970D02*
Y47971D01*
X276581D01*
X273582Y50970D02*
X275581D01*
Y47971D01*
X273582D01*
X275581Y49470D02*
X274581D01*
X272582Y50970D02*
Y47971D01*
X271083D01*
X270583Y48471D01*
Y50470D01*
X271083Y50970D01*
X272582D01*
X267584D02*
X268583Y50470D01*
X269583Y49470D01*
Y48471D01*
X269083Y47971D01*
X268084D01*
X267584Y48471D01*
Y48971D01*
X268084Y49470D01*
X269583D01*
X-267800Y51799D02*
Y48800D01*
X-269799D01*
X-272798Y51799D02*
X-270799D01*
Y48800D01*
X-272798D01*
X-270799Y50300D02*
X-271799D01*
X-273798Y51799D02*
Y48800D01*
X-275298D01*
X-275797Y49300D01*
Y51299D01*
X-275298Y51799D01*
X-273798D01*
X-278796D02*
X-276797D01*
Y50300D01*
X-277797Y50799D01*
X-278297D01*
X-278796Y50300D01*
Y49300D01*
X-278297Y48800D01*
X-277297D01*
X-276797Y49300D01*
X-19770Y50778D02*
Y47779D01*
X-21269D01*
X-21769Y48278D01*
Y50278D01*
X-21269Y50778D01*
X-19770D01*
X-22769Y47779D02*
X-23768D01*
X-23268D01*
Y50778D01*
X-22769Y50278D01*
D13*
X10394Y53606D02*
G03*
X10394Y53606I-197J0D01*
G01*
X-342Y40026D02*
X329D01*
X-342Y55774D02*
X329D01*
M02*
