G04*
G04 #@! TF.GenerationSoftware,Altium Limited,Altium Designer,19.1.5 (86)*
G04*
G04 Layer_Physical_Order=3*
G04 Layer_Color=14461039*
%FSLAX25Y25*%
%MOIN*%
G70*
G01*
G75*
%ADD10C,0.01000*%
%ADD12C,0.00600*%
%ADD14C,0.00800*%
G04:AMPARAMS|DCode=39|XSize=55.12mil|YSize=78.74mil|CornerRadius=0mil|HoleSize=0mil|Usage=FLASHONLY|Rotation=235.000|XOffset=0mil|YOffset=0mil|HoleType=Round|Shape=Round|*
%AMOVALD39*
21,1,0.02362,0.05512,0.00000,0.00000,325.0*
1,1,0.05512,-0.00968,0.00677*
1,1,0.05512,0.00968,-0.00677*
%
%ADD39OVALD39*%

G04:AMPARAMS|DCode=40|XSize=55.12mil|YSize=78.74mil|CornerRadius=0mil|HoleSize=0mil|Usage=FLASHONLY|Rotation=125.000|XOffset=0mil|YOffset=0mil|HoleType=Round|Shape=Round|*
%AMOVALD40*
21,1,0.02362,0.05512,0.00000,0.00000,215.0*
1,1,0.05512,0.00968,0.00677*
1,1,0.05512,-0.00968,-0.00677*
%
%ADD40OVALD40*%

%ADD41C,0.01600*%
%ADD43C,0.02400*%
%ADD44C,0.01200*%
%ADD45C,0.02000*%
%ADD47R,0.01181X0.03937*%
%ADD48C,0.02500*%
%ADD49C,0.01500*%
%ADD50C,0.01200*%
%ADD51C,0.01600*%
D10*
X281696Y61617D02*
G03*
X282696Y62611I0J1000D01*
G01*
X281696Y61617D02*
G03*
X282696Y62608I0J1000D01*
G01*
X278430Y59671D02*
G03*
X279137Y59964I0J1000D01*
G01*
X226836Y71080D02*
G03*
X227277Y70802I735J678D01*
G01*
X226836Y71080D02*
G03*
X227277Y70802I735J678D01*
G01*
X226836Y71080D02*
G03*
X227277Y70802I735J678D01*
G01*
X226836Y71080D02*
G03*
X227277Y70802I735J678D01*
G01*
X226836Y71080D02*
G03*
X227277Y70802I735J678D01*
G01*
X278430Y59671D02*
G03*
X279137Y59964I0J1000D01*
G01*
X285649Y51487D02*
G03*
X284775Y50503I127J-992D01*
G01*
X285649Y51487D02*
G03*
X284775Y50500I127J-992D01*
G01*
X253928Y57082D02*
G03*
X254921Y56081I1000J-1D01*
G01*
X253928Y57082D02*
G03*
X254924Y56081I1000J-1D01*
G01*
X269300Y53851D02*
G03*
X266615Y55237I-1700J0D01*
G01*
X266591Y52483D02*
G03*
X269300Y53851I1009J1368D01*
G01*
X277379Y53551D02*
G03*
X277379Y53551I-1700J0D01*
G01*
X251598Y49665D02*
G03*
X250254Y50222I-1343J-1343D01*
G01*
X252775Y47701D02*
G03*
X252216Y49047I-1900J0D01*
G01*
X252775Y47701D02*
G03*
X252219Y49044I-1900J0D01*
G01*
X251601Y49662D02*
G03*
X250254Y50222I-1346J-1341D01*
G01*
X42304Y54708D02*
G03*
X42568Y54552I637J771D01*
G01*
X42302Y54710D02*
G03*
X42568Y54552I639J769D01*
G01*
X53039Y49107D02*
G03*
X53684Y49319I30J1000D01*
G01*
X48632Y49412D02*
G03*
X49191Y49221I588J809D01*
G01*
X53036Y49108D02*
G03*
X53683Y49318I32J1000D01*
G01*
X48632Y49412D02*
G03*
X49194Y49221I588J809D01*
G01*
X48970Y48626D02*
G03*
X48632Y49412I-1681J-256D01*
G01*
X278026Y37359D02*
G03*
X275569Y36764I-1300J0D01*
G01*
X271824Y36721D02*
G03*
X269773Y37783I-1300J0D01*
G01*
X277849Y36705D02*
G03*
X278026Y37359I-1124J654D01*
G01*
X277993Y36111D02*
G03*
X277849Y36705I-1300J0D01*
G01*
X270198Y35463D02*
G03*
X271824Y36721I326J1259D01*
G01*
X275569Y36764D02*
G03*
X277993Y36111I1124J-654D01*
G01*
X269773Y37783D02*
G03*
X267843Y36157I-763J-1052D01*
G01*
Y36157D02*
G03*
X267605Y35518I1057J-757D01*
G01*
X267770Y34757D02*
G03*
X270200Y35400I1130J643D01*
G01*
X265341Y39452D02*
G03*
X266489Y40433I147J989D01*
G01*
X265343Y39452D02*
G03*
X266489Y40436I145J989D01*
G01*
X261882Y35621D02*
G03*
X263833Y37302I251J1681D01*
G01*
D02*
G03*
X260839Y36199I-1700J0D01*
G01*
X267605Y35518D02*
G03*
X265611Y35846I-1130J-643D01*
G01*
D02*
G03*
X263578Y34859I-736J-1072D01*
G01*
X263578D02*
G03*
X262091Y35049I-878J-959D01*
G01*
X257073Y38045D02*
G03*
X257073Y38045I-1700J0D01*
G01*
X262091Y35049D02*
G03*
X261882Y35621I-1292J-149D01*
G01*
X260839Y36199D02*
G03*
X261408Y33751I-39J-1299D01*
G01*
X272700Y33700D02*
G03*
X272700Y33700I-1300J0D01*
G01*
X266128Y33622D02*
G03*
X267770Y34757I347J1253D01*
G01*
X265900Y32475D02*
G03*
X266175Y33275I-1025J800D01*
G01*
D02*
G03*
X266128Y33622I-1300J0D01*
G01*
X263611Y32972D02*
G03*
X263850Y32475I1264J302D01*
G01*
X261408Y33751D02*
G03*
X263611Y32972I1292J149D01*
G01*
X266175Y31675D02*
G03*
X265900Y32475I-1300J0D01*
G01*
X263850D02*
G03*
X263580Y31781I1025J-800D01*
G01*
X264004Y30710D02*
G03*
X266175Y31675I872J965D01*
G01*
X263580Y31781D02*
G03*
X264004Y30710I-872J-965D01*
G01*
X276996Y27798D02*
G03*
X277900Y29300I-797J1502D01*
G01*
D02*
G03*
X275376Y27813I-1700J0D01*
G01*
X261156Y31161D02*
G03*
X257761Y31286I-1700J0D01*
G01*
X259700Y29478D02*
G03*
X261156Y31161I-244J1682D01*
G01*
X255242Y31648D02*
G03*
X255798Y32991I-1343J1343D01*
G01*
X257761Y31286D02*
G03*
X257511Y27976I244J-1682D01*
G01*
X255798Y32991D02*
G03*
X252555Y34335I-1900J0D01*
G01*
X258468Y27968D02*
G03*
X259700Y29478I-463J1636D01*
G01*
X243592Y50222D02*
G03*
X240732Y47470I-1906J-881D01*
G01*
X254775Y42921D02*
G03*
X252775Y44594I-1700J0D01*
G01*
X252759Y41251D02*
G03*
X254775Y42921I316J1670D01*
G01*
X252684Y40919D02*
G03*
X252759Y41251I-1809J581D01*
G01*
X252684Y40919D02*
G03*
X252759Y41251I-1809J581D01*
G01*
X250530Y39024D02*
G03*
X252684Y40919I20J2150D01*
G01*
X62028Y42904D02*
G03*
X55612Y37896I-2441J-3486D01*
G01*
X65747Y38575D02*
G03*
X63963Y41550I-4225J-512D01*
G01*
X48533Y47211D02*
G03*
X51914Y47468I1681J256D01*
G01*
D02*
G03*
X48970Y48626I-1700J0D01*
G01*
X48154Y49834D02*
G03*
X48533Y47211I-864J-1464D01*
G01*
X253110Y36290D02*
G03*
X253110Y36290I-1700J0D01*
G01*
X254226Y28006D02*
G03*
X253217Y27016I-9J-1000D01*
G01*
X254226Y28006D02*
G03*
X253217Y27016I-9J-1000D01*
G01*
X250486Y27100D02*
G03*
X251111Y27517I-722J1758D01*
G01*
X250486Y27100D02*
G03*
X251108Y27514I-722J1758D01*
G01*
X250213Y26936D02*
G03*
X250486Y27100I-965J1921D01*
G01*
X253127Y17168D02*
G03*
X254117Y16158I1000J-9D01*
G01*
X253127Y17168D02*
G03*
X254117Y16158I1000J-9D01*
G01*
X253458Y9378D02*
G03*
X254400Y10900I-758J1522D01*
G01*
D02*
G03*
X251474Y9723I-1700J0D01*
G01*
X253931Y8201D02*
G03*
X253458Y9378I-1700J0D01*
G01*
X251474Y9723D02*
G03*
X253931Y8201I758J-1522D01*
G01*
X55612Y37896D02*
G03*
X52646Y32743I361J-3638D01*
G01*
D02*
G03*
X49033Y27583I-286J-3645D01*
G01*
X42259Y30861D02*
G03*
X42024Y31084I-798J-603D01*
G01*
X42260Y30858D02*
G03*
X42026Y31082I-799J-601D01*
G01*
X49033Y27583D02*
G03*
X45185Y24760I-286J-3645D01*
G01*
X-42528Y54554D02*
G03*
X-42269Y54710I-380J925D01*
G01*
X-42528Y54554D02*
G03*
X-42271Y54708I-380J925D01*
G01*
X-49158Y49221D02*
G03*
X-48519Y49477I-30J1000D01*
G01*
X-49160Y49221D02*
G03*
X-48520Y49476I-27J1000D01*
G01*
X-45101Y47500D02*
G03*
X-45101Y47500I-1700J0D01*
G01*
X-48700Y47300D02*
G03*
X-48700Y47300I-1700J0D01*
G01*
X-53651Y49319D02*
G03*
X-53005Y49107I616J788D01*
G01*
X-53648Y49318D02*
G03*
X-53003Y49108I614J789D01*
G01*
X-227250Y70800D02*
G03*
X-226802Y71081I-288J958D01*
G01*
X-227252Y70799D02*
G03*
X-226802Y71081I-286J958D01*
G01*
X-254890Y56081D02*
G03*
X-253894Y57081I-4J1000D01*
G01*
X-254887Y56081D02*
G03*
X-253894Y57081I-7J1000D01*
G01*
X-282660Y60536D02*
G03*
X-282385Y59848I1000J1D01*
G01*
X-282660Y60536D02*
G03*
X-282385Y59848I1000J1D01*
G01*
X-284742Y50503D02*
G03*
X-285621Y51487I-1000J-8D01*
G01*
X-284742Y50500D02*
G03*
X-285619Y51487I-1000J-6D01*
G01*
X-249900Y44200D02*
G03*
X-252831Y43027I-1700J0D01*
G01*
X-250128Y43349D02*
G03*
X-249900Y44200I-1472J851D01*
G01*
X-55330Y39417D02*
G03*
X-62027Y42904I-4256J0D01*
G01*
X-252831Y43027D02*
G03*
X-251699Y39049I1132J-1828D01*
G01*
X-63962Y41549D02*
G03*
X-65742Y38609I2441J-3486D01*
G01*
X-55611Y37896D02*
G03*
X-55330Y39417I-3974J1522D01*
G01*
X-52317Y34258D02*
G03*
X-55611Y37896I-3656J0D01*
G01*
X-52646Y32742D02*
G03*
X-52317Y34258I-3327J1515D01*
G01*
X-249527Y34022D02*
G03*
X-249150Y35089I-1323J1067D01*
G01*
X-248816Y32639D02*
G03*
X-249527Y34022I-1700J0D01*
G01*
X-248734Y31021D02*
G03*
X-249253Y30953I20J-2150D01*
G01*
X-249545Y31244D02*
G03*
X-248816Y32639I-971J1395D01*
G01*
X-41992Y31083D02*
G03*
X-42234Y30848I566J-825D01*
G01*
X-41992Y31083D02*
G03*
X-42233Y30849I566J-825D01*
G01*
X-49033Y27582D02*
G03*
X-48704Y29097I-3327J1515D01*
G01*
X-45173Y24706D02*
G03*
X-49033Y27582I-3574J-769D01*
G01*
X-48704Y29097D02*
G03*
X-52646Y32742I-3656J0D01*
G01*
X-249150Y35089D02*
G03*
X-251839Y33707I-1700J0D01*
G01*
X-251205Y27530D02*
G03*
X-250126Y26990I1346J1341D01*
G01*
X-251202Y27527D02*
G03*
X-250126Y26990I1343J1343D01*
G01*
X-251000Y10300D02*
G03*
X-251000Y10300I-1700J0D01*
G01*
X-250926Y6626D02*
G03*
X-250926Y6626I-1700J0D01*
G01*
X-259800Y40100D02*
G03*
X-262192Y41653I-1700J0D01*
G01*
X-259839Y39737D02*
G03*
X-259800Y40100I-1661J363D01*
G01*
X-258870Y38202D02*
G03*
X-259839Y39737I-1700J0D01*
G01*
X-260384Y36512D02*
G03*
X-258870Y38202I-186J1690D01*
G01*
X-266455Y40433D02*
G03*
X-265308Y39452I1000J8D01*
G01*
X-266455Y40436D02*
G03*
X-265310Y39452I1000J6D01*
G01*
X-263182Y40347D02*
G03*
X-262231Y38565I1682J-247D01*
G01*
D02*
G03*
X-262246Y37918I1661J-363D01*
G01*
X-255290Y35088D02*
G03*
X-256633Y35645I-1343J-1343D01*
G01*
X-255287Y35085D02*
G03*
X-256633Y35645I-1346J-1341D01*
G01*
X-258974Y35299D02*
G03*
X-260368Y36062I-1419J-937D01*
G01*
X-257881Y35645D02*
G03*
X-258974Y35299I0J-1900D01*
G01*
X-262084Y34529D02*
G03*
X-259570Y32874I1692J-166D01*
G01*
X-262246Y37918D02*
G03*
X-262084Y34529I186J-1690D01*
G01*
X-271800Y35300D02*
G03*
X-273900Y36325I-1300J0D01*
G01*
Y34275D02*
G03*
X-271800Y35300I800J1025D01*
G01*
X-278500Y38817D02*
G03*
X-281705Y39609I-1700J0D01*
G01*
X-281705D02*
G03*
X-284650Y39688I-1495J-809D01*
G01*
X-281695Y38009D02*
G03*
X-278500Y38817I1495J809D01*
G01*
X-284634Y37888D02*
G03*
X-281695Y38009I1434J912D01*
G01*
X-277236Y36202D02*
G03*
X-279329Y34899I-1264J-302D01*
G01*
X-273900Y36325D02*
G03*
X-275500Y36325I-800J-1025D01*
G01*
D02*
G03*
X-277236Y36202I-800J-1025D01*
G01*
X-277564Y34997D02*
G03*
X-275500Y34275I1264J302D01*
G01*
X-279329Y34899D02*
G03*
X-279647Y34507I832J-999D01*
G01*
X-277206Y34057D02*
G03*
X-277668Y34901I-1290J-157D01*
G01*
X-280357Y35164D02*
G03*
X-280300Y35600I-1643J436D01*
G01*
D02*
G03*
X-282622Y34018I-1700J0D01*
G01*
X-279647Y34507D02*
G03*
X-280357Y35164I-1175J-557D01*
G01*
X-251861Y33679D02*
G03*
X-253068Y34111I-1207J-1467D01*
G01*
X-251861Y33679D02*
G03*
X-253068Y34111I-1207J-1467D01*
G01*
X-253184Y27016D02*
G03*
X-254193Y28006I-1000J-9D01*
G01*
X-253184Y27016D02*
G03*
X-254193Y28006I-1000J-9D01*
G01*
X-259570Y32874D02*
G03*
X-257881Y31844I1689J871D01*
G01*
X-256446Y30871D02*
G03*
X-255100Y30311I1346J1341D01*
G01*
X-256444Y30868D02*
G03*
X-255100Y30311I1343J1343D01*
G01*
X-254084Y16158D02*
G03*
X-253093Y17158I-9J1000D01*
G01*
X-254084Y16158D02*
G03*
X-253093Y17158I-9J1000D01*
G01*
X-275500Y34275D02*
G03*
X-273900Y34275I800J1025D01*
G01*
X-276500Y32900D02*
G03*
X-277206Y34057I-1300J0D01*
G01*
X-269100Y31800D02*
G03*
X-269100Y31800I-1700J0D01*
G01*
X-279090Y32743D02*
G03*
X-276500Y32900I1290J157D01*
G01*
X-264005Y31420D02*
G03*
X-264005Y31420I-1700J0D01*
G01*
X-279672Y33343D02*
G03*
X-279090Y32743I1175J557D01*
G01*
X-280429Y32711D02*
G03*
X-279672Y33343I-393J1239D01*
G01*
X-280400Y32400D02*
G03*
X-280429Y32711I-1700J0D01*
G01*
X-282622Y34018D02*
G03*
X-280400Y32400I522J-1618D01*
G01*
X283653Y63807D02*
X285471Y63617D01*
X282706Y63815D02*
X283653Y63807D01*
X285471Y63617D02*
X287185Y63102D01*
X282703Y63407D02*
X283107Y63811D01*
X282696Y62611D02*
X282706Y63815D01*
X287185Y63102D02*
X288404Y62466D01*
X285601Y63578D02*
X288403Y60776D01*
X281365Y60080D02*
X281922Y60001D01*
X248069Y63502D02*
X250000Y62714D01*
X246136Y64411D02*
X248021Y63523D01*
X250079Y62685D02*
X253931Y61477D01*
X235568Y68305D02*
X243227Y66029D01*
X246076Y64442D01*
X280790Y61617D02*
X281696D01*
X280659Y60063D02*
X281195Y60088D01*
X279933Y60760D02*
X280636Y60057D01*
X253682Y61556D02*
X253931Y61306D01*
X279137Y59964D02*
X280790Y61617D01*
X282705Y63645D02*
X288401Y57950D01*
X283870Y58917D02*
X287756Y62804D01*
X288398Y54318D02*
X288404Y62466D01*
X282087Y59963D02*
X285678Y63555D01*
X243960Y65621D02*
X261913Y47667D01*
X284867Y57086D02*
X288403Y60622D01*
X280011Y59930D02*
X280499Y60041D01*
X281887Y61635D02*
X288399Y55123D01*
X253928Y57082D02*
X253931Y61477D01*
X231593Y69503D02*
X251046Y50049D01*
X229818Y50120D02*
X244832Y65135D01*
X231409Y48883D02*
X246680Y64155D01*
X228226Y51357D02*
X242973Y66105D01*
X227545Y70721D02*
X248045Y50222D01*
X249485Y62924D02*
X253929Y58480D01*
X244061Y50222D02*
X253930Y60091D01*
X242345Y51334D02*
X252833Y61822D01*
X233001Y47646D02*
X248628Y63274D01*
X208679Y76456D02*
X226836Y71080D01*
X208632Y62876D02*
X219121Y73365D01*
X204394Y64295D02*
X214756Y74657D01*
X206544Y63616D02*
X216938Y74011D01*
X227285Y70800D02*
X235562Y68307D01*
X206517Y77096D02*
X208675Y76457D01*
X204252Y77767D02*
X206514Y77098D01*
X197838Y66224D02*
X208209Y76595D01*
X195623Y66838D02*
X206027Y77242D01*
X188050Y81933D02*
X206280Y63703D01*
X205519Y63949D02*
X206415Y63659D01*
X206441Y63651D02*
X207327Y63350D01*
X200043Y65600D02*
X210392Y75949D01*
X202229Y64958D02*
X212574Y75303D01*
X219298Y73312D02*
X241221Y51389D01*
X218235Y58337D02*
X229908Y70010D01*
X223316Y72122D02*
X245217Y50222D01*
X216419Y59349D02*
X227734Y70664D01*
X215280Y74502D02*
X239716Y50066D01*
X225043Y53831D02*
X238613Y67401D01*
X223431Y55048D02*
X236432Y68049D01*
X226635Y52594D02*
X240793Y66753D01*
X220020Y57293D02*
X232082Y69355D01*
X221726Y56171D02*
X234256Y68701D01*
X212639Y61226D02*
X223485Y72072D01*
X210651Y62066D02*
X221303Y72718D01*
X199238Y79230D02*
X223400Y55068D01*
X191699Y81112D02*
X210812Y61999D01*
X195387Y80253D02*
X216131Y59509D01*
X214554Y60313D02*
X225668Y71426D01*
X212348Y61365D02*
X215454Y59883D01*
X207363Y63337D02*
X209034Y62730D01*
X209087Y62709D02*
X212262Y61403D01*
X284571Y57939D02*
X284767Y57467D01*
X284220Y58514D02*
X284497Y58080D01*
X284815Y57317D02*
X284925Y56828D01*
X283269Y59427D02*
X283663Y59123D01*
X283779Y59017D02*
X284123Y58641D01*
X284947Y56668D02*
X284972Y56133D01*
X284885Y55405D02*
X284964Y55962D01*
X288296Y53547D02*
X288398Y54318D01*
X284394Y54185D02*
X284620Y54607D01*
X284007Y53663D02*
X284311Y54057D01*
X282719Y59737D02*
X283142Y59510D01*
X279389Y59686D02*
X279861Y59883D01*
X278813Y59336D02*
X279247Y59613D01*
X278194Y59671D02*
X278655Y59210D01*
X278311Y58894D02*
X278687Y59239D01*
X277901Y58385D02*
X278205Y58779D01*
X278089Y53802D02*
X278433Y53426D01*
X277591Y57835D02*
X277818Y58258D01*
X277715Y54362D02*
X277992Y53928D01*
X288017Y52872D02*
X288296Y53547D01*
X287573Y52293D02*
X288017Y52872D01*
X286993Y51850D02*
X287573Y52293D01*
X284935Y55758D02*
X287932Y52761D01*
X284092Y53773D02*
X286296Y51569D01*
X286317Y51572D02*
X286993Y51850D01*
X285649Y51487D02*
X286317Y51572D01*
X284770Y49908D02*
X284775Y50500D01*
X283525Y53203D02*
X283901Y53548D01*
X282965Y52830D02*
X283398Y53106D01*
X282351Y52559D02*
X282823Y52756D01*
X278548Y53320D02*
X278942Y53015D01*
X279070Y52932D02*
X279492Y52706D01*
X281712Y52401D02*
X282201Y52512D01*
X282440Y52596D02*
X284773Y50263D01*
X280290Y52441D02*
X280847Y52363D01*
X281017Y52355D02*
X281553Y52380D01*
X275365Y59671D02*
X277478Y57559D01*
X268746Y55107D02*
X273310Y59671D01*
X272537D02*
X277596Y54612D01*
X266653Y59671D02*
X278430D01*
X266620Y55810D02*
X270481Y59671D01*
X277248Y56480D02*
X277326Y57037D01*
X277240Y56309D02*
X277265Y55774D01*
X277287Y55614D02*
X277397Y55126D01*
X269708Y59671D02*
X274554Y54826D01*
X276879Y54755D02*
X277370Y55246D01*
X266631Y57092D02*
X268341Y55381D01*
X266645Y58663D02*
X267653Y59671D01*
X266615Y55237D02*
X266653Y59671D01*
X215531Y59843D02*
X219501Y57632D01*
X219568Y57591D02*
X223694Y54875D01*
X254924Y56081D02*
X261055Y56037D01*
X261938Y55415D02*
X261981Y55112D01*
X259187Y56051D02*
X261964Y53273D01*
X266571Y50104D02*
X276138Y59671D01*
X256338Y56071D02*
X261939Y50470D01*
X252775Y47622D02*
X261180Y56027D01*
X277445Y54975D02*
X277641Y54503D01*
X266577Y50835D02*
X266591Y52483D01*
X266571Y50076D02*
X266577Y50830D01*
X249718Y50222D02*
X255573Y56077D01*
X251794Y49469D02*
X258381Y56056D01*
X243592Y50222D02*
X250254D01*
X246890D02*
X253928Y57260D01*
X251601Y49662D02*
X252216Y49047D01*
X172373Y84410D02*
X180331Y83352D01*
X165052Y73036D02*
X175950Y83934D01*
X167532Y72687D02*
X178447Y83602D01*
X164385Y85075D02*
X172373Y84410D01*
X162564Y73376D02*
X173454Y84266D01*
X196903Y79865D02*
X199361Y79197D01*
X194424Y80500D02*
X196903Y79865D01*
X199361Y79197D02*
X201813Y78490D01*
X180331Y83352D02*
X187404Y82079D01*
X194424Y80500D01*
X157812Y85069D02*
X164385Y85075D01*
X152236Y74362D02*
X162947Y85073D01*
X153807Y85064D02*
X165962Y72908D01*
X151202Y85060D02*
X157813Y85069D01*
X149546Y74501D02*
X160117Y85071D01*
X157494Y73963D02*
X168281Y84750D01*
X154873Y74170D02*
X165670Y84968D01*
X160029Y73670D02*
X170892Y84533D01*
X148160Y85054D02*
X159480Y73733D01*
X150982Y85060D02*
X162679Y73363D01*
X181115Y83211D02*
X198204Y66122D01*
X177811Y83687D02*
X194322Y67176D01*
X184565Y82590D02*
X202183Y64972D01*
X177218Y71060D02*
X188084Y81926D01*
X174549Y84121D02*
X190558Y68111D01*
X186574Y69102D02*
X197245Y79773D01*
X184242Y69599D02*
X194997Y80353D01*
X188839Y68538D02*
X199467Y79166D01*
X179568Y70581D02*
X190393Y81406D01*
X181905Y70090D02*
X192702Y80887D01*
X165175Y85009D02*
X179613Y70571D01*
X162283Y85073D02*
X176104Y71252D01*
X168261Y84752D02*
X183194Y69819D01*
X156631Y85068D02*
X169270Y72428D01*
X159457Y85071D02*
X172687Y71840D01*
X172392Y71891D02*
X183316Y82815D01*
X174805Y71475D02*
X185713Y82383D01*
X169979Y72306D02*
X180919Y83246D01*
X171346Y84495D02*
X186794Y69047D01*
X143934Y74545D02*
X154453Y85065D01*
X145057Y85048D02*
X151203Y85060D01*
X146758Y74541D02*
X157286Y85069D01*
X140976Y74416D02*
X151621Y85061D01*
X138019Y74287D02*
X148787Y85055D01*
X142704Y84853D02*
X153270Y74287D01*
X140091Y84637D02*
X150238Y74490D01*
X145337Y85048D02*
X156320Y74065D01*
X138375Y84495D02*
X145057Y85048D01*
X137513Y84387D02*
X147368Y74532D01*
X134999Y84072D02*
X144501Y74570D01*
X131708Y83660D02*
X138375Y84495D01*
X132485Y83757D02*
X141791Y74452D01*
X123869Y82309D02*
X131708Y83660D01*
X130042Y83373D02*
X139081Y74333D01*
X116129Y80574D02*
X123869Y82309D01*
X127629Y82957D02*
X136457Y74129D01*
X109199Y78670D02*
X116129Y80574D01*
X102359Y76456D02*
X109199Y78670D01*
X134870Y73967D02*
X145953Y85049D01*
X131697Y73622D02*
X142948Y84873D01*
X128338Y73091D02*
X139865Y84618D01*
X124882Y72464D02*
X136704Y84286D01*
X121262Y71672D02*
X133470Y83881D01*
X125216Y82542D02*
X133891Y73867D01*
X122848Y82081D02*
X131361Y73569D01*
X120538Y81563D02*
X128918Y73183D01*
X117443Y70682D02*
X130154Y83392D01*
X113494Y69561D02*
X126736Y82803D01*
X118228Y81045D02*
X126476Y72797D01*
X115926Y80518D02*
X124142Y72302D01*
X109159Y68054D02*
X123282Y82178D01*
X104494Y66218D02*
X119636Y81360D01*
X99326Y63878D02*
X115981Y80533D01*
X113707Y79909D02*
X121821Y71794D01*
X111488Y79299D02*
X119517Y71270D01*
X109269Y78689D02*
X117313Y70645D01*
X93420Y60801D02*
X112081Y79462D01*
X201813Y78490D02*
X204244Y77770D01*
X150566Y74483D02*
X157070Y74011D01*
X191104Y67975D02*
X201662Y78534D01*
X144617Y74572D02*
X150465Y74487D01*
X138032Y74287D02*
X144537Y74572D01*
X168852Y72500D02*
X177569Y71000D01*
X162993Y73326D02*
X168799Y72509D01*
X177632Y70988D02*
X186365Y69152D01*
X132131Y73688D02*
X137974Y74283D01*
X157143Y74004D02*
X162963Y73330D01*
X107130Y78000D02*
X115110Y70020D01*
X104993Y77309D02*
X112935Y69367D01*
X102856Y76617D02*
X110836Y68637D01*
X94899Y73646D02*
X102359Y76456D01*
X100782Y75862D02*
X108737Y67908D01*
X126253Y72762D02*
X132056Y73679D01*
X119855Y71364D02*
X126196Y72751D01*
X113530Y69572D02*
X119796Y71350D01*
X87589Y70469D02*
X94899Y73646D01*
X107941Y67631D02*
X113474Y69554D01*
X193370Y67412D02*
X203845Y77888D01*
X98728Y75089D02*
X106694Y67122D01*
X96673Y74315D02*
X104690Y66298D01*
X94630Y73529D02*
X102685Y65475D01*
X86219Y56428D02*
X108107Y78317D01*
X199313Y65815D02*
X202400Y64908D01*
X195138Y66972D02*
X199288Y65822D01*
X202419Y64903D02*
X205501Y63955D01*
X186426Y69138D02*
X195102Y66982D01*
X102465Y65384D02*
X107869Y67605D01*
X92659Y72672D02*
X100762Y64569D01*
X90687Y71816D02*
X98852Y63651D01*
X88716Y70959D02*
X96942Y62732D01*
X86776Y70070D02*
X95105Y61741D01*
X84880Y69138D02*
X93289Y60728D01*
X96552Y62545D02*
X102393Y65353D01*
X90756Y59314D02*
X96479Y62508D01*
X82983Y68206D02*
X91474Y59715D01*
X85737Y56122D02*
X90705Y59284D01*
X81093Y67268D02*
X89710Y58651D01*
X81264Y67361D02*
X87589Y70469D01*
X79264Y66268D02*
X87982Y57550D01*
X75078Y63981D02*
X81264Y67361D01*
X77435Y65269D02*
X86253Y56450D01*
X75606Y64269D02*
X84572Y55303D01*
X73823Y63223D02*
X82911Y54136D01*
X82467Y53823D02*
X85696Y56094D01*
X69043Y60337D02*
X75078Y63981D01*
X63766Y56852D02*
X69043Y60337D01*
X40199Y56450D02*
X40959Y55820D01*
X38883Y55723D02*
X40199Y56450D01*
X40965Y55815D02*
X42302Y54710D01*
X38263Y55486D02*
X38615Y55605D01*
X37783Y55383D02*
X38136Y55452D01*
X42568Y54552D02*
X43115Y54332D01*
X37298Y55343D02*
X37653Y55366D01*
X72060Y62159D02*
X81289Y52929D01*
X70296Y61094D02*
X79682Y51708D01*
X68550Y60012D02*
X78119Y50442D01*
X66847Y58887D02*
X76573Y49161D01*
X65143Y57761D02*
X75037Y47868D01*
X79268Y51393D02*
X82427Y53794D01*
X58630Y53166D02*
X63766Y56852D01*
X75321Y48123D02*
X79234Y51366D01*
X53684Y49319D02*
X58630Y53166D01*
X45114Y52555D02*
X48154Y49834D01*
X43131Y54317D02*
X47381Y50067D01*
X43115Y54332D02*
X45114Y52555D01*
X38892Y55728D02*
X45686Y48935D01*
X49194Y49221D02*
X53036Y49108D01*
X279507Y52701D02*
X284749Y47459D01*
X269130Y54593D02*
X284678Y39045D01*
X271242Y37805D02*
X288398Y54961D01*
X266880Y59671D02*
X284702Y41849D01*
X268559Y37950D02*
X288401Y57791D01*
X284733Y45490D02*
X284770Y49902D01*
X284724Y44508D02*
X284733Y45484D01*
X284686Y40039D02*
X284724Y44499D01*
X276954Y52426D02*
X284725Y44654D01*
X277498Y38404D02*
X284734Y45640D01*
X266547Y47251D02*
X280912Y61617D01*
X266533Y45658D02*
X266570Y50070D01*
X266559Y48679D02*
X276586Y38651D01*
X266522Y44398D02*
X274475Y52351D01*
X266498Y41546D02*
X278407Y53454D01*
X266535Y45874D02*
X275509Y36900D01*
X266525Y44674D02*
X266533Y45652D01*
X266489Y40436D02*
X266525Y44668D01*
X277992Y36070D02*
X284710Y42787D01*
X268491Y52403D02*
X284654Y36240D01*
X271258Y34992D02*
X284758Y48492D01*
X266583Y51483D02*
X284630Y33436D01*
X266511Y43070D02*
X281247Y28334D01*
X284611Y31245D02*
X284686Y40033D01*
X278018Y37219D02*
X284355Y30882D01*
X275665Y30914D02*
X284685Y39934D01*
X277693Y30113D02*
X284661Y37081D01*
X266754Y36145D02*
X267790Y37181D01*
X271163Y35589D02*
X271823Y34929D01*
X272696Y33602D02*
X275409Y36315D01*
X262631Y40968D02*
X263005Y40535D01*
X235639Y68284D02*
X262185Y41739D01*
X262236Y41634D02*
X262515Y41135D01*
X264780Y39535D02*
X265341Y39452D01*
X263809Y39926D02*
X264514Y39612D01*
X266475Y40277D02*
X268748Y38004D01*
X263153Y40395D02*
X263602Y40049D01*
X263394Y38442D02*
X264549Y39597D01*
X261888Y44878D02*
X261981Y55112D01*
X252775Y44794D02*
X261971Y53989D01*
X254560Y43750D02*
X261945Y51135D01*
X239664Y67088D02*
X261880Y44872D01*
X252602Y48493D02*
X262093Y39002D01*
X261982Y42366D02*
X262155Y41820D01*
X256065Y39598D02*
X261893Y45426D01*
X253966Y41473D02*
X255732Y39707D01*
X251616Y37977D02*
X261919Y48281D01*
X264149Y39775D02*
X267812Y36112D01*
X262955Y35175D02*
X280239Y52459D01*
X255705Y33581D02*
X262845Y40721D01*
X263833Y37263D02*
X265030Y36066D01*
X262599Y35667D02*
X263146Y35121D01*
X257048Y37753D02*
X261932Y42637D01*
X254606Y43661D02*
X260498Y37769D01*
X257035Y38403D02*
X259759Y35679D01*
X253052Y36730D02*
X257911Y31870D01*
X254168Y34872D02*
X255666Y36370D01*
X256101Y36509D02*
X259780Y32830D01*
X269612Y34312D02*
X270105Y33818D01*
X277393Y35016D02*
X283011Y29398D01*
X267428Y33990D02*
X267950Y34512D01*
X283848Y30166D02*
X284611Y31245D01*
X272629Y34123D02*
X275800Y30952D01*
X282743Y29153D02*
X283848Y30166D01*
X265905Y32468D02*
X267360Y33922D01*
X271518Y32405D02*
X274504Y29419D01*
X262726Y32117D02*
X263441Y32832D01*
X262832Y32607D02*
X263587Y31851D01*
X281896Y28659D02*
X284612Y31376D01*
X278195Y27787D02*
X284637Y34229D01*
X269787Y27864D02*
X276734Y34811D01*
X281450Y28399D02*
X282743Y29153D01*
X280026Y27938D02*
X281450Y28399D01*
X278488Y27784D02*
X280026Y27938D01*
X277852Y28900D02*
X278924Y27828D01*
X276996Y27798D02*
X278488Y27784D01*
X266984Y27889D02*
X271498Y32404D01*
X266062Y32204D02*
X270409Y27858D01*
X267258Y33837D02*
X273263Y27832D01*
X264181Y27915D02*
X270108Y33842D01*
X265052Y30387D02*
X267554Y27884D01*
X272590Y27838D02*
X274586Y29835D01*
X263994Y27917D02*
X275376Y27813D01*
X262533Y27930D02*
X263994Y27917D01*
X263048Y29562D02*
X264700Y27910D01*
X261125Y31485D02*
X261453Y31157D01*
X260373Y32592D02*
X261425Y33645D01*
X260939Y30330D02*
X261408Y30799D01*
X261378Y27941D02*
X262984Y29546D01*
X259584Y28975D02*
X260287Y29678D01*
X260166Y29616D02*
X261845Y27937D01*
X258468Y27968D02*
X262533Y27930D01*
X254117Y16158D02*
X260601Y16099D01*
X255274Y31680D02*
X256521Y30433D01*
X250879Y25927D02*
X259539Y34586D01*
X255773Y27992D02*
X256533Y28752D01*
X253860Y30266D02*
X256136Y27989D01*
X254226Y28006D02*
X257511Y27976D01*
X259531Y16109D02*
X260249Y15391D01*
X256677Y16135D02*
X259309Y13502D01*
X253962Y12039D02*
X258045Y16122D01*
X253752Y16231D02*
X258520Y11463D01*
X248328Y18827D02*
X257776Y9379D01*
X259118Y13117D02*
X260601Y16099D01*
X257523Y8670D02*
X259070Y13006D01*
X256478Y4065D02*
X257489Y8552D01*
X253739Y8987D02*
X260354Y15603D01*
X250073Y2493D02*
X258229Y10650D01*
X254209Y10117D02*
X257174Y7153D01*
X253842Y7656D02*
X256654Y4844D01*
X252167Y6502D02*
X256300Y2370D01*
X249858Y10764D02*
X255243Y16148D01*
X250537Y129D02*
X257061Y6653D01*
X253340Y103D02*
X256377Y3141D01*
X256069Y78D02*
X256458Y3942D01*
X250156Y5685D02*
X255760Y81D01*
X249885Y135D02*
X256069Y78D01*
X235699Y47516D02*
X250680Y62497D01*
X211262Y75691D02*
X239472Y47482D01*
X203225Y78072D02*
X233763Y47534D01*
X207244Y76881D02*
X236617Y47508D01*
X252775Y44594D02*
Y47701D01*
X238502Y47490D02*
X239692Y48681D01*
X252775Y45491D02*
X253816Y44451D01*
X233138Y47540D02*
X235627Y47517D01*
X240732Y47470D01*
X72690Y45728D02*
X103926Y76963D01*
X63451Y56625D02*
X73558Y46519D01*
X61804Y55444D02*
X72078Y45170D01*
X59314Y43665D02*
X84696Y69047D01*
X61629Y43152D02*
X89989Y71512D01*
X223760Y54827D02*
X233138Y47540D01*
X71504Y44647D02*
X75271Y48081D01*
X60158Y54262D02*
X70638Y43781D01*
X51911Y47576D02*
X53586Y49251D01*
X53742Y49364D02*
X59434Y43671D01*
X67869Y41006D02*
X71468Y44612D01*
X64850Y40716D02*
X99521Y75387D01*
X58515Y53076D02*
X69226Y42366D01*
X63311Y42006D02*
X94983Y73678D01*
X65747Y38575D02*
X67821Y40955D01*
X56924Y51839D02*
X67815Y40948D01*
X62028Y42904D02*
X63963Y41550D01*
X55333Y50601D02*
X66498Y39437D01*
X51294Y46155D02*
X55902Y41547D01*
X65720Y38758D02*
X67167Y40205D01*
X56510Y41572D02*
X60554Y38741D01*
X62708Y41817D01*
X23955Y39419D02*
X40629Y56093D01*
X21544Y39836D02*
X37049Y55341D01*
X26248Y38883D02*
X42178Y54813D01*
X16297Y40247D02*
X31392Y55341D01*
X18958Y40079D02*
X34220Y55341D01*
X51113Y49164D02*
X57282Y42996D01*
X47854Y46766D02*
X55333Y39288D01*
X13558Y40336D02*
X28563Y55341D01*
X10730Y40336D02*
X25735Y55341D01*
X8167D02*
X24123Y39384D01*
X7901Y40336D02*
X22906Y55341D01*
X5338D02*
X20717Y39962D01*
X5073Y40336D02*
X20078Y55341D01*
X14905Y40334D02*
X20597Y39976D01*
X2245Y40336D02*
X17249Y55341D01*
X2510D02*
X17692Y40159D01*
X41462Y31470D02*
X72289Y62297D01*
X39786Y32623D02*
X64499Y57336D01*
X42871Y30051D02*
X78877Y66057D01*
X36451Y55341D02*
X54289Y37503D01*
X33622Y55341D02*
X52833Y36130D01*
X30794Y55341D02*
X52348Y33787D01*
X38110Y33775D02*
X50106Y45771D01*
X27966Y55341D02*
X50870Y32436D01*
X25137Y55341D02*
X49332Y31146D01*
X22309Y55341D02*
X48708Y28942D01*
X28469Y38277D02*
X43861Y53669D01*
X16652Y55341D02*
X38454Y33539D01*
X19480Y55341D02*
X47461Y27360D01*
X10995Y55341D02*
X27905Y38431D01*
X13823Y55341D02*
X32289Y36876D01*
X34592Y35914D02*
X45973Y47295D01*
X36434Y34928D02*
X48564Y47058D01*
X30551Y37530D02*
X45358Y52337D01*
X32606Y36756D02*
X46850Y51001D01*
X252447Y40163D02*
X253837Y38773D01*
X253079Y36612D02*
X253820Y37354D01*
X252446Y28851D02*
X253548Y27749D01*
X251111Y27517D02*
X255242Y31648D01*
X251355Y23574D02*
X253202Y25422D01*
X251029Y27439D02*
X253201Y25267D01*
X251340Y24300D02*
X253175Y22465D01*
X252179Y34774D02*
X252587Y34366D01*
X250748Y39033D02*
X251850Y37932D01*
X251338Y23178D02*
X251372Y23974D01*
X251229Y24968D02*
X251359Y24185D01*
X251110Y22200D02*
X251307Y22969D01*
X250351Y26768D02*
X250789Y26099D01*
X250884Y25915D02*
X251174Y25170D01*
X253127Y17168D02*
X253217Y27016D01*
X250962Y21850D02*
X253150Y19662D01*
X249780Y20203D02*
X253200Y16783D01*
X250106Y2906D02*
X252906Y107D01*
X250685Y21288D02*
X251037Y22001D01*
X250080Y20482D02*
X250573Y21111D01*
X250113Y8190D02*
X250599Y8676D01*
X249745Y11753D02*
X251066Y10432D01*
X249574Y13237D02*
X250100Y8666D01*
X250106Y8563D02*
X250533Y8137D01*
X250161Y5410D02*
X251445Y6694D01*
X250106Y8570D02*
X250186Y3971D01*
X249885Y135D02*
X250183Y3874D01*
X248676Y38277D02*
X249894Y37060D01*
X248680Y37869D02*
X249841Y39031D01*
X248700Y35062D02*
X249722Y36083D01*
X248671Y39041D02*
X250530Y39024D01*
X248671Y39041D02*
X248731Y31012D01*
X248721Y32254D02*
X251088Y34621D01*
X248731Y31012D02*
X249228Y31008D01*
X252555Y34335D01*
X248698Y35427D02*
X251173Y32953D01*
X248719Y32578D02*
X249759Y31538D01*
X28879Y38160D02*
X33466Y36432D01*
X25300Y39142D02*
X28788Y38190D01*
X20684Y39967D02*
X22936Y39625D01*
X23021Y39609D02*
X25236Y39157D01*
X50946Y32469D02*
X52339Y33862D01*
X35988Y35235D02*
X41923Y31153D01*
X33536Y36403D02*
X35099Y35680D01*
X35128Y35666D02*
X35857Y35311D01*
X248561Y17952D02*
X253176Y22567D01*
X249323Y19820D02*
X249936Y20334D01*
X249065Y15628D02*
X253150Y19713D01*
X43964Y28316D02*
X55339Y39691D01*
X249565Y13299D02*
X253162Y16896D01*
X248595Y17817D02*
X249558Y13335D01*
X249165Y15161D02*
X251917Y12409D01*
X248448Y19329D02*
X249150Y19703D01*
X248218Y19239D02*
X248580Y17882D01*
X43314Y29450D02*
X44112Y28057D01*
X42260Y30858D02*
X43243Y29559D01*
X44802Y26326D02*
X48989Y30512D01*
X44931Y25959D02*
X45185Y24760D01*
X44245Y27748D02*
X45839Y26154D01*
X44176Y27924D02*
X44883Y26119D01*
X-129214Y83277D02*
X-122168Y81968D01*
X-137109Y84360D02*
X-129214Y83277D01*
X-139131Y74324D02*
X-130061Y83393D01*
X-141800Y74483D02*
X-132548Y83734D01*
X-145991Y85048D02*
X-134919Y73976D01*
X-115202Y80345D02*
X-107526Y78168D01*
X-122168Y81968D02*
X-115202Y80345D01*
X-107526Y78168D02*
X-99952Y75607D01*
X-136467Y74159D02*
X-127641Y82985D01*
X-133937Y73860D02*
X-125256Y82542D01*
X-151659Y85059D02*
X-141037Y74437D01*
X-151611Y85059D02*
X-145037Y85046D01*
X-148825Y85053D02*
X-138030Y74258D01*
X-154491Y85063D02*
X-143960Y74532D01*
X-156359Y74066D02*
X-145378Y85047D01*
X-145037Y85046D02*
X-137109Y84360D01*
X-147393Y74547D02*
X-137542Y84397D01*
X-144577Y74534D02*
X-135036Y84075D01*
X-150297Y74471D02*
X-140145Y84623D01*
X-153274Y74322D02*
X-142749Y84848D01*
X-119711Y81395D02*
X-104617Y66301D01*
X-121842Y71813D02*
X-113728Y79927D01*
X-116024Y80536D02*
X-99509Y64021D01*
X-126801Y82829D02*
X-113498Y69526D01*
X-123327Y82183D02*
X-109207Y68062D01*
X-112134Y79475D02*
X-93601Y60942D01*
X-115144Y70026D02*
X-107134Y78036D01*
X-108186Y78355D02*
X-86308Y56478D01*
X-119564Y71263D02*
X-111525Y79302D01*
X-117312Y70686D02*
X-109321Y78677D01*
X-133493Y83864D02*
X-121316Y71686D01*
X-136771Y84313D02*
X-124937Y72479D01*
X-130216Y83415D02*
X-117563Y70762D01*
X-142983Y84868D02*
X-131713Y73598D01*
X-139887Y84600D02*
X-128389Y73102D01*
X-126543Y72769D02*
X-118256Y81056D01*
X-124147Y72337D02*
X-115962Y80522D01*
X-131407Y73562D02*
X-122871Y82098D01*
X-128939Y73202D02*
X-120550Y81591D01*
X-157324Y85067D02*
X-146801Y74544D01*
X-158221Y85068D02*
X-151610Y85059D01*
X-160155Y85069D02*
X-149587Y74502D01*
X-164370Y85072D02*
X-158221Y85068D01*
X-162985Y85071D02*
X-152299Y74385D01*
X-159554Y73699D02*
X-148201Y85052D01*
X-165718Y84976D02*
X-154927Y74185D01*
X-162783Y73299D02*
X-151024Y85058D01*
X-168358Y84787D02*
X-157522Y73951D01*
X-166011Y72899D02*
X-153848Y85062D01*
X-168554Y84773D02*
X-164370Y85072D01*
X-172746Y84364D02*
X-168554Y84773D01*
X-170939Y84540D02*
X-160038Y73639D01*
X-179987Y83400D02*
X-172746Y84364D01*
X-173492Y84265D02*
X-162555Y73327D01*
X-175988Y83932D02*
X-165071Y73015D01*
X-178484Y83600D02*
X-167559Y72675D01*
X-187224Y82108D02*
X-179987Y83400D01*
X-194402Y80497D02*
X-187224Y82108D01*
X-169362Y72377D02*
X-156673Y85066D01*
X-172750Y71816D02*
X-159498Y85069D01*
X-176139Y71256D02*
X-162325Y85071D01*
X-179689Y70535D02*
X-165212Y85012D01*
X-183253Y69800D02*
X-168258Y84794D01*
X-180942Y83229D02*
X-169986Y72274D01*
X-183342Y82801D02*
X-172414Y71872D01*
X-185742Y82372D02*
X-174841Y71471D01*
X-186872Y69009D02*
X-171384Y84497D01*
X-190630Y68079D02*
X-174591Y84118D01*
X-188108Y81910D02*
X-177239Y71041D01*
X-194387Y67150D02*
X-177854Y83684D01*
X-198262Y66104D02*
X-181179Y83187D01*
X-202261Y64934D02*
X-184622Y82572D01*
X-206364Y63659D02*
X-188115Y81908D01*
X-190418Y81391D02*
X-179583Y70557D01*
X-192727Y80872D02*
X-181928Y70073D01*
X-195021Y80338D02*
X-184272Y69589D01*
X-197269Y79757D02*
X-186590Y69078D01*
X-38579Y55604D02*
X-38233Y55487D01*
X-40166Y56450D02*
X-38849Y55723D01*
X-38102Y55452D02*
X-37749Y55383D01*
X-40926Y55819D02*
X-40166Y56450D01*
X-42269Y54710D02*
X-40932Y55814D01*
X-37198Y55341D02*
X37232D01*
X-37620Y55366D02*
X-37265Y55343D01*
X-43108Y54316D02*
X-42528Y54554D01*
X-75049Y63983D02*
X-69013Y60340D01*
X-81234Y67362D02*
X-75049Y63983D01*
X-79694Y51736D02*
X-70308Y61122D01*
X-82935Y54152D02*
X-73836Y63251D01*
X-81314Y52944D02*
X-72072Y62186D01*
X-45081Y52555D02*
X-43108Y54316D01*
X-63735Y56854D02*
X-58600Y53169D01*
X-48519Y49477D02*
X-45081Y52555D01*
X-69013Y60340D02*
X-63735Y56854D01*
X-78126Y50475D02*
X-68560Y60041D01*
X-45792Y48868D02*
X-38906Y55754D01*
X-48348Y49630D02*
X-47676Y48958D01*
X-49097Y48392D02*
X-43710Y53778D01*
X-48706Y47160D02*
X-48354Y46808D01*
X-53003Y49108D02*
X-49160Y49221D01*
X-53846Y49471D02*
X-52056Y47682D01*
X-58600Y53169D02*
X-53651Y49319D01*
X-73562Y46554D02*
X-63460Y56656D01*
X-72083Y45205D02*
X-61813Y55474D01*
X-76579Y49194D02*
X-66857Y58916D01*
X-75042Y47903D02*
X-65154Y57791D01*
X-79186Y51353D02*
X-75286Y48122D01*
X-75225Y48069D02*
X-71469Y44646D01*
X-99952Y75607D02*
X-93704Y73169D01*
X-108781Y67904D02*
X-100793Y75892D01*
X-106719Y67137D02*
X-98727Y75129D01*
X-112975Y69367D02*
X-105021Y77321D01*
X-110842Y68671D02*
X-102907Y76606D01*
X-93704Y73169D02*
X-87560Y70470D01*
X-117785Y70830D02*
X-111581Y68943D01*
X-87560Y70470D02*
X-81234Y67362D01*
X-130012Y73395D02*
X-123629Y72243D01*
X-123550Y72226D02*
X-117882Y70856D01*
X-142460Y74522D02*
X-136622Y74174D01*
X-148389Y74551D02*
X-142555Y74525D01*
X-136522Y74165D02*
X-130077Y73405D01*
X-152739Y74366D02*
X-148457Y74550D01*
X-157064Y74007D02*
X-152782Y74363D01*
X-166764Y72806D02*
X-157105Y74003D01*
X-176404Y71212D02*
X-166806Y72800D01*
X-185779Y69278D02*
X-176447Y71204D01*
X-195076Y66980D02*
X-185819Y69269D01*
X-91507Y59722D02*
X-82999Y68229D01*
X-93294Y60763D02*
X-84896Y69161D01*
X-89720Y58680D02*
X-81108Y67293D01*
X-95102Y61784D02*
X-86793Y70093D01*
X-103967Y76964D02*
X-73491Y46488D01*
X-84582Y55333D02*
X-75620Y64295D01*
X-86283Y56461D02*
X-77449Y65294D01*
X-83957Y54914D02*
X-79240Y51397D01*
X-87983Y57589D02*
X-79278Y66294D01*
X-88915Y58208D02*
X-84019Y54959D01*
X-98854Y63689D02*
X-90695Y71847D01*
X-100765Y64606D02*
X-92660Y72711D01*
X-96978Y62736D02*
X-88730Y70984D01*
X-104693Y66335D02*
X-96693Y74335D01*
X-102729Y65470D02*
X-94658Y73541D01*
X-99932Y64236D02*
X-94705Y61582D01*
X-94617Y61534D02*
X-89001Y58261D01*
X-111500Y68916D02*
X-105429Y66657D01*
X-105355Y66626D02*
X-100018Y64277D01*
X-196864Y79867D02*
X-194402Y80497D01*
X-199323Y79199D02*
X-196864Y79867D01*
X-199490Y79150D02*
X-188858Y68518D01*
X-201788Y78488D02*
X-199323Y79199D01*
X-201686Y78518D02*
X-191126Y67957D01*
X-203869Y77872D02*
X-193393Y67396D01*
X-198209Y66119D02*
X-195103Y66973D01*
X-201322Y65220D02*
X-198227Y66114D01*
X-206051Y77225D02*
X-195648Y66823D01*
X-208233Y76579D02*
X-197867Y66213D01*
X-204053Y77817D02*
X-201788Y78488D01*
X-206319Y77146D02*
X-204059Y77816D01*
X-208644Y76458D02*
X-206323Y77145D01*
X-226802Y71081D02*
X-208645Y76457D01*
X-210415Y75933D02*
X-200065Y65583D01*
X-212598Y75287D02*
X-202248Y64938D01*
X-214780Y74641D02*
X-204415Y64276D01*
X-235556Y68299D02*
X-227252Y70799D01*
X-210946Y61905D02*
X-191762Y81089D01*
X-216962Y73994D02*
X-206561Y63593D01*
X-216309Y59370D02*
X-195452Y80228D01*
X-223626Y54882D02*
X-199305Y79203D01*
X-233803Y47533D02*
X-203295Y78042D01*
X-205472Y63954D02*
X-201341Y65215D01*
X-207304Y63348D02*
X-205497Y63946D01*
X-208217Y63023D02*
X-207328Y63339D01*
X-219144Y73348D02*
X-208656Y62860D01*
X-208990Y62735D02*
X-208233Y63017D01*
X-221327Y72702D02*
X-210654Y62029D01*
X-223509Y72056D02*
X-212638Y61185D01*
X-225691Y71410D02*
X-214563Y60282D01*
X-227757Y70648D02*
X-216422Y59312D01*
X-229931Y69993D02*
X-218274Y58336D01*
X-213653Y60754D02*
X-209052Y62711D01*
X-218161Y58404D02*
X-213727Y60719D01*
X-232105Y69338D02*
X-220013Y57247D01*
X-234279Y68684D02*
X-221752Y56157D01*
X-243208Y66022D02*
X-235563Y68297D01*
X-244903Y65040D02*
X-243208Y66022D01*
X-246820Y64059D02*
X-244984Y64996D01*
X-249953Y62719D02*
X-246882Y64030D01*
X-282673Y63815D02*
X-282662Y62514D01*
X-253896Y58554D02*
X-249564Y62886D01*
X-253898Y61477D02*
X-250047Y62685D01*
X-253898Y61477D02*
X-253894Y57082D01*
X-282662Y62514D02*
X-282660Y60536D01*
X-285702Y63538D02*
X-282659Y60496D01*
X-283628Y63806D02*
X-282673Y63815D01*
X-285454Y63613D02*
X-283628Y63806D01*
X-283146Y63811D02*
X-282669Y63333D01*
X-287168Y63096D02*
X-285454Y63613D01*
X-288367Y58024D02*
X-282672Y63719D01*
X-287772Y62780D02*
X-283875Y58882D01*
X-288369Y60548D02*
X-284848Y57027D01*
X-288370Y62466D02*
X-287168Y63096D01*
X-288369Y60850D02*
X-285671Y63548D01*
X-236658Y47507D02*
X-207314Y76851D01*
X-239513Y47481D02*
X-211332Y75661D01*
X-242367Y47455D02*
X-215350Y74472D01*
X-242367Y47455D02*
X-215350Y74472D01*
X-245222Y47429D02*
X-219368Y73282D01*
X-236455Y68032D02*
X-223440Y55016D01*
X-238635Y67383D02*
X-225084Y53832D01*
X-240815Y66734D02*
X-226658Y52578D01*
X-242994Y66086D02*
X-228229Y51321D01*
X-248153Y47326D02*
X-223387Y72092D01*
X-244824Y65086D02*
X-229801Y50063D01*
X-246691Y64125D02*
X-231372Y48806D01*
X-248664Y63270D02*
X-232943Y47549D01*
X-261881Y47740D02*
X-244137Y65484D01*
X-261855Y44937D02*
X-239738Y67055D01*
X-250702Y62479D02*
X-235738Y47515D01*
X-252855Y61804D02*
X-238541Y47490D01*
X-288364Y55198D02*
X-282660Y60902D01*
X-288370Y62466D02*
X-288364Y54307D01*
X-270482Y59632D02*
X-266586Y55736D01*
X-267677Y59655D02*
X-266610Y58589D01*
X-222516Y55679D02*
X-218229Y58365D01*
X-277471Y57606D02*
X-275488Y59589D01*
X-277505Y54743D02*
X-272635Y59613D01*
X-225133Y53797D02*
X-222570Y55643D01*
X-261019Y56037D02*
X-254890Y56081D01*
X-261932Y53345D02*
X-259227Y56050D01*
X-277851Y58361D02*
X-277586Y57894D01*
X-278263Y58879D02*
X-277943Y58493D01*
X-277516Y57739D02*
X-277334Y57207D01*
X-278665Y59240D02*
X-278341Y59565D01*
X-278763Y59323D02*
X-278373Y58991D01*
X-277219Y55896D02*
X-277208Y56376D01*
X-277327Y55256D02*
X-277234Y55745D01*
X-277549Y54628D02*
X-277370Y55105D01*
X-277878Y54040D02*
X-277617Y54484D01*
X-278303Y53522D02*
X-277971Y53911D01*
X-253897Y60017D02*
X-241343Y47464D01*
X-253895Y57187D02*
X-244146Y47438D01*
X-255612Y56076D02*
X-246949Y47413D01*
X-258421Y56056D02*
X-249125Y46761D01*
X-261209Y56016D02*
X-250974Y45780D01*
X-232953Y47541D02*
X-225174Y53765D01*
X-235594Y47517D02*
X-232969Y47541D01*
X-247552Y47407D02*
X-235594Y47517D01*
X-250248Y45231D02*
X-249703Y45776D01*
X-250020Y44826D02*
X-249777Y44584D01*
X-261907Y50543D02*
X-256379Y56071D01*
X-266620Y59664D02*
X-266544Y50836D01*
X-261948Y55102D02*
X-261855Y44878D01*
X-273286Y59608D02*
X-266561Y52883D01*
X-276091Y59584D02*
X-266537Y50030D01*
X-261938Y53916D02*
X-253072Y45050D01*
X-266499Y45649D02*
X-266491Y44675D01*
X-266543Y50827D02*
X-266537Y50076D01*
X-266537Y50070D02*
X-266499Y45659D01*
X-279134Y59558D02*
X-266620Y59664D01*
X-283212Y59443D02*
X-282746Y59708D01*
X-283730Y59031D02*
X-283344Y59351D01*
X-278800Y53091D02*
X-278415Y53411D01*
X-283771Y53451D02*
X-283382Y53119D01*
X-283252Y53027D02*
X-282809Y52766D01*
X-284174Y58532D02*
X-283842Y58921D01*
X-284202Y53949D02*
X-283882Y53563D01*
X-284527Y57958D02*
X-284266Y58402D01*
X-284775Y57337D02*
X-284596Y57815D01*
X-284910Y56697D02*
X-284817Y57186D01*
X-284937Y56067D02*
X-284926Y56546D01*
X-287932Y52802D02*
X-284918Y55816D01*
X-284811Y55235D02*
X-284629Y54703D01*
X-284558Y54548D02*
X-284293Y54082D01*
X-288364Y54307D02*
X-288257Y53526D01*
X-287973Y52854D01*
X-279399Y52734D02*
X-278933Y52999D01*
X-282665Y52697D02*
X-282188Y52518D01*
X-278895Y59560D02*
X-266512Y47177D01*
X-286317Y51588D02*
X-284090Y53815D01*
X-284693Y44727D02*
X-269782Y59638D01*
X-280086Y52482D02*
X-279555Y52664D01*
X-282037Y52476D02*
X-281548Y52383D01*
X-281397Y52367D02*
X-280917Y52356D01*
X-284740Y50336D02*
X-282458Y52619D01*
X-284716Y47532D02*
X-279600Y52649D01*
X-286263Y51566D02*
X-285621Y51487D01*
X-286942Y51840D02*
X-286263Y51566D01*
X-287973Y52854D02*
X-287525Y52278D01*
X-286942Y51840D01*
X-284737Y49902D02*
X-284699Y45490D01*
X-284699Y45484D02*
X-284691Y44506D01*
X-284742Y50500D02*
X-284737Y49908D01*
X-6241Y40336D02*
X8764Y55341D01*
X-8804D02*
X6201Y40336D01*
X-5976Y55341D02*
X9029Y40336D01*
X-11632Y55341D02*
X3373Y40336D01*
X-9069D02*
X5936Y55341D01*
X-584Y40336D02*
X14421Y55341D01*
X-3147D02*
X11858Y40336D01*
X-319Y55341D02*
X14686Y40336D01*
X-14809D02*
X14843D01*
X-3412D02*
X11593Y55341D01*
X-22946D02*
X-7941Y40336D01*
X-25775Y55341D02*
X-10770Y40336D01*
X-20118Y55341D02*
X-5113Y40336D01*
X-28603Y55341D02*
X-13598Y40336D01*
X-31431Y55341D02*
X-16333Y40242D01*
X-14461Y55341D02*
X544Y40336D01*
X-14726D02*
X279Y55341D01*
X-11898Y40336D02*
X3107Y55341D01*
X-17289D02*
X-2284Y40336D01*
X-17737Y40154D02*
X-2550Y55341D01*
X-20773Y39946D02*
X-5378Y55341D01*
X-24170Y39377D02*
X-8206Y55341D01*
X-27955Y38421D02*
X-11035Y55341D01*
X-32373Y36831D02*
X-13863Y55341D01*
X-38656Y33377D02*
X-16692Y55341D01*
X-20561Y39976D02*
X-14872Y40334D01*
X-34260Y55341D02*
X-18994Y40075D01*
X-24281Y39359D02*
X-20666Y39964D01*
X-37088Y55341D02*
X-21561Y39814D01*
X-47491Y27371D02*
X-19520Y55341D01*
X-40636Y56060D02*
X-23984Y39408D01*
X-42184Y54780D02*
X-26291Y38887D01*
X-43869Y53637D02*
X-28497Y38265D01*
X-49348Y31170D02*
X-25177Y55341D01*
X-48706Y28984D02*
X-22348Y55341D01*
X-45363Y52302D02*
X-30571Y37510D01*
X-45343Y46626D02*
X-34609Y35891D01*
X-46855Y50966D02*
X-32625Y36736D01*
X-47494Y45947D02*
X-36444Y34898D01*
X-69228Y42403D02*
X-58522Y53108D01*
X-70641Y43818D02*
X-60167Y54293D01*
X-67815Y40987D02*
X-56931Y51871D01*
X-84804Y69116D02*
X-59355Y43667D01*
X-90105Y71588D02*
X-61654Y43137D01*
X-57306Y43011D02*
X-51155Y49162D01*
X-59474Y43672D02*
X-53749Y49396D01*
X-55916Y41573D02*
X-51492Y45997D01*
X-63962Y41549D02*
X-62027Y42904D01*
X-66498Y39476D02*
X-55340Y50634D01*
X-95033Y73688D02*
X-63334Y41989D01*
X-99671Y75497D02*
X-64867Y40693D01*
X-262111Y41853D02*
X-235711Y68253D01*
X-260088Y41047D02*
X-231665Y69471D01*
X-249782Y45172D02*
X-249765Y43349D01*
X-71423Y44601D02*
X-67834Y41006D01*
X-250128Y43349D02*
X-249765D01*
X-52848Y36155D02*
X-33662Y55341D01*
X-54316Y37516D02*
X-36491Y55341D01*
X-64682Y57479D02*
X-39796Y32593D01*
X-72439Y62408D02*
X-41472Y31440D01*
X-79003Y66143D02*
X-42857Y29997D01*
X-52342Y33833D02*
X-30834Y55341D01*
X-50018Y45643D02*
X-38120Y33745D01*
X-50898Y32448D02*
X-28005Y55341D01*
X-55331Y39329D02*
X-48169Y46491D01*
X-55336Y39648D02*
X-43938Y28250D01*
X-62708Y41817D02*
X-60553Y38740D01*
X-259158Y39149D02*
X-227618Y70689D01*
X-261885Y48207D02*
X-250410Y36731D01*
X-60553Y38740D02*
X-56509Y41572D01*
X-66628Y39626D02*
X-65725Y38723D01*
X-67787Y40957D02*
X-65742Y38609D01*
X-26552Y38825D02*
X-24349Y39345D01*
X-28765Y38187D02*
X-26605Y38812D01*
X-33432Y36432D02*
X-28844Y38161D01*
X-35071Y35677D02*
X-33502Y36403D01*
X-35824Y35311D02*
X-35088Y35669D01*
X-41889Y31154D02*
X-35955Y35235D01*
X-52343Y33826D02*
X-51013Y32496D01*
X-249151Y35014D02*
X-248590Y35575D01*
X-249208Y35529D02*
X-248597Y34918D01*
X-248634Y31022D02*
X-248556Y39051D01*
X-249899Y39049D02*
X-248569Y37719D01*
X-248843Y32336D02*
X-248624Y32117D01*
X-249545Y31244D02*
X-249253Y30953D01*
X-43432Y29212D02*
X-42234Y30848D01*
X-48961Y30444D02*
X-44769Y26253D01*
X-44418Y27310D02*
X-43516Y29075D01*
X-45067Y25319D02*
X-44481Y27158D01*
X-45173Y24706D02*
X-45103Y25165D01*
X-45856Y26176D02*
X-44100Y27933D01*
X-249116Y19703D02*
X-248414Y19329D01*
X-248546Y17881D02*
X-248187Y19240D01*
X-249902Y20334D02*
X-249290Y19820D01*
X-249524Y13335D02*
X-248558Y17832D01*
X-250066Y8666D02*
X-249540Y13237D01*
X-250091Y132D02*
X-249869Y355D01*
X-250153Y3971D02*
X-250073Y8570D01*
X-250150Y3874D02*
X-249851Y135D01*
X-250297Y36697D02*
X-248562Y38431D01*
X-251699Y39049D02*
X-248788D01*
X-255012Y34810D02*
X-250773Y39049D01*
X-255012Y34810D02*
X-250773Y39049D01*
X-250755Y26099D02*
X-250318Y26768D01*
X-251004Y22003D02*
X-250650Y21286D01*
X-250540Y21111D02*
X-250046Y20482D01*
X-251140Y25170D02*
X-250850Y25915D01*
X-253168Y25340D02*
X-251087Y27421D01*
X-253168Y25348D02*
X-251318Y23498D01*
X-253986Y30311D02*
X-251205Y27530D01*
X-255316Y30323D02*
X-250866Y25874D01*
X-251326Y24185D02*
X-251196Y24968D01*
X-251273Y22969D02*
X-251077Y22200D01*
X-251339Y23975D02*
X-251304Y23177D01*
X-253142Y22537D02*
X-251292Y24388D01*
X-253142Y22493D02*
X-248543Y17894D01*
X-253129Y16894D02*
X-249786Y20236D01*
X-253116Y19638D02*
X-249044Y15567D01*
X-253145Y16839D02*
X-249541Y13235D01*
X-257762Y9433D02*
X-248270Y18924D01*
X-252394Y11972D02*
X-249112Y15254D01*
X-251015Y10523D02*
X-249701Y11836D01*
X-252547Y4928D02*
X-250033Y2413D01*
X-255282Y16148D02*
X-249832Y10698D01*
X-256035Y78D02*
X-249851Y135D01*
X-251299Y9337D02*
X-250080Y8118D01*
X-253117Y19735D02*
X-250952Y21899D01*
X-251184Y7526D02*
X-250069Y8640D01*
X-250982Y6191D02*
X-250129Y5338D01*
X-252946Y106D02*
X-250078Y2974D01*
X-257006Y6558D02*
X-250576Y128D01*
X-255801Y80D02*
X-250121Y5759D01*
X-261912Y51061D02*
X-253384Y42534D01*
X-261906Y42571D02*
X-261084Y41748D01*
X-261859Y45352D02*
X-252366Y35859D01*
X-262122Y41820D02*
X-261948Y42366D01*
X-259608Y35871D02*
X-253793Y41686D01*
X-257006Y35645D02*
X-253090Y39560D01*
X-263570Y40049D02*
X-263182Y40347D01*
X-266491Y44665D02*
X-266455Y40436D01*
X-273023Y36598D02*
X-266478Y43143D01*
X-264483Y39611D02*
X-263773Y39927D01*
X-265308Y39452D02*
X-264747Y39535D01*
X-264569Y39577D02*
X-262767Y37775D01*
X-259270Y37106D02*
X-257808Y35645D01*
X-259852Y40516D02*
X-253447Y34111D01*
X-255287Y35085D02*
X-254313Y34111D01*
X-257881Y35645D02*
X-256633D01*
X-252891Y34103D02*
X-252457Y34536D01*
X-270492Y33472D02*
X-264249Y39715D01*
X-269114Y32021D02*
X-262447Y38688D01*
X-271850Y34942D02*
X-266450Y40342D01*
X-262379Y34559D02*
X-262090Y34269D01*
X-265249Y33058D02*
X-263271Y35036D01*
X-271817Y35511D02*
X-267366Y31060D01*
X-278410Y53417D02*
X-266464Y41472D01*
X-277354Y55190D02*
X-266488Y44324D01*
X-280433Y40501D02*
X-266574Y54361D01*
X-284669Y41923D02*
X-266930Y59662D01*
X-283264Y40499D02*
X-266598Y57165D01*
X-278131Y37147D02*
X-266526Y48752D01*
X-278632Y39474D02*
X-266550Y51557D01*
X-275909Y36540D02*
X-266502Y45948D01*
X-284724Y48418D02*
X-272888Y36583D01*
X-284676Y42713D02*
X-281657Y39694D01*
X-284653Y40033D02*
X-284650Y39688D01*
X-284700Y45565D02*
X-279502Y40367D01*
X-284691Y44500D02*
X-284653Y40039D01*
X-279324Y37361D02*
X-279044Y37081D01*
X-281078Y37028D02*
X-280857Y37249D01*
X-280260Y52439D02*
X-263730Y35909D01*
X-278650Y39516D02*
X-275477Y36342D01*
X-288364Y54887D02*
X-266433Y32956D01*
X-288366Y57717D02*
X-258615Y27966D01*
X-284621Y36314D02*
X-283745Y37190D01*
X-284627Y37007D02*
X-283646Y36026D01*
X-284634Y37888D02*
X-284578Y31245D01*
X-280191Y35087D02*
X-279747Y35531D01*
X-280302Y35511D02*
X-279508Y34717D01*
X-284597Y33509D02*
X-283428Y34678D01*
X-254313Y34111D02*
X-253068D01*
X-255100Y30311D02*
X-253986D01*
X-256177Y27988D02*
X-253920Y30245D01*
X-253554Y27783D02*
X-252506Y28831D01*
X-253184Y27016D02*
X-253093Y17168D01*
X-262499Y27930D02*
X-254193Y28006D01*
X-257420Y31844D02*
X-256446Y30871D01*
X-260485Y32665D02*
X-255812Y27992D01*
X-261886Y27936D02*
X-257975Y31847D01*
X-261886Y27936D02*
X-257975Y31847D01*
X-257881Y31844D02*
X-257420D01*
X-259032Y27962D02*
X-256275Y30718D01*
X-258085Y16122D02*
X-253663Y11701D01*
X-260576Y16099D02*
X-254084Y16158D01*
X-258505Y11518D02*
X-253829Y16194D01*
X-253396Y8142D02*
X-252923Y8615D01*
X-253771Y8980D02*
X-253061Y8269D01*
X-256273Y2436D02*
X-253526Y5184D01*
X-260261Y15470D02*
X-254021Y9229D01*
X-256335Y3059D02*
X-253379Y102D01*
X-259301Y13551D02*
X-256717Y16134D01*
X-259036Y13004D02*
X-257490Y8673D01*
X-258155Y10535D02*
X-254324Y6705D01*
X-260244Y15436D02*
X-259572Y16108D01*
X-260576Y16099D02*
X-259084Y13118D01*
X-256633Y4904D02*
X-254142Y7396D01*
X-256424Y3942D02*
X-256035Y78D01*
X-257154Y7213D02*
X-254372Y9994D01*
X-257456Y8554D02*
X-256444Y4063D01*
X-273135Y34001D02*
X-272067Y32933D01*
X-264005Y31473D02*
X-261901Y33578D01*
X-276516Y33105D02*
X-275410Y34211D01*
X-280447Y32002D02*
X-279442Y33007D01*
X-284603Y34155D02*
X-283616Y33168D01*
X-284351Y30926D02*
X-283626Y31651D01*
X-283015Y29434D02*
X-281702Y30747D01*
X-283801Y30151D02*
X-282694Y29142D01*
X-284578Y31245D02*
X-283801Y30151D01*
X-284578Y31302D02*
X-282039Y28762D01*
X-264741Y27910D02*
X-259922Y32728D01*
X-264169Y30691D02*
X-261418Y27940D01*
X-269667Y30533D02*
X-267023Y27889D01*
X-275998Y34036D02*
X-269826Y27863D01*
X-270450Y27857D02*
X-267342Y30965D01*
X-263960Y27917D02*
X-262499Y27930D01*
X-266064Y29758D02*
X-264220Y27914D01*
X-267595Y27883D02*
X-265758Y29721D01*
X-273305Y27831D02*
X-271021Y30114D01*
X-278445Y27784D02*
X-263960Y27917D01*
X-276828Y32037D02*
X-272628Y27837D01*
X-278958Y27834D02*
X-272742Y34050D01*
X-276159Y27805D02*
X-272472Y31492D01*
X-281271Y28350D02*
X-278005Y31616D01*
X-280356Y32736D02*
X-275431Y27812D01*
X-281332Y30884D02*
X-278234Y27786D01*
X-279973Y27934D02*
X-278445Y27784D01*
X-282694Y29142D02*
X-281398Y28391D01*
X-279973Y27934D01*
X98409Y46854D02*
X100000D01*
Y43886D02*
Y46854D01*
Y31500D02*
Y34468D01*
X98409Y31500D02*
X100000D01*
X-100000Y46854D02*
X-98409D01*
X-100000Y43886D02*
Y46854D01*
Y31500D02*
Y34468D01*
Y31500D02*
X-98409D01*
X-251700Y41200D02*
X-251699Y41199D01*
X-100215Y39915D02*
X-100100Y39800D01*
X-116886Y30070D02*
X-116683Y29868D01*
D12*
X101900Y43800D02*
X101934Y43834D01*
Y46820D01*
X101969Y46854D01*
X103937Y43963D02*
X104200Y43700D01*
X103937Y43963D02*
Y46854D01*
X106109Y43891D02*
X106300Y43700D01*
X106109Y43891D02*
Y46651D01*
X105905Y46854D02*
X106109Y46651D01*
X108026Y44374D02*
X109200Y43200D01*
X108026Y44374D02*
Y46703D01*
X107874Y46854D02*
X108026Y46703D01*
X107874Y45626D02*
X107900Y45600D01*
X107874Y45626D02*
Y46854D01*
X110037Y31695D02*
Y33937D01*
X111200Y35100D01*
X109843Y31500D02*
X110037Y31695D01*
X107874Y34174D02*
X108500Y34800D01*
X107874Y31500D02*
Y34174D01*
X105905Y31500D02*
X106176Y31770D01*
Y34676D01*
X106200Y34700D01*
X103937Y31500D02*
X104100Y31663D01*
Y34900D01*
X-103937Y31500D02*
Y34437D01*
X-104200Y34700D02*
X-103937Y34437D01*
X-106200Y34729D02*
X-105905Y34435D01*
Y31500D02*
Y34435D01*
X-106200Y34729D02*
Y35000D01*
X-108500Y34995D02*
Y35200D01*
Y34995D02*
X-107874Y34369D01*
Y31500D02*
Y34369D01*
X-110026Y31683D02*
X-109843Y31500D01*
X-110026Y31683D02*
Y33955D01*
X-110600Y34529D02*
Y34800D01*
Y34529D02*
X-110026Y33955D01*
X-114070Y46000D02*
X-113779Y46291D01*
Y46854D01*
X-115200Y46000D02*
X-114070D01*
X-102000Y46823D02*
X-101969Y46854D01*
X-102000Y42700D02*
Y46823D01*
X-104100Y42800D02*
Y46691D01*
X-103937Y46854D01*
X-106100Y42700D02*
Y46660D01*
X-105905Y46854D01*
D14*
X116693Y41519D02*
G03*
X118533Y40335I1858J866D01*
G01*
X110829Y42549D02*
G03*
X112290Y41519I1460J520D01*
G01*
X107643Y42831D02*
G03*
X110714Y42681I1557J369D01*
G01*
X105250Y42493D02*
G03*
X107643Y42831I1050J1207D01*
G01*
X119686Y37957D02*
G03*
X118696Y38367I-990J-990D01*
G01*
X120918Y36346D02*
G03*
X119760Y37883I-1600J0D01*
G01*
X119686Y37957D02*
G03*
X118696Y38367I-990J-990D01*
G01*
X100331Y43486D02*
G03*
X103002Y42640I1569J314D01*
G01*
D02*
G03*
X105250Y42493I1198J1060D01*
G01*
X102633Y38367D02*
G03*
X101644Y37957I0J-1400D01*
G01*
X102633Y38367D02*
G03*
X101644Y37957I0J-1400D01*
G01*
X117920Y35567D02*
G03*
X120918Y36346I1398J779D01*
G01*
X118498Y32107D02*
G03*
X117498Y31857I-19J-2050D01*
G01*
X100969Y37283D02*
G03*
X100559Y36293I990J-990D01*
G01*
X112800Y35100D02*
G03*
X112730Y35567I-1600J0D01*
G01*
X100969Y37283D02*
G03*
X100559Y36293I990J-990D01*
G01*
X112567Y34269D02*
G03*
X112800Y35100I-1367J831D01*
G01*
X-107200Y43862D02*
G03*
X-105038Y41504I1100J-1162D01*
G01*
X-100400Y42700D02*
G03*
X-100606Y43486I-1600J0D01*
G01*
X-103107Y41545D02*
G03*
X-100400Y42700I1107J1155D01*
G01*
X-105038Y41504D02*
G03*
X-103107Y41545I938J1296D01*
G01*
X-104563Y38381D02*
G03*
X-105372Y38600I-809J-1381D01*
G01*
X-106897D02*
G03*
X-107672Y38800I-775J-1400D01*
G01*
X-104563Y38381D02*
G03*
X-105372Y38600I-809J-1381D01*
G01*
X-106897D02*
G03*
X-107672Y38800I-775J-1400D01*
G01*
X-110962Y42642D02*
G03*
X-110611Y43491I-848J848D01*
G01*
X-110962Y42642D02*
G03*
X-110611Y43491I-848J848D01*
G01*
X-113220Y40282D02*
G03*
X-111420Y42082I0J1800D01*
G01*
X-109328Y38800D02*
G03*
X-110387Y38400I0J-1600D01*
G01*
X-109328Y38800D02*
G03*
X-110387Y38400I0J-1600D01*
G01*
X-118576Y40343D02*
G03*
X-118111Y40282I465J1739D01*
G01*
X-101409Y38064D02*
G03*
X-102365Y38381I-955J-1283D01*
G01*
X-100568Y36781D02*
G03*
X-101409Y38064I-1400J0D01*
G01*
X-100568Y36781D02*
G03*
X-101409Y38064I-1400J0D01*
G01*
X-112154Y35181D02*
G03*
X-112109Y34269I1554J-381D01*
G01*
X-118284Y38381D02*
G03*
X-119415Y37912I0J-1600D01*
G01*
X-118284Y38381D02*
G03*
X-119417Y37911I0J-1600D01*
G01*
X-119907Y37420D02*
G03*
X-117645Y35157I1131J-1131D01*
G01*
X-115170Y32647D02*
G03*
X-115456Y32186I1369J-1169D01*
G01*
X-115170Y32647D02*
G03*
X-115456Y32186I1369J-1169D01*
G01*
X-116965Y31870D02*
G03*
X-117964Y32120I-981J-1800D01*
G01*
X-115456Y32186D02*
G03*
X-116023Y31802I708J-1655D01*
G01*
X-115456Y32186D02*
G03*
X-116021Y31804I708J-1655D01*
G01*
X-116192Y31731D02*
G03*
X-116886Y31870I-694J-1661D01*
G01*
X167875Y39882D02*
X176180Y31578D01*
X168915Y31644D02*
X177068Y39798D01*
X166112Y31670D02*
X174266Y39824D01*
X173584Y39830D02*
X181889Y31525D01*
X176439Y39804D02*
X184743Y31499D01*
X170730Y39856D02*
X179034Y31551D01*
X160507Y31721D02*
X168660Y39875D01*
X163309Y31696D02*
X171463Y39849D01*
X159311Y39961D02*
X167616Y31656D01*
X165021Y39908D02*
X173325Y31604D01*
X162166Y39935D02*
X170470Y31630D01*
X242095Y39202D02*
X248664Y32632D01*
X244949Y39175D02*
X248637Y35488D01*
X247804Y39149D02*
X248609Y38344D01*
X185731Y31490D02*
X193885Y39644D01*
X188534Y31464D02*
X196688Y39618D01*
X182929Y31516D02*
X191082Y39669D01*
X174520Y31593D02*
X182674Y39746D01*
X177323Y31567D02*
X185477Y39721D01*
X171718Y31618D02*
X179871Y39772D01*
X180126Y31541D02*
X188279Y39695D01*
X179294Y39777D02*
X187598Y31473D01*
X136474Y40170D02*
X144779Y31866D01*
X138085Y31927D02*
X146239Y40081D01*
X135282Y31953D02*
X143436Y40106D01*
X142184Y40118D02*
X150488Y31813D01*
X145038Y40092D02*
X153343Y31787D01*
X139329Y40144D02*
X147634Y31839D01*
X129677Y32004D02*
X137830Y40158D01*
X132479Y31978D02*
X140633Y40132D01*
X127910Y40249D02*
X136215Y31944D01*
X133620Y40196D02*
X141924Y31892D01*
X130765Y40222D02*
X139070Y31918D01*
X154901Y31773D02*
X163055Y39926D01*
X157704Y31747D02*
X165858Y39901D01*
X152099Y31798D02*
X160252Y39952D01*
X153602Y40013D02*
X161907Y31708D01*
X156457Y39987D02*
X164761Y31682D01*
X150747Y40039D02*
X159052Y31735D01*
X143690Y31876D02*
X151844Y40029D01*
X146493Y31850D02*
X154647Y40003D01*
X140888Y31901D02*
X149041Y40055D01*
X149296Y31824D02*
X157449Y39978D01*
X147893Y40065D02*
X156197Y31761D01*
X224967Y39359D02*
X233272Y31054D01*
X224969Y31130D02*
X233123Y39284D01*
X222167Y31156D02*
X230320Y39309D01*
X230676Y39306D02*
X238981Y31002D01*
X233531Y39280D02*
X241835Y30975D01*
X227822Y39332D02*
X236126Y31028D01*
X216561Y31207D02*
X224715Y39361D01*
X219364Y31182D02*
X227518Y39335D01*
X216403Y39437D02*
X224708Y31133D01*
X222113Y39385D02*
X230417Y31080D01*
X219258Y39411D02*
X227563Y31106D01*
X241786Y30976D02*
X248614Y37804D01*
X244588Y30950D02*
X248641Y35003D01*
X238983Y31002D02*
X247137Y39155D01*
X248601Y39142D02*
X248681Y30913D01*
X247391Y30924D02*
X248669Y32202D01*
X239240Y39228D02*
X247545Y30923D01*
X230575Y31079D02*
X238728Y39232D01*
X233378Y31053D02*
X241531Y39207D01*
X227772Y31104D02*
X235926Y39258D01*
X236385Y39254D02*
X244690Y30949D01*
X236180Y31027D02*
X244334Y39181D01*
X196421Y39620D02*
X204726Y31316D01*
X194139Y31413D02*
X202293Y39566D01*
X193567Y39647D02*
X201871Y31342D01*
X202130Y39568D02*
X210435Y31264D01*
X204985Y39542D02*
X213289Y31237D01*
X199276Y39594D02*
X207580Y31290D01*
X185003Y39725D02*
X193307Y31420D01*
X191337Y31439D02*
X199490Y39592D01*
X182148Y39751D02*
X190453Y31447D01*
X190712Y39673D02*
X199016Y31368D01*
X187857Y39699D02*
X196162Y31394D01*
X210956Y31259D02*
X219109Y39412D01*
X213758Y31233D02*
X221912Y39387D01*
X208153Y31284D02*
X216307Y39438D01*
X213549Y39463D02*
X221853Y31159D01*
X210694Y39489D02*
X218999Y31185D01*
X199745Y31361D02*
X207898Y39515D01*
X202548Y31336D02*
X210701Y39489D01*
X196942Y31387D02*
X205096Y39541D01*
X207840Y39516D02*
X216144Y31211D01*
X205350Y31310D02*
X213504Y39464D01*
X112290Y41519D02*
X116693D01*
X113412Y38367D02*
X116564Y41519D01*
X115327D02*
X118478Y38367D01*
X109550Y41639D02*
X112822Y38367D01*
X107755D02*
X111281Y41892D01*
X106260Y42101D02*
X109993Y38367D01*
X104927D02*
X108384Y41824D01*
X118533Y40335D02*
X248601Y39142D01*
X119029Y38327D02*
X121014Y40312D01*
X120693Y37163D02*
X123817Y40286D01*
X110584Y38367D02*
X113736Y41519D01*
X102633Y38367D02*
X118696D01*
X110584D02*
X113736Y41519D01*
X116241Y38367D02*
X118233Y40360D01*
X112498Y41519D02*
X115650Y38367D01*
X97465Y48067D02*
X98010Y47522D01*
X99217Y43486D02*
X104336Y38367D01*
X98010Y43486D02*
Y48067D01*
X96211D02*
X98010D01*
X96214Y46489D02*
X98010Y44694D01*
X96214Y46624D02*
X97656Y48067D01*
X96220Y43655D02*
X101790Y38085D01*
X96220Y43802D02*
X98010Y45592D01*
X102944Y42588D02*
X107165Y38367D01*
X101876Y38144D02*
X105886Y42154D01*
X98010Y43486D02*
X100331D01*
X96232Y38158D02*
X100756Y42681D01*
X96226Y40980D02*
X98732Y43486D01*
X100969Y37283D02*
X101644Y37957D01*
X96226Y40820D02*
X100571Y36476D01*
X121268Y32081D02*
X129422Y40235D01*
X124071Y32056D02*
X132225Y40209D01*
X120873Y35972D02*
X124797Y32049D01*
X125056Y40275D02*
X133361Y31970D01*
X126874Y32030D02*
X135028Y40183D01*
X122201Y40301D02*
X130506Y31996D01*
X112793Y35567D02*
X114092Y34269D01*
X112789Y34916D02*
X113441Y35567D01*
X119347Y40327D02*
X127651Y32023D01*
X118465Y32107D02*
X126619Y40260D01*
X115622Y35567D02*
X119088Y32101D01*
X119271Y34746D02*
X121942Y32075D01*
X115387Y31857D02*
X118500Y34970D01*
X118498Y32107D02*
X248681Y30913D01*
X115170Y33190D02*
X116504Y31857D01*
X114971Y34269D02*
X116269Y35567D01*
X112730D02*
X117920D01*
X113202Y34269D02*
X115170D01*
Y31857D02*
X117498D01*
X115170D02*
Y34269D01*
X98600Y34868D02*
X100782Y37050D01*
X100559Y34868D02*
Y36293D01*
X96238Y35335D02*
X103288Y42385D01*
X98010Y34868D02*
X100559D01*
X96233Y37985D02*
X99349Y34868D01*
X96239Y35151D02*
X98010Y33380D01*
X96211Y48067D02*
X96252Y29360D01*
X112567Y34269D02*
X113202D01*
X112567D02*
X113202D01*
X98010Y34278D02*
X98600Y34868D01*
X96245Y32316D02*
X98010Y30552D01*
X96251Y29691D02*
X98010Y31450D01*
X96245Y32513D02*
X98010Y34278D01*
Y29328D02*
Y34868D01*
X96252Y29360D02*
X98010Y29328D01*
X-98010Y48441D02*
X-96171D01*
X-98010Y44734D02*
X-96175Y46569D01*
X-98010Y47563D02*
X-97131Y48441D01*
X-98010Y48380D02*
X-96175Y46545D01*
X-98010Y45551D02*
X-96181Y43723D01*
X-98772Y43486D02*
X-96187Y40901D01*
X-98010Y43486D02*
Y48441D01*
X-100606Y43486D02*
X-98010D01*
X-100453Y42290D02*
X-99258Y43486D01*
X-110611Y44011D02*
X-105190Y38590D01*
X-104363Y38381D02*
X-101590Y41153D01*
X-104563Y38381D02*
X-102365D01*
X-106946Y38626D02*
X-104352Y41220D01*
X-106897Y38600D02*
X-105372D01*
X-109629Y38772D02*
X-107014Y41387D01*
X-109265Y44086D02*
X-108452D01*
X-107296D01*
X-109265D02*
X-108452D01*
X-110421D02*
X-109265D01*
X-107858D02*
X-107402Y43630D01*
X-110611Y43491D02*
Y44086D01*
X-110612Y43445D02*
X-109971Y44086D01*
X-112848Y38381D02*
X-107200Y44029D01*
X-111423Y42182D02*
X-110962Y42642D01*
X-111422Y41994D02*
X-108229Y38800D01*
X-109328D02*
X-107672D01*
X-111428Y38400D02*
X-110387D01*
X-112636Y40379D02*
X-110657Y38400D01*
X-115677Y38381D02*
X-113776Y40282D01*
X-118111D02*
X-113220D01*
X-115367D02*
X-113466Y38381D01*
X-118284D02*
X-111677D01*
X-118198Y40284D02*
X-116294Y38381D01*
X-100444Y42329D02*
X-96193Y38078D01*
X-100568Y36518D02*
X-96187Y40899D01*
X-99390Y34868D02*
X-96193Y38065D01*
X-100569Y36797D02*
X-98640Y34868D01*
X-96212Y29734D02*
X-96171Y48441D01*
X-98010Y33420D02*
X-96200Y35230D01*
X-100568Y34868D02*
Y36781D01*
X-101686Y38229D02*
X-96181Y43734D01*
X-105170Y41398D02*
X-102136Y38364D01*
X-102044Y41101D02*
X-96200Y35256D01*
X-98010Y34238D02*
X-96206Y32434D01*
X-98010Y30592D02*
X-96206Y32395D01*
X-98640Y34868D02*
X-98010Y34238D01*
Y31409D02*
X-96332Y29732D01*
X-98010Y29701D02*
X-96212Y29734D01*
X-98010Y29701D02*
Y34868D01*
X-117621Y35181D02*
X-112154D01*
X-100568Y34868D02*
X-98010D01*
X-113094Y35181D02*
X-112182Y34269D01*
X-118523Y38363D02*
X-116604Y40282D01*
X-115923Y35181D02*
X-115011Y34269D01*
X-114132D02*
X-113220Y35181D01*
X-119119Y32110D02*
X-116048Y35181D01*
X-121062Y40320D02*
X-118969Y38227D01*
X-119907Y37420D02*
X-119417Y37911D01*
X-123865Y40295D02*
X-120311Y36740D01*
X-121974Y32083D02*
X-119285Y34772D01*
X-124829Y32057D02*
X-120358Y36528D01*
X-113202Y34269D02*
X-112389D01*
X-113202D02*
X-112389D01*
X-115170D02*
X-113202D01*
X-115170Y32647D02*
Y34269D01*
X-118324Y34754D02*
X-115656Y32086D01*
X-116560Y31841D02*
X-115170Y33230D01*
X-126668Y40269D02*
X-118514Y32115D01*
X-129471Y40243D02*
X-121317Y32089D01*
X-132273Y40217D02*
X-124120Y32064D01*
X-135076Y40192D02*
X-126922Y32038D01*
X-127683Y32031D02*
X-119379Y40336D01*
X-130538Y32005D02*
X-122233Y40309D01*
X-133392Y31979D02*
X-125088Y40283D01*
X-248565Y39151D02*
X-118576Y40343D01*
X-136247Y31953D02*
X-127942Y40257D01*
X-137879Y40166D02*
X-129725Y32012D01*
X-139102Y31926D02*
X-130797Y40231D01*
X-141956Y31900D02*
X-133652Y40205D01*
X-144811Y31874D02*
X-136506Y40179D01*
X-140682Y40140D02*
X-132528Y31987D01*
X-143484Y40115D02*
X-135331Y31961D01*
X-146287Y40089D02*
X-138133Y31935D01*
X-147665Y31848D02*
X-139361Y40152D01*
X-149090Y40063D02*
X-140936Y31909D01*
X-150520Y31822D02*
X-142215Y40126D01*
X-151892Y40038D02*
X-143739Y31884D01*
X-154695Y40012D02*
X-146542Y31858D01*
X-157498Y39986D02*
X-149344Y31832D01*
X-153375Y31795D02*
X-145070Y40100D01*
X-156229Y31769D02*
X-147925Y40074D01*
X-159084Y31743D02*
X-150779Y40048D01*
X-160301Y39960D02*
X-152147Y31807D01*
X-163103Y39935D02*
X-154950Y31781D01*
X-165906Y39909D02*
X-157752Y31755D01*
X-161938Y31717D02*
X-153634Y40021D01*
X-164793Y31691D02*
X-156489Y39995D01*
X-167648Y31664D02*
X-159343Y39969D01*
X-170502Y31638D02*
X-162198Y39943D01*
X-168709Y39883D02*
X-160555Y31730D01*
X-171512Y39858D02*
X-163358Y31704D01*
X-173357Y31612D02*
X-165052Y39917D01*
X-176212Y31586D02*
X-167907Y39891D01*
X-179066Y31560D02*
X-170762Y39864D01*
X-174314Y39832D02*
X-166161Y31678D01*
X-177117Y39806D02*
X-168963Y31653D01*
X-179920Y39780D02*
X-171766Y31627D01*
X-181921Y31534D02*
X-173616Y39838D01*
X-182722Y39755D02*
X-174569Y31601D01*
X-184775Y31508D02*
X-176471Y39812D01*
X-248627Y32709D02*
X-242127Y39210D01*
X-248600Y35565D02*
X-244981Y39184D01*
X-248572Y38422D02*
X-247836Y39158D01*
X-185525Y39729D02*
X-177372Y31575D01*
X-188328Y39703D02*
X-180174Y31550D01*
X-191131Y39678D02*
X-182977Y31524D01*
X-187630Y31481D02*
X-179325Y39786D01*
X-193933Y39652D02*
X-185780Y31498D01*
X-196736Y39626D02*
X-188582Y31473D01*
X-190484Y31455D02*
X-182180Y39760D01*
X-193339Y31429D02*
X-185035Y39733D01*
X-196194Y31403D02*
X-187889Y39707D01*
X-199048Y31377D02*
X-190744Y39681D01*
X-199539Y39601D02*
X-191385Y31447D01*
X-201903Y31350D02*
X-193598Y39655D01*
X-204757Y31324D02*
X-196453Y39629D01*
X-207612Y31298D02*
X-199308Y39603D01*
X-210467Y31272D02*
X-202162Y39576D01*
X-202342Y39575D02*
X-194188Y31421D01*
X-205144Y39549D02*
X-196991Y31395D01*
X-207947Y39523D02*
X-199793Y31370D01*
X-213321Y31246D02*
X-205017Y39550D01*
X-210750Y39498D02*
X-202596Y31344D01*
X-213552Y39472D02*
X-205399Y31318D01*
X-216176Y31220D02*
X-207871Y39524D01*
X-216355Y39446D02*
X-208202Y31293D01*
X-219158Y39421D02*
X-211004Y31267D01*
X-219031Y31193D02*
X-210726Y39498D01*
X-248645Y30922D02*
X-117964Y32120D01*
X-221885Y31167D02*
X-213581Y39472D01*
X-221961Y39395D02*
X-213807Y31241D01*
X-224763Y39369D02*
X-216610Y31216D01*
X-227566Y39344D02*
X-219412Y31190D01*
X-224740Y31141D02*
X-216435Y39446D01*
X-227594Y31115D02*
X-219290Y39419D01*
X-230369Y39318D02*
X-222215Y31164D01*
X-230449Y31089D02*
X-222144Y39393D01*
X-233304Y31062D02*
X-224999Y39367D01*
X-233172Y39292D02*
X-225018Y31138D01*
X-236158Y31036D02*
X-227854Y39341D01*
X-239013Y31010D02*
X-230708Y39315D01*
X-241867Y30984D02*
X-233563Y39288D01*
X-235974Y39266D02*
X-227821Y31113D01*
X-238777Y39241D02*
X-230623Y31087D01*
X-241580Y39215D02*
X-233426Y31061D01*
X-244722Y30958D02*
X-236418Y39262D01*
X-244383Y39189D02*
X-236229Y31036D01*
X-244722Y30958D02*
X-236418Y39262D01*
X-247185Y39164D02*
X-239032Y31010D01*
X-248579Y37729D02*
X-241834Y30984D01*
X-248606Y34927D02*
X-244637Y30959D01*
X-247577Y30932D02*
X-239272Y39236D01*
X-248633Y32126D02*
X-247440Y30933D01*
X-248645Y30922D02*
X-248565Y39151D01*
X111821Y43538D02*
X112290Y43069D01*
X111811Y46854D02*
X111821Y46845D01*
X113779Y30350D02*
Y31500D01*
X100000Y39000D02*
Y46854D01*
Y31500D02*
Y39000D01*
X-100100Y39800D02*
Y46754D01*
Y35000D02*
Y39800D01*
Y35000D02*
X-100000Y34900D01*
Y31500D02*
Y34900D01*
X-100100Y46754D02*
X-100000Y46854D01*
X-113220Y42082D02*
X-111811Y43491D01*
Y44748D01*
D39*
X60554Y38741D02*
D03*
D40*
X-60553Y38740D02*
D03*
D41*
X-257717Y33716D02*
D03*
X-257300Y31300D02*
D03*
X-251700Y41200D02*
D03*
X253898Y32991D02*
D03*
X108500Y34800D02*
D03*
X-9790Y50468D02*
D03*
X-117619Y42614D02*
D03*
X-239200Y48600D02*
D03*
X-115200Y46000D02*
D03*
X-102000Y42700D02*
D03*
X-104100Y42800D02*
D03*
X-106100Y42700D02*
D03*
X-115041Y30239D02*
D03*
X100000Y39000D02*
D03*
X119318Y36346D02*
D03*
X-108500Y35200D02*
D03*
X235529Y57051D02*
D03*
X271851Y29677D02*
D03*
X281158Y30433D02*
D03*
X255800Y13400D02*
D03*
X275200Y55900D02*
D03*
X-100100Y39800D02*
D03*
X-276200Y55700D02*
D03*
X-255300Y4100D02*
D03*
X-110600Y34800D02*
D03*
X109200Y43200D02*
D03*
X104100Y34900D02*
D03*
X101900Y43800D02*
D03*
X111200Y35100D02*
D03*
X106300Y43700D02*
D03*
X106200Y34700D02*
D03*
X104200Y43700D02*
D03*
X-106200Y35000D02*
D03*
X-104200Y34700D02*
D03*
D43*
X-38204Y36658D02*
D03*
X241686Y49341D02*
D03*
D44*
X-276587Y29713D02*
D03*
D45*
X-257881Y33744D02*
X-256633D01*
X-118111Y42082D02*
X-113220D01*
X249764Y28857D02*
X253898Y32991D01*
X249248Y28857D02*
X249764D01*
X250254Y48322D02*
X250875Y47701D01*
Y41500D02*
Y47701D01*
X242705Y48322D02*
X250254D01*
X241686Y49341D02*
X242705Y48322D01*
X250550Y41174D02*
X250875Y41500D01*
X-249859Y28871D02*
X-248715D01*
X-252716Y31728D02*
X-249859Y28871D01*
X-252716Y31728D02*
Y31859D01*
X-253068Y32211D02*
X-252716Y31859D01*
X-255100Y32211D02*
X-253068D01*
X-256633Y33744D02*
X-255100Y32211D01*
X-115333Y29946D02*
X-115041Y30239D01*
X-114748Y30531D01*
X-114189D01*
X-113802Y30919D01*
Y31478D02*
X-113779Y31500D01*
X-113802Y30919D02*
Y31478D01*
X-115960Y29946D02*
X-115333D01*
X-117946Y30070D02*
X-116886D01*
X114497Y30057D02*
X118479D01*
D47*
X-113779Y31500D02*
D03*
Y46854D02*
D03*
X-111811Y31500D02*
D03*
Y46854D02*
D03*
X-109843Y31500D02*
D03*
Y46854D02*
D03*
X-107874Y31500D02*
D03*
Y46854D02*
D03*
X-105905Y31500D02*
D03*
Y46854D02*
D03*
X-103937Y31500D02*
D03*
Y46854D02*
D03*
X-101969Y31500D02*
D03*
Y46854D02*
D03*
X-100000Y31500D02*
D03*
Y46854D02*
D03*
X100000Y31500D02*
D03*
Y46854D02*
D03*
X101969Y31500D02*
D03*
Y46854D02*
D03*
X103937Y31500D02*
D03*
Y46854D02*
D03*
X105905Y31500D02*
D03*
Y46854D02*
D03*
X107874Y31500D02*
D03*
Y46854D02*
D03*
X109843Y31500D02*
D03*
Y46854D02*
D03*
X111811Y31500D02*
D03*
Y46854D02*
D03*
X113779Y31500D02*
D03*
Y46854D02*
D03*
D48*
X118552Y42385D02*
X250550Y41174D01*
X-251699Y41199D02*
X-248788D01*
X-118019Y42398D01*
X118479Y30057D02*
X249248Y28857D01*
X-248715Y28871D02*
X-117946Y30070D01*
D49*
X112290Y43069D02*
X117744D01*
D50*
X118696Y36967D02*
X119318Y36346D01*
X102633Y36967D02*
X118696D01*
X101959Y36293D02*
X102633Y36967D01*
X111821Y43538D02*
Y46845D01*
X101959Y32542D02*
Y36293D01*
Y32542D02*
X101969Y32532D01*
Y31500D02*
Y32532D01*
X-101969Y31500D02*
Y36781D01*
X-102365D02*
X-101969D01*
D51*
X-105152D02*
X-102365D01*
X-105372Y37000D02*
X-105152Y36781D01*
X-107028Y37000D02*
X-105372D01*
X-107248Y36781D02*
X-107028Y37000D01*
X-107252Y36781D02*
X-107248D01*
X-107672Y37200D02*
X-107252Y36781D01*
X-109328Y37200D02*
X-107672D01*
X-109748Y36781D02*
X-109328Y37200D01*
X-109752Y36781D02*
X-109748D01*
X-109772Y36800D02*
X-109752Y36781D01*
X-111428Y36800D02*
X-109772D01*
X-111448Y36781D02*
X-111428Y36800D01*
X-118284Y36781D02*
X-111448D01*
X-118776Y36289D02*
X-118284Y36781D01*
M02*
