G04*
G04 #@! TF.GenerationSoftware,Altium Limited,Altium Designer,20.2.3 (150)*
G04*
G04 Layer_Color=65535*
%FSLAX25Y25*%
%MOIN*%
G70*
G04*
G04 #@! TF.SameCoordinates,1A6DCC39-EBF3-408F-891E-A4E00116EB29*
G04*
G04*
G04 #@! TF.FilePolarity,Positive*
G04*
G01*
G75*
%ADD10C,0.00787*%
%ADD11C,0.01000*%
%ADD12C,0.00394*%
%ADD13C,0.00600*%
%ADD14C,0.00800*%
%ADD15R,0.09744X0.02129*%
%ADD16R,0.09903X0.02354*%
%ADD17R,0.10121X0.02120*%
%ADD18R,0.02389X0.12398*%
%ADD19R,0.14904X0.02120*%
%ADD20R,0.02639X0.16677*%
D10*
X-275235Y67826D02*
G03*
X-275235Y67826I-394J0D01*
G01*
X256312Y67274D02*
G03*
X256312Y67274I-394J0D01*
G01*
X125284Y85213D02*
G03*
X124890Y85213I-197J0D01*
G01*
D02*
G03*
X125284Y85213I197J0D01*
G01*
D02*
G03*
X124890Y85213I-197J0D01*
G01*
X-125285Y62378D02*
G03*
X-124891Y62378I197J0D01*
G01*
D02*
G03*
X-125285Y62378I-197J0D01*
G01*
D02*
G03*
X-124891Y62378I197J0D01*
G01*
X-273833Y67826D02*
X-265739D01*
Y57936D02*
Y67826D01*
X-275629Y57936D02*
X-265739D01*
X-275629D02*
Y66031D01*
X-273833Y67826D01*
X257714Y67274D02*
X265809D01*
Y57385D02*
Y67274D01*
X255919Y57385D02*
X265809D01*
X255919D02*
Y65479D01*
X257714Y67274D01*
X-163568Y112332D02*
X-165142D01*
Y111152D01*
X-164355D01*
X-165142D01*
Y109971D01*
X-162780D02*
Y112332D01*
X-161600D01*
X-161206Y111939D01*
Y111152D01*
X-161600Y110758D01*
X-162780D01*
X-161993D02*
X-161206Y109971D01*
X-159238Y112332D02*
X-160026D01*
X-160419Y111939D01*
Y110365D01*
X-160026Y109971D01*
X-159238D01*
X-158845Y110365D01*
Y111939D01*
X-159238Y112332D01*
X-158058Y109971D02*
Y112332D01*
X-156483Y109971D01*
Y112332D01*
X-155696D02*
X-154122D01*
X-154909D01*
Y109971D01*
X-149399Y112332D02*
X-150973D01*
Y111152D01*
X-150186D01*
X-150973D01*
Y109971D01*
X-148612Y112332D02*
Y109971D01*
X-147038D01*
X-144676Y112332D02*
X-146250D01*
Y109971D01*
X-144676D01*
X-146250Y111152D02*
X-145463D01*
X-143889Y112332D02*
X-142315Y109971D01*
Y112332D02*
X-143889Y109971D01*
X-136805Y111545D02*
X-136018Y109971D01*
X-135230Y111545D01*
X-134443Y111939D02*
X-134050Y112332D01*
X-133263D01*
X-132869Y111939D01*
Y111545D01*
X-133263Y111152D01*
X-133656D01*
X-133263D01*
X-132869Y110758D01*
Y110365D01*
X-133263Y109971D01*
X-134050D01*
X-134443Y110365D01*
X-165142Y107215D02*
X-164748Y107609D01*
X-163961D01*
X-163568Y107215D01*
Y105641D01*
X-163961Y105247D01*
X-164748D01*
X-165142Y105641D01*
Y107215D01*
X-161600Y105247D02*
Y107609D01*
X-162780Y106428D01*
X-161206D01*
X-160419Y105247D02*
Y105641D01*
X-160026D01*
Y105247D01*
X-160419D01*
X-158451D02*
X-157664D01*
X-158058D01*
Y107609D01*
X-158451Y107215D01*
X-154909Y107609D02*
X-155696Y107215D01*
X-156483Y106428D01*
Y105641D01*
X-156090Y105247D01*
X-155303D01*
X-154909Y105641D01*
Y106035D01*
X-155303Y106428D01*
X-156483D01*
X-154122Y105247D02*
Y105641D01*
X-153728D01*
Y105247D01*
X-154122D01*
X-150580D02*
X-152154D01*
X-150580Y106822D01*
Y107215D01*
X-150973Y107609D01*
X-151760D01*
X-152154Y107215D01*
X-149793D02*
X-149399Y107609D01*
X-148612D01*
X-148218Y107215D01*
Y105641D01*
X-148612Y105247D01*
X-149399D01*
X-149793Y105641D01*
Y107215D01*
X-145857Y105247D02*
X-147431D01*
X-145857Y106822D01*
Y107215D01*
X-146250Y107609D01*
X-147038D01*
X-147431Y107215D01*
X-145070Y105247D02*
X-144283D01*
X-144676D01*
Y107609D01*
X-145070Y107215D01*
X98907Y103376D02*
Y106721D01*
X100579D01*
X101137Y106164D01*
Y105049D01*
X100579Y104491D01*
X98907D01*
X102252Y103376D02*
Y105606D01*
X103367Y106721D01*
X104482Y105606D01*
Y103376D01*
Y105049D01*
X102252D01*
X105597Y106721D02*
X107828D01*
X106712D01*
Y103376D01*
X108943D02*
Y106721D01*
X110615D01*
X111173Y106164D01*
Y105049D01*
X110615Y104491D01*
X108943D01*
X110058D02*
X111173Y103376D01*
X112288Y106721D02*
X113403D01*
X112846D01*
Y103376D01*
X112288D01*
X113403D01*
X117306Y106164D02*
X116749Y106721D01*
X115633D01*
X115076Y106164D01*
Y103934D01*
X115633Y103376D01*
X116749D01*
X117306Y103934D01*
X118421Y106721D02*
Y103376D01*
Y104491D01*
X120652Y106721D01*
X118979Y105049D01*
X120652Y103376D01*
X127342Y106164D02*
X126785Y106721D01*
X125670D01*
X125112Y106164D01*
Y103934D01*
X125670Y103376D01*
X126785D01*
X127342Y103934D01*
X128457Y106721D02*
Y103376D01*
Y105049D01*
X130688D01*
Y106721D01*
Y103376D01*
X131803Y106721D02*
Y103376D01*
X132918Y104491D01*
X134033Y103376D01*
Y106721D01*
X135148Y103376D02*
Y105606D01*
X136263Y106721D01*
X137379Y105606D01*
Y103376D01*
Y105049D01*
X135148D01*
X138494Y106721D02*
Y103376D01*
X140724D01*
X144069Y106721D02*
X141839D01*
Y103376D01*
X144069D01*
X141839Y105049D02*
X142954D01*
X145184Y106721D02*
Y103376D01*
Y104491D01*
X147415Y106721D01*
X145742Y105049D01*
X147415Y103376D01*
X154105D02*
X153548Y103934D01*
X152990Y103376D01*
X152433D01*
X151875Y103934D01*
Y104491D01*
X152433Y105049D01*
X151875Y105606D01*
Y106164D01*
X152433Y106721D01*
X152990D01*
X153548Y106164D01*
Y105606D01*
X152990Y105049D01*
X153548Y104491D01*
Y103934D01*
X154105Y105049D02*
X153548Y104491D01*
X152433Y105049D02*
X152990D01*
X158566Y106721D02*
Y103376D01*
X160239D01*
X160796Y103934D01*
Y106164D01*
X160239Y106721D01*
X158566D01*
X161911Y103376D02*
Y105606D01*
X163026Y106721D01*
X164141Y105606D01*
Y103376D01*
Y105049D01*
X161911D01*
X165257Y106721D02*
Y104491D01*
X166372Y103376D01*
X167487Y104491D01*
Y106721D01*
X168602D02*
X169717D01*
X169160D01*
Y103376D01*
X168602D01*
X169717D01*
X171390Y106721D02*
Y103376D01*
X173063D01*
X173620Y103934D01*
Y106164D01*
X173063Y106721D01*
X171390D01*
X178081Y103376D02*
Y106721D01*
X179753D01*
X180311Y106164D01*
Y105049D01*
X179753Y104491D01*
X178081D01*
X179196D02*
X180311Y103376D01*
X181426D02*
Y105606D01*
X182541Y106721D01*
X183656Y105606D01*
Y103376D01*
Y105049D01*
X181426D01*
X184771Y103376D02*
Y106721D01*
X185887Y105606D01*
X187002Y106721D01*
Y103376D01*
X190347Y106164D02*
X189789Y106721D01*
X188674D01*
X188117Y106164D01*
Y105606D01*
X188674Y105049D01*
X189789D01*
X190347Y104491D01*
Y103934D01*
X189789Y103376D01*
X188674D01*
X188117Y103934D01*
X191462Y103376D02*
Y105606D01*
X192577Y106721D01*
X193692Y105606D01*
Y103376D01*
Y105049D01*
X191462D01*
X194808Y106721D02*
Y106164D01*
X195923Y105049D01*
X197038Y106164D01*
Y106721D01*
X195923Y105049D02*
Y103376D01*
D11*
X-250914Y43128D02*
G03*
X-250914Y43128I-47J0D01*
G01*
X-245211Y33472D02*
G03*
X-245217Y40740I-1512J3633D01*
G01*
X-230561Y85697D02*
G03*
X-234787Y91610I-3341J2079D01*
G01*
X-240803Y90219D02*
G03*
X-240803Y90219I-47J0D01*
G01*
X251009Y31081D02*
G03*
X251009Y31081I-47J0D01*
G01*
X245211Y40737D02*
G03*
X245217Y33469I1512J-3633D01*
G01*
X234635Y91512D02*
G03*
X230419Y85591I-879J-3836D01*
G01*
X233756Y80312D02*
G03*
X233756Y80312I-47J0D01*
G01*
X58035Y40886D02*
G03*
X58035Y40886I-128J0D01*
G01*
X63032Y29032D02*
G03*
X63032Y29032I-10630J0D01*
G01*
X40338Y51891D02*
G03*
X40338Y51891I-197J0D01*
G01*
X-55074Y73499D02*
G03*
X-55074Y73499I-197J0D01*
G01*
X49027Y43351D02*
X50299Y39856D01*
X45956Y42233D02*
X49027Y43351D01*
X45956Y42233D02*
X47355Y38387D01*
X35771Y62865D02*
Y69951D01*
X40496Y62865D02*
Y69951D01*
D12*
X127646Y68224D02*
X128532D01*
X127646D02*
X128532D01*
X107075D02*
X107961D01*
X107075D02*
X107961D01*
X107075Y79366D02*
X107961D01*
X107075D02*
X107961D01*
X127646D02*
X128532D01*
X127646D02*
X128532D01*
X107075Y68224D02*
Y79366D01*
Y68224D02*
Y79366D01*
X128532Y68224D02*
Y79366D01*
Y68224D02*
Y79366D01*
X-128533D02*
X-127647D01*
X-128533D02*
X-127647D01*
X-107962D02*
X-107076D01*
X-107962D02*
X-107076D01*
X-107962Y68224D02*
X-107076D01*
X-107962D02*
X-107076D01*
X-128533D02*
X-127647D01*
X-128533D02*
X-127647D01*
X-107076D02*
Y79366D01*
Y68224D02*
Y79366D01*
X-128533Y68224D02*
Y79366D01*
Y68224D02*
Y79366D01*
D13*
X274342Y56183D02*
Y60120D01*
X266862D02*
X274342D01*
X266862Y56183D02*
Y60120D01*
Y56183D02*
X274342D01*
X274341Y63661D02*
Y67598D01*
X266861D02*
X274341D01*
X266861Y63661D02*
Y67598D01*
Y63661D02*
X274341D01*
X274342Y59724D02*
Y63661D01*
X266862D02*
X274342D01*
X266862Y59724D02*
Y63661D01*
Y59724D02*
X274342D01*
X274536Y60091D02*
X278473D01*
Y67571D01*
X274536D02*
X278473D01*
X274536Y60091D02*
Y67571D01*
X-247702Y58595D02*
Y62532D01*
X-255183D02*
X-247702D01*
X-255183Y58595D02*
Y62532D01*
Y58595D02*
X-247702D01*
X-248108Y63174D02*
Y67111D01*
X-255588D02*
X-248108D01*
X-255588Y63174D02*
Y67111D01*
Y63174D02*
X-248108D01*
X-257268Y58595D02*
Y62532D01*
X-264748D02*
X-257268D01*
X-264748Y58595D02*
Y62532D01*
Y58595D02*
X-257268D01*
X-264748Y62429D02*
Y66366D01*
Y62429D02*
X-257268D01*
Y66366D01*
X-264748D02*
X-257268D01*
X-39177Y70039D02*
X-35240D01*
X-39177Y62559D02*
Y70039D01*
Y62559D02*
X-35240D01*
Y70039D01*
X-44833Y62559D02*
X-40896D01*
Y70039D01*
X-44833D02*
X-40896D01*
X-44833Y62559D02*
Y70039D01*
X275397Y72790D02*
X274897Y72290D01*
Y71291D01*
X275397Y70791D01*
X277397D01*
X277896Y71291D01*
Y72290D01*
X277397Y72790D01*
X277896Y73790D02*
Y74790D01*
Y74290D01*
X274897D01*
X275397Y73790D01*
X269578Y75683D02*
X269078Y76183D01*
X268078D01*
X267578Y75683D01*
Y73684D01*
X268078Y73184D01*
X269078D01*
X269578Y73684D01*
X272077Y73184D02*
Y76183D01*
X270577Y74683D01*
X272577D01*
X269579Y71325D02*
X269079Y71825D01*
X268079D01*
X267580Y71325D01*
Y69326D01*
X268079Y68826D01*
X269079D01*
X269579Y69326D01*
X272578Y68826D02*
X270579D01*
X272578Y70825D01*
Y71325D01*
X272078Y71825D01*
X271078D01*
X270579Y71325D01*
X269495Y79559D02*
X268995Y80058D01*
X267995D01*
X267495Y79559D01*
Y77559D01*
X267995Y77060D01*
X268995D01*
X269495Y77559D01*
X270494Y79559D02*
X270994Y80058D01*
X271994D01*
X272494Y79559D01*
Y79059D01*
X271994Y78559D01*
X271494D01*
X271994D01*
X272494Y78059D01*
Y77559D01*
X271994Y77060D01*
X270994D01*
X270494Y77559D01*
X-252418Y70703D02*
X-252918Y71203D01*
X-253918D01*
X-254417Y70703D01*
Y68704D01*
X-253918Y68204D01*
X-252918D01*
X-252418Y68704D01*
X-249419Y71203D02*
X-250419Y70703D01*
X-251418Y69703D01*
Y68704D01*
X-250919Y68204D01*
X-249919D01*
X-249419Y68704D01*
Y69204D01*
X-249919Y69703D01*
X-251418D01*
X-263800Y72451D02*
X-264300Y72950D01*
X-265300D01*
X-265800Y72451D01*
Y70451D01*
X-265300Y69951D01*
X-264300D01*
X-263800Y70451D01*
X-262801Y72451D02*
X-262301Y72950D01*
X-261301D01*
X-260801Y72451D01*
Y71951D01*
X-261301Y71451D01*
X-260801Y70951D01*
Y70451D01*
X-261301Y69951D01*
X-262301D01*
X-262801Y70451D01*
Y70951D01*
X-262301Y71451D01*
X-262801Y71951D01*
Y72451D01*
X-262301Y71451D02*
X-261301D01*
X-264143Y76629D02*
X-264643Y77129D01*
X-265642D01*
X-266142Y76629D01*
Y74630D01*
X-265642Y74130D01*
X-264643D01*
X-264143Y74630D01*
X-263143Y77129D02*
X-261144D01*
Y76629D01*
X-263143Y74630D01*
Y74130D01*
X-252792Y75239D02*
X-253292Y75739D01*
X-254292D01*
X-254792Y75239D01*
Y73240D01*
X-254292Y72740D01*
X-253292D01*
X-252792Y73240D01*
X-249793Y75739D02*
X-251793D01*
Y74240D01*
X-250793Y74740D01*
X-250293D01*
X-249793Y74240D01*
Y73240D01*
X-250293Y72740D01*
X-251293D01*
X-251793Y73240D01*
X34307Y33424D02*
Y30925D01*
X34807Y30425D01*
X35807D01*
X36306Y30925D01*
Y33424D01*
X39305Y30425D02*
X37306D01*
X39305Y32424D01*
Y32924D01*
X38806Y33424D01*
X37806D01*
X37306Y32924D01*
X246457Y65570D02*
X247457D01*
X246957D01*
Y62571D01*
X246457D01*
X247457D01*
X250956Y65070D02*
X250456Y65570D01*
X249456D01*
X248956Y65070D01*
Y63071D01*
X249456Y62571D01*
X250456D01*
X250956Y63071D01*
X253955Y62571D02*
X251955D01*
X253955Y64570D01*
Y65070D01*
X253455Y65570D01*
X252455D01*
X251955Y65070D01*
X-276096Y73790D02*
X-275096D01*
X-275596D01*
Y70791D01*
X-276096D01*
X-275096D01*
X-271597Y73290D02*
X-272097Y73790D01*
X-273097D01*
X-273596Y73290D01*
Y71291D01*
X-273097Y70791D01*
X-272097D01*
X-271597Y71291D01*
X-270597Y70791D02*
X-269598D01*
X-270097D01*
Y73790D01*
X-270597Y73290D01*
X-45524Y72126D02*
Y75125D01*
X-44024D01*
X-43525Y74625D01*
Y73625D01*
X-44024Y73125D01*
X-45524D01*
X-44524D02*
X-43525Y72126D01*
X-40526Y75125D02*
X-41525Y74625D01*
X-42525Y73625D01*
Y72625D01*
X-42025Y72126D01*
X-41025D01*
X-40526Y72625D01*
Y73125D01*
X-41025Y73625D01*
X-42525D01*
X-38782Y71842D02*
Y74841D01*
X-37283D01*
X-36783Y74341D01*
Y73341D01*
X-37283Y72841D01*
X-38782D01*
X-37782D02*
X-36783Y71842D01*
X-33784Y74841D02*
X-35783D01*
Y73341D01*
X-34783Y73841D01*
X-34284D01*
X-33784Y73341D01*
Y72342D01*
X-34284Y71842D01*
X-35283D01*
X-35783Y72342D01*
X35889Y73027D02*
Y76026D01*
X37389D01*
X37889Y75526D01*
Y74526D01*
X37389Y74026D01*
X35889D01*
X36889D02*
X37889Y73027D01*
X40388D02*
Y76026D01*
X38888Y74526D01*
X40888D01*
X-29881Y73501D02*
X-30380Y74001D01*
X-31380D01*
X-31880Y73501D01*
Y71501D01*
X-31380Y71001D01*
X-30380D01*
X-29881Y71501D01*
X-27382Y74001D02*
X-28381D01*
X-28881Y73501D01*
Y71501D01*
X-28381Y71001D01*
X-27382D01*
X-26882Y71501D01*
Y73501D01*
X-27382Y74001D01*
X-25882Y71001D02*
Y74001D01*
X-23883Y71001D01*
Y74001D01*
X-22883Y71001D02*
Y74001D01*
X-20884Y71001D01*
Y74001D01*
X-19884Y70502D02*
X-17885D01*
X-14886Y71001D02*
X-16885D01*
X-14886Y73001D01*
Y73501D01*
X-15385Y74001D01*
X-16385D01*
X-16885Y73501D01*
X20235Y72762D02*
X19735Y73262D01*
X18735D01*
X18236Y72762D01*
Y70763D01*
X18735Y70263D01*
X19735D01*
X20235Y70763D01*
X22734Y73262D02*
X21734D01*
X21235Y72762D01*
Y70763D01*
X21734Y70263D01*
X22734D01*
X23234Y70763D01*
Y72762D01*
X22734Y73262D01*
X24234Y70263D02*
Y73262D01*
X26233Y70263D01*
Y73262D01*
X27233Y70263D02*
Y73262D01*
X29232Y70263D01*
Y73262D01*
X30232Y69763D02*
X32231D01*
X33231Y70263D02*
X34230D01*
X33731D01*
Y73262D01*
X33231Y72762D01*
X-118339Y61530D02*
X-119338D01*
X-118839D01*
Y59031D01*
X-119338Y58531D01*
X-119838D01*
X-120338Y59031D01*
X-117339Y58531D02*
X-116339D01*
X-116839D01*
Y61530D01*
X-117339Y61030D01*
X237581Y82058D02*
X236779Y79168D01*
X238706Y78634D01*
X242397Y80723D02*
X240471Y81257D01*
X239669Y78367D01*
X241596Y77833D01*
X240070Y79812D02*
X241033Y79545D01*
X243361Y80455D02*
X242559Y77565D01*
X244004Y77165D01*
X244619Y77513D01*
X245154Y79440D01*
X244806Y80055D01*
X243361Y80455D01*
X246894Y76363D02*
X247696Y79253D01*
X245850Y78209D01*
X247777Y77675D01*
X247696Y55904D02*
X245697D01*
Y54571D01*
X247696Y52571D02*
Y53904D01*
X245697D01*
Y52571D01*
X246696Y53904D02*
Y53238D01*
X247696Y51905D02*
X245697D01*
Y50905D01*
X246030Y50572D01*
X247363D01*
X247696Y50905D01*
Y51905D01*
X245697Y48573D02*
Y49906D01*
X247030Y48573D01*
X247363D01*
X247696Y48906D01*
Y49572D01*
X247363Y49906D01*
X-247658Y78797D02*
X-246856Y75907D01*
X-244930Y76442D01*
X-242841Y80133D02*
X-244768Y79599D01*
X-243966Y76709D01*
X-242040Y77243D01*
X-244367Y78154D02*
X-243404Y78421D01*
X-241878Y80400D02*
X-241076Y77510D01*
X-239631Y77911D01*
X-239283Y78526D01*
X-239818Y80453D01*
X-240433Y80801D01*
X-241878Y80400D01*
X-238854Y80720D02*
X-238506Y81335D01*
X-237543Y81602D01*
X-236928Y81254D01*
X-236794Y80773D01*
X-237142Y80157D01*
X-237624Y80024D01*
X-237142Y80157D01*
X-236527Y79809D01*
X-236393Y79328D01*
X-236741Y78712D01*
X-237705Y78445D01*
X-238320Y78793D01*
X-245598Y53404D02*
X-247597D01*
Y52071D01*
X-245598Y50071D02*
Y51404D01*
X-247597D01*
Y50071D01*
X-246597Y51404D02*
Y50738D01*
X-245598Y49405D02*
X-247597D01*
Y48405D01*
X-247264Y48072D01*
X-245931D01*
X-245598Y48405D01*
Y49405D01*
X-247597Y47406D02*
Y46739D01*
Y47072D01*
X-245598D01*
X-245931Y47406D01*
X117564Y62234D02*
X116564D01*
X117064D01*
Y59735D01*
X116564Y59235D01*
X116064D01*
X115564Y59735D01*
X120563Y59235D02*
X118563D01*
X120563Y61234D01*
Y61734D01*
X120063Y62234D01*
X119063D01*
X118563Y61734D01*
D14*
X-66093Y83936D02*
X-68550Y82215D01*
X-67690Y80987D01*
X-66994Y80864D01*
X-66584Y81151D01*
X-66461Y81847D01*
X-67321Y83075D01*
X-66461Y81847D01*
X-65765Y81724D01*
X-65356Y82011D01*
X-65233Y82707D01*
X-66093Y83936D01*
X-64373Y81479D02*
X-66830Y79759D01*
X-65683Y78121D01*
X-62653Y79022D02*
X-62079Y78203D01*
X-62366Y78613D01*
X-64823Y76893D01*
X-65109Y77302D01*
X-64536Y76483D01*
X-63676Y75255D02*
X-61219Y76975D01*
X-62529Y73617D01*
X-60073Y75337D01*
X-59499Y74518D02*
X-61956Y72798D01*
X-61137Y73372D01*
X-58352Y72881D01*
X-60441Y73249D01*
X-60809Y71160D01*
X58199Y73253D02*
X59346Y74890D01*
X58772Y74072D01*
X61229Y72351D01*
X59919Y75709D02*
X62376Y73989D01*
X61147Y74849D01*
X62294Y76487D01*
X61066Y77347D01*
X63522Y75627D01*
X62786Y79804D02*
X61639Y78166D01*
X64096Y76446D01*
X65243Y78084D01*
X62868Y77306D02*
X63441Y78125D01*
X65816Y78902D02*
X63359Y80623D01*
X64219Y81851D01*
X64916Y81974D01*
X65734Y81400D01*
X65857Y80704D01*
X64997Y79476D01*
X65571Y80295D02*
X66963Y80540D01*
X67536Y81359D02*
X65080Y83079D01*
X66472Y83325D01*
X66226Y84717D01*
X68683Y82997D01*
X67660Y86764D02*
X67086Y85945D01*
X67209Y85249D01*
X68847Y84102D01*
X69543Y84225D01*
X70117Y85044D01*
X69994Y85740D01*
X68356Y86887D01*
X67660Y86764D01*
D15*
X1596Y74640D02*
D03*
D16*
X1551Y79801D02*
D03*
D17*
X1660Y69641D02*
D03*
D18*
X-2206Y74780D02*
D03*
D19*
X-984Y84111D02*
D03*
D20*
X-7116Y76832D02*
D03*
M02*
