G04*
G04 #@! TF.GenerationSoftware,Altium Limited,Altium Designer,19.1.5 (86)*
G04*
G04 Layer_Color=16711935*
%FSLAX25Y25*%
%MOIN*%
G70*
G01*
G75*
G04:AMPARAMS|DCode=46|XSize=63.12mil|YSize=86.74mil|CornerRadius=0mil|HoleSize=0mil|Usage=FLASHONLY|Rotation=235.000|XOffset=0mil|YOffset=0mil|HoleType=Round|Shape=Round|*
%AMOVALD46*
21,1,0.02362,0.06312,0.00000,0.00000,325.0*
1,1,0.06312,-0.00968,0.00677*
1,1,0.06312,0.00968,-0.00677*
%
%ADD46OVALD46*%

G04:AMPARAMS|DCode=47|XSize=63.12mil|YSize=86.74mil|CornerRadius=0mil|HoleSize=0mil|Usage=FLASHONLY|Rotation=125.000|XOffset=0mil|YOffset=0mil|HoleType=Round|Shape=Round|*
%AMOVALD47*
21,1,0.02362,0.06312,0.00000,0.00000,215.0*
1,1,0.06312,0.00968,0.00677*
1,1,0.06312,-0.00968,-0.00677*
%
%ADD47OVALD47*%

%ADD48C,0.05524*%
%ADD66R,0.02572X0.02572*%
%ADD67R,0.02375X0.02572*%
%ADD68R,0.07690X0.07887*%
D46*
X44705Y53262D02*
D03*
X48318Y58421D02*
D03*
X51931Y63582D02*
D03*
X55544Y68742D02*
D03*
D47*
X-44705Y53262D02*
D03*
X-48318Y58421D02*
D03*
X-51931Y63582D02*
D03*
X-55544Y68742D02*
D03*
D48*
X54515Y33563D02*
D03*
X56933Y26918D02*
D03*
X50288Y24500D02*
D03*
X47870Y31145D02*
D03*
D66*
X-263284Y83693D02*
D03*
X-268599D02*
D03*
Y87039D02*
D03*
X-263284D02*
D03*
X268598Y83693D02*
D03*
X263283D02*
D03*
Y87039D02*
D03*
X268598D02*
D03*
D67*
X-265941Y83693D02*
D03*
Y87039D02*
D03*
X265941Y83693D02*
D03*
Y87039D02*
D03*
D68*
X-14075Y76767D02*
D03*
X14075D02*
D03*
M02*
