M48
;Layer_Color=9474304
;FILE_FORMAT=2:5
INCH,LZ
;TYPE=PLATED
T1F00S00C0.00400
T2F00S00C0.00600
T3F00S00C0.00800
T4F00S00C0.01200
T5F00S00C0.03937
%
T01
X0262708Y0030817
X0264875Y0031675
Y0033275
Y0034775
X0266475Y0034875
X02689Y00354
X026901Y003673
X0270524Y0036721
X02714Y00337
X0276693Y0036111
X0276726Y0037359
X02627Y00339
X02608Y00349
X-02731Y00353
X-02747
X-02763
X-02785Y00359
X-0278497Y00339
X-02778Y00329
X-0280822Y003395
T02
X-0276587Y0029713
T03
X0252232Y0008201
X02527Y00109
X02558Y00134
X0258005Y0029603
X0259456Y0031161
X0253898Y0032991
X025141Y003629
X0255374Y0038045
X0253075Y0042921
X0262133Y0037302
X0271851Y0029677
X02762Y00293
X0281158Y0030433
X0275679Y0053551
X02752Y00559
X02676Y0053851
X0235529Y0057051
X01092Y00432
X01063Y00437
X01042
X01019Y00438
X01Y0039
X01041Y00349
X01062Y00347
X01085Y00348
X01112Y00351
X0050214Y0047468
X0047289Y004837
X-000979Y0050468
X-0046801Y00475
X-00504Y00473
X-0102Y00427
X-01041Y00428
X-01061Y00427
X-01062Y0035
X-01042Y00347
X-01085Y00352
X-01106Y00348
X-01001Y00398
X-01152Y0046
X-02392Y00486
X-02516Y00442
X-02517Y00412
X-025085Y0035089
X-0250516Y0032639
X-02573Y00313
X-0257717Y0033716
X-0260392Y0034362
X-026206Y0036228
X-026057Y0038202
X-02615Y00401
X-0265705Y003142
X-02708Y00318
X-02821Y00324
X-0282Y00356
X-02832Y00388
X-02802Y0038817
X-02762Y00557
X-02527Y00103
X-0252626Y0006626
X-02553Y00041
T04
X0241686Y0049341
X-0038204Y0036658
T05
X-0049714Y002326
X-0053327Y002842
X-005694Y003358
X-0060553Y003874
X0060554Y0038741
X0056941Y0033581
X0053328Y0028421
X0049715Y0023261
M30
