M48
;Layer_Color=9474304
;FILE_FORMAT=2:5
INCH,LZ
;TYPE=PLATED
T1F00S00C0.00400
T2F00S00C0.00600
T3F00S00C0.00800
T4F00S00C0.01000
T5F00S00C0.01200
T6F00S00C0.02756
T7F00S00C0.03937
%
T01
X-0274931Y006278
X-0272533Y0062606
X-0271984Y0061032
X-0272533Y006473
X-0270409Y0065756
X-0268834Y0064181
X-026679Y0064154
X0254762Y0063631
X0256662Y0062631
X0259015Y0062055
Y006048
X0259014Y0063629
X0262713Y0064179
X0262713Y0065379
X0264486Y0065452
X0265362Y0062431
X0270037Y0064842
X0271051Y006609
X025667Y0059548
T02
X-0270696Y0058542
T03
X-0058792Y0016658
X-0049866Y0018443
X-0052503Y0026181
X-0244781Y0031878
X-024585Y0035129
X-0246142Y0039255
X-0244641Y0061519
X-0250954Y0060272
X-0254913Y0063317
X-02574Y00669
X-026153Y0067583
X-025603Y007063
X-0245709Y007303
X-0259813Y006025
X-0264909Y006063
X-0276209Y006123
X-0276109Y006443
X-0277309Y006763
X-0274011Y0067811
X-0270342Y0085847
X-0233309Y007743
X-0043931Y0076406
X-0040149Y0077142
X-0006626Y0079709
X0040935Y0077453
X0043859Y0076551
X0042Y0059
X0229491Y0085782
X0247038Y0071652
X0246172Y0065921
X0249336Y0066776
X024786Y0061722
X0253418Y0059892
X0251967Y0058334
X0256095Y0066033
X0265813Y0058407
X0270162Y0058031
X0275076Y0059303
X0269981Y0083197
X0269842Y0086008
X0261548Y0083336
X0250587Y0042423
X0250647Y0040036
X0245821Y0036686
T04
X-0252453Y0061886
X-0245544Y0070161
T05
X-0244781Y0064097
X-0031551Y0066299
X0235648Y0078071
T06
X0050288Y00245
X004787Y0031145
X0056933Y0026918
X0054515Y0033563
T07
X-0044705Y0053262
X-0048318Y0058421
X-0051931Y0063582
X-0055544Y0068742
X0055544
X0051931Y0063582
X0048318Y0058421
X0044705Y0053262
M30
