G04*
G04 #@! TF.GenerationSoftware,Altium Limited,Altium Designer,19.1.5 (86)*
G04*
G04 Layer_Physical_Order=1*
G04 Layer_Color=255*
%FSLAX25Y25*%
%MOIN*%
G70*
G01*
G75*
%ADD11C,0.01000*%
%ADD13C,0.00600*%
%ADD14C,0.00800*%
%ADD21C,0.01000*%
%ADD22R,0.03150X0.01575*%
%ADD23R,0.03543X0.03937*%
G04:AMPARAMS|DCode=24|XSize=39.37mil|YSize=35.43mil|CornerRadius=0mil|HoleSize=0mil|Usage=FLASHONLY|Rotation=125.500|XOffset=0mil|YOffset=0mil|HoleType=Round|Shape=Rectangle|*
%AMROTATEDRECTD24*
4,1,4,0.02586,-0.00574,-0.00299,-0.02631,-0.02586,0.00574,0.00299,0.02631,0.02586,-0.00574,0.0*
%
%ADD24ROTATEDRECTD24*%

G04:AMPARAMS|DCode=25|XSize=31.5mil|YSize=15.75mil|CornerRadius=0mil|HoleSize=0mil|Usage=FLASHONLY|Rotation=215.500|XOffset=0mil|YOffset=0mil|HoleType=Round|Shape=Rectangle|*
%AMROTATEDRECTD25*
4,1,4,0.00825,0.01556,0.01739,0.00274,-0.00825,-0.01556,-0.01739,-0.00274,0.00825,0.01556,0.0*
%
%ADD25ROTATEDRECTD25*%

G04:AMPARAMS|DCode=26|XSize=39.37mil|YSize=35.43mil|CornerRadius=0mil|HoleSize=0mil|Usage=FLASHONLY|Rotation=234.500|XOffset=0mil|YOffset=0mil|HoleType=Round|Shape=Rectangle|*
%AMROTATEDRECTD26*
4,1,4,-0.00299,0.02631,0.02586,0.00574,0.00299,-0.02631,-0.02586,-0.00574,-0.00299,0.02631,0.0*
%
%ADD26ROTATEDRECTD26*%

G04:AMPARAMS|DCode=27|XSize=31.5mil|YSize=15.75mil|CornerRadius=0mil|HoleSize=0mil|Usage=FLASHONLY|Rotation=324.500|XOffset=0mil|YOffset=0mil|HoleType=Round|Shape=Rectangle|*
%AMROTATEDRECTD27*
4,1,4,-0.01739,0.00274,-0.00825,0.01556,0.01739,-0.00274,0.00825,-0.01556,-0.01739,0.00274,0.0*
%
%ADD27ROTATEDRECTD27*%

%ADD28R,0.02200X0.02362*%
%ADD29R,0.02362X0.02200*%
%ADD30R,0.02165X0.02165*%
%ADD33C,0.01800*%
%ADD46C,0.00400*%
%ADD47C,0.00600*%
%ADD48C,0.04724*%
G04:AMPARAMS|DCode=49|XSize=55.12mil|YSize=78.74mil|CornerRadius=0mil|HoleSize=0mil|Usage=FLASHONLY|Rotation=235.000|XOffset=0mil|YOffset=0mil|HoleType=Round|Shape=Round|*
%AMOVALD49*
21,1,0.02362,0.05512,0.00000,0.00000,325.0*
1,1,0.05512,-0.00968,0.00677*
1,1,0.05512,0.00968,-0.00677*
%
%ADD49OVALD49*%

G04:AMPARAMS|DCode=50|XSize=55.12mil|YSize=78.74mil|CornerRadius=0mil|HoleSize=0mil|Usage=FLASHONLY|Rotation=125.000|XOffset=0mil|YOffset=0mil|HoleType=Round|Shape=Round|*
%AMOVALD50*
21,1,0.02362,0.05512,0.00000,0.00000,215.0*
1,1,0.05512,0.00968,0.00677*
1,1,0.05512,-0.00968,-0.00677*
%
%ADD50OVALD50*%

%ADD51C,0.01600*%
%ADD52C,0.00800*%
%ADD53C,0.02400*%
%ADD54C,0.02000*%
%ADD55C,0.01200*%
G36*
X-238865Y89681D02*
X-238903Y89724D01*
X-238946Y89753D01*
X-238994Y89769D01*
X-239048Y89771D01*
X-239106Y89759D01*
X-239170Y89734D01*
X-239239Y89695D01*
X-239312Y89643D01*
X-239391Y89577D01*
X-239475Y89497D01*
X-239828Y89992D01*
X-239748Y90077D01*
X-239680Y90158D01*
X-239623Y90235D01*
X-239580Y90309D01*
X-239548Y90378D01*
X-239528Y90444D01*
X-239521Y90507D01*
X-239525Y90565D01*
X-239542Y90620D01*
X-239571Y90671D01*
X-238865Y89681D01*
D02*
G37*
G36*
X-238947Y87064D02*
X-239004Y87024D01*
X-239224Y86892D01*
X-239277Y86866D01*
X-239380Y86821D01*
X-239430Y86803D01*
X-239479Y86788D01*
X-238171Y87941D01*
X-238023Y87988D01*
X-237725Y88100D01*
X-237575Y88166D01*
X-237275Y88319D01*
X-236973Y88498D01*
X-236670Y88703D01*
X-238947Y87064D01*
D02*
G37*
G36*
X-236878Y84143D02*
X-236837Y84203D01*
X-236822Y84253D01*
X-236833Y84295D01*
X-236872Y84327D01*
X-236936Y84350D01*
X-237028Y84363D01*
X-237146Y84368D01*
X-237291Y84363D01*
X-237660Y84325D01*
X-236867Y85061D01*
X-236700Y85086D01*
X-236398Y85150D01*
X-236264Y85190D01*
X-236142Y85234D01*
X-236031Y85283D01*
X-235931Y85336D01*
X-235843Y85395D01*
X-235767Y85458D01*
X-235701Y85525D01*
X-236878Y84143D01*
D02*
G37*
G36*
X-231939Y79972D02*
X-232017Y80073D01*
X-232087Y80146D01*
X-232148Y80191D01*
X-232202Y80208D01*
X-232247Y80198D01*
X-232284Y80159D01*
X-232312Y80093D01*
X-232333Y79998D01*
X-232345Y79876D01*
X-232349Y79726D01*
X-233149Y80287D01*
X-233153Y80554D01*
X-233212Y81258D01*
X-233247Y81459D01*
X-233290Y81644D01*
X-233340Y81812D01*
X-233399Y81963D01*
X-233465Y82097D01*
X-233539Y82215D01*
X-231939Y79972D01*
D02*
G37*
G36*
X-39562Y77690D02*
X-39537Y77680D01*
X-39505Y77671D01*
X-39464Y77663D01*
X-39415Y77657D01*
X-39292Y77647D01*
X-39044Y77642D01*
Y76642D01*
X-39135Y76641D01*
X-39464Y76620D01*
X-39505Y76612D01*
X-39537Y76603D01*
X-39562Y76593D01*
X-39577Y76582D01*
Y77702D01*
X-39562Y77690D01*
D02*
G37*
G36*
X-43898Y75607D02*
X-43947Y75601D01*
X-43996Y75589D01*
X-44046Y75570D01*
X-44096Y75544D01*
X-44145Y75511D01*
X-44195Y75472D01*
X-44246Y75426D01*
X-44296Y75373D01*
X-44347Y75313D01*
X-44398Y75246D01*
X-44992Y75789D01*
X-44940Y75861D01*
X-44818Y76057D01*
X-44789Y76115D01*
X-44766Y76170D01*
X-44748Y76222D01*
X-44736Y76270D01*
X-44730Y76315D01*
X-44730Y76357D01*
X-43898Y75607D01*
D02*
G37*
G36*
X-245680Y72230D02*
X-245777Y72224D01*
X-245869Y72213D01*
X-245954Y72197D01*
X-246033Y72176D01*
X-246106Y72150D01*
X-246173Y72119D01*
X-246234Y72083D01*
X-246289Y72042D01*
X-246338Y71996D01*
X-246380Y71946D01*
X-246677Y72217D01*
X-246640Y72272D01*
X-246607Y72332D01*
X-246579Y72397D01*
X-246555Y72466D01*
X-246536Y72541D01*
X-246521Y72620D01*
X-246511Y72704D01*
X-246505Y72793D01*
X-246508Y72985D01*
X-245680Y72230D01*
D02*
G37*
G36*
X-256000Y70332D02*
X-256012Y70329D01*
X-256025Y70325D01*
X-256038Y70319D01*
X-256053Y70310D01*
X-256069Y70300D01*
X-256086Y70287D01*
X-256123Y70257D01*
X-256164Y70217D01*
X-256447Y70500D01*
X-256426Y70521D01*
X-256377Y70578D01*
X-256364Y70595D01*
X-256354Y70611D01*
X-256346Y70626D01*
X-256339Y70640D01*
X-256335Y70652D01*
X-256333Y70664D01*
X-256000Y70332D01*
D02*
G37*
G36*
X-42126Y70087D02*
X-42113Y69917D01*
X-42091Y69767D01*
X-42061Y69637D01*
X-42022Y69527D01*
X-41974Y69437D01*
X-41917Y69367D01*
X-41852Y69317D01*
X-41778Y69287D01*
X-41696Y69277D01*
X-43630Y69265D01*
X-43535Y69276D01*
X-43450Y69306D01*
X-43375Y69357D01*
X-43310Y69428D01*
X-43255Y69520D01*
X-43210Y69631D01*
X-43175Y69762D01*
X-43150Y69914D01*
X-43135Y70085D01*
X-43130Y70277D01*
X-42130D01*
X-42126Y70087D01*
D02*
G37*
G36*
X-36043Y68914D02*
X-36019Y68845D01*
X-35978Y68782D01*
X-35921Y68726D01*
X-35849Y68677D01*
X-35760Y68635D01*
X-35654Y68599D01*
X-35533Y68571D01*
X-35395Y68549D01*
X-35241Y68533D01*
X-35242Y67726D01*
X-35396Y67733D01*
X-35533Y67731D01*
X-35655Y67720D01*
X-35760Y67700D01*
X-35849Y67671D01*
X-35922Y67632D01*
X-35978Y67585D01*
X-36019Y67528D01*
X-36043Y67462D01*
X-36051Y67387D01*
Y68990D01*
X-36043Y68914D01*
D02*
G37*
G36*
X-273387Y68322D02*
X-273332Y68277D01*
X-273274Y68238D01*
X-273213Y68205D01*
X-273150Y68176D01*
X-273083Y68153D01*
X-273014Y68134D01*
X-272942Y68121D01*
X-272867Y68114D01*
X-272789Y68111D01*
Y67511D01*
X-272867Y67508D01*
X-272942Y67501D01*
X-273014Y67488D01*
X-273083Y67469D01*
X-273150Y67446D01*
X-273213Y67417D01*
X-273274Y67384D01*
X-273332Y67345D01*
X-273387Y67300D01*
X-273440Y67251D01*
Y68371D01*
X-273387Y68322D01*
D02*
G37*
G36*
X-48325Y66622D02*
X-48442Y66499D01*
X-48541Y66384D01*
X-48621Y66276D01*
X-48682Y66175D01*
X-48725Y66082D01*
X-48748Y65996D01*
X-48754Y65918D01*
X-48740Y65848D01*
X-48708Y65785D01*
X-48656Y65729D01*
X-49871Y66768D01*
X-49807Y66725D01*
X-49736Y66701D01*
X-49659Y66694D01*
X-49574Y66706D01*
X-49483Y66735D01*
X-49385Y66783D01*
X-49280Y66849D01*
X-49168Y66932D01*
X-49050Y67034D01*
X-48924Y67154D01*
X-48325Y66622D01*
D02*
G37*
G36*
X-276507Y67524D02*
X-276490Y67344D01*
X-276475Y67262D01*
X-276454Y67185D01*
X-276429Y67114D01*
X-276399Y67049D01*
X-276364Y66988D01*
X-276325Y66933D01*
X-276280Y66884D01*
X-276563Y66601D01*
X-276613Y66645D01*
X-276667Y66685D01*
X-276728Y66720D01*
X-276793Y66750D01*
X-276864Y66775D01*
X-276941Y66796D01*
X-277023Y66811D01*
X-277110Y66822D01*
X-277203Y66828D01*
X-277301Y66830D01*
X-276509Y67622D01*
X-276507Y67524D01*
D02*
G37*
G36*
X-256819Y67460D02*
X-256759Y67421D01*
X-256697Y67388D01*
X-256633Y67363D01*
X-256568Y67345D01*
X-256501Y67334D01*
X-256432Y67330D01*
X-256362Y67333D01*
X-256290Y67343D01*
X-256216Y67360D01*
X-256167Y66752D01*
X-256245Y66730D01*
X-256391Y66677D01*
X-256458Y66646D01*
X-256521Y66611D01*
X-256581Y66574D01*
X-256637Y66533D01*
X-256690Y66488D01*
X-256738Y66441D01*
X-256784Y66390D01*
X-256878Y67506D01*
X-256819Y67460D01*
D02*
G37*
G36*
X-272038Y67146D02*
X-272042Y67127D01*
X-272046Y67099D01*
X-272052Y67016D01*
X-272056Y66821D01*
X-272050Y66773D01*
X-272041Y66716D01*
X-272027Y66659D01*
X-272009Y66603D01*
X-271987Y66548D01*
X-271961Y66493D01*
X-271931Y66438D01*
X-271897Y66385D01*
X-271859Y66331D01*
X-272658D01*
X-272620Y66385D01*
X-272586Y66438D01*
X-272556Y66493D01*
X-272530Y66548D01*
X-272508Y66603D01*
X-272490Y66659D01*
X-272476Y66716D01*
X-272466Y66773D01*
X-272465Y66785D01*
X-272484Y67156D01*
X-272033D01*
X-272038Y67146D01*
D02*
G37*
G36*
X-32666Y67664D02*
X-32562Y67617D01*
X-32456Y67577D01*
X-32349Y67545D01*
X-32241Y67519D01*
X-32131Y67500D01*
X-32019Y67488D01*
X-31906Y67482D01*
X-31791Y67484D01*
X-31675Y67493D01*
X-32747Y66200D01*
X-32762Y66322D01*
X-32786Y66437D01*
X-32818Y66545D01*
X-32860Y66645D01*
X-32910Y66738D01*
X-32968Y66824D01*
X-33036Y66902D01*
X-33112Y66972D01*
X-33197Y67035D01*
X-33291Y67091D01*
X-32769Y67717D01*
X-32666Y67664D01*
D02*
G37*
G36*
X-268360Y66495D02*
X-268400Y66453D01*
X-268437Y66408D01*
X-268470Y66360D01*
X-268500Y66310D01*
X-268527Y66258D01*
X-268551Y66203D01*
X-268571Y66146D01*
X-268589Y66087D01*
X-268603Y66025D01*
X-268614Y65961D01*
X-269178Y66526D01*
X-269114Y66536D01*
X-269052Y66550D01*
X-268992Y66568D01*
X-268935Y66588D01*
X-268880Y66612D01*
X-268828Y66639D01*
X-268778Y66669D01*
X-268730Y66702D01*
X-268686Y66739D01*
X-268643Y66779D01*
X-268360Y66495D01*
D02*
G37*
G36*
X-267180Y66392D02*
X-267126Y66358D01*
X-267072Y66328D01*
X-267017Y66302D01*
X-266962Y66280D01*
X-266906Y66262D01*
X-266849Y66248D01*
X-266792Y66238D01*
X-266734Y66233D01*
X-266676Y66230D01*
Y65830D01*
X-266734Y65829D01*
X-266792Y65822D01*
X-266849Y65812D01*
X-266906Y65799D01*
X-266962Y65781D01*
X-267017Y65759D01*
X-267072Y65733D01*
X-267126Y65703D01*
X-267180Y65669D01*
X-267233Y65631D01*
Y66430D01*
X-267180Y66392D01*
D02*
G37*
G36*
X-274134Y65631D02*
X-274187Y65669D01*
X-274241Y65702D01*
X-274295Y65732D01*
X-274350Y65758D01*
X-274405Y65780D01*
X-274461Y65798D01*
X-274518Y65812D01*
X-274575Y65822D01*
X-274633Y65828D01*
X-274691Y65830D01*
X-274692Y66230D01*
X-274634Y66232D01*
X-274576Y66238D01*
X-274519Y66248D01*
X-274462Y66262D01*
X-274406Y66280D01*
X-274351Y66302D01*
X-274296Y66328D01*
X-274242Y66358D01*
X-274188Y66392D01*
X-274134Y66430D01*
X-274134Y65631D01*
D02*
G37*
G36*
X-259548Y65794D02*
X-259432Y65699D01*
X-259374Y65661D01*
X-259317Y65629D01*
X-259261Y65602D01*
X-259205Y65582D01*
X-259150Y65567D01*
X-259095Y65558D01*
X-259041Y65555D01*
X-260172D01*
X-260119Y65558D01*
X-260078Y65567D01*
X-260048Y65582D01*
X-260031Y65602D01*
X-260025Y65629D01*
X-260031Y65661D01*
X-260048Y65699D01*
X-260078Y65744D01*
X-260119Y65794D01*
X-260172Y65850D01*
X-259606D01*
X-259548Y65794D01*
D02*
G37*
G36*
X-263974Y64174D02*
X-263977Y64217D01*
X-263988Y64259D01*
X-264007Y64301D01*
X-264033Y64343D01*
X-264066Y64384D01*
X-264107Y64425D01*
X-264156Y64465D01*
X-264211Y64506D01*
X-264274Y64546D01*
X-264345Y64586D01*
X-264330Y65050D01*
X-264262Y65016D01*
X-264202Y64991D01*
X-264148Y64973D01*
X-264102Y64964D01*
X-264063Y64963D01*
X-264031Y64970D01*
X-264006Y64985D01*
X-263988Y65009D01*
X-263977Y65040D01*
X-263974Y65080D01*
Y64174D01*
D02*
G37*
G36*
X-275482Y64940D02*
X-275339Y64828D01*
X-275268Y64782D01*
X-275198Y64743D01*
X-275129Y64711D01*
X-275061Y64687D01*
X-274993Y64669D01*
X-274927Y64658D01*
X-274861Y64655D01*
X-274848Y64255D01*
X-274915Y64251D01*
X-274982Y64240D01*
X-275049Y64222D01*
X-275116Y64196D01*
X-275183Y64163D01*
X-275251Y64123D01*
X-275318Y64075D01*
X-275385Y64020D01*
X-275453Y63958D01*
X-275520Y63888D01*
X-275531Y64242D01*
X-275786Y64230D01*
Y64680D01*
X-275775Y64675D01*
X-275756Y64671D01*
X-275728Y64667D01*
X-275645Y64661D01*
X-275545Y64660D01*
X-275555Y65007D01*
X-275482Y64940D01*
D02*
G37*
G36*
X-44021Y66136D02*
X-43473Y65672D01*
X-43324Y65572D01*
X-43190Y65500D01*
X-43074Y65455D01*
X-42973Y65438D01*
X-42889Y65448D01*
X-42822Y65485D01*
X-44022Y64447D01*
X-43976Y64507D01*
X-43958Y64583D01*
X-43968Y64675D01*
X-44004Y64784D01*
X-44069Y64909D01*
X-44160Y65050D01*
X-44279Y65208D01*
X-44426Y65382D01*
X-44802Y65780D01*
X-44236Y66346D01*
X-44021Y66136D01*
D02*
G37*
G36*
X-274134Y64056D02*
X-274187Y64094D01*
X-274241Y64128D01*
X-274295Y64157D01*
X-274350Y64183D01*
X-274405Y64205D01*
X-274461Y64223D01*
X-274518Y64237D01*
X-274575Y64247D01*
X-274633Y64253D01*
X-274691Y64255D01*
X-274692Y64655D01*
X-274634Y64657D01*
X-274576Y64663D01*
X-274519Y64673D01*
X-274462Y64687D01*
X-274406Y64705D01*
X-274351Y64727D01*
X-274296Y64753D01*
X-274242Y64783D01*
X-274188Y64817D01*
X-274134Y64855D01*
X-274134Y64056D01*
D02*
G37*
G36*
X-270179Y64416D02*
X-270170Y64355D01*
X-270157Y64296D01*
X-270140Y64239D01*
X-270119Y64185D01*
X-270095Y64132D01*
X-270066Y64082D01*
X-270033Y64034D01*
X-269997Y63988D01*
X-269956Y63945D01*
X-270268Y63691D01*
X-270312Y63733D01*
X-270358Y63771D01*
X-270405Y63807D01*
X-270454Y63839D01*
X-270504Y63868D01*
X-270556Y63894D01*
X-270609Y63916D01*
X-270664Y63936D01*
X-270721Y63952D01*
X-270779Y63965D01*
X-270184Y64480D01*
X-270179Y64416D01*
D02*
G37*
G36*
X-253505Y63979D02*
X-253595Y63959D01*
X-253689Y63926D01*
X-253788Y63880D01*
X-253892Y63822D01*
X-254001Y63751D01*
X-254114Y63667D01*
X-254353Y63460D01*
X-254480Y63337D01*
X-255116Y63550D01*
X-255061Y63606D01*
X-254930Y63757D01*
X-254899Y63801D01*
X-254872Y63842D01*
X-254852Y63879D01*
X-254838Y63914D01*
X-254829Y63946D01*
X-254826Y63974D01*
X-253419Y63986D01*
X-253505Y63979D01*
D02*
G37*
G36*
X-37284Y63321D02*
X-37344Y63368D01*
X-37416Y63392D01*
X-37500Y63393D01*
X-37596Y63371D01*
X-37703Y63326D01*
X-37822Y63258D01*
X-37953Y63167D01*
X-38095Y63053D01*
X-38415Y62756D01*
X-38943Y63359D01*
X-38786Y63521D01*
X-38540Y63813D01*
X-38450Y63943D01*
X-38382Y64061D01*
X-38337Y64169D01*
X-38313Y64266D01*
X-38312Y64352D01*
X-38334Y64426D01*
X-38377Y64490D01*
X-37284Y63321D01*
D02*
G37*
G36*
X-249235Y63978D02*
X-249303Y63953D01*
X-249362Y63913D01*
X-249414Y63856D01*
X-249459Y63783D01*
X-249495Y63694D01*
X-249522Y63588D01*
X-249542Y63466D01*
X-249554Y63328D01*
X-249558Y63174D01*
X-250359D01*
X-250362Y63328D01*
X-250375Y63466D01*
X-250395Y63588D01*
X-250423Y63694D01*
X-250459Y63783D01*
X-250502Y63856D01*
X-250554Y63913D01*
X-250615Y63953D01*
X-250682Y63978D01*
X-250759Y63986D01*
X-249159D01*
X-249235Y63978D01*
D02*
G37*
G36*
X-267534Y62880D02*
X-267835Y62481D01*
X-267888Y62519D01*
X-267942Y62553D01*
X-267996Y62583D01*
X-268051Y62609D01*
X-268106Y62631D01*
X-268162Y62649D01*
X-268219Y62663D01*
X-268276Y62673D01*
X-268321Y62677D01*
X-268367Y62673D01*
X-268424Y62663D01*
X-268481Y62649D01*
X-268537Y62631D01*
X-268592Y62609D01*
X-268647Y62583D01*
X-268701Y62553D01*
X-268755Y62519D01*
X-268808Y62481D01*
X-268808Y63280D01*
X-268755Y63242D01*
X-268701Y63208D01*
X-268647Y63178D01*
X-268592Y63152D01*
X-268536Y63130D01*
X-268480Y63112D01*
X-268424Y63099D01*
X-268366Y63089D01*
X-268321Y63084D01*
X-268277Y63089D01*
X-268219Y63099D01*
X-268163Y63112D01*
X-268107Y63130D01*
X-268051Y63152D01*
X-267997Y63178D01*
X-267942Y63208D01*
X-267888Y63242D01*
X-267835Y63280D01*
X-267534Y62880D01*
D02*
G37*
G36*
X-274155Y63057D02*
X-274076Y63060D01*
Y62610D01*
X-274086Y62615D01*
X-274106Y62619D01*
X-274124Y62621D01*
X-274113Y62467D01*
X-274164Y62499D01*
X-274215Y62527D01*
X-274268Y62553D01*
X-274322Y62575D01*
X-274377Y62593D01*
X-274433Y62608D01*
X-274480Y62618D01*
X-274501Y62612D01*
X-274529Y62602D01*
X-274554Y62590D01*
X-274575Y62576D01*
X-274593Y62560D01*
X-274609Y62542D01*
X-274619Y62613D01*
X-274677Y62610D01*
Y62716D01*
X-274709Y63035D01*
X-274678Y63036D01*
X-274686Y63097D01*
X-274669Y63085D01*
X-274649Y63074D01*
X-274626Y63065D01*
X-274600Y63057D01*
X-274571Y63051D01*
X-274563Y63049D01*
X-274534Y63055D01*
X-274478Y63070D01*
X-274424Y63089D01*
X-274370Y63113D01*
X-274318Y63141D01*
X-274267Y63174D01*
X-274217Y63211D01*
X-274169Y63252D01*
X-274155Y63057D01*
D02*
G37*
G36*
X-269576Y63568D02*
X-269531Y63531D01*
X-269482Y63499D01*
X-269432Y63470D01*
X-269380Y63445D01*
X-269325Y63424D01*
X-269268Y63407D01*
X-269209Y63394D01*
X-269148Y63385D01*
X-269085Y63380D01*
X-269600Y62786D01*
X-269613Y62844D01*
X-269629Y62900D01*
X-269648Y62955D01*
X-269671Y63009D01*
X-269697Y63060D01*
X-269726Y63111D01*
X-269758Y63160D01*
X-269793Y63207D01*
X-269832Y63253D01*
X-269874Y63297D01*
X-269620Y63609D01*
X-269576Y63568D01*
D02*
G37*
G36*
X-267180Y63242D02*
X-267126Y63208D01*
X-267072Y63178D01*
X-267017Y63152D01*
X-266961Y63130D01*
X-266905Y63112D01*
X-266849Y63099D01*
X-266792Y63089D01*
X-266734Y63082D01*
X-266683Y63081D01*
X-266183Y63106D01*
Y62655D01*
X-266193Y62660D01*
X-266212Y62664D01*
X-266240Y62668D01*
X-266324Y62674D01*
X-266680Y62680D01*
X-266734Y62678D01*
X-266792Y62673D01*
X-266849Y62663D01*
X-266906Y62649D01*
X-266962Y62631D01*
X-267017Y62609D01*
X-267072Y62583D01*
X-267126Y62553D01*
X-267180Y62519D01*
X-267233Y62481D01*
X-267534Y62880D01*
X-267233Y63280D01*
X-267180Y63242D01*
D02*
G37*
G36*
X-270178Y62886D02*
X-270164Y62824D01*
X-270146Y62765D01*
X-270126Y62707D01*
X-270102Y62653D01*
X-270075Y62600D01*
X-270045Y62550D01*
X-270012Y62503D01*
X-269975Y62458D01*
X-269935Y62415D01*
X-270218Y62133D01*
X-270261Y62172D01*
X-270306Y62209D01*
X-270353Y62242D01*
X-270403Y62273D01*
X-270456Y62299D01*
X-270510Y62323D01*
X-270567Y62344D01*
X-270627Y62361D01*
X-270689Y62375D01*
X-270753Y62386D01*
X-270189Y62950D01*
X-270178Y62886D01*
D02*
G37*
G36*
X-249554Y62380D02*
X-249542Y62244D01*
X-249522Y62124D01*
X-249495Y62020D01*
X-249459Y61932D01*
X-249414Y61860D01*
X-249362Y61804D01*
X-249303Y61764D01*
X-249235Y61740D01*
X-249159Y61732D01*
X-250641D01*
X-250587Y61740D01*
X-250539Y61764D01*
X-250497Y61804D01*
X-250460Y61860D01*
X-250429Y61932D01*
X-250404Y62020D01*
X-250384Y62124D01*
X-250370Y62244D01*
X-250361Y62380D01*
X-250359Y62532D01*
X-249558D01*
X-249554Y62380D01*
D02*
G37*
G36*
X-252273Y61732D02*
X-252262Y61732D01*
X-252254Y61731D01*
X-252246Y61730D01*
X-252241Y61727D01*
X-252237Y61725D01*
X-252235Y61722D01*
X-252235Y61718D01*
X-252236Y61714D01*
X-252239Y61709D01*
X-252244Y61703D01*
X-252273Y61732D01*
X-253006D01*
X-253013Y61736D01*
X-253011Y61748D01*
X-253000Y61768D01*
X-252980Y61795D01*
X-252951Y61831D01*
X-252808Y61985D01*
X-252668Y62128D01*
X-252273Y61732D01*
D02*
G37*
G36*
X-254394Y61629D02*
X-254391Y61626D01*
X-254386Y61623D01*
X-254408Y61602D01*
X-254407Y61608D01*
X-254406Y61616D01*
X-254405Y61621D01*
X-254403Y61625D01*
X-254400Y61628D01*
X-254398Y61629D01*
X-254394Y61629D01*
D02*
G37*
G36*
X-267835Y60906D02*
X-267888Y60944D01*
X-267941Y60978D01*
X-267996Y61008D01*
X-268051Y61034D01*
X-268106Y61056D01*
X-268162Y61073D01*
X-268219Y61087D01*
X-268276Y61097D01*
X-268321Y61102D01*
X-268367Y61097D01*
X-268424Y61087D01*
X-268481Y61073D01*
X-268537Y61056D01*
X-268592Y61034D01*
X-268647Y61008D01*
X-268702Y60978D01*
X-268755Y60944D01*
X-268808Y60906D01*
X-268808Y61705D01*
X-268754Y61667D01*
X-268701Y61633D01*
X-268646Y61603D01*
X-268591Y61577D01*
X-268536Y61555D01*
X-268480Y61537D01*
X-268423Y61523D01*
X-268366Y61513D01*
X-268321Y61509D01*
X-268277Y61513D01*
X-268220Y61523D01*
X-268163Y61537D01*
X-268107Y61555D01*
X-268052Y61577D01*
X-267997Y61603D01*
X-267942Y61633D01*
X-267888Y61667D01*
X-267835Y61705D01*
X-267835Y60906D01*
D02*
G37*
G36*
X-274134D02*
X-274187Y60944D01*
X-274241Y60978D01*
X-274295Y61008D01*
X-274350Y61034D01*
X-274405Y61056D01*
X-274461Y61073D01*
X-274518Y61087D01*
X-274575Y61097D01*
X-274633Y61103D01*
X-274691Y61105D01*
X-274692Y61505D01*
X-274634Y61507D01*
X-274576Y61513D01*
X-274519Y61523D01*
X-274462Y61537D01*
X-274406Y61555D01*
X-274351Y61577D01*
X-274296Y61603D01*
X-274242Y61633D01*
X-274188Y61667D01*
X-274134Y61705D01*
X-274134Y60906D01*
D02*
G37*
G36*
X-252486Y60887D02*
X-252595Y60887D01*
X-252699Y60880D01*
X-252799Y60867D01*
X-252893Y60847D01*
X-252983Y60821D01*
X-253068Y60787D01*
X-253148Y60747D01*
X-253224Y60701D01*
X-253295Y60647D01*
X-253361Y60587D01*
X-253775Y61021D01*
X-253715Y61087D01*
X-253661Y61157D01*
X-253614Y61232D01*
X-253572Y61313D01*
X-253537Y61398D01*
X-253508Y61488D01*
X-253485Y61584D01*
X-253468Y61684D01*
X-253457Y61789D01*
X-253453Y61899D01*
X-252486Y60887D01*
D02*
G37*
G36*
X-254408Y61599D02*
X-254408Y61589D01*
Y60876D01*
X-254412Y60865D01*
X-254424Y60863D01*
X-254445Y60871D01*
X-254473Y60889D01*
X-254509Y60917D01*
X-254606Y61001D01*
X-254811Y61199D01*
X-254408Y61602D01*
X-254408Y61599D01*
D02*
G37*
G36*
X-275614Y61777D02*
X-275462Y61670D01*
X-275388Y61626D01*
X-275315Y61589D01*
X-275244Y61559D01*
X-275175Y61536D01*
X-275108Y61519D01*
X-275042Y61509D01*
X-274978Y61505D01*
X-274939Y61105D01*
X-275007Y61102D01*
X-275074Y61090D01*
X-275141Y61071D01*
X-275206Y61045D01*
X-275272Y61010D01*
X-275336Y60969D01*
X-275400Y60919D01*
X-275463Y60863D01*
X-275525Y60798D01*
X-275587Y60726D01*
X-275693Y61841D01*
X-275614Y61777D01*
D02*
G37*
G36*
X-269532Y62015D02*
X-269487Y61978D01*
X-269439Y61945D01*
X-269389Y61914D01*
X-269337Y61888D01*
X-269282Y61864D01*
X-269225Y61843D01*
X-269166Y61826D01*
X-269104Y61812D01*
X-269039Y61801D01*
X-269534Y61306D01*
X-269039Y60811D01*
X-269103Y60800D01*
X-269165Y60786D01*
X-269225Y60769D01*
X-269282Y60748D01*
X-269337Y60725D01*
X-269389Y60698D01*
X-269439Y60667D01*
X-269486Y60634D01*
X-269531Y60597D01*
X-269574Y60558D01*
X-269857Y60840D01*
X-269817Y60883D01*
X-269781Y60928D01*
X-269747Y60975D01*
X-269717Y61025D01*
X-269690Y61077D01*
X-269667Y61132D01*
X-269646Y61189D01*
X-269629Y61249D01*
X-269616Y61306D01*
X-269629Y61363D01*
X-269646Y61422D01*
X-269667Y61480D01*
X-269690Y61534D01*
X-269717Y61586D01*
X-269747Y61636D01*
X-269781Y61684D01*
X-269817Y61729D01*
X-269857Y61772D01*
X-269574Y62054D01*
X-269532Y62015D01*
D02*
G37*
G36*
X-244149Y60877D02*
X-244265Y60738D01*
X-244311Y60669D01*
X-244351Y60600D01*
X-244383Y60532D01*
X-244409Y60465D01*
X-244427Y60397D01*
X-244437Y60331D01*
X-244441Y60264D01*
X-244841D01*
X-244845Y60331D01*
X-244855Y60397D01*
X-244873Y60465D01*
X-244899Y60532D01*
X-244931Y60600D01*
X-244971Y60669D01*
X-245017Y60738D01*
X-245071Y60807D01*
X-245133Y60877D01*
X-245201Y60948D01*
X-244081D01*
X-244149Y60877D01*
D02*
G37*
G36*
X-264267Y61121D02*
X-264128Y61006D01*
X-264059Y60959D01*
X-264009Y60930D01*
X-263990Y60958D01*
X-263978Y60992D01*
X-263974Y61030D01*
Y60912D01*
X-263922Y60887D01*
X-263855Y60862D01*
X-263787Y60844D01*
X-263721Y60833D01*
X-263654Y60830D01*
Y60430D01*
X-263721Y60426D01*
X-263787Y60415D01*
X-263855Y60397D01*
X-263922Y60372D01*
X-263974Y60348D01*
Y60230D01*
X-263978Y60268D01*
X-263990Y60302D01*
X-264009Y60329D01*
X-264059Y60300D01*
X-264128Y60253D01*
X-264197Y60199D01*
X-264267Y60138D01*
X-264338Y60070D01*
Y60429D01*
X-264386Y60430D01*
Y60830D01*
X-264338Y60831D01*
Y61190D01*
X-264267Y61121D01*
D02*
G37*
G36*
X-259172Y60741D02*
X-259032Y60626D01*
X-258963Y60579D01*
X-258895Y60540D01*
X-258827Y60507D01*
X-258759Y60482D01*
X-258692Y60464D01*
X-258625Y60453D01*
X-258559Y60450D01*
Y60050D01*
X-258625Y60046D01*
X-258692Y60035D01*
X-258759Y60017D01*
X-258827Y59992D01*
X-258895Y59960D01*
X-258963Y59920D01*
X-259032Y59873D01*
X-259102Y59819D01*
X-259172Y59758D01*
X-259242Y59690D01*
Y60810D01*
X-259172Y60741D01*
D02*
G37*
G36*
X-269935Y60196D02*
X-269975Y60154D01*
X-270012Y60109D01*
X-270045Y60061D01*
X-270075Y60011D01*
X-270102Y59959D01*
X-270126Y59904D01*
X-270146Y59847D01*
X-270164Y59788D01*
X-270178Y59726D01*
X-270189Y59661D01*
X-270753Y60226D01*
X-270689Y60237D01*
X-270626Y60251D01*
X-270567Y60268D01*
X-270510Y60289D01*
X-270455Y60313D01*
X-270403Y60340D01*
X-270353Y60370D01*
X-270305Y60403D01*
X-270260Y60440D01*
X-270218Y60479D01*
X-269935Y60196D01*
D02*
G37*
G36*
X-270495Y59425D02*
X-270291Y59421D01*
X-270330Y59369D01*
X-270365Y59316D01*
X-270396Y59263D01*
X-270423Y59208D01*
X-270432Y59184D01*
X-270417Y59154D01*
X-270389Y59106D01*
X-270356Y59060D01*
X-270318Y59015D01*
X-270276Y58971D01*
X-270490D01*
X-270494Y58926D01*
X-270496Y58868D01*
X-270896Y58879D01*
X-270898Y58938D01*
X-270901Y58971D01*
X-271116D01*
X-271075Y59015D01*
X-271037Y59060D01*
X-271004Y59106D01*
X-270975Y59154D01*
X-270955Y59195D01*
X-270965Y59222D01*
X-270990Y59276D01*
X-271019Y59330D01*
X-271051Y59383D01*
X-271087Y59436D01*
X-270898Y59433D01*
X-270896Y59468D01*
X-270496D01*
X-270495Y59425D01*
D02*
G37*
G36*
X-267028Y59736D02*
X-267014Y59674D01*
X-266997Y59614D01*
X-266976Y59557D01*
X-266953Y59503D01*
X-266926Y59450D01*
X-266896Y59400D01*
X-266862Y59353D01*
X-266826Y59308D01*
X-266786Y59265D01*
X-267069Y58983D01*
X-267112Y59023D01*
X-267157Y59059D01*
X-267204Y59093D01*
X-267254Y59123D01*
X-267306Y59150D01*
X-267361Y59173D01*
X-267418Y59194D01*
X-267478Y59211D01*
X-267540Y59225D01*
X-267604Y59236D01*
X-267039Y59801D01*
X-267028Y59736D01*
D02*
G37*
G36*
X-268808Y59328D02*
X-268829Y59299D01*
X-268848Y59266D01*
X-268864Y59229D01*
X-268878Y59187D01*
X-268889Y59140D01*
X-268898Y59088D01*
X-268904Y59032D01*
X-268909Y58906D01*
X-269309D01*
X-269310Y58972D01*
X-269320Y59088D01*
X-269329Y59140D01*
X-269340Y59187D01*
X-269354Y59229D01*
X-269370Y59266D01*
X-269389Y59299D01*
X-269410Y59328D01*
X-269434Y59351D01*
X-268784D01*
X-268808Y59328D01*
D02*
G37*
G36*
X-273330Y59670D02*
X-273320Y59614D01*
X-273302Y59556D01*
X-273276Y59496D01*
X-273242Y59433D01*
X-273201Y59368D01*
X-273153Y59300D01*
X-273096Y59231D01*
X-272961Y59085D01*
X-273553Y58828D01*
X-273954Y59246D01*
X-273333Y59724D01*
X-273330Y59670D01*
D02*
G37*
G36*
X-44628Y59169D02*
X-44620Y59105D01*
X-44592Y59052D01*
X-44544Y59010D01*
X-44476Y58978D01*
X-44388Y58957D01*
X-44280Y58946D01*
X-44152Y58946D01*
X-44004Y58957D01*
X-43835Y58978D01*
X-44026Y58103D01*
X-44207Y58072D01*
X-44518Y57995D01*
X-44648Y57949D01*
X-44762Y57898D01*
X-44859Y57842D01*
X-44939Y57781D01*
X-45003Y57715D01*
X-45050Y57644D01*
X-45080Y57568D01*
X-44616Y59243D01*
X-44628Y59169D01*
D02*
G37*
G36*
X-246006Y45035D02*
X-245997Y44930D01*
X-245982Y44839D01*
X-245961Y44759D01*
X-245934Y44692D01*
X-245901Y44637D01*
X-245862Y44594D01*
X-245817Y44563D01*
X-245766Y44545D01*
X-245709Y44539D01*
X-246909D01*
X-246852Y44545D01*
X-246801Y44563D01*
X-246756Y44594D01*
X-246717Y44637D01*
X-246684Y44692D01*
X-246657Y44759D01*
X-246636Y44839D01*
X-246621Y44930D01*
X-246612Y45035D01*
X-246609Y45151D01*
X-246009D01*
X-246006Y45035D01*
D02*
G37*
G36*
X237166Y90110D02*
X237072Y90170D01*
X236972Y90220D01*
X236866Y90261D01*
X236755Y90292D01*
X236638Y90314D01*
X236516Y90327D01*
X236388Y90330D01*
X236254Y90324D01*
X236114Y90308D01*
X235969Y90283D01*
X235031Y90864D01*
X235099Y90880D01*
X235163Y90901D01*
X235226Y90926D01*
X235285Y90955D01*
X235342Y90989D01*
X235395Y91027D01*
X235446Y91070D01*
X235495Y91117D01*
X235540Y91168D01*
X235583Y91224D01*
X237166Y90110D01*
D02*
G37*
G36*
X236981Y88256D02*
X237090Y88200D01*
X237213Y88148D01*
X237348Y88102D01*
X237497Y88061D01*
X237835Y87994D01*
X238024Y87967D01*
X238442Y87930D01*
X238869Y87276D01*
X238764Y87279D01*
X238680Y87276D01*
X238615Y87266D01*
X238571Y87249D01*
X238547Y87225D01*
X238544Y87194D01*
X238561Y87156D01*
X238597Y87111D01*
X238654Y87059D01*
X238731Y87000D01*
X236885Y88317D01*
X236981Y88256D01*
D02*
G37*
G36*
X230604Y86329D02*
X230544Y86267D01*
X230443Y86148D01*
X230403Y86092D01*
X230368Y86037D01*
X230340Y85984D01*
X230318Y85933D01*
X230303Y85884D01*
X230294Y85836D01*
X230291Y85790D01*
X229499Y86582D01*
X229545Y86585D01*
X229593Y86594D01*
X229642Y86610D01*
X229693Y86631D01*
X229746Y86659D01*
X229801Y86694D01*
X229857Y86734D01*
X229916Y86781D01*
X230038Y86895D01*
X230604Y86329D01*
D02*
G37*
G36*
X235770Y85249D02*
X235859Y85199D01*
X235952Y85156D01*
X236048Y85118D01*
X236149Y85086D01*
X236254Y85060D01*
X236363Y85040D01*
X236475Y85025D01*
X236592Y85017D01*
X236713Y85014D01*
X237554Y84414D01*
X236973Y84400D01*
X235685Y85304D01*
X235770Y85249D01*
D02*
G37*
G36*
X41464Y76847D02*
X41437Y76807D01*
X41413Y76762D01*
X41392Y76710D01*
X41375Y76653D01*
X41360Y76590D01*
X41349Y76521D01*
X41341Y76446D01*
X41335Y76280D01*
X40535D01*
X40533Y76366D01*
X40520Y76521D01*
X40509Y76590D01*
X40495Y76653D01*
X40477Y76710D01*
X40456Y76762D01*
X40432Y76807D01*
X40405Y76847D01*
X40375Y76882D01*
X41495D01*
X41464Y76847D01*
D02*
G37*
G36*
X44387Y75942D02*
X44358Y75897D01*
X44333Y75846D01*
X44313Y75788D01*
X44296Y75722D01*
X44283Y75650D01*
X44275Y75571D01*
X44270Y75485D01*
X44273Y75292D01*
X43474Y75250D01*
X43466Y75363D01*
X43431Y75649D01*
X43415Y75727D01*
X43396Y75795D01*
X43375Y75855D01*
X43352Y75905D01*
X43327Y75947D01*
X43299Y75979D01*
X44420Y75979D01*
X44387Y75942D01*
D02*
G37*
G36*
X247803Y71398D02*
X247798Y71332D01*
X247800Y71267D01*
X247810Y71203D01*
X247827Y71140D01*
X247851Y71078D01*
X247883Y71016D01*
X247922Y70956D01*
X247968Y70897D01*
X248022Y70839D01*
X247492Y70521D01*
X247437Y70573D01*
X247380Y70622D01*
X247321Y70667D01*
X247261Y70707D01*
X247200Y70744D01*
X247136Y70777D01*
X247071Y70806D01*
X247005Y70832D01*
X246937Y70853D01*
X246867Y70870D01*
X247816Y71466D01*
X247803Y71398D01*
D02*
G37*
G36*
X37141Y70188D02*
X37625Y69922D01*
X37836Y69826D01*
X38026Y69754D01*
X38195Y69708D01*
X38344Y69685D01*
X38472Y69688D01*
X38579Y69715D01*
X38666Y69766D01*
X37075Y68433D01*
X37140Y68506D01*
X37172Y68587D01*
X37171Y68678D01*
X37137Y68778D01*
X37070Y68887D01*
X36971Y69005D01*
X36839Y69132D01*
X36674Y69269D01*
X36476Y69414D01*
X36245Y69569D01*
X36869Y70358D01*
X37141Y70188D01*
D02*
G37*
G36*
X250137Y66670D02*
X250154Y66490D01*
X250170Y66408D01*
X250190Y66331D01*
X250215Y66260D01*
X250245Y66195D01*
X250280Y66135D01*
X250320Y66080D01*
X250364Y66030D01*
X250081Y65747D01*
X250032Y65792D01*
X249977Y65831D01*
X249917Y65866D01*
X249851Y65896D01*
X249780Y65921D01*
X249704Y65942D01*
X249622Y65958D01*
X249534Y65969D01*
X249442Y65975D01*
X249344Y65976D01*
X250135Y66768D01*
X250137Y66670D01*
D02*
G37*
G36*
X49050Y67034D02*
X49168Y66932D01*
X49280Y66849D01*
X49385Y66783D01*
X49483Y66735D01*
X49574Y66706D01*
X49659Y66694D01*
X49736Y66701D01*
X49807Y66725D01*
X49871Y66768D01*
X48656Y65729D01*
X48708Y65785D01*
X48740Y65848D01*
X48754Y65918D01*
X48748Y65996D01*
X48725Y66082D01*
X48682Y66175D01*
X48621Y66276D01*
X48541Y66384D01*
X48442Y66499D01*
X48325Y66622D01*
X48924Y67154D01*
X49050Y67034D01*
D02*
G37*
G36*
X255144Y66752D02*
X255203Y66706D01*
X255260Y66669D01*
X255315Y66642D01*
X255370Y66624D01*
X255423Y66616D01*
X255474Y66617D01*
X255525Y66628D01*
X255574Y66648D01*
X255622Y66678D01*
X255405Y65628D01*
X255396Y65639D01*
X255375Y65662D01*
X254754Y66290D01*
X255084Y66808D01*
X255144Y66752D01*
D02*
G37*
G36*
X260036Y65947D02*
X259997Y65904D01*
X259960Y65859D01*
X259927Y65812D01*
X259897Y65762D01*
X259870Y65709D01*
X259846Y65654D01*
X259826Y65597D01*
X259809Y65538D01*
X259795Y65475D01*
X259784Y65411D01*
X259218Y65974D01*
X259282Y65985D01*
X259344Y65999D01*
X259403Y66016D01*
X259460Y66037D01*
X259515Y66061D01*
X259567Y66088D01*
X259617Y66118D01*
X259664Y66152D01*
X259709Y66188D01*
X259752Y66228D01*
X260036Y65947D01*
D02*
G37*
G36*
X257373Y63538D02*
X257337Y63567D01*
X257293Y63592D01*
X257241Y63615D01*
X257182Y63635D01*
X257115Y63651D01*
X257040Y63665D01*
X256867Y63683D01*
X256769Y63687D01*
X256663Y63689D01*
X256795Y64289D01*
X257434Y64318D01*
X257373Y63538D01*
D02*
G37*
G36*
X255163Y63604D02*
X255168Y63580D01*
X255176Y63556D01*
X255187Y63530D01*
X255201Y63504D01*
X255218Y63476D01*
X255238Y63448D01*
X255262Y63419D01*
X255318Y63358D01*
X255035Y63075D01*
X255004Y63105D01*
X254945Y63155D01*
X254917Y63175D01*
X254889Y63192D01*
X254863Y63206D01*
X254837Y63217D01*
X254813Y63225D01*
X254789Y63230D01*
X254766Y63231D01*
X255162Y63627D01*
X255163Y63604D01*
D02*
G37*
G36*
X38909Y63041D02*
X38844Y63017D01*
X38789Y62977D01*
X38745Y62921D01*
X38710Y62848D01*
X38686Y62760D01*
X38672Y62655D01*
X38668Y62535D01*
X38674Y62398D01*
X38691Y62245D01*
X37879Y62244D01*
X37854Y62397D01*
X37824Y62534D01*
X37787Y62655D01*
X37745Y62759D01*
X37697Y62848D01*
X37644Y62920D01*
X37584Y62977D01*
X37519Y63017D01*
X37448Y63041D01*
X37371Y63049D01*
X38985D01*
X38909Y63041D01*
D02*
G37*
G36*
X256982Y62875D02*
X257002Y62860D01*
X257024Y62847D01*
X257049Y62835D01*
X257077Y62826D01*
X257109Y62818D01*
X257143Y62812D01*
X257180Y62807D01*
X257262Y62804D01*
X257557Y62804D01*
X257244Y62160D01*
X257224Y62206D01*
X257199Y62248D01*
X257169Y62284D01*
X257134Y62316D01*
X257094Y62343D01*
X257049Y62365D01*
X257013Y62377D01*
X256989Y62369D01*
X256966Y62358D01*
X256946Y62346D01*
X256928Y62332D01*
X256932Y62396D01*
X256884Y62401D01*
X256820Y62404D01*
X256896Y62804D01*
X256960D01*
X256966Y62891D01*
X256982Y62875D01*
D02*
G37*
G36*
X257228Y60635D02*
X257224Y60644D01*
X257215Y60652D01*
X257203Y60659D01*
X257185Y60664D01*
X257164Y60669D01*
X257138Y60674D01*
X257073Y60679D01*
X256992Y60681D01*
Y61081D01*
X257349Y61096D01*
X257228Y60635D01*
D02*
G37*
G36*
X45437Y61874D02*
X45555Y61772D01*
X45667Y61689D01*
X45772Y61623D01*
X45870Y61575D01*
X45961Y61546D01*
X46046Y61534D01*
X46123Y61541D01*
X46194Y61565D01*
X46258Y61608D01*
X45043Y60569D01*
X45094Y60625D01*
X45127Y60688D01*
X45140Y60758D01*
X45135Y60836D01*
X45112Y60922D01*
X45069Y61015D01*
X45008Y61115D01*
X44928Y61224D01*
X44829Y61339D01*
X44712Y61462D01*
X45311Y61994D01*
X45437Y61874D01*
D02*
G37*
G36*
X253582Y60012D02*
X253641Y59960D01*
X253658Y59947D01*
X253675Y59936D01*
X253690Y59927D01*
X253704Y59921D01*
X253717Y59916D01*
X253730Y59914D01*
X253396Y59580D01*
X253394Y59592D01*
X253389Y59606D01*
X253383Y59620D01*
X253374Y59635D01*
X253363Y59652D01*
X253350Y59669D01*
X253318Y59708D01*
X253277Y59750D01*
X253560Y60033D01*
X253582Y60012D01*
D02*
G37*
G36*
X42527Y60082D02*
X42528Y59995D01*
X42545Y59770D01*
X42556Y59706D01*
X42569Y59648D01*
X42584Y59597D01*
X42601Y59550D01*
X42621Y59510D01*
X42643Y59475D01*
X41537Y59653D01*
X41573Y59683D01*
X41605Y59719D01*
X41634Y59761D01*
X41658Y59810D01*
X41679Y59864D01*
X41696Y59926D01*
X41710Y59993D01*
X41719Y60066D01*
X41725Y60146D01*
X41727Y60232D01*
X42527Y60082D01*
D02*
G37*
G36*
X257072Y59528D02*
X257079Y59515D01*
X257090Y59503D01*
X257107Y59493D01*
X257127Y59484D01*
X257153Y59477D01*
X257161Y59476D01*
X257259Y59483D01*
X257289Y59489D01*
X257313Y59497D01*
X257331Y59506D01*
X257344Y59515D01*
X257253Y58987D01*
X257244Y59002D01*
X257230Y59015D01*
X257212Y59027D01*
X257189Y59037D01*
X257162Y59045D01*
X257129Y59052D01*
X257092Y59057D01*
X257051Y59061D01*
X256953Y59065D01*
Y59110D01*
X256731Y59152D01*
X256953Y59409D01*
Y59465D01*
X257002Y59465D01*
X257070Y59543D01*
X257072Y59528D01*
D02*
G37*
G36*
X254270Y58833D02*
X253670Y58653D01*
X253667Y58735D01*
X253660Y58810D01*
X253646Y58875D01*
X253628Y58932D01*
X253604Y58980D01*
X253575Y59020D01*
X253541Y59051D01*
X253502Y59073D01*
X253457Y59087D01*
X253407Y59092D01*
X254207Y59758D01*
X254270Y58833D01*
D02*
G37*
G36*
X251381Y59287D02*
X251482Y59202D01*
X251528Y59169D01*
X251571Y59142D01*
X251612Y59122D01*
X251650Y59108D01*
X251685Y59100D01*
X251718Y59099D01*
X251748Y59104D01*
X251179Y58473D01*
X251181Y58503D01*
X251176Y58536D01*
X251165Y58572D01*
X251147Y58612D01*
X251122Y58654D01*
X251092Y58700D01*
X251054Y58749D01*
X250960Y58857D01*
X250903Y58915D01*
X251327Y59339D01*
X251381Y59287D01*
D02*
G37*
G36*
X41824Y56714D02*
X41942Y56612D01*
X42054Y56529D01*
X42159Y56463D01*
X42257Y56415D01*
X42348Y56386D01*
X42433Y56374D01*
X42510Y56381D01*
X42581Y56405D01*
X42645Y56448D01*
X41430Y55409D01*
X41481Y55465D01*
X41514Y55528D01*
X41527Y55598D01*
X41522Y55676D01*
X41499Y55762D01*
X41456Y55855D01*
X41395Y55955D01*
X41315Y56063D01*
X41216Y56179D01*
X41099Y56302D01*
X41698Y56834D01*
X41824Y56714D01*
D02*
G37*
G36*
X45680Y49845D02*
X45592Y49865D01*
X45507Y49861D01*
X45424Y49831D01*
X45345Y49776D01*
X45269Y49696D01*
X45196Y49591D01*
X45126Y49460D01*
X45060Y49305D01*
X44997Y49124D01*
X44936Y48918D01*
X44004Y49290D01*
X44054Y49494D01*
X44088Y49681D01*
X44108Y49850D01*
X44112Y50001D01*
X44101Y50133D01*
X44075Y50249D01*
X44034Y50346D01*
X43977Y50425D01*
X43906Y50487D01*
X43819Y50530D01*
X45680Y49845D01*
D02*
G37*
G36*
X246548Y37026D02*
X246570Y36992D01*
X246629Y36913D01*
X246708Y36821D01*
X246921Y36597D01*
X246904Y36497D01*
X246991Y36526D01*
X247118Y36404D01*
X247358Y36197D01*
X247470Y36113D01*
X247579Y36042D01*
X247682Y35983D01*
X247782Y35938D01*
X247876Y35905D01*
X247967Y35885D01*
X248052Y35878D01*
X246805Y35889D01*
X246801Y35868D01*
X246778Y35889D01*
X246760Y35890D01*
X246759Y35894D01*
X246750Y35906D01*
X246732Y35928D01*
X246720Y35940D01*
X246683Y35969D01*
X246625Y36006D01*
X246568Y36033D01*
X246512Y36052D01*
X246456Y36061D01*
X246402Y36061D01*
X246348Y36052D01*
X246295Y36033D01*
X246242Y36006D01*
X246530Y37056D01*
X246548Y37026D01*
D02*
G37*
G36*
X245512Y33082D02*
X245598Y33008D01*
X245684Y32943D01*
X245769Y32887D01*
X245854Y32839D01*
X245938Y32799D01*
X246023Y32769D01*
X246107Y32746D01*
X246191Y32733D01*
X246274Y32728D01*
X244792Y32740D01*
X244789Y32782D01*
X244783Y32824D01*
X244772Y32866D01*
X244757Y32908D01*
X244738Y32951D01*
X244714Y32993D01*
X244686Y33036D01*
X244654Y33079D01*
X244618Y33121D01*
X244577Y33164D01*
X245425D01*
X245512Y33082D01*
D02*
G37*
G36*
X48076Y23673D02*
X48045Y23735D01*
X48002Y23791D01*
X47947Y23840D01*
X47880Y23882D01*
X47800Y23918D01*
X47708Y23948D01*
X47604Y23971D01*
X47487Y23987D01*
X47359Y23997D01*
X47218Y24000D01*
Y25000D01*
X47359Y25003D01*
X47487Y25013D01*
X47604Y25029D01*
X47708Y25052D01*
X47800Y25082D01*
X47880Y25118D01*
X47947Y25160D01*
X48002Y25209D01*
X48045Y25265D01*
X48076Y25327D01*
Y23673D01*
D02*
G37*
G36*
X269410Y82637D02*
X269357Y82686D01*
X269302Y82730D01*
X269244Y82769D01*
X269183Y82803D01*
X269120Y82832D01*
X269053Y82855D01*
X268984Y82873D01*
X268912Y82886D01*
X268837Y82894D01*
X268759Y82897D01*
Y83497D01*
X268837Y83499D01*
X268912Y83507D01*
X268984Y83520D01*
X269053Y83538D01*
X269120Y83562D01*
X269183Y83590D01*
X269244Y83624D01*
X269302Y83663D01*
X269357Y83707D01*
X269410Y83757D01*
Y82637D01*
D02*
G37*
G36*
X262059Y82712D02*
X262015Y82657D01*
X261976Y82599D01*
X261942Y82538D01*
X261913Y82475D01*
X261890Y82408D01*
X261872Y82339D01*
X261859Y82267D01*
X261851Y82192D01*
X261848Y82114D01*
X261248D01*
X261246Y82192D01*
X261238Y82267D01*
X261225Y82339D01*
X261207Y82408D01*
X261183Y82475D01*
X261155Y82538D01*
X261121Y82599D01*
X261082Y82657D01*
X261038Y82712D01*
X260988Y82765D01*
X262108D01*
X262059Y82712D01*
D02*
G37*
G36*
X275347Y65851D02*
X275344Y65881D01*
X275336Y65914D01*
X275321Y65950D01*
X275300Y65989D01*
X275274Y66031D01*
X275241Y66076D01*
X275159Y66176D01*
X275109Y66230D01*
X275053Y66288D01*
X275258Y66648D01*
X275275Y66632D01*
X275290Y66622D01*
X275304Y66617D01*
X275315Y66617D01*
X275325Y66623D01*
X275333Y66633D01*
X275339Y66648D01*
X275344Y66669D01*
X275346Y66694D01*
X275347Y66725D01*
Y65851D01*
D02*
G37*
G36*
X271354Y66354D02*
X271374Y66341D01*
X271397Y66329D01*
X271423Y66318D01*
X271451Y66310D01*
X271483Y66302D01*
X271517Y66297D01*
X271554Y66293D01*
X271638Y66290D01*
Y65890D01*
X271595Y65889D01*
X271517Y65882D01*
X271483Y65877D01*
X271451Y65870D01*
X271423Y65861D01*
X271397Y65850D01*
X271374Y65838D01*
X271354Y65825D01*
X271337Y65810D01*
Y66370D01*
X271354Y66354D01*
D02*
G37*
G36*
X261397Y66252D02*
X261350Y65596D01*
X260766Y65969D01*
X260810Y65980D01*
X260849Y65996D01*
X260884Y66015D01*
X260914Y66038D01*
X260939Y66065D01*
X260960Y66096D01*
X260976Y66131D01*
X260988Y66170D01*
X260995Y66212D01*
X260997Y66259D01*
X261397Y66252D01*
D02*
G37*
G36*
X269790Y65072D02*
X269797Y65066D01*
X269810Y65060D01*
X269827Y65055D01*
X269850Y65051D01*
X269877Y65048D01*
X269947Y65043D01*
X270037Y65042D01*
Y64642D01*
X269989Y64642D01*
X269850Y64633D01*
X269827Y64628D01*
X269810Y64624D01*
X269797Y64618D01*
X269790Y64612D01*
X269787Y64605D01*
Y65079D01*
X269790Y65072D01*
D02*
G37*
G36*
X264367Y64266D02*
X264420Y64233D01*
X264475Y64203D01*
X264529Y64177D01*
X264585Y64155D01*
X264641Y64138D01*
X264698Y64124D01*
X264755Y64114D01*
X264812Y64108D01*
X264871Y64106D01*
X264872Y63706D01*
X264814Y63704D01*
X264756Y63698D01*
X264699Y63688D01*
X264643Y63674D01*
X264587Y63656D01*
X264531Y63634D01*
X264476Y63608D01*
X264422Y63578D01*
X264368Y63543D01*
X264315Y63505D01*
X264314Y64304D01*
X264367Y64266D01*
D02*
G37*
G36*
X263713Y62551D02*
X263814Y62556D01*
X263814Y62106D01*
X263803Y62111D01*
X263784Y62115D01*
X263756Y62119D01*
X263712Y62122D01*
X263712Y61931D01*
X263658Y61969D01*
X263605Y62003D01*
X263550Y62033D01*
X263495Y62059D01*
X263440Y62081D01*
X263384Y62099D01*
X263327Y62113D01*
X263270Y62123D01*
X263226Y62128D01*
X263182Y62123D01*
X263124Y62113D01*
X263068Y62099D01*
X263012Y62081D01*
X262956Y62059D01*
X262901Y62033D01*
X262847Y62003D01*
X262793Y61969D01*
X262740Y61931D01*
X262739Y62729D01*
X262792Y62692D01*
X262845Y62658D01*
X262900Y62628D01*
X262955Y62602D01*
X263010Y62581D01*
X263066Y62563D01*
X263123Y62549D01*
X263180Y62539D01*
X263226Y62534D01*
X263272Y62539D01*
X263329Y62549D01*
X263386Y62563D01*
X263442Y62581D01*
X263497Y62602D01*
X263552Y62628D01*
X263606Y62658D01*
X263660Y62692D01*
X263713Y62729D01*
X263713Y62551D01*
D02*
G37*
G36*
X271618Y63072D02*
X271757Y62956D01*
X271820Y62912D01*
X271879Y62879D01*
X271933Y62856D01*
X271983Y62843D01*
X272029Y62839D01*
X272071Y62846D01*
X272108Y62862D01*
X271404Y62435D01*
X271433Y62459D01*
X271449Y62491D01*
X271453Y62530D01*
X271443Y62576D01*
X271421Y62629D01*
X271387Y62689D01*
X271339Y62757D01*
X271279Y62831D01*
X271121Y63000D01*
X271542Y63145D01*
X271618Y63072D01*
D02*
G37*
G36*
X264519Y62337D02*
X264533Y62276D01*
X264551Y62216D01*
X264571Y62160D01*
X264595Y62105D01*
X264622Y62053D01*
X264653Y62003D01*
X264686Y61956D01*
X264723Y61910D01*
X264763Y61868D01*
X264482Y61583D01*
X264440Y61622D01*
X264395Y61659D01*
X264347Y61692D01*
X264298Y61722D01*
X264245Y61749D01*
X264190Y61772D01*
X264133Y61793D01*
X264073Y61810D01*
X264011Y61823D01*
X263946Y61834D01*
X264074Y61963D01*
X263998Y62032D01*
X264316Y62350D01*
X264320Y62340D01*
X264331Y62323D01*
X264348Y62300D01*
X264376Y62268D01*
X264508Y62401D01*
X264519Y62337D01*
D02*
G37*
G36*
X265665Y62696D02*
X265685Y62682D01*
X265708Y62670D01*
X265734Y62660D01*
X265762Y62651D01*
X265794Y62644D01*
X265828Y62638D01*
X265865Y62634D01*
X265949Y62631D01*
Y62231D01*
X265905Y62230D01*
X265828Y62224D01*
X265794Y62218D01*
X265762Y62211D01*
X265734Y62202D01*
X265708Y62192D01*
X265685Y62180D01*
X265665Y62166D01*
X265648Y62151D01*
Y62711D01*
X265665Y62696D01*
D02*
G37*
G36*
X261225Y63550D02*
X261191Y63496D01*
X261161Y63442D01*
X261135Y63387D01*
X261114Y63332D01*
X261096Y63276D01*
X261082Y63219D01*
X261072Y63162D01*
X261067Y63117D01*
X261072Y63072D01*
X261082Y63015D01*
X261096Y62958D01*
X261114Y62902D01*
X261135Y62846D01*
X261161Y62792D01*
X261191Y62737D01*
X261222Y62688D01*
X261271Y62658D01*
X261325Y62628D01*
X261380Y62602D01*
X261435Y62581D01*
X261491Y62563D01*
X261548Y62549D01*
X261605Y62539D01*
X261651Y62534D01*
X261697Y62539D01*
X261754Y62549D01*
X261811Y62563D01*
X261867Y62581D01*
X261922Y62602D01*
X261977Y62628D01*
X262032Y62658D01*
X262085Y62692D01*
X262138Y62729D01*
X262137Y61931D01*
X262084Y61969D01*
X262030Y62003D01*
X261975Y62033D01*
X261920Y62059D01*
X261865Y62081D01*
X261809Y62099D01*
X261752Y62113D01*
X261695Y62123D01*
X261651Y62128D01*
X261607Y62123D01*
X261550Y62113D01*
X261493Y62099D01*
X261437Y62081D01*
X261382Y62059D01*
X261327Y62033D01*
X261272Y62003D01*
X261219Y61969D01*
X261165Y61931D01*
X261165Y62111D01*
X261062Y62106D01*
X261062Y62529D01*
X260638D01*
X260643Y62539D01*
X260648Y62559D01*
X260651Y62587D01*
X260654Y62630D01*
X260464D01*
X260502Y62683D01*
X260536Y62737D01*
X260566Y62792D01*
X260592Y62846D01*
X260614Y62902D01*
X260632Y62958D01*
X260646Y63015D01*
X260656Y63072D01*
X260660Y63117D01*
X260656Y63162D01*
X260646Y63219D01*
X260632Y63276D01*
X260614Y63332D01*
X260592Y63387D01*
X260566Y63442D01*
X260536Y63496D01*
X260502Y63550D01*
X260464Y63603D01*
X261263D01*
X261225Y63550D01*
D02*
G37*
G36*
X267637Y61431D02*
X267633Y61469D01*
X267620Y61503D01*
X267600Y61533D01*
X267571Y61559D01*
X267534Y61581D01*
X267488Y61599D01*
X267435Y61613D01*
X267373Y61623D01*
X267303Y61629D01*
X267225Y61631D01*
Y62031D01*
X267303Y62033D01*
X267373Y62039D01*
X267435Y62049D01*
X267488Y62063D01*
X267534Y62081D01*
X267571Y62103D01*
X267600Y62129D01*
X267620Y62159D01*
X267633Y62193D01*
X267637Y62231D01*
Y61431D01*
D02*
G37*
G36*
X265541Y61100D02*
X265529Y61106D01*
X265508Y61111D01*
X265479Y61116D01*
X265394Y61123D01*
X265201Y61130D01*
X265029Y61131D01*
Y61531D01*
X265119Y61531D01*
X265529Y61556D01*
X265541Y61562D01*
Y61100D01*
D02*
G37*
G36*
X263712Y60356D02*
X263658Y60394D01*
X263605Y60428D01*
X263550Y60458D01*
X263495Y60484D01*
X263440Y60506D01*
X263384Y60524D01*
X263327Y60538D01*
X263270Y60548D01*
X263226Y60553D01*
X263182Y60548D01*
X263124Y60538D01*
X263068Y60524D01*
X263012Y60506D01*
X262956Y60484D01*
X262901Y60458D01*
X262847Y60428D01*
X262793Y60394D01*
X262740Y60356D01*
X262739Y61154D01*
X262792Y61117D01*
X262845Y61083D01*
X262900Y61053D01*
X262955Y61027D01*
X263010Y61006D01*
X263066Y60988D01*
X263123Y60974D01*
X263180Y60964D01*
X263226Y60959D01*
X263272Y60964D01*
X263329Y60974D01*
X263386Y60988D01*
X263442Y61006D01*
X263497Y61027D01*
X263552Y61053D01*
X263606Y61083D01*
X263660Y61117D01*
X263713Y61154D01*
X263712Y60356D01*
D02*
G37*
G36*
X276531Y60859D02*
X276480Y60841D01*
X276435Y60810D01*
X276396Y60768D01*
X276363Y60712D01*
X276336Y60645D01*
X276315Y60566D01*
X276300Y60474D01*
X276291Y60370D01*
X276288Y60254D01*
X275688D01*
X275685Y60370D01*
X275676Y60474D01*
X275661Y60566D01*
X275640Y60645D01*
X275613Y60712D01*
X275580Y60768D01*
X275541Y60810D01*
X275496Y60841D01*
X275445Y60859D01*
X275388Y60865D01*
X276588D01*
X276531Y60859D01*
D02*
G37*
G36*
X264519Y60760D02*
X264533Y60698D01*
X264551Y60638D01*
X264571Y60581D01*
X264595Y60526D01*
X264622Y60474D01*
X264652Y60424D01*
X264685Y60377D01*
X264722Y60332D01*
X264762Y60289D01*
X264479Y60006D01*
X264436Y60046D01*
X264391Y60083D01*
X264344Y60116D01*
X264294Y60146D01*
X264241Y60173D01*
X264187Y60197D01*
X264130Y60217D01*
X264070Y60235D01*
X264008Y60249D01*
X263944Y60259D01*
X264508Y60824D01*
X264519Y60760D01*
D02*
G37*
G36*
X275027Y58504D02*
X274966Y58505D01*
X274905Y58499D01*
X274844Y58487D01*
X274784Y58469D01*
X274723Y58444D01*
X274663Y58413D01*
X274603Y58376D01*
X274543Y58333D01*
X274484Y58283D01*
X274425Y58227D01*
X274180Y58471D01*
Y58116D01*
X274064Y58113D01*
X273960Y58104D01*
X273868Y58089D01*
X273788Y58068D01*
X273721Y58041D01*
X273666Y58008D01*
X273623Y57969D01*
X273593Y57924D01*
X273574Y57873D01*
X273568Y57816D01*
Y59016D01*
X273574Y58959D01*
X273593Y58908D01*
X273623Y58863D01*
X273666Y58824D01*
X273721Y58791D01*
X273788Y58764D01*
X273868Y58743D01*
X273960Y58728D01*
X274063Y58719D01*
X274106Y58770D01*
X274150Y58829D01*
X274187Y58890D01*
X274218Y58950D01*
X274242Y59010D01*
X274261Y59071D01*
X274273Y59131D01*
X274278Y59193D01*
X274278Y59254D01*
X275027Y58504D01*
D02*
G37*
G36*
X267861Y59631D02*
X268074Y59452D01*
X268170Y59385D01*
X268259Y59335D01*
X268340Y59301D01*
X268414Y59282D01*
X268480Y59279D01*
X268540Y59292D01*
X268592Y59320D01*
X267625Y58590D01*
X267664Y58631D01*
X267685Y58683D01*
X267688Y58743D01*
X267673Y58814D01*
X267639Y58894D01*
X267588Y58983D01*
X267518Y59083D01*
X267430Y59192D01*
X267200Y59439D01*
X267743Y59745D01*
X267861Y59631D01*
D02*
G37*
G36*
X262509Y58685D02*
X262445Y58674D01*
X262383Y58660D01*
X262323Y58642D01*
X262266Y58622D01*
X262212Y58598D01*
X262160Y58571D01*
X262110Y58541D01*
X262062Y58507D01*
X262017Y58471D01*
X261975Y58431D01*
X261691Y58713D01*
X261731Y58755D01*
X261767Y58800D01*
X261800Y58848D01*
X261830Y58898D01*
X261857Y58950D01*
X261881Y59005D01*
X261901Y59062D01*
X261918Y59122D01*
X261932Y59184D01*
X261943Y59249D01*
X262509Y58685D01*
D02*
G37*
G36*
X269428Y57712D02*
X269399Y57770D01*
X269364Y57822D01*
X269324Y57867D01*
X269278Y57907D01*
X269226Y57940D01*
X269168Y57968D01*
X269105Y57989D01*
X269037Y58004D01*
X268962Y58013D01*
X268882Y58017D01*
X269137Y58617D01*
X269213Y58618D01*
X269360Y58629D01*
X269432Y58639D01*
X269570Y58667D01*
X269637Y58686D01*
X269766Y58731D01*
X269828Y58758D01*
X269428Y57712D01*
D02*
G37*
%LPC*%
G36*
X261164Y62630D02*
X261084D01*
X261088Y62548D01*
X261091Y62547D01*
X261119Y62543D01*
X261164Y62540D01*
X261164Y62630D01*
D02*
G37*
%LPD*%
D11*
X-45579Y35309D02*
G03*
X-49201Y33809I0J-5121D01*
G01*
X-49723Y33286D02*
G03*
X-52503Y26574I6712J-6712D01*
G01*
X-45579Y35309D02*
G03*
X-41786Y36880I0J5364D01*
G01*
X41370Y45839D02*
G03*
X39108Y40379I5460J-5460D01*
G01*
Y31696D02*
G03*
X40045Y27471I10000J0D01*
G01*
X40045D02*
G03*
X47218Y24500I7173J7173D01*
G01*
X44049Y48518D02*
G03*
X44705Y50100I-1578J1581D01*
G01*
X38134Y68708D02*
G03*
X31808Y71328I-6326J-6326D01*
G01*
X-40743Y76547D02*
G03*
X-42630Y71992I4555J-4555D01*
G01*
X-42865Y68189D02*
G03*
X-42630Y68755I-566J566D01*
G01*
X-41776Y57404D02*
G03*
X-43624Y58627I-3929J-3929D01*
G01*
X-4553Y74403D02*
G03*
X-11165Y77142I-6612J-6612D01*
G01*
X-4407Y74257D02*
G03*
X2664Y71328I7071J7071D01*
G01*
X-39959Y55027D02*
G03*
X-40354Y55983I-1352J0D01*
G01*
X-39724Y48751D02*
G03*
X-39959Y49316I-799J0D01*
G01*
X-41252Y37414D02*
G03*
X-39724Y41102I-3688J3688D01*
G01*
X-244800Y31897D02*
X-244781Y31878D01*
X-247172Y31897D02*
X-244800D01*
X-247184Y31910D02*
X-247172Y31897D01*
X-247895Y31199D02*
X-247184Y31910D01*
X-247910Y31199D02*
X-247895D01*
X248497Y42423D02*
X250587D01*
X247910Y43010D02*
X248497Y42423D01*
X-49723Y33286D02*
X-49201Y33809D01*
X-52503Y26181D02*
Y26574D01*
X-41776Y57404D02*
X-40354Y55983D01*
X39108Y31696D02*
Y40379D01*
X41370Y45839D02*
X44049Y48518D01*
X2664Y71328D02*
X31808D01*
X-42630Y68755D02*
Y71992D01*
X-40149Y77142D02*
X-11165D01*
X-40743Y76547D02*
X-40149Y77142D01*
X-4553Y74403D02*
X-4407Y74257D01*
X-42639Y67852D02*
X-42446Y67659D01*
X47218Y24500D02*
X50288D01*
X44705Y50100D02*
Y53262D01*
X-39724Y41102D02*
Y48751D01*
X-39959Y49316D02*
Y55027D01*
X-41786Y36880D02*
X-41252Y37414D01*
X-41776Y57404D02*
X-41776Y57404D01*
D13*
X250357Y63340D02*
G03*
X251355Y62927I998J998D01*
G01*
X247811Y66571D02*
G03*
X248295Y65401I1655J0D01*
G01*
X247038Y71652D02*
G03*
X247216Y71221I609J0D01*
G01*
X243115Y77917D02*
G03*
X236044Y80845I-7071J-7071D01*
G01*
X244006Y75904D02*
G03*
X243213Y77820I-2709J0D01*
G01*
X243675Y62759D02*
G03*
X243872Y62283I674J0D01*
G01*
D02*
G03*
X244729Y60215I2924J0D01*
G01*
X244883Y60061D02*
G03*
X247136Y59127I2253J2253D01*
G01*
X243675Y66472D02*
G03*
X244006Y67271I-799J799D01*
G01*
X-253738Y65143D02*
G03*
X-254190Y64051I1092J-1092D01*
G01*
X-44208Y52552D02*
G03*
X-43713Y52757I0J700D01*
G01*
X244864Y46422D02*
G03*
X243935Y44179I2242J-2242D01*
G01*
X244262Y39194D02*
G03*
X243957Y39961I-1116J0D01*
G01*
X247669Y57031D02*
G03*
X246764Y56656I0J-1279D01*
G01*
X246471Y56363D02*
G03*
X245862Y54893I1471J-1471D01*
G01*
X246972Y31193D02*
G03*
X247375Y31026I404J404D01*
G01*
X244301Y34101D02*
G03*
X244468Y33697I571J0D01*
G01*
X245364Y46922D02*
G03*
X245862Y48124I-1202J1202D01*
G01*
X-246309Y55335D02*
G03*
X-246812Y56551I-1719J0D01*
G01*
D02*
G03*
X-247969Y57030I-1156J-1156D01*
G01*
X244566Y84744D02*
G03*
X237495Y87673I-7071J-7071D01*
G01*
X250877Y76236D02*
G03*
X249326Y79985I-5305J0D01*
G01*
X250877Y74171D02*
G03*
X253356Y68187I8462J0D01*
G01*
X254762Y66706D02*
G03*
X254709Y66834I-182J0D01*
G01*
X245686Y81785D02*
G03*
X238615Y84714I-7071J-7071D01*
G01*
X249549Y75419D02*
G03*
X247778Y79693I-6045J0D01*
G01*
X249549Y74530D02*
G03*
X252478Y67459I10000J0D01*
G01*
X-250887Y73416D02*
G03*
X-252285Y70040I3381J-3376D01*
G01*
X-257400Y66900D02*
G03*
X-254027Y68297I0J4770D01*
G01*
X-256112Y68930D02*
G03*
X-254773Y69485I0J1894D01*
G01*
X-253943Y70315D02*
G03*
X-253229Y72038I-1723J1723D01*
G01*
X-252298Y77099D02*
G03*
X-254085Y74477I6037J-6037D01*
G01*
X-255428Y71236D02*
G03*
X-254085Y74477I-3241J3241D01*
G01*
X-236789Y92448D02*
G03*
X-237061Y92336I0J-385D01*
G01*
X-252402Y74508D02*
G03*
X-253285Y72378I2130J-2130D01*
G01*
X-236972Y87773D02*
G03*
X-240669Y86242I0J-5227D01*
G01*
X-235895Y84813D02*
G03*
X-242033Y82271I0J-8680D01*
G01*
X-246412Y39255D02*
X-246142D01*
X-249364Y35114D02*
X-249349Y35129D01*
X-245850D01*
X-247404Y38263D02*
X-246412Y39255D01*
X-249364Y38263D02*
X-247404D01*
X245862Y48124D02*
Y54893D01*
X248647Y35857D02*
X249147Y35357D01*
X247236Y35857D02*
X248647D01*
X247216Y71221D02*
X247811Y70626D01*
Y66571D02*
Y70626D01*
X248295Y65401D02*
X250357Y63340D01*
X251909Y58334D02*
X251967D01*
X252820Y56834D02*
X252948Y56962D01*
X250673Y56834D02*
X252820D01*
X250476Y57031D02*
X250673Y56834D01*
X254558Y65450D02*
X256018Y63989D01*
X254487Y65450D02*
X254558D01*
X252478Y67459D02*
X254487Y65450D01*
X255434Y66033D02*
X256095D01*
X258170Y66953D02*
X259486D01*
X258170Y65949D02*
Y66953D01*
X257713Y65492D02*
X258170Y65949D01*
X256018Y63989D02*
X257629D01*
X251115Y59127D02*
X251909Y58334D01*
X247136Y59127D02*
X251115D01*
X247669Y57031D02*
X250476D01*
X264012Y62331D02*
X264017D01*
X268708Y58316D02*
X269676D01*
X-253799Y60573D02*
X-252456Y61915D01*
X-253799Y60530D02*
Y60573D01*
X-255855Y61411D02*
X-254599D01*
X-256937Y62493D02*
X-255855Y61411D01*
X-258349Y62444D02*
X-256937Y62493D01*
X-254913Y63317D02*
Y63329D01*
X-254190Y64051D01*
X-254599Y61411D02*
X-253799Y60611D01*
X-250954Y60272D02*
Y60362D01*
X-251044Y60272D02*
X-250753Y60563D01*
X-249953D02*
X-249860Y60656D01*
X-271330Y57030D02*
X-247969D01*
X-249958Y60569D02*
X-249953Y60563D01*
X243115Y77917D02*
X243213Y77820D01*
X233009Y80845D02*
X236044D01*
X244006Y67271D02*
Y75904D01*
X244729Y60215D02*
X244883Y60061D01*
X243675Y65899D02*
Y66411D01*
Y65387D02*
Y65899D01*
Y62759D02*
Y65387D01*
Y66411D02*
X243679Y66416D01*
X-43713Y52757D02*
X-43241Y53230D01*
X244864Y46422D02*
X245364Y46922D01*
X244262Y36338D02*
X244301Y34101D01*
X244262Y36338D02*
Y39194D01*
X243935Y44179D02*
X243957Y39961D01*
X-261553Y67430D02*
X-261530Y67453D01*
X232737Y81117D02*
X233009Y80845D01*
X231926Y81117D02*
X232737D01*
X231658Y80849D02*
X231926Y81117D01*
X261286Y67479D02*
X264842D01*
X261111Y67304D02*
X261286Y67479D01*
X261548Y69156D02*
Y83336D01*
X260111Y67718D02*
X261548Y69156D01*
X264916Y67405D02*
X265662D01*
X264842Y67479D02*
X264916Y67405D01*
X260111Y67577D02*
Y67718D01*
X259486Y66953D02*
X260111Y67577D01*
X265662Y81959D02*
X266900Y83197D01*
X269981D01*
X245821Y36686D02*
X245980D01*
X246194Y36899D01*
X246471Y56363D02*
X246764Y56656D01*
X244468Y33697D02*
X246972Y31193D01*
X247375Y31026D02*
Y31223D01*
X244262Y36338D02*
X244262Y36338D01*
X38134Y63975D02*
Y64108D01*
X265662Y67405D02*
Y81959D01*
X-246309Y44149D02*
Y55335D01*
X236827Y87673D02*
X237495D01*
X244566Y84744D02*
X246074Y83237D01*
X250877Y74171D02*
Y76236D01*
X254709Y66834D02*
X254709Y66834D01*
X253356Y68187D02*
X254709Y66834D01*
X254762Y66706D02*
X255434Y66033D01*
X246074Y83237D02*
Y83237D01*
Y83237D02*
X249326Y79985D01*
X235750Y84714D02*
X238615D01*
X245686Y81785D02*
X247778Y79693D01*
X249549Y74530D02*
Y75419D01*
X-254027Y68297D02*
X-252285Y70040D01*
X-257357Y68930D02*
X-256112D01*
X-253229Y72038D02*
Y72378D01*
X-254773Y69485D02*
X-253943Y70315D01*
X-261599Y67430D02*
X-260869Y68159D01*
X-256034Y70630D02*
X-255428Y71236D01*
X-252298Y77099D02*
X-237061Y92336D01*
X-252402Y74508D02*
X-240669Y86242D01*
X-250887Y73416D02*
X-242033Y82271D01*
X-250887Y73416D02*
X-250887Y73416D01*
X-265985Y62880D02*
X-264810Y62455D01*
X-258349Y62444D01*
X-257886Y68400D02*
X-257357Y68930D01*
X-258082Y68400D02*
X-257886D01*
X-258323Y68159D02*
X-258082Y68400D01*
X-260869Y68159D02*
X-258323D01*
X-272715Y67811D02*
X-272258Y67355D01*
X-274011Y67811D02*
X-272715D01*
X-273833Y59533D02*
X-271330Y57030D01*
X-273833Y59533D02*
Y59730D01*
X265732Y61331D02*
X268708Y58355D01*
X275838Y59745D02*
X275988Y59894D01*
X275789Y59745D02*
X275838D01*
X275347Y59303D02*
X275789Y59745D01*
X275076Y59303D02*
X275347D01*
X275988Y59894D02*
Y61425D01*
X276504Y61941D01*
X274189Y58416D02*
X275076Y59303D01*
X273097Y58416D02*
X274189D01*
X272492Y58151D02*
X273097Y58416D01*
X253694Y59616D02*
X253970Y59340D01*
X-261599Y67430D02*
X-261553D01*
X260864Y62329D02*
Y62331D01*
X252948Y56962D02*
X254193Y58207D01*
X253970Y58429D02*
Y59340D01*
Y58429D02*
X254193Y58207D01*
Y58207D02*
Y58207D01*
X-253799Y60573D02*
Y60611D01*
X257713Y65481D02*
Y65492D01*
X-274931Y62780D02*
X-274875Y62835D01*
X-276109Y64430D02*
X-276009D01*
X-273878Y62835D02*
X-273833Y62880D01*
X-276009Y64430D02*
X-275984Y64455D01*
X246194Y36899D02*
X247236Y35857D01*
D14*
X43859Y75795D02*
G03*
X46788Y68724I10000J0D01*
G01*
X237099Y90793D02*
G03*
X232666Y88957I0J-6269D01*
G01*
X42127Y65213D02*
G03*
X43864Y62876I8808J4734D01*
G01*
X40935Y69947D02*
G03*
X42127Y65213I10000J0D01*
G01*
X42000Y59000D02*
G03*
X42127Y59306I-305J305D01*
G01*
X38134Y63975D02*
G03*
X41063Y56904I10000J0D01*
G01*
X-43624Y58627D02*
G03*
X-42239Y59497I-1213J3468D01*
G01*
X-44837Y58421D02*
G03*
X-43624Y58627I0J3674D01*
G01*
X-31551Y66299D02*
G03*
X-36114Y68189I-4562J-4562D01*
G01*
X-43931Y76406D02*
G03*
X-46212Y70899I5506J-5506D01*
G01*
Y70108D02*
G03*
X-44549Y66093I5678J0D01*
G01*
X-47063Y68449D02*
G03*
X-46212Y70504I-2053J2055D01*
G01*
X43859Y75795D02*
Y76551D01*
X46788Y68724D02*
X51931Y63582D01*
X-249958Y60569D02*
Y65143D01*
X229491Y85782D02*
X232666Y88957D01*
X40935Y69947D02*
Y77453D01*
X43864Y62876D02*
X48318Y58421D01*
X42127Y59306D02*
Y65213D01*
X41063Y56904D02*
X44705Y53262D01*
X-42239Y59497D02*
X-37411Y64325D01*
X-47063Y68449D02*
X-47063Y68449D01*
X-51931Y63582D02*
X-47063Y68449D01*
X-46212Y70504D02*
Y70899D01*
Y70108D02*
Y70504D01*
X-44549Y66093D02*
X-43846Y65390D01*
Y65309D02*
Y65390D01*
Y65309D02*
X-42946Y64409D01*
X-42865D01*
X-233309Y77430D02*
Y77704D01*
X-232749Y78264D01*
Y81350D01*
D21*
X-273833Y66031D02*
D03*
X-272258D02*
D03*
X-270684D02*
D03*
X-269109D02*
D03*
X-267534D02*
D03*
X-273833Y64456D02*
D03*
X-272258D02*
D03*
X-270684D02*
D03*
X-269109D02*
D03*
X-267534D02*
D03*
X-273833Y62881D02*
D03*
X-272258D02*
D03*
X-270684D02*
D03*
X-269109D02*
D03*
X-267534D02*
D03*
X-273833Y61306D02*
D03*
X-272258D02*
D03*
X-270684D02*
D03*
X-269109D02*
D03*
X-267534D02*
D03*
X-273833Y59731D02*
D03*
X-272258D02*
D03*
X-270684D02*
D03*
X-269109D02*
D03*
X-267534D02*
D03*
X257714Y65479D02*
D03*
X259289D02*
D03*
X260864D02*
D03*
X262439D02*
D03*
X264013D02*
D03*
X257714Y63904D02*
D03*
X259289D02*
D03*
X260864D02*
D03*
X262439D02*
D03*
X264013D02*
D03*
X257714Y62329D02*
D03*
X259289D02*
D03*
X260864D02*
D03*
X262439D02*
D03*
X264013D02*
D03*
X257714Y60755D02*
D03*
X259289D02*
D03*
X260864D02*
D03*
X262439D02*
D03*
X264013D02*
D03*
X257714Y59180D02*
D03*
X259289D02*
D03*
X260864D02*
D03*
X262439D02*
D03*
X264013D02*
D03*
D22*
X-249682Y38679D02*
D03*
Y35530D02*
D03*
X249682Y35530D02*
D03*
Y38679D02*
D03*
D23*
X-247910Y31199D02*
D03*
Y43010D02*
D03*
X247910Y43010D02*
D03*
Y31199D02*
D03*
D24*
X-238297Y91895D02*
D03*
X-231438Y82279D02*
D03*
D25*
X-235396Y84776D02*
D03*
X-237225Y87340D02*
D03*
D26*
X231293Y82180D02*
D03*
X238152Y91795D02*
D03*
D27*
X237079Y87241D02*
D03*
X235250Y84676D02*
D03*
D28*
X268713Y58151D02*
D03*
X272492D02*
D03*
X268711Y65630D02*
D03*
X272491D02*
D03*
X268713Y61693D02*
D03*
X272492D02*
D03*
X-253332Y60563D02*
D03*
X-249553D02*
D03*
X-253738Y65143D02*
D03*
X-249958D02*
D03*
X-262898Y60563D02*
D03*
X-259118D02*
D03*
Y64398D02*
D03*
X-262898D02*
D03*
D29*
X276504Y65721D02*
D03*
Y61941D02*
D03*
X-37208Y64409D02*
D03*
Y68189D02*
D03*
X-42865D02*
D03*
Y64409D02*
D03*
D30*
X38134Y68708D02*
D03*
Y64108D02*
D03*
D33*
X246172Y65921D02*
D03*
D46*
X-245709Y73030D02*
G03*
X-247899Y69313I6094J-6094D01*
G01*
X-247095Y66606D02*
G03*
X-247437Y67433I-1169J0D01*
G01*
X-247899Y68548D02*
G03*
X-247437Y67433I1577J0D01*
G01*
X253329Y63590D02*
G03*
X252571Y63903I-758J-758D01*
G01*
X251952Y64160D02*
G03*
X252571Y63903I619J619D01*
G01*
X254549Y62193D02*
G03*
X254549Y62206I-427J0D01*
G01*
D02*
G03*
X254424Y62494I-427J-13D01*
G01*
X-263554Y66943D02*
G03*
X-262270Y66179I2149J2149D01*
G01*
X-263554Y66943D02*
G03*
X-264245Y67230I-692J-692D01*
G01*
X-265379Y65763D02*
G03*
X-266026Y66031I-647J-649D01*
G01*
X-265378Y65762D02*
G03*
X-265379Y65763I-648J-648D01*
G01*
X-264803Y65187D02*
G03*
X-262898Y64398I1905J1905D01*
G01*
X257560Y60821D02*
G03*
X257416Y60881I-144J-144D01*
G01*
X-37307Y64392D02*
G03*
X-37411Y64325I99J-269D01*
G01*
X-37208Y64409D02*
G03*
X-37307Y64392I0J-287D01*
G01*
X-248100Y31009D02*
X-247875Y30783D01*
X247375Y42837D02*
X247556Y42656D01*
X-247593Y42594D02*
X-246379Y43807D01*
X-247875Y30783D02*
X-247593D01*
X251355Y62927D02*
X252697D01*
X-247899Y68548D02*
Y69313D01*
X-247095Y59133D02*
Y66606D01*
X249336Y66776D02*
X251952Y64160D01*
X253329Y63590D02*
X254424Y62495D01*
X262437Y59176D02*
Y59181D01*
X254549Y62193D02*
X255670Y61071D01*
X256408Y57264D02*
X261977D01*
X254870Y58802D02*
X256408Y57264D01*
X256670Y59548D02*
X256953Y59264D01*
X256739Y58064D02*
X261325D01*
X255670Y59133D02*
X256739Y58064D01*
X255670Y59133D02*
Y61071D01*
X254870Y58802D02*
Y60740D01*
X253749Y61861D02*
X254870Y60740D01*
X253418Y59892D02*
X253694Y59616D01*
X254762Y63631D02*
X255349Y63044D01*
X256662Y62631D02*
X256689Y62604D01*
X262439Y62331D02*
X264012Y62331D01*
X260864Y62331D02*
X262439Y62331D01*
X-270732Y64438D02*
X-269157Y62863D01*
X-269109Y62880D02*
X-265985D01*
X-266533Y58730D02*
X-248690D01*
X-268132Y57930D02*
X-248358D01*
X-244641Y59696D02*
Y61519D01*
X-247464Y58764D02*
X-247095Y59133D01*
X-248656Y58764D02*
X-247464D01*
X-248690Y58730D02*
X-248656Y58764D01*
X-246373Y57964D02*
X-244641Y59696D01*
X-248324Y57964D02*
X-246373D01*
X259188Y60756D02*
X259405D01*
X-262270Y66179D02*
X-261541D01*
X-261520Y66158D01*
X-261206D01*
X-261198Y66150D01*
X-259350Y65311D02*
X-258522D01*
X-267909Y67230D02*
X-264245D01*
X-260189Y66150D02*
X-259350Y65311D01*
X-261198Y66150D02*
X-260189D01*
X-265378Y65762D02*
X-264803Y65187D01*
X-265379Y65763D02*
X-265378Y65762D01*
X-267534Y66031D02*
X-266026D01*
X256992Y60881D02*
X257416D01*
X255349Y62524D02*
X256992Y60881D01*
X261983Y66579D02*
X264469D01*
X264596Y66452D01*
X261808Y66404D02*
X261983Y66579D01*
X261342Y66404D02*
X261808D01*
X261197Y66259D02*
X261342Y66404D01*
X259287Y65481D02*
X261111Y67304D01*
X-48318Y58421D02*
X-44837D01*
X-269188Y61385D02*
X-269100D01*
X-270675Y62872D02*
Y62891D01*
X-37208Y68189D02*
X-36114D01*
X-270675Y62872D02*
X-269188Y61385D01*
X-256305Y70359D02*
X-256034Y70630D01*
X-264909Y60630D02*
X-262898D01*
X271351Y66090D02*
X272015D01*
X269483Y64842D02*
X270037D01*
X269483Y64842D02*
X269483Y64842D01*
X260862Y65481D02*
X260980D01*
X260862Y65455D02*
X260887Y65481D01*
X264900Y66452D02*
X265021Y66331D01*
X264596Y66452D02*
X264900D01*
X261197Y65698D02*
Y66259D01*
X-269109Y58906D02*
X-268132Y57930D01*
X-248358D02*
X-248324Y57964D01*
X-269109Y58906D02*
Y59731D01*
X-270696Y58542D02*
Y59718D01*
X-259813Y60250D02*
X-258219D01*
X265017Y61331D02*
X265732D01*
X264017Y62331D02*
X265017Y61331D01*
X263539Y58724D02*
Y58826D01*
X262894Y58080D02*
X263539Y58724D01*
X262792Y58080D02*
X262894D01*
X261977Y57264D02*
X262792Y58080D01*
X262319Y60756D02*
X264012D01*
X264013Y60755D02*
X265583Y59185D01*
X264012Y60756D02*
X264013Y60755D01*
X261964Y60299D02*
Y60400D01*
X261319Y59655D02*
X261964Y60299D01*
X261218Y59655D02*
X261319D01*
X261079Y59516D02*
X261218Y59655D01*
X261079Y59516D02*
Y59516D01*
X259015Y60480D02*
Y60584D01*
X259188Y60756D01*
X266875Y66913D02*
X267011Y67049D01*
X266466Y66504D02*
X266603Y66641D01*
X266603D01*
X267504Y67553D02*
X274152D01*
X267011Y67059D02*
X267504Y67553D01*
X267011Y67049D02*
Y67059D01*
X266603Y66641D02*
X266875Y66913D01*
X274152Y67553D02*
X275117Y66587D01*
X264012Y63906D02*
X267306D01*
X270569Y63835D02*
X272488Y61917D01*
X267376Y63835D02*
X270569D01*
X267306Y63906D02*
X267376Y63835D01*
X-258719Y61530D02*
X-258268Y61079D01*
X-259109Y61140D02*
X-258719Y61530D01*
X268623Y61831D02*
X268708Y61917D01*
X267072Y61831D02*
X268623D01*
X266472Y62431D02*
X267072Y61831D01*
X265362Y62431D02*
X266472D01*
X-259109Y61140D02*
X-258219Y60250D01*
X-269157Y62863D02*
X-269109Y62880D01*
X260864Y62331D02*
Y63904D01*
X-267534Y59730D02*
X-266533Y58730D01*
X265583Y58637D02*
X265813Y58407D01*
X265583Y58637D02*
Y59185D01*
X261964Y60400D02*
X262319Y60756D01*
X260862Y59299D02*
X261079Y59516D01*
X260862Y59181D02*
Y59299D01*
X256953Y59264D02*
X257629D01*
X252697Y62927D02*
X253749Y61874D01*
Y61861D02*
Y61874D01*
X255349Y62524D02*
Y63044D01*
X256689Y62604D02*
X257376D01*
X257649Y62331D01*
X257713D01*
X257629Y59264D02*
X257713Y59181D01*
X263539Y58826D02*
X263894Y59181D01*
X264012D01*
X261325Y58064D02*
X262437Y59176D01*
X257629Y63989D02*
X257713Y63906D01*
X266415Y66504D02*
X266466D01*
X266242Y66331D02*
X266415Y66504D01*
X265021Y66331D02*
X266242D01*
X275117Y66506D02*
Y66587D01*
Y66506D02*
X276017Y65606D01*
X276098D01*
X268708Y65617D02*
X269483Y64842D01*
X272015Y66090D02*
X272488Y65617D01*
X260980Y65481D02*
X261197Y65698D01*
X-276133Y61305D02*
X-273833D01*
X-272258Y66030D02*
Y67355D01*
X-277309Y67630D02*
X-275709Y66030D01*
X-275984Y64455D02*
X-273833D01*
X-275709Y66030D02*
X-273833D01*
X-269109D02*
X-267909Y67230D01*
X-276209Y61230D02*
X-276133Y61305D01*
X-270696Y59718D02*
X-270684Y59730D01*
Y59730D01*
X-274875Y62835D02*
X-273878D01*
X259287Y63906D02*
Y63906D01*
X-270684Y59730D02*
X-269109Y61305D01*
X-267534D01*
D47*
X254709Y66834D02*
D03*
D48*
X47870Y31145D02*
D03*
X50288Y24500D02*
D03*
X56933Y26918D02*
D03*
X54515Y33563D02*
D03*
D49*
X44705Y53262D02*
D03*
X48318Y58421D02*
D03*
X51931Y63582D02*
D03*
X55544Y68742D02*
D03*
D50*
X-44705Y53262D02*
D03*
X-48318Y58421D02*
D03*
X-51931Y63582D02*
D03*
X-55544Y68742D02*
D03*
D51*
X-244781Y31878D02*
D03*
X250587Y42423D02*
D03*
X250647Y40036D02*
D03*
X-246142Y39255D02*
D03*
X-245850Y35129D02*
D03*
X-58792Y16658D02*
D03*
X-52503Y26181D02*
D03*
X-49866Y18443D02*
D03*
X247860Y61722D02*
D03*
X249336Y66776D02*
D03*
X251967Y58334D02*
D03*
X253418Y59892D02*
D03*
X256095Y66033D02*
D03*
X-254913Y63317D02*
D03*
X-250954Y60272D02*
D03*
X-244641Y61519D02*
D03*
X247038Y71652D02*
D03*
X-261530Y67583D02*
D03*
X261548Y83336D02*
D03*
X269981Y83197D02*
D03*
X269842Y86008D02*
D03*
X-270342Y85847D02*
D03*
X245821Y36686D02*
D03*
X-259813Y60250D02*
D03*
X-264909Y60630D02*
D03*
X-257400Y66900D02*
D03*
X-274011Y67811D02*
D03*
X-43931Y76406D02*
D03*
X275076Y59303D02*
D03*
X42000Y59000D02*
D03*
X-6626Y79709D02*
D03*
X-256030Y70630D02*
D03*
X-40149Y77142D02*
D03*
X270162Y58031D02*
D03*
X43859Y76551D02*
D03*
X40935Y77453D02*
D03*
X-245709Y73030D02*
D03*
X-233309Y77430D02*
D03*
X229491Y85782D02*
D03*
X265813Y58407D02*
D03*
X-277309Y67630D02*
D03*
X-276109Y64430D02*
D03*
X-276209Y61230D02*
D03*
D52*
X256670Y59548D02*
D03*
X254762Y63631D02*
D03*
X256662Y62631D02*
D03*
X-268834Y64181D02*
D03*
X-266790Y64154D02*
D03*
X271051Y66090D02*
D03*
X270037Y64842D02*
D03*
X-270409Y65756D02*
D03*
X-272533Y64730D02*
D03*
X-272533Y62606D02*
D03*
X-271984Y61032D02*
D03*
X262713Y65379D02*
D03*
X262713Y64179D02*
D03*
X259015Y60480D02*
D03*
Y62055D02*
D03*
X259014Y63629D02*
D03*
X265362Y62431D02*
D03*
X264486Y65452D02*
D03*
X-274931Y62780D02*
D03*
D53*
X-244781Y64097D02*
D03*
X235648Y78071D02*
D03*
X-31551Y66299D02*
D03*
D54*
X-252453Y61886D02*
D03*
X-245544Y70161D02*
D03*
D55*
X-270696Y58542D02*
D03*
M02*
