G04*
G04 #@! TF.GenerationSoftware,Altium Limited,Altium Designer,20.2.3 (150)*
G04*
G04 Layer_Physical_Order=3*
G04 Layer_Color=36540*
%FSLAX25Y25*%
%MOIN*%
G70*
G04*
G04 #@! TF.SameCoordinates,1A6DCC39-EBF3-408F-891E-A4E00116EB29*
G04*
G04*
G04 #@! TF.FilePolarity,Positive*
G04*
G01*
G75*
%ADD11C,0.01000*%
%ADD14C,0.00800*%
%ADD31R,0.01181X0.03937*%
%ADD47C,0.02000*%
%ADD50C,0.04724*%
G04:AMPARAMS|DCode=51|XSize=55.12mil|YSize=78.74mil|CornerRadius=0mil|HoleSize=0mil|Usage=FLASHONLY|Rotation=235.000|XOffset=0mil|YOffset=0mil|HoleType=Round|Shape=Round|*
%AMOVALD51*
21,1,0.02362,0.05512,0.00000,0.00000,325.0*
1,1,0.05512,-0.00968,0.00677*
1,1,0.05512,0.00968,-0.00677*
%
%ADD51OVALD51*%

G04:AMPARAMS|DCode=52|XSize=55.12mil|YSize=78.74mil|CornerRadius=0mil|HoleSize=0mil|Usage=FLASHONLY|Rotation=125.000|XOffset=0mil|YOffset=0mil|HoleType=Round|Shape=Round|*
%AMOVALD52*
21,1,0.02362,0.05512,0.00000,0.00000,215.0*
1,1,0.05512,0.00968,0.00677*
1,1,0.05512,-0.00968,-0.00677*
%
%ADD52OVALD52*%

%ADD53C,0.01600*%
%ADD55C,0.02400*%
%ADD56C,0.02000*%
%ADD57C,0.01200*%
%ADD58C,0.01300*%
%ADD60C,0.00984*%
%ADD61C,0.02500*%
G36*
X-125261Y80472D02*
X-125271Y80567D01*
X-125301Y80652D01*
X-125352Y80727D01*
X-125423Y80792D01*
X-125514Y80848D01*
X-125625Y80892D01*
X-125757Y80927D01*
X-125908Y80952D01*
X-126080Y80967D01*
X-126116Y80968D01*
X-126095Y80948D01*
X-126159Y80883D01*
X-126377Y80636D01*
X-126400Y80601D01*
X-126417Y80572D01*
X-126427Y80547D01*
X-126430Y80528D01*
X-127222Y81320D01*
X-127203Y81323D01*
X-127178Y81333D01*
X-127149Y81350D01*
X-127115Y81373D01*
X-127075Y81403D01*
X-126981Y81484D01*
X-126803Y81655D01*
X-126273Y81125D01*
Y81972D01*
X-126080Y81977D01*
X-125908Y81992D01*
X-125757Y82017D01*
X-125625Y82052D01*
X-125514Y82098D01*
X-125423Y82152D01*
X-125352Y82217D01*
X-125301Y82292D01*
X-125271Y82377D01*
X-125261Y82472D01*
Y80472D01*
D02*
G37*
G36*
X119372Y79512D02*
X119378Y79499D01*
X119384Y79477D01*
X119390Y79447D01*
X119401Y79361D01*
X119422Y79086D01*
X118450Y78559D01*
X118438Y78741D01*
X118386Y79172D01*
X118363Y79277D01*
X118337Y79363D01*
X118309Y79430D01*
X118278Y79478D01*
X118245Y79506D01*
X118209Y79516D01*
X119366D01*
X119372Y79512D01*
D02*
G37*
G36*
X117383Y79506D02*
X117369Y79476D01*
X117357Y79426D01*
X117347Y79356D01*
X117332Y79156D01*
X117319Y78516D01*
X116319D01*
X116318Y78706D01*
X116269Y79476D01*
X116255Y79506D01*
X116240Y79516D01*
X117397D01*
X117383Y79506D01*
D02*
G37*
G36*
X115414D02*
X115401Y79476D01*
X115389Y79426D01*
X115379Y79356D01*
X115363Y79156D01*
X115350Y78516D01*
X114350D01*
X114350Y78706D01*
X114300Y79476D01*
X114287Y79506D01*
X114272Y79516D01*
X115429D01*
X115414Y79506D01*
D02*
G37*
G36*
X113445D02*
X113432Y79476D01*
X113420Y79426D01*
X113410Y79356D01*
X113394Y79156D01*
X113382Y78516D01*
X112382D01*
X112381Y78706D01*
X112332Y79476D01*
X112318Y79506D01*
X112303Y79516D01*
X113460D01*
X113445Y79506D01*
D02*
G37*
G36*
X-112320D02*
X-112333Y79476D01*
X-112345Y79426D01*
X-112355Y79356D01*
X-112371Y79156D01*
X-112383Y78516D01*
X-113383D01*
X-113384Y78706D01*
X-113433Y79476D01*
X-113447Y79506D01*
X-113462Y79516D01*
X-112304D01*
X-112320Y79506D01*
D02*
G37*
G36*
X-116256D02*
X-116270Y79476D01*
X-116282Y79426D01*
X-116292Y79356D01*
X-116307Y79156D01*
X-116320Y78516D01*
X-117320D01*
X-117321Y78706D01*
X-117370Y79476D01*
X-117384Y79506D01*
X-117399Y79516D01*
X-116242D01*
X-116256Y79506D01*
D02*
G37*
G36*
X-122379Y79212D02*
X-122337Y78572D01*
X-122312Y78397D01*
X-122246Y78106D01*
X-122204Y77989D01*
X-122157Y77892D01*
X-122105Y77814D01*
X-123658D01*
X-123606Y77892D01*
X-123559Y77989D01*
X-123517Y78106D01*
X-123481Y78242D01*
X-123451Y78397D01*
X-123406Y78766D01*
X-123392Y78980D01*
X-123381Y79465D01*
X-122381D01*
X-122379Y79212D01*
D02*
G37*
G36*
X-116320Y78343D02*
X-116463Y77419D01*
X-117419Y77949D01*
X-117400Y77959D01*
X-117383Y77977D01*
X-117368Y78004D01*
X-117356Y78041D01*
X-117345Y78086D01*
X-117336Y78140D01*
X-117329Y78203D01*
X-117321Y78357D01*
X-117320Y78447D01*
X-116320Y78343D01*
D02*
G37*
G36*
X-114641Y77724D02*
X-114620Y77395D01*
X-114612Y77354D01*
X-114603Y77322D01*
X-114593Y77298D01*
X-114582Y77282D01*
X-115702D01*
X-115690Y77298D01*
X-115680Y77322D01*
X-115671Y77354D01*
X-115663Y77395D01*
X-115657Y77444D01*
X-115647Y77568D01*
X-115642Y77815D01*
X-114642D01*
X-114641Y77724D01*
D02*
G37*
G36*
X113382Y77798D02*
X113382Y77707D01*
X113403Y77378D01*
X113411Y77338D01*
X113420Y77305D01*
X113430Y77281D01*
X113441Y77265D01*
X112321Y77271D01*
X112332Y77286D01*
X112343Y77311D01*
X112352Y77343D01*
X112360Y77384D01*
X112367Y77434D01*
X112376Y77557D01*
X112382Y77804D01*
X113382Y77798D01*
D02*
G37*
G36*
X-112383Y76769D02*
X-112356Y76257D01*
X-113467Y76395D01*
X-113451Y76412D01*
X-113437Y76437D01*
X-113424Y76470D01*
X-113413Y76511D01*
X-113404Y76561D01*
X-113397Y76619D01*
X-113386Y76758D01*
X-113383Y76931D01*
X-112383Y76769D01*
D02*
G37*
G36*
X113225Y68899D02*
X113215Y68875D01*
X113206Y68843D01*
X113198Y68802D01*
X113192Y68753D01*
X113182Y68629D01*
X113177Y68382D01*
X112177D01*
X112176Y68473D01*
X112155Y68802D01*
X112147Y68843D01*
X112138Y68875D01*
X112128Y68899D01*
X112117Y68915D01*
X113237D01*
X113225Y68899D01*
D02*
G37*
G36*
X-112206Y69175D02*
X-112264Y69100D01*
X-112315Y69019D01*
X-112359Y68932D01*
X-112397Y68840D01*
X-112427Y68742D01*
X-112451Y68638D01*
X-112458Y68594D01*
X-112438Y68325D01*
X-112418Y68235D01*
X-112395Y68165D01*
X-112368Y68115D01*
X-112338Y68085D01*
X-112304Y68075D01*
X-113462D01*
X-113465Y68085D01*
X-113469Y68115D01*
X-113472Y68165D01*
X-113473Y68291D01*
X-113482D01*
X-113485Y68412D01*
X-113496Y68528D01*
X-113513Y68638D01*
X-113536Y68742D01*
X-113567Y68840D01*
X-113604Y68932D01*
X-113648Y69019D01*
X-113699Y69100D01*
X-113757Y69175D01*
X-113822Y69245D01*
X-112142D01*
X-112206Y69175D01*
D02*
G37*
G36*
X115414Y64154D02*
X115401Y64131D01*
X115389Y64092D01*
X115379Y64037D01*
X115370Y63968D01*
X115357Y63781D01*
X115350Y63385D01*
X114497D01*
X115027Y62855D01*
X114963Y62790D01*
X114746Y62543D01*
X114722Y62508D01*
X114706Y62479D01*
X114696Y62455D01*
X114693Y62435D01*
X113901Y63227D01*
X113920Y63230D01*
X113944Y63240D01*
X113974Y63257D01*
X114008Y63280D01*
X114048Y63310D01*
X114141Y63391D01*
X114320Y63562D01*
X114350Y63532D01*
Y63533D01*
X114312Y64092D01*
X114300Y64131D01*
X114287Y64154D01*
X114272Y64162D01*
X115429D01*
X115414Y64154D01*
D02*
G37*
G36*
X-114283Y64155D02*
X-114293Y64134D01*
X-114301Y64099D01*
X-114308Y64050D01*
X-114319Y63910D01*
X-114327Y63462D01*
X-115327D01*
X-115328Y63595D01*
X-115353Y63987D01*
X-115364Y64050D01*
X-115378Y64099D01*
X-115393Y64134D01*
X-115411Y64155D01*
X-115430Y64162D01*
X-114273D01*
X-114283Y64155D01*
D02*
G37*
G36*
X117383Y64153D02*
X117369Y64129D01*
X117357Y64088D01*
X117347Y64032D01*
X117339Y63959D01*
X117326Y63764D01*
X117319Y63350D01*
X116319D01*
X116318Y63504D01*
X116280Y64088D01*
X116269Y64129D01*
X116255Y64153D01*
X116240Y64162D01*
X117397D01*
X117383Y64153D01*
D02*
G37*
G36*
X121319Y64152D02*
X121306Y64122D01*
X121294Y64072D01*
X121284Y64002D01*
X121268Y63802D01*
X121256Y63162D01*
X120256D01*
X120255Y63352D01*
X120206Y64122D01*
X120192Y64152D01*
X120177Y64162D01*
X121335D01*
X121319Y64152D01*
D02*
G37*
G36*
X119351D02*
X119338Y64122D01*
X119326Y64072D01*
X119316Y64002D01*
X119300Y63802D01*
X119287Y63162D01*
X118287D01*
X118287Y63352D01*
X118237Y64122D01*
X118224Y64152D01*
X118209Y64162D01*
X119366D01*
X119351Y64152D01*
D02*
G37*
G36*
X-116256D02*
X-116270Y64122D01*
X-116282Y64072D01*
X-116292Y64002D01*
X-116307Y63802D01*
X-116320Y63162D01*
X-117320D01*
X-117321Y63352D01*
X-117370Y64122D01*
X-117384Y64152D01*
X-117399Y64162D01*
X-116242D01*
X-116256Y64152D01*
D02*
G37*
G36*
X-118225D02*
X-118238Y64122D01*
X-118250Y64072D01*
X-118260Y64002D01*
X-118276Y63802D01*
X-118289Y63162D01*
X-119289D01*
X-119289Y63352D01*
X-119339Y64122D01*
X-119352Y64152D01*
X-119367Y64162D01*
X-118210D01*
X-118225Y64152D01*
D02*
G37*
G36*
X-120194D02*
X-120207Y64122D01*
X-120219Y64072D01*
X-120229Y64002D01*
X-120245Y63802D01*
X-120257Y63162D01*
X-121257D01*
X-121258Y63352D01*
X-121307Y64122D01*
X-121321Y64152D01*
X-121336Y64162D01*
X-120179D01*
X-120194Y64152D01*
D02*
G37*
G36*
X-124431Y63603D02*
X-124476Y63554D01*
X-124516Y63501D01*
X-124554Y63443D01*
X-124588Y63381D01*
X-124618Y63314D01*
X-124645Y63243D01*
X-124668Y63167D01*
X-124688Y63086D01*
X-124717Y62912D01*
X-125829Y64024D01*
X-125739Y64037D01*
X-125574Y64073D01*
X-125498Y64096D01*
X-125426Y64123D01*
X-125359Y64153D01*
X-125297Y64187D01*
X-125240Y64224D01*
X-125187Y64265D01*
X-125138Y64310D01*
X-124431Y63603D01*
D02*
G37*
G36*
X-115297Y61812D02*
X-115050Y61594D01*
X-115015Y61571D01*
X-114986Y61554D01*
X-114962Y61544D01*
X-114942Y61541D01*
X-115734Y60749D01*
X-115738Y60768D01*
X-115747Y60792D01*
X-115764Y60822D01*
X-115787Y60856D01*
X-115818Y60896D01*
X-115898Y60990D01*
X-116069Y61168D01*
X-115362Y61875D01*
X-115297Y61812D01*
D02*
G37*
G36*
X-117587Y61273D02*
X-117340Y61056D01*
X-117306Y61032D01*
X-117276Y61015D01*
X-117252Y61006D01*
X-117233Y61002D01*
X-118025Y60211D01*
X-118028Y60230D01*
X-118038Y60254D01*
X-118054Y60283D01*
X-118078Y60318D01*
X-118108Y60357D01*
X-118188Y60451D01*
X-118359Y60630D01*
X-117652Y61337D01*
X-117587Y61273D01*
D02*
G37*
G36*
X113121Y60833D02*
X113140Y60829D01*
X113168Y60826D01*
X113307Y60819D01*
X113618Y60815D01*
X113807Y59815D01*
X113716Y59814D01*
X113437Y59793D01*
X113388Y59784D01*
X113346Y59772D01*
X113313Y59759D01*
X113288Y59745D01*
X113271Y59728D01*
X113111Y60836D01*
X113121Y60833D01*
D02*
G37*
G36*
X-119567Y60424D02*
X-119319Y60207D01*
X-119285Y60183D01*
X-119256Y60167D01*
X-119231Y60157D01*
X-119212Y60154D01*
X-120004Y59361D01*
X-120007Y59381D01*
X-120017Y59405D01*
X-120034Y59435D01*
X-120057Y59469D01*
X-120087Y59508D01*
X-120168Y59602D01*
X-120338Y59781D01*
X-119631Y60488D01*
X-119567Y60424D01*
D02*
G37*
G36*
X116617Y59470D02*
X116553Y59406D01*
X116336Y59157D01*
X116313Y59122D01*
X116297Y59092D01*
X116287Y59067D01*
X116284Y59047D01*
X115478Y59824D01*
X115496Y59828D01*
X115520Y59838D01*
X115549Y59855D01*
X115582Y59878D01*
X115665Y59946D01*
X115769Y60040D01*
X115893Y60161D01*
X116617Y59470D01*
D02*
G37*
G36*
X120593Y59185D02*
X120529Y59121D01*
X120312Y58873D01*
X120288Y58839D01*
X120272Y58810D01*
X120262Y58785D01*
X120258Y58766D01*
X119466Y59558D01*
X119486Y59561D01*
X119510Y59571D01*
X119539Y59588D01*
X119574Y59611D01*
X119613Y59641D01*
X119707Y59722D01*
X119886Y59893D01*
X120593Y59185D01*
D02*
G37*
D11*
X55544Y68742D02*
X57699Y71818D01*
X51500Y71573D02*
X55544Y68742D01*
X54515Y33563D02*
X55936Y36610D01*
X54515Y33563D02*
X57562Y32142D01*
X53094Y30516D02*
X54515Y33563D01*
X51468Y34984D02*
X54515Y33563D01*
X-55544Y68742D02*
X-51500Y71573D01*
X-57699Y71818D02*
X-55544Y68742D01*
X110913Y78504D02*
Y81472D01*
X109323D02*
X110913D01*
Y66118D02*
Y69087D01*
Y63150D02*
Y66118D01*
X109323D02*
X110913D01*
X-110915Y81472D02*
X-109324D01*
X-110915Y78504D02*
Y81472D01*
X-118789Y78504D02*
Y81472D01*
X-120757Y78504D02*
Y81472D01*
X-110915Y66118D02*
Y69087D01*
Y66118D02*
X-109324D01*
X-110915Y63150D02*
Y66118D01*
X38404Y57102D02*
X39767Y57926D01*
X38404Y57102D02*
X39246Y54945D01*
X113893Y62427D02*
X114850Y63385D01*
X119458Y58758D02*
X120756Y60056D01*
X-245675Y70161D02*
X-245544D01*
X-245808Y70029D02*
X-245675Y70161D01*
X115484Y59024D02*
Y59045D01*
X118787Y62348D01*
Y66118D01*
X120756Y60056D02*
Y66118D01*
X114185Y60315D02*
X115593Y61723D01*
X112740Y60315D02*
X114185D01*
X112626Y60200D02*
X112740Y60315D01*
X115593Y61723D02*
Y62123D01*
X116819Y63350D01*
Y66118D01*
X112878Y76696D02*
X112882Y76700D01*
Y81472D01*
X114850Y77412D02*
Y81472D01*
Y77412D02*
X115500Y76762D01*
Y76600D02*
Y76762D01*
X117535Y77173D02*
Y77335D01*
X116819Y78051D02*
X117535Y77335D01*
X116819Y78051D02*
Y81472D01*
X118787D02*
X118949Y78587D01*
X114850Y63385D02*
Y66118D01*
X112677Y68172D02*
Y69487D01*
Y68172D02*
X112791Y68058D01*
Y66209D02*
Y68058D01*
Y66209D02*
X112882Y66118D01*
X125099Y62613D02*
X125351Y62361D01*
X125099Y62613D02*
Y63350D01*
X124784Y63665D02*
X125099Y63350D01*
X124784Y63665D02*
Y66028D01*
X124693Y66118D02*
X124784Y66028D01*
X122631Y77734D02*
Y79366D01*
Y77734D02*
X123192Y77173D01*
X-114068Y62703D02*
X-113002D01*
X-113002Y62702D01*
X-114827Y63462D02*
X-114068Y62703D01*
X-114827Y63462D02*
Y66094D01*
X-114852Y66118D02*
X-114827Y66094D01*
X-118789Y61767D02*
X-117225Y60202D01*
X-120757Y60907D02*
X-119204Y59354D01*
X-120757Y60907D02*
Y66118D01*
X-118789Y61767D02*
Y66118D01*
X-114934Y60741D02*
X-114934D01*
X-116820Y62626D02*
X-114934Y60741D01*
X-116820Y62626D02*
Y66118D01*
X-112982Y68069D02*
Y70102D01*
Y68069D02*
X-112974Y68061D01*
Y66209D02*
Y68061D01*
Y66209D02*
X-112883Y66118D01*
X-112982Y75759D02*
X-112883Y75858D01*
Y81472D01*
X-115142Y76710D02*
Y79418D01*
X-114942Y79618D01*
Y81382D01*
X-114852Y81472D01*
X-116820Y77740D02*
Y81472D01*
X-117225Y77335D02*
X-116820Y77740D01*
X-117225Y77173D02*
Y77335D01*
X-122881Y77184D02*
Y79465D01*
X-125710Y63031D02*
X-124785Y63956D01*
Y66028D01*
X-124694Y66118D01*
X-122881Y79465D02*
X-122816Y79530D01*
Y81382D01*
X-122726Y81472D01*
X-127230Y80520D02*
X-126278Y81472D01*
X-124694D01*
D14*
X129632Y70454D02*
G03*
X131580Y68984I1966J579D01*
G01*
X131103Y60755D02*
G03*
X130784Y60733I-19J-2050D01*
G01*
X126623Y63634D02*
G03*
X126274Y63907I-1273J-1273D01*
G01*
X121331Y77734D02*
G03*
X121398Y77322I1300J0D01*
G01*
D02*
G03*
X123192Y75373I1794J-149D01*
G01*
X121331Y77734D02*
G03*
X121398Y77322I1300J0D01*
G01*
X121118Y78018D02*
G03*
X120964Y78704I-1600J0D01*
G01*
X118990Y76508D02*
G03*
X121118Y78018I528J1510D01*
G01*
X116843Y75730D02*
G03*
X118990Y76508I692J1443D01*
G01*
X111562Y77606D02*
G03*
X114155Y75733I1316J-909D01*
G01*
X114155Y75733D02*
G03*
X116843Y75730I1345J867D01*
G01*
X114277Y69487D02*
G03*
X111077Y69487I-1600J0D01*
G01*
X114160Y68887D02*
G03*
X114277Y69487I-1483J600D01*
G01*
X126274Y63907D02*
G03*
X126084Y64199I-1175J-557D01*
G01*
X126274Y63907D02*
G03*
X126084Y64199I-1175J-557D01*
G01*
X113884Y59014D02*
G03*
X114033Y58352I1600J10D01*
G01*
X112325Y62750D02*
G03*
X112426Y61788I1567J-322D01*
G01*
D02*
G03*
X113676Y58993I200J-1588D01*
G01*
X-111382Y75759D02*
G03*
X-111550Y76473I-1600J0D01*
G01*
X-111079Y69487D02*
G03*
X-110982Y70102I-1903J615D01*
G01*
X-114497Y75246D02*
G03*
X-111382Y75759I1516J513D01*
G01*
X-110982Y70102D02*
G03*
X-114570Y68887I-2000J0D01*
G01*
X-118526Y78104D02*
G03*
X-116442Y75778I1301J-931D01*
G01*
X-116442D02*
G03*
X-114497Y75246I1300J933D01*
G01*
X-121081Y77184D02*
G03*
X-121334Y78104I-1800J0D01*
G01*
X-122881Y75384D02*
G03*
X-121081Y77184I0J1800D01*
G01*
X-113388Y61150D02*
G03*
X-111402Y62702I385J1553D01*
G01*
X-113334Y60741D02*
G03*
X-113388Y61150I-1600J0D01*
G01*
X-115831Y59416D02*
G03*
X-113334Y60741I897J1325D01*
G01*
X-117748Y58691D02*
G03*
X-115831Y59416I523J1512D01*
G01*
X-117988Y58313D02*
G03*
X-117748Y58691I-1216J1040D01*
G01*
X-126085Y64791D02*
G03*
X-126983Y64304I375J-1760D01*
G01*
X-131218Y69068D02*
G03*
X-129186Y71118I-19J2050D01*
G01*
X-242888Y67979D02*
G03*
X-242354Y68052I-8J2050D01*
G01*
X-242888Y63451D02*
G03*
X-242781Y64097I-1893J646D01*
G01*
D02*
G03*
X-242888Y64743I-2000J0D01*
G01*
X157444Y60514D02*
X165602Y68672D01*
X160247Y60488D02*
X168405Y68646D01*
X157071Y68750D02*
X165380Y60441D01*
X162780Y68697D02*
X171089Y60389D01*
X165635Y68671D02*
X173943Y60363D01*
X159925Y68724D02*
X168234Y60415D01*
X131580Y68984D02*
X242910Y67963D01*
X151839Y60565D02*
X159996Y68723D01*
X149036Y60591D02*
X157194Y68749D01*
X154216Y68776D02*
X162525Y60467D01*
X154642Y60540D02*
X162799Y68697D01*
X151362Y68802D02*
X159670Y60493D01*
X237000Y68017D02*
X242910Y62107D01*
X239854Y67991D02*
X242910Y64935D01*
X171458Y60385D02*
X179616Y68543D01*
X177063Y60334D02*
X185221Y68492D01*
X179866Y60308D02*
X188024Y68466D01*
X174261Y60360D02*
X182418Y68517D01*
X165852Y60437D02*
X174010Y68594D01*
X168655Y60411D02*
X176813Y68569D01*
X163050Y60462D02*
X171207Y68620D01*
X171344Y68619D02*
X179653Y60310D01*
X168489Y68645D02*
X176798Y60336D01*
X137089Y68933D02*
X145397Y60624D01*
X135022Y60720D02*
X143180Y68877D01*
X134234Y68959D02*
X142543Y60651D01*
X142798Y68881D02*
X151106Y60572D01*
X145652Y68854D02*
X153961Y60546D01*
X139943Y68907D02*
X148252Y60598D01*
X126623Y63634D02*
X131969Y68980D01*
X128038Y62220D02*
X134772Y68954D01*
X131368Y68997D02*
X139688Y60677D01*
X132220Y60745D02*
X140377Y68903D01*
X129452Y60806D02*
X137575Y68929D01*
X137825Y60694D02*
X145983Y68852D01*
X140628Y60668D02*
X148786Y68826D01*
X148507Y68828D02*
X156816Y60520D01*
X146233Y60617D02*
X154391Y68774D01*
X143431Y60642D02*
X151588Y68800D01*
X129524Y60733D02*
X130784D01*
X126084Y64199D02*
Y66028D01*
Y68624D02*
X133979Y60729D01*
X126623Y63634D02*
X129524Y60733D01*
X219872Y68174D02*
X228181Y59865D01*
X221907Y59923D02*
X230065Y68080D01*
X219104Y59948D02*
X227262Y68106D01*
X225581Y68121D02*
X233890Y59813D01*
X228436Y68095D02*
X236745Y59787D01*
X222727Y68148D02*
X231035Y59839D01*
X213499Y60000D02*
X221656Y68158D01*
X216302Y59974D02*
X224459Y68132D01*
X210696Y60026D02*
X218854Y68183D01*
X214163Y68226D02*
X222472Y59918D01*
X217018Y68200D02*
X225326Y59891D01*
X211308Y68252D02*
X219617Y59944D01*
X235921Y59794D02*
X242910Y66783D01*
X238723Y59768D02*
X242910Y63955D01*
X233118Y59820D02*
X241276Y67978D01*
X242910Y59730D02*
X242910Y67963D01*
X241526Y59743D02*
X242910Y61126D01*
X234145Y68043D02*
X242454Y59734D01*
X227513Y59871D02*
X235670Y68029D01*
X230315Y59846D02*
X238473Y68003D01*
X224710Y59897D02*
X232867Y68055D01*
X131103Y60755D02*
X242910Y59730D01*
X231291Y68069D02*
X239599Y59760D01*
X188471Y68462D02*
X196780Y60153D01*
X188274Y60231D02*
X196432Y68389D01*
X185617Y68488D02*
X193926Y60179D01*
X194181Y68410D02*
X202489Y60101D01*
X197035Y68383D02*
X205344Y60075D01*
X191326Y68436D02*
X199635Y60127D01*
X177053Y68567D02*
X185362Y60258D01*
X182669Y60283D02*
X190826Y68440D01*
X174198Y68593D02*
X182507Y60284D01*
X182762Y68514D02*
X191071Y60206D01*
X185472Y60257D02*
X193629Y68414D01*
X179908Y68540D02*
X188216Y60232D01*
X205091Y60077D02*
X213248Y68235D01*
X207893Y60051D02*
X216051Y68209D01*
X202288Y60103D02*
X210446Y68260D01*
X205599Y68305D02*
X213908Y59996D01*
X208454Y68279D02*
X216762Y59970D01*
X202745Y68331D02*
X211053Y60022D01*
X193880Y60180D02*
X202037Y68337D01*
X196683Y60154D02*
X204840Y68312D01*
X191077Y60206D02*
X199235Y68363D01*
X199890Y68357D02*
X208199Y60049D01*
X199485Y60128D02*
X207643Y68286D01*
X121331Y77734D02*
Y78704D01*
X121115Y77925D02*
X121331Y78141D01*
X123192Y75373D02*
X124714D01*
X120964Y78704D02*
X121331D01*
X113808Y70618D02*
X119611Y76421D01*
X118666Y76042D02*
X125821Y68887D01*
X124714Y75373D02*
X129632Y70454D01*
X123391Y68887D02*
X127295Y72791D01*
X124115Y68887D02*
X126084D01*
X123302D02*
X124115D01*
X123302D02*
X124115D01*
X122146D02*
X123302D01*
X117734D02*
X124220Y75373D01*
X116516Y75364D02*
X122993Y68887D01*
X118209D02*
X119365D01*
X121334D02*
X122146D01*
X119365D02*
X120178D01*
X108923Y78104D02*
Y82817D01*
Y78104D02*
X111582D01*
X110947D02*
X111516Y77535D01*
X107097Y80878D02*
X108923Y82703D01*
X107097Y81954D02*
X108923Y80128D01*
X107097Y82817D02*
X108923Y82817D01*
X107097Y75221D02*
X109980Y78104D01*
X107097Y72392D02*
X111283Y76578D01*
X107097Y78049D02*
X108923Y79875D01*
X117397Y68887D02*
X118209D01*
X116241D02*
X117397D01*
X118209D01*
X115428D02*
X116241D01*
X107097Y76297D02*
X112343Y71051D01*
X107097Y69564D02*
X112647Y75113D01*
X107097Y73469D02*
X111077Y69489D01*
X109848Y69487D02*
X115367Y75006D01*
X108923Y69487D02*
X111077D01*
X126084Y68751D02*
X128709Y71377D01*
X125821Y68887D02*
X126084Y68624D01*
X120562Y68887D02*
X125881Y74206D01*
X120650Y76887D02*
X136833Y60703D01*
X126084Y65923D02*
X129961Y69800D01*
X126084Y66028D02*
Y68887D01*
X107097Y79125D02*
X117336Y68887D01*
X113717Y75334D02*
X120164Y68887D01*
X114905D02*
X121919Y75900D01*
X120562Y68887D02*
X125881Y74206D01*
X114242Y69153D02*
X114507Y68887D01*
X121334D02*
X122146D01*
X126084Y64199D02*
Y66028D01*
X120178Y68887D02*
X121334D01*
X126084Y65796D02*
X131124Y60755D01*
X115428Y68887D02*
X116241D01*
X119365D02*
X120178D01*
X114272D02*
X115428D01*
X107097Y58420D02*
X114033Y58352D01*
X108923Y62750D02*
Y69487D01*
Y63158D02*
X109331Y62750D01*
X107097Y58420D02*
Y82817D01*
Y66736D02*
X108923Y68561D01*
X107097Y67812D02*
X108923Y65986D01*
X107097Y70640D02*
X108923Y68814D01*
X107097Y64983D02*
X108923Y63158D01*
X107097Y61079D02*
X108923Y62904D01*
X107097Y63907D02*
X108923Y65733D01*
X110066Y58391D02*
X111183Y59508D01*
X113321Y58759D02*
X113726Y58355D01*
X112867Y58363D02*
X113218Y58714D01*
X110066Y58391D02*
X111183Y59508D01*
X107266Y58419D02*
X111597Y62750D01*
X108923D02*
X112325D01*
X109331D02*
X111185Y60896D01*
X107097Y62155D02*
X110869Y58383D01*
X107097Y59326D02*
X108012Y58411D01*
X-108728Y82818D02*
X-107076Y81167D01*
X-108924Y79817D02*
X-107076Y81665D01*
X-108924Y82818D02*
X-107076Y82818D01*
X-108924Y80186D02*
X-107076Y78338D01*
X-109670Y78104D02*
X-107076Y75510D01*
X-108924Y78104D02*
Y82818D01*
X-111583Y78104D02*
X-108924D01*
X-117026Y68887D02*
X-107076Y78836D01*
X-111583Y77158D02*
X-110637Y78104D01*
X-111583Y76870D02*
Y78104D01*
X-111568Y71516D02*
X-107076Y76008D01*
X-111569Y76813D02*
X-111550Y76473D01*
X-110769Y69487D02*
X-107076Y73179D01*
X-111079Y69487D02*
X-108924D01*
X-111583Y77188D02*
X-107076Y72681D01*
X-120984Y78104D02*
X-114396Y71516D01*
X-115162Y75111D02*
X-109538Y69487D01*
X-111851Y74627D02*
X-107076Y69853D01*
X-120779Y78104D02*
X-118767D01*
X-120779D02*
X-118767D01*
X-121334D02*
X-120779D01*
X-121614Y75906D02*
X-114595Y68887D01*
X-124953Y75384D02*
X-122881D01*
X-129187Y71151D02*
X-124953Y75384D01*
X-120179Y68887D02*
X-119367D01*
X-117398D02*
X-116242D01*
X-120179D02*
X-119367D01*
X-116242D02*
X-115430D01*
X-114570D01*
X-116242D02*
X-115430D01*
X-123304D02*
X-122148D01*
X-121335D01*
X-129204Y70851D02*
X-124670Y75384D01*
X-121335Y68887D02*
X-120179D01*
X-122148D02*
X-121335D01*
X-108924Y65675D02*
X-107076Y67523D01*
X-108924Y66044D02*
X-107076Y64196D01*
X-108924Y68872D02*
X-107076Y67024D01*
Y58421D02*
Y82818D01*
X-108924Y62846D02*
X-107076Y64694D01*
X-108924Y62750D02*
Y69487D01*
Y68503D02*
X-107076Y70351D01*
X-109538Y69487D02*
X-108924Y68872D01*
X-119854Y68887D02*
X-114113Y74627D01*
X-108924Y63216D02*
X-107076Y61368D01*
X-111286Y62750D02*
X-107076Y58539D01*
X-111403Y62750D02*
X-108924D01*
X-110555Y58387D02*
X-107076Y61866D01*
X-107698Y58415D02*
X-107076Y59037D01*
X-112537Y61172D02*
X-109760Y58395D01*
X-113411Y58359D02*
X-109020Y62750D01*
X-117988Y58313D02*
X-107076Y58421D01*
X-113803Y59610D02*
X-112561Y58367D01*
X-122682Y68887D02*
X-116123Y75446D01*
X-123921Y75384D02*
X-117423Y68887D01*
X-124116D02*
X-123304D01*
X-118211D02*
X-117398D01*
X-118211D02*
X-117398D01*
X-119367D02*
X-118211D01*
X-125511D02*
X-118356Y76042D01*
X-125851Y74486D02*
X-120252Y68887D01*
X-127265Y73072D02*
X-123080Y68887D01*
X-128680Y71658D02*
X-125909Y68887D01*
X-129659Y69808D02*
X-126085Y66234D01*
Y66028D02*
Y68887D01*
X-124116D02*
X-123304D01*
X-126085Y64791D02*
Y66028D01*
X-116268Y58330D02*
X-115391Y59207D01*
X-116093Y59071D02*
X-115361Y58339D01*
X-126085Y68887D02*
X-124116D01*
X-126085Y64791D02*
Y66028D01*
X-130726Y60843D02*
X-126085Y65484D01*
X-130440Y60846D02*
X-126983Y64304D01*
X-131742Y69063D02*
X-126983Y64304D01*
X-134545Y69037D02*
X-128397Y62889D01*
X-136438Y60788D02*
X-119122Y78104D01*
X-137347Y69011D02*
X-129811Y61475D01*
X-139294Y60760D02*
X-130969Y69085D01*
X-242236Y68050D02*
X-131218Y69068D01*
X-140150Y68986D02*
X-131995Y60831D01*
X-142150Y60733D02*
X-133839Y69044D01*
X-145006Y60705D02*
X-136694Y69017D01*
X-147863Y60677D02*
X-139548Y68991D01*
X-150719Y60650D02*
X-142403Y68965D01*
X-142953Y68960D02*
X-134797Y60804D01*
X-133582Y60816D02*
X-126085Y68313D01*
X-145755Y68934D02*
X-137598Y60777D01*
X-148558Y68909D02*
X-140399Y60750D01*
X-151361Y68883D02*
X-143200Y60722D01*
X-153575Y60622D02*
X-145258Y68939D01*
X-154164Y68857D02*
X-146002Y60695D01*
X-156966Y68832D02*
X-148803Y60668D01*
X-159769Y68806D02*
X-151604Y60641D01*
X-156431Y60594D02*
X-148112Y68913D01*
X-159287Y60566D02*
X-150967Y68887D01*
X-162143Y60539D02*
X-153821Y68860D01*
X-162572Y68780D02*
X-154405Y60614D01*
X-165375Y68755D02*
X-157207Y60587D01*
X-168177Y68729D02*
X-160008Y60559D01*
X-164999Y60511D02*
X-156676Y68834D01*
X-167855Y60483D02*
X-159531Y68808D01*
X-170712Y60456D02*
X-162385Y68782D01*
X-170980Y68703D02*
X-162809Y60532D01*
X-173783Y68677D02*
X-165610Y60505D01*
X-176585Y68652D02*
X-168412Y60478D01*
X-173568Y60428D02*
X-165240Y68756D01*
X-176424Y60400D02*
X-168095Y68730D01*
X-179280Y60373D02*
X-170949Y68703D01*
X-179388Y68626D02*
X-171213Y60451D01*
X-242888Y61818D02*
X-236605Y68101D01*
X-242865Y64670D02*
X-239460Y68075D01*
X-182191Y68600D02*
X-174014Y60424D01*
X-184994Y68575D02*
X-176815Y60396D01*
X-187796Y68549D02*
X-179617Y60369D01*
X-242888Y67475D02*
X-242313Y68050D01*
X-242888Y64743D02*
Y67979D01*
X-182136Y60345D02*
X-173804Y68677D01*
X-184992Y60317D02*
X-176658Y68651D01*
X-190599Y68523D02*
X-182418Y60342D01*
X-187848Y60290D02*
X-179513Y68625D01*
X-190704Y60262D02*
X-182368Y68599D01*
X-193402Y68497D02*
X-185219Y60315D01*
X-193561Y60234D02*
X-185222Y68572D01*
X-196204Y68472D02*
X-188021Y60288D01*
X-196417Y60206D02*
X-188077Y68546D01*
X-199273Y60179D02*
X-190931Y68520D01*
X-202129Y60151D02*
X-193786Y68494D01*
X-204985Y60123D02*
X-196641Y68468D01*
X-199007Y68446D02*
X-190822Y60261D01*
X-201810Y68420D02*
X-193623Y60233D01*
X-204613Y68395D02*
X-196424Y60206D01*
X-207841Y60096D02*
X-199495Y68442D01*
X-207415Y68369D02*
X-199226Y60179D01*
X-210218Y68343D02*
X-202027Y60152D01*
X-210697Y60068D02*
X-202350Y68415D01*
X-213021Y68318D02*
X-204828Y60125D01*
X-215824Y68292D02*
X-207629Y60098D01*
X-213553Y60040D02*
X-205204Y68389D01*
X-242888Y59756D02*
X-130440Y60846D01*
X-216409Y60013D02*
X-208059Y68363D01*
X-218626Y68266D02*
X-210431Y60071D01*
X-221429Y68240D02*
X-213232Y60043D01*
X-224232Y68215D02*
X-216033Y60016D01*
X-219266Y59985D02*
X-210914Y68337D01*
X-222122Y59957D02*
X-213768Y68311D01*
X-224978Y59929D02*
X-216623Y68284D01*
X-227834Y59902D02*
X-219477Y68258D01*
X-227034Y68189D02*
X-218834Y59989D01*
X-229837Y68163D02*
X-221636Y59962D01*
X-230690Y59874D02*
X-222332Y68232D01*
X-233546Y59846D02*
X-225187Y68206D01*
X-236402Y59819D02*
X-228041Y68180D01*
X-232640Y68138D02*
X-224437Y59935D01*
X-235443Y68112D02*
X-227238Y59908D01*
X-238245Y68086D02*
X-230040Y59880D01*
X-239259Y59791D02*
X-230896Y68154D01*
X-239259Y59791D02*
X-230896Y68154D01*
X-241048Y68060D02*
X-232841Y59853D01*
X-242888Y67072D02*
X-235642Y59826D01*
X-242781Y64137D02*
X-238443Y59799D01*
X-242888Y61415D02*
X-241245Y59772D01*
X-242115Y59763D02*
X-233751Y68127D01*
X-242888Y59756D02*
Y63451D01*
D31*
X110913Y66118D02*
D03*
Y81472D02*
D03*
X112882Y66118D02*
D03*
Y81472D02*
D03*
X114850Y66118D02*
D03*
Y81472D02*
D03*
X116819Y66118D02*
D03*
Y81472D02*
D03*
X118787Y66118D02*
D03*
Y81472D02*
D03*
X120756Y66118D02*
D03*
Y81472D02*
D03*
X122724Y66118D02*
D03*
Y81472D02*
D03*
X124693Y66118D02*
D03*
Y81472D02*
D03*
X-110915D02*
D03*
Y66118D02*
D03*
X-112883Y81472D02*
D03*
Y66118D02*
D03*
X-114852Y81472D02*
D03*
Y66118D02*
D03*
X-116820Y81472D02*
D03*
Y66118D02*
D03*
X-118789Y81472D02*
D03*
Y66118D02*
D03*
X-120757Y81472D02*
D03*
Y66118D02*
D03*
X-122726Y81472D02*
D03*
Y66118D02*
D03*
X-124694Y81472D02*
D03*
Y66118D02*
D03*
D47*
X243727Y57588D02*
X247860Y61722D01*
X-251990Y62574D02*
X-248841D01*
X-243968Y57701D01*
X-243396D02*
X-242824D01*
X-243968D02*
X-243396D01*
X235648Y78071D02*
X236667Y77053D01*
X244216D01*
X244837Y70231D02*
Y76432D01*
X244512Y69905D02*
X244837Y70231D01*
X128779Y58934D02*
X131085D01*
X125351Y62361D02*
X128779Y58934D01*
X123192Y77173D02*
X125459D01*
X131599Y71034D01*
X-129940Y58801D02*
X-125710Y63031D01*
X-125699Y77184D02*
X-122881D01*
X-130905Y71978D02*
X-125699Y77184D01*
X-129982Y58801D02*
X-129940D01*
X243210Y57588D02*
X243727D01*
X244216Y77053D02*
X244837Y76432D01*
D50*
X54515Y33563D02*
D03*
D51*
X55544Y68742D02*
D03*
D52*
X-55544D02*
D03*
D53*
X-244781Y31878D02*
D03*
X250587Y42423D02*
D03*
X-58792Y16658D02*
D03*
X247860Y61722D02*
D03*
X-250954Y60272D02*
D03*
X113893Y62427D02*
D03*
X119458Y58758D02*
D03*
X269842Y86008D02*
D03*
X-270342Y85847D02*
D03*
X115484Y59024D02*
D03*
X275076Y59303D02*
D03*
X-6626Y79709D02*
D03*
X112626Y60200D02*
D03*
X112878Y76696D02*
D03*
X115500Y76600D02*
D03*
X117535Y77173D02*
D03*
X119518Y78018D02*
D03*
X112677Y69487D02*
D03*
X-113002Y62702D02*
D03*
X-117225Y60202D02*
D03*
X-119204Y59354D02*
D03*
X-114934Y60741D02*
D03*
X-112982Y75759D02*
D03*
X-115142Y76710D02*
D03*
X-117225Y77173D02*
D03*
X-127230Y80520D02*
D03*
X-233309Y77430D02*
D03*
X229491Y85782D02*
D03*
X265813Y58407D02*
D03*
D55*
X235648Y78071D02*
D03*
X-112982Y70102D02*
D03*
X-31551Y66299D02*
D03*
D56*
X-252453Y61886D02*
D03*
X-245544Y70161D02*
D03*
D57*
X-270696Y58542D02*
D03*
D58*
X39246Y54945D02*
X40377Y48861D01*
D60*
X220812Y99440D02*
G03*
X221220Y99213I721J816D01*
G01*
X220812Y99440D02*
G03*
X221220Y99213I721J816D01*
G01*
X247736Y85560D02*
G03*
X248526Y84535I1089J22D01*
G01*
X271002Y84546D02*
G03*
X271634Y82837I-1022J-1349D01*
G01*
X263240Y83336D02*
G03*
X261201Y84992I-1692J0D01*
G01*
X247736Y85560D02*
G03*
X248526Y84535I1089J22D01*
G01*
X261172Y81686D02*
G03*
X263240Y83336I376J1650D01*
G01*
X260776Y68396D02*
G03*
X261063Y69124I-801J738D01*
G01*
X260776Y68396D02*
G03*
X261063Y69124I-801J738D01*
G01*
X255334Y73575D02*
G03*
X255144Y73036I896J-618D01*
G01*
X259628Y67803D02*
G03*
X260547Y68148I118J1083D01*
G01*
X259627Y67803D02*
G03*
X260547Y68148I119J1082D01*
G01*
X246730Y76432D02*
G03*
X246176Y77770I-1892J0D01*
G01*
X246730Y76432D02*
G03*
X246176Y77770I-1892J0D01*
G01*
X245554Y78391D02*
G03*
X244216Y78945I-1338J-1338D01*
G01*
X222244Y81223D02*
G03*
X221789Y81456I-710J-826D01*
G01*
X222242Y81225D02*
G03*
X221789Y81456I-708J-827D01*
G01*
X221675Y81484D02*
G03*
X221350Y81512I-256J-1058D01*
G01*
X221675Y81484D02*
G03*
X221350Y81512I-256J-1058D01*
G01*
X245554Y78391D02*
G03*
X244216Y78945I-1338J-1338D01*
G01*
X237549D02*
G03*
X234042Y76731I-1901J-873D01*
G01*
X255335Y73577D02*
G03*
X255144Y73036I895J-620D01*
G01*
X248730Y71652D02*
G03*
X246730Y73316I-1692J0D01*
G01*
X255105Y72501D02*
G03*
X255217Y71934I1086J-80D01*
G01*
X255105Y72501D02*
G03*
X255217Y71934I1086J-80D01*
G01*
X246714Y69991D02*
G03*
X248730Y71652I323J1661D01*
G01*
X246176Y68893D02*
G03*
X246714Y69991I-1338J1338D01*
G01*
X246176Y68893D02*
G03*
X246714Y69991I-1338J1338D01*
G01*
X244592Y68015D02*
G03*
X245850Y68567I-80J1890D01*
G01*
X243779Y67862D02*
G03*
X244592Y68015I20J2142D01*
G01*
X63294Y71731D02*
G03*
X62975Y70961I770J-770D01*
G01*
X63293Y71731D02*
G03*
X62975Y70961I771J-769D01*
G01*
X60749Y68367D02*
G03*
X58948Y71544I-4237J-303D01*
G01*
X56467Y77658D02*
G03*
X55662Y77894I-805J-1258D01*
G01*
X47376Y77529D02*
G03*
X48061Y77759I16J1089D01*
G01*
X56925Y76823D02*
G03*
X56467Y77658I-992J0D01*
G01*
X47375Y77529D02*
G03*
X48062Y77760I17J1089D01*
G01*
X36244Y83128D02*
G03*
X36518Y82965I687J845D01*
G01*
X36242Y83129D02*
G03*
X36516Y82966I689J843D01*
G01*
X55398Y75987D02*
G03*
X56925Y76823I535J836D01*
G01*
X57013Y72899D02*
G03*
X50613Y67890I-2437J-3480D01*
G01*
X55662Y77894D02*
G03*
X55662Y75910I0J-992D01*
G01*
X45552Y76551D02*
G03*
X45216Y77562I-1692J0D01*
G01*
X41137Y79133D02*
G03*
X42184Y76312I-203J-1680D01*
G01*
X42184Y76312D02*
G03*
X45552Y76551I1675J239D01*
G01*
X271329Y64828D02*
G03*
X272343Y66090I-277J1262D01*
G01*
D02*
G03*
X269759Y66104I-1292J0D01*
G01*
D02*
G03*
X271329Y64828I277J-1262D01*
G01*
X265778Y65452D02*
G03*
X263561Y66354I-1292J0D01*
G01*
D02*
G03*
X261569Y64779I-848J-975D01*
G01*
X264003Y64253D02*
G03*
X265778Y65452I482J1199D01*
G01*
X261569Y64779D02*
G03*
X264005Y64179I1144J-600D01*
G01*
X260039Y62843D02*
G03*
X260306Y63629I-1025J787D01*
G01*
X260307Y62055D02*
G03*
X260039Y62843I-1292J0D01*
G01*
X266654Y62431D02*
G03*
X266654Y62431I-1292J0D01*
G01*
X260039Y61268D02*
G03*
X260307Y62055I-1024J788D01*
G01*
Y60480D02*
G03*
X260039Y61268I-1292J0D01*
G01*
X257945Y59755D02*
G03*
X260307Y60480I1070J725D01*
G01*
X255827Y64363D02*
G03*
X257787Y66033I268J1671D01*
G01*
D02*
G03*
X254819Y64922I-1692J0D01*
G01*
X260306Y63629D02*
G03*
X257762Y63308I-1292J0D01*
G01*
X257762D02*
G03*
X256047Y63767I-1100J-677D01*
G01*
D02*
G03*
X255827Y64363I-1285J-136D01*
G01*
X254819Y64922D02*
G03*
X255377Y62495I-57J-1291D01*
G01*
X251028Y66776D02*
G03*
X247651Y66933I-1692J0D01*
G01*
X247651Y66933D02*
G03*
X247959Y65792I-1479J-1012D01*
G01*
X247959D02*
G03*
X251028Y66776I1376J984D01*
G01*
X257732Y61906D02*
G03*
X257991Y61268I1283J149D01*
G01*
X255377Y62495D02*
G03*
X257732Y61906I1285J136D01*
G01*
X255110Y59892D02*
G03*
X251730Y60010I-1692J0D01*
G01*
X257991Y61268D02*
G03*
X257740Y60273I1024J-788D01*
G01*
D02*
G03*
X257962Y59548I-1070J-725D01*
G01*
X253655Y58216D02*
G03*
X255110Y59892I-237J1675D01*
G01*
X249753Y61722D02*
G03*
X246522Y63060I-1892J0D01*
G01*
X249198Y60384D02*
G03*
X249753Y61722I-1338J1338D01*
G01*
X251730Y60010D02*
G03*
X250749Y57159I237J-1675D01*
G01*
X271537Y57044D02*
G03*
X271854Y58031I-1374J987D01*
G01*
D02*
G03*
X268770Y57070I-1692J0D01*
G01*
X253194Y57169D02*
G03*
X253655Y58216I-1227J1165D01*
G01*
X252272Y40507D02*
G03*
X251607Y38643I-1625J-470D01*
G01*
X248042Y57148D02*
G03*
X247006Y56385I3J-1089D01*
G01*
X248041Y57148D02*
G03*
X247006Y56384I5J-1089D01*
G01*
X246933Y45659D02*
G03*
X247695Y44622I1089J2D01*
G01*
X246933Y45659D02*
G03*
X247695Y44622I1089J2D01*
G01*
X247833Y44579D02*
G03*
X248150Y44529I327J1039D01*
G01*
X247833Y44579D02*
G03*
X248150Y44529I327J1039D01*
G01*
X246964Y56249D02*
G03*
X246913Y55919I1038J-328D01*
G01*
X246963Y56248D02*
G03*
X246913Y55919I1039J-326D01*
G01*
X244715Y55975D02*
G03*
X245065Y56250I-989J1613D01*
G01*
X244715Y55975D02*
G03*
X245065Y56250I-989J1613D01*
G01*
X247514Y36686D02*
G03*
X244632Y37890I-1692J0D01*
G01*
X244717Y35404D02*
G03*
X247514Y36686I1104J1283D01*
G01*
X50613Y67890D02*
G03*
X47649Y62735I350J-3631D01*
G01*
X47649Y62735D02*
G03*
X44036Y57575I-299J-3636D01*
G01*
X43580Y49596D02*
G03*
X48215Y49968I2092J2988D01*
G01*
X43692Y59000D02*
G03*
X43692Y59000I-1692J0D01*
G01*
X44036Y57575D02*
G03*
X41645Y50951I-299J-3636D01*
G01*
X58369Y33563D02*
G03*
X56144Y37056I-3854J0D01*
G01*
D02*
G03*
X50784Y32593I-1629J-3493D01*
G01*
X36672Y60014D02*
G03*
X36427Y60247I-863J-664D01*
G01*
X37861Y58097D02*
G03*
X37636Y58761I-1089J0D01*
G01*
X36672Y60014D02*
G03*
X36425Y60248I-863J-664D01*
G01*
X37861Y58097D02*
G03*
X37636Y58761I-1089J0D01*
G01*
X36229Y41293D02*
G03*
X36466Y41548I-669J860D01*
G01*
X36229Y41293D02*
G03*
X36465Y41547I-669J860D01*
G01*
X56169Y30082D02*
G03*
X58369Y33563I-1654J3481D01*
G01*
X60188Y26918D02*
G03*
X58309Y29868I-3254J0D01*
G01*
D02*
G03*
X56169Y30082I-1375J-2949D01*
G01*
X51124Y31145D02*
G03*
X51033Y31909I-3254J0D01*
G01*
X50784Y32593D02*
G03*
X49245Y34094I-2915J-1448D01*
G01*
X51033Y31909D02*
G03*
X52886Y30070I3481J1654D01*
G01*
D02*
G03*
X55485Y29833I1629J3493D01*
G01*
X55558Y23969D02*
G03*
X60188Y26918I1375J2949D01*
G01*
X55485Y29833D02*
G03*
X55558Y23969I1448J-2915D01*
G01*
X53543Y24500D02*
G03*
X51664Y27449I-3254J0D01*
G01*
X48913Y21551D02*
G03*
X53543Y24500I1375J2949D01*
G01*
X49245Y34094D02*
G03*
X46495Y28195I-1375J-2949D01*
G01*
D02*
G03*
X51124Y31145I1375J2949D01*
G01*
X39445Y29663D02*
G03*
X40605Y29273I867J659D01*
G01*
X39447Y29661D02*
G03*
X40605Y29273I865J661D01*
G01*
X51664Y27449D02*
G03*
X48913Y21551I-1375J-2949D01*
G01*
X-36331Y83007D02*
G03*
X-36058Y83171I-419J1005D01*
G01*
X-36329Y83008D02*
G03*
X-36058Y83171I-421J1004D01*
G01*
X-42818Y77680D02*
G03*
X-42307Y77936I-215J1068D01*
G01*
X-42818Y77680D02*
G03*
X-42307Y77936I-215J1068D01*
G01*
X-47775Y77703D02*
G03*
X-47064Y77479I663J864D01*
G01*
X-47774Y77702D02*
G03*
X-47064Y77479I661J865D01*
G01*
X-38457Y77142D02*
G03*
X-38457Y77142I-1692J0D01*
G01*
X-42239Y76406D02*
G03*
X-42818Y77680I-1692J0D01*
G01*
X-45166Y77563D02*
G03*
X-42239Y76406I1235J-1157D01*
G01*
X-50329Y69419D02*
G03*
X-57013Y72899I-4248J0D01*
G01*
X-58948Y71544D02*
G03*
X-60641Y69061I2437J-3480D01*
G01*
X-221860Y81378D02*
G03*
X-222175Y81189I393J-1016D01*
G01*
X-221862Y81377D02*
G03*
X-222176Y81188I396J-1015D01*
G01*
X-247557Y85465D02*
G03*
X-247507Y85790I-1039J326D01*
G01*
X-247557Y85465D02*
G03*
X-247507Y85790I-1039J326D01*
G01*
X-248613Y84565D02*
G03*
X-247601Y85327I-27J1089D01*
G01*
X-248616Y84565D02*
G03*
X-247601Y85327I-23J1089D01*
G01*
X-244274Y73926D02*
G03*
X-246927Y71855I-1435J-896D01*
G01*
X-254992Y72882D02*
G03*
X-255113Y73381I-1089J0D01*
G01*
X-254338Y70630D02*
G03*
X-255112Y72051I-1692J0D01*
G01*
X-254992Y72882D02*
G03*
X-255115Y73384I-1089J0D01*
G01*
X-256697Y69074D02*
G03*
X-254338Y70630I666J1555D01*
G01*
X-36422Y60151D02*
G03*
X-36634Y59932I669J-860D01*
G01*
X-36422Y60151D02*
G03*
X-36636Y59930I669J-860D01*
G01*
X-39193Y55344D02*
G03*
X-39245Y55015I1037J-332D01*
G01*
X-39193Y55341D02*
G03*
X-39245Y55012I1038J-330D01*
G01*
X-47316Y64259D02*
G03*
X-50613Y67890I-3648J0D01*
G01*
D02*
G03*
X-50329Y69419I-3963J1529D01*
G01*
X-47649Y62735D02*
G03*
X-47316Y64259I-3314J1524D01*
G01*
X-43703Y59099D02*
G03*
X-47649Y62735I-3648J0D01*
G01*
X-242873Y64954D02*
G03*
X-246510Y62919I-1908J-857D01*
G01*
X-41645Y50951D02*
G03*
X-40089Y53939I-2092J2988D01*
G01*
X-44036Y57575D02*
G03*
X-43703Y59099I-3314J1524D01*
G01*
X-40089Y53939D02*
G03*
X-44036Y57575I-3648J0D01*
G01*
X-47591Y49481D02*
G03*
X-43580Y49596I1918J3103D01*
G01*
X-42828Y45479D02*
G03*
X-43423Y45910I-899J-615D01*
G01*
X-42827Y45476D02*
G03*
X-43423Y45910I-900J-612D01*
G01*
X-43857Y42192D02*
G03*
X-43071Y42528I0J1089D01*
G01*
X-43857Y42192D02*
G03*
X-43071Y42528I0J1089D01*
G01*
X-50811Y26181D02*
G03*
X-50811Y26181I-1692J0D01*
G01*
X-48174Y18443D02*
G03*
X-48174Y18443I-1692J0D01*
G01*
X-246927Y71855D02*
G03*
X-245808Y67887I1119J-1826D01*
G01*
X-255708Y66900D02*
G03*
X-257268Y68587I-1692J0D01*
G01*
X-258767Y67897D02*
G03*
X-255708Y66900I1367J-997D01*
G01*
X-259796Y67819D02*
G03*
X-259428Y67807I219J1067D01*
G01*
X-259796Y67819D02*
G03*
X-259431Y67807I219J1067D01*
G01*
X-260827Y69122D02*
G03*
X-259838Y67583I-703J-1539D01*
G01*
X-269158Y65432D02*
G03*
X-269117Y65756I-1251J324D01*
G01*
X-267802Y64958D02*
G03*
X-269158Y65432I-1032J-777D01*
G01*
X-247503Y63912D02*
G03*
X-248841Y64466I-1338J-1338D01*
G01*
X-247503Y63912D02*
G03*
X-248841Y64466I-1338J-1338D01*
G01*
X-253329Y63911D02*
G03*
X-254338Y61725I-1584J-595D01*
G01*
X-251990Y64466D02*
G03*
X-253329Y63911I0J-1892D01*
G01*
X-254338Y61725D02*
G03*
X-250993Y60682I1885J161D01*
G01*
X-265498Y64154D02*
G03*
X-267802Y64958I-1292J0D01*
G01*
X-267823Y63377D02*
G03*
X-265498Y64154I1032J777D01*
G01*
X-258121Y60250D02*
G03*
X-258121Y60250I-1692J0D01*
G01*
X-263217Y60630D02*
G03*
X-263217Y60630I-1692J0D01*
G01*
X-275640Y67352D02*
G03*
X-272319Y67811I1629J459D01*
G01*
X-269117Y65756D02*
G03*
X-271701Y65718I-1292J0D01*
G01*
X-271241Y64768D02*
G03*
X-270085Y64505I832J988D01*
G01*
X-271797Y63668D02*
G03*
X-271241Y64730I-736J1062D01*
G01*
X-271701Y65718D02*
G03*
X-273269Y63668I-832J-988D01*
G01*
X-272319Y67811D02*
G03*
X-275680Y68089I-1692J0D01*
G01*
X-275680D02*
G03*
X-278265Y69026I-1629J-459D01*
G01*
X-278241Y66218D02*
G03*
X-275640Y67352I933J1412D01*
G01*
X-274475Y63989D02*
G03*
X-274417Y64430I-1634J441D01*
G01*
X-273698Y63166D02*
G03*
X-274475Y63989I-1233J-387D01*
G01*
X-270085Y64505D02*
G03*
X-267823Y63377I1251J-324D01*
G01*
X-271241Y62606D02*
G03*
X-271797Y63668I-1292J0D01*
G01*
X-270692Y61032D02*
G03*
X-271326Y62144I-1292J0D01*
G01*
Y62144D02*
G03*
X-271241Y62606I-1207J462D01*
G01*
X-273191Y61494D02*
G03*
X-270692Y61032I1207J-462D01*
G01*
X-273269Y63668D02*
G03*
X-273698Y63166I736J-1062D01*
G01*
X-274417Y64430D02*
G03*
X-276707Y62847I-1692J0D01*
G01*
D02*
G03*
X-274517Y61230I498J-1617D01*
G01*
X-273766Y62219D02*
G03*
X-273191Y61494I1233J387D01*
G01*
X-274547Y61546D02*
G03*
X-273766Y62219I-384J1234D01*
G01*
X-274517Y61230D02*
G03*
X-274547Y61546I-1692J0D01*
G01*
X-245305Y56363D02*
G03*
X-244637Y55931I1338J1338D01*
G01*
X-245305Y56363D02*
G03*
X-244637Y55931I1338J1338D01*
G01*
X-246909Y56149D02*
G03*
X-247707Y57179I-1089J-19D01*
G01*
X-246909Y56152D02*
G03*
X-247708Y57179I-1089J-22D01*
G01*
X-247848Y57218D02*
G03*
X-248149Y57258I-291J-1049D01*
G01*
X-247847Y57218D02*
G03*
X-248149Y57258I-293J-1049D01*
G01*
X-244450Y39255D02*
G03*
X-244450Y39255I-1692J0D01*
G01*
X-247749Y44786D02*
G03*
X-246704Y45874I-45J1088D01*
G01*
X-247749Y44786D02*
G03*
X-246704Y45874I-45J1088D01*
G01*
X-244586Y36255D02*
G03*
X-244625Y33962I-1264J-1125D01*
G01*
X269011Y88028D02*
X271042Y85997D01*
X261511Y85028D02*
X264517Y88034D01*
X266223Y88032D02*
X269451Y84804D01*
X261227Y88039D02*
X272079Y88023D01*
X261223Y87524D02*
X261737Y88038D01*
X261201Y84992D02*
X261227Y88039D01*
X271566Y87348D02*
X271877Y87793D01*
X271226Y86651D02*
X271448Y87142D01*
X271018Y85902D02*
X271147Y86423D01*
X270951Y85124D02*
X270982Y85665D01*
X269700Y84865D02*
X271111Y86276D01*
X237214Y94422D02*
X240590Y92576D01*
X229608Y96689D02*
X237214Y94422D01*
X240691Y92527D02*
X244362Y90975D01*
X221220Y99213D02*
X229606Y96689D01*
X247646Y89925D02*
X247736Y85560D01*
X246496Y90252D02*
X247646Y89925D01*
X244441Y90945D02*
X246445Y90267D01*
X243377Y91391D02*
X247705Y87063D01*
X263435Y88036D02*
X268289Y83183D01*
X263149Y83883D02*
X267297Y88030D01*
X261148Y79098D02*
X270077Y88026D01*
X237981Y94003D02*
X255601Y76383D01*
X233744Y95456D02*
X255454Y73746D01*
X229778Y96638D02*
X255866Y70550D01*
X261222Y87465D02*
X278394Y70293D01*
X241508Y78945D02*
X247794Y85231D01*
X224852Y78992D02*
X239198Y93338D01*
X223352Y80275D02*
X237398Y94322D01*
X225797Y97836D02*
X244771Y78862D01*
X221756Y81464D02*
X235289Y94996D01*
X221815Y99034D02*
X241904Y78945D01*
X238724D02*
X247688Y87908D01*
X236808Y79813D02*
X247081Y90085D01*
X230971Y76759D02*
X244976Y90764D01*
X226352Y77708D02*
X241028Y92385D01*
X228211Y76783D02*
X242985Y91557D01*
X202689Y104846D02*
X220812Y99440D01*
X200527Y105488D02*
X202688Y104846D01*
X195691Y94373D02*
X205365Y104047D01*
X193535Y95001D02*
X203221Y104687D01*
X191380Y95630D02*
X201075Y105325D01*
X186462Y109332D02*
X204199Y91595D01*
X202061Y92392D02*
X211798Y102129D01*
X199993Y93107D02*
X209654Y102768D01*
X204093Y91639D02*
X213943Y101489D01*
X197847Y93745D02*
X207510Y103408D01*
X199801Y93174D02*
X203302Y91963D01*
X188452Y108884D02*
X195834Y106878D01*
X184760Y97362D02*
X194609Y107211D01*
X182869Y110141D02*
X199854Y93156D01*
X182531Y97916D02*
X192420Y107805D01*
X176003Y111439D02*
X191990Y95452D01*
X179397Y110829D02*
X195919Y94307D01*
X198264Y106155D02*
X200525Y105488D01*
X195834Y106878D02*
X198259Y106157D01*
X189385Y96211D02*
X199748Y93191D01*
X186990Y96807D02*
X196779Y106597D01*
X189219Y96253D02*
X198926Y105960D01*
X217695Y100370D02*
X239120Y78945D01*
X213728Y101553D02*
X235172Y80109D01*
X209761Y102736D02*
X233690Y78807D01*
X201828Y105101D02*
X230163Y76766D01*
X197874Y106271D02*
X226946Y77200D01*
X205794Y103920D02*
X232973Y76740D01*
X218472Y83747D02*
X230999Y96274D01*
X216818Y84878D02*
X228856Y96915D01*
X220039Y82530D02*
X233144Y95635D01*
X213433Y87060D02*
X224576Y98203D01*
X215140Y85983D02*
X226716Y97559D01*
X207975Y89953D02*
X218231Y100210D01*
X206064Y90827D02*
X216087Y100849D01*
X209859Y89054D02*
X220375Y99570D01*
X190157Y108420D02*
X209215Y89362D01*
X193980Y107381D02*
X215840Y85522D01*
X211646Y88057D02*
X222436Y98847D01*
X209867Y89049D02*
X213867Y86817D01*
X213936Y86776D02*
X218085Y84043D01*
X203362Y91940D02*
X206602Y90605D01*
X206658Y90580D02*
X209803Y89082D01*
X277914Y81909D02*
X278493Y81330D01*
X277954Y81947D02*
X278341Y82328D01*
X278472Y79405D02*
X278505Y82525D01*
X277321Y81495D02*
X277771Y81798D01*
X276616Y81165D02*
X277114Y81381D01*
X271588Y82667D02*
X278441Y75814D01*
X278464Y78721D02*
X278472Y79406D01*
X276030Y81009D02*
X278463Y78576D01*
X278429Y74300D02*
X278464Y78717D01*
X275863Y80971D02*
X276392Y81092D01*
X275086Y80917D02*
X275628Y80939D01*
X271726Y82709D02*
X272064Y82289D01*
X270959Y84887D02*
X271002Y84546D01*
X272230Y82118D02*
X272642Y81765D01*
X261125Y76291D02*
X268312Y83478D01*
X255576Y73876D02*
X255676Y83911D01*
X274314Y81007D02*
X274851Y80929D01*
X272837Y81627D02*
X273302Y81358D01*
X261154Y79640D02*
X261172Y81686D01*
X261146Y78878D02*
X261154Y79636D01*
X261111Y74467D02*
X261146Y78878D01*
X278421Y73319D02*
X278429Y74297D01*
X269967Y81505D02*
X278419Y73053D01*
X263140Y82763D02*
X278371Y67533D01*
X261103Y73484D02*
X269276Y81658D01*
X261103Y73483D02*
X261111Y74460D01*
X261077Y70675D02*
X272386Y81984D01*
X278382Y68852D02*
X278421Y73317D01*
X261063Y69124D02*
X261103Y73478D01*
X271587Y67265D02*
X278427Y74106D01*
X256565Y69330D02*
X257069Y68819D01*
X256035Y70138D02*
X256413Y69524D01*
X257258Y68665D02*
X257869Y68275D01*
X255700Y71038D02*
X255932Y70357D01*
X260547Y68148D02*
X260776Y68396D01*
X258093Y68166D02*
X258774Y67926D01*
X259018Y67870D02*
X259627Y67803D01*
X253129Y84423D02*
X255656Y81896D01*
X248955Y84454D02*
X255191Y84407D01*
X250324Y84444D02*
X255629Y79139D01*
X246038Y77907D02*
X252558Y84427D01*
X244291Y78943D02*
X249795Y84448D01*
X246730Y75815D02*
X255310Y84395D01*
X247043Y73344D02*
X255657Y81958D01*
X245554Y78391D02*
X246176Y77770D01*
X222244Y81223D02*
X227424Y76790D01*
X218157Y83992D02*
X221350Y81512D01*
X237549Y78945D02*
X244216D01*
X227424Y76790D02*
X229767Y76770D01*
X229771Y76770D02*
X234042Y76731D01*
X248649Y72167D02*
X255629Y79146D01*
X250250Y68200D02*
X255151Y73100D01*
X246647Y76986D02*
X255917Y67716D01*
X246847Y67581D02*
X255601Y76334D01*
X255105Y72501D02*
X255144Y73036D01*
X247880Y70184D02*
X249621Y68444D01*
X246730Y74119D02*
X247602Y73247D01*
X246730Y73316D02*
Y76432D01*
X246277Y69003D02*
X247798Y67483D01*
X245850Y68567D02*
X246176Y68893D01*
X244512Y67985D02*
X245123Y67374D01*
X242660Y67873D02*
X243779Y67862D01*
X158513Y113446D02*
X166456Y112783D01*
X149059Y103419D02*
X159043Y113402D01*
X151640Y103216D02*
X161612Y113188D01*
X139222Y113419D02*
X158513Y113446D01*
X146464Y103607D02*
X156300Y113443D01*
X146175Y113429D02*
X157006Y102597D01*
X174381Y111731D02*
X181451Y110460D01*
X166456Y112783D02*
X174381Y111731D01*
X181451Y110460D02*
X188452Y108884D01*
X154136Y102928D02*
X164181Y112973D01*
X156633Y102640D02*
X166738Y112746D01*
X143823Y103750D02*
X153512Y113439D01*
X141079Y103790D02*
X150724Y113435D01*
X143395Y113425D02*
X153859Y102960D01*
X138314Y103809D02*
X147936Y113431D01*
X135402Y103681D02*
X145148Y113427D01*
X140615Y113421D02*
X150739Y103297D01*
X137942Y113310D02*
X147737Y103515D01*
X138722Y103825D02*
X144630Y103738D01*
X144695Y103736D02*
X151254Y103259D01*
X132811Y112873D02*
X141906Y103778D01*
X135376Y113092D02*
X144735Y103733D01*
X169495Y112380D02*
X184431Y97444D01*
X168690Y100779D02*
X178841Y110929D01*
X172705Y111953D02*
X188136Y96522D01*
X163257Y113050D02*
X177197Y99110D01*
X166315Y101188D02*
X176481Y111353D01*
X166294Y112797D02*
X180726Y98365D01*
X177990Y98943D02*
X188027Y108980D01*
X175689Y99426D02*
X185754Y109491D01*
X180291Y98460D02*
X190231Y108400D01*
X171065Y100370D02*
X181200Y110505D01*
X173389Y99910D02*
X183482Y110003D01*
X157294Y113445D02*
X170224Y100515D01*
X154514Y113441D02*
X166862Y101093D01*
X160219Y113304D02*
X173673Y99850D01*
X148954Y113433D02*
X160241Y102146D01*
X151734Y113437D02*
X163499Y101672D01*
X161525Y101965D02*
X171653Y112093D01*
X159085Y102309D02*
X169195Y112419D01*
X163940Y101596D02*
X174110Y111767D01*
X151302Y103255D02*
X157140Y102582D01*
X157173Y102578D02*
X162985Y101760D01*
X132490Y103553D02*
X142360Y113423D01*
X131844Y112791D02*
X139222Y113419D01*
X129408Y103254D02*
X139573Y113419D01*
X126298Y102929D02*
X136562Y113192D01*
X124478Y111821D02*
X131844Y112791D01*
X123013Y102427D02*
X133519Y112934D01*
X130311Y112589D02*
X139080Y103820D01*
X127851Y112265D02*
X136392Y103725D01*
X132120Y103537D02*
X138655Y103824D01*
X125391Y111942D02*
X133725Y103607D01*
X125554Y102851D02*
X132053Y103532D01*
X122996Y111552D02*
X131115Y103433D01*
X120641Y111124D02*
X128595Y103169D01*
X119669Y101868D02*
X130403Y112601D01*
X116687Y110406D02*
X124478Y111821D01*
X109708Y108791D02*
X116687Y110406D01*
X118285Y110696D02*
X126075Y102905D01*
X115960Y110237D02*
X123661Y102536D01*
X102800Y106860D02*
X109708Y108791D01*
X113699Y109714D02*
X121276Y102137D01*
X95235Y104356D02*
X102800Y106860D01*
X88511Y101768D02*
X95235Y104356D01*
X116103Y101086D02*
X127197Y112179D01*
X111438Y109191D02*
X118898Y101732D01*
X112469Y100235D02*
X123961Y111728D01*
X108512Y99062D02*
X120559Y111109D01*
X104378Y97712D02*
X117157Y110491D01*
X99942Y96060D02*
X113566Y109683D01*
X119043Y101763D02*
X125488Y102842D01*
X109197Y108648D02*
X116636Y101209D01*
X107021Y108040D02*
X114375Y100686D01*
X104846Y107432D02*
X112140Y100138D01*
X102675Y106818D02*
X109993Y99501D01*
X100584Y106126D02*
X107845Y98864D01*
X98492Y105434D02*
X105727Y98199D01*
X95076Y93978D02*
X109944Y108845D01*
X89542Y91228D02*
X106095Y107781D01*
X82995Y87465D02*
X102188Y106657D01*
X96400Y104742D02*
X103681Y97461D01*
X94345Y104014D02*
X101636Y96722D01*
X92334Y103240D02*
X99642Y95932D01*
X73780Y81034D02*
X98027Y105280D01*
X60176Y70213D02*
X93746Y103783D01*
X163021Y101754D02*
X171762Y100250D01*
X112661Y100290D02*
X118974Y101749D01*
X106327Y98414D02*
X112593Y100272D01*
X90324Y102466D02*
X97693Y95097D01*
X88321Y101685D02*
X95743Y94263D01*
X86385Y100838D02*
X93836Y93386D01*
X171801Y100243D02*
X180596Y98396D01*
X100719Y96390D02*
X106266Y98394D01*
X180637Y98387D02*
X189342Y96223D01*
X94681Y93809D02*
X100659Y96367D01*
X88777Y90843D02*
X94619Y93780D01*
X84449Y99990D02*
X91984Y92455D01*
X81917Y98882D02*
X88511Y101768D01*
X82512Y99142D02*
X90131Y91524D01*
X80624Y98247D02*
X88301Y90570D01*
X75625Y95793D02*
X81917Y98882D01*
X78757Y97330D02*
X86535Y89552D01*
X83596Y87857D02*
X88722Y90813D01*
X76890Y96413D02*
X84769Y88534D01*
X75044Y95475D02*
X83031Y87488D01*
X69450Y92422D02*
X75625Y95793D01*
X63419Y88780D02*
X69450Y92422D01*
X73243Y94492D02*
X81350Y86385D01*
X71442Y93509D02*
X79669Y85282D01*
X69642Y92526D02*
X78000Y84167D01*
X67899Y91485D02*
X76403Y82981D01*
X66163Y90437D02*
X74805Y81795D01*
X58816Y71637D02*
X89220Y102041D01*
X78253Y84353D02*
X83540Y87822D01*
X73138Y80556D02*
X78198Y84314D01*
X69155Y77257D02*
X73089Y80518D01*
X64427Y89389D02*
X73208Y80608D01*
X62716Y88316D02*
X71681Y79351D01*
X61040Y87208D02*
X70159Y78089D01*
X65336Y73774D02*
X69113Y77221D01*
X63294Y71731D02*
X65298Y73738D01*
X58159Y85304D02*
X63419Y88780D01*
X59364Y86100D02*
X68659Y76806D01*
X61217Y68904D02*
X62975Y70825D01*
X60749Y68367D02*
X61200Y68884D01*
X56478Y77651D02*
X73411Y94584D01*
X53032Y81627D02*
X58159Y85304D01*
X51280Y80264D02*
X54671Y76874D01*
X38967Y81030D02*
X41137Y79133D01*
X33390Y84235D02*
X39419Y78206D01*
X48062Y77760D02*
X53032Y81627D01*
X45216Y77562D02*
X47374Y77529D01*
X34289Y84726D02*
X34819Y84288D01*
X33221Y84143D02*
X34289Y84726D01*
X34828Y84280D02*
X36242Y83129D01*
X32539Y83879D02*
X32919Y84008D01*
X32003Y83763D02*
X32397Y83841D01*
X36518Y82965D02*
X37041Y82749D01*
X38957Y81039D01*
X31463Y83717D02*
X31864Y83744D01*
X57704Y84977D02*
X67203Y75477D01*
X56082Y83814D02*
X65747Y74149D01*
X57178Y72783D02*
X84336Y99941D01*
X55228Y73617D02*
X79120Y97508D01*
X54461Y82652D02*
X64337Y72776D01*
X52846Y81483D02*
X63029Y71300D01*
X55682Y75862D02*
X61898Y69647D01*
X57013Y72899D02*
X58948Y71544D01*
X49715Y79046D02*
X55130Y73631D01*
X48149Y77828D02*
X52732Y73245D01*
X45637Y77556D02*
X51199Y71995D01*
X45056Y75354D02*
X50374Y70036D01*
X41688Y75938D02*
X49882Y67743D01*
X265249Y66495D02*
X278476Y79722D01*
X262639Y66669D02*
X277761Y81791D01*
X265256Y63719D02*
X278450Y76912D01*
X261126Y76425D02*
X270367Y67185D01*
X261104Y73664D02*
X269069Y65699D01*
X261474Y81646D02*
X278348Y64772D01*
X266650Y62329D02*
X268797Y64476D01*
X260789Y68411D02*
X262541Y66660D01*
X258337Y68080D02*
X261511Y64906D01*
X257778Y65855D02*
X258740Y64892D01*
X260172Y64202D02*
X261423Y65453D01*
X264953Y64248D02*
X265483Y63717D01*
X263357Y63059D02*
X264073Y62344D01*
X278310Y60198D02*
X278382Y68849D01*
X269460Y59570D02*
X278379Y68489D01*
X271599Y58925D02*
X278355Y65682D01*
X261149Y79186D02*
X278325Y62011D01*
X261080Y70905D02*
X274623Y57362D01*
X264217Y57112D02*
X278403Y71298D01*
X277224Y58670D02*
X278310Y60198D01*
X272147Y65405D02*
X277913Y59639D01*
X272492Y57035D02*
X278332Y62875D01*
X266649Y62552D02*
X269580Y59620D01*
X270893Y63875D02*
X276511Y58257D01*
X260086Y61332D02*
X261916Y63162D01*
X260277Y63356D02*
X266542Y57090D01*
X258700Y57162D02*
X264074Y62537D01*
X265275Y61142D02*
X268472Y57944D01*
X261459Y57137D02*
X265464Y61143D01*
X260306Y60543D02*
X263733Y57116D01*
X257450Y67048D02*
X258444Y68042D01*
X257050Y63864D02*
X274212Y81025D01*
X250844Y66010D02*
X255744Y70909D01*
X249715Y62097D02*
X256755Y69137D01*
X256466Y64382D02*
X256961Y63888D01*
X248633Y72216D02*
X254444Y66404D01*
X251004Y67061D02*
X253699Y64366D01*
X242660Y67053D02*
X244545Y65168D01*
X242660Y66178D02*
X244445Y67962D01*
X248377Y63542D02*
X250102Y65267D01*
X245418Y64295D02*
X246589Y63124D01*
X242660Y63394D02*
X244512Y65245D01*
X242660Y64269D02*
X245196Y61734D01*
X256803Y60833D02*
X257752Y61782D01*
X254432Y61246D02*
X255429Y62243D01*
X250042Y65238D02*
X253725Y61556D01*
X256724Y61340D02*
X257731Y60334D01*
X255082Y60199D02*
X255417Y59864D01*
X247625Y64872D02*
X251886Y60611D01*
X245371Y54969D02*
X253560Y63158D01*
X242660Y60610D02*
X246179Y64129D01*
X243281Y59819D02*
X246522Y63060D01*
X249262Y60451D02*
X250513Y59200D01*
X242660Y61485D02*
X243804Y60342D01*
X245065Y56250D02*
X249198Y60384D01*
X276481Y58240D02*
X277992Y59751D01*
X275389Y57607D02*
X277224Y58670D01*
X266975Y57086D02*
X268623Y58733D01*
X258869Y59196D02*
X260923Y57142D01*
X274051Y57178D02*
X275389Y57607D01*
X271751Y57449D02*
X272162Y57038D01*
X272595Y57034D02*
X274051Y57178D01*
X258137Y57168D02*
X268770Y57070D01*
X271537Y57044D02*
X272595Y57034D01*
X257897Y59144D02*
X258217Y59464D01*
X255934Y57180D02*
X257074Y58320D01*
X256986Y58295D02*
X258113Y57168D01*
X253392Y57422D02*
X255385Y59415D01*
X254137Y58360D02*
X255319Y57178D01*
X247872Y59058D02*
X249774Y57155D01*
X253194Y57169D02*
X256658Y57183D01*
X256675Y57183D02*
X258136Y57168D01*
X250343Y57157D02*
X250568Y57382D01*
X248042Y57148D02*
X250749Y57159D01*
X252848Y42096D02*
X254037Y44477D01*
X251427Y41538D02*
X253708Y43819D01*
X252272Y40507D02*
X252795Y41970D01*
X248150Y44529D02*
X254037Y44477D01*
X251292Y44502D02*
X253131Y42663D01*
X248484Y44526D02*
X251531Y41479D01*
X252089Y40921D02*
X252333Y40677D01*
X251233Y37596D02*
X251607Y38643D01*
X250180Y32937D02*
X251195Y37465D01*
X247421Y37237D02*
X250462Y34196D01*
X246913Y55919D02*
X246933Y45659D01*
X249806Y29334D02*
X250159Y32805D01*
X247334Y37445D02*
X249145Y39256D01*
X247595Y29354D02*
X250058Y31817D01*
X246480Y57666D02*
X247296Y56849D01*
X245088Y56274D02*
X246916Y54446D01*
X245711Y54175D02*
X245904Y53297D01*
X245931Y52745D02*
X246917Y53731D01*
X245931Y52646D02*
X246921Y51656D01*
X245930Y53068D02*
X245934Y52170D01*
X245725Y51064D02*
X245910Y51939D01*
X245435Y50359D02*
X246927Y48867D01*
X243064Y47094D02*
X246923Y50953D01*
X244715Y55975D02*
X245138Y55413D01*
X245258Y55214D02*
X245636Y54399D01*
X242660Y59825D02*
X243281Y59819D01*
X245283Y50021D02*
X245651Y50837D01*
X244629Y49100D02*
X245162Y49817D01*
X243802Y48337D02*
X244475Y48932D01*
X242878Y47795D02*
X243609Y48201D01*
X242878Y47795D02*
X243141Y46803D01*
X245440Y38335D02*
X251604Y44499D01*
X244710Y32036D02*
X251071Y38398D01*
X243039Y47186D02*
X249244Y40982D01*
X244382Y40060D02*
X248845Y44523D01*
X243829Y43613D02*
X250972Y36470D01*
X244836Y29379D02*
X250696Y35239D01*
X246659Y35216D02*
X250058Y31816D01*
X244736Y34354D02*
X249756Y29334D01*
X244499Y29381D02*
X249806Y29334D01*
X244063Y42525D02*
X246959Y45422D01*
X244264Y48746D02*
X246932Y46078D01*
X244143Y42128D02*
X244632Y37890D01*
X243570Y44816D02*
X246928Y48174D01*
X243153Y46753D02*
X244126Y42233D01*
X244727Y34838D02*
X245063Y35173D01*
X244717Y35404D02*
X244764Y32787D01*
X244677Y31629D02*
X246947Y29360D01*
X244354Y40305D02*
X246372Y38286D01*
X244499Y29381D02*
X244761Y32682D01*
X48827Y67216D02*
X50379Y68768D01*
X242660Y59825D02*
Y67873D01*
X42280Y60669D02*
X48007Y66396D01*
X47136Y62741D02*
X47502Y63107D01*
X47162Y47565D02*
X48215Y49968D01*
X46354Y49000D02*
X47353Y48001D01*
X51284Y39730D02*
X55267Y39558D01*
X45127Y41957D02*
X47135Y47496D01*
X39400Y52221D02*
X40205Y53026D01*
X38970Y54575D02*
X41725Y57330D01*
X39231Y53339D02*
X40815Y51756D01*
X39213Y49500D02*
X39406Y52311D01*
X41554Y51016D02*
X46587Y45984D01*
X41645Y50951D02*
X43580Y49596D01*
X44480Y39835D02*
X45109Y41903D01*
X39148Y49186D02*
X41241Y51279D01*
X39283Y50504D02*
X45846Y43941D01*
X55267Y39558D02*
X58874Y37880D01*
X57051Y36465D02*
X58595Y38010D01*
X56257Y39098D02*
X61964Y33390D01*
X55164Y37362D02*
X56695Y38894D01*
X52911Y39660D02*
X55218Y37353D01*
X49153Y34135D02*
X54605Y39587D01*
X58874Y37880D02*
X60941Y35765D01*
X58166Y34797D02*
X60048Y36679D01*
X50342Y39445D02*
X52781Y37006D01*
X47881Y38701D02*
X51284Y39730D01*
X46126Y33892D02*
X51936Y39702D01*
X41758Y35300D02*
X44480Y39835D01*
X44198Y34748D02*
X48268Y38818D01*
X48204Y38798D02*
X51305Y35697D01*
X45097Y36338D02*
X47123Y34312D01*
X46603Y37616D02*
X50660Y33559D01*
X45059Y36305D02*
X47881Y38701D01*
X43844Y34107D02*
X45059Y36305D01*
X36346Y60303D02*
X66964Y90921D01*
X34696Y61436D02*
X59351Y86092D01*
X37615Y58788D02*
X54995Y76168D01*
X31128Y83714D02*
X48201Y66641D01*
X28344Y83714D02*
X47344Y64714D01*
X33045Y62569D02*
X48844Y78368D01*
X38398Y56787D02*
X40331Y58720D01*
X38249Y57105D02*
X40273Y55081D01*
X38443Y45697D02*
X42852Y50105D01*
X29674Y64766D02*
X40687Y75779D01*
X31395Y63703D02*
X42870Y75178D01*
X36672Y60014D02*
X37636Y58761D01*
X30331Y64433D02*
X36311Y60327D01*
X29447Y64877D02*
X30191Y64514D01*
X38614Y56260D02*
X39385Y52610D01*
X38624Y47369D02*
X39173Y49272D01*
X38430Y45575D02*
X38624Y47369D01*
X37859Y57938D02*
X38534Y56498D01*
X38850Y48153D02*
X45107Y41896D01*
X38451Y45768D02*
X44444Y39775D01*
X37813Y43622D02*
X43400Y38035D01*
X30960Y32646D02*
X48162Y49848D01*
X30276Y34745D02*
X44621Y49091D01*
X31645Y30546D02*
X46305Y45206D01*
X36721Y41930D02*
X42356Y36295D01*
X35298Y40569D02*
X40979Y34888D01*
X33707Y39377D02*
X39288Y33796D01*
X32329Y28447D02*
X44814Y40931D01*
X30706Y36810D02*
X49843Y17673D01*
X37824Y43654D02*
X38381Y45350D01*
X36466Y41549D02*
X37694Y43386D01*
X34438Y39900D02*
X36229Y41293D01*
X32543Y38546D02*
X34400Y39872D01*
X31371Y37705D02*
X32545Y38548D01*
X32083Y38216D02*
X38629Y31671D01*
X30733Y36874D02*
X31371Y37705D01*
X30339Y35923D02*
X30733Y36874D01*
X60941Y35765D02*
X62931Y31147D01*
X58631Y29694D02*
X62073Y33136D01*
X58304Y34266D02*
X62914Y29657D01*
X57930Y31777D02*
X61235Y35082D01*
X62897Y28188D02*
X62931Y31147D01*
X59923Y28202D02*
X62912Y31191D01*
X57957Y31830D02*
X62558Y27228D01*
X51053Y30468D02*
X51612Y31027D01*
X54510Y29709D02*
X54823Y29396D01*
X51038Y30398D02*
X53766Y27669D01*
X49982Y28669D02*
X50969Y27682D01*
X51037Y27667D02*
X53281Y29912D01*
X59683Y25178D02*
X62900Y28395D01*
X60186Y26817D02*
X61832Y25171D01*
X61570Y24432D02*
X62897Y28188D01*
X59411Y24808D02*
X60786Y23433D01*
X53471Y25180D02*
X57746Y20905D01*
X59760Y22128D02*
X61570Y24432D01*
X57683Y23752D02*
X59478Y21957D01*
X58885Y21597D02*
X61019Y23730D01*
X56324Y20041D02*
X59760Y22128D01*
X53527Y19022D02*
X58673Y24169D01*
X53541Y24604D02*
X54157Y25220D01*
X52765Y26612D02*
X53750Y27597D01*
X53065Y22802D02*
X55959Y19908D01*
X51573Y21510D02*
X53919Y19165D01*
X51780Y18386D02*
X56324Y20041D01*
X48552Y21748D02*
X51878Y18421D01*
X49132Y17411D02*
X55649Y23928D01*
X44093Y34558D02*
X45394Y33257D01*
X43683Y32890D02*
X43844Y34107D01*
X43505Y32362D02*
X44617Y31250D01*
X43126Y31445D02*
X43609Y32613D01*
X42217Y30197D02*
X42984Y31199D01*
X41728Y29762D02*
X42035Y30010D01*
X47975Y27892D02*
X48591Y27276D01*
X41191Y29460D02*
X41543Y29641D01*
X40605Y29273D02*
X40986Y29380D01*
X39179Y33653D02*
X39568Y34164D01*
X38793Y32817D02*
X39038Y33409D01*
X38634Y31908D02*
X38720Y32544D01*
X30211Y34943D02*
X30339Y35923D01*
X33013Y26347D02*
X38644Y31978D01*
X39126Y30081D02*
X39445Y29663D01*
X38635Y31617D02*
X38706Y31090D01*
X38779Y30818D02*
X38983Y30327D01*
X40934Y29365D02*
X47536Y22763D01*
X42507Y30576D02*
X47299Y25785D01*
X37954Y17368D02*
X48547Y27961D01*
X30416Y34316D02*
X47808Y16924D01*
X36961Y19160D02*
X46171Y28369D01*
X31762Y30186D02*
X45773Y16175D01*
X44728Y15791D02*
X50184Y21247D01*
X40768Y14334D02*
X51775Y18383D01*
X38946Y15577D02*
X47121Y23752D01*
X40520Y14366D02*
X48177Y22024D01*
X34976Y22742D02*
X45122Y32889D01*
X33984Y24534D02*
X39301Y29851D01*
X35969Y20951D02*
X44879Y29862D01*
X30211Y34943D02*
X33063Y26196D01*
X39292Y14953D01*
X39724Y14621D02*
X40256Y14401D01*
X39292Y14953D02*
X39724Y14621D01*
X40256Y14401D02*
X40768Y14334D01*
X33180Y25984D02*
X43738Y15426D01*
X36639Y19741D02*
X41703Y14678D01*
X-94198Y104020D02*
X-87939Y101580D01*
X-100990Y106335D02*
X-94198Y104020D01*
X-100311Y96246D02*
X-93003Y103554D01*
X-102340Y97001D02*
X-95036Y104305D01*
X-104369Y97756D02*
X-97112Y105013D01*
X-111234Y109153D02*
X-96892Y94811D01*
X-81792Y98878D02*
X-75503Y95789D01*
X-87939Y101580D02*
X-81792Y98878D01*
X-94463Y93743D02*
X-87026Y101179D01*
X-98330Y95443D02*
X-91000Y102773D01*
X-96397Y94593D02*
X-88997Y101993D01*
X-108636Y108541D02*
X-100990Y106335D01*
X-112906Y100354D02*
X-105597Y107664D01*
X-114876Y110011D02*
X-101586Y96721D01*
X-116321Y110351D02*
X-108636Y108541D01*
X-117391Y101438D02*
X-109973Y108856D01*
X-115148Y100896D02*
X-107757Y108287D01*
X-106446Y98463D02*
X-99188Y105721D01*
X-108582Y99111D02*
X-101276Y106417D01*
X-105447Y98158D02*
X-99336Y95883D01*
X-110718Y99758D02*
X-103436Y107041D01*
X-111784Y100081D02*
X-105513Y98180D01*
X-75692Y95881D02*
X-53272Y73462D01*
X-83601Y87901D02*
X-75644Y95858D01*
X-81164Y98570D02*
X-56011Y73417D01*
X-86189Y100811D02*
X-57756Y72378D01*
X-90894Y102732D02*
X-59369Y71207D01*
X-95363Y104417D02*
X-60493Y69547D01*
X-69328Y92418D02*
X-63295Y88775D01*
X-75503Y95789D02*
X-69328Y92418D01*
X-78540Y84610D02*
X-70237Y92914D01*
X-81889Y86830D02*
X-73838Y94880D01*
X-80215Y85720D02*
X-72038Y93897D01*
X-90742Y91896D02*
X-83159Y99479D01*
X-92589Y92833D02*
X-85092Y100329D01*
X-99586Y105856D02*
X-77945Y84215D01*
X-107515Y108217D02*
X-91659Y92361D01*
X-103602Y107088D02*
X-85553Y89039D01*
X-87118Y89952D02*
X-79378Y97692D01*
X-88894Y90959D02*
X-81244Y98609D01*
X-85360Y88927D02*
X-77511Y96775D01*
X-99276Y95859D02*
X-93886Y93489D01*
X-93830Y93462D02*
X-88555Y90787D01*
X-131214Y112732D02*
X-123340Y111653D01*
X-139101Y113415D02*
X-131214Y112732D01*
X-140086Y103797D02*
X-131158Y112725D01*
X-143341Y113421D02*
X-133520Y103600D01*
X-142892Y103775D02*
X-133718Y112949D01*
X-140553Y113417D02*
X-130541Y103404D01*
X-123340Y111653D02*
X-116321Y110351D01*
X-134642Y103673D02*
X-126262Y112053D01*
X-132030Y103502D02*
X-123814Y111718D01*
X-137328Y103771D02*
X-128710Y112389D01*
X-135906Y103756D02*
X-130018Y103370D01*
X-148917Y113429D02*
X-139277Y103789D01*
X-151705Y113433D02*
X-142078Y103806D01*
X-146129Y113425D02*
X-136467Y103763D01*
X-158401Y113442D02*
X-139101Y113415D01*
X-154492Y113437D02*
X-144759Y103703D01*
X-157280Y113441D02*
X-147404Y103564D01*
X-141867Y103813D02*
X-135970Y103758D01*
X-145787Y103664D02*
X-136280Y113171D01*
X-146528Y103635D02*
X-141922Y103813D01*
X-148784Y103451D02*
X-138842Y113393D01*
X-159955Y113332D02*
X-149976Y103352D01*
X-121800Y111367D02*
X-109962Y99529D01*
X-125113Y111896D02*
X-113783Y100566D01*
X-118383Y110734D02*
X-105966Y98317D01*
X-126960Y103003D02*
X-119097Y110866D01*
X-131546Y112761D02*
X-120861Y102077D01*
X-128339Y112338D02*
X-117454Y101453D01*
X-119738Y101874D02*
X-112226Y109386D01*
X-122097Y102299D02*
X-114479Y109917D01*
X-117581Y101484D02*
X-111845Y100098D01*
X-124476Y102704D02*
X-116749Y110431D01*
X-124045Y102650D02*
X-117643Y101497D01*
X-137641Y113289D02*
X-127410Y103058D01*
X-151847Y103171D02*
X-141600Y113418D01*
X-155024Y102778D02*
X-144380Y113423D01*
X-158201Y102385D02*
X-147160Y113426D01*
X-161402Y101968D02*
X-149940Y113430D01*
X-129445Y103303D02*
X-121446Y111302D01*
X-134593Y113025D02*
X-124245Y102676D01*
X-129955Y103364D02*
X-124111Y102660D01*
X-151166Y103254D02*
X-146575Y103632D01*
X-160883Y102053D02*
X-151211Y103250D01*
X3874Y69589D02*
X17999Y83714D01*
X-1694Y69589D02*
X12432Y83714D01*
X6658Y69589D02*
X20783Y83714D01*
X-31706Y83740D02*
X-31320Y83716D01*
X-32237Y83831D02*
X-31843Y83757D01*
X-4478Y69589D02*
X9648Y83714D01*
X-8884Y69589D02*
X8982D01*
X-7847Y83714D02*
X6278Y69589D01*
X-7261D02*
X6864Y83714D01*
X-31254D02*
X31388D01*
X-10631D02*
X3494Y69589D01*
X-34168Y84731D02*
X-33091Y84137D01*
X-34694Y84294D02*
X-34168Y84731D01*
X-32771Y83997D02*
X-32380Y83868D01*
X-39809Y78799D02*
X-33981Y84628D01*
X-36058Y83171D02*
X-34699Y84289D01*
X-38470Y77355D02*
X-32032Y83793D01*
X-36894Y82771D02*
X-36331Y83007D01*
X-38838Y81039D02*
X-36894Y82771D01*
X-41640Y78533D02*
X-41394Y78287D01*
X14656Y69235D02*
X29135Y83714D01*
X12036Y69399D02*
X26351Y83714D01*
X17084Y68879D02*
X31960Y83755D01*
X9417Y69564D02*
X23567Y83714D01*
X1090Y69589D02*
X15215Y83714D01*
X-2279D02*
X12036Y69400D01*
X505Y83714D02*
X15026Y69193D01*
X9054Y69587D02*
X14760Y69229D01*
X14859Y69218D02*
X17158Y68868D01*
X-5063Y83714D02*
X9065Y69586D01*
X-10121Y69513D02*
X4080Y83714D01*
X-13415D02*
X711Y69589D01*
X-16198Y83714D02*
X-2073Y69589D01*
X-13093Y69324D02*
X1296Y83714D01*
X-18982D02*
X-4857Y69589D01*
X-16233Y68969D02*
X-1488Y83714D01*
X-21766D02*
X-7641Y69589D01*
X-24550Y83714D02*
X-10335Y69499D01*
X-14670Y69225D02*
X-8955Y69587D01*
X-27334Y83714D02*
X-12953Y69333D01*
X-30118Y83714D02*
X-15496Y69092D01*
X-42307Y77936D02*
X-38839Y81039D01*
X-50447Y79746D02*
X-47775Y77703D01*
X-58521Y85633D02*
X-54419Y82734D01*
X-59025Y85977D02*
X-58521Y85633D01*
X-54419Y82734D02*
X-50447Y79746D01*
X-47064Y77479D02*
X-45166Y77563D01*
X-46192Y77518D02*
X-45555Y76881D01*
X-63295Y88775D02*
X-59025Y85977D01*
X-73723Y81076D02*
X-64996Y89802D01*
X-72168Y79847D02*
X-63262Y88753D01*
X-76911Y83456D02*
X-68468Y91899D01*
X-88497Y90756D02*
X-82831Y87453D01*
X-75317Y82266D02*
X-66732Y90851D01*
X-69122Y77325D02*
X-59898Y86549D01*
X-70645Y78586D02*
X-61580Y87651D01*
X-72984Y80524D02*
X-69047Y77264D01*
X-82776Y87418D02*
X-77827Y84137D01*
X-77776Y84101D02*
X-73028Y80558D01*
X-53446Y73514D02*
X-48615Y78345D01*
X-56578Y73166D02*
X-50192Y79552D01*
X-61987Y70541D02*
X-51779Y80748D01*
X-42239Y76369D02*
X-41807Y76802D01*
X-51665Y72512D02*
X-46680Y77496D01*
X-50568Y70824D02*
X-45533Y75860D01*
X-64767Y73328D02*
X-54971Y83124D01*
X-66203Y74676D02*
X-56602Y84277D01*
X-63377Y71935D02*
X-53368Y81944D01*
X-67661Y76003D02*
X-58233Y85430D01*
X-69007Y77229D02*
X-65227Y73787D01*
X-58948Y71544D02*
X-57013Y72899D01*
X-65188Y73750D02*
X-61573Y70127D01*
X-61523Y70074D02*
X-60641Y69061D01*
X-162554Y113147D02*
X-152498Y103091D01*
X-162552Y113147D02*
X-158401Y113442D01*
X-164737Y101417D02*
X-152720Y113434D01*
X-168072Y100866D02*
X-155500Y113438D01*
X-166716Y112741D02*
X-162552Y113147D01*
X-171451Y100271D02*
X-158280Y113442D01*
X-165091Y112899D02*
X-154975Y102784D01*
X-167599Y112624D02*
X-157453Y102478D01*
X-170056Y112297D02*
X-159930Y102171D01*
X-172514Y111971D02*
X-162354Y101811D01*
X-170549Y100456D02*
X-160928Y102047D01*
X-174931Y111604D02*
X-164743Y101416D01*
X-173937Y111782D02*
X-166716Y112741D01*
X-177294Y111183D02*
X-167132Y101021D01*
X-181173Y110491D02*
X-173937Y111782D01*
X-188338Y108884D02*
X-181173Y110491D01*
X-179656Y110762D02*
X-169521Y100626D01*
X-195724Y106874D02*
X-188338Y108884D01*
X-197979Y106208D02*
X-195724Y106874D01*
X-181987Y110309D02*
X-171864Y100186D01*
X-200245Y105535D02*
X-197981Y106208D01*
X-202567Y104847D02*
X-200250Y105534D01*
X-174960Y99545D02*
X-161267Y113239D01*
X-178470Y98820D02*
X-164315Y112975D01*
X-182088Y97985D02*
X-167427Y112646D01*
X-185787Y97070D02*
X-170637Y112220D01*
X-189499Y96142D02*
X-173847Y111794D01*
X-193426Y94999D02*
X-177231Y111194D01*
X-184261Y109798D02*
X-174171Y99708D01*
X-186534Y109288D02*
X-176478Y99232D01*
X-179943Y98515D02*
X-170592Y100448D01*
X-188791Y108761D02*
X-178785Y98755D01*
X-193426Y94999D02*
X-177231Y111194D01*
X-190979Y108165D02*
X-181055Y98241D01*
X-193167Y107570D02*
X-183287Y97689D01*
X-195355Y106974D02*
X-185519Y97137D01*
X-197352Y93857D02*
X-180619Y110590D01*
X-201418Y92575D02*
X-184175Y109818D01*
X-189246Y96215D02*
X-179985Y98506D01*
X-197512Y106346D02*
X-187750Y96585D01*
X-199653Y93187D02*
X-189290Y96203D01*
X-199659Y105709D02*
X-189958Y96009D01*
X-201806Y105072D02*
X-192114Y95381D01*
X-203953Y104436D02*
X-194271Y94754D01*
X-206101Y103800D02*
X-196427Y94126D01*
X-206015Y90762D02*
X-187764Y109012D01*
X-208249Y103164D02*
X-198583Y93498D01*
X-220923Y99411D02*
X-202571Y104846D01*
X-211445Y88116D02*
X-191551Y108009D01*
X-203203Y91955D02*
X-199709Y93169D01*
X-210397Y102528D02*
X-200695Y92826D01*
X-207883Y89967D02*
X-203276Y91926D01*
X-212545Y101892D02*
X-202761Y92108D01*
X-214693Y101256D02*
X-204740Y91304D01*
X-216841Y100620D02*
X-206694Y90473D01*
X-218988Y99984D02*
X-208601Y89597D01*
X-221133Y99345D02*
X-210432Y88644D01*
X-229437Y96703D02*
X-220923Y99411D01*
X-237067Y94433D02*
X-229459Y96696D01*
X-223245Y98673D02*
X-212262Y87690D01*
X-239090Y93280D02*
X-237067Y94433D01*
X-241379Y92149D02*
X-239150Y93248D01*
X-244817Y90768D02*
X-241455Y92115D01*
X-247501Y89957D02*
X-244912Y90736D01*
X-247503Y88248D02*
X-245060Y90691D01*
X-219191Y83153D02*
X-195376Y106968D01*
X-228347Y76781D02*
X-199318Y105811D01*
X-231157Y76756D02*
X-203275Y104637D01*
X-233967Y76729D02*
X-207230Y103466D01*
X-236778Y76702D02*
X-211185Y102295D01*
X-239589Y76675D02*
X-215140Y101124D01*
X-225357Y98001D02*
X-213990Y86634D01*
X-227469Y97329D02*
X-215708Y85568D01*
X-229583Y96659D02*
X-217370Y84447D01*
X-231729Y96021D02*
X-218998Y83290D01*
X-242574Y76474D02*
X-219095Y99953D01*
X-233874Y95383D02*
X-220626Y82134D01*
X-236020Y94744D02*
X-222331Y81055D01*
X-254386Y70230D02*
X-227201Y97414D01*
X-255477Y74706D02*
X-235193Y94990D01*
X-255066Y72333D02*
X-231230Y96170D01*
X-237975Y93916D02*
X-223830Y79771D01*
X-239780Y92937D02*
X-225329Y78486D01*
X-241660Y92033D02*
X-226828Y77201D01*
X-247583Y85385D02*
X-240273Y92694D01*
X-243648Y91237D02*
X-229185Y76774D01*
X-212383Y87627D02*
X-207962Y89930D01*
X-216344Y85173D02*
X-212454Y87587D01*
X-219226Y83129D02*
X-216401Y85135D01*
X-221533Y81490D02*
X-219228Y83127D01*
X-245695Y90500D02*
X-231943Y76748D01*
X-247501Y89523D02*
X-234700Y76722D01*
X-227306Y76790D02*
X-222176Y81188D01*
X-229649Y76770D02*
X-227306Y76790D01*
X-241633Y76656D02*
X-229651Y76770D01*
X-247507Y85790D02*
X-247501Y89957D01*
X-247506Y86743D02*
X-237458Y76696D01*
X-255503Y77465D02*
X-248368Y84599D01*
X-255051Y84407D02*
X-248616Y84565D01*
X-248202Y84656D02*
X-240216Y76669D01*
X-255553Y82982D02*
X-254104Y84430D01*
X-255528Y80223D02*
X-251251Y84500D01*
X-242104Y76610D02*
X-241742Y76649D01*
X-242683Y76435D02*
X-242352Y76553D01*
X-243205Y76132D02*
X-242908Y76324D01*
X-250841Y84510D02*
X-242742Y76412D01*
X-243642Y75722D02*
X-243398Y75974D01*
X-253558Y84444D02*
X-244088Y74974D01*
X-243974Y75230D02*
X-243791Y75530D01*
X-244190Y74651D02*
X-244085Y74985D01*
X-244269Y74116D02*
X-244234Y74437D01*
X-244677Y74371D02*
X-244095Y74953D01*
X-255560Y83662D02*
X-246449Y74551D01*
X-255534Y80852D02*
X-247365Y72683D01*
X-255508Y78042D02*
X-247909Y70444D01*
X-255562Y83911D02*
X-255469Y73889D01*
X-260984Y73449D02*
X-260827Y69122D01*
X-255112Y72051D02*
X-255006Y72708D01*
X-262700Y88018D02*
X-261095Y86413D01*
X-271056Y84182D02*
X-267259Y87980D01*
X-265460Y87995D02*
X-261070Y83605D01*
X-271997Y87939D02*
X-261109Y88032D01*
X-271270Y86752D02*
X-270066Y87956D01*
X-271420Y87094D02*
X-271203Y86597D01*
X-270973Y85609D02*
X-270949Y85069D01*
X-271128Y86373D02*
X-271005Y85844D01*
X-271035Y84297D02*
X-270960Y84830D01*
X-271262Y83550D02*
X-271089Y84065D01*
X-271620Y82862D02*
X-271358Y83332D01*
X-271838Y87747D02*
X-271536Y87303D01*
X-272098Y82249D02*
X-271756Y82663D01*
X-272683Y81732D02*
X-272267Y82079D01*
X-278350Y82344D02*
X-277993Y81984D01*
X-277812Y81832D02*
X-277366Y81523D01*
X-273351Y81332D02*
X-272878Y81598D01*
X-274081Y81062D02*
X-273567Y81236D01*
X-275681Y80945D02*
X-275139Y80916D01*
X-277158Y81406D02*
X-276667Y81185D01*
X-276440Y81107D02*
X-275916Y80980D01*
X-261109Y88032D02*
X-261036Y79643D01*
X-268221Y87971D02*
X-261046Y80796D01*
X-270952Y85134D02*
X-260999Y75181D01*
X-270981Y87948D02*
X-261024Y77990D01*
X-274789Y69314D02*
X-261065Y83038D01*
X-277588Y69299D02*
X-261089Y85797D01*
X-261032Y78880D02*
X-260992Y74463D01*
X-261036Y79643D02*
X-261032Y78884D01*
X-260992Y74464D02*
X-260984Y73479D01*
X-271564Y82963D02*
X-260944Y72343D01*
X-272945Y81560D02*
X-260839Y69454D01*
X-278309Y74145D02*
X-264451Y88003D01*
X-278334Y76904D02*
X-274214Y81024D01*
X-278286Y71385D02*
X-261643Y88027D01*
X-278350Y79672D02*
X-276784Y81238D01*
X-278350Y82344D02*
X-278350Y78718D01*
X-278300Y72995D02*
X-274673Y69368D01*
X-278275Y70187D02*
X-277407Y69319D01*
X-278303Y73321D02*
X-278265Y69026D01*
X-278350Y78718D02*
X-278311Y74305D01*
X-278311Y74304D02*
X-278303Y73320D01*
X21592Y67820D02*
X36673Y82901D01*
X19399Y68411D02*
X35071Y84082D01*
X23729Y67172D02*
X38238Y81681D01*
X6073Y83714D02*
X22107Y67680D01*
X3289Y83714D02*
X18384Y68618D01*
X8856Y83714D02*
X26407Y66164D01*
X25751Y66411D02*
X39716Y80376D01*
X23144Y67392D02*
X27762Y65654D01*
X27773Y65649D02*
X39271Y77147D01*
X17212Y68858D02*
X19464Y68397D01*
X19533Y68381D02*
X23044Y67425D01*
X-19678Y68308D02*
X-4272Y83714D01*
X-23589Y67181D02*
X-7056Y83714D01*
X-28114Y65440D02*
X-9839Y83714D01*
X-33612Y84424D02*
X-17880Y68693D01*
X-35556Y83584D02*
X-20164Y68192D01*
X-37228Y82473D02*
X-22347Y67591D01*
X-18426Y68602D02*
X-14784Y69212D01*
X-20723Y68060D02*
X-18499Y68587D01*
X-22966Y67412D02*
X-20777Y68046D01*
X-38701Y81162D02*
X-24410Y66871D01*
X-27662Y65645D02*
X-23048Y67385D01*
X25560Y83714D02*
X46604Y62670D01*
X22776Y83714D02*
X44791Y61699D01*
X19992Y83714D02*
X43794Y59912D01*
X17208Y83714D02*
X40765Y60157D01*
X11640Y83714D02*
X32215Y63139D01*
X14424Y83714D02*
X41399Y56739D01*
X27840Y65621D02*
X29425Y64887D01*
X-29315Y64887D02*
X-27733Y65615D01*
X-30115Y64492D02*
X-29343Y64874D01*
X-39003Y75896D02*
X-28410Y65303D01*
X-35609Y60728D02*
X-12623Y83714D01*
X-36194Y60326D02*
X-30249Y64413D01*
X-37865Y58241D02*
X-36636Y59930D01*
X-38882Y56273D02*
X-37957Y58092D01*
X-39193Y55344D02*
X-38950Y56107D01*
X-39394Y53960D02*
X-39245Y54948D01*
X-39540Y53013D02*
X-39394Y53962D01*
X-44046Y60644D02*
X-20975Y83714D01*
X-45334Y62139D02*
X-23759Y83714D01*
X-43857Y58048D02*
X-18191Y83714D01*
X-47513Y62743D02*
X-26543Y83714D01*
X-62490Y88248D02*
X-35231Y60988D01*
X-69584Y92557D02*
X-36771Y59745D01*
X-40171Y79848D02*
X-26432Y66109D01*
X-42240Y76349D02*
X-30281Y64391D01*
X-43457Y74782D02*
X-31931Y63257D01*
X-47535Y65505D02*
X-29327Y83714D01*
X-53505Y82047D02*
X-33581Y62122D01*
X-48703Y67122D02*
X-40362Y75463D01*
X-50554Y68055D02*
X-43894Y74714D01*
X-50534Y70724D02*
X-37938Y58128D01*
X-259892Y61940D02*
X-223119Y98713D01*
X-244523Y66173D02*
X-242873Y67824D01*
X-245352Y67887D02*
X-242873Y65407D01*
X-40125Y53428D02*
X-39359Y54195D01*
X-40197Y54819D02*
X-39387Y54009D01*
X-39670Y52130D02*
X-39540Y53008D01*
X-41984Y57138D02*
X-15407Y83714D01*
X-47350Y64755D02*
X-38877Y56283D01*
X-40577Y55761D02*
X-37247Y59091D01*
X-39651Y49936D02*
X-39541Y49189D01*
X-39682Y51084D02*
X-39662Y50078D01*
X-41793Y50847D02*
X-39440Y48494D01*
X-44536Y46234D02*
X-39682Y51088D01*
X-43430Y49701D02*
X-38080Y44351D01*
X-40473Y52311D02*
X-39682Y51520D01*
X-43771Y58393D02*
X-42857Y57479D01*
X-39682Y51108D02*
Y51970D01*
X-43580Y49596D02*
X-41645Y50951D01*
X-47372Y48966D02*
X-47107Y49230D01*
X-47518Y49324D02*
X-46483Y46800D01*
X-38427Y45218D02*
X-38078Y44344D01*
X-38783Y46172D02*
X-38436Y45243D01*
X-38017Y44216D02*
X-37474Y43241D01*
X-39109Y47257D02*
X-38806Y46242D01*
X-39375Y48137D02*
X-39108Y47254D01*
X-45456Y48942D02*
X-32592Y36078D01*
X-34560Y39439D02*
X-32990Y38123D01*
X-35202Y40051D02*
X-34615Y39488D01*
X-32990Y38123D02*
X-32245Y34300D01*
X-37455Y43207D02*
X-36660Y41888D01*
X-36580Y41774D02*
X-35301Y40160D01*
X-39540Y49184D02*
X-39411Y48300D01*
X-42698Y45288D02*
X-39446Y48540D01*
X-46562Y46992D02*
X-44381Y49172D01*
X-46751Y47453D02*
X-45939Y46642D01*
X-46483Y46800D02*
X-43423Y45910D01*
X-44313Y42192D02*
X-43857D01*
X-48310Y41515D02*
X-44313Y42192D01*
X-42551Y43254D02*
X-32800Y33502D01*
X-40733Y33334D02*
X-34596Y39470D01*
X-43878Y32972D02*
X-35915Y40935D01*
X-44274Y42192D02*
X-35485Y33404D01*
X-46660Y41795D02*
X-38235Y33370D01*
X-48885Y41236D02*
X-40979Y33330D01*
X-35091Y33407D02*
X-32564Y35935D01*
X-33963Y33417D02*
X-33221D01*
X-36611Y33394D02*
X-33973Y33417D01*
X-37908Y33375D02*
X-33082Y38201D01*
X-41740Y33319D02*
X-36620Y33394D01*
X-44384Y32887D02*
X-41908Y33304D01*
X-45470Y32703D02*
X-44385Y32886D01*
X-47682Y29952D02*
X-45380Y16335D01*
X-50277Y39844D02*
X-43473Y33040D01*
X-50818Y26033D02*
X-47569Y29281D01*
X-48183Y18263D02*
X-46129Y16209D01*
X-48768Y19731D02*
X-46361Y22137D01*
X-46843Y16088D02*
X-45556Y17375D01*
X-49496Y16792D02*
X-48510Y15806D01*
X-50193Y15522D02*
X-45959Y19756D01*
X-51669Y38453D02*
X-45866Y32649D01*
X-53061Y37061D02*
X-47429Y31429D01*
X-51880Y27754D02*
X-37068Y42566D01*
X-57233Y30753D02*
X-46095Y41890D01*
X-55434Y34688D02*
X-48751Y41370D01*
X-54453Y35669D02*
X-47468Y28683D01*
X-55791Y34223D02*
X-46902Y25333D01*
X-50839Y26487D02*
X-46335Y21983D01*
X-56827Y32474D02*
X-52198Y27845D01*
X-57310Y30174D02*
X-54036Y26899D01*
X-56466Y33342D02*
X-55434Y34688D01*
X-57089Y31842D02*
X-56466Y33342D01*
X-57311Y30162D02*
X-57089Y31842D01*
X-243433Y48164D02*
X-242759Y47800D01*
X-243027Y46792D02*
X-242759Y47800D01*
X-57311Y28935D02*
Y30162D01*
X-62913Y26173D02*
X-59329Y26777D01*
X-63560Y26157D02*
X-63097D01*
X-64595Y25179D02*
X-64476Y24177D01*
X-64379Y23607D02*
X-61590Y26396D01*
X-57670Y27750D02*
X-50046Y20125D01*
X-59459Y26755D02*
X-51517Y18813D01*
X-60220Y13847D02*
X-47166Y26900D01*
X-63574Y18844D02*
X-38077Y44341D01*
X-63977Y21225D02*
X-38842Y46360D01*
X-61841Y26353D02*
X-50891Y15404D01*
X-51785Y24649D02*
X-45769Y18632D01*
X-53543Y14955D02*
X-51153Y17345D01*
X-56894Y14389D02*
X-46764Y24519D01*
X-57648Y14261D02*
X-45380Y16335D01*
X-64217Y25945D02*
X-53273Y15001D01*
X-63172Y16462D02*
X-54076Y25558D01*
X-62639Y14211D02*
X-52355Y24495D01*
X-64476Y24177D02*
X-62945Y15121D01*
X-64322Y23266D02*
X-55654Y14598D01*
X-62772Y14346D02*
X-62303Y13873D01*
X-62945Y15121D02*
X-62772Y14346D01*
X-61712Y13606D02*
X-57648Y14261D01*
X-63756Y19916D02*
X-58038Y14198D01*
X-63190Y16566D02*
X-60435Y13812D01*
X-254198Y64850D02*
X-247050Y71998D01*
X-251798Y64466D02*
X-247521Y68743D01*
X-255482Y75232D02*
X-246027Y65777D01*
X-256372Y68244D02*
X-255630Y68986D01*
X-255060Y69243D02*
X-250284Y64466D01*
X-242873Y64954D02*
Y67887D01*
X-245808Y67887D02*
X-242897D01*
X-249014Y64466D02*
X-245594Y67887D01*
X-259428Y67807D02*
X-258820Y67889D01*
X-259220Y67835D02*
X-258954Y67569D01*
X-267897Y65070D02*
X-260933Y72035D01*
X-256731Y65346D02*
X-255999Y64614D01*
X-259838Y67562D02*
X-259602Y67797D01*
X-265579Y64604D02*
X-263135Y67048D01*
X-254671Y71637D02*
X-246855Y63821D01*
X-255722Y67121D02*
X-252857Y64256D01*
X-260450Y66281D02*
X-251398Y57229D01*
X-247144Y63553D02*
X-246857Y63839D01*
X-251990Y64466D02*
X-248841D01*
X-247503Y63912D02*
X-246510Y62919D01*
X-265087Y62312D02*
X-261508Y65891D01*
X-265820Y63300D02*
X-264841Y62321D01*
X-263344Y61272D02*
X-258744Y65872D01*
X-258222Y60826D02*
X-256447Y62601D01*
X-259106Y57158D02*
X-254613Y61651D01*
X-268306Y63002D02*
X-266503Y61198D01*
X-269312Y66439D02*
X-260995Y74756D01*
X-272590Y68729D02*
X-261041Y80278D01*
X-272513Y66022D02*
X-261020Y77515D01*
X-275083Y80914D02*
X-262832Y68663D01*
X-278324Y75803D02*
X-267644Y65123D01*
X-272454Y67149D02*
X-271588Y66284D01*
X-275368Y65951D02*
X-274929Y66390D01*
X-274220Y66132D02*
X-273578Y65490D01*
X-275770Y68333D02*
X-275514Y68589D01*
X-274453Y64082D02*
X-273825Y64710D01*
X-278239Y65864D02*
X-278012Y66091D01*
X-278228Y64572D02*
X-277772Y64115D01*
X-271046Y61921D02*
X-269724Y63244D01*
X-271773Y63685D02*
X-265192Y57104D01*
X-278349Y78612D02*
X-261093Y61357D01*
X-278350Y81397D02*
X-254158Y57205D01*
X-273086Y57097D02*
X-267241Y62943D01*
X-274550Y60894D02*
X-270710Y57054D01*
X-278216Y63103D02*
X-277630Y63689D01*
X-278241Y66218D02*
X-278191Y60197D01*
X-274517Y61234D02*
X-273700Y62051D01*
X-278204Y61764D02*
X-277887Y61447D01*
X-245061Y55353D02*
X-244637Y55931D01*
X-245540Y54333D02*
X-245180Y55146D01*
X-249625Y60682D02*
X-245305Y56363D01*
X-246896Y55511D02*
X-245588Y54203D01*
X-245011Y49763D02*
X-244468Y49047D01*
X-245511Y50772D02*
X-245131Y49961D01*
X-244304Y48873D02*
X-243623Y48294D01*
X-245785Y51871D02*
X-245588Y50997D01*
X-246732Y47261D02*
X-244674Y49319D01*
X-246895Y55449D02*
X-245644Y56701D01*
X-247898Y57231D02*
X-247036Y58093D01*
X-245796Y53231D02*
X-245611Y54113D01*
X-245819Y52998D02*
X-245811Y52101D01*
X-246786Y49991D02*
X-245623Y51154D01*
X-246841Y52720D02*
X-245654Y53906D01*
X-246840Y52671D02*
X-245710Y51542D01*
X-244011Y42205D02*
X-243039Y46740D01*
X-245074Y40567D02*
X-244092Y41549D01*
X-244560Y37499D02*
X-244029Y42101D01*
X-246783Y49830D02*
X-243155Y46202D01*
X-246726Y46990D02*
X-243646Y43909D01*
X-247385Y44864D02*
X-244090Y41569D01*
X-244642Y32651D02*
X-244381Y29381D01*
X-246048Y36810D02*
X-244456Y38402D01*
X-245131Y29375D02*
X-244436Y30070D01*
X-249691Y29334D02*
X-244381Y29381D01*
X-245708Y37619D02*
X-244582Y36494D01*
X-246909Y56149D02*
X-246705Y45898D01*
X-244586Y36255D02*
X-244567Y37390D01*
X-244646Y32761D02*
X-244625Y33962D01*
X-247940Y29350D02*
X-244642Y32648D01*
X-249787Y30286D02*
X-246505Y33569D01*
X-249818Y30594D02*
X-248568Y29344D01*
X-251588Y60203D02*
X-248639Y57254D01*
X-250993Y60682D02*
X-249625D01*
X-253485Y57211D02*
X-250014Y60682D01*
X-256294Y57186D02*
X-253291Y60189D01*
X-263218Y60698D02*
X-259674Y57153D01*
X-264724Y57108D02*
X-261504Y60328D01*
X-256555Y57183D02*
X-248149Y57258D01*
X-250677Y57236D02*
X-248428Y59485D01*
X-258016Y57168D02*
X-256557Y57183D01*
X-258706Y58970D02*
X-256916Y57179D01*
X-261915Y57133D02*
X-260389Y58658D01*
X-275329Y57639D02*
X-272873Y60094D01*
X-276985Y58766D02*
X-276214Y59538D01*
X-275992Y59552D02*
X-273586Y57146D01*
X-278193Y60342D02*
X-277821Y60714D01*
X-278191Y60197D02*
X-277535Y59268D01*
X-264340Y59036D02*
X-262433Y57128D01*
X-275286Y57614D02*
X-273955Y57182D01*
X-267533Y57082D02*
X-265551Y59064D01*
X-277535Y59268D02*
X-276499Y58323D01*
X-275286Y57614D01*
X-251059Y37366D02*
X-243409Y45017D01*
X-249998Y44694D02*
X-246248Y40944D01*
X-251059Y37366D02*
X-243409Y45017D01*
X-253947Y44532D02*
X-247749Y44786D01*
X-252673Y44584D02*
X-247777Y39689D01*
X-251773Y39436D02*
X-243181Y48028D01*
X-250546Y35095D02*
X-247455Y38187D01*
X-250042Y32815D02*
X-247531Y35327D01*
X-250257Y33817D02*
X-245809Y29369D01*
X-252587Y41715D02*
X-247120Y36248D01*
X-251070Y37414D02*
X-244498Y30842D01*
X-270342Y57057D02*
X-266592Y60808D01*
X-271031Y60159D02*
X-267951Y57079D01*
X-252506Y41487D02*
X-249269Y44724D01*
X-273955Y57182D02*
X-272489Y57038D01*
X-258016Y57168D01*
X-251089Y37500D02*
X-250066Y32968D01*
X-252688Y41997D02*
X-251127Y37629D01*
X-250044Y32836D02*
X-249691Y29334D01*
X-253379Y43397D02*
X-252172Y44605D01*
X-253947Y44532D02*
X-252741Y42121D01*
D61*
X-242255Y70100D02*
X-131236Y71118D01*
X131085Y58706D02*
X243285Y57677D01*
X131599Y71034D02*
X243799Y70004D01*
X-243396Y57701D02*
X-129982Y58801D01*
X-245808Y70029D02*
X-242897D01*
M02*
