G04*
G04 #@! TF.GenerationSoftware,Altium Limited,Altium Designer,20.2.3 (150)*
G04*
G04 Layer_Color=8388736*
%FSLAX25Y25*%
%MOIN*%
G70*
G04*
G04 #@! TF.SameCoordinates,1A6DCC39-EBF3-408F-891E-A4E00116EB29*
G04*
G04*
G04 #@! TF.FilePolarity,Negative*
G04*
G01*
G75*
%ADD32C,0.01800*%
%ADD33R,0.03950X0.02375*%
%ADD34R,0.04343X0.04737*%
G04:AMPARAMS|DCode=35|XSize=47.37mil|YSize=43.43mil|CornerRadius=0mil|HoleSize=0mil|Usage=FLASHONLY|Rotation=125.500|XOffset=0mil|YOffset=0mil|HoleType=Round|Shape=Rectangle|*
%AMROTATEDRECTD35*
4,1,4,0.03143,-0.00667,-0.00393,-0.03189,-0.03143,0.00667,0.00393,0.03189,0.03143,-0.00667,0.0*
%
%ADD35ROTATEDRECTD35*%

G04:AMPARAMS|DCode=36|XSize=39.5mil|YSize=23.75mil|CornerRadius=0mil|HoleSize=0mil|Usage=FLASHONLY|Rotation=215.500|XOffset=0mil|YOffset=0mil|HoleType=Round|Shape=Rectangle|*
%AMROTATEDRECTD36*
4,1,4,0.00918,0.02114,0.02297,0.00180,-0.00918,-0.02114,-0.02297,-0.00180,0.00918,0.02114,0.0*
%
%ADD36ROTATEDRECTD36*%

G04:AMPARAMS|DCode=37|XSize=47.37mil|YSize=43.43mil|CornerRadius=0mil|HoleSize=0mil|Usage=FLASHONLY|Rotation=234.500|XOffset=0mil|YOffset=0mil|HoleType=Round|Shape=Rectangle|*
%AMROTATEDRECTD37*
4,1,4,-0.00393,0.03189,0.03143,0.00667,0.00393,-0.03189,-0.03143,-0.00667,-0.00393,0.03189,0.0*
%
%ADD37ROTATEDRECTD37*%

G04:AMPARAMS|DCode=38|XSize=39.5mil|YSize=23.75mil|CornerRadius=0mil|HoleSize=0mil|Usage=FLASHONLY|Rotation=324.500|XOffset=0mil|YOffset=0mil|HoleType=Round|Shape=Rectangle|*
%AMROTATEDRECTD38*
4,1,4,-0.02297,0.00180,-0.00918,0.02114,0.02297,-0.00180,0.00918,-0.02114,-0.02297,0.00180,0.0*
%
%ADD38ROTATEDRECTD38*%

%ADD39R,0.03000X0.03162*%
%ADD40R,0.03162X0.03000*%
%ADD41R,0.02965X0.02965*%
%ADD42C,0.05524*%
G04:AMPARAMS|DCode=43|XSize=63.12mil|YSize=86.74mil|CornerRadius=0mil|HoleSize=0mil|Usage=FLASHONLY|Rotation=235.000|XOffset=0mil|YOffset=0mil|HoleType=Round|Shape=Round|*
%AMOVALD43*
21,1,0.02362,0.06312,0.00000,0.00000,325.0*
1,1,0.06312,-0.00968,0.00677*
1,1,0.06312,0.00968,-0.00677*
%
%ADD43OVALD43*%

G04:AMPARAMS|DCode=44|XSize=63.12mil|YSize=86.74mil|CornerRadius=0mil|HoleSize=0mil|Usage=FLASHONLY|Rotation=125.000|XOffset=0mil|YOffset=0mil|HoleType=Round|Shape=Round|*
%AMOVALD44*
21,1,0.02362,0.06312,0.00000,0.00000,215.0*
1,1,0.06312,0.00968,0.00677*
1,1,0.06312,-0.00968,-0.00677*
%
%ADD44OVALD44*%

D32*
X-273833Y66031D02*
D03*
X-272258D02*
D03*
X-270684D02*
D03*
X-269109D02*
D03*
X-267534D02*
D03*
X-273833Y64456D02*
D03*
X-272258D02*
D03*
X-270684D02*
D03*
X-269109D02*
D03*
X-267534D02*
D03*
X-273833Y62881D02*
D03*
X-272258D02*
D03*
X-270684D02*
D03*
X-269109D02*
D03*
X-267534D02*
D03*
X-273833Y61306D02*
D03*
X-272258D02*
D03*
X-270684D02*
D03*
X-269109D02*
D03*
X-267534D02*
D03*
X-273833Y59731D02*
D03*
X-272258D02*
D03*
X-270684D02*
D03*
X-269109D02*
D03*
X-267534D02*
D03*
X257714Y65479D02*
D03*
X259289D02*
D03*
X260864D02*
D03*
X262439D02*
D03*
X264013D02*
D03*
X257714Y63904D02*
D03*
X259289D02*
D03*
X260864D02*
D03*
X262439D02*
D03*
X264013D02*
D03*
X257714Y62329D02*
D03*
X259289D02*
D03*
X260864D02*
D03*
X262439D02*
D03*
X264013D02*
D03*
X257714Y60755D02*
D03*
X259289D02*
D03*
X260864D02*
D03*
X262439D02*
D03*
X264013D02*
D03*
X257714Y59180D02*
D03*
X259289D02*
D03*
X260864D02*
D03*
X262439D02*
D03*
X264013D02*
D03*
D33*
X-249682Y38679D02*
D03*
Y35530D02*
D03*
X249682Y35530D02*
D03*
Y38679D02*
D03*
D34*
X-247910Y31199D02*
D03*
Y43010D02*
D03*
X247910Y43010D02*
D03*
Y31199D02*
D03*
D35*
X-238297Y91895D02*
D03*
X-231438Y82279D02*
D03*
D36*
X-235396Y84776D02*
D03*
X-237225Y87340D02*
D03*
D37*
X231293Y82180D02*
D03*
X238152Y91795D02*
D03*
D38*
X237079Y87241D02*
D03*
X235250Y84676D02*
D03*
D39*
X268713Y58151D02*
D03*
X272492D02*
D03*
X268711Y65630D02*
D03*
X272491D02*
D03*
X268713Y61693D02*
D03*
X272492D02*
D03*
X-253332Y60563D02*
D03*
X-249553D02*
D03*
X-253738Y65143D02*
D03*
X-249958D02*
D03*
X-262898Y60563D02*
D03*
X-259118D02*
D03*
Y64398D02*
D03*
X-262898D02*
D03*
D40*
X276504Y65721D02*
D03*
Y61941D02*
D03*
X-37208Y64409D02*
D03*
Y68189D02*
D03*
X-42865D02*
D03*
Y64409D02*
D03*
D41*
X38134Y68708D02*
D03*
Y64108D02*
D03*
D42*
X47870Y31145D02*
D03*
X50288Y24500D02*
D03*
X56933Y26918D02*
D03*
X54515Y33563D02*
D03*
D43*
X44705Y53262D02*
D03*
X48318Y58421D02*
D03*
X51931Y63582D02*
D03*
X55544Y68742D02*
D03*
D44*
X-44705Y53262D02*
D03*
X-48318Y58421D02*
D03*
X-51931Y63582D02*
D03*
X-55544Y68742D02*
D03*
M02*
