G04*
G04 #@! TF.GenerationSoftware,Altium Limited,Altium Designer,19.1.5 (86)*
G04*
G04 Layer_Color=128*
%FSLAX25Y25*%
%MOIN*%
G70*
G01*
G75*
%ADD60R,0.01772X0.01772*%
%ADD61R,0.01575X0.01772*%
%ADD62P,0.05568X4X144.5*%
%ADD63R,0.06890X0.07087*%
G36*
X-63515Y14238D02*
X-59582Y14897D01*
X-60159Y18349D01*
X-64093Y17690D01*
X-63515Y14238D01*
D02*
G37*
G36*
X-64753Y21635D02*
X-60820Y22294D01*
X-61397Y25746D01*
X-65331Y25087D01*
X-64753Y21635D01*
D02*
G37*
G36*
X-48703Y16717D02*
X-44776Y17374D01*
X-45354Y20826D01*
X-49281Y20169D01*
X-48703Y16717D01*
D02*
G37*
G36*
X-49752Y24146D02*
X-46014Y24771D01*
X-46591Y28223D01*
X-50330Y27598D01*
X-49752Y24146D01*
D02*
G37*
D60*
X-263284Y83693D02*
D03*
X-268599D02*
D03*
Y87039D02*
D03*
X-263284D02*
D03*
X268598Y83693D02*
D03*
X263283D02*
D03*
Y87039D02*
D03*
X268598D02*
D03*
D61*
X-265941Y83693D02*
D03*
Y87039D02*
D03*
X265941Y83693D02*
D03*
Y87039D02*
D03*
D62*
X-61937Y16327D02*
D03*
X-63178Y23743D02*
D03*
X-46948Y18835D02*
D03*
X-48189Y26252D02*
D03*
D63*
X-14075Y76767D02*
D03*
X14075D02*
D03*
M02*
