G04*
G04 #@! TF.GenerationSoftware,Altium Limited,Altium Designer,19.1.5 (86)*
G04*
G04 Layer_Color=32896*
%FSLAX24Y24*%
%MOIN*%
G70*
G01*
G75*
%ADD10C,0.0039*%
%ADD11C,0.0100*%
%ADD20C,0.0060*%
%ADD62C,0.0079*%
%ADD63C,0.0150*%
D10*
X25943Y-6387D02*
G03*
X25904Y-6387I-20J0D01*
G01*
D02*
G03*
X25943Y-6387I20J0D01*
G01*
X-25896Y-4813D02*
G03*
X-25936Y-4813I-20J0D01*
G01*
D02*
G03*
X-25896Y-4813I20J0D01*
G01*
X25409Y13D02*
X26301D01*
X25409Y-322D02*
Y13D01*
Y-3413D02*
X26301D01*
X25409D02*
Y-3078D01*
X25707Y-5915D02*
Y-5285D01*
X-26343Y-3413D02*
X-25451D01*
Y-3078D01*
X-26343Y13D02*
X-25451D01*
Y-322D02*
Y13D01*
X-25699Y-5915D02*
Y-5285D01*
X3660Y-9823D02*
X4733Y-9432D01*
X4736Y-9434D01*
X5093Y-10416D01*
X4873Y-10890D02*
X5093Y-10416D01*
X4145Y-11155D02*
X4873Y-10890D01*
X3660Y-9823D02*
X4145Y-11155D01*
X3922Y-9947D02*
X4625Y-9692D01*
X4632Y-9695D01*
X4738Y-9986D01*
X4030Y-10244D02*
X4738Y-9986D01*
X3922Y-9947D02*
X4030Y-10244D01*
X4153Y-10566D02*
X4261Y-10862D01*
X4969Y-10604D01*
X4863Y-10313D02*
X4969Y-10604D01*
X4153Y-10566D02*
X4856Y-10310D01*
D11*
X-5235Y-9167D02*
G03*
X-5235Y-9167I-13J0D01*
G01*
X-3533Y-10300D02*
G03*
X-3533Y-10300I-1063J0D01*
G01*
X-4481Y-9203D02*
X-4385Y-8844D01*
X-4069Y-8929D01*
X-4175Y-9324D02*
X-4069Y-8929D01*
X-12254Y800D02*
Y1400D01*
X-12554D01*
X-12654Y1300D01*
Y1100D01*
X-12554Y1000D01*
X-12254D01*
X-12454D02*
X-12654Y800D01*
X-13154D02*
X-12954D01*
X-12854Y900D01*
Y1100D01*
X-12954Y1200D01*
X-13154D01*
X-13254Y1100D01*
Y1000D01*
X-12854D01*
X-13453Y800D02*
X-13753D01*
X-13853Y900D01*
X-13753Y1000D01*
X-13553D01*
X-13453Y1100D01*
X-13553Y1200D01*
X-13853D01*
X-14353Y800D02*
X-14153D01*
X-14053Y900D01*
Y1100D01*
X-14153Y1200D01*
X-14353D01*
X-14453Y1100D01*
Y1000D01*
X-14053D01*
X-14753Y1200D02*
X-14953D01*
X-15053Y1100D01*
Y800D01*
X-14753D01*
X-14653Y900D01*
X-14753Y1000D01*
X-15053D01*
X-15253Y1200D02*
Y800D01*
Y1000D01*
X-15353Y1100D01*
X-15453Y1200D01*
X-15553D01*
X-16253D02*
X-15953D01*
X-15853Y1100D01*
Y900D01*
X-15953Y800D01*
X-16253D01*
X-16452Y1400D02*
Y800D01*
Y1100D01*
X-16552Y1200D01*
X-16752D01*
X-16852Y1100D01*
Y800D01*
X-17352Y1000D02*
Y1100D01*
X-17252D01*
Y1000D01*
X-17352D01*
X-17452Y1100D01*
Y1300D01*
X-17352Y1400D01*
X-17152D01*
X-17052Y1300D01*
Y900D01*
X-17152Y800D01*
X-17452D01*
X-18052Y1300D02*
X-17952Y1400D01*
X-17752D01*
X-17652Y1300D01*
Y1200D01*
X-17752Y1100D01*
X-17952D01*
X-18052Y1000D01*
Y900D01*
X-17952Y800D01*
X-17752D01*
X-17652Y900D01*
X-18652Y1200D02*
X-18352D01*
X-18252Y1100D01*
Y900D01*
X-18352Y800D01*
X-18652D01*
X-18952Y1200D02*
X-19152D01*
X-19252Y1100D01*
Y800D01*
X-18952D01*
X-18852Y900D01*
X-18952Y1000D01*
X-19252D01*
X-19451Y800D02*
X-19651D01*
X-19551D01*
Y1400D01*
X-19451D01*
X-20251Y800D02*
X-20051D01*
X-19951Y900D01*
Y1100D01*
X-20051Y1200D01*
X-20251D01*
X-20351Y1100D01*
Y1000D01*
X-19951D01*
X-21551Y800D02*
X-21151D01*
X-21551Y1200D01*
Y1300D01*
X-21451Y1400D01*
X-21251D01*
X-21151Y1300D01*
X-21751D02*
X-21851Y1400D01*
X-22051D01*
X-22151Y1300D01*
Y900D01*
X-22051Y800D01*
X-21851D01*
X-21751Y900D01*
Y1300D01*
X-22351Y800D02*
X-22550D01*
X-22451D01*
Y1400D01*
X-22351Y1300D01*
X-22850Y900D02*
X-22950Y800D01*
X-23150D01*
X-23250Y900D01*
Y1300D01*
X-23150Y1400D01*
X-22950D01*
X-22850Y1300D01*
Y1200D01*
X-22950Y1100D01*
X-23250D01*
X-12254Y2350D02*
Y1750D01*
X-12554D01*
X-12654Y1850D01*
Y2250D01*
X-12554Y2350D01*
X-12254D01*
X-12954Y2150D02*
X-13154D01*
X-13254Y2050D01*
Y1750D01*
X-12954D01*
X-12854Y1850D01*
X-12954Y1950D01*
X-13254D01*
X-13453Y2150D02*
X-13653Y1750D01*
X-13853Y2150D01*
X-14053Y1750D02*
X-14253D01*
X-14153D01*
Y2150D01*
X-14053D01*
X-14953Y2350D02*
Y1750D01*
X-14653D01*
X-14553Y1850D01*
Y2050D01*
X-14653Y2150D01*
X-14953D01*
X-15853D02*
X-16053D01*
X-16153Y2050D01*
Y1750D01*
X-15853D01*
X-15753Y1850D01*
X-15853Y1950D01*
X-16153D01*
X-16352Y1750D02*
Y2150D01*
X-16652D01*
X-16752Y2050D01*
Y1750D01*
X-17352Y2350D02*
Y1750D01*
X-17052D01*
X-16952Y1850D01*
Y2050D01*
X-17052Y2150D01*
X-17352D01*
X-18152Y1750D02*
Y2350D01*
X-18452D01*
X-18552Y2250D01*
Y2050D01*
X-18452Y1950D01*
X-18152D01*
X-18852Y2150D02*
X-19052D01*
X-19152Y2050D01*
Y1750D01*
X-18852D01*
X-18752Y1850D01*
X-18852Y1950D01*
X-19152D01*
X-19451Y2250D02*
Y2150D01*
X-19352D01*
X-19551D01*
X-19451D01*
Y1850D01*
X-19551Y1750D01*
X-19851Y2150D02*
Y1750D01*
Y1950D01*
X-19951Y2050D01*
X-20051Y2150D01*
X-20151D01*
X-20451Y1750D02*
X-20651D01*
X-20551D01*
Y2150D01*
X-20451D01*
X-21351D02*
X-21051D01*
X-20951Y2050D01*
Y1850D01*
X-21051Y1750D01*
X-21351D01*
X-21551D02*
Y2350D01*
Y1950D02*
X-21851Y2150D01*
X-21551Y1950D02*
X-21851Y1750D01*
X-13596Y1150D02*
X-13863D01*
X-13729D01*
Y1950D01*
X-13596Y1816D01*
X28353Y780D02*
X28620D01*
Y580D01*
X28487D01*
X28620D01*
Y380D01*
X28220D02*
Y780D01*
X28020D01*
X27954Y713D01*
Y580D01*
X28020Y513D01*
X28220D01*
X27554Y713D02*
X27620Y780D01*
X27754D01*
X27820Y713D01*
Y447D01*
X27754Y380D01*
X27620D01*
X27554Y447D01*
X27420Y313D02*
X27154D01*
X27021Y380D02*
Y780D01*
X26887Y647D01*
X26754Y780D01*
Y380D01*
X26354Y713D02*
X26421Y780D01*
X26554D01*
X26621Y713D01*
Y447D01*
X26554Y380D01*
X26421D01*
X26354Y447D01*
X26221Y780D02*
Y447D01*
X26154Y380D01*
X26021D01*
X25954Y447D01*
Y780D01*
X-27087Y600D02*
X-26820D01*
Y400D01*
X-26953D01*
X-26820D01*
Y200D01*
X-27220D02*
Y600D01*
X-27420D01*
X-27486Y533D01*
Y400D01*
X-27420Y333D01*
X-27220D01*
X-27886Y533D02*
X-27820Y600D01*
X-27686D01*
X-27620Y533D01*
Y267D01*
X-27686Y200D01*
X-27820D01*
X-27886Y267D01*
X-28020Y133D02*
X-28286D01*
X-28419Y200D02*
Y600D01*
X-28619D01*
X-28686Y533D01*
Y400D01*
X-28619Y333D01*
X-28419D01*
X-28819Y600D02*
Y200D01*
X-28953Y333D01*
X-29086Y200D01*
Y600D01*
X-29219Y200D02*
Y600D01*
X-29419D01*
X-29486Y533D01*
Y400D01*
X-29419Y333D01*
X-29219D01*
X-29353D02*
X-29486Y200D01*
X-3246Y-8250D02*
Y-8583D01*
X-3313Y-8650D01*
X-3446D01*
X-3513Y-8583D01*
Y-8250D01*
X-3646Y-8317D02*
X-3713Y-8250D01*
X-3846D01*
X-3913Y-8317D01*
Y-8383D01*
X-3846Y-8450D01*
X-3779D01*
X-3846D01*
X-3913Y-8517D01*
Y-8583D01*
X-3846Y-8650D01*
X-3713D01*
X-3646Y-8583D01*
X4154Y-8900D02*
Y-9233D01*
X4087Y-9300D01*
X3954D01*
X3887Y-9233D01*
Y-8900D01*
X3487Y-9300D02*
X3754D01*
X3487Y-9033D01*
Y-8967D01*
X3554Y-8900D01*
X3687D01*
X3754Y-8967D01*
D20*
X872Y-4603D02*
X1620D01*
X872Y-4997D02*
Y-4603D01*
Y-4997D02*
X1620D01*
Y-4603D01*
X876Y-5003D02*
X1624D01*
X876Y-5397D02*
Y-5003D01*
Y-5397D02*
X1624D01*
Y-5003D01*
X-903Y-1954D02*
Y-1206D01*
X-1297D02*
X-903D01*
X-1297Y-1954D02*
Y-1206D01*
Y-1954D02*
X-903D01*
X-513Y-1974D02*
Y-1226D01*
X-907D02*
X-513D01*
X-907Y-1974D02*
Y-1226D01*
Y-1974D02*
X-513D01*
X483Y-1594D02*
Y-846D01*
Y-1594D02*
X877D01*
Y-846D01*
X483D02*
X877D01*
X25820Y2244D02*
Y1944D01*
X25620D01*
X25320Y2244D02*
X25520D01*
Y1944D01*
X25320D01*
X25520Y2094D02*
X25420D01*
X25220Y2244D02*
Y1944D01*
X25070D01*
X25020Y1994D01*
Y2194D01*
X25070Y2244D01*
X25220D01*
X24720D02*
X24820Y2194D01*
X24920Y2094D01*
Y1994D01*
X24870Y1944D01*
X24770D01*
X24720Y1994D01*
Y2044D01*
X24770Y2094D01*
X24920D01*
X11040Y2040D02*
Y1740D01*
X10840D01*
X10540Y2040D02*
X10740D01*
Y1740D01*
X10540D01*
X10740Y1890D02*
X10640D01*
X10440Y2040D02*
Y1740D01*
X10290D01*
X10240Y1790D01*
Y1990D01*
X10290Y2040D01*
X10440D01*
X9940D02*
X10140D01*
Y1890D01*
X10040Y1940D01*
X9990D01*
X9940Y1890D01*
Y1790D01*
X9990Y1740D01*
X10090D01*
X10140Y1790D01*
X-9860Y2020D02*
Y1720D01*
X-10060D01*
X-10360Y2020D02*
X-10160D01*
Y1720D01*
X-10360D01*
X-10160Y1870D02*
X-10260D01*
X-10460Y2020D02*
Y1720D01*
X-10610D01*
X-10660Y1770D01*
Y1970D01*
X-10610Y2020D01*
X-10460D01*
X-10960Y1720D02*
X-10760D01*
X-10960Y1920D01*
Y1970D01*
X-10910Y2020D01*
X-10810D01*
X-10760Y1970D01*
X-24720Y2360D02*
Y2060D01*
X-24920D01*
X-25220Y2360D02*
X-25020D01*
Y2060D01*
X-25220D01*
X-25020Y2210D02*
X-25120D01*
X-25320Y2360D02*
Y2060D01*
X-25470D01*
X-25520Y2110D01*
Y2310D01*
X-25470Y2360D01*
X-25320D01*
X-25620Y2060D02*
X-25720D01*
X-25670D01*
Y2360D01*
X-25620Y2310D01*
X-2146Y-1450D02*
Y-1750D01*
X-2346D01*
X-2646Y-1450D02*
X-2446D01*
Y-1750D01*
X-2646D01*
X-2446Y-1600D02*
X-2546D01*
X-2746Y-1450D02*
Y-1750D01*
X-2896D01*
X-2946Y-1700D01*
Y-1500D01*
X-2896Y-1450D01*
X-2746D01*
X-3046Y-1500D02*
X-3096Y-1450D01*
X-3196D01*
X-3246Y-1500D01*
Y-1550D01*
X-3196Y-1600D01*
X-3146D01*
X-3196D01*
X-3246Y-1650D01*
Y-1700D01*
X-3196Y-1750D01*
X-3096D01*
X-3046Y-1700D01*
X3284Y-1450D02*
Y-1750D01*
X3084D01*
X2784Y-1450D02*
X2984D01*
Y-1750D01*
X2784D01*
X2984Y-1600D02*
X2884D01*
X2684Y-1450D02*
Y-1750D01*
X2534D01*
X2484Y-1700D01*
Y-1500D01*
X2534Y-1450D01*
X2684D01*
X2234Y-1750D02*
Y-1450D01*
X2384Y-1600D01*
X2184D01*
X780Y-4920D02*
Y-4620D01*
X630D01*
X580Y-4670D01*
Y-4770D01*
X630Y-4820D01*
X780D01*
X680D02*
X580Y-4920D01*
X480D02*
X380D01*
X430D01*
Y-4620D01*
X480Y-4670D01*
X230D02*
X180Y-4620D01*
X80D01*
X30Y-4670D01*
Y-4870D01*
X80Y-4920D01*
X180D01*
X230Y-4870D01*
Y-4670D01*
X775Y-5415D02*
Y-5115D01*
X625D01*
X575Y-5165D01*
Y-5265D01*
X625Y-5315D01*
X775D01*
X675D02*
X575Y-5415D01*
X275Y-5115D02*
X475D01*
Y-5265D01*
X375Y-5215D01*
X325D01*
X275Y-5265D01*
Y-5365D01*
X325Y-5415D01*
X425D01*
X475Y-5365D01*
X140Y-720D02*
X440D01*
Y-570D01*
X390Y-520D01*
X290D01*
X240Y-570D01*
Y-720D01*
Y-620D02*
X140Y-520D01*
Y-420D02*
Y-320D01*
Y-370D01*
X440D01*
X390Y-420D01*
X-25546Y-4020D02*
Y-4320D01*
X-25746D01*
X-26046Y-4020D02*
X-25846D01*
Y-4320D01*
X-26046D01*
X-25846Y-4170D02*
X-25946D01*
X-26146Y-4020D02*
Y-4320D01*
X-26296D01*
X-26346Y-4270D01*
Y-4070D01*
X-26296Y-4020D01*
X-26146D01*
X-26446Y-4070D02*
X-26496Y-4020D01*
X-26596D01*
X-26646Y-4070D01*
Y-4120D01*
X-26596Y-4170D01*
X-26646Y-4220D01*
Y-4270D01*
X-26596Y-4320D01*
X-26496D01*
X-26446Y-4270D01*
Y-4220D01*
X-26496Y-4170D01*
X-26446Y-4120D01*
Y-4070D01*
X-26496Y-4170D02*
X-26596D01*
X26720Y-4340D02*
Y-4640D01*
X26520D01*
X26220Y-4340D02*
X26420D01*
Y-4640D01*
X26220D01*
X26420Y-4490D02*
X26320D01*
X26120Y-4340D02*
Y-4640D01*
X25970D01*
X25920Y-4590D01*
Y-4390D01*
X25970Y-4340D01*
X26120D01*
X25820D02*
X25620D01*
Y-4390D01*
X25820Y-4590D01*
Y-4640D01*
X830Y-580D02*
X880Y-630D01*
Y-730D01*
X830Y-780D01*
X630D01*
X580Y-730D01*
Y-630D01*
X630Y-580D01*
X830Y-480D02*
X880Y-430D01*
Y-330D01*
X830Y-280D01*
X780D01*
X730Y-330D01*
Y-380D01*
Y-330D01*
X680Y-280D01*
X630D01*
X580Y-330D01*
Y-430D01*
X630Y-480D01*
X-670Y-916D02*
X-620Y-966D01*
Y-1066D01*
X-670Y-1116D01*
X-870D01*
X-920Y-1066D01*
Y-966D01*
X-870Y-916D01*
X-920Y-616D02*
Y-816D01*
X-720Y-616D01*
X-670D01*
X-620Y-666D01*
Y-766D01*
X-670Y-816D01*
X-1090Y-920D02*
X-1040Y-970D01*
Y-1070D01*
X-1090Y-1120D01*
X-1290D01*
X-1340Y-1070D01*
Y-970D01*
X-1290Y-920D01*
X-1340Y-820D02*
Y-720D01*
Y-770D01*
X-1040D01*
X-1090Y-820D01*
X460Y-1780D02*
X360D01*
X410D01*
Y-2080D01*
X460D01*
X360D01*
X10Y-1830D02*
X60Y-1780D01*
X160D01*
X210Y-1830D01*
Y-2030D01*
X160Y-2080D01*
X60D01*
X10Y-2030D01*
X-90Y-2080D02*
X-190D01*
X-140D01*
Y-1780D01*
X-90Y-1830D01*
D62*
X984Y-2413D02*
G03*
X984Y-2413I-39J0D01*
G01*
D63*
X-23000Y-227D02*
X-23167Y-560D01*
X-23333Y-227D01*
X-23500Y-560D02*
X-23666D01*
X-23583D01*
Y-60D01*
X-23500Y-143D01*
X-23916Y-560D02*
Y-477D01*
X-24000D01*
Y-560D01*
X-23916D01*
X-24666D02*
X-24333D01*
X-24666Y-227D01*
Y-143D01*
X-24583Y-60D01*
X-24416D01*
X-24333Y-143D01*
M02*
