G04*
G04 #@! TF.GenerationSoftware,Altium Limited,Altium Designer,19.1.5 (86)*
G04*
G04 Layer_Physical_Order=1*
G04 Layer_Color=255*
%FSLAX24Y24*%
%MOIN*%
G70*
G01*
G75*
%ADD11C,0.0100*%
%ADD12R,0.0689X0.0709*%
%ADD19C,0.0080*%
%ADD20C,0.0060*%
%ADD21C,0.0120*%
%ADD22C,0.0160*%
%ADD23C,0.0140*%
%ADD24C,0.0630*%
%ADD25C,0.0945*%
%ADD26C,0.0472*%
G04:AMPARAMS|DCode=27|XSize=43.3mil|YSize=35.4mil|CornerRadius=8.9mil|HoleSize=0mil|Usage=FLASHONLY|Rotation=290.000|XOffset=0mil|YOffset=0mil|HoleType=Round|Shape=RoundedRectangle|*
%AMROUNDEDRECTD27*
21,1,0.0433,0.0177,0,0,290.0*
21,1,0.0256,0.0354,0,0,290.0*
1,1,0.0177,-0.0039,-0.0151*
1,1,0.0177,-0.0127,0.0090*
1,1,0.0177,0.0039,0.0151*
1,1,0.0177,0.0127,-0.0090*
%
%ADD27ROUNDEDRECTD27*%
%ADD28C,0.0220*%
G36*
X29469Y2944D02*
X29576Y2946D01*
X29688Y2927D01*
X29782Y2895D01*
X29872Y2848D01*
X29937Y2803D01*
X29976Y2772D01*
X30012Y2739D01*
X30108Y2625D01*
X30188Y2482D01*
X30241Y2316D01*
X30257Y2222D01*
X30254Y2219D01*
X30253Y2217D01*
X30254Y2215D01*
X30259Y2165D01*
X30150Y-1364D01*
X30150Y-1367D01*
X30148Y-1380D01*
X30150Y-1367D01*
X30142Y-1414D01*
X30147Y-1460D01*
X30147Y-1462D01*
X30079Y-3638D01*
X30071Y-3685D01*
X30071Y-3685D01*
X30076Y-3735D01*
X30007Y-5904D01*
X30006Y-5909D01*
X29999Y-5956D01*
X29999Y-5956D01*
X29999D01*
X29999Y-5956D01*
X29998Y-6006D01*
X29993Y-6038D01*
X29993Y-6040D01*
X29981Y-6086D01*
X29981D01*
X29969Y-6133D01*
X29961Y-6158D01*
X29942Y-6202D01*
X29930Y-6227D01*
X29918Y-6252D01*
X29882Y-6314D01*
X29876Y-6316D01*
X29874Y-6321D01*
X29847Y-6362D01*
X29843Y-6368D01*
X29835Y-6369D01*
X29833Y-6372D01*
X29834Y-6379D01*
X29829Y-6383D01*
X29793Y-6416D01*
X29790Y-6417D01*
X29789Y-6420D01*
X29755Y-6457D01*
X29702Y-6504D01*
X29701Y-6505D01*
X29660Y-6532D01*
X29622Y-6561D01*
X29555Y-6600D01*
X29530Y-6613D01*
X29507Y-6624D01*
X29507Y-6624D01*
X29464Y-6648D01*
X29368Y-6693D01*
X29357Y-6701D01*
X29355Y-6702D01*
X29349Y-6705D01*
X28950Y-6732D01*
X28945Y-6733D01*
X28941Y-6733D01*
X28532Y-6808D01*
X28528Y-6810D01*
X28523Y-6810D01*
X28126Y-6930D01*
X28122Y-6932D01*
X28117Y-6933D01*
X28062Y-6957D01*
X25526D01*
X25492Y-6920D01*
X25502Y-6792D01*
X25502Y-6791D01*
X25502Y-6789D01*
X25531Y-6021D01*
X25530Y-6019D01*
X25531Y-6018D01*
X25531Y-5695D01*
X25531Y-5694D01*
X25531Y-5693D01*
X25522Y-5371D01*
X25521Y-5369D01*
X25521Y-5366D01*
X25479Y-4854D01*
X25478Y-4852D01*
X25478Y-4849D01*
X25437Y-4570D01*
X25436Y-4568D01*
X25436Y-4566D01*
X25382Y-4290D01*
X25382Y-4288D01*
X25381Y-4286D01*
X25274Y-3849D01*
X25273Y-3847D01*
X25273Y-3846D01*
X25172Y-3492D01*
X25171Y-3490D01*
X25171Y-3488D01*
X25052Y-3137D01*
X25051Y-3135D01*
X25050Y-3132D01*
X24877Y-2721D01*
X24875Y-2718D01*
X24874Y-2715D01*
X24673Y-2333D01*
X24670Y-2330D01*
X24669Y-2327D01*
X24441Y-1977D01*
X24439Y-1975D01*
X24437Y-1971D01*
X24207Y-1679D01*
X24204Y-1676D01*
X24202Y-1673D01*
X23917Y-1373D01*
X23914Y-1371D01*
X23912Y-1368D01*
X23599Y-1096D01*
X23596Y-1094D01*
X23594Y-1092D01*
X23383Y-934D01*
X23380Y-934D01*
X23379Y-932D01*
X23160Y-787D01*
X23157Y-786D01*
X23155Y-784D01*
X22773Y-567D01*
X22770Y-566D01*
X22767Y-565D01*
X22340Y-364D01*
X22337Y-363D01*
X22335Y-361D01*
X21848Y-173D01*
X21846Y-173D01*
X21843Y-172D01*
X21344Y-17D01*
X21342Y-17D01*
X21340Y-16D01*
X21011Y68D01*
X21009Y68D01*
X21008Y68D01*
X20677Y141D01*
X20675Y141D01*
X20674Y141D01*
X20016Y254D01*
X20014Y254D01*
X20012Y255D01*
X19276Y343D01*
X19274Y343D01*
X19272Y343D01*
X18449Y402D01*
X18448Y402D01*
X18447Y402D01*
X17862Y424D01*
X17861Y424D01*
X17860Y424D01*
X17274Y434D01*
X17274Y434D01*
X17273Y434D01*
X16334Y433D01*
X16334Y433D01*
X16334Y433D01*
X15474Y423D01*
X15473Y423D01*
X15472Y423D01*
X14614Y393D01*
X14612Y393D01*
X14611Y393D01*
X13756Y332D01*
X13755Y332D01*
X13753Y332D01*
X12993Y248D01*
X12992Y248D01*
X12990Y248D01*
X12233Y136D01*
X12232Y135D01*
X12230Y135D01*
X11274Y-42D01*
X11273Y-43D01*
X11271Y-43D01*
X10351Y-249D01*
X10350Y-250D01*
X10348Y-250D01*
X9435Y-484D01*
X9434Y-485D01*
X9433Y-485D01*
X8501Y-754D01*
X8500Y-755D01*
X8498Y-755D01*
X7578Y-1056D01*
X7577Y-1056D01*
X7575Y-1057D01*
X7138Y-1215D01*
X7137Y-1215D01*
X7136Y-1216D01*
X6703Y-1385D01*
X6702Y-1385D01*
X6700Y-1386D01*
X6091Y-1651D01*
X6089Y-1652D01*
X6086Y-1653D01*
X5578Y-1910D01*
X5576Y-1911D01*
X5573Y-1913D01*
X5208Y-2132D01*
X5206Y-2134D01*
X5203Y-2136D01*
X4972Y-2300D01*
X4970Y-2302D01*
X4967Y-2304D01*
X4750Y-2487D01*
X4747Y-2490D01*
X4743Y-2493D01*
X4533Y-2712D01*
X4530Y-2717D01*
X4526Y-2720D01*
X4346Y-2962D01*
X4344Y-2967D01*
X4340Y-2971D01*
X4201Y-3216D01*
X4200Y-3220D01*
X4197Y-3224D01*
X4084Y-3483D01*
X4083Y-3486D01*
X4081Y-3490D01*
X3961Y-3849D01*
X3960Y-3852D01*
X3959Y-3855D01*
X3851Y-4264D01*
X3851Y-4267D01*
X3850Y-4269D01*
X3766Y-4682D01*
X3766Y-4685D01*
X3765Y-4687D01*
X3688Y-5238D01*
X3689Y-5241D01*
X3688Y-5244D01*
X3651Y-5774D01*
X3652Y-5777D01*
X3651Y-5780D01*
X3653Y-6310D01*
X3654Y-6313D01*
X3653Y-6316D01*
X3690Y-6794D01*
X3691Y-6797D01*
X3691Y-6799D01*
X3760Y-7274D01*
X3761Y-7276D01*
X3761Y-7279D01*
X3797Y-7454D01*
X3755Y-7496D01*
X3754Y-7496D01*
Y-7700D01*
Y-7904D01*
X3786Y-7898D01*
X3832Y-7867D01*
X3851Y-7868D01*
X3887Y-7886D01*
X4057Y-8525D01*
X4057Y-8526D01*
X4058Y-8527D01*
X4064Y-8540D01*
X4071Y-8554D01*
X4072Y-8554D01*
X4072Y-8555D01*
X4245Y-8771D01*
X4252Y-8777D01*
X4259Y-8785D01*
X4477Y-8955D01*
X4485Y-8959D01*
X4493Y-8965D01*
X4745Y-9080D01*
X4750Y-9081D01*
X4754Y-9083D01*
X4835Y-9109D01*
X5031Y-9193D01*
X5205Y-9311D01*
X5215Y-9321D01*
X5190Y-9367D01*
X5152Y-9357D01*
X5078Y-9369D01*
X5041Y-9382D01*
X5134Y-9636D01*
X5351Y-9557D01*
X5342Y-9533D01*
X5387Y-9511D01*
X5470Y-9634D01*
X5552Y-9828D01*
X5596Y-10037D01*
X5634Y-10367D01*
X5585Y-10379D01*
X5509Y-10171D01*
X5482Y-10127D01*
X5441Y-10097D01*
X5391Y-10084D01*
X5341Y-10092D01*
X5174Y-10153D01*
X5131Y-10179D01*
X5100Y-10221D01*
X5088Y-10270D01*
X5096Y-10321D01*
X5184Y-10561D01*
X5210Y-10605D01*
X5251Y-10635D01*
X5301Y-10647D01*
X5352Y-10640D01*
X5518Y-10579D01*
X5562Y-10553D01*
X5581Y-10526D01*
X5631Y-10543D01*
X5624Y-10734D01*
X5433Y-11737D01*
X3903D01*
X3834Y-11627D01*
X3809Y-11588D01*
X3796Y-11563D01*
X3784Y-11541D01*
X3759Y-11501D01*
X3726Y-11438D01*
X3725Y-11438D01*
X3706Y-11393D01*
X3706Y-11393D01*
X3682Y-11349D01*
X3622Y-11213D01*
X3656Y-11173D01*
X3659Y-11173D01*
X3697Y-11201D01*
X3747Y-11213D01*
X3798Y-11205D01*
X3964Y-11145D01*
X4008Y-11118D01*
X4038Y-11077D01*
X4050Y-11027D01*
X4043Y-10977D01*
X3955Y-10736D01*
X3929Y-10692D01*
X3887Y-10662D01*
X3838Y-10650D01*
X3787Y-10658D01*
X3621Y-10718D01*
X3577Y-10745D01*
X3547Y-10786D01*
X3534Y-10836D01*
X3542Y-10886D01*
X3587Y-11009D01*
X3540Y-11028D01*
X3162Y-10171D01*
X3145Y-10126D01*
X3145Y-10126D01*
X3135Y-10095D01*
X3128Y-10072D01*
X3057Y-9779D01*
X3050Y-9731D01*
X3047Y-9723D01*
X3041Y-9675D01*
X2983Y-8766D01*
X2982Y-8762D01*
X2982Y-8758D01*
X2941Y-8518D01*
X2938Y-8510D01*
X2936Y-8502D01*
X2847Y-8277D01*
X2843Y-8272D01*
X2841Y-8266D01*
X2632Y-7913D01*
X2630Y-7910D01*
X2628Y-7907D01*
X2386Y-7575D01*
X2383Y-7572D01*
X2381Y-7569D01*
X2107Y-7262D01*
X2104Y-7259D01*
X2102Y-7256D01*
X1800Y-6977D01*
X1797Y-6975D01*
X1794Y-6972D01*
X1467Y-6723D01*
X1464Y-6722D01*
X1461Y-6719D01*
X1111Y-6503D01*
X1107Y-6501D01*
X1104Y-6499D01*
X736Y-6317D01*
X732Y-6316D01*
X728Y-6314D01*
X347Y-6171D01*
X336Y-6169D01*
X326Y-6166D01*
X11Y-6137D01*
X4Y-6138D01*
X-4Y-6137D01*
X-318Y-6166D01*
X-329Y-6169D01*
X-340Y-6171D01*
X-750Y-6327D01*
X-754Y-6330D01*
X-758Y-6331D01*
X-1153Y-6531D01*
X-1157Y-6533D01*
X-1160Y-6535D01*
X-1533Y-6775D01*
X-1536Y-6778D01*
X-1540Y-6780D01*
X-1885Y-7057D01*
X-1888Y-7060D01*
X-1891Y-7063D01*
X-2206Y-7374D01*
X-2208Y-7378D01*
X-2212Y-7380D01*
X-2492Y-7723D01*
X-2494Y-7727D01*
X-2497Y-7730D01*
X-2741Y-8100D01*
X-2742Y-8104D01*
X-2745Y-8107D01*
X-2949Y-8500D01*
X-2950Y-8504D01*
X-2952Y-8508D01*
X-3115Y-8921D01*
X-3115Y-8923D01*
X-3116Y-8925D01*
X-3402Y-9783D01*
X-3421Y-9827D01*
X-3421Y-9827D01*
X-3421Y-9828D01*
X-3434Y-9875D01*
X-3876Y-11161D01*
X-3932Y-11168D01*
X-3945Y-11149D01*
X-4014Y-11102D01*
X-4046Y-11096D01*
Y-11300D01*
Y-11515D01*
X-4017Y-11549D01*
X-4086Y-11737D01*
X-5425D01*
X-5471Y-11496D01*
X-5426Y-11466D01*
X-5378Y-11498D01*
X-5346Y-11504D01*
Y-11300D01*
Y-11096D01*
X-5378Y-11102D01*
X-5448Y-11149D01*
X-5478Y-11194D01*
X-5531Y-11183D01*
X-5616Y-10734D01*
X-5629Y-10392D01*
X-5589Y-10037D01*
X-5544Y-9828D01*
X-5462Y-9634D01*
X-5345Y-9460D01*
X-5197Y-9311D01*
X-5024Y-9193D01*
X-4827Y-9109D01*
X-4747Y-9083D01*
X-4742Y-9081D01*
X-4738Y-9080D01*
X-4486Y-8965D01*
X-4478Y-8959D01*
X-4469Y-8955D01*
X-4351Y-8862D01*
X-4308Y-8889D01*
X-4310Y-8900D01*
X-4294Y-8982D01*
X-4248Y-9051D01*
X-4178Y-9098D01*
X-4146Y-9104D01*
Y-8900D01*
X-4096D01*
Y-8850D01*
X-3892D01*
X-3898Y-8818D01*
X-3945Y-8749D01*
X-4014Y-8702D01*
X-4096Y-8686D01*
X-4107Y-8688D01*
X-4134Y-8643D01*
X-4065Y-8555D01*
X-4064Y-8554D01*
X-4063Y-8554D01*
X-4057Y-8540D01*
X-4050Y-8527D01*
X-4050Y-8526D01*
X-4049Y-8525D01*
X-3877Y-7874D01*
X-3876Y-7872D01*
X-3876Y-7870D01*
X-3753Y-7279D01*
X-3753Y-7276D01*
X-3752Y-7274D01*
X-3683Y-6799D01*
X-3684Y-6797D01*
X-3683Y-6794D01*
X-3646Y-6316D01*
X-3646Y-6313D01*
X-3645Y-6310D01*
X-3644Y-5780D01*
X-3644Y-5777D01*
X-3644Y-5774D01*
X-3663Y-5502D01*
X-3614Y-5474D01*
X-3578Y-5498D01*
X-3546Y-5504D01*
Y-5300D01*
Y-5096D01*
X-3578Y-5102D01*
X-3643Y-5146D01*
X-3695Y-5136D01*
X-3758Y-4687D01*
X-3759Y-4685D01*
X-3759Y-4682D01*
X-3843Y-4269D01*
X-3844Y-4267D01*
X-3844Y-4264D01*
X-3951Y-3855D01*
X-3953Y-3852D01*
X-3953Y-3849D01*
X-4074Y-3490D01*
X-4076Y-3486D01*
X-4076Y-3483D01*
X-4190Y-3224D01*
X-4192Y-3220D01*
X-4194Y-3216D01*
X-4333Y-2971D01*
X-4336Y-2967D01*
X-4338Y-2962D01*
X-4519Y-2720D01*
X-4522Y-2717D01*
X-4525Y-2712D01*
X-4736Y-2493D01*
X-4739Y-2490D01*
X-4742Y-2487D01*
X-4960Y-2304D01*
X-4962Y-2302D01*
X-4965Y-2300D01*
X-5195Y-2136D01*
X-5198Y-2134D01*
X-5201Y-2132D01*
X-5565Y-1913D01*
X-5568Y-1911D01*
X-5571Y-1910D01*
X-6079Y-1653D01*
X-6081Y-1652D01*
X-6083Y-1651D01*
X-6693Y-1386D01*
X-6694Y-1385D01*
X-6696Y-1385D01*
X-7129Y-1216D01*
X-7130Y-1215D01*
X-7131Y-1215D01*
X-7568Y-1057D01*
X-7569Y-1056D01*
X-7570Y-1056D01*
X-8491Y-755D01*
X-8492Y-755D01*
X-8493Y-754D01*
X-9425Y-485D01*
X-9426Y-485D01*
X-9427Y-484D01*
X-10341Y-250D01*
X-10342Y-250D01*
X-10343Y-249D01*
X-11263Y-43D01*
X-11265Y-43D01*
X-11266Y-43D01*
X-12222Y135D01*
X-12224Y135D01*
X-12225Y136D01*
X-12983Y248D01*
X-12984Y248D01*
X-12986Y248D01*
X-13746Y332D01*
X-13747Y332D01*
X-13749Y332D01*
X-14603Y393D01*
X-14605Y393D01*
X-14606Y393D01*
X-15465Y423D01*
X-15466Y423D01*
X-15467Y423D01*
X-16326Y433D01*
X-16326Y433D01*
X-16327Y433D01*
X-17265Y434D01*
X-17266Y434D01*
X-17267Y434D01*
X-17852Y424D01*
X-17853Y424D01*
X-17854Y424D01*
X-18439Y402D01*
X-18440Y402D01*
X-18442Y402D01*
X-19264Y343D01*
X-19266Y343D01*
X-19268Y343D01*
X-20005Y255D01*
X-20007Y254D01*
X-20009Y254D01*
X-20666Y141D01*
X-20668Y141D01*
X-20670Y141D01*
X-21000Y68D01*
X-21002Y68D01*
X-21003Y68D01*
X-21332Y-16D01*
X-21334Y-17D01*
X-21336Y-17D01*
X-21835Y-172D01*
X-21838Y-173D01*
X-21841Y-174D01*
X-22327Y-361D01*
X-22330Y-363D01*
X-22333Y-364D01*
X-22760Y-565D01*
X-22762Y-566D01*
X-22765Y-567D01*
X-23147Y-784D01*
X-23149Y-786D01*
X-23152Y-787D01*
X-23371Y-932D01*
X-23373Y-934D01*
X-23375Y-935D01*
X-23586Y-1092D01*
X-23589Y-1094D01*
X-23591Y-1096D01*
X-23904Y-1368D01*
X-23906Y-1371D01*
X-23910Y-1373D01*
X-24194Y-1673D01*
X-24196Y-1676D01*
X-24199Y-1679D01*
X-24430Y-1971D01*
X-24431Y-1975D01*
X-24434Y-1977D01*
X-24661Y-2327D01*
X-24663Y-2330D01*
X-24665Y-2333D01*
X-24867Y-2715D01*
X-24868Y-2718D01*
X-24870Y-2721D01*
X-25042Y-3132D01*
X-25043Y-3135D01*
X-25044Y-3137D01*
X-25163Y-3488D01*
X-25164Y-3490D01*
X-25165Y-3492D01*
X-25266Y-3846D01*
X-25266Y-3847D01*
X-25266Y-3849D01*
X-25374Y-4286D01*
X-25374Y-4288D01*
X-25375Y-4290D01*
X-25429Y-4566D01*
X-25429Y-4568D01*
X-25429Y-4570D01*
X-25471Y-4849D01*
X-25471Y-4852D01*
X-25471Y-4854D01*
X-25514Y-5366D01*
X-25513Y-5369D01*
X-25514Y-5371D01*
X-25523Y-5693D01*
X-25523Y-5694D01*
X-25523Y-5695D01*
X-25523Y-6018D01*
X-25523Y-6019D01*
X-25523Y-6021D01*
X-25512Y-6314D01*
X-25561Y-6338D01*
X-25614Y-6302D01*
X-25646Y-6296D01*
Y-6500D01*
Y-6704D01*
X-25614Y-6698D01*
X-25549Y-6654D01*
X-25499Y-6666D01*
X-25494Y-6789D01*
X-25494Y-6791D01*
X-25494Y-6792D01*
X-25486Y-6900D01*
X-25520Y-6937D01*
X-28101D01*
X-28110Y-6933D01*
X-28114Y-6932D01*
X-28118Y-6930D01*
X-28516Y-6810D01*
X-28520Y-6810D01*
X-28525Y-6808D01*
X-28933Y-6733D01*
X-28938Y-6733D01*
X-28942Y-6732D01*
X-29154Y-6718D01*
X-29168Y-6667D01*
X-29145Y-6651D01*
X-29098Y-6582D01*
X-29092Y-6550D01*
X-29500D01*
X-29496Y-6572D01*
X-29506Y-6582D01*
X-29539Y-6595D01*
X-29519Y-6597D01*
X-29552Y-6600D01*
X-29539Y-6595D01*
X-29562Y-6592D01*
X-29585Y-6578D01*
X-29613Y-6562D01*
X-29645Y-6542D01*
X-29655Y-6535D01*
X-29682Y-6510D01*
X-29713Y-6488D01*
X-29713Y-6488D01*
X-29716Y-6485D01*
X-29726Y-6478D01*
X-29737Y-6468D01*
X-29748Y-6458D01*
X-29761Y-6443D01*
X-29782Y-6417D01*
X-29784Y-6416D01*
X-29820Y-6381D01*
X-29850Y-6343D01*
X-29855Y-6336D01*
X-29881Y-6296D01*
X-29881Y-6296D01*
X-29907Y-6256D01*
X-29925Y-6222D01*
X-29941Y-6186D01*
X-29948Y-6170D01*
X-29948Y-6170D01*
X-29965Y-6125D01*
X-29967Y-6117D01*
X-29977Y-6069D01*
X-29980Y-6062D01*
X-29990Y-6015D01*
X-29991Y-6006D01*
X-29991Y-5957D01*
X-29991Y-5956D01*
X-29998Y-5915D01*
X-29999Y-5907D01*
X-30111Y-2373D01*
X-30106Y-2323D01*
X-30106Y-2322D01*
X-30114Y-2275D01*
X-30182Y-100D01*
X-30177Y-52D01*
X-30177Y-52D01*
X-30177D01*
X-30185Y-5D01*
X-30251Y2169D01*
X-30250Y2179D01*
X-30246Y2217D01*
X-30249Y2263D01*
X-30242Y2335D01*
X-30242Y2337D01*
X-30232Y2384D01*
X-30232D01*
X-30224Y2432D01*
X-30207Y2489D01*
X-30197Y2518D01*
X-30188Y2542D01*
X-30188Y2542D01*
X-30169Y2586D01*
X-30142Y2639D01*
X-30141Y2640D01*
X-30120Y2674D01*
X-30119Y2674D01*
X-30116Y2681D01*
X-30097Y2711D01*
X-30067Y2744D01*
Y2744D01*
X-30036Y2781D01*
X-30033Y2785D01*
X-30025Y2791D01*
X-29986Y2821D01*
X-29944Y2848D01*
X-29817Y2909D01*
X-29701Y2940D01*
X-29616Y2948D01*
X-29541Y2944D01*
X-28625Y3018D01*
X-27265D01*
X-27048Y2999D01*
X-26837Y2942D01*
X-26698Y2883D01*
X-26595Y2824D01*
X-26593Y2766D01*
X-26604Y2758D01*
X-26637Y2709D01*
X-26649Y2650D01*
X-26637Y2591D01*
X-26604Y2542D01*
X-26555Y2509D01*
X-26496Y2497D01*
X-26438Y2509D01*
X-26388Y2542D01*
X-26364Y2578D01*
X-26251D01*
X-26224Y2528D01*
X-26237Y2509D01*
X-26249Y2450D01*
X-26237Y2391D01*
X-26268Y2346D01*
X-26300Y2353D01*
X-26359Y2341D01*
X-26408Y2308D01*
X-26441Y2259D01*
X-26453Y2200D01*
X-26441Y2141D01*
X-26408Y2092D01*
X-26372Y2068D01*
X-26361Y2021D01*
X-26361Y2016D01*
X-26392Y1990D01*
X-26442Y2004D01*
X-26442Y2005D01*
X-26509Y2130D01*
X-26599Y2239D01*
X-26709Y2329D01*
X-26834Y2396D01*
X-26969Y2437D01*
X-27110Y2451D01*
X-27251Y2437D01*
X-27387Y2396D01*
X-27511Y2329D01*
X-27621Y2239D01*
X-27711Y2130D01*
X-27778Y2005D01*
X-27819Y1869D01*
X-27833Y1728D01*
X-27819Y1587D01*
X-27778Y1452D01*
X-27711Y1327D01*
X-27621Y1218D01*
X-27511Y1128D01*
X-27387Y1061D01*
X-27261Y1023D01*
X-27238Y975D01*
X-27545Y668D01*
X-27565Y638D01*
X-27572Y603D01*
Y-233D01*
X-27569Y-249D01*
X-27578Y-302D01*
X-27648Y-349D01*
X-27694Y-418D01*
X-27700Y-450D01*
X-27496D01*
Y-500D01*
X-27446D01*
Y-704D01*
X-27414Y-698D01*
X-27345Y-651D01*
X-27330Y-650D01*
X-26499Y-1481D01*
X-26503Y-1500D01*
X-26491Y-1559D01*
X-26458Y-1608D01*
X-26409Y-1641D01*
X-26350Y-1653D01*
X-26291Y-1641D01*
X-26242Y-1608D01*
X-26209Y-1559D01*
X-26197Y-1500D01*
X-26209Y-1441D01*
X-26242Y-1392D01*
X-26291Y-1359D01*
X-26350Y-1347D01*
X-26369Y-1351D01*
X-27204Y-516D01*
Y-417D01*
X-27211Y-382D01*
X-27231Y-352D01*
X-27388Y-195D01*
Y565D01*
X-27235Y718D01*
X-27181Y701D01*
X-27148Y652D01*
X-27099Y619D01*
X-27040Y607D01*
X-26981Y619D01*
X-26932Y652D01*
X-26899Y701D01*
X-26887Y760D01*
X-26874Y776D01*
X-26647D01*
X-26632Y726D01*
X-26658Y708D01*
X-26691Y659D01*
X-26703Y600D01*
X-26691Y541D01*
X-26658Y492D01*
X-26609Y459D01*
X-26550Y447D01*
X-26491Y459D01*
X-26442Y492D01*
X-26409Y541D01*
X-26397Y600D01*
X-26399Y607D01*
X-26258Y748D01*
X-26164D01*
X-26125Y756D01*
X-26092Y778D01*
X-25739Y1131D01*
X-25695Y1104D01*
X-25700Y1086D01*
X-25702Y1074D01*
X-25704Y1062D01*
X-25703Y1058D01*
X-25704Y1054D01*
X-25700Y1043D01*
X-25698Y1031D01*
X-25696Y1028D01*
X-25694Y1024D01*
X-25687Y1015D01*
X-25680Y1005D01*
X-25058Y382D01*
X-25031Y365D01*
X-25000Y358D01*
X-25000Y358D01*
X-24206D01*
X-24196Y345D01*
X-24187Y308D01*
X-24354Y142D01*
X-24474D01*
X-24492Y168D01*
X-24541Y201D01*
X-24600Y213D01*
X-24659Y201D01*
X-24708Y168D01*
X-24741Y119D01*
X-24753Y60D01*
X-24741Y1D01*
X-24708Y-48D01*
X-24659Y-81D01*
X-24600Y-93D01*
X-24541Y-81D01*
X-24492Y-48D01*
X-24474Y-22D01*
X-24320D01*
X-24320Y-22D01*
X-24289Y-15D01*
X-24262Y2D01*
X-24086Y178D01*
X-23239D01*
X-23239Y178D01*
X-23208Y185D01*
X-23181Y202D01*
X-22780Y603D01*
X-20639Y613D01*
X-20624Y617D01*
X-20609Y620D01*
X-20608Y620D01*
X-20608Y620D01*
X-20595Y628D01*
X-20582Y637D01*
X-19941Y1278D01*
X-12399D01*
X-12292Y1172D01*
X-12292Y1172D01*
X-12278Y1163D01*
X-11578Y462D01*
X-11578Y462D01*
X-11551Y445D01*
X-11520Y438D01*
X-11520Y438D01*
X-11474D01*
X-11298Y262D01*
X-11293Y259D01*
X-11290Y256D01*
X-11280Y251D01*
X-11271Y245D01*
X-11266Y244D01*
X-11262Y241D01*
X-10462Y21D01*
X-10451Y21D01*
X-10440Y18D01*
X-10435Y19D01*
X-10430Y19D01*
X-10420Y22D01*
X-10409Y25D01*
X-10231Y98D01*
X-9646Y-23D01*
X-8613Y-276D01*
X-7501Y-587D01*
X-6257Y-973D01*
X-4268Y-1638D01*
X-4268D01*
X-3066Y-2040D01*
X-3065Y-2040D01*
X-3064Y-2040D01*
X-2429Y-2239D01*
X-2421Y-2294D01*
X-2448Y-2312D01*
X-2481Y-2361D01*
X-2493Y-2420D01*
X-2481Y-2479D01*
X-2448Y-2528D01*
X-2399Y-2561D01*
X-2340Y-2573D01*
X-2281Y-2561D01*
X-2277Y-2558D01*
X-2260Y-2562D01*
X-1406D01*
X-1388Y-2588D01*
X-1339Y-2621D01*
X-1280Y-2633D01*
X-1221Y-2621D01*
X-1172Y-2588D01*
X-1139Y-2539D01*
X-1127Y-2480D01*
X-1139Y-2421D01*
X-1142Y-2416D01*
X-1116Y-2366D01*
X-976D01*
X-976Y-2366D01*
X-945Y-2360D01*
X-918Y-2342D01*
X-872Y-2295D01*
X-871Y-2295D01*
X-854Y-2269D01*
X-848Y-2237D01*
Y-2043D01*
X-622Y-1818D01*
X-609Y-1819D01*
X-585Y-1850D01*
X-156D01*
X-162Y-1818D01*
X-209Y-1749D01*
X-278Y-1702D01*
X-343Y-1689D01*
X-340Y-1639D01*
X584Y-1598D01*
X591Y-1596D01*
X599Y-1596D01*
X978Y-1512D01*
X1017Y-1544D01*
Y-1759D01*
X978Y-1791D01*
X960Y-1787D01*
X901Y-1799D01*
X894Y-1804D01*
X889Y-1805D01*
X862Y-1822D01*
X859Y-1827D01*
X852Y-1832D01*
X832Y-1862D01*
X802Y-1902D01*
X770Y-1896D01*
Y-2100D01*
X720D01*
Y-2150D01*
X516D01*
X522Y-2182D01*
X569Y-2251D01*
X638Y-2298D01*
X639Y-2298D01*
X658Y-2353D01*
X639Y-2381D01*
X627Y-2440D01*
X639Y-2499D01*
X672Y-2548D01*
X721Y-2581D01*
X780Y-2593D01*
X839Y-2581D01*
X888Y-2548D01*
X915Y-2508D01*
X922Y-2507D01*
X935Y-2520D01*
X956Y-2552D01*
X956Y-2554D01*
X947Y-2600D01*
X959Y-2659D01*
X992Y-2708D01*
X1041Y-2741D01*
X1100Y-2753D01*
X1106Y-2752D01*
X1148Y-2784D01*
X1159Y-2839D01*
X1184Y-2877D01*
X1189Y-2910D01*
X1184Y-2943D01*
X1159Y-2981D01*
X1147Y-3040D01*
X1148Y-3046D01*
X1106Y-3088D01*
X1100Y-3087D01*
X1041Y-3099D01*
X992Y-3132D01*
X959Y-3181D01*
X947Y-3240D01*
X959Y-3299D01*
X988Y-3342D01*
X992Y-3356D01*
X992Y-3408D01*
X970Y-3441D01*
X958Y-3500D01*
X970Y-3559D01*
X1003Y-3608D01*
X1052Y-3641D01*
X1065Y-3644D01*
X1081Y-3690D01*
X1051Y-3729D01*
X476D01*
X461Y-3679D01*
X471Y-3671D01*
X518Y-3602D01*
X524Y-3570D01*
X116D01*
X122Y-3602D01*
X169Y-3671D01*
X238Y-3718D01*
X253Y-3721D01*
X269Y-3775D01*
X-1181Y-5226D01*
X-1221Y-5199D01*
X-1280Y-5187D01*
X-1339Y-5199D01*
X-1388Y-5232D01*
X-1421Y-5281D01*
X-1433Y-5340D01*
X-1421Y-5399D01*
X-1388Y-5448D01*
X-1339Y-5481D01*
X-1280Y-5493D01*
X-1221Y-5481D01*
X-1192Y-5461D01*
X-1155Y-5459D01*
X-1130Y-5475D01*
X-1108Y-5508D01*
X-1059Y-5541D01*
X-1000Y-5553D01*
X-941Y-5541D01*
X-892Y-5508D01*
X-859Y-5459D01*
X-853Y-5431D01*
X-798Y-5408D01*
X-779Y-5421D01*
X-720Y-5433D01*
X-661Y-5421D01*
X-612Y-5388D01*
X-587Y-5351D01*
X109D01*
X123Y-5354D01*
X150Y-5349D01*
X173Y-5333D01*
X1522Y-3985D01*
X1560Y-4010D01*
X1592Y-4017D01*
X1608Y-4071D01*
X670Y-5009D01*
X621Y-5019D01*
X572Y-5052D01*
X539Y-5101D01*
X527Y-5160D01*
X539Y-5219D01*
X572Y-5268D01*
X621Y-5301D01*
X680Y-5313D01*
X739Y-5301D01*
X788Y-5268D01*
X821Y-5219D01*
X833Y-5160D01*
X821Y-5101D01*
X805Y-5076D01*
X1835Y-4046D01*
X1879Y-4054D01*
X1937Y-4043D01*
X1987Y-4070D01*
Y-4448D01*
X1081Y-5353D01*
X1050Y-5347D01*
X991Y-5359D01*
X942Y-5392D01*
X909Y-5441D01*
X897Y-5500D01*
X901Y-5519D01*
X860Y-5569D01*
X183D01*
X181Y-5561D01*
X148Y-5512D01*
X99Y-5479D01*
X40Y-5467D01*
X-19Y-5479D01*
X-68Y-5512D01*
X-101Y-5561D01*
X-113Y-5620D01*
X-101Y-5679D01*
X-68Y-5728D01*
X-19Y-5761D01*
X40Y-5773D01*
X99Y-5761D01*
X148Y-5728D01*
X159Y-5711D01*
X906D01*
X925Y-5730D01*
X948Y-5746D01*
X975Y-5751D01*
X2220D01*
X2247Y-5746D01*
X2270Y-5730D01*
X3017Y-4984D01*
X3060Y-4993D01*
X3119Y-4981D01*
X3168Y-4948D01*
X3201Y-4899D01*
X3213Y-4840D01*
X3201Y-4781D01*
X3168Y-4732D01*
X3119Y-4699D01*
X3060Y-4687D01*
X3001Y-4699D01*
X2952Y-4732D01*
X2919Y-4781D01*
X2907Y-4840D01*
X2916Y-4883D01*
X2190Y-5609D01*
X1218D01*
X1191Y-5559D01*
X1191Y-5559D01*
X1203Y-5500D01*
X1197Y-5469D01*
X2126Y-4539D01*
X2126Y-4539D01*
X2144Y-4513D01*
X2150Y-4481D01*
Y-3823D01*
X2150Y-3823D01*
X2144Y-3792D01*
X2142Y-3788D01*
Y-3668D01*
X2188Y-3649D01*
X2370Y-3830D01*
X2393Y-3846D01*
X2420Y-3851D01*
X3000D01*
X3027Y-3846D01*
X3050Y-3830D01*
X3499Y-3382D01*
X3545Y-3398D01*
X3549Y-3401D01*
Y-3730D01*
X2424Y-4855D01*
X2399Y-4839D01*
X2340Y-4827D01*
X2281Y-4839D01*
X2232Y-4872D01*
X2199Y-4921D01*
X2187Y-4980D01*
X2199Y-5039D01*
X2232Y-5088D01*
X2281Y-5121D01*
X2340Y-5133D01*
X2399Y-5121D01*
X2448Y-5088D01*
X2481Y-5039D01*
X2491Y-4990D01*
X3670Y-3810D01*
X3686Y-3787D01*
X3691Y-3760D01*
Y-2200D01*
X3729Y-2162D01*
X3744Y-2139D01*
X3750Y-2112D01*
Y-1957D01*
X5566Y-1345D01*
X6859Y-927D01*
X8119Y-555D01*
X9176Y-279D01*
X10133Y-64D01*
X11226Y112D01*
X11235Y115D01*
X11244Y117D01*
X11249Y121D01*
X11256Y123D01*
X11262Y130D01*
X11270Y135D01*
X12174Y1038D01*
X21226D01*
X21701Y563D01*
Y542D01*
X21704Y527D01*
X21707Y512D01*
X21707Y512D01*
X21708Y511D01*
X21716Y498D01*
X21725Y485D01*
X21725Y485D01*
X21725Y485D01*
X21738Y476D01*
X21751Y467D01*
X21751Y467D01*
X21752Y467D01*
X21767Y464D01*
X21782Y461D01*
X23359Y441D01*
X24603Y251D01*
X24604Y251D01*
X24605Y251D01*
X25248Y164D01*
X25268Y111D01*
X25260Y101D01*
X25250Y103D01*
X25191Y91D01*
X25142Y58D01*
X25109Y9D01*
X25097Y-50D01*
X25100Y-64D01*
X25054Y-88D01*
X24997Y-31D01*
X25003Y0D01*
X24991Y59D01*
X24958Y108D01*
X24909Y141D01*
X24850Y153D01*
X24791Y141D01*
X24742Y108D01*
X24709Y59D01*
X24697Y0D01*
X24709Y-59D01*
X24742Y-108D01*
X24791Y-141D01*
X24850Y-153D01*
X24881Y-147D01*
X25392Y-658D01*
X25392Y-658D01*
X25419Y-675D01*
X25450Y-682D01*
X26874D01*
X26892Y-708D01*
X26941Y-741D01*
X27000Y-753D01*
X27059Y-741D01*
X27108Y-708D01*
X27129Y-677D01*
X27179Y-693D01*
Y-817D01*
X27142Y-842D01*
X27109Y-891D01*
X27097Y-950D01*
X27109Y-1009D01*
X27142Y-1058D01*
X27191Y-1091D01*
X27198Y-1093D01*
X27212Y-1140D01*
X26671Y-1682D01*
X26666D01*
X26627Y-1690D01*
X26594Y-1712D01*
X25907Y-2399D01*
X25900Y-2397D01*
X25841Y-2409D01*
X25792Y-2442D01*
X25759Y-2491D01*
X25747Y-2550D01*
X25759Y-2609D01*
X25792Y-2658D01*
X25841Y-2691D01*
X25900Y-2703D01*
X25959Y-2691D01*
X26008Y-2658D01*
X26041Y-2609D01*
X26053Y-2550D01*
X26051Y-2543D01*
X26708Y-1886D01*
X26713D01*
X26752Y-1878D01*
X26785Y-1856D01*
X27572Y-1069D01*
X27594Y-1036D01*
X27602Y-997D01*
Y697D01*
X27594Y736D01*
X27572Y769D01*
X27509Y832D01*
X27476Y854D01*
X27437Y862D01*
X27022D01*
X26891Y994D01*
X26917Y1038D01*
X26977Y1020D01*
X27118Y1006D01*
X27259Y1020D01*
X27394Y1061D01*
X27519Y1128D01*
X27629Y1218D01*
X27718Y1327D01*
X27785Y1452D01*
X27826Y1587D01*
X27840Y1728D01*
X27826Y1869D01*
X27785Y2005D01*
X27718Y2130D01*
X27629Y2239D01*
X27519Y2329D01*
X27394Y2396D01*
X27259Y2437D01*
X27118Y2451D01*
X26977Y2437D01*
X26841Y2396D01*
X26716Y2329D01*
X26607Y2239D01*
X26528Y2144D01*
X26513Y2141D01*
X26461Y2169D01*
X26439Y2202D01*
X26437Y2203D01*
X26448Y2257D01*
X26459Y2259D01*
X26508Y2292D01*
X26541Y2341D01*
X26553Y2400D01*
X26541Y2459D01*
X26508Y2508D01*
X26493Y2518D01*
X26508Y2568D01*
X26574D01*
X26592Y2542D01*
X26641Y2509D01*
X26700Y2497D01*
X26759Y2509D01*
X26808Y2542D01*
X26841Y2591D01*
X26853Y2650D01*
X26841Y2709D01*
X26808Y2758D01*
X26759Y2791D01*
X26700Y2803D01*
X26641Y2791D01*
X26592Y2758D01*
X26574Y2732D01*
X26438D01*
X26398Y2771D01*
X26419Y2816D01*
X26494Y2808D01*
X26699Y2916D01*
X26896Y2982D01*
X27043Y3009D01*
X27192Y3018D01*
X28552D01*
X29469Y2944D01*
D02*
G37*
%LPC*%
G36*
X-28646Y2104D02*
Y1950D01*
X-28492D01*
X-28498Y1982D01*
X-28545Y2051D01*
X-28614Y2098D01*
X-28646Y2104D01*
D02*
G37*
G36*
X-28746D02*
X-28778Y2098D01*
X-28848Y2051D01*
X-28894Y1982D01*
X-28900Y1950D01*
X-28746D01*
Y2104D01*
D02*
G37*
G36*
X-28492Y1850D02*
X-28646D01*
Y1696D01*
X-28614Y1702D01*
X-28545Y1749D01*
X-28498Y1818D01*
X-28492Y1850D01*
D02*
G37*
G36*
X-28746D02*
X-28900D01*
X-28894Y1818D01*
X-28848Y1749D01*
X-28778Y1702D01*
X-28746Y1696D01*
Y1850D01*
D02*
G37*
G36*
X-28046Y904D02*
Y750D01*
X-27892D01*
X-27898Y782D01*
X-27945Y851D01*
X-28014Y898D01*
X-28046Y904D01*
D02*
G37*
G36*
X-28146D02*
X-28178Y898D01*
X-28248Y851D01*
X-28294Y782D01*
X-28300Y750D01*
X-28146D01*
Y904D01*
D02*
G37*
G36*
X-29246D02*
Y750D01*
X-29092D01*
X-29098Y782D01*
X-29145Y851D01*
X-29214Y898D01*
X-29246Y904D01*
D02*
G37*
G36*
X-29346D02*
X-29378Y898D01*
X-29448Y851D01*
X-29494Y782D01*
X-29500Y750D01*
X-29346D01*
Y904D01*
D02*
G37*
G36*
X-27892Y650D02*
X-28046D01*
Y496D01*
X-28014Y502D01*
X-27945Y549D01*
X-27898Y618D01*
X-27892Y650D01*
D02*
G37*
G36*
X-28146D02*
X-28300D01*
X-28294Y618D01*
X-28248Y549D01*
X-28178Y502D01*
X-28146Y496D01*
Y650D01*
D02*
G37*
G36*
X-29092D02*
X-29246D01*
Y496D01*
X-29214Y502D01*
X-29145Y549D01*
X-29098Y618D01*
X-29092Y650D01*
D02*
G37*
G36*
X-29346D02*
X-29500D01*
X-29494Y618D01*
X-29448Y549D01*
X-29378Y502D01*
X-29346Y496D01*
Y650D01*
D02*
G37*
G36*
X-25550Y124D02*
Y-30D01*
X-25396D01*
X-25402Y2D01*
X-25449Y71D01*
X-25518Y118D01*
X-25550Y124D01*
D02*
G37*
G36*
X-25650D02*
X-25682Y118D01*
X-25751Y71D01*
X-25798Y2D01*
X-25804Y-30D01*
X-25650D01*
Y124D01*
D02*
G37*
G36*
X-25396Y-130D02*
X-25550D01*
Y-284D01*
X-25518Y-278D01*
X-25449Y-231D01*
X-25402Y-162D01*
X-25396Y-130D01*
D02*
G37*
G36*
X-25650D02*
X-25804D01*
X-25798Y-162D01*
X-25751Y-231D01*
X-25682Y-278D01*
X-25650Y-284D01*
Y-130D01*
D02*
G37*
G36*
X28954Y-296D02*
Y-450D01*
X29108D01*
X29102Y-418D01*
X29055Y-349D01*
X28986Y-302D01*
X28954Y-296D01*
D02*
G37*
G36*
X28854D02*
X28822Y-302D01*
X28752Y-349D01*
X28706Y-418D01*
X28700Y-450D01*
X28854D01*
Y-296D01*
D02*
G37*
G36*
X-28646D02*
Y-450D01*
X-28492D01*
X-28498Y-418D01*
X-28545Y-349D01*
X-28614Y-302D01*
X-28646Y-296D01*
D02*
G37*
G36*
X-28746D02*
X-28778Y-302D01*
X-28848Y-349D01*
X-28894Y-418D01*
X-28900Y-450D01*
X-28746D01*
Y-296D01*
D02*
G37*
G36*
X29108Y-550D02*
X28954D01*
Y-704D01*
X28986Y-698D01*
X29055Y-651D01*
X29102Y-582D01*
X29108Y-550D01*
D02*
G37*
G36*
X28854D02*
X28700D01*
X28706Y-582D01*
X28752Y-651D01*
X28822Y-698D01*
X28854Y-704D01*
Y-550D01*
D02*
G37*
G36*
X-27546D02*
X-27700D01*
X-27694Y-582D01*
X-27648Y-651D01*
X-27578Y-698D01*
X-27546Y-704D01*
Y-550D01*
D02*
G37*
G36*
X-28492D02*
X-28646D01*
Y-704D01*
X-28614Y-698D01*
X-28545Y-651D01*
X-28498Y-582D01*
X-28492Y-550D01*
D02*
G37*
G36*
X-28746D02*
X-28900D01*
X-28894Y-582D01*
X-28848Y-651D01*
X-28778Y-698D01*
X-28746Y-704D01*
Y-550D01*
D02*
G37*
G36*
X29554Y-1496D02*
Y-1650D01*
X29708D01*
X29702Y-1618D01*
X29655Y-1549D01*
X29586Y-1502D01*
X29554Y-1496D01*
D02*
G37*
G36*
X29454D02*
X29422Y-1502D01*
X29352Y-1549D01*
X29306Y-1618D01*
X29300Y-1650D01*
X29454D01*
Y-1496D01*
D02*
G37*
G36*
X28354D02*
Y-1650D01*
X28508D01*
X28502Y-1618D01*
X28455Y-1549D01*
X28386Y-1502D01*
X28354Y-1496D01*
D02*
G37*
G36*
X28254D02*
X28222Y-1502D01*
X28152Y-1549D01*
X28106Y-1618D01*
X28100Y-1650D01*
X28254D01*
Y-1496D01*
D02*
G37*
G36*
X-28046D02*
Y-1650D01*
X-27892D01*
X-27898Y-1618D01*
X-27945Y-1549D01*
X-28014Y-1502D01*
X-28046Y-1496D01*
D02*
G37*
G36*
X-28146D02*
X-28178Y-1502D01*
X-28248Y-1549D01*
X-28294Y-1618D01*
X-28300Y-1650D01*
X-28146D01*
Y-1496D01*
D02*
G37*
G36*
X-29246D02*
Y-1650D01*
X-29092D01*
X-29098Y-1618D01*
X-29145Y-1549D01*
X-29214Y-1502D01*
X-29246Y-1496D01*
D02*
G37*
G36*
X-29346D02*
X-29378Y-1502D01*
X-29448Y-1549D01*
X-29494Y-1618D01*
X-29500Y-1650D01*
X-29346D01*
Y-1496D01*
D02*
G37*
G36*
X29708Y-1750D02*
X29554D01*
Y-1904D01*
X29586Y-1898D01*
X29655Y-1851D01*
X29702Y-1782D01*
X29708Y-1750D01*
D02*
G37*
G36*
X29454D02*
X29300D01*
X29306Y-1782D01*
X29352Y-1851D01*
X29422Y-1898D01*
X29454Y-1904D01*
Y-1750D01*
D02*
G37*
G36*
X28508D02*
X28354D01*
Y-1904D01*
X28386Y-1898D01*
X28455Y-1851D01*
X28502Y-1782D01*
X28508Y-1750D01*
D02*
G37*
G36*
X28254D02*
X28100D01*
X28106Y-1782D01*
X28152Y-1851D01*
X28222Y-1898D01*
X28254Y-1904D01*
Y-1750D01*
D02*
G37*
G36*
X-27892D02*
X-28046D01*
Y-1904D01*
X-28014Y-1898D01*
X-27945Y-1851D01*
X-27898Y-1782D01*
X-27892Y-1750D01*
D02*
G37*
G36*
X-28146D02*
X-28300D01*
X-28294Y-1782D01*
X-28248Y-1851D01*
X-28178Y-1898D01*
X-28146Y-1904D01*
Y-1750D01*
D02*
G37*
G36*
X-29092D02*
X-29246D01*
Y-1904D01*
X-29214Y-1898D01*
X-29145Y-1851D01*
X-29098Y-1782D01*
X-29092Y-1750D01*
D02*
G37*
G36*
X-29346D02*
X-29500D01*
X-29494Y-1782D01*
X-29448Y-1851D01*
X-29378Y-1898D01*
X-29346Y-1904D01*
Y-1750D01*
D02*
G37*
G36*
X670Y-1896D02*
X638Y-1902D01*
X569Y-1949D01*
X522Y-2018D01*
X516Y-2050D01*
X670D01*
Y-1896D01*
D02*
G37*
G36*
X-156Y-1950D02*
X-310D01*
Y-2104D01*
X-278Y-2098D01*
X-209Y-2051D01*
X-162Y-1982D01*
X-156Y-1950D01*
D02*
G37*
G36*
X-410D02*
X-564D01*
X-558Y-1982D01*
X-511Y-2051D01*
X-442Y-2098D01*
X-410Y-2104D01*
Y-1950D01*
D02*
G37*
G36*
X370Y-2656D02*
Y-2810D01*
X524D01*
X518Y-2778D01*
X471Y-2709D01*
X402Y-2662D01*
X370Y-2656D01*
D02*
G37*
G36*
X270D02*
X238Y-2662D01*
X169Y-2709D01*
X122Y-2778D01*
X116Y-2810D01*
X270D01*
Y-2656D01*
D02*
G37*
G36*
X-290D02*
Y-2810D01*
X-136D01*
X-142Y-2778D01*
X-189Y-2709D01*
X-258Y-2662D01*
X-290Y-2656D01*
D02*
G37*
G36*
X-390D02*
X-422Y-2662D01*
X-491Y-2709D01*
X-538Y-2778D01*
X-544Y-2810D01*
X-390D01*
Y-2656D01*
D02*
G37*
G36*
X28954Y-2696D02*
Y-2850D01*
X29108D01*
X29102Y-2818D01*
X29055Y-2749D01*
X28986Y-2702D01*
X28954Y-2696D01*
D02*
G37*
G36*
X28854D02*
X28822Y-2702D01*
X28752Y-2749D01*
X28706Y-2818D01*
X28700Y-2850D01*
X28854D01*
Y-2696D01*
D02*
G37*
G36*
X27754D02*
Y-2850D01*
X27908D01*
X27902Y-2818D01*
X27855Y-2749D01*
X27786Y-2702D01*
X27754Y-2696D01*
D02*
G37*
G36*
X27654D02*
X27622Y-2702D01*
X27552Y-2749D01*
X27506Y-2818D01*
X27500Y-2850D01*
X27654D01*
Y-2696D01*
D02*
G37*
G36*
X-26246D02*
Y-2850D01*
X-26092D01*
X-26098Y-2818D01*
X-26145Y-2749D01*
X-26214Y-2702D01*
X-26246Y-2696D01*
D02*
G37*
G36*
X-26346D02*
X-26378Y-2702D01*
X-26448Y-2749D01*
X-26494Y-2818D01*
X-26500Y-2850D01*
X-26346D01*
Y-2696D01*
D02*
G37*
G36*
X524Y-2910D02*
X370D01*
Y-3064D01*
X402Y-3058D01*
X471Y-3011D01*
X518Y-2942D01*
X524Y-2910D01*
D02*
G37*
G36*
X270D02*
X116D01*
X122Y-2942D01*
X169Y-3011D01*
X238Y-3058D01*
X270Y-3064D01*
Y-2910D01*
D02*
G37*
G36*
X-136D02*
X-290D01*
Y-3064D01*
X-258Y-3058D01*
X-189Y-3011D01*
X-142Y-2942D01*
X-136Y-2910D01*
D02*
G37*
G36*
X-390D02*
X-544D01*
X-538Y-2942D01*
X-491Y-3011D01*
X-422Y-3058D01*
X-390Y-3064D01*
Y-2910D01*
D02*
G37*
G36*
X-26092Y-2950D02*
X-26246D01*
Y-3104D01*
X-26214Y-3098D01*
X-26145Y-3051D01*
X-26098Y-2982D01*
X-26092Y-2950D01*
D02*
G37*
G36*
X-26346D02*
X-26500D01*
X-26494Y-2982D01*
X-26448Y-3051D01*
X-26378Y-3098D01*
X-26346Y-3104D01*
Y-2950D01*
D02*
G37*
G36*
X29108D02*
X28954D01*
Y-3104D01*
X28986Y-3098D01*
X29055Y-3051D01*
X29102Y-2982D01*
X29108Y-2950D01*
D02*
G37*
G36*
X28854D02*
X28700D01*
X28706Y-2982D01*
X28752Y-3051D01*
X28822Y-3098D01*
X28854Y-3104D01*
Y-2950D01*
D02*
G37*
G36*
X27908D02*
X27754D01*
Y-3104D01*
X27786Y-3098D01*
X27855Y-3051D01*
X27902Y-2982D01*
X27908Y-2950D01*
D02*
G37*
G36*
X27654D02*
X27500D01*
X27506Y-2982D01*
X27552Y-3051D01*
X27622Y-3098D01*
X27654Y-3104D01*
Y-2950D01*
D02*
G37*
G36*
X-2719Y-2515D02*
X-2853Y-2532D01*
X-2978Y-2584D01*
X-3085Y-2666D01*
X-3167Y-2773D01*
X-3219Y-2898D01*
X-3236Y-3031D01*
X-3219Y-3165D01*
X-3167Y-3290D01*
X-3085Y-3397D01*
X-2978Y-3479D01*
X-2853Y-3531D01*
X-2719Y-3548D01*
X-2586Y-3531D01*
X-2461Y-3479D01*
X-2380Y-3417D01*
X-2325Y-3438D01*
X-2321Y-3459D01*
X-2288Y-3508D01*
X-2239Y-3541D01*
X-2180Y-3553D01*
X-2121Y-3541D01*
X-2072Y-3508D01*
X-2040Y-3460D01*
X-2029D01*
X-2001Y-3455D01*
X-1978Y-3439D01*
X-1905Y-3366D01*
X-1888Y-3368D01*
X-1839Y-3401D01*
X-1780Y-3413D01*
X-1721Y-3401D01*
X-1672Y-3368D01*
X-1639Y-3319D01*
X-1627Y-3260D01*
X-1639Y-3201D01*
X-1672Y-3152D01*
X-1721Y-3119D01*
X-1780Y-3107D01*
X-1839Y-3119D01*
X-1888Y-3152D01*
X-1891Y-3157D01*
X-1910Y-3170D01*
X-2036Y-3295D01*
X-2072Y-3292D01*
X-2121Y-3259D01*
X-2180Y-3247D01*
X-2202Y-3251D01*
X-2238Y-3208D01*
X-2220Y-3165D01*
X-2202Y-3031D01*
X-2220Y-2898D01*
X-2272Y-2773D01*
X-2354Y-2666D01*
X-2461Y-2584D01*
X-2586Y-2532D01*
X-2719Y-2515D01*
D02*
G37*
G36*
X370Y-3316D02*
Y-3470D01*
X524D01*
X518Y-3438D01*
X471Y-3369D01*
X402Y-3322D01*
X370Y-3316D01*
D02*
G37*
G36*
X270D02*
X238Y-3322D01*
X169Y-3369D01*
X122Y-3438D01*
X116Y-3470D01*
X270D01*
Y-3316D01*
D02*
G37*
G36*
X-290D02*
Y-3470D01*
X-136D01*
X-142Y-3438D01*
X-189Y-3369D01*
X-258Y-3322D01*
X-290Y-3316D01*
D02*
G37*
G36*
X-390D02*
X-422Y-3322D01*
X-491Y-3369D01*
X-538Y-3438D01*
X-544Y-3470D01*
X-390D01*
Y-3316D01*
D02*
G37*
G36*
X-136Y-3570D02*
X-290D01*
Y-3724D01*
X-258Y-3718D01*
X-189Y-3671D01*
X-142Y-3602D01*
X-136Y-3570D01*
D02*
G37*
G36*
X-390D02*
X-544D01*
X-538Y-3602D01*
X-491Y-3671D01*
X-422Y-3718D01*
X-390Y-3724D01*
Y-3570D01*
D02*
G37*
G36*
X-1680Y-3467D02*
X-1739Y-3479D01*
X-1788Y-3512D01*
X-1821Y-3561D01*
X-1833Y-3620D01*
X-1821Y-3679D01*
X-1821Y-3680D01*
X-1897Y-3756D01*
X-1940Y-3747D01*
X-1999Y-3759D01*
X-2048Y-3792D01*
X-2081Y-3841D01*
X-2093Y-3900D01*
X-2081Y-3959D01*
X-2048Y-4008D01*
X-1999Y-4041D01*
X-1940Y-4053D01*
X-1881Y-4041D01*
X-1832Y-4008D01*
X-1799Y-3959D01*
X-1787Y-3900D01*
X-1796Y-3857D01*
X-1707Y-3768D01*
X-1680Y-3773D01*
X-1621Y-3761D01*
X-1572Y-3728D01*
X-1539Y-3679D01*
X-1527Y-3620D01*
X-1539Y-3561D01*
X-1572Y-3512D01*
X-1621Y-3479D01*
X-1680Y-3467D01*
D02*
G37*
G36*
X28354Y-3896D02*
Y-4050D01*
X28508D01*
X28502Y-4018D01*
X28455Y-3949D01*
X28386Y-3902D01*
X28354Y-3896D01*
D02*
G37*
G36*
X28254D02*
X28222Y-3902D01*
X28152Y-3949D01*
X28106Y-4018D01*
X28100Y-4050D01*
X28254D01*
Y-3896D01*
D02*
G37*
G36*
X28508Y-4150D02*
X28354D01*
Y-4304D01*
X28386Y-4298D01*
X28455Y-4251D01*
X28502Y-4182D01*
X28508Y-4150D01*
D02*
G37*
G36*
X28254D02*
X28100D01*
X28106Y-4182D01*
X28152Y-4251D01*
X28222Y-4298D01*
X28254Y-4304D01*
Y-4150D01*
D02*
G37*
G36*
X-1060Y-4047D02*
X-1119Y-4059D01*
X-1168Y-4092D01*
X-1201Y-4141D01*
X-1213Y-4200D01*
X-1201Y-4259D01*
X-1168Y-4308D01*
X-1119Y-4341D01*
X-1111Y-4343D01*
Y-4453D01*
X-1139Y-4459D01*
X-1188Y-4492D01*
X-1221Y-4541D01*
X-1233Y-4600D01*
X-1221Y-4659D01*
X-1188Y-4708D01*
X-1139Y-4741D01*
X-1080Y-4753D01*
X-1021Y-4741D01*
X-972Y-4708D01*
X-939Y-4659D01*
X-927Y-4600D01*
X-939Y-4541D01*
X-970Y-4494D01*
X-969Y-4485D01*
Y-4319D01*
X-952Y-4308D01*
X-919Y-4259D01*
X-907Y-4200D01*
X-919Y-4141D01*
X-952Y-4092D01*
X-1001Y-4059D01*
X-1060Y-4047D01*
D02*
G37*
G36*
X28954Y-5096D02*
Y-5250D01*
X29108D01*
X29102Y-5218D01*
X29055Y-5149D01*
X28986Y-5102D01*
X28954Y-5096D01*
D02*
G37*
G36*
X28854D02*
X28822Y-5102D01*
X28752Y-5149D01*
X28706Y-5218D01*
X28700Y-5250D01*
X28854D01*
Y-5096D01*
D02*
G37*
G36*
X-2246D02*
Y-5250D01*
X-2092D01*
X-2098Y-5218D01*
X-2145Y-5149D01*
X-2214Y-5102D01*
X-2246Y-5096D01*
D02*
G37*
G36*
X-2346D02*
X-2378Y-5102D01*
X-2448Y-5149D01*
X-2494Y-5218D01*
X-2500Y-5250D01*
X-2346D01*
Y-5096D01*
D02*
G37*
G36*
X-3446D02*
Y-5250D01*
X-3292D01*
X-3298Y-5218D01*
X-3345Y-5149D01*
X-3414Y-5102D01*
X-3446Y-5096D01*
D02*
G37*
G36*
X29108Y-5350D02*
X28954D01*
Y-5504D01*
X28986Y-5498D01*
X29055Y-5451D01*
X29102Y-5382D01*
X29108Y-5350D01*
D02*
G37*
G36*
X28854D02*
X28700D01*
X28706Y-5382D01*
X28752Y-5451D01*
X28822Y-5498D01*
X28854Y-5504D01*
Y-5350D01*
D02*
G37*
G36*
X-2092D02*
X-2246D01*
Y-5504D01*
X-2214Y-5498D01*
X-2145Y-5451D01*
X-2098Y-5382D01*
X-2092Y-5350D01*
D02*
G37*
G36*
X-2346D02*
X-2500D01*
X-2494Y-5382D01*
X-2448Y-5451D01*
X-2378Y-5498D01*
X-2346Y-5504D01*
Y-5350D01*
D02*
G37*
G36*
X-3292D02*
X-3446D01*
Y-5504D01*
X-3414Y-5498D01*
X-3345Y-5451D01*
X-3298Y-5382D01*
X-3292Y-5350D01*
D02*
G37*
G36*
X27118Y-4753D02*
X26977Y-4766D01*
X26841Y-4808D01*
X26716Y-4874D01*
X26607Y-4964D01*
X26517Y-5074D01*
X26450Y-5199D01*
X26409Y-5334D01*
X26395Y-5475D01*
X26409Y-5616D01*
X26450Y-5752D01*
X26517Y-5877D01*
X26607Y-5986D01*
X26716Y-6076D01*
X26841Y-6143D01*
X26977Y-6184D01*
X27118Y-6198D01*
X27259Y-6184D01*
X27394Y-6143D01*
X27519Y-6076D01*
X27629Y-5986D01*
X27718Y-5877D01*
X27785Y-5752D01*
X27826Y-5616D01*
X27840Y-5475D01*
X27826Y-5334D01*
X27785Y-5199D01*
X27718Y-5074D01*
X27629Y-4964D01*
X27519Y-4874D01*
X27394Y-4808D01*
X27259Y-4766D01*
X27118Y-4753D01*
D02*
G37*
G36*
X-27110D02*
X-27251Y-4766D01*
X-27387Y-4808D01*
X-27511Y-4874D01*
X-27621Y-4964D01*
X-27711Y-5074D01*
X-27778Y-5199D01*
X-27819Y-5334D01*
X-27833Y-5475D01*
X-27819Y-5616D01*
X-27778Y-5752D01*
X-27711Y-5877D01*
X-27621Y-5986D01*
X-27511Y-6076D01*
X-27387Y-6143D01*
X-27251Y-6184D01*
X-27110Y-6198D01*
X-26969Y-6184D01*
X-26834Y-6143D01*
X-26709Y-6076D01*
X-26599Y-5986D01*
X-26509Y-5877D01*
X-26442Y-5752D01*
X-26401Y-5616D01*
X-26387Y-5475D01*
X-26401Y-5334D01*
X-26442Y-5199D01*
X-26509Y-5074D01*
X-26599Y-4964D01*
X-26709Y-4874D01*
X-26834Y-4808D01*
X-26969Y-4766D01*
X-27110Y-4753D01*
D02*
G37*
G36*
X28354Y-6296D02*
Y-6450D01*
X28508D01*
X28502Y-6418D01*
X28455Y-6349D01*
X28386Y-6302D01*
X28354Y-6296D01*
D02*
G37*
G36*
X28254D02*
X28222Y-6302D01*
X28152Y-6349D01*
X28106Y-6418D01*
X28100Y-6450D01*
X28254D01*
Y-6296D01*
D02*
G37*
G36*
X27154D02*
Y-6450D01*
X27308D01*
X27302Y-6418D01*
X27255Y-6349D01*
X27186Y-6302D01*
X27154Y-6296D01*
D02*
G37*
G36*
X27054D02*
X27022Y-6302D01*
X26952Y-6349D01*
X26906Y-6418D01*
X26900Y-6450D01*
X27054D01*
Y-6296D01*
D02*
G37*
G36*
X25954D02*
Y-6450D01*
X26108D01*
X26102Y-6418D01*
X26055Y-6349D01*
X25986Y-6302D01*
X25954Y-6296D01*
D02*
G37*
G36*
X25854D02*
X25822Y-6302D01*
X25752Y-6349D01*
X25706Y-6418D01*
X25700Y-6450D01*
X25854D01*
Y-6296D01*
D02*
G37*
G36*
X-25746D02*
X-25778Y-6302D01*
X-25848Y-6349D01*
X-25894Y-6418D01*
X-25900Y-6450D01*
X-25746D01*
Y-6296D01*
D02*
G37*
G36*
X-26846D02*
Y-6450D01*
X-26692D01*
X-26698Y-6418D01*
X-26745Y-6349D01*
X-26814Y-6302D01*
X-26846Y-6296D01*
D02*
G37*
G36*
X-26946D02*
X-26978Y-6302D01*
X-27048Y-6349D01*
X-27094Y-6418D01*
X-27100Y-6450D01*
X-26946D01*
Y-6296D01*
D02*
G37*
G36*
X-28046D02*
Y-6450D01*
X-27892D01*
X-27898Y-6418D01*
X-27945Y-6349D01*
X-28014Y-6302D01*
X-28046Y-6296D01*
D02*
G37*
G36*
X-28146D02*
X-28178Y-6302D01*
X-28248Y-6349D01*
X-28294Y-6418D01*
X-28300Y-6450D01*
X-28146D01*
Y-6296D01*
D02*
G37*
G36*
X-29246D02*
Y-6450D01*
X-29092D01*
X-29098Y-6418D01*
X-29145Y-6349D01*
X-29214Y-6302D01*
X-29246Y-6296D01*
D02*
G37*
G36*
X-29346D02*
X-29378Y-6302D01*
X-29448Y-6349D01*
X-29494Y-6418D01*
X-29500Y-6450D01*
X-29346D01*
Y-6296D01*
D02*
G37*
G36*
X28508Y-6550D02*
X28354D01*
Y-6704D01*
X28386Y-6698D01*
X28455Y-6651D01*
X28502Y-6582D01*
X28508Y-6550D01*
D02*
G37*
G36*
X28254D02*
X28100D01*
X28106Y-6582D01*
X28152Y-6651D01*
X28222Y-6698D01*
X28254Y-6704D01*
Y-6550D01*
D02*
G37*
G36*
X27308D02*
X27154D01*
Y-6704D01*
X27186Y-6698D01*
X27255Y-6651D01*
X27302Y-6582D01*
X27308Y-6550D01*
D02*
G37*
G36*
X27054D02*
X26900D01*
X26906Y-6582D01*
X26952Y-6651D01*
X27022Y-6698D01*
X27054Y-6704D01*
Y-6550D01*
D02*
G37*
G36*
X26108D02*
X25954D01*
Y-6704D01*
X25986Y-6698D01*
X26055Y-6651D01*
X26102Y-6582D01*
X26108Y-6550D01*
D02*
G37*
G36*
X25854D02*
X25700D01*
X25706Y-6582D01*
X25752Y-6651D01*
X25822Y-6698D01*
X25854Y-6704D01*
Y-6550D01*
D02*
G37*
G36*
X-25746D02*
X-25900D01*
X-25894Y-6582D01*
X-25848Y-6651D01*
X-25778Y-6698D01*
X-25746Y-6704D01*
Y-6550D01*
D02*
G37*
G36*
X-26692D02*
X-26846D01*
Y-6704D01*
X-26814Y-6698D01*
X-26745Y-6651D01*
X-26698Y-6582D01*
X-26692Y-6550D01*
D02*
G37*
G36*
X-26946D02*
X-27100D01*
X-27094Y-6582D01*
X-27048Y-6651D01*
X-26978Y-6698D01*
X-26946Y-6704D01*
Y-6550D01*
D02*
G37*
G36*
X-27892D02*
X-28046D01*
Y-6704D01*
X-28014Y-6698D01*
X-27945Y-6651D01*
X-27898Y-6582D01*
X-27892Y-6550D01*
D02*
G37*
G36*
X-28146D02*
X-28300D01*
X-28294Y-6582D01*
X-28248Y-6651D01*
X-28178Y-6698D01*
X-28146Y-6704D01*
Y-6550D01*
D02*
G37*
G36*
X2616Y-5711D02*
X2483Y-5729D01*
X2358Y-5781D01*
X2251Y-5863D01*
X2169Y-5970D01*
X2117Y-6095D01*
X2100Y-6228D01*
X2117Y-6362D01*
X2169Y-6487D01*
X2251Y-6594D01*
X2358Y-6676D01*
X2483Y-6728D01*
X2616Y-6745D01*
X2750Y-6728D01*
X2875Y-6676D01*
X2982Y-6594D01*
X3064Y-6487D01*
X3116Y-6362D01*
X3133Y-6228D01*
X3116Y-6095D01*
X3064Y-5970D01*
X2982Y-5863D01*
X2875Y-5781D01*
X2750Y-5729D01*
X2616Y-5711D01*
D02*
G37*
G36*
X-2609D02*
X-2743Y-5729D01*
X-2867Y-5781D01*
X-2974Y-5863D01*
X-3056Y-5970D01*
X-3108Y-6095D01*
X-3126Y-6228D01*
X-3108Y-6362D01*
X-3056Y-6487D01*
X-2974Y-6594D01*
X-2867Y-6676D01*
X-2743Y-6728D01*
X-2609Y-6745D01*
X-2475Y-6728D01*
X-2350Y-6676D01*
X-2243Y-6594D01*
X-2161Y-6487D01*
X-2110Y-6362D01*
X-2092Y-6228D01*
X-2110Y-6095D01*
X-2161Y-5970D01*
X-2243Y-5863D01*
X-2350Y-5781D01*
X-2475Y-5729D01*
X-2609Y-5711D01*
D02*
G37*
G36*
X3654Y-7496D02*
X3622Y-7502D01*
X3552Y-7549D01*
X3506Y-7618D01*
X3500Y-7650D01*
X3654D01*
Y-7496D01*
D02*
G37*
G36*
X-3446D02*
Y-7650D01*
X-3292D01*
X-3298Y-7618D01*
X-3345Y-7549D01*
X-3414Y-7502D01*
X-3446Y-7496D01*
D02*
G37*
G36*
X-3546D02*
X-3578Y-7502D01*
X-3648Y-7549D01*
X-3694Y-7618D01*
X-3700Y-7650D01*
X-3546D01*
Y-7496D01*
D02*
G37*
G36*
X3654Y-7750D02*
X3500D01*
X3506Y-7782D01*
X3552Y-7851D01*
X3622Y-7898D01*
X3654Y-7904D01*
Y-7750D01*
D02*
G37*
G36*
X-3292D02*
X-3446D01*
Y-7904D01*
X-3414Y-7898D01*
X-3345Y-7851D01*
X-3298Y-7782D01*
X-3292Y-7750D01*
D02*
G37*
G36*
X-3546D02*
X-3700D01*
X-3694Y-7782D01*
X-3648Y-7851D01*
X-3578Y-7898D01*
X-3546Y-7904D01*
Y-7750D01*
D02*
G37*
G36*
X-3892Y-8950D02*
X-4046D01*
Y-9104D01*
X-4014Y-9098D01*
X-3945Y-9051D01*
X-3898Y-8982D01*
X-3892Y-8950D01*
D02*
G37*
G36*
X4947Y-9416D02*
X4911Y-9429D01*
X4847Y-9468D01*
X4803Y-9529D01*
X4785Y-9602D01*
X4796Y-9676D01*
X4823Y-9749D01*
X5040Y-9670D01*
X4947Y-9416D01*
D02*
G37*
G36*
X-4846Y-9528D02*
X-4934Y-9539D01*
X-4969Y-9554D01*
X-4828Y-9799D01*
X-4583Y-9657D01*
X-4606Y-9627D01*
X-4677Y-9573D01*
X-4758Y-9539D01*
X-4846Y-9528D01*
D02*
G37*
G36*
X5385Y-9651D02*
X5168Y-9730D01*
X5260Y-9984D01*
X5297Y-9971D01*
X5361Y-9932D01*
X5405Y-9871D01*
X5423Y-9798D01*
X5411Y-9724D01*
X5385Y-9651D01*
D02*
G37*
G36*
X-5056Y-9604D02*
X-5086Y-9627D01*
X-5140Y-9697D01*
X-5174Y-9779D01*
X-5185Y-9867D01*
X-5174Y-9955D01*
X-5159Y-9990D01*
X-4914Y-9849D01*
X-5056Y-9604D01*
D02*
G37*
G36*
X5074Y-9764D02*
X4857Y-9843D01*
X4884Y-9916D01*
X4923Y-9980D01*
X4983Y-10025D01*
X5056Y-10043D01*
X5130Y-10031D01*
X5166Y-10018D01*
X5074Y-9764D01*
D02*
G37*
G36*
X-4533Y-9744D02*
X-4778Y-9885D01*
X-4637Y-10130D01*
X-4606Y-10107D01*
X-4552Y-10037D01*
X-4519Y-9955D01*
X-4507Y-9867D01*
X-4519Y-9779D01*
X-4533Y-9744D01*
D02*
G37*
G36*
X-4864Y-9935D02*
X-5109Y-10077D01*
X-5086Y-10107D01*
X-5016Y-10161D01*
X-4934Y-10195D01*
X-4846Y-10206D01*
X-4758Y-10195D01*
X-4723Y-10180D01*
X-4864Y-9935D01*
D02*
G37*
G36*
X-4163Y-9771D02*
X-4235Y-9781D01*
X-4302Y-9809D01*
X-4360Y-9853D01*
X-4404Y-9911D01*
X-4432Y-9978D01*
X-4442Y-10050D01*
X-4432Y-10122D01*
X-4404Y-10189D01*
X-4360Y-10247D01*
X-4302Y-10291D01*
X-4235Y-10319D01*
X-4163Y-10329D01*
X-4091Y-10319D01*
X-4024Y-10291D01*
X-3966Y-10247D01*
X-3922Y-10189D01*
X-3894Y-10122D01*
X-3885Y-10050D01*
X-3894Y-9978D01*
X-3922Y-9911D01*
X-3966Y-9853D01*
X-4024Y-9809D01*
X-4091Y-9781D01*
X-4163Y-9771D01*
D02*
G37*
G36*
X3595Y-9984D02*
X3545Y-9992D01*
X3378Y-10052D01*
X3334Y-10079D01*
X3304Y-10120D01*
X3292Y-10170D01*
X3300Y-10220D01*
X3387Y-10461D01*
X3414Y-10505D01*
X3455Y-10535D01*
X3505Y-10547D01*
X3555Y-10539D01*
X3722Y-10479D01*
X3766Y-10452D01*
X3796Y-10411D01*
X3808Y-10361D01*
X3800Y-10311D01*
X3713Y-10070D01*
X3686Y-10026D01*
X3645Y-9996D01*
X3595Y-9984D01*
D02*
G37*
G36*
X-5029Y-10271D02*
X-5101Y-10281D01*
X-5168Y-10309D01*
X-5226Y-10353D01*
X-5270Y-10411D01*
X-5298Y-10478D01*
X-5308Y-10550D01*
X-5298Y-10622D01*
X-5270Y-10689D01*
X-5226Y-10747D01*
X-5168Y-10791D01*
X-5101Y-10819D01*
X-5029Y-10829D01*
X-4957Y-10819D01*
X-4890Y-10791D01*
X-4832Y-10747D01*
X-4788Y-10689D01*
X-4760Y-10622D01*
X-4751Y-10550D01*
X-4760Y-10478D01*
X-4788Y-10411D01*
X-4832Y-10353D01*
X-4890Y-10309D01*
X-4957Y-10281D01*
X-5029Y-10271D01*
D02*
G37*
G36*
X-4346Y-10454D02*
X-4418Y-10464D01*
X-4485Y-10492D01*
X-4543Y-10536D01*
X-4587Y-10594D01*
X-4615Y-10661D01*
X-4625Y-10733D01*
X-4615Y-10805D01*
X-4587Y-10872D01*
X-4543Y-10930D01*
X-4485Y-10974D01*
X-4418Y-11002D01*
X-4346Y-11012D01*
X-4274Y-11002D01*
X-4207Y-10974D01*
X-4149Y-10930D01*
X-4105Y-10872D01*
X-4077Y-10805D01*
X-4068Y-10733D01*
X-4077Y-10661D01*
X-4105Y-10594D01*
X-4149Y-10536D01*
X-4207Y-10492D01*
X-4274Y-10464D01*
X-4346Y-10454D01*
D02*
G37*
G36*
X-4146Y-11096D02*
X-4178Y-11102D01*
X-4248Y-11149D01*
X-4294Y-11218D01*
X-4300Y-11250D01*
X-4146D01*
Y-11096D01*
D02*
G37*
G36*
X-5246D02*
Y-11250D01*
X-5092D01*
X-5098Y-11218D01*
X-5145Y-11149D01*
X-5214Y-11102D01*
X-5246Y-11096D01*
D02*
G37*
G36*
X-4146Y-11350D02*
X-4300D01*
X-4294Y-11382D01*
X-4248Y-11451D01*
X-4178Y-11498D01*
X-4146Y-11504D01*
Y-11350D01*
D02*
G37*
G36*
X-5092D02*
X-5246D01*
Y-11504D01*
X-5214Y-11498D01*
X-5145Y-11451D01*
X-5098Y-11382D01*
X-5092Y-11350D01*
D02*
G37*
%LPD*%
D11*
X-25768Y2100D02*
G03*
X-25731Y2115I0J52D01*
G01*
X-25561D01*
X-25800Y2100D02*
X-25768D01*
X-27103Y980D02*
X-26800D01*
X-26400Y1840D02*
X-26260Y1980D01*
X-26400Y1380D02*
Y1840D01*
X-26800Y980D02*
X-26400Y1380D01*
X-27480Y603D02*
X-27103Y980D01*
X-27480Y-233D02*
Y603D01*
Y-233D02*
X-27296Y-417D01*
Y-554D02*
Y-417D01*
Y-554D02*
X-26350Y-1500D01*
X-26260Y1980D02*
X-26000D01*
Y2050D01*
X-25800D01*
Y2100D01*
D12*
X1461Y-1850D02*
D03*
X-1354D02*
D03*
D19*
X988Y-2208D02*
G03*
X920Y-2180I-68J-68D01*
G01*
X-24120Y260D02*
X-23239D01*
X-24320Y60D02*
X-24120Y260D01*
X-24600Y60D02*
X-24320D01*
X25687Y1463D02*
X25770Y1380D01*
X25680D02*
X25770D01*
X25687Y1463D02*
X26600Y550D01*
X25503Y1764D02*
X25553Y1714D01*
X25491Y1764D02*
X25503D01*
X920Y-2180D02*
Y-1880D01*
X1813Y-2310D02*
X1886Y-2237D01*
X1090Y-2310D02*
X1813D01*
X2120Y-1911D02*
Y-1840D01*
Y-1911D02*
X2129Y-1920D01*
X1886Y-2163D02*
X2129Y-1920D01*
X-25622Y1062D02*
X-25550Y1300D01*
X-25622Y1062D02*
X-25000Y440D01*
X24100Y540D02*
X24554Y468D01*
X24582Y464D01*
X25553D01*
X23967Y673D02*
X24100Y540D01*
X23366Y673D02*
X23967D01*
X24616Y331D02*
X25429Y222D01*
X23366Y523D02*
X24616Y331D01*
X24116Y1837D02*
X24953D01*
Y1837D01*
X25491Y1764D01*
X10118Y16D02*
X11213Y193D01*
X9157Y-200D02*
X10118Y16D01*
X11213Y193D02*
X12140Y1120D01*
X10952Y283D02*
X11163Y313D01*
X12140Y1120D02*
X21260D01*
X3678Y-1895D02*
X5540Y-1267D01*
X21260Y1120D02*
X21783Y597D01*
Y542D02*
Y597D01*
X5540Y-1267D02*
X6834Y-849D01*
X8097Y-476D02*
X9157Y-200D01*
X21783Y542D02*
X23366Y523D01*
X6834Y-849D02*
X8097Y-476D01*
X10118Y166D02*
X10952Y283D01*
X12150Y1300D02*
X21440D01*
X11163Y313D02*
X12150Y1300D01*
X-25492Y1735D02*
X-24500Y1878D01*
X-24120Y1910D01*
X-23774Y1858D01*
X-22814Y1885D01*
X-25000Y440D02*
X-24160D01*
X-23600Y1000D02*
X-23449D01*
X-24160Y440D02*
X-23600Y1000D01*
X-23239Y260D02*
X-22814Y685D01*
X-11508Y1610D02*
X-11100Y1580D01*
X-10100Y1400D01*
X-10065Y1347D01*
X-10440Y100D02*
X-10239Y183D01*
X-11240Y320D02*
X-10440Y100D01*
X-11440Y520D02*
X-11240Y320D01*
X-11520Y520D02*
X-11440D01*
X-12230Y1230D02*
X-11520Y520D01*
X-10239Y183D02*
X-9628Y57D01*
X-2340Y-2420D02*
X-2319D01*
X-2260Y-2479D01*
Y-2480D02*
Y-2479D01*
X1900Y-3440D02*
X1908D01*
X1990Y-3358D01*
X2060Y-3428D01*
Y-3814D02*
Y-3428D01*
Y-3814D02*
X2069Y-3823D01*
X988Y-2208D02*
X1090Y-2310D01*
X1886Y-2237D02*
Y-2163D01*
X26404Y2650D02*
X26700D01*
X26240Y2814D02*
X26404Y2650D01*
X25553Y2814D02*
X26240D01*
X-699Y-420D02*
X88D01*
X960Y-1940D02*
Y-1920D01*
X960Y-1920D01*
X920Y-1880D02*
X960Y-1920D01*
X-1353Y-2284D02*
X-976D01*
X-929Y-2009D02*
X-484Y-1564D01*
X-929Y-2237D02*
Y-2009D01*
X-976Y-2284D02*
X-929Y-2237D01*
X-484Y-1564D02*
X581Y-1517D01*
X1037Y-1416D02*
X2009D01*
X581Y-1517D02*
X1037Y-1416D01*
X21440Y1300D02*
X22054Y686D01*
X22320D01*
X23366Y673D01*
X-12050Y1350D02*
X-11750D01*
X-12214Y1514D02*
X-12050Y1350D01*
X-13323Y1617D02*
X-12214Y1514D01*
X-12235Y1230D02*
X-12230D01*
X-19975Y1360D02*
X-12365D01*
X-12235Y1230D01*
X-22814Y685D02*
X-20640Y695D01*
X-19975Y1360D01*
X-9628Y57D02*
X-8592Y-197D01*
X-7478Y-509D01*
X-6232Y-895D01*
X-4243Y-1560D01*
X-3040Y-1963D01*
X-2192Y-2228D01*
X-1809Y-2332D01*
X-1400D01*
X-1353Y-2284D01*
X2009Y-1416D02*
X2224Y-1200D01*
X2400D01*
X4920Y-360D01*
X4980D01*
X5319Y-699D01*
X6834D01*
X8097Y-326D01*
X9157Y-50D01*
X10118Y166D01*
X1050Y-5500D02*
X2069Y-4481D01*
Y-3823D01*
X-2260Y-2480D02*
X-1280D01*
X1364Y-1212D02*
X1512D01*
X531Y-1397D02*
X1364Y-1212D01*
X2115Y-1140D02*
X2248Y-1006D01*
X1584Y-1140D02*
X2115D01*
X1512Y-1212D02*
X1584Y-1140D01*
X-23449Y1000D02*
X-22764Y1685D01*
X-20503Y1695D01*
X-17573Y1714D01*
X-15615Y1712D02*
X-14404Y1680D01*
X-13323Y1617D01*
X-17573Y1714D02*
X-15615Y1712D01*
X-533Y-669D02*
X-476Y-673D01*
X-750Y-630D02*
X-533Y-669D01*
X-454D01*
X-448Y-675D01*
X-224Y-810D02*
X-8Y-789D01*
X-224Y-810D02*
X-224Y-810D01*
X-269Y-490D02*
Y-453D01*
X-1427Y-636D02*
X-887Y-750D01*
X-448Y-675D02*
X-356Y-682D01*
X-476Y-673D02*
X-448Y-675D01*
X24850Y0D02*
X25450Y-600D01*
X27000D01*
X26297Y465D02*
X26462Y300D01*
X26550D01*
X26850Y250D02*
Y400D01*
X26700Y550D02*
X26850Y400D01*
X26600Y550D02*
X26700D01*
X104Y-650D02*
X215Y-661D01*
X-116Y-669D02*
X104Y-650D01*
X-200Y-682D02*
X-116Y-669D01*
X-356Y-682D02*
X-200D01*
X-780Y-600D02*
X-750Y-630D01*
X-887Y-600D02*
X-780D01*
X-1374Y-350D02*
X-1053Y-418D01*
X-702D01*
X-699Y-420D01*
X-2192Y-128D02*
X-1374Y-350D01*
X292Y-440D02*
X531Y-497D01*
X88Y-420D02*
X292Y-440D01*
X531Y-497D02*
X949Y-436D01*
X25553Y465D02*
X26297D01*
X-25561Y2265D02*
X-24443Y2410D01*
X-23774Y2458D01*
X-25561Y2415D02*
X-24443Y2560D01*
X-1343Y-1253D02*
X-887Y-1350D01*
X-1427Y-1235D02*
X-1343Y-1253D01*
X-224Y-1410D02*
X-8Y-1389D01*
X-487Y-1402D02*
X-224Y-1410D01*
X215Y-1411D02*
X531Y-1397D01*
X-17623Y1914D02*
X-15665Y1912D01*
X-14454Y1880D02*
X-13373Y1817D01*
X-12413Y1728D01*
X-10065Y1347D02*
X-9628Y1257D01*
X-7478Y692D02*
X-6232Y305D01*
X-4243Y-360D02*
X-3040Y-763D01*
X-8Y-1389D02*
X215Y-1411D01*
X-887Y-1350D02*
X-487Y-1402D01*
X-2192Y-1028D02*
X-1427Y-1235D01*
X5540Y83D02*
X6834Y501D01*
X8097Y874D02*
X9157Y1150D01*
X12005Y1681D02*
X12993Y1787D01*
X14030Y1860D02*
X15173Y1903D01*
X16708Y1918D02*
X19435Y1900D01*
X23366Y1873D02*
X24116Y1837D01*
X-8592Y1003D02*
X-7478Y692D01*
X2248Y-1006D02*
X3273Y-681D01*
X11024Y1536D02*
X12005Y1681D01*
X-15665Y1912D02*
X-14454Y1880D01*
X-20553Y1895D02*
X-17623Y1914D01*
X-22814Y1885D02*
X-20553Y1895D01*
X-9628Y1257D02*
X-8592Y1003D01*
X-12413Y1728D02*
X-11508Y1610D01*
X9157Y1150D02*
X10118Y1366D01*
X19435Y1900D02*
X21783Y1892D01*
X15173Y1903D02*
X16708Y1918D01*
X12993Y1787D02*
X14030Y1860D01*
X21783Y1892D02*
X23366Y1873D01*
X-3040Y-763D02*
X-2192Y-1028D01*
X-6232Y305D02*
X-4243Y-360D01*
X10118Y1366D02*
X11024Y1536D01*
X6834Y501D02*
X8097Y874D01*
X3273Y-681D02*
X5540Y83D01*
X215Y-811D02*
X531Y-797D01*
X-23774Y2458D02*
X-22814Y2485D01*
X-17623Y2514D02*
X-15665Y2512D01*
X-14454Y2480D02*
X-13373Y2417D01*
X-12413Y2328D01*
X-10622Y2062D02*
X-9628Y1857D01*
X-7478Y1292D02*
X-6232Y905D01*
X-4243Y240D02*
X-3040Y-163D01*
X-8Y-789D02*
X215Y-811D01*
X-2192Y-428D02*
X-1427Y-636D01*
X949Y-736D02*
X1506Y-612D01*
X2248Y-406D01*
X5540Y683D02*
X6834Y1101D01*
X8097Y1474D02*
X9157Y1750D01*
X12005Y2281D02*
X12993Y2387D01*
X14030Y2460D02*
X15173Y2503D01*
X16708Y2518D02*
X19435Y2500D01*
X24116Y2437D02*
X24730Y2375D01*
X25553Y2264D01*
X23366Y2473D02*
X24116Y2437D01*
X-11508Y2210D02*
X-10622Y2062D01*
X-8592Y1603D02*
X-7478Y1292D01*
X2248Y-406D02*
X3273Y-81D01*
X11024Y2136D02*
X12005Y2281D01*
X-15665Y2512D02*
X-14454Y2480D01*
X-20553Y2495D02*
X-17623Y2514D01*
X-22814Y2485D02*
X-20553Y2495D01*
X-9628Y1857D02*
X-8592Y1603D01*
X-12413Y2328D02*
X-11508Y2210D01*
X531Y-797D02*
X949Y-736D01*
X9157Y1750D02*
X10118Y1966D01*
X19435Y2500D02*
X21783Y2492D01*
X15173Y2503D02*
X16708Y2518D01*
X12993Y2387D02*
X14030Y2460D01*
X21783Y2492D02*
X23366Y2473D01*
X-3040Y-163D02*
X-2192Y-428D01*
X-6232Y905D02*
X-4243Y240D01*
X10118Y1966D02*
X11024Y2136D01*
X6834Y1101D02*
X8097Y1474D01*
X3273Y-81D02*
X5540Y683D01*
X215Y-661D02*
X531Y-647D01*
X-23774Y2608D02*
X-22814Y2635D01*
X-24443Y2560D02*
X-23774Y2608D01*
X-17623Y2664D02*
X-15665Y2662D01*
X-14454Y2630D02*
X-13373Y2567D01*
X-12413Y2478D01*
X-10622Y2212D02*
X-9628Y2007D01*
X-7478Y1442D02*
X-6232Y1055D01*
X-4243Y390D02*
X-3040Y-13D01*
X-1427Y-485D02*
X-887Y-600D01*
X-2192Y-278D02*
X-1427Y-485D01*
X949Y-586D02*
X1506Y-462D01*
X2248Y-256D01*
X5540Y833D02*
X6834Y1251D01*
X8097Y1624D02*
X9157Y1900D01*
X12005Y2431D02*
X12993Y2537D01*
X14030Y2610D02*
X15173Y2653D01*
X16708Y2668D02*
X19435Y2650D01*
X24116Y2587D02*
X24730Y2525D01*
X25553Y2414D01*
X23366Y2623D02*
X24116Y2587D01*
X-11508Y2360D02*
X-10622Y2212D01*
X-8592Y1753D02*
X-7478Y1442D01*
X2248Y-256D02*
X3273Y69D01*
X11024Y2286D02*
X12005Y2431D01*
X-15665Y2662D02*
X-14454Y2630D01*
X-20553Y2645D02*
X-17623Y2664D01*
X-22814Y2635D02*
X-20553Y2645D01*
X-9628Y2007D02*
X-8592Y1753D01*
X-12413Y2478D02*
X-11508Y2360D01*
X531Y-647D02*
X949Y-586D01*
X9157Y1900D02*
X10118Y2116D01*
X19435Y2650D02*
X21783Y2642D01*
X15173Y2653D02*
X16708Y2668D01*
X12993Y2537D02*
X14030Y2610D01*
X21783Y2642D02*
X23366Y2623D01*
X-3040Y-13D02*
X-2192Y-278D01*
X-6232Y1055D02*
X-4243Y390D01*
X10118Y2116D02*
X11024Y2286D01*
X6834Y1251D02*
X8097Y1624D01*
X3273Y69D02*
X5540Y833D01*
X-23774Y2758D02*
X-22814Y2785D01*
X-24443Y2710D02*
X-23774Y2758D01*
X-17623Y2814D02*
X-15665Y2812D01*
X-14454Y2780D02*
X-13373Y2717D01*
X-12413Y2628D01*
X-10622Y2362D02*
X-9628Y2157D01*
X-7478Y1592D02*
X-6232Y1205D01*
X-4243Y540D02*
X-3040Y137D01*
X949Y-436D02*
X1506Y-312D01*
X2248Y-106D01*
X5540Y983D02*
X6834Y1401D01*
X8097Y1774D02*
X9157Y2050D01*
X12005Y2581D02*
X12993Y2688D01*
X14030Y2760D02*
X15173Y2803D01*
X16708Y2818D02*
X19435Y2800D01*
X24116Y2737D02*
X24730Y2675D01*
X25553Y2564D01*
X23366Y2773D02*
X24116Y2737D01*
X-11508Y2510D02*
X-10622Y2362D01*
X-8592Y1903D02*
X-7478Y1592D01*
X2248Y-106D02*
X3273Y219D01*
X11024Y2436D02*
X12005Y2581D01*
X-15665Y2812D02*
X-14454Y2780D01*
X-20553Y2795D02*
X-17623Y2814D01*
X-22814Y2785D02*
X-20553Y2795D01*
X-25561Y2565D02*
X-24443Y2710D01*
X-9628Y2157D02*
X-8592Y1903D01*
X-12413Y2628D02*
X-11508Y2510D01*
X9157Y2050D02*
X10118Y2266D01*
X19435Y2800D02*
X21783Y2792D01*
X15173Y2803D02*
X16708Y2818D01*
X12993Y2688D02*
X14030Y2760D01*
X21783Y2792D02*
X23366Y2773D01*
X-3040Y137D02*
X-2192Y-128D01*
X-6232Y1205D02*
X-4243Y540D01*
X10118Y2266D02*
X11024Y2436D01*
X6834Y1401D02*
X8097Y1774D01*
X3273Y219D02*
X5540Y983D01*
D20*
X40Y-5620D02*
G03*
X88Y-5640I48J48D01*
G01*
X-26246Y980D02*
X-25492Y1735D01*
X-26354Y980D02*
X-26246D01*
X-26487Y847D02*
X-26354Y980D01*
X-26953Y847D02*
X-26487D01*
X-27040Y760D02*
X-26953Y847D01*
X-2340Y-1780D02*
X-2320D01*
X-2020Y-1480D01*
X25746Y1714D02*
X27180Y280D01*
X25553Y1714D02*
X25746D01*
X1859Y-2420D02*
X1996Y-2283D01*
X1044Y-2420D02*
X1859D01*
X1019Y-2394D02*
X1044Y-2420D01*
X826Y-2394D02*
X1019D01*
X780Y-2440D02*
X826Y-2394D01*
X1898Y-2520D02*
X1900D01*
X1818Y-2600D02*
X1898Y-2520D01*
X1100Y-2600D02*
X1818D01*
X1939Y-2620D02*
X1942D01*
X1819Y-2740D02*
X1939Y-2620D01*
X1340Y-2740D02*
X1819D01*
X1981Y-2720D02*
X1983D01*
X1861Y-2840D02*
X1981Y-2720D01*
X1540Y-2840D02*
X1861D01*
X2800Y-2044D02*
Y-1860D01*
X2025Y-2820D02*
X2800Y-2044D01*
X2022Y-2820D02*
X2025D01*
X1602Y-3240D02*
X2022Y-2820D01*
X2700Y-2003D02*
Y-1723D01*
X1983Y-2720D02*
X2700Y-2003D01*
X2600Y-1962D02*
Y-1455D01*
X1942Y-2620D02*
X2600Y-1962D01*
X2500Y-1861D02*
Y-1779D01*
X2096Y-2266D02*
X2500Y-1861D01*
X2096Y-2324D02*
Y-2266D01*
X1900Y-2520D02*
X2096Y-2324D01*
X1996Y-2224D02*
X2400Y-1820D01*
X1996Y-2283D02*
Y-2224D01*
X2160Y-1580D02*
Y-1540D01*
Y-1580D02*
X2400Y-1820D01*
X1808Y-3175D02*
X1963D01*
X25459Y50D02*
X25650D01*
X25429Y222D02*
X25567Y300D01*
X3678Y-2112D02*
Y-1895D01*
X3620Y-2170D02*
X3678Y-2112D01*
X3620Y-3760D02*
Y-2170D01*
X2380Y-5000D02*
X3620Y-3760D01*
X2340Y-4980D02*
X2380Y-5000D01*
X26070Y300D02*
X26300Y70D01*
X25567Y300D02*
X26070D01*
X26300Y70D02*
X26680D01*
X27250Y-500D01*
Y-950D02*
Y-500D01*
X2420Y-3780D02*
X3000D01*
X2170Y-3530D02*
X2420Y-3780D01*
X2170Y-3530D02*
Y-3382D01*
X2102Y-3314D02*
X2170Y-3382D01*
X3000Y-3780D02*
X3460Y-3320D01*
Y-1620D01*
X3380Y-1540D02*
X3460Y-1620D01*
X2102Y-3314D02*
Y-3314D01*
X2069Y-3281D02*
X2102Y-3314D01*
X1963Y-3175D02*
X2069Y-3281D01*
X1420Y-3660D02*
X1436Y-3676D01*
X1525Y-3880D02*
X1608D01*
X1619Y-3869D01*
X1436Y-3676D02*
X1444D01*
X1619Y-3869D02*
Y-3794D01*
X1779Y-3634D01*
X1524Y-3460D02*
X1808Y-3175D01*
X1701Y-3704D02*
Y-3673D01*
X1111Y-3500D02*
Y-3469D01*
X345Y-3800D02*
X1200D01*
X685Y-4570D02*
X1380Y-3875D01*
X123Y-5283D02*
X1525Y-3880D01*
X1120Y-3460D02*
X1524D01*
X1100Y-3240D02*
X1602D01*
X1300Y-3040D02*
X1320Y-3020D01*
X1360D02*
X1540Y-2840D01*
X1300Y-2780D02*
X1340Y-2740D01*
X680Y-5100D02*
X1879Y-3901D01*
X-265Y-4570D02*
X685D01*
X26264Y2264D02*
X26400Y2400D01*
X25553Y2264D02*
X26264D01*
X26104Y2450D02*
X26154Y2400D01*
X25588Y2600D02*
X25854D01*
X25567Y2400D02*
X26154D01*
X27180Y280D02*
X27260D01*
X1380Y-3875D02*
Y-3700D01*
X980Y-1640D02*
X1062Y-1722D01*
X1333D01*
X1461Y-1850D01*
X-1164Y-5309D02*
X345Y-3800D01*
X-1225Y-5309D02*
X-1164D01*
X-1256Y-5340D02*
X-1225Y-5309D01*
X-900Y-5285D02*
Y-5205D01*
X-1000Y-5385D02*
X-900Y-5285D01*
X-1000Y-5400D02*
Y-5385D01*
X120Y-5280D02*
X123Y-5283D01*
X-720Y-5280D02*
X120D01*
X-900Y-5205D02*
X-265Y-4570D01*
X2420Y-1699D02*
X2500Y-1779D01*
X2420Y-1699D02*
Y-1432D01*
X2400Y-1412D02*
X2420Y-1432D01*
X2600Y-1455D02*
X2733Y-1322D01*
Y-1305D01*
X2700Y-1723D02*
X2800Y-1623D01*
Y-1580D01*
Y-1860D02*
X3100Y-1560D01*
X1111Y-3469D02*
X1120Y-3460D01*
X1380Y-3700D02*
X1420Y-3660D01*
X1320Y-3020D02*
X1360D01*
X1520Y-3880D02*
X1525D01*
X1701Y-3704D01*
X680Y-5160D02*
Y-5100D01*
X-2020Y-1480D02*
Y-1300D01*
X88Y-5640D02*
X935D01*
X975Y-5680D01*
X2220D01*
X3060Y-4840D01*
X-1060Y-4200D02*
X-1040Y-4220D01*
Y-4485D02*
Y-4220D01*
X-1049Y-4494D02*
X-1040Y-4485D01*
X-1049Y-4569D02*
Y-4494D01*
X-1080Y-4600D02*
X-1049Y-4569D01*
X-1700Y-3660D02*
X-1680D01*
Y-3620D01*
X-1940Y-3900D02*
X-1700Y-3660D01*
X-1820Y-3220D02*
X-1780Y-3260D01*
X-1860Y-3220D02*
X-1820D01*
X-2029Y-3389D02*
X-1860Y-3220D01*
X-2169Y-3389D02*
X-2029D01*
X-2180Y-3400D02*
X-2169Y-3389D01*
X25250Y-50D02*
X25405Y105D01*
X25459Y50D01*
X-650Y-850D02*
X-400D01*
X-750Y-750D02*
X-650Y-850D01*
X-400D02*
X-359Y-809D01*
X-224D01*
X-887Y-750D02*
X-750D01*
X25553Y2564D02*
X25588Y2600D01*
X25553Y2414D02*
X25567Y2400D01*
X-25575Y2265D02*
X-25561D01*
X-26300Y2200D02*
X-26270Y2230D01*
X-26013Y2250D02*
X-26003Y2260D01*
X-26026Y2250D02*
X-26013D01*
X-26046Y2230D02*
X-26026Y2250D01*
X-26270Y2230D02*
X-26046D01*
X-25580Y2260D02*
X-25575Y2265D01*
X-26003Y2260D02*
X-25580D01*
X-25630Y2380D02*
X-25578Y2432D01*
X-25853Y2380D02*
X-25630D01*
X-26059Y2387D02*
X-25859D01*
X-25853Y2380D01*
X-25859Y2387D02*
Y2387D01*
X-25590Y2594D02*
X-25578Y2582D01*
X-25690Y2594D02*
X-25590D01*
X-25704Y2580D02*
X-25690Y2594D01*
X-25716Y2580D02*
X-25704D01*
X-25740Y2556D02*
X-25716Y2580D01*
X-25746Y2556D02*
X-25740D01*
X-1354Y-1279D02*
X-1347Y-1273D01*
X-1354Y-1850D02*
Y-1279D01*
D21*
X1506Y-762D02*
X1783Y-685D01*
X-26300Y850D02*
X-26164D01*
X-26550Y600D02*
X-26300Y850D01*
X-26164D02*
X-25714Y1300D01*
X26230Y1914D02*
X26240Y1904D01*
X26450Y1290D02*
Y2007D01*
Y1290D02*
X26980Y760D01*
X26367Y2090D02*
Y2130D01*
Y2090D02*
X26450Y2007D01*
X26240Y1904D02*
Y1920D01*
X26153Y2130D02*
X26367D01*
X26137Y2114D02*
X26153Y2130D01*
X25553Y2114D02*
X26137D01*
X27437Y760D02*
X27500Y697D01*
X26980Y760D02*
X27437D01*
X-368Y-1065D02*
X-273Y-969D01*
X-480Y-1065D02*
X-368D01*
X-273Y-969D02*
X-233D01*
X-846Y-900D02*
X-716Y-1030D01*
X-233Y-969D02*
X-224Y-960D01*
X-515Y-1030D02*
X-480Y-1065D01*
X-716Y-1030D02*
X-515D01*
X-887Y-900D02*
X-846D01*
X-1427Y-786D02*
X-887Y-900D01*
X25553Y1914D02*
X26230D01*
X1795Y-729D02*
Y-682D01*
X2248Y-556D01*
X27500Y-997D02*
Y697D01*
X26713Y-1784D02*
X27500Y-997D01*
X26666Y-1784D02*
X26713D01*
X25900Y-2550D02*
X26666Y-1784D01*
X-25714Y1300D02*
X-25550D01*
X-26128Y2680D02*
X-25978Y2830D01*
X-26466Y2680D02*
X-26128D01*
X-25978Y2830D02*
X-25576D01*
X-26496Y2650D02*
X-26466Y2680D01*
X-25576Y2830D02*
X-25561Y2815D01*
X-224Y-960D02*
X-8Y-939D01*
X215Y-961D02*
X531Y-947D01*
X-23774Y2308D02*
X-22814Y2335D01*
X-24443Y2260D02*
X-23774Y2308D01*
X-17623Y2364D02*
X-15665Y2362D01*
X-14454Y2330D02*
X-13373Y2267D01*
X-12413Y2178D01*
X-10622Y1912D02*
X-9628Y1707D01*
X-7478Y1142D02*
X-6232Y755D01*
X-4243Y90D02*
X-3040Y-313D01*
X-8Y-939D02*
X215Y-961D01*
X-2192Y-578D02*
X-1427Y-786D01*
X949Y-886D02*
X1506Y-762D01*
X5540Y533D02*
X6834Y951D01*
X8097Y1324D02*
X9157Y1600D01*
X12005Y2131D02*
X12993Y2237D01*
X14030Y2310D02*
X15173Y2353D01*
X16708Y2368D02*
X19435Y2350D01*
X24116Y2287D02*
X24730Y2225D01*
X25553Y2114D01*
X23366Y2323D02*
X24116Y2287D01*
X-11508Y2060D02*
X-10622Y1912D01*
X-8592Y1453D02*
X-7478Y1142D01*
X2248Y-556D02*
X3273Y-231D01*
X11024Y1986D02*
X12005Y2131D01*
X-15665Y2362D02*
X-14454Y2330D01*
X-20553Y2345D02*
X-17623Y2364D01*
X-22814Y2335D02*
X-20553Y2345D01*
X-25561Y2115D02*
X-24443Y2260D01*
X-9628Y1707D02*
X-8592Y1453D01*
X-12413Y2178D02*
X-11508Y2060D01*
X531Y-947D02*
X949Y-886D01*
X9157Y1600D02*
X10118Y1816D01*
X19435Y2350D02*
X21783Y2342D01*
X15173Y2353D02*
X16708Y2368D01*
X12993Y2237D02*
X14030Y2310D01*
X21783Y2342D02*
X23366Y2323D01*
X-3040Y-313D02*
X-2192Y-578D01*
X-6232Y755D02*
X-4243Y90D01*
X10118Y1816D02*
X11024Y1986D01*
X6834Y951D02*
X8097Y1324D01*
X3273Y-231D02*
X5540Y533D01*
D22*
X-1171Y-139D02*
X-887Y-200D01*
X-1427Y-86D02*
X-1171Y-139D01*
X-224Y-260D02*
X-8Y-239D01*
X-487Y-252D02*
X-224Y-260D01*
X-887Y-200D02*
X-487Y-252D01*
X740Y-216D02*
X949Y-186D01*
X531Y-247D02*
X740Y-216D01*
X-8Y-239D02*
X164Y-256D01*
X215Y-261D02*
X531Y-247D01*
X-23774Y3008D02*
X-22814Y3035D01*
X-24443Y2960D02*
X-23774Y3008D01*
X-17623Y3064D02*
X-15665Y3062D01*
X-14454Y3030D02*
X-13373Y2967D01*
X-12413Y2878D01*
X-10622Y2612D02*
X-9628Y2407D01*
X-7478Y1841D02*
X-6232Y1455D01*
X-4243Y790D02*
X-3040Y387D01*
X-2192Y122D02*
X-1427Y-86D01*
X949Y-186D02*
X1506Y-62D01*
X2248Y144D01*
X5540Y1233D02*
X6834Y1651D01*
X8097Y2024D02*
X9157Y2300D01*
X12005Y2831D02*
X12993Y2937D01*
X14030Y3010D02*
X15173Y3053D01*
X16708Y3068D02*
X19435Y3050D01*
X24116Y2987D02*
X24730Y2925D01*
X25553Y2814D01*
X23366Y3023D02*
X24116Y2987D01*
X-11508Y2760D02*
X-10622Y2612D01*
X-8592Y2153D02*
X-7478Y1841D01*
X2248Y144D02*
X3273Y469D01*
X11024Y2686D02*
X12005Y2831D01*
X-15665Y3062D02*
X-14454Y3030D01*
X-20553Y3045D02*
X-17623Y3064D01*
X-22814Y3035D02*
X-20553Y3045D01*
X-25561Y2815D02*
X-24443Y2960D01*
X-9628Y2407D02*
X-8592Y2153D01*
X-12413Y2878D02*
X-11508Y2760D01*
X9157Y2300D02*
X10118Y2516D01*
X19435Y3050D02*
X21783Y3042D01*
X15173Y3053D02*
X16708Y3068D01*
X12993Y2937D02*
X14030Y3010D01*
X21783Y3042D02*
X23366Y3023D01*
X-3040Y387D02*
X-2192Y122D01*
X-6232Y1455D02*
X-4243Y790D01*
X10118Y2516D02*
X11024Y2686D01*
X6834Y1651D02*
X8097Y2024D01*
X3273Y469D02*
X5540Y1233D01*
D23*
X2045Y-962D02*
X2248Y-759D01*
X1506Y-962D02*
X2045D01*
X-550Y-1235D02*
X-298D01*
X-585Y-1200D02*
X-550Y-1235D01*
X-298D02*
X-224Y-1160D01*
X-800Y-1200D02*
X-585D01*
X-887Y-1113D02*
X-800Y-1200D01*
X-887Y-1113D02*
Y-1100D01*
X-26200Y1750D02*
X-25726D01*
X-25561Y1915D01*
X-224Y-1160D02*
X-8Y-1139D01*
X215Y-1161D02*
X531Y-1147D01*
X-23774Y2108D02*
X-22814Y2135D01*
X-24443Y2060D02*
X-23774Y2108D01*
X-17623Y2164D02*
X-15665Y2162D01*
X-14454Y2130D02*
X-13373Y2067D01*
X-12413Y1978D01*
X-10622Y1712D02*
X-9628Y1507D01*
X-7478Y941D02*
X-6232Y555D01*
X-4243Y-110D02*
X-3040Y-513D01*
X-8Y-1139D02*
X215Y-1161D01*
X-1427Y-985D02*
X-887Y-1100D01*
X-2192Y-778D02*
X-1427Y-985D01*
X949Y-1086D02*
X1506Y-962D01*
X5540Y333D02*
X6834Y751D01*
X8097Y1124D02*
X9157Y1400D01*
X12005Y1931D02*
X12993Y2037D01*
X14030Y2110D02*
X15173Y2153D01*
X16708Y2168D02*
X19435Y2150D01*
X24116Y2087D02*
X24730Y2025D01*
X25553Y1914D01*
X23366Y2123D02*
X24116Y2087D01*
X-11508Y1860D02*
X-10622Y1712D01*
X-8592Y1253D02*
X-7478Y941D01*
X2248Y-756D02*
X3273Y-431D01*
X11024Y1786D02*
X12005Y1931D01*
X-15665Y2162D02*
X-14454Y2130D01*
X-20553Y2145D02*
X-17623Y2164D01*
X-22814Y2135D02*
X-20553Y2145D01*
X-25561Y1915D02*
X-24443Y2060D01*
X-9628Y1507D02*
X-8592Y1253D01*
X-12413Y1978D02*
X-11508Y1860D01*
X531Y-1147D02*
X949Y-1086D01*
X9157Y1400D02*
X10118Y1616D01*
X19435Y2150D02*
X21783Y2142D01*
X15173Y2153D02*
X16708Y2168D01*
X12993Y2037D02*
X14030Y2110D01*
X21783Y2142D02*
X23366Y2123D01*
X-3040Y-513D02*
X-2192Y-778D01*
X-6232Y555D02*
X-4243Y-110D01*
X10118Y1616D02*
X11024Y1786D01*
X6834Y751D02*
X8097Y1124D01*
X3273Y-431D02*
X5540Y333D01*
D24*
X27118Y-5475D02*
D03*
Y1728D02*
D03*
X-27110D02*
D03*
Y-5475D02*
D03*
D25*
X2616Y-6228D02*
D03*
X-2609D02*
D03*
D26*
X-4163Y-10050D02*
D03*
X-4346Y-10733D02*
D03*
X-5029Y-10550D02*
D03*
X-4846Y-9867D02*
D03*
D27*
X5104Y-9700D02*
D03*
X3550Y-10266D02*
D03*
X5346Y-10366D02*
D03*
X3792Y-10931D02*
D03*
D28*
X-24600Y60D02*
D03*
X-27040Y760D02*
D03*
X-2340Y-1780D02*
D03*
X25680Y1380D02*
D03*
X2120Y-1840D02*
D03*
X2160Y-1540D02*
D03*
X25650Y50D02*
D03*
X2340Y-4980D02*
D03*
X27250Y-950D02*
D03*
X-2340Y-2420D02*
D03*
X1444Y-3676D02*
D03*
X1619Y-3869D02*
D03*
X1900Y-3440D02*
D03*
X1111Y-3500D02*
D03*
X1300Y-3040D02*
D03*
Y-2780D02*
D03*
X1100Y-2600D02*
D03*
X1200Y-3800D02*
D03*
X26240Y1920D02*
D03*
X26104Y2450D02*
D03*
X26400Y2400D02*
D03*
X25854Y2600D02*
D03*
X27260Y280D02*
D03*
X29504Y-1700D02*
D03*
X28904Y-500D02*
D03*
X28304Y-1700D02*
D03*
X28904Y-2900D02*
D03*
X28304Y-4100D02*
D03*
X28904Y-5300D02*
D03*
X28304Y-6500D02*
D03*
X27704Y-2900D02*
D03*
X27104Y-6500D02*
D03*
X25904D02*
D03*
X3704Y-7700D02*
D03*
X-2296Y-5300D02*
D03*
X-3496D02*
D03*
Y-7700D02*
D03*
X-4096Y-8900D02*
D03*
Y-11300D02*
D03*
X-5296D02*
D03*
X-25696Y-6500D02*
D03*
X-26296Y-2900D02*
D03*
X-26896Y-6500D02*
D03*
X-28096Y700D02*
D03*
X-27496Y-500D02*
D03*
X-28096Y-1700D02*
D03*
Y-6500D02*
D03*
X-28696Y1900D02*
D03*
X-29296Y700D02*
D03*
X-28696Y-500D02*
D03*
X-29296Y-1700D02*
D03*
Y-6500D02*
D03*
X960Y-1940D02*
D03*
X-360Y-1900D02*
D03*
X720Y-2100D02*
D03*
X-25600Y-80D02*
D03*
X320Y-3520D02*
D03*
X-340Y-2860D02*
D03*
Y-3520D02*
D03*
X320Y-2860D02*
D03*
X-1000Y-5400D02*
D03*
X-720Y-5280D02*
D03*
X-1280Y-5340D02*
D03*
X1100Y-3240D02*
D03*
X1879Y-3901D02*
D03*
X3380Y-1540D02*
D03*
X3100Y-1560D02*
D03*
X2800Y-1580D02*
D03*
X2400Y-1412D02*
D03*
X2733Y-1305D02*
D03*
X780Y-2440D02*
D03*
X680Y-5160D02*
D03*
X-1280Y-2480D02*
D03*
X-1171Y-139D02*
D03*
X-2020Y-1300D02*
D03*
X40Y-5620D02*
D03*
X3060Y-4840D02*
D03*
X-1060Y-4200D02*
D03*
X-1080Y-4600D02*
D03*
X-1680Y-3620D02*
D03*
X-1940Y-3900D02*
D03*
X-1780Y-3260D02*
D03*
X-2180Y-3400D02*
D03*
X-11750Y1350D02*
D03*
X25250Y-50D02*
D03*
X-533Y-669D02*
D03*
X-269Y-490D02*
D03*
X24850Y0D02*
D03*
X26550Y300D02*
D03*
X26850Y250D02*
D03*
X1795Y-729D02*
D03*
X27000Y-600D02*
D03*
X740Y-216D02*
D03*
X1050Y-5500D02*
D03*
X26700Y2650D02*
D03*
X25900Y-2550D02*
D03*
X-26550Y600D02*
D03*
X-26350Y-1500D02*
D03*
X-26200Y1750D02*
D03*
X-25550Y1300D02*
D03*
X-26096Y2450D02*
D03*
X-26300Y2200D02*
D03*
X-25846Y2600D02*
D03*
X-26496Y2650D02*
D03*
M02*
