G04*
G04 #@! TF.GenerationSoftware,Altium Limited,Altium Designer,20.0.13 (296)*
G04*
G04 Layer_Physical_Order=4*
G04 Layer_Color=1930808*
%FSLAX25Y25*%
%MOIN*%
G70*
G01*
G75*
%ADD15C,0.00600*%
%ADD45C,0.00800*%
%ADD46C,0.01949*%
%ADD47C,0.01772*%
%ADD48C,0.06299*%
G04:AMPARAMS|DCode=50|XSize=39.37mil|YSize=27.56mil|CornerRadius=0mil|HoleSize=0mil|Usage=FLASHONLY|Rotation=135.000|XOffset=0mil|YOffset=0mil|HoleType=Round|Shape=Rectangle|*
%AMROTATEDRECTD50*
4,1,4,0.02366,-0.00418,0.00418,-0.02366,-0.02366,0.00418,-0.00418,0.02366,0.02366,-0.00418,0.0*
%
%ADD50ROTATEDRECTD50*%

G04:AMPARAMS|DCode=51|XSize=47.24mil|YSize=45.28mil|CornerRadius=0mil|HoleSize=0mil|Usage=FLASHONLY|Rotation=135.000|XOffset=0mil|YOffset=0mil|HoleType=Round|Shape=Rectangle|*
%AMROTATEDRECTD51*
4,1,4,0.03271,-0.00070,0.00070,-0.03271,-0.03271,0.00070,-0.00070,0.03271,0.03271,-0.00070,0.0*
%
%ADD51ROTATEDRECTD51*%

G04:AMPARAMS|DCode=52|XSize=55.12mil|YSize=47.24mil|CornerRadius=0mil|HoleSize=0mil|Usage=FLASHONLY|Rotation=225.000|XOffset=0mil|YOffset=0mil|HoleType=Round|Shape=Rectangle|*
%AMROTATEDRECTD52*
4,1,4,0.00278,0.03619,0.03619,0.00278,-0.00278,-0.03619,-0.03619,-0.00278,0.00278,0.03619,0.0*
%
%ADD52ROTATEDRECTD52*%

G04:AMPARAMS|DCode=53|XSize=39.37mil|YSize=27.56mil|CornerRadius=0mil|HoleSize=0mil|Usage=FLASHONLY|Rotation=225.000|XOffset=0mil|YOffset=0mil|HoleType=Round|Shape=Rectangle|*
%AMROTATEDRECTD53*
4,1,4,0.00418,0.02366,0.02366,0.00418,-0.00418,-0.02366,-0.02366,-0.00418,0.00418,0.02366,0.0*
%
%ADD53ROTATEDRECTD53*%

G04:AMPARAMS|DCode=54|XSize=55.12mil|YSize=35.43mil|CornerRadius=0mil|HoleSize=0mil|Usage=FLASHONLY|Rotation=225.000|XOffset=0mil|YOffset=0mil|HoleType=Round|Shape=Rectangle|*
%AMROTATEDRECTD54*
4,1,4,0.00696,0.03202,0.03202,0.00696,-0.00696,-0.03202,-0.03202,-0.00696,0.00696,0.03202,0.0*
%
%ADD54ROTATEDRECTD54*%

%ADD55C,0.03098*%
G04:AMPARAMS|DCode=56|XSize=53.15mil|YSize=15.75mil|CornerRadius=0mil|HoleSize=0mil|Usage=FLASHONLY|Rotation=315.000|XOffset=0mil|YOffset=0mil|HoleType=Round|Shape=Rectangle|*
%AMROTATEDRECTD56*
4,1,4,-0.02436,0.01322,-0.01322,0.02436,0.02436,-0.01322,0.01322,-0.02436,-0.02436,0.01322,0.0*
%
%ADD56ROTATEDRECTD56*%

G04:AMPARAMS|DCode=57|XSize=86.61mil|YSize=62.99mil|CornerRadius=0mil|HoleSize=0mil|Usage=FLASHONLY|Rotation=45.000|XOffset=0mil|YOffset=0mil|HoleType=Round|Shape=Rectangle|*
%AMROTATEDRECTD57*
4,1,4,-0.00835,-0.05289,-0.05289,-0.00835,0.00835,0.05289,0.05289,0.00835,-0.00835,-0.05289,0.0*
%
%ADD57ROTATEDRECTD57*%

G04:AMPARAMS|DCode=58|XSize=74.8mil|YSize=70.87mil|CornerRadius=0mil|HoleSize=0mil|Usage=FLASHONLY|Rotation=315.000|XOffset=0mil|YOffset=0mil|HoleType=Round|Shape=Rectangle|*
%AMROTATEDRECTD58*
4,1,4,-0.05150,0.00139,-0.00139,0.05150,0.05150,-0.00139,0.00139,-0.05150,-0.05150,0.00139,0.0*
%
%ADD58ROTATEDRECTD58*%

%ADD59P,0.10579X4X360.0*%
D15*
X23778Y17000D02*
X28000D01*
X22568Y15790D02*
X23778Y17000D01*
X21290Y15790D02*
X22568D01*
X20000Y14500D02*
X21290Y15790D01*
X17500Y14500D02*
X20000D01*
X10500Y7500D02*
X17500Y14500D01*
X10500Y7000D02*
Y7500D01*
D45*
X24500Y14000D02*
X27667D01*
X34500Y18412D02*
X35114Y19027D01*
X27667Y14000D02*
X32386Y18719D01*
Y19053D02*
X34057Y20724D01*
X32386Y18719D02*
Y19053D01*
X34500Y18412D02*
Y18500D01*
X30060Y19500D02*
X30500D01*
X29950Y19610D02*
X30060Y19500D01*
X24093Y13593D02*
Y14093D01*
X27508Y19492D02*
X27643D01*
X24485Y13985D02*
X24500Y14000D01*
X23985Y13985D02*
X24485Y13985D01*
X24004Y26130D02*
Y26346D01*
X18238Y23031D02*
X26555Y31348D01*
X37000Y19000D02*
X39000Y17000D01*
X35114Y19027D02*
Y19781D01*
X36219Y20886D02*
X39203D01*
X39868Y21550D01*
X35114Y19781D02*
X36219Y20886D01*
X27039Y28516D02*
X27071Y28547D01*
X26174Y28516D02*
X27039D01*
X27071Y28547D02*
X27899D01*
X24004Y26346D02*
X26174Y28516D01*
X27899Y28547D02*
X27931Y28516D01*
X29019D01*
X29164Y28661D01*
X30500D01*
X31062Y28098D01*
X48000Y6000D02*
Y14167D01*
X39000Y17000D02*
X42829D01*
X44781Y17386D02*
X48000Y14167D01*
X42829Y17000D02*
X43214Y17386D01*
X44781D01*
X21681Y45681D02*
X24500Y48500D01*
X20822Y45681D02*
X21681D01*
X20822Y43822D02*
Y45681D01*
X14141Y39000D02*
X16000D01*
X39868Y21550D02*
Y24240D01*
X34445Y29505D02*
Y30190D01*
X33984Y30651D02*
X34445Y30190D01*
X34429Y29489D02*
X34445Y29505D01*
X34429Y27266D02*
Y29489D01*
X28537Y3912D02*
X29872Y5248D01*
X27735Y3912D02*
X28537D01*
X39868Y24240D02*
X40000Y24373D01*
Y24416D01*
X48419Y16581D02*
X53500Y11500D01*
X13000Y19386D02*
X13069D01*
X5830Y23986D02*
X16555Y34711D01*
X5000Y23500D02*
X5263D01*
X5749Y23986D01*
X5830D01*
X13069Y19386D02*
X13954Y18500D01*
X15500D01*
X56631Y48940D02*
X57071Y48500D01*
X56631Y48940D02*
Y50099D01*
X56628Y50102D02*
X56631Y50099D01*
X56628Y50102D02*
Y50875D01*
X56442Y51061D02*
X56628Y50875D01*
X18238Y21238D02*
Y23031D01*
X15500Y18500D02*
X18238Y21238D01*
X18571Y32310D02*
X19153D01*
X19987Y32597D02*
X21309Y31275D01*
X19153Y32310D02*
X19439Y32597D01*
X19987D01*
X18385Y32124D02*
X18571Y32310D01*
X33350Y40650D02*
Y44011D01*
Y40650D02*
X34000Y40000D01*
Y37410D02*
X37187Y34223D01*
X34000Y37410D02*
Y40000D01*
X49227Y40417D02*
X52515Y37129D01*
X51675Y36290D02*
X51938D01*
X52460Y36812D01*
X52832D01*
X56437Y33207D01*
X28474Y38587D02*
X28548Y38513D01*
X28474Y38587D02*
Y39135D01*
X33350Y44011D01*
X28617Y53476D02*
X34000Y48093D01*
Y48000D02*
Y48093D01*
X6500Y32808D02*
Y35000D01*
X6346Y32654D02*
X6500Y32808D01*
X6346Y31205D02*
Y32654D01*
X34184Y21201D02*
Y27022D01*
X34057Y21073D02*
X34184Y21201D01*
X34057Y20724D02*
Y21073D01*
X25026Y21974D02*
X27508Y19492D01*
X29950Y19610D02*
Y23086D01*
X40249Y35902D02*
X41912Y34239D01*
X40000Y24416D02*
X41912Y26327D01*
Y34239D01*
X40249Y35902D02*
Y37285D01*
X51018Y52018D02*
X53518D01*
X51000Y52000D02*
X51018Y52018D01*
X53518D02*
X53535Y52035D01*
X48464Y57639D02*
X50000Y56103D01*
Y55571D02*
Y56103D01*
X26555Y31348D02*
Y32176D01*
X24929Y34894D02*
X26251Y33571D01*
Y32480D02*
Y33571D01*
Y32480D02*
X26555Y32176D01*
X20401Y34711D02*
X20705Y34407D01*
X16555Y34711D02*
X20401D01*
X20705Y34407D02*
X21797D01*
X23119Y33084D01*
X33984Y30651D02*
X34124Y30792D01*
X28000Y25036D02*
X29950Y23086D01*
X24938Y21974D02*
X25026D01*
D46*
X61667Y46025D02*
D03*
X56010Y40368D02*
D03*
X44697Y57339D02*
D03*
D47*
X29337Y31890D02*
D03*
X34500Y18500D02*
D03*
X30500Y19500D02*
D03*
X24093Y13593D02*
D03*
X28000Y17000D02*
D03*
X27643Y19492D02*
D03*
X16352Y22681D02*
D03*
X34055Y13555D02*
D03*
X37873Y12445D02*
D03*
X24004Y26130D02*
D03*
X20488Y9786D02*
D03*
X37000Y19000D02*
D03*
D03*
X32017Y34376D02*
D03*
X54000Y20000D02*
D03*
X36000Y4000D02*
D03*
X44000Y15500D02*
D03*
X24500Y48500D02*
D03*
X11000Y37500D02*
D03*
X41500Y9450D02*
D03*
X37900Y26000D02*
D03*
X43075Y21266D02*
D03*
X9136Y24214D02*
D03*
X48233Y17616D02*
D03*
X13000Y19386D02*
D03*
X5000Y23500D02*
D03*
X56442Y51061D02*
D03*
X58250Y25000D02*
D03*
X18385Y32124D02*
D03*
X54567Y44972D02*
D03*
X51675Y36290D02*
D03*
X43314Y49268D02*
D03*
X6500Y35000D02*
D03*
X43139Y54275D02*
D03*
X9082Y35582D02*
D03*
X23558Y50785D02*
D03*
X30539Y58667D02*
D03*
X48000Y53000D02*
D03*
X51000Y52000D02*
D03*
X48464Y57639D02*
D03*
X34000Y48000D02*
D03*
D48*
X33000Y0D02*
D03*
X0Y26000D02*
D03*
X48000Y6000D02*
D03*
X18500Y2500D02*
D03*
X10500Y7000D02*
D03*
X53500Y11500D02*
D03*
X5000Y13000D02*
D03*
X41000Y2000D02*
D03*
D50*
X21778Y19056D02*
D03*
X24840Y22119D02*
D03*
X27903Y25181D02*
D03*
X30965Y28243D02*
D03*
X34027Y31306D02*
D03*
X37089Y34368D02*
D03*
X40152Y37430D02*
D03*
X43214Y40492D02*
D03*
D51*
X49130Y40562D02*
D03*
X56340Y33352D02*
D03*
D52*
X21333Y10315D02*
D03*
D53*
X23977Y6557D02*
D03*
D54*
X27735Y3912D02*
D03*
D55*
X53535Y44965D02*
D03*
X57071Y48500D02*
D03*
X50000D02*
D03*
X53535Y52035D02*
D03*
X46464D02*
D03*
X50000Y55571D02*
D03*
D56*
X21309Y31275D02*
D03*
X23119Y33084D02*
D03*
X24929Y34894D02*
D03*
X26738Y36703D02*
D03*
X28548Y38513D02*
D03*
D57*
X15811Y26472D02*
D03*
X33350Y44011D02*
D03*
D58*
X6346Y31205D02*
D03*
X28617Y53476D02*
D03*
D59*
X14141Y39000D02*
D03*
X20822Y45681D02*
D03*
M02*
