G04*
G04 #@! TF.GenerationSoftware,Altium Limited,Altium Designer,20.0.13 (296)*
G04*
G04 Layer_Color=65280*
%FSLAX25Y25*%
%MOIN*%
G70*
G01*
G75*
%ADD11C,0.00394*%
%ADD12C,0.00787*%
%ADD15C,0.00600*%
D11*
X23885Y28978D02*
G03*
X23606Y28700I-139J-139D01*
G01*
D02*
G03*
X23885Y28978I139J139D01*
G01*
X21936Y58766D02*
X24720Y55982D01*
X1057Y37887D02*
X21936Y58766D01*
X1057Y37887D02*
X3841Y35103D01*
X53139Y39198D02*
X55366Y36971D01*
X12146Y16718D02*
X16948Y11916D01*
X12146Y16718D02*
X43882Y48454D01*
X47292Y45044D01*
X32050Y6278D02*
X54322Y28550D01*
D12*
X16670Y24443D02*
G03*
X16113Y23886I-278J-278D01*
G01*
D02*
G03*
X16670Y24443I278J278D01*
G01*
D15*
X54698Y26757D02*
Y27181D01*
X55122Y27605D01*
X55546D01*
X56394Y26757D01*
Y26333D01*
X55970Y25909D01*
X55546D01*
X54062Y26545D02*
X55334Y25273D01*
X54698Y25909D01*
X53850Y25061D01*
X53213Y25697D01*
X54486Y24424D01*
X52789Y25273D02*
X54062Y24000D01*
X53213D01*
Y23152D01*
X51941Y24424D01*
X52789Y22728D02*
X51941Y23576D01*
X51093D01*
X51093Y22728D01*
X51941Y21880D01*
X51305Y22516D01*
X52153Y23364D01*
X50244Y22728D02*
X51517Y21456D01*
X50669Y20607D01*
X48124D02*
X48972Y21456D01*
X50244Y20183D01*
X49396Y19335D01*
X49608Y20819D02*
X49184Y20395D01*
X47700Y20183D02*
X48972Y18911D01*
X48548Y19335D01*
X46851D01*
X48124D01*
Y18063D01*
X45791Y17002D02*
X44943Y16154D01*
X44519Y15730D02*
X43670Y14882D01*
X41338Y13821D02*
X42610Y12549D01*
X42186Y12973D01*
X40490D01*
X41762D01*
Y11701D01*
X39429Y11913D02*
X39853Y12337D01*
X40277D01*
X41126Y11489D01*
Y11064D01*
X40702Y10640D01*
X40277D01*
X39429Y11489D01*
Y11913D01*
X38157Y10640D02*
X38581Y11064D01*
X39005D01*
X39853Y10216D01*
Y9792D01*
X39429Y9368D01*
X39005D01*
X38157Y10216D01*
Y10640D01*
X36884Y8944D02*
Y9368D01*
X37309Y9792D01*
X37733D01*
X37945Y9580D01*
Y9156D01*
X37521Y8732D01*
Y8308D01*
X37733Y8096D01*
X38157D01*
X38581Y8520D01*
Y8944D01*
X36248Y8732D02*
X37521Y7459D01*
X36884Y8096D01*
X36036Y7247D01*
X35400Y7884D01*
X36672Y6611D01*
X54062Y18911D02*
X52790Y20183D01*
X52153Y19547D01*
Y19123D01*
X52578Y18698D01*
X53002D01*
X53638Y19335D01*
X53214Y18911D02*
X53214Y18062D01*
X50669D02*
X51517Y18911D01*
X52790Y17638D01*
X51941Y16790D01*
X52153Y18274D02*
X51729Y17850D01*
X49609Y16578D02*
Y17002D01*
X50033Y17426D01*
X50457D01*
X50669Y17214D01*
Y16790D01*
X50245Y16366D01*
Y15942D01*
X50457Y15730D01*
X50881D01*
X51305Y16154D01*
Y16578D01*
X48124Y15518D02*
X48972Y16366D01*
X50245Y15093D01*
X49396Y14245D01*
X49609Y15730D02*
X49185Y15305D01*
X48972Y13821D02*
X47700Y15093D01*
X48124Y12973D01*
X46852Y14245D01*
X46428Y13821D02*
X47276Y12973D01*
Y12124D01*
X46428Y12124D01*
X45579Y12973D01*
X44307Y10852D02*
X44731Y9580D01*
X43459Y10004D01*
X43883Y8731D02*
X43459Y8307D01*
X43671Y8519D01*
X42398Y9792D01*
X42823D01*
Y7671D02*
X42610Y7883D01*
X42398Y7671D01*
X42610Y7459D01*
X42823Y7671D01*
X41762Y6611D02*
X41338Y6187D01*
X41550Y6399D01*
X40278Y7671D01*
X40702D01*
X18500Y16999D02*
X19500D01*
X19000D01*
Y14500D01*
X19500Y14001D01*
X19999D01*
X20499Y14500D01*
X17500Y16500D02*
X17000Y16999D01*
X16001D01*
X15501Y16500D01*
Y16000D01*
X16001Y15500D01*
X16500D01*
X16001D01*
X15501Y15000D01*
Y14500D01*
X16001Y14001D01*
X17000D01*
X17500Y14500D01*
X41000Y55000D02*
X42000D01*
X41500D01*
Y52500D01*
X42000Y52000D01*
X42499D01*
X42999Y52500D01*
X38501Y52000D02*
Y55000D01*
X40000Y53500D01*
X38001D01*
M02*
