G04*
G04 #@! TF.GenerationSoftware,Altium Limited,Altium Designer,20.0.13 (296)*
G04*
G04 Layer_Physical_Order=3*
G04 Layer_Color=16440176*
%FSLAX25Y25*%
%MOIN*%
G70*
G01*
G75*
%ADD14C,0.01000*%
%ADD46C,0.01949*%
%ADD47C,0.01772*%
%ADD48C,0.06299*%
G36*
X29060Y58850D02*
X29024Y58667D01*
X29139Y58087D01*
X29468Y57595D01*
X29959Y57267D01*
X30361Y57187D01*
X30696Y56964D01*
X31125Y56878D01*
X36606D01*
X38878Y54606D01*
Y51462D01*
X38729Y51239D01*
X38635Y51186D01*
X38555Y51165D01*
X38169Y51116D01*
X37707Y51578D01*
X37343Y51821D01*
X36914Y51906D01*
X36914Y51906D01*
X24554D01*
X24138Y52184D01*
X23558Y52299D01*
X22978Y52184D01*
X22487Y51856D01*
X22159Y51364D01*
X22043Y50785D01*
X22159Y50205D01*
X22487Y49713D01*
X22650Y49604D01*
X22724Y49236D01*
X22677Y49000D01*
X26323D01*
X26291Y49163D01*
X26469Y49597D01*
X26505Y49663D01*
X32263D01*
X32509Y49163D01*
X32224Y48736D01*
X32177Y48500D01*
X34000D01*
Y48000D01*
X34500D01*
Y46177D01*
X34736Y46224D01*
X35360Y46640D01*
X35776Y47264D01*
X35878Y47777D01*
X36378Y47728D01*
Y29965D01*
X31207Y24793D01*
X30964Y24429D01*
X30878Y24000D01*
X30878Y24000D01*
Y21326D01*
X30500Y21015D01*
X29920Y20900D01*
X29429Y20571D01*
X29370Y20482D01*
X28768D01*
X28714Y20563D01*
X28223Y20891D01*
X27643Y21007D01*
X27063Y20891D01*
X26572Y20563D01*
X26243Y20072D01*
X26128Y19492D01*
X26243Y18912D01*
X26572Y18421D01*
X26596Y18405D01*
X26702Y17732D01*
X26600Y17580D01*
X26485Y17000D01*
X26600Y16420D01*
X26929Y15929D01*
X27420Y15600D01*
X28000Y15485D01*
X28580Y15600D01*
X29071Y15929D01*
X29400Y16420D01*
X29515Y17000D01*
X29400Y17580D01*
X29253Y17799D01*
X29386Y18197D01*
X29631Y18293D01*
X29920Y18100D01*
X30500Y17985D01*
X30878Y17674D01*
Y11586D01*
X30878Y11586D01*
X30964Y11157D01*
X31207Y10793D01*
X33342Y8657D01*
X33342Y8657D01*
X33706Y8414D01*
X34135Y8329D01*
X34135Y8329D01*
X40504D01*
X40920Y8051D01*
X41500Y7936D01*
X42080Y8051D01*
X42571Y8379D01*
X42900Y8871D01*
X43015Y9450D01*
X42900Y10030D01*
X42571Y10522D01*
X42080Y10850D01*
X41500Y10965D01*
X40920Y10850D01*
X40504Y10572D01*
X34600D01*
X33539Y11633D01*
X33785Y12094D01*
X34055Y12040D01*
X34635Y12156D01*
X35126Y12484D01*
X35455Y12976D01*
X35552Y13466D01*
X38017Y15931D01*
X38252Y15978D01*
X38616Y16221D01*
X39779Y17384D01*
X39779Y17384D01*
X40022Y17748D01*
X40107Y18177D01*
X40107Y18178D01*
Y19521D01*
X41215Y20629D01*
X41797Y20504D01*
X42003Y20195D01*
X42495Y19867D01*
X43075Y19751D01*
X43654Y19867D01*
X44146Y20195D01*
X44474Y20686D01*
X44513Y20881D01*
X44929Y20964D01*
X45293Y21207D01*
X46916Y22830D01*
X47378Y22639D01*
Y21156D01*
X43207Y16985D01*
X42964Y16621D01*
X42958Y16591D01*
X42929Y16571D01*
X42600Y16080D01*
X42485Y15500D01*
X42600Y14920D01*
X42929Y14429D01*
X43420Y14100D01*
X44000Y13985D01*
X44580Y14100D01*
X45071Y14429D01*
X45400Y14920D01*
X45515Y15500D01*
X45412Y16017D01*
X46374Y16980D01*
X46956Y16854D01*
X47162Y16545D01*
X47653Y16217D01*
X48233Y16102D01*
X48813Y16217D01*
X49305Y16545D01*
X49633Y17037D01*
X49748Y17616D01*
X49633Y18196D01*
X49305Y18688D01*
X48996Y18894D01*
X48870Y19476D01*
X49293Y19898D01*
X49293Y19899D01*
X49536Y20262D01*
X49622Y20692D01*
X49622Y20692D01*
Y35069D01*
X50122Y35221D01*
X50316Y34930D01*
X50940Y34514D01*
X51175Y34467D01*
Y36290D01*
Y38113D01*
X50940Y38066D01*
X50316Y37650D01*
X50122Y37359D01*
X49622Y37510D01*
Y48827D01*
X50147Y49352D01*
X53192Y46308D01*
X52790Y45708D01*
X52744Y45472D01*
X54567D01*
Y44472D01*
X52744D01*
X52790Y44236D01*
X53207Y43613D01*
X53831Y43196D01*
X54540Y43055D01*
X54592Y42967D01*
X54712Y42569D01*
X54171Y42207D01*
X53608Y41363D01*
X53410Y40368D01*
X53608Y39373D01*
X54171Y38529D01*
X55015Y37966D01*
X56010Y37767D01*
X57006Y37966D01*
X57849Y38529D01*
X58413Y39373D01*
X58513Y39876D01*
X59067Y40098D01*
X59256Y39966D01*
X59255Y29972D01*
X59256Y28397D01*
X59082Y26786D01*
X58544Y26456D01*
X58250Y26515D01*
X57670Y26400D01*
X57179Y26071D01*
X56850Y25580D01*
X56735Y25000D01*
X56850Y24420D01*
X57179Y23929D01*
X57670Y23600D01*
X58029Y23529D01*
X58437Y23051D01*
X58249Y22189D01*
X57255Y19200D01*
X55947Y16336D01*
X55094Y14898D01*
X54479Y15153D01*
X53500Y15282D01*
X52521Y15153D01*
X51609Y14775D01*
X50826Y14174D01*
X50225Y13391D01*
X49847Y12479D01*
X49718Y11500D01*
X49847Y10521D01*
X50200Y9668D01*
X50092Y9476D01*
X50024Y9408D01*
X49832Y9300D01*
X48979Y9653D01*
X48000Y9782D01*
X47021Y9653D01*
X46109Y9275D01*
X45326Y8674D01*
X44725Y7891D01*
X44347Y6979D01*
X44218Y6000D01*
X44347Y5021D01*
X44557Y4515D01*
X44021Y4222D01*
X43674Y4674D01*
X42891Y5275D01*
X41979Y5653D01*
X41000Y5782D01*
X40021Y5653D01*
X39109Y5275D01*
X38326Y4674D01*
X37980Y4224D01*
X37446Y4349D01*
X37400Y4580D01*
X37071Y5071D01*
X36580Y5400D01*
X36000Y5515D01*
X35420Y5400D01*
X34929Y5071D01*
X34600Y4580D01*
X34485Y4000D01*
X34488Y3983D01*
X34050Y3624D01*
X33979Y3653D01*
X33000Y3782D01*
X32021Y3653D01*
X31109Y3275D01*
X30326Y2674D01*
X29725Y1891D01*
X29347Y979D01*
X29296Y596D01*
X27256Y669D01*
X24138Y1117D01*
X22752Y1471D01*
X22887Y2500D01*
X22738Y3635D01*
X22299Y4694D01*
X22155Y4882D01*
X19136Y1864D01*
X18500Y2500D01*
X17864Y1864D01*
X14845Y4882D01*
X14757Y4768D01*
X13870Y5338D01*
X14153Y6021D01*
X14282Y7000D01*
X14153Y7979D01*
X13775Y8891D01*
X13174Y9674D01*
X12391Y10275D01*
X11479Y10653D01*
X10500Y10782D01*
X9521Y10653D01*
X8609Y10275D01*
X8320Y10053D01*
X7858Y10565D01*
X8275Y11109D01*
X8653Y12021D01*
X8782Y13000D01*
X8653Y13979D01*
X8275Y14891D01*
X7674Y15674D01*
X6891Y16275D01*
X5979Y16653D01*
X5000Y16782D01*
X4021Y16653D01*
X3775Y16551D01*
X3419Y17198D01*
X3368Y17300D01*
X2100Y20393D01*
X1491Y22559D01*
X1891Y22725D01*
X2674Y23326D01*
X3034Y23794D01*
X3501Y23583D01*
X3485Y23500D01*
X3600Y22920D01*
X3929Y22429D01*
X4420Y22100D01*
X5000Y21985D01*
X5580Y22100D01*
X6071Y22429D01*
X6400Y22920D01*
X6515Y23500D01*
X6400Y24080D01*
X6071Y24571D01*
X5580Y24900D01*
X5000Y25015D01*
X4420Y24900D01*
X4038Y24644D01*
X3619Y24939D01*
X3653Y25021D01*
X3782Y26000D01*
X3653Y26979D01*
X3275Y27891D01*
X2674Y28674D01*
X1891Y29275D01*
X979Y29653D01*
X524Y29713D01*
X495Y30368D01*
X599Y31853D01*
X4147Y35402D01*
X4608Y35155D01*
X4577Y35000D01*
X4724Y34264D01*
X5140Y33640D01*
X5764Y33224D01*
X6000Y33177D01*
Y35000D01*
X7000D01*
Y33177D01*
X7236Y33224D01*
X7860Y33640D01*
X8276Y34264D01*
X8453Y34215D01*
X8502Y34182D01*
X9082Y34067D01*
X9662Y34182D01*
X10153Y34511D01*
X10481Y35002D01*
X10597Y35582D01*
X10943Y35589D01*
X11000Y35577D01*
X11736Y35724D01*
X12360Y36140D01*
X12776Y36764D01*
X12823Y37000D01*
X11000D01*
Y37500D01*
X10500D01*
Y39323D01*
X10264Y39276D01*
X9640Y38860D01*
X9224Y38236D01*
X9077Y37500D01*
X9089Y37443D01*
X9082Y37097D01*
X8502Y36981D01*
X8011Y36653D01*
X7556Y36563D01*
X7236Y36776D01*
X6500Y36923D01*
X6345Y36892D01*
X6098Y37353D01*
X28070Y59325D01*
X28303Y59350D01*
X28653D01*
X29060Y58850D01*
D02*
G37*
%LPC*%
G36*
X26323Y48000D02*
X25000D01*
Y46677D01*
X25236Y46724D01*
X25860Y47140D01*
X26276Y47764D01*
X26323Y48000D01*
D02*
G37*
G36*
X24000D02*
X22677D01*
X22724Y47764D01*
X23140Y47140D01*
X23764Y46724D01*
X24000Y46677D01*
Y48000D01*
D02*
G37*
G36*
X33500Y47500D02*
X32177D01*
X32224Y47264D01*
X32640Y46640D01*
X33264Y46224D01*
X33500Y46177D01*
Y47500D01*
D02*
G37*
G36*
X11500Y39323D02*
Y38000D01*
X12823D01*
X12776Y38236D01*
X12360Y38860D01*
X11736Y39276D01*
X11500Y39323D01*
D02*
G37*
G36*
X52175Y38113D02*
Y36790D01*
X53499D01*
X53452Y37026D01*
X53035Y37650D01*
X52411Y38066D01*
X52175Y38113D01*
D02*
G37*
G36*
X32517Y36199D02*
Y34876D01*
X33841D01*
X33794Y35112D01*
X33377Y35736D01*
X32753Y36152D01*
X32517Y36199D01*
D02*
G37*
G36*
X31517D02*
X31282Y36152D01*
X30658Y35736D01*
X30241Y35112D01*
X30194Y34876D01*
X31517D01*
Y36199D01*
D02*
G37*
G36*
X53499Y35790D02*
X52175D01*
Y34467D01*
X52411Y34514D01*
X53035Y34930D01*
X53452Y35554D01*
X53499Y35790D01*
D02*
G37*
G36*
X31517Y33876D02*
X30194D01*
X30233Y33679D01*
X30056Y33454D01*
X29868Y33299D01*
X29337Y33405D01*
X28757Y33289D01*
X28265Y32961D01*
X27937Y32469D01*
X27822Y31890D01*
X27937Y31310D01*
X28265Y30819D01*
X28757Y30490D01*
X29337Y30375D01*
X29916Y30490D01*
X30408Y30819D01*
X30736Y31310D01*
X30851Y31890D01*
X30761Y32346D01*
X31080Y32635D01*
X31166Y32677D01*
X31282Y32600D01*
X31517Y32553D01*
Y33876D01*
D02*
G37*
G36*
X33841D02*
X32517D01*
Y32553D01*
X32753Y32600D01*
X33377Y33016D01*
X33794Y33640D01*
X33841Y33876D01*
D02*
G37*
G36*
X18385Y33639D02*
X17806Y33524D01*
X17314Y33196D01*
X16986Y32704D01*
X16870Y32124D01*
X16986Y31545D01*
X17314Y31053D01*
X17806Y30725D01*
X18385Y30610D01*
X18965Y30725D01*
X19456Y31053D01*
X19785Y31545D01*
X19900Y32124D01*
X19785Y32704D01*
X19456Y33196D01*
X18965Y33524D01*
X18385Y33639D01*
D02*
G37*
G36*
X9636Y26037D02*
Y24714D01*
X10959D01*
X10912Y24950D01*
X10495Y25574D01*
X9872Y25991D01*
X9636Y26037D01*
D02*
G37*
G36*
X8636D02*
X8400Y25991D01*
X7776Y25574D01*
X7359Y24950D01*
X7312Y24714D01*
X8636D01*
Y26037D01*
D02*
G37*
G36*
X24004Y27645D02*
X23424Y27529D01*
X22933Y27201D01*
X22604Y26710D01*
X22489Y26130D01*
X22604Y25550D01*
X22933Y25059D01*
X23424Y24730D01*
X24004Y24615D01*
X24584Y24730D01*
X25075Y25059D01*
X25404Y25550D01*
X25519Y26130D01*
X25404Y26710D01*
X25075Y27201D01*
X24584Y27529D01*
X24004Y27645D01*
D02*
G37*
G36*
X16852Y24505D02*
Y23181D01*
X18176D01*
X18129Y23417D01*
X17712Y24041D01*
X17088Y24458D01*
X16852Y24505D01*
D02*
G37*
G36*
X15852D02*
X15617Y24458D01*
X14993Y24041D01*
X14576Y23417D01*
X14529Y23181D01*
X15852D01*
Y24505D01*
D02*
G37*
G36*
X10959Y23714D02*
X9636D01*
Y22391D01*
X9872Y22438D01*
X10495Y22855D01*
X10912Y23478D01*
X10959Y23714D01*
D02*
G37*
G36*
X8636D02*
X7312D01*
X7359Y23478D01*
X7776Y22855D01*
X8400Y22438D01*
X8636Y22391D01*
Y23714D01*
D02*
G37*
G36*
X18176Y22181D02*
X16852D01*
Y20858D01*
X17088Y20905D01*
X17712Y21322D01*
X18129Y21945D01*
X18176Y22181D01*
D02*
G37*
G36*
X15852D02*
X14529D01*
X14576Y21945D01*
X14993Y21322D01*
X15617Y20905D01*
X15852Y20858D01*
Y22181D01*
D02*
G37*
G36*
X54000Y21515D02*
X53420Y21400D01*
X52929Y21071D01*
X52600Y20580D01*
X52485Y20000D01*
X52600Y19420D01*
X52929Y18929D01*
X53420Y18600D01*
X54000Y18485D01*
X54580Y18600D01*
X55071Y18929D01*
X55400Y19420D01*
X55515Y20000D01*
X55400Y20580D01*
X55071Y21071D01*
X54580Y21400D01*
X54000Y21515D01*
D02*
G37*
G36*
X13000Y20901D02*
X12420Y20785D01*
X11929Y20457D01*
X11600Y19966D01*
X11485Y19386D01*
X11600Y18806D01*
X11929Y18315D01*
X12420Y17986D01*
X13000Y17871D01*
X13580Y17986D01*
X14071Y18315D01*
X14400Y18806D01*
X14515Y19386D01*
X14400Y19966D01*
X14071Y20457D01*
X13580Y20785D01*
X13000Y20901D01*
D02*
G37*
G36*
X24093Y15108D02*
X23513Y14993D01*
X23022Y14664D01*
X22693Y14173D01*
X22578Y13593D01*
X22693Y13013D01*
X23022Y12522D01*
X23513Y12194D01*
X24093Y12078D01*
X24673Y12194D01*
X25164Y12522D01*
X25493Y13013D01*
X25608Y13593D01*
X25493Y14173D01*
X25164Y14664D01*
X24673Y14993D01*
X24093Y15108D01*
D02*
G37*
G36*
X18500Y6887D02*
X17365Y6738D01*
X16306Y6299D01*
X16118Y6155D01*
X18500Y3773D01*
X20882Y6155D01*
X20694Y6299D01*
X19636Y6738D01*
X18500Y6887D01*
D02*
G37*
%LPD*%
D14*
X32000Y20808D02*
Y24000D01*
Y20808D02*
X32486Y20323D01*
Y18677D02*
Y20323D01*
X32000Y18192D02*
X32486Y18677D01*
X32000Y11586D02*
Y18192D01*
X34055Y13555D02*
X37514Y17014D01*
X38986Y18177D02*
Y19986D01*
X37514Y17014D02*
X37823D01*
X38986Y19986D02*
X45300Y26300D01*
X37823Y17014D02*
X38986Y18177D01*
X37000Y19000D02*
Y20350D01*
X36145Y21205D02*
X37000Y20350D01*
X36145Y21205D02*
X36148Y21207D01*
X44000Y15500D02*
Y16192D01*
X48500Y20692D01*
X45300Y26300D02*
Y50617D01*
X32000Y11586D02*
X34135Y9450D01*
X41500D01*
X37207Y21207D02*
X41500Y25500D01*
X38000Y25833D02*
Y26500D01*
X32000Y24000D02*
X37500Y29500D01*
X38000Y26152D02*
X39900Y28052D01*
X41500Y25500D02*
Y48274D01*
X36148Y21207D02*
X37207D01*
X43075Y21266D02*
X43284D01*
X44017Y22000D01*
X44500D01*
X41328Y48446D02*
X41500Y48274D01*
X39728Y47783D02*
X39900Y47612D01*
X37071Y58000D02*
X40000Y55071D01*
X39900Y28052D02*
Y47612D01*
X46900Y49954D02*
X48000Y51054D01*
X45300Y50617D02*
X46014Y51331D01*
X39728Y47783D02*
Y50754D01*
X46900Y24400D02*
Y49954D01*
X39728Y50754D02*
X40000Y51025D01*
X48500Y49291D02*
X51000Y51791D01*
X42992Y51754D02*
Y54128D01*
X44500Y22000D02*
X46900Y24400D01*
X46014Y51331D02*
Y54342D01*
X41328Y50091D02*
X42992Y51754D01*
X48000Y51054D02*
Y53000D01*
X48500Y20692D02*
Y49291D01*
X41328Y48446D02*
Y50091D01*
X40000Y51025D02*
Y55071D01*
X46014Y54342D02*
X48317Y56644D01*
X51000Y51791D02*
Y52000D01*
X42992Y54128D02*
X43139Y54275D01*
X36914Y50785D02*
X37500Y50199D01*
X23558Y50785D02*
X36914D01*
X37500Y29500D02*
Y50199D01*
X31125Y58000D02*
X37071D01*
X30539Y58586D02*
X31125Y58000D01*
X30539Y58586D02*
Y58667D01*
X48317Y57491D02*
X48464Y57639D01*
X48317Y56644D02*
Y57491D01*
D46*
X61667Y46025D02*
D03*
X56010Y40368D02*
D03*
X44697Y57339D02*
D03*
D47*
X29337Y31890D02*
D03*
X34500Y18500D02*
D03*
X30500Y19500D02*
D03*
X24093Y13593D02*
D03*
X28000Y17000D02*
D03*
X27643Y19492D02*
D03*
X16352Y22681D02*
D03*
X34055Y13555D02*
D03*
X37873Y12445D02*
D03*
X24004Y26130D02*
D03*
X20488Y9786D02*
D03*
X37000Y19000D02*
D03*
D03*
X32017Y34376D02*
D03*
X54000Y20000D02*
D03*
X36000Y4000D02*
D03*
X44000Y15500D02*
D03*
X24500Y48500D02*
D03*
X11000Y37500D02*
D03*
X41500Y9450D02*
D03*
X37900Y26000D02*
D03*
X43075Y21266D02*
D03*
X9136Y24214D02*
D03*
X48233Y17616D02*
D03*
X13000Y19386D02*
D03*
X5000Y23500D02*
D03*
X56442Y51061D02*
D03*
X58250Y25000D02*
D03*
X18385Y32124D02*
D03*
X54567Y44972D02*
D03*
X51675Y36290D02*
D03*
X43314Y49268D02*
D03*
X6500Y35000D02*
D03*
X43139Y54275D02*
D03*
X9082Y35582D02*
D03*
X23558Y50785D02*
D03*
X30539Y58667D02*
D03*
X48000Y53000D02*
D03*
X51000Y52000D02*
D03*
X48464Y57639D02*
D03*
X34000Y48000D02*
D03*
D48*
X33000Y0D02*
D03*
X0Y26000D02*
D03*
X48000Y6000D02*
D03*
X18500Y2500D02*
D03*
X10500Y7000D02*
D03*
X53500Y11500D02*
D03*
X5000Y13000D02*
D03*
X41000Y2000D02*
D03*
M02*
