G04*
G04 #@! TF.GenerationSoftware,Altium Limited,Altium Designer,20.0.13 (296)*
G04*
G04 Layer_Physical_Order=1*
G04 Layer_Color=255*
%FSLAX25Y25*%
%MOIN*%
G70*
G01*
G75*
%ADD15C,0.00600*%
%ADD16R,0.02165X0.02165*%
%ADD17R,0.03347X0.01378*%
%ADD18R,0.06693X0.09646*%
%ADD19R,0.01890X0.02539*%
%ADD20R,0.02362X0.04724*%
%ADD21R,0.07087X0.03937*%
%ADD22R,0.02441X0.02362*%
%ADD23R,0.02362X0.02441*%
%ADD24R,0.00984X0.04724*%
%ADD25R,0.02657X0.00984*%
%ADD26R,0.00984X0.02264*%
%ADD27R,0.02165X0.02165*%
%ADD28R,0.03150X0.03150*%
%ADD44C,0.00800*%
%ADD45C,0.01200*%
%ADD46C,0.01949*%
%ADD47C,0.01772*%
%ADD48C,0.06299*%
D15*
X50098Y51650D02*
Y51973D01*
X49724Y51276D02*
X50098Y51650D01*
X42961Y53500D02*
X43000D01*
X39843Y54390D02*
X42071D01*
X42961Y53500D01*
X40035Y54582D02*
X41618D01*
X39843Y54390D02*
X40035Y54582D01*
X35921Y23193D02*
X36022Y23294D01*
Y26339D02*
X36123Y26440D01*
X36022Y23294D02*
Y26339D01*
X28000Y20000D02*
X28064Y20064D01*
Y20420D01*
X28000Y19777D02*
X28714Y19063D01*
X28000Y19777D02*
Y20000D01*
X26000Y18614D02*
X26092Y18523D01*
X26000Y23114D02*
X26079Y23193D01*
X26000Y18614D02*
Y23114D01*
X29500Y15500D02*
X29893Y15107D01*
Y15107D02*
Y15107D01*
X29500Y15500D02*
Y17975D01*
X28714Y18760D02*
X29500Y17975D01*
X28714Y18760D02*
Y19063D01*
X16020Y8131D02*
X19617D01*
X19748Y8000D01*
X21227D01*
X21734Y8507D01*
X14500Y21351D02*
Y23500D01*
X12000Y26000D02*
X14500Y23500D01*
X14852Y21000D02*
X15508D01*
X15613Y20895D01*
X19844D01*
X21101Y22152D01*
X38254Y2746D02*
X39500D01*
X34800Y5500D02*
X35569Y4731D01*
X36269D01*
X38254Y2746D01*
X26079Y5421D02*
X31500Y0D01*
X32000D01*
X49724Y51276D02*
X50328D01*
X48500Y42800D02*
X52000D01*
X1455Y26000D02*
X12000D01*
X14500Y21351D02*
X14852Y21000D01*
X22142Y22344D02*
Y23193D01*
X21950Y22152D02*
X22142Y22344D01*
X21101Y22152D02*
X21950D01*
X26079Y5421D02*
Y9807D01*
D16*
X30200Y5500D02*
D03*
X34800D02*
D03*
X35200Y34000D02*
D03*
X39800D02*
D03*
X43295Y46605D02*
D03*
X47895D02*
D03*
X35200Y30500D02*
D03*
X39800D02*
D03*
D17*
X43583Y34559D02*
D03*
Y32000D02*
D03*
Y29441D02*
D03*
Y26882D02*
D03*
X55000D02*
D03*
Y29441D02*
D03*
Y32000D02*
D03*
Y34559D02*
D03*
D18*
X49291Y30720D02*
D03*
D19*
X49031Y50539D02*
D03*
X52969D02*
D03*
X51000Y56461D02*
D03*
D20*
X4260Y30921D02*
D03*
X8000D02*
D03*
X11740D02*
D03*
Y21079D02*
D03*
X8000D02*
D03*
X4260D02*
D03*
D21*
X19500Y45421D02*
D03*
Y35579D02*
D03*
D22*
X13000Y37189D02*
D03*
Y40811D02*
D03*
X44000Y38689D02*
D03*
Y42311D02*
D03*
D23*
X25689Y34000D02*
D03*
X29311D02*
D03*
X16189Y28500D02*
D03*
X19811D02*
D03*
X25689Y30000D02*
D03*
X29311D02*
D03*
D24*
X22142Y9807D02*
D03*
Y23193D02*
D03*
X24110Y9807D02*
D03*
Y23193D02*
D03*
X26079Y9807D02*
D03*
Y23193D02*
D03*
X28047Y9807D02*
D03*
Y23193D02*
D03*
X30016Y9807D02*
D03*
Y23193D02*
D03*
X31984Y9807D02*
D03*
Y23193D02*
D03*
X33953Y9807D02*
D03*
Y23193D02*
D03*
X35921Y9807D02*
D03*
Y23193D02*
D03*
X37890Y9807D02*
D03*
Y23193D02*
D03*
X39858Y9807D02*
D03*
Y23193D02*
D03*
D25*
X27539Y38642D02*
D03*
X39843Y38394D02*
D03*
Y40610D02*
D03*
Y42579D02*
D03*
Y44547D02*
D03*
Y46516D02*
D03*
Y48484D02*
D03*
Y50453D02*
D03*
Y52421D02*
D03*
Y54390D02*
D03*
Y56410D02*
D03*
X27539Y56606D02*
D03*
Y54390D02*
D03*
Y52421D02*
D03*
Y50453D02*
D03*
Y48484D02*
D03*
Y46516D02*
D03*
Y44547D02*
D03*
Y42579D02*
D03*
Y40610D02*
D03*
D26*
X30736Y38394D02*
D03*
X32705D02*
D03*
X34673D02*
D03*
X36642D02*
D03*
Y56606D02*
D03*
X34673D02*
D03*
X32705D02*
D03*
X30736D02*
D03*
D27*
X52000Y42800D02*
D03*
Y38200D02*
D03*
X48500Y42800D02*
D03*
Y38200D02*
D03*
D28*
X57453Y47000D02*
D03*
X51547D02*
D03*
D44*
X34500Y18000D02*
Y18580D01*
X34591Y18672D01*
X35453Y16286D02*
X39361D01*
X35281Y16114D02*
X35453Y16286D01*
X33947Y16114D02*
X35281D01*
X31984Y14151D02*
X33947Y16114D01*
X45028Y45814D02*
X45214Y46000D01*
X32516Y46516D02*
X34000Y48000D01*
X34500Y48500D01*
X34673Y47327D02*
Y56606D01*
X44970Y44930D02*
X45408Y44492D01*
X43295Y46605D02*
X44557Y45343D01*
X45028Y44989D02*
Y45814D01*
X44970Y44930D02*
X45028Y44989D01*
X39000Y27237D02*
Y27500D01*
X37982Y23449D02*
Y25631D01*
X38009Y25659D01*
X37808Y23275D02*
X37982Y23449D01*
X38009Y25659D02*
Y26246D01*
X39000Y27237D01*
X37209Y28417D02*
X38177Y29386D01*
X39186D01*
X39800Y30000D01*
X33417Y28417D02*
X37209D01*
X33953Y19310D02*
X34591Y18672D01*
X27379Y14954D02*
X29924Y12409D01*
X27379Y14954D02*
Y14954D01*
X25759Y16574D02*
X27379Y14954D01*
X25179Y15174D02*
X25979Y14374D01*
Y14374D02*
Y14374D01*
Y14374D02*
X27571Y12782D01*
Y12154D02*
Y12782D01*
X24499Y15500D02*
X24825Y15174D01*
X25179D01*
X25405Y16574D02*
X25759D01*
X24979Y17000D02*
X25405Y16574D01*
X24358Y13288D02*
Y13328D01*
X8621Y15500D02*
X24499D01*
X15386Y17000D02*
X24979D01*
X31984Y9807D02*
Y14151D01*
X24175Y9872D02*
Y13511D01*
X6112Y18009D02*
X8621Y15500D01*
X24175Y13511D02*
X24358Y13328D01*
X13000Y19386D02*
X15386Y17000D01*
X12521Y19386D02*
X13000D01*
X41500Y11486D02*
X41648Y11338D01*
Y10648D02*
Y11338D01*
X40450Y10500D02*
X41500D01*
X29924Y9899D02*
Y12409D01*
X16166Y22867D02*
X16352Y22681D01*
X39998Y18786D02*
X45361D01*
X39281Y19502D02*
X39998Y18786D01*
X39280Y19502D02*
X39281D01*
X38366Y20416D02*
X39280Y19502D01*
X38366Y20416D02*
Y20846D01*
X37982Y21231D02*
X38366Y20846D01*
X40056Y21892D02*
X42449D01*
X39950Y21787D02*
X40056Y21892D01*
X39858Y21879D02*
X39950Y21787D01*
X39858Y21879D02*
Y23193D01*
X37219Y14886D02*
X38781D01*
X35941Y13608D02*
X37219Y14886D01*
X37882Y12882D02*
X38000Y13000D01*
X42144Y14331D02*
X43127Y15314D01*
X39336Y14331D02*
X42144D01*
X38781Y14886D02*
X39336Y14331D01*
X41564Y15731D02*
X43219Y17386D01*
X39916Y15731D02*
X41564D01*
X39361Y16286D02*
X39916Y15731D01*
X43814Y15314D02*
X44000Y15500D01*
X27895Y27600D02*
X30727D01*
X27130Y28365D02*
X27895Y27600D01*
X27130Y28365D02*
Y28711D01*
X26661Y29179D02*
X27130Y28711D01*
X35941Y12774D02*
Y13608D01*
X25796Y55882D02*
X27539D01*
X42648Y10648D02*
X46431Y14431D01*
X43127Y15314D02*
X43814D01*
X41500Y10500D02*
X41648Y10648D01*
X27955Y9899D02*
Y11769D01*
X27571Y12154D02*
X27955Y11769D01*
X46431Y14431D02*
X53389D01*
X41648Y10648D02*
X42648D01*
X54958Y16000D02*
X55335D01*
X53389Y14431D02*
X54958Y16000D01*
X51000Y17854D02*
Y18000D01*
X43219Y17386D02*
X50531D01*
X51000Y17854D01*
Y23000D02*
X57923D01*
X46786Y18786D02*
X51000Y23000D01*
X45361Y18786D02*
X46786D01*
X52325Y19325D02*
Y20325D01*
X52500Y20500D01*
X51000Y18000D02*
X52325Y19325D01*
X54264Y45625D02*
Y49244D01*
X52909Y50274D02*
Y50599D01*
Y50274D02*
X53513Y49670D01*
X53838D01*
X54264Y49244D01*
Y45625D02*
X55464Y44425D01*
X55666D02*
X56225Y43867D01*
X56488D01*
X55464Y44425D02*
X55666D01*
X57000Y46325D02*
Y47453D01*
X58456Y44044D02*
X58961Y43539D01*
X58456Y44044D02*
Y45221D01*
X57352Y46325D02*
X58456Y45221D01*
X57000Y46325D02*
X57352D01*
X57673Y28420D02*
X58961Y29708D01*
X56717Y27382D02*
X57673Y28338D01*
Y28420D01*
X55417Y27382D02*
X56717D01*
X58961Y29708D02*
Y43539D01*
X47895Y46605D02*
X48000Y46500D01*
X50788D01*
X45408Y44492D02*
X45635D01*
X46220Y43906D01*
Y37389D02*
Y43906D01*
X51342Y35000D02*
X51748D01*
X51891Y35143D02*
Y35631D01*
X51748Y35000D02*
X51891Y35143D01*
X39843Y44547D02*
X39935Y44455D01*
X41201D01*
X42564Y43092D01*
X43180D01*
X43399Y42257D02*
Y42873D01*
X43180Y43092D02*
X43399Y42873D01*
X39879Y38430D02*
X42741D01*
X39843Y38394D02*
X39879Y38430D01*
X42741D02*
X43892Y39581D01*
X43892D01*
X36642Y38394D02*
X39843D01*
X46291Y37319D02*
X46705Y37733D01*
X44875Y34790D02*
X44945Y34860D01*
X47602Y37517D02*
X47817D01*
X46628Y36543D02*
X47602Y37517D01*
X44945Y35958D02*
X45531Y36543D01*
X46628D01*
X44945Y34860D02*
Y35958D01*
X47817Y37517D02*
Y37733D01*
X46705D02*
X47817D01*
X25504Y39841D02*
X25796Y40134D01*
X25211Y39548D02*
X25504Y39841D01*
X23838Y39662D02*
X24016Y39841D01*
X25504D01*
X19500Y35579D02*
Y38500D01*
X23500Y42500D01*
X27461D01*
X24110Y50872D02*
X24574D01*
X24110Y51336D02*
X25211Y52437D01*
X37882Y9815D02*
Y12882D01*
X39950Y11000D02*
X40450Y10500D01*
X37808Y23275D02*
X37982Y23101D01*
X39800Y30200D02*
X40100D01*
X40800Y29500D02*
X43524D01*
X43583Y29441D01*
X40100Y30200D02*
X40800Y29500D01*
X29311Y31864D02*
X29337Y31890D01*
X29311Y30000D02*
Y31864D01*
X24110Y9807D02*
X24175Y9872D01*
X30171Y36262D02*
X31643D01*
X29830D02*
X30171D01*
X32017Y33837D02*
Y34376D01*
X30132Y35195D02*
X30171Y35234D01*
X30132Y34860D02*
Y35195D01*
X29311Y34039D02*
X30132Y34860D01*
X31643Y36262D02*
X31876Y36495D01*
X30171Y35234D02*
Y36262D01*
X30171Y36262D01*
X32017Y33837D02*
X33117Y32737D01*
X29311Y34000D02*
Y34039D01*
X31876Y36495D02*
X32705D01*
X33505D01*
X34517Y35483D01*
Y34683D02*
X35200Y34000D01*
X34517Y34683D02*
Y35483D01*
X35915Y36083D02*
X36697D01*
X35735Y36262D02*
X35915Y36083D01*
X35735Y36262D02*
X35735D01*
X34765Y37232D02*
X35735Y36262D01*
X34673Y38394D02*
X34765Y38302D01*
Y37232D02*
Y38302D01*
X38817Y34183D02*
X39117D01*
X37042Y35958D02*
X38817Y34183D01*
X36822Y35958D02*
X37042D01*
X36697Y36083D02*
X36822Y35958D01*
X39117Y34183D02*
X39800Y33500D01*
X28701Y37150D02*
X29436Y36415D01*
X29677D01*
X29830Y36262D01*
X32705Y36495D02*
Y38394D01*
X30000Y32500D02*
Y33311D01*
X11500Y37000D02*
X13000D01*
X11000Y37500D02*
X11500Y37000D01*
X13000D02*
Y37189D01*
X37982Y21231D02*
Y23101D01*
X37882Y9815D02*
X37890Y9807D01*
X42449Y21892D02*
X43075Y21266D01*
X8781Y21860D02*
Y23596D01*
X9136Y23951D01*
Y24214D01*
X35940Y11930D02*
Y12774D01*
X5000Y19117D02*
Y23500D01*
Y18723D02*
Y19117D01*
X5714Y18009D02*
X6112D01*
X5000Y18723D02*
X5714Y18009D01*
X5819Y18302D02*
X6112Y18009D01*
X32892Y27785D02*
Y27892D01*
X31492Y28472D02*
X31956Y28936D01*
X31492Y28365D02*
Y28472D01*
X32892Y27892D02*
X33417Y28417D01*
X32076Y26970D02*
X32892Y27785D01*
X32076Y23285D02*
Y26970D01*
X30727Y27600D02*
X31492Y28365D01*
X31956Y28936D02*
Y28971D01*
X11740Y20167D02*
Y21079D01*
Y20167D02*
X12521Y19386D01*
X5819Y18302D02*
Y18648D01*
X33117Y30267D02*
Y32737D01*
Y30267D02*
X33185Y30200D01*
X31956Y28971D02*
X33185Y30200D01*
X25689Y29961D02*
X26470Y29179D01*
X26661D01*
X25689Y29961D02*
Y30000D01*
Y34000D01*
X33185Y30200D02*
X35200D01*
X29311Y34000D02*
X30000Y33311D01*
X25796Y40134D02*
X26226D01*
X26703Y40610D01*
X25211Y37735D02*
Y39548D01*
X26703Y40610D02*
X27539D01*
X25796Y37150D02*
X28701D01*
X25211Y37735D02*
X25796Y37150D01*
X19811Y28500D02*
Y30883D01*
X19279Y35779D02*
X20271Y34786D01*
X19811Y30883D02*
X20271Y31343D01*
Y34786D01*
X16166Y22867D02*
Y23469D01*
X16000Y23636D02*
X16166Y23469D01*
X16000Y23636D02*
Y26500D01*
X16048Y28359D02*
X16189Y28500D01*
X16048Y26548D02*
Y28359D01*
X16000Y26500D02*
X16048Y26548D01*
X39858Y10908D02*
X39950Y11000D01*
X49291Y30720D02*
Y33209D01*
X8386Y31307D02*
Y34886D01*
X8000Y30921D02*
X8386Y31307D01*
Y34886D02*
X9082Y35582D01*
X8000Y21079D02*
X8781Y21860D01*
X35940Y11930D02*
X36057Y11813D01*
X35921Y9807D02*
Y11677D01*
X36057Y11813D01*
X30238Y19769D02*
Y20762D01*
X30014Y19546D02*
X30238Y19769D01*
X27539Y55882D02*
Y56606D01*
X25211Y55296D02*
X25796Y55882D01*
X25211Y53483D02*
Y55296D01*
Y53483D02*
X25289Y53405D01*
X25211Y53328D02*
X25289Y53405D01*
X25211Y52437D02*
Y53328D01*
X30644Y56698D02*
X30736Y56606D01*
X30644Y56698D02*
Y58562D01*
X30539Y58667D02*
X30644Y58562D01*
X33953Y9807D02*
Y11677D01*
X34429Y12154D01*
Y12584D01*
X33953Y19310D02*
Y23193D01*
X27955Y9899D02*
X28047Y9807D01*
X29924Y9899D02*
X30016Y9807D01*
X36642Y38394D02*
Y41432D01*
X34673Y43400D02*
X36642Y41432D01*
X34673Y47327D02*
X35484Y46516D01*
X34673Y43400D02*
Y47327D01*
X31213Y39940D02*
X34673Y43400D01*
X31213Y39510D02*
Y39940D01*
X30736Y39033D02*
X31213Y39510D01*
X30736Y38394D02*
Y39033D01*
X35484Y46516D02*
X39843D01*
X27539D02*
X32516D01*
X31984Y23193D02*
X32076Y23285D01*
X43583Y26882D02*
Y29441D01*
X18626Y44547D02*
X27539D01*
X18066D02*
X18626D01*
X19500Y45421D01*
X17932Y43853D02*
X18626Y44547D01*
X16042Y43853D02*
X17932D01*
X13821Y41631D02*
X16042Y43853D01*
X13821Y41592D02*
Y41631D01*
X13039Y40811D02*
X13821Y41592D01*
X13000Y40811D02*
X13039D01*
X27461Y42500D02*
X27539Y42579D01*
X5350Y19117D02*
X5819Y18648D01*
X4260Y19898D02*
X5041Y19117D01*
X5350D01*
X4260Y19898D02*
Y21079D01*
X55289Y35059D02*
X55417D01*
X55000Y35348D02*
X55289Y35059D01*
X55000Y35348D02*
Y36000D01*
X52183Y38517D02*
X52483D01*
X55000Y36000D01*
X43583Y32000D02*
Y34559D01*
X50571Y29441D02*
X55000D01*
X49291Y30720D02*
X50571Y29441D01*
D45*
X42962Y49433D02*
Y49433D01*
X48520Y53980D02*
X50130Y55591D01*
X47980Y53980D02*
X48520D01*
X46824Y52824D02*
X47980Y53980D01*
X46354Y52824D02*
X46824D01*
X42962Y49433D02*
X46354Y52824D01*
X50455Y55591D02*
X51000Y56136D01*
X50130Y55591D02*
X50455D01*
X51000Y56136D02*
Y56461D01*
D46*
X61667Y46025D02*
D03*
X56010Y40368D02*
D03*
X44697Y57339D02*
D03*
D47*
X34500Y18000D02*
D03*
X48500Y58500D02*
D03*
X54500Y53500D02*
D03*
X50098Y51973D02*
D03*
X45214Y46000D02*
D03*
X46534Y49500D02*
D03*
X42962Y49433D02*
D03*
X34000Y48000D02*
D03*
X43000Y53500D02*
D03*
X36123Y26440D02*
D03*
X39000Y27500D02*
D03*
X34028Y13528D02*
D03*
X37000Y19000D02*
D03*
X28064Y20420D02*
D03*
X26092Y18523D02*
D03*
X30500Y19722D02*
D03*
X29893Y15107D02*
D03*
X24358Y13288D02*
D03*
X16020Y8131D02*
D03*
X41500Y11486D02*
D03*
X16352Y22681D02*
D03*
X38000Y13000D02*
D03*
X24004Y26130D02*
D03*
X44000Y15500D02*
D03*
X31888Y5758D02*
D03*
X52500Y20500D02*
D03*
X56150Y50061D02*
D03*
X56488Y43867D02*
D03*
X51891Y35631D02*
D03*
X23838Y39662D02*
D03*
X24110Y50872D02*
D03*
X53000Y43000D02*
D03*
X29337Y31890D02*
D03*
X32017Y34376D02*
D03*
X24500Y48500D02*
D03*
X11000Y37500D02*
D03*
X43075Y21266D02*
D03*
X9136Y24214D02*
D03*
X13000Y19386D02*
D03*
X5000Y23500D02*
D03*
X18385Y32124D02*
D03*
X6500Y35000D02*
D03*
X9082Y35582D02*
D03*
X30539Y58667D02*
D03*
D48*
X59000Y23000D02*
D03*
X56500Y16000D02*
D03*
X32000Y0D02*
D03*
X46500Y4500D02*
D03*
X0Y26000D02*
D03*
X18500Y2500D02*
D03*
X10500Y7000D02*
D03*
X52500Y9500D02*
D03*
X5000Y13000D02*
D03*
X39500Y1500D02*
D03*
M02*
