G04*
G04 #@! TF.GenerationSoftware,Altium Limited,Altium Designer,20.0.13 (296)*
G04*
G04 Layer_Physical_Order=2*
G04 Layer_Color=36540*
%FSLAX25Y25*%
%MOIN*%
G70*
G01*
G75*
%ADD14C,0.01000*%
%ADD46C,0.01949*%
%ADD47C,0.01772*%
%ADD48C,0.06299*%
%ADD49C,0.02400*%
G36*
X55081Y52419D02*
X54665Y51797D01*
X54619Y51561D01*
X56442D01*
Y51061D01*
X56942D01*
Y49237D01*
X57178Y49284D01*
X57800Y49700D01*
X58500Y49000D01*
Y42134D01*
X58000Y41982D01*
X57849Y42207D01*
X57006Y42771D01*
X56010Y42969D01*
X55015Y42771D01*
X54171Y42207D01*
X53608Y41363D01*
X53410Y40368D01*
X53505Y39887D01*
X53188Y39500D01*
X22000D01*
X21500Y39000D01*
Y24000D01*
X17053D01*
X16932Y24081D01*
X16352Y24196D01*
X15773Y24081D01*
X15652Y24000D01*
X10826D01*
X10651Y24214D01*
X10535Y24794D01*
X10207Y25285D01*
X9716Y25614D01*
X9136Y25729D01*
X8556Y25614D01*
X8065Y25285D01*
X7736Y24794D01*
X7621Y24214D01*
X7445Y24000D01*
X6415D01*
X6400Y24080D01*
X6071Y24571D01*
X5580Y24900D01*
X5000Y25015D01*
X4420Y24900D01*
X4038Y24644D01*
X3619Y24939D01*
X3653Y25021D01*
X3782Y26000D01*
X3653Y26979D01*
X3275Y27891D01*
X2674Y28674D01*
X2500Y28808D01*
Y33754D01*
X4849Y36103D01*
X5237Y35784D01*
X5100Y35580D01*
X4985Y35000D01*
X5100Y34420D01*
X5429Y33929D01*
X5920Y33600D01*
X6500Y33485D01*
X7080Y33600D01*
X7571Y33929D01*
X8026Y34019D01*
X8346Y33805D01*
X8582Y33759D01*
Y35582D01*
X9582D01*
Y33759D01*
X9818Y33805D01*
X10441Y34222D01*
X10858Y34846D01*
X11005Y35582D01*
X10993Y35639D01*
X11000Y35985D01*
X11580Y36100D01*
X12071Y36429D01*
X12400Y36920D01*
X12515Y37500D01*
X12400Y38080D01*
X12071Y38571D01*
X11580Y38900D01*
X11000Y39015D01*
X10420Y38900D01*
X9929Y38571D01*
X9600Y38080D01*
X9485Y37500D01*
X9139Y37493D01*
X9082Y37505D01*
X8346Y37358D01*
X7722Y36941D01*
X7305Y36318D01*
X7129Y36367D01*
X7080Y36400D01*
X6500Y36515D01*
X5920Y36400D01*
X5716Y36263D01*
X5397Y36651D01*
X24746Y56000D01*
X42146D01*
X42290Y55524D01*
X42269Y55481D01*
X42068Y55347D01*
X41740Y54855D01*
X41624Y54275D01*
X41740Y53696D01*
X42068Y53204D01*
X42560Y52876D01*
X43139Y52760D01*
X43719Y52876D01*
X44210Y53204D01*
X44539Y53696D01*
X44654Y54275D01*
X44654Y54276D01*
X45058Y54810D01*
X45692Y54936D01*
X46536Y55500D01*
X46870Y56000D01*
X51500D01*
X55081Y52419D01*
D02*
G37*
G36*
X59000Y37500D02*
Y27283D01*
X58750Y27078D01*
Y25000D01*
X57750D01*
Y26823D01*
X57514Y26776D01*
X56890Y26360D01*
X56809Y26238D01*
X56311Y26189D01*
X55649Y26851D01*
Y27000D01*
X55459Y27459D01*
X54459Y28459D01*
X54000Y28649D01*
X53851D01*
X53500Y29000D01*
X23000Y29000D01*
Y38000D01*
X50660Y38000D01*
X50812Y37500D01*
X50604Y37361D01*
X50276Y36870D01*
X50160Y36290D01*
X50276Y35710D01*
X50604Y35219D01*
X51096Y34890D01*
X51675Y34775D01*
X52255Y34890D01*
X52747Y35219D01*
X53075Y35710D01*
X53190Y36290D01*
X53075Y36870D01*
X52747Y37361D01*
X52539Y37500D01*
X52691Y38000D01*
X54963D01*
X55015Y37966D01*
X56010Y37767D01*
X57006Y37966D01*
X57057Y38000D01*
X58500D01*
X59000Y37500D01*
D02*
G37*
G36*
X55000Y27000D02*
Y22155D01*
X54500Y21823D01*
Y20000D01*
Y18177D01*
X55000Y17844D01*
Y15500D01*
X54602Y15102D01*
X54479Y15153D01*
X53500Y15282D01*
X52521Y15153D01*
X51609Y14775D01*
X50826Y14174D01*
X50225Y13391D01*
X49847Y12479D01*
X49718Y11500D01*
X49847Y10521D01*
X49898Y10398D01*
X49102Y9602D01*
X48979Y9653D01*
X48000Y9782D01*
X47021Y9653D01*
X46109Y9275D01*
X45326Y8674D01*
X44725Y7891D01*
X44347Y6979D01*
X44287Y6524D01*
X40960Y5777D01*
X40021Y5653D01*
X39562Y5463D01*
X37587Y5020D01*
X37360Y5360D01*
X36736Y5776D01*
X36500Y5823D01*
Y4000D01*
X35500D01*
Y5823D01*
X35264Y5776D01*
X34640Y5360D01*
X34224Y4736D01*
X34126Y4242D01*
X24503Y2082D01*
X24099Y2377D01*
X23267Y11802D01*
X23739Y12149D01*
X24093Y12078D01*
X24673Y12194D01*
X25164Y12522D01*
X25493Y13013D01*
X25608Y13593D01*
X25493Y14173D01*
X25164Y14664D01*
X24673Y14993D01*
X24093Y15108D01*
X23513Y14993D01*
X23489Y14977D01*
X22965Y15228D01*
X22500Y20500D01*
Y24265D01*
X23000Y24533D01*
X23268Y24353D01*
X23504Y24306D01*
Y26130D01*
X24004D01*
Y26630D01*
X25827D01*
X25780Y26866D01*
X25364Y27489D01*
X25348Y27500D01*
X25499Y28000D01*
X37081D01*
X37249Y27776D01*
X37153Y27288D01*
X36829Y27071D01*
X36500Y26580D01*
X36385Y26000D01*
X36500Y25420D01*
X36813Y24953D01*
Y24586D01*
X36898Y24157D01*
X37141Y23793D01*
X37505Y23550D01*
X37934Y23464D01*
X38364Y23550D01*
X38728Y23793D01*
X38971Y24157D01*
X39056Y24586D01*
Y25056D01*
X39300Y25420D01*
X39415Y26000D01*
X39300Y26580D01*
X38971Y27071D01*
X38917Y27107D01*
X38793Y27293D01*
X38773Y27908D01*
X38845Y28000D01*
X54000D01*
X55000Y27000D01*
D02*
G37*
%LPC*%
G36*
X48000Y54515D02*
X47420Y54400D01*
X46929Y54071D01*
X46600Y53580D01*
X46485Y53000D01*
X46600Y52420D01*
X46929Y51929D01*
X47420Y51600D01*
X48000Y51485D01*
X48580Y51600D01*
X48999Y51881D01*
X49328Y51819D01*
X49539Y51729D01*
X49600Y51420D01*
X49929Y50929D01*
X50420Y50600D01*
X51000Y50485D01*
X51580Y50600D01*
X52071Y50929D01*
X52400Y51420D01*
X52515Y52000D01*
X52400Y52580D01*
X52071Y53071D01*
X51580Y53400D01*
X51000Y53515D01*
X50420Y53400D01*
X50001Y53119D01*
X49672Y53181D01*
X49461Y53271D01*
X49400Y53580D01*
X49071Y54071D01*
X48580Y54400D01*
X48000Y54515D01*
D02*
G37*
G36*
X43814Y51092D02*
Y49768D01*
X45138D01*
X45091Y50004D01*
X44674Y50628D01*
X44050Y51045D01*
X43814Y51092D01*
D02*
G37*
G36*
X42814D02*
X42578Y51045D01*
X41955Y50628D01*
X41538Y50004D01*
X41491Y49768D01*
X42814D01*
Y51092D01*
D02*
G37*
G36*
X55942Y50561D02*
X54619D01*
X54665Y50325D01*
X55082Y49701D01*
X55706Y49284D01*
X55942Y49237D01*
Y50561D01*
D02*
G37*
G36*
X45138Y48768D02*
X43814D01*
Y47445D01*
X44050Y47492D01*
X44674Y47909D01*
X45091Y48533D01*
X45138Y48768D01*
D02*
G37*
G36*
X42814D02*
X41491D01*
X41538Y48533D01*
X41955Y47909D01*
X42578Y47492D01*
X42814Y47445D01*
Y48768D01*
D02*
G37*
G36*
X23558Y52299D02*
X22978Y52184D01*
X22487Y51856D01*
X22159Y51364D01*
X22043Y50785D01*
X22159Y50205D01*
X22487Y49713D01*
X22788Y49512D01*
X23100Y49080D01*
X22985Y48500D01*
X23100Y47920D01*
X23429Y47429D01*
X23920Y47100D01*
X24500Y46985D01*
X25080Y47100D01*
X25571Y47429D01*
X25900Y47920D01*
X26015Y48500D01*
X25900Y49080D01*
X25571Y49571D01*
X25270Y49772D01*
X24958Y50205D01*
X25073Y50785D01*
X24958Y51364D01*
X24629Y51856D01*
X24138Y52184D01*
X23558Y52299D01*
D02*
G37*
G36*
X34000Y49515D02*
X33420Y49400D01*
X32929Y49071D01*
X32600Y48580D01*
X32485Y48000D01*
X32600Y47420D01*
X32929Y46929D01*
X33420Y46600D01*
X34000Y46485D01*
X34580Y46600D01*
X35071Y46929D01*
X35400Y47420D01*
X35515Y48000D01*
X35400Y48580D01*
X35071Y49071D01*
X34580Y49400D01*
X34000Y49515D01*
D02*
G37*
G36*
X54567Y46487D02*
X53987Y46372D01*
X53496Y46044D01*
X53167Y45552D01*
X53052Y44972D01*
X53167Y44392D01*
X53496Y43901D01*
X53987Y43573D01*
X54567Y43457D01*
X55147Y43573D01*
X55638Y43901D01*
X55967Y44392D01*
X56082Y44972D01*
X55967Y45552D01*
X55638Y46044D01*
X55147Y46372D01*
X54567Y46487D01*
D02*
G37*
G36*
X18885Y33948D02*
Y32624D01*
X20209D01*
X20162Y32860D01*
X19745Y33484D01*
X19121Y33901D01*
X18885Y33948D01*
D02*
G37*
G36*
X17885D02*
X17650Y33901D01*
X17026Y33484D01*
X16609Y32860D01*
X16562Y32624D01*
X17885D01*
Y33948D01*
D02*
G37*
G36*
X20209Y31624D02*
X18885D01*
Y30301D01*
X19121Y30348D01*
X19745Y30765D01*
X20162Y31389D01*
X20209Y31624D01*
D02*
G37*
G36*
X17885D02*
X16562D01*
X16609Y31389D01*
X17026Y30765D01*
X17650Y30348D01*
X17885Y30301D01*
Y31624D01*
D02*
G37*
G36*
X32017Y35891D02*
X31438Y35776D01*
X30946Y35447D01*
X30618Y34956D01*
X30503Y34376D01*
X30593Y33919D01*
X30274Y33630D01*
X30188Y33589D01*
X30072Y33666D01*
X29836Y33713D01*
Y32390D01*
X31160D01*
X31121Y32587D01*
X31298Y32812D01*
X31486Y32967D01*
X32017Y32861D01*
X32597Y32976D01*
X33089Y33305D01*
X33417Y33796D01*
X33533Y34376D01*
X33417Y34956D01*
X33089Y35447D01*
X32597Y35776D01*
X32017Y35891D01*
D02*
G37*
G36*
X28837Y33713D02*
X28601Y33666D01*
X27977Y33249D01*
X27560Y32625D01*
X27513Y32390D01*
X28837D01*
Y33713D01*
D02*
G37*
G36*
X31160Y31390D02*
X29836D01*
Y30066D01*
X30072Y30113D01*
X30696Y30530D01*
X31113Y31154D01*
X31160Y31390D01*
D02*
G37*
G36*
X28837D02*
X27513D01*
X27560Y31154D01*
X27977Y30530D01*
X28601Y30113D01*
X28837Y30066D01*
Y31390D01*
D02*
G37*
G36*
X25827Y25630D02*
X24504D01*
Y24306D01*
X24740Y24353D01*
X25364Y24770D01*
X25780Y25394D01*
X25827Y25630D01*
D02*
G37*
G36*
X53500Y21823D02*
X53264Y21776D01*
X52640Y21360D01*
X52224Y20736D01*
X52177Y20500D01*
X53500D01*
Y21823D01*
D02*
G37*
G36*
X30500Y21015D02*
X29920Y20900D01*
X29429Y20571D01*
X29370Y20482D01*
X28768D01*
X28714Y20563D01*
X28223Y20891D01*
X27643Y21007D01*
X27063Y20891D01*
X26572Y20563D01*
X26243Y20072D01*
X26128Y19492D01*
X26243Y18912D01*
X26572Y18421D01*
X26596Y18405D01*
X26702Y17732D01*
X26600Y17580D01*
X26485Y17000D01*
X26600Y16420D01*
X26929Y15929D01*
X27420Y15600D01*
X28000Y15485D01*
X28580Y15600D01*
X29071Y15929D01*
X29400Y16420D01*
X29515Y17000D01*
X29400Y17580D01*
X29253Y17799D01*
X29386Y18197D01*
X29631Y18293D01*
X29920Y18100D01*
X30500Y17985D01*
X31080Y18100D01*
X31571Y18429D01*
X31900Y18920D01*
X32015Y19500D01*
X31900Y20080D01*
X31571Y20571D01*
X31080Y20900D01*
X30500Y21015D01*
D02*
G37*
G36*
X43075Y22781D02*
X42495Y22666D01*
X42003Y22337D01*
X41675Y21846D01*
X41560Y21266D01*
X41675Y20686D01*
X42003Y20195D01*
X42495Y19867D01*
X43075Y19751D01*
X43654Y19867D01*
X44146Y20195D01*
X44474Y20686D01*
X44590Y21266D01*
X44474Y21846D01*
X44146Y22337D01*
X43654Y22666D01*
X43075Y22781D01*
D02*
G37*
G36*
X37000Y20515D02*
X36420Y20400D01*
X35929Y20071D01*
X35844Y19944D01*
X35584Y19589D01*
X35203Y19817D01*
X35080Y19900D01*
X34500Y20015D01*
X33920Y19900D01*
X33429Y19571D01*
X33100Y19080D01*
X32985Y18500D01*
X33100Y17920D01*
X33429Y17429D01*
X33920Y17100D01*
X34500Y16985D01*
X35080Y17100D01*
X35571Y17429D01*
X35656Y17556D01*
X35916Y17911D01*
X36297Y17683D01*
X36420Y17600D01*
X37000Y17485D01*
X37580Y17600D01*
X38071Y17929D01*
X38400Y18420D01*
X38515Y19000D01*
X38400Y19580D01*
X38071Y20071D01*
X37580Y20400D01*
X37000Y20515D01*
D02*
G37*
G36*
X53500Y19500D02*
X52177D01*
X52224Y19264D01*
X52640Y18640D01*
X53264Y18224D01*
X53500Y18177D01*
Y19500D01*
D02*
G37*
G36*
X48233Y19131D02*
X47653Y19016D01*
X47162Y18688D01*
X46834Y18196D01*
X46718Y17616D01*
X46834Y17037D01*
X47162Y16545D01*
X47653Y16217D01*
X48233Y16102D01*
X48813Y16217D01*
X49305Y16545D01*
X49633Y17037D01*
X49748Y17616D01*
X49633Y18196D01*
X49305Y18688D01*
X48813Y19016D01*
X48233Y19131D01*
D02*
G37*
G36*
X44000Y17015D02*
X43420Y16900D01*
X42929Y16571D01*
X42600Y16080D01*
X42485Y15500D01*
X42600Y14920D01*
X42929Y14429D01*
X43420Y14100D01*
X44000Y13985D01*
X44580Y14100D01*
X45071Y14429D01*
X45400Y14920D01*
X45515Y15500D01*
X45400Y16080D01*
X45071Y16571D01*
X44580Y16900D01*
X44000Y17015D01*
D02*
G37*
G36*
X34055Y15070D02*
X33476Y14955D01*
X32984Y14626D01*
X32656Y14135D01*
X32540Y13555D01*
X32656Y12976D01*
X32984Y12484D01*
X33476Y12156D01*
X34055Y12040D01*
X34635Y12156D01*
X35126Y12484D01*
X35455Y12976D01*
X35570Y13555D01*
X35455Y14135D01*
X35126Y14626D01*
X34635Y14955D01*
X34055Y15070D01*
D02*
G37*
G36*
X37873Y13960D02*
X37294Y13844D01*
X36802Y13516D01*
X36474Y13025D01*
X36358Y12445D01*
X36474Y11865D01*
X36802Y11374D01*
X37294Y11045D01*
X37873Y10930D01*
X38453Y11045D01*
X38945Y11374D01*
X39273Y11865D01*
X39388Y12445D01*
X39273Y13025D01*
X38945Y13516D01*
X38453Y13844D01*
X37873Y13960D01*
D02*
G37*
G36*
X41500Y10965D02*
X40920Y10850D01*
X40429Y10522D01*
X40100Y10030D01*
X39985Y9450D01*
X40100Y8871D01*
X40429Y8379D01*
X40920Y8051D01*
X41500Y7936D01*
X42080Y8051D01*
X42571Y8379D01*
X42900Y8871D01*
X43015Y9450D01*
X42900Y10030D01*
X42571Y10522D01*
X42080Y10850D01*
X41500Y10965D01*
D02*
G37*
%LPD*%
D14*
X23808Y26130D02*
X24004D01*
X38000Y25743D02*
Y26500D01*
X37934Y25678D02*
X38000Y25743D01*
X37934Y24586D02*
Y25678D01*
X23742Y26064D02*
X23808Y26130D01*
D46*
X61667Y46025D02*
D03*
X56010Y40368D02*
D03*
X44697Y57339D02*
D03*
D47*
X29337Y31890D02*
D03*
X34500Y18500D02*
D03*
X30500Y19500D02*
D03*
X24093Y13593D02*
D03*
X28000Y17000D02*
D03*
X27643Y19492D02*
D03*
X16352Y22681D02*
D03*
X34055Y13555D02*
D03*
X37873Y12445D02*
D03*
X24004Y26130D02*
D03*
X20488Y9786D02*
D03*
X37000Y19000D02*
D03*
D03*
X32017Y34376D02*
D03*
X54000Y20000D02*
D03*
X36000Y4000D02*
D03*
X44000Y15500D02*
D03*
X24500Y48500D02*
D03*
X11000Y37500D02*
D03*
X41500Y9450D02*
D03*
X37900Y26000D02*
D03*
X43075Y21266D02*
D03*
X9136Y24214D02*
D03*
X48233Y17616D02*
D03*
X13000Y19386D02*
D03*
X5000Y23500D02*
D03*
X56442Y51061D02*
D03*
X58250Y25000D02*
D03*
X18385Y32124D02*
D03*
X54567Y44972D02*
D03*
X51675Y36290D02*
D03*
X43314Y49268D02*
D03*
X6500Y35000D02*
D03*
X43139Y54275D02*
D03*
X9082Y35582D02*
D03*
X23558Y50785D02*
D03*
X30539Y58667D02*
D03*
X48000Y53000D02*
D03*
X51000Y52000D02*
D03*
X48464Y57639D02*
D03*
X34000Y48000D02*
D03*
D48*
X33000Y0D02*
D03*
X0Y26000D02*
D03*
X48000Y6000D02*
D03*
X18500Y2500D02*
D03*
X10500Y7000D02*
D03*
X53500Y11500D02*
D03*
X5000Y13000D02*
D03*
X41000Y2000D02*
D03*
D49*
X19000Y13000D02*
X23500Y17500D01*
X5000Y13000D02*
X19000D01*
M02*
