G04*
G04 #@! TF.GenerationSoftware,Altium Limited,Altium Designer,20.0.13 (296)*
G04*
G04 Layer_Physical_Order=4*
G04 Layer_Color=1930808*
%FSLAX25Y25*%
%MOIN*%
G70*
G01*
G75*
%ADD15C,0.00600*%
%ADD44C,0.00800*%
%ADD46C,0.01949*%
%ADD47C,0.01772*%
%ADD48C,0.06299*%
%ADD51C,0.03098*%
G04:AMPARAMS|DCode=52|XSize=74.8mil|YSize=70.87mil|CornerRadius=0mil|HoleSize=0mil|Usage=FLASHONLY|Rotation=315.000|XOffset=0mil|YOffset=0mil|HoleType=Round|Shape=Rectangle|*
%AMROTATEDRECTD52*
4,1,4,-0.05150,0.00139,-0.00139,0.05150,0.05150,-0.00139,0.00139,-0.05150,-0.05150,0.00139,0.0*
%
%ADD52ROTATEDRECTD52*%

%ADD53P,0.10579X4X360.0*%
G04:AMPARAMS|DCode=54|XSize=86.61mil|YSize=62.99mil|CornerRadius=0mil|HoleSize=0mil|Usage=FLASHONLY|Rotation=45.000|XOffset=0mil|YOffset=0mil|HoleType=Round|Shape=Rectangle|*
%AMROTATEDRECTD54*
4,1,4,-0.00835,-0.05289,-0.05289,-0.00835,0.00835,0.05289,0.05289,0.00835,-0.00835,-0.05289,0.0*
%
%ADD54ROTATEDRECTD54*%

G04:AMPARAMS|DCode=55|XSize=53.15mil|YSize=15.75mil|CornerRadius=0mil|HoleSize=0mil|Usage=FLASHONLY|Rotation=315.000|XOffset=0mil|YOffset=0mil|HoleType=Round|Shape=Rectangle|*
%AMROTATEDRECTD55*
4,1,4,-0.02436,0.01322,-0.01322,0.02436,0.02436,-0.01322,0.01322,-0.02436,-0.02436,0.01322,0.0*
%
%ADD55ROTATEDRECTD55*%

G04:AMPARAMS|DCode=56|XSize=55.12mil|YSize=35.43mil|CornerRadius=0mil|HoleSize=0mil|Usage=FLASHONLY|Rotation=225.000|XOffset=0mil|YOffset=0mil|HoleType=Round|Shape=Rectangle|*
%AMROTATEDRECTD56*
4,1,4,0.00696,0.03202,0.03202,0.00696,-0.00696,-0.03202,-0.03202,-0.00696,0.00696,0.03202,0.0*
%
%ADD56ROTATEDRECTD56*%

G04:AMPARAMS|DCode=57|XSize=39.37mil|YSize=27.56mil|CornerRadius=0mil|HoleSize=0mil|Usage=FLASHONLY|Rotation=225.000|XOffset=0mil|YOffset=0mil|HoleType=Round|Shape=Rectangle|*
%AMROTATEDRECTD57*
4,1,4,0.00418,0.02366,0.02366,0.00418,-0.00418,-0.02366,-0.02366,-0.00418,0.00418,0.02366,0.0*
%
%ADD57ROTATEDRECTD57*%

G04:AMPARAMS|DCode=58|XSize=55.12mil|YSize=47.24mil|CornerRadius=0mil|HoleSize=0mil|Usage=FLASHONLY|Rotation=225.000|XOffset=0mil|YOffset=0mil|HoleType=Round|Shape=Rectangle|*
%AMROTATEDRECTD58*
4,1,4,0.00278,0.03619,0.03619,0.00278,-0.00278,-0.03619,-0.03619,-0.00278,0.00278,0.03619,0.0*
%
%ADD58ROTATEDRECTD58*%

G04:AMPARAMS|DCode=59|XSize=47.24mil|YSize=45.28mil|CornerRadius=0mil|HoleSize=0mil|Usage=FLASHONLY|Rotation=135.000|XOffset=0mil|YOffset=0mil|HoleType=Round|Shape=Rectangle|*
%AMROTATEDRECTD59*
4,1,4,0.03271,-0.00070,0.00070,-0.03271,-0.03271,0.00070,-0.00070,0.03271,0.03271,-0.00070,0.0*
%
%ADD59ROTATEDRECTD59*%

G04:AMPARAMS|DCode=60|XSize=39.37mil|YSize=27.56mil|CornerRadius=0mil|HoleSize=0mil|Usage=FLASHONLY|Rotation=135.000|XOffset=0mil|YOffset=0mil|HoleType=Round|Shape=Rectangle|*
%AMROTATEDRECTD60*
4,1,4,0.02366,-0.00418,0.00418,-0.02366,-0.02366,0.00418,-0.00418,0.02366,0.02366,-0.00418,0.0*
%
%ADD60ROTATEDRECTD60*%

D15*
X31306Y16893D02*
X32386Y17973D01*
X48791Y58500D02*
X49728Y57563D01*
X48500Y58500D02*
X48791D01*
X46499Y49594D02*
X46593Y49500D01*
X46464Y52035D02*
X46499Y52001D01*
Y49594D02*
Y52001D01*
X18500Y3566D02*
X18758D01*
X21054Y10037D02*
X21333Y10315D01*
X21054Y6855D02*
Y10037D01*
X20711Y6512D02*
X21054Y6855D01*
X20711Y5519D02*
Y6512D01*
X18758Y3566D02*
X20711Y5519D01*
X36063Y26500D02*
X36123Y26440D01*
X36000Y26500D02*
X36063D01*
X29153Y16893D02*
X31306D01*
X28760Y16500D02*
X29153Y16893D01*
X24358Y13288D02*
X27569Y16500D01*
X28760D01*
X29500Y8895D02*
Y14397D01*
X29374Y8272D02*
X31888Y5758D01*
X29374Y8272D02*
Y8769D01*
X29500Y8895D01*
X49728Y55843D02*
X50000Y55571D01*
X49728Y55843D02*
Y57563D01*
X49130Y40562D02*
X51568Y43000D01*
X53000D01*
X54060Y35631D02*
X56340Y33352D01*
X51891Y35631D02*
X54060D01*
D44*
X34500Y18000D02*
Y18763D01*
X34672Y18935D01*
X32386Y19053D02*
X34057Y20724D01*
X32386Y17973D02*
Y19053D01*
X34672Y18935D02*
X35114Y19377D01*
X34000Y48000D02*
Y48093D01*
X34184Y21201D02*
Y27022D01*
X34429Y27266D02*
Y29489D01*
X27922Y20420D02*
X28064D01*
X26368Y21974D02*
X27922Y20420D01*
X25026Y21974D02*
X26368D01*
X30282Y19722D02*
X30500D01*
X30060Y19500D02*
X30282Y19722D01*
X29950Y19610D02*
X30060Y19500D01*
X29950Y19610D02*
Y23086D01*
X28000Y25036D02*
X29950Y23086D01*
X37000Y19000D02*
X39000Y17000D01*
X42829D01*
X44781Y17386D02*
X46500Y15667D01*
X42829Y17000D02*
X43214Y17386D01*
X46500Y6037D02*
Y15667D01*
X46493Y6030D02*
X46500Y6037D01*
X43214Y17386D02*
X44781D01*
X18238Y23031D02*
X26555Y31348D01*
X18238Y21238D02*
Y23031D01*
X15500Y18500D02*
X18238Y21238D01*
X5830Y23986D02*
X16555Y34711D01*
X24004Y26130D02*
Y26346D01*
X29164Y28661D02*
X30500D01*
X29019Y28516D02*
X29164Y28661D01*
X27931Y28516D02*
X29019D01*
X27899Y28547D02*
X27931Y28516D01*
X27071Y28547D02*
X27899D01*
X27039Y28516D02*
X27071Y28547D01*
X26174Y28516D02*
X27039D01*
X35114Y19781D02*
X41912Y26579D01*
X35114Y19377D02*
Y19781D01*
X34057Y21073D02*
X34184Y21201D01*
X34057Y20724D02*
Y21073D01*
X57071Y48500D02*
Y48877D01*
X56150Y49798D02*
X57071Y48877D01*
X56150Y49798D02*
Y50061D01*
X23838Y39662D02*
X24000Y39500D01*
X41912Y26579D02*
Y34239D01*
X24004Y26346D02*
X26174Y28516D01*
X30500Y28661D02*
X31062Y28098D01*
X21681Y45681D02*
X24500Y48500D01*
X20822Y45681D02*
X21681D01*
X20822Y43822D02*
Y45681D01*
X14141Y39000D02*
X16000D01*
X34445Y29505D02*
Y30190D01*
X33984Y30651D02*
X34445Y30190D01*
X34429Y29489D02*
X34445Y29505D01*
X28537Y3912D02*
X29872Y5248D01*
X27735Y3912D02*
X28537D01*
X13000Y19386D02*
X13069D01*
X5000Y23500D02*
X5263D01*
X5749Y23986D01*
X5830D01*
X13069Y19386D02*
X13954Y18500D01*
X15500D01*
X18571Y32310D02*
X19153D01*
X19987Y32597D02*
X21309Y31275D01*
X19153Y32310D02*
X19439Y32597D01*
X19987D01*
X18385Y32124D02*
X18571Y32310D01*
X33350Y40650D02*
Y44011D01*
Y40650D02*
X34000Y40000D01*
Y37410D02*
X37187Y34223D01*
X34000Y37410D02*
Y40000D01*
X28474Y38587D02*
X28548Y38513D01*
X28474Y38587D02*
Y39135D01*
X33350Y44011D01*
X28617Y53476D02*
X34000Y48093D01*
X6500Y32808D02*
Y35000D01*
X6346Y32654D02*
X6500Y32808D01*
X6346Y31205D02*
Y32654D01*
X40249Y35902D02*
X41912Y34239D01*
X40249Y35902D02*
Y37285D01*
X26555Y31348D02*
Y32176D01*
X24929Y34894D02*
X26251Y33571D01*
Y32480D02*
Y33571D01*
Y32480D02*
X26555Y32176D01*
X20401Y34711D02*
X20705Y34407D01*
X16555Y34711D02*
X20401D01*
X20705Y34407D02*
X21797D01*
X23119Y33084D01*
X33984Y30651D02*
X34124Y30792D01*
D46*
X61667Y46025D02*
D03*
X56010Y40368D02*
D03*
X44697Y57339D02*
D03*
D47*
X34500Y18000D02*
D03*
X48500Y58500D02*
D03*
X54500Y53500D02*
D03*
X50098Y51973D02*
D03*
X45214Y46000D02*
D03*
X46534Y49500D02*
D03*
X42962Y49433D02*
D03*
X34000Y48000D02*
D03*
X43000Y53500D02*
D03*
X36123Y26440D02*
D03*
X39000Y27500D02*
D03*
X34028Y13528D02*
D03*
X37000Y19000D02*
D03*
X28064Y20420D02*
D03*
X26092Y18523D02*
D03*
X30500Y19722D02*
D03*
X29893Y15107D02*
D03*
X24358Y13288D02*
D03*
X16020Y8131D02*
D03*
X41500Y11486D02*
D03*
X16352Y22681D02*
D03*
X38000Y13000D02*
D03*
X24004Y26130D02*
D03*
X44000Y15500D02*
D03*
X31888Y5758D02*
D03*
X52500Y20500D02*
D03*
X56150Y50061D02*
D03*
X56488Y43867D02*
D03*
X51891Y35631D02*
D03*
X23838Y39662D02*
D03*
X24110Y50872D02*
D03*
X53000Y43000D02*
D03*
X29337Y31890D02*
D03*
X32017Y34376D02*
D03*
X24500Y48500D02*
D03*
X11000Y37500D02*
D03*
X43075Y21266D02*
D03*
X9136Y24214D02*
D03*
X13000Y19386D02*
D03*
X5000Y23500D02*
D03*
X18385Y32124D02*
D03*
X6500Y35000D02*
D03*
X9082Y35582D02*
D03*
X30539Y58667D02*
D03*
D48*
X59000Y23000D02*
D03*
X56500Y16000D02*
D03*
X32000Y0D02*
D03*
X46500Y4500D02*
D03*
X0Y26000D02*
D03*
X18500Y2500D02*
D03*
X10500Y7000D02*
D03*
X52500Y9500D02*
D03*
X5000Y13000D02*
D03*
X39500Y1500D02*
D03*
D51*
X53535Y44965D02*
D03*
X57071Y48500D02*
D03*
X50000D02*
D03*
X53535Y52035D02*
D03*
X46464D02*
D03*
X50000Y55571D02*
D03*
D52*
X28617Y53476D02*
D03*
X6346Y31205D02*
D03*
D53*
X20822Y45681D02*
D03*
X14141Y39000D02*
D03*
D54*
X33350Y44011D02*
D03*
X15811Y26472D02*
D03*
D55*
X28548Y38513D02*
D03*
X26738Y36703D02*
D03*
X24929Y34894D02*
D03*
X23119Y33084D02*
D03*
X21309Y31275D02*
D03*
D56*
X27735Y3912D02*
D03*
D57*
X23977Y6557D02*
D03*
D58*
X21333Y10315D02*
D03*
D59*
X56340Y33352D02*
D03*
X49130Y40562D02*
D03*
D60*
X43214Y40492D02*
D03*
X40152Y37430D02*
D03*
X37089Y34368D02*
D03*
X34027Y31306D02*
D03*
X30965Y28243D02*
D03*
X27903Y25181D02*
D03*
X24840Y22119D02*
D03*
X21778Y19056D02*
D03*
M02*
