M48
;Layer_Color=9474304
;FILE_FORMAT=2:5
INCH,TZ
;TYPE=PLATED
T1F00S00C0.00984
T2F00S00C0.03150
;TYPE=NON_PLATED
T3F00S00C0.03902
%
T01
X5000Y23500
X9136Y24214
X13000Y19386
X16352Y22681
X24004Y26130
X27643Y19492
X28000Y17000
X30500Y19500
X34500Y18500
X37000Y19000
X37873Y12445
X34055Y13555
X24093Y13593
X20488Y9786
X36000Y4000
X41500Y9450
X44000Y15500
X48233Y17616
X54000Y20000
X58250Y25000
X51675Y36290
X54567Y44972
X56442Y51061
X51000Y52000
X48000Y53000
X48464Y57639
X43139Y54275
X43314Y49268
X34000Y48000
X24500Y48500
X23558Y50785
X30539Y58667
X32017Y34376
X29337Y31890
X18385Y32124
X11000Y37500
X9082Y35582
X6500Y35000
X37900Y26000
X43075Y21266
T02
X10500Y7000
X5000Y13000
X0Y26000
X18500Y2500
X33000Y0
X41000Y2000
X48000Y6000
X53500Y11500
T03
X56010Y40368
X61667Y46025
X44697Y57339
M30
