G04*
G04 #@! TF.GenerationSoftware,Altium Limited,Altium Designer,20.0.13 (296)*
G04*
G04 Layer_Physical_Order=3*
G04 Layer_Color=16440176*
%FSLAX25Y25*%
%MOIN*%
G70*
G01*
G75*
%ADD14C,0.01000*%
%ADD15C,0.00600*%
%ADD46C,0.01949*%
%ADD47C,0.01772*%
%ADD48C,0.06299*%
G36*
X29060Y58850D02*
X29024Y58667D01*
X29139Y58087D01*
X29468Y57595D01*
X29959Y57267D01*
X30361Y57187D01*
X30696Y56964D01*
X31125Y56878D01*
X36606D01*
X38739Y54746D01*
Y51225D01*
X38614Y51125D01*
X38209Y51076D01*
X37707Y51578D01*
X37343Y51821D01*
X36914Y51906D01*
X36741Y51872D01*
X36687Y51908D01*
X36258Y51993D01*
X35886Y51919D01*
X35515Y51993D01*
X35515Y51993D01*
X25105D01*
X24689Y52271D01*
X24110Y52387D01*
X23530Y52271D01*
X23038Y51943D01*
X22710Y51451D01*
X22595Y50872D01*
X22710Y50292D01*
X23038Y49800D01*
X23053Y49728D01*
X22724Y49236D01*
X22677Y49000D01*
X26323D01*
X26276Y49236D01*
X26227Y49309D01*
X26463Y49750D01*
X32393D01*
X32567Y49250D01*
X32224Y48736D01*
X32177Y48500D01*
X34000D01*
Y48000D01*
X34500D01*
Y46177D01*
X34736Y46224D01*
X35360Y46640D01*
X35776Y47264D01*
X35878Y47777D01*
X36378Y47728D01*
Y32965D01*
X31207Y27793D01*
X30964Y27429D01*
X30878Y27000D01*
X30878Y27000D01*
Y21547D01*
X30500Y21237D01*
X29920Y21121D01*
X29920Y21121D01*
X29909Y21117D01*
X29463Y21000D01*
X29135Y21491D01*
X28644Y21819D01*
X28064Y21935D01*
X27484Y21819D01*
X26993Y21491D01*
X26664Y21000D01*
X26549Y20420D01*
X26559Y20368D01*
X26206Y20015D01*
X26092Y20038D01*
X25512Y19922D01*
X25021Y19594D01*
X24692Y19102D01*
X24577Y18523D01*
X24692Y17943D01*
X25021Y17451D01*
X25512Y17123D01*
X26092Y17008D01*
X26671Y17123D01*
X27163Y17451D01*
X27491Y17943D01*
X27607Y18523D01*
X27596Y18574D01*
X27950Y18928D01*
X28064Y18905D01*
X28644Y19020D01*
X28644Y19020D01*
X28655Y19024D01*
X28655Y19024D01*
X29100Y19142D01*
X29429Y18650D01*
X29920Y18322D01*
X30500Y18207D01*
X30864Y18279D01*
X31364Y17956D01*
Y16466D01*
X31221Y16363D01*
X30864Y16245D01*
X30473Y16507D01*
X29893Y16622D01*
X29313Y16507D01*
X28822Y16178D01*
X28493Y15687D01*
X28378Y15107D01*
X28493Y14527D01*
X28822Y14036D01*
X29313Y13708D01*
X29893Y13592D01*
X30378Y13689D01*
X30878Y13423D01*
Y11586D01*
X30878Y11586D01*
X30964Y11157D01*
X31207Y10793D01*
X31207Y10793D01*
X32293Y9707D01*
X32657Y9464D01*
X33086Y9378D01*
X33086Y9378D01*
X38308D01*
X38308Y9378D01*
X38738Y9464D01*
X39101Y9707D01*
X39101Y9707D01*
X39611Y10217D01*
X40725D01*
X40920Y10086D01*
X41500Y9971D01*
X42080Y10086D01*
X42571Y10415D01*
X42900Y10906D01*
X43015Y11486D01*
X42900Y12066D01*
X42571Y12557D01*
X42080Y12885D01*
X41500Y13001D01*
X40920Y12885D01*
X40429Y12557D01*
X40364Y12460D01*
X39147D01*
X39147Y12460D01*
X38717Y12374D01*
X38353Y12131D01*
X37844Y11622D01*
X34621D01*
X34572Y12122D01*
X34608Y12129D01*
X35100Y12457D01*
X35428Y12949D01*
X35526Y13440D01*
X38017Y15931D01*
X38252Y15978D01*
X38616Y16221D01*
X39779Y17384D01*
X39779Y17384D01*
X40022Y17748D01*
X40107Y18177D01*
X40107Y18178D01*
Y19521D01*
X41215Y20629D01*
X41797Y20504D01*
X42003Y20195D01*
X42495Y19867D01*
X43075Y19751D01*
X43654Y19867D01*
X44146Y20195D01*
X44474Y20686D01*
X44555Y21093D01*
X44851Y21152D01*
X45149Y21351D01*
X48917Y25119D01*
X49378Y24927D01*
Y23156D01*
X43207Y16985D01*
X42964Y16621D01*
X42958Y16591D01*
X42929Y16571D01*
X42600Y16080D01*
X42485Y15500D01*
X42600Y14920D01*
X42929Y14429D01*
X43420Y14100D01*
X44000Y13985D01*
X44580Y14100D01*
X45071Y14429D01*
X45400Y14920D01*
X45515Y15500D01*
X45412Y16017D01*
X50668Y21273D01*
X50766Y21230D01*
X51080Y20979D01*
X50985Y20500D01*
X51100Y19920D01*
X51429Y19429D01*
X51920Y19100D01*
X52500Y18985D01*
X53080Y19100D01*
X53571Y19429D01*
X53900Y19920D01*
X54015Y20500D01*
X53900Y21080D01*
X53571Y21571D01*
X53080Y21900D01*
X52500Y22015D01*
X51920Y21900D01*
X51875Y21869D01*
X51514Y22230D01*
X51536Y22262D01*
X51622Y22692D01*
X51622Y22692D01*
Y33487D01*
X51891Y33709D01*
X52627Y33855D01*
X53251Y34272D01*
X53668Y34896D01*
X53715Y35131D01*
X51891D01*
Y35631D01*
X51391D01*
Y37455D01*
X51156Y37408D01*
X50622Y37051D01*
X50122Y37209D01*
Y47727D01*
X50947Y48553D01*
X54805Y44695D01*
X54783Y44625D01*
X54677Y44558D01*
X54211Y44459D01*
X53736Y44776D01*
X53500Y44823D01*
Y43000D01*
X53000D01*
Y42500D01*
X51177D01*
X51224Y42264D01*
X51640Y41640D01*
X52264Y41224D01*
X53000Y41077D01*
X53132Y41104D01*
X53486Y40750D01*
X53410Y40368D01*
X53608Y39373D01*
X54171Y38529D01*
X55015Y37966D01*
X56010Y37767D01*
X57006Y37966D01*
X57849Y38529D01*
X58413Y39373D01*
X58513Y39876D01*
X59067Y40098D01*
X59256Y39966D01*
X59255Y29972D01*
X59256Y28397D01*
X59089Y26852D01*
X59000Y26782D01*
X58021Y26653D01*
X57109Y26275D01*
X56326Y25674D01*
X55725Y24891D01*
X55347Y23979D01*
X55218Y23000D01*
X55347Y22021D01*
X55725Y21109D01*
X56326Y20326D01*
X56395Y20272D01*
X56255Y19750D01*
X55521Y19653D01*
X54609Y19275D01*
X53826Y18674D01*
X53225Y17891D01*
X52847Y16979D01*
X52718Y16000D01*
X52847Y15021D01*
X53225Y14109D01*
X53604Y13615D01*
X53603Y13611D01*
X53311Y13175D01*
X52500Y13282D01*
X51521Y13153D01*
X50609Y12775D01*
X49826Y12174D01*
X49225Y11391D01*
X48847Y10479D01*
X48718Y9500D01*
X48847Y8521D01*
X49147Y7796D01*
X48779Y7478D01*
X48391Y7775D01*
X47479Y8153D01*
X46500Y8282D01*
X45521Y8153D01*
X44609Y7775D01*
X43826Y7174D01*
X43225Y6391D01*
X42847Y5479D01*
X42718Y4500D01*
X42752Y4243D01*
X42274Y4045D01*
X42174Y4174D01*
X41391Y4775D01*
X40479Y5153D01*
X39500Y5282D01*
X38521Y5153D01*
X37609Y4775D01*
X36826Y4174D01*
X36225Y3391D01*
X35847Y2479D01*
X35781Y1977D01*
X35313Y1897D01*
X35267Y1902D01*
X34674Y2674D01*
X33891Y3275D01*
X32979Y3653D01*
X32285Y3744D01*
X32000Y3782D01*
X31989Y4263D01*
X32468Y4358D01*
X32960Y4687D01*
X33288Y5178D01*
X33403Y5758D01*
X33288Y6338D01*
X32960Y6829D01*
X32468Y7158D01*
X31888Y7273D01*
X31309Y7158D01*
X30817Y6829D01*
X30489Y6338D01*
X30373Y5758D01*
X30489Y5178D01*
X30817Y4687D01*
X31309Y4358D01*
X31802Y4260D01*
X31785Y3754D01*
X31523Y3719D01*
X31021Y3653D01*
X30109Y3275D01*
X29326Y2674D01*
X28725Y1891D01*
X28347Y979D01*
X28301Y632D01*
X27256Y669D01*
X24138Y1117D01*
X22752Y1471D01*
X22887Y2500D01*
X22738Y3635D01*
X22299Y4694D01*
X22155Y4882D01*
X19136Y1864D01*
X17864Y3136D01*
X20882Y6155D01*
X20694Y6299D01*
X19636Y6738D01*
X18500Y6887D01*
X17459Y6750D01*
X17261Y7003D01*
X17184Y7200D01*
X17419Y7551D01*
X17535Y8131D01*
X17419Y8711D01*
X17091Y9202D01*
X16599Y9531D01*
X16020Y9646D01*
X15440Y9531D01*
X14948Y9202D01*
X14620Y8711D01*
X14546Y8337D01*
X14026Y8286D01*
X13775Y8891D01*
X13174Y9674D01*
X12391Y10275D01*
X11479Y10653D01*
X10500Y10782D01*
X9521Y10653D01*
X8609Y10275D01*
X8320Y10053D01*
X7858Y10565D01*
X8275Y11109D01*
X8653Y12021D01*
X8782Y13000D01*
X8653Y13979D01*
X8275Y14891D01*
X7674Y15674D01*
X6891Y16275D01*
X5979Y16653D01*
X5000Y16782D01*
X4021Y16653D01*
X3775Y16551D01*
X3419Y17198D01*
X3368Y17300D01*
X2100Y20393D01*
X1491Y22559D01*
X1891Y22725D01*
X2674Y23326D01*
X3034Y23794D01*
X3501Y23583D01*
X3485Y23500D01*
X3600Y22920D01*
X3929Y22429D01*
X4420Y22100D01*
X5000Y21985D01*
X5580Y22100D01*
X6071Y22429D01*
X6400Y22920D01*
X6515Y23500D01*
X6400Y24080D01*
X6071Y24571D01*
X5580Y24900D01*
X5000Y25015D01*
X4420Y24900D01*
X4038Y24644D01*
X3619Y24939D01*
X3653Y25021D01*
X3782Y26000D01*
X3653Y26979D01*
X3275Y27891D01*
X2674Y28674D01*
X1891Y29275D01*
X979Y29653D01*
X524Y29713D01*
X495Y30368D01*
X599Y31853D01*
X4147Y35402D01*
X4608Y35155D01*
X4577Y35000D01*
X4724Y34264D01*
X5140Y33640D01*
X5764Y33224D01*
X6000Y33177D01*
Y35000D01*
X7000D01*
Y33177D01*
X7236Y33224D01*
X7860Y33640D01*
X8276Y34264D01*
X8453Y34215D01*
X8502Y34182D01*
X9082Y34067D01*
X9662Y34182D01*
X10153Y34511D01*
X10481Y35002D01*
X10597Y35582D01*
X10943Y35589D01*
X11000Y35577D01*
X11736Y35724D01*
X12360Y36140D01*
X12776Y36764D01*
X12823Y37000D01*
X11000D01*
Y37500D01*
X10500D01*
Y39323D01*
X10264Y39276D01*
X9640Y38860D01*
X9224Y38236D01*
X9077Y37500D01*
X9089Y37443D01*
X9082Y37097D01*
X8502Y36981D01*
X8011Y36653D01*
X7556Y36563D01*
X7236Y36776D01*
X6500Y36923D01*
X6345Y36892D01*
X6098Y37353D01*
X28070Y59325D01*
X28303Y59350D01*
X28653D01*
X29060Y58850D01*
D02*
G37*
%LPC*%
G36*
X26323Y48000D02*
X25000D01*
Y46677D01*
X25236Y46724D01*
X25860Y47140D01*
X26276Y47764D01*
X26323Y48000D01*
D02*
G37*
G36*
X24000D02*
X22677D01*
X22724Y47764D01*
X23140Y47140D01*
X23764Y46724D01*
X24000Y46677D01*
Y48000D01*
D02*
G37*
G36*
X33500Y47500D02*
X32177D01*
X32224Y47264D01*
X32640Y46640D01*
X33264Y46224D01*
X33500Y46177D01*
Y47500D01*
D02*
G37*
G36*
X52500Y44823D02*
X52264Y44776D01*
X51640Y44360D01*
X51224Y43736D01*
X51177Y43500D01*
X52500D01*
Y44823D01*
D02*
G37*
G36*
X23838Y41177D02*
X23258Y41062D01*
X22766Y40734D01*
X22438Y40242D01*
X22323Y39662D01*
X22438Y39083D01*
X22766Y38591D01*
X23258Y38263D01*
X23838Y38147D01*
X24417Y38263D01*
X24909Y38591D01*
X25237Y39083D01*
X25353Y39662D01*
X25237Y40242D01*
X24909Y40734D01*
X24417Y41062D01*
X23838Y41177D01*
D02*
G37*
G36*
X11500Y39323D02*
Y38000D01*
X12823D01*
X12776Y38236D01*
X12360Y38860D01*
X11736Y39276D01*
X11500Y39323D01*
D02*
G37*
G36*
X52391Y37455D02*
Y36132D01*
X53715D01*
X53668Y36367D01*
X53251Y36991D01*
X52627Y37408D01*
X52391Y37455D01*
D02*
G37*
G36*
X32517Y36199D02*
Y34876D01*
X33841D01*
X33794Y35112D01*
X33377Y35736D01*
X32753Y36152D01*
X32517Y36199D01*
D02*
G37*
G36*
X31517D02*
X31282Y36152D01*
X30658Y35736D01*
X30241Y35112D01*
X30194Y34876D01*
X31517D01*
Y36199D01*
D02*
G37*
G36*
Y33876D02*
X30194D01*
X30233Y33679D01*
X30056Y33454D01*
X29868Y33299D01*
X29337Y33405D01*
X28757Y33289D01*
X28265Y32961D01*
X27937Y32469D01*
X27822Y31890D01*
X27937Y31310D01*
X28265Y30819D01*
X28757Y30490D01*
X29337Y30375D01*
X29916Y30490D01*
X30408Y30819D01*
X30736Y31310D01*
X30851Y31890D01*
X30761Y32346D01*
X31080Y32635D01*
X31166Y32677D01*
X31282Y32600D01*
X31517Y32553D01*
Y33876D01*
D02*
G37*
G36*
X33841D02*
X32517D01*
Y32553D01*
X32753Y32600D01*
X33377Y33016D01*
X33794Y33640D01*
X33841Y33876D01*
D02*
G37*
G36*
X18385Y33639D02*
X17806Y33524D01*
X17314Y33196D01*
X16986Y32704D01*
X16870Y32124D01*
X16986Y31545D01*
X17314Y31053D01*
X17806Y30725D01*
X18385Y30610D01*
X18965Y30725D01*
X19456Y31053D01*
X19785Y31545D01*
X19900Y32124D01*
X19785Y32704D01*
X19456Y33196D01*
X18965Y33524D01*
X18385Y33639D01*
D02*
G37*
G36*
X9636Y26037D02*
Y24714D01*
X10959D01*
X10912Y24950D01*
X10495Y25574D01*
X9872Y25991D01*
X9636Y26037D01*
D02*
G37*
G36*
X8636D02*
X8400Y25991D01*
X7776Y25574D01*
X7359Y24950D01*
X7312Y24714D01*
X8636D01*
Y26037D01*
D02*
G37*
G36*
X24004Y27645D02*
X23424Y27529D01*
X22933Y27201D01*
X22604Y26710D01*
X22489Y26130D01*
X22604Y25550D01*
X22933Y25059D01*
X23424Y24730D01*
X24004Y24615D01*
X24584Y24730D01*
X25075Y25059D01*
X25404Y25550D01*
X25519Y26130D01*
X25404Y26710D01*
X25075Y27201D01*
X24584Y27529D01*
X24004Y27645D01*
D02*
G37*
G36*
X16852Y24505D02*
Y23181D01*
X18176D01*
X18129Y23417D01*
X17712Y24041D01*
X17088Y24458D01*
X16852Y24505D01*
D02*
G37*
G36*
X15852D02*
X15617Y24458D01*
X14993Y24041D01*
X14576Y23417D01*
X14529Y23181D01*
X15852D01*
Y24505D01*
D02*
G37*
G36*
X10959Y23714D02*
X9636D01*
Y22391D01*
X9872Y22438D01*
X10495Y22855D01*
X10912Y23478D01*
X10959Y23714D01*
D02*
G37*
G36*
X8636D02*
X7312D01*
X7359Y23478D01*
X7776Y22855D01*
X8400Y22438D01*
X8636Y22391D01*
Y23714D01*
D02*
G37*
G36*
X18176Y22181D02*
X16852D01*
Y20858D01*
X17088Y20905D01*
X17712Y21322D01*
X18129Y21945D01*
X18176Y22181D01*
D02*
G37*
G36*
X15852D02*
X14529D01*
X14576Y21945D01*
X14993Y21322D01*
X15617Y20905D01*
X15852Y20858D01*
Y22181D01*
D02*
G37*
G36*
X13000Y20901D02*
X12420Y20785D01*
X11929Y20457D01*
X11600Y19966D01*
X11485Y19386D01*
X11600Y18806D01*
X11929Y18315D01*
X12420Y17986D01*
X13000Y17871D01*
X13580Y17986D01*
X14071Y18315D01*
X14400Y18806D01*
X14515Y19386D01*
X14400Y19966D01*
X14071Y20457D01*
X13580Y20785D01*
X13000Y20901D01*
D02*
G37*
G36*
X24358Y14804D02*
X23778Y14688D01*
X23287Y14360D01*
X22958Y13868D01*
X22843Y13288D01*
X22958Y12709D01*
X23287Y12217D01*
X23778Y11889D01*
X24358Y11774D01*
X24938Y11889D01*
X25429Y12217D01*
X25757Y12709D01*
X25873Y13288D01*
X25757Y13868D01*
X25429Y14360D01*
X24938Y14688D01*
X24358Y14804D01*
D02*
G37*
%LPD*%
D14*
X32486Y15014D02*
Y20544D01*
X48500Y57828D02*
Y58500D01*
Y57828D02*
X49000Y57328D01*
X52084Y51150D02*
Y51150D01*
X54434Y53500D02*
X54500D01*
X52084Y51150D02*
X54434Y53500D01*
X50921Y49987D02*
X52084Y51150D01*
X50795Y49987D02*
X50921D01*
X49000Y48192D02*
X50795Y49987D01*
X43228Y24228D02*
Y46890D01*
X39776Y48113D02*
X39860Y48029D01*
Y28086D02*
Y48029D01*
X45503Y54288D02*
X45960D01*
X49000Y57328D01*
X35515Y50872D02*
X35886Y50500D01*
X36258Y50872D01*
X36630Y50500D01*
X36914Y50785D01*
X37500Y50199D01*
Y32500D02*
Y50199D01*
X37071Y58000D02*
X39860Y55210D01*
Y50836D02*
Y55210D01*
X39776Y48113D02*
Y50752D01*
X49000Y35715D02*
Y48192D01*
X24110Y50872D02*
X35515D01*
X49000Y35715D02*
X50386Y34329D01*
X39776Y50752D02*
X39860Y50836D01*
X38986Y19986D02*
X43228Y24228D01*
X39209Y27500D02*
X39595Y27886D01*
X39000Y27500D02*
X39209D01*
X39660Y27886D02*
X39860Y28086D01*
X39595Y27886D02*
X39660D01*
X32000Y21030D02*
Y27000D01*
X37500Y32500D01*
X34028Y13528D02*
X37514Y17014D01*
X32000Y21030D02*
X32486Y20544D01*
X32000Y14528D02*
X32486Y15014D01*
X32000Y11586D02*
Y14528D01*
X41352Y11338D02*
X41500Y11486D01*
X38308Y10500D02*
X39147Y11338D01*
X41352D01*
X33086Y10500D02*
X38308D01*
X38986Y18177D02*
Y19986D01*
X37823Y17014D02*
X38986Y18177D01*
X37514Y17014D02*
X37823D01*
X44000Y15500D02*
Y16192D01*
X32000Y11586D02*
X33086Y10500D01*
X50386Y34329D02*
Y34329D01*
Y34329D02*
X50500Y34214D01*
Y22692D02*
Y34214D01*
X44000Y16192D02*
X50500Y22692D01*
X31125Y58000D02*
X37071D01*
X30539Y58586D02*
X31125Y58000D01*
X30539Y58586D02*
Y58667D01*
D15*
X44748Y52440D02*
X44986Y52677D01*
X44748Y50172D02*
Y52440D01*
X43228Y47173D02*
X44748Y48693D01*
X43228Y46890D02*
Y47173D01*
X44748Y50172D02*
X44748Y50172D01*
X47000Y35735D02*
Y49034D01*
X46534Y49500D02*
X47000Y49034D01*
X41500Y25577D02*
Y48274D01*
X44748Y48693D02*
Y50172D01*
X44986Y53771D02*
X45503Y54288D01*
X44986Y52677D02*
Y53771D01*
X41176Y48693D02*
X41328Y48541D01*
Y48446D02*
Y48541D01*
Y48446D02*
X41500Y48274D01*
X41176Y48693D02*
Y50172D01*
X42500Y53001D02*
Y53838D01*
X41328Y51830D02*
X42500Y53001D01*
X41328Y50324D02*
Y51830D01*
X41176Y50172D02*
X41328Y50324D01*
X47000Y35735D02*
X48986Y33749D01*
X44500Y22000D02*
X48986Y26486D01*
X40898Y25000D02*
X40923D01*
X37000Y19000D02*
Y21102D01*
X40898Y25000D01*
X40923D02*
X41500Y25577D01*
X48986Y26486D02*
Y33749D01*
X43075Y21266D02*
X43284D01*
X44017Y22000D01*
X44500D01*
D46*
X61667Y46025D02*
D03*
X56010Y40368D02*
D03*
X44697Y57339D02*
D03*
D47*
X34500Y18000D02*
D03*
X48500Y58500D02*
D03*
X54500Y53500D02*
D03*
X50098Y51973D02*
D03*
X45214Y46000D02*
D03*
X46534Y49500D02*
D03*
X42962Y49433D02*
D03*
X34000Y48000D02*
D03*
X43000Y53500D02*
D03*
X36123Y26440D02*
D03*
X39000Y27500D02*
D03*
X34028Y13528D02*
D03*
X37000Y19000D02*
D03*
X28064Y20420D02*
D03*
X26092Y18523D02*
D03*
X30500Y19722D02*
D03*
X29893Y15107D02*
D03*
X24358Y13288D02*
D03*
X16020Y8131D02*
D03*
X41500Y11486D02*
D03*
X16352Y22681D02*
D03*
X38000Y13000D02*
D03*
X24004Y26130D02*
D03*
X44000Y15500D02*
D03*
X31888Y5758D02*
D03*
X52500Y20500D02*
D03*
X56150Y50061D02*
D03*
X56488Y43867D02*
D03*
X51891Y35631D02*
D03*
X23838Y39662D02*
D03*
X24110Y50872D02*
D03*
X53000Y43000D02*
D03*
X29337Y31890D02*
D03*
X32017Y34376D02*
D03*
X24500Y48500D02*
D03*
X11000Y37500D02*
D03*
X43075Y21266D02*
D03*
X9136Y24214D02*
D03*
X13000Y19386D02*
D03*
X5000Y23500D02*
D03*
X18385Y32124D02*
D03*
X6500Y35000D02*
D03*
X9082Y35582D02*
D03*
X30539Y58667D02*
D03*
D48*
X59000Y23000D02*
D03*
X56500Y16000D02*
D03*
X32000Y0D02*
D03*
X46500Y4500D02*
D03*
X0Y26000D02*
D03*
X18500Y2500D02*
D03*
X10500Y7000D02*
D03*
X52500Y9500D02*
D03*
X5000Y13000D02*
D03*
X39500Y1500D02*
D03*
M02*
