G04*
G04 #@! TF.GenerationSoftware,Altium Limited,Altium Designer,20.0.13 (296)*
G04*
G04 Layer_Color=8421504*
%FSLAX25Y25*%
%MOIN*%
G70*
G01*
G75*
%ADD16R,0.02165X0.02165*%
%ADD17R,0.00984X0.04724*%
%ADD18R,0.02362X0.02441*%
%ADD19R,0.03347X0.01378*%
%ADD20R,0.06693X0.09646*%
%ADD21R,0.02441X0.02362*%
%ADD22R,0.03150X0.03150*%
%ADD23R,0.02165X0.02165*%
%ADD24R,0.02657X0.00984*%
%ADD25R,0.00984X0.02264*%
%ADD26R,0.07087X0.03937*%
%ADD27R,0.02362X0.04724*%
%ADD28R,0.01890X0.02539*%
D16*
X29700Y5500D02*
D03*
X34300D02*
D03*
X39800Y34000D02*
D03*
X35200D02*
D03*
Y30500D02*
D03*
X39800D02*
D03*
D17*
X39858Y23193D02*
D03*
Y9807D02*
D03*
X37890Y23193D02*
D03*
Y9807D02*
D03*
X35921Y23193D02*
D03*
Y9807D02*
D03*
X33953Y23193D02*
D03*
Y9807D02*
D03*
X31984Y23193D02*
D03*
Y9807D02*
D03*
X30016Y23193D02*
D03*
Y9807D02*
D03*
X28047Y23193D02*
D03*
Y9807D02*
D03*
X26079Y23193D02*
D03*
Y9807D02*
D03*
X24110Y23193D02*
D03*
Y9807D02*
D03*
X22142Y23193D02*
D03*
Y9807D02*
D03*
D18*
X16189Y28500D02*
D03*
X19811D02*
D03*
X25689Y34000D02*
D03*
X29311D02*
D03*
X25689Y30000D02*
D03*
X29311D02*
D03*
D19*
X44000Y35059D02*
D03*
Y32500D02*
D03*
Y29941D02*
D03*
Y27382D02*
D03*
X55417D02*
D03*
Y29941D02*
D03*
Y32500D02*
D03*
Y35059D02*
D03*
D20*
X49709Y31220D02*
D03*
D21*
X44000Y39689D02*
D03*
Y43311D02*
D03*
X13000Y37189D02*
D03*
Y40811D02*
D03*
D22*
X56453Y48000D02*
D03*
X50547D02*
D03*
D23*
X45000Y51800D02*
D03*
Y47200D02*
D03*
X52000Y39700D02*
D03*
Y44300D02*
D03*
X48500D02*
D03*
Y39700D02*
D03*
D24*
X27539Y38642D02*
D03*
X39843Y38394D02*
D03*
Y40610D02*
D03*
Y42579D02*
D03*
Y44547D02*
D03*
Y46516D02*
D03*
Y48484D02*
D03*
Y50453D02*
D03*
Y52421D02*
D03*
Y54390D02*
D03*
Y56410D02*
D03*
X27539Y56606D02*
D03*
Y54390D02*
D03*
Y52421D02*
D03*
Y50453D02*
D03*
Y48484D02*
D03*
Y46516D02*
D03*
Y44547D02*
D03*
Y42579D02*
D03*
Y40610D02*
D03*
D25*
X30736Y38394D02*
D03*
X32705D02*
D03*
X34673D02*
D03*
X36642D02*
D03*
Y56606D02*
D03*
X34673D02*
D03*
X32705D02*
D03*
X30736D02*
D03*
D26*
X19500Y45421D02*
D03*
Y35579D02*
D03*
D27*
X4260Y30921D02*
D03*
X8000D02*
D03*
X11740D02*
D03*
Y21079D02*
D03*
X8000D02*
D03*
X4260D02*
D03*
D28*
X51032Y17039D02*
D03*
X54969D02*
D03*
X53000Y22961D02*
D03*
M02*
