G04*
G04 #@! TF.GenerationSoftware,Altium Limited,Altium Designer,19.1.5 (86)*
G04*
G04 Layer_Color=8421504*
%FSAX24Y24*%
%MOIN*%
G70*
G01*
G75*
%ADD19R,0.0217X0.0217*%
%ADD20R,0.0157X0.0236*%
%ADD21R,0.0236X0.0157*%
%ADD22C,0.0157*%
%ADD23C,0.0669*%
%ADD24R,0.0094X0.0079*%
%ADD25P,0.0139X4X270.0*%
%ADD26R,0.0217X0.0217*%
%ADD27R,0.2244X0.2244*%
%ADD28R,0.0335X0.0118*%
%ADD29R,0.0118X0.0335*%
%ADD30R,0.0276X0.0118*%
%ADD31R,0.0394X0.0669*%
%ADD32C,0.0310*%
%ADD33R,0.0295X0.0236*%
%ADD34R,0.0295X0.0374*%
%ADD35R,0.0689X0.0709*%
D19*
X026490Y017790D02*
D03*
X026950D02*
D03*
X023960Y016810D02*
D03*
X024420D02*
D03*
X024960Y017660D02*
D03*
X024500D02*
D03*
X023170Y017340D02*
D03*
X023630D02*
D03*
X032420Y016300D02*
D03*
X032880D02*
D03*
X027080Y015000D02*
D03*
X026620D02*
D03*
X026570Y016050D02*
D03*
X027030D02*
D03*
X021020Y016660D02*
D03*
X021480D02*
D03*
X023620Y017020D02*
D03*
X023160D02*
D03*
X023170Y017720D02*
D03*
X023630D02*
D03*
X020530Y016410D02*
D03*
X020070D02*
D03*
D20*
X031750Y017770D02*
D03*
X032006D02*
D03*
X032262D02*
D03*
X031750Y017230D02*
D03*
X032006D02*
D03*
X032262D02*
D03*
D21*
X032400Y017500D02*
D03*
X031613D02*
D03*
D22*
X023190Y016690D02*
D03*
X023880Y017370D02*
D03*
X022820Y016860D02*
D03*
X024810Y016070D02*
D03*
X021690Y017870D02*
D03*
X032090Y016300D02*
D03*
X025851Y017869D02*
D03*
X026670Y016901D02*
D03*
X026600Y017350D02*
D03*
X027240Y017700D02*
D03*
X027217Y017278D02*
D03*
X025920Y015550D02*
D03*
X018760Y017790D02*
D03*
X025630Y016610D02*
D03*
X017970Y015190D02*
D03*
X019510Y015230D02*
D03*
X030810Y015680D02*
D03*
X030838Y016190D02*
D03*
X023200Y015820D02*
D03*
X026850Y016350D02*
D03*
X017459Y015559D02*
D03*
X019340Y016800D02*
D03*
X025440Y017630D02*
D03*
D23*
X026000Y017300D02*
D03*
X019700D02*
D03*
D24*
X024050Y017081D02*
D03*
Y017270D02*
D03*
X024420D02*
D03*
Y017081D02*
D03*
D25*
X024235Y017176D02*
D03*
D26*
X024811Y016851D02*
D03*
Y017311D02*
D03*
X032800Y015520D02*
D03*
Y015980D02*
D03*
X032450Y015520D02*
D03*
Y015980D02*
D03*
X032100Y015520D02*
D03*
Y015980D02*
D03*
X025400Y016870D02*
D03*
Y017330D02*
D03*
X021440Y017260D02*
D03*
Y017720D02*
D03*
X021100D02*
D03*
Y017260D02*
D03*
X020740Y017720D02*
D03*
Y017260D02*
D03*
X033206Y017180D02*
D03*
Y016720D02*
D03*
X032700Y017180D02*
D03*
Y016720D02*
D03*
X031306Y017180D02*
D03*
Y016720D02*
D03*
X030806D02*
D03*
Y017180D02*
D03*
D27*
X028867Y016369D02*
D03*
D28*
X027509Y015286D02*
D03*
Y015483D02*
D03*
Y015680D02*
D03*
Y015877D02*
D03*
Y016074D02*
D03*
Y016271D02*
D03*
Y016468D02*
D03*
Y016664D02*
D03*
Y016861D02*
D03*
Y017058D02*
D03*
Y017255D02*
D03*
Y017452D02*
D03*
X030226D02*
D03*
Y017255D02*
D03*
Y017058D02*
D03*
Y016861D02*
D03*
Y016664D02*
D03*
Y016468D02*
D03*
Y016271D02*
D03*
Y016074D02*
D03*
Y015877D02*
D03*
Y015680D02*
D03*
Y015483D02*
D03*
Y015286D02*
D03*
D29*
X027785Y017727D02*
D03*
X027982D02*
D03*
X028178D02*
D03*
X028375D02*
D03*
X028572D02*
D03*
X028769D02*
D03*
X028966D02*
D03*
X029163D02*
D03*
X029359D02*
D03*
X029556D02*
D03*
X029753D02*
D03*
X029950D02*
D03*
Y015011D02*
D03*
X029753D02*
D03*
X029556D02*
D03*
X029359D02*
D03*
X029163D02*
D03*
X028966D02*
D03*
X028769D02*
D03*
X028572D02*
D03*
X028375D02*
D03*
X028178D02*
D03*
X027982D02*
D03*
X027785D02*
D03*
D30*
X021860Y017647D02*
D03*
Y017450D02*
D03*
Y017253D02*
D03*
Y017056D02*
D03*
X022687D02*
D03*
Y017253D02*
D03*
Y017450D02*
D03*
Y017647D02*
D03*
D31*
X022273Y017352D02*
D03*
D32*
X017697Y017060D02*
D03*
X018197D02*
D03*
X017697Y016560D02*
D03*
X018197D02*
D03*
X017697Y016060D02*
D03*
X018197D02*
D03*
D33*
X030790Y017500D02*
D03*
X031223D02*
D03*
X032790D02*
D03*
X033223D02*
D03*
D34*
X034065Y017750D02*
D03*
X034735D02*
D03*
D35*
X024265Y015850D02*
D03*
X021450D02*
D03*
M02*
