G04*
G04 #@! TF.GenerationSoftware,Altium Limited,Altium Designer,20.0.13 (296)*
G04*
G04 Layer_Color=128*
%FSAX25Y25*%
%MOIN*%
G70*
G01*
G75*
%ADD22R,0.02165X0.02165*%
%ADD29R,0.02165X0.02165*%
%ADD77R,0.04331X0.06693*%
%ADD78R,0.02559X0.01378*%
%ADD79R,0.01181X0.04331*%
%ADD80R,0.01890X0.02539*%
%ADD81R,0.03740X0.03543*%
%ADD82R,0.03150X0.01181*%
%ADD83R,0.06890X0.06102*%
%ADD84R,0.02756X0.02953*%
%ADD85R,0.02362X0.04724*%
%ADD86R,0.04528X0.05709*%
%ADD87R,0.03937X0.03543*%
%ADD88R,0.01575X0.05315*%
%ADD89R,0.08661X0.06299*%
%ADD90R,0.07087X0.07480*%
%ADD91R,0.07480X0.07480*%
%ADD92R,0.03937X0.07087*%
D22*
X0215400Y0160600D02*
D03*
X0220000D02*
D03*
X0272700Y0175000D02*
D03*
X0277300D02*
D03*
X0300800Y0177000D02*
D03*
X0296200D02*
D03*
Y0173500D02*
D03*
X0300800D02*
D03*
X0296200Y0170000D02*
D03*
X0300800D02*
D03*
D29*
X0183300Y0158100D02*
D03*
Y0162700D02*
D03*
Y0154200D02*
D03*
Y0149600D02*
D03*
X0299000Y0165300D02*
D03*
Y0160700D02*
D03*
X0264025Y0160200D02*
D03*
Y0164800D02*
D03*
X0267800Y0160200D02*
D03*
Y0164800D02*
D03*
X0286000Y0152700D02*
D03*
Y0157300D02*
D03*
X0289500D02*
D03*
Y0152700D02*
D03*
X0302700Y0160473D02*
D03*
Y0165073D02*
D03*
X0299500Y0155800D02*
D03*
Y0151200D02*
D03*
D77*
X0180369Y0168200D02*
D03*
D78*
X0184700Y0165641D02*
D03*
Y0168200D02*
D03*
Y0170759D02*
D03*
X0176039D02*
D03*
Y0168200D02*
D03*
Y0165641D02*
D03*
D79*
X0192610Y0176327D02*
D03*
Y0154673D02*
D03*
X0194579Y0176327D02*
D03*
Y0154673D02*
D03*
X0196547Y0176327D02*
D03*
Y0154673D02*
D03*
X0198516Y0176327D02*
D03*
Y0154673D02*
D03*
X0200484Y0176327D02*
D03*
Y0154673D02*
D03*
X0202453Y0176327D02*
D03*
Y0154673D02*
D03*
X0204421Y0176327D02*
D03*
Y0154673D02*
D03*
X0206390Y0176327D02*
D03*
Y0154673D02*
D03*
D80*
X0218669Y0150939D02*
D03*
X0214732D02*
D03*
X0216700Y0156861D02*
D03*
D81*
X0310800Y0152647D02*
D03*
Y0158553D02*
D03*
D82*
X0327406Y0157453D02*
D03*
Y0155484D02*
D03*
Y0153516D02*
D03*
Y0151547D02*
D03*
X0315595D02*
D03*
Y0153516D02*
D03*
Y0155484D02*
D03*
Y0157453D02*
D03*
D83*
X0321500Y0154500D02*
D03*
D84*
X0315669Y0164242D02*
D03*
Y0169557D02*
D03*
X0311732D02*
D03*
Y0164242D02*
D03*
D85*
X0215760Y0166079D02*
D03*
X0219500D02*
D03*
X0223240D02*
D03*
Y0175921D02*
D03*
X0219500D02*
D03*
X0215760D02*
D03*
D86*
X0284457Y0174500D02*
D03*
X0291543D02*
D03*
D87*
X0306300Y0156750D02*
D03*
Y0150450D02*
D03*
D88*
X0247559Y0165000D02*
D03*
X0245000D02*
D03*
X0242441D02*
D03*
X0239882D02*
D03*
X0237323D02*
D03*
D89*
X0254842Y0164508D02*
D03*
X0230039D02*
D03*
D90*
X0258189Y0154469D02*
D03*
X0226693D02*
D03*
D91*
X0247165D02*
D03*
X0237717D02*
D03*
D92*
X0265079Y0155000D02*
D03*
X0274921D02*
D03*
M02*
