G04*
G04 #@! TF.GenerationSoftware,Altium Limited,Altium Designer,19.1.5 (86)*
G04*
G04 Layer_Physical_Order=4*
G04 Layer_Color=1930808*
%FSAX24Y24*%
%MOIN*%
G70*
G01*
G75*
%ADD14C,0.0100*%
%ADD15C,0.0080*%
%ADD20R,0.0217X0.0217*%
%ADD21R,0.0217X0.0217*%
%ADD22C,0.0157*%
%ADD55C,0.0060*%
%ADD56C,0.0040*%
%ADD57C,0.0120*%
%ADD58C,0.0180*%
%ADD64C,0.0195*%
%ADD65R,0.0591X0.0591*%
%ADD66C,0.0591*%
%ADD67C,0.0118*%
%ADD68C,0.0236*%
%ADD71R,0.0315X0.0118*%
%ADD72R,0.0689X0.0610*%
%ADD73C,0.0082*%
%ADD74R,0.0276X0.0295*%
%ADD75R,0.0236X0.0472*%
%ADD76R,0.0453X0.0571*%
%ADD77R,0.0394X0.0354*%
%ADD78R,0.0157X0.0531*%
%ADD79R,0.0866X0.0630*%
%ADD80R,0.0709X0.0748*%
%ADD81R,0.0748X0.0748*%
%ADD82R,0.0118X0.0433*%
%ADD83R,0.0394X0.0709*%
%ADD84R,0.0335X0.0335*%
%ADD85R,0.0315X0.0315*%
%ADD86C,0.0140*%
G36*
X033685Y016032D02*
X033698Y016001D01*
X033728Y015988D01*
X034900D01*
Y014800D01*
X030922D01*
X030912Y014826D01*
X030913Y014830D01*
X030943Y014857D01*
X031297D01*
Y015058D01*
X031362D01*
Y015056D01*
X031706D01*
Y015045D01*
X032100D01*
Y015450D01*
Y015855D01*
X031817D01*
X031816Y015861D01*
X031794Y015894D01*
X031761Y015916D01*
X031732Y015922D01*
Y016272D01*
X031388D01*
X031377Y016272D01*
X031338D01*
X031327Y016272D01*
X031060D01*
X031053Y016273D01*
X031028D01*
X030971Y016330D01*
Y016383D01*
X030983Y016428D01*
X031338D01*
X031338Y016428D01*
X031377D01*
Y016428D01*
X031388Y016428D01*
X031732D01*
Y016803D01*
X031514D01*
X031512Y016813D01*
X031497Y016836D01*
X030572Y017761D01*
X030553Y017789D01*
X030521Y017811D01*
X030482Y017819D01*
X030443Y017811D01*
X030411Y017789D01*
X030389Y017757D01*
X030381Y017718D01*
X030389Y017679D01*
X030411Y017647D01*
X030443Y017625D01*
X030482Y017617D01*
X030509Y017622D01*
X031085Y017046D01*
X031061Y017000D01*
X031056Y017001D01*
X031018Y016993D01*
X031013Y016990D01*
X031009Y016989D01*
X030951Y017000D01*
X030948Y017003D01*
X030601Y017350D01*
X030601Y017350D01*
X030593Y017389D01*
X030571Y017421D01*
X030539Y017443D01*
X030500Y017451D01*
X030461Y017443D01*
X030429Y017421D01*
X030407Y017389D01*
X030406Y017387D01*
X030391Y017350D01*
X030352Y017351D01*
X030350Y017351D01*
X030311Y017343D01*
X030309Y017342D01*
X030228D01*
Y017492D01*
X030288D01*
Y017650D01*
X030080D01*
Y017750D01*
X030288D01*
Y017908D01*
X030326Y017939D01*
X033685D01*
Y016032D01*
D02*
G37*
%LPC*%
G36*
X032352Y016980D02*
X032313Y016973D01*
X032280Y016951D01*
X032258Y016918D01*
X032251Y016879D01*
X032258Y016841D01*
X032280Y016808D01*
X032313Y016786D01*
X032352Y016778D01*
X032390Y016786D01*
X032423Y016808D01*
X032445Y016841D01*
X032453Y016879D01*
X032445Y016918D01*
X032423Y016951D01*
X032390Y016973D01*
X032352Y016980D01*
D02*
G37*
G36*
X032350Y016001D02*
X032311Y015993D01*
X032279Y015971D01*
X032257Y015939D01*
X032249Y015900D01*
X032207Y015855D01*
X032200D01*
Y015450D01*
Y015045D01*
X032594D01*
Y015056D01*
X032938D01*
Y015260D01*
X033095D01*
X033107Y015231D01*
X033161Y015161D01*
X033231Y015107D01*
X033312Y015073D01*
X033400Y015062D01*
X033488Y015073D01*
X033569Y015107D01*
X033639Y015161D01*
X033693Y015231D01*
X033727Y015312D01*
X033738Y015400D01*
X033727Y015488D01*
X033693Y015569D01*
X033639Y015639D01*
X033569Y015693D01*
X033488Y015727D01*
X033400Y015738D01*
X033312Y015727D01*
X033231Y015693D01*
X033161Y015639D01*
X033107Y015569D01*
X033073Y015488D01*
X033068Y015443D01*
X032938D01*
Y015844D01*
X032755D01*
X032741Y015847D01*
X032726Y015844D01*
X032724D01*
X032718Y015877D01*
X032698Y015906D01*
X032639Y015965D01*
X032610Y015985D01*
X032574Y015992D01*
X032391D01*
X032389Y015993D01*
X032350Y016001D01*
D02*
G37*
%LPD*%
D14*
X020901Y016881D02*
X021367D01*
X020740Y016720D02*
X020901Y016881D01*
X020470Y016720D02*
X020740D01*
X021367Y016881D02*
X021421Y016934D01*
X021896D01*
X030621Y015678D02*
X030650Y015707D01*
X030699Y015999D02*
Y016751D01*
X019670Y015483D02*
Y015870D01*
X019454Y015471D02*
X019458Y015467D01*
X031645Y015745D02*
X031723Y015823D01*
X018380Y015875D02*
X018400D01*
X018004D02*
X018380D01*
X017871Y016785D02*
X018130Y016526D01*
X017812Y016785D02*
X017871D01*
X017636Y016961D02*
X017812Y016785D01*
X032750Y015150D02*
Y015301D01*
X017880Y016170D02*
X017881D01*
X017973Y016261D01*
X017966Y015913D02*
X018004Y015875D01*
X017950Y015913D02*
X017966D01*
X018431Y016570D02*
X018620D01*
X018348Y016653D02*
X018431Y016570D01*
X018344Y016650D02*
Y017020D01*
Y016476D02*
Y016650D01*
X018348Y016653D01*
X018130Y016419D02*
Y016526D01*
X017636Y016961D02*
Y017020D01*
X018287Y016419D02*
X018344Y016476D01*
X017973Y016261D02*
X018130D01*
X021896Y016934D02*
X021925Y016905D01*
Y016633D02*
Y016905D01*
Y016633D02*
X021950Y016608D01*
X030650Y015707D02*
Y015950D01*
X030699Y015999D01*
X030080Y017175D02*
Y017350D01*
Y017000D02*
Y017175D01*
X030130Y017050D02*
X030400D01*
X030080Y017000D02*
X030130Y017050D01*
X030400D02*
X030699Y016751D01*
X027350Y016861D02*
X027730Y017241D01*
X029882Y016802D02*
X029900Y016820D01*
X030080Y017000D01*
X029900Y016530D02*
Y016820D01*
X030080Y017175D02*
X030155Y017250D01*
X030350D01*
X027730Y017241D02*
Y017500D01*
X031559Y015745D02*
X031645D01*
X027170Y015800D02*
X027400D01*
X026900Y016070D02*
X027170Y015800D01*
X031100Y015150D02*
X031555D01*
X031095Y015055D02*
X031100Y015050D01*
X032633Y015754D02*
Y015841D01*
X032574Y015900D02*
X032633Y015841D01*
X032350Y015900D02*
X032574D01*
X031147Y015403D02*
X031150Y015400D01*
X031147Y015403D02*
Y015499D01*
X031000Y015645D02*
X031147Y015499D01*
X031000Y015055D02*
X031095D01*
X033267Y015400D02*
X033400D01*
X032741Y015352D02*
X033119D01*
D15*
X023902Y017249D02*
X024160Y017507D01*
X023832Y017249D02*
X023902D01*
X024160Y017507D02*
Y017540D01*
X023530Y016947D02*
X023832Y017249D01*
X023530Y016700D02*
Y016947D01*
X020245Y015467D02*
X020249Y015471D01*
X017600Y015250D02*
X017810D01*
X027798Y017568D02*
X027845D01*
X027730Y017500D02*
X027798Y017568D01*
X027845D02*
X028100Y017823D01*
X032052Y015252D02*
X032150Y015350D01*
X031559Y015352D02*
X032052D01*
D20*
X027270Y017500D02*
D03*
X027730D02*
D03*
X030080Y017700D02*
D03*
X029620D02*
D03*
Y017350D02*
D03*
X030080D02*
D03*
X029620Y017000D02*
D03*
X030080D02*
D03*
D21*
X029900Y016530D02*
D03*
Y016070D02*
D03*
X017530Y016480D02*
D03*
Y016020D02*
D03*
X026473D02*
D03*
Y016480D02*
D03*
X026850Y016020D02*
D03*
Y016480D02*
D03*
X028600Y015270D02*
D03*
Y015730D02*
D03*
X028950D02*
D03*
Y015270D02*
D03*
X030300Y016070D02*
D03*
Y016530D02*
D03*
X029900Y015580D02*
D03*
Y015120D02*
D03*
D22*
X029340Y015150D02*
D03*
X028700Y015020D02*
D03*
X017950Y015913D02*
D03*
X018620Y016570D02*
D03*
X030650Y015950D02*
D03*
X027050Y015200D02*
D03*
X028100Y017823D02*
D03*
D55*
X022889Y017689D02*
X026461D01*
X026300Y016713D02*
X026533Y016480D01*
X020707Y017480D02*
X021090D01*
X020639Y017548D02*
X020707Y017480D01*
X020639Y017548D02*
Y017633D01*
X019232Y016512D02*
X021488D01*
X018832Y016112D02*
X019232Y016512D01*
X021488D02*
X021576Y016600D01*
Y016608D01*
X022457Y017159D02*
X022592Y017294D01*
X020251Y017159D02*
X022457D01*
X020331Y017259D02*
X021750D01*
X020245Y017345D02*
X020331Y017259D01*
X020049Y017361D02*
X020251Y017159D01*
X024648Y016836D02*
X024736D01*
X024607Y016795D02*
X024648Y016836D01*
X024607Y016794D02*
Y016795D01*
X024513Y016700D02*
X024607Y016794D01*
X024500Y016700D02*
X024513D01*
X024736Y016836D02*
X024942Y017042D01*
Y017142D01*
X024940Y017145D02*
X024942Y017142D01*
X029763Y015298D02*
X029778D01*
X029722Y015257D02*
X029763Y015298D01*
X029722Y015242D02*
Y015257D01*
X029560Y015080D02*
X029722Y015242D01*
X029778Y015298D02*
X029790Y015310D01*
X030238D01*
X030339Y015411D02*
Y015523D01*
X030238Y015310D02*
X030339Y015411D01*
X030115Y015042D02*
X030166Y014991D01*
X029978Y015042D02*
X030115D01*
X029939Y015081D02*
X029978Y015042D01*
X029883Y015081D02*
X029939D01*
X029833Y015032D02*
X029883Y015081D01*
X029833Y014975D02*
Y015032D01*
X029708Y014850D02*
X029833Y014975D01*
X029251Y014850D02*
X029708D01*
X030166Y014991D02*
X030406D01*
X030172Y015482D02*
X030197Y015457D01*
X030172Y015432D02*
Y015482D01*
X030068Y015432D02*
X030172D01*
X029201Y014806D02*
X029207D01*
X029251Y014850D01*
X030406Y014991D02*
X030450Y015035D01*
X030326Y015537D02*
X030339Y015523D01*
X030326Y015537D02*
Y015654D01*
X030088Y015892D02*
X030326Y015654D01*
X029608Y015892D02*
X030088D01*
X029000Y015550D02*
X029200Y015350D01*
X022592Y017392D02*
X022889Y017689D01*
X021862Y017798D02*
X021950Y017710D01*
X026650Y016298D02*
X026686D01*
X028398Y015448D02*
X028772D01*
X028250Y015300D02*
X028398Y015448D01*
X028000Y015300D02*
X028250D01*
X028772Y015448D02*
X028950Y015270D01*
X030230Y016779D02*
X030436D01*
X030078Y016627D02*
X030230Y016779D01*
X030436D02*
X030550Y016665D01*
Y016550D02*
Y016665D01*
X030900Y016300D02*
Y016950D01*
X027859Y016688D02*
X028270D01*
X028316Y016642D02*
X029020D01*
X028270Y016688D02*
X028316Y016642D01*
X029362Y016472D02*
Y016482D01*
Y016472D02*
X029584Y016250D01*
X029020Y016630D02*
Y016642D01*
Y016630D02*
X029312Y016338D01*
X029319D01*
X029488Y016169D01*
Y016162D02*
Y016169D01*
Y016162D02*
X029580Y016070D01*
X028502Y016762D02*
X028644D01*
X028476Y016788D02*
X028502Y016762D01*
X028647Y016758D02*
X029086D01*
X028644Y016762D02*
X028647Y016758D01*
X029086D02*
X029362Y016482D01*
X027854Y016238D02*
X029278D01*
X029388Y016128D01*
X027542Y016550D02*
X027854Y016238D01*
X025150Y017550D02*
X026087D01*
X029584Y016250D02*
X029936D01*
X027818Y016788D02*
X028476D01*
X027790Y016760D02*
X027818Y016788D01*
X027831Y016660D02*
X027859Y016688D01*
X027817Y016660D02*
X027831D01*
X027807Y016650D02*
X027817Y016660D01*
X027250Y016550D02*
X027542D01*
X019048Y017420D02*
X019147Y017519D01*
X018990Y017420D02*
X019048D01*
X019147Y017519D02*
X019232D01*
X019261Y017548D01*
Y017633D01*
X020245Y017345D02*
Y017633D01*
X020049Y017361D02*
Y017632D01*
X020048Y017633D02*
X020049Y017632D01*
X019684Y017770D02*
X019760D01*
X019655Y017741D02*
X019684Y017770D01*
X019655Y017633D02*
Y017741D01*
X020450Y015777D02*
X020457Y015785D01*
X020450Y015640D02*
Y015777D01*
X020440Y015630D02*
X020450Y015640D01*
X020440Y015630D02*
X020442Y015628D01*
Y015467D02*
Y015628D01*
X018950Y015750D02*
X019258Y016058D01*
X020492D02*
X021700Y014850D01*
X019258Y016058D02*
X020492D01*
X020240Y015770D02*
X020243Y015767D01*
Y015470D02*
Y015767D01*
Y015470D02*
X020245Y015467D01*
X020806Y015300D02*
X020810D01*
X020639Y015467D02*
X020806Y015300D01*
X018450Y015335D02*
Y015520D01*
X018380Y015265D02*
X018450Y015335D01*
X026495Y016739D02*
X026511D01*
X026464Y016768D02*
X026466D01*
X026429Y016803D02*
Y016803D01*
X025941Y017259D02*
X026321Y016879D01*
X026353D02*
X026429Y016803D01*
Y016803D02*
X026464Y016768D01*
X026466D02*
X026495Y016739D01*
X024500Y016500D02*
Y016700D01*
X024244Y016500D02*
Y016903D01*
X024600Y017259D01*
X026321Y016879D02*
X026353D01*
X018088Y016112D02*
X018832D01*
X029388Y016112D02*
X029608Y015892D01*
X029388Y016112D02*
Y016128D01*
X026679Y016971D02*
Y017153D01*
Y016971D02*
X027050Y016600D01*
X026779Y017021D02*
X027250Y016550D01*
X026779Y017021D02*
Y017195D01*
X026383Y017450D02*
X026679Y017153D01*
X026404Y017570D02*
X026779Y017195D01*
X018850Y015900D02*
X019150Y016200D01*
X018056Y016080D02*
X018088Y016112D01*
X018040Y016080D02*
X018056D01*
X026850Y016480D02*
X026900D01*
X026533D02*
X026850D01*
X021950Y017592D02*
Y017710D01*
X025300Y017450D02*
X026383D01*
X025566Y017140D02*
X025728D01*
X030420Y016070D02*
X030550Y016200D01*
X030300Y016070D02*
X030420D01*
X030107Y016277D02*
X030348D01*
X029900Y016070D02*
X030107Y016277D01*
X030078Y016393D02*
Y016627D01*
X030500Y017350D02*
X030900Y016950D01*
Y016300D02*
X030998Y016202D01*
X031053D01*
X031161Y016094D01*
Y016084D02*
Y016094D01*
X030514Y017718D02*
X031447Y016786D01*
Y016724D02*
Y016786D01*
Y016724D02*
X031554Y016616D01*
X029936Y016250D02*
X030078Y016393D01*
X029580Y016070D02*
X029900D01*
X026107Y017570D02*
X026404D01*
X026087Y017550D02*
X026107Y017570D01*
X027100Y017500D02*
X027270D01*
X027050Y016305D02*
Y016600D01*
Y016305D02*
X027135Y016220D01*
X026650Y015700D02*
Y016041D01*
X026503Y016050D02*
X026641D01*
X019150Y016200D02*
X021995D01*
X026150Y015850D02*
Y015900D01*
X026350Y015350D02*
Y015689D01*
X026133Y016000D02*
X026341Y016209D01*
X026586D01*
X026650Y016273D01*
X026650D01*
X023750Y016000D02*
X026133D01*
X025728Y017140D02*
X025987Y016880D01*
Y016263D02*
Y016880D01*
Y016263D02*
X026100Y016150D01*
X024020Y016820D02*
X024550Y017350D01*
X023988Y016500D02*
X024020Y016532D01*
Y016820D01*
X026300Y016713D02*
Y016750D01*
X029570Y017650D02*
X029620Y017700D01*
X018750Y015750D02*
X018950D01*
X030482Y017718D02*
X030514D01*
X027642Y016050D02*
X027800Y015892D01*
X027311Y016050D02*
X027642D01*
X027141Y016220D02*
X027311Y016050D01*
X021995Y016200D02*
X022197Y016402D01*
X022236D01*
X022324Y016490D01*
Y016608D01*
X022592Y017294D02*
Y017392D01*
X027250Y017900D02*
X027491Y017659D01*
Y017573D02*
Y017659D01*
X028954Y017300D02*
X029120Y017466D01*
Y017570D01*
X028867Y017823D02*
X029120Y017570D01*
X028784Y017823D02*
X028867D01*
X028400Y017650D02*
Y017813D01*
X028390Y017445D02*
Y017640D01*
X028400Y017650D01*
X028246Y017300D02*
X028390Y017445D01*
X028391Y017823D02*
X028400Y017813D01*
X029120Y017570D02*
X029200Y017650D01*
X029570D01*
X028400Y015550D02*
X029000D01*
X026650Y016273D02*
Y016297D01*
X026648Y016298D02*
X026650Y016297D01*
X027492Y015200D02*
X028030D01*
X026900Y014950D02*
X027924D01*
X027997Y015023D01*
X026500Y015350D02*
X026900Y014950D01*
X028194Y015023D02*
Y015037D01*
X027400Y015309D02*
Y015800D01*
X028030Y015200D02*
X028194Y015037D01*
X027135Y016220D02*
X027141D01*
X027304Y016350D02*
X027484D01*
X027258Y016396D02*
X027304Y016350D01*
X027484D02*
X028034Y015800D01*
X027243Y016396D02*
X027258D01*
X027800Y015500D02*
Y015892D01*
X028034Y015800D02*
X028150D01*
X027800Y015500D02*
X028000Y015300D01*
X028150Y015800D02*
X028400Y015550D01*
X026350Y015350D02*
X026500D01*
X021700Y014850D02*
X028203D01*
X028276Y014923D01*
X028391D01*
X028981D02*
Y015239D01*
X028391Y014923D02*
Y015061D01*
X028600Y015270D01*
X028950D02*
X028981Y015239D01*
D56*
X022851Y017779D02*
X026499D01*
X022818Y017859D02*
X026532D01*
X022785Y017939D02*
X026565D01*
X025030Y017235D02*
X025396D01*
X024940Y017145D02*
X025030Y017235D01*
X024665Y017315D02*
X025278D01*
X024600Y017400D02*
X025250D01*
X021750Y017259D02*
X022430D01*
X029560Y015023D02*
Y015080D01*
X029680Y015350D02*
X029732Y015402D01*
X029200Y015350D02*
X029680D01*
X029732Y015402D02*
X030037D01*
X030068Y015432D01*
X026565Y017939D02*
X026604Y017900D01*
X022746D02*
X022785Y017939D01*
X026532Y017859D02*
X027140Y017250D01*
X022768Y017808D02*
X022818Y017859D01*
X026499Y017779D02*
X026980Y017297D01*
X022502Y017429D02*
X022851Y017779D01*
X021819Y017900D02*
X022746D01*
X021723Y017804D02*
X021819Y017900D01*
X021674Y017804D02*
X021723D01*
X021576Y017706D02*
X021674Y017804D01*
X021576Y017592D02*
Y017706D01*
X022430Y017259D02*
X022502Y017331D01*
X018920Y017870D02*
X019000Y017950D01*
X020020D01*
X020048Y017922D01*
Y017633D02*
Y017922D01*
X019655Y015467D02*
X019670Y015483D01*
X028570Y014930D02*
X028590D01*
X028680Y015020D01*
X028700D01*
X025420Y017259D02*
X025941D01*
X025396Y017235D02*
X025420Y017259D01*
X023472Y015890D02*
X023701Y016119D01*
X023781D02*
X023871Y016209D01*
X025278Y017315D02*
X025313Y017350D01*
X023300Y015870D02*
X023320Y015890D01*
X023988Y016313D02*
Y016500D01*
X026300Y017350D02*
X026550Y017100D01*
X023929Y016254D02*
X023988Y016313D01*
X023320Y015890D02*
X023472D01*
X023871Y016231D02*
X023894Y016254D01*
X023871Y016209D02*
Y016231D01*
X023701Y016119D02*
X023781D01*
X024609Y017259D02*
X024665Y017315D01*
X023894Y016254D02*
X023929D01*
X025313Y017350D02*
X026300D01*
X024600Y017259D02*
X024609D01*
X027140Y017250D02*
X027400D01*
X025250Y017400D02*
X025300Y017450D01*
X022502Y017331D02*
Y017429D01*
X024550Y017350D02*
X024600Y017400D01*
X026980Y017070D02*
Y017297D01*
Y017070D02*
X027231Y016819D01*
Y016812D02*
Y016819D01*
Y016812D02*
X027300Y016742D01*
X027399D01*
X027417Y016760D01*
X027790D01*
X027277Y016650D02*
X027807D01*
X026900Y017027D02*
X027277Y016650D01*
X026604Y017900D02*
X027250D01*
X026900Y017027D02*
Y017223D01*
X026641Y016050D02*
X026650Y016041D01*
X026473Y016020D02*
X026503Y016050D01*
X026508Y015558D02*
X026650Y015700D01*
X026508Y015500D02*
Y015558D01*
X026720Y017403D02*
X026900Y017223D01*
X026720Y017403D02*
Y017430D01*
X026461Y017689D02*
X026720Y017430D01*
X022422Y017808D02*
X022768D01*
X022324Y017710D02*
X022422Y017808D01*
X022324Y017592D02*
Y017710D01*
D57*
X023149Y016306D02*
X023556D01*
X018287Y016261D02*
X018731D01*
X024796Y016706D02*
X025146Y017057D01*
X024775Y016706D02*
X024796D01*
X024756Y016687D02*
X024775Y016706D01*
X024756Y016500D02*
Y016687D01*
X023556Y016306D02*
X023562Y016312D01*
X023004Y016451D02*
X023149Y016306D01*
X023550Y016300D02*
X023556Y016306D01*
X023562Y016312D02*
X023714D01*
X023732Y016330D01*
Y016500D01*
X019170Y017250D02*
X019181D01*
X019201Y017270D01*
X019231Y017240D01*
X019290Y017298D01*
X019308D01*
X019326Y017316D01*
X019361D01*
X019458Y017413D01*
Y017633D01*
X017565Y015985D02*
Y016022D01*
X019260Y017632D02*
X019261Y017633D01*
X024717Y015447D02*
X025013Y015150D01*
X025300D01*
X022669Y015447D02*
X022822Y015600D01*
X025046Y016196D02*
X025229D01*
X022822Y015600D02*
X023250D01*
X025000Y016150D02*
X025046Y016196D01*
X025229D02*
X025484Y016451D01*
X023250Y015600D02*
X023450D01*
X023488Y015562D01*
X025300Y015150D02*
X025525D01*
X023488Y015562D02*
X023656D01*
X025525Y015150D02*
X025819Y015444D01*
X023656Y015562D02*
X023772Y015447D01*
X025819Y015444D02*
Y015447D01*
X018688Y016301D02*
X018692D01*
X018731Y016261D01*
X017830Y016480D02*
X017891Y016419D01*
X017973D01*
X017565Y016022D02*
X017578Y016035D01*
X017530Y016020D02*
X017565Y015985D01*
X028600Y015730D02*
Y016050D01*
Y015730D02*
X028950D01*
X029600Y015550D02*
X029615Y015565D01*
X029885D01*
X029900Y015580D01*
X032741Y015548D02*
Y015745D01*
D58*
X017660Y016310D02*
X017830Y016480D01*
X019040Y015250D02*
X019190D01*
X018725Y014935D02*
X019040Y015250D01*
X017805Y014935D02*
X018725D01*
X019190Y015250D02*
Y015340D01*
X017600Y015250D02*
Y015950D01*
Y015140D02*
Y015250D01*
Y015140D02*
X017805Y014935D01*
X017530Y016480D02*
X017830D01*
X017640Y016310D02*
X017660D01*
X017565Y015985D02*
X017600Y015950D01*
X029789Y017211D02*
X029800Y017200D01*
X029759Y017211D02*
X029789D01*
X029620Y017350D02*
X029759Y017211D01*
X029789Y017189D02*
X029800Y017200D01*
X029789Y017169D02*
Y017189D01*
X029620Y017000D02*
X029789Y017169D01*
D64*
X018347Y017560D02*
D03*
X017547D02*
D03*
X017947Y015560D02*
D03*
D65*
X034400Y015400D02*
D03*
D66*
X033400D02*
D03*
D67*
X023980Y017530D02*
D03*
X024250Y017400D02*
D03*
X025130Y017520D02*
D03*
X021090Y017480D02*
D03*
X021280Y016660D02*
D03*
X021306Y017030D02*
D03*
X025050Y016720D02*
D03*
X023540Y016680D02*
D03*
X029201Y014806D02*
D03*
X029560Y015023D02*
D03*
X029350D02*
D03*
X030210Y015470D02*
D03*
X023890Y017110D02*
D03*
X022090Y017770D02*
D03*
X023550Y016300D02*
D03*
X030350Y016650D02*
D03*
X030550Y016550D02*
D03*
X018920Y017870D02*
D03*
X018990Y017420D02*
D03*
X018040Y016080D02*
D03*
X018849Y015900D02*
D03*
X017970Y017190D02*
D03*
X018749Y015750D02*
D03*
X020430Y017840D02*
D03*
X019760Y017770D02*
D03*
X020050Y015250D02*
D03*
X019850D02*
D03*
X020240Y015770D02*
D03*
X020810Y015300D02*
D03*
X018450Y015520D02*
D03*
X031723Y015823D02*
D03*
X028570Y014930D02*
D03*
X025000Y016150D02*
D03*
X023300Y015870D02*
D03*
X026550Y017100D02*
D03*
X023250Y015600D02*
D03*
X025300Y015150D02*
D03*
X026511Y016739D02*
D03*
X017810Y015250D02*
D03*
X032952Y016996D02*
D03*
X027400Y017250D02*
D03*
X031910Y016880D02*
D03*
X030348Y016277D02*
D03*
X028784Y017823D02*
D03*
X028391D02*
D03*
X030350Y017250D02*
D03*
X028391Y014923D02*
D03*
X026650Y016273D02*
D03*
X027997Y015023D02*
D03*
X030500Y017350D02*
D03*
X027491Y017573D02*
D03*
X027350Y016861D02*
D03*
X028981Y014923D02*
D03*
X030482Y017718D02*
D03*
X028194Y015023D02*
D03*
X026100Y016150D02*
D03*
X017640Y016310D02*
D03*
X031486Y017745D02*
D03*
X032568D02*
D03*
X032027Y017528D02*
D03*
X034782Y015023D02*
D03*
X034792Y015193D02*
D03*
Y015383D02*
D03*
Y015583D02*
D03*
Y015783D02*
D03*
X034602Y015823D02*
D03*
X034402D02*
D03*
X034202D02*
D03*
X033552Y016873D02*
D03*
X024160Y017540D02*
D03*
X025566Y017140D02*
D03*
X030550Y016200D02*
D03*
X031056Y016900D02*
D03*
X027100Y017500D02*
D03*
X026150Y015850D02*
D03*
X026300Y016750D02*
D03*
X026400Y015000D02*
D03*
X021900Y015700D02*
D03*
X031100Y017800D02*
D03*
X034624Y014932D02*
D03*
X034408D02*
D03*
X034191D02*
D03*
X033975Y015797D02*
D03*
Y015364D02*
D03*
Y014932D02*
D03*
X033758Y015797D02*
D03*
X033867Y015581D02*
D03*
Y015148D02*
D03*
X033758Y014932D02*
D03*
X033542Y017528D02*
D03*
Y017096D02*
D03*
Y016663D02*
D03*
Y016230D02*
D03*
Y015797D02*
D03*
Y014932D02*
D03*
X033434Y017745D02*
D03*
Y016446D02*
D03*
X033326Y016230D02*
D03*
X033434Y016014D02*
D03*
X033326Y014932D02*
D03*
X033217Y017745D02*
D03*
Y016446D02*
D03*
Y016014D02*
D03*
X033109Y014932D02*
D03*
X033001Y017745D02*
D03*
X032893Y014932D02*
D03*
X032785Y017745D02*
D03*
X032676Y014932D02*
D03*
X032460D02*
D03*
X032352Y016879D02*
D03*
X032244Y016663D02*
D03*
Y014932D02*
D03*
X032135Y016879D02*
D03*
X032027Y014932D02*
D03*
X031811D02*
D03*
X031594D02*
D03*
X031378D02*
D03*
X031270Y017745D02*
D03*
X027243Y016396D02*
D03*
X023750Y016000D02*
D03*
X032350Y015900D02*
D03*
X033000Y015850D02*
D03*
X031150Y015400D02*
D03*
D68*
X020470Y016720D02*
D03*
X028860Y016430D02*
D03*
X029180Y016930D02*
D03*
X028580Y016950D02*
D03*
X019170Y017250D02*
D03*
X018840Y017040D02*
D03*
X020457Y015785D02*
D03*
X019670Y015870D02*
D03*
X025146Y017057D02*
D03*
X029550Y016550D02*
D03*
X029200Y016050D02*
D03*
X018688Y016301D02*
D03*
X028050Y016500D02*
D03*
Y016050D02*
D03*
X029800Y017200D02*
D03*
X028600Y016050D02*
D03*
X029600Y015550D02*
D03*
X028050D02*
D03*
Y017250D02*
D03*
D71*
X032741Y015745D02*
D03*
Y015548D02*
D03*
Y015352D02*
D03*
Y015155D02*
D03*
X031559D02*
D03*
Y015352D02*
D03*
Y015548D02*
D03*
Y015745D02*
D03*
D72*
X032150Y015450D02*
D03*
D73*
X017973Y016419D02*
D03*
Y016261D02*
D03*
X018130Y016419D02*
D03*
Y016261D02*
D03*
X018287Y016419D02*
D03*
Y016261D02*
D03*
D74*
X031554Y016084D02*
D03*
Y016616D02*
D03*
X031161D02*
D03*
Y016084D02*
D03*
D75*
X021576Y016608D02*
D03*
X021950D02*
D03*
X022324D02*
D03*
Y017592D02*
D03*
X021950D02*
D03*
X021576D02*
D03*
D76*
X028446Y017450D02*
D03*
X029154D02*
D03*
X017636Y017020D02*
D03*
X018344D02*
D03*
D77*
X030630Y015675D02*
D03*
Y015045D02*
D03*
D78*
X024756Y016500D02*
D03*
X024500D02*
D03*
X024244D02*
D03*
X023988D02*
D03*
X023732D02*
D03*
D79*
X025484Y016451D02*
D03*
X023004D02*
D03*
D80*
X025819Y015447D02*
D03*
X022669D02*
D03*
D81*
X024717D02*
D03*
X023772D02*
D03*
D82*
X020639Y015467D02*
D03*
Y017633D02*
D03*
X020442Y015467D02*
D03*
Y017633D02*
D03*
X020245Y015467D02*
D03*
Y017633D02*
D03*
X020048Y015467D02*
D03*
Y017633D02*
D03*
X019852Y015467D02*
D03*
Y017633D02*
D03*
X019655Y015467D02*
D03*
Y017633D02*
D03*
X019458Y015467D02*
D03*
Y017633D02*
D03*
X019261Y015467D02*
D03*
Y017633D02*
D03*
D83*
X026508Y015500D02*
D03*
X027492D02*
D03*
D84*
X018380Y015875D02*
D03*
Y015265D02*
D03*
D85*
X031100Y015055D02*
D03*
Y015645D02*
D03*
D86*
X017578Y016035D02*
X017745D01*
X017880Y016170D01*
M02*
