G04*
G04 #@! TF.GenerationSoftware,Altium Limited,Altium Designer,20.0.13 (296)*
G04*
G04 Layer_Physical_Order=4*
G04 Layer_Color=1930808*
%FSAX25Y25*%
%MOIN*%
G70*
G01*
G75*
%ADD10C,0.01000*%
%ADD15C,0.00800*%
%ADD16C,0.00600*%
%ADD22R,0.02165X0.02165*%
%ADD27C,0.01575*%
%ADD29R,0.02165X0.02165*%
%ADD61C,0.01800*%
%ADD62C,0.00400*%
%ADD63C,0.01200*%
%ADD70C,0.01949*%
%ADD71R,0.05906X0.05906*%
%ADD72C,0.05906*%
%ADD73C,0.02362*%
%ADD74C,0.03000*%
%ADD77R,0.04331X0.06693*%
%ADD78R,0.02559X0.01378*%
%ADD79R,0.01181X0.04331*%
%ADD80R,0.01890X0.02539*%
%ADD81R,0.03740X0.03543*%
%ADD82R,0.03150X0.01181*%
%ADD83R,0.06890X0.06102*%
%ADD84R,0.02756X0.02953*%
%ADD85R,0.02362X0.04724*%
%ADD86R,0.04528X0.05709*%
%ADD87R,0.03937X0.03543*%
%ADD88R,0.01575X0.05315*%
%ADD89R,0.08661X0.06299*%
%ADD90R,0.07087X0.07480*%
%ADD91R,0.07480X0.07480*%
%ADD92R,0.03937X0.07087*%
G36*
X0305334Y0178497D02*
X0305295Y0178300D01*
X0305402Y0177762D01*
X0305707Y0177306D01*
X0306162Y0177002D01*
X0306700Y0176895D01*
X0307219Y0176998D01*
X0312321Y0171896D01*
X0312129Y0171434D01*
X0309953D01*
Y0170209D01*
X0309492Y0170018D01*
X0305306Y0174203D01*
X0305405Y0174700D01*
X0305298Y0175238D01*
X0304993Y0175694D01*
X0304538Y0175998D01*
X0304000Y0176105D01*
X0303462Y0175998D01*
X0303383Y0175945D01*
X0302883Y0176212D01*
Y0176500D01*
X0300800D01*
Y0177500D01*
X0302883D01*
Y0178997D01*
X0304953D01*
X0305334Y0178497D01*
D02*
G37*
G36*
X0336851Y0160315D02*
X0336977Y0160009D01*
X0337283Y0159882D01*
X0348497D01*
Y0148503D01*
X0311847D01*
X0311466Y0149004D01*
X0311505Y0149200D01*
X0311398Y0149738D01*
X0311239Y0149976D01*
X0311503Y0150476D01*
X0313070D01*
Y0150582D01*
X0313620D01*
Y0150557D01*
X0317055D01*
Y0150449D01*
X0321000D01*
Y0154500D01*
Y0158551D01*
X0319520D01*
X0319498Y0158575D01*
X0319298Y0159051D01*
X0319395Y0159196D01*
X0319397Y0159206D01*
X0319462Y0159249D01*
X0319767Y0159705D01*
X0319874Y0160243D01*
X0319767Y0160781D01*
X0319462Y0161236D01*
X0319006Y0161541D01*
X0318469Y0161648D01*
X0317931Y0161541D01*
X0317475Y0161236D01*
X0317171Y0160781D01*
X0317064Y0160243D01*
X0317171Y0159705D01*
X0317323Y0159477D01*
X0316290Y0158443D01*
X0313620D01*
Y0155106D01*
X0313020D01*
Y0154819D01*
X0308668D01*
Y0156381D01*
X0313070D01*
Y0160724D01*
X0310549D01*
X0310405Y0160900D01*
X0310298Y0161438D01*
X0310012Y0161866D01*
X0310043Y0162016D01*
X0310186Y0162366D01*
X0313390D01*
X0313509Y0162366D01*
X0313891D01*
X0314009Y0162366D01*
X0317446D01*
Y0166119D01*
X0314009D01*
X0313891Y0166119D01*
X0313509D01*
X0313390Y0166119D01*
X0310963D01*
X0310367Y0166715D01*
Y0167681D01*
X0313509D01*
X0313509Y0167681D01*
X0313891D01*
Y0167681D01*
X0314009Y0167681D01*
X0317446D01*
Y0171434D01*
X0314802D01*
X0308077Y0178158D01*
X0308105Y0178300D01*
X0308066Y0178497D01*
X0308447Y0178997D01*
X0336851D01*
Y0160315D01*
D02*
G37*
%LPC*%
G36*
X0323500Y0160405D02*
X0322962Y0160298D01*
X0322507Y0159994D01*
X0322202Y0159538D01*
X0322095Y0159000D01*
X0322107Y0158938D01*
X0322000Y0158807D01*
Y0154500D01*
Y0150449D01*
X0325945D01*
Y0150557D01*
X0329380D01*
Y0152598D01*
X0330952D01*
X0331071Y0152309D01*
X0331609Y0151609D01*
X0332309Y0151071D01*
X0333125Y0150733D01*
X0334000Y0150618D01*
X0334875Y0150733D01*
X0335691Y0151071D01*
X0336391Y0151609D01*
X0336929Y0152309D01*
X0337266Y0153125D01*
X0337382Y0154000D01*
X0337266Y0154875D01*
X0336929Y0155691D01*
X0336391Y0156391D01*
X0335691Y0156929D01*
X0334875Y0157266D01*
X0334000Y0157382D01*
X0333125Y0157266D01*
X0332309Y0156929D01*
X0331609Y0156391D01*
X0331071Y0155691D01*
X0330734Y0154875D01*
X0330675Y0154433D01*
X0329380D01*
Y0158443D01*
X0327552D01*
X0327406Y0158472D01*
X0327259Y0158443D01*
X0327242D01*
X0327179Y0158765D01*
X0326980Y0159063D01*
X0326394Y0159649D01*
X0326096Y0159848D01*
X0325745Y0159918D01*
X0324544D01*
X0324493Y0159994D01*
X0324038Y0160298D01*
X0323500Y0160405D01*
D02*
G37*
%LPD*%
D10*
X0311000Y0151500D02*
X0315547D01*
X0274300Y0168700D02*
Y0169414D01*
X0269000Y0160700D02*
X0271700Y0158000D01*
X0274000D01*
X0179150Y0173665D02*
Y0173944D01*
X0179107Y0173900D02*
X0179150Y0173944D01*
X0307300Y0159991D02*
Y0162193D01*
X0306836Y0159526D02*
X0307300Y0159991D01*
X0304000Y0170500D02*
X0308328Y0166172D01*
Y0164200D02*
Y0166172D01*
X0307528Y0163400D02*
X0308328Y0164200D01*
X0307528Y0162326D02*
Y0163400D01*
X0306836Y0157405D02*
Y0159526D01*
X0307300Y0162193D02*
X0307433Y0162326D01*
X0301300Y0170500D02*
X0304000D01*
X0301599Y0172549D02*
X0303089D01*
X0300800Y0170000D02*
Y0171750D01*
X0318469Y0160243D02*
X0318548Y0160164D01*
Y0159548D02*
Y0160164D01*
X0300800Y0171750D02*
X0301599Y0172549D01*
X0212001Y0168713D02*
X0213578D01*
X0211904Y0168809D02*
X0212001Y0168713D01*
X0209010Y0168809D02*
X0211904D01*
X0214206Y0169341D02*
X0218959D01*
X0213578Y0168713D02*
X0214206Y0169341D01*
X0204250Y0167200D02*
X0207400D01*
X0204201Y0167151D02*
X0204250Y0167200D01*
X0274300Y0169414D02*
X0277300Y0172414D01*
X0184700Y0165641D02*
X0188041D01*
X0188100Y0165700D01*
X0183300Y0162700D02*
X0184638Y0164038D01*
Y0165579D01*
X0184700Y0165641D01*
X0315595Y0157453D02*
X0316453D01*
X0311061Y0158466D02*
X0312000Y0157528D01*
X0306208Y0156778D02*
X0306836Y0157405D01*
X0183300Y0156400D02*
Y0158100D01*
Y0154700D02*
Y0156400D01*
X0186000D02*
X0186077Y0156477D01*
X0183300Y0156400D02*
X0186000D01*
X0180369Y0168200D02*
Y0172447D01*
X0179150Y0173665D02*
X0180369Y0172447D01*
X0176500Y0171700D02*
X0178700Y0173900D01*
X0179107D01*
X0176039Y0170759D02*
X0176111D01*
X0176500Y0171148D01*
Y0171700D01*
X0277300Y0172414D02*
Y0175000D01*
X0207400Y0167200D02*
X0209010Y0168809D01*
X0196700Y0154826D02*
Y0158700D01*
X0194539Y0154713D02*
X0194579Y0154673D01*
X0327500Y0151500D02*
Y0153008D01*
X0179500Y0159132D02*
X0179656D01*
X0218959Y0169341D02*
X0219250Y0169050D01*
Y0166329D02*
Y0169050D01*
Y0166329D02*
X0219500Y0166079D01*
X0300800Y0171750D02*
Y0173500D01*
Y0170000D02*
X0301300Y0170500D01*
X0299000Y0168200D02*
X0300800Y0170000D01*
X0299000Y0165300D02*
Y0168200D01*
X0326331Y0157543D02*
Y0158414D01*
X0325745Y0159000D02*
X0326331Y0158414D01*
X0323500Y0159000D02*
X0325745D01*
X0332673Y0154000D02*
X0334000D01*
X0327406Y0153516D02*
X0331188D01*
D15*
X0318469Y0160243D02*
X0318548Y0160164D01*
Y0159548D02*
Y0160164D01*
X0242200Y0174734D02*
X0242233Y0174767D01*
X0242200Y0173400D02*
Y0174734D01*
X0237097Y0170787D02*
X0237716D01*
X0238683Y0171755D01*
X0240554D01*
X0236710Y0170400D02*
X0237097Y0170787D01*
X0240554Y0171755D02*
X0242200Y0173400D01*
X0236500Y0170400D02*
X0236710D01*
X0316453Y0157453D02*
X0318548Y0159548D01*
X0214732Y0150939D02*
Y0151264D01*
X0215376Y0151909D01*
X0215701D01*
X0219092Y0155300D01*
Y0155992D01*
X0219200Y0156100D01*
X0214171Y0151500D02*
X0214732Y0150939D01*
X0278454Y0175683D02*
X0281000Y0178228D01*
X0277983Y0175683D02*
X0278454D01*
X0277300Y0175000D02*
X0277983Y0175683D01*
X0320516Y0152516D02*
X0321500Y0153500D01*
X0315595Y0153516D02*
X0320516D01*
D16*
X0235397Y0178397D02*
X0273403D01*
X0274831Y0176970D01*
X0274845D01*
X0252462Y0176597D02*
X0252813Y0176246D01*
X0229959Y0172959D02*
X0235397Y0178397D01*
X0241689Y0176597D02*
X0252462D01*
X0240128Y0175036D02*
X0241689Y0176597D01*
X0302500Y0150350D02*
Y0150896D01*
X0309653Y0166419D02*
X0311732Y0164341D01*
X0304000Y0174500D02*
X0309653Y0168846D01*
Y0166419D02*
Y0168846D01*
X0311732Y0164242D02*
Y0164341D01*
X0315669Y0169557D02*
Y0169656D01*
X0314591Y0170734D02*
X0315669Y0169656D01*
X0314492Y0170734D02*
X0314591D01*
X0306926Y0178300D02*
X0314492Y0170734D01*
X0306700Y0178300D02*
X0306926D01*
X0298500Y0174787D02*
X0299413Y0175700D01*
X0298500Y0173500D02*
Y0174787D01*
X0297892Y0171892D02*
X0298337Y0172337D01*
Y0173337D01*
X0298500Y0173500D01*
X0299413Y0175700D02*
X0299500D01*
X0300800Y0177000D01*
X0272200Y0164000D02*
X0272544D01*
X0265325Y0164800D02*
X0268500D01*
X0263000Y0167125D02*
X0265325Y0164800D01*
X0275866Y0167881D02*
X0278314Y0170329D01*
X0269598Y0162702D02*
X0271800Y0160500D01*
X0272544Y0164000D02*
X0273044Y0163500D01*
X0268617Y0171122D02*
Y0172702D01*
X0258831Y0175019D02*
X0266301D01*
X0268617Y0172702D01*
Y0171122D02*
X0270605Y0169134D01*
X0271800Y0160500D02*
X0276423D01*
X0237500Y0160000D02*
X0249127D01*
X0249305Y0159822D01*
X0250695D01*
X0250873Y0160000D01*
X0261325D01*
X0265858Y0162087D02*
X0266497Y0162727D01*
X0214005Y0163300D02*
X0214289Y0163016D01*
X0220971D01*
X0192800Y0163300D02*
X0214005D01*
X0189178Y0159678D02*
X0192800Y0163300D01*
X0220971Y0163016D02*
X0221971Y0164016D01*
X0309000Y0159322D02*
Y0160900D01*
X0305758Y0165391D02*
X0305944Y0165205D01*
X0304156Y0168217D02*
X0305689Y0166684D01*
X0301817Y0168217D02*
X0304156D01*
X0301073Y0162773D02*
X0303298D01*
X0198232Y0154390D02*
X0198516Y0154673D01*
X0198232Y0152037D02*
Y0154390D01*
X0197800Y0151364D02*
X0198166Y0151729D01*
X0197800Y0151100D02*
Y0151364D01*
X0198166Y0151971D02*
X0198232Y0152037D01*
X0198166Y0151729D02*
Y0151971D01*
X0189178Y0159641D02*
Y0159678D01*
X0300883Y0158917D02*
X0303419Y0156381D01*
Y0155554D02*
X0303578Y0155395D01*
X0303419Y0155554D02*
Y0156381D01*
X0304200Y0160700D02*
X0305458Y0161958D01*
X0304000Y0174500D02*
Y0174700D01*
X0305758Y0165391D02*
Y0165975D01*
X0305689Y0166044D02*
X0305758Y0165975D01*
X0305689Y0166044D02*
Y0166684D01*
X0303000Y0160700D02*
X0304200D01*
X0300783Y0167183D02*
X0301817Y0168217D01*
X0300783Y0163927D02*
Y0167183D01*
X0299355Y0162500D02*
X0300783Y0163927D01*
X0299000Y0160700D02*
X0301073Y0162773D01*
X0296083Y0158917D02*
X0300883D01*
X0302500Y0150350D02*
X0304500D01*
X0301222D02*
X0302500D01*
X0301722Y0154322D02*
Y0154819D01*
X0301971Y0154571D01*
X0299783Y0150417D02*
X0301155D01*
X0301222Y0150350D01*
X0299391Y0150809D02*
X0299783Y0150417D01*
X0303578Y0153805D02*
Y0155395D01*
X0302756Y0152983D02*
X0303578Y0153805D01*
X0297627Y0152983D02*
X0302756D01*
X0279714Y0150013D02*
X0279900Y0150200D01*
X0276590Y0152619D02*
X0281586D01*
X0279721Y0153619D02*
X0281279D01*
X0279289Y0154051D02*
X0279721Y0153619D01*
X0265000Y0153500D02*
X0268500Y0150000D01*
X0279075Y0150013D02*
X0279714D01*
X0279061Y0150000D02*
X0279075Y0150013D01*
X0268500Y0150000D02*
X0279061D01*
X0263500Y0153500D02*
X0265000D01*
X0263500D02*
Y0156892D01*
X0274921Y0154287D02*
Y0155000D01*
Y0154287D02*
X0276590Y0152619D01*
X0281586D02*
X0281937Y0152267D01*
Y0150228D02*
Y0152267D01*
X0278949Y0154051D02*
X0279289D01*
X0281279Y0153619D02*
X0281711Y0154051D01*
X0283551D02*
X0283983Y0154483D01*
X0281711Y0154051D02*
X0283551D01*
X0278000Y0155000D02*
X0278949Y0154051D01*
X0283983Y0154483D02*
X0287717D01*
X0283513Y0148914D02*
X0283700Y0149100D01*
X0282995Y0148914D02*
X0283513D01*
X0213644Y0148822D02*
X0262678D01*
X0212766Y0149700D02*
X0213644Y0148822D01*
X0211600Y0149700D02*
X0212766D01*
X0211600D02*
Y0153500D01*
X0209390Y0155709D02*
Y0156470D01*
Y0155709D02*
X0211600Y0153500D01*
X0259873Y0162627D02*
X0260630Y0161870D01*
Y0161678D02*
Y0161870D01*
X0266497Y0162727D02*
X0266500Y0162724D01*
X0265913Y0162427D02*
X0266202D01*
X0266500Y0162724D01*
X0265072Y0167828D02*
Y0168358D01*
Y0167828D02*
X0265100Y0167800D01*
X0189706Y0174125D02*
X0190408D01*
X0191471Y0175188D01*
X0213395Y0172078D02*
X0214873Y0170600D01*
X0208487Y0172078D02*
X0213395D01*
X0213809Y0173078D02*
X0215187Y0171700D01*
X0203180Y0173078D02*
X0213809D01*
X0190400Y0164800D02*
X0214879D01*
X0211170Y0174870D02*
X0211530D01*
X0258584Y0174772D02*
X0258831Y0175019D01*
X0251667Y0174772D02*
X0258584D01*
X0215187Y0171700D02*
X0217500D01*
X0231600Y0170600D02*
X0233411Y0172411D01*
X0214873Y0170600D02*
X0231600D01*
X0202606Y0173652D02*
X0203180Y0173078D01*
X0207709Y0171300D02*
X0208487Y0172078D01*
X0202800Y0171300D02*
X0207709D01*
X0234295Y0172422D02*
X0237795D01*
X0233411Y0172411D02*
X0234283D01*
X0234295Y0172422D01*
X0240128Y0174828D02*
Y0175036D01*
X0254400Y0176246D02*
X0254554Y0176400D01*
X0265100D01*
X0252813Y0176246D02*
X0254400D01*
X0238778Y0173478D02*
X0240128Y0174828D01*
X0238778Y0173405D02*
Y0173478D01*
X0237795Y0172422D02*
X0238778Y0173405D01*
X0239882Y0165000D02*
X0240953Y0166072D01*
Y0167947D01*
X0241172Y0168166D02*
Y0169172D01*
X0240953Y0167947D02*
X0241172Y0168166D01*
Y0169172D02*
X0245500Y0173500D01*
X0242441Y0169027D02*
X0246000Y0172586D01*
X0242441Y0165000D02*
Y0169027D01*
X0247358Y0168358D02*
X0248600Y0169600D01*
X0246482Y0168358D02*
X0247358D01*
X0246072Y0167947D02*
X0246482Y0168358D01*
X0263858Y0169572D02*
X0265072Y0168358D01*
X0260400Y0171600D02*
X0262428Y0169572D01*
X0263858D01*
X0248600Y0169600D02*
Y0170500D01*
X0249400Y0171300D01*
Y0171446D01*
X0262242Y0160917D02*
Y0161151D01*
X0261325Y0160000D02*
X0262242Y0160917D01*
X0256266Y0169496D02*
X0256266D01*
X0256333Y0169429D01*
X0259246D01*
X0259873Y0168802D01*
Y0162627D02*
Y0168802D01*
X0283906Y0178228D02*
X0284000Y0178134D01*
X0186100Y0160500D02*
X0190400Y0164800D01*
X0215760Y0165681D02*
Y0166079D01*
X0214879Y0164800D02*
X0215760Y0165681D01*
X0296514Y0162500D02*
X0299355D01*
X0294981Y0162619D02*
X0296900Y0160700D01*
X0294307Y0162619D02*
X0294981D01*
X0283700Y0150400D02*
X0286000Y0152700D01*
X0283700Y0149100D02*
Y0150400D01*
X0200487Y0173613D02*
X0202800Y0171300D01*
X0202606Y0173652D02*
Y0176173D01*
X0202453Y0176327D02*
X0202606Y0176173D01*
X0211530Y0174870D02*
X0211600Y0174800D01*
X0206680D02*
X0211600D01*
X0206390Y0175091D02*
Y0176327D01*
Y0175091D02*
X0206680Y0174800D01*
X0205279Y0160581D02*
X0209390Y0156470D01*
X0192581Y0160581D02*
X0205279D01*
X0204900Y0155152D02*
Y0158300D01*
X0204421Y0154673D02*
X0204900Y0155152D01*
X0207924Y0153139D02*
X0208239D01*
X0206390Y0154673D02*
X0207924Y0153139D01*
X0185903Y0160500D02*
X0186100D01*
X0185812Y0160409D02*
X0185903Y0160500D01*
X0216600Y0160600D02*
X0219000Y0158200D01*
X0215400Y0160600D02*
X0216600D01*
X0219089Y0156211D02*
X0219200Y0156100D01*
X0219089Y0156211D02*
Y0156622D01*
X0219000Y0156711D02*
X0219089Y0156622D01*
X0219000Y0156711D02*
Y0158200D01*
X0209800Y0161400D02*
X0214339Y0156861D01*
X0216700D01*
X0202352Y0154774D02*
X0202453Y0154673D01*
X0202252Y0157706D02*
X0202352Y0157606D01*
Y0154774D02*
Y0157606D01*
X0309000Y0159322D02*
X0309856Y0158466D01*
X0311061D01*
X0276423Y0160500D02*
X0278000Y0158923D01*
Y0155000D02*
Y0158923D01*
X0286581Y0163119D02*
X0289800Y0159900D01*
X0279721Y0163119D02*
X0286581D01*
X0273044Y0163500D02*
X0279340D01*
X0279721Y0163119D01*
X0293330Y0161830D02*
X0293881Y0161279D01*
X0290584Y0167016D02*
X0291400Y0166200D01*
X0286784Y0167016D02*
X0290584D01*
X0286581Y0167219D02*
X0286784Y0167016D01*
X0296900Y0160700D02*
X0299000D01*
X0292619Y0164307D02*
X0294307Y0162619D01*
X0292619Y0164307D02*
Y0164981D01*
X0291400Y0166200D02*
X0291400D01*
X0286307Y0167219D02*
X0286581D01*
X0291400Y0166200D02*
X0292619Y0164981D01*
X0284226Y0169300D02*
X0286307Y0167219D01*
X0279225Y0169329D02*
X0279254Y0169300D01*
X0284226D01*
X0275899Y0166500D02*
X0278728Y0169329D01*
X0279225D01*
X0278314Y0170329D02*
X0279639D01*
X0279668Y0170300D01*
X0284640D01*
X0286721Y0168219D02*
X0291481D01*
X0293619Y0166081D01*
X0284640Y0170300D02*
X0286721Y0168219D01*
X0293881Y0161119D02*
X0296083Y0158917D01*
X0297217Y0152573D02*
X0297627Y0152983D01*
X0293881Y0161119D02*
Y0161279D01*
X0297217Y0152417D02*
Y0152573D01*
X0295600Y0150800D02*
X0297217Y0152417D01*
X0294721Y0163619D02*
X0295395D01*
X0296514Y0162500D01*
X0293619Y0164721D02*
X0294721Y0163619D01*
X0293619Y0164721D02*
Y0166081D01*
X0293500Y0150228D02*
Y0151500D01*
X0292700Y0152300D02*
X0293500Y0151500D01*
X0271000Y0175000D02*
X0272700D01*
X0246072Y0167942D02*
Y0167947D01*
X0245130Y0167000D02*
X0246072Y0167942D01*
X0245000Y0167000D02*
X0245130D01*
X0218619Y0177983D02*
X0219500Y0177102D01*
X0287717Y0154483D02*
X0289500Y0152700D01*
X0191471Y0175188D02*
X0192320D01*
X0192610Y0175478D01*
Y0176327D01*
X0200487Y0173613D02*
Y0176324D01*
X0200484Y0176327D02*
X0200487Y0176324D01*
X0196838Y0177700D02*
X0197600D01*
X0196547Y0177409D02*
X0196838Y0177700D01*
X0196547Y0176327D02*
Y0177409D01*
X0189500Y0157500D02*
X0192581Y0160581D01*
X0245000Y0165000D02*
Y0167000D01*
X0219500Y0175921D02*
Y0177102D01*
X0263413Y0162087D02*
X0265858D01*
X0263000Y0167125D02*
Y0167500D01*
X0295700Y0176500D02*
X0296200Y0177000D01*
X0221971Y0164016D02*
X0222359D01*
X0223240Y0164898D01*
Y0166079D01*
X0289543Y0173000D02*
X0291199Y0174656D01*
Y0175699D01*
X0288669Y0178228D02*
X0291199Y0175699D01*
X0287842Y0178228D02*
X0288669D01*
X0284000Y0176500D02*
Y0178134D01*
X0283903Y0174446D02*
Y0176403D01*
X0284000Y0176500D01*
X0282457Y0173000D02*
X0283903Y0174446D01*
X0291199Y0175699D02*
X0292000Y0176500D01*
X0295700D01*
X0274000Y0153095D02*
Y0158000D01*
X0289811Y0149228D02*
Y0152389D01*
X0289500Y0152700D02*
X0289811Y0152389D01*
D22*
X0215400Y0160600D02*
D03*
X0220000D02*
D03*
X0272700Y0175000D02*
D03*
X0277300D02*
D03*
X0300800Y0177000D02*
D03*
X0296200D02*
D03*
Y0173500D02*
D03*
X0300800D02*
D03*
X0296200Y0170000D02*
D03*
X0300800D02*
D03*
D27*
X0252157Y0150500D02*
D03*
X0262100D02*
D03*
X0302500Y0150896D02*
D03*
X0310100Y0149200D02*
D03*
X0297500Y0149100D02*
D03*
X0220672Y0178245D02*
D03*
X0274892Y0176922D02*
D03*
X0272100Y0164100D02*
D03*
X0274300Y0168700D02*
D03*
X0269105Y0168061D02*
D03*
X0266015Y0171800D02*
D03*
X0261700Y0157700D02*
D03*
X0309000Y0160900D02*
D03*
X0305358Y0161500D02*
D03*
X0305944Y0165205D02*
D03*
X0303500Y0166600D02*
D03*
X0303298Y0162773D02*
D03*
X0335420Y0157972D02*
D03*
X0200506Y0152266D02*
D03*
X0197800Y0151100D02*
D03*
X0189178Y0159641D02*
D03*
X0307433Y0162326D02*
D03*
X0312698Y0177448D02*
D03*
X0304000Y0174700D02*
D03*
X0303089Y0172549D02*
D03*
X0318469Y0160243D02*
D03*
X0306700Y0178300D02*
D03*
X0314862Y0177448D02*
D03*
X0291800Y0150228D02*
D03*
X0295600Y0150500D02*
D03*
X0279840Y0150300D02*
D03*
X0260630Y0161678D02*
D03*
X0265913Y0162427D02*
D03*
X0265100Y0167800D02*
D03*
X0189706Y0174125D02*
D03*
X0212800Y0166600D02*
D03*
X0211170Y0174870D02*
D03*
X0251667Y0174772D02*
D03*
X0224400Y0178300D02*
D03*
X0237100Y0174100D02*
D03*
X0242233Y0174767D02*
D03*
X0239141Y0169583D02*
D03*
X0236500Y0170400D02*
D03*
X0250500Y0166200D02*
D03*
X0256266Y0169496D02*
D03*
X0235271Y0163889D02*
D03*
X0232237Y0158545D02*
D03*
X0283906Y0178228D02*
D03*
X0346240Y0149316D02*
D03*
X0344076D02*
D03*
X0341912D02*
D03*
X0339748Y0157972D02*
D03*
Y0153644D02*
D03*
Y0149316D02*
D03*
X0337584Y0157972D02*
D03*
X0338666Y0155808D02*
D03*
Y0151480D02*
D03*
X0337584Y0149316D02*
D03*
X0335420Y0175284D02*
D03*
Y0170956D02*
D03*
Y0166628D02*
D03*
Y0162300D02*
D03*
Y0149316D02*
D03*
X0334338Y0177448D02*
D03*
X0333256Y0162300D02*
D03*
X0334338Y0160136D02*
D03*
X0333256Y0149316D02*
D03*
X0332174Y0177448D02*
D03*
Y0160136D02*
D03*
X0331092Y0149316D02*
D03*
X0330010Y0177448D02*
D03*
X0328928Y0149316D02*
D03*
X0327846Y0177448D02*
D03*
X0326764Y0149316D02*
D03*
X0325682Y0177448D02*
D03*
X0324600Y0149316D02*
D03*
X0323518Y0168792D02*
D03*
X0322436Y0149316D02*
D03*
X0321354Y0168792D02*
D03*
X0320272Y0149316D02*
D03*
X0318108D02*
D03*
X0315944D02*
D03*
X0287600Y0149000D02*
D03*
X0283700Y0149100D02*
D03*
X0208239Y0153139D02*
D03*
X0185812Y0160409D02*
D03*
X0210100Y0158400D02*
D03*
X0219200Y0156100D02*
D03*
X0229600Y0176400D02*
D03*
X0209800Y0161400D02*
D03*
X0221900Y0153100D02*
D03*
X0202252Y0157706D02*
D03*
X0188100Y0165700D02*
D03*
X0189500Y0157500D02*
D03*
X0271000Y0175000D02*
D03*
X0281000Y0178228D02*
D03*
X0293600Y0149228D02*
D03*
X0301900Y0154700D02*
D03*
X0179500Y0159132D02*
D03*
X0204300Y0178400D02*
D03*
X0197600Y0177700D02*
D03*
X0250000Y0161500D02*
D03*
X0232500Y0156000D02*
D03*
X0274000Y0172500D02*
D03*
X0287842Y0178228D02*
D03*
X0289811Y0149228D02*
D03*
X0281937Y0150300D02*
D03*
X0263000Y0167500D02*
D03*
X0237500Y0160000D02*
D03*
X0323500Y0159000D02*
D03*
X0270500Y0152000D02*
D03*
D29*
X0183300Y0158100D02*
D03*
Y0162700D02*
D03*
Y0154200D02*
D03*
Y0149600D02*
D03*
X0299000Y0165300D02*
D03*
Y0160700D02*
D03*
X0264025Y0160200D02*
D03*
Y0164800D02*
D03*
X0267800Y0160200D02*
D03*
Y0164800D02*
D03*
X0286000Y0152700D02*
D03*
Y0157300D02*
D03*
X0289500D02*
D03*
Y0152700D02*
D03*
X0302700Y0160473D02*
D03*
Y0165073D02*
D03*
X0299500Y0155800D02*
D03*
Y0151200D02*
D03*
D61*
X0191000Y0152500D02*
X0191900Y0153400D01*
X0190400Y0152500D02*
X0191000D01*
X0187250Y0149350D02*
X0190400Y0152500D01*
X0174800Y0152603D02*
Y0157800D01*
Y0152603D02*
X0178053Y0149350D01*
X0175650Y0158650D02*
Y0159850D01*
X0174800Y0157800D02*
X0175650Y0158650D01*
X0176039Y0160239D02*
Y0164741D01*
X0175650Y0159850D02*
X0176039Y0160239D01*
D62*
X0281836Y0156678D02*
G03*
X0281678Y0156836I-0001336J-0001178D01*
G01*
X0281902Y0166098D02*
G03*
X0280500Y0166781I-0001402J-0001099D01*
G01*
X0281902Y0166098D02*
G03*
X0282190Y0166081I0000288J0002373D01*
G01*
X0238097Y0177497D02*
X0265276D01*
X0265573Y0177200D01*
X0233910Y0173310D02*
X0238097Y0177497D01*
X0217566Y0172959D02*
X0229959D01*
X0274845Y0176970D02*
X0274892Y0176922D01*
X0273315Y0166322D02*
X0275438D01*
X0275616Y0166500D01*
X0275899D01*
X0273646Y0167122D02*
X0275107D01*
X0271505Y0168132D02*
X0273315Y0166322D01*
X0275107Y0167122D02*
X0275866Y0167881D01*
X0270283Y0163686D02*
Y0166463D01*
Y0163686D02*
X0271546Y0162422D01*
X0269483Y0162817D02*
Y0166131D01*
X0273006Y0165500D02*
X0276600D01*
X0272153Y0166353D02*
X0273006Y0165500D01*
X0272722Y0168046D02*
X0273646Y0167122D01*
X0269476Y0167270D02*
X0270283Y0166463D01*
X0268683Y0166483D02*
X0269131D01*
X0269483Y0166131D01*
X0272153Y0166353D02*
Y0166353D01*
X0270705Y0167800D02*
X0272153Y0166353D01*
X0272722Y0168046D02*
Y0170185D01*
X0271505Y0168132D02*
Y0169507D01*
X0271400Y0169612D02*
X0271505Y0169507D01*
X0271400Y0169612D02*
Y0170100D01*
X0269517Y0171983D02*
X0271400Y0170100D01*
X0269105Y0167743D02*
Y0168061D01*
X0267617Y0168805D02*
Y0172429D01*
X0267527Y0168714D02*
X0267617Y0168805D01*
X0267527Y0167273D02*
Y0168714D01*
Y0167273D02*
X0268317Y0166483D01*
X0268683D01*
X0270317Y0172589D02*
X0272722Y0170185D01*
X0269483Y0162817D02*
X0269598Y0162702D01*
X0269105Y0167743D02*
X0269476Y0167372D01*
Y0167270D02*
Y0167372D01*
X0270317Y0172589D02*
Y0173406D01*
X0265573Y0177200D02*
X0266524D01*
X0269517Y0171983D02*
Y0173075D01*
X0265100Y0176400D02*
X0266192D01*
X0254308Y0173194D02*
X0254492Y0173378D01*
X0254745Y0172500D02*
X0265315D01*
X0266015Y0171800D01*
X0266669Y0173378D02*
X0267617Y0172429D01*
X0254492Y0173378D02*
X0266669D01*
X0266192Y0176400D02*
X0269517Y0173075D01*
X0266524Y0177200D02*
X0270317Y0173406D01*
X0272002Y0162422D02*
X0273024Y0161400D01*
X0271546Y0162422D02*
X0272002D01*
X0270705Y0167800D02*
Y0169034D01*
X0270605Y0169134D02*
X0270705Y0169034D01*
X0301658Y0154386D02*
X0301722Y0154322D01*
X0301447Y0154386D02*
X0301658D01*
X0301078Y0154017D02*
X0301447Y0154386D01*
X0295600Y0150500D02*
Y0150800D01*
X0279086Y0148822D02*
X0279186Y0148722D01*
X0282804D02*
X0282995Y0148914D01*
X0262678Y0148822D02*
X0279086D01*
X0279186Y0148722D02*
X0282804D01*
X0215760Y0174740D02*
X0216741Y0173759D01*
X0216766D01*
X0217566Y0172959D01*
X0215760Y0174740D02*
Y0175921D01*
X0254640Y0172394D02*
X0254745Y0172500D01*
X0246000Y0172586D02*
X0250224D01*
X0245500Y0173500D02*
X0250441D01*
X0254971Y0171594D02*
X0254977Y0171600D01*
X0260400D01*
X0249400Y0171446D02*
X0249548Y0171594D01*
X0254971D01*
X0250441Y0173500D02*
X0250747Y0173194D01*
X0254308D01*
X0250416Y0172394D02*
X0254640D01*
X0250224Y0172586D02*
X0250416Y0172394D01*
X0217500Y0171700D02*
X0231050D01*
X0232661Y0173310D01*
X0233910D01*
X0236846Y0161578D02*
X0238330D01*
X0233465Y0158545D02*
X0233728Y0158809D01*
X0232237Y0158545D02*
X0233465D01*
X0234077Y0158809D02*
X0236846Y0161578D01*
X0233728Y0158809D02*
X0234077D01*
X0215760Y0175921D02*
X0216741Y0176902D01*
X0262899Y0162087D02*
X0263413D01*
X0262342Y0161531D02*
X0262899Y0162087D01*
X0262342Y0161251D02*
Y0161531D01*
X0262242Y0161151D02*
X0262342Y0161251D01*
X0273024Y0161400D02*
X0276796D01*
X0221871Y0153071D02*
X0221900Y0153100D01*
X0220800Y0153071D02*
X0221871D01*
X0218669Y0150939D02*
Y0151264D01*
X0219413Y0152009D01*
X0219738D01*
X0220800Y0153071D01*
Y0160100D01*
X0282604Y0155910D02*
X0282721Y0155793D01*
X0279795Y0158719D02*
X0281669Y0156845D01*
X0282721Y0155793D02*
X0284473D01*
X0281845Y0156669D02*
X0282604Y0155910D01*
X0281669Y0156845D02*
X0281678Y0156836D01*
X0281836Y0156678D02*
X0281845Y0156669D01*
X0284473Y0155793D02*
X0284483Y0155783D01*
Y0155617D02*
Y0155783D01*
Y0155617D02*
X0289597D01*
X0279762Y0158719D02*
X0279795D01*
X0279134Y0159000D02*
X0279481D01*
X0279762Y0158719D01*
X0278900Y0159234D02*
X0279134Y0159000D01*
X0289597Y0155617D02*
X0291183Y0154031D01*
Y0153817D02*
X0292700Y0152300D01*
X0291183Y0153817D02*
Y0154031D01*
X0276796Y0161400D02*
X0278900Y0159296D01*
Y0159234D02*
Y0159296D01*
X0264025Y0158675D02*
Y0160200D01*
Y0158675D02*
X0264100Y0158600D01*
Y0155979D02*
X0265079Y0155000D01*
X0264100Y0155979D02*
Y0158600D01*
X0289800Y0159900D02*
X0290717Y0158983D01*
X0290831D01*
X0294219Y0155595D01*
Y0154762D02*
Y0155595D01*
X0290381Y0164779D02*
Y0165038D01*
Y0164779D02*
X0293330Y0161830D01*
X0289338Y0166081D02*
X0290381Y0165038D01*
X0282194Y0166081D02*
X0289338D01*
X0282190Y0166081D02*
X0282194Y0166081D01*
X0276600Y0165500D02*
X0277881Y0166781D01*
X0280500D01*
X0294219Y0154762D02*
X0295262Y0153719D01*
X0296738D01*
X0297036Y0154017D01*
X0301078D01*
X0196547Y0154673D02*
X0196700Y0154826D01*
X0239882Y0163130D02*
Y0165000D01*
X0238330Y0161578D02*
X0239882Y0163130D01*
X0264725Y0160200D02*
X0265025Y0160500D01*
X0265079Y0155579D02*
X0266500Y0157000D01*
X0265079Y0155000D02*
Y0155579D01*
D63*
X0252157Y0150500D02*
X0252229Y0150572D01*
X0250134Y0151500D02*
X0252700D01*
X0252229Y0150572D02*
Y0151029D01*
X0252700Y0151500D01*
X0183300Y0149350D02*
X0187250D01*
X0178053D02*
X0183300D01*
X0237135Y0163116D02*
X0237323Y0163304D01*
X0235616Y0163116D02*
X0237135D01*
X0251366Y0169529D02*
X0251464Y0169626D01*
X0247956Y0167058D02*
X0250781Y0169883D01*
X0247746Y0167058D02*
X0247956D01*
X0247559Y0166870D02*
X0247746Y0167058D01*
X0247559Y0165000D02*
Y0166870D01*
X0251013Y0169883D02*
X0251366Y0169529D01*
X0250781Y0169883D02*
X0251013D01*
X0230658Y0163889D02*
X0235271D01*
X0230039Y0164508D02*
X0230658Y0163889D01*
X0247165Y0154469D02*
X0250134Y0151500D01*
X0252700D02*
X0255246D01*
X0237323Y0163304D02*
Y0165000D01*
X0191700Y0172500D02*
X0191814D01*
X0192015Y0172700D01*
X0192315Y0172400D01*
X0192896Y0172981D01*
X0193081D01*
X0193261Y0173161D01*
X0193615D01*
X0194579Y0174125D01*
Y0176327D01*
X0226693Y0154469D02*
X0228224Y0156000D01*
X0250458Y0161958D02*
X0252293D01*
X0228224Y0156000D02*
X0232500D01*
X0250000Y0161500D02*
X0250458Y0161958D01*
X0252293D02*
X0254842Y0164508D01*
X0232500Y0156000D02*
X0234500D01*
X0234879Y0155621D01*
X0236564D01*
X0255246Y0151500D02*
X0258189Y0154443D01*
X0236564Y0155621D02*
X0237717Y0154469D01*
X0258189Y0154443D02*
Y0154469D01*
X0286000Y0157300D02*
Y0160500D01*
Y0157300D02*
X0289500D01*
X0296000Y0155500D02*
X0296150Y0155650D01*
X0298850D01*
X0299000Y0155800D01*
X0327406Y0155484D02*
Y0157453D01*
D70*
X0183466Y0175600D02*
D03*
X0175466D02*
D03*
X0179466Y0155600D02*
D03*
D71*
X0344000Y0154000D02*
D03*
D72*
X0334000D02*
D03*
D73*
X0287500Y0170100D02*
D03*
X0251464Y0169626D02*
D03*
X0204201Y0167151D02*
D03*
X0187935Y0169848D02*
D03*
X0204900Y0158300D02*
D03*
X0288600Y0164300D02*
D03*
X0191700Y0172500D02*
D03*
X0196700Y0158700D02*
D03*
X0295500Y0165500D02*
D03*
X0292000Y0160500D02*
D03*
X0280500Y0165000D02*
D03*
Y0160500D02*
D03*
X0298000Y0172000D02*
D03*
X0286000Y0160500D02*
D03*
X0296000Y0155500D02*
D03*
X0280500D02*
D03*
Y0172500D02*
D03*
D74*
X0179360Y0173944D02*
D03*
X0186077Y0156477D02*
D03*
D77*
X0180369Y0168200D02*
D03*
D78*
X0184700Y0165641D02*
D03*
Y0168200D02*
D03*
Y0170759D02*
D03*
X0176039D02*
D03*
Y0168200D02*
D03*
Y0165641D02*
D03*
D79*
X0192610Y0176327D02*
D03*
Y0154673D02*
D03*
X0194579Y0176327D02*
D03*
Y0154673D02*
D03*
X0196547Y0176327D02*
D03*
Y0154673D02*
D03*
X0198516Y0176327D02*
D03*
Y0154673D02*
D03*
X0200484Y0176327D02*
D03*
Y0154673D02*
D03*
X0202453Y0176327D02*
D03*
Y0154673D02*
D03*
X0204421Y0176327D02*
D03*
Y0154673D02*
D03*
X0206390Y0176327D02*
D03*
Y0154673D02*
D03*
D80*
X0218669Y0150939D02*
D03*
X0214732D02*
D03*
X0216700Y0156861D02*
D03*
D81*
X0310800Y0152647D02*
D03*
Y0158553D02*
D03*
D82*
X0327406Y0157453D02*
D03*
Y0155484D02*
D03*
Y0153516D02*
D03*
Y0151547D02*
D03*
X0315595D02*
D03*
Y0153516D02*
D03*
Y0155484D02*
D03*
Y0157453D02*
D03*
D83*
X0321500Y0154500D02*
D03*
D84*
X0315669Y0164242D02*
D03*
Y0169557D02*
D03*
X0311732D02*
D03*
Y0164242D02*
D03*
D85*
X0215760Y0166079D02*
D03*
X0219500D02*
D03*
X0223240D02*
D03*
Y0175921D02*
D03*
X0219500D02*
D03*
X0215760D02*
D03*
D86*
X0284457Y0174500D02*
D03*
X0291543D02*
D03*
D87*
X0306300Y0156750D02*
D03*
Y0150450D02*
D03*
D88*
X0247559Y0165000D02*
D03*
X0245000D02*
D03*
X0242441D02*
D03*
X0239882D02*
D03*
X0237323D02*
D03*
D89*
X0254842Y0164508D02*
D03*
X0230039D02*
D03*
D90*
X0258189Y0154469D02*
D03*
X0226693D02*
D03*
D91*
X0247165D02*
D03*
X0237717D02*
D03*
D92*
X0265079Y0155000D02*
D03*
X0274921D02*
D03*
M02*
