G04*
G04 #@! TF.GenerationSoftware,Altium Limited,Altium Designer,19.1.5 (86)*
G04*
G04 Layer_Color=8388736*
%FSAX24Y24*%
%MOIN*%
G70*
G01*
G75*
%ADD29O,0.0200X0.0400*%
%ADD49R,0.0257X0.0661*%
%ADD50R,0.0356X0.0375*%
%ADD51R,0.0297X0.0297*%
%ADD52R,0.0533X0.0651*%
%ADD53R,0.0297X0.0297*%
G04:AMPARAMS|DCode=54|XSize=118.2mil|YSize=39.5mil|CornerRadius=0mil|HoleSize=0mil|Usage=FLASHONLY|Rotation=278.000|XOffset=0mil|YOffset=0mil|HoleType=Round|Shape=Rectangle|*
%AMROTATEDRECTD54*
4,1,4,-0.0278,0.0558,0.0113,0.0613,0.0278,-0.0558,-0.0113,-0.0613,-0.0278,0.0558,0.0*
%
%ADD54ROTATEDRECTD54*%

G04:AMPARAMS|DCode=55|XSize=47.4mil|YSize=86.7mil|CornerRadius=0mil|HoleSize=0mil|Usage=FLASHONLY|Rotation=278.000|XOffset=0mil|YOffset=0mil|HoleType=Round|Shape=Rectangle|*
%AMROTATEDRECTD55*
4,1,4,-0.0462,0.0174,0.0397,0.0295,0.0462,-0.0174,-0.0397,-0.0295,-0.0462,0.0174,0.0*
%
%ADD55ROTATEDRECTD55*%

%ADD56R,0.0493X0.0316*%
%ADD57R,0.0375X0.0316*%
%ADD58R,0.0324X0.0316*%
%ADD59R,0.0237X0.0316*%
%ADD60R,0.0316X0.0237*%
%ADD61R,0.0434X0.0474*%
%ADD62R,0.0789X0.0474*%
%ADD63R,0.0198X0.0415*%
%ADD64R,0.0415X0.0198*%
%ADD65R,0.2324X0.2324*%
%ADD66R,0.0356X0.0434*%
%ADD67R,0.0434X0.0395*%
%ADD68R,0.0178X0.0267*%
%ADD69R,0.0267X0.0178*%
%ADD70R,0.0316X0.0552*%
G04:AMPARAMS|DCode=71|XSize=47.4mil|YSize=23.7mil|CornerRadius=0mil|HoleSize=0mil|Usage=FLASHONLY|Rotation=86.250|XOffset=0mil|YOffset=0mil|HoleType=Round|Shape=Rectangle|*
%AMROTATEDRECTD71*
4,1,4,0.0103,-0.0244,-0.0134,-0.0229,-0.0103,0.0244,0.0134,0.0229,0.0103,-0.0244,0.0*
%
%ADD71ROTATEDRECTD71*%

G04:AMPARAMS|DCode=72|XSize=78.9mil|YSize=71mil|CornerRadius=0mil|HoleSize=0mil|Usage=FLASHONLY|Rotation=86.250|XOffset=0mil|YOffset=0mil|HoleType=Round|Shape=Rectangle|*
%AMROTATEDRECTD72*
4,1,4,0.0328,-0.0417,-0.0380,-0.0370,-0.0328,0.0417,0.0380,0.0370,0.0328,-0.0417,0.0*
%
%ADD72ROTATEDRECTD72*%

%ADD73C,0.1104*%
%ADD74R,0.0316X0.0533*%
%ADD75R,0.0336X0.0680*%
G04:AMPARAMS|DCode=76|XSize=41.5mil|YSize=23.7mil|CornerRadius=0mil|HoleSize=0mil|Usage=FLASHONLY|Rotation=7.550|XOffset=0mil|YOffset=0mil|HoleType=Round|Shape=Rectangle|*
%AMROTATEDRECTD76*
4,1,4,-0.0190,-0.0145,-0.0221,0.0090,0.0190,0.0145,0.0221,-0.0090,-0.0190,-0.0145,0.0*
%
%ADD76ROTATEDRECTD76*%

G04:AMPARAMS|DCode=77|XSize=39.5mil|YSize=18.2mil|CornerRadius=0mil|HoleSize=0mil|Usage=FLASHONLY|Rotation=7.550|XOffset=0mil|YOffset=0mil|HoleType=Round|Shape=Rectangle|*
%AMROTATEDRECTD77*
4,1,4,-0.0184,-0.0116,-0.0208,0.0064,0.0184,0.0116,0.0208,-0.0064,-0.0184,-0.0116,0.0*
%
%ADD77ROTATEDRECTD77*%

G04:AMPARAMS|DCode=78|XSize=33.6mil|YSize=18.2mil|CornerRadius=0mil|HoleSize=0mil|Usage=FLASHONLY|Rotation=7.550|XOffset=0mil|YOffset=0mil|HoleType=Round|Shape=Rectangle|*
%AMROTATEDRECTD78*
4,1,4,-0.0155,-0.0112,-0.0178,0.0068,0.0155,0.0112,0.0178,-0.0068,-0.0155,-0.0112,0.0*
%
%ADD78ROTATEDRECTD78*%

%ADD79C,0.0390*%
%ADD80C,0.0730*%
%ADD81C,0.0552*%
%ADD82C,0.0700*%
%ADD83R,0.0700X0.0700*%
%ADD84C,0.0275*%
G36*
X042905Y007040D02*
X042910Y007039D01*
X042915Y007037D01*
X042920Y007035D01*
X042924Y007032D01*
X042928Y007028D01*
X042932Y007024D01*
X042935Y007020D01*
X042937Y007015D01*
X042939Y007010D01*
X042940Y007005D01*
X042940Y007000D01*
Y006400D01*
X042940Y006395D01*
X042939Y006390D01*
X042937Y006385D01*
X042935Y006380D01*
X042932Y006376D01*
X042928Y006372D01*
X042924Y006368D01*
X042920Y006365D01*
X042915Y006363D01*
X042910Y006361D01*
X042905Y006360D01*
X042900Y006360D01*
X042650D01*
X042645Y006360D01*
X042640Y006361D01*
X042635Y006363D01*
X042630Y006365D01*
X042626Y006368D01*
X042622Y006372D01*
X042590Y006403D01*
X042590Y006400D01*
X042590Y006395D01*
X042589Y006390D01*
X042587Y006385D01*
X042585Y006380D01*
X042582Y006376D01*
X042578Y006372D01*
X042574Y006368D01*
X042570Y006365D01*
X042565Y006363D01*
X042560Y006361D01*
X042555Y006360D01*
X042550Y006360D01*
X042000D01*
X041995Y006360D01*
X041990Y006361D01*
X041985Y006363D01*
X041980Y006365D01*
X041976Y006368D01*
X041972Y006372D01*
X041968Y006376D01*
X041965Y006380D01*
X041963Y006385D01*
X041961Y006390D01*
X041960Y006395D01*
X041960Y006400D01*
Y007000D01*
X041960Y007005D01*
X041961Y007010D01*
X041963Y007015D01*
X041965Y007020D01*
X041968Y007024D01*
X041972Y007028D01*
X041976Y007032D01*
X041980Y007035D01*
X041985Y007037D01*
X041990Y007039D01*
X041995Y007040D01*
X042000Y007040D01*
X042550D01*
X042555Y007040D01*
X042560Y007039D01*
X042565Y007037D01*
X042570Y007035D01*
X042574Y007032D01*
X042578Y007028D01*
X042582Y007024D01*
X042585Y007020D01*
X042587Y007015D01*
X042589Y007010D01*
X042590Y007005D01*
X042590Y007000D01*
X042590Y006997D01*
X042622Y007028D01*
X042626Y007032D01*
X042630Y007035D01*
X042635Y007037D01*
X042640Y007039D01*
X042645Y007040D01*
X042650Y007040D01*
X042900D01*
X042905Y007040D01*
D02*
G37*
G36*
Y007790D02*
X042910Y007789D01*
X042915Y007787D01*
X042920Y007785D01*
X042924Y007782D01*
X042928Y007778D01*
X042932Y007774D01*
X042935Y007770D01*
X042937Y007765D01*
X042939Y007760D01*
X042940Y007755D01*
X042940Y007750D01*
Y007150D01*
X042940Y007145D01*
X042939Y007140D01*
X042937Y007135D01*
X042935Y007130D01*
X042932Y007126D01*
X042928Y007122D01*
X042924Y007118D01*
X042920Y007115D01*
X042915Y007113D01*
X042910Y007111D01*
X042905Y007110D01*
X042900Y007110D01*
X042650D01*
X042645Y007110D01*
X042640Y007111D01*
X042635Y007113D01*
X042630Y007115D01*
X042626Y007118D01*
X042622Y007122D01*
X042590Y007153D01*
X042590Y007150D01*
X042590Y007145D01*
X042589Y007140D01*
X042587Y007135D01*
X042585Y007130D01*
X042582Y007126D01*
X042578Y007122D01*
X042574Y007118D01*
X042570Y007115D01*
X042565Y007113D01*
X042560Y007111D01*
X042555Y007110D01*
X042550Y007110D01*
X042000D01*
X041995Y007110D01*
X041990Y007111D01*
X041985Y007113D01*
X041980Y007115D01*
X041976Y007118D01*
X041972Y007122D01*
X041968Y007126D01*
X041965Y007130D01*
X041963Y007135D01*
X041961Y007140D01*
X041960Y007145D01*
X041960Y007150D01*
Y007750D01*
X041960Y007755D01*
X041961Y007760D01*
X041963Y007765D01*
X041965Y007770D01*
X041968Y007774D01*
X041972Y007778D01*
X041976Y007782D01*
X041980Y007785D01*
X041985Y007787D01*
X041990Y007789D01*
X041995Y007790D01*
X042000Y007790D01*
X042550D01*
X042555Y007790D01*
X042560Y007789D01*
X042565Y007787D01*
X042570Y007785D01*
X042574Y007782D01*
X042578Y007778D01*
X042582Y007774D01*
X042585Y007770D01*
X042587Y007765D01*
X042589Y007760D01*
X042590Y007755D01*
X042590Y007750D01*
X042590Y007747D01*
X042622Y007778D01*
X042626Y007782D01*
X042630Y007785D01*
X042635Y007787D01*
X042640Y007789D01*
X042645Y007790D01*
X042650Y007790D01*
X042900D01*
X042905Y007790D01*
D02*
G37*
G36*
Y008640D02*
X042910Y008639D01*
X042915Y008637D01*
X042920Y008635D01*
X042924Y008632D01*
X042928Y008628D01*
X042932Y008624D01*
X042935Y008620D01*
X042937Y008615D01*
X042939Y008610D01*
X042940Y008605D01*
X042940Y008600D01*
Y008000D01*
X042940Y007995D01*
X042939Y007990D01*
X042937Y007985D01*
X042935Y007980D01*
X042932Y007976D01*
X042928Y007972D01*
X042924Y007968D01*
X042920Y007965D01*
X042915Y007963D01*
X042910Y007961D01*
X042905Y007960D01*
X042900Y007960D01*
X042650D01*
X042645Y007960D01*
X042640Y007961D01*
X042635Y007963D01*
X042630Y007965D01*
X042626Y007968D01*
X042622Y007972D01*
X042590Y008003D01*
X042590Y008000D01*
X042590Y007995D01*
X042589Y007990D01*
X042587Y007985D01*
X042585Y007980D01*
X042582Y007976D01*
X042578Y007972D01*
X042574Y007968D01*
X042570Y007965D01*
X042565Y007963D01*
X042560Y007961D01*
X042555Y007960D01*
X042550Y007960D01*
X042000D01*
X041995Y007960D01*
X041990Y007961D01*
X041985Y007963D01*
X041980Y007965D01*
X041976Y007968D01*
X041972Y007972D01*
X041968Y007976D01*
X041965Y007980D01*
X041963Y007985D01*
X041961Y007990D01*
X041960Y007995D01*
X041960Y008000D01*
Y008600D01*
X041960Y008605D01*
X041961Y008610D01*
X041963Y008615D01*
X041965Y008620D01*
X041968Y008624D01*
X041972Y008628D01*
X041976Y008632D01*
X041980Y008635D01*
X041985Y008637D01*
X041990Y008639D01*
X041995Y008640D01*
X042000Y008640D01*
X042550D01*
X042555Y008640D01*
X042560Y008639D01*
X042565Y008637D01*
X042570Y008635D01*
X042574Y008632D01*
X042578Y008628D01*
X042582Y008624D01*
X042585Y008620D01*
X042587Y008615D01*
X042589Y008610D01*
X042590Y008605D01*
X042590Y008600D01*
X042590Y008597D01*
X042622Y008628D01*
X042626Y008632D01*
X042630Y008635D01*
X042635Y008637D01*
X042640Y008639D01*
X042645Y008640D01*
X042650Y008640D01*
X042900D01*
X042905Y008640D01*
D02*
G37*
G36*
X042205Y011890D02*
X042210Y011889D01*
X042215Y011887D01*
X042220Y011885D01*
X042224Y011882D01*
X042228Y011878D01*
X042232Y011874D01*
X042235Y011870D01*
X042237Y011865D01*
X042239Y011860D01*
X042240Y011855D01*
X042240Y011850D01*
Y011250D01*
X042240Y011245D01*
X042239Y011240D01*
X042237Y011235D01*
X042235Y011230D01*
X042232Y011226D01*
X042228Y011222D01*
X042224Y011218D01*
X042220Y011215D01*
X042215Y011213D01*
X042210Y011211D01*
X042205Y011210D01*
X042200Y011210D01*
X041950D01*
X041945Y011210D01*
X041940Y011211D01*
X041935Y011213D01*
X041930Y011215D01*
X041926Y011218D01*
X041922Y011222D01*
X041890Y011253D01*
X041890Y011250D01*
X041890Y011245D01*
X041889Y011240D01*
X041887Y011235D01*
X041885Y011230D01*
X041882Y011226D01*
X041878Y011222D01*
X041874Y011218D01*
X041870Y011215D01*
X041865Y011213D01*
X041860Y011211D01*
X041855Y011210D01*
X041850Y011210D01*
X041300D01*
X041295Y011210D01*
X041290Y011211D01*
X041285Y011213D01*
X041280Y011215D01*
X041276Y011218D01*
X041272Y011222D01*
X041268Y011226D01*
X041265Y011230D01*
X041263Y011235D01*
X041261Y011240D01*
X041260Y011245D01*
X041260Y011250D01*
Y011850D01*
X041260Y011855D01*
X041261Y011860D01*
X041263Y011865D01*
X041265Y011870D01*
X041268Y011874D01*
X041272Y011878D01*
X041276Y011882D01*
X041280Y011885D01*
X041285Y011887D01*
X041290Y011889D01*
X041295Y011890D01*
X041300Y011890D01*
X041850D01*
X041855Y011890D01*
X041860Y011889D01*
X041865Y011887D01*
X041870Y011885D01*
X041874Y011882D01*
X041878Y011878D01*
X041882Y011874D01*
X041885Y011870D01*
X041887Y011865D01*
X041889Y011860D01*
X041890Y011855D01*
X041890Y011850D01*
X041890Y011847D01*
X041922Y011878D01*
X041926Y011882D01*
X041930Y011885D01*
X041935Y011887D01*
X041940Y011889D01*
X041945Y011890D01*
X041950Y011890D01*
X042200D01*
X042205Y011890D01*
D02*
G37*
G36*
X044155Y007790D02*
X044160Y007789D01*
X044165Y007787D01*
X044170Y007785D01*
X044174Y007782D01*
X044178Y007778D01*
X044182Y007774D01*
X044185Y007770D01*
X044187Y007765D01*
X044189Y007760D01*
X044190Y007755D01*
X044190Y007750D01*
Y007150D01*
X044190Y007145D01*
X044189Y007140D01*
X044187Y007135D01*
X044185Y007130D01*
X044182Y007126D01*
X044178Y007122D01*
X044174Y007118D01*
X044170Y007115D01*
X044165Y007113D01*
X044160Y007111D01*
X044155Y007110D01*
X044150Y007110D01*
X043900D01*
X043895Y007110D01*
X043890Y007111D01*
X043885Y007113D01*
X043880Y007115D01*
X043876Y007118D01*
X043872Y007122D01*
X043840Y007153D01*
X043840Y007150D01*
X043840Y007145D01*
X043839Y007140D01*
X043837Y007135D01*
X043835Y007130D01*
X043832Y007126D01*
X043828Y007122D01*
X043824Y007118D01*
X043820Y007115D01*
X043815Y007113D01*
X043810Y007111D01*
X043805Y007110D01*
X043800Y007110D01*
X043250D01*
X043245Y007110D01*
X043240Y007111D01*
X043235Y007113D01*
X043230Y007115D01*
X043226Y007118D01*
X043222Y007122D01*
X043218Y007126D01*
X043215Y007130D01*
X043213Y007135D01*
X043211Y007140D01*
X043210Y007145D01*
X043210Y007150D01*
Y007750D01*
X043210Y007755D01*
X043211Y007760D01*
X043213Y007765D01*
X043215Y007770D01*
X043218Y007774D01*
X043222Y007778D01*
X043226Y007782D01*
X043230Y007785D01*
X043235Y007787D01*
X043240Y007789D01*
X043245Y007790D01*
X043250Y007790D01*
X043800D01*
X043805Y007790D01*
X043810Y007789D01*
X043815Y007787D01*
X043820Y007785D01*
X043824Y007782D01*
X043828Y007778D01*
X043832Y007774D01*
X043835Y007770D01*
X043837Y007765D01*
X043839Y007760D01*
X043840Y007755D01*
X043840Y007750D01*
X043840Y007747D01*
X043872Y007778D01*
X043876Y007782D01*
X043880Y007785D01*
X043885Y007787D01*
X043890Y007789D01*
X043895Y007790D01*
X043900Y007790D01*
X044150D01*
X044155Y007790D01*
D02*
G37*
G36*
X049105Y006740D02*
X049110Y006739D01*
X049115Y006737D01*
X049120Y006735D01*
X049124Y006732D01*
X049128Y006728D01*
X049132Y006724D01*
X049135Y006720D01*
X049137Y006715D01*
X049139Y006710D01*
X049140Y006705D01*
X049140Y006700D01*
Y006100D01*
X049140Y006095D01*
X049139Y006090D01*
X049137Y006085D01*
X049135Y006080D01*
X049132Y006076D01*
X049128Y006072D01*
X049124Y006068D01*
X049120Y006065D01*
X049115Y006063D01*
X049110Y006061D01*
X049105Y006060D01*
X049100Y006060D01*
X048550D01*
X048545Y006060D01*
X048540Y006061D01*
X048535Y006063D01*
X048530Y006065D01*
X048526Y006068D01*
X048522Y006072D01*
X048518Y006076D01*
X048515Y006080D01*
X048513Y006085D01*
X048511Y006090D01*
X048510Y006095D01*
X048510Y006100D01*
X048510Y006103D01*
X048478Y006072D01*
X048474Y006068D01*
X048470Y006065D01*
X048465Y006063D01*
X048460Y006061D01*
X048455Y006060D01*
X048450Y006060D01*
X048200D01*
X048195Y006060D01*
X048190Y006061D01*
X048185Y006063D01*
X048180Y006065D01*
X048176Y006068D01*
X048172Y006072D01*
X048168Y006076D01*
X048165Y006080D01*
X048163Y006085D01*
X048161Y006090D01*
X048160Y006095D01*
X048160Y006100D01*
Y006700D01*
X048160Y006705D01*
X048161Y006710D01*
X048163Y006715D01*
X048165Y006720D01*
X048168Y006724D01*
X048172Y006728D01*
X048176Y006732D01*
X048180Y006735D01*
X048185Y006737D01*
X048190Y006739D01*
X048195Y006740D01*
X048200Y006740D01*
X048450D01*
X048455Y006740D01*
X048460Y006739D01*
X048465Y006737D01*
X048470Y006735D01*
X048474Y006732D01*
X048478Y006728D01*
X048510Y006697D01*
X048510Y006700D01*
X048510Y006705D01*
X048511Y006710D01*
X048513Y006715D01*
X048515Y006720D01*
X048518Y006724D01*
X048522Y006728D01*
X048526Y006732D01*
X048530Y006735D01*
X048535Y006737D01*
X048540Y006739D01*
X048545Y006740D01*
X048550Y006740D01*
X049100D01*
X049105Y006740D01*
D02*
G37*
G36*
X044155Y008640D02*
X044160Y008639D01*
X044165Y008637D01*
X044170Y008635D01*
X044174Y008632D01*
X044178Y008628D01*
X044182Y008624D01*
X044185Y008620D01*
X044187Y008615D01*
X044189Y008610D01*
X044190Y008605D01*
X044190Y008600D01*
Y008000D01*
X044190Y007995D01*
X044189Y007990D01*
X044187Y007985D01*
X044185Y007980D01*
X044182Y007976D01*
X044178Y007972D01*
X044174Y007968D01*
X044170Y007965D01*
X044165Y007963D01*
X044160Y007961D01*
X044155Y007960D01*
X044150Y007960D01*
X043900D01*
X043895Y007960D01*
X043890Y007961D01*
X043885Y007963D01*
X043880Y007965D01*
X043876Y007968D01*
X043872Y007972D01*
X043840Y008003D01*
X043840Y008000D01*
X043840Y007995D01*
X043839Y007990D01*
X043837Y007985D01*
X043835Y007980D01*
X043832Y007976D01*
X043828Y007972D01*
X043824Y007968D01*
X043820Y007965D01*
X043815Y007963D01*
X043810Y007961D01*
X043805Y007960D01*
X043800Y007960D01*
X043250D01*
X043245Y007960D01*
X043240Y007961D01*
X043235Y007963D01*
X043230Y007965D01*
X043226Y007968D01*
X043222Y007972D01*
X043218Y007976D01*
X043215Y007980D01*
X043213Y007985D01*
X043211Y007990D01*
X043210Y007995D01*
X043210Y008000D01*
Y008600D01*
X043210Y008605D01*
X043211Y008610D01*
X043213Y008615D01*
X043215Y008620D01*
X043218Y008624D01*
X043222Y008628D01*
X043226Y008632D01*
X043230Y008635D01*
X043235Y008637D01*
X043240Y008639D01*
X043245Y008640D01*
X043250Y008640D01*
X043800D01*
X043805Y008640D01*
X043810Y008639D01*
X043815Y008637D01*
X043820Y008635D01*
X043824Y008632D01*
X043828Y008628D01*
X043832Y008624D01*
X043835Y008620D01*
X043837Y008615D01*
X043839Y008610D01*
X043840Y008605D01*
X043840Y008600D01*
X043840Y008597D01*
X043872Y008628D01*
X043876Y008632D01*
X043880Y008635D01*
X043885Y008637D01*
X043890Y008639D01*
X043895Y008640D01*
X043900Y008640D01*
X044150D01*
X044155Y008640D01*
D02*
G37*
G36*
X048255Y012890D02*
X048260Y012889D01*
X048265Y012887D01*
X048270Y012885D01*
X048274Y012882D01*
X048278Y012878D01*
X048282Y012874D01*
X048285Y012870D01*
X048287Y012865D01*
X048289Y012860D01*
X048290Y012855D01*
X048290Y012850D01*
Y012250D01*
X048290Y012245D01*
X048289Y012240D01*
X048287Y012235D01*
X048285Y012230D01*
X048282Y012226D01*
X048278Y012222D01*
X048274Y012218D01*
X048270Y012215D01*
X048265Y012213D01*
X048260Y012211D01*
X048255Y012210D01*
X048250Y012210D01*
X048000D01*
X047995Y012210D01*
X047990Y012211D01*
X047985Y012213D01*
X047980Y012215D01*
X047976Y012218D01*
X047972Y012222D01*
X047940Y012253D01*
X047940Y012250D01*
X047940Y012245D01*
X047939Y012240D01*
X047937Y012235D01*
X047935Y012230D01*
X047932Y012226D01*
X047928Y012222D01*
X047924Y012218D01*
X047920Y012215D01*
X047915Y012213D01*
X047910Y012211D01*
X047905Y012210D01*
X047900Y012210D01*
X047350D01*
X047345Y012210D01*
X047340Y012211D01*
X047335Y012213D01*
X047330Y012215D01*
X047326Y012218D01*
X047322Y012222D01*
X047318Y012226D01*
X047315Y012230D01*
X047313Y012235D01*
X047311Y012240D01*
X047310Y012245D01*
X047310Y012250D01*
Y012850D01*
X047310Y012855D01*
X047311Y012860D01*
X047313Y012865D01*
X047315Y012870D01*
X047318Y012874D01*
X047322Y012878D01*
X047326Y012882D01*
X047330Y012885D01*
X047335Y012887D01*
X047340Y012889D01*
X047345Y012890D01*
X047350Y012890D01*
X047900D01*
X047905Y012890D01*
X047910Y012889D01*
X047915Y012887D01*
X047920Y012885D01*
X047924Y012882D01*
X047928Y012878D01*
X047932Y012874D01*
X047935Y012870D01*
X047937Y012865D01*
X047939Y012860D01*
X047940Y012855D01*
X047940Y012850D01*
X047940Y012847D01*
X047972Y012878D01*
X047976Y012882D01*
X047980Y012885D01*
X047985Y012887D01*
X047990Y012889D01*
X047995Y012890D01*
X048000Y012890D01*
X048250D01*
X048255Y012890D01*
D02*
G37*
%LPC*%
G36*
X042310Y006703D02*
X042307Y006700D01*
X042310Y006697D01*
X042310Y006700D01*
X042310Y006703D01*
D02*
G37*
G36*
Y007453D02*
X042307Y007450D01*
X042310Y007447D01*
X042310Y007450D01*
X042310Y007453D01*
D02*
G37*
G36*
Y008303D02*
X042307Y008300D01*
X042310Y008297D01*
X042310Y008300D01*
X042310Y008303D01*
D02*
G37*
G36*
X041610Y011553D02*
X041607Y011550D01*
X041610Y011547D01*
X041610Y011550D01*
X041610Y011553D01*
D02*
G37*
G36*
X043560Y007453D02*
X043557Y007450D01*
X043560Y007447D01*
X043560Y007450D01*
X043560Y007453D01*
D02*
G37*
G36*
X048790Y006403D02*
X048790Y006400D01*
X048790Y006397D01*
X048793Y006400D01*
X048790Y006403D01*
D02*
G37*
G36*
X043560Y008303D02*
X043557Y008300D01*
X043560Y008297D01*
X043560Y008300D01*
X043560Y008303D01*
D02*
G37*
G36*
X047660Y012553D02*
X047657Y012550D01*
X047660Y012547D01*
X047660Y012550D01*
X047660Y012553D01*
D02*
G37*
%LPD*%
D29*
X048325Y006400D02*
D03*
X048975D02*
D03*
X048125Y012550D02*
D03*
X047475D02*
D03*
X044025Y008300D02*
D03*
X043375D02*
D03*
X044025Y007450D02*
D03*
X043375D02*
D03*
X042775Y008300D02*
D03*
X042125D02*
D03*
X042775Y007450D02*
D03*
X042125D02*
D03*
X042775Y006700D02*
D03*
X042125D02*
D03*
X042075Y011550D02*
D03*
X041425D02*
D03*
D49*
X037768Y008693D02*
D03*
X037512D02*
D03*
X037256D02*
D03*
X037000D02*
D03*
X036744D02*
D03*
X036488D02*
D03*
X036232D02*
D03*
Y011007D02*
D03*
X036488D02*
D03*
X036744D02*
D03*
X037000D02*
D03*
X037256D02*
D03*
X037512D02*
D03*
X037768D02*
D03*
D50*
X049503Y011334D02*
D03*
Y011866D02*
D03*
X049897D02*
D03*
Y011334D02*
D03*
D51*
X046300Y011780D02*
D03*
Y011320D02*
D03*
X052000Y013030D02*
D03*
Y012570D02*
D03*
X050150Y010780D02*
D03*
Y010320D02*
D03*
X050600Y010780D02*
D03*
Y010320D02*
D03*
X050450Y008680D02*
D03*
Y008220D02*
D03*
X049700Y006770D02*
D03*
Y007230D02*
D03*
X047950Y007180D02*
D03*
Y006720D02*
D03*
X047450D02*
D03*
Y007180D02*
D03*
X044900Y006570D02*
D03*
Y007030D02*
D03*
Y007830D02*
D03*
Y007370D02*
D03*
X046850Y011320D02*
D03*
Y011780D02*
D03*
X046800Y012570D02*
D03*
Y013030D02*
D03*
X046300Y012570D02*
D03*
Y013030D02*
D03*
X044150Y011480D02*
D03*
Y011020D02*
D03*
X043700Y011480D02*
D03*
Y011020D02*
D03*
X043150Y011480D02*
D03*
Y011020D02*
D03*
X042750Y011480D02*
D03*
Y011020D02*
D03*
X035550Y009380D02*
D03*
Y008920D02*
D03*
Y010280D02*
D03*
Y009820D02*
D03*
X035200Y010670D02*
D03*
Y011130D02*
D03*
X034750Y011156D02*
D03*
Y010696D02*
D03*
X034300Y011156D02*
D03*
Y010696D02*
D03*
X033850Y011130D02*
D03*
Y010670D02*
D03*
X033300Y010720D02*
D03*
Y011180D02*
D03*
X030250Y012730D02*
D03*
Y012270D02*
D03*
X029800Y012730D02*
D03*
Y012270D02*
D03*
X027100Y012780D02*
D03*
Y012320D02*
D03*
X026600D02*
D03*
Y012780D02*
D03*
Y011930D02*
D03*
Y011470D02*
D03*
Y010830D02*
D03*
Y010370D02*
D03*
X027100Y011930D02*
D03*
Y011470D02*
D03*
X020700Y008730D02*
D03*
Y008270D02*
D03*
X048700Y012030D02*
D03*
Y011570D02*
D03*
D52*
X048254Y011800D02*
D03*
X047546D02*
D03*
D53*
X029180Y011200D02*
D03*
X028720D02*
D03*
X050570Y012150D02*
D03*
X051030D02*
D03*
X046830Y007450D02*
D03*
X046370D02*
D03*
X045460Y008400D02*
D03*
X045000D02*
D03*
X045460Y008829D02*
D03*
X045000D02*
D03*
X045460Y009257D02*
D03*
X045000D02*
D03*
X044970Y009650D02*
D03*
X045430D02*
D03*
X038340Y009950D02*
D03*
X038800D02*
D03*
Y009550D02*
D03*
X038340D02*
D03*
X035580Y008500D02*
D03*
X035120D02*
D03*
X025470Y009950D02*
D03*
X025930D02*
D03*
X024570D02*
D03*
X025030D02*
D03*
X037830Y011700D02*
D03*
X037370D02*
D03*
D54*
X054882Y011455D02*
D03*
X055518Y011545D02*
D03*
D55*
X055392Y010135D02*
D03*
X055008Y012865D02*
D03*
D56*
X051335Y013037D02*
D03*
Y012663D02*
D03*
X050665D02*
D03*
Y013037D02*
D03*
D57*
X051267Y009700D02*
D03*
X050833D02*
D03*
X053617D02*
D03*
X053183D02*
D03*
D58*
X053150Y008869D02*
D03*
Y009231D02*
D03*
X053650Y008869D02*
D03*
Y009231D02*
D03*
X051300Y008869D02*
D03*
Y009231D02*
D03*
X050800Y008869D02*
D03*
Y009231D02*
D03*
D59*
X051994Y009970D02*
D03*
X052250D02*
D03*
X052506D02*
D03*
X051994Y009430D02*
D03*
X052250D02*
D03*
X052506D02*
D03*
D60*
X052644Y009700D02*
D03*
X051856D02*
D03*
D61*
X049065Y007100D02*
D03*
X048435D02*
D03*
D62*
X045600Y007692D02*
D03*
Y006708D02*
D03*
D63*
X046967Y007942D02*
D03*
X047164D02*
D03*
X047361D02*
D03*
X047558D02*
D03*
X047755D02*
D03*
X047952D02*
D03*
X048148D02*
D03*
X048345D02*
D03*
X048542D02*
D03*
X048739D02*
D03*
X048936D02*
D03*
X049133D02*
D03*
Y010658D02*
D03*
X048936D02*
D03*
X048739D02*
D03*
X048542D02*
D03*
X048345D02*
D03*
X048148D02*
D03*
X047952D02*
D03*
X047755D02*
D03*
X047558D02*
D03*
X047361D02*
D03*
X047164D02*
D03*
X046967D02*
D03*
D64*
X049408Y008217D02*
D03*
Y008414D02*
D03*
Y008611D02*
D03*
Y008808D02*
D03*
Y009005D02*
D03*
Y009202D02*
D03*
Y009398D02*
D03*
Y009595D02*
D03*
Y009792D02*
D03*
Y009989D02*
D03*
Y010186D02*
D03*
Y010383D02*
D03*
X046692D02*
D03*
Y010186D02*
D03*
Y009989D02*
D03*
Y009792D02*
D03*
Y009595D02*
D03*
Y009398D02*
D03*
Y009202D02*
D03*
Y009005D02*
D03*
Y008808D02*
D03*
Y008611D02*
D03*
Y008414D02*
D03*
Y008217D02*
D03*
D65*
X048050Y009300D02*
D03*
D66*
X045400Y010926D02*
D03*
X045144Y011674D02*
D03*
X045656D02*
D03*
D67*
X044956Y012550D02*
D03*
X045744Y012924D02*
D03*
Y012176D02*
D03*
D68*
X043647Y011941D02*
D03*
X043450D02*
D03*
X043253D02*
D03*
Y012659D02*
D03*
X043450D02*
D03*
X043647D02*
D03*
D69*
X042992Y012005D02*
D03*
Y012202D02*
D03*
Y012398D02*
D03*
Y012595D02*
D03*
X043908D02*
D03*
Y012398D02*
D03*
Y012202D02*
D03*
Y012005D02*
D03*
D70*
X043974Y010142D02*
D03*
X043600D02*
D03*
X043226D02*
D03*
Y009158D02*
D03*
X043600D02*
D03*
X043974D02*
D03*
D71*
X038458Y008125D02*
D03*
X038713Y008108D02*
D03*
X038968Y008091D02*
D03*
X039224Y008074D02*
D03*
X039479Y008058D02*
D03*
D72*
X037088Y007090D02*
D03*
X040702Y006853D02*
D03*
D73*
X036444Y012075D02*
D03*
X034082D02*
D03*
X031720D02*
D03*
D74*
X028376Y012742D02*
D03*
X029124D02*
D03*
Y011758D02*
D03*
X028750D02*
D03*
X028376D02*
D03*
D75*
X026050Y012768D02*
D03*
X025550D02*
D03*
X025050D02*
D03*
X024550D02*
D03*
Y010632D02*
D03*
X025050D02*
D03*
X025550D02*
D03*
X026050D02*
D03*
D76*
X018551Y009493D02*
D03*
X018137Y012616D02*
D03*
D77*
X018388Y009750D02*
D03*
X018357Y009984D02*
D03*
X018326Y010218D02*
D03*
X018295Y010452D02*
D03*
X018264Y010687D02*
D03*
X018233Y010921D02*
D03*
X018202Y011155D02*
D03*
X018171Y011389D02*
D03*
X018140Y011623D02*
D03*
X018109Y011857D02*
D03*
X018078Y012092D02*
D03*
X018047Y012326D02*
D03*
D78*
X019495Y010016D02*
D03*
X019464Y010250D02*
D03*
X019433Y010484D02*
D03*
X019402Y010718D02*
D03*
X019371Y010952D02*
D03*
X019340Y011187D02*
D03*
X019309Y011421D02*
D03*
X019277Y011655D02*
D03*
X019246Y011889D02*
D03*
X019215Y012123D02*
D03*
X019184Y012357D02*
D03*
D79*
X039850Y012150D02*
D03*
Y012650D02*
D03*
X040350Y012150D02*
D03*
Y012650D02*
D03*
X040850Y012150D02*
D03*
Y012650D02*
D03*
D80*
X018875Y008721D02*
D03*
X019875D02*
D03*
D81*
X034432Y009894D02*
D03*
X034432Y009187D02*
D03*
X033725Y009187D02*
D03*
X033725Y009894D02*
D03*
D82*
X022278Y012813D02*
D03*
D83*
X023278D02*
D03*
D84*
X039350Y012800D02*
D03*
Y012000D02*
D03*
X041350Y012400D02*
D03*
M02*
