G04*
G04 #@! TF.GenerationSoftware,Altium Limited,Altium Designer,19.1.5 (86)*
G04*
G04 Layer_Color=16711935*
%FSAX24Y24*%
%MOIN*%
G70*
G01*
G75*
%ADD36R,0.0297X0.0297*%
%ADD37R,0.0297X0.0297*%
%ADD38C,0.0237*%
%ADD51C,0.0275*%
%ADD52R,0.0671X0.0671*%
%ADD53C,0.0671*%
%ADD87R,0.0395X0.0198*%
%ADD88R,0.0769X0.0690*%
%ADD89C,0.0162*%
%ADD90R,0.0356X0.0375*%
%ADD91R,0.0316X0.0552*%
%ADD92R,0.0533X0.0651*%
%ADD93R,0.0474X0.0434*%
%ADD94R,0.0237X0.0611*%
%ADD95R,0.0946X0.0710*%
%ADD96R,0.0789X0.0828*%
%ADD97R,0.0828X0.0828*%
%ADD98R,0.0198X0.0513*%
%ADD99R,0.0474X0.0789*%
%ADD100R,0.0415X0.0415*%
%ADD101R,0.0395X0.0395*%
D36*
X027270Y017500D02*
D03*
X027730D02*
D03*
X030080Y017700D02*
D03*
X029620D02*
D03*
Y017350D02*
D03*
X030080D02*
D03*
X029620Y017000D02*
D03*
X030080D02*
D03*
D37*
X029900Y016530D02*
D03*
Y016070D02*
D03*
X017530Y016480D02*
D03*
Y016020D02*
D03*
X026473D02*
D03*
Y016480D02*
D03*
X026850Y016020D02*
D03*
Y016480D02*
D03*
X028600Y015270D02*
D03*
Y015730D02*
D03*
X028950D02*
D03*
Y015270D02*
D03*
X030300Y016070D02*
D03*
Y016530D02*
D03*
X029900Y015580D02*
D03*
Y015120D02*
D03*
D38*
X029340Y015150D02*
D03*
X028700Y015020D02*
D03*
D51*
X018347Y017560D02*
D03*
X017547D02*
D03*
X017947Y015560D02*
D03*
D52*
X034400Y015400D02*
D03*
D53*
X033400D02*
D03*
D87*
X032741Y015745D02*
D03*
Y015548D02*
D03*
Y015352D02*
D03*
Y015155D02*
D03*
X031559D02*
D03*
Y015352D02*
D03*
Y015548D02*
D03*
Y015745D02*
D03*
D88*
X032150Y015450D02*
D03*
D89*
X017973Y016419D02*
D03*
Y016261D02*
D03*
X018130Y016419D02*
D03*
Y016261D02*
D03*
X018287Y016419D02*
D03*
Y016261D02*
D03*
D90*
X031554Y016084D02*
D03*
Y016616D02*
D03*
X031161D02*
D03*
Y016084D02*
D03*
D91*
X021576Y016608D02*
D03*
X021950D02*
D03*
X022324D02*
D03*
Y017592D02*
D03*
X021950D02*
D03*
X021576D02*
D03*
D92*
X028446Y017450D02*
D03*
X029154D02*
D03*
X017636Y017020D02*
D03*
X018344D02*
D03*
D93*
X030630Y015675D02*
D03*
Y015045D02*
D03*
D94*
X024756Y016500D02*
D03*
X024500D02*
D03*
X024244D02*
D03*
X023988D02*
D03*
X023732D02*
D03*
D95*
X025484Y016451D02*
D03*
X023004D02*
D03*
D96*
X025819Y015447D02*
D03*
X022669D02*
D03*
D97*
X024717D02*
D03*
X023772D02*
D03*
D98*
X020639Y015467D02*
D03*
Y017633D02*
D03*
X020442Y015467D02*
D03*
Y017633D02*
D03*
X020245Y015467D02*
D03*
Y017633D02*
D03*
X020048Y015467D02*
D03*
Y017633D02*
D03*
X019852Y015467D02*
D03*
Y017633D02*
D03*
X019655Y015467D02*
D03*
Y017633D02*
D03*
X019458Y015467D02*
D03*
Y017633D02*
D03*
X019261Y015467D02*
D03*
Y017633D02*
D03*
D99*
X026508Y015500D02*
D03*
X027492D02*
D03*
D100*
X018380Y015875D02*
D03*
Y015265D02*
D03*
D101*
X031100Y015055D02*
D03*
Y015645D02*
D03*
M02*
