M48
;Layer_Color=9474304
;FILE_FORMAT=2:4
INCH
;TYPE=PLATED
T1F00S00C0.0118
T2F00S00C0.0160
T3F00S00C0.0276
T4F00S00C0.0413
T5F00S00C0.0429
T6F00S00C0.0709
;TYPE=NON_PLATED
T7F00S00C0.0390
%
T01
X018300Y008550
X018750Y009800
X018651Y010151
X018600Y010450
X018550Y010733
X018493Y011013
X018800Y011150
X018650Y011750
X018370Y011686
X018600Y012250
X018483Y012702
X019900Y012550
X019800Y011600
X020100Y011500
X020700Y011200
X021550Y012150
X021350Y012400
X021850Y012550
X023799Y012751
X024500Y011189
X024550Y009800
X026550Y010150
X027350Y009750
Y008750
X027200Y010900
X028700Y010950
X029850Y010750
X030300
X029900Y011200
X030669Y009531
X031000Y007850
X029550Y008250
X030900Y012650
X031200Y012800
X025834Y011340
X018027Y011148
X031950Y010900
X032209Y011135
X032550Y011077
X032950Y011200
X033050Y010500
X032550Y013300
X037256Y012976
X038400Y011950
X038750Y011350
X038920Y010950
X038033Y010633
X038650Y010000
X038450Y008500
X035800Y009350
X036488Y010612
X035850Y011350
X035150Y008000
Y007500
X040750Y009750
X041350Y010550
X042400Y010900
X042420Y009830
X042250Y009350
X042700Y009050
X042750Y008550
X043080Y008632
X043650Y009950
X044050Y009600
X044350
X044650Y009500
X044950Y009600
X045730Y009709
X045900Y009465
X046250Y009400
Y009850
X046350Y010750
X046050Y010700
X045650Y010450
X045700Y011250
X045000Y011050
X044450Y010950
X043644Y012131
X043300Y012360
X043350Y013050
X042050Y012800
X039850Y011800
X046700Y012200
Y011275
X046750Y010900
X046300Y007550
X044700Y007350
X047460Y007589
X047740Y007472
X047980Y007628
X048500Y007550
X049700Y007200
X049800Y008150
X049754Y008704
X049750Y009000
X050050
Y009300
Y008600
X050750Y008550
X051535Y008268
X052087
X052638
X053189
X053740
X054291
X054843
X054567Y008819
X055118
X055669
X055945Y009370
X054016Y009921
X053740Y010472
X053189
X052638
X052087
X051535
X052913Y011024
X053465
X053740Y011575
X053189
X052913Y012126
X053465
X053189Y012677
X052913Y013228
X053465
X054016Y008819
X052362
X051811
Y007717
X052362
X051260
X050450Y006550
X050100Y006450
X049450Y006300
X047250Y006750
Y008550
X047750
X048200Y008850
X048850
Y009600
X048200
X047728Y009412
X047228
X048100Y011000
X048400Y011050
X048700
X048750Y012850
X047150Y013100
T02
X037800Y007900
X038132Y010000
X043061Y012879
X046378Y006978
X048800Y006700
X050375Y009475
X050400Y011050
X047400Y012850
T03
X033725Y009187
Y009894
X034432
Y009187
T04
X022278Y012813
X023278
T05
X018875Y008721
X019875
T06
X020824Y012157
T07
X039350Y012000
Y012800
X041350Y012400
M30
