M48
;Layer_Color=9474304
;FILE_FORMAT=2:4
INCH
;TYPE=PLATED
T1F00S00C0.0059
T2F00S00C0.0079
T3F00S00C0.0118
T4F00S00C0.0354
;TYPE=NON_PLATED
T5F00S00C0.0390
%
T01
X017810Y015250
X018450Y015520
X019850Y015250
X020050
X020810Y015300
X023250Y015600
X025300Y015150
X026400Y015000
X027997Y015023
X028194
X028391Y014923
X028570Y014930
X028981Y014923
X029201Y014806
X029350Y015023
X029560
X030210Y015470
X031150Y015400
X031378Y014932
X031594
X031811
X032027
X032244
X032460
X032676
X032893
X033109
X033326
X033542
X033758
X033975
X034191
X034408
X034624
X034782Y015023
X034792Y015193
Y015383
Y015583
X033867Y015581
X033975Y015364
X033867Y015148
X033975Y015797
X033758
X033542
X033434Y016014
X033217
X033326Y016230
X033542
X033434Y016446
X033217
X033542Y016663
X033552Y016873
X033542Y017096
Y017528
X033434Y017745
X033217
X033001
X032785
X032568
X032027Y017528
X031486Y017745
X031270
X031910Y016880
X032135Y016879
X032352
X032244Y016663
X032350Y015900
X033000Y015850
X032952Y016996
X031723Y015823
X034202Y015823
X034402
X034602
X034792Y015783
X030550Y016200
X030348Y016277
X030350Y016650
X030550Y016550
X030500Y017350
X030350Y017250
X030482Y017718
X031100Y017800
X031056Y016900
X028784Y017823
X028391
X027491Y017573
X027400Y017250
X027350Y016861
X027243Y016396
X026650Y016273
X026511Y016739
X026300Y016750
X026550Y017100
X027100Y017500
X025566Y017140
X025130Y017520
X025050Y016720
X025000Y016150
X026100
X026150Y015850
X023750Y016000
X023550Y016300
X023540Y016680
X023890Y017110
X023980Y017530
X024160Y017540
X024250Y017400
X023300Y015870
X021900Y015700
X021280Y016660
X021306Y017030
X021090Y017480
X020430Y017840
X019760Y017770
X018920Y017870
X018990Y017420
X017970Y017190
X018040Y016080
X017640Y016310
X018849Y015900
X018749Y015750
X020240Y015770
X022090Y017770
T02
X027050Y015200
X028100Y017823
X030650Y015950
X018620Y016570
X017950Y015913
T03
X028050Y015550
X029600
X029200Y016050
X028600
X028050
Y016500
Y017250
X028580Y016950
X029180Y016930
X029550Y016550
X028860Y016430
X029800Y017200
X025146Y017057
X020470Y016720
X020457Y015785
X019670Y015870
X018688Y016301
X018840Y017040
X019170Y017250
T04
X033400Y015400
X034400
T05
X017947Y015560
X018347Y017560
X017547
M30
