G04*
G04 #@! TF.GenerationSoftware,Altium Limited,Altium Designer,19.1.5 (86)*
G04*
G04 Layer_Physical_Order=2*
G04 Layer_Color=3326705*
%FSAX24Y24*%
%MOIN*%
G70*
G01*
G75*
%ADD14C,0.0100*%
%ADD15C,0.0060*%
%ADD88C,0.0709*%
%ADD89C,0.0120*%
%ADD90C,0.0080*%
%ADD91C,0.0620*%
%ADD92R,0.0620X0.0620*%
%ADD93C,0.0195*%
%ADD94C,0.0472*%
%ADD95C,0.0650*%
%ADD96C,0.0220*%
%ADD97C,0.0260*%
G36*
X052692Y013501D02*
X052729Y013437D01*
X052750Y013361D01*
X052716Y013310D01*
X052709Y013278D01*
X052913D01*
Y013228D01*
X052963D01*
Y013024D01*
X052995Y013031D01*
X053065Y013077D01*
X053111Y013146D01*
X053118Y013179D01*
X053260D01*
X053267Y013146D01*
X053313Y013077D01*
X053383Y013031D01*
X053415Y013024D01*
Y013228D01*
X053515D01*
Y013024D01*
X053546Y013031D01*
X053577Y013051D01*
X053701Y013014D01*
X053726Y012995D01*
X053881Y011893D01*
X053877Y011884D01*
X053790Y011814D01*
Y011575D01*
Y011371D01*
X053813Y011375D01*
X053825Y011375D01*
X053964Y011304D01*
X054052Y010676D01*
X054035Y010661D01*
X053891Y010624D01*
X053822Y010670D01*
X053790Y010676D01*
Y010472D01*
Y010268D01*
X053822Y010275D01*
X053891Y010321D01*
X053938Y010391D01*
X053945Y010429D01*
X054087Y010425D01*
X054111Y010259D01*
X054016Y010135D01*
X053934Y010119D01*
X053864Y010073D01*
X053818Y010003D01*
X053812Y009971D01*
X054016D01*
Y009921D01*
X054066D01*
Y009703D01*
X054177Y009647D01*
X054200Y009624D01*
X054228Y009427D01*
X054235Y009375D01*
X054235Y009375D01*
X054260Y009333D01*
X054308Y009320D01*
X054308Y009320D01*
X054356Y009327D01*
X055626Y009505D01*
X055629Y009504D01*
X055699Y009420D01*
X055945D01*
Y009370D01*
X055995D01*
Y009166D01*
X056027Y009172D01*
X056089Y009214D01*
X056133Y009207D01*
X056235Y009175D01*
X056313Y008550D01*
X055186Y008203D01*
X055149Y008222D01*
X055049Y008307D01*
X055040Y008350D01*
X054994Y008419D01*
X054924Y008465D01*
X054893Y008472D01*
Y008268D01*
X054793D01*
Y008472D01*
X054761Y008465D01*
X054691Y008419D01*
X054645Y008350D01*
X054640Y008324D01*
X054634Y008317D01*
X054502D01*
X054492Y008336D01*
X054489Y008350D01*
X054443Y008419D01*
X054373Y008465D01*
X054341Y008472D01*
Y008268D01*
Y008064D01*
X054373Y008070D01*
X054443Y008116D01*
X054449Y008126D01*
X054608Y008144D01*
X054615Y008141D01*
X054634Y008116D01*
X054598Y007972D01*
X053613Y007550D01*
X052413Y007000D01*
X050813Y006450D01*
X050732Y006433D01*
X050732Y006433D01*
X050624Y006550D01*
X050622Y006554D01*
X050610Y006616D01*
X050572Y006672D01*
X050516Y006710D01*
X050450Y006723D01*
X050409Y006715D01*
X050380Y006735D01*
X050345Y006742D01*
X049240D01*
X049205Y006735D01*
X049175Y006715D01*
X049130Y006670D01*
X049066Y006684D01*
X048989Y006726D01*
X048979Y006774D01*
X048937Y006837D01*
X048874Y006879D01*
X048800Y006894D01*
X048726Y006879D01*
X048663Y006837D01*
X048642Y006806D01*
X048336Y006772D01*
X048330Y006770D01*
X048323Y006769D01*
X047873Y006669D01*
X047864Y006665D01*
X047853Y006663D01*
X047842Y006656D01*
X047830Y006650D01*
X047822Y006642D01*
X047813Y006637D01*
X047801Y006624D01*
X047574D01*
X047464Y006750D01*
X047448Y006832D01*
X047401Y006901D01*
X047332Y006948D01*
X047300Y006954D01*
Y006750D01*
X047200D01*
Y006954D01*
X047168Y006948D01*
X047099Y006901D01*
X047052Y006832D01*
X047036Y006750D01*
X046914Y006644D01*
X046522Y006671D01*
Y006852D01*
X046557Y006904D01*
X046572Y006978D01*
X046557Y007052D01*
X046515Y007115D01*
X046452Y007157D01*
X046378Y007172D01*
X046304Y007157D01*
X046241Y007115D01*
X046199Y007052D01*
X046184Y006978D01*
X046199Y006904D01*
X046241Y006841D01*
X046209Y006754D01*
X046145Y006697D01*
X038690Y007205D01*
X038628Y007245D01*
X037990Y007883D01*
X037994Y007900D01*
X037979Y007974D01*
X037937Y008037D01*
X037874Y008079D01*
X037800Y008094D01*
X037726Y008079D01*
X037663Y008037D01*
X037621Y007974D01*
X037606Y007900D01*
X037621Y007826D01*
X037663Y007763D01*
X037726Y007721D01*
X037800Y007706D01*
X037817Y007710D01*
X038380Y007147D01*
X038318Y007011D01*
X035912Y007168D01*
X035515Y007565D01*
X035485Y007585D01*
X035450Y007592D01*
X035320D01*
X035253Y007664D01*
X035248Y007699D01*
X035259Y007794D01*
X035282Y007836D01*
X035301Y007849D01*
X035348Y007918D01*
X035354Y007950D01*
X034946D01*
X034952Y007918D01*
X034999Y007849D01*
X035018Y007836D01*
X035080Y007722D01*
X035083Y007676D01*
X035028Y007622D01*
X034990Y007566D01*
X034977Y007500D01*
X034990Y007434D01*
X035028Y007378D01*
X035084Y007340D01*
X035150Y007327D01*
X035216Y007340D01*
X035272Y007378D01*
X035280Y007389D01*
X035423Y007398D01*
X035626Y007194D01*
X035568Y007067D01*
X031356Y007342D01*
X031356Y007342D01*
X031356Y007342D01*
X024342Y007794D01*
Y008099D01*
X024335Y008135D01*
X024315Y008164D01*
X023694Y008786D01*
X023664Y008806D01*
X023629Y008813D01*
X020251D01*
X020250Y008822D01*
X020211Y008915D01*
X020149Y008996D01*
X020069Y009057D01*
X019975Y009096D01*
X019875Y009109D01*
X019774Y009096D01*
X019681Y009057D01*
X019602Y008997D01*
X019593Y008998D01*
X019462Y009046D01*
Y009141D01*
X019454Y009184D01*
X019429Y009221D01*
X019429Y009221D01*
X019371Y009279D01*
X019334Y009304D01*
X019291Y009312D01*
X019291Y009312D01*
X018483D01*
X018483Y009312D01*
X018440Y009304D01*
X018404Y009279D01*
X018404Y009279D01*
X018221Y009096D01*
X018196Y009060D01*
X018188Y009017D01*
X018188Y009017D01*
X018051Y009025D01*
X017806Y010875D01*
X017936Y010956D01*
X017945Y010950D01*
X017977Y010944D01*
Y011148D01*
Y011352D01*
X017945Y011345D01*
X017889Y011308D01*
X017819Y011321D01*
X017742Y011351D01*
X017569Y012660D01*
X017649Y012810D01*
X018227Y012876D01*
X018271Y012827D01*
X018319Y012746D01*
X018318Y012742D01*
X018315Y012737D01*
X018308Y012702D01*
Y012450D01*
X018315Y012415D01*
X018335Y012385D01*
X018434Y012286D01*
X018427Y012250D01*
X018440Y012184D01*
X018478Y012128D01*
X018440Y011984D01*
X018336Y011881D01*
X018316Y011851D01*
X018316Y011848D01*
X018304Y011846D01*
X018248Y011808D01*
X018210Y011752D01*
X018197Y011686D01*
X018210Y011620D01*
X018248Y011563D01*
X018304Y011526D01*
X018330Y011389D01*
X018304Y011343D01*
X018159Y011312D01*
X018109Y011345D01*
X018077Y011352D01*
Y011148D01*
Y010893D01*
X018158Y010828D01*
Y010517D01*
X018165Y010482D01*
X018185Y010452D01*
X018452Y010185D01*
X018481Y010166D01*
X018478Y010151D01*
X018491Y010085D01*
X018529Y010029D01*
X018579Y009973D01*
X018552Y009882D01*
X018546Y009850D01*
X018954D01*
X018948Y009882D01*
X018901Y009951D01*
X018894Y009956D01*
X018828Y010059D01*
X018822Y010142D01*
X018824Y010151D01*
X018811Y010217D01*
X018774Y010274D01*
X018766Y010278D01*
X018751Y010299D01*
X018798Y010368D01*
X018814Y010450D01*
X018821Y010458D01*
X023539D01*
X023575Y010465D01*
X023604Y010485D01*
X024180Y011061D01*
X024349Y011038D01*
X024418Y010991D01*
X024450Y010985D01*
Y011189D01*
X024500D01*
Y011239D01*
X024704D01*
X024698Y011271D01*
X024651Y011340D01*
X024656Y011498D01*
X025567D01*
X025593Y011475D01*
X025664Y011358D01*
X025661Y011340D01*
X025674Y011274D01*
X025711Y011218D01*
X025767Y011180D01*
X025834Y011167D01*
X025900Y011180D01*
X025956Y011218D01*
X025994Y011274D01*
X026007Y011340D01*
X026142Y011378D01*
X029598D01*
X029627Y011352D01*
X029687Y011250D01*
X030113D01*
X030173Y011352D01*
X030202Y011378D01*
X032012D01*
X032018Y011374D01*
X032052Y011316D01*
X032067Y011261D01*
X031997Y011126D01*
X031899Y011104D01*
X031868Y011098D01*
X031799Y011051D01*
X031752Y010982D01*
X031746Y010950D01*
X031950D01*
Y010900D01*
X032000D01*
Y010696D01*
X032032Y010702D01*
X032101Y010749D01*
X032148Y010818D01*
X032150Y010831D01*
X032209Y010962D01*
X032275Y010975D01*
X032353Y010999D01*
X032428Y010954D01*
Y010954D01*
X032434Y010950D01*
X032484Y010917D01*
X032511Y010911D01*
X032516Y010905D01*
X032884Y010536D01*
X032877Y010500D01*
X032890Y010434D01*
X032928Y010378D01*
X032984Y010340D01*
X033050Y010327D01*
X033116Y010340D01*
X033172Y010378D01*
X033210Y010434D01*
X033223Y010500D01*
X033210Y010566D01*
X033201Y010580D01*
X033257Y010713D01*
X033263Y010720D01*
X036153D01*
X036274Y010612D01*
X036291Y010530D01*
X036337Y010461D01*
X036406Y010414D01*
X036438Y010408D01*
Y010612D01*
X036538D01*
Y010408D01*
X036570Y010414D01*
X036639Y010461D01*
X036686Y010530D01*
X036702Y010612D01*
X036812Y010738D01*
X037697D01*
X037819Y010633D01*
X037835Y010551D01*
X037882Y010482D01*
X037951Y010435D01*
X037983Y010429D01*
Y010633D01*
X038083D01*
Y010429D01*
X038115Y010435D01*
X038184Y010482D01*
X038346Y010472D01*
X038502Y010316D01*
X038499Y010151D01*
X038452Y010082D01*
X038452Y010081D01*
X038323Y010075D01*
X038309Y010077D01*
X038269Y010137D01*
X038206Y010179D01*
X038132Y010194D01*
X038058Y010179D01*
X037995Y010137D01*
X037953Y010074D01*
X037938Y010000D01*
X037953Y009926D01*
X037995Y009863D01*
X038058Y009821D01*
X038132Y009806D01*
X038206Y009821D01*
X038269Y009863D01*
X038309Y009923D01*
X038323Y009925D01*
X038452Y009919D01*
X038452Y009918D01*
X038499Y009849D01*
X038568Y009802D01*
X038600Y009796D01*
Y010000D01*
X038700D01*
Y009796D01*
X038732Y009802D01*
X038801Y009849D01*
X038848Y009918D01*
X038864Y010000D01*
X038879Y010018D01*
X040458D01*
X040528Y009878D01*
X040501Y009842D01*
X040250D01*
X040215Y009835D01*
X040185Y009815D01*
X039812Y009442D01*
X035943D01*
X035922Y009472D01*
X035866Y009510D01*
X035800Y009523D01*
X035734Y009510D01*
X035678Y009472D01*
X035640Y009416D01*
X035627Y009350D01*
X035640Y009284D01*
X035678Y009228D01*
X035734Y009190D01*
X035800Y009177D01*
X035866Y009190D01*
X035922Y009228D01*
X035943Y009258D01*
X039850D01*
X039885Y009265D01*
X039915Y009285D01*
X040288Y009658D01*
X040607D01*
X040628Y009628D01*
X040684Y009590D01*
X040750Y009577D01*
X040816Y009590D01*
X040872Y009628D01*
X040910Y009684D01*
X040923Y009750D01*
X040910Y009816D01*
X040872Y009872D01*
X040864Y009878D01*
X040906Y010018D01*
X041532D01*
X041567Y010025D01*
X041597Y010045D01*
X041600Y010048D01*
X042206D01*
X042210Y010044D01*
X042268Y009908D01*
X042260Y009896D01*
X042247Y009830D01*
X042256Y009785D01*
X041985Y009515D01*
X041965Y009485D01*
X041958Y009450D01*
Y009250D01*
X041965Y009215D01*
X041985Y009185D01*
X042584Y008586D01*
X042577Y008550D01*
X042590Y008484D01*
X042628Y008428D01*
X042684Y008390D01*
X042750Y008377D01*
X042816Y008390D01*
X042872Y008428D01*
X042929Y008482D01*
X043014Y008472D01*
X043014Y008472D01*
X043033Y008468D01*
X043080Y008459D01*
X043146Y008472D01*
X043203Y008509D01*
X043240Y008566D01*
X043253Y008632D01*
X043240Y008698D01*
X043203Y008754D01*
X043146Y008792D01*
X043080Y008805D01*
X043076Y008804D01*
X042866Y009014D01*
X042873Y009050D01*
X042860Y009116D01*
X042822Y009172D01*
X042766Y009210D01*
X042700Y009223D01*
X042634Y009210D01*
X042595Y009184D01*
X042422Y009358D01*
X042410Y009416D01*
X042372Y009472D01*
X042369Y009524D01*
X042420Y009657D01*
X042486Y009670D01*
X042542Y009708D01*
X042580Y009764D01*
X042593Y009830D01*
X042580Y009896D01*
X042572Y009908D01*
X042630Y010044D01*
X042634Y010048D01*
X043313D01*
X043436Y009950D01*
X043452Y009868D01*
X043499Y009799D01*
X043568Y009752D01*
X043600Y009746D01*
Y009950D01*
X043700D01*
Y009746D01*
X043732Y009752D01*
X043873Y009694D01*
X043889Y009668D01*
X043889Y009660D01*
X043877Y009600D01*
X043890Y009534D01*
X043928Y009478D01*
X043984Y009440D01*
X044050Y009427D01*
X044116Y009440D01*
X044200Y009468D01*
X044284Y009440D01*
X044350Y009427D01*
X044416Y009440D01*
X044490Y009434D01*
X044528Y009378D01*
X044584Y009340D01*
X044650Y009327D01*
X044716Y009340D01*
X044772Y009378D01*
X044810Y009434D01*
X044817Y009437D01*
X044868Y009402D01*
X044900Y009396D01*
Y009600D01*
X045000D01*
Y009396D01*
X045032Y009402D01*
X045101Y009449D01*
X045263Y009439D01*
X045688Y009015D01*
X045717Y008995D01*
X045752Y008988D01*
X046465D01*
X046500Y008995D01*
X046530Y009015D01*
X046660Y009145D01*
X046680Y009175D01*
X046687Y009210D01*
Y009707D01*
X046868Y009888D01*
X048002D01*
X048043Y009768D01*
X048047Y009748D01*
X048002Y009682D01*
X047994Y009642D01*
X047951Y009612D01*
X047885Y009587D01*
X047851Y009582D01*
X047810Y009609D01*
X047778Y009616D01*
Y009412D01*
Y009208D01*
X047810Y009214D01*
X047879Y009260D01*
X047926Y009330D01*
X047934Y009370D01*
X047977Y009399D01*
X048043Y009425D01*
X048077Y009430D01*
X048118Y009402D01*
X048150Y009396D01*
Y009600D01*
X048200D01*
Y009650D01*
X048404D01*
X048398Y009682D01*
X048353Y009748D01*
X048357Y009768D01*
X048398Y009888D01*
X048652D01*
X048693Y009768D01*
X048697Y009748D01*
X048652Y009682D01*
X048646Y009650D01*
X049065D01*
X049116Y009748D01*
X049208Y009666D01*
Y008920D01*
X049194Y008912D01*
X049048Y008932D01*
X049001Y009001D01*
X048932Y009048D01*
X048900Y009054D01*
Y008850D01*
X048850D01*
Y008800D01*
X048646D01*
X048652Y008768D01*
X048699Y008699D01*
X048768Y008652D01*
X048850Y008636D01*
X048860Y008638D01*
X048929Y008509D01*
X048762Y008342D01*
X048250D01*
X048215Y008335D01*
X048185Y008315D01*
X047636Y007766D01*
X047574D01*
X047539Y007759D01*
X047524Y007749D01*
X047460Y007762D01*
X047394Y007749D01*
X047338Y007711D01*
X047300Y007655D01*
X047287Y007589D01*
X047300Y007522D01*
X047338Y007466D01*
X047394Y007429D01*
X047460Y007416D01*
X047527Y007429D01*
X047618Y007350D01*
X047674Y007312D01*
X047740Y007299D01*
X047806Y007312D01*
X047817Y007320D01*
X048130D01*
X048165Y007327D01*
X048195Y007346D01*
X048236Y007387D01*
X048378Y007428D01*
X048434Y007390D01*
X048500Y007377D01*
X048566Y007390D01*
X048622Y007428D01*
X048660Y007484D01*
X048673Y007550D01*
X048800Y007618D01*
X050362D01*
X050398Y007625D01*
X050427Y007645D01*
X051245Y008463D01*
X051265Y008492D01*
X051272Y008528D01*
Y010241D01*
X051313Y010270D01*
X051412Y010303D01*
X051454Y010275D01*
X051485Y010268D01*
Y010472D01*
Y010676D01*
X051454Y010670D01*
X051412Y010642D01*
X051313Y010675D01*
X051272Y010704D01*
Y012129D01*
X051265Y012164D01*
X051245Y012194D01*
X050744Y012695D01*
X050714Y012715D01*
X050679Y012722D01*
X049072D01*
X048964Y012850D01*
X048948Y012932D01*
X048901Y013001D01*
X048832Y013048D01*
X048800Y013054D01*
Y012850D01*
X048700D01*
Y013054D01*
X048668Y013048D01*
X048599Y013001D01*
X048552Y012932D01*
X048536Y012850D01*
X048428Y012722D01*
X047698D01*
X047594Y012850D01*
X047579Y012924D01*
X047537Y012987D01*
X047474Y013029D01*
X047364Y013100D01*
X047348Y013182D01*
X047301Y013251D01*
X047232Y013298D01*
X047200Y013304D01*
Y013100D01*
X047150D01*
Y013050D01*
X046895D01*
X046880Y013032D01*
X043579D01*
X043564Y013050D01*
X043548Y013132D01*
X043501Y013201D01*
X043432Y013248D01*
X043400Y013254D01*
Y013050D01*
X043300D01*
Y013254D01*
X043268Y013248D01*
X043199Y013201D01*
X043152Y013132D01*
X043061Y013072D01*
X042987Y013058D01*
X042924Y013016D01*
X042760Y012999D01*
X042383Y013376D01*
X042441Y013516D01*
X052692Y013501D01*
D02*
G37*
%LPC*%
G36*
X047100Y013304D02*
X047068Y013298D01*
X046999Y013251D01*
X046952Y013182D01*
X046946Y013150D01*
X047100D01*
Y013304D01*
D02*
G37*
G36*
X052863Y013178D02*
X052709D01*
X052716Y013146D01*
X052762Y013077D01*
X052832Y013031D01*
X052863Y013024D01*
Y013178D01*
D02*
G37*
G36*
X053239Y012881D02*
Y012727D01*
X053393D01*
X053387Y012759D01*
X053340Y012828D01*
X053271Y012875D01*
X053239Y012881D01*
D02*
G37*
G36*
X053139D02*
X053107Y012875D01*
X053038Y012828D01*
X052991Y012759D01*
X052985Y012727D01*
X053139D01*
Y012881D01*
D02*
G37*
G36*
X053393Y012627D02*
X053239D01*
Y012473D01*
X053271Y012479D01*
X053340Y012526D01*
X053387Y012595D01*
X053393Y012627D01*
D02*
G37*
G36*
X053139D02*
X052985D01*
X052991Y012595D01*
X053038Y012526D01*
X053107Y012479D01*
X053139Y012473D01*
Y012627D01*
D02*
G37*
G36*
X053515Y012330D02*
Y012176D01*
X053669D01*
X053662Y012208D01*
X053616Y012277D01*
X053546Y012324D01*
X053515Y012330D01*
D02*
G37*
G36*
X052863D02*
X052832Y012324D01*
X052762Y012277D01*
X052716Y012208D01*
X052709Y012176D01*
X052863D01*
Y012330D01*
D02*
G37*
G36*
X053415D02*
X053383Y012324D01*
X053313Y012277D01*
X053267Y012208D01*
X053260Y012175D01*
X053118D01*
X053111Y012208D01*
X053065Y012277D01*
X052995Y012324D01*
X052963Y012330D01*
Y012126D01*
Y011922D01*
X052995Y011928D01*
X053065Y011975D01*
X053111Y012044D01*
X053118Y012077D01*
X053260D01*
X053267Y012044D01*
X053313Y011975D01*
X053383Y011928D01*
X053415Y011922D01*
Y012126D01*
Y012330D01*
D02*
G37*
G36*
X053669Y012076D02*
X053515D01*
Y011922D01*
X053546Y011928D01*
X053616Y011975D01*
X053662Y012044D01*
X053669Y012076D01*
D02*
G37*
G36*
X052863D02*
X052709D01*
X052716Y012044D01*
X052762Y011975D01*
X052832Y011928D01*
X052863Y011922D01*
Y012076D01*
D02*
G37*
G36*
X053139Y011779D02*
X053107Y011772D01*
X053038Y011726D01*
X052991Y011657D01*
X052985Y011625D01*
X053139D01*
Y011779D01*
D02*
G37*
G36*
X053690D02*
X053658Y011772D01*
X053589Y011726D01*
X053542Y011657D01*
X053536Y011624D01*
X053393D01*
X053387Y011657D01*
X053340Y011726D01*
X053271Y011772D01*
X053239Y011779D01*
Y011575D01*
Y011371D01*
X053271Y011377D01*
X053340Y011424D01*
X053387Y011493D01*
X053393Y011526D01*
X053536D01*
X053542Y011493D01*
X053589Y011424D01*
X053658Y011377D01*
X053690Y011371D01*
Y011575D01*
Y011779D01*
D02*
G37*
G36*
X053139Y011525D02*
X052985D01*
X052991Y011493D01*
X053038Y011424D01*
X053107Y011377D01*
X053139Y011371D01*
Y011525D01*
D02*
G37*
G36*
X053515Y011228D02*
Y011074D01*
X053669D01*
X053662Y011106D01*
X053616Y011175D01*
X053546Y011221D01*
X053515Y011228D01*
D02*
G37*
G36*
X052863D02*
X052832Y011221D01*
X052762Y011175D01*
X052716Y011106D01*
X052709Y011074D01*
X052863D01*
Y011228D01*
D02*
G37*
G36*
X053415D02*
X053383Y011221D01*
X053313Y011175D01*
X053267Y011106D01*
X053260Y011073D01*
X053118D01*
X053111Y011106D01*
X053065Y011175D01*
X052995Y011221D01*
X052963Y011228D01*
Y011024D01*
Y010820D01*
X052995Y010826D01*
X053065Y010872D01*
X053111Y010942D01*
X053118Y010975D01*
X053260D01*
X053267Y010942D01*
X053313Y010872D01*
X053383Y010826D01*
X053415Y010820D01*
Y011024D01*
Y011228D01*
D02*
G37*
G36*
X028750Y011154D02*
Y011000D01*
X028904D01*
X028898Y011032D01*
X028851Y011101D01*
X028782Y011148D01*
X028750Y011154D01*
D02*
G37*
G36*
X028650D02*
X028618Y011148D01*
X028549Y011101D01*
X028502Y011032D01*
X028496Y011000D01*
X028650D01*
Y011154D01*
D02*
G37*
G36*
X024704Y011139D02*
X024550D01*
Y010985D01*
X024582Y010991D01*
X024651Y011038D01*
X024698Y011107D01*
X024704Y011139D01*
D02*
G37*
G36*
X027250Y011104D02*
Y010950D01*
X027404D01*
X027398Y010982D01*
X027351Y011051D01*
X027282Y011098D01*
X027250Y011104D01*
D02*
G37*
G36*
X027150D02*
X027118Y011098D01*
X027049Y011051D01*
X027002Y010982D01*
X026996Y010950D01*
X027150D01*
Y011104D01*
D02*
G37*
G36*
X053669Y010974D02*
X053515D01*
Y010820D01*
X053546Y010826D01*
X053616Y010872D01*
X053662Y010942D01*
X053669Y010974D01*
D02*
G37*
G36*
X052863D02*
X052709D01*
X052716Y010942D01*
X052762Y010872D01*
X052832Y010826D01*
X052863Y010820D01*
Y010974D01*
D02*
G37*
G36*
X028904Y010900D02*
X028750D01*
Y010746D01*
X028782Y010752D01*
X028851Y010799D01*
X028898Y010868D01*
X028904Y010900D01*
D02*
G37*
G36*
X028650D02*
X028496D01*
X028502Y010868D01*
X028549Y010799D01*
X028618Y010752D01*
X028650Y010746D01*
Y010900D01*
D02*
G37*
G36*
X031900Y010850D02*
X031746D01*
X031752Y010818D01*
X031799Y010749D01*
X031868Y010702D01*
X031900Y010696D01*
Y010850D01*
D02*
G37*
G36*
X027404D02*
X027250D01*
Y010696D01*
X027282Y010702D01*
X027351Y010749D01*
X027398Y010818D01*
X027404Y010850D01*
D02*
G37*
G36*
X027150D02*
X026996D01*
X027002Y010818D01*
X027049Y010749D01*
X027118Y010702D01*
X027150Y010696D01*
Y010850D01*
D02*
G37*
G36*
X030104Y011150D02*
X029696D01*
X029702Y011118D01*
X029749Y011049D01*
X029754Y011045D01*
X029761Y011011D01*
X029746Y010885D01*
X029728Y010872D01*
X029690Y010816D01*
X029677Y010750D01*
X029690Y010684D01*
X029728Y010628D01*
X029784Y010590D01*
X029850Y010577D01*
X029916Y010590D01*
X029972Y010628D01*
X029993Y010658D01*
X030157D01*
X030178Y010628D01*
X030234Y010590D01*
X030300Y010577D01*
X030366Y010590D01*
X030422Y010628D01*
X030460Y010684D01*
X030473Y010750D01*
X030460Y010816D01*
X030422Y010872D01*
X030366Y010910D01*
X030300Y010923D01*
X030234Y010910D01*
X030204Y010890D01*
X030079Y010905D01*
X030040Y010918D01*
X029998Y010982D01*
X030006Y011018D01*
X030051Y011049D01*
X030098Y011118D01*
X030104Y011150D01*
D02*
G37*
G36*
X053690Y010676D02*
X053658Y010670D01*
X053589Y010624D01*
X053542Y010554D01*
X053536Y010521D01*
X053393D01*
X053387Y010554D01*
X053340Y010624D01*
X053271Y010670D01*
X053239Y010676D01*
Y010472D01*
Y010268D01*
X053271Y010275D01*
X053340Y010321D01*
X053387Y010391D01*
X053393Y010424D01*
X053536D01*
X053542Y010391D01*
X053589Y010321D01*
X053658Y010275D01*
X053690Y010268D01*
Y010472D01*
Y010676D01*
D02*
G37*
G36*
X053139D02*
X053107Y010670D01*
X053038Y010624D01*
X052991Y010554D01*
X052985Y010521D01*
X052842D01*
X052835Y010554D01*
X052789Y010624D01*
X052720Y010670D01*
X052688Y010676D01*
Y010472D01*
Y010268D01*
X052720Y010275D01*
X052789Y010321D01*
X052835Y010391D01*
X052842Y010424D01*
X052985D01*
X052991Y010391D01*
X053038Y010321D01*
X053107Y010275D01*
X053139Y010268D01*
Y010472D01*
Y010676D01*
D02*
G37*
G36*
X052588D02*
X052556Y010670D01*
X052487Y010624D01*
X052440Y010554D01*
X052434Y010521D01*
X052291D01*
X052284Y010554D01*
X052238Y010624D01*
X052168Y010670D01*
X052137Y010676D01*
Y010472D01*
Y010268D01*
X052168Y010275D01*
X052238Y010321D01*
X052284Y010391D01*
X052291Y010424D01*
X052434D01*
X052440Y010391D01*
X052487Y010321D01*
X052556Y010275D01*
X052588Y010268D01*
Y010472D01*
Y010676D01*
D02*
G37*
G36*
X052037D02*
X052005Y010670D01*
X051935Y010624D01*
X051889Y010554D01*
X051882Y010521D01*
X051740D01*
X051733Y010554D01*
X051687Y010624D01*
X051617Y010670D01*
X051585Y010676D01*
Y010472D01*
Y010268D01*
X051617Y010275D01*
X051687Y010321D01*
X051733Y010391D01*
X051740Y010424D01*
X051882D01*
X051889Y010391D01*
X051935Y010321D01*
X052005Y010275D01*
X052037Y010268D01*
Y010472D01*
Y010676D01*
D02*
G37*
G36*
X026600Y010354D02*
Y010200D01*
X026754D01*
X026748Y010232D01*
X026701Y010301D01*
X026632Y010348D01*
X026600Y010354D01*
D02*
G37*
G36*
X026500D02*
X026468Y010348D01*
X026399Y010301D01*
X026352Y010232D01*
X026346Y010200D01*
X026500D01*
Y010354D01*
D02*
G37*
G36*
X034432Y010193D02*
X034355Y010183D01*
X034283Y010153D01*
X034221Y010105D01*
X034174Y010043D01*
X034152Y009991D01*
X034079Y009978D01*
X034006Y009991D01*
X033984Y010043D01*
X033936Y010105D01*
X033875Y010153D01*
X033803Y010183D01*
X033725Y010193D01*
X033648Y010183D01*
X033576Y010153D01*
X033514Y010105D01*
X033466Y010043D01*
X033437Y009971D01*
X033426Y009894D01*
X033437Y009817D01*
X033466Y009745D01*
X033514Y009683D01*
X033576Y009635D01*
X033628Y009614D01*
X033641Y009541D01*
X033628Y009467D01*
X033576Y009446D01*
X033514Y009398D01*
X033466Y009336D01*
X033437Y009264D01*
X033426Y009187D01*
X033437Y009110D01*
X033466Y009038D01*
X033514Y008976D01*
X033576Y008928D01*
X033648Y008898D01*
X033725Y008888D01*
X033803Y008898D01*
X033875Y008928D01*
X033936Y008976D01*
X033984Y009038D01*
X034006Y009090D01*
X034079Y009103D01*
X034152Y009090D01*
X034174Y009038D01*
X034221Y008976D01*
X034283Y008928D01*
X034355Y008898D01*
X034432Y008888D01*
X034510Y008898D01*
X034582Y008928D01*
X034644Y008976D01*
X034691Y009038D01*
X034721Y009110D01*
X034731Y009187D01*
X034721Y009264D01*
X034691Y009336D01*
X034644Y009398D01*
X034582Y009446D01*
X034529Y009467D01*
X034516Y009541D01*
X034529Y009614D01*
X034582Y009635D01*
X034644Y009683D01*
X034691Y009745D01*
X034721Y009817D01*
X034731Y009894D01*
X034721Y009971D01*
X034691Y010043D01*
X034644Y010105D01*
X034582Y010153D01*
X034510Y010183D01*
X034432Y010193D01*
D02*
G37*
G36*
X026754Y010100D02*
X026600D01*
Y009946D01*
X026632Y009952D01*
X026701Y009999D01*
X026748Y010068D01*
X026754Y010100D01*
D02*
G37*
G36*
X026500D02*
X026346D01*
X026352Y010068D01*
X026399Y009999D01*
X026468Y009952D01*
X026500Y009946D01*
Y010100D01*
D02*
G37*
G36*
X024600Y010004D02*
Y009850D01*
X024754D01*
X024748Y009882D01*
X024701Y009951D01*
X024632Y009998D01*
X024600Y010004D01*
D02*
G37*
G36*
X024500D02*
X024468Y009998D01*
X024399Y009951D01*
X024352Y009882D01*
X024346Y009850D01*
X024500D01*
Y010004D01*
D02*
G37*
G36*
X027400Y009954D02*
Y009800D01*
X027554D01*
X027548Y009832D01*
X027501Y009901D01*
X027432Y009948D01*
X027400Y009954D01*
D02*
G37*
G36*
X027300D02*
X027268Y009948D01*
X027199Y009901D01*
X027152Y009832D01*
X027146Y009800D01*
X027300D01*
Y009954D01*
D02*
G37*
G36*
X053966Y009871D02*
X053812D01*
X053818Y009839D01*
X053864Y009770D01*
X053934Y009724D01*
X053966Y009717D01*
Y009871D01*
D02*
G37*
G36*
X024754Y009750D02*
X024600D01*
Y009596D01*
X024632Y009602D01*
X024701Y009649D01*
X024748Y009718D01*
X024754Y009750D01*
D02*
G37*
G36*
X024500D02*
X024346D01*
X024352Y009718D01*
X024399Y009649D01*
X024468Y009602D01*
X024500Y009596D01*
Y009750D01*
D02*
G37*
G36*
X018954D02*
X018800D01*
Y009596D01*
X018832Y009602D01*
X018901Y009649D01*
X018948Y009718D01*
X018954Y009750D01*
D02*
G37*
G36*
X018700D02*
X018546D01*
X018552Y009718D01*
X018599Y009649D01*
X018668Y009602D01*
X018700Y009596D01*
Y009750D01*
D02*
G37*
G36*
X030719Y009735D02*
Y009581D01*
X030873D01*
X030867Y009613D01*
X030820Y009682D01*
X030751Y009729D01*
X030719Y009735D01*
D02*
G37*
G36*
X030619D02*
X030587Y009729D01*
X030518Y009682D01*
X030471Y009613D01*
X030465Y009581D01*
X030619D01*
Y009735D01*
D02*
G37*
G36*
X027554Y009700D02*
X027400D01*
Y009546D01*
X027432Y009552D01*
X027501Y009599D01*
X027548Y009668D01*
X027554Y009700D01*
D02*
G37*
G36*
X027300D02*
X027146D01*
X027152Y009668D01*
X027199Y009599D01*
X027268Y009552D01*
X027300Y009546D01*
Y009700D01*
D02*
G37*
G36*
X047678Y009616D02*
X047646Y009609D01*
X047577Y009563D01*
X047556Y009532D01*
X047533Y009525D01*
X047423D01*
X047400Y009532D01*
X047379Y009563D01*
X047310Y009609D01*
X047278Y009616D01*
Y009412D01*
Y009208D01*
X047310Y009214D01*
X047379Y009260D01*
X047400Y009292D01*
X047423Y009298D01*
X047533D01*
X047556Y009292D01*
X047577Y009260D01*
X047646Y009214D01*
X047678Y009208D01*
Y009412D01*
Y009616D01*
D02*
G37*
G36*
X047178D02*
X047146Y009609D01*
X047077Y009563D01*
X047030Y009493D01*
X047024Y009462D01*
X047178D01*
Y009616D01*
D02*
G37*
G36*
X049054Y009550D02*
X048900D01*
Y009396D01*
X048932Y009402D01*
X049001Y009449D01*
X049048Y009518D01*
X049054Y009550D01*
D02*
G37*
G36*
X048800D02*
X048646D01*
X048652Y009518D01*
X048699Y009449D01*
X048768Y009402D01*
X048800Y009396D01*
Y009550D01*
D02*
G37*
G36*
X048404D02*
X048250D01*
Y009396D01*
X048282Y009402D01*
X048351Y009449D01*
X048398Y009518D01*
X048404Y009550D01*
D02*
G37*
G36*
X030873Y009481D02*
X030719D01*
Y009327D01*
X030751Y009333D01*
X030820Y009380D01*
X030867Y009449D01*
X030873Y009481D01*
D02*
G37*
G36*
X030619D02*
X030465D01*
X030471Y009449D01*
X030518Y009380D01*
X030587Y009333D01*
X030619Y009327D01*
Y009481D01*
D02*
G37*
G36*
X047178Y009362D02*
X047024D01*
X047030Y009330D01*
X047077Y009260D01*
X047146Y009214D01*
X047178Y009208D01*
Y009362D01*
D02*
G37*
G36*
X055895Y009320D02*
X055741D01*
X055747Y009288D01*
X055794Y009219D01*
X055863Y009172D01*
X055895Y009166D01*
Y009320D01*
D02*
G37*
G36*
X048800Y009054D02*
X048768Y009048D01*
X048699Y009001D01*
X048652Y008932D01*
X048646Y008900D01*
X048800D01*
Y009054D01*
D02*
G37*
G36*
X048250D02*
Y008900D01*
X048404D01*
X048398Y008932D01*
X048351Y009001D01*
X048282Y009048D01*
X048250Y009054D01*
D02*
G37*
G36*
X048150D02*
X048118Y009048D01*
X048049Y009001D01*
X048002Y008932D01*
X047996Y008900D01*
X048150D01*
Y009054D01*
D02*
G37*
G36*
X055719Y009023D02*
Y008869D01*
X055873D01*
X055867Y008901D01*
X055821Y008970D01*
X055751Y009017D01*
X055719Y009023D01*
D02*
G37*
G36*
X053966D02*
X053934Y009017D01*
X053864Y008970D01*
X053818Y008901D01*
X053812Y008869D01*
X053966D01*
Y009023D01*
D02*
G37*
G36*
X052412D02*
Y008869D01*
X052566D01*
X052560Y008901D01*
X052513Y008970D01*
X052444Y009017D01*
X052412Y009023D01*
D02*
G37*
G36*
X051761D02*
X051729Y009017D01*
X051660Y008970D01*
X051613Y008901D01*
X051607Y008869D01*
X051761D01*
Y009023D01*
D02*
G37*
G36*
X055619D02*
X055587Y009017D01*
X055518Y008970D01*
X055472Y008901D01*
X055465Y008868D01*
X055322D01*
X055316Y008901D01*
X055269Y008970D01*
X055200Y009017D01*
X055168Y009023D01*
Y008819D01*
Y008615D01*
X055200Y008621D01*
X055269Y008668D01*
X055316Y008737D01*
X055322Y008770D01*
X055465D01*
X055472Y008737D01*
X055518Y008668D01*
X055587Y008621D01*
X055619Y008615D01*
Y008819D01*
Y009023D01*
D02*
G37*
G36*
X055068D02*
X055036Y009017D01*
X054967Y008970D01*
X054920Y008901D01*
X054914Y008868D01*
X054771D01*
X054765Y008901D01*
X054718Y008970D01*
X054649Y009017D01*
X054617Y009023D01*
Y008819D01*
Y008615D01*
X054649Y008621D01*
X054718Y008668D01*
X054765Y008737D01*
X054771Y008770D01*
X054914D01*
X054920Y008737D01*
X054967Y008668D01*
X055036Y008621D01*
X055068Y008615D01*
Y008819D01*
Y009023D01*
D02*
G37*
G36*
X054517D02*
X054485Y009017D01*
X054416Y008970D01*
X054369Y008901D01*
X054363Y008868D01*
X054220D01*
X054213Y008901D01*
X054167Y008970D01*
X054098Y009017D01*
X054066Y009023D01*
Y008819D01*
Y008615D01*
X054098Y008621D01*
X054167Y008668D01*
X054213Y008737D01*
X054220Y008770D01*
X054363D01*
X054369Y008737D01*
X054416Y008668D01*
X054485Y008621D01*
X054517Y008615D01*
Y008819D01*
Y009023D01*
D02*
G37*
G36*
X052312D02*
X052280Y009017D01*
X052211Y008970D01*
X052165Y008901D01*
X052158Y008868D01*
X052015D01*
X052009Y008901D01*
X051962Y008970D01*
X051893Y009017D01*
X051861Y009023D01*
Y008819D01*
Y008615D01*
X051893Y008621D01*
X051962Y008668D01*
X052009Y008737D01*
X052015Y008770D01*
X052158D01*
X052165Y008737D01*
X052211Y008668D01*
X052280Y008621D01*
X052312Y008615D01*
Y008819D01*
Y009023D01*
D02*
G37*
G36*
X027400Y008954D02*
Y008800D01*
X027554D01*
X027548Y008832D01*
X027501Y008901D01*
X027432Y008948D01*
X027400Y008954D01*
D02*
G37*
G36*
X027300D02*
X027268Y008948D01*
X027199Y008901D01*
X027152Y008832D01*
X027146Y008800D01*
X027300D01*
Y008954D01*
D02*
G37*
G36*
X048150Y008800D02*
X047996D01*
X047997Y008793D01*
X047984Y008780D01*
X047896Y008721D01*
X047881Y008715D01*
X047870Y008722D01*
X047832Y008748D01*
X047800Y008754D01*
Y008600D01*
X047954D01*
X047953Y008607D01*
X047966Y008620D01*
X048054Y008679D01*
X048069Y008685D01*
X048080Y008678D01*
X048118Y008652D01*
X048150Y008646D01*
Y008800D01*
D02*
G37*
G36*
X047700Y008754D02*
X047668Y008748D01*
X047599Y008701D01*
X047578Y008670D01*
X047555Y008663D01*
X047445D01*
X047422Y008670D01*
X047401Y008701D01*
X047332Y008748D01*
X047300Y008754D01*
Y008550D01*
Y008346D01*
X047332Y008352D01*
X047401Y008399D01*
X047422Y008430D01*
X047445Y008437D01*
X047555D01*
X047578Y008430D01*
X047599Y008399D01*
X047668Y008352D01*
X047700Y008346D01*
Y008550D01*
Y008754D01*
D02*
G37*
G36*
X048404Y008800D02*
X048250D01*
Y008646D01*
X048282Y008652D01*
X048351Y008699D01*
X048398Y008768D01*
X048404Y008800D01*
D02*
G37*
G36*
X055873Y008769D02*
X055719D01*
Y008615D01*
X055751Y008621D01*
X055821Y008668D01*
X055867Y008737D01*
X055873Y008769D01*
D02*
G37*
G36*
X053966D02*
X053812D01*
X053818Y008737D01*
X053864Y008668D01*
X053934Y008621D01*
X053966Y008615D01*
Y008769D01*
D02*
G37*
G36*
X052566D02*
X052412D01*
Y008615D01*
X052444Y008621D01*
X052513Y008668D01*
X052560Y008737D01*
X052566Y008769D01*
D02*
G37*
G36*
X051761D02*
X051607D01*
X051613Y008737D01*
X051660Y008668D01*
X051729Y008621D01*
X051761Y008615D01*
Y008769D01*
D02*
G37*
G36*
X047200Y008754D02*
X047168Y008748D01*
X047099Y008701D01*
X047052Y008632D01*
X047046Y008600D01*
X047200D01*
Y008754D01*
D02*
G37*
G36*
X038500Y008704D02*
Y008550D01*
X038654D01*
X038648Y008582D01*
X038601Y008651D01*
X038532Y008698D01*
X038500Y008704D01*
D02*
G37*
G36*
X038400D02*
X038368Y008698D01*
X038299Y008651D01*
X038252Y008582D01*
X038246Y008550D01*
X038400D01*
Y008704D01*
D02*
G37*
G36*
X027554Y008700D02*
X027400D01*
Y008546D01*
X027432Y008552D01*
X027501Y008599D01*
X027548Y008668D01*
X027554Y008700D01*
D02*
G37*
G36*
X027300D02*
X027146D01*
X027152Y008668D01*
X027199Y008599D01*
X027268Y008552D01*
X027300Y008546D01*
Y008700D01*
D02*
G37*
G36*
X047954Y008500D02*
X047800D01*
Y008346D01*
X047832Y008352D01*
X047901Y008399D01*
X047948Y008468D01*
X047954Y008500D01*
D02*
G37*
G36*
X047200D02*
X047046D01*
X047052Y008468D01*
X047099Y008399D01*
X047168Y008352D01*
X047200Y008346D01*
Y008500D01*
D02*
G37*
G36*
X051485Y008472D02*
X051454Y008465D01*
X051384Y008419D01*
X051338Y008350D01*
X051331Y008318D01*
X051485D01*
Y008472D01*
D02*
G37*
G36*
X054241D02*
X054209Y008465D01*
X054140Y008419D01*
X054094Y008350D01*
X054087Y008317D01*
X053944D01*
X053938Y008350D01*
X053891Y008419D01*
X053822Y008465D01*
X053790Y008472D01*
Y008268D01*
Y008064D01*
X053822Y008070D01*
X053891Y008116D01*
X053938Y008186D01*
X053944Y008219D01*
X054087D01*
X054094Y008186D01*
X054140Y008116D01*
X054209Y008070D01*
X054241Y008064D01*
Y008268D01*
Y008472D01*
D02*
G37*
G36*
X053690D02*
X053658Y008465D01*
X053589Y008419D01*
X053542Y008350D01*
X053536Y008317D01*
X053393D01*
X053387Y008350D01*
X053340Y008419D01*
X053271Y008465D01*
X053239Y008472D01*
Y008268D01*
Y008064D01*
X053271Y008070D01*
X053340Y008116D01*
X053387Y008186D01*
X053393Y008219D01*
X053536D01*
X053542Y008186D01*
X053589Y008116D01*
X053658Y008070D01*
X053690Y008064D01*
Y008268D01*
Y008472D01*
D02*
G37*
G36*
X053139D02*
X053107Y008465D01*
X053038Y008419D01*
X052991Y008350D01*
X052985Y008317D01*
X052842D01*
X052835Y008350D01*
X052789Y008419D01*
X052720Y008465D01*
X052688Y008472D01*
Y008268D01*
Y008064D01*
X052720Y008070D01*
X052789Y008116D01*
X052835Y008186D01*
X052842Y008219D01*
X052985D01*
X052991Y008186D01*
X053038Y008116D01*
X053107Y008070D01*
X053139Y008064D01*
Y008268D01*
Y008472D01*
D02*
G37*
G36*
X052588D02*
X052556Y008465D01*
X052487Y008419D01*
X052440Y008350D01*
X052434Y008317D01*
X052291D01*
X052284Y008350D01*
X052238Y008419D01*
X052168Y008465D01*
X052137Y008472D01*
Y008268D01*
Y008064D01*
X052168Y008070D01*
X052238Y008116D01*
X052284Y008186D01*
X052291Y008219D01*
X052434D01*
X052440Y008186D01*
X052487Y008116D01*
X052556Y008070D01*
X052588Y008064D01*
Y008268D01*
Y008472D01*
D02*
G37*
G36*
X052037D02*
X052005Y008465D01*
X051935Y008419D01*
X051889Y008350D01*
X051882Y008317D01*
X051740D01*
X051733Y008350D01*
X051687Y008419D01*
X051617Y008465D01*
X051585Y008472D01*
Y008268D01*
Y008064D01*
X051617Y008070D01*
X051687Y008116D01*
X051733Y008186D01*
X051740Y008219D01*
X051882D01*
X051889Y008186D01*
X051935Y008116D01*
X052005Y008070D01*
X052037Y008064D01*
Y008268D01*
Y008472D01*
D02*
G37*
G36*
X029600Y008454D02*
Y008300D01*
X029754D01*
X029748Y008332D01*
X029701Y008401D01*
X029632Y008448D01*
X029600Y008454D01*
D02*
G37*
G36*
X029500D02*
X029468Y008448D01*
X029399Y008401D01*
X029352Y008332D01*
X029346Y008300D01*
X029500D01*
Y008454D01*
D02*
G37*
G36*
X038654Y008450D02*
X038500D01*
Y008296D01*
X038532Y008302D01*
X038601Y008349D01*
X038648Y008418D01*
X038654Y008450D01*
D02*
G37*
G36*
X038400D02*
X038246D01*
X038252Y008418D01*
X038299Y008349D01*
X038368Y008302D01*
X038400Y008296D01*
Y008450D01*
D02*
G37*
G36*
X051485Y008218D02*
X051331D01*
X051338Y008186D01*
X051384Y008116D01*
X051454Y008070D01*
X051485Y008064D01*
Y008218D01*
D02*
G37*
G36*
X035200Y008204D02*
Y008050D01*
X035354D01*
X035348Y008082D01*
X035301Y008151D01*
X035232Y008198D01*
X035200Y008204D01*
D02*
G37*
G36*
X035100D02*
X035068Y008198D01*
X034999Y008151D01*
X034952Y008082D01*
X034946Y008050D01*
X035100D01*
Y008204D01*
D02*
G37*
G36*
X029754Y008200D02*
X029600D01*
Y008046D01*
X029632Y008052D01*
X029701Y008099D01*
X029748Y008168D01*
X029754Y008200D01*
D02*
G37*
G36*
X029500D02*
X029346D01*
X029352Y008168D01*
X029399Y008099D01*
X029468Y008052D01*
X029500Y008046D01*
Y008200D01*
D02*
G37*
G36*
X031050Y008054D02*
Y007900D01*
X031204D01*
X031198Y007932D01*
X031151Y008001D01*
X031082Y008048D01*
X031050Y008054D01*
D02*
G37*
G36*
X030950D02*
X030918Y008048D01*
X030849Y008001D01*
X030802Y007932D01*
X030796Y007900D01*
X030950D01*
Y008054D01*
D02*
G37*
G36*
X052412Y007921D02*
Y007767D01*
X052566D01*
X052560Y007798D01*
X052513Y007868D01*
X052444Y007914D01*
X052412Y007921D01*
D02*
G37*
G36*
X051210D02*
X051178Y007914D01*
X051109Y007868D01*
X051062Y007798D01*
X051056Y007767D01*
X051210D01*
Y007921D01*
D02*
G37*
G36*
X052312D02*
X052280Y007914D01*
X052211Y007868D01*
X052165Y007798D01*
X052158Y007765D01*
X052015D01*
X052009Y007798D01*
X051962Y007868D01*
X051893Y007914D01*
X051861Y007921D01*
Y007717D01*
Y007513D01*
X051893Y007519D01*
X051962Y007565D01*
X052009Y007635D01*
X052015Y007668D01*
X052158D01*
X052165Y007635D01*
X052211Y007565D01*
X052280Y007519D01*
X052312Y007513D01*
Y007717D01*
Y007921D01*
D02*
G37*
G36*
X051761D02*
X051729Y007914D01*
X051660Y007868D01*
X051613Y007798D01*
X051607Y007765D01*
X051464D01*
X051458Y007798D01*
X051411Y007868D01*
X051342Y007914D01*
X051310Y007921D01*
Y007717D01*
Y007513D01*
X051342Y007519D01*
X051411Y007565D01*
X051458Y007635D01*
X051464Y007668D01*
X051607D01*
X051613Y007635D01*
X051660Y007565D01*
X051729Y007519D01*
X051761Y007513D01*
Y007717D01*
Y007921D01*
D02*
G37*
G36*
X031204Y007800D02*
X031050D01*
Y007646D01*
X031082Y007652D01*
X031151Y007699D01*
X031198Y007768D01*
X031204Y007800D01*
D02*
G37*
G36*
X030950D02*
X030796D01*
X030802Y007768D01*
X030849Y007699D01*
X030918Y007652D01*
X030950Y007646D01*
Y007800D01*
D02*
G37*
G36*
X046350Y007754D02*
Y007600D01*
X046504D01*
X046498Y007632D01*
X046451Y007701D01*
X046382Y007748D01*
X046350Y007754D01*
D02*
G37*
G36*
X046250D02*
X046218Y007748D01*
X046149Y007701D01*
X046102Y007632D01*
X046096Y007600D01*
X046250D01*
Y007754D01*
D02*
G37*
G36*
X052566Y007667D02*
X052412D01*
Y007513D01*
X052444Y007519D01*
X052513Y007565D01*
X052560Y007635D01*
X052566Y007667D01*
D02*
G37*
G36*
X051210D02*
X051056D01*
X051062Y007635D01*
X051109Y007565D01*
X051178Y007519D01*
X051210Y007513D01*
Y007667D01*
D02*
G37*
G36*
X044750Y007554D02*
Y007400D01*
X044904D01*
X044898Y007432D01*
X044851Y007501D01*
X044782Y007548D01*
X044750Y007554D01*
D02*
G37*
G36*
X044650D02*
X044618Y007548D01*
X044549Y007501D01*
X044502Y007432D01*
X044496Y007400D01*
X044650D01*
Y007554D01*
D02*
G37*
G36*
X046504Y007500D02*
X046350D01*
Y007346D01*
X046382Y007352D01*
X046451Y007399D01*
X046498Y007468D01*
X046504Y007500D01*
D02*
G37*
G36*
X046250D02*
X046096D01*
X046102Y007468D01*
X046149Y007399D01*
X046218Y007352D01*
X046250Y007346D01*
Y007500D01*
D02*
G37*
G36*
X049750Y007404D02*
Y007250D01*
X049904D01*
X049898Y007282D01*
X049851Y007351D01*
X049782Y007398D01*
X049750Y007404D01*
D02*
G37*
G36*
X049650D02*
X049618Y007398D01*
X049549Y007351D01*
X049502Y007282D01*
X049496Y007250D01*
X049650D01*
Y007404D01*
D02*
G37*
G36*
X044904Y007300D02*
X044750D01*
Y007146D01*
X044782Y007152D01*
X044851Y007199D01*
X044898Y007268D01*
X044904Y007300D01*
D02*
G37*
G36*
X044650D02*
X044496D01*
X044502Y007268D01*
X044549Y007199D01*
X044618Y007152D01*
X044650Y007146D01*
Y007300D01*
D02*
G37*
G36*
X049904Y007150D02*
X049750D01*
Y006996D01*
X049782Y007002D01*
X049851Y007049D01*
X049898Y007118D01*
X049904Y007150D01*
D02*
G37*
G36*
X049650D02*
X049496D01*
X049502Y007118D01*
X049549Y007049D01*
X049618Y007002D01*
X049650Y006996D01*
Y007150D01*
D02*
G37*
%LPD*%
D14*
X018300Y008550D02*
Y009017D01*
X018483Y009200D01*
X019291D01*
X023950Y007543D02*
X033550Y006900D01*
X019291Y009200D02*
X019350Y009141D01*
Y008400D02*
Y009141D01*
Y008400D02*
X019450Y008300D01*
X022950Y008000D01*
X023550D01*
X023950Y007600D01*
Y007543D02*
Y007600D01*
X033550Y006900D02*
X045200Y006100D01*
X047450Y006000D01*
X048500Y006100D01*
X049450Y006300D01*
D15*
X018651Y010151D02*
Y010153D01*
X018554Y010250D02*
X018651Y010153D01*
X023799Y012837D02*
X024043Y013081D01*
X023539Y010550D02*
X024340Y011351D01*
X023520Y010700D02*
X024290Y011471D01*
X023500Y010850D02*
X024241Y011591D01*
X023480Y011000D02*
X024191Y011711D01*
X023511Y011200D02*
X024141Y011831D01*
X023541Y011400D02*
X024092Y011951D01*
X024618Y011590D02*
X035538D01*
X024379Y011351D02*
X024618Y011590D01*
X024340Y011351D02*
X024379D01*
X024569Y011710D02*
X035488D01*
X024330Y011471D02*
X024569Y011710D01*
X024290Y011471D02*
X024330D01*
X024519Y011830D02*
X035438D01*
X024280Y011591D02*
X024519Y011830D01*
X024241Y011591D02*
X024280D01*
X024469Y011950D02*
X035389D01*
X024230Y011711D02*
X024469Y011950D01*
X024191Y011711D02*
X024230D01*
X024420Y012070D02*
X035339D01*
X024180Y011831D02*
X024420Y012070D01*
X024141Y011831D02*
X024180D01*
X024380Y012200D02*
X035299D01*
X024131Y011951D02*
X024380Y012200D01*
X024092Y011951D02*
X024131D01*
X024340Y012330D02*
X031849D01*
X024081Y012071D02*
X024340Y012330D01*
X024042Y012071D02*
X024081D01*
X023904Y011933D02*
X024042Y012071D01*
X024359Y012558D02*
X024417Y012616D01*
X024359Y012519D02*
Y012558D01*
X024031Y012191D02*
X024359Y012519D01*
X023992Y012191D02*
X024031D01*
X023854Y012053D02*
X023992Y012191D01*
X024239Y012607D02*
X024367Y012736D01*
X024239Y012568D02*
Y012607D01*
X023982Y012311D02*
X024239Y012568D01*
X023943Y012311D02*
X023982D01*
X023804Y012173D02*
X023943Y012311D01*
X024119Y012657D02*
X024318Y012856D01*
X024119Y012618D02*
Y012657D01*
X023932Y012431D02*
X024119Y012618D01*
X023893Y012431D02*
X023932D01*
X023755Y012293D02*
X023893Y012431D01*
X023999Y012719D02*
X024280Y013000D01*
X023999Y012668D02*
Y012719D01*
X023882Y012551D02*
X023999Y012668D01*
X023831Y012551D02*
X023882D01*
X023693Y012413D02*
X023831Y012551D01*
X023799Y012751D02*
Y012837D01*
X018783Y010550D02*
X023539D01*
X019250Y010700D02*
X023520D01*
X019500Y010850D02*
X023500D01*
X019600Y011000D02*
X023480D01*
X020750Y011200D02*
X023511D01*
X020283Y011400D02*
X023541D01*
X021913Y011933D02*
X023904D01*
X021747Y012053D02*
X023854D01*
X021477Y012173D02*
X023804D01*
X021690Y012293D02*
X023755D01*
X022112Y012413D02*
X023693D01*
X024417Y012616D02*
X030041D01*
X024043Y013081D02*
X024191D01*
X021878Y012647D02*
X022112Y012413D01*
X024251Y007708D02*
X031350Y007250D01*
X019875Y008721D02*
X023629D01*
X024251Y008099D01*
Y007708D02*
Y008099D01*
X022800Y013450D02*
X032300D01*
X022600Y013250D02*
X022800Y013450D01*
X021900Y013250D02*
X022600D01*
X021700Y013050D02*
X021900Y013250D01*
X020900Y013050D02*
X021700D01*
X020400Y012550D02*
X020900Y013050D01*
X019900Y012550D02*
X020400D01*
X018400Y012450D02*
Y012702D01*
X021850Y012872D02*
X021878Y012844D01*
X021850Y012550D02*
Y012872D01*
X021878Y012647D02*
Y012844D01*
X021633Y012350D02*
X021690Y012293D01*
X021443Y012350D02*
X021633D01*
X021393Y012400D02*
X021443Y012350D01*
X021350Y012400D02*
X021393D01*
X047738Y007411D02*
X048130D01*
X031200Y012850D02*
X031250Y012800D01*
X021500Y012150D02*
X021550D01*
X021477Y012173D02*
X021500Y012150D01*
X037205Y012976D02*
X037254D01*
X048000Y007600D02*
X048410Y008010D01*
X020233Y011520D02*
X021501D01*
X020213Y011500D02*
X020233Y011520D01*
X020100Y011500D02*
X020213D01*
X019040Y011810D02*
X019670Y011180D01*
X019050Y012000D02*
X019750Y011300D01*
X020183D01*
X019670Y011180D02*
X020680D01*
X020700Y011200D01*
X020183Y011300D02*
X020283Y011400D01*
X020050Y011800D02*
X020333D01*
X019850Y011600D02*
X020050Y011800D01*
X019800Y011600D02*
X019850D01*
X018710Y011810D02*
X019040D01*
X019050Y011550D02*
X019600Y011000D01*
X018687Y011550D02*
X019050D01*
X018920Y011430D02*
X019500Y010850D01*
X018737Y011430D02*
X018920D01*
X018585Y012000D02*
X019050D01*
X018650Y011750D02*
X018710Y011810D01*
X021345Y011650D02*
X021747Y012053D01*
X020483Y011650D02*
X021345D01*
X020333Y011800D02*
X020483Y011650D01*
X021501Y011520D02*
X021913Y011933D01*
X018400Y012450D02*
X018600Y012250D01*
X018585Y012000D02*
X018585Y012000D01*
X018401Y011816D02*
X018585Y012000D01*
X018250Y011113D02*
X018687Y011550D01*
X018520Y011213D02*
X018737Y011430D01*
X042602Y011150D02*
X045001D01*
X018800Y011150D02*
X019250Y010700D01*
X038920Y010930D02*
X039084Y011095D01*
X018599Y010733D02*
X018783Y010550D01*
X018550Y010733D02*
X018599D01*
X018520Y011039D02*
Y011213D01*
X018493Y011013D02*
X018520Y011039D01*
X018250Y010517D02*
Y011113D01*
X032750Y011100D02*
Y011160D01*
Y011100D02*
X033038Y010812D01*
X032227Y011277D02*
X032633D01*
X032209Y011259D02*
X032227Y011277D01*
X032633D02*
X032750Y011160D01*
X032581Y010969D02*
X033050Y010500D01*
X032581Y010969D02*
Y011046D01*
X032550Y011077D02*
X032581Y011046D01*
X043049Y012240D02*
X043129Y012160D01*
X042610Y012240D02*
X043049D01*
X042050Y012800D02*
X042610Y012240D01*
X043000Y012120D02*
X043080Y012040D01*
X042380Y012120D02*
X043000D01*
X041295Y013205D02*
X042380Y012120D01*
X042980Y011970D02*
X043030Y011920D01*
X042682Y011970D02*
X042980D01*
X042653Y012000D02*
X042682Y011970D01*
X042200Y012000D02*
X042653D01*
X041515Y012685D02*
X042200Y012000D01*
X043300Y012360D02*
X043367D01*
X046097Y010370D02*
X049460D01*
X045850Y010617D02*
X046097Y010370D01*
X045850Y010617D02*
Y010783D01*
X049550Y008900D02*
Y010050D01*
X049350Y010250D02*
X049550Y010050D01*
X046030Y010250D02*
X049350D01*
X049670Y009105D02*
Y010160D01*
X049460Y010370D02*
X049670Y010160D01*
X045981Y010700D02*
X046191Y010490D01*
X049790Y009260D02*
Y010210D01*
X049510Y010490D02*
X049790Y010210D01*
X046191Y010490D02*
X049510D01*
X046350Y010685D02*
X049565D01*
X046285D02*
X046350D01*
X046285D02*
X046350Y010620D01*
X050050Y009300D02*
Y010200D01*
X049565Y010685D02*
X050050Y010200D01*
X046750Y010100D02*
X049150D01*
X049430Y009820D01*
X041406Y010494D02*
X041423Y010510D01*
X049100Y009980D02*
X049300Y009780D01*
X046830Y009980D02*
X049100D01*
X045200Y010967D02*
Y011133D01*
X045190Y010958D02*
X045200Y010967D01*
X045063Y011270D02*
X045200Y011133D01*
X043550Y010790D02*
X043580Y010760D01*
X042510Y010790D02*
X043550D01*
X043580Y010760D02*
X043731D01*
X044049D02*
X044059Y010750D01*
X043751Y010760D02*
X044049D01*
X043741Y010750D02*
X043751Y010760D01*
X043731D02*
X043741Y010750D01*
X044059D02*
X044422D01*
X045463Y009709D02*
X045730D01*
X044422Y010750D02*
X045463Y009709D01*
X044372Y010630D02*
X045802Y009200D01*
X044009Y010630D02*
X044372D01*
X043970Y010500D02*
X044333D01*
X043791Y010630D02*
X043801Y010640D01*
X043691Y010630D02*
X043791D01*
X043681Y010640D02*
X043691Y010630D01*
X043438Y010640D02*
X043681D01*
X043408Y010670D02*
X043438Y010640D01*
X041423Y010510D02*
X043840D01*
X043850Y010520D01*
X041406Y010494D02*
X041406D01*
X041350Y010550D02*
X041406Y010494D01*
X043468Y010390D02*
X043846D01*
X044550Y009686D01*
Y009615D02*
Y009686D01*
Y009615D02*
X044650Y009515D01*
Y009500D02*
Y009515D01*
X043950Y010520D02*
X043970Y010500D01*
X043850Y010520D02*
X043950D01*
X037947Y010830D02*
X037950Y010833D01*
X036589Y010830D02*
X037947D01*
X036571Y010812D02*
X036589Y010830D01*
X041463Y010380D02*
X043458D01*
X041433Y010350D02*
X041463Y010380D01*
X038900Y010230D02*
X041482D01*
X038850Y010110D02*
X041532D01*
X041482Y010230D02*
X041512Y010260D01*
X041532Y010110D02*
X041562Y010140D01*
X043557D02*
X043567Y010150D01*
X041562Y010140D02*
X043557D01*
X038811Y010150D02*
X038850Y010110D01*
X038799Y010150D02*
X038811D01*
X038116Y010833D02*
X038799Y010150D01*
X043508Y010260D02*
X043518Y010270D01*
X041512Y010260D02*
X043508D01*
X038860Y010270D02*
X038900Y010230D01*
X038848Y010270D02*
X038860D01*
X038165Y010953D02*
X038848Y010270D01*
X038950Y010350D02*
X041433D01*
X038227Y011073D02*
X038950Y010350D01*
X043458Y010380D02*
X043468Y010390D01*
X041433Y010750D02*
X041513Y010670D01*
X042400Y010900D02*
X042510Y010790D01*
X041513Y010670D02*
X043408D01*
X038720Y010750D02*
X041433D01*
X038277Y011193D02*
X038720Y010750D01*
X045752Y009080D02*
X046465D01*
X044333Y010500D02*
X045752Y009080D01*
X045802Y009200D02*
X046333D01*
X046050Y009767D02*
X046050Y009767D01*
Y009600D02*
Y009767D01*
Y009600D02*
X046250Y009400D01*
X045112Y011390D02*
X045320Y011182D01*
Y010918D02*
Y011182D01*
X045310Y010908D02*
X045320Y010918D01*
X045310Y010309D02*
Y010908D01*
X043118Y012030D02*
X043382D01*
X038905Y013205D02*
X041295D01*
X038356Y012656D02*
X038905Y013205D01*
X037123Y012656D02*
X038356D01*
X036349Y012150D02*
X038600D01*
X036319Y012180D02*
X036349Y012150D01*
X038600D02*
X038690Y012060D01*
X035399Y012300D02*
X036368D01*
X036383Y012285D01*
X036600Y012550D02*
X036734Y012416D01*
X036100Y011550D02*
X036460Y011190D01*
X035667Y011550D02*
X036100D01*
X035587Y011470D02*
X035667Y011550D01*
X035850Y011350D02*
X035950D01*
X036230Y011070D01*
X035299Y012200D02*
X035399Y012300D01*
X031283Y012600D02*
X031333Y012650D01*
X031117Y012600D02*
X031283D01*
X031067Y012650D02*
X031117Y012600D01*
X025964Y011470D02*
X035587D01*
X025834Y011340D02*
X025964Y011470D01*
X018401Y011716D02*
Y011816D01*
X018370Y011686D02*
X018401Y011716D01*
X042250Y009400D02*
X042600Y009050D01*
X046493Y011380D02*
X046588Y011475D01*
X046783D01*
X046802Y011455D02*
X046925D01*
X046783Y011475D02*
X046802Y011455D01*
X018250Y010517D02*
X018517Y010250D01*
X018554D01*
X024318Y012856D02*
X030977D01*
X024367Y012736D02*
X030091D01*
X035538Y011590D02*
X035648Y011700D01*
X035488Y011710D02*
X035598Y011820D01*
X035339Y012070D02*
X035449Y012180D01*
X031849Y012330D02*
X031969Y012450D01*
X035389Y011950D02*
X035499Y012060D01*
X035438Y011830D02*
X035548Y011940D01*
X034000Y011200D02*
X034250Y010950D01*
X032950Y011200D02*
X034000D01*
X032209Y011135D02*
Y011259D01*
X031799Y012450D02*
X031969Y012620D01*
X030207Y012450D02*
X031799D01*
X030041Y012616D02*
X030207Y012450D01*
X030177Y012650D02*
X030800D01*
X030091Y012736D02*
X030177Y012650D01*
X031333D02*
X031829D01*
X030900D02*
X031067D01*
X031829D02*
X031920Y012740D01*
X031969Y012450D02*
X034050D01*
X035449Y012180D02*
X036319D01*
X036269Y012060D02*
X036649Y011680D01*
X035499Y012060D02*
X036269D01*
X036219Y011940D02*
X036599Y011560D01*
X035548Y011940D02*
X036219D01*
X036169Y011820D02*
X036549Y011440D01*
X035598Y011820D02*
X036169D01*
X036120Y011700D02*
X036510Y011310D01*
X035648Y011700D02*
X036120D01*
X039888Y011095D02*
X039893Y011100D01*
X039084Y011095D02*
X039888D01*
X038898Y011215D02*
X039838D01*
X038833Y011150D02*
X038898Y011215D01*
X038667Y011150D02*
X038833D01*
X038598Y011220D02*
X038667Y011150D01*
X038589Y011220D02*
X038598D01*
X039843D02*
X042532D01*
X039838Y011215D02*
X039843Y011220D01*
X038376Y011433D02*
X038589Y011220D01*
X039893Y011100D02*
X042483D01*
X038810Y011030D02*
X038889Y010950D01*
X038610Y011030D02*
X038810D01*
X038327Y011313D02*
X038610Y011030D01*
X037751Y011313D02*
X038327D01*
X038889Y010950D02*
X038920D01*
Y010930D02*
Y010950D01*
X039788Y011335D02*
X039793Y011340D01*
X038878Y011335D02*
X039788D01*
X038873Y011340D02*
X038878Y011335D01*
X038760Y011340D02*
X038873D01*
X038750Y011350D02*
X038760Y011340D01*
X039744Y011460D02*
X042632D01*
X039739Y011455D02*
X039744Y011460D01*
X038928Y011455D02*
X039739D01*
X038813Y011570D02*
X038928Y011455D01*
X040379Y011580D02*
X042682D01*
X039959Y012000D02*
X040379Y011580D01*
X040670Y011700D02*
X042731D01*
X040100Y012270D02*
X040670Y011700D01*
X040150Y012390D02*
X040190Y012350D01*
X040031Y012390D02*
X040150D01*
X040005Y012416D02*
X040031Y012390D01*
X040350Y012350D02*
X040850Y011850D01*
X040190Y012350D02*
X040350D01*
X036734Y012416D02*
X040005D01*
X033909Y012620D02*
X034019Y012730D01*
X031969Y012620D02*
X033909D01*
X033859Y012740D02*
X033969Y012850D01*
X031920Y012740D02*
X033859D01*
X034050Y012450D02*
X034150Y012550D01*
X036600D01*
X039483Y012270D02*
X040100D01*
X039468Y012285D02*
X039483Y012270D01*
X036383Y012285D02*
X039468D01*
X038690Y012060D02*
X039035Y011715D01*
X039488Y011735D02*
X039550D01*
X039468Y011715D02*
X039488Y011735D01*
X039035Y011715D02*
X039468D01*
X039767Y012000D02*
X039959D01*
X038690Y012060D02*
X038690D01*
X039550Y011735D02*
Y011783D01*
X039767Y012000D01*
X038591Y011680D02*
X038701Y011570D01*
X038813D01*
X036599Y011560D02*
X038540D01*
X038698Y011402D01*
X037851Y011073D02*
X038227D01*
X037801Y011193D02*
X038277D01*
X037900Y010953D02*
X038165D01*
X037950Y010833D02*
X038116D01*
X036549Y011440D02*
X038350D01*
X038357Y011433D01*
X038376D01*
X039232Y013085D02*
X040832D01*
X038683Y012536D02*
X039232Y013085D01*
X038575Y013325D02*
X042134D01*
X033333Y013445D02*
X042184D01*
X042970Y012659D01*
X040832Y013085D02*
X041232Y012685D01*
X042134Y013325D02*
X042920Y012539D01*
X038050Y012800D02*
X038575Y013325D01*
X037074Y012536D02*
X038683D01*
X033008Y013120D02*
X033333Y013445D01*
X040850Y011850D02*
X042930D01*
X036649Y011680D02*
X038591D01*
X036879Y012730D02*
X037074Y012536D01*
X034019Y012730D02*
X036879D01*
X036929Y012850D02*
X037123Y012656D01*
X033969Y012850D02*
X036929D01*
X036979Y012970D02*
X037173Y012776D01*
X033920Y012970D02*
X036979D01*
X033895Y012945D02*
X033920Y012970D01*
X033735Y012945D02*
X033895D01*
X033650Y012860D02*
X033735Y012945D01*
X037339Y012776D02*
X037363Y012800D01*
X038050D01*
X037173Y012776D02*
X037339D01*
X037254Y012976D02*
X037256D01*
X037081Y013090D02*
X037195Y012976D01*
X033710Y013090D02*
X037081D01*
X031002Y012831D02*
X031180D01*
X030977Y012856D02*
X031002Y012831D01*
X024280Y013000D02*
X031283D01*
X024230Y013120D02*
X032448D01*
X032652D02*
X033008D01*
X032633Y013100D02*
X032652Y013120D01*
X032467Y013100D02*
X032633D01*
X032448Y013120D02*
X032467Y013100D01*
X031180Y012831D02*
X031200Y012850D01*
X031870Y012860D02*
X033650D01*
X031810Y012800D02*
X031870Y012860D01*
X031250Y012800D02*
X031810D01*
X031283Y013000D02*
X031302Y012980D01*
X033600D01*
X033710Y013090D01*
X024191Y013081D02*
X024230Y013120D01*
X042930Y011850D02*
X042990Y011790D01*
X044860D01*
X044960Y011890D01*
X045182Y011530D02*
X045449D01*
X045162Y011510D02*
X045182Y011530D01*
X045509Y011590D02*
X046103D01*
X045449Y011530D02*
X045509Y011590D01*
X046310Y011770D02*
X046508D01*
X046300Y011760D02*
X046310Y011770D01*
X046203Y011760D02*
X046300D01*
X046152Y011710D02*
X046203Y011760D01*
X045460Y011710D02*
X046152D01*
X045400Y011650D02*
X045460Y011710D01*
X042781Y011650D02*
X045400D01*
X042731Y011700D02*
X042781Y011650D01*
X046790Y011760D02*
X047550Y011000D01*
X046518Y011760D02*
X046790D01*
X046508Y011770D02*
X046518Y011760D01*
X042652Y011270D02*
X045063D01*
X046312Y011380D02*
X046493D01*
X046103Y011590D02*
X046312Y011380D01*
X042752Y011510D02*
X045162D01*
X042682Y011580D02*
X042752Y011510D01*
X042702Y011390D02*
X045112D01*
X042632Y011460D02*
X042702Y011390D01*
X042582Y011340D02*
X042652Y011270D01*
X039793Y011340D02*
X042582D01*
X043644Y012131D02*
X043913Y012400D01*
X043631Y012131D02*
X043644D01*
X043390Y012160D02*
X043750Y012520D01*
X043260Y012360D02*
X043300D01*
X043250Y012350D02*
X043260Y012360D01*
X043080Y012040D02*
X043108D01*
X043382Y012030D02*
X043392Y012040D01*
X043502D01*
X043612Y012150D01*
X043631Y012131D01*
X043157Y012160D02*
X043167Y012150D01*
X043333D01*
X043343Y012160D01*
X043390D01*
X043129D02*
X043157D01*
X043108Y012040D02*
X043118Y012030D01*
X043030Y011920D02*
X043058D01*
X043367Y012360D02*
X043647Y012640D01*
X043507Y012670D02*
X043597Y012760D01*
X043164Y012670D02*
X043507D01*
X043750Y012520D02*
X046854D01*
X043061Y012539D02*
X043250Y012350D01*
X047550Y011000D02*
X048100D01*
X047540Y011180D02*
X047997D01*
X044960Y011890D02*
X044970Y011880D01*
X046250D01*
X046260Y011890D01*
X046558D01*
X047200Y012000D02*
X047880Y011320D01*
X046558Y011890D02*
X046568Y011880D01*
X046840D01*
X047540Y011180D01*
X046617Y012000D02*
X047200D01*
X044888Y012010D02*
X046607D01*
X044788Y011910D02*
X044888Y012010D01*
X043068Y011910D02*
X044788D01*
X046930Y012200D02*
X046990Y012140D01*
X046700Y012200D02*
X046930D01*
X046607Y012010D02*
X046617Y012000D01*
X046953Y012760D02*
X046993Y012720D01*
X046903Y012640D02*
X046943Y012600D01*
X046854Y012520D02*
X046893Y012480D01*
X046804Y012400D02*
X046844Y012360D01*
X043913Y012400D02*
X046804D01*
X043647Y012640D02*
X046903D01*
X043597Y012760D02*
X046953D01*
X046844Y012360D02*
X047031D01*
X046893Y012480D02*
X047080D01*
X046943Y012600D02*
X047130D01*
X046993Y012720D02*
X047180D01*
X047031Y012360D02*
X047121Y012270D01*
X047080Y012480D02*
X047171Y012390D01*
X047220Y012510D02*
X050629D01*
X047130Y012600D02*
X047220Y012510D01*
X047270Y012630D02*
X050679D01*
X047180Y012720D02*
X047270Y012630D01*
X043152Y012659D02*
X043164Y012670D01*
X042970Y012659D02*
X043152D01*
X046925Y011075D02*
Y011455D01*
X046750Y010900D02*
X046925Y011075D01*
X047880Y011320D02*
X048430D01*
X042532Y011220D02*
X042602Y011150D01*
X042600Y010950D02*
X044394D01*
X043999Y010640D02*
X044009Y010630D01*
X043801Y010640D02*
X043999D01*
X042600Y010950D02*
Y010983D01*
X042483Y011100D02*
X042600Y010983D01*
X043896Y010170D02*
X044350Y009716D01*
X043882Y010170D02*
X043896D01*
X043782Y010270D02*
X043882Y010170D01*
X043518Y010270D02*
X043782D01*
X043833Y010050D02*
X043846D01*
X043733Y010150D02*
X043833Y010050D01*
X043567Y010150D02*
X043733D01*
X043846Y010050D02*
X044100Y009796D01*
X039850Y009350D02*
X040250Y009750D01*
X035800Y009350D02*
X039850D01*
X040250Y009750D02*
X040750D01*
X037749Y011310D02*
X037751Y011313D01*
X036510Y011310D02*
X037749D01*
X037898Y010950D02*
X037900Y010953D01*
X034250Y010950D02*
X037898D01*
X033038Y010812D02*
X036571D01*
X037798Y011190D02*
X037801Y011193D01*
X036460Y011190D02*
X037798D01*
X037848Y011070D02*
X037851Y011073D01*
X036230Y011070D02*
X037848D01*
X043058Y011920D02*
X043068Y011910D01*
X044350Y009600D02*
Y009716D01*
X044100Y009700D02*
Y009796D01*
X047997Y011180D02*
X048017Y011200D01*
X048250D01*
X048400Y011050D01*
X048430Y011320D02*
X048700Y011050D01*
X041232Y012685D02*
X041515D01*
X042050Y009450D02*
X042420Y009820D01*
X042050Y009250D02*
Y009450D01*
Y009250D02*
X042750Y008550D01*
X029900Y010750D02*
X030300D01*
X037229Y013000D02*
X037254Y012976D01*
X037205D02*
X037229Y013000D01*
X037256Y012976D02*
X037315Y013035D01*
X032450Y013300D02*
X032550D01*
X032300Y013450D02*
X032450Y013300D01*
X043080Y008632D02*
Y008670D01*
X042700Y009050D02*
X043080Y008670D01*
X042600Y009050D02*
X042700D01*
X043080Y008670D02*
X043100Y008690D01*
X047009Y006352D02*
X048308D01*
X048130Y007411D02*
X048244Y007526D01*
X046465Y009080D02*
X046595Y009210D01*
X046475Y009342D02*
Y009825D01*
X046333Y009200D02*
X046475Y009342D01*
X046595Y009210D02*
Y009745D01*
X042420Y009820D02*
Y009830D01*
X044050Y009600D02*
Y009650D01*
X044100Y009700D01*
X045800Y010110D02*
X046050Y009860D01*
Y009767D02*
Y009860D01*
X045930Y009495D02*
Y009718D01*
X045900Y009465D02*
X045930Y009495D01*
X045750Y009990D02*
X045930Y009810D01*
Y009718D02*
Y009810D01*
Y009718D02*
X045930Y009718D01*
X046475Y009825D02*
X046750Y010100D01*
X046595Y009745D02*
X046830Y009980D01*
X045460Y009990D02*
X045750D01*
X045190Y010260D02*
X045460Y009990D01*
X045509Y010110D02*
X045800D01*
X045310Y010309D02*
X045509Y010110D01*
X045650Y010450D02*
X045678D01*
X045981Y010700D02*
X046050D01*
X050679Y012630D02*
X051180Y012129D01*
X050362Y007710D02*
X051180Y008528D01*
X050629Y012510D02*
X051060Y012080D01*
X050313Y007830D02*
X051060Y008577D01*
X050580Y012390D02*
X050940Y012030D01*
X050750Y008550D02*
X050940Y008740D01*
X050530Y012270D02*
X050820Y011980D01*
X050500Y008620D02*
X050820Y008940D01*
X050195Y012140D02*
X050700Y011635D01*
Y009250D02*
Y011635D01*
X050050Y008600D02*
X050700Y009250D01*
X050820Y008940D02*
Y011980D01*
X050940Y008740D02*
Y012030D01*
X051060Y008577D02*
Y012080D01*
X051180Y008528D02*
Y012129D01*
X048660Y007710D02*
X050362D01*
X049668Y007830D02*
X050313D01*
X050500Y008500D02*
Y008620D01*
X049950Y007950D02*
X050500Y008500D01*
X048500Y007550D02*
X048660Y007710D01*
X049717Y007950D02*
X049950D01*
X049430Y008746D02*
X049800Y008376D01*
X049746Y008704D02*
X049754D01*
X049550Y008900D02*
X049746Y008704D01*
X049608Y007890D02*
X049668Y007830D01*
X048460Y007890D02*
X049608D01*
X049657Y008010D02*
X049717Y007950D01*
X048410Y008010D02*
X049657D01*
X049800Y008150D02*
Y008376D01*
X047980Y007620D02*
Y007628D01*
Y007620D02*
X048000Y007600D01*
X047489Y007589D02*
X047574Y007674D01*
X047460Y007589D02*
X047489D01*
X048244Y007526D02*
Y007674D01*
X049240Y006650D02*
X050345D01*
X049099Y006509D02*
X049240Y006650D01*
X049290Y006530D02*
X050020D01*
X049149Y006389D02*
X049290Y006530D01*
X050020D02*
X050100Y006450D01*
X045728Y010500D02*
X045858Y010370D01*
X045190Y010260D02*
Y010958D01*
X045678Y010450D02*
X045728Y010500D01*
X045860Y010793D02*
Y011090D01*
X045850Y010783D02*
X045860Y010793D01*
X045700Y011250D02*
X045860Y011090D01*
X046350Y010685D02*
Y010750D01*
X045858Y010370D02*
X045910D01*
X046030Y010250D01*
X048244Y007674D02*
X048460Y007890D01*
X047738Y007411D02*
X047750Y007423D01*
X047740Y007433D02*
X047750Y007423D01*
X047740Y007433D02*
Y007472D01*
X046990Y012140D02*
X050195D01*
X046350Y010620D02*
Y010685D01*
X048390Y006360D02*
X048450Y006420D01*
X048390Y006360D02*
X048390D01*
X048308Y006352D02*
X048390Y006360D01*
X048308Y006352D02*
X048308Y006352D01*
X049010Y006490D02*
X049010Y006490D01*
X048677Y006420D02*
X049010Y006490D01*
X048450Y006420D02*
X048677D01*
X047121Y012270D02*
X050530D01*
X047171Y012390D02*
X050580D01*
X042920Y012539D02*
X043061D01*
X035450Y007500D02*
X035872Y007078D01*
X047009Y006352D01*
X048022Y006200D02*
X048022Y006200D01*
X047450Y006200D02*
X048022D01*
X031350Y007250D02*
X047450Y006200D01*
X049099Y006509D02*
X049099D01*
X049010Y006490D02*
X049099Y006509D01*
X048440Y006240D02*
X048500Y006300D01*
X048022Y006200D02*
X048440Y006240D01*
X048500Y006300D02*
X048727D01*
X049149Y006389D01*
X047574Y007674D02*
X047674D01*
X048250Y008250D01*
X035150Y007500D02*
X035450D01*
X042250Y009350D02*
Y009400D01*
X049300Y008750D02*
Y009780D01*
X048800Y008250D02*
X049300Y008750D01*
X048250Y008250D02*
X048800D01*
X050345Y006650D02*
X050445Y006550D01*
X050450D01*
X049430Y008746D02*
Y009820D01*
X049750Y009000D02*
Y009025D01*
X049670Y009105D02*
X049750Y009025D01*
X049790Y009260D02*
X050050Y009000D01*
D88*
X020824Y012157D02*
D03*
D89*
X047380Y012870D02*
X047400Y012850D01*
X047055Y012870D02*
X047380D01*
X043255Y012820D02*
X043445D01*
X043223Y012852D02*
X043255Y012820D01*
X043088Y012852D02*
X043223D01*
X043061Y012879D02*
X043088Y012852D01*
X043445Y012820D02*
X043535Y012910D01*
X047015D02*
X047055Y012870D01*
X043535Y012910D02*
X047015D01*
X037800Y007900D02*
X038550Y007150D01*
X047372Y006502D02*
X047852D01*
X047900Y006550D01*
X050375Y009475D02*
Y011025D01*
X050400Y011050D01*
X046409Y006556D02*
X047062Y006512D01*
X038650Y007085D02*
X046409Y006556D01*
X046400Y006575D02*
X046409Y006565D01*
X046400Y006575D02*
Y006956D01*
X046378Y006978D02*
X046400Y006956D01*
X047371Y006503D02*
X047372Y006502D01*
X047900Y006550D02*
X048350Y006650D01*
X048800Y006700D01*
X047062Y006512D02*
X047371Y006503D01*
X038550Y007150D02*
X038650Y007085D01*
X036488Y010612D02*
X036500Y010600D01*
D90*
X045440Y011337D02*
X045563Y011460D01*
X045440Y011246D02*
Y011337D01*
Y011246D02*
X045450Y011236D01*
Y010864D02*
Y011236D01*
X045440Y010854D02*
X045450Y010864D01*
X045440Y010363D02*
Y010854D01*
X046250Y009850D02*
Y009872D01*
X046700Y011275D02*
Y011300D01*
X038982Y011585D02*
X039635D01*
X039850Y011800D01*
X038637Y011930D02*
X038982Y011585D01*
X038420Y011930D02*
X038637D01*
X038400Y011950D02*
X038420Y011930D01*
X046547Y011250D02*
X046623Y011327D01*
X046049Y011460D02*
X046259Y011250D01*
X045563Y011460D02*
X046049D01*
X046259Y011250D02*
X046547D01*
X046673Y011327D02*
X046700Y011300D01*
X046623Y011327D02*
X046673D01*
X045440Y010363D02*
X045563Y010240D01*
X045854D01*
X045974Y010120D01*
X046002D01*
X046250Y009872D01*
D91*
X022278Y012813D02*
D03*
D92*
X023278D02*
D03*
D93*
X039350Y012800D02*
D03*
Y012000D02*
D03*
X041350Y012400D02*
D03*
D94*
X033725Y009894D02*
D03*
Y009187D02*
D03*
X034432D02*
D03*
Y009894D02*
D03*
D95*
X019875Y008721D02*
D03*
X018875D02*
D03*
D96*
X018651Y010151D02*
D03*
X023799Y012751D02*
D03*
X018300Y008550D02*
D03*
X018483Y012702D02*
D03*
X019900Y012550D02*
D03*
X021850D02*
D03*
X021550Y012150D02*
D03*
X021350Y012400D02*
D03*
X020100Y011500D02*
D03*
X019800Y011600D02*
D03*
X018600Y012250D02*
D03*
X018650Y011750D02*
D03*
X020700Y011200D02*
D03*
X018800Y011150D02*
D03*
X055945Y009370D02*
D03*
X055669Y008819D02*
D03*
X055118D02*
D03*
X054567D02*
D03*
X054843Y008268D02*
D03*
X054016Y009921D02*
D03*
Y008819D02*
D03*
X054291Y008268D02*
D03*
X053465Y013228D02*
D03*
Y012126D02*
D03*
X053740Y011575D02*
D03*
X053465Y011024D02*
D03*
X053740Y010472D02*
D03*
Y008268D02*
D03*
X052913Y013228D02*
D03*
X053189Y012677D02*
D03*
X052913Y012126D02*
D03*
X053189Y011575D02*
D03*
X052913Y011024D02*
D03*
X053189Y010472D02*
D03*
Y008268D02*
D03*
X052638Y010472D02*
D03*
X052362Y008819D02*
D03*
X052638Y008268D02*
D03*
X052362Y007717D02*
D03*
X052087Y010472D02*
D03*
X051811Y008819D02*
D03*
X052087Y008268D02*
D03*
X051811Y007717D02*
D03*
X051535Y010472D02*
D03*
Y008268D02*
D03*
X051260Y007717D02*
D03*
X041350Y010550D02*
D03*
X035850Y011350D02*
D03*
X046700Y011275D02*
D03*
X018027Y011148D02*
D03*
X018370Y011686D02*
D03*
X018493Y011013D02*
D03*
X018550Y010733D02*
D03*
X024500Y011189D02*
D03*
X029900Y011200D02*
D03*
X032950D02*
D03*
X033050Y010500D02*
D03*
X032550Y011077D02*
D03*
X032209Y011135D02*
D03*
X025834Y011340D02*
D03*
X038920Y010950D02*
D03*
X039850Y011800D02*
D03*
X038750Y011350D02*
D03*
X038650Y010000D02*
D03*
X038400Y011950D02*
D03*
X030900Y012650D02*
D03*
X045000Y011050D02*
D03*
X043644Y012131D02*
D03*
X043300Y012360D02*
D03*
X046700Y012200D02*
D03*
X045700Y011250D02*
D03*
X044450Y010950D02*
D03*
X042400Y010900D02*
D03*
X043650Y009950D02*
D03*
X040750Y009750D02*
D03*
X027200Y010900D02*
D03*
X038033Y010633D02*
D03*
X048400Y011050D02*
D03*
X048100Y011000D02*
D03*
X018750Y009800D02*
D03*
X018600Y010450D02*
D03*
X050750Y008550D02*
D03*
X042050Y012800D02*
D03*
X035800Y009350D02*
D03*
X031000Y007850D02*
D03*
X029550Y008250D02*
D03*
X029850Y010750D02*
D03*
X030300D02*
D03*
X037256Y012976D02*
D03*
X032550Y013300D02*
D03*
X031200Y012800D02*
D03*
X031950Y010900D02*
D03*
X030669Y009531D02*
D03*
X027350Y009750D02*
D03*
Y008750D02*
D03*
X042750Y008550D02*
D03*
X043080Y008632D02*
D03*
X042700Y009050D02*
D03*
X038450Y008500D02*
D03*
X047250Y006750D02*
D03*
X048750Y012850D02*
D03*
X046250Y009400D02*
D03*
Y009850D02*
D03*
X042420Y009830D02*
D03*
X044050Y009600D02*
D03*
X044950D02*
D03*
X045730Y009709D02*
D03*
X045650Y010450D02*
D03*
X046050Y010700D02*
D03*
X045900Y009465D02*
D03*
X043350Y013050D02*
D03*
X047150Y013100D02*
D03*
X049754Y008704D02*
D03*
X049800Y008150D02*
D03*
X047980Y007628D02*
D03*
X047460Y007589D02*
D03*
X048500Y007550D02*
D03*
X046350Y010750D02*
D03*
X046750Y010900D02*
D03*
X050050Y008600D02*
D03*
X047740Y007472D02*
D03*
X049700Y007200D02*
D03*
X046300Y007550D02*
D03*
X044700Y007350D02*
D03*
X036488Y010612D02*
D03*
X035150Y008000D02*
D03*
X028700Y010950D02*
D03*
X026550Y010150D02*
D03*
X024550Y009800D02*
D03*
X048850Y008850D02*
D03*
Y009600D02*
D03*
X047728Y009412D02*
D03*
X047228D02*
D03*
X047750Y008550D02*
D03*
X047250D02*
D03*
X048200Y008850D02*
D03*
Y009600D02*
D03*
X035150Y007500D02*
D03*
X042250Y009350D02*
D03*
X050450Y006550D02*
D03*
X044350Y009600D02*
D03*
X044650Y009500D02*
D03*
X050100Y006450D02*
D03*
X049450Y006300D02*
D03*
X049750Y009000D02*
D03*
X050050D02*
D03*
Y009300D02*
D03*
X048700Y011050D02*
D03*
D97*
X038132Y010000D02*
D03*
X037800Y007900D02*
D03*
X050375Y009475D02*
D03*
X050400Y011050D02*
D03*
X047400Y012850D02*
D03*
X043061Y012879D02*
D03*
X046378Y006978D02*
D03*
X048800Y006700D02*
D03*
M02*
