M48
;Layer_Color=9474304
;FILE_FORMAT=2:5
INCH,TZ
;TYPE=PLATED
T1F00S00C0.00787
T2F00S00C0.01181
T3F00S00C0.01394
T4F00S00C0.03543
;TYPE=NON_PLATED
T5F00S00C0.03902
%
T01
X25300Y3600
X28006Y4766
X35739Y5639
X49400Y5600
X46700Y8600
X60000Y8500
X79657Y3000
X89600
X98000Y4500
X107340Y2800
X109437
X111200Y1600
X115100Y1500
X117311Y1728
X119300Y2728
X121100Y1728
X123100Y3000
X125000Y1600
X130000Y3396
X129400Y7200
X137600Y1700
X143444Y1816
X145608
X147772
X149936
X152100
X154264
X156428
X158592
X160756
X162920
X165084
X167248
X169412
X171576
X173740
X166166Y3980
X167248Y6144
X166166Y8308
X167248Y10472
X165084
X162920
X161838Y12636
X159674
X160756Y14800
X162920
Y19128
Y23456
Y27784
X161838Y29948
X159674
X157510
X155346
X153182
X142362
X140198
X148854Y21292
X151018
X151000Y11500
X145969Y12743
X136500Y13400
X134933Y14826
X132858Y14000
X130798Y15273
X131000Y19100
X133444Y17705
X130589Y25049
X131500Y27200
X134200Y30800
X115342Y30728
X111406
X108500
X102392Y29422
X101500Y25000
X101800Y21200
X96605Y20561
X92600Y20300
X90500Y20000
X93515Y24300
X98500Y27500
X99600Y16600
X93413Y14927
X88130Y14178
X89200Y10200
X77500Y14000
X78000Y18700
X83766Y21996
X79167Y27272
X69733Y27267
X64600Y26600
X64000Y22900
X66641Y22083
X62771Y16389
X65000Y12500
X59737Y11045
X57100Y28900
X51900Y30800
X48172Y30745
X38670Y27370
X40300Y19100
X37300Y13900
X37600Y10900
X29752Y10206
X17000Y10000
X16678Y12141
X13312Y12909
X15600Y18200
X17206Y26625
X25100Y30200
X31800Y30900
X7000Y11632
T02
X108000Y8000
X123500
X119500Y13000
X113500
X108000
Y17500
Y25000
X115000Y22600
X116100Y16800
X123000Y18000
X125500Y24500
X78964Y22126
X31701Y19651
X32400Y10800
X24200Y11200
X19200Y25000
X15436Y22348
T03
X13577Y8978
X6860Y26444
T04
X161500Y6500
X171500
T05
X6966Y8100
X10966Y28100
X2966
M30
