G04*
G04 #@! TF.GenerationSoftware,Altium Limited,Altium Designer,20.0.13 (296)*
G04*
G04 Layer_Physical_Order=4*
G04 Layer_Color=1930808*
%FSAX25Y25*%
%MOIN*%
G70*
G01*
G75*
%ADD10C,0.01000*%
%ADD15C,0.00800*%
%ADD16C,0.00600*%
%ADD22R,0.02165X0.02165*%
%ADD27C,0.01575*%
%ADD29R,0.02165X0.02165*%
%ADD61C,0.00400*%
%ADD62C,0.01200*%
%ADD64C,0.01800*%
%ADD70C,0.01949*%
%ADD71R,0.05906X0.05906*%
%ADD72C,0.05906*%
%ADD73C,0.01181*%
%ADD74C,0.02362*%
%ADD75C,0.03000*%
%ADD78R,0.01890X0.02539*%
%ADD79R,0.03740X0.03543*%
%ADD80R,0.02559X0.01378*%
%ADD81R,0.04331X0.06693*%
%ADD82R,0.03150X0.01181*%
%ADD83R,0.06890X0.06102*%
%ADD84R,0.02756X0.02953*%
%ADD85R,0.02362X0.04724*%
%ADD86R,0.04528X0.05709*%
%ADD87R,0.03937X0.03543*%
%ADD88R,0.01575X0.05315*%
%ADD89R,0.08661X0.06299*%
%ADD90R,0.07087X0.07480*%
%ADD91R,0.07480X0.07480*%
%ADD92R,0.01181X0.04331*%
%ADD93R,0.03937X0.07087*%
G36*
X0336851Y0160315D02*
X0336977Y0160009D01*
X0337283Y0159882D01*
X0349000D01*
Y0148000D01*
X0313129D01*
X0313070Y0148476D01*
X0313070D01*
Y0150582D01*
X0313620D01*
Y0150557D01*
X0317055D01*
Y0150449D01*
X0321000D01*
Y0154500D01*
Y0158551D01*
X0318172D01*
X0318160Y0158613D01*
X0317940Y0158940D01*
X0317613Y0159160D01*
X0317321Y0159218D01*
Y0162719D01*
X0313765D01*
Y0162719D01*
X0313384D01*
Y0162719D01*
X0310597D01*
X0310528Y0162733D01*
X0310277D01*
X0309714Y0163296D01*
Y0163829D01*
X0309828Y0164281D01*
X0313384D01*
X0313384Y0164281D01*
X0313765D01*
Y0164281D01*
X0313884Y0164281D01*
X0317321D01*
Y0168034D01*
X0315144D01*
X0315125Y0168133D01*
X0314970Y0168364D01*
X0305723Y0177612D01*
X0305534Y0177895D01*
X0305206Y0178114D01*
X0304819Y0178190D01*
X0304433Y0178114D01*
X0304105Y0177895D01*
X0303887Y0177567D01*
X0303810Y0177181D01*
X0303887Y0176794D01*
X0304105Y0176466D01*
X0304433Y0176247D01*
X0304819Y0176171D01*
X0305091Y0176225D01*
X0310854Y0170462D01*
X0310608Y0170001D01*
X0310563Y0170010D01*
X0310176Y0169933D01*
X0310129Y0169902D01*
X0310090Y0169891D01*
X0309509Y0170004D01*
X0309484Y0170026D01*
X0306010Y0173500D01*
X0306010Y0173500D01*
X0305933Y0173887D01*
X0305714Y0174214D01*
X0305386Y0174433D01*
X0305000Y0174510D01*
X0304613Y0174433D01*
X0304286Y0174214D01*
X0304067Y0173887D01*
X0304063Y0173869D01*
X0303914Y0173501D01*
X0303520Y0173506D01*
X0303500Y0173510D01*
X0303114Y0173433D01*
X0303090Y0173418D01*
X0302283D01*
Y0174917D01*
X0302883D01*
Y0176500D01*
X0300800D01*
Y0177500D01*
X0302883D01*
Y0179083D01*
X0303256Y0179390D01*
X0336851D01*
Y0160315D01*
D02*
G37*
%LPC*%
G36*
X0323500Y0160010D02*
X0323113Y0159933D01*
X0322786Y0159714D01*
X0322567Y0159387D01*
X0322490Y0159000D01*
X0322070Y0158551D01*
X0322000D01*
Y0154500D01*
Y0150449D01*
X0325945D01*
Y0150557D01*
X0329380D01*
Y0152598D01*
X0330952D01*
X0331071Y0152309D01*
X0331609Y0151609D01*
X0332309Y0151071D01*
X0333125Y0150733D01*
X0334000Y0150618D01*
X0334875Y0150733D01*
X0335691Y0151071D01*
X0336391Y0151609D01*
X0336929Y0152309D01*
X0337266Y0153125D01*
X0337382Y0154000D01*
X0337266Y0154875D01*
X0336929Y0155691D01*
X0336391Y0156391D01*
X0335691Y0156929D01*
X0334875Y0157266D01*
X0334000Y0157382D01*
X0333125Y0157266D01*
X0332309Y0156929D01*
X0331609Y0156391D01*
X0331071Y0155691D01*
X0330734Y0154875D01*
X0330675Y0154433D01*
X0329380D01*
Y0158443D01*
X0327552D01*
X0327406Y0158472D01*
X0327259Y0158443D01*
X0327242D01*
X0327179Y0158765D01*
X0326980Y0159063D01*
X0326394Y0159649D01*
X0326096Y0159848D01*
X0325745Y0159918D01*
X0323910D01*
X0323886Y0159933D01*
X0323500Y0160010D01*
D02*
G37*
%LPD*%
D10*
X0184700Y0165641D02*
X0188041D01*
X0188100Y0165700D01*
X0183300Y0162700D02*
X0184638Y0164038D01*
Y0165579D01*
X0184700Y0165641D01*
X0310000Y0156453D02*
X0310925D01*
X0309000Y0159322D02*
Y0161100D01*
X0307300Y0159991D02*
Y0162126D01*
X0309000Y0159322D02*
X0309856Y0158466D01*
X0315595Y0157453D02*
X0316453D01*
X0317226Y0158226D01*
X0309856Y0158466D02*
X0311061D01*
X0312000Y0157528D01*
X0310925Y0156453D02*
X0312000Y0157528D01*
X0300800Y0170000D02*
Y0171750D01*
X0307034Y0162100D02*
X0307190Y0161944D01*
X0306836Y0157405D02*
Y0159526D01*
X0307300Y0159991D01*
X0306991Y0162100D02*
Y0167509D01*
X0306208Y0156778D02*
X0306836Y0157405D01*
X0183300Y0156400D02*
Y0158100D01*
Y0154700D02*
Y0156400D01*
X0186000D02*
X0186077Y0156477D01*
X0183300Y0156400D02*
X0186000D01*
X0180369Y0168200D02*
Y0172447D01*
X0179150Y0173665D02*
X0180369Y0172447D01*
X0179150Y0173665D02*
Y0173944D01*
X0179107Y0173900D02*
X0179150Y0173944D01*
X0176500Y0171700D02*
X0178700Y0173900D01*
X0179107D01*
X0176039Y0170759D02*
X0176111D01*
X0176500Y0171148D01*
Y0171700D01*
X0273496Y0168609D02*
X0277300Y0172414D01*
Y0175000D01*
X0209010Y0168809D02*
X0213674D01*
X0207400Y0167200D02*
X0209010Y0168809D01*
X0204700Y0167200D02*
X0207400D01*
X0213674Y0168809D02*
X0214206Y0169341D01*
X0218959D01*
X0196700Y0154826D02*
Y0158700D01*
X0194539Y0154713D02*
X0194579Y0154673D01*
X0327500Y0151500D02*
Y0153008D01*
X0179500Y0159132D02*
X0179656D01*
X0218959Y0169341D02*
X0219250Y0169050D01*
Y0166329D02*
Y0169050D01*
Y0166329D02*
X0219500Y0166079D01*
X0300800Y0171750D02*
Y0173500D01*
X0301300Y0170500D02*
X0304000D01*
X0300800Y0170000D02*
X0301300Y0170500D01*
X0304000D02*
X0306991Y0167509D01*
X0299000Y0168200D02*
X0300800Y0170000D01*
X0299000Y0165300D02*
Y0168200D01*
X0300800Y0171750D02*
X0301550Y0172500D01*
X0303500D01*
X0271700Y0158000D02*
X0274000D01*
X0269000Y0160700D02*
X0271700Y0158000D01*
X0311000Y0151500D02*
X0315547D01*
X0310953Y0150547D02*
X0311000Y0150500D01*
X0326331Y0157543D02*
Y0158414D01*
X0325745Y0159000D02*
X0326331Y0158414D01*
X0323500Y0159000D02*
X0325745D01*
X0310000Y0150547D02*
X0310953D01*
X0332673Y0154000D02*
X0334000D01*
X0327406Y0153516D02*
X0331188D01*
D15*
X0214732Y0150939D02*
Y0151264D01*
X0215376Y0151909D01*
X0215701D01*
X0219092Y0155300D01*
Y0155992D01*
X0219200Y0156100D01*
X0235300Y0170766D02*
X0238434Y0173900D01*
X0240434D01*
X0241527Y0175327D02*
X0241600Y0175400D01*
X0241527Y0174994D02*
Y0175327D01*
X0240434Y0173900D02*
X0241527Y0174994D01*
X0235300Y0167000D02*
Y0170766D01*
X0214171Y0151500D02*
X0214732Y0150939D01*
X0278454Y0175683D02*
X0281000Y0178228D01*
X0277983Y0175683D02*
X0278454D01*
X0277300Y0175000D02*
X0277983Y0175683D01*
X0176000Y0152500D02*
X0178100D01*
X0320516Y0152516D02*
X0321500Y0153500D01*
X0315595Y0153516D02*
X0320516D01*
D16*
X0216600Y0160600D02*
X0219000Y0158200D01*
X0215400Y0160600D02*
X0216600D01*
X0219089Y0156211D02*
X0219200Y0156100D01*
X0219089Y0156211D02*
Y0156622D01*
X0219000Y0156711D02*
X0219089Y0156622D01*
X0219000Y0156711D02*
Y0158200D01*
X0209800Y0161400D02*
X0214339Y0156861D01*
X0216700D01*
X0188500Y0159000D02*
X0192517Y0163016D01*
X0220971D02*
X0221971Y0164016D01*
X0192517Y0163016D02*
X0220971D01*
X0209390Y0150709D02*
Y0155418D01*
Y0150709D02*
X0211600Y0148500D01*
X0282034D01*
X0202319Y0160581D02*
X0203405Y0159495D01*
X0205314D01*
X0208063Y0153000D02*
X0208100D01*
X0202352Y0154774D02*
X0202453Y0154673D01*
X0205314Y0159495D02*
X0209390Y0155418D01*
X0202252Y0157706D02*
X0202352Y0157606D01*
X0192581Y0160581D02*
X0202319D01*
X0202352Y0154774D02*
Y0157606D01*
X0204421Y0154673D02*
Y0157614D01*
X0206390Y0154673D02*
X0208063Y0153000D01*
X0186100Y0160500D02*
X0190719Y0165119D01*
X0186000Y0160500D02*
X0186100D01*
X0214879Y0165119D02*
X0215760Y0166000D01*
X0190719Y0165119D02*
X0214879D01*
X0215760Y0166000D02*
Y0166079D01*
X0299783Y0150417D02*
X0301155D01*
X0301222Y0150350D01*
X0299000Y0150809D02*
X0299391D01*
X0299783Y0150417D01*
X0301222Y0150350D02*
X0304500D01*
X0291857Y0148500D02*
X0293872D01*
X0294309Y0148938D01*
X0296135D02*
X0297514Y0150317D01*
X0298334D01*
X0294309Y0148938D02*
X0296135D01*
X0291400Y0148800D02*
X0291557D01*
X0291857Y0148500D01*
X0276423Y0160500D02*
X0278000Y0158923D01*
Y0155000D02*
Y0158923D01*
X0272000Y0160500D02*
X0276423D01*
X0270005Y0162495D02*
X0272000Y0160500D01*
X0261325Y0160000D02*
X0262242Y0160917D01*
Y0161151D01*
X0286581Y0163119D02*
X0289800Y0159900D01*
X0279721Y0163119D02*
X0286581D01*
X0273044Y0163500D02*
X0279340D01*
X0279721Y0163119D01*
X0293330Y0161830D02*
X0293881Y0161279D01*
X0290584Y0167016D02*
X0291400Y0166200D01*
X0286784Y0167016D02*
X0290584D01*
X0286581Y0167219D02*
X0286784Y0167016D01*
X0296900Y0160700D02*
X0299000D01*
X0292619Y0164307D02*
X0294307Y0162619D01*
X0294981D02*
X0296900Y0160700D01*
X0292619Y0164307D02*
Y0164981D01*
X0291400Y0166200D02*
X0291400D01*
X0286307Y0167219D02*
X0286581D01*
X0291400Y0166200D02*
X0292619Y0164981D01*
X0294307Y0162619D02*
X0294981D01*
X0284226Y0169300D02*
X0286307Y0167219D01*
X0279225Y0169329D02*
X0279254Y0169300D01*
X0284226D01*
X0275899Y0166500D02*
X0278728Y0169329D01*
X0279225D01*
X0278314Y0170329D02*
X0279639D01*
X0279668Y0170300D01*
X0284640D01*
X0275866Y0167881D02*
X0278314Y0170329D01*
X0286721Y0168219D02*
X0291481D01*
X0293619Y0166081D01*
X0284640Y0170300D02*
X0286721Y0168219D01*
X0293881Y0161119D02*
X0296083Y0158917D01*
X0297783Y0152983D02*
X0297900Y0153100D01*
X0297217Y0152573D02*
X0297627Y0152983D01*
X0303260Y0155365D02*
X0303391Y0155235D01*
X0296083Y0158917D02*
X0300883D01*
X0297627Y0152983D02*
X0297783D01*
X0293881Y0161119D02*
Y0161279D01*
X0303260Y0155365D02*
Y0156540D01*
X0303391Y0154113D02*
Y0155235D01*
X0297900Y0153100D02*
X0302378D01*
X0297217Y0152417D02*
Y0152573D01*
X0300883Y0158917D02*
X0303260Y0156540D01*
X0302378Y0153100D02*
X0303391Y0154113D01*
X0295600Y0150800D02*
X0297217Y0152417D01*
X0294721Y0163619D02*
X0295395D01*
X0296514Y0162500D01*
X0293619Y0164721D02*
X0294721Y0163619D01*
X0296514Y0162500D02*
X0299355D01*
X0293619Y0164721D02*
Y0166081D01*
X0293500Y0150228D02*
Y0151500D01*
X0292700Y0152300D02*
X0293500Y0151500D01*
X0266791Y0167409D02*
Y0171535D01*
Y0167409D02*
X0267617Y0166583D01*
X0264039Y0175700D02*
X0270605Y0169134D01*
X0271000Y0175000D02*
X0272700D01*
X0232187Y0176887D02*
X0264613D01*
X0226890Y0171591D02*
X0232187Y0176887D01*
X0202509Y0171591D02*
X0226890D01*
X0263000Y0167125D02*
X0265325Y0164800D01*
X0207068Y0174800D02*
X0210900D01*
X0206390Y0175478D02*
X0207068Y0174800D01*
X0206390Y0175478D02*
Y0176327D01*
X0203309Y0172591D02*
X0217500D01*
X0202453Y0173447D02*
X0203309Y0172591D01*
X0200487Y0173613D02*
X0202509Y0171591D01*
X0246482Y0168358D02*
X0247358D01*
X0246072Y0167947D02*
X0246482Y0168358D01*
X0246072Y0167942D02*
Y0167947D01*
X0245130Y0167000D02*
X0246072Y0167942D01*
X0245000Y0167000D02*
X0245130D01*
X0247358Y0168358D02*
X0249423Y0170423D01*
Y0171423D01*
X0249400Y0171446D02*
X0249423Y0171423D01*
X0301722Y0154819D02*
X0301971Y0154571D01*
X0301722Y0154322D02*
Y0154819D01*
X0300677Y0154322D02*
X0301722D01*
X0218619Y0177983D02*
X0219500Y0177102D01*
X0266500Y0162983D02*
X0266860D01*
X0283983Y0154483D02*
X0287717D01*
X0282500Y0153000D02*
X0283983Y0154483D01*
X0280000Y0153000D02*
X0282500D01*
X0287717Y0154483D02*
X0289500Y0152700D01*
X0302302Y0167791D02*
X0304358D01*
X0300783Y0166271D02*
X0302302Y0167791D01*
X0304358D02*
X0305500Y0166648D01*
Y0165500D02*
Y0166648D01*
X0309000Y0163000D02*
Y0169500D01*
X0251500Y0175500D02*
X0260874D01*
X0190483Y0174200D02*
X0191471Y0175188D01*
X0189900Y0174200D02*
X0190483D01*
X0191471Y0175188D02*
X0192320D01*
X0192610Y0175478D01*
Y0176327D01*
X0202453Y0173447D02*
Y0176327D01*
X0200487Y0173613D02*
Y0176324D01*
X0200484Y0176327D02*
X0200487Y0176324D01*
X0196838Y0177700D02*
X0197600D01*
X0196547Y0177409D02*
X0196838Y0177700D01*
X0196547Y0176327D02*
Y0177409D01*
X0189500Y0157500D02*
X0192581Y0160581D01*
X0264954Y0167389D02*
X0265111D01*
X0264642Y0167679D02*
X0264663D01*
X0264290Y0168031D02*
Y0168035D01*
X0259413Y0172587D02*
X0263210Y0168791D01*
X0263535D02*
X0264290Y0168035D01*
Y0168031D02*
X0264642Y0167679D01*
X0264663D02*
X0264954Y0167389D01*
X0245000Y0165000D02*
Y0167000D01*
X0242441Y0165000D02*
Y0169027D01*
X0246000Y0172586D01*
X0263210Y0168791D02*
X0263535D01*
X0263825Y0174500D02*
X0266791Y0171535D01*
X0265325Y0164800D02*
X0268500D01*
X0219500Y0175921D02*
Y0177102D01*
X0253000Y0174500D02*
X0263825D01*
X0255663Y0171397D02*
X0257278D01*
X0304200Y0160700D02*
X0305500Y0162000D01*
X0303000Y0160700D02*
X0304200D01*
X0301073Y0162773D02*
X0303484D01*
X0299000Y0160700D02*
X0301073Y0162773D01*
X0300783Y0163927D02*
Y0166271D01*
X0305000Y0173500D02*
X0309000Y0169500D01*
Y0163000D02*
X0309981Y0162019D01*
X0310528D01*
X0311606Y0160941D01*
Y0160843D02*
Y0160941D01*
X0305145Y0177181D02*
X0314465Y0167860D01*
Y0167235D02*
Y0167860D01*
Y0167235D02*
X0315543Y0166157D01*
X0299355Y0162500D02*
X0300783Y0163927D01*
X0261074Y0175700D02*
X0264039D01*
X0260874Y0175500D02*
X0261074Y0175700D01*
X0261500Y0158500D02*
Y0159000D01*
X0263500Y0153500D02*
Y0156892D01*
X0263413Y0162087D02*
X0265858D01*
X0266497Y0162727D01*
X0266500D01*
X0237500Y0160000D02*
X0261325D01*
X0257278Y0171397D02*
X0259873Y0168802D01*
Y0162627D02*
Y0168802D01*
Y0162627D02*
X0261000Y0161500D01*
X0240200Y0168200D02*
X0245500Y0173500D01*
X0239882Y0165000D02*
X0240200Y0165318D01*
Y0168200D01*
X0263000Y0167125D02*
Y0167500D01*
X0295700Y0176500D02*
X0296200Y0177000D01*
X0304819Y0177181D02*
X0305145D01*
X0221971Y0164016D02*
X0222359D01*
X0223240Y0164898D01*
Y0166079D01*
X0272500Y0179000D02*
X0274905Y0176594D01*
Y0175728D02*
Y0176594D01*
X0289543Y0173000D02*
X0291199Y0174656D01*
Y0175699D01*
X0288669Y0178228D02*
X0291199Y0175699D01*
X0287842Y0178228D02*
X0288669D01*
X0284000Y0176500D02*
Y0178134D01*
X0283903Y0174446D02*
Y0176403D01*
X0284000Y0176500D01*
X0282457Y0173000D02*
X0283903Y0174446D01*
X0283906Y0178228D02*
X0284000Y0178134D01*
X0291199Y0175699D02*
X0292000Y0176500D01*
X0295700D01*
X0266500Y0162727D02*
Y0162965D01*
X0266483Y0162983D02*
X0266500Y0162965D01*
X0274921Y0152000D02*
X0280305D01*
X0269000Y0149500D02*
X0279240D01*
X0279969Y0150228D01*
X0265000Y0153500D02*
X0269000Y0149500D01*
X0281937Y0150228D02*
Y0150368D01*
X0274000Y0153095D02*
Y0158000D01*
X0280305Y0152000D02*
X0281937Y0150368D01*
X0272584Y0163960D02*
X0273044Y0163500D01*
X0272427Y0163960D02*
X0272584D01*
X0278000Y0155000D02*
X0280000Y0153000D01*
X0263500Y0153500D02*
X0265000D01*
X0282034Y0148500D02*
X0282762Y0149228D01*
X0283906D01*
X0289811D02*
Y0152389D01*
X0283906Y0149228D02*
Y0150605D01*
X0286000Y0152700D01*
X0289500D02*
X0289811Y0152389D01*
D22*
X0220000Y0160600D02*
D03*
X0215400D02*
D03*
X0272700Y0175000D02*
D03*
X0277300D02*
D03*
X0300800Y0177000D02*
D03*
X0296200D02*
D03*
Y0173500D02*
D03*
X0300800D02*
D03*
X0296200Y0170000D02*
D03*
X0300800D02*
D03*
D27*
X0286800Y0150200D02*
D03*
X0188100Y0165700D02*
D03*
X0307300Y0162126D02*
D03*
X0281000Y0178228D02*
D03*
X0179500Y0159132D02*
D03*
X0270500Y0152000D02*
D03*
D29*
X0183300Y0162700D02*
D03*
Y0158100D02*
D03*
Y0150100D02*
D03*
Y0154700D02*
D03*
X0299000Y0165300D02*
D03*
Y0160700D02*
D03*
X0264025Y0160200D02*
D03*
Y0164800D02*
D03*
X0267800Y0160200D02*
D03*
Y0164800D02*
D03*
X0286000Y0152700D02*
D03*
Y0157300D02*
D03*
X0289500D02*
D03*
Y0152700D02*
D03*
X0303000Y0160700D02*
D03*
Y0165300D02*
D03*
X0299000Y0155800D02*
D03*
Y0151200D02*
D03*
D61*
X0281836Y0156678D02*
G03*
X0281678Y0156836I-0001336J-0001178D01*
G01*
X0281902Y0166098D02*
G03*
X0280500Y0166781I-0001402J-0001099D01*
G01*
X0281902Y0166098D02*
G03*
X0282190Y0166081I0000288J0002373D01*
G01*
X0217500Y0172591D02*
X0223691D01*
X0228887Y0177787D02*
X0264985D01*
X0223691Y0172591D02*
X0224059Y0172959D01*
X0225021Y0173921D02*
X0228887Y0177787D01*
X0224059Y0172959D02*
X0224670D01*
X0225021Y0173310D01*
Y0173921D01*
X0221871Y0153071D02*
X0221900Y0153100D01*
X0220800Y0153071D02*
X0221871D01*
X0218669Y0150939D02*
Y0151264D01*
X0219413Y0152009D01*
X0219738D01*
X0220800Y0153071D01*
Y0160100D01*
X0301700Y0148500D02*
X0302100Y0148900D01*
X0297700Y0148500D02*
X0301700D01*
X0282604Y0155910D02*
X0282721Y0155793D01*
X0279795Y0158719D02*
X0281669Y0156845D01*
X0282721Y0155793D02*
X0284473D01*
X0281845Y0156669D02*
X0282604Y0155910D01*
X0281669Y0156845D02*
X0281678Y0156836D01*
X0281836Y0156678D02*
X0281845Y0156669D01*
X0284473Y0155793D02*
X0284483Y0155783D01*
Y0155617D02*
Y0155783D01*
Y0155617D02*
X0289597D01*
X0279762Y0158719D02*
X0279795D01*
X0279134Y0159000D02*
X0279481D01*
X0279762Y0158719D01*
X0278900Y0159234D02*
X0279134Y0159000D01*
X0289597Y0155617D02*
X0291183Y0154031D01*
Y0153817D02*
X0292700Y0152300D01*
X0291183Y0153817D02*
Y0154031D01*
X0276796Y0161400D02*
X0278900Y0159296D01*
Y0159234D02*
Y0159296D01*
X0271236Y0163467D02*
X0273303Y0161400D01*
X0276796D01*
X0271100Y0164200D02*
X0271236Y0164064D01*
Y0163467D02*
Y0164064D01*
X0270005Y0162495D02*
Y0165302D01*
X0268765Y0167822D02*
X0268851D01*
X0269390Y0167283D01*
X0269463D01*
X0271100Y0165645D01*
Y0164200D02*
Y0165645D01*
X0269483Y0165824D02*
X0270005Y0165302D01*
X0269483Y0165824D02*
Y0166131D01*
X0269131Y0166483D02*
X0269483Y0166131D01*
X0267717Y0166483D02*
X0269131D01*
X0264025Y0158675D02*
Y0160200D01*
Y0158675D02*
X0264100Y0158600D01*
Y0155979D02*
X0265079Y0155000D01*
X0264100Y0155979D02*
Y0158600D01*
X0262242Y0161151D02*
X0262342Y0161251D01*
Y0161531D01*
X0262899Y0162087D01*
X0263413D01*
X0267617Y0166583D02*
X0267717Y0166483D01*
X0289800Y0159900D02*
X0290717Y0158983D01*
X0290831D01*
X0294219Y0155595D01*
Y0154762D02*
Y0155595D01*
X0290381Y0164779D02*
Y0165038D01*
Y0164779D02*
X0293330Y0161830D01*
X0289338Y0166081D02*
X0290381Y0165038D01*
X0282194Y0166081D02*
X0289338D01*
X0282190Y0166081D02*
X0282194Y0166081D01*
X0276600Y0165500D02*
X0277881Y0166781D01*
X0280500D01*
X0272773Y0166500D02*
X0275899D01*
X0273989Y0167419D02*
X0274451Y0167881D01*
X0275866D01*
X0294219Y0154762D02*
X0295262Y0153719D01*
X0296738D01*
X0297036Y0154017D01*
X0271400Y0169612D02*
Y0170100D01*
X0271505Y0167767D02*
X0272773Y0166500D01*
X0270605Y0167395D02*
X0272500Y0165500D01*
X0270605Y0167395D02*
Y0169134D01*
X0271505Y0167767D02*
Y0169507D01*
X0271400Y0169612D02*
X0271505Y0169507D01*
X0272305Y0168116D02*
Y0170467D01*
X0273003Y0167419D02*
X0273989D01*
X0272305Y0168116D02*
X0273003Y0167419D01*
X0264985Y0177787D02*
X0272305Y0170467D01*
X0264613Y0176887D02*
X0271400Y0170100D01*
X0265317Y0178587D02*
X0271404Y0172500D01*
X0228183Y0178587D02*
X0265317D01*
X0271404Y0172500D02*
X0274000D01*
X0227852Y0179387D02*
X0265648D01*
X0250300Y0172346D02*
X0253958D01*
X0249400Y0171446D02*
X0250300Y0172346D01*
X0246646Y0173146D02*
X0252778D01*
X0246000Y0174000D02*
X0252500D01*
X0295600Y0150228D02*
Y0150800D01*
X0297036Y0154017D02*
X0300373D01*
X0300677Y0154322D01*
X0265648Y0179387D02*
X0266036Y0179000D01*
X0227465D02*
X0227852Y0179387D01*
X0227679Y0178084D02*
X0228183Y0178587D01*
X0218187Y0179000D02*
X0227465D01*
X0217230Y0178043D02*
X0218187Y0179000D01*
X0216741Y0178043D02*
X0217230D01*
X0215760Y0177062D02*
X0216741Y0178043D01*
X0215760Y0175921D02*
Y0177062D01*
X0272500Y0165500D02*
X0276600D01*
X0189200Y0178700D02*
X0190000Y0179500D01*
X0200200D01*
X0200484Y0179216D01*
Y0176327D02*
Y0179216D01*
X0196547Y0154673D02*
X0196700Y0154826D01*
X0285700Y0149300D02*
X0285900D01*
X0286800Y0150200D01*
X0287000D01*
X0254199Y0172587D02*
X0259413D01*
X0253958Y0172346D02*
X0254199Y0172587D01*
X0234716Y0158900D02*
X0237007Y0161191D01*
X0237807D02*
X0238710Y0162094D01*
X0252778Y0173146D02*
X0253131Y0173500D01*
X0233000Y0158700D02*
X0233200Y0158900D01*
X0239882Y0163130D02*
Y0165000D01*
X0263000Y0173500D02*
X0265500Y0171000D01*
X0239295Y0162542D02*
X0239882Y0163130D01*
X0233200Y0158900D02*
X0234716D01*
X0238710Y0162308D02*
X0238945Y0162542D01*
X0238710Y0162094D02*
Y0162308D01*
X0237007Y0161191D02*
X0237807D01*
X0246086Y0172586D02*
X0246646Y0173146D01*
X0238945Y0162542D02*
X0239295D01*
X0253131Y0173500D02*
X0263000D01*
X0246000Y0172586D02*
X0246086D01*
X0252500Y0174000D02*
X0253000Y0174500D01*
X0245500Y0173500D02*
X0246000Y0174000D01*
X0266036Y0179000D02*
X0272500D01*
X0264725Y0160200D02*
X0265025Y0160500D01*
X0265079Y0155579D02*
X0266500Y0157000D01*
X0265079Y0155000D02*
Y0155579D01*
X0224221Y0178084D02*
X0227679D01*
X0223240Y0177102D02*
X0224221Y0178084D01*
X0223240Y0175921D02*
Y0177102D01*
D62*
X0252700Y0150309D02*
Y0151500D01*
X0250134D02*
X0252700D01*
X0247165Y0154469D02*
X0250134Y0151500D01*
X0252700D02*
X0255246D01*
X0231489Y0163058D02*
X0235558D01*
X0247956Y0167058D02*
X0251464Y0170565D01*
X0247746Y0167058D02*
X0247956D01*
X0247559Y0166870D02*
X0247746Y0167058D01*
X0247559Y0165000D02*
Y0166870D01*
X0235558Y0163058D02*
X0235616Y0163116D01*
X0230039Y0164508D02*
X0231489Y0163058D01*
X0235500Y0163000D02*
X0235558Y0163058D01*
X0235616Y0163116D02*
X0237135D01*
X0237323Y0163304D01*
Y0165000D01*
X0191700Y0172500D02*
X0191814D01*
X0192015Y0172700D01*
X0192315Y0172400D01*
X0192896Y0172981D01*
X0193081D01*
X0193261Y0173161D01*
X0193615D01*
X0194579Y0174125D01*
Y0176327D01*
X0192601Y0176317D02*
X0192610Y0176327D01*
X0226693Y0154469D02*
X0228224Y0156000D01*
X0250458Y0161958D02*
X0252293D01*
X0228224Y0156000D02*
X0232500D01*
X0250000Y0161500D02*
X0250458Y0161958D01*
X0252293D02*
X0254842Y0164508D01*
X0232500Y0156000D02*
X0234500D01*
X0234879Y0155621D01*
X0236564D01*
X0255246Y0151500D02*
X0258189Y0154443D01*
X0236564Y0155621D02*
X0237717Y0154469D01*
X0258189Y0154443D02*
Y0154469D01*
X0286000Y0157300D02*
Y0160500D01*
Y0157300D02*
X0289500D01*
X0296000Y0155500D02*
X0296150Y0155650D01*
X0298850D01*
X0299000Y0155800D01*
X0327406Y0155484D02*
Y0157453D01*
D64*
X0176039Y0160239D02*
Y0164741D01*
X0175650Y0159850D02*
X0176039Y0160239D01*
X0176000Y0152500D02*
Y0159500D01*
X0175650Y0159850D02*
X0176000Y0159500D01*
X0190400Y0152500D02*
X0191900D01*
X0187250Y0149350D02*
X0190400Y0152500D01*
X0178053Y0149350D02*
X0187250D01*
X0191900Y0152500D02*
Y0153400D01*
X0176000Y0151403D02*
Y0152500D01*
Y0151403D02*
X0178053Y0149350D01*
X0297892Y0172108D02*
X0298000Y0172000D01*
X0297592Y0172108D02*
X0297892D01*
X0296200Y0173500D02*
X0297592Y0172108D01*
X0297892Y0171892D02*
X0298000Y0172000D01*
X0297892Y0171692D02*
Y0171892D01*
X0296200Y0170000D02*
X0297892Y0171692D01*
D70*
X0183466Y0175600D02*
D03*
X0175466D02*
D03*
X0179466Y0155600D02*
D03*
D71*
X0344000Y0154000D02*
D03*
D72*
X0334000D02*
D03*
D73*
X0210100Y0158400D02*
D03*
X0219200Y0156100D02*
D03*
X0238500Y0171900D02*
D03*
X0238600Y0168600D02*
D03*
X0229600Y0176400D02*
D03*
X0209800Y0161400D02*
D03*
X0221900Y0153100D02*
D03*
X0252700Y0150309D02*
D03*
X0287711Y0148628D02*
D03*
X0208100Y0153000D02*
D03*
X0202252Y0157706D02*
D03*
X0186000Y0160500D02*
D03*
X0302300Y0148800D02*
D03*
X0297700Y0148500D02*
D03*
X0291400Y0148800D02*
D03*
X0309000Y0161100D02*
D03*
X0317226Y0158226D02*
D03*
X0189500Y0157500D02*
D03*
X0268765Y0167822D02*
D03*
X0271000Y0175000D02*
D03*
X0273496Y0168609D02*
D03*
X0335402Y0170964D02*
D03*
X0323500Y0168800D02*
D03*
X0239800Y0175300D02*
D03*
X0242500Y0174000D02*
D03*
X0251300Y0175200D02*
D03*
X0210900Y0174800D02*
D03*
X0212800Y0166600D02*
D03*
X0213057Y0170300D02*
D03*
X0250500Y0167200D02*
D03*
X0235400Y0166800D02*
D03*
X0295600Y0150228D02*
D03*
X0293500D02*
D03*
X0302100Y0154700D02*
D03*
X0220900Y0177700D02*
D03*
X0235500Y0163000D02*
D03*
X0303500Y0166500D02*
D03*
X0305500Y0165500D02*
D03*
X0189200Y0178700D02*
D03*
X0189900Y0174200D02*
D03*
X0188491Y0159000D02*
D03*
X0204300Y0178400D02*
D03*
X0197600Y0177700D02*
D03*
X0200500Y0152500D02*
D03*
X0198500D02*
D03*
X0285700Y0149300D02*
D03*
X0250000Y0161500D02*
D03*
X0233000Y0158700D02*
D03*
X0265500Y0171000D02*
D03*
X0232500Y0156000D02*
D03*
X0265111Y0167389D02*
D03*
X0178100Y0152500D02*
D03*
X0329502Y0169964D02*
D03*
X0274000Y0172500D02*
D03*
X0303484Y0162773D02*
D03*
X0287842Y0178228D02*
D03*
X0283906D02*
D03*
X0303500Y0172500D02*
D03*
X0283906Y0149228D02*
D03*
X0266500Y0162727D02*
D03*
X0279969Y0150228D02*
D03*
X0305000Y0173500D02*
D03*
X0274905Y0175728D02*
D03*
X0289811Y0149228D02*
D03*
X0304819Y0177181D02*
D03*
X0281937Y0150228D02*
D03*
X0261000Y0161500D02*
D03*
X0314844Y0177456D02*
D03*
X0325664D02*
D03*
X0320254Y0175292D02*
D03*
X0347802Y0150236D02*
D03*
X0347902Y0151936D02*
D03*
Y0153836D02*
D03*
Y0155836D02*
D03*
Y0157836D02*
D03*
X0346002Y0158236D02*
D03*
X0344002D02*
D03*
X0342002D02*
D03*
X0335502Y0168736D02*
D03*
X0241600Y0175400D02*
D03*
X0255663Y0171397D02*
D03*
X0305500Y0162000D02*
D03*
X0310563Y0169000D02*
D03*
X0261500Y0158500D02*
D03*
X0263000Y0167500D02*
D03*
X0264000Y0150000D02*
D03*
X0310982Y0178008D02*
D03*
X0346222Y0149324D02*
D03*
X0344058D02*
D03*
X0341894D02*
D03*
X0339730Y0157980D02*
D03*
Y0153652D02*
D03*
Y0149324D02*
D03*
X0337566Y0157980D02*
D03*
X0338648Y0155816D02*
D03*
Y0151488D02*
D03*
X0337566Y0149324D02*
D03*
X0335402Y0175292D02*
D03*
Y0166636D02*
D03*
Y0162308D02*
D03*
Y0157980D02*
D03*
Y0149324D02*
D03*
X0334320Y0177456D02*
D03*
Y0164472D02*
D03*
X0333238Y0162308D02*
D03*
X0334320Y0160144D02*
D03*
X0333238Y0149324D02*
D03*
X0332156Y0177456D02*
D03*
Y0164472D02*
D03*
Y0160144D02*
D03*
X0331074Y0149324D02*
D03*
X0329992Y0177456D02*
D03*
X0328910Y0149324D02*
D03*
X0327828Y0177456D02*
D03*
X0326746Y0149324D02*
D03*
X0324582D02*
D03*
X0322418Y0166636D02*
D03*
Y0149324D02*
D03*
X0321336Y0168800D02*
D03*
X0320254Y0149324D02*
D03*
X0318090D02*
D03*
X0315926D02*
D03*
X0312680Y0177456D02*
D03*
X0272427Y0163960D02*
D03*
X0237500Y0160000D02*
D03*
X0323500Y0159000D02*
D03*
X0330000Y0158500D02*
D03*
D74*
X0204421Y0157614D02*
D03*
X0287500Y0170100D02*
D03*
X0204700Y0167200D02*
D03*
X0288600Y0164300D02*
D03*
X0191700Y0172500D02*
D03*
X0188400Y0170400D02*
D03*
X0196700Y0158700D02*
D03*
X0251464Y0170565D02*
D03*
X0295500Y0165500D02*
D03*
X0292000Y0160500D02*
D03*
X0280500Y0165000D02*
D03*
Y0160500D02*
D03*
X0298000Y0172000D02*
D03*
X0286000Y0160500D02*
D03*
X0296000Y0155500D02*
D03*
X0280500D02*
D03*
Y0172500D02*
D03*
D75*
X0186077Y0156477D02*
D03*
X0179150Y0173944D02*
D03*
D78*
X0218669Y0150939D02*
D03*
X0214732D02*
D03*
X0216700Y0156861D02*
D03*
D79*
X0310800Y0150647D02*
D03*
Y0156553D02*
D03*
D80*
X0176039Y0165641D02*
D03*
Y0168200D02*
D03*
Y0170759D02*
D03*
X0184700D02*
D03*
Y0168200D02*
D03*
Y0165641D02*
D03*
D81*
X0180369Y0168200D02*
D03*
D82*
X0327406Y0157453D02*
D03*
Y0155484D02*
D03*
Y0153516D02*
D03*
Y0151547D02*
D03*
X0315595D02*
D03*
Y0153516D02*
D03*
Y0155484D02*
D03*
Y0157453D02*
D03*
D83*
X0321500Y0154500D02*
D03*
D84*
X0315543Y0160843D02*
D03*
Y0166157D02*
D03*
X0311606D02*
D03*
Y0160843D02*
D03*
D85*
X0215760Y0166079D02*
D03*
X0219500D02*
D03*
X0223240D02*
D03*
Y0175921D02*
D03*
X0219500D02*
D03*
X0215760D02*
D03*
D86*
X0284457Y0174500D02*
D03*
X0291543D02*
D03*
D87*
X0306300Y0156750D02*
D03*
Y0150450D02*
D03*
D88*
X0247559Y0165000D02*
D03*
X0245000D02*
D03*
X0242441D02*
D03*
X0239882D02*
D03*
X0237323D02*
D03*
D89*
X0254842Y0164508D02*
D03*
X0230039D02*
D03*
D90*
X0258189Y0154469D02*
D03*
X0226693D02*
D03*
D91*
X0247165D02*
D03*
X0237717D02*
D03*
D92*
X0206390Y0154673D02*
D03*
Y0176327D02*
D03*
X0204421Y0154673D02*
D03*
Y0176327D02*
D03*
X0202453Y0154673D02*
D03*
Y0176327D02*
D03*
X0200484Y0154673D02*
D03*
Y0176327D02*
D03*
X0198516Y0154673D02*
D03*
Y0176327D02*
D03*
X0196547Y0154673D02*
D03*
Y0176327D02*
D03*
X0194579Y0154673D02*
D03*
Y0176327D02*
D03*
X0192610Y0154673D02*
D03*
Y0176327D02*
D03*
D93*
X0265079Y0155000D02*
D03*
X0274921D02*
D03*
M02*
