G04*
G04 #@! TF.GenerationSoftware,Altium Limited,Altium Designer,19.1.5 (86)*
G04*
G04 Layer_Color=128*
%FSAX24Y24*%
%MOIN*%
G70*
G01*
G75*
%ADD19R,0.0217X0.0217*%
%ADD22C,0.0157*%
%ADD26R,0.0217X0.0217*%
%ADD73R,0.0315X0.0118*%
%ADD74R,0.0689X0.0610*%
%ADD75C,0.0082*%
%ADD76R,0.0276X0.0295*%
%ADD77R,0.0236X0.0472*%
%ADD78R,0.0453X0.0571*%
%ADD79R,0.0394X0.0354*%
%ADD80R,0.0157X0.0531*%
%ADD81R,0.0866X0.0630*%
%ADD82R,0.0709X0.0748*%
%ADD83R,0.0748X0.0748*%
%ADD84R,0.0118X0.0433*%
%ADD85R,0.0394X0.0709*%
%ADD86R,0.0335X0.0335*%
%ADD87R,0.0315X0.0315*%
D19*
X027270Y017500D02*
D03*
X027730D02*
D03*
X030080Y017700D02*
D03*
X029620D02*
D03*
Y017350D02*
D03*
X030080D02*
D03*
X029620Y017000D02*
D03*
X030080D02*
D03*
D22*
X028700Y015020D02*
D03*
X029340Y015150D02*
D03*
D26*
X029900Y016530D02*
D03*
Y016070D02*
D03*
X017530Y016480D02*
D03*
Y016020D02*
D03*
X026473D02*
D03*
Y016480D02*
D03*
X026850Y016020D02*
D03*
Y016480D02*
D03*
X028600Y015270D02*
D03*
Y015730D02*
D03*
X028950D02*
D03*
Y015270D02*
D03*
X030300Y016070D02*
D03*
Y016530D02*
D03*
X029900Y015580D02*
D03*
Y015120D02*
D03*
D73*
X032741Y015745D02*
D03*
Y015548D02*
D03*
Y015352D02*
D03*
Y015155D02*
D03*
X031559D02*
D03*
Y015352D02*
D03*
Y015548D02*
D03*
Y015745D02*
D03*
D74*
X032150Y015450D02*
D03*
D75*
X017973Y016419D02*
D03*
Y016261D02*
D03*
X018130Y016419D02*
D03*
Y016261D02*
D03*
X018287Y016419D02*
D03*
Y016261D02*
D03*
D76*
X031554Y016084D02*
D03*
Y016616D02*
D03*
X031161D02*
D03*
Y016084D02*
D03*
D77*
X021576Y016608D02*
D03*
X021950D02*
D03*
X022324D02*
D03*
Y017592D02*
D03*
X021950D02*
D03*
X021576D02*
D03*
D78*
X028446Y017450D02*
D03*
X029154D02*
D03*
X017636Y017020D02*
D03*
X018344D02*
D03*
D79*
X030630Y015675D02*
D03*
Y015045D02*
D03*
D80*
X024756Y016500D02*
D03*
X024500D02*
D03*
X024244D02*
D03*
X023988D02*
D03*
X023732D02*
D03*
D81*
X025484Y016451D02*
D03*
X023004D02*
D03*
D82*
X025819Y015447D02*
D03*
X022669D02*
D03*
D83*
X024717D02*
D03*
X023772D02*
D03*
D84*
X020639Y015467D02*
D03*
Y017633D02*
D03*
X020442Y015467D02*
D03*
Y017633D02*
D03*
X020245Y015467D02*
D03*
Y017633D02*
D03*
X020048Y015467D02*
D03*
Y017633D02*
D03*
X019852Y015467D02*
D03*
Y017633D02*
D03*
X019655Y015467D02*
D03*
Y017633D02*
D03*
X019458Y015467D02*
D03*
Y017633D02*
D03*
X019261Y015467D02*
D03*
Y017633D02*
D03*
D85*
X026508Y015500D02*
D03*
X027492D02*
D03*
D86*
X018380Y015875D02*
D03*
Y015265D02*
D03*
D87*
X031100Y015055D02*
D03*
Y015645D02*
D03*
M02*
