G04*
G04 #@! TF.GenerationSoftware,Altium Limited,Altium Designer,20.0.13 (296)*
G04*
G04 Layer_Physical_Order=1*
G04 Layer_Color=255*
%FSAX25Y25*%
%MOIN*%
G70*
G01*
G75*
%ADD10C,0.01000*%
%ADD15C,0.00800*%
%ADD16C,0.00600*%
%ADD20R,0.00945X0.00787*%
%ADD21P,0.01392X4X270.0*%
%ADD22R,0.02165X0.02165*%
%ADD23C,0.06000*%
%ADD24R,0.02000X0.04000*%
%ADD25R,0.01575X0.02362*%
%ADD26R,0.02362X0.01575*%
%ADD27C,0.01575*%
%ADD28C,0.06693*%
%ADD29R,0.02165X0.02165*%
%ADD30R,0.22441X0.22441*%
%ADD31R,0.03347X0.01181*%
%ADD32R,0.01181X0.03347*%
%ADD33R,0.02756X0.01181*%
%ADD34R,0.03937X0.06693*%
%ADD35C,0.03098*%
%ADD36R,0.02953X0.02362*%
%ADD37R,0.02953X0.03740*%
%ADD38R,0.06890X0.07087*%
%ADD61C,0.00400*%
%ADD62C,0.01200*%
%ADD63C,0.01130*%
%ADD64C,0.01800*%
%ADD65R,0.03347X0.08780*%
%ADD66R,0.04500X0.03150*%
%ADD67R,0.09843X0.01968*%
%ADD68R,0.01968X0.17717*%
%ADD69R,0.01968X0.05906*%
%ADD70C,0.01949*%
%ADD71R,0.05906X0.05906*%
%ADD72C,0.05906*%
%ADD73C,0.02362*%
%ADD74C,0.03000*%
G36*
X0336851Y0173838D02*
X0335027D01*
X0334083Y0174782D01*
Y0176483D01*
X0331117D01*
Y0174943D01*
X0331109Y0174900D01*
X0331117Y0174857D01*
Y0173517D01*
X0330715Y0173283D01*
X0330580D01*
Y0170317D01*
X0333546D01*
Y0171871D01*
X0336851D01*
Y0160315D01*
X0336977Y0160009D01*
X0337283Y0159882D01*
X0349000D01*
Y0148000D01*
X0315283D01*
X0314900Y0148283D01*
Y0153083D01*
X0313419D01*
X0313270Y0153283D01*
X0313522Y0153783D01*
X0314900D01*
Y0156196D01*
X0315362Y0156388D01*
X0319009Y0152741D01*
X0319009Y0152741D01*
X0319274Y0152564D01*
X0319586Y0152502D01*
X0319586Y0152502D01*
X0319711D01*
X0319789Y0152423D01*
X0319789Y0152423D01*
X0320054Y0152246D01*
X0320366Y0152184D01*
X0320366Y0152184D01*
X0322097D01*
X0322097Y0152184D01*
X0322409Y0152246D01*
X0322674Y0152423D01*
X0323459Y0153209D01*
X0323460Y0153209D01*
X0323636Y0153474D01*
X0323639Y0153485D01*
X0323865Y0153711D01*
X0323896Y0153717D01*
X0325983D01*
Y0156683D01*
X0323083D01*
Y0157283D01*
X0321500D01*
Y0155200D01*
X0320500D01*
Y0157283D01*
X0318917D01*
Y0155793D01*
X0318455Y0155601D01*
X0316116Y0157941D01*
Y0158514D01*
X0316054Y0158826D01*
X0315877Y0159091D01*
X0315877Y0159091D01*
X0315191Y0159777D01*
X0314926Y0159954D01*
X0314644Y0160010D01*
X0312977Y0161677D01*
X0312712Y0161854D01*
X0312400Y0161916D01*
X0312088Y0161854D01*
X0311881Y0161716D01*
X0309883D01*
X0309856Y0161756D01*
X0309463Y0162019D01*
X0309107Y0162090D01*
X0308941Y0162174D01*
X0308601Y0162541D01*
X0308552Y0162789D01*
X0308289Y0163182D01*
X0307896Y0163444D01*
X0307433Y0163537D01*
X0306970Y0163444D01*
X0306577Y0163182D01*
X0306315Y0162789D01*
X0306223Y0162326D01*
X0306315Y0161863D01*
X0306577Y0161470D01*
X0306970Y0161207D01*
X0307327Y0161137D01*
X0307492Y0161052D01*
X0307808Y0160711D01*
X0307463Y0160232D01*
X0305486D01*
X0304859Y0160859D01*
X0304400Y0161049D01*
X0304329D01*
Y0161910D01*
X0304340Y0161917D01*
X0304602Y0162310D01*
X0304694Y0162773D01*
X0304602Y0163236D01*
X0304452Y0163461D01*
X0304674Y0163962D01*
X0304675D01*
X0304948Y0164016D01*
X0305180Y0164171D01*
X0305361Y0164352D01*
X0305377Y0164341D01*
X0305840Y0164249D01*
X0306304Y0164341D01*
X0306697Y0164603D01*
X0306959Y0164996D01*
X0306983Y0165117D01*
X0307563D01*
Y0167200D01*
Y0169680D01*
X0307536Y0169745D01*
X0308109Y0170317D01*
X0309546D01*
Y0173283D01*
X0309774Y0173419D01*
Y0176581D01*
X0306170D01*
X0305766Y0176975D01*
X0305811Y0177200D01*
X0305718Y0177663D01*
X0305456Y0178056D01*
X0305063Y0178319D01*
X0304600Y0178411D01*
X0304582Y0178407D01*
X0304412Y0178520D01*
X0304139Y0178575D01*
X0301500D01*
Y0179390D01*
X0315717D01*
Y0178197D01*
X0317504D01*
Y0177197D01*
X0315717D01*
Y0176187D01*
X0314545D01*
X0314545Y0176187D01*
Y0176187D01*
X0314545Y0176187D01*
X0314105Y0176332D01*
Y0176581D01*
X0310352D01*
Y0173419D01*
X0311137D01*
X0311580Y0173283D01*
Y0170317D01*
X0314546D01*
Y0173283D01*
X0314540Y0173285D01*
X0314539Y0173315D01*
X0315035Y0173813D01*
X0315717D01*
Y0172803D01*
X0317504D01*
Y0172303D01*
X0318004D01*
Y0170122D01*
X0319291D01*
Y0170722D01*
X0320835D01*
Y0170122D01*
X0322122D01*
Y0172303D01*
X0322622D01*
Y0172803D01*
X0324410D01*
Y0173813D01*
X0325581D01*
Y0174016D01*
X0326437D01*
X0326465Y0173974D01*
Y0173283D01*
X0325517D01*
Y0170317D01*
X0328483D01*
Y0173283D01*
X0328886Y0173517D01*
X0329483D01*
Y0176483D01*
X0326517D01*
Y0175984D01*
X0325581D01*
Y0176187D01*
X0324410D01*
Y0177197D01*
X0322622D01*
Y0178197D01*
X0324410D01*
Y0179390D01*
X0336851D01*
Y0173838D01*
D02*
G37*
G36*
X0244712Y0172267D02*
X0243688D01*
X0243058Y0172897D01*
Y0173133D01*
X0244712D01*
Y0172267D01*
D02*
G37*
G36*
X0241641Y0172897D02*
X0241011Y0172267D01*
X0239987D01*
Y0173133D01*
X0241641D01*
Y0172897D01*
D02*
G37*
G36*
X0244712Y0170377D02*
X0243058D01*
Y0170613D01*
X0243688Y0171243D01*
X0244712D01*
Y0170377D01*
D02*
G37*
G36*
X0241641Y0170613D02*
Y0170377D01*
X0239987D01*
Y0171243D01*
X0241011D01*
X0241641Y0170613D01*
D02*
G37*
%LPC*%
G36*
X0324410Y0171803D02*
X0323122D01*
Y0170122D01*
X0324410D01*
Y0171803D01*
D02*
G37*
G36*
X0317004D02*
X0315717D01*
Y0170122D01*
X0317004D01*
Y0171803D01*
D02*
G37*
G36*
X0334146Y0169283D02*
X0332563D01*
Y0167700D01*
X0334146D01*
Y0169283D01*
D02*
G37*
G36*
X0329083D02*
X0327500D01*
Y0167700D01*
X0329083D01*
Y0169283D01*
D02*
G37*
G36*
X0315146D02*
X0313563D01*
Y0167700D01*
X0315146D01*
Y0169283D01*
D02*
G37*
G36*
X0310146D02*
X0308563D01*
Y0167700D01*
X0310146D01*
Y0169283D01*
D02*
G37*
G36*
X0326500D02*
X0324917D01*
Y0167700D01*
X0326500D01*
Y0169283D01*
D02*
G37*
G36*
X0312563D02*
X0310980D01*
Y0167700D01*
X0312563D01*
Y0169283D01*
D02*
G37*
G36*
X0331563D02*
X0329980D01*
Y0167700D01*
X0331563D01*
Y0169283D01*
D02*
G37*
G36*
X0334146Y0166700D02*
X0332563D01*
Y0165117D01*
X0334146D01*
Y0166700D01*
D02*
G37*
G36*
X0315146D02*
X0313563D01*
Y0165117D01*
X0315146D01*
Y0166700D01*
D02*
G37*
G36*
X0312563D02*
X0310980D01*
Y0165117D01*
X0312563D01*
Y0166700D01*
D02*
G37*
G36*
X0310146D02*
X0308563D01*
Y0165117D01*
X0310146D01*
Y0166700D01*
D02*
G37*
G36*
X0325683Y0164483D02*
X0322717D01*
Y0163714D01*
X0321851D01*
X0321756Y0163856D01*
X0321363Y0164119D01*
X0320900Y0164211D01*
X0320437Y0164119D01*
X0320044Y0163856D01*
X0319781Y0163463D01*
X0319689Y0163000D01*
X0319781Y0162537D01*
X0320044Y0162144D01*
X0320437Y0161881D01*
X0320900Y0161789D01*
X0321363Y0161881D01*
X0321756Y0162144D01*
X0321851Y0162286D01*
X0322364D01*
X0322698Y0161952D01*
X0322710Y0161786D01*
X0322678Y0161619D01*
X0322569Y0161431D01*
X0322381Y0161322D01*
X0322177Y0161283D01*
X0322081Y0161283D01*
X0319517D01*
X0319517Y0161283D01*
Y0161283D01*
X0319017Y0161167D01*
X0319011Y0161171D01*
X0318548Y0161263D01*
X0318084Y0161171D01*
X0317692Y0160908D01*
X0317429Y0160516D01*
X0317337Y0160052D01*
X0317429Y0159589D01*
X0317692Y0159196D01*
X0318084Y0158934D01*
X0318548Y0158842D01*
X0319011Y0158934D01*
X0319017Y0158938D01*
X0319517Y0158671D01*
Y0158317D01*
X0322483D01*
X0322483Y0158317D01*
Y0158317D01*
X0322589Y0158203D01*
X0322644Y0158144D01*
X0322838Y0158014D01*
X0323037Y0157881D01*
X0323500Y0157789D01*
X0323963Y0157881D01*
X0324356Y0158144D01*
X0324472Y0158317D01*
X0325917D01*
Y0157717D01*
X0327500D01*
Y0159800D01*
X0328000D01*
Y0160300D01*
X0330083D01*
Y0160917D01*
X0330883D01*
Y0162500D01*
X0326717D01*
Y0162236D01*
X0326381Y0161900D01*
X0325886Y0161936D01*
X0325683Y0162285D01*
Y0164483D01*
D02*
G37*
G36*
X0329083Y0166700D02*
X0327000D01*
X0324917D01*
Y0165117D01*
X0326232D01*
X0326717Y0165083D01*
X0326717Y0164617D01*
Y0163500D01*
X0330883D01*
X0330883Y0165083D01*
X0331368Y0165117D01*
X0331563D01*
Y0166700D01*
X0329980D01*
X0329980Y0165213D01*
X0329532Y0165102D01*
X0329083Y0165213D01*
X0329083Y0165583D01*
Y0166700D01*
D02*
G37*
G36*
X0330083Y0159300D02*
X0328500D01*
Y0157717D01*
X0330083D01*
Y0159300D01*
D02*
G37*
G36*
X0334000Y0157382D02*
X0333125Y0157266D01*
X0332309Y0156929D01*
X0331609Y0156391D01*
X0331321Y0156016D01*
X0329483D01*
Y0156683D01*
X0326517D01*
Y0153717D01*
X0329483D01*
Y0154384D01*
X0330290D01*
X0330619Y0154008D01*
X0330618Y0154000D01*
X0330734Y0153125D01*
X0331071Y0152309D01*
X0331609Y0151609D01*
X0332309Y0151071D01*
X0333125Y0150733D01*
X0334000Y0150618D01*
X0334875Y0150733D01*
X0335691Y0151071D01*
X0336391Y0151609D01*
X0336929Y0152309D01*
X0337266Y0153125D01*
X0337382Y0154000D01*
X0337266Y0154875D01*
X0336929Y0155691D01*
X0336391Y0156391D01*
X0335691Y0156929D01*
X0334875Y0157266D01*
X0334000Y0157382D01*
D02*
G37*
%LPD*%
D10*
X0241500Y0175500D02*
Y0178700D01*
Y0175500D02*
X0241600Y0175400D01*
X0220872Y0177728D02*
Y0177845D01*
Y0177728D02*
X0221954Y0176646D01*
X0176966Y0170719D02*
X0178921Y0172674D01*
X0251709Y0178691D02*
X0258509D01*
D15*
X0309000Y0160900D02*
X0312200D01*
X0312400Y0161100D01*
X0265100Y0167800D02*
X0265700D01*
X0266300Y0168400D01*
X0218800Y0164200D02*
X0221413Y0161587D01*
X0234072D01*
X0234259Y0161400D02*
X0236655D01*
X0234072Y0161587D02*
X0234259Y0161400D01*
X0275000Y0174797D02*
Y0176350D01*
X0274905Y0174703D02*
X0275000Y0174797D01*
X0210400Y0168800D02*
X0225105D01*
X0315300Y0157603D02*
X0319586Y0153317D01*
X0315300Y0157603D02*
Y0158514D01*
X0314614Y0159200D02*
X0315300Y0158514D01*
X0270214Y0169006D02*
X0270225D01*
X0268447Y0169457D02*
X0269762D01*
X0270214Y0169006D01*
X0267995D02*
X0268447Y0169457D01*
X0266700Y0169006D02*
X0267995D01*
X0251700Y0178700D02*
X0251709Y0178691D01*
X0241500Y0178700D02*
X0251700D01*
X0210317Y0173283D02*
X0213183D01*
X0210317D02*
X0211000Y0172600D01*
X0213183Y0173283D02*
X0213450Y0173550D01*
Y0174483D02*
X0213467Y0174500D01*
X0213450Y0173550D02*
X0214400Y0172600D01*
X0213467Y0174500D02*
X0218600D01*
X0213450Y0173550D02*
Y0174483D01*
X0209283Y0173751D02*
Y0174014D01*
X0208814Y0174483D02*
X0209283Y0174014D01*
X0208551Y0174483D02*
X0208814D01*
X0208534Y0174500D02*
X0208551Y0174483D01*
X0204300Y0174500D02*
X0208534D01*
X0204300Y0170402D02*
Y0174500D01*
X0209751Y0173283D02*
X0210317D01*
X0209283Y0173751D02*
X0209751Y0173283D01*
X0239750Y0161400D02*
X0242650Y0158500D01*
X0236655Y0161400D02*
X0236842Y0161587D01*
X0238158D02*
X0238345Y0161400D01*
X0239750D01*
X0236842Y0161587D02*
X0238158D01*
X0270650Y0150150D02*
X0270800Y0150000D01*
X0268700Y0152100D02*
X0270650Y0150150D01*
X0258400Y0151600D02*
X0258900Y0152100D01*
X0258400Y0151200D02*
Y0151600D01*
X0258900Y0152100D02*
X0268700D01*
X0312400Y0161100D02*
X0314300Y0159200D01*
X0314614D01*
X0320366Y0153000D02*
X0322097D01*
X0319586Y0153317D02*
X0320048D01*
X0320366Y0153000D01*
X0296000Y0170581D02*
X0302256D01*
X0207490Y0177291D02*
X0210910D01*
X0211000Y0177200D01*
X0207400D02*
X0207490Y0177291D01*
X0206681Y0166319D02*
Y0168021D01*
Y0166319D02*
X0208800Y0164200D01*
X0204300Y0170402D02*
X0206681Y0168021D01*
X0217171Y0177200D02*
Y0177882D01*
X0217048Y0178004D02*
X0217171Y0177882D01*
X0217048Y0178004D02*
Y0178552D01*
X0216900Y0178700D02*
X0217048Y0178552D01*
X0225986Y0169682D02*
X0226868Y0170563D01*
X0225105Y0168800D02*
X0226552Y0170248D01*
X0208800Y0164200D02*
X0218800D01*
X0214400Y0177200D02*
X0217171D01*
X0211000D02*
X0214400D01*
X0204300Y0174500D02*
Y0178400D01*
X0177500Y0160600D02*
X0177766D01*
X0179234Y0159132D02*
X0179500D01*
X0177766Y0160600D02*
X0179234Y0159132D01*
X0270225Y0169006D02*
X0272587Y0166644D01*
X0274905Y0174703D02*
X0275091Y0174518D01*
X0272587Y0166644D02*
X0275091D01*
X0323500Y0159000D02*
X0323817Y0159317D01*
X0270500Y0152000D02*
X0270650Y0151850D01*
Y0150150D02*
Y0151850D01*
X0323817Y0159117D02*
Y0159317D01*
Y0159117D02*
X0324500Y0159800D01*
X0323517Y0154517D02*
X0323817D01*
X0324000Y0154700D01*
X0322097Y0153000D02*
X0322883Y0153786D01*
X0324000Y0154700D02*
Y0155000D01*
X0324200Y0155200D02*
X0324500D01*
X0324000Y0155000D02*
X0324200Y0155200D01*
X0322883Y0153786D02*
Y0153883D01*
X0323517Y0154517D01*
X0324200Y0163000D02*
X0324500Y0162700D01*
Y0159800D02*
Y0162700D01*
X0332618Y0154000D02*
X0334000D01*
X0331418Y0155200D02*
X0332618Y0154000D01*
X0328000Y0155200D02*
X0331418D01*
D16*
X0305459Y0165460D02*
X0305840D01*
X0304675Y0164675D02*
X0305459Y0165460D01*
X0302256Y0164675D02*
X0304675D01*
X0238414Y0171813D02*
Y0172095D01*
X0237931Y0176969D02*
X0239487Y0175413D01*
X0238414Y0172095D02*
X0238595Y0172276D01*
X0239487Y0175413D02*
X0239600D01*
X0251500D02*
Y0175500D01*
X0250400Y0176600D02*
X0251500Y0175500D01*
X0264047Y0173650D02*
X0266196Y0175800D01*
X0258887Y0166087D02*
X0264047Y0171247D01*
Y0173650D01*
X0265600Y0170900D02*
Y0171600D01*
Y0170900D02*
X0265919Y0170581D01*
X0265057Y0164258D02*
X0266542D01*
X0265768Y0166313D02*
X0266756Y0167300D01*
X0264272Y0166313D02*
X0265768D01*
X0263972Y0166013D02*
X0264272Y0166313D01*
X0266182Y0165313D02*
X0267170Y0166300D01*
X0264698Y0165313D02*
X0266182D01*
X0266542Y0164258D02*
X0267584Y0165300D01*
X0267170Y0166300D02*
X0269675D01*
X0267584Y0165300D02*
X0268804D01*
X0264386Y0165000D02*
X0264698Y0165313D01*
X0266756Y0167300D02*
X0268271D01*
X0264754Y0163953D02*
X0265057Y0164258D01*
X0261628Y0163953D02*
X0264754D01*
X0236983Y0170983D02*
X0237583D01*
X0238414Y0171813D01*
X0238083Y0174717D02*
X0239012Y0173787D01*
X0239216D01*
X0240087Y0172700D02*
X0240499D01*
X0240087D02*
Y0172916D01*
X0239216Y0173787D02*
X0240087Y0172916D01*
X0248110Y0168510D02*
X0249621Y0167000D01*
X0250600D01*
X0318548Y0160052D02*
X0318800Y0159800D01*
X0220957Y0160487D02*
X0233616D01*
X0218444Y0163000D02*
X0220957Y0160487D01*
X0233904Y0160200D02*
X0236661D01*
X0233616Y0160487D02*
X0233904Y0160200D01*
X0212711Y0170411D02*
X0218448D01*
X0212700Y0170400D02*
X0212711Y0170411D01*
X0212800Y0166600D02*
X0214800D01*
X0304600Y0177200D02*
Y0177400D01*
X0304139Y0177861D02*
X0304600Y0177400D01*
X0304102Y0174600D02*
X0305200D01*
X0304083Y0174618D02*
X0304102Y0174600D01*
X0303982Y0174518D02*
X0304083Y0174618D01*
X0302256Y0174518D02*
X0303982D01*
X0260700Y0160200D02*
Y0161600D01*
X0259586Y0159086D02*
X0260700Y0160200D01*
X0258841Y0166087D02*
X0258887D01*
X0256213Y0163459D02*
X0258841Y0166087D01*
X0256213Y0163413D02*
Y0163459D01*
X0247057Y0154257D02*
X0256213Y0163413D01*
X0259302Y0165087D02*
X0260227Y0166013D01*
X0259256Y0165087D02*
X0259302D01*
X0257213Y0163045D02*
X0259256Y0165087D01*
X0257213Y0162713D02*
Y0163045D01*
X0245900Y0151400D02*
X0257213Y0162713D01*
X0260027Y0164087D02*
X0260939Y0165000D01*
X0259670Y0164087D02*
X0260027D01*
X0258213Y0162630D02*
X0259670Y0164087D01*
X0258213Y0162273D02*
Y0162630D01*
X0258100Y0162161D02*
X0258213Y0162273D01*
X0260762Y0163087D02*
X0261628Y0163953D01*
X0260084Y0163087D02*
X0260762D01*
X0259213Y0162216D02*
X0260084Y0163087D01*
X0259213Y0161538D02*
Y0162216D01*
X0247075Y0149400D02*
X0259213Y0161538D01*
X0260884Y0157013D02*
X0261162D01*
X0260013Y0157884D02*
Y0158162D01*
X0259586Y0158589D02*
X0260013Y0158162D01*
X0261162Y0157013D02*
X0262175Y0156000D01*
X0260013Y0157884D02*
X0260884Y0157013D01*
X0259586Y0158589D02*
Y0159086D01*
X0258100Y0162007D02*
Y0162161D01*
X0207461Y0150400D02*
X0246493D01*
X0258100Y0162007D01*
X0260939Y0165000D02*
X0264386D01*
X0207875Y0151400D02*
X0245900D01*
X0260227Y0166013D02*
X0263972D01*
X0233803Y0154257D02*
X0247057D01*
X0266614Y0162770D02*
X0266948Y0162436D01*
X0265985Y0162770D02*
X0266614D01*
X0268841Y0167870D02*
X0269105D01*
X0268271Y0167300D02*
X0268841Y0167870D01*
X0271624Y0162472D02*
X0274856D01*
X0270713Y0163384D02*
X0271624Y0162472D01*
X0270713Y0163384D02*
Y0163391D01*
X0268804Y0165300D02*
X0270713Y0163391D01*
X0272056Y0164000D02*
X0272200D01*
X0272016Y0163960D02*
X0272056Y0164000D01*
X0274856Y0162472D02*
X0275091Y0162707D01*
X0255500Y0170333D02*
X0255700Y0170533D01*
Y0170600D01*
X0243214Y0174214D02*
X0243400Y0174400D01*
X0242517Y0174214D02*
X0243214D01*
X0242351Y0174048D02*
X0242517Y0174214D01*
X0245448Y0175152D02*
Y0176152D01*
Y0175152D02*
X0247300Y0173300D01*
X0244800D02*
X0247300D01*
X0244472Y0172972D02*
X0244800Y0173300D01*
X0244472Y0172894D02*
Y0172972D01*
X0236300Y0177200D02*
X0236531Y0176969D01*
X0237455Y0175400D02*
X0238083Y0174773D01*
X0236531Y0176969D02*
X0237931D01*
X0238083Y0174717D02*
Y0174773D01*
X0234300Y0175400D02*
X0237455D01*
X0189819Y0174119D02*
X0189900Y0174200D01*
X0189819Y0171679D02*
Y0174119D01*
X0237314Y0160187D02*
X0237500Y0160000D01*
X0236675Y0160187D02*
X0237314D01*
X0236661Y0160200D02*
X0236675Y0160187D01*
X0220953Y0154257D02*
X0221396Y0154700D01*
X0231697D01*
X0231884Y0154513D02*
X0233547D01*
X0231697Y0154700D02*
X0231884Y0154513D01*
X0233547D02*
X0233803Y0154257D01*
X0207151Y0150709D02*
X0207461Y0150400D01*
X0195391Y0149709D02*
X0206737D01*
X0247538D02*
X0247709D01*
X0247228Y0149400D02*
X0247538Y0149709D01*
X0207047Y0149400D02*
X0247228D01*
X0202291Y0150709D02*
X0207151D01*
X0207387Y0154391D02*
X0207623Y0154627D01*
X0210395D01*
X0206737Y0149709D02*
X0207047Y0149400D01*
X0202400Y0155800D02*
X0203809Y0154391D01*
X0210765Y0154257D02*
X0220953D01*
X0210395Y0154627D02*
X0210765Y0154257D01*
X0203809Y0154391D02*
X0207387D01*
X0206775Y0152500D02*
X0207875Y0151400D01*
X0187500Y0158166D02*
X0188072Y0157594D01*
X0184876Y0163449D02*
X0187500Y0160825D01*
X0188825Y0159598D02*
Y0160914D01*
X0187500Y0158166D02*
Y0160825D01*
X0188825Y0159598D02*
X0188987Y0159436D01*
X0182066Y0160500D02*
X0185722D01*
X0185812Y0160409D01*
X0188800Y0160939D02*
X0188825Y0160914D01*
X0188800Y0160939D02*
Y0161400D01*
X0181966Y0160600D02*
X0182066Y0160500D01*
X0184600Y0165600D02*
X0188800Y0161400D01*
X0183336Y0163449D02*
X0184876D01*
X0198500Y0152500D02*
Y0152657D01*
X0198791Y0152948D01*
Y0153065D01*
X0200091Y0154366D01*
X0202134D01*
X0199200Y0155600D02*
Y0156400D01*
X0200091Y0154366D02*
Y0154709D01*
X0199200Y0155600D02*
X0200091Y0154709D01*
X0226868Y0176469D02*
X0230968D01*
X0231700Y0177200D01*
X0240421Y0170810D02*
X0240499D01*
X0240327Y0170717D02*
X0240421Y0170810D01*
X0240327Y0170638D02*
Y0170717D01*
X0239600Y0169911D02*
X0240327Y0170638D01*
X0239600Y0168100D02*
Y0169911D01*
X0236200Y0170200D02*
X0236983Y0170983D01*
X0202400Y0155800D02*
Y0157147D01*
X0269950Y0177450D02*
X0271100Y0178600D01*
X0202252Y0157706D02*
X0202363Y0157595D01*
X0268300Y0175800D02*
X0269950Y0177450D01*
X0202363Y0157184D02*
Y0157595D01*
Y0157184D02*
X0202400Y0157147D01*
X0204000Y0152500D02*
X0206775D01*
X0191000Y0154100D02*
Y0170460D01*
X0181966Y0165600D02*
X0184600D01*
X0189800Y0171660D02*
X0191000Y0170460D01*
Y0154100D02*
X0195391Y0149709D01*
X0183087Y0163200D02*
X0183336Y0163449D01*
X0179900Y0163200D02*
X0183087D01*
X0189406Y0157594D02*
X0189500Y0157500D01*
X0188072Y0157594D02*
X0189406D01*
X0268200Y0159445D02*
Y0161155D01*
X0267483Y0161873D02*
Y0162001D01*
Y0161873D02*
X0268200Y0161155D01*
X0266948Y0162436D02*
X0267048D01*
X0267483Y0162001D01*
X0268200Y0159445D02*
X0270166Y0157479D01*
X0217171Y0177200D02*
X0217522Y0176848D01*
Y0176759D02*
Y0176848D01*
Y0176759D02*
X0217813Y0176469D01*
X0218600D01*
X0266196Y0175800D02*
X0268300D01*
X0258509Y0178691D02*
X0261709D01*
X0262500Y0177900D01*
X0264900D01*
X0271100Y0178600D02*
X0277700D01*
X0210200Y0166600D02*
Y0169000D01*
X0218448Y0170411D02*
X0218600Y0170563D01*
X0244200Y0168100D02*
X0245000Y0168900D01*
X0247700Y0168100D02*
X0248110Y0168510D01*
X0244200Y0168100D02*
X0247700D01*
X0277847Y0177274D02*
Y0178454D01*
X0277700Y0178600D02*
X0277847Y0178454D01*
X0302438Y0162889D02*
X0303484D01*
X0232250Y0170050D02*
X0236100Y0173900D01*
X0231750Y0170050D02*
X0232250D01*
X0231150D02*
X0231750D01*
X0232483Y0174183D02*
X0233083D01*
X0234300Y0175400D01*
X0231700Y0173400D02*
X0232483Y0174183D01*
X0230900Y0174500D02*
X0231500Y0173900D01*
X0226868Y0174500D02*
X0230900D01*
X0221954Y0174296D02*
Y0176646D01*
Y0174296D02*
X0222734Y0173516D01*
X0218600Y0170563D02*
Y0172531D01*
X0222800Y0170400D02*
Y0173450D01*
X0222734Y0173516D02*
X0222800Y0173450D01*
X0249900Y0171700D02*
Y0176300D01*
X0249010Y0170810D02*
X0249900Y0171700D01*
X0244200Y0170810D02*
X0249010D01*
X0249600Y0176600D02*
X0249900Y0176300D01*
X0244200Y0172700D02*
X0244279D01*
X0244472Y0172894D01*
X0245000Y0176600D02*
X0245448Y0176152D01*
X0228789Y0172411D02*
X0231150Y0170050D01*
X0226988Y0172411D02*
X0228789D01*
X0226868Y0172531D02*
X0226988Y0172411D01*
X0210200Y0169000D02*
X0210400Y0168800D01*
X0207400Y0171800D02*
X0210200Y0169000D01*
X0207400Y0171800D02*
Y0172600D01*
X0205300Y0164100D02*
Y0165000D01*
Y0163900D02*
Y0164100D01*
X0206200Y0163000D02*
X0218444D01*
X0205300Y0163900D02*
X0206200Y0163000D01*
X0193000Y0169900D02*
X0193400Y0169500D01*
Y0168000D02*
Y0169500D01*
X0192122Y0170778D02*
X0193000Y0169900D01*
X0192122Y0170778D02*
Y0172278D01*
X0191900Y0172500D02*
X0192122Y0172278D01*
X0191700Y0172500D02*
X0191900D01*
X0189800Y0171660D02*
X0189819Y0171679D01*
X0177500Y0165600D02*
X0179900Y0163200D01*
X0202134Y0154366D02*
X0204000Y0152500D01*
X0200500D02*
X0202291Y0150709D01*
X0247709Y0149709D02*
X0255650Y0157650D01*
X0318800Y0159800D02*
X0321000D01*
X0178100Y0152500D02*
X0178500D01*
X0178913Y0152086D01*
X0179514D01*
X0179700Y0151900D01*
X0257150Y0157650D02*
X0259200Y0155600D01*
Y0155500D02*
Y0155600D01*
X0255650Y0157650D02*
X0257150D01*
X0320900Y0163000D02*
X0324200D01*
X0269675Y0166300D02*
X0272016Y0163960D01*
X0267000Y0170581D02*
Y0172700D01*
X0266900Y0172800D02*
X0267000Y0172700D01*
X0265919Y0170581D02*
X0267000D01*
X0275091D01*
X0274008Y0156801D02*
X0275091D01*
X0273805Y0154833D02*
X0275091D01*
X0302256Y0162707D02*
X0302438Y0162889D01*
X0273717Y0157092D02*
Y0157128D01*
X0299561Y0177861D02*
X0304139D01*
X0262175Y0156000D02*
X0272638D01*
X0273366Y0157479D02*
X0273717Y0157128D01*
X0299500Y0177274D02*
Y0177800D01*
X0270166Y0157479D02*
X0273366D01*
X0272638Y0156000D02*
X0273805Y0154833D01*
X0299500Y0177800D02*
X0299561Y0177861D01*
X0273717Y0157092D02*
X0274008Y0156801D01*
X0255500Y0170333D02*
X0255663Y0170170D01*
X0254000Y0168507D02*
X0255663Y0170170D01*
X0261500Y0158500D02*
X0261611Y0158611D01*
Y0159111D01*
X0263000Y0160500D01*
X0265700D01*
X0264000Y0150000D02*
X0266200D01*
X0254000Y0168200D02*
Y0168507D01*
Y0172800D02*
X0259800D01*
X0260000Y0173000D01*
X0274500Y0160500D02*
X0275000Y0161000D01*
X0270300Y0160500D02*
X0274500D01*
X0275000Y0161000D02*
X0275091Y0160909D01*
Y0160738D02*
Y0160909D01*
D20*
X0240499Y0170810D02*
D03*
Y0172700D02*
D03*
X0244200D02*
D03*
Y0170810D02*
D03*
D21*
X0242350Y0171755D02*
D03*
D22*
X0328000Y0175000D02*
D03*
X0332600D02*
D03*
X0264900Y0177900D02*
D03*
X0269500D02*
D03*
X0239600Y0168100D02*
D03*
X0244200D02*
D03*
X0249600Y0176600D02*
D03*
X0245000D02*
D03*
X0231700Y0173400D02*
D03*
X0236300D02*
D03*
X0324200Y0163000D02*
D03*
X0328800D02*
D03*
X0270800Y0150000D02*
D03*
X0266200D02*
D03*
X0270300Y0160500D02*
D03*
X0265700D02*
D03*
X0210200Y0166600D02*
D03*
X0214800D02*
D03*
X0236200Y0170200D02*
D03*
X0231600D02*
D03*
X0231700Y0177200D02*
D03*
X0236300D02*
D03*
X0205300Y0164100D02*
D03*
X0200700D02*
D03*
D23*
X0256700Y0151400D02*
D03*
D24*
X0313500Y0156183D02*
D03*
X0310000D02*
D03*
X0306500D02*
D03*
X0313500Y0150683D02*
D03*
X0310000D02*
D03*
X0306500D02*
D03*
D25*
X0317504Y0177697D02*
D03*
X0320063D02*
D03*
X0322622D02*
D03*
X0317504Y0172303D02*
D03*
X0320063D02*
D03*
X0322622D02*
D03*
D26*
X0324000Y0175000D02*
D03*
X0316126D02*
D03*
D27*
X0231900Y0166900D02*
D03*
X0228200Y0168600D02*
D03*
X0216900Y0178700D02*
D03*
X0320900Y0163000D02*
D03*
X0258509Y0178691D02*
D03*
X0266700Y0169006D02*
D03*
X0266000Y0173500D02*
D03*
X0272400Y0177000D02*
D03*
X0272175Y0172775D02*
D03*
X0259200Y0155500D02*
D03*
X0187600Y0177900D02*
D03*
X0256300Y0166100D02*
D03*
X0179700Y0151900D02*
D03*
X0199200Y0156400D02*
D03*
X0232000Y0158200D02*
D03*
X0268500Y0163500D02*
D03*
X0174592Y0155590D02*
D03*
X0193400Y0168000D02*
D03*
X0254400Y0176300D02*
D03*
X0346240Y0149316D02*
D03*
X0344076D02*
D03*
X0341912D02*
D03*
X0339748Y0157972D02*
D03*
Y0153644D02*
D03*
Y0149316D02*
D03*
X0337584Y0157972D02*
D03*
X0338666Y0155808D02*
D03*
Y0151480D02*
D03*
X0337584Y0149316D02*
D03*
X0335420Y0175284D02*
D03*
Y0170956D02*
D03*
Y0166628D02*
D03*
Y0162300D02*
D03*
Y0157972D02*
D03*
Y0149316D02*
D03*
X0334338Y0177448D02*
D03*
X0333256Y0162300D02*
D03*
X0334338Y0160136D02*
D03*
X0333256Y0149316D02*
D03*
X0332174Y0177448D02*
D03*
Y0160136D02*
D03*
X0331092Y0149316D02*
D03*
X0330010Y0177448D02*
D03*
X0328928Y0149316D02*
D03*
X0327846Y0177448D02*
D03*
X0326764Y0149316D02*
D03*
X0325682Y0177448D02*
D03*
X0324600Y0149316D02*
D03*
X0323518Y0168792D02*
D03*
X0322436Y0149316D02*
D03*
X0320272Y0175284D02*
D03*
X0321354Y0168792D02*
D03*
X0320272Y0149316D02*
D03*
X0318108D02*
D03*
X0315944D02*
D03*
X0314862Y0177448D02*
D03*
X0312698D02*
D03*
X0309000Y0160900D02*
D03*
X0307433Y0162326D02*
D03*
X0305458Y0162149D02*
D03*
X0303484Y0162773D02*
D03*
X0305840Y0165460D02*
D03*
X0238595Y0172276D02*
D03*
X0251500Y0175413D02*
D03*
X0239600D02*
D03*
X0265600Y0171600D02*
D03*
X0265100Y0167800D02*
D03*
X0233900Y0168900D02*
D03*
X0238470Y0168845D02*
D03*
X0250600Y0167000D02*
D03*
X0251900Y0150500D02*
D03*
X0318548Y0160052D02*
D03*
X0233000Y0159000D02*
D03*
X0275000Y0176350D02*
D03*
X0274300Y0168700D02*
D03*
X0212700Y0170400D02*
D03*
X0212800Y0166600D02*
D03*
X0302300Y0148800D02*
D03*
X0297722Y0148415D02*
D03*
X0304600Y0177200D02*
D03*
X0305200Y0174600D02*
D03*
X0295600Y0150500D02*
D03*
X0291800Y0148800D02*
D03*
X0287600Y0149000D02*
D03*
X0279900Y0150200D02*
D03*
X0283700Y0149100D02*
D03*
X0260700Y0161600D02*
D03*
X0265985Y0162770D02*
D03*
X0272200Y0164000D02*
D03*
X0269105Y0167870D02*
D03*
X0255700Y0170600D02*
D03*
X0243400Y0174400D02*
D03*
X0220872Y0177845D02*
D03*
X0211170Y0174870D02*
D03*
X0189900Y0174200D02*
D03*
X0235500Y0163000D02*
D03*
X0208239Y0153139D02*
D03*
X0188987Y0159436D02*
D03*
X0185812Y0160409D02*
D03*
X0210100Y0158400D02*
D03*
X0219200Y0156100D02*
D03*
X0229600Y0176400D02*
D03*
X0209800Y0161400D02*
D03*
X0221900Y0153100D02*
D03*
X0202252Y0157706D02*
D03*
X0188100Y0165700D02*
D03*
X0189500Y0157500D02*
D03*
X0271000Y0175000D02*
D03*
X0281000Y0178228D02*
D03*
X0293500Y0150228D02*
D03*
X0302100Y0154700D02*
D03*
X0303500Y0166500D02*
D03*
X0189200Y0178700D02*
D03*
X0179500Y0159132D02*
D03*
X0204300Y0178400D02*
D03*
X0197600Y0177700D02*
D03*
X0200500Y0152500D02*
D03*
X0198500D02*
D03*
X0250000Y0161500D02*
D03*
X0232500Y0156000D02*
D03*
X0178100Y0152500D02*
D03*
X0274000Y0172500D02*
D03*
X0287842Y0178228D02*
D03*
X0283906D02*
D03*
X0303500Y0172500D02*
D03*
X0289811Y0149228D02*
D03*
X0281937Y0150228D02*
D03*
X0241600Y0175400D02*
D03*
X0261500Y0158500D02*
D03*
X0263000Y0167500D02*
D03*
X0264000Y0150000D02*
D03*
X0237500Y0160000D02*
D03*
X0323500Y0159000D02*
D03*
X0270500Y0152000D02*
D03*
D28*
X0260000Y0173000D02*
D03*
X0197000D02*
D03*
D29*
X0248110Y0168510D02*
D03*
Y0173110D02*
D03*
X0328000Y0155200D02*
D03*
Y0159800D02*
D03*
X0324500Y0155200D02*
D03*
Y0159800D02*
D03*
X0321000Y0155200D02*
D03*
Y0159800D02*
D03*
X0254000Y0168700D02*
D03*
Y0173300D02*
D03*
X0214400Y0177200D02*
D03*
Y0172600D02*
D03*
X0211000Y0177200D02*
D03*
Y0172600D02*
D03*
X0207400Y0177200D02*
D03*
Y0172600D02*
D03*
X0332063Y0171800D02*
D03*
Y0167200D02*
D03*
X0327000Y0171800D02*
D03*
Y0167200D02*
D03*
X0313063Y0171800D02*
D03*
Y0167200D02*
D03*
X0308063D02*
D03*
Y0171800D02*
D03*
D30*
X0288673Y0163691D02*
D03*
D31*
X0275091Y0152864D02*
D03*
Y0154833D02*
D03*
Y0156801D02*
D03*
Y0158770D02*
D03*
Y0160738D02*
D03*
Y0162707D02*
D03*
Y0164675D02*
D03*
Y0166644D02*
D03*
Y0168612D02*
D03*
Y0170581D02*
D03*
Y0172549D02*
D03*
Y0174518D02*
D03*
X0302256D02*
D03*
Y0172549D02*
D03*
Y0170581D02*
D03*
Y0168612D02*
D03*
Y0166644D02*
D03*
Y0164675D02*
D03*
Y0162707D02*
D03*
Y0160738D02*
D03*
Y0158770D02*
D03*
Y0156801D02*
D03*
Y0154833D02*
D03*
Y0152864D02*
D03*
D32*
X0277847Y0177274D02*
D03*
X0279815D02*
D03*
X0281784D02*
D03*
X0283752D02*
D03*
X0285720D02*
D03*
X0287689D02*
D03*
X0289657D02*
D03*
X0291626D02*
D03*
X0293595D02*
D03*
X0295563D02*
D03*
X0297532D02*
D03*
X0299500D02*
D03*
Y0150108D02*
D03*
X0297532D02*
D03*
X0295563D02*
D03*
X0293595D02*
D03*
X0291626D02*
D03*
X0289657D02*
D03*
X0287689D02*
D03*
X0285720D02*
D03*
X0283752D02*
D03*
X0281784D02*
D03*
X0279815D02*
D03*
X0277847D02*
D03*
D33*
X0218600Y0176469D02*
D03*
Y0174500D02*
D03*
Y0172531D02*
D03*
Y0170563D02*
D03*
X0226868D02*
D03*
Y0172531D02*
D03*
Y0174500D02*
D03*
Y0176469D02*
D03*
D34*
X0222734Y0173516D02*
D03*
D35*
X0176966Y0170600D02*
D03*
X0181966D02*
D03*
X0176966Y0165600D02*
D03*
X0181966D02*
D03*
X0176966Y0160600D02*
D03*
X0181966D02*
D03*
D36*
X0307898Y0175000D02*
D03*
X0312228D02*
D03*
D37*
X0340653Y0177500D02*
D03*
X0347346D02*
D03*
D38*
X0242650Y0158500D02*
D03*
X0214500D02*
D03*
D61*
X0305217Y0159583D02*
X0308080D01*
X0302269Y0158783D02*
X0307749D01*
X0308100Y0158431D01*
X0302256Y0156801D02*
X0305700D01*
X0305252Y0153283D02*
X0312047D01*
X0304833Y0152864D02*
X0305252Y0153283D01*
X0299792Y0150400D02*
X0306500D01*
X0308463Y0159200D02*
X0311114D01*
X0308080Y0159583D02*
X0308463Y0159200D01*
X0308100Y0158366D02*
X0308634Y0157831D01*
X0308100Y0158366D02*
Y0158431D01*
X0311114Y0159200D02*
X0312331Y0157983D01*
X0312047Y0153283D02*
X0312700Y0152630D01*
X0308634Y0157831D02*
X0309200D01*
X0304400Y0160400D02*
X0305217Y0159583D01*
X0302594Y0160400D02*
X0304400D01*
X0302256Y0158770D02*
X0302269Y0158783D01*
X0305619Y0165460D02*
X0305840D01*
X0272400Y0177000D02*
X0274350D01*
X0275000Y0176350D01*
X0299500Y0150108D02*
X0299792Y0150400D01*
X0305580Y0165420D02*
X0305619Y0165460D01*
X0302256Y0160738D02*
X0302594Y0160400D01*
X0302300Y0148800D02*
X0302300D01*
X0251300Y0175500D02*
X0251500D01*
X0242350Y0171755D02*
Y0174050D01*
X0249900Y0176600D02*
X0250400D01*
X0313500Y0156466D02*
Y0157183D01*
X0312700Y0157983D02*
X0313500Y0157183D01*
X0312331Y0157983D02*
X0312700D01*
X0310000Y0156466D02*
Y0157031D01*
X0309200Y0157831D02*
X0310000Y0157031D01*
X0312700Y0151200D02*
Y0152630D01*
X0302256Y0152864D02*
X0304833D01*
X0312700Y0151200D02*
X0313363Y0150537D01*
X0303017Y0148083D02*
X0307966D01*
X0302300Y0148800D02*
X0303017Y0148083D01*
X0308766Y0148883D02*
X0309200D01*
X0310000Y0149683D02*
Y0150683D01*
X0309200Y0148883D02*
X0310000Y0149683D01*
X0307966Y0148083D02*
X0308766Y0148883D01*
X0306500Y0155900D02*
Y0156001D01*
X0305700Y0156801D02*
X0306500Y0156001D01*
X0174319Y0162953D02*
X0176966Y0165600D01*
X0174319Y0155781D02*
Y0162953D01*
X0273725Y0172775D02*
X0274000Y0172500D01*
X0272175Y0172775D02*
X0273725D01*
X0251300Y0175500D02*
X0252100Y0176300D01*
X0231750Y0170050D02*
X0231800Y0170000D01*
X0231600Y0170200D02*
X0231750Y0170050D01*
X0231800Y0168400D02*
X0231900Y0168300D01*
X0231800Y0168400D02*
Y0170000D01*
X0231900Y0166900D02*
Y0168300D01*
X0252100Y0176300D02*
X0254400D01*
X0249600Y0176600D02*
X0249900D01*
X0226552Y0170248D02*
X0228200Y0168600D01*
X0226552Y0170248D02*
X0226552D01*
X0188400Y0178700D02*
X0189200D01*
X0187600Y0177900D02*
X0188400Y0178700D01*
X0197000Y0173000D02*
X0200700Y0169300D01*
Y0165000D02*
Y0169300D01*
X0285700Y0149300D02*
Y0149900D01*
X0285720Y0149920D01*
Y0150108D01*
X0266200Y0173500D02*
X0266900Y0172800D01*
X0266000Y0173500D02*
X0266200D01*
X0256500Y0166100D02*
X0257700Y0164900D01*
X0256300Y0166100D02*
X0256500D01*
X0174319Y0155781D02*
X0174401D01*
X0174782Y0155400D01*
X0175100D01*
X0268500Y0162300D02*
Y0163500D01*
Y0162300D02*
X0270300Y0160500D01*
D62*
X0216000Y0157000D02*
X0217200Y0158200D01*
X0214600Y0158400D02*
X0217000D01*
X0210100D02*
X0214600D01*
X0216000Y0157000D01*
X0214500Y0158500D02*
X0214600Y0158400D01*
X0214500Y0158500D02*
Y0159700D01*
X0215400Y0160600D01*
X0217000Y0158400D02*
X0217200Y0158200D01*
X0333005Y0174269D02*
Y0174319D01*
X0332424Y0174900D02*
X0333005Y0174319D01*
X0332128Y0174900D02*
X0332424D01*
X0285720Y0166644D02*
Y0177274D01*
Y0166644D02*
X0288673Y0163691D01*
X0276154Y0151181D02*
Y0152864D01*
X0307580Y0171180D02*
Y0171317D01*
X0308063Y0171800D01*
X0182700Y0170400D02*
X0188400D01*
X0182280D02*
X0182700D01*
X0182280D02*
X0182480Y0170600D01*
X0181966D02*
X0182480D01*
X0277847Y0150108D02*
Y0151172D01*
X0277837Y0151181D02*
X0277847Y0151172D01*
X0275091Y0152864D02*
X0276154D01*
Y0151181D02*
X0277837D01*
X0338530Y0173270D02*
X0338600Y0173200D01*
X0327000Y0171800D02*
X0327449Y0172249D01*
X0327349Y0174451D02*
X0327798Y0174900D01*
X0312228Y0175000D02*
X0312668Y0174560D01*
Y0172195D02*
X0313063Y0171800D01*
X0328000Y0159800D02*
X0328503Y0160303D01*
X0328000Y0159800D02*
X0328483Y0159317D01*
X0328503Y0162703D02*
X0328800Y0163000D01*
X0328503Y0160303D02*
Y0162703D01*
X0270800Y0150000D02*
X0277837D01*
X0277847Y0150009D02*
Y0150108D01*
X0277837Y0150000D02*
X0277847Y0150009D01*
D63*
X0327349Y0175000D02*
X0327798D01*
X0338530Y0172854D02*
X0339945D01*
X0333105Y0174369D02*
X0334619Y0172854D01*
X0332926D02*
X0334619D01*
X0332100Y0172029D02*
X0332926Y0172854D01*
X0334619D02*
X0338530D01*
X0305012Y0168612D02*
X0305700Y0169300D01*
X0307580Y0171180D01*
X0302256Y0168612D02*
X0305012D01*
X0308063Y0171800D02*
Y0174665D01*
X0327449Y0172249D02*
Y0174551D01*
X0324000Y0175000D02*
X0327449D01*
X0312228D02*
X0316126D01*
X0312668Y0172195D02*
Y0174560D01*
D64*
X0178921Y0173714D02*
X0179150Y0173944D01*
X0176966Y0170600D02*
Y0170719D01*
X0339530Y0173270D02*
X0339945Y0172854D01*
X0182500Y0170600D02*
X0182700Y0170400D01*
X0182748Y0170352D01*
D65*
X0340327Y0175110D02*
D03*
D66*
X0339750Y0172295D02*
D03*
D67*
X0343910Y0162657D02*
D03*
D68*
X0347847Y0170531D02*
D03*
D69*
X0339972Y0164626D02*
D03*
D70*
X0183466Y0175600D02*
D03*
X0175466D02*
D03*
X0179466Y0155600D02*
D03*
D71*
X0344000Y0154000D02*
D03*
D72*
X0334000D02*
D03*
D73*
X0204900Y0158300D02*
D03*
X0287500Y0170100D02*
D03*
X0204700Y0167200D02*
D03*
X0288600Y0164300D02*
D03*
X0191700Y0172500D02*
D03*
X0188400Y0170400D02*
D03*
X0196700Y0158700D02*
D03*
X0251464Y0170565D02*
D03*
X0295500Y0165500D02*
D03*
X0292000Y0160500D02*
D03*
X0280500Y0165000D02*
D03*
Y0160500D02*
D03*
X0298000Y0172000D02*
D03*
X0286000Y0160500D02*
D03*
X0296000Y0155500D02*
D03*
X0280500D02*
D03*
Y0172500D02*
D03*
D74*
X0186077Y0156477D02*
D03*
X0179150Y0173944D02*
D03*
M02*
