G04*
G04 #@! TF.GenerationSoftware,Altium Limited,Altium Designer,20.0.13 (296)*
G04*
G04 Layer_Physical_Order=3*
G04 Layer_Color=16440176*
%FSAX25Y25*%
%MOIN*%
G70*
G01*
G75*
%ADD10C,0.01000*%
%ADD27C,0.01575*%
%ADD71R,0.05906X0.05906*%
%ADD73C,0.02362*%
%ADD74C,0.03000*%
G36*
X0336851Y0160315D02*
X0336977Y0160009D01*
X0337283Y0159882D01*
X0348831D01*
Y0148000D01*
X0303749D01*
X0303451Y0148500D01*
X0303511Y0148800D01*
X0303418Y0149263D01*
X0303156Y0149656D01*
X0302763Y0149918D01*
X0302300Y0150011D01*
X0301837Y0149918D01*
X0301444Y0149656D01*
X0301182Y0149263D01*
X0301089Y0148800D01*
X0301149Y0148500D01*
X0300851Y0148000D01*
X0299244D01*
X0298927Y0148387D01*
X0298933Y0148415D01*
X0298841Y0148878D01*
X0298578Y0149271D01*
X0298185Y0149534D01*
X0297722Y0149626D01*
X0297259Y0149534D01*
X0296866Y0149271D01*
X0296604Y0148878D01*
X0296511Y0148415D01*
X0296517Y0148387D01*
X0296200Y0148000D01*
X0293368D01*
X0293071Y0148426D01*
X0293200Y0148890D01*
X0293476Y0149022D01*
X0293500Y0149018D01*
X0293963Y0149110D01*
X0294356Y0149372D01*
X0294744Y0149644D01*
X0295137Y0149381D01*
X0295600Y0149289D01*
X0296063Y0149381D01*
X0296456Y0149644D01*
X0296719Y0150037D01*
X0296811Y0150500D01*
X0296719Y0150963D01*
X0296456Y0151356D01*
X0296063Y0151619D01*
X0295600Y0151711D01*
X0295137Y0151619D01*
X0294744Y0151356D01*
X0294356Y0151084D01*
X0293963Y0151347D01*
X0293500Y0151439D01*
X0293037Y0151347D01*
X0292644Y0151084D01*
X0292382Y0150692D01*
X0292289Y0150228D01*
X0291824Y0150006D01*
X0291800Y0150011D01*
X0291337Y0149918D01*
X0291335Y0149917D01*
X0290930Y0149692D01*
X0290667Y0150084D01*
X0290274Y0150347D01*
X0289811Y0150439D01*
X0289348Y0150347D01*
X0288955Y0150084D01*
X0288930Y0150047D01*
X0288456Y0149856D01*
X0288063Y0150119D01*
X0287600Y0150211D01*
X0287137Y0150119D01*
X0286744Y0149856D01*
X0286481Y0149463D01*
X0286389Y0149000D01*
X0286481Y0148537D01*
X0286506Y0148500D01*
X0286239Y0148000D01*
X0284994D01*
X0284727Y0148500D01*
X0284819Y0148637D01*
X0284911Y0149100D01*
X0284819Y0149563D01*
X0284556Y0149956D01*
X0284163Y0150218D01*
X0283700Y0150311D01*
X0283606Y0150292D01*
X0283228Y0150240D01*
X0283063Y0150655D01*
X0283055Y0150692D01*
X0282793Y0151084D01*
X0282400Y0151347D01*
X0281937Y0151439D01*
X0281474Y0151347D01*
X0281259Y0151203D01*
X0280756Y0151056D01*
X0280363Y0151319D01*
X0279900Y0151411D01*
X0279437Y0151319D01*
X0279044Y0151056D01*
X0278782Y0150663D01*
X0278689Y0150200D01*
X0278782Y0149737D01*
X0279044Y0149344D01*
X0279437Y0149082D01*
X0279900Y0148989D01*
X0280363Y0149082D01*
X0280578Y0149225D01*
X0281081Y0149372D01*
X0281474Y0149110D01*
X0281937Y0149018D01*
X0282031Y0149036D01*
X0282409Y0149089D01*
X0282574Y0148673D01*
X0282581Y0148637D01*
X0282673Y0148500D01*
X0282406Y0148000D01*
X0173000D01*
Y0174159D01*
X0173500Y0174311D01*
X0173771Y0173905D01*
X0174549Y0173386D01*
X0175466Y0173203D01*
X0176383Y0173386D01*
X0177161Y0173905D01*
X0177680Y0174683D01*
X0177863Y0175600D01*
X0177680Y0176517D01*
X0177161Y0177295D01*
X0176383Y0177814D01*
X0175466Y0177997D01*
X0174549Y0177814D01*
X0173771Y0177295D01*
X0173500Y0176889D01*
X0173000Y0177041D01*
Y0179500D01*
X0187751D01*
X0188049Y0179000D01*
X0187989Y0178700D01*
X0188082Y0178237D01*
X0188344Y0177844D01*
X0188737Y0177582D01*
X0189200Y0177489D01*
X0189663Y0177582D01*
X0190056Y0177844D01*
X0190319Y0178237D01*
X0190411Y0178700D01*
X0190351Y0179000D01*
X0190649Y0179500D01*
X0203006D01*
X0203273Y0179000D01*
X0203182Y0178863D01*
X0203089Y0178400D01*
X0203182Y0177937D01*
X0203444Y0177544D01*
X0203837Y0177281D01*
X0204300Y0177189D01*
X0204763Y0177281D01*
X0205156Y0177544D01*
X0205418Y0177937D01*
X0205511Y0178400D01*
X0205418Y0178863D01*
X0205327Y0179000D01*
X0205594Y0179500D01*
X0227167D01*
Y0177600D01*
X0227294Y0177294D01*
X0227600Y0177167D01*
X0228129D01*
X0228443Y0176667D01*
X0228411Y0176509D01*
X0221451Y0169549D01*
X0214220Y0162318D01*
X0210564D01*
X0210263Y0162519D01*
X0209800Y0162611D01*
X0209337Y0162519D01*
X0208944Y0162256D01*
X0208682Y0161863D01*
X0208589Y0161400D01*
X0208682Y0160937D01*
X0208944Y0160544D01*
X0209337Y0160282D01*
X0209800Y0160189D01*
X0210263Y0160282D01*
X0210564Y0160482D01*
X0214600D01*
X0214951Y0160552D01*
X0215249Y0160751D01*
X0222100Y0167602D01*
X0223138Y0166564D01*
X0223436Y0166365D01*
X0223787Y0166295D01*
X0234599D01*
X0234950Y0166365D01*
X0235248Y0166564D01*
X0236336Y0167652D01*
X0236520Y0167927D01*
X0237706D01*
X0238007Y0167726D01*
X0238470Y0167634D01*
X0238933Y0167726D01*
X0239326Y0167989D01*
X0239589Y0168382D01*
X0239681Y0168845D01*
X0239589Y0169308D01*
X0239326Y0169701D01*
X0238933Y0169963D01*
X0238470Y0170055D01*
X0238007Y0169963D01*
X0237706Y0169763D01*
X0236263D01*
X0235986Y0169818D01*
X0235635Y0169748D01*
X0235439Y0169617D01*
X0235118Y0169612D01*
X0234789Y0169707D01*
X0234756Y0169756D01*
X0234363Y0170018D01*
X0233900Y0170111D01*
X0233437Y0170018D01*
X0233044Y0169756D01*
X0232782Y0169363D01*
X0232689Y0168900D01*
X0232743Y0168630D01*
X0232431Y0168130D01*
X0224167D01*
X0223398Y0168900D01*
X0229709Y0175211D01*
X0230063Y0175282D01*
X0230456Y0175544D01*
X0230718Y0175937D01*
X0230811Y0176400D01*
X0230757Y0176667D01*
X0231071Y0177167D01*
X0231700D01*
X0232006Y0177294D01*
X0232133Y0177600D01*
Y0179500D01*
X0279866D01*
X0279992Y0179311D01*
X0280087Y0179000D01*
X0279882Y0178692D01*
X0279789Y0178228D01*
X0279882Y0177765D01*
X0280144Y0177372D01*
X0280537Y0177110D01*
X0281000Y0177018D01*
X0281463Y0177110D01*
X0281856Y0177372D01*
X0282119Y0177765D01*
X0282211Y0178228D01*
X0282119Y0178692D01*
X0281912Y0179000D01*
X0282008Y0179311D01*
X0282134Y0179500D01*
X0282771D01*
X0282898Y0179311D01*
X0282993Y0179000D01*
X0282787Y0178692D01*
X0282695Y0178228D01*
X0282787Y0177765D01*
X0283049Y0177372D01*
X0283442Y0177110D01*
X0283906Y0177018D01*
X0284369Y0177110D01*
X0284762Y0177372D01*
X0285024Y0177765D01*
X0285116Y0178228D01*
X0285024Y0178692D01*
X0284818Y0179000D01*
X0284913Y0179311D01*
X0285039Y0179500D01*
X0286709D01*
X0286835Y0179311D01*
X0286930Y0179000D01*
X0286724Y0178692D01*
X0286632Y0178228D01*
X0286724Y0177765D01*
X0286986Y0177372D01*
X0287379Y0177110D01*
X0287842Y0177018D01*
X0288306Y0177110D01*
X0288699Y0177372D01*
X0288961Y0177765D01*
X0289053Y0178228D01*
X0288961Y0178692D01*
X0288755Y0179000D01*
X0288850Y0179311D01*
X0288977Y0179500D01*
X0336851D01*
Y0160315D01*
D02*
G37*
%LPC*%
G36*
X0275000Y0177561D02*
X0274537Y0177469D01*
X0274144Y0177206D01*
X0273882Y0176813D01*
X0273789Y0176350D01*
X0273882Y0175887D01*
X0274144Y0175494D01*
X0274537Y0175232D01*
X0275000Y0175139D01*
X0275463Y0175232D01*
X0275856Y0175494D01*
X0276118Y0175887D01*
X0276211Y0176350D01*
X0276118Y0176813D01*
X0275856Y0177206D01*
X0275463Y0177469D01*
X0275000Y0177561D01*
D02*
G37*
G36*
X0243900Y0176123D02*
Y0174900D01*
X0245123D01*
X0245084Y0175097D01*
X0244689Y0175689D01*
X0244097Y0176084D01*
X0243900Y0176123D01*
D02*
G37*
G36*
X0251500Y0176623D02*
X0251037Y0176531D01*
X0250644Y0176269D01*
X0250381Y0175876D01*
X0250289Y0175413D01*
X0250381Y0174949D01*
X0250644Y0174557D01*
X0251037Y0174294D01*
X0251500Y0174202D01*
X0251963Y0174294D01*
X0252356Y0174557D01*
X0252619Y0174949D01*
X0252711Y0175413D01*
X0252619Y0175876D01*
X0252356Y0176269D01*
X0251963Y0176531D01*
X0251500Y0176623D01*
D02*
G37*
G36*
X0304600Y0178411D02*
X0304137Y0178319D01*
X0303744Y0178056D01*
X0303482Y0177663D01*
X0303389Y0177200D01*
X0303482Y0176737D01*
X0303744Y0176344D01*
X0304137Y0176082D01*
X0304324Y0176044D01*
X0304430Y0175513D01*
X0304344Y0175456D01*
X0304082Y0175063D01*
X0303989Y0174600D01*
X0304082Y0174137D01*
X0304132Y0174062D01*
X0303805Y0173650D01*
X0303500Y0173711D01*
X0303037Y0173618D01*
X0302644Y0173356D01*
X0302381Y0172963D01*
X0302289Y0172500D01*
X0302381Y0172037D01*
X0302644Y0171644D01*
X0303037Y0171381D01*
X0303500Y0171289D01*
X0303963Y0171381D01*
X0304356Y0171644D01*
X0304619Y0172037D01*
X0304711Y0172500D01*
X0304619Y0172963D01*
X0304568Y0173038D01*
X0304895Y0173450D01*
X0305200Y0173389D01*
X0305663Y0173482D01*
X0306056Y0173744D01*
X0306318Y0174137D01*
X0306411Y0174600D01*
X0306318Y0175063D01*
X0306056Y0175456D01*
X0305663Y0175718D01*
X0305476Y0175756D01*
X0305370Y0176287D01*
X0305456Y0176344D01*
X0305718Y0176737D01*
X0305811Y0177200D01*
X0305718Y0177663D01*
X0305456Y0178056D01*
X0305063Y0178319D01*
X0304600Y0178411D01*
D02*
G37*
G36*
X0183466Y0177997D02*
X0182549Y0177814D01*
X0181771Y0177295D01*
X0181252Y0176517D01*
X0181069Y0175600D01*
X0181252Y0174683D01*
X0181771Y0173905D01*
X0182549Y0173386D01*
X0183466Y0173203D01*
X0184383Y0173386D01*
X0185161Y0173905D01*
X0185680Y0174683D01*
X0185863Y0175600D01*
X0185680Y0176517D01*
X0185161Y0177295D01*
X0184383Y0177814D01*
X0183466Y0177997D01*
D02*
G37*
G36*
X0245123Y0173900D02*
X0243900D01*
Y0172677D01*
X0244097Y0172716D01*
X0244689Y0173111D01*
X0245084Y0173703D01*
X0245123Y0173900D01*
D02*
G37*
G36*
X0241600Y0176611D02*
X0241137Y0176518D01*
X0240744Y0176256D01*
X0240481Y0175863D01*
X0240389Y0175400D01*
X0240481Y0174937D01*
X0240744Y0174544D01*
X0241137Y0174282D01*
X0241600Y0174189D01*
X0241622Y0174174D01*
X0241716Y0173703D01*
X0242111Y0173111D01*
X0242703Y0172716D01*
X0242900Y0172677D01*
Y0174400D01*
Y0176123D01*
X0242703Y0176084D01*
X0242551Y0176114D01*
X0242456Y0176256D01*
X0242063Y0176518D01*
X0241600Y0176611D01*
D02*
G37*
G36*
X0274000Y0173711D02*
X0273537Y0173618D01*
X0273144Y0173356D01*
X0272882Y0172963D01*
X0272789Y0172500D01*
X0272882Y0172037D01*
X0273144Y0171644D01*
X0273537Y0171381D01*
X0274000Y0171289D01*
X0274463Y0171381D01*
X0274856Y0171644D01*
X0275118Y0172037D01*
X0275211Y0172500D01*
X0275118Y0172963D01*
X0274856Y0173356D01*
X0274463Y0173618D01*
X0274000Y0173711D01*
D02*
G37*
G36*
X0189900Y0175411D02*
X0189437Y0175319D01*
X0189044Y0175056D01*
X0188781Y0174663D01*
X0188689Y0174200D01*
X0188781Y0173737D01*
X0189044Y0173344D01*
X0189437Y0173082D01*
X0189900Y0172989D01*
X0190138Y0172751D01*
X0190088Y0172500D01*
X0190211Y0171883D01*
X0190560Y0171360D01*
X0191083Y0171011D01*
X0191700Y0170888D01*
X0192317Y0171011D01*
X0192840Y0171360D01*
X0193189Y0171883D01*
X0193312Y0172500D01*
X0193189Y0173117D01*
X0192840Y0173640D01*
X0192317Y0173989D01*
X0191700Y0174112D01*
X0191599Y0174092D01*
X0191111Y0174200D01*
X0191018Y0174663D01*
X0190756Y0175056D01*
X0190363Y0175319D01*
X0189900Y0175411D01*
D02*
G37*
G36*
X0265600Y0172811D02*
X0265137Y0172719D01*
X0264744Y0172456D01*
X0264481Y0172063D01*
X0264389Y0171600D01*
X0264481Y0171137D01*
X0264744Y0170744D01*
X0265137Y0170482D01*
X0265600Y0170389D01*
X0266063Y0170482D01*
X0266456Y0170744D01*
X0266719Y0171137D01*
X0266811Y0171600D01*
X0266719Y0172063D01*
X0266456Y0172456D01*
X0266063Y0172719D01*
X0265600Y0172811D01*
D02*
G37*
G36*
X0255700Y0171811D02*
X0255237Y0171719D01*
X0254844Y0171456D01*
X0254581Y0171063D01*
X0254489Y0170600D01*
X0254581Y0170137D01*
X0254844Y0169744D01*
X0255237Y0169482D01*
X0255700Y0169389D01*
X0256163Y0169482D01*
X0256556Y0169744D01*
X0256819Y0170137D01*
X0256911Y0170600D01*
X0256819Y0171063D01*
X0256556Y0171456D01*
X0256163Y0171719D01*
X0255700Y0171811D01*
D02*
G37*
G36*
X0251464Y0172177D02*
X0250847Y0172055D01*
X0250324Y0171705D01*
X0249974Y0171182D01*
X0249852Y0170565D01*
X0249974Y0169948D01*
X0250324Y0169425D01*
X0250847Y0169076D01*
X0251464Y0168953D01*
X0252081Y0169076D01*
X0252604Y0169425D01*
X0252953Y0169948D01*
X0253076Y0170565D01*
X0252953Y0171182D01*
X0252604Y0171705D01*
X0252081Y0172055D01*
X0251464Y0172177D01*
D02*
G37*
G36*
X0188400Y0172012D02*
X0187783Y0171889D01*
X0187260Y0171540D01*
X0186911Y0171017D01*
X0186788Y0170400D01*
X0186911Y0169783D01*
X0187260Y0169260D01*
X0187783Y0168911D01*
X0188400Y0168788D01*
X0189017Y0168911D01*
X0189540Y0169260D01*
X0189889Y0169783D01*
X0190012Y0170400D01*
X0189889Y0171017D01*
X0189540Y0171540D01*
X0189017Y0171889D01*
X0188400Y0172012D01*
D02*
G37*
G36*
X0274300Y0169911D02*
X0273837Y0169818D01*
X0273444Y0169556D01*
X0273182Y0169163D01*
X0273089Y0168700D01*
X0273182Y0168237D01*
X0273444Y0167844D01*
X0273837Y0167581D01*
X0274300Y0167489D01*
X0274763Y0167581D01*
X0275156Y0167844D01*
X0275418Y0168237D01*
X0275511Y0168700D01*
X0275418Y0169163D01*
X0275156Y0169556D01*
X0274763Y0169818D01*
X0274300Y0169911D01*
D02*
G37*
G36*
X0269105Y0169081D02*
X0268641Y0168989D01*
X0268249Y0168726D01*
X0267986Y0168333D01*
X0267894Y0167870D01*
X0267986Y0167407D01*
X0268249Y0167014D01*
X0268641Y0166752D01*
X0269105Y0166659D01*
X0269568Y0166752D01*
X0269961Y0167014D01*
X0270223Y0167407D01*
X0270315Y0167870D01*
X0270223Y0168333D01*
X0269961Y0168726D01*
X0269568Y0168989D01*
X0269105Y0169081D01*
D02*
G37*
G36*
X0265100Y0169011D02*
X0264637Y0168919D01*
X0264244Y0168656D01*
X0263982Y0168263D01*
X0263889Y0167800D01*
X0263982Y0167337D01*
X0264244Y0166944D01*
X0264637Y0166682D01*
X0265100Y0166589D01*
X0265563Y0166682D01*
X0265956Y0166944D01*
X0266218Y0167337D01*
X0266311Y0167800D01*
X0266218Y0168263D01*
X0265956Y0168656D01*
X0265563Y0168919D01*
X0265100Y0169011D01*
D02*
G37*
G36*
X0204700Y0168812D02*
X0204083Y0168689D01*
X0203560Y0168340D01*
X0203211Y0167817D01*
X0203088Y0167200D01*
X0203211Y0166583D01*
X0203560Y0166060D01*
X0204083Y0165711D01*
X0204700Y0165588D01*
X0205317Y0165711D01*
X0205840Y0166060D01*
X0206189Y0166583D01*
X0206312Y0167200D01*
X0206189Y0167817D01*
X0205840Y0168340D01*
X0205317Y0168689D01*
X0204700Y0168812D01*
D02*
G37*
G36*
X0188100Y0166911D02*
X0187637Y0166818D01*
X0187244Y0166556D01*
X0186981Y0166163D01*
X0186889Y0165700D01*
X0186981Y0165237D01*
X0187244Y0164844D01*
X0187637Y0164582D01*
X0188100Y0164489D01*
X0188563Y0164582D01*
X0188956Y0164844D01*
X0189218Y0165237D01*
X0189311Y0165700D01*
X0189218Y0166163D01*
X0188956Y0166556D01*
X0188563Y0166818D01*
X0188100Y0166911D01*
D02*
G37*
G36*
X0303500Y0167711D02*
X0303037Y0167619D01*
X0302644Y0167356D01*
X0302381Y0166963D01*
X0302289Y0166500D01*
X0302381Y0166037D01*
X0302644Y0165644D01*
X0303037Y0165382D01*
X0303500Y0165289D01*
X0303963Y0165382D01*
X0304150Y0165506D01*
X0304212Y0165500D01*
X0304666Y0165277D01*
X0304722Y0164996D01*
X0304984Y0164603D01*
X0305377Y0164341D01*
X0305840Y0164249D01*
X0306304Y0164341D01*
X0306697Y0164603D01*
X0306959Y0164996D01*
X0307051Y0165460D01*
X0306959Y0165923D01*
X0306697Y0166315D01*
X0306304Y0166578D01*
X0305840Y0166670D01*
X0305377Y0166578D01*
X0305191Y0166454D01*
X0305128Y0166460D01*
X0304674Y0166683D01*
X0304619Y0166963D01*
X0304356Y0167356D01*
X0303963Y0167619D01*
X0303500Y0167711D01*
D02*
G37*
G36*
X0272200Y0165211D02*
X0271737Y0165119D01*
X0271344Y0164856D01*
X0271081Y0164463D01*
X0270989Y0164000D01*
X0271081Y0163537D01*
X0271344Y0163144D01*
X0271737Y0162882D01*
X0272200Y0162789D01*
X0272663Y0162882D01*
X0273056Y0163144D01*
X0273319Y0163537D01*
X0273411Y0164000D01*
X0273319Y0164463D01*
X0273056Y0164856D01*
X0272663Y0165119D01*
X0272200Y0165211D01*
D02*
G37*
G36*
X0303484Y0163984D02*
X0303020Y0163892D01*
X0302628Y0163629D01*
X0302365Y0163236D01*
X0302273Y0162773D01*
X0302365Y0162310D01*
X0302628Y0161917D01*
X0303020Y0161655D01*
X0303484Y0161563D01*
X0303947Y0161655D01*
X0304340Y0161917D01*
X0304602Y0162310D01*
X0304694Y0162773D01*
X0304602Y0163236D01*
X0304340Y0163629D01*
X0303947Y0163892D01*
X0303484Y0163984D01*
D02*
G37*
G36*
X0265985Y0163981D02*
X0265522Y0163889D01*
X0265129Y0163626D01*
X0264867Y0163233D01*
X0264775Y0162770D01*
X0264867Y0162307D01*
X0265129Y0161914D01*
X0265522Y0161652D01*
X0265985Y0161559D01*
X0266449Y0161652D01*
X0266841Y0161914D01*
X0267104Y0162307D01*
X0267196Y0162770D01*
X0267104Y0163233D01*
X0266841Y0163626D01*
X0266449Y0163889D01*
X0265985Y0163981D01*
D02*
G37*
G36*
X0260700Y0162811D02*
X0260237Y0162718D01*
X0259844Y0162456D01*
X0259581Y0162063D01*
X0259489Y0161600D01*
X0259581Y0161137D01*
X0259844Y0160744D01*
X0260237Y0160482D01*
X0260700Y0160389D01*
X0261163Y0160482D01*
X0261556Y0160744D01*
X0261819Y0161137D01*
X0261911Y0161600D01*
X0261819Y0162063D01*
X0261556Y0162456D01*
X0261163Y0162718D01*
X0260700Y0162811D01*
D02*
G37*
G36*
X0307433Y0163537D02*
X0306970Y0163444D01*
X0306577Y0163182D01*
X0306315Y0162789D01*
X0306223Y0162326D01*
X0306315Y0161863D01*
X0306577Y0161470D01*
X0306970Y0161207D01*
X0307327Y0161137D01*
X0307492Y0161052D01*
X0307832Y0160685D01*
X0307881Y0160437D01*
X0308144Y0160044D01*
X0308537Y0159782D01*
X0309000Y0159689D01*
X0309463Y0159782D01*
X0309856Y0160044D01*
X0310119Y0160437D01*
X0310211Y0160900D01*
X0310119Y0161363D01*
X0309856Y0161756D01*
X0309463Y0162019D01*
X0309107Y0162090D01*
X0308941Y0162174D01*
X0308601Y0162541D01*
X0308552Y0162789D01*
X0308289Y0163182D01*
X0307896Y0163444D01*
X0307433Y0163537D01*
D02*
G37*
G36*
X0185812Y0161620D02*
X0185349Y0161528D01*
X0184956Y0161265D01*
X0184694Y0160872D01*
X0184602Y0160409D01*
X0184694Y0159946D01*
X0184956Y0159553D01*
X0185349Y0159291D01*
X0185812Y0159199D01*
X0186276Y0159291D01*
X0186668Y0159553D01*
X0186931Y0159946D01*
X0187023Y0160409D01*
X0186931Y0160872D01*
X0186668Y0161265D01*
X0186276Y0161528D01*
X0185812Y0161620D01*
D02*
G37*
G36*
X0318548Y0161263D02*
X0318084Y0161171D01*
X0317692Y0160908D01*
X0317429Y0160516D01*
X0317337Y0160052D01*
X0317429Y0159589D01*
X0317692Y0159196D01*
X0318084Y0158934D01*
X0318548Y0158842D01*
X0319011Y0158934D01*
X0319404Y0159196D01*
X0319666Y0159589D01*
X0319758Y0160052D01*
X0319666Y0160516D01*
X0319404Y0160908D01*
X0319011Y0161171D01*
X0318548Y0161263D01*
D02*
G37*
G36*
X0237500Y0161211D02*
X0237037Y0161118D01*
X0236644Y0160856D01*
X0236382Y0160463D01*
X0236289Y0160000D01*
X0236382Y0159537D01*
X0236644Y0159144D01*
X0237037Y0158881D01*
X0237500Y0158789D01*
X0237963Y0158881D01*
X0238356Y0159144D01*
X0238618Y0159537D01*
X0238711Y0160000D01*
X0238618Y0160463D01*
X0238356Y0160856D01*
X0237963Y0161118D01*
X0237500Y0161211D01*
D02*
G37*
G36*
X0204900Y0159912D02*
X0204283Y0159789D01*
X0203760Y0159440D01*
X0203411Y0158917D01*
X0202863Y0158726D01*
X0202715Y0158825D01*
X0202252Y0158917D01*
X0201788Y0158825D01*
X0201396Y0158562D01*
X0201133Y0158170D01*
X0201041Y0157706D01*
X0201133Y0157243D01*
X0201396Y0156850D01*
X0201788Y0156588D01*
X0202252Y0156496D01*
X0202715Y0156588D01*
X0203108Y0156850D01*
X0203237Y0157043D01*
X0203553Y0157114D01*
X0203794Y0157121D01*
X0203836Y0157109D01*
X0204283Y0156811D01*
X0204900Y0156688D01*
X0205517Y0156811D01*
X0206040Y0157160D01*
X0206389Y0157683D01*
X0206512Y0158300D01*
X0206389Y0158917D01*
X0206040Y0159440D01*
X0205517Y0159789D01*
X0204900Y0159912D01*
D02*
G37*
G36*
X0323500Y0160211D02*
X0323037Y0160118D01*
X0322644Y0159856D01*
X0322381Y0159463D01*
X0322289Y0159000D01*
X0322381Y0158537D01*
X0322644Y0158144D01*
X0323037Y0157881D01*
X0323500Y0157789D01*
X0323963Y0157881D01*
X0324356Y0158144D01*
X0324619Y0158537D01*
X0324711Y0159000D01*
X0324619Y0159463D01*
X0324356Y0159856D01*
X0323963Y0160118D01*
X0323500Y0160211D01*
D02*
G37*
G36*
X0233000D02*
X0232537Y0160118D01*
X0232144Y0159856D01*
X0231881Y0159463D01*
X0231789Y0159000D01*
X0231881Y0158537D01*
X0232144Y0158144D01*
X0232537Y0157881D01*
X0233000Y0157789D01*
X0233463Y0157881D01*
X0233856Y0158144D01*
X0234119Y0158537D01*
X0234211Y0159000D01*
X0234119Y0159463D01*
X0233856Y0159856D01*
X0233463Y0160118D01*
X0233000Y0160211D01*
D02*
G37*
G36*
X0196700Y0160312D02*
X0196083Y0160189D01*
X0195560Y0159840D01*
X0195211Y0159317D01*
X0195088Y0158700D01*
X0195211Y0158083D01*
X0195560Y0157560D01*
X0196083Y0157211D01*
X0196700Y0157088D01*
X0197317Y0157211D01*
X0197840Y0157560D01*
X0198189Y0158083D01*
X0198312Y0158700D01*
X0198189Y0159317D01*
X0197840Y0159840D01*
X0197317Y0160189D01*
X0196700Y0160312D01*
D02*
G37*
G36*
X0188987Y0160646D02*
X0188524Y0160554D01*
X0188131Y0160292D01*
X0187869Y0159899D01*
X0187777Y0159436D01*
X0187869Y0158972D01*
X0188131Y0158580D01*
X0188191Y0158540D01*
X0188382Y0157963D01*
X0188289Y0157500D01*
X0188382Y0157037D01*
X0188644Y0156644D01*
X0189037Y0156381D01*
X0189500Y0156289D01*
X0189963Y0156381D01*
X0190356Y0156644D01*
X0190619Y0157037D01*
X0190711Y0157500D01*
X0190619Y0157963D01*
X0190356Y0158356D01*
X0190296Y0158396D01*
X0190106Y0158972D01*
X0190198Y0159436D01*
X0190106Y0159899D01*
X0189843Y0160292D01*
X0189451Y0160554D01*
X0188987Y0160646D01*
D02*
G37*
G36*
X0219200Y0157311D02*
X0218737Y0157219D01*
X0218344Y0156956D01*
X0218081Y0156563D01*
X0217989Y0156100D01*
X0218081Y0155637D01*
X0218344Y0155244D01*
X0218737Y0154982D01*
X0219200Y0154889D01*
X0219663Y0154982D01*
X0220056Y0155244D01*
X0220319Y0155637D01*
X0220411Y0156100D01*
X0220319Y0156563D01*
X0220056Y0156956D01*
X0219663Y0157219D01*
X0219200Y0157311D01*
D02*
G37*
G36*
X0302100Y0155911D02*
X0301637Y0155818D01*
X0301244Y0155556D01*
X0300981Y0155163D01*
X0300889Y0154700D01*
X0300981Y0154237D01*
X0301244Y0153844D01*
X0301637Y0153582D01*
X0302100Y0153489D01*
X0302563Y0153582D01*
X0302956Y0153844D01*
X0303219Y0154237D01*
X0303311Y0154700D01*
X0303219Y0155163D01*
X0302956Y0155556D01*
X0302563Y0155818D01*
X0302100Y0155911D01*
D02*
G37*
G36*
X0200500Y0153711D02*
X0200037Y0153619D01*
X0199861Y0153501D01*
X0199500Y0153397D01*
X0199139Y0153501D01*
X0198963Y0153619D01*
X0198500Y0153711D01*
X0198037Y0153619D01*
X0197644Y0153356D01*
X0197381Y0152963D01*
X0197289Y0152500D01*
X0197381Y0152037D01*
X0197644Y0151644D01*
X0198037Y0151382D01*
X0198500Y0151289D01*
X0198963Y0151382D01*
X0199139Y0151499D01*
X0199500Y0151603D01*
X0199861Y0151499D01*
X0200037Y0151382D01*
X0200500Y0151289D01*
X0200963Y0151382D01*
X0201356Y0151644D01*
X0201619Y0152037D01*
X0201711Y0152500D01*
X0201619Y0152963D01*
X0201356Y0153356D01*
X0200963Y0153619D01*
X0200500Y0153711D01*
D02*
G37*
G36*
X0221900Y0154311D02*
X0221437Y0154218D01*
X0221044Y0153956D01*
X0220781Y0153563D01*
X0220689Y0153100D01*
X0220781Y0152637D01*
X0221044Y0152244D01*
X0221437Y0151981D01*
X0221900Y0151889D01*
X0222363Y0151981D01*
X0222756Y0152244D01*
X0223019Y0152637D01*
X0223111Y0153100D01*
X0223019Y0153563D01*
X0222756Y0153956D01*
X0222363Y0154218D01*
X0221900Y0154311D01*
D02*
G37*
G36*
X0179500Y0160343D02*
X0179037Y0160250D01*
X0178644Y0159988D01*
X0178382Y0159595D01*
X0178289Y0159132D01*
X0178382Y0158669D01*
X0178604Y0158335D01*
X0178573Y0158044D01*
X0178492Y0157776D01*
X0177771Y0157295D01*
X0177252Y0156517D01*
X0177069Y0155600D01*
X0177252Y0154683D01*
X0177624Y0154126D01*
X0177627Y0154013D01*
X0177509Y0153554D01*
X0177478Y0153512D01*
X0177244Y0153356D01*
X0176981Y0152963D01*
X0176889Y0152500D01*
X0176981Y0152037D01*
X0177244Y0151644D01*
X0177637Y0151382D01*
X0178100Y0151289D01*
X0178563Y0151382D01*
X0178956Y0151644D01*
X0179218Y0152037D01*
X0179311Y0152500D01*
X0179264Y0152734D01*
X0179316Y0152854D01*
X0179570Y0153194D01*
X0179635Y0153237D01*
X0180383Y0153386D01*
X0181161Y0153905D01*
X0181680Y0154683D01*
X0181863Y0155600D01*
X0181680Y0156517D01*
X0181161Y0157295D01*
X0180474Y0157754D01*
X0180386Y0158143D01*
X0180388Y0158323D01*
X0180619Y0158669D01*
X0180711Y0159132D01*
X0180619Y0159595D01*
X0180356Y0159988D01*
X0179963Y0160250D01*
X0179500Y0160343D01*
D02*
G37*
G36*
X0270500Y0153211D02*
X0270037Y0153119D01*
X0269644Y0152856D01*
X0269381Y0152463D01*
X0269289Y0152000D01*
X0269381Y0151537D01*
X0269644Y0151144D01*
X0270037Y0150882D01*
X0270500Y0150789D01*
X0270963Y0150882D01*
X0271356Y0151144D01*
X0271619Y0151537D01*
X0271711Y0152000D01*
X0271619Y0152463D01*
X0271356Y0152856D01*
X0270963Y0153119D01*
X0270500Y0153211D01*
D02*
G37*
G36*
X0334000Y0157382D02*
X0333125Y0157266D01*
X0332309Y0156929D01*
X0331609Y0156391D01*
X0331071Y0155691D01*
X0330734Y0154875D01*
X0330618Y0154000D01*
X0330734Y0153125D01*
X0331071Y0152309D01*
X0331609Y0151609D01*
X0332309Y0151071D01*
X0333125Y0150733D01*
X0334000Y0150618D01*
X0334875Y0150733D01*
X0335691Y0151071D01*
X0336391Y0151609D01*
X0336929Y0152309D01*
X0337266Y0153125D01*
X0337382Y0154000D01*
X0337266Y0154875D01*
X0336929Y0155691D01*
X0336391Y0156391D01*
X0335691Y0156929D01*
X0334875Y0157266D01*
X0334000Y0157382D01*
D02*
G37*
%LPD*%
D10*
X0222100Y0168900D02*
X0223787Y0167213D01*
X0234599D01*
X0235687Y0168301D02*
Y0168601D01*
X0234599Y0167213D02*
X0235687Y0168301D01*
Y0168601D02*
X0235986Y0168900D01*
X0236041Y0168845D02*
X0238470D01*
X0235986Y0168900D02*
X0236041Y0168845D01*
X0222100Y0168900D02*
X0229600Y0176400D01*
X0214600Y0161400D02*
X0222100Y0168900D01*
X0209800Y0161400D02*
X0214600D01*
D27*
X0346240Y0149316D02*
D03*
X0344076D02*
D03*
X0341912D02*
D03*
X0339748Y0157972D02*
D03*
Y0153644D02*
D03*
Y0149316D02*
D03*
X0337584Y0157972D02*
D03*
X0338666Y0155808D02*
D03*
Y0151480D02*
D03*
X0337584Y0149316D02*
D03*
X0335420Y0175284D02*
D03*
Y0170956D02*
D03*
Y0166628D02*
D03*
Y0162300D02*
D03*
Y0157972D02*
D03*
Y0149316D02*
D03*
X0334338Y0177448D02*
D03*
X0333256Y0162300D02*
D03*
X0334338Y0160136D02*
D03*
X0333256Y0149316D02*
D03*
X0332174Y0177448D02*
D03*
Y0160136D02*
D03*
X0331092Y0149316D02*
D03*
X0330010Y0177448D02*
D03*
X0328928Y0149316D02*
D03*
X0327846Y0177448D02*
D03*
X0326764Y0149316D02*
D03*
X0325682Y0177448D02*
D03*
X0324600Y0149316D02*
D03*
X0323518Y0168792D02*
D03*
X0322436Y0149316D02*
D03*
X0320272Y0175284D02*
D03*
X0321354Y0168792D02*
D03*
X0320272Y0149316D02*
D03*
X0318108D02*
D03*
X0315944D02*
D03*
X0314862Y0177448D02*
D03*
X0312698D02*
D03*
X0305458Y0162149D02*
D03*
X0238595Y0172276D02*
D03*
X0239600Y0175413D02*
D03*
X0238470Y0168845D02*
D03*
X0250600Y0167000D02*
D03*
X0251900Y0150500D02*
D03*
X0212700Y0170400D02*
D03*
X0212800Y0166600D02*
D03*
X0243400Y0174400D02*
D03*
X0220872Y0177845D02*
D03*
X0211170Y0174870D02*
D03*
X0235500Y0163000D02*
D03*
X0208239Y0153139D02*
D03*
X0210100Y0158400D02*
D03*
X0229600Y0176400D02*
D03*
X0209800Y0161400D02*
D03*
X0271000Y0175000D02*
D03*
X0197600Y0177700D02*
D03*
X0250000Y0161500D02*
D03*
X0232500Y0156000D02*
D03*
X0261500Y0158500D02*
D03*
X0263000Y0167500D02*
D03*
X0264000Y0150000D02*
D03*
D71*
X0344000Y0154000D02*
D03*
D73*
X0287500Y0170100D02*
D03*
X0288600Y0164300D02*
D03*
X0295500Y0165500D02*
D03*
X0292000Y0160500D02*
D03*
X0280500Y0165000D02*
D03*
Y0160500D02*
D03*
X0298000Y0172000D02*
D03*
X0286000Y0160500D02*
D03*
X0296000Y0155500D02*
D03*
X0280500D02*
D03*
Y0172500D02*
D03*
D74*
X0186077Y0156477D02*
D03*
X0179150Y0173944D02*
D03*
M02*
