M48
;Layer_Color=9474304
;FILE_FORMAT=2:4
INCH
;TYPE=PLATED
T1F00S00C0.0059
T2F00S00C0.0079
T3F00S00C0.0118
T4F00S00C0.0354
;TYPE=NON_PLATED
T5F00S00C0.0390
%
T01
X017810Y015250
X018450Y015520
X019850Y015250
X020050
X020810Y015300
X023250Y015600
X025300Y015150
X026400Y015000
X027997Y015023
X028194
X028391Y014923
X028570Y014930
X028981Y014923
X029201Y014806
X029350Y015023
X029560
X030210Y015470
X031150Y015400
X031376Y014932
X031593
X031809
X032025
X032242
X032458
X032675
X032891
X033107
X033324
X033540
X033757
X033973
X034189
X034406
X034622
X034780Y015024
X034790Y015194
Y015384
Y015584
X033865Y015582
X033973Y015365
X033865Y015149
X033973Y015798
X033757
X033540
X033432Y016014
X033216
X033324Y016231
X033540
X033432Y016447
X033216
X033540Y016664
X033550Y016874
X033540Y017096
Y017529
X033432Y017746
X033216
X032999
X032783
X032566
X032025Y017529
X031484Y017746
X031268
X031908Y016881
X032134Y016880
X032350
X032242Y016664
X032350Y015900
X033000Y015850
X032950Y016996
X031723Y015823
X034200Y015824
X034400
X034600
X034790Y015784
X030550Y016200
X030348Y016277
X030350Y016650
X030550Y016550
X030500Y017350
X030350Y017250
X030482Y017718
X031098Y017801
X031056Y016900
X028784Y017823
X028391
X027491Y017573
X027400Y017250
X027350Y016861
X027243Y016396
X026650Y016273
X026511Y016739
X026300Y016750
X026550Y017100
X027100Y017500
X025566Y017140
X025130Y017520
X025050Y016720
X025000Y016150
X026100
X026150Y015850
X023750Y016000
X023550Y016300
X023540Y016680
X023890Y017110
X023980Y017530
X024160Y017540
X024250Y017400
X023300Y015870
X021900Y015700
X021280Y016660
X021306Y017030
X021090Y017480
X020430Y017840
X019760Y017770
X018920Y017870
X018990Y017420
X017970Y017190
X018040Y016080
X017640Y016310
X018849Y015900
X018749Y015750
X020240Y015770
X022090Y017770
T02
X027050Y015200
X028100Y017823
X030650Y015950
X018620Y016570
X017950Y015913
T03
X028050Y015550
X029600
X029200Y016050
X028600
X028050
Y016500
Y017250
X028580Y016950
X029180Y016930
X029550Y016550
X028860Y016430
X029800Y017200
X025146Y017057
X020470Y016720
X020457Y015785
X019670Y015870
X018688Y016301
X018840Y017040
X019170Y017250
T04
X033400Y015400
X034400
T05
X017947Y015560
X018347Y017560
X017547
M30
