G04*
G04 #@! TF.GenerationSoftware,Altium Limited,Altium Designer,19.1.5 (86)*
G04*
G04 Layer_Color=32768*
%FSAX24Y24*%
%MOIN*%
G70*
G01*
G75*
%ADD10C,0.0039*%
%ADD98C,0.0020*%
D10*
X031614Y008280D02*
Y010720D01*
X029586D02*
X031614D01*
X029586Y008280D02*
Y010720D01*
Y008280D02*
X031614D01*
X028202Y008167D02*
Y010333D01*
X029698D01*
Y008167D02*
Y010333D01*
X028202Y008167D02*
X029698D01*
X049129Y010950D02*
Y012250D01*
X050271D01*
Y010950D02*
Y012250D01*
X049129Y010950D02*
X050271D01*
X042694Y010806D02*
Y014152D01*
X038006D02*
X042694D01*
X038006Y010806D02*
Y014152D01*
Y010806D02*
X042694D01*
X036292Y005781D02*
X036493Y008845D01*
X036292Y005781D02*
X041320Y005451D01*
X041521Y008516D01*
X036493Y008845D02*
X041521Y008516D01*
X019623Y013349D02*
X020176Y009173D01*
X017948Y008877D02*
X020176Y009173D01*
X017394Y013053D02*
X017948Y008877D01*
X017394Y013053D02*
X019623Y013349D01*
X045203Y011300D02*
X045597D01*
X045400Y011103D02*
Y011497D01*
X045350Y012353D02*
Y012747D01*
X045153Y012550D02*
X045547D01*
D98*
X023239Y007414D02*
X046004Y005899D01*
X023239Y007414D02*
X023268Y007795D01*
X018063Y008269D02*
X023268Y007795D01*
X017441Y012966D02*
X018063Y008269D01*
X017441Y012966D02*
X023541Y013606D01*
X052297Y013593D01*
X054028Y013552D01*
X055755Y013430D01*
X056416Y008441D01*
X055695Y008269D02*
X056416Y008441D01*
X054988Y008046D02*
X055695Y008269D01*
X054298Y007773D02*
X054988Y008046D01*
X053630Y007452D02*
X054298Y007773D01*
X052921Y007106D02*
X053630Y007452D01*
X052195Y006800D02*
X052921Y007106D01*
X051452Y006535D02*
X052195Y006800D01*
X050695Y006313D02*
X051452Y006535D01*
X049927Y006134D02*
X050695Y006313D01*
X049150Y005998D02*
X049927Y006134D01*
X048367Y005907D02*
X049150Y005998D01*
X047580Y005860D02*
X048367Y005907D01*
X046791Y005857D02*
X047580Y005860D01*
X046004Y005899D02*
X046791Y005857D01*
X031769Y008942D02*
X032131D01*
Y009658D01*
X031769D02*
X032131D01*
X031769Y008942D02*
Y009658D01*
X030392Y007869D02*
Y008231D01*
Y007869D02*
X031108D01*
Y008231D01*
X030392D02*
X031108D01*
X030308Y007869D02*
Y008231D01*
X029592D02*
X030308D01*
X029592Y007869D02*
Y008231D01*
Y007869D02*
X030308D01*
X028208Y009569D02*
Y009931D01*
X027492D02*
X028208D01*
X027492Y009569D02*
Y009931D01*
Y009569D02*
X028208D01*
Y008569D02*
Y008931D01*
X027492D02*
X028208D01*
X027492Y008569D02*
Y008931D01*
Y008569D02*
X028208D01*
X046426Y007676D02*
X049674D01*
Y010924D01*
X046426D02*
X049674D01*
X046426Y007676D02*
Y010924D01*
X023801Y011809D02*
Y014013D01*
X021754D02*
X023801D01*
X021754Y011809D02*
Y014013D01*
Y011809D02*
X023801D01*
X024217Y013167D02*
X026383D01*
X024217Y010233D02*
Y013167D01*
Y010233D02*
X026383D01*
Y013167D01*
X038102Y008305D02*
Y011395D01*
X035898Y008305D02*
X038102D01*
X035898D02*
Y011395D01*
X038102D01*
X042901Y010477D02*
X044299D01*
X042901Y008823D02*
Y010477D01*
Y008823D02*
X044299D01*
Y010477D01*
X028071Y011433D02*
Y013067D01*
X029429D01*
Y011433D02*
Y013067D01*
X028071Y011433D02*
X029429D01*
X047221Y012194D02*
X048579D01*
Y011406D02*
Y012194D01*
X047221Y011406D02*
X048579D01*
X047221D02*
Y012194D01*
X048159Y006805D02*
Y007395D01*
Y006805D02*
X049341D01*
Y007395D01*
X048159D02*
X049341D01*
X050587Y009917D02*
X051513D01*
Y009483D02*
Y009917D01*
X050587Y009483D02*
X051513D01*
X050587D02*
Y009917D01*
X052937D02*
X053863D01*
Y009483D02*
Y009917D01*
X052937Y009483D02*
X053863D01*
X052937D02*
Y009917D01*
X050619Y008692D02*
X050981D01*
Y009408D01*
X050619D02*
X050981D01*
X050619Y008692D02*
Y009408D01*
X051119Y008692D02*
X051481D01*
Y009408D01*
X051119D02*
X051481D01*
X051119Y008692D02*
Y009408D01*
X052969Y008692D02*
X053331D01*
Y009408D01*
X052969D02*
X053331D01*
X052969Y008692D02*
Y009408D01*
X053469Y008692D02*
X053831D01*
Y009408D01*
X053469D02*
X053831D01*
X053469Y008692D02*
Y009408D01*
X044928Y010709D02*
Y011891D01*
X045872Y010709D02*
Y011891D01*
X044928Y010709D02*
X045872D01*
X044928Y011891D02*
X045872D01*
X044740Y013164D02*
X045960D01*
X044740Y011936D02*
X045960D01*
X044740D02*
Y013164D01*
X045960Y011936D02*
Y013164D01*
M02*
