G04*
G04 #@! TF.GenerationSoftware,Altium Limited,Altium Designer,19.1.5 (86)*
G04*
G04 Layer_Physical_Order=1*
G04 Layer_Color=255*
%FSAX24Y24*%
%MOIN*%
G70*
G01*
G75*
%ADD14C,0.0100*%
%ADD15C,0.0060*%
%ADD16O,0.0200X0.0400*%
%ADD17R,0.0244X0.0236*%
%ADD18R,0.0217X0.0217*%
%ADD19R,0.0236X0.0244*%
%ADD20R,0.0266X0.0098*%
%ADD21R,0.0098X0.0226*%
%ADD22R,0.0709X0.0394*%
%ADD23R,0.2244X0.2244*%
%ADD24R,0.0335X0.0118*%
%ADD25R,0.0118X0.0335*%
%ADD26R,0.0276X0.0295*%
%ADD27R,0.0256X0.0600*%
%ADD28R,0.0187X0.0098*%
%ADD29R,0.0098X0.0187*%
%ADD30R,0.0177X0.0581*%
%ADD31R,0.0236X0.0472*%
%ADD32R,0.0236X0.0453*%
%ADD33C,0.0310*%
%ADD34R,0.0453X0.0571*%
%ADD35R,0.0354X0.0394*%
%ADD36R,0.0295X0.0236*%
G04:AMPARAMS|DCode=37|XSize=70.9mil|YSize=63mil|CornerRadius=0mil|HoleSize=0mil|Usage=FLASHONLY|Rotation=86.250|XOffset=0mil|YOffset=0mil|HoleType=Round|Shape=Rectangle|*
%AMROTATEDRECTD37*
4,1,4,0.0291,-0.0374,-0.0337,-0.0333,-0.0291,0.0374,0.0337,0.0333,0.0291,-0.0374,0.0*
%
%ADD37ROTATEDRECTD37*%

G04:AMPARAMS|DCode=38|XSize=39.4mil|YSize=15.7mil|CornerRadius=0mil|HoleSize=0mil|Usage=FLASHONLY|Rotation=86.250|XOffset=0mil|YOffset=0mil|HoleType=Round|Shape=Rectangle|*
%AMROTATEDRECTD38*
4,1,4,0.0066,-0.0202,-0.0091,-0.0191,-0.0066,0.0202,0.0091,0.0191,0.0066,-0.0202,0.0*
%
%ADD38ROTATEDRECTD38*%

G04:AMPARAMS|DCode=39|XSize=31.5mil|YSize=10.2mil|CornerRadius=0mil|HoleSize=0mil|Usage=FLASHONLY|Rotation=7.550|XOffset=0mil|YOffset=0mil|HoleType=Round|Shape=Rectangle|*
%AMROTATEDRECTD39*
4,1,4,-0.0149,-0.0071,-0.0163,0.0030,0.0149,0.0071,0.0163,-0.0030,-0.0149,-0.0071,0.0*
%
%ADD39ROTATEDRECTD39*%

G04:AMPARAMS|DCode=40|XSize=25.6mil|YSize=10.2mil|CornerRadius=0mil|HoleSize=0mil|Usage=FLASHONLY|Rotation=7.550|XOffset=0mil|YOffset=0mil|HoleType=Round|Shape=Rectangle|*
%AMROTATEDRECTD40*
4,1,4,-0.0120,-0.0068,-0.0134,0.0034,0.0120,0.0068,0.0134,-0.0034,-0.0120,-0.0068,0.0*
%
%ADD40ROTATEDRECTD40*%

G04:AMPARAMS|DCode=41|XSize=33.5mil|YSize=15.7mil|CornerRadius=0mil|HoleSize=0mil|Usage=FLASHONLY|Rotation=7.550|XOffset=0mil|YOffset=0mil|HoleType=Round|Shape=Rectangle|*
%AMROTATEDRECTD41*
4,1,4,-0.0156,-0.0100,-0.0176,0.0056,0.0156,0.0100,0.0176,-0.0056,-0.0156,-0.0100,0.0*
%
%ADD41ROTATEDRECTD41*%

%ADD42C,0.1024*%
%ADD43R,0.0236X0.0157*%
%ADD44R,0.0157X0.0236*%
G04:AMPARAMS|DCode=45|XSize=110.2mil|YSize=31.5mil|CornerRadius=0mil|HoleSize=0mil|Usage=FLASHONLY|Rotation=278.000|XOffset=0mil|YOffset=0mil|HoleType=Round|Shape=Rectangle|*
%AMROTATEDRECTD45*
4,1,4,-0.0233,0.0524,0.0079,0.0568,0.0233,-0.0524,-0.0079,-0.0568,-0.0233,0.0524,0.0*
%
%ADD45ROTATEDRECTD45*%

G04:AMPARAMS|DCode=46|XSize=39.4mil|YSize=78.7mil|CornerRadius=0mil|HoleSize=0mil|Usage=FLASHONLY|Rotation=278.000|XOffset=0mil|YOffset=0mil|HoleType=Round|Shape=Rectangle|*
%AMROTATEDRECTD46*
4,1,4,-0.0417,0.0140,0.0362,0.0250,0.0417,-0.0140,-0.0362,-0.0250,-0.0417,0.0140,0.0*
%
%ADD46ROTATEDRECTD46*%

%ADD47R,0.0217X0.0217*%
%ADD48R,0.0276X0.0354*%
%ADD49R,0.0354X0.0315*%
%ADD88C,0.0709*%
%ADD89C,0.0120*%
%ADD90C,0.0080*%
%ADD91C,0.0620*%
%ADD92R,0.0620X0.0620*%
%ADD93C,0.0195*%
%ADD94C,0.0472*%
%ADD95C,0.0650*%
%ADD96C,0.0220*%
%ADD97C,0.0260*%
G36*
X050032Y012438D02*
Y012073D01*
X049305D01*
Y011788D01*
X049035Y011518D01*
X049015Y011488D01*
X049008Y011453D01*
Y010886D01*
X048915D01*
X048860Y010984D01*
X048873Y011050D01*
X048860Y011116D01*
X048822Y011172D01*
X048766Y011210D01*
X048700Y011223D01*
X048634Y011210D01*
X048623Y011203D01*
X048550Y011181D01*
X048477Y011203D01*
X048466Y011210D01*
X048400Y011223D01*
X048334Y011210D01*
X048278Y011172D01*
X048225Y011125D01*
X048166Y011160D01*
X048100Y011173D01*
X048030Y011241D01*
X048024Y011331D01*
X048148Y011455D01*
X048532D01*
Y011402D01*
X048868D01*
Y011738D01*
X048908Y011822D01*
X048908D01*
Y011980D01*
X048700D01*
Y012030D01*
X048650D01*
Y012238D01*
X048492D01*
Y012145D01*
X048346D01*
Y012333D01*
X048339Y012368D01*
X048319Y012398D01*
X048317Y012400D01*
Y012500D01*
X048315Y012509D01*
Y012850D01*
X048312Y012857D01*
X048365Y012957D01*
X048458D01*
X048504Y012900D01*
X048996D01*
X049042Y012957D01*
X049513D01*
X050032Y012438D01*
D02*
G37*
G36*
X048250Y012250D02*
X048000D01*
X047700Y012550D01*
X048000Y012850D01*
X048250D01*
Y012250D01*
D02*
G37*
G36*
X047600Y012550D02*
X047900Y012250D01*
X047350D01*
Y012850D01*
X047900D01*
X047600Y012550D01*
D02*
G37*
G36*
X052764Y013501D02*
X052794Y013401D01*
X052762Y013380D01*
X052716Y013310D01*
X052709Y013278D01*
X053117D01*
X053111Y013310D01*
X053065Y013380D01*
X053033Y013401D01*
X053063Y013501D01*
X053314Y013500D01*
X053344Y013400D01*
X053313Y013380D01*
X053267Y013310D01*
X053261Y013278D01*
X053465D01*
Y013228D01*
X053515D01*
Y013024D01*
X053546Y013031D01*
X053616Y013077D01*
X053718Y013051D01*
X053887Y011849D01*
X053866Y011824D01*
X053796Y011778D01*
X053790Y011779D01*
Y011575D01*
Y011371D01*
X053822Y011377D01*
X053850Y011396D01*
X053957Y011355D01*
X054117Y010217D01*
X054066Y010169D01*
Y009921D01*
X053966D01*
Y010125D01*
X053934Y010119D01*
X053864Y010073D01*
X053818Y010003D01*
X053802Y009921D01*
X053766Y009878D01*
X053491D01*
X053409Y009878D01*
Y009878D01*
X053391D01*
Y009878D01*
X052976D01*
Y009822D01*
X052822D01*
Y009839D01*
X052685D01*
Y009920D01*
X052506D01*
Y010020D01*
X052685D01*
Y010166D01*
X052685Y010188D01*
X052717Y010274D01*
X052720Y010275D01*
X052789Y010321D01*
X052835Y010391D01*
X052842Y010422D01*
X052434D01*
X052440Y010391D01*
X052487Y010321D01*
X052536Y010288D01*
X052520Y010188D01*
X052327D01*
Y010188D01*
X052227Y010185D01*
X052218Y010197D01*
X052237Y010321D01*
X052238Y010321D01*
X052284Y010391D01*
X052291Y010422D01*
X051883D01*
X051889Y010391D01*
X051935Y010321D01*
X051985Y010288D01*
X051968Y010188D01*
X051815D01*
Y010020D01*
X051994D01*
Y009920D01*
X051815D01*
Y009839D01*
X051678D01*
Y009822D01*
X051474D01*
Y009878D01*
X051059D01*
Y009878D01*
X051041D01*
Y009878D01*
X050799D01*
X050798Y009879D01*
X050759Y009905D01*
X050712Y009914D01*
X049676D01*
Y009939D01*
X049408D01*
Y010039D01*
X049676D01*
Y010087D01*
X049695Y010100D01*
X049842Y010247D01*
X049869Y010244D01*
X049942Y010213D01*
Y010112D01*
X050100D01*
Y010320D01*
X050200D01*
Y010112D01*
X050292D01*
X050358Y010112D01*
X050458Y010112D01*
X050550D01*
Y010320D01*
X050600D01*
Y010370D01*
X050808D01*
Y010528D01*
X050808D01*
X050768Y010612D01*
X050768Y010628D01*
Y010948D01*
X050672D01*
X050593Y011048D01*
X050594Y011050D01*
X050579Y011124D01*
X050537Y011187D01*
X050474Y011229D01*
X050400Y011244D01*
X050377Y011239D01*
X050277Y011307D01*
Y012488D01*
X050268Y012535D01*
X050241Y012575D01*
X049650Y013166D01*
X049610Y013193D01*
X049563Y013202D01*
X047630D01*
X047583Y013193D01*
X047543Y013166D01*
X047461Y013084D01*
X047427Y013090D01*
X047359Y013124D01*
X047348Y013182D01*
X047301Y013251D01*
X047232Y013298D01*
X047200Y013304D01*
Y013100D01*
X047100D01*
Y013304D01*
X047068Y013298D01*
X046999Y013251D01*
X046963Y013198D01*
X046632D01*
Y013056D01*
X046608Y013040D01*
X046508Y013093D01*
Y013238D01*
X046350D01*
Y013030D01*
X046250D01*
Y013238D01*
X046206D01*
X046202Y013410D01*
X046296Y013510D01*
X052764Y013501D01*
D02*
G37*
G36*
X042767Y013204D02*
X042620Y011688D01*
X042542D01*
Y011272D01*
X042542D01*
X042576Y011234D01*
X042560Y011066D01*
X042497Y011040D01*
X042466Y011060D01*
X042400Y011073D01*
X042334Y011060D01*
X042278Y011022D01*
X042277Y011021D01*
X042217Y011039D01*
Y012685D01*
X042210Y012720D01*
X042205Y012727D01*
X042210Y012734D01*
X042223Y012800D01*
X042210Y012866D01*
X042172Y012922D01*
X042116Y012960D01*
X042050Y012973D01*
X041984Y012960D01*
X041928Y012922D01*
X041890Y012866D01*
X041877Y012800D01*
X041890Y012734D01*
X041928Y012678D01*
X041984Y012640D01*
X042033Y012630D01*
Y010980D01*
X041580Y010527D01*
X041539Y010543D01*
X041522Y010554D01*
X041510Y010616D01*
X041472Y010672D01*
X041442Y010693D01*
Y011002D01*
X041465Y011025D01*
X041485Y011055D01*
X041492Y011090D01*
X041485Y011125D01*
X041465Y011155D01*
X041410Y011210D01*
X041410Y011210D01*
X041390Y011240D01*
X040789Y011841D01*
X040800Y011862D01*
Y012150D01*
X040850D01*
Y012200D01*
X041100D01*
X041098Y012210D01*
X041154Y012233D01*
X041166Y012216D01*
X041250Y012160D01*
X041350Y012140D01*
X041450Y012160D01*
X041534Y012216D01*
X041590Y012300D01*
X041610Y012400D01*
X041590Y012500D01*
X041534Y012584D01*
X041450Y012640D01*
X041350Y012660D01*
X041250Y012640D01*
X041166Y012584D01*
X041110Y012500D01*
X041090Y012400D01*
X041102Y012340D01*
X041045Y012316D01*
X041034Y012334D01*
X040949Y012390D01*
X040948Y012390D01*
X040941Y012421D01*
X040942Y012453D01*
X041005Y012495D01*
X041052Y012566D01*
X041069Y012650D01*
X041052Y012734D01*
X041005Y012805D01*
X040934Y012852D01*
X040850Y012869D01*
X040766Y012852D01*
X040695Y012805D01*
X040648Y012734D01*
X040631Y012650D01*
X040646Y012575D01*
X040601Y012531D01*
X040552Y012566D01*
X040569Y012650D01*
X040552Y012734D01*
X040505Y012805D01*
X040434Y012852D01*
X040350Y012869D01*
X040266Y012852D01*
X040195Y012805D01*
X040148Y012734D01*
X040144Y012714D01*
X040120Y012701D01*
X040053Y012731D01*
X040052Y012734D01*
X040005Y012805D01*
X039934Y012852D01*
X039850Y012869D01*
X039766Y012852D01*
X039695Y012805D01*
X039663Y012756D01*
X039606Y012780D01*
X039610Y012800D01*
X039590Y012900D01*
X039534Y012984D01*
X039450Y013040D01*
X039350Y013060D01*
X039250Y013040D01*
X039166Y012984D01*
X039110Y012900D01*
X039090Y012800D01*
X039110Y012700D01*
X039160Y012625D01*
X039152Y012584D01*
X039141Y012561D01*
X039134Y012559D01*
X039094Y012533D01*
X038828Y012267D01*
X038802Y012227D01*
X038793Y012180D01*
Y011820D01*
X038802Y011773D01*
X038828Y011733D01*
X039428Y011134D01*
Y009851D01*
X039024Y009447D01*
X038968Y009470D01*
Y009718D01*
X038922D01*
Y009782D01*
X038968D01*
Y010118D01*
X038775D01*
X038772Y010122D01*
X038716Y010160D01*
X038650Y010173D01*
X038606Y010164D01*
X038548Y010158D01*
X038548Y010158D01*
X038548Y010158D01*
X038390D01*
Y009950D01*
X038290D01*
Y010171D01*
X038256Y010193D01*
X038251Y010205D01*
X038250Y010268D01*
X038387Y010405D01*
X038597D01*
X038632Y010412D01*
X038662Y010432D01*
X038985Y010755D01*
X039004Y010785D01*
X039009Y010805D01*
X039042Y010828D01*
X039080Y010884D01*
X039093Y010950D01*
X039080Y011016D01*
X039042Y011072D01*
X038986Y011110D01*
X038920Y011123D01*
X038853Y011110D01*
X038797Y011072D01*
X038760Y011016D01*
X038747Y010950D01*
X038760Y010884D01*
X038797Y010828D01*
X038797Y010827D01*
X038559Y010589D01*
X038427D01*
X038405Y010649D01*
X038414Y010663D01*
X038421Y010698D01*
Y010859D01*
X038741Y011179D01*
X038750Y011177D01*
X038816Y011190D01*
X038872Y011228D01*
X038910Y011284D01*
X038923Y011350D01*
X038910Y011416D01*
X038872Y011472D01*
X038816Y011510D01*
X038750Y011523D01*
X038684Y011510D01*
X038628Y011472D01*
X038590Y011416D01*
X038577Y011350D01*
X038589Y011287D01*
X038265Y010962D01*
X038245Y010932D01*
X038238Y010897D01*
Y010780D01*
X038226Y010769D01*
X038173Y010791D01*
X038166Y010801D01*
Y011055D01*
X038487Y011376D01*
X038513Y011415D01*
X038522Y011462D01*
Y011827D01*
X038522Y011828D01*
X038560Y011884D01*
X038573Y011950D01*
X038560Y012016D01*
X038522Y012072D01*
X038466Y012110D01*
X038400Y012123D01*
X038334Y012110D01*
X038278Y012072D01*
X038240Y012016D01*
X038227Y011950D01*
X038240Y011884D01*
X038278Y011828D01*
X038278Y011827D01*
Y011513D01*
X037976Y011211D01*
X037916Y011236D01*
Y011243D01*
X037922Y011271D01*
Y011532D01*
X037998D01*
Y011868D01*
X037922D01*
Y012470D01*
X037915Y012505D01*
X037895Y012535D01*
X037423Y013007D01*
X037416Y013042D01*
X037378Y013098D01*
X037322Y013135D01*
X037256Y013149D01*
X037190Y013135D01*
X037133Y013098D01*
X037096Y013042D01*
X037083Y012976D01*
X037096Y012909D01*
X037133Y012853D01*
X037190Y012816D01*
X037256Y012802D01*
X037322Y012816D01*
X037342Y012829D01*
X037738Y012432D01*
Y011905D01*
X037722Y011899D01*
X037678Y011895D01*
X037665Y011915D01*
X037565Y012015D01*
X037535Y012035D01*
X037500Y012042D01*
X037200D01*
X037165Y012035D01*
X037135Y012015D01*
X037085Y011965D01*
X037065Y011935D01*
X037058Y011900D01*
Y011605D01*
X036932Y011479D01*
X036659D01*
X036648Y011539D01*
X036733Y011574D01*
X036852Y011666D01*
X036944Y011785D01*
X037002Y011924D01*
X037021Y012074D01*
X037002Y012223D01*
X036944Y012362D01*
X036852Y012481D01*
X036733Y012573D01*
X036594Y012631D01*
X036444Y012650D01*
X036295Y012631D01*
X036156Y012573D01*
X036037Y012481D01*
X035945Y012362D01*
X035887Y012223D01*
X035868Y012074D01*
X035887Y011924D01*
X035945Y011785D01*
X035987Y011731D01*
X035785Y011529D01*
X035765Y011500D01*
X035765Y011497D01*
X035728Y011472D01*
X035676Y011467D01*
X035458Y011685D01*
X035428Y011705D01*
X035393Y011712D01*
X034601D01*
X034587Y011728D01*
X034568Y011768D01*
X034582Y011785D01*
X034639Y011924D01*
X034659Y012074D01*
X034639Y012223D01*
X034582Y012362D01*
X034490Y012481D01*
X034371Y012573D01*
X034232Y012631D01*
X034082Y012650D01*
X033933Y012631D01*
X033794Y012573D01*
X033674Y012481D01*
X033583Y012362D01*
X033525Y012223D01*
X033506Y012074D01*
X033525Y011924D01*
X033544Y011880D01*
X033209Y011545D01*
X033203D01*
X033168Y011538D01*
X033139Y011518D01*
X032986Y011366D01*
X032950Y011373D01*
X032891Y011420D01*
X032887Y011443D01*
X032915Y011470D01*
X032935Y011500D01*
X032942Y011535D01*
Y011862D01*
X033167Y012087D01*
X033187Y012117D01*
X033193Y012152D01*
Y012614D01*
X033828Y013248D01*
X042726D01*
X042767Y013204D01*
D02*
G37*
G36*
X032378Y013308D02*
X032377Y013300D01*
X032390Y013234D01*
X032428Y013178D01*
X032480Y013142D01*
X032485Y013135D01*
X032558Y013062D01*
Y011537D01*
X032551Y011526D01*
X032544Y011491D01*
Y011390D01*
X032485Y011331D01*
X032465Y011302D01*
X032458Y011266D01*
Y011246D01*
X032431Y011218D01*
X032406Y011201D01*
X032363Y011210D01*
X032331Y011257D01*
X032301Y011278D01*
Y011559D01*
X032302Y011560D01*
X032322Y011590D01*
X032329Y011625D01*
Y011800D01*
X032322Y011835D01*
X032302Y011865D01*
X032267Y011900D01*
X032277Y011924D01*
X032297Y012074D01*
X032277Y012223D01*
X032220Y012362D01*
X032128Y012481D01*
X032008Y012573D01*
X031869Y012631D01*
X031720Y012650D01*
X031571Y012631D01*
X031432Y012573D01*
X031352Y012512D01*
X031292Y012541D01*
Y012657D01*
X031322Y012678D01*
X031360Y012734D01*
X031373Y012800D01*
X031360Y012866D01*
X031322Y012922D01*
X031266Y012960D01*
X031200Y012973D01*
X031134Y012960D01*
X031078Y012922D01*
X031040Y012866D01*
X031034Y012837D01*
X030969Y012808D01*
X030966Y012810D01*
X030900Y012823D01*
X030834Y012810D01*
X030778Y012772D01*
X030740Y012716D01*
X030727Y012650D01*
X030740Y012584D01*
X030778Y012528D01*
X030834Y012490D01*
X030858Y012485D01*
Y011938D01*
X030132Y011212D01*
X030067Y011232D01*
X030060Y011266D01*
X030022Y011322D01*
X030022Y011323D01*
Y012100D01*
X030082Y012102D01*
Y012102D01*
X030418D01*
Y012438D01*
X030082D01*
Y012392D01*
X029968D01*
Y012438D01*
X029632D01*
Y012102D01*
X029778D01*
Y011323D01*
X029778Y011322D01*
X029740Y011266D01*
X029727Y011200D01*
X029740Y011134D01*
X029778Y011078D01*
X029834Y011040D01*
X029900Y011027D01*
X029929Y010992D01*
X029900Y010971D01*
Y010750D01*
X029850D01*
Y010700D01*
X029646D01*
X029652Y010668D01*
X029699Y010599D01*
X029768Y010552D01*
X029811Y010544D01*
X029852Y010524D01*
X029861Y010477D01*
X029861Y010301D01*
X029861Y010241D01*
Y010080D01*
Y009686D01*
Y009296D01*
X029525D01*
X029388Y009434D01*
X029364Y009485D01*
X029364D01*
X029364Y009485D01*
Y009999D01*
X028536D01*
Y009834D01*
X028209D01*
Y009932D01*
X027907D01*
X027853Y009932D01*
X027793Y009932D01*
X027491D01*
Y009932D01*
X027431Y009900D01*
X027416Y009910D01*
X027350Y009923D01*
X027284Y009910D01*
X027228Y009872D01*
X027190Y009816D01*
X027177Y009750D01*
X027190Y009684D01*
X027228Y009628D01*
X027284Y009590D01*
X027350Y009577D01*
X027416Y009590D01*
X027431Y009600D01*
X027491Y009568D01*
Y009568D01*
X027793D01*
X027847Y009568D01*
X027907Y009568D01*
X028209D01*
Y009650D01*
X028536D01*
Y009485D01*
X029111D01*
X029117Y009455D01*
X029137Y009426D01*
X029423Y009140D01*
X029452Y009120D01*
X029457Y009119D01*
X029460Y009116D01*
X029475Y009054D01*
X029414Y008994D01*
X029364Y009015D01*
Y009015D01*
X028536D01*
Y008842D01*
X028209D01*
Y008932D01*
X027907D01*
X027853Y008932D01*
X027793Y008932D01*
X027491D01*
Y008932D01*
X027431Y008900D01*
X027416Y008910D01*
X027350Y008923D01*
X027284Y008910D01*
X027228Y008872D01*
X027190Y008816D01*
X027177Y008750D01*
X027190Y008684D01*
X027228Y008628D01*
X027284Y008590D01*
X027350Y008577D01*
X027416Y008590D01*
X027431Y008600D01*
X027491Y008568D01*
Y008568D01*
X027793D01*
X027847Y008568D01*
X027907Y008568D01*
X028209D01*
Y008658D01*
X028536D01*
Y008501D01*
X029364D01*
Y008718D01*
X029394Y008724D01*
X029424Y008744D01*
X029596Y008916D01*
X029821D01*
Y008861D01*
X030054D01*
Y008761D01*
X029821D01*
Y008662D01*
X029861D01*
Y008505D01*
X030247D01*
X030264Y008452D01*
Y008416D01*
X030421D01*
Y008376D01*
X030520D01*
Y008589D01*
X030620D01*
Y008376D01*
X030699D01*
X030709Y008361D01*
X030738Y008332D01*
X030713Y008272D01*
X030619D01*
Y008050D01*
Y007828D01*
X030787D01*
X030836Y007802D01*
X030840Y007784D01*
X030878Y007728D01*
X030934Y007690D01*
X031000Y007677D01*
X031066Y007690D01*
X031122Y007728D01*
X031160Y007784D01*
X031173Y007850D01*
X031160Y007916D01*
X031122Y007972D01*
X031112Y007980D01*
Y007992D01*
X031109Y008004D01*
Y008083D01*
X031165Y008106D01*
X031208Y008062D01*
X031238Y008042D01*
X031252Y008039D01*
Y007882D01*
X031588D01*
Y008218D01*
X031345D01*
X031343Y008219D01*
X031311D01*
X031123Y008407D01*
X031129Y008439D01*
X031145Y008467D01*
X031284D01*
X031331Y008476D01*
X031337Y008480D01*
X031477D01*
Y008642D01*
X031477Y008699D01*
X031477D01*
Y008702D01*
X031477D01*
Y009055D01*
X031768D01*
Y008941D01*
X032132D01*
Y009297D01*
X032132D01*
Y009303D01*
X032132D01*
Y009659D01*
X031768D01*
Y009552D01*
X031477D01*
Y009686D01*
Y010160D01*
X032152D01*
X032187Y010167D01*
X032217Y010187D01*
X032820Y010791D01*
X032840Y010820D01*
X032847Y010856D01*
Y010998D01*
X032907Y011035D01*
X032950Y011027D01*
X033016Y011040D01*
X033072Y011078D01*
X033132Y011058D01*
Y011012D01*
X033338D01*
X033378Y010972D01*
X033379Y010967D01*
X033392Y010948D01*
X033373Y010888D01*
X033132D01*
Y010850D01*
X033097Y010843D01*
X033067Y010823D01*
X032985Y010742D01*
X032965Y010712D01*
X032958Y010677D01*
Y010643D01*
X032928Y010622D01*
X032890Y010566D01*
X032877Y010500D01*
X032890Y010434D01*
X032928Y010378D01*
X032984Y010340D01*
X033050Y010327D01*
X033116Y010340D01*
X033148Y010361D01*
X033208Y010331D01*
Y009612D01*
X033215Y009577D01*
X033235Y009547D01*
X033460Y009322D01*
X033437Y009264D01*
X033426Y009187D01*
X033437Y009110D01*
X033466Y009038D01*
X033514Y008976D01*
X033576Y008928D01*
X033648Y008898D01*
X033725Y008888D01*
X033803Y008898D01*
X033875Y008928D01*
X033936Y008976D01*
X033984Y009038D01*
X034014Y009110D01*
X034024Y009187D01*
X034017Y009238D01*
X034103Y009323D01*
X034154Y009290D01*
X034144Y009264D01*
X034134Y009187D01*
X034144Y009110D01*
X034174Y009038D01*
X034221Y008976D01*
X034283Y008928D01*
X034355Y008898D01*
X034432Y008888D01*
X034510Y008898D01*
X034582Y008928D01*
X034644Y008976D01*
X034691Y009038D01*
X034721Y009110D01*
X034731Y009187D01*
X034721Y009264D01*
X034691Y009336D01*
X034644Y009398D01*
X034636Y009404D01*
X034636Y009428D01*
X034646Y009472D01*
X034665Y009485D01*
X034973Y009793D01*
X035028Y009770D01*
Y008668D01*
X034952D01*
Y008332D01*
X035224D01*
X035249Y008272D01*
X035150Y008173D01*
X035150Y008173D01*
X035084Y008160D01*
X035028Y008122D01*
X034990Y008066D01*
X034977Y008000D01*
X034990Y007934D01*
X035028Y007878D01*
X035084Y007840D01*
X035150Y007827D01*
X035216Y007840D01*
X035272Y007878D01*
X035310Y007934D01*
X035323Y008000D01*
X035323Y008000D01*
X035618Y008295D01*
X035643Y008332D01*
X035748D01*
Y008668D01*
X035672D01*
Y008752D01*
X035718D01*
Y009088D01*
X035382D01*
Y008752D01*
X035428D01*
Y008668D01*
X035412D01*
Y008464D01*
X035409Y008452D01*
Y008432D01*
X035348Y008371D01*
X035288Y008396D01*
Y008668D01*
X035212D01*
Y009930D01*
X035205Y009965D01*
X035185Y009995D01*
X035180Y010000D01*
X035265Y010085D01*
X035285Y010115D01*
X035292Y010150D01*
Y010502D01*
X035366D01*
X035380Y010453D01*
X035382Y010447D01*
Y010112D01*
X035718D01*
Y010117D01*
X035778Y010142D01*
X036396Y009524D01*
Y009044D01*
X036084D01*
Y008405D01*
X035963D01*
X035928Y008398D01*
X035898Y008378D01*
X035186Y007666D01*
X035150Y007673D01*
X035084Y007660D01*
X035028Y007622D01*
X034990Y007566D01*
X034977Y007500D01*
X034990Y007434D01*
X035028Y007378D01*
X035084Y007340D01*
X035150Y007327D01*
X035216Y007340D01*
X035272Y007378D01*
X035310Y007434D01*
X035323Y007500D01*
X035316Y007536D01*
X036001Y008221D01*
X036614D01*
X036649Y008228D01*
X036679Y008248D01*
X036774Y008343D01*
X037323D01*
Y008303D01*
X037462D01*
Y008693D01*
Y009084D01*
X037348D01*
Y009397D01*
X037859Y009909D01*
X037927Y009892D01*
X037966Y009834D01*
X038042Y009783D01*
X038132Y009765D01*
Y009600D01*
X038340D01*
X038548D01*
Y009757D01*
X038608Y009794D01*
X038632Y009782D01*
Y009782D01*
X038678Y009748D01*
Y009718D01*
X038632D01*
Y009382D01*
X038880D01*
X038903Y009326D01*
X038773Y009196D01*
X038523D01*
X038477Y009186D01*
X038437Y009160D01*
X038016Y008739D01*
X037956Y008764D01*
Y009084D01*
X037818D01*
Y008693D01*
Y008303D01*
X037928D01*
Y008158D01*
X037868Y008121D01*
X037850Y008125D01*
Y007900D01*
X037800D01*
Y007850D01*
X037575D01*
X037579Y007832D01*
X037542Y007772D01*
X036650D01*
X036603Y007763D01*
X036563Y007737D01*
X035806Y006979D01*
X024038Y007735D01*
X023387Y008387D01*
X023347Y008413D01*
X023300Y008422D01*
X020206D01*
X020177Y008482D01*
X020211Y008527D01*
X020250Y008621D01*
X020251Y008630D01*
X020351D01*
X020386Y008636D01*
X020416Y008656D01*
X020612Y008852D01*
X020818D01*
Y009188D01*
X020482D01*
Y008982D01*
X020313Y008813D01*
X020251D01*
X020250Y008822D01*
X020211Y008915D01*
X020149Y008996D01*
X020069Y009057D01*
X019975Y009096D01*
X019875Y009109D01*
X019774Y009096D01*
X019681Y009057D01*
X019600Y008996D01*
X019539Y008915D01*
X019500Y008822D01*
X019442Y008832D01*
Y008906D01*
X019433Y008952D01*
X019406Y008992D01*
X019332Y009066D01*
Y009740D01*
X019324Y009780D01*
X019326Y009791D01*
X019356Y009845D01*
X019465Y009859D01*
X019445Y010009D01*
X019495Y010016D01*
X019488Y010065D01*
X019714Y010095D01*
X019710Y010130D01*
X019710D01*
X019696Y010230D01*
X019470Y010200D01*
X019457Y010299D01*
X019683Y010329D01*
X019670Y010430D01*
X019630Y010424D01*
X019619Y010511D01*
X019690Y010582D01*
X019710Y010612D01*
X019715Y010636D01*
X019965Y010886D01*
X019985Y010916D01*
X019992Y010951D01*
Y011096D01*
X020005Y011115D01*
X020012Y011150D01*
Y011282D01*
X020064Y011334D01*
X020100Y011327D01*
X020166Y011340D01*
X020222Y011378D01*
X020257Y011429D01*
X020270Y011438D01*
X020318Y011453D01*
X020435Y011335D01*
X020465Y011315D01*
X020500Y011308D01*
X020501D01*
X020536Y011248D01*
X020527Y011200D01*
X020540Y011134D01*
X020578Y011078D01*
X020634Y011040D01*
X020700Y011027D01*
X020766Y011040D01*
X020822Y011078D01*
X020860Y011134D01*
X020873Y011200D01*
X020864Y011248D01*
X020899Y011308D01*
X022850D01*
X022885Y011315D01*
X022915Y011335D01*
X023864Y012284D01*
X023884Y012314D01*
X023891Y012349D01*
Y012608D01*
X023922Y012628D01*
X023959Y012684D01*
X023973Y012751D01*
X023959Y012817D01*
X023922Y012873D01*
X023904Y012885D01*
X023922Y012945D01*
X023982D01*
X023984Y012946D01*
X024069Y012929D01*
X024140Y012881D01*
X024141Y012879D01*
X024199Y012821D01*
X024199Y012821D01*
X024197Y012819D01*
X024300Y012740D01*
X024362Y012715D01*
Y012408D01*
X024428D01*
Y011551D01*
X024413Y011537D01*
X024387Y011497D01*
X024378Y011450D01*
Y011311D01*
X024378Y011311D01*
X024340Y011255D01*
X024327Y011189D01*
X024340Y011123D01*
X024378Y011066D01*
X024399Y011052D01*
X024380Y010992D01*
X024362D01*
Y010272D01*
X024738D01*
Y010690D01*
X024765Y010717D01*
X024785Y010747D01*
X024792Y010782D01*
Y011250D01*
X025050Y011508D01*
X025675D01*
X025684Y011497D01*
X025702Y011448D01*
X025674Y011406D01*
X025661Y011340D01*
X025674Y011274D01*
X025711Y011218D01*
X025740Y011198D01*
Y011052D01*
X025738Y010992D01*
X025362D01*
Y010272D01*
X025512D01*
X025518Y010242D01*
X025538Y010212D01*
X025577Y010174D01*
X025554Y010118D01*
X025302D01*
Y010042D01*
X025198D01*
Y010118D01*
X025122D01*
Y010272D01*
X025238D01*
Y010721D01*
X025240Y010730D01*
Y010927D01*
X025241Y010934D01*
X025242Y010938D01*
X025238Y010992D01*
X025233D01*
D01*
X025233D01*
X025185Y011022D01*
X025150Y011029D01*
X025115Y011022D01*
X025085Y011003D01*
X025083Y011000D01*
X025078Y010992D01*
X024862D01*
Y010272D01*
X024938D01*
Y010118D01*
X024862D01*
Y009782D01*
X025198D01*
Y009858D01*
X025302D01*
Y009782D01*
X025638D01*
Y010034D01*
X025694Y010057D01*
X025762Y009988D01*
Y009782D01*
X026098D01*
Y010118D01*
X026022D01*
Y010197D01*
X026076Y010232D01*
X026278D01*
Y010582D01*
X026050D01*
Y010632D01*
X026000D01*
Y011032D01*
X025924D01*
Y011196D01*
X025956Y011218D01*
X025994Y011274D01*
X026007Y011340D01*
X025994Y011406D01*
X025966Y011448D01*
X025983Y011497D01*
X025992Y011508D01*
X026432D01*
Y011302D01*
X026768D01*
Y011509D01*
X026847Y011587D01*
X026867Y011617D01*
X026925Y011604D01*
X026932Y011601D01*
X026932Y011598D01*
X026932D01*
X026932Y011594D01*
Y011302D01*
X027078D01*
Y011023D01*
X027078Y011022D01*
X027040Y010966D01*
X027027Y010900D01*
X027040Y010834D01*
X027078Y010778D01*
X027134Y010740D01*
X027200Y010727D01*
X027266Y010740D01*
X027322Y010778D01*
X027360Y010834D01*
X027373Y010900D01*
X027360Y010966D01*
X027322Y011022D01*
X027322Y011023D01*
Y011370D01*
X027313Y011417D01*
X027287Y011457D01*
X027268Y011475D01*
Y011638D01*
X026976Y011638D01*
X026972D01*
X026972D01*
X026969Y011638D01*
X026966Y011646D01*
X026945Y011698D01*
X027006Y011760D01*
X027022D01*
X027031Y011762D01*
X027268D01*
Y012098D01*
X027268D01*
Y012152D01*
X027268D01*
Y012488D01*
X026932D01*
Y012412D01*
X026768D01*
Y012488D01*
X026459D01*
X026298Y012650D01*
X026268Y012670D01*
X026238Y012676D01*
Y013083D01*
X026298Y013108D01*
X026407Y012999D01*
X026432Y012948D01*
X026432D01*
X026432Y012948D01*
Y012612D01*
X026768D01*
Y012678D01*
X026932D01*
Y012612D01*
X027268D01*
Y012948D01*
X026932D01*
Y012882D01*
X026768D01*
Y012948D01*
X026702D01*
Y012950D01*
X026694Y012989D01*
X026672Y013022D01*
X026417Y013278D01*
X026441Y013338D01*
X027607D01*
X028123Y012822D01*
X028163Y012795D01*
X028198Y012788D01*
Y012456D01*
X028254D01*
Y012044D01*
X028198D01*
Y011472D01*
X028512D01*
X028554Y011471D01*
X028586D01*
X028628Y011429D01*
Y011368D01*
X028552D01*
Y011034D01*
X028540Y011016D01*
X028527Y010950D01*
X028540Y010884D01*
X028578Y010828D01*
X028634Y010790D01*
X028700Y010777D01*
X028766Y010790D01*
X028822Y010828D01*
X028860Y010884D01*
X028873Y010950D01*
X028869Y010972D01*
X028888Y011032D01*
X028888D01*
Y011368D01*
X028812D01*
Y011429D01*
X028854Y011472D01*
X028928Y011471D01*
X028988Y011472D01*
X029088D01*
Y011368D01*
X029012D01*
Y011032D01*
X029348D01*
Y011368D01*
X029272D01*
Y011472D01*
X029302D01*
Y012044D01*
X028988D01*
X028946Y012044D01*
X028886Y012044D01*
X028614D01*
X028572Y012044D01*
X028541D01*
X028498Y012087D01*
Y012456D01*
X028554D01*
Y013029D01*
X028330D01*
X028318Y013031D01*
X028260D01*
X027978Y013313D01*
X028001Y013368D01*
X032329D01*
X032378Y013308D01*
D02*
G37*
G36*
X052976Y009522D02*
X053038D01*
Y009409D01*
X052968D01*
Y009087D01*
X052928D01*
Y008919D01*
X053150D01*
Y008869D01*
X053200D01*
Y008651D01*
X053372D01*
Y008651D01*
X053428D01*
Y008651D01*
X053600D01*
Y008869D01*
X053700D01*
Y008651D01*
X053872D01*
X053872Y008651D01*
X053916Y008633D01*
X053934Y008621D01*
X053966Y008615D01*
Y008819D01*
Y009028D01*
X053872Y009086D01*
Y009087D01*
X053832D01*
Y009409D01*
X053904Y009478D01*
X054221D01*
X054234Y009384D01*
X054234Y009382D01*
X054234Y009382D01*
X054235Y009375D01*
X054235Y009375D01*
X054260Y009333D01*
X054308Y009320D01*
X054308Y009320D01*
X054316Y009321D01*
X055666Y009511D01*
X055689Y009494D01*
X055741Y009421D01*
X055741Y009420D01*
X055945D01*
Y009370D01*
X055995D01*
Y009166D01*
X056027Y009172D01*
X056096Y009219D01*
X056113Y009243D01*
X056216Y009219D01*
X056300Y008550D01*
X055144Y008194D01*
X055057Y008267D01*
X055056Y008272D01*
X055040Y008350D01*
X054994Y008419D01*
X054924Y008465D01*
X054893Y008472D01*
Y008268D01*
X054843D01*
Y008218D01*
X054639D01*
X054645Y008186D01*
X054686Y008124D01*
X054690Y008109D01*
X054672Y008009D01*
X053600Y007550D01*
X052400Y007000D01*
X050800Y006450D01*
X050693Y006428D01*
X050668Y006445D01*
X050616Y006514D01*
X050623Y006550D01*
X050610Y006616D01*
X050572Y006672D01*
X050542Y006693D01*
Y007350D01*
X050535Y007385D01*
X050515Y007415D01*
X050065Y007865D01*
X050035Y007885D01*
X050000Y007892D01*
X049885D01*
X049866Y007990D01*
X049922Y008028D01*
X049960Y008084D01*
X049973Y008150D01*
X049965Y008193D01*
X050006Y008267D01*
X050029Y008293D01*
X050242D01*
Y008270D01*
X050450D01*
X050658D01*
Y008358D01*
X050700D01*
X050735Y008365D01*
X050754Y008378D01*
X050816Y008390D01*
X050872Y008428D01*
X050910Y008484D01*
X050923Y008550D01*
X050923Y008551D01*
X050949Y008586D01*
X051022Y008651D01*
X051078D01*
Y008651D01*
X051250D01*
Y008869D01*
X051350D01*
Y008651D01*
X051522D01*
Y008707D01*
X051571Y008723D01*
X051622Y008724D01*
X051660Y008668D01*
X051729Y008621D01*
X051761Y008615D01*
Y008819D01*
Y009023D01*
X051729Y009017D01*
X051660Y008970D01*
X051622Y008914D01*
X051571Y008915D01*
X051522Y008930D01*
Y009087D01*
X051482D01*
Y009409D01*
X051412D01*
Y009522D01*
X051474D01*
Y009578D01*
X051678D01*
Y009561D01*
X051795D01*
X051805Y009559D01*
X051815Y009551D01*
Y009480D01*
X051994D01*
Y009430D01*
X052044D01*
Y009212D01*
X052173D01*
Y009252D01*
X052327D01*
Y009212D01*
X052456D01*
Y009430D01*
X052506D01*
Y009480D01*
X052685D01*
Y009561D01*
X052822D01*
Y009578D01*
X052976D01*
Y009522D01*
D02*
G37*
G36*
X044150Y008000D02*
X043900D01*
X043600Y008300D01*
X043900Y008600D01*
X044150D01*
Y008000D01*
D02*
G37*
G36*
X043500Y008300D02*
X043800Y008000D01*
X043250D01*
Y008600D01*
X043800D01*
X043500Y008300D01*
D02*
G37*
G36*
X042900Y008000D02*
X042650D01*
X042350Y008300D01*
X042650Y008600D01*
X042900D01*
Y008000D01*
D02*
G37*
G36*
X042250Y008300D02*
X042550Y008000D01*
X042000D01*
Y008600D01*
X042550D01*
X042250Y008300D01*
D02*
G37*
G36*
X044150Y007150D02*
X043900D01*
X043600Y007450D01*
X043900Y007750D01*
X044150D01*
Y007150D01*
D02*
G37*
G36*
X043500Y007450D02*
X043800Y007150D01*
X043250D01*
Y007750D01*
X043800D01*
X043500Y007450D01*
D02*
G37*
G36*
X042900Y007150D02*
X042650D01*
X042350Y007450D01*
X042650Y007750D01*
X042900D01*
Y007150D01*
D02*
G37*
G36*
X042250Y007450D02*
X042550Y007150D01*
X042000D01*
Y007750D01*
X042550D01*
X042250Y007450D01*
D02*
G37*
G36*
X042900Y006400D02*
X042650D01*
X042350Y006700D01*
X042650Y007000D01*
X042900D01*
Y006400D01*
D02*
G37*
G36*
X042250Y006700D02*
X042550Y006400D01*
X042000D01*
Y007000D01*
X042550D01*
X042250Y006700D01*
D02*
G37*
G36*
X049100Y006100D02*
X048550D01*
X048850Y006400D01*
X048550Y006700D01*
X049100D01*
Y006100D01*
D02*
G37*
G36*
X048750Y006400D02*
X048450Y006100D01*
X048200D01*
Y006700D01*
X048450D01*
X048750Y006400D01*
D02*
G37*
%LPC*%
G36*
X048954Y012800D02*
X048800D01*
Y012646D01*
X048832Y012652D01*
X048901Y012699D01*
X048948Y012768D01*
X048954Y012800D01*
D02*
G37*
G36*
X048700D02*
X048546D01*
X048552Y012768D01*
X048599Y012699D01*
X048668Y012652D01*
X048700Y012646D01*
Y012800D01*
D02*
G37*
G36*
X048908Y012238D02*
X048750D01*
Y012080D01*
X048908D01*
Y012238D01*
D02*
G37*
G36*
X053415Y013178D02*
X053261D01*
X053267Y013146D01*
X053313Y013077D01*
X053383Y013031D01*
X053415Y013024D01*
Y013178D01*
D02*
G37*
G36*
X053117D02*
X052963D01*
Y013024D01*
X052995Y013031D01*
X053065Y013077D01*
X053111Y013146D01*
X053117Y013178D01*
D02*
G37*
G36*
X052863D02*
X052709D01*
X052716Y013146D01*
X052762Y013077D01*
X052832Y013031D01*
X052863Y013024D01*
Y013178D01*
D02*
G37*
G36*
X053239Y012881D02*
Y012727D01*
X053393D01*
X053387Y012759D01*
X053340Y012828D01*
X053271Y012875D01*
X053239Y012881D01*
D02*
G37*
G36*
X053139D02*
X053107Y012875D01*
X053038Y012828D01*
X052991Y012759D01*
X052985Y012727D01*
X053139D01*
Y012881D01*
D02*
G37*
G36*
X053393Y012627D02*
X053239D01*
Y012473D01*
X053271Y012479D01*
X053340Y012526D01*
X053387Y012595D01*
X053393Y012627D01*
D02*
G37*
G36*
X053139D02*
X052985D01*
X052991Y012595D01*
X053038Y012526D01*
X053107Y012479D01*
X053139Y012473D01*
Y012627D01*
D02*
G37*
G36*
X053515Y012330D02*
Y012176D01*
X053669D01*
X053662Y012208D01*
X053616Y012277D01*
X053546Y012324D01*
X053515Y012330D01*
D02*
G37*
G36*
X053415D02*
X053383Y012324D01*
X053313Y012277D01*
X053267Y012208D01*
X053261Y012176D01*
X053415D01*
Y012330D01*
D02*
G37*
G36*
X052963D02*
Y012176D01*
X053117D01*
X053111Y012208D01*
X053065Y012277D01*
X052995Y012324D01*
X052963Y012330D01*
D02*
G37*
G36*
X052863D02*
X052832Y012324D01*
X052762Y012277D01*
X052716Y012208D01*
X052709Y012176D01*
X052863D01*
Y012330D01*
D02*
G37*
G36*
X053669Y012076D02*
X053515D01*
Y011922D01*
X053546Y011928D01*
X053616Y011975D01*
X053662Y012044D01*
X053669Y012076D01*
D02*
G37*
G36*
X053415D02*
X053261D01*
X053267Y012044D01*
X053313Y011975D01*
X053383Y011928D01*
X053415Y011922D01*
Y012076D01*
D02*
G37*
G36*
X053117D02*
X052963D01*
Y011922D01*
X052995Y011928D01*
X053065Y011975D01*
X053111Y012044D01*
X053117Y012076D01*
D02*
G37*
G36*
X052863D02*
X052709D01*
X052716Y012044D01*
X052762Y011975D01*
X052832Y011928D01*
X052863Y011922D01*
Y012076D01*
D02*
G37*
G36*
X053690Y011779D02*
X053658Y011772D01*
X053589Y011726D01*
X053542Y011657D01*
X053536Y011625D01*
X053690D01*
Y011779D01*
D02*
G37*
G36*
X053239D02*
Y011625D01*
X053393D01*
X053387Y011657D01*
X053340Y011726D01*
X053271Y011772D01*
X053239Y011779D01*
D02*
G37*
G36*
X053139D02*
X053107Y011772D01*
X053038Y011726D01*
X052991Y011657D01*
X052985Y011625D01*
X053139D01*
Y011779D01*
D02*
G37*
G36*
X053690Y011525D02*
X053536D01*
X053542Y011493D01*
X053589Y011424D01*
X053658Y011377D01*
X053690Y011371D01*
Y011525D01*
D02*
G37*
G36*
X053393D02*
X053239D01*
Y011371D01*
X053271Y011377D01*
X053340Y011424D01*
X053387Y011493D01*
X053393Y011525D01*
D02*
G37*
G36*
X053139D02*
X052985D01*
X052991Y011493D01*
X053038Y011424D01*
X053107Y011377D01*
X053139Y011371D01*
Y011525D01*
D02*
G37*
G36*
X053515Y011228D02*
Y011074D01*
X053669D01*
X053662Y011106D01*
X053616Y011175D01*
X053546Y011221D01*
X053515Y011228D01*
D02*
G37*
G36*
X053415D02*
X053383Y011221D01*
X053313Y011175D01*
X053267Y011106D01*
X053261Y011074D01*
X053415D01*
Y011228D01*
D02*
G37*
G36*
X052963D02*
Y011074D01*
X053117D01*
X053111Y011106D01*
X053065Y011175D01*
X052995Y011221D01*
X052963Y011228D01*
D02*
G37*
G36*
X052863D02*
X052832Y011221D01*
X052762Y011175D01*
X052716Y011106D01*
X052709Y011074D01*
X052863D01*
Y011228D01*
D02*
G37*
G36*
X053669Y010974D02*
X053515D01*
Y010820D01*
X053546Y010826D01*
X053616Y010872D01*
X053662Y010942D01*
X053669Y010974D01*
D02*
G37*
G36*
X053415D02*
X053261D01*
X053267Y010942D01*
X053313Y010872D01*
X053383Y010826D01*
X053415Y010820D01*
Y010974D01*
D02*
G37*
G36*
X053117D02*
X052963D01*
Y010820D01*
X052995Y010826D01*
X053065Y010872D01*
X053111Y010942D01*
X053117Y010974D01*
D02*
G37*
G36*
X052863D02*
X052709D01*
X052716Y010942D01*
X052762Y010872D01*
X052832Y010826D01*
X052863Y010820D01*
Y010974D01*
D02*
G37*
G36*
X053790Y010676D02*
Y010522D01*
X053944D01*
X053938Y010554D01*
X053891Y010624D01*
X053822Y010670D01*
X053790Y010676D01*
D02*
G37*
G36*
X053690D02*
X053658Y010670D01*
X053589Y010624D01*
X053542Y010554D01*
X053536Y010522D01*
X053690D01*
Y010676D01*
D02*
G37*
G36*
X053239D02*
Y010522D01*
X053393D01*
X053387Y010554D01*
X053340Y010624D01*
X053271Y010670D01*
X053239Y010676D01*
D02*
G37*
G36*
X053139D02*
X053107Y010670D01*
X053038Y010624D01*
X052991Y010554D01*
X052985Y010522D01*
X053139D01*
Y010676D01*
D02*
G37*
G36*
X052688D02*
Y010522D01*
X052842D01*
X052835Y010554D01*
X052789Y010624D01*
X052720Y010670D01*
X052688Y010676D01*
D02*
G37*
G36*
X052588D02*
X052556Y010670D01*
X052487Y010624D01*
X052440Y010554D01*
X052434Y010522D01*
X052588D01*
Y010676D01*
D02*
G37*
G36*
X052137D02*
Y010522D01*
X052291D01*
X052284Y010554D01*
X052238Y010624D01*
X052168Y010670D01*
X052137Y010676D01*
D02*
G37*
G36*
X052037D02*
X052005Y010670D01*
X051935Y010624D01*
X051889Y010554D01*
X051883Y010522D01*
X052037D01*
Y010676D01*
D02*
G37*
G36*
X051585D02*
Y010522D01*
X051739D01*
X051733Y010554D01*
X051687Y010624D01*
X051617Y010670D01*
X051585Y010676D01*
D02*
G37*
G36*
X051485D02*
X051454Y010670D01*
X051384Y010624D01*
X051338Y010554D01*
X051331Y010522D01*
X051485D01*
Y010676D01*
D02*
G37*
G36*
X053944Y010422D02*
X053790D01*
Y010268D01*
X053822Y010275D01*
X053891Y010321D01*
X053938Y010391D01*
X053944Y010422D01*
D02*
G37*
G36*
X053690D02*
X053536D01*
X053542Y010391D01*
X053589Y010321D01*
X053658Y010275D01*
X053690Y010268D01*
Y010422D01*
D02*
G37*
G36*
X053393D02*
X053239D01*
Y010268D01*
X053271Y010275D01*
X053340Y010321D01*
X053387Y010391D01*
X053393Y010422D01*
D02*
G37*
G36*
X053139D02*
X052985D01*
X052991Y010391D01*
X053038Y010321D01*
X053107Y010275D01*
X053139Y010268D01*
Y010422D01*
D02*
G37*
G36*
X051739D02*
X051585D01*
Y010268D01*
X051617Y010275D01*
X051687Y010321D01*
X051733Y010391D01*
X051739Y010422D01*
D02*
G37*
G36*
X051485D02*
X051331D01*
X051338Y010391D01*
X051384Y010321D01*
X051454Y010275D01*
X051485Y010268D01*
Y010422D01*
D02*
G37*
G36*
X050808Y010270D02*
X050650D01*
Y010112D01*
X050808D01*
Y010270D01*
D02*
G37*
G36*
X041100Y012100D02*
X040900D01*
Y011900D01*
X040949Y011910D01*
X041034Y011966D01*
X041090Y012051D01*
X041100Y012100D01*
D02*
G37*
G36*
X029342Y013068D02*
X029174D01*
Y012792D01*
X029342D01*
Y013068D01*
D02*
G37*
G36*
X029074D02*
X028906D01*
Y012792D01*
X029074D01*
Y013068D01*
D02*
G37*
G36*
X030300Y012938D02*
Y012780D01*
X030458D01*
Y012938D01*
X030300D01*
D02*
G37*
G36*
X029750D02*
X029592D01*
Y012780D01*
X029750D01*
Y012938D01*
D02*
G37*
G36*
X030458Y012680D02*
X030300D01*
Y012522D01*
X030458D01*
Y012680D01*
D02*
G37*
G36*
X029750D02*
X029592D01*
Y012522D01*
X029750D01*
Y012680D01*
D02*
G37*
G36*
X030025Y012938D02*
X029982Y012938D01*
X029850D01*
Y012730D01*
Y012522D01*
X029982D01*
X030025Y012522D01*
X030068Y012522D01*
X030200D01*
Y012730D01*
Y012938D01*
X030068D01*
X030025Y012938D01*
D02*
G37*
G36*
X029342Y012692D02*
X029174D01*
Y012416D01*
X029342D01*
Y012692D01*
D02*
G37*
G36*
X029074D02*
X028906D01*
Y012416D01*
X029074D01*
Y012692D01*
D02*
G37*
G36*
X026808Y011038D02*
X026650D01*
Y010880D01*
X026808D01*
Y011038D01*
D02*
G37*
G36*
X026550D02*
X026392D01*
Y010880D01*
X026550D01*
Y011038D01*
D02*
G37*
G36*
X029800Y010954D02*
X029768Y010948D01*
X029699Y010901D01*
X029652Y010832D01*
X029646Y010800D01*
X029800D01*
Y010954D01*
D02*
G37*
G36*
X026278Y011032D02*
X026100D01*
Y010682D01*
X026278D01*
Y011032D01*
D02*
G37*
G36*
X026808Y010780D02*
X026650D01*
Y010622D01*
X026808D01*
Y010780D01*
D02*
G37*
G36*
X026550D02*
X026392D01*
Y010622D01*
X026550D01*
Y010780D01*
D02*
G37*
G36*
X026768Y010538D02*
X026432D01*
Y010275D01*
X026428Y010272D01*
X026390Y010216D01*
X026377Y010150D01*
X026390Y010084D01*
X026428Y010028D01*
X026484Y009990D01*
X026550Y009977D01*
X026616Y009990D01*
X026672Y010028D01*
X026710Y010084D01*
X026723Y010150D01*
X026722Y010155D01*
X026760Y010202D01*
X026768D01*
Y010538D01*
D02*
G37*
G36*
X019727Y009996D02*
X019551Y009973D01*
X019564Y009872D01*
X019741Y009896D01*
X019727Y009996D01*
D02*
G37*
G36*
X024738Y010118D02*
X024402D01*
Y009884D01*
X024390Y009866D01*
X024377Y009800D01*
X024390Y009734D01*
X024428Y009678D01*
X024484Y009640D01*
X024550Y009627D01*
X024616Y009640D01*
X024672Y009678D01*
X024710Y009734D01*
X024720Y009782D01*
X024738D01*
Y010118D01*
D02*
G37*
G36*
X020858Y009688D02*
X020700D01*
Y009530D01*
X020858D01*
Y009688D01*
D02*
G37*
G36*
X020600D02*
X020442D01*
Y009530D01*
X020600D01*
Y009688D01*
D02*
G37*
G36*
X038548Y009500D02*
X038390D01*
Y009342D01*
X038548D01*
Y009500D01*
D02*
G37*
G36*
X038290D02*
X038132D01*
Y009342D01*
X038290D01*
Y009500D01*
D02*
G37*
G36*
X020858Y009430D02*
X020700D01*
Y009272D01*
X020858D01*
Y009430D01*
D02*
G37*
G36*
X020600D02*
X020442D01*
Y009272D01*
X020600D01*
Y009430D01*
D02*
G37*
G36*
X035718Y009988D02*
X035382D01*
Y009652D01*
X035458D01*
Y009548D01*
X035382D01*
Y009212D01*
X035701D01*
X035734Y009190D01*
X035800Y009177D01*
X035866Y009190D01*
X035922Y009228D01*
X035960Y009284D01*
X035973Y009350D01*
X035960Y009416D01*
X035922Y009472D01*
X035866Y009510D01*
X035800Y009523D01*
X035778Y009519D01*
X035718Y009548D01*
Y009548D01*
X035642D01*
Y009652D01*
X035718D01*
Y009988D01*
D02*
G37*
G36*
X037718Y009084D02*
X037562D01*
Y008693D01*
Y008303D01*
X037718D01*
Y008693D01*
Y009084D01*
D02*
G37*
G36*
X032088Y008258D02*
X031930D01*
Y008100D01*
X032088D01*
Y008258D01*
D02*
G37*
G36*
X031830D02*
X031672D01*
Y008100D01*
X031830D01*
Y008258D01*
D02*
G37*
G36*
X037750Y008125D02*
X037710Y008117D01*
X037634Y008066D01*
X037583Y007990D01*
X037575Y007950D01*
X037750D01*
Y008125D01*
D02*
G37*
G36*
X032088Y008000D02*
X031930D01*
Y007842D01*
X032088D01*
Y008000D01*
D02*
G37*
G36*
X031830D02*
X031672D01*
Y007842D01*
X031830D01*
Y008000D01*
D02*
G37*
G36*
X029550Y008423D02*
X029484Y008410D01*
X029428Y008372D01*
X029390Y008316D01*
X029377Y008250D01*
X029390Y008184D01*
X029428Y008128D01*
X029484Y008090D01*
X029550Y008077D01*
X029591Y008030D01*
Y007868D01*
X029913D01*
Y007828D01*
X030081D01*
Y008050D01*
Y008272D01*
X029913D01*
Y008232D01*
X029760D01*
X029719Y008273D01*
X029710Y008316D01*
X029672Y008372D01*
X029616Y008410D01*
X029550Y008423D01*
D02*
G37*
G36*
X030351Y008272D02*
X030291Y008272D01*
X030181D01*
Y008050D01*
Y007828D01*
X030291D01*
X030349Y007828D01*
X030409Y007828D01*
X030519D01*
Y008050D01*
Y008272D01*
X030409D01*
X030351Y008272D01*
D02*
G37*
G36*
X052685Y009380D02*
X052556D01*
Y009212D01*
X052685D01*
Y009380D01*
D02*
G37*
G36*
X051944D02*
X051815D01*
Y009212D01*
X051944D01*
Y009380D01*
D02*
G37*
G36*
X055895Y009320D02*
X055741D01*
X055747Y009288D01*
X055794Y009219D01*
X055863Y009172D01*
X055895Y009166D01*
Y009320D01*
D02*
G37*
G36*
X055719Y009023D02*
Y008869D01*
X055873D01*
X055867Y008901D01*
X055821Y008970D01*
X055751Y009017D01*
X055719Y009023D01*
D02*
G37*
G36*
X055619D02*
X055587Y009017D01*
X055518Y008970D01*
X055472Y008901D01*
X055465Y008869D01*
X055619D01*
Y009023D01*
D02*
G37*
G36*
X055168D02*
Y008869D01*
X055322D01*
X055316Y008901D01*
X055269Y008970D01*
X055200Y009017D01*
X055168Y009023D01*
D02*
G37*
G36*
X055068D02*
X055036Y009017D01*
X054967Y008970D01*
X054920Y008901D01*
X054914Y008869D01*
X055068D01*
Y009023D01*
D02*
G37*
G36*
X054617D02*
Y008869D01*
X054771D01*
X054765Y008901D01*
X054718Y008970D01*
X054649Y009017D01*
X054617Y009023D01*
D02*
G37*
G36*
X054517D02*
X054485Y009017D01*
X054416Y008970D01*
X054369Y008901D01*
X054363Y008869D01*
X054517D01*
Y009023D01*
D02*
G37*
G36*
X054066D02*
Y008869D01*
X054220D01*
X054213Y008901D01*
X054167Y008970D01*
X054098Y009017D01*
X054066Y009023D01*
D02*
G37*
G36*
X052412D02*
Y008869D01*
X052566D01*
X052560Y008901D01*
X052513Y008970D01*
X052444Y009017D01*
X052412Y009023D01*
D02*
G37*
G36*
X052312D02*
X052280Y009017D01*
X052211Y008970D01*
X052165Y008901D01*
X052158Y008869D01*
X052312D01*
Y009023D01*
D02*
G37*
G36*
X051861D02*
Y008869D01*
X052015D01*
X052009Y008901D01*
X051962Y008970D01*
X051893Y009017D01*
X051861Y009023D01*
D02*
G37*
G36*
X053100Y008819D02*
X052928D01*
Y008651D01*
X053100D01*
Y008819D01*
D02*
G37*
G36*
X055873Y008769D02*
X055719D01*
Y008615D01*
X055751Y008621D01*
X055821Y008668D01*
X055867Y008737D01*
X055873Y008769D01*
D02*
G37*
G36*
X055619D02*
X055465D01*
X055472Y008737D01*
X055518Y008668D01*
X055587Y008621D01*
X055619Y008615D01*
Y008769D01*
D02*
G37*
G36*
X055322D02*
X055168D01*
Y008615D01*
X055200Y008621D01*
X055269Y008668D01*
X055316Y008737D01*
X055322Y008769D01*
D02*
G37*
G36*
X055068D02*
X054914D01*
X054920Y008737D01*
X054967Y008668D01*
X055036Y008621D01*
X055068Y008615D01*
Y008769D01*
D02*
G37*
G36*
X054771D02*
X054617D01*
Y008615D01*
X054649Y008621D01*
X054718Y008668D01*
X054765Y008737D01*
X054771Y008769D01*
D02*
G37*
G36*
X054517D02*
X054363D01*
X054369Y008737D01*
X054416Y008668D01*
X054485Y008621D01*
X054517Y008615D01*
Y008769D01*
D02*
G37*
G36*
X054220D02*
X054066D01*
Y008615D01*
X054098Y008621D01*
X054167Y008668D01*
X054213Y008737D01*
X054220Y008769D01*
D02*
G37*
G36*
X052566D02*
X052412D01*
Y008615D01*
X052444Y008621D01*
X052513Y008668D01*
X052560Y008737D01*
X052566Y008769D01*
D02*
G37*
G36*
X052312D02*
X052158D01*
X052165Y008737D01*
X052211Y008668D01*
X052280Y008621D01*
X052312Y008615D01*
Y008769D01*
D02*
G37*
G36*
X052015D02*
X051861D01*
Y008615D01*
X051893Y008621D01*
X051962Y008668D01*
X052009Y008737D01*
X052015Y008769D01*
D02*
G37*
G36*
X054793Y008472D02*
X054761Y008465D01*
X054691Y008419D01*
X054645Y008350D01*
X054639Y008318D01*
X054793D01*
Y008472D01*
D02*
G37*
G36*
X054341D02*
Y008318D01*
X054495D01*
X054489Y008350D01*
X054443Y008419D01*
X054373Y008465D01*
X054341Y008472D01*
D02*
G37*
G36*
X054241D02*
X054209Y008465D01*
X054140Y008419D01*
X054094Y008350D01*
X054087Y008318D01*
X054241D01*
Y008472D01*
D02*
G37*
G36*
X053790D02*
Y008318D01*
X053944D01*
X053938Y008350D01*
X053891Y008419D01*
X053822Y008465D01*
X053790Y008472D01*
D02*
G37*
G36*
X053690D02*
X053658Y008465D01*
X053589Y008419D01*
X053542Y008350D01*
X053536Y008318D01*
X053690D01*
Y008472D01*
D02*
G37*
G36*
X053239D02*
Y008318D01*
X053393D01*
X053387Y008350D01*
X053340Y008419D01*
X053271Y008465D01*
X053239Y008472D01*
D02*
G37*
G36*
X053139D02*
X053107Y008465D01*
X053038Y008419D01*
X052991Y008350D01*
X052985Y008318D01*
X053139D01*
Y008472D01*
D02*
G37*
G36*
X052688D02*
Y008318D01*
X052842D01*
X052835Y008350D01*
X052789Y008419D01*
X052720Y008465D01*
X052688Y008472D01*
D02*
G37*
G36*
X052588D02*
X052556Y008465D01*
X052487Y008419D01*
X052440Y008350D01*
X052434Y008318D01*
X052588D01*
Y008472D01*
D02*
G37*
G36*
X052137D02*
Y008318D01*
X052291D01*
X052284Y008350D01*
X052238Y008419D01*
X052168Y008465D01*
X052137Y008472D01*
D02*
G37*
G36*
X052037D02*
X052005Y008465D01*
X051935Y008419D01*
X051889Y008350D01*
X051883Y008318D01*
X052037D01*
Y008472D01*
D02*
G37*
G36*
X051585D02*
Y008318D01*
X051739D01*
X051733Y008350D01*
X051687Y008419D01*
X051617Y008465D01*
X051585Y008472D01*
D02*
G37*
G36*
X051485D02*
X051454Y008465D01*
X051384Y008419D01*
X051338Y008350D01*
X051331Y008318D01*
X051485D01*
Y008472D01*
D02*
G37*
G36*
X054495Y008218D02*
X054341D01*
Y008064D01*
X054373Y008070D01*
X054443Y008116D01*
X054489Y008186D01*
X054495Y008218D01*
D02*
G37*
G36*
X054241D02*
X054087D01*
X054094Y008186D01*
X054140Y008116D01*
X054209Y008070D01*
X054241Y008064D01*
Y008218D01*
D02*
G37*
G36*
X053944D02*
X053790D01*
Y008064D01*
X053822Y008070D01*
X053891Y008116D01*
X053938Y008186D01*
X053944Y008218D01*
D02*
G37*
G36*
X053690D02*
X053536D01*
X053542Y008186D01*
X053589Y008116D01*
X053658Y008070D01*
X053690Y008064D01*
Y008218D01*
D02*
G37*
G36*
X053393D02*
X053239D01*
Y008064D01*
X053271Y008070D01*
X053340Y008116D01*
X053387Y008186D01*
X053393Y008218D01*
D02*
G37*
G36*
X053139D02*
X052985D01*
X052991Y008186D01*
X053038Y008116D01*
X053107Y008070D01*
X053139Y008064D01*
Y008218D01*
D02*
G37*
G36*
X052842D02*
X052688D01*
Y008064D01*
X052720Y008070D01*
X052789Y008116D01*
X052835Y008186D01*
X052842Y008218D01*
D02*
G37*
G36*
X052588D02*
X052434D01*
X052440Y008186D01*
X052487Y008116D01*
X052556Y008070D01*
X052588Y008064D01*
Y008218D01*
D02*
G37*
G36*
X052291D02*
X052137D01*
Y008064D01*
X052168Y008070D01*
X052238Y008116D01*
X052284Y008186D01*
X052291Y008218D01*
D02*
G37*
G36*
X052037D02*
X051883D01*
X051889Y008186D01*
X051935Y008116D01*
X052005Y008070D01*
X052037Y008064D01*
Y008218D01*
D02*
G37*
G36*
X051739D02*
X051585D01*
Y008064D01*
X051617Y008070D01*
X051687Y008116D01*
X051733Y008186D01*
X051739Y008218D01*
D02*
G37*
G36*
X051485D02*
X051331D01*
X051338Y008186D01*
X051384Y008116D01*
X051454Y008070D01*
X051485Y008064D01*
Y008218D01*
D02*
G37*
G36*
X050658Y008170D02*
X050500D01*
Y008012D01*
X050658D01*
Y008170D01*
D02*
G37*
G36*
X050400D02*
X050242D01*
Y008012D01*
X050400D01*
Y008170D01*
D02*
G37*
G36*
X052412Y007921D02*
Y007767D01*
X052566D01*
X052560Y007798D01*
X052513Y007868D01*
X052444Y007914D01*
X052412Y007921D01*
D02*
G37*
G36*
X052312D02*
X052280Y007914D01*
X052211Y007868D01*
X052165Y007798D01*
X052158Y007767D01*
X052312D01*
Y007921D01*
D02*
G37*
G36*
X051861D02*
Y007767D01*
X052015D01*
X052009Y007798D01*
X051962Y007868D01*
X051893Y007914D01*
X051861Y007921D01*
D02*
G37*
G36*
X051761D02*
X051729Y007914D01*
X051660Y007868D01*
X051613Y007798D01*
X051607Y007767D01*
X051761D01*
Y007921D01*
D02*
G37*
G36*
X051310D02*
Y007767D01*
X051464D01*
X051458Y007798D01*
X051411Y007868D01*
X051342Y007914D01*
X051310Y007921D01*
D02*
G37*
G36*
X051210D02*
X051178Y007914D01*
X051109Y007868D01*
X051062Y007798D01*
X051056Y007767D01*
X051210D01*
Y007921D01*
D02*
G37*
G36*
X052566Y007667D02*
X052412D01*
Y007513D01*
X052444Y007519D01*
X052513Y007565D01*
X052560Y007635D01*
X052566Y007667D01*
D02*
G37*
G36*
X052312D02*
X052158D01*
X052165Y007635D01*
X052211Y007565D01*
X052280Y007519D01*
X052312Y007513D01*
Y007667D01*
D02*
G37*
G36*
X052015D02*
X051861D01*
Y007513D01*
X051893Y007519D01*
X051962Y007565D01*
X052009Y007635D01*
X052015Y007667D01*
D02*
G37*
G36*
X051761D02*
X051607D01*
X051613Y007635D01*
X051660Y007565D01*
X051729Y007519D01*
X051761Y007513D01*
Y007667D01*
D02*
G37*
G36*
X051464D02*
X051310D01*
Y007513D01*
X051342Y007519D01*
X051411Y007565D01*
X051458Y007635D01*
X051464Y007667D01*
D02*
G37*
G36*
X051210D02*
X051056D01*
X051062Y007635D01*
X051109Y007565D01*
X051178Y007519D01*
X051210Y007513D01*
Y007667D01*
D02*
G37*
%LPD*%
D14*
X049762Y007540D02*
X049960Y007342D01*
Y006658D02*
Y007342D01*
X049621Y006319D02*
X049960Y006658D01*
X055192Y010048D02*
X055279Y010135D01*
X053617Y009700D02*
X053717Y009600D01*
X049450Y006300D02*
X049469Y006319D01*
X049621D01*
X048956Y007540D02*
X049762D01*
X048748Y007748D02*
X048956Y007540D01*
X048748Y007748D02*
Y007933D01*
X048739Y007942D02*
X048748Y007933D01*
X050800Y009696D02*
X050804Y009700D01*
X050800Y009231D02*
Y009696D01*
X051267Y009700D02*
X051300Y009667D01*
Y009231D02*
Y009667D01*
X053500Y009632D02*
X053548D01*
X053617Y009700D01*
Y009265D02*
X053650Y009231D01*
X053617Y009265D02*
Y009700D01*
X053150Y009667D02*
X053183Y009700D01*
X053150Y009231D02*
Y009667D01*
X055279Y010135D02*
X055392D01*
X051805Y009671D02*
X051834Y009700D01*
X051856D01*
X050712Y009792D02*
X050804Y009700D01*
D15*
X023819Y013037D02*
G03*
X023278Y012813I000000J-000765D01*
G01*
X024206Y012944D02*
G03*
X023982Y013037I-000225J-000225D01*
G01*
X024264Y012886D02*
G03*
X024550Y012768I000286J000287D01*
G01*
X024109Y013250D02*
G03*
X024086Y013260I-000024J-000024D01*
G01*
X023044D02*
G03*
X022900Y013200I000000J-000204D01*
G01*
X022278Y012813D02*
G03*
X022679Y012979I000000J000567D01*
G01*
X018875Y009680D02*
X018900Y009705D01*
Y010400D01*
X018850Y010450D02*
X018900Y010400D01*
X018600Y010450D02*
X018850D01*
X018608Y010151D02*
X018651D01*
X018541Y010218D02*
X018608Y010151D01*
X023819Y013037D02*
X023982D01*
X024264Y012886D02*
X024264Y012886D01*
X024206Y012944D02*
X024264Y012886D01*
X048050Y009300D02*
X048739Y009989D01*
X023799Y012349D02*
Y012751D01*
X022850Y011400D02*
X023799Y012349D01*
X023044Y013260D02*
X024086D01*
X022679Y012979D02*
X022900Y013200D01*
X021008Y012602D02*
X021010Y012600D01*
X020640Y012602D02*
X021008D01*
X020638Y012600D02*
X020640Y012602D01*
X020350Y012600D02*
X020638D01*
X020100Y012350D02*
X020350Y012600D01*
X018300Y008550D02*
Y009350D01*
X018249Y012351D02*
X018326Y012429D01*
Y012445D01*
X018404Y012522D01*
Y012587D01*
X018483Y012667D01*
Y012702D01*
X020500Y011400D02*
X022850D01*
X018950Y012158D02*
Y012450D01*
X019050Y012550D01*
X019900D01*
X019192Y012350D02*
X020100D01*
X019184Y012357D02*
X019192Y012350D01*
X021010Y012600D02*
X021433D01*
X021483Y012550D01*
X021850D01*
X018950Y012158D02*
X018985Y012123D01*
X019215D01*
X043250Y012339D02*
X043404Y012184D01*
X047760Y007471D02*
Y007690D01*
X021550Y011850D02*
Y012150D01*
X021220Y011520D02*
X021550Y011850D01*
X045350Y010908D02*
Y010926D01*
X021100Y011650D02*
X021350Y011900D01*
Y012400D01*
X020589Y011650D02*
X021100D01*
X020099Y012140D02*
X020589Y011650D01*
X019668Y012140D02*
X020099D01*
X019468Y011940D02*
X019668Y012140D01*
X047952Y007552D02*
Y007942D01*
X020550Y011520D02*
X021220D01*
X020050Y012020D02*
X020550Y011520D01*
X019718Y012020D02*
X020050D01*
X020000Y011900D02*
X020500Y011400D01*
X019767Y011900D02*
X020000D01*
X019920Y011150D02*
Y011320D01*
X020100Y011500D01*
X019900Y011130D02*
X019920Y011150D01*
X019900Y010951D02*
Y011130D01*
X019625Y010677D02*
X019900Y010951D01*
X019625Y010647D02*
Y010677D01*
X019539Y010561D02*
X019625Y010647D01*
X019509Y010561D02*
X019539D01*
X019433Y010484D02*
X019509Y010561D01*
X019594Y010994D02*
X019800Y011200D01*
X019594Y010881D02*
Y010994D01*
X019508Y010795D02*
X019594Y010881D01*
X019505Y010795D02*
X019508D01*
X019505Y010756D02*
Y010795D01*
X019800Y011200D02*
Y011600D01*
X019501Y011634D02*
X019767Y011900D01*
X019494Y011796D02*
X019718Y012020D01*
X019494Y011796D02*
X019494D01*
X019470Y011820D02*
X019494Y011796D01*
X019470Y011818D02*
Y011820D01*
X019384Y011731D02*
X019470Y011818D01*
X019297Y011940D02*
X019468D01*
X019381Y011731D02*
X019384D01*
X019246Y011889D02*
X019297Y011940D01*
X018600Y012250D02*
X018690Y012160D01*
X018619Y011719D02*
X018650Y011750D01*
X018800Y011150D02*
Y011617D01*
X018850Y011667D01*
X045850Y009450D02*
X046100Y009200D01*
X018550Y010758D02*
X018621Y010687D01*
X018264D02*
X018621D01*
X018400Y012094D02*
Y012333D01*
X018242Y011935D02*
X018400Y012094D01*
X020351Y008721D02*
X020650Y009020D01*
X019875Y008721D02*
X020351D01*
X018100Y009550D02*
X018300Y009350D01*
X031720Y012075D02*
X031962D01*
X050700Y008450D02*
X050775Y008525D01*
X035550Y009350D02*
X035800D01*
X047450Y007180D02*
Y007650D01*
X041350Y010550D02*
Y011040D01*
X041400Y011090D01*
X035530Y011203D02*
X036321Y010412D01*
X035530Y011203D02*
Y011313D01*
X035448Y011396D02*
X035530Y011313D01*
X036050Y011330D02*
X036106Y011387D01*
X036050Y011267D02*
Y011330D01*
X035933Y011150D02*
X036050Y011267D01*
X035767Y011150D02*
X035933D01*
X035650Y011267D02*
X035767Y011150D01*
X035650Y011267D02*
Y011363D01*
X035393Y011620D02*
X035650Y011363D01*
X035850Y011350D02*
Y011465D01*
X037512Y011257D02*
X037560D01*
X033400Y011156D02*
Y011300D01*
X034594Y011620D02*
X035393D01*
X018400Y012333D02*
X018546Y012479D01*
X018850Y011667D02*
Y011891D01*
X018619Y011652D02*
Y011719D01*
X018398Y011430D02*
X018619Y011652D01*
X018212Y011430D02*
X018398D01*
X018171Y011389D02*
X018212Y011430D01*
X035398Y011102D02*
Y011276D01*
Y011102D02*
X036300Y010200D01*
X036321Y010412D02*
X036432D01*
X035448Y011396D02*
X035448D01*
X036432Y010412D02*
X036444Y010400D01*
X036650D01*
X035344Y011500D02*
X035448Y011396D01*
X035398Y011276D02*
X035398D01*
X018100Y009550D02*
Y009818D01*
X026470Y011600D02*
X026600Y011470D01*
X025012Y011600D02*
X026470D01*
X024700Y011288D02*
X025012Y011600D01*
X039750Y010050D02*
Y011197D01*
X039065Y011882D02*
Y012118D01*
Y011882D02*
X039750Y011197D01*
X018073Y012351D02*
X018249D01*
X018047Y012326D02*
X018073Y012351D01*
X018690Y012051D02*
Y012160D01*
X044917Y010850D02*
X045292D01*
X045350Y010908D01*
X018690Y012051D02*
X018850Y011891D01*
X018323Y011661D02*
X018327Y011665D01*
X018178Y011661D02*
X018323D01*
X018140Y011623D02*
X018178Y011661D01*
X018326Y010218D02*
X018541D01*
X019501Y011584D02*
Y011634D01*
X019415Y011497D02*
X019501Y011584D01*
X019385Y011497D02*
X019415D01*
X019309Y011421D02*
X019385Y011497D01*
X019314Y011664D02*
X019381Y011731D01*
X019286Y011664D02*
X019314D01*
X018200Y011857D02*
X018242Y011899D01*
Y011935D01*
X018109Y011857D02*
X018200D01*
X018463Y011013D02*
X018493D01*
X018550Y010733D02*
Y010758D01*
X018409Y010959D02*
X018463Y011013D01*
X019468Y010718D02*
X019505Y010756D01*
X024550Y010632D02*
X024700Y010782D01*
Y011288D01*
X033247Y011453D02*
X033867Y012074D01*
X032950Y011200D02*
X033203Y011453D01*
X033247D01*
X032756Y011288D02*
Y011441D01*
X032750Y011283D02*
X032756Y011288D01*
X032750Y011117D02*
Y011283D01*
Y011117D02*
X032756Y011112D01*
Y010856D02*
Y011112D01*
X033050Y010500D02*
Y010677D01*
X033132Y010758D01*
X032636Y011352D02*
Y011491D01*
X032550Y011266D02*
X032636Y011352D01*
X032550Y011077D02*
Y011266D01*
X032152Y010252D02*
X032756Y010856D01*
X031422Y010252D02*
X032152D01*
X032209Y011597D02*
X032237Y011625D01*
X032209Y011135D02*
Y011597D01*
X025832Y010295D02*
Y011338D01*
X025834Y011340D01*
X032650Y011505D02*
Y013100D01*
X032636Y011491D02*
X032650Y011505D01*
X032850Y011535D02*
Y011900D01*
X032756Y011441D02*
X032850Y011535D01*
Y011900D02*
X033102Y012152D01*
Y012652D01*
X033548Y011448D02*
X034423D01*
X033400Y011300D02*
X033548Y011448D01*
X033704Y011328D02*
X033996D01*
X033620Y011244D02*
X033704Y011328D01*
X033620Y011016D02*
Y011244D01*
X038920Y010820D02*
Y010950D01*
X038597Y010497D02*
X038920Y010820D01*
X038330Y010897D02*
X038750Y011317D01*
Y011350D01*
X038165Y010313D02*
X038349Y010497D01*
X038597D01*
X030900Y012650D02*
X030950Y012600D01*
X044939Y010659D02*
X045675D01*
X044650Y010948D02*
Y011324D01*
X044800Y010967D02*
Y011354D01*
X045000Y011050D02*
X045203Y011253D01*
X044800Y010967D02*
X044917Y010850D01*
X044650Y010948D02*
X044939Y010659D01*
X043644Y012099D02*
Y012131D01*
X043271Y012360D02*
X043300D01*
X043404Y011986D02*
Y012184D01*
X043250Y012339D02*
X043271Y012360D01*
X043644Y012099D02*
X043650Y012093D01*
X046517Y012300D02*
X046787Y012570D01*
X046800D01*
X046200Y012300D02*
X046517D01*
X046700Y012188D02*
Y012200D01*
Y012188D02*
X046750Y012138D01*
X046850Y012238D01*
X045452Y011250D02*
X045455Y011253D01*
X045203D02*
X045455D01*
X045452Y011250D02*
X045700D01*
X046498Y011048D02*
Y011963D01*
X046350Y010900D02*
X046498Y011048D01*
X046350Y010750D02*
Y010900D01*
X040950Y009767D02*
X042125Y010942D01*
X040767Y009767D02*
X040950D01*
X040750Y009750D02*
X040767Y009767D01*
X043647Y011941D02*
Y011985D01*
X043594Y012037D02*
X043650Y012093D01*
X043594Y012037D02*
X043647Y011985D01*
X046300Y012680D02*
X046450D01*
X044450Y010950D02*
X044950Y010450D01*
X042400Y009850D02*
Y010900D01*
Y009850D02*
X042420Y009830D01*
X042125Y010942D02*
Y012685D01*
X041325Y011165D02*
X041400Y011090D01*
X043501Y009816D02*
X043567Y009750D01*
X043783Y009800D02*
X044114D01*
X043733Y009750D02*
X043783Y009800D01*
X043567Y009750D02*
X043733D01*
X043445Y009816D02*
X043501D01*
X043357Y009904D02*
X043445Y009816D01*
X043691Y009600D02*
X043808Y009483D01*
X043520Y009600D02*
X043691D01*
X043424Y009696D02*
X043520Y009600D01*
X042715Y009696D02*
X043424D01*
X043357Y009904D02*
Y009936D01*
X043314D02*
X043357D01*
X042569Y009550D02*
X042715Y009696D01*
X040100Y010050D02*
X040600Y009550D01*
X042569D01*
X038330Y010698D02*
Y010897D01*
X038233Y010602D02*
X038330Y010698D01*
X038233Y010550D02*
Y010602D01*
X038116Y010433D02*
X038233Y010550D01*
X037256Y009435D02*
X038134Y010313D01*
X038165D01*
X033867Y012074D02*
X034082D01*
X034423Y011448D02*
X034594Y011620D01*
X033996Y011328D02*
X034137Y011187D01*
X032237Y011625D02*
Y011800D01*
X039065Y012118D02*
X039243Y012296D01*
X035850Y011465D02*
X036444Y012059D01*
Y012074D01*
X036970Y011387D02*
X037150Y011567D01*
X036106Y011387D02*
X036970D01*
X038064Y010433D02*
X038116D01*
X037000Y009369D02*
X038064Y010433D01*
X037000Y008693D02*
Y009369D01*
X037256Y008693D02*
Y009435D01*
X044114Y009800D02*
X044182Y009869D01*
X041325Y011165D02*
Y011175D01*
X048345Y010995D02*
X048400Y011050D01*
X048345Y010658D02*
Y010995D01*
X046411Y012050D02*
X046498Y011963D01*
X047900Y010917D02*
Y011337D01*
Y010917D02*
X047923Y010895D01*
Y010687D02*
Y010895D01*
Y010687D02*
X047952Y010658D01*
X048100Y011000D02*
X048148Y010952D01*
Y010658D02*
Y010952D01*
X018100Y009818D02*
X018266Y009984D01*
X018357D01*
X018271Y010959D02*
X018409D01*
X018233Y010921D02*
X018271Y010959D01*
X019277Y011655D02*
X019286Y011664D01*
X019402Y010718D02*
X019468D01*
X049438Y008385D02*
X050271D01*
X050750Y008550D02*
X050775Y008525D01*
X042050Y012760D02*
X042125Y012685D01*
X042050Y012760D02*
Y012800D01*
X039750Y010050D02*
X040450Y009350D01*
X042250D01*
X040100Y012300D02*
X040200Y012400D01*
X040100Y010050D02*
Y012300D01*
X039243Y012296D02*
X039600D01*
X039699Y012395D01*
X040250Y012650D02*
X040350D01*
X039995Y012395D02*
X040250Y012650D01*
X039699Y012395D02*
X039995D01*
X035550Y009350D02*
Y009380D01*
X030080Y011030D02*
X030950Y011900D01*
X030080Y010430D02*
Y011030D01*
X030061Y010411D02*
X030080Y010430D01*
X030054Y010411D02*
X030061D01*
X030393Y010523D02*
X030632Y010762D01*
X043560Y013340D02*
X044091Y012809D01*
X033790Y013340D02*
X043560D01*
X033102Y012652D02*
X033790Y013340D01*
X037256Y012956D02*
Y012976D01*
X037250Y012950D02*
X037256Y012956D01*
X037300Y013000D02*
X037830Y012470D01*
Y011700D02*
Y012470D01*
X032550Y013200D02*
Y013300D01*
X032673Y013460D02*
X043640D01*
X032633Y013500D02*
X032673Y013460D01*
X032467Y013500D02*
X032633D01*
X032427Y013460D02*
X032467Y013500D01*
X027658Y013460D02*
X032427D01*
X043640D02*
X044689Y012411D01*
X037150Y011567D02*
Y011900D01*
X044091Y012485D02*
Y012809D01*
X031387Y010217D02*
X031422Y010252D01*
X031387Y010208D02*
Y010217D01*
X031368Y010189D02*
X031387Y010208D01*
X031284Y010189D02*
X031368D01*
X035050Y010000D02*
X035120Y009930D01*
Y008500D02*
Y009930D01*
X033952Y009302D02*
X034200Y009550D01*
X034600D01*
X035050Y010000D01*
X034203Y009973D02*
X034327D01*
X033550Y010626D02*
X034203Y009973D01*
X033464Y011002D02*
X033550Y010916D01*
X033464Y011002D02*
Y011016D01*
X033300Y011180D02*
X033464Y011016D01*
X030774Y008426D02*
X030850Y008350D01*
X030774Y008426D02*
Y008583D01*
X030767Y008589D02*
X030774Y008583D01*
X030850Y008350D02*
X031050D01*
X031273Y008127D01*
X031343D01*
X031420Y008050D01*
X030950Y011900D02*
Y012600D01*
X030632Y011096D02*
X031118Y011582D01*
Y012323D01*
X031200Y012405D02*
Y012800D01*
X031118Y012323D02*
X031200Y012405D01*
X030767Y010411D02*
Y010887D01*
X030830Y010950D01*
X031220D01*
X030393Y010430D02*
Y010523D01*
X030374Y010411D02*
X030393Y010430D01*
X030632Y010762D02*
Y011096D01*
X031284Y009205D02*
X031368D01*
X031387Y009186D01*
Y009182D02*
Y009186D01*
Y009182D02*
X031422Y009147D01*
X031922D01*
X031950Y009119D01*
X046250Y009412D02*
X046253Y009409D01*
X046202Y009460D02*
X046250Y009412D01*
Y009400D02*
Y009408D01*
Y009412D01*
X028942Y008750D02*
X028950Y008758D01*
X028031Y008750D02*
X028942D01*
X028031Y009750D02*
X028039Y009742D01*
X028950D01*
X029487Y009205D02*
X030054D01*
X029202Y009490D02*
X029487Y009205D01*
X029202Y009490D02*
Y009575D01*
X029035Y009742D02*
X029202Y009575D01*
X028950Y009742D02*
X029035D01*
X029359Y008809D02*
X029558Y009008D01*
X030054D01*
X029001Y008809D02*
X029359D01*
X028950Y008758D02*
X029001Y008809D01*
X043350Y008325D02*
X043375Y008300D01*
X042342Y008425D02*
X042749Y008832D01*
X043080Y008474D02*
Y008632D01*
X042749Y008832D02*
X043071D01*
X042700Y009050D02*
X042800D01*
X043071Y008832D02*
X043071Y008832D01*
X043268D02*
X043350Y008750D01*
X043071Y008832D02*
X043268D01*
X043350Y008325D02*
Y008750D01*
X042125Y008425D02*
X042342D01*
X043056Y008450D02*
X043080Y008474D01*
X043056Y008066D02*
Y008450D01*
X043283Y007840D02*
X043925D01*
X043056Y008066D02*
X043283Y007840D01*
X042125Y008300D02*
Y008425D01*
X041850Y007750D02*
X042125Y008025D01*
Y008300D01*
X039377Y007750D02*
X041850D01*
X039298Y007829D02*
X039377Y007750D01*
X039298Y007829D02*
Y007882D01*
X039224Y007956D02*
X039298Y007882D01*
X039224Y007956D02*
Y008074D01*
X041370Y007550D02*
X041470Y007450D01*
X039338Y007550D02*
X041370D01*
X039042Y007846D02*
X039338Y007550D01*
X041350Y007400D02*
X041970Y006780D01*
X039096Y007400D02*
X041350D01*
X038787Y007709D02*
X039096Y007400D01*
X041470Y007450D02*
X042125D01*
X039042Y007846D02*
Y007899D01*
X038968Y007973D02*
X039042Y007899D01*
X038968Y007973D02*
Y008091D01*
X041970Y006780D02*
X042060D01*
X042125Y006715D01*
Y006700D02*
Y006715D01*
X038787Y007709D02*
Y007916D01*
X038713Y007990D02*
X038787Y007916D01*
X038713Y007990D02*
Y008108D01*
X047920Y007150D02*
X047950D01*
X047150Y006950D02*
X047750D01*
X046550Y006350D02*
X047150Y006950D01*
X043125Y006350D02*
X046550D01*
X046333Y009200D02*
X046334Y009202D01*
X046057Y009005D02*
X046692D01*
X045573Y009489D02*
X046057Y009005D01*
X045817Y009665D02*
X046152D01*
X045802Y009650D02*
X045817Y009665D01*
X045800Y009650D02*
X045802D01*
X046152Y009665D02*
X046174Y009643D01*
X046536D01*
X046100Y009200D02*
X046333D01*
X046200Y009458D02*
X046250Y009408D01*
Y009412D02*
X046288Y009450D01*
X046292Y009446D01*
X046200Y009458D02*
X046202Y009460D01*
X046200Y009462D02*
X046202Y009460D01*
X045934Y010186D02*
X046692D01*
X047750Y006950D02*
X047872Y007072D01*
X047900Y011337D02*
X048154Y011591D01*
X044091Y011883D02*
X044650Y011324D01*
X032550Y013200D02*
X032650Y013100D01*
X044950Y010450D02*
X045650D01*
X031962Y012075D02*
X032237Y011800D01*
X044050Y009564D02*
X044750Y008863D01*
X044050Y009564D02*
Y009600D01*
X044399Y009468D02*
Y009513D01*
Y009468D02*
X044567Y009300D01*
X044600D02*
X044900Y009000D01*
X044567Y009300D02*
X044600D01*
X045741Y009709D02*
X045800Y009650D01*
X045730Y009709D02*
X045741D01*
X045675Y010659D02*
X045716Y010700D01*
X046050D01*
X045865Y009465D02*
X045900D01*
X045910Y008808D02*
X046692D01*
X045678Y008611D02*
X046692D01*
X045593Y009125D02*
X045910Y008808D01*
X045460Y008400D02*
X046678D01*
X049933Y008600D02*
X050050D01*
X049408Y008611D02*
X049456Y008563D01*
X050271Y008385D02*
X050336Y008450D01*
X049800Y008150D02*
Y008200D01*
X049783Y008217D02*
X049800Y008200D01*
X049837Y008505D02*
X049933Y008600D01*
X049456Y008563D02*
X049613D01*
X049672Y008505D02*
X049837D01*
X049666Y008511D02*
X049672Y008505D01*
X049666Y008511D02*
Y008511D01*
X049716Y008704D02*
X049754D01*
X049712Y008700D02*
X049716Y008704D01*
X049613Y008563D02*
X049666Y008511D01*
X048300Y007467D02*
X048435Y007332D01*
Y007100D02*
Y007332D01*
X048310Y007643D02*
Y007906D01*
X048300Y007633D02*
X048310Y007643D01*
X048180Y007410D02*
Y007682D01*
X047950Y007180D02*
X048180Y007410D01*
X047760Y007690D02*
X047800Y007730D01*
X047953Y007550D02*
X047980Y007577D01*
X047800Y007730D02*
Y007788D01*
X047980Y007577D02*
Y007628D01*
X048190Y007692D02*
Y007900D01*
X048180Y007682D02*
X048190Y007692D01*
X048300Y007467D02*
Y007633D01*
X047252Y007252D02*
Y007663D01*
X047330Y007741D01*
Y007884D01*
X047460Y007589D02*
X047473D01*
X047550Y007666D01*
X048500Y007550D02*
Y007900D01*
X048700Y007400D02*
X049365D01*
X048582Y007282D02*
X048700Y007400D01*
X050100Y006450D02*
Y007500D01*
X049920Y007680D02*
X050100Y007500D01*
X049041Y007680D02*
X049920D01*
X050450Y006550D02*
Y007350D01*
X050000Y007800D02*
X050450Y007350D01*
X049274Y007800D02*
X050000D01*
X045468Y010010D02*
X045928D01*
X045518Y010130D02*
X045879D01*
X045567Y010250D02*
X045829D01*
X045527Y010290D02*
X045567Y010250D01*
X045478Y010170D02*
X045518Y010130D01*
X045458Y010020D02*
X045468Y010010D01*
X045416Y010020D02*
X045458D01*
X044370Y010170D02*
X045478D01*
X044122Y010290D02*
X045527D01*
X045829Y010250D02*
X045962Y010383D01*
X045879Y010130D02*
X045934Y010186D01*
X045968Y010050D02*
X046474D01*
X045928Y010010D02*
X045968Y010050D01*
X046474D02*
X046487Y010037D01*
X045962Y010383D02*
X046692D01*
X045211Y009815D02*
X045416Y010020D01*
X045211Y008267D02*
Y009815D01*
X033132Y010758D02*
X033137Y010753D01*
X033267D01*
X033300Y010720D01*
X045870Y012050D02*
X046411D01*
X046644Y010037D02*
X046692Y009989D01*
X046487Y010037D02*
X046644D01*
X043974Y010142D02*
X044122Y010290D01*
X045850Y009450D02*
X045865Y009465D01*
X044182Y009982D02*
X044370Y010170D01*
X046750Y010876D02*
X046967Y010658D01*
X046750Y010876D02*
Y010900D01*
X049503Y011856D02*
Y011866D01*
X049100Y011453D02*
X049503Y011856D01*
X046998Y012424D02*
Y012832D01*
X046800Y013030D02*
X046998Y012832D01*
X045710Y007290D02*
Y007583D01*
Y007290D02*
X046250Y006750D01*
X045462Y007830D02*
X045600Y007692D01*
X045710Y007583D01*
X046550Y006750D02*
X047132Y007332D01*
X046250Y006750D02*
X046550D01*
X046600Y006600D02*
X047252Y007252D01*
X045708Y006600D02*
X046600D01*
X045600Y006708D02*
X045708Y006600D01*
X048148Y007942D02*
X048190Y007900D01*
X047950Y007180D02*
X047950D01*
Y007150D02*
Y007180D01*
X047740Y007472D02*
X047741D01*
X047750Y007481D01*
X047760Y007471D01*
X048310Y007906D02*
X048345Y007942D01*
X047952Y007552D02*
X047953Y007550D01*
X047550Y007666D02*
X047558Y007658D01*
X039042Y008275D02*
Y008287D01*
X038968Y008201D02*
X039042Y008275D01*
X036744Y010494D02*
Y011007D01*
X036650Y010400D02*
X036744Y010494D01*
X037000Y010550D02*
Y011007D01*
X036650Y010200D02*
X037000Y010550D01*
X036300Y010200D02*
X036650D01*
X036800Y010000D02*
X037256Y010456D01*
X036270Y010000D02*
X036800D01*
X035600Y010670D02*
X036270Y010000D01*
X037768Y011007D02*
Y011208D01*
X037830Y011271D01*
Y011700D01*
X037256Y011007D02*
Y011208D01*
X037333Y011286D01*
Y011663D01*
X037370Y011700D01*
X037570Y011316D02*
X037600Y011345D01*
X037570Y011267D02*
Y011316D01*
X037560Y011257D02*
X037570Y011267D01*
X037600Y011345D02*
Y011850D01*
X037500Y011950D02*
X037600Y011850D01*
X037200Y011950D02*
X037500D01*
X037150Y011900D02*
X037200Y011950D01*
X034650Y011500D02*
X035344D01*
X035150Y007500D02*
X035963Y008313D01*
X036614D01*
X036744Y008443D02*
Y008693D01*
X036614Y008313D02*
X036744Y008443D01*
X046583Y009595D02*
X046692D01*
X046536Y009643D02*
X046583Y009595D01*
X045044Y008100D02*
X045211Y008267D01*
X044800Y008100D02*
X045044D01*
X044240Y007540D02*
X044800Y008100D01*
X044182Y009869D02*
Y009982D01*
X047558Y007658D02*
Y007942D01*
X042910Y007090D02*
X042937D01*
X042787Y007213D02*
X042910Y007090D01*
X042787Y007213D02*
Y007438D01*
X042775Y007450D02*
X042787Y007438D01*
X042937Y007090D02*
X042967Y007060D01*
X044187D01*
X044240Y007113D01*
Y007540D01*
X044750Y008650D02*
X045000Y008400D01*
X044750Y008650D02*
Y008863D01*
X043808Y009399D02*
X043843Y009364D01*
X043886D02*
X043974Y009276D01*
X043843Y009364D02*
X043886D01*
X043808Y009399D02*
Y009483D01*
X043974Y009158D02*
Y009276D01*
X043226Y010024D02*
X043314Y009936D01*
X040200Y012400D02*
X040600D01*
X040850Y012650D01*
X044025Y008300D02*
Y009107D01*
X043974Y009158D02*
X044025Y009107D01*
X050450Y006500D02*
Y006550D01*
X049247Y007828D02*
X049274Y007800D01*
X049162Y007828D02*
X049247D01*
X049133Y007857D02*
X049162Y007828D01*
X049133Y007857D02*
Y007942D01*
X043226Y010024D02*
Y010142D01*
X042800Y009050D02*
X042908Y009158D01*
X044900Y008950D02*
X044922Y008928D01*
Y008907D02*
Y008928D01*
Y008907D02*
X045000Y008829D01*
X044900Y008950D02*
Y009000D01*
X044650Y009500D02*
X044837Y009313D01*
X044944D01*
X045000Y009257D01*
X045350Y010926D02*
X045400D01*
X044091Y011883D02*
Y012485D01*
X044689Y011465D02*
X044800Y011354D01*
X044689Y011465D02*
Y012411D01*
X044866Y011457D02*
Y011888D01*
Y011457D02*
X044917Y011407D01*
X044866Y011888D02*
X044938Y011960D01*
X044917Y011407D02*
X045339D01*
X045459Y011527D01*
X044938Y011960D02*
Y012531D01*
X044956Y012550D01*
X045459Y011527D02*
X045498D01*
X045606Y011635D01*
X045634Y011702D02*
X046222D01*
X045744Y012176D02*
X045870Y012050D01*
X045094Y012044D02*
X045500Y012450D01*
X045094Y011674D02*
Y012044D01*
X049408Y008217D02*
X049783D01*
X049633Y008779D02*
X049712Y008700D01*
X049437Y008779D02*
X049633D01*
X049408Y008808D02*
X049437Y008779D01*
X045573Y009489D02*
Y009507D01*
X045430Y009650D02*
X045573Y009507D01*
X025832Y010295D02*
X025930Y010197D01*
Y009950D02*
Y010197D01*
X048984Y007737D02*
X049041Y007680D01*
X048984Y007737D02*
Y007773D01*
X048965Y007792D02*
X048984Y007773D01*
X048965Y007792D02*
Y007804D01*
X048919Y007850D02*
X048965Y007804D01*
X048907Y007850D02*
X048919D01*
X048907D02*
X048936Y007879D01*
Y007942D01*
X049580Y006770D02*
X049700D01*
X049400Y006950D02*
X049580Y006770D01*
X049400Y006950D02*
Y007365D01*
X027100Y012320D02*
X027161Y012259D01*
X027022Y011852D02*
X027100Y011930D01*
X026968Y011852D02*
X027022D01*
X026782Y011665D02*
X026968Y011852D01*
X026782Y011652D02*
Y011665D01*
X026600Y011470D02*
X026782Y011652D01*
X025148Y010936D02*
X025150Y010938D01*
X025148Y010730D02*
Y010936D01*
X025050Y010632D02*
X025148Y010730D01*
X050336Y008450D02*
X050700D01*
X046850Y012238D02*
Y012276D01*
X043404Y011986D02*
X043450Y011941D01*
X048500Y007900D02*
X048542Y007942D01*
X048582Y007247D02*
Y007282D01*
X048435Y007100D02*
X048582Y007247D01*
X044000Y012576D02*
X044091Y012485D01*
X047361Y007915D02*
Y007942D01*
X047330Y007884D02*
X047361Y007915D01*
X047164Y007832D02*
Y007942D01*
X047132Y007800D02*
X047164Y007832D01*
X047132Y007332D02*
Y007800D01*
X047755Y007833D02*
X047800Y007788D01*
X047755Y007833D02*
Y007942D01*
X049745Y009005D02*
X049750Y009000D01*
X049848Y009202D02*
X050050Y009000D01*
X049408Y009202D02*
X049848D01*
X049408Y009005D02*
X049745D01*
X049950Y009300D02*
X050050D01*
X049852Y009398D02*
X049950Y009300D01*
X049408Y009398D02*
X049852D01*
X048325Y006990D02*
X048435Y007100D01*
X048325Y006400D02*
Y006990D01*
X049365Y007400D02*
X049400Y007365D01*
X046850Y012276D02*
X046998Y012424D01*
X043927Y012576D02*
X044000D01*
X043908Y012595D02*
X043927Y012576D01*
X045500Y012450D02*
X046050D01*
X046222Y011702D02*
X046300Y011780D01*
X045606Y011674D02*
X045634Y011702D01*
X044072Y011558D02*
X044150Y011480D01*
X044029Y011558D02*
X044072D01*
X043710Y011877D02*
X044029Y011558D01*
X043666Y011877D02*
X043710D01*
X043647Y011896D02*
X043666Y011877D01*
X043647Y011896D02*
Y011941D01*
X043450Y011730D02*
X043700Y011480D01*
X043450Y011730D02*
Y011941D01*
X040350Y012150D02*
X041325Y011175D01*
X048739Y009989D02*
X049408D01*
X047755Y009595D02*
X048050Y009300D01*
X047755Y009595D02*
Y010658D01*
X045606Y011635D02*
Y011674D01*
X046050Y012450D02*
X046200Y012300D01*
X046450Y012680D02*
X046800Y013030D01*
X046300Y012570D02*
Y012680D01*
X038968Y008091D02*
Y008201D01*
X042899Y006576D02*
X043125Y006350D01*
X042840Y006576D02*
X042899D01*
X042775Y006640D02*
X042840Y006576D01*
X042775Y006640D02*
Y006700D01*
X047872Y007072D02*
Y007102D01*
X047920Y007150D01*
X042200Y007700D02*
X042225D01*
X042152Y007652D02*
X042200Y007700D01*
X042152Y007477D02*
Y007652D01*
X042125Y007450D02*
X042152Y007477D01*
X042225Y007700D02*
X042365Y007840D01*
X042985D01*
X043251Y007574D01*
X043310D01*
X043375Y007510D01*
Y007450D02*
Y007510D01*
X043925Y007840D02*
X044025Y007740D01*
Y007450D02*
Y007740D01*
X042908Y009158D02*
X043226D01*
Y009076D02*
Y009158D01*
X046200Y009458D02*
Y009462D01*
X046253Y009405D02*
Y009409D01*
X046292Y009446D02*
X046536D01*
X045460Y009257D02*
X045593Y009125D01*
X045460Y008829D02*
X045678Y008611D01*
X046678Y008400D02*
X046692Y008414D01*
X046555D02*
X046692D01*
X036488Y008693D02*
Y009562D01*
X035770Y010280D02*
X036488Y009562D01*
X033952Y009302D02*
X033952D01*
X033837Y009187D02*
X033952Y009302D01*
X033300Y009612D02*
X033725Y009187D01*
X046334Y009202D02*
X046692D01*
X046536Y009446D02*
X046583Y009398D01*
X046692D01*
X034600Y011450D02*
X034650Y011500D01*
X034594Y011450D02*
X034600D01*
X034300Y011156D02*
X034594Y011450D01*
X034944Y011350D02*
X035324D01*
X035398Y011276D01*
X034750Y011156D02*
X034944Y011350D01*
X034996Y010000D02*
X035050D01*
X034300Y010696D02*
X034996Y010000D01*
X033620Y011016D02*
X033670Y010966D01*
Y010850D02*
Y010966D01*
Y010850D02*
X033850Y010670D01*
X033550Y010626D02*
Y010916D01*
X034137Y011187D02*
X034269D01*
X034300Y011156D01*
X034080Y010900D02*
X034650D01*
X033850Y011130D02*
X034080Y010900D01*
X034650D02*
X034950D01*
X035102Y011052D01*
X035122D01*
X035200Y011130D01*
X034828Y010774D02*
X034844D01*
X034750Y010696D02*
X034828Y010774D01*
X034650Y010900D02*
X034691Y010859D01*
Y010755D02*
Y010859D01*
Y010755D02*
X034750Y010696D01*
X033300Y009612D02*
Y010720D01*
X034327Y009973D02*
X034406Y009894D01*
X034432D01*
X035200Y010670D02*
X035600D01*
X035200Y010150D02*
Y010670D01*
X037256Y010456D02*
Y011007D01*
X035050Y010000D02*
X035200Y010150D01*
X025603Y010277D02*
Y010580D01*
Y010277D02*
X025930Y009950D01*
X025550Y010632D02*
X025603Y010580D01*
X033725Y009187D02*
X033837D01*
X035550Y010280D02*
X035770D01*
X035550Y009380D02*
Y009820D01*
X028720Y011728D02*
X028750Y011758D01*
X028720Y011200D02*
Y011728D01*
X029124Y011758D02*
X029180Y011702D01*
Y011200D02*
Y011702D01*
X026600Y011930D02*
Y012320D01*
X027100D01*
X026050Y012683D02*
Y012768D01*
Y012683D02*
X026148Y012585D01*
X026233D01*
X026437Y012381D01*
X026539D01*
X026600Y012320D01*
X025525Y013225D02*
X025550Y013200D01*
Y012768D02*
Y012908D01*
X025030Y009950D02*
X025470D01*
X025030Y010612D02*
X025050Y010632D01*
X025030Y009950D02*
Y010612D01*
X048700Y011026D02*
Y011050D01*
X049100Y010831D02*
Y011453D01*
X048590Y010916D02*
X048700Y011026D01*
X048590Y010814D02*
Y010916D01*
X048542Y010767D02*
X048590Y010814D01*
X048542Y010658D02*
Y010767D01*
X049408Y010383D02*
Y010708D01*
X049897Y011197D01*
X049100Y010831D02*
X049104Y010827D01*
Y010687D02*
Y010827D01*
Y010687D02*
X049133Y010658D01*
X045462Y006570D02*
X045600Y006708D01*
X044900Y006570D02*
X045462D01*
X044900Y007830D02*
X045462D01*
X044900Y007030D02*
Y007370D01*
X048620Y011650D02*
X048700Y011570D01*
X048154Y011650D02*
X048620D01*
X047546Y011800D02*
X047650Y011904D01*
X048225Y012362D02*
Y012500D01*
Y012362D02*
X048254Y012333D01*
Y011800D02*
Y012333D01*
X047502Y011594D02*
X047558Y011538D01*
Y010658D02*
Y011538D01*
D16*
X044025Y008300D02*
D03*
X043375D02*
D03*
X047475Y012550D02*
D03*
X048125D02*
D03*
X048975Y006400D02*
D03*
X048325D02*
D03*
X042125Y008300D02*
D03*
X042775D02*
D03*
X042125Y007450D02*
D03*
X042775D02*
D03*
X042125Y006700D02*
D03*
X042775D02*
D03*
X043375Y007450D02*
D03*
X044025D02*
D03*
D17*
X031950Y009481D02*
D03*
Y009119D02*
D03*
X050800Y009231D02*
D03*
Y008869D02*
D03*
X051300Y009231D02*
D03*
Y008869D02*
D03*
X053150Y009231D02*
D03*
Y008869D02*
D03*
X053650Y009231D02*
D03*
Y008869D02*
D03*
D18*
X031880Y008050D02*
D03*
X031420D02*
D03*
X030830Y010950D02*
D03*
X030370D02*
D03*
X031680D02*
D03*
X031220D02*
D03*
X029180Y011200D02*
D03*
X028720D02*
D03*
X046830Y007450D02*
D03*
X046370D02*
D03*
X045460Y008400D02*
D03*
X045000D02*
D03*
X045460Y008829D02*
D03*
X045000D02*
D03*
X045460Y009257D02*
D03*
X045000D02*
D03*
X044970Y009650D02*
D03*
X045430D02*
D03*
X038340Y009950D02*
D03*
X038800D02*
D03*
Y009550D02*
D03*
X038340D02*
D03*
X035580Y008500D02*
D03*
X035120D02*
D03*
X025470Y009950D02*
D03*
X025930D02*
D03*
X024570D02*
D03*
X025030D02*
D03*
X037830Y011700D02*
D03*
X037370D02*
D03*
D19*
X030931Y008050D02*
D03*
X030569D02*
D03*
X029769D02*
D03*
X030131D02*
D03*
X027669Y009750D02*
D03*
X028031D02*
D03*
X027669Y008750D02*
D03*
X028031D02*
D03*
D20*
X030054Y008811D02*
D03*
Y009008D02*
D03*
Y009205D02*
D03*
Y009402D02*
D03*
Y009598D02*
D03*
Y009795D02*
D03*
Y009992D02*
D03*
Y010189D02*
D03*
Y010411D02*
D03*
X031284Y010391D02*
D03*
Y010189D02*
D03*
Y009992D02*
D03*
Y009795D02*
D03*
Y009598D02*
D03*
Y009402D02*
D03*
Y009205D02*
D03*
Y009008D02*
D03*
Y008811D02*
D03*
Y008589D02*
D03*
X030054Y008614D02*
D03*
D21*
X030374Y010411D02*
D03*
X030570D02*
D03*
X030767D02*
D03*
X030964D02*
D03*
Y008589D02*
D03*
X030767D02*
D03*
X030570D02*
D03*
X030374D02*
D03*
D22*
X028950Y008758D02*
D03*
Y009742D02*
D03*
X045600Y006708D02*
D03*
Y007692D02*
D03*
D23*
X048050Y009300D02*
D03*
D24*
X046692Y008217D02*
D03*
Y008414D02*
D03*
Y008611D02*
D03*
Y008808D02*
D03*
Y009005D02*
D03*
Y009202D02*
D03*
Y009398D02*
D03*
Y009595D02*
D03*
Y009792D02*
D03*
Y009989D02*
D03*
Y010186D02*
D03*
Y010383D02*
D03*
X049408D02*
D03*
Y010186D02*
D03*
Y009989D02*
D03*
Y009792D02*
D03*
Y009595D02*
D03*
Y009398D02*
D03*
Y009202D02*
D03*
Y009005D02*
D03*
Y008808D02*
D03*
Y008611D02*
D03*
Y008414D02*
D03*
Y008217D02*
D03*
D25*
X046967Y010658D02*
D03*
X047164D02*
D03*
X047361D02*
D03*
X047558D02*
D03*
X047755D02*
D03*
X047952D02*
D03*
X048148D02*
D03*
X048345D02*
D03*
X048542D02*
D03*
X048739D02*
D03*
X048936D02*
D03*
X049133D02*
D03*
Y007942D02*
D03*
X048936D02*
D03*
X048739D02*
D03*
X048542D02*
D03*
X048345D02*
D03*
X048148D02*
D03*
X047952D02*
D03*
X047755D02*
D03*
X047558D02*
D03*
X047361D02*
D03*
X047164D02*
D03*
X046967D02*
D03*
D26*
X049897Y011334D02*
D03*
Y011866D02*
D03*
X049503D02*
D03*
Y011334D02*
D03*
D27*
X026050Y010632D02*
D03*
X025550D02*
D03*
X025050D02*
D03*
X024550D02*
D03*
Y012768D02*
D03*
X025050D02*
D03*
X025550D02*
D03*
X026050D02*
D03*
D28*
X043908Y012005D02*
D03*
Y012202D02*
D03*
Y012398D02*
D03*
Y012595D02*
D03*
X042992D02*
D03*
Y012398D02*
D03*
Y012202D02*
D03*
Y012005D02*
D03*
D29*
X043647Y012659D02*
D03*
X043450D02*
D03*
X043253D02*
D03*
Y011941D02*
D03*
X043450D02*
D03*
X043647D02*
D03*
D30*
X037768Y011007D02*
D03*
X037512D02*
D03*
X037256D02*
D03*
X037000D02*
D03*
X036744D02*
D03*
X036488D02*
D03*
X036232D02*
D03*
Y008693D02*
D03*
X036488D02*
D03*
X036744D02*
D03*
X037000D02*
D03*
X037256D02*
D03*
X037512D02*
D03*
X037768D02*
D03*
D31*
X043974Y009158D02*
D03*
X043600D02*
D03*
X043226D02*
D03*
Y010142D02*
D03*
X043600D02*
D03*
X043974D02*
D03*
D32*
X028376Y011758D02*
D03*
X028750D02*
D03*
X029124D02*
D03*
Y012742D02*
D03*
X028376D02*
D03*
D33*
X039850Y012150D02*
D03*
Y012650D02*
D03*
X040350Y012150D02*
D03*
Y012650D02*
D03*
X040850Y012150D02*
D03*
Y012650D02*
D03*
D34*
X047546Y011800D02*
D03*
X048254D02*
D03*
D35*
X049065Y007100D02*
D03*
X048435D02*
D03*
D36*
X050833Y009700D02*
D03*
X051267D02*
D03*
X053183D02*
D03*
X053617D02*
D03*
D37*
X040702Y006853D02*
D03*
X037088Y007090D02*
D03*
D38*
X039479Y008058D02*
D03*
X039224Y008074D02*
D03*
X038968Y008091D02*
D03*
X038713Y008108D02*
D03*
X038458Y008125D02*
D03*
D39*
X018047Y012326D02*
D03*
X018078Y012092D02*
D03*
X018109Y011857D02*
D03*
X018140Y011623D02*
D03*
X018171Y011389D02*
D03*
X018202Y011155D02*
D03*
X018233Y010921D02*
D03*
X018264Y010687D02*
D03*
X018295Y010452D02*
D03*
X018326Y010218D02*
D03*
X018357Y009984D02*
D03*
X018388Y009750D02*
D03*
D40*
X019184Y012357D02*
D03*
X019215Y012123D02*
D03*
X019246Y011889D02*
D03*
X019277Y011655D02*
D03*
X019309Y011421D02*
D03*
X019340Y011187D02*
D03*
X019371Y010952D02*
D03*
X019402Y010718D02*
D03*
X019433Y010484D02*
D03*
X019464Y010250D02*
D03*
X019495Y010016D02*
D03*
D41*
X018137Y012616D02*
D03*
X018551Y009493D02*
D03*
D42*
X031720Y012074D02*
D03*
X034082D02*
D03*
X036444D02*
D03*
D43*
X051856Y009700D02*
D03*
X052644D02*
D03*
D44*
X052506Y009430D02*
D03*
X052250D02*
D03*
X051994D02*
D03*
X052506Y009970D02*
D03*
X052250D02*
D03*
X051994D02*
D03*
D45*
X054882Y011455D02*
D03*
X055518Y011545D02*
D03*
D46*
X055392Y010135D02*
D03*
X055008Y012865D02*
D03*
D47*
X046300Y011780D02*
D03*
Y011320D02*
D03*
X050150Y010780D02*
D03*
Y010320D02*
D03*
X050600Y010780D02*
D03*
Y010320D02*
D03*
X050450Y008680D02*
D03*
Y008220D02*
D03*
X049700Y006770D02*
D03*
Y007230D02*
D03*
X047950Y007180D02*
D03*
Y006720D02*
D03*
X047450D02*
D03*
Y007180D02*
D03*
X044900Y006570D02*
D03*
Y007030D02*
D03*
Y007830D02*
D03*
Y007370D02*
D03*
X046850Y011320D02*
D03*
Y011780D02*
D03*
X046800Y012570D02*
D03*
Y013030D02*
D03*
X046300Y012570D02*
D03*
Y013030D02*
D03*
X044150Y011480D02*
D03*
Y011020D02*
D03*
X043700Y011480D02*
D03*
Y011020D02*
D03*
X043150Y011480D02*
D03*
Y011020D02*
D03*
X042750Y011480D02*
D03*
Y011020D02*
D03*
X035550Y009380D02*
D03*
Y008920D02*
D03*
Y010280D02*
D03*
Y009820D02*
D03*
X035200Y010670D02*
D03*
Y011130D02*
D03*
X034750Y011156D02*
D03*
Y010696D02*
D03*
X034300Y011156D02*
D03*
Y010696D02*
D03*
X033850Y011130D02*
D03*
Y010670D02*
D03*
X033300Y010720D02*
D03*
Y011180D02*
D03*
X030250Y012730D02*
D03*
Y012270D02*
D03*
X029800Y012730D02*
D03*
Y012270D02*
D03*
X027100Y012780D02*
D03*
Y012320D02*
D03*
X026600D02*
D03*
Y012780D02*
D03*
Y011930D02*
D03*
Y011470D02*
D03*
Y010830D02*
D03*
Y010370D02*
D03*
X027100Y011930D02*
D03*
Y011470D02*
D03*
X020650Y009480D02*
D03*
Y009020D02*
D03*
X048700Y012030D02*
D03*
Y011570D02*
D03*
D48*
X045400Y010926D02*
D03*
X045144Y011674D02*
D03*
X045656D02*
D03*
D49*
X044956Y012550D02*
D03*
X045744Y012924D02*
D03*
Y012176D02*
D03*
D88*
X020824Y012157D02*
D03*
D89*
X018723Y009750D02*
X018773Y009800D01*
Y009782D02*
Y009800D01*
Y009782D02*
X018875Y009680D01*
X018550Y010450D02*
X018600D01*
X019285Y011085D02*
X019340D01*
X019100Y010900D02*
X019285Y011085D01*
X019674Y008276D02*
X020059D01*
X019320Y008630D02*
X019674Y008276D01*
X019320Y008630D02*
Y008906D01*
X046270Y007550D02*
X046370Y007450D01*
X047250Y006750D02*
X047656D01*
X024550Y012768D02*
Y012770D01*
Y011500D02*
Y012768D01*
X018000Y011150D02*
X018197D01*
X030669Y009402D02*
X031284D01*
X030054D02*
X030669D01*
X018875Y008721D02*
Y009680D01*
X023400Y013460D02*
X027658D01*
X020500Y013150D02*
X023400Y013460D01*
X018150Y012900D02*
X020500Y013150D01*
X018020Y012900D02*
X018150D01*
X017764Y012644D02*
X018020Y012900D01*
X045350Y010926D02*
X045421Y010997D01*
X027658Y013460D02*
X028210Y012909D01*
X023984Y007616D02*
X035853Y006853D01*
X023300Y008300D02*
X023984Y007616D01*
X020083Y008300D02*
X023300D01*
X035853Y006853D02*
X036650Y007650D01*
X020059Y008276D02*
X020083Y008300D01*
X050105Y009595D02*
X050300Y009400D01*
X046938Y007913D02*
Y007971D01*
X042450Y011550D02*
X043080D01*
X049762Y010392D02*
X050078Y010708D01*
X049762Y010340D02*
Y010392D01*
X019130Y009820D02*
Y010845D01*
Y009820D02*
X019210Y009740D01*
X038915Y011820D02*
X039550Y011185D01*
Y009800D02*
Y011185D01*
X038823Y009073D02*
X039550Y009800D01*
X038915Y011820D02*
Y012180D01*
X046967Y007835D02*
Y007942D01*
X046966Y007834D02*
X046967Y007835D01*
X046900Y007834D02*
X046966D01*
X046830Y007764D02*
X046900Y007834D01*
X046830Y007450D02*
Y007764D01*
X019100Y010875D02*
Y010900D01*
Y010875D02*
X019130Y010845D01*
X017975Y011148D02*
X017977Y011150D01*
X017975Y011148D02*
X018027D01*
X018000Y011150D02*
X018000Y011150D01*
X017977Y011150D02*
X018000D01*
X018197Y011150D02*
X018202Y011155D01*
X017764Y012186D02*
Y012644D01*
X024500Y011189D02*
Y011450D01*
X024550Y011500D01*
X029900Y011200D02*
Y012170D01*
X039850Y011843D02*
Y011915D01*
X039765Y012000D02*
X039850Y011915D01*
Y011800D02*
Y011843D01*
X039756Y011937D02*
X039850Y011843D01*
X039750Y011931D02*
X039765Y011915D01*
X038684Y009966D02*
X038784D01*
X038650Y010000D02*
X038684Y009966D01*
X038400Y011462D02*
Y011950D01*
X043478Y012516D02*
X043595Y012398D01*
X043908D01*
X047019Y012233D02*
X047148Y012362D01*
X047019Y012044D02*
Y012233D01*
X047199Y012135D02*
X047328Y012264D01*
X047199Y011970D02*
Y012135D01*
X046898Y011923D02*
X047019Y012044D01*
X046898Y011828D02*
Y011923D01*
X047078Y011849D02*
X047199Y011970D01*
X047078Y011622D02*
Y011849D01*
X047060Y011604D02*
X047078Y011622D01*
X045421Y010997D02*
X045928D01*
X043650Y009950D02*
Y010092D01*
X043600Y010142D02*
X043650Y010092D01*
X043464Y009412D02*
Y009444D01*
X043362Y009546D02*
X043464Y009444D01*
X042777Y009546D02*
X043362D01*
X029800Y012270D02*
X029900Y012170D01*
X027200Y010900D02*
Y011370D01*
X027100Y011470D02*
X027200Y011370D01*
X043600Y010142D02*
Y010260D01*
X038033Y010633D02*
X038044Y010644D01*
X039750Y011931D02*
X039756Y011937D01*
X039765Y012000D02*
X039766Y012001D01*
X038044Y010644D02*
Y011106D01*
X038132Y010000D02*
X038221D01*
X043542Y010318D02*
X043600Y010260D01*
X019340Y010983D02*
Y011085D01*
X019210Y009015D02*
Y009740D01*
X019340Y010983D02*
X019371Y010952D01*
X018548Y010452D02*
X018550Y010450D01*
X018295Y010452D02*
X018548D01*
X018388Y009750D02*
X018723D01*
X017764Y012186D02*
X017858Y012092D01*
X018078D01*
X047630Y013080D02*
X049563D01*
X050155Y012488D01*
X047400Y012850D02*
X047630Y013080D01*
X050155Y010785D02*
Y012488D01*
X030989Y007861D02*
X031000Y007850D01*
X030989Y007861D02*
Y007992D01*
X030931Y008050D02*
X030989Y007992D01*
X029550Y008250D02*
X029569D01*
X029707Y008112D01*
X029711D01*
X029769Y008054D01*
Y008050D02*
Y008054D01*
X030300Y010750D02*
X030322Y010772D01*
Y010902D01*
X030370Y010950D01*
X030964Y008589D02*
X031284D01*
X031900Y010950D02*
X031950Y010900D01*
X031680Y010950D02*
X031900D01*
X031346Y009402D02*
X031374Y009429D01*
X031898D01*
X031950Y009481D01*
X031284Y009402D02*
X031346D01*
X030374Y009106D02*
X030669Y009402D01*
X030374Y008589D02*
Y009106D01*
X030669Y009402D02*
X030964Y009107D01*
Y008589D02*
Y009107D01*
X030580Y008061D02*
Y008580D01*
X030569Y008050D02*
X030580Y008061D01*
X030131Y008050D02*
X030569D01*
X027350Y009750D02*
X027669D01*
X027350Y008750D02*
X027669D01*
X038823Y009073D02*
X039177D01*
X039500Y008750D01*
Y008660D02*
Y008750D01*
Y008660D02*
X041890D01*
X039500Y008079D02*
Y008660D01*
X039479Y008058D02*
X039500Y008079D01*
X038523Y009073D02*
X038823D01*
X038050Y008600D02*
X038523Y009073D01*
X038050Y007796D02*
Y008600D01*
X037983Y007729D02*
X038050Y007796D01*
X037983Y007650D02*
Y007729D01*
X038450Y008500D02*
X038458Y008492D01*
Y008125D02*
Y008492D01*
X037800Y007900D02*
Y007950D01*
X028376Y011758D02*
Y012742D01*
X047656Y006750D02*
X047686Y006720D01*
X048750Y012080D02*
Y012850D01*
X048700Y012030D02*
X048750Y012080D01*
X042475Y012720D02*
X042700D01*
X047686Y006720D02*
X047693Y006713D01*
X047686Y006720D02*
X047700D01*
X047450D02*
X047686D01*
X038044Y011106D02*
X038400Y011462D01*
X044950Y009600D02*
Y009630D01*
X044970Y009650D01*
X045928Y010997D02*
X046203Y011272D01*
X043350Y013000D02*
Y013050D01*
Y013000D02*
X043450Y012900D01*
X047148Y012362D02*
Y013098D01*
X047150Y013100D01*
X050350Y009450D02*
X050375Y009475D01*
X050155Y010785D02*
X050198Y010828D01*
X050150Y010780D02*
X050155Y010785D01*
X050350Y009350D02*
X050450Y009250D01*
X050198Y010848D02*
X050400Y011050D01*
X050198Y010828D02*
Y010848D01*
X050350Y009350D02*
Y009450D01*
X047164Y010658D02*
X047361D01*
X035550Y008530D02*
X035580Y008500D01*
X035550Y008530D02*
Y008920D01*
X042750Y011020D02*
X043150D01*
X029800Y012270D02*
X030250D01*
X024550Y012770D02*
X024618Y012838D01*
X024788D01*
X024812Y012862D01*
X024982D01*
X025050Y012794D01*
Y012768D02*
Y012794D01*
X046329Y009793D02*
X046691D01*
X046692Y009792D01*
X053750Y008500D02*
Y008769D01*
X053712Y008807D02*
X053750Y008769D01*
X053712Y008807D02*
Y008811D01*
X053654Y008869D02*
X053712Y008811D01*
X053650Y008869D02*
X053654D01*
X042861Y012879D02*
X043061D01*
X042860Y012880D02*
X042861Y012879D01*
X042700Y012720D02*
X042845D01*
X042700D02*
X042860Y012880D01*
X046378Y006978D02*
X046782Y007382D01*
X046799Y008110D02*
X046938Y007971D01*
X046799Y008110D02*
Y008216D01*
X046798Y008217D02*
X046799Y008216D01*
X046692Y008217D02*
X046798D01*
X048800Y006600D02*
Y006619D01*
X047693Y006713D02*
X047700Y006720D01*
X036650Y007650D02*
X037983D01*
X037768Y007982D02*
X037800Y007950D01*
X037768Y007982D02*
Y008693D01*
X050800Y008869D02*
X051300D01*
X043908Y012202D02*
Y012398D01*
X043450Y012659D02*
Y012900D01*
X043478Y012516D02*
Y012574D01*
X043253Y012659D02*
X043450D01*
X049700Y007200D02*
Y007230D01*
X047700Y006720D02*
X047950D01*
X046270Y007550D02*
X046300D01*
X044700Y007350D02*
X044880D01*
X044900Y007370D01*
X046850Y011780D02*
X046898Y011828D01*
X047328Y012264D02*
Y012370D01*
X047373D01*
X047475Y012472D01*
X045931Y013030D02*
X046300D01*
X045923Y013022D02*
X045931Y013030D01*
X045841Y013022D02*
X045923D01*
X045744Y012924D02*
X045841Y013022D01*
X038221Y010000D02*
X038223Y009998D01*
X038292D01*
X038340Y009950D01*
X043534Y010318D02*
X043542D01*
X043464Y010389D02*
X043534Y010318D01*
X043464Y010389D02*
Y010428D01*
X043150Y010742D02*
X043464Y010428D01*
X043150Y010742D02*
Y011020D01*
X038915Y012180D02*
X039181Y012446D01*
X039766Y012001D02*
Y012014D01*
X039850Y012099D01*
Y012150D01*
X039181Y012446D02*
X039538D01*
X039637Y012545D01*
X039694D01*
X039799Y012650D01*
X039850D01*
X038784Y009966D02*
X038800Y009950D01*
Y009550D02*
Y009950D01*
X036488Y010612D02*
Y011007D01*
X035150Y008000D02*
X035532Y008382D01*
Y008452D01*
X035580Y008500D01*
X028700Y010950D02*
Y011180D01*
X028720Y011200D01*
X026550Y010150D02*
X026600Y010370D01*
X024550Y009800D02*
X024570Y009950D01*
X055192Y009792D02*
Y010048D01*
X055000Y009600D02*
X055192Y009792D01*
X053717Y009600D02*
X055000D01*
X042334Y009103D02*
X042777Y009546D01*
X042333Y009103D02*
X042334D01*
X041890Y008660D02*
X042333Y009103D01*
X040850Y012150D02*
X040886Y012114D01*
X043464Y009412D02*
X043600Y009276D01*
Y009158D02*
Y009276D01*
X037796Y008722D02*
Y009006D01*
X037768Y008693D02*
X037796Y008722D01*
Y009006D02*
X038340Y009550D01*
X042845Y012720D02*
X042970Y012595D01*
X042992D01*
X050450Y008680D02*
Y009250D01*
X049408Y009595D02*
X050105D01*
X048975Y006400D02*
Y006520D01*
X049065Y006610D01*
Y007100D01*
X047060Y011110D02*
X047164Y011006D01*
X046850Y011320D02*
X047060Y011110D01*
Y011604D01*
X047475Y012472D02*
Y012550D01*
X043150Y011480D02*
X043562Y011068D01*
X043652D01*
X043700Y011020D01*
X044150D01*
X043253Y011918D02*
Y011941D01*
X043242Y011907D02*
X043253Y011918D01*
X043220Y011907D02*
X043242D01*
X043150Y011837D02*
X043220Y011907D01*
X043150Y011480D02*
Y011837D01*
X043080Y011550D02*
X043150Y011480D01*
X041015Y012085D02*
X041840D01*
X040986Y012114D02*
X041015Y012085D01*
X040886Y012114D02*
X040986D01*
X019210Y009015D02*
X019320Y008906D01*
X046203Y011272D02*
X046252D01*
X046300Y011320D01*
X047164Y010658D02*
Y011006D01*
X038340Y009650D02*
Y009850D01*
X029800Y012730D02*
X030250D01*
X029788Y012742D02*
X029800Y012730D01*
X029124Y012742D02*
X029788D01*
X026570Y010800D02*
X026600Y010830D01*
X026118Y010800D02*
X026570D01*
X026050Y010732D02*
X026118Y010800D01*
X026050Y010632D02*
Y010732D01*
X028210Y012909D02*
X028318D01*
X028376Y012850D01*
Y012742D02*
Y012850D01*
X019495Y010016D02*
Y010234D01*
X019464Y010047D02*
X019495Y010016D01*
X019464Y010047D02*
Y010250D01*
X052644Y009700D02*
X053183D01*
X049608Y010187D02*
X049762Y010340D01*
X049409Y010187D02*
X049608D01*
X049408Y010186D02*
X049409Y010187D01*
X051267Y009700D02*
X051834D01*
X049408Y009792D02*
X050712D01*
X050150Y010780D02*
X050600D01*
D90*
X024109Y013250D02*
X025500D01*
X022225Y012760D02*
X022278Y012813D01*
X019283Y012730D02*
X019303Y012750D01*
X019997D02*
X021753D01*
X019987Y012760D02*
X019997Y012750D01*
X019813Y012760D02*
X019987D01*
X019803Y012750D02*
X019813Y012760D01*
X019303Y012750D02*
X019803D01*
X021753D02*
X021763Y012760D01*
X022225D01*
X018700Y012484D02*
X018946Y012730D01*
X018700Y012484D02*
Y012500D01*
X018580Y012502D02*
X018700Y012500D01*
X018946Y012730D02*
X019283D01*
X046700Y011275D02*
Y011300D01*
X046710Y011310D01*
X046840D01*
X046850Y011320D01*
X043300Y013050D02*
X043350D01*
X025500Y013250D02*
X025525Y013225D01*
X026600Y012780D02*
Y012950D01*
Y012780D02*
X027100D01*
X025500Y013250D02*
X026300D01*
X025550Y012908D02*
Y013200D01*
X026300Y013250D02*
X026600Y012950D01*
D91*
X022278Y012813D02*
D03*
D92*
X023278D02*
D03*
D93*
X039350Y012800D02*
D03*
Y012000D02*
D03*
X041350Y012400D02*
D03*
D94*
X033725Y009894D02*
D03*
Y009187D02*
D03*
X034432D02*
D03*
Y009894D02*
D03*
D95*
X019875Y008721D02*
D03*
X018875D02*
D03*
D96*
X018651Y010151D02*
D03*
X023799Y012751D02*
D03*
X018300Y008550D02*
D03*
X018483Y012702D02*
D03*
X019900Y012550D02*
D03*
X021850D02*
D03*
X021550Y012150D02*
D03*
X021350Y012400D02*
D03*
X020100Y011500D02*
D03*
X019800Y011600D02*
D03*
X018600Y012250D02*
D03*
X018650Y011750D02*
D03*
X020700Y011200D02*
D03*
X018800Y011150D02*
D03*
X055945Y009370D02*
D03*
X055669Y008819D02*
D03*
X055118D02*
D03*
X054567D02*
D03*
X054843Y008268D02*
D03*
X054016Y009921D02*
D03*
Y008819D02*
D03*
X054291Y008268D02*
D03*
X053465Y013228D02*
D03*
Y012126D02*
D03*
X053740Y011575D02*
D03*
X053465Y011024D02*
D03*
X053740Y010472D02*
D03*
Y008268D02*
D03*
X052913Y013228D02*
D03*
X053189Y012677D02*
D03*
X052913Y012126D02*
D03*
X053189Y011575D02*
D03*
X052913Y011024D02*
D03*
X053189Y010472D02*
D03*
Y008268D02*
D03*
X052638Y010472D02*
D03*
X052362Y008819D02*
D03*
X052638Y008268D02*
D03*
X052362Y007717D02*
D03*
X052087Y010472D02*
D03*
X051811Y008819D02*
D03*
X052087Y008268D02*
D03*
X051811Y007717D02*
D03*
X051535Y010472D02*
D03*
Y008268D02*
D03*
X051260Y007717D02*
D03*
X041350Y010550D02*
D03*
X035850Y011350D02*
D03*
X046700Y011275D02*
D03*
X018027Y011148D02*
D03*
X018370Y011686D02*
D03*
X018493Y011013D02*
D03*
X018550Y010733D02*
D03*
X024500Y011189D02*
D03*
X029900Y011200D02*
D03*
X032950D02*
D03*
X033050Y010500D02*
D03*
X032550Y011077D02*
D03*
X032209Y011135D02*
D03*
X025834Y011340D02*
D03*
X038920Y010950D02*
D03*
X039850Y011800D02*
D03*
X038750Y011350D02*
D03*
X038650Y010000D02*
D03*
X038400Y011950D02*
D03*
X030900Y012650D02*
D03*
X045000Y011050D02*
D03*
X043644Y012131D02*
D03*
X043300Y012360D02*
D03*
X046700Y012200D02*
D03*
X045700Y011250D02*
D03*
X044450Y010950D02*
D03*
X042400Y010900D02*
D03*
X043650Y009950D02*
D03*
X040750Y009750D02*
D03*
X027200Y010900D02*
D03*
X038033Y010633D02*
D03*
X048400Y011050D02*
D03*
X048100Y011000D02*
D03*
X018750Y009800D02*
D03*
X018600Y010450D02*
D03*
X050750Y008550D02*
D03*
X042050Y012800D02*
D03*
X035800Y009350D02*
D03*
X031000Y007850D02*
D03*
X029550Y008250D02*
D03*
X029850Y010750D02*
D03*
X030300D02*
D03*
X037256Y012976D02*
D03*
X032550Y013300D02*
D03*
X031200Y012800D02*
D03*
X031950Y010900D02*
D03*
X030669Y009531D02*
D03*
X027350Y009750D02*
D03*
Y008750D02*
D03*
X042750Y008550D02*
D03*
X043080Y008632D02*
D03*
X042700Y009050D02*
D03*
X038450Y008500D02*
D03*
X047250Y006750D02*
D03*
X048750Y012850D02*
D03*
X046250Y009400D02*
D03*
Y009850D02*
D03*
X042420Y009830D02*
D03*
X044050Y009600D02*
D03*
X044950D02*
D03*
X045730Y009709D02*
D03*
X045650Y010450D02*
D03*
X046050Y010700D02*
D03*
X045900Y009465D02*
D03*
X043350Y013050D02*
D03*
X047150Y013100D02*
D03*
X049754Y008704D02*
D03*
X049800Y008150D02*
D03*
X047980Y007628D02*
D03*
X047460Y007589D02*
D03*
X048500Y007550D02*
D03*
X046350Y010750D02*
D03*
X046750Y010900D02*
D03*
X050050Y008600D02*
D03*
X047740Y007472D02*
D03*
X049700Y007200D02*
D03*
X046300Y007550D02*
D03*
X044700Y007350D02*
D03*
X036488Y010612D02*
D03*
X035150Y008000D02*
D03*
X028700Y010950D02*
D03*
X026550Y010150D02*
D03*
X024550Y009800D02*
D03*
X048850Y008850D02*
D03*
Y009600D02*
D03*
X047728Y009412D02*
D03*
X047228D02*
D03*
X047750Y008550D02*
D03*
X047250D02*
D03*
X048200Y008850D02*
D03*
Y009600D02*
D03*
X035150Y007500D02*
D03*
X042250Y009350D02*
D03*
X050450Y006550D02*
D03*
X044350Y009600D02*
D03*
X044650Y009500D02*
D03*
X050100Y006450D02*
D03*
X049450Y006300D02*
D03*
X049750Y009000D02*
D03*
X050050D02*
D03*
Y009300D02*
D03*
X048700Y011050D02*
D03*
D97*
X038132Y010000D02*
D03*
X037800Y007900D02*
D03*
X050375Y009475D02*
D03*
X050400Y011050D02*
D03*
X047400Y012850D02*
D03*
X043061Y012879D02*
D03*
X046378Y006978D02*
D03*
X048800Y006700D02*
D03*
M02*
