G04*
G04 #@! TF.GenerationSoftware,Altium Limited,Altium Designer,19.1.5 (86)*
G04*
G04 Layer_Color=8388736*
%FSAX24Y24*%
%MOIN*%
G70*
G01*
G75*
%ADD18R,0.0094X0.0079*%
%ADD35P,0.0252X4X270.0*%
%ADD36R,0.0297X0.0297*%
%ADD37R,0.0297X0.0297*%
%ADD38C,0.0237*%
%ADD39R,0.2324X0.2324*%
%ADD40R,0.0415X0.0198*%
%ADD41R,0.0198X0.0415*%
%ADD42R,0.0356X0.0198*%
%ADD43R,0.0474X0.0749*%
%ADD44C,0.0390*%
%ADD45R,0.0375X0.0316*%
%ADD46R,0.0375X0.0454*%
%ADD47R,0.0769X0.0789*%
%ADD48R,0.0237X0.0316*%
%ADD49R,0.0316X0.0237*%
%ADD50C,0.0749*%
%ADD51C,0.0275*%
%ADD52R,0.0671X0.0671*%
%ADD53C,0.0671*%
%ADD54C,0.0316*%
G36*
X024106Y017164D02*
X024111Y017163D01*
X024116Y017161D01*
X024121Y017159D01*
X024126Y017156D01*
X024129Y017153D01*
X024192Y017090D01*
X024196Y017086D01*
X024199Y017081D01*
X024201Y017077D01*
X024203Y017072D01*
X024204Y017067D01*
X024204Y017061D01*
Y017038D01*
X024204Y017032D01*
X024203Y017027D01*
X024201Y017022D01*
X024199Y017018D01*
X024196Y017013D01*
X024192Y017009D01*
X024188Y017006D01*
X024184Y017003D01*
X024179Y017001D01*
X024174Y016999D01*
X024169Y016998D01*
X024164Y016998D01*
X023999D01*
X023994Y016998D01*
X023988Y016999D01*
X023983Y017001D01*
X023979Y017003D01*
X023974Y017006D01*
X023970Y017009D01*
X023967Y017013D01*
X023964Y017018D01*
X023962Y017022D01*
X023960Y017027D01*
X023959Y017032D01*
X023959Y017038D01*
Y017124D01*
X023959Y017130D01*
X023960Y017135D01*
X023962Y017140D01*
X023964Y017144D01*
X023967Y017149D01*
X023970Y017153D01*
X023974Y017156D01*
X023979Y017159D01*
X023983Y017161D01*
X023988Y017163D01*
X023994Y017164D01*
X023999Y017164D01*
X024101D01*
X024106Y017164D01*
D02*
G37*
G36*
X024169Y017353D02*
X024174Y017352D01*
X024179Y017350D01*
X024184Y017348D01*
X024188Y017345D01*
X024192Y017342D01*
X024196Y017338D01*
X024199Y017333D01*
X024201Y017329D01*
X024203Y017324D01*
X024204Y017319D01*
X024204Y017313D01*
Y017290D01*
X024204Y017284D01*
X024203Y017279D01*
X024201Y017274D01*
X024199Y017270D01*
X024196Y017265D01*
X024192Y017261D01*
X024129Y017198D01*
X024126Y017195D01*
X024121Y017192D01*
X024116Y017190D01*
X024111Y017188D01*
X024106Y017187D01*
X024101Y017187D01*
X023999D01*
X023994Y017187D01*
X023988Y017188D01*
X023983Y017190D01*
X023979Y017192D01*
X023974Y017195D01*
X023970Y017198D01*
X023967Y017202D01*
X023964Y017207D01*
X023962Y017211D01*
X023960Y017216D01*
X023959Y017221D01*
X023959Y017227D01*
Y017313D01*
X023959Y017319D01*
X023960Y017324D01*
X023962Y017329D01*
X023964Y017333D01*
X023967Y017338D01*
X023970Y017342D01*
X023974Y017345D01*
X023979Y017348D01*
X023983Y017350D01*
X023988Y017352D01*
X023994Y017353D01*
X023999Y017353D01*
X024164D01*
X024169Y017353D01*
D02*
G37*
G36*
X024476Y017164D02*
X024482Y017163D01*
X024487Y017161D01*
X024491Y017159D01*
X024496Y017156D01*
X024500Y017153D01*
X024503Y017149D01*
X024506Y017144D01*
X024508Y017140D01*
X024510Y017135D01*
X024511Y017130D01*
X024511Y017124D01*
Y017038D01*
X024511Y017032D01*
X024510Y017027D01*
X024508Y017022D01*
X024506Y017018D01*
X024503Y017013D01*
X024500Y017009D01*
X024496Y017006D01*
X024491Y017003D01*
X024487Y017001D01*
X024482Y016999D01*
X024476Y016998D01*
X024471Y016998D01*
X024306D01*
X024301Y016998D01*
X024295Y016999D01*
X024290Y017001D01*
X024286Y017003D01*
X024281Y017006D01*
X024277Y017009D01*
X024274Y017013D01*
X024271Y017018D01*
X024269Y017022D01*
X024267Y017027D01*
X024266Y017032D01*
X024266Y017038D01*
Y017061D01*
X024266Y017067D01*
X024267Y017072D01*
X024269Y017077D01*
X024271Y017081D01*
X024274Y017086D01*
X024277Y017090D01*
X024340Y017153D01*
X024344Y017156D01*
X024349Y017159D01*
X024353Y017161D01*
X024358Y017163D01*
X024364Y017164D01*
X024369Y017164D01*
X024471D01*
X024476Y017164D01*
D02*
G37*
G36*
Y017353D02*
X024482Y017352D01*
X024487Y017350D01*
X024491Y017348D01*
X024496Y017345D01*
X024500Y017342D01*
X024503Y017338D01*
X024506Y017333D01*
X024508Y017329D01*
X024510Y017324D01*
X024511Y017319D01*
X024511Y017313D01*
Y017227D01*
X024511Y017221D01*
X024510Y017216D01*
X024508Y017211D01*
X024506Y017207D01*
X024503Y017202D01*
X024500Y017198D01*
X024496Y017195D01*
X024491Y017192D01*
X024487Y017190D01*
X024482Y017188D01*
X024476Y017187D01*
X024471Y017187D01*
X024369D01*
X024364Y017187D01*
X024358Y017188D01*
X024353Y017190D01*
X024349Y017192D01*
X024344Y017195D01*
X024340Y017198D01*
X024277Y017261D01*
X024274Y017265D01*
X024271Y017270D01*
X024269Y017274D01*
X024267Y017279D01*
X024266Y017284D01*
X024266Y017290D01*
Y017313D01*
X024266Y017319D01*
X024267Y017324D01*
X024269Y017329D01*
X024271Y017333D01*
X024274Y017338D01*
X024277Y017342D01*
X024281Y017345D01*
X024286Y017348D01*
X024290Y017350D01*
X024295Y017352D01*
X024301Y017353D01*
X024306Y017353D01*
X024471D01*
X024476Y017353D01*
D02*
G37*
D18*
X024050Y017081D02*
D03*
Y017270D02*
D03*
X024420D02*
D03*
Y017081D02*
D03*
D35*
X024235Y017176D02*
D03*
D36*
X023960Y016810D02*
D03*
X024420D02*
D03*
X024960Y017660D02*
D03*
X024500D02*
D03*
X023170Y017340D02*
D03*
X023630D02*
D03*
X032420Y016300D02*
D03*
X032880D02*
D03*
X027080Y015000D02*
D03*
X026620D02*
D03*
X026570Y016050D02*
D03*
X027030D02*
D03*
X021020Y016660D02*
D03*
X021480D02*
D03*
X023620Y017020D02*
D03*
X023160D02*
D03*
X023170Y017720D02*
D03*
X023630D02*
D03*
X020530Y016410D02*
D03*
X020070D02*
D03*
D37*
X024811Y016851D02*
D03*
Y017311D02*
D03*
X032800Y015520D02*
D03*
Y015980D02*
D03*
X032450Y015520D02*
D03*
Y015980D02*
D03*
X032100Y015520D02*
D03*
Y015980D02*
D03*
X025400Y016870D02*
D03*
Y017330D02*
D03*
X021440Y017260D02*
D03*
Y017720D02*
D03*
X021100D02*
D03*
Y017260D02*
D03*
X020740Y017720D02*
D03*
Y017260D02*
D03*
X033206Y017180D02*
D03*
Y016720D02*
D03*
X032700Y017180D02*
D03*
Y016720D02*
D03*
X031306Y017180D02*
D03*
Y016720D02*
D03*
X030806D02*
D03*
Y017180D02*
D03*
D38*
X025440Y017630D02*
D03*
X027060Y017280D02*
D03*
X026600Y017350D02*
D03*
X025630Y016610D02*
D03*
X024810Y016070D02*
D03*
X025851Y017869D02*
D03*
X023880Y017370D02*
D03*
X026670Y016901D02*
D03*
X025920Y015550D02*
D03*
X026850Y016350D02*
D03*
X032090Y016300D02*
D03*
X030810Y015680D02*
D03*
X030838Y016190D02*
D03*
X023190Y016690D02*
D03*
X022820Y016860D02*
D03*
X023200Y015820D02*
D03*
X021690Y017870D02*
D03*
X027240Y017700D02*
D03*
X019340Y016800D02*
D03*
X019510Y015230D02*
D03*
X018760Y017790D02*
D03*
X017970Y015190D02*
D03*
X017459Y015559D02*
D03*
D39*
X028867Y016369D02*
D03*
D40*
X027509Y015286D02*
D03*
Y015483D02*
D03*
Y015680D02*
D03*
Y015877D02*
D03*
Y016074D02*
D03*
Y016271D02*
D03*
Y016468D02*
D03*
Y016664D02*
D03*
Y016861D02*
D03*
Y017058D02*
D03*
Y017255D02*
D03*
Y017452D02*
D03*
X030226D02*
D03*
Y017255D02*
D03*
Y017058D02*
D03*
Y016861D02*
D03*
Y016664D02*
D03*
Y016468D02*
D03*
Y016271D02*
D03*
Y016074D02*
D03*
Y015877D02*
D03*
Y015680D02*
D03*
Y015483D02*
D03*
Y015286D02*
D03*
D41*
X027785Y017727D02*
D03*
X027982D02*
D03*
X028178D02*
D03*
X028375D02*
D03*
X028572D02*
D03*
X028769D02*
D03*
X028966D02*
D03*
X029163D02*
D03*
X029359D02*
D03*
X029556D02*
D03*
X029753D02*
D03*
X029950D02*
D03*
Y015011D02*
D03*
X029753D02*
D03*
X029556D02*
D03*
X029359D02*
D03*
X029163D02*
D03*
X028966D02*
D03*
X028769D02*
D03*
X028572D02*
D03*
X028375D02*
D03*
X028178D02*
D03*
X027982D02*
D03*
X027785D02*
D03*
D42*
X021860Y017647D02*
D03*
Y017450D02*
D03*
Y017253D02*
D03*
Y017056D02*
D03*
X022687D02*
D03*
Y017253D02*
D03*
Y017450D02*
D03*
Y017647D02*
D03*
D43*
X022273Y017352D02*
D03*
D44*
X017697Y017060D02*
D03*
X018197D02*
D03*
X017697Y016560D02*
D03*
X018197D02*
D03*
X017697Y016060D02*
D03*
X018197D02*
D03*
D45*
X030790Y017500D02*
D03*
X031223D02*
D03*
X032790D02*
D03*
X033223D02*
D03*
D46*
X034065Y017750D02*
D03*
X034735D02*
D03*
D47*
X024265Y015850D02*
D03*
X021450D02*
D03*
D48*
X031750Y017770D02*
D03*
X032006D02*
D03*
X032262D02*
D03*
X031750Y017230D02*
D03*
X032006D02*
D03*
X032262D02*
D03*
D49*
X032400Y017500D02*
D03*
X031613D02*
D03*
D50*
X026000Y017300D02*
D03*
X019700D02*
D03*
D51*
X018347Y017560D02*
D03*
X017547D02*
D03*
X017947Y015560D02*
D03*
D52*
X034400Y015400D02*
D03*
D53*
X033400D02*
D03*
D54*
X028860Y016430D02*
D03*
X029180Y016930D02*
D03*
X028580Y016950D02*
D03*
X029550Y016550D02*
D03*
X029200Y016050D02*
D03*
X028050Y016500D02*
D03*
Y016050D02*
D03*
X029800Y017200D02*
D03*
X028600Y016050D02*
D03*
X029600Y015550D02*
D03*
X028050D02*
D03*
Y017250D02*
D03*
M02*
