M48
;Layer_Color=9474304
;FILE_FORMAT=2:5
INCH,TZ
;TYPE=PLATED
T1F00S00C0.00591
T2F00S00C0.00787
T3F00S00C0.01181
T4F00S00C0.01394
T5F00S00C0.03543
;TYPE=NON_PLATED
T6F00S00C0.03902
%
T01
X5600Y5000
X26000
X28000
X35600Y5500
X49400Y5600
X46700Y8600
X60000Y8500
X80200Y2809
X91500Y2500
X107468Y2728
X109437
X111406Y1728
X113200Y1800
X115211Y1128
X117311Y1728
X118900Y1300
X121000Y2728
X123100
X125200Y1000
X129800Y1300
X129600Y7200
X143426Y1824
X145590
X147754
X149918
X152082
X154246
X156410
X158574
X160738
X162902
X165066
X167230
X169394
X171558
X173722
X175302Y2736
X175402Y4436
Y6336
Y8336
X166148Y8316
X167230Y6152
X166148Y3988
X167230Y10480
X165066
X162902
X161820Y12644
X159656
X160738Y14808
X162902
X161820Y16972
X159656
X162902Y19136
X163002Y21236
X162902Y23464
Y27792
X161820Y29956
X159656
X157492
X155328
X153164
X147754Y27792
X142344Y29956
X140180
X148836Y21300
X151000
X149918Y19136
X151000Y11500
X157500Y11000
X157002Y22464
X144726Y10726
X169502Y10736
X171502
X173502
X175402Y10336
X136500Y13600
X133000Y14500
X130984Y15273
X131000Y19000
X133000Y18000
X132500Y26000
X131000Y25000
X132319Y29680
X138482Y30508
X138063Y21500
X115342Y30728
X111406
X102406Y28228
X101500Y25000
X100996Y21110
X96265Y20322
X92611Y19889
X90500Y20000
X93000Y23500
X94000Y15227
X88500Y14000
X89000Y11000
X77500Y14000
X78000Y19700
X78800Y27700
X83163Y23897
X70000Y26500
X69100Y27900
X67300Y27800
X66000Y24400
X66100Y21100
X62900Y19300
X63000Y15500
X65000Y12500
X60500Y11200
X57100Y28900
X48400Y30200
X38400Y27300
X40557Y22800
X40300Y19100
X37300Y13900
X37600Y10900
X29752Y10206
X17000Y10000
X15991Y11500
X13500Y13000
X17400Y26700
X16700Y31200
X25100Y30200
X31800Y30900
X98500Y27500
X99927Y16460
T02
X98000Y4500
X108500Y30728
X134800Y14626
X15600Y18200
X7000Y11632
T03
X108000Y8000
X123500
X119500Y13000
X113500
X108000
Y17500
Y25000
X115000Y22600
X116100Y16800
X123000Y18000
X125500Y24500
X78964Y23065
X32200Y19700
X31921Y10114
X24200Y11200
X19200Y25000
X15900Y22900
T04
X13577Y8978
X6650Y26444
T05
X161500Y6500
X171500
T06
X6966Y8100
X10966Y28100
X2966
M30
