G04*
G04 #@! TF.GenerationSoftware,Altium Limited,Altium Designer,19.1.5 (86)*
G04*
G04 Layer_Color=65535*
%FSAX24Y24*%
%MOIN*%
G70*
G01*
G75*
%ADD10C,0.0098*%
%ADD11C,0.0051*%
%ADD12C,0.0100*%
%ADD13C,0.0039*%
%ADD14C,0.0079*%
%ADD15C,0.0080*%
%ADD16C,0.0050*%
%ADD17C,0.0059*%
%ADD18C,0.0059*%
D10*
X031544Y017864D02*
G03*
X031544Y017864I-000049J000000D01*
G01*
X027539Y014843D02*
G03*
X027539Y014843I-000049J000000D01*
G01*
X021999Y017850D02*
G03*
X021999Y017850I-000049J000000D01*
G01*
D11*
X023308Y016690D02*
G03*
X023308Y016690I-000118J000000D01*
G01*
X023998Y017370D02*
G03*
X023998Y017370I-000118J000000D01*
G01*
X022938Y016860D02*
G03*
X022938Y016860I-000118J000000D01*
G01*
X024928Y016070D02*
G03*
X024928Y016070I-000118J000000D01*
G01*
X021808Y017870D02*
G03*
X021808Y017870I-000118J000000D01*
G01*
X032208Y016300D02*
G03*
X032208Y016300I-000118J000000D01*
G01*
X025969Y017869D02*
G03*
X025969Y017869I-000118J000000D01*
G01*
X026788Y016901D02*
G03*
X026788Y016901I-000118J000000D01*
G01*
X026718Y017350D02*
G03*
X026718Y017350I-000118J000000D01*
G01*
X027358Y017700D02*
G03*
X027358Y017700I-000118J000000D01*
G01*
X027336Y017278D02*
G03*
X027336Y017278I-000118J000000D01*
G01*
X026038Y015550D02*
G03*
X026038Y015550I-000118J000000D01*
G01*
X018878Y017790D02*
G03*
X018878Y017790I-000118J000000D01*
G01*
X025748Y016610D02*
G03*
X025748Y016610I-000118J000000D01*
G01*
X018088Y015190D02*
G03*
X018088Y015190I-000118J000000D01*
G01*
X019628Y015230D02*
G03*
X019628Y015230I-000118J000000D01*
G01*
X030928Y015680D02*
G03*
X030928Y015680I-000118J000000D01*
G01*
X030956Y016190D02*
G03*
X030956Y016190I-000118J000000D01*
G01*
X023318Y015820D02*
G03*
X023318Y015820I-000118J000000D01*
G01*
X026968Y016350D02*
G03*
X026968Y016350I-000118J000000D01*
G01*
X017577Y015559D02*
G03*
X017577Y015559I-000118J000000D01*
G01*
X019458Y016800D02*
G03*
X019458Y016800I-000118J000000D01*
G01*
X025558Y017630D02*
G03*
X025558Y017630I-000118J000000D01*
G01*
D12*
X024616Y016931D02*
G03*
X024616Y016931I-000031J000000D01*
G01*
X024190Y016710D02*
Y016910D01*
X024376Y017896D02*
X025084D01*
X024376Y017424D02*
X025084D01*
X033190Y014840D02*
Y015120D01*
X034474Y014932D02*
X034754D01*
X033050Y014980D02*
X033330D01*
X032700Y015750D02*
X032900D01*
X032650Y016200D02*
Y016400D01*
X032336Y015396D02*
Y016104D01*
X031864Y015396D02*
Y016104D01*
X026850Y014900D02*
Y015100D01*
X026800Y015950D02*
Y016150D01*
X023400Y017620D02*
Y017820D01*
X021676Y017136D02*
Y017844D01*
X021204Y017136D02*
Y017844D01*
X021000Y017490D02*
X021200D01*
X020640D02*
X020840D01*
X033106Y016950D02*
X033306D01*
X032600D02*
X032800D01*
X031206D02*
X031406D01*
X030706Y016950D02*
X030906D01*
D13*
X019285Y016048D02*
G03*
X019285Y016088I000000J000020D01*
G01*
D02*
G03*
X019285Y016048I000000J-000020D01*
G01*
X031606Y017250D02*
Y017742D01*
Y017250D02*
X032394D01*
X031606Y017750D02*
X032394D01*
X032406Y017258D02*
Y017750D01*
X023400Y016580D02*
Y016710D01*
Y016580D02*
X023710Y016270D01*
X025100D01*
X025400D01*
Y016180D02*
Y016270D01*
D14*
X024787Y015811D02*
G03*
X024787Y015889I000000J000039D01*
G01*
D02*
G03*
X024787Y015811I000000J-000039D01*
G01*
X031006Y017441D02*
Y017559D01*
X033006Y017441D02*
Y017559D01*
X033780Y018075D02*
X034735D01*
X033780Y017425D02*
Y018075D01*
Y017425D02*
X034735D01*
D15*
X018984Y015870D02*
X018985Y016107D01*
X019063Y016028D01*
X019142Y016106D01*
X019141Y015870D01*
X019378Y016066D02*
X019339Y016105D01*
X019260Y016106D01*
X019221Y016066D01*
X019220Y015909D01*
X019259Y015869D01*
X019338Y015869D01*
X019378Y015908D01*
X019457Y016105D02*
X019456Y015908D01*
X019496Y015869D01*
X019574Y015868D01*
X019614Y015907D01*
X019614Y016104D01*
X019929Y016103D02*
X019928Y015867D01*
X020047Y015866D01*
X020086Y015906D01*
X020086Y015945D01*
X020047Y015985D01*
X019929Y015985D01*
X020047Y015985D01*
X020086Y016024D01*
X020087Y016063D01*
X020047Y016103D01*
X019929Y016103D01*
X020284Y016102D02*
X020205Y016102D01*
X020165Y016063D01*
X020165Y015905D01*
X020204Y015866D01*
X020283Y015866D01*
X020322Y015905D01*
X020323Y016062D01*
X020284Y016102D01*
X020401Y015865D02*
X020401Y016023D01*
X020480Y016101D01*
X020559Y016022D01*
X020558Y015865D01*
X020559Y015983D01*
X020401Y015983D01*
X020637Y015864D02*
X020638Y016100D01*
X020756Y016100D01*
X020795Y016060D01*
X020795Y015982D01*
X020755Y015943D01*
X020637Y015943D01*
X020716Y015943D02*
X020794Y015864D01*
X020874Y016100D02*
X020873Y015863D01*
X020991Y015863D01*
X021031Y015902D01*
X021031Y016060D01*
X020992Y016099D01*
X020874Y016100D01*
X018983Y015553D02*
X019061Y015395D01*
X019140Y015552D01*
X019376Y015394D02*
X019218Y015394D01*
X019376Y015551D01*
X019376Y015590D01*
X019337Y015630D01*
X019258Y015630D01*
X019219Y015591D01*
X019454Y015393D02*
X019455Y015433D01*
X019494Y015433D01*
X019494Y015393D01*
X019454Y015393D01*
X019652Y015589D02*
X019691Y015629D01*
X019770Y015628D01*
X019809Y015589D01*
X019809Y015431D01*
X019769Y015392D01*
X019691Y015392D01*
X019651Y015432D01*
X019652Y015589D01*
X018981Y015116D02*
X019021Y015156D01*
X019099Y015155D01*
X019138Y015116D01*
X019138Y014958D01*
X019098Y014919D01*
X019020Y014920D01*
X018980Y014959D01*
X018981Y015116D01*
X019217Y015116D02*
X019257Y015155D01*
X019335Y015155D01*
X019375Y015115D01*
X019374Y015076D01*
X019335Y015036D01*
X019374Y014997D01*
X019374Y014958D01*
X019335Y014918D01*
X019256Y014919D01*
X019217Y014958D01*
X019217Y014998D01*
X019256Y015037D01*
X019217Y015076D01*
X019217Y015116D01*
X019256Y015037D02*
X019335Y015036D01*
X019453Y014918D02*
X019453Y014957D01*
X019492Y014957D01*
X019492Y014918D01*
X019453Y014918D01*
X019649Y014917D02*
X019728Y014917D01*
X019689Y014917D01*
X019690Y015153D01*
X019650Y015114D01*
X019847Y015153D02*
X020004Y015152D01*
X020004Y015113D01*
X019846Y014956D01*
X019846Y014916D01*
X020082Y014916D02*
X020082Y014955D01*
X020122Y014955D01*
X020122Y014915D01*
X020082Y014916D01*
X020437Y014914D02*
X020279Y014915D01*
X020437Y015072D01*
X020437Y015111D01*
X020398Y015151D01*
X020319Y015151D01*
X020280Y015112D01*
X020516Y015111D02*
X020555Y015150D01*
X020634Y015150D01*
X020673Y015110D01*
X020673Y014953D01*
X020633Y014914D01*
X020555Y014914D01*
X020515Y014953D01*
X020516Y015111D01*
X020751Y014913D02*
X020830Y014913D01*
X020791Y014913D01*
X020792Y015149D01*
X020752Y015110D01*
X020948Y014952D02*
X020988Y014912D01*
X021066Y014912D01*
X021106Y014951D01*
X021106Y015109D01*
X021067Y015148D01*
X020988Y015148D01*
X020949Y015109D01*
X020949Y015070D01*
X020988Y015030D01*
X021106Y015030D01*
D16*
X027030Y017020D02*
X026780D01*
Y017145D01*
X026822Y017187D01*
X026905D01*
X026947Y017145D01*
Y017020D01*
Y017103D02*
X027030Y017187D01*
Y017270D02*
Y017353D01*
Y017312D01*
X026780D01*
X026822Y017270D01*
Y017478D02*
X026780Y017520D01*
Y017603D01*
X026822Y017645D01*
X026863D01*
X026905Y017603D01*
Y017561D01*
Y017603D01*
X026947Y017645D01*
X026988D01*
X027030Y017603D01*
Y017520D01*
X026988Y017478D01*
D17*
X023710Y016597D02*
X023776D01*
X023743D01*
Y016400D01*
X023710D01*
X023776D01*
X024005Y016564D02*
X023972Y016597D01*
X023907D01*
X023874Y016564D01*
Y016433D01*
X023907Y016400D01*
X023972D01*
X024005Y016433D01*
X024202Y016597D02*
X024136Y016564D01*
X024071Y016498D01*
Y016433D01*
X024104Y016400D01*
X024169D01*
X024202Y016433D01*
Y016466D01*
X024169Y016498D01*
X024071D01*
X025160Y016350D02*
X024963D01*
Y016448D01*
X024996Y016481D01*
X025062D01*
X025094Y016448D01*
Y016350D01*
Y016416D02*
X025160Y016481D01*
Y016547D02*
Y016612D01*
Y016580D01*
X024963D01*
X024996Y016547D01*
X025160Y016842D02*
Y016711D01*
X025029Y016842D01*
X024996D01*
X024963Y016809D01*
Y016744D01*
X024996Y016711D01*
X023850Y017640D02*
Y017837D01*
X023948D01*
X023981Y017804D01*
Y017738D01*
X023948Y017706D01*
X023850D01*
X023916D02*
X023981Y017640D01*
X024047D02*
X024112D01*
X024080D01*
Y017837D01*
X024047Y017804D01*
X024211D02*
X024244Y017837D01*
X024309D01*
X024342Y017804D01*
Y017673D01*
X024309Y017640D01*
X024244D01*
X024211Y017673D01*
Y017804D01*
X024481Y016564D02*
X024448Y016597D01*
X024383D01*
X024350Y016564D01*
Y016433D01*
X024383Y016400D01*
X024448D01*
X024481Y016433D01*
X024678Y016400D02*
X024547D01*
X024678Y016531D01*
Y016564D01*
X024645Y016597D01*
X024580D01*
X024547Y016564D01*
X024744D02*
X024776Y016597D01*
X024842D01*
X024875Y016564D01*
Y016531D01*
X024842Y016498D01*
X024809D01*
X024842D01*
X024875Y016466D01*
Y016433D01*
X024842Y016400D01*
X024776D01*
X024744Y016433D01*
X025180Y015600D02*
Y015797D01*
X025278D01*
X025311Y015764D01*
Y015698D01*
X025278Y015666D01*
X025180D01*
X025246D02*
X025311Y015600D01*
X025475D02*
Y015797D01*
X025377Y015698D01*
X025508D01*
X025430Y016420D02*
X025233D01*
Y016518D01*
X025266Y016551D01*
X025332D01*
X025364Y016518D01*
Y016420D01*
Y016486D02*
X025430Y016551D01*
Y016617D02*
Y016682D01*
Y016650D01*
X025233D01*
X025266Y016617D01*
D18*
X019190Y016607D02*
X019321D01*
X019256D01*
Y016410D01*
X019387D02*
Y016607D01*
X019485D01*
X019518Y016574D01*
Y016508D01*
X019485Y016476D01*
X019387D01*
X019584Y016410D02*
X019649D01*
X019616D01*
Y016607D01*
X019584Y016574D01*
X019748D02*
X019780Y016607D01*
X019846D01*
X019879Y016574D01*
Y016443D01*
X019846Y016410D01*
X019780D01*
X019748Y016443D01*
Y016574D01*
X018930Y017907D02*
X019061D01*
X018996D01*
Y017710D01*
X019127D02*
Y017907D01*
X019225D01*
X019258Y017874D01*
Y017808D01*
X019225Y017776D01*
X019127D01*
X019455Y017907D02*
X019389Y017874D01*
X019324Y017808D01*
Y017743D01*
X019356Y017710D01*
X019422D01*
X019455Y017743D01*
Y017776D01*
X019422Y017808D01*
X019324D01*
X031583Y015390D02*
Y015521D01*
Y015456D01*
X031780D01*
Y015587D02*
X031583D01*
Y015685D01*
X031616Y015718D01*
X031682D01*
X031714Y015685D01*
Y015587D01*
X031780Y015784D02*
Y015849D01*
Y015816D01*
X031583D01*
X031616Y015784D01*
X031583Y015948D02*
Y016079D01*
X031616D01*
X031747Y015948D01*
X031780D01*
X033166Y016289D02*
X033126Y016328D01*
X033048D01*
X033008Y016289D01*
Y016131D01*
X033048Y016092D01*
X033126D01*
X033166Y016131D01*
X033244Y016092D02*
X033323D01*
X033284D01*
Y016328D01*
X033244Y016289D01*
X033441D02*
X033481Y016328D01*
X033559D01*
X033599Y016289D01*
Y016249D01*
X033559Y016210D01*
X033599Y016170D01*
Y016131D01*
X033559Y016092D01*
X033481D01*
X033441Y016131D01*
Y016170D01*
X033481Y016210D01*
X033441Y016249D01*
Y016289D01*
X033481Y016210D02*
X033559D01*
X018740Y017220D02*
Y017456D01*
X018858D01*
X018897Y017417D01*
Y017338D01*
X018858Y017299D01*
X018740D01*
X019134Y017220D02*
X018976D01*
X019134Y017377D01*
Y017417D01*
X019094Y017456D01*
X019016D01*
X018976Y017417D01*
X026100Y016650D02*
Y016886D01*
X026218D01*
X026257Y016847D01*
Y016768D01*
X026218Y016729D01*
X026100D01*
X026336Y016650D02*
X026415D01*
X026376D01*
Y016886D01*
X026336Y016847D01*
X033960Y015720D02*
Y015877D01*
X034039Y015956D01*
X034117Y015877D01*
Y015720D01*
Y015838D01*
X033960D01*
X034196Y015720D02*
Y015956D01*
X034354Y015720D01*
Y015956D01*
X034432D02*
X034590D01*
X034511D01*
Y015720D01*
X034668D02*
X034747D01*
X034708D01*
Y015956D01*
X034668Y015917D01*
X025311Y016074D02*
X025278Y016107D01*
X025213D01*
X025180Y016074D01*
Y015943D01*
X025213Y015910D01*
X025278D01*
X025311Y015943D01*
X025508Y015910D02*
X025377D01*
X025508Y016041D01*
Y016074D01*
X025475Y016107D01*
X025410D01*
X025377Y016074D01*
X025574D02*
X025606Y016107D01*
X025672D01*
X025705Y016074D01*
Y015943D01*
X025672Y015910D01*
X025606D01*
X025574Y015943D01*
Y016074D01*
X020687Y017027D02*
X020648Y017066D01*
X020569D01*
X020530Y017027D01*
Y016869D01*
X020569Y016830D01*
X020648D01*
X020687Y016869D01*
X020924Y016830D02*
X020766D01*
X020924Y016987D01*
Y017027D01*
X020884Y017066D01*
X020805D01*
X020766Y017027D01*
X021160Y016830D02*
X021002D01*
X021160Y016987D01*
Y017027D01*
X021120Y017066D01*
X021042D01*
X021002Y017027D01*
X020233Y017403D02*
X020194Y017363D01*
Y017284D01*
X020233Y017245D01*
X020391D01*
X020430Y017284D01*
Y017363D01*
X020391Y017403D01*
X020430Y017639D02*
Y017481D01*
X020273Y017639D01*
X020233D01*
X020194Y017599D01*
Y017521D01*
X020233Y017481D01*
X020430Y017717D02*
Y017796D01*
Y017757D01*
X020194D01*
X020233Y017717D01*
X032746Y014951D02*
X032713Y014918D01*
Y014853D01*
X032746Y014820D01*
X032877D01*
X032910Y014853D01*
Y014918D01*
X032877Y014951D01*
X032910Y015017D02*
Y015082D01*
Y015050D01*
X032713D01*
X032746Y015017D01*
X032877Y015181D02*
X032910Y015214D01*
Y015279D01*
X032877Y015312D01*
X032746D01*
X032713Y015279D01*
Y015214D01*
X032746Y015181D01*
X032779D01*
X032812Y015214D01*
Y015312D01*
X026067Y015057D02*
X026028Y015096D01*
X025949D01*
X025910Y015057D01*
Y014899D01*
X025949Y014860D01*
X026028D01*
X026067Y014899D01*
X026146D02*
X026186Y014860D01*
X026264D01*
X026304Y014899D01*
Y015057D01*
X026264Y015096D01*
X026186D01*
X026146Y015057D01*
Y015017D01*
X026186Y014978D01*
X026304D01*
X026197Y016097D02*
X026158Y016136D01*
X026079D01*
X026040Y016097D01*
Y015939D01*
X026079Y015900D01*
X026158D01*
X026197Y015939D01*
X026276Y015900D02*
X026355D01*
X026316D01*
Y016136D01*
X026276Y016097D01*
X017527Y015116D02*
X017449D01*
X017488D01*
Y014919D01*
X017449Y014880D01*
X017409D01*
X017370Y014919D01*
X017606Y015077D02*
X017645Y015116D01*
X017724D01*
X017764Y015077D01*
Y015037D01*
X017724Y014998D01*
X017685D01*
X017724D01*
X017764Y014959D01*
Y014919D01*
X017724Y014880D01*
X017645D01*
X017606Y014919D01*
X030430Y015096D02*
X030509D01*
X030469D01*
Y014860D01*
X030430D01*
X030509D01*
X030784Y015057D02*
X030745Y015096D01*
X030666D01*
X030627Y015057D01*
Y014899D01*
X030666Y014860D01*
X030745D01*
X030784Y014899D01*
X031020Y014860D02*
X030863D01*
X031020Y015017D01*
Y015057D01*
X030981Y015096D01*
X030902D01*
X030863Y015057D01*
X021970Y016916D02*
X022049D01*
X022009D01*
Y016680D01*
X021970D01*
X022049D01*
X022324Y016877D02*
X022285Y016916D01*
X022206D01*
X022167Y016877D01*
Y016719D01*
X022206Y016680D01*
X022285D01*
X022324Y016719D01*
X022560Y016916D02*
X022403D01*
Y016798D01*
X022482Y016837D01*
X022521D01*
X022560Y016798D01*
Y016719D01*
X022521Y016680D01*
X022442D01*
X022403Y016719D01*
X032580Y014940D02*
X032344D01*
Y015058D01*
X032383Y015097D01*
X032462D01*
X032501Y015058D01*
Y014940D01*
Y015019D02*
X032580Y015097D01*
X032344Y015334D02*
X032383Y015255D01*
X032462Y015176D01*
X032541D01*
X032580Y015216D01*
Y015294D01*
X032541Y015334D01*
X032501D01*
X032462Y015294D01*
Y015176D01*
X032244Y014932D02*
X032007D01*
Y015050D01*
X032047Y015089D01*
X032126D01*
X032165Y015050D01*
Y014932D01*
Y015010D02*
X032244Y015089D01*
X032007Y015168D02*
Y015325D01*
X032047D01*
X032204Y015168D01*
X032244D01*
X025180Y015290D02*
Y015487D01*
X025278D01*
X025311Y015454D01*
Y015388D01*
X025278Y015356D01*
X025180D01*
X025246D02*
X025311Y015290D01*
X025377D02*
X025442D01*
X025410D01*
Y015487D01*
X025377Y015454D01*
X025541Y015290D02*
X025606D01*
X025574D01*
Y015487D01*
X025541Y015454D01*
X021280Y016820D02*
Y017056D01*
X021398D01*
X021437Y017017D01*
Y016938D01*
X021398Y016899D01*
X021280D01*
X021359D02*
X021437Y016820D01*
X021516Y016859D02*
X021556Y016820D01*
X021634D01*
X021674Y016859D01*
Y017017D01*
X021634Y017056D01*
X021556D01*
X021516Y017017D01*
Y016977D01*
X021556Y016938D01*
X021674D01*
X021040Y016250D02*
Y016486D01*
X021158D01*
X021197Y016447D01*
Y016368D01*
X021158Y016329D01*
X021040D01*
X021119D02*
X021197Y016250D01*
X021276Y016447D02*
X021316Y016486D01*
X021394D01*
X021434Y016447D01*
Y016407D01*
X021394Y016368D01*
X021434Y016329D01*
Y016289D01*
X021394Y016250D01*
X021316D01*
X021276Y016289D01*
Y016329D01*
X021316Y016368D01*
X021276Y016407D01*
Y016447D01*
X021316Y016368D02*
X021394D01*
X020010Y016640D02*
Y016876D01*
X020128D01*
X020167Y016837D01*
Y016758D01*
X020128Y016719D01*
X020010D01*
X020089D02*
X020167Y016640D01*
X020404D02*
X020246D01*
X020404Y016797D01*
Y016837D01*
X020364Y016876D01*
X020285D01*
X020246Y016837D01*
X022780Y015116D02*
Y014880D01*
X022898D01*
X022937Y014919D01*
Y015077D01*
X022898Y015116D01*
X022780D01*
X023016Y014880D02*
X023095D01*
X023056D01*
Y015116D01*
X023016Y015077D01*
X031650Y017036D02*
Y016800D01*
X031807D01*
X031886D02*
Y017036D01*
X032004D01*
X032044Y016997D01*
Y016918D01*
X032004Y016879D01*
X031886D01*
X032280Y017036D02*
X032122D01*
Y016918D01*
X032201D01*
X032122D01*
Y016800D01*
X032358D02*
X032437D01*
X032398D01*
Y017036D01*
X032358Y016997D01*
X032785Y017942D02*
Y017706D01*
X032942D01*
X033178D02*
X033021D01*
X033178Y017863D01*
Y017902D01*
X033139Y017942D01*
X033060D01*
X033021Y017902D01*
X030870Y017946D02*
Y017710D01*
X031027D01*
X031106D02*
X031185D01*
X031146D01*
Y017946D01*
X031106Y017907D01*
X033423Y016687D02*
X033384Y016648D01*
Y016569D01*
X033423Y016530D01*
X033581D01*
X033620Y016569D01*
Y016648D01*
X033581Y016687D01*
X033384Y016766D02*
Y016924D01*
X033423D01*
X033581Y016766D01*
X033620D01*
X032267Y016707D02*
X032228Y016746D01*
X032149D01*
X032110Y016707D01*
Y016549D01*
X032149Y016510D01*
X032228D01*
X032267Y016549D01*
X032504Y016746D02*
X032425Y016707D01*
X032346Y016628D01*
Y016549D01*
X032385Y016510D01*
X032464D01*
X032504Y016549D01*
Y016589D01*
X032464Y016628D01*
X032346D01*
X031333Y016277D02*
X031294Y016238D01*
Y016159D01*
X031333Y016120D01*
X031491D01*
X031530Y016159D01*
Y016238D01*
X031491Y016277D01*
X031294Y016514D02*
Y016356D01*
X031412D01*
X031373Y016435D01*
Y016474D01*
X031412Y016514D01*
X031491D01*
X031530Y016474D01*
Y016395D01*
X031491Y016356D01*
X031023Y016277D02*
X030984Y016238D01*
Y016159D01*
X031023Y016120D01*
X031181D01*
X031220Y016159D01*
Y016238D01*
X031181Y016277D01*
X031220Y016474D02*
X030984D01*
X031102Y016356D01*
Y016514D01*
M02*
