G04*
G04 #@! TF.GenerationSoftware,Altium Limited,Altium Designer,20.0.13 (296)*
G04*
G04 Layer_Color=65280*
%FSAX25Y25*%
%MOIN*%
G70*
G01*
G75*
%ADD10C,0.01000*%
%ADD11C,0.00984*%
%ADD12C,0.00512*%
%ADD13C,0.00394*%
%ADD14C,0.00787*%
%ADD15C,0.00800*%
%ADD16C,0.00600*%
%ADD17C,0.00500*%
%ADD19C,0.00591*%
D10*
X0182300Y0160401D02*
X0184300D01*
X0182300Y0152399D02*
X0184300D01*
X0301362Y0159457D02*
Y0166543D01*
X0296638Y0159457D02*
Y0166543D01*
X0268032Y0157953D02*
X0271969D01*
X0268032Y0152047D02*
X0271969D01*
X0344800Y0149700D02*
X0347600D01*
X0329300Y0150200D02*
X0332100D01*
X0330700Y0148800D02*
Y0151600D01*
X0263025Y0162499D02*
X0265025D01*
X0266800D02*
X0268800D01*
X0275001Y0174000D02*
Y0176000D01*
X0283638Y0151457D02*
Y0158543D01*
X0288362Y0151457D02*
Y0158543D01*
X0288500Y0154999D02*
X0290500D01*
X0298499Y0176000D02*
Y0178000D01*
X0302000Y0163001D02*
X0304000D01*
X0298000Y0153499D02*
X0300000D01*
X0298501Y0172500D02*
Y0174500D01*
Y0169000D02*
Y0171000D01*
D11*
X0175251Y0162984D02*
G03*
X0175251Y0162984I-0000492J0000000D01*
G01*
X0329472Y0160012D02*
G03*
X0329472Y0160012I-0000492J0000000D01*
G01*
D12*
X0287981Y0150200D02*
G03*
X0287981Y0150200I-0001181J0000000D01*
G01*
D13*
X0309244Y0160744D02*
G03*
X0308850Y0160744I-0000197J0000000D01*
G01*
D02*
G03*
X0309244Y0160744I0000197J0000000D01*
G01*
X0247756Y0168445D02*
G03*
X0247362Y0168445I-0000197J0000000D01*
G01*
D02*
G03*
X0247756Y0168445I0000197J0000000D01*
G01*
D14*
X0219850Y0153585D02*
Y0154215D01*
X0213550D02*
X0219850D01*
X0213550Y0153585D02*
Y0154215D01*
Y0153585D02*
X0219850D01*
X0220598Y0149668D02*
Y0152207D01*
X0314048Y0147498D02*
Y0156553D01*
X0307552Y0147498D02*
X0314048D01*
X0307552D02*
Y0156553D01*
X0213201Y0173559D02*
Y0178284D01*
X0213744Y0172181D02*
X0225256D01*
Y0169819D02*
Y0172181D01*
X0213744Y0169819D02*
X0225256D01*
X0213744D02*
Y0172181D01*
X0288000Y0172433D02*
Y0176567D01*
X0305119Y0153600D02*
X0307481D01*
X0212492Y0155657D02*
Y0175343D01*
X0186508Y0155657D02*
Y0175343D01*
X0208429D02*
X0212492D01*
X0186508D02*
X0190571D01*
X0208429Y0155657D02*
X0212492D01*
X0186508D02*
X0190571D01*
D15*
X0261421Y0176257D02*
X0261430Y0178618D01*
X0260249Y0178622D01*
X0259854Y0178230D01*
X0259851Y0177443D01*
X0260243Y0177048D01*
X0261424Y0177044D01*
X0259059Y0176266D02*
X0259065Y0177840D01*
X0258281Y0178630D01*
X0257491Y0177846D01*
X0257485Y0176271D01*
X0257489Y0177452D01*
X0259064Y0177446D01*
X0256707Y0178636D02*
X0255133Y0178642D01*
X0255920Y0178639D01*
X0255911Y0176277D01*
X0254337Y0176283D02*
X0254345Y0178645D01*
X0253165Y0178649D01*
X0252770Y0178257D01*
X0252767Y0177470D01*
X0253159Y0177075D01*
X0254340Y0177070D01*
X0253552Y0177073D02*
X0252762Y0176289D01*
X0251984Y0178654D02*
X0251197Y0178656D01*
X0251590Y0178655D01*
X0251582Y0176294D01*
X0251975Y0176292D01*
X0251188Y0176295D01*
X0248440Y0178273D02*
X0248835Y0178665D01*
X0249623Y0178662D01*
X0250015Y0178267D01*
X0250009Y0176693D01*
X0249614Y0176301D01*
X0248827Y0176304D01*
X0248434Y0176699D01*
X0247655Y0178670D02*
X0247646Y0176308D01*
X0247649Y0177095D01*
X0246080Y0178676D01*
X0247257Y0177490D01*
X0246072Y0176314D01*
X0241356Y0178300D02*
X0241751Y0178692D01*
X0242538Y0178689D01*
X0242930Y0178294D01*
X0242924Y0176719D01*
X0242529Y0176327D01*
X0241742Y0176330D01*
X0241350Y0176725D01*
X0240570Y0178696D02*
X0240562Y0176335D01*
X0240566Y0177515D01*
X0238992Y0177521D01*
X0238996Y0178702D01*
X0238987Y0176341D01*
X0238209Y0178705D02*
X0238200Y0176344D01*
X0237416Y0177134D01*
X0236626Y0176349D01*
X0236635Y0178711D01*
X0235839Y0176352D02*
X0235845Y0177927D01*
X0235060Y0178717D01*
X0234270Y0177933D01*
X0234264Y0176358D01*
X0234269Y0177539D01*
X0235843Y0177533D01*
X0233486Y0178723D02*
X0233477Y0176361D01*
X0231903Y0176367D01*
X0229550Y0178737D02*
X0231125Y0178732D01*
X0231116Y0176370D01*
X0229542Y0176376D01*
X0231120Y0177551D02*
X0230333Y0177554D01*
X0228763Y0178740D02*
X0228754Y0176379D01*
X0228757Y0177166D01*
X0227189Y0178746D01*
X0228365Y0177561D01*
X0227180Y0176385D01*
X0261412Y0173864D02*
X0261403Y0171503D01*
X0260222Y0171507D01*
X0259830Y0171902D01*
X0259836Y0173477D01*
X0260231Y0173869D01*
X0261412Y0173864D01*
X0259042Y0171512D02*
X0259048Y0173086D01*
X0258263Y0173876D01*
X0257473Y0173092D01*
X0257467Y0171518D01*
X0257472Y0172698D01*
X0259046Y0172693D01*
X0256689Y0173882D02*
X0256683Y0172308D01*
X0255893Y0171524D01*
X0255109Y0172314D01*
X0255115Y0173888D01*
X0254328Y0173891D02*
X0253540Y0173894D01*
X0253934Y0173892D01*
X0253925Y0171531D01*
X0254319Y0171529D01*
X0253532Y0171532D01*
X0252360Y0173898D02*
X0252351Y0171537D01*
X0251170Y0171541D01*
X0250778Y0171936D01*
X0250784Y0173511D01*
X0251179Y0173903D01*
X0252360Y0173898D01*
X0247628Y0171555D02*
X0247637Y0173916D01*
X0246456Y0173920D01*
X0246061Y0173528D01*
X0246058Y0172741D01*
X0246450Y0172346D01*
X0247631Y0172342D01*
X0246844Y0172345D02*
X0246054Y0171560D01*
X0245267Y0171563D02*
X0245272Y0173138D01*
X0244488Y0173928D01*
X0243698Y0173144D01*
X0243692Y0171569D01*
X0243697Y0172750D01*
X0245271Y0172744D01*
X0242905Y0171572D02*
X0242914Y0173934D01*
X0242124Y0173149D01*
X0241340Y0173940D01*
X0241331Y0171578D01*
X0238977Y0173555D02*
X0239372Y0173947D01*
X0240159Y0173944D01*
X0240551Y0173549D01*
X0240550Y0173155D01*
X0240155Y0172763D01*
X0239368Y0172766D01*
X0238972Y0172374D01*
X0238971Y0171981D01*
X0239363Y0171586D01*
X0240150Y0171582D01*
X0240545Y0171975D01*
X0238182Y0171590D02*
X0238188Y0173164D01*
X0237404Y0173954D01*
X0236614Y0173170D01*
X0236608Y0171596D01*
X0236613Y0172776D01*
X0238187Y0172771D01*
X0235830Y0173960D02*
X0235828Y0173567D01*
X0235038Y0172782D01*
X0234254Y0173573D01*
X0234256Y0173966D01*
X0235038Y0172782D02*
X0235034Y0171602D01*
D16*
X0210500Y0151200D02*
Y0153200D01*
X0211000Y0153700D01*
X0212000D01*
X0212499Y0153200D01*
Y0151200D01*
X0212000Y0150700D01*
X0211000D01*
X0211500Y0151700D02*
X0210500Y0150700D01*
X0211000D02*
X0210500Y0151200D01*
X0209500Y0150700D02*
X0208501D01*
X0209000D01*
Y0153700D01*
X0209500Y0153200D01*
X0221800Y0166100D02*
Y0169099D01*
X0220301D01*
X0219801Y0168599D01*
Y0167599D01*
X0220301Y0167100D01*
X0221800D01*
X0220800D02*
X0219801Y0166100D01*
X0218801D02*
X0217801D01*
X0218301D01*
Y0169099D01*
X0218801Y0168599D01*
X0214802Y0166100D02*
Y0169099D01*
X0216302Y0167599D01*
X0214302D01*
X0186400Y0178799D02*
X0185400D01*
X0185900D01*
Y0175800D01*
X0186400D01*
X0185400D01*
X0181902Y0178299D02*
X0182401Y0178799D01*
X0183401D01*
X0183901Y0178299D01*
Y0176300D01*
X0183401Y0175800D01*
X0182401D01*
X0181902Y0176300D01*
X0180902Y0178299D02*
X0180402Y0178799D01*
X0179402D01*
X0178902Y0178299D01*
Y0177799D01*
X0179402Y0177299D01*
X0179902D01*
X0179402D01*
X0178902Y0176800D01*
Y0176300D01*
X0179402Y0175800D01*
X0180402D01*
X0180902Y0176300D01*
X0182201Y0161299D02*
X0182701Y0161799D01*
X0183700D01*
X0184200Y0161299D01*
Y0159300D01*
X0183700Y0158800D01*
X0182701D01*
X0182201Y0159300D01*
X0181201Y0158800D02*
X0180201D01*
X0180701D01*
Y0161799D01*
X0181201Y0161299D01*
X0176702Y0161799D02*
X0177702Y0161299D01*
X0178702Y0160300D01*
Y0159300D01*
X0178202Y0158800D01*
X0177202D01*
X0176702Y0159300D01*
Y0159800D01*
X0177202Y0160300D01*
X0178702D01*
X0182201Y0169299D02*
X0182701Y0169799D01*
X0183700D01*
X0184200Y0169299D01*
Y0167300D01*
X0183700Y0166800D01*
X0182701D01*
X0182201Y0167300D01*
X0181201Y0166800D02*
X0180201D01*
X0180701D01*
Y0169799D01*
X0181201Y0169299D01*
X0178702Y0169799D02*
X0176702D01*
Y0169299D01*
X0178702Y0167300D01*
Y0166800D01*
D17*
X0323565Y0150550D02*
Y0148050D01*
X0321899D01*
X0319400Y0150550D02*
X0321066D01*
Y0148050D01*
X0319400D01*
X0321066Y0149300D02*
X0320233D01*
X0318567Y0150550D02*
Y0148050D01*
X0317317D01*
X0316901Y0148467D01*
Y0150133D01*
X0317317Y0150550D01*
X0318567D01*
X0316068Y0148050D02*
X0315235D01*
X0315651D01*
Y0150550D01*
X0316068Y0150133D01*
D19*
X0303461Y0151174D02*
Y0149600D01*
X0302281D01*
Y0150387D01*
Y0149600D01*
X0301100D01*
X0303461Y0151961D02*
X0301100D01*
Y0153142D01*
X0301494Y0153536D01*
X0301887D01*
X0302281Y0153142D01*
Y0151961D01*
Y0153142D01*
X0302674Y0153536D01*
X0303068D01*
X0303461Y0153142D01*
Y0151961D01*
X0301100Y0154323D02*
Y0155110D01*
Y0154717D01*
X0303461D01*
X0303068Y0154323D01*
X0231400Y0171861D02*
X0230613D01*
X0231006D01*
Y0169500D01*
X0231400D01*
X0230613D01*
X0227858Y0171468D02*
X0228251Y0171861D01*
X0229039D01*
X0229432Y0171468D01*
Y0169894D01*
X0229039Y0169500D01*
X0228251D01*
X0227858Y0169894D01*
X0227071Y0169500D02*
X0226284D01*
X0226677D01*
Y0171861D01*
X0227071Y0171468D01*
X0224526Y0150161D02*
X0225313D01*
X0224919D01*
Y0148194D01*
X0225313Y0147800D01*
X0225706D01*
X0226100Y0148194D01*
X0222164Y0147800D02*
X0223739D01*
X0222164Y0149374D01*
Y0149768D01*
X0222558Y0150161D01*
X0223345D01*
X0223739Y0149768D01*
X0290000Y0170461D02*
Y0168100D01*
X0288426D01*
X0287639Y0170068D02*
X0287245Y0170461D01*
X0286458D01*
X0286064Y0170068D01*
Y0169674D01*
X0286458Y0169281D01*
X0286851D01*
X0286458D01*
X0286064Y0168887D01*
Y0168494D01*
X0286458Y0168100D01*
X0287245D01*
X0287639Y0168494D01*
X0306968Y0162274D02*
X0307361Y0161881D01*
Y0161094D01*
X0306968Y0160700D01*
X0305394D01*
X0305000Y0161094D01*
Y0161881D01*
X0305394Y0162274D01*
X0305000Y0163061D02*
Y0163849D01*
Y0163455D01*
X0307361D01*
X0306968Y0163061D01*
Y0165029D02*
X0307361Y0165423D01*
Y0166210D01*
X0306968Y0166604D01*
X0306574D01*
X0306181Y0166210D01*
Y0165816D01*
Y0166210D01*
X0305787Y0166604D01*
X0305394D01*
X0305000Y0166210D01*
Y0165423D01*
X0305394Y0165029D01*
X0290768Y0160974D02*
X0291161Y0160581D01*
Y0159794D01*
X0290768Y0159400D01*
X0289194D01*
X0288800Y0159794D01*
Y0160581D01*
X0289194Y0160974D01*
X0288800Y0161761D02*
Y0162549D01*
Y0162155D01*
X0291161D01*
X0290768Y0161761D01*
X0288800Y0165304D02*
Y0163729D01*
X0290374Y0165304D01*
X0290768D01*
X0291161Y0164910D01*
Y0164123D01*
X0290768Y0163729D01*
X0268726Y0175468D02*
X0269119Y0175861D01*
X0269906D01*
X0270300Y0175468D01*
Y0173894D01*
X0269906Y0173500D01*
X0269119D01*
X0268726Y0173894D01*
X0267939Y0173500D02*
X0267151D01*
X0267545D01*
Y0175861D01*
X0267939Y0175468D01*
X0265971Y0173500D02*
X0265184D01*
X0265577D01*
Y0175861D01*
X0265971Y0175468D01*
X0296019Y0153074D02*
X0296413Y0152681D01*
Y0151894D01*
X0296019Y0151500D01*
X0294445D01*
X0294051Y0151894D01*
Y0152681D01*
X0294445Y0153074D01*
X0294051Y0153861D02*
Y0154649D01*
Y0154255D01*
X0296413D01*
X0296019Y0153861D01*
Y0155829D02*
X0296413Y0156223D01*
Y0157010D01*
X0296019Y0157404D01*
X0294445D01*
X0294051Y0157010D01*
Y0156223D01*
X0294445Y0155829D01*
X0296019D01*
X0305526Y0177968D02*
X0305919Y0178361D01*
X0306706D01*
X0307100Y0177968D01*
Y0176394D01*
X0306706Y0176000D01*
X0305919D01*
X0305526Y0176394D01*
X0304739Y0177968D02*
X0304345Y0178361D01*
X0303558D01*
X0303164Y0177968D01*
Y0177574D01*
X0303558Y0177181D01*
X0303164Y0176787D01*
Y0176394D01*
X0303558Y0176000D01*
X0304345D01*
X0304739Y0176394D01*
Y0176787D01*
X0304345Y0177181D01*
X0304739Y0177574D01*
Y0177968D01*
X0304345Y0177181D02*
X0303558D01*
X0268868Y0168674D02*
X0269261Y0168281D01*
Y0167494D01*
X0268868Y0167100D01*
X0267294D01*
X0266900Y0167494D01*
Y0168281D01*
X0267294Y0168674D01*
X0268868Y0169461D02*
X0269261Y0169855D01*
Y0170642D01*
X0268868Y0171036D01*
X0268474D01*
X0268081Y0170642D01*
Y0170249D01*
Y0170642D01*
X0267687Y0171036D01*
X0267294D01*
X0266900Y0170642D01*
Y0169855D01*
X0267294Y0169461D01*
X0265068Y0168574D02*
X0265461Y0168181D01*
Y0167394D01*
X0265068Y0167000D01*
X0263494D01*
X0263100Y0167394D01*
Y0168181D01*
X0263494Y0168574D01*
X0263100Y0170936D02*
Y0169361D01*
X0264674Y0170936D01*
X0265068D01*
X0265461Y0170542D01*
Y0169755D01*
X0265068Y0169361D01*
X0337300Y0152400D02*
X0339661D01*
Y0153581D01*
X0339268Y0153974D01*
X0338481D01*
X0338087Y0153581D01*
Y0152400D01*
X0339268Y0154761D02*
X0339661Y0155155D01*
Y0155942D01*
X0339268Y0156336D01*
X0338874D01*
X0338481Y0155942D01*
Y0155549D01*
Y0155942D01*
X0338087Y0156336D01*
X0337694D01*
X0337300Y0155942D01*
Y0155155D01*
X0337694Y0154761D01*
X0199726Y0150861D02*
X0200513D01*
X0200119D01*
Y0148894D01*
X0200513Y0148500D01*
X0200906D01*
X0201300Y0148894D01*
X0198939Y0148500D02*
X0198151D01*
X0198545D01*
Y0150861D01*
X0198939Y0150468D01*
X0324500Y0161461D02*
X0323713D01*
X0324106D01*
Y0159100D01*
X0324500D01*
X0323713D01*
X0320958Y0161068D02*
X0321351Y0161461D01*
X0322139D01*
X0322532Y0161068D01*
Y0159494D01*
X0322139Y0159100D01*
X0321351D01*
X0320958Y0159494D01*
X0318990Y0159100D02*
Y0161461D01*
X0320171Y0160281D01*
X0318596D01*
X0315600Y0171461D02*
Y0171068D01*
X0314813Y0170281D01*
X0314026Y0171068D01*
Y0171461D01*
X0314813Y0170281D02*
Y0169100D01*
X0311664D02*
X0313239D01*
X0311664Y0170674D01*
Y0171068D01*
X0312058Y0171461D01*
X0312845D01*
X0313239Y0171068D01*
X0271700Y0150761D02*
Y0150368D01*
X0270913Y0149581D01*
X0270126Y0150368D01*
Y0150761D01*
X0270913Y0149581D02*
Y0148400D01*
X0269339D02*
X0268551D01*
X0268945D01*
Y0150761D01*
X0269339Y0150368D01*
X0285100Y0159900D02*
X0287461D01*
Y0161081D01*
X0287068Y0161474D01*
X0286281D01*
X0285887Y0161081D01*
Y0159900D01*
Y0160687D02*
X0285100Y0161474D01*
X0287461Y0163836D02*
Y0162261D01*
X0286281D01*
X0286674Y0163049D01*
Y0163442D01*
X0286281Y0163836D01*
X0285494D01*
X0285100Y0163442D01*
Y0162655D01*
X0285494Y0162261D01*
X0293200Y0160100D02*
X0295561D01*
Y0161281D01*
X0295168Y0161674D01*
X0294381D01*
X0293987Y0161281D01*
Y0160100D01*
Y0160887D02*
X0293200Y0161674D01*
X0295168Y0162461D02*
X0295561Y0162855D01*
Y0163642D01*
X0295168Y0164036D01*
X0294774D01*
X0294381Y0163642D01*
Y0163249D01*
Y0163642D01*
X0293987Y0164036D01*
X0293594D01*
X0293200Y0163642D01*
Y0162855D01*
X0293594Y0162461D01*
X0307426Y0170468D02*
X0307819Y0170861D01*
X0308606D01*
X0309000Y0170468D01*
Y0168894D01*
X0308606Y0168500D01*
X0307819D01*
X0307426Y0168894D01*
X0306639Y0168500D02*
X0305851D01*
X0306245D01*
Y0170861D01*
X0306639Y0170468D01*
X0303096Y0170861D02*
X0304671D01*
Y0169681D01*
X0303884Y0170074D01*
X0303490D01*
X0303096Y0169681D01*
Y0168894D01*
X0303490Y0168500D01*
X0304277D01*
X0304671Y0168894D01*
X0307126Y0174068D02*
X0307519Y0174461D01*
X0308306D01*
X0308700Y0174068D01*
Y0172494D01*
X0308306Y0172100D01*
X0307519D01*
X0307126Y0172494D01*
X0306339Y0172100D02*
X0305551D01*
X0305945D01*
Y0174461D01*
X0306339Y0174068D01*
X0303190Y0172100D02*
Y0174461D01*
X0304371Y0173281D01*
X0302796D01*
M02*
