G04*
G04 #@! TF.GenerationSoftware,Altium Limited,Altium Designer,19.1.5 (86)*
G04*
G04 Layer_Physical_Order=1*
G04 Layer_Color=255*
%FSAX24Y24*%
%MOIN*%
G70*
G01*
G75*
%ADD14C,0.0100*%
%ADD15C,0.0080*%
%ADD16C,0.0060*%
%ADD17R,0.0177X0.0581*%
%ADD18R,0.0276X0.0295*%
%ADD19R,0.0217X0.0217*%
%ADD20R,0.0453X0.0571*%
%ADD21R,0.0217X0.0217*%
G04:AMPARAMS|DCode=22|XSize=110.2mil|YSize=31.5mil|CornerRadius=0mil|HoleSize=0mil|Usage=FLASHONLY|Rotation=278.000|XOffset=0mil|YOffset=0mil|HoleType=Round|Shape=Rectangle|*
%AMROTATEDRECTD22*
4,1,4,-0.0233,0.0524,0.0079,0.0568,0.0233,-0.0524,-0.0079,-0.0568,-0.0233,0.0524,0.0*
%
%ADD22ROTATEDRECTD22*%

G04:AMPARAMS|DCode=23|XSize=39.4mil|YSize=78.7mil|CornerRadius=0mil|HoleSize=0mil|Usage=FLASHONLY|Rotation=278.000|XOffset=0mil|YOffset=0mil|HoleType=Round|Shape=Rectangle|*
%AMROTATEDRECTD23*
4,1,4,-0.0417,0.0140,0.0362,0.0250,0.0417,-0.0140,-0.0362,-0.0250,-0.0417,0.0140,0.0*
%
%ADD23ROTATEDRECTD23*%

%ADD24R,0.0413X0.0236*%
%ADD25R,0.0295X0.0236*%
%ADD26R,0.0244X0.0236*%
%ADD27R,0.0157X0.0236*%
%ADD28R,0.0236X0.0157*%
%ADD29O,0.0200X0.0400*%
%ADD30R,0.0354X0.0394*%
%ADD31R,0.0709X0.0394*%
%ADD32R,0.0118X0.0335*%
%ADD33R,0.0335X0.0118*%
%ADD34R,0.2244X0.2244*%
%ADD35R,0.0276X0.0354*%
%ADD36R,0.0354X0.0315*%
%ADD37R,0.0098X0.0187*%
%ADD38R,0.0187X0.0098*%
%ADD39R,0.0236X0.0472*%
G04:AMPARAMS|DCode=40|XSize=39.4mil|YSize=15.7mil|CornerRadius=0mil|HoleSize=0mil|Usage=FLASHONLY|Rotation=86.250|XOffset=0mil|YOffset=0mil|HoleType=Round|Shape=Rectangle|*
%AMROTATEDRECTD40*
4,1,4,0.0066,-0.0202,-0.0091,-0.0191,-0.0066,0.0202,0.0091,0.0191,0.0066,-0.0202,0.0*
%
%ADD40ROTATEDRECTD40*%

G04:AMPARAMS|DCode=41|XSize=70.9mil|YSize=63mil|CornerRadius=0mil|HoleSize=0mil|Usage=FLASHONLY|Rotation=86.250|XOffset=0mil|YOffset=0mil|HoleType=Round|Shape=Rectangle|*
%AMROTATEDRECTD41*
4,1,4,0.0291,-0.0374,-0.0337,-0.0333,-0.0291,0.0374,0.0337,0.0333,0.0291,-0.0374,0.0*
%
%ADD41ROTATEDRECTD41*%

%ADD42C,0.1024*%
%ADD43R,0.0236X0.0453*%
%ADD44R,0.0256X0.0600*%
G04:AMPARAMS|DCode=45|XSize=33.5mil|YSize=15.7mil|CornerRadius=0mil|HoleSize=0mil|Usage=FLASHONLY|Rotation=7.550|XOffset=0mil|YOffset=0mil|HoleType=Round|Shape=Rectangle|*
%AMROTATEDRECTD45*
4,1,4,-0.0156,-0.0100,-0.0176,0.0056,0.0156,0.0100,0.0176,-0.0056,-0.0156,-0.0100,0.0*
%
%ADD45ROTATEDRECTD45*%

G04:AMPARAMS|DCode=46|XSize=31.5mil|YSize=10.2mil|CornerRadius=0mil|HoleSize=0mil|Usage=FLASHONLY|Rotation=7.550|XOffset=0mil|YOffset=0mil|HoleType=Round|Shape=Rectangle|*
%AMROTATEDRECTD46*
4,1,4,-0.0149,-0.0071,-0.0163,0.0030,0.0149,0.0071,0.0163,-0.0030,-0.0149,-0.0071,0.0*
%
%ADD46ROTATEDRECTD46*%

G04:AMPARAMS|DCode=47|XSize=25.6mil|YSize=10.2mil|CornerRadius=0mil|HoleSize=0mil|Usage=FLASHONLY|Rotation=7.550|XOffset=0mil|YOffset=0mil|HoleType=Round|Shape=Rectangle|*
%AMROTATEDRECTD47*
4,1,4,-0.0120,-0.0068,-0.0134,0.0034,0.0120,0.0068,0.0134,-0.0034,-0.0120,-0.0068,0.0*
%
%ADD47ROTATEDRECTD47*%

%ADD48C,0.0310*%
%ADD85C,0.0120*%
%ADD86C,0.0650*%
%ADD87C,0.0472*%
%ADD88C,0.0620*%
%ADD89R,0.0620X0.0620*%
%ADD90C,0.0195*%
%ADD91C,0.0220*%
%ADD92C,0.0260*%
G36*
X050144Y012857D02*
X050137Y012847D01*
X050128Y012800D01*
Y012584D01*
X050137Y012537D01*
X050163Y012497D01*
X050269Y012392D01*
X050228Y012292D01*
X049385D01*
X049350Y012285D01*
X049320Y012265D01*
X049160Y012105D01*
X049133Y012100D01*
X049104Y012080D01*
X049044Y012021D01*
X049008Y012028D01*
X048908Y012103D01*
Y012238D01*
X048750D01*
Y012030D01*
X048650D01*
Y012238D01*
X048492D01*
Y012145D01*
X048346D01*
Y012333D01*
X048339Y012368D01*
X048319Y012398D01*
X048317Y012400D01*
Y012500D01*
X048315Y012509D01*
Y012850D01*
X048312Y012857D01*
X048365Y012957D01*
X048458D01*
X048504Y012900D01*
X048996D01*
X049042Y012957D01*
X050103D01*
X050144Y012857D01*
D02*
G37*
G36*
X053039Y013501D02*
X053069Y013401D01*
X053038Y013380D01*
X052991Y013310D01*
X052985Y013278D01*
X053393D01*
X053387Y013310D01*
X053340Y013380D01*
X053309Y013400D01*
X053340Y013500D01*
X053600Y013500D01*
X053656Y013496D01*
X053756Y012785D01*
X053662Y012759D01*
X053616Y012828D01*
X053546Y012875D01*
X053515Y012881D01*
Y012677D01*
Y012473D01*
X053546Y012479D01*
X053616Y012526D01*
X053662Y012595D01*
X053673Y012652D01*
X053775Y012649D01*
X053974Y011231D01*
X053924Y011197D01*
X053880Y011183D01*
X053822Y011221D01*
X053790Y011228D01*
Y011024D01*
Y010820D01*
X053822Y010826D01*
X053891Y010872D01*
X053918Y010912D01*
X054022Y010891D01*
X054177Y009788D01*
X054111Y009712D01*
X053824D01*
Y009878D01*
X053491D01*
X053409Y009878D01*
Y009878D01*
X053391D01*
Y009878D01*
X052976D01*
Y009812D01*
X052822D01*
Y009839D01*
X052685D01*
Y009920D01*
X052506D01*
Y010020D01*
X052685D01*
Y010188D01*
X052480D01*
X052464Y010288D01*
X052513Y010321D01*
X052560Y010391D01*
X052566Y010422D01*
X052158D01*
X052165Y010391D01*
X052211Y010321D01*
X052280Y010275D01*
X052261Y010197D01*
X052173Y010188D01*
Y010188D01*
X052044D01*
Y009970D01*
X051994D01*
Y009920D01*
X051815D01*
Y009839D01*
X051678D01*
Y009812D01*
X051474D01*
Y009878D01*
X051059D01*
Y009878D01*
X051041D01*
Y009878D01*
X050781D01*
X050755Y009896D01*
X050712Y009904D01*
X050712Y009904D01*
X049676D01*
Y009939D01*
X049408D01*
Y010039D01*
X049676D01*
Y010087D01*
X049695Y010100D01*
X049842Y010247D01*
X049869Y010244D01*
X049942Y010213D01*
Y010112D01*
X050100D01*
Y010320D01*
X050200D01*
Y010112D01*
X050292D01*
X050358Y010112D01*
X050458Y010112D01*
X050550D01*
Y010320D01*
X050600D01*
Y010370D01*
X050808D01*
Y010528D01*
X050808D01*
X050768Y010612D01*
X050768Y010628D01*
Y010948D01*
X050672D01*
X050593Y011048D01*
X050594Y011050D01*
X050579Y011124D01*
X050537Y011187D01*
X050474Y011229D01*
X050400Y011244D01*
X050377Y011239D01*
X050281Y011305D01*
X050284Y011400D01*
X050377Y011428D01*
X050378Y011428D01*
X050434Y011390D01*
X050500Y011377D01*
X050566Y011390D01*
X050622Y011428D01*
X050643Y011458D01*
X051064D01*
X051099Y011465D01*
X051129Y011485D01*
X051995Y012351D01*
X052015Y012381D01*
X052019Y012402D01*
X052168D01*
Y012738D01*
X051832D01*
Y012448D01*
X051026Y011642D01*
X050762D01*
X050721Y011742D01*
X050885Y011906D01*
X050911Y011945D01*
X050919Y011982D01*
X051198D01*
Y012318D01*
X051113D01*
X051083Y012364D01*
X051072Y012401D01*
X051131Y012485D01*
X051149Y012485D01*
X051601D01*
X051601Y012875D01*
X051672Y012945D01*
X051832D01*
Y012862D01*
X052168D01*
Y013198D01*
X051832D01*
Y013129D01*
X051601D01*
Y013215D01*
X051068D01*
Y012941D01*
X051068Y012859D01*
X051068Y012759D01*
Y012609D01*
X050984Y012559D01*
X050968Y012558D01*
X050932Y012584D01*
Y012841D01*
X050932Y012841D01*
Y012859D01*
X050932D01*
X050932Y012941D01*
Y013215D01*
X050399D01*
Y013213D01*
X050386Y013202D01*
X047630D01*
X047583Y013193D01*
X047543Y013166D01*
X047461Y013084D01*
X047427Y013090D01*
X047359Y013124D01*
X047348Y013182D01*
X047301Y013251D01*
X047232Y013298D01*
X047200Y013304D01*
Y013100D01*
X047100D01*
Y013304D01*
X047068Y013298D01*
X046999Y013251D01*
X046963Y013198D01*
X046632D01*
Y013056D01*
X046608Y013040D01*
X046508Y013093D01*
Y013238D01*
X046350D01*
Y013030D01*
X046250D01*
Y013238D01*
X046206D01*
X046202Y013410D01*
X046296Y013510D01*
X053039Y013501D01*
D02*
G37*
G36*
X048250Y012250D02*
X048000D01*
X047700Y012550D01*
X048000Y012850D01*
X048250D01*
Y012250D01*
D02*
G37*
G36*
X047600Y012550D02*
X047900Y012250D01*
X047350D01*
Y012850D01*
X047900D01*
X047600Y012550D01*
D02*
G37*
G36*
X042825Y013294D02*
X042767Y012687D01*
X042660Y012621D01*
X042650Y012623D01*
X042584Y012610D01*
X042528Y012572D01*
X042490Y012516D01*
X042477Y012450D01*
X042490Y012384D01*
X042528Y012328D01*
X042584Y012290D01*
X042650Y012277D01*
X042718Y012188D01*
X042670Y011688D01*
X042542D01*
Y011530D01*
X042750D01*
Y011430D01*
X042542D01*
Y011430D01*
X042517Y011407D01*
X042442Y011365D01*
X042400Y011373D01*
X042364Y011366D01*
X042294Y011418D01*
X042277Y011443D01*
X042279Y011450D01*
Y011500D01*
X042200D01*
Y011250D01*
X042149D01*
X042203Y011215D01*
X042228Y011192D01*
X042240Y011134D01*
X042278Y011078D01*
X042328Y011044D01*
Y009973D01*
X042298Y009952D01*
X042293Y009946D01*
X042172Y009926D01*
X040248Y011849D01*
X040297Y011941D01*
X040350Y011931D01*
X040425Y011946D01*
X040885Y011485D01*
X040915Y011465D01*
X040950Y011458D01*
X041235D01*
Y011250D01*
X041254Y011204D01*
X041300Y011185D01*
X041333D01*
Y011175D01*
X041340Y011140D01*
X041360Y011110D01*
X041535Y010935D01*
X041542Y010930D01*
X041578Y010878D01*
X041634Y010840D01*
X041700Y010827D01*
X041766Y010840D01*
X041822Y010878D01*
X041860Y010934D01*
X041873Y011000D01*
X041860Y011066D01*
X041847Y011085D01*
X041848Y011109D01*
X041850Y011115D01*
X041886Y011200D01*
X041896Y011204D01*
Y011204D01*
X041897Y011206D01*
X041967Y011246D01*
X041975Y011250D01*
X041950D01*
X041650Y011550D01*
X041950Y011850D01*
X041975D01*
X041967Y011854D01*
X041897Y011894D01*
X041896Y011896D01*
Y011896D01*
X041850Y011915D01*
X041849Y011915D01*
X041849Y011915D01*
X041803Y011915D01*
X041300D01*
X041254Y011896D01*
X041235Y011850D01*
Y011642D01*
X040988D01*
X040837Y011793D01*
X040841Y011822D01*
X040876Y011895D01*
X040949Y011910D01*
X041034Y011966D01*
X041090Y012051D01*
X041107Y012138D01*
X041154Y012169D01*
X041204Y012191D01*
X041250Y012160D01*
X041350Y012140D01*
X041450Y012160D01*
X041534Y012216D01*
X041590Y012300D01*
X041610Y012400D01*
X041590Y012500D01*
X041534Y012584D01*
X041450Y012640D01*
X041350Y012660D01*
X041250Y012640D01*
X041166Y012584D01*
X041154Y012567D01*
X041060Y012606D01*
X041069Y012650D01*
X041052Y012734D01*
X041005Y012805D01*
X040934Y012852D01*
X040850Y012869D01*
X040766Y012852D01*
X040695Y012805D01*
X040653Y012742D01*
X040600Y012736D01*
X040547Y012742D01*
X040505Y012805D01*
X040434Y012852D01*
X040350Y012869D01*
X040266Y012852D01*
X040195Y012805D01*
X040153Y012742D01*
X040100Y012736D01*
X040047Y012742D01*
X040005Y012805D01*
X039934Y012852D01*
X039850Y012869D01*
X039766Y012852D01*
X039707Y012813D01*
X039648Y012825D01*
X039601Y012845D01*
X039590Y012900D01*
X039534Y012984D01*
X039450Y013040D01*
X039350Y013060D01*
X039250Y013040D01*
X039166Y012984D01*
X039110Y012900D01*
X039090Y012800D01*
X039110Y012700D01*
X039136Y012661D01*
X039134Y012576D01*
X039106Y012540D01*
X039094Y012533D01*
X039015Y012453D01*
X038966Y012459D01*
X038901Y012480D01*
X038872Y012522D01*
X038816Y012560D01*
X038750Y012573D01*
X038684Y012560D01*
X038628Y012522D01*
X038590Y012466D01*
X038577Y012400D01*
X038577Y012400D01*
X038506Y012329D01*
X038472Y012307D01*
X038313Y012148D01*
X038287Y012108D01*
X038278Y012061D01*
Y011513D01*
X038035Y011270D01*
X038020Y011267D01*
X037936Y011321D01*
X037922Y011339D01*
Y011532D01*
X037998D01*
Y011868D01*
X037922D01*
Y012670D01*
X037915Y012705D01*
X037895Y012735D01*
X037515Y013115D01*
X037485Y013135D01*
X037450Y013142D01*
X037443D01*
X037422Y013172D01*
X037366Y013210D01*
X037300Y013223D01*
X037234Y013210D01*
X037178Y013172D01*
X037140Y013116D01*
X037127Y013050D01*
X037140Y012984D01*
X037178Y012928D01*
X037234Y012890D01*
X037300Y012877D01*
X037366Y012890D01*
X037422Y012928D01*
X037441Y012929D01*
X037738Y012632D01*
Y011979D01*
X037638Y011942D01*
X037565Y012015D01*
X037535Y012035D01*
X037500Y012042D01*
X037200D01*
X037165Y012035D01*
X037135Y012015D01*
X037111Y011991D01*
X037016Y012038D01*
X037021Y012075D01*
X037002Y012224D01*
X036944Y012363D01*
X036852Y012483D01*
X036733Y012574D01*
X036594Y012632D01*
X036444Y012652D01*
X036295Y012632D01*
X036156Y012574D01*
X036037Y012483D01*
X035945Y012363D01*
X035887Y012224D01*
X035868Y012075D01*
X035885Y011942D01*
X035870Y011906D01*
X035814Y011842D01*
X034713D01*
X034657Y011906D01*
X034642Y011942D01*
X034659Y012075D01*
X034639Y012224D01*
X034582Y012363D01*
X034490Y012483D01*
X034371Y012574D01*
X034232Y012632D01*
X034082Y012652D01*
X033933Y012632D01*
X033794Y012574D01*
X033674Y012483D01*
X033583Y012363D01*
X033525Y012224D01*
X033506Y012075D01*
X033525Y011926D01*
X033527Y011921D01*
X033484Y011810D01*
X033428Y011772D01*
X033390Y011716D01*
X033377Y011650D01*
X033390Y011584D01*
X033428Y011528D01*
X033434Y011464D01*
X033335Y011365D01*
X033324Y011348D01*
X033132D01*
Y011012D01*
X033265D01*
X033290Y010988D01*
X033259Y010910D01*
X033235Y010888D01*
X033148D01*
X033132Y010891D01*
X033065Y010878D01*
X033009Y010841D01*
X032972Y010785D01*
X032959Y010718D01*
X032972Y010652D01*
X033009Y010596D01*
X033065Y010558D01*
X033132Y010545D01*
X033208Y010469D01*
Y009612D01*
X033215Y009577D01*
X033235Y009547D01*
X033460Y009322D01*
X033437Y009264D01*
X033426Y009187D01*
X033437Y009110D01*
X033466Y009038D01*
X033514Y008976D01*
X033576Y008928D01*
X033648Y008898D01*
X033725Y008888D01*
X033803Y008898D01*
X033875Y008928D01*
X033936Y008976D01*
X033984Y009038D01*
X034014Y009110D01*
X034021Y009162D01*
X034034Y009173D01*
X034138Y009131D01*
X034142Y009126D01*
X034144Y009110D01*
X034174Y009038D01*
X034221Y008976D01*
X034283Y008928D01*
X034355Y008898D01*
X034432Y008888D01*
X034510Y008898D01*
X034582Y008928D01*
X034644Y008976D01*
X034691Y009038D01*
X034721Y009110D01*
X034731Y009187D01*
X034721Y009264D01*
X034691Y009336D01*
X034663Y009373D01*
X034661Y009381D01*
X034664Y009457D01*
X034678Y009498D01*
X034936Y009756D01*
X035028Y009718D01*
Y008668D01*
X034952D01*
Y008332D01*
X035142D01*
X035185Y008239D01*
X035139Y008171D01*
X035084Y008160D01*
X035028Y008122D01*
X034990Y008066D01*
X034977Y008000D01*
X034990Y007934D01*
X035028Y007878D01*
X035084Y007840D01*
X035150Y007827D01*
X035216Y007840D01*
X035224Y007845D01*
X035288Y007767D01*
X035186Y007666D01*
X035150Y007673D01*
X035084Y007660D01*
X035028Y007622D01*
X034990Y007566D01*
X034977Y007500D01*
X034990Y007434D01*
X035028Y007378D01*
X035084Y007340D01*
X035150Y007327D01*
X035216Y007340D01*
X035272Y007378D01*
X035310Y007434D01*
X035323Y007500D01*
X035316Y007536D01*
X036001Y008221D01*
X036614D01*
X036649Y008228D01*
X036679Y008248D01*
X036774Y008343D01*
X037323D01*
Y008303D01*
X037462D01*
Y008693D01*
Y009084D01*
X037348D01*
Y009718D01*
X038835Y011205D01*
X038850Y011202D01*
X038916Y011215D01*
X038972Y011253D01*
X038985Y011272D01*
X039085Y011242D01*
Y011165D01*
X039078Y011126D01*
Y009585D01*
X039068Y009579D01*
X038968Y009632D01*
Y009718D01*
X038968D01*
Y009782D01*
X038968D01*
Y010118D01*
X038907D01*
Y010166D01*
X038897Y010212D01*
X038871Y010252D01*
X038720Y010404D01*
X038732Y010422D01*
X038745Y010488D01*
X038732Y010555D01*
X038694Y010611D01*
X038638Y010648D01*
X038572Y010662D01*
X038506Y010648D01*
X038450Y010611D01*
X038412Y010555D01*
X038399Y010488D01*
X038412Y010422D01*
X038450Y010366D01*
X038452Y010364D01*
X038459Y010331D01*
X038485Y010292D01*
X038519Y010258D01*
X038477Y010158D01*
X038390D01*
Y009950D01*
X038290D01*
Y010171D01*
X038221Y010217D01*
X038182Y010225D01*
Y010000D01*
X038132D01*
Y009950D01*
X037907D01*
X037915Y009910D01*
X037966Y009834D01*
X038042Y009783D01*
X038132Y009765D01*
Y009600D01*
X038340D01*
Y009550D01*
X038390D01*
Y009342D01*
X038548D01*
Y009342D01*
X038632Y009382D01*
X038648Y009382D01*
X038828D01*
X038866Y009289D01*
X038737Y009160D01*
X038710Y009120D01*
X038701Y009073D01*
Y008711D01*
X038402Y008412D01*
X038386Y008387D01*
X038336Y008390D01*
X038321Y008161D01*
X038124Y007964D01*
X038019Y007989D01*
X038013Y007995D01*
X037966Y008066D01*
X037890Y008117D01*
X037850Y008125D01*
Y007900D01*
X037800D01*
Y007850D01*
X037555D01*
X037498Y007772D01*
X036650D01*
X036603Y007763D01*
X036563Y007737D01*
X035791Y006964D01*
X021771Y007865D01*
X021737Y007899D01*
X021697Y007926D01*
X021650Y007935D01*
X020038D01*
X019707Y008266D01*
X019764Y008351D01*
X019774Y008346D01*
X019875Y008333D01*
X019975Y008346D01*
X020069Y008385D01*
X020076Y008390D01*
X020261Y008205D01*
X020291Y008185D01*
X020326Y008178D01*
X020532D01*
Y008102D01*
X020868D01*
Y008422D01*
X020868Y008438D01*
X020908Y008522D01*
X020908D01*
Y008680D01*
X020700D01*
X020492D01*
Y008522D01*
X020492D01*
X020506Y008428D01*
X020495Y008401D01*
X020462Y008367D01*
X020359Y008367D01*
X020206Y008520D01*
X020211Y008527D01*
X020250Y008621D01*
X020263Y008721D01*
X020250Y008822D01*
X020211Y008915D01*
X020149Y008996D01*
X020069Y009057D01*
X019975Y009096D01*
X019875Y009109D01*
X019774Y009096D01*
X019681Y009057D01*
X019600Y008996D01*
X019539Y008915D01*
X019538Y008914D01*
X019532Y008914D01*
X019437Y008931D01*
X019433Y008952D01*
X019406Y008992D01*
X019332Y009066D01*
Y009842D01*
X019465Y009859D01*
X019445Y010009D01*
X019495Y010016D01*
X019488Y010065D01*
X019714Y010095D01*
X019710Y010130D01*
X019697Y010225D01*
X019696Y010230D01*
X019470Y010200D01*
X019457Y010299D01*
X019683Y010329D01*
X019670Y010430D01*
X019630Y010424D01*
X019604Y010619D01*
X019604D01*
X019603Y010633D01*
X019592Y010714D01*
X019586Y010761D01*
X019652Y010861D01*
X019687Y010868D01*
X019717Y010887D01*
X020595Y011766D01*
X020634Y011740D01*
X020700Y011727D01*
X020766Y011740D01*
X020822Y011778D01*
X020860Y011834D01*
X020873Y011900D01*
X020860Y011966D01*
X020822Y012022D01*
X020786Y012047D01*
X020763Y012128D01*
X020761Y012163D01*
X020857Y012258D01*
X023562D01*
X023597Y012265D01*
X023627Y012285D01*
X023743Y012400D01*
X023762Y012430D01*
X023769Y012465D01*
Y012690D01*
X023966Y012886D01*
X024012Y012877D01*
X024079Y012890D01*
X024135Y012928D01*
X024172Y012984D01*
X024186Y013050D01*
X024178Y013088D01*
X024243Y013165D01*
X024277Y013165D01*
X024362Y013080D01*
Y012408D01*
X024428D01*
Y011569D01*
X024384Y011560D01*
X024328Y011522D01*
X024290Y011466D01*
X024277Y011400D01*
X024290Y011334D01*
X024328Y011278D01*
X024384Y011240D01*
X024450Y011227D01*
X024456Y011228D01*
X024555Y011156D01*
X024556Y011154D01*
Y010992D01*
X024362D01*
Y010272D01*
X024539D01*
X024569Y010248D01*
X024570Y010206D01*
X024484Y010118D01*
X024402D01*
Y009884D01*
X024390Y009866D01*
X024377Y009800D01*
X024390Y009734D01*
X024428Y009678D01*
X024484Y009640D01*
X024550Y009627D01*
X024616Y009640D01*
X024672Y009678D01*
X024710Y009734D01*
X024720Y009782D01*
X024738D01*
Y009915D01*
X024800Y009952D01*
X024862Y009915D01*
Y009782D01*
X025198D01*
Y009858D01*
X025302D01*
Y009782D01*
X025638D01*
Y009887D01*
X025738Y009940D01*
X025762Y009924D01*
Y009782D01*
X026098D01*
Y010118D01*
X026097D01*
X026093Y010142D01*
X026179Y010232D01*
X026278D01*
Y010582D01*
X026050D01*
Y010632D01*
X026000D01*
Y011032D01*
X025924D01*
Y011332D01*
X025966Y011340D01*
X026022Y011378D01*
X026060Y011434D01*
X026073Y011500D01*
X026072Y011508D01*
X026143Y011608D01*
X026332D01*
X026432Y011509D01*
Y011302D01*
X026768D01*
X026810Y011219D01*
Y011138D01*
X026808Y011038D01*
X026710Y011038D01*
X026650D01*
Y010830D01*
X026600D01*
Y010780D01*
X026392D01*
Y010622D01*
X026392D01*
X026432Y010538D01*
X026432Y010522D01*
Y010275D01*
X026428Y010272D01*
X026390Y010216D01*
X026377Y010150D01*
X026390Y010084D01*
X026428Y010028D01*
X026484Y009990D01*
X026550Y009977D01*
X026616Y009990D01*
X026672Y010028D01*
X026710Y010084D01*
X026723Y010150D01*
X026766Y010202D01*
X026768D01*
Y010214D01*
X026868Y010245D01*
X026884Y010221D01*
X026940Y010184D01*
X027006Y010171D01*
X027073Y010184D01*
X027129Y010221D01*
X027166Y010277D01*
X027179Y010344D01*
X027166Y010410D01*
X027129Y010466D01*
X027073Y010504D01*
X027006Y010517D01*
X026993Y010527D01*
Y010823D01*
X027033Y010849D01*
X027093Y010867D01*
X027134Y010840D01*
X027200Y010827D01*
X027266Y010840D01*
X027322Y010878D01*
X027360Y010934D01*
X027373Y011000D01*
X027360Y011066D01*
X027322Y011122D01*
X027322Y011123D01*
Y011361D01*
X027339Y011382D01*
X027411Y011434D01*
X027450Y011427D01*
X027516Y011440D01*
X027572Y011478D01*
X027610Y011534D01*
X027623Y011600D01*
X027610Y011666D01*
X027572Y011722D01*
X027542Y011743D01*
Y012430D01*
X027535Y012465D01*
X027515Y012495D01*
X027268Y012742D01*
Y012948D01*
X026932D01*
Y012882D01*
X026768D01*
Y012948D01*
X026702D01*
Y012950D01*
X026694Y012989D01*
X026672Y013022D01*
X026457Y013238D01*
X026498Y013338D01*
X027607D01*
X028123Y012822D01*
X028163Y012795D01*
X028198Y012788D01*
Y012456D01*
X028554D01*
Y013029D01*
X028330D01*
X028318Y013031D01*
X028260D01*
X028015Y013276D01*
X028054Y013368D01*
X032288D01*
X032377Y013300D01*
X032390Y013234D01*
X032428Y013178D01*
X032480Y013142D01*
X032485Y013135D01*
X032558Y013062D01*
Y011735D01*
X032460Y011716D01*
X032422Y011772D01*
X032366Y011810D01*
X032325Y011818D01*
X032322Y011835D01*
X032302Y011865D01*
X032267Y011900D01*
X032277Y011926D01*
X032297Y012075D01*
X032277Y012224D01*
X032220Y012363D01*
X032128Y012483D01*
X032008Y012574D01*
X031869Y012632D01*
X031720Y012652D01*
X031571Y012632D01*
X031432Y012574D01*
X031312Y012483D01*
X031221Y012363D01*
X031163Y012224D01*
X031143Y012075D01*
X031163Y011926D01*
X031221Y011786D01*
X031312Y011667D01*
X031432Y011575D01*
X031571Y011518D01*
X031720Y011498D01*
X031869Y011518D01*
X032008Y011575D01*
X032036Y011596D01*
X032068Y011592D01*
X032155Y011562D01*
X032178Y011528D01*
X032234Y011490D01*
X032300Y011477D01*
X032336Y011484D01*
X032367Y011489D01*
X032440Y011434D01*
X032478Y011378D01*
X032534Y011340D01*
X032600Y011327D01*
X032666Y011340D01*
X032722Y011378D01*
X032760Y011434D01*
X032773Y011500D01*
X032760Y011566D01*
X032742Y011594D01*
Y013100D01*
X032735Y013135D01*
X032715Y013165D01*
X032684Y013195D01*
X032710Y013234D01*
X032723Y013300D01*
X032812Y013368D01*
X042758D01*
X042825Y013294D01*
D02*
G37*
G36*
X041550Y011550D02*
X041850Y011250D01*
X041300D01*
Y011850D01*
X041850D01*
X041550Y011550D01*
D02*
G37*
G36*
X052976Y009522D02*
X053038D01*
Y009409D01*
X052968D01*
Y009087D01*
X052928D01*
Y008986D01*
X052909Y008971D01*
X052789Y008970D01*
X052720Y009017D01*
X052688Y009023D01*
Y008819D01*
Y008615D01*
X052720Y008621D01*
X052789Y008668D01*
X052909Y008667D01*
X052928Y008652D01*
Y008651D01*
X053100D01*
Y008869D01*
X053200D01*
Y008651D01*
X053372D01*
Y008651D01*
X053428D01*
Y008651D01*
X053600D01*
Y008869D01*
X053650D01*
Y008919D01*
X053872D01*
Y009087D01*
X053875Y009092D01*
X053934Y009172D01*
X053966Y009166D01*
Y009370D01*
X054066D01*
Y009166D01*
X054098Y009172D01*
X054167Y009219D01*
X054197Y009264D01*
X054222Y009291D01*
X054308Y009320D01*
X055373Y009470D01*
X055420Y009420D01*
X055873D01*
X055870Y009439D01*
X055874Y009464D01*
X055924Y009547D01*
X056100Y009572D01*
X056180Y009511D01*
X056300Y008550D01*
X055000Y008150D01*
X053600Y007550D01*
X052400Y007000D01*
X050800Y006450D01*
X050693Y006428D01*
X050668Y006445D01*
X050616Y006514D01*
X050623Y006550D01*
X050610Y006616D01*
X050572Y006672D01*
X050542Y006693D01*
Y007350D01*
X050535Y007385D01*
X050515Y007415D01*
X050065Y007865D01*
X050035Y007885D01*
X050000Y007892D01*
X049885D01*
X049866Y007990D01*
X049922Y008028D01*
X049960Y008084D01*
X049973Y008150D01*
X049965Y008193D01*
X050006Y008267D01*
X050029Y008293D01*
X050242D01*
Y008270D01*
X050450D01*
X050658D01*
Y008358D01*
X050700D01*
X050735Y008365D01*
X050754Y008378D01*
X050816Y008390D01*
X050872Y008428D01*
X050910Y008484D01*
X050923Y008550D01*
X050923Y008551D01*
X050949Y008586D01*
X051022Y008651D01*
X051078D01*
Y008651D01*
X051250D01*
Y008869D01*
X051300D01*
Y008919D01*
X051522D01*
Y009087D01*
X051482D01*
Y009409D01*
X051412D01*
Y009522D01*
X051474D01*
Y009588D01*
X051678D01*
Y009561D01*
X051795D01*
X051805Y009559D01*
X051815Y009551D01*
Y009480D01*
X051994D01*
Y009430D01*
X052044D01*
Y009212D01*
X052173D01*
Y009252D01*
X052327D01*
Y009212D01*
X052456D01*
Y009430D01*
X052506D01*
Y009480D01*
X052685D01*
Y009561D01*
X052822D01*
Y009588D01*
X052976D01*
Y009522D01*
D02*
G37*
G36*
X044150Y008000D02*
X043900D01*
X043600Y008300D01*
X043900Y008600D01*
X044150D01*
Y008000D01*
D02*
G37*
G36*
X043500Y008300D02*
X043800Y008000D01*
X043250D01*
Y008600D01*
X043800D01*
X043500Y008300D01*
D02*
G37*
G36*
X042900Y008000D02*
X042650D01*
X042350Y008300D01*
X042650Y008600D01*
X042900D01*
Y008000D01*
D02*
G37*
G36*
X042250Y008300D02*
X042550Y008000D01*
X042000D01*
Y008600D01*
X042550D01*
X042250Y008300D01*
D02*
G37*
G36*
X044150Y007150D02*
X043900D01*
X043600Y007450D01*
X043900Y007750D01*
X044150D01*
Y007150D01*
D02*
G37*
G36*
X043500Y007450D02*
X043800Y007150D01*
X043250D01*
Y007750D01*
X043800D01*
X043500Y007450D01*
D02*
G37*
G36*
X042900Y007150D02*
X042650D01*
X042350Y007450D01*
X042650Y007750D01*
X042900D01*
Y007150D01*
D02*
G37*
G36*
X042250Y007450D02*
X042550Y007150D01*
X042000D01*
Y007750D01*
X042550D01*
X042250Y007450D01*
D02*
G37*
G36*
X042900Y006400D02*
X042650D01*
X042350Y006700D01*
X042650Y007000D01*
X042900D01*
Y006400D01*
D02*
G37*
G36*
X042250Y006700D02*
X042550Y006400D01*
X042000D01*
Y007000D01*
X042550D01*
X042250Y006700D01*
D02*
G37*
G36*
X049100Y006100D02*
X048550D01*
X048850Y006400D01*
X048550Y006700D01*
X049100D01*
Y006100D01*
D02*
G37*
G36*
X048750Y006400D02*
X048450Y006100D01*
X048200D01*
Y006700D01*
X048450D01*
X048750Y006400D01*
D02*
G37*
%LPC*%
G36*
X048954Y012800D02*
X048800D01*
Y012646D01*
X048832Y012652D01*
X048901Y012699D01*
X048948Y012768D01*
X048954Y012800D01*
D02*
G37*
G36*
X048700D02*
X048546D01*
X048552Y012768D01*
X048599Y012699D01*
X048668Y012652D01*
X048700Y012646D01*
Y012800D01*
D02*
G37*
G36*
X053393Y013178D02*
X053239D01*
Y013024D01*
X053271Y013031D01*
X053340Y013077D01*
X053387Y013146D01*
X053393Y013178D01*
D02*
G37*
G36*
X053139D02*
X052985D01*
X052991Y013146D01*
X053038Y013077D01*
X053107Y013031D01*
X053139Y013024D01*
Y013178D01*
D02*
G37*
G36*
X053415Y012881D02*
X053383Y012875D01*
X053313Y012828D01*
X053267Y012759D01*
X053261Y012727D01*
X053415D01*
Y012881D01*
D02*
G37*
G36*
Y012627D02*
X053261D01*
X053267Y012595D01*
X053313Y012526D01*
X053383Y012479D01*
X053415Y012473D01*
Y012627D01*
D02*
G37*
G36*
X053239Y012330D02*
Y012176D01*
X053393D01*
X053387Y012208D01*
X053340Y012277D01*
X053271Y012324D01*
X053239Y012330D01*
D02*
G37*
G36*
X053139D02*
X053107Y012324D01*
X053038Y012277D01*
X052991Y012208D01*
X052985Y012176D01*
X053139D01*
Y012330D01*
D02*
G37*
G36*
X053393Y012076D02*
X053239D01*
Y011922D01*
X053271Y011928D01*
X053340Y011975D01*
X053387Y012044D01*
X053393Y012076D01*
D02*
G37*
G36*
X053139D02*
X052985D01*
X052991Y012044D01*
X053038Y011975D01*
X053107Y011928D01*
X053139Y011922D01*
Y012076D01*
D02*
G37*
G36*
X053515Y011779D02*
Y011625D01*
X053669D01*
X053662Y011657D01*
X053616Y011726D01*
X053546Y011772D01*
X053515Y011779D01*
D02*
G37*
G36*
X053415D02*
X053383Y011772D01*
X053313Y011726D01*
X053267Y011657D01*
X053261Y011625D01*
X053415D01*
Y011779D01*
D02*
G37*
G36*
X053669Y011525D02*
X053515D01*
Y011371D01*
X053546Y011377D01*
X053616Y011424D01*
X053662Y011493D01*
X053669Y011525D01*
D02*
G37*
G36*
X053415D02*
X053261D01*
X053267Y011493D01*
X053313Y011424D01*
X053383Y011377D01*
X053415Y011371D01*
Y011525D01*
D02*
G37*
G36*
X053690Y011228D02*
X053658Y011221D01*
X053589Y011175D01*
X053542Y011106D01*
X053536Y011074D01*
X053690D01*
Y011228D01*
D02*
G37*
G36*
X053239D02*
Y011074D01*
X053393D01*
X053387Y011106D01*
X053340Y011175D01*
X053271Y011221D01*
X053239Y011228D01*
D02*
G37*
G36*
X053139D02*
X053107Y011221D01*
X053038Y011175D01*
X052991Y011106D01*
X052985Y011074D01*
X053139D01*
Y011228D01*
D02*
G37*
G36*
X053690Y010974D02*
X053536D01*
X053542Y010942D01*
X053589Y010872D01*
X053658Y010826D01*
X053690Y010820D01*
Y010974D01*
D02*
G37*
G36*
X053393D02*
X053239D01*
Y010820D01*
X053271Y010826D01*
X053340Y010872D01*
X053387Y010942D01*
X053393Y010974D01*
D02*
G37*
G36*
X053139D02*
X052985D01*
X052991Y010942D01*
X053038Y010872D01*
X053107Y010826D01*
X053139Y010820D01*
Y010974D01*
D02*
G37*
G36*
X053515Y010676D02*
Y010522D01*
X053669D01*
X053662Y010554D01*
X053616Y010624D01*
X053546Y010670D01*
X053515Y010676D01*
D02*
G37*
G36*
X053415D02*
X053383Y010670D01*
X053313Y010624D01*
X053267Y010554D01*
X053261Y010522D01*
X053415D01*
Y010676D01*
D02*
G37*
G36*
X052963D02*
Y010522D01*
X053117D01*
X053111Y010554D01*
X053065Y010624D01*
X052995Y010670D01*
X052963Y010676D01*
D02*
G37*
G36*
X052863D02*
X052832Y010670D01*
X052762Y010624D01*
X052716Y010554D01*
X052709Y010522D01*
X052863D01*
Y010676D01*
D02*
G37*
G36*
X052412D02*
Y010522D01*
X052566D01*
X052560Y010554D01*
X052513Y010624D01*
X052444Y010670D01*
X052412Y010676D01*
D02*
G37*
G36*
X052312D02*
X052280Y010670D01*
X052211Y010624D01*
X052165Y010554D01*
X052158Y010522D01*
X052312D01*
Y010676D01*
D02*
G37*
G36*
X051861D02*
Y010522D01*
X052015D01*
X052009Y010554D01*
X051962Y010624D01*
X051893Y010670D01*
X051861Y010676D01*
D02*
G37*
G36*
X051761D02*
X051729Y010670D01*
X051660Y010624D01*
X051613Y010554D01*
X051607Y010522D01*
X051761D01*
Y010676D01*
D02*
G37*
G36*
X053669Y010422D02*
X053515D01*
Y010268D01*
X053546Y010275D01*
X053616Y010321D01*
X053662Y010391D01*
X053669Y010422D01*
D02*
G37*
G36*
X053415D02*
X053261D01*
X053267Y010391D01*
X053313Y010321D01*
X053383Y010275D01*
X053415Y010268D01*
Y010422D01*
D02*
G37*
G36*
X053117D02*
X052963D01*
Y010268D01*
X052995Y010275D01*
X053065Y010321D01*
X053111Y010391D01*
X053117Y010422D01*
D02*
G37*
G36*
X052863D02*
X052709D01*
X052716Y010391D01*
X052762Y010321D01*
X052832Y010275D01*
X052863Y010268D01*
Y010422D01*
D02*
G37*
G36*
X050808Y010270D02*
X050650D01*
Y010112D01*
X050808D01*
Y010270D01*
D02*
G37*
G36*
X052015Y010422D02*
X051607D01*
X051613Y010391D01*
X051660Y010321D01*
X051729Y010275D01*
X051766Y010267D01*
X051814Y010190D01*
X051815Y010163D01*
Y010020D01*
X051944D01*
Y010188D01*
X051929D01*
X051912Y010288D01*
X051962Y010321D01*
X052009Y010391D01*
X052015Y010422D01*
D02*
G37*
G36*
X029342Y013068D02*
X029174D01*
Y012792D01*
X029342D01*
Y013068D01*
D02*
G37*
G36*
X029074D02*
X028906D01*
Y012792D01*
X029074D01*
Y013068D01*
D02*
G37*
G36*
X030300Y012938D02*
Y012780D01*
X030458D01*
Y012938D01*
X030300D01*
D02*
G37*
G36*
X029750D02*
X029592D01*
Y012780D01*
X029750D01*
Y012938D01*
D02*
G37*
G36*
X029342Y012692D02*
X029174D01*
Y012416D01*
X029342D01*
Y012692D01*
D02*
G37*
G36*
X029074D02*
X028906D01*
Y012416D01*
X029074D01*
Y012692D01*
D02*
G37*
G36*
X030042Y012938D02*
X029942Y012938D01*
X029850D01*
Y012730D01*
X029800D01*
Y012680D01*
X029592D01*
Y012522D01*
X029592D01*
X029632Y012438D01*
X029632Y012422D01*
Y012102D01*
X029728D01*
Y011629D01*
X029728Y011628D01*
X029690Y011572D01*
X029677Y011506D01*
X029690Y011440D01*
X029728Y011384D01*
X029784Y011346D01*
X029850Y011333D01*
X029916Y011346D01*
X029972Y011384D01*
X030010Y011440D01*
X030023Y011506D01*
X030010Y011572D01*
X029972Y011628D01*
X029972Y011629D01*
Y012148D01*
X030082D01*
Y012102D01*
X030418D01*
Y012422D01*
X030418Y012438D01*
X030458Y012522D01*
X030458D01*
Y012680D01*
X030250D01*
Y012730D01*
X030200D01*
Y012938D01*
X030042D01*
D02*
G37*
G36*
X028946Y012044D02*
X028846Y012044D01*
X028572Y012044D01*
X028472Y012044D01*
X028198D01*
Y011472D01*
X028458D01*
X028478Y011463D01*
X028552Y011371D01*
X028552Y011368D01*
X028552D01*
Y011034D01*
X028540Y011016D01*
X028527Y010950D01*
X028540Y010884D01*
X028578Y010828D01*
X028634Y010790D01*
X028700Y010777D01*
X028766Y010790D01*
X028822Y010828D01*
X028860Y010884D01*
X028870Y010935D01*
X028871Y010939D01*
X028871Y010939D01*
X028873Y010950D01*
X028888Y011032D01*
X028888D01*
Y011368D01*
X028888D01*
X028879Y011468D01*
X028882Y011471D01*
X029018Y011472D01*
X029021Y011468D01*
X029012Y011368D01*
X029012D01*
Y011032D01*
X029348D01*
Y011368D01*
X029272D01*
Y011472D01*
X029302D01*
Y012044D01*
X028946Y012044D01*
D02*
G37*
G36*
X042200Y011807D02*
Y011600D01*
X042279D01*
Y011650D01*
X042263Y011728D01*
X042219Y011794D01*
X042200Y011807D01*
D02*
G37*
G36*
X026550Y011038D02*
X026392D01*
Y010880D01*
X026550D01*
Y011038D01*
D02*
G37*
G36*
X026278Y011032D02*
X026100D01*
Y010682D01*
X026278D01*
Y011032D01*
D02*
G37*
G36*
X038082Y010225D02*
X038042Y010217D01*
X037966Y010166D01*
X037915Y010090D01*
X037907Y010050D01*
X038082D01*
Y010225D01*
D02*
G37*
G36*
X019727Y009996D02*
X019551Y009973D01*
X019564Y009872D01*
X019741Y009896D01*
X019727Y009996D01*
D02*
G37*
G36*
X038290Y009500D02*
X038132D01*
Y009342D01*
X038290D01*
Y009500D01*
D02*
G37*
G36*
X020908Y008938D02*
X020750D01*
Y008780D01*
X020908D01*
Y008938D01*
D02*
G37*
G36*
X020650D02*
X020492D01*
Y008780D01*
X020650D01*
Y008938D01*
D02*
G37*
G36*
X037956Y009084D02*
X037818D01*
Y008743D01*
X037956D01*
Y009084D01*
D02*
G37*
G36*
Y008643D02*
X037818D01*
Y008303D01*
X037956D01*
Y008643D01*
D02*
G37*
G36*
X037718Y009084D02*
X037562D01*
Y008693D01*
Y008303D01*
X037718D01*
Y008693D01*
Y009084D01*
D02*
G37*
G36*
X037750Y008125D02*
X037710Y008117D01*
X037634Y008066D01*
X037583Y007990D01*
X037575Y007950D01*
X037750D01*
Y008125D01*
D02*
G37*
G36*
X052685Y009380D02*
X052556D01*
Y009212D01*
X052685D01*
Y009380D01*
D02*
G37*
G36*
X051944D02*
X051815D01*
Y009212D01*
X051944D01*
Y009380D01*
D02*
G37*
G36*
X055873Y009320D02*
X055719D01*
Y009166D01*
X055751Y009172D01*
X055821Y009219D01*
X055867Y009288D01*
X055873Y009320D01*
D02*
G37*
G36*
X055619D02*
X055465D01*
X055472Y009288D01*
X055518Y009219D01*
X055587Y009172D01*
X055619Y009166D01*
Y009320D01*
D02*
G37*
G36*
X055995Y009023D02*
Y008869D01*
X056149D01*
X056143Y008901D01*
X056096Y008970D01*
X056027Y009017D01*
X055995Y009023D01*
D02*
G37*
G36*
X055895D02*
X055863Y009017D01*
X055794Y008970D01*
X055747Y008901D01*
X055741Y008869D01*
X055895D01*
Y009023D01*
D02*
G37*
G36*
X055444D02*
Y008869D01*
X055598D01*
X055591Y008901D01*
X055545Y008970D01*
X055476Y009017D01*
X055444Y009023D01*
D02*
G37*
G36*
X055344D02*
X055312Y009017D01*
X055242Y008970D01*
X055196Y008901D01*
X055190Y008869D01*
X055344D01*
Y009023D01*
D02*
G37*
G36*
X054893D02*
Y008869D01*
X055047D01*
X055040Y008901D01*
X054994Y008970D01*
X054924Y009017D01*
X054893Y009023D01*
D02*
G37*
G36*
X054793D02*
X054761Y009017D01*
X054691Y008970D01*
X054645Y008901D01*
X054639Y008869D01*
X054793D01*
Y009023D01*
D02*
G37*
G36*
X054341D02*
Y008869D01*
X054495D01*
X054489Y008901D01*
X054443Y008970D01*
X054373Y009017D01*
X054341Y009023D01*
D02*
G37*
G36*
X054241D02*
X054209Y009017D01*
X054140Y008970D01*
X054094Y008901D01*
X054087Y008869D01*
X054241D01*
Y009023D01*
D02*
G37*
G36*
X052588D02*
X052556Y009017D01*
X052487Y008970D01*
X052440Y008901D01*
X052434Y008869D01*
X052588D01*
Y009023D01*
D02*
G37*
G36*
X052137D02*
Y008869D01*
X052291D01*
X052284Y008901D01*
X052238Y008970D01*
X052168Y009017D01*
X052137Y009023D01*
D02*
G37*
G36*
X052037D02*
X052005Y009017D01*
X051935Y008970D01*
X051889Y008901D01*
X051883Y008869D01*
X052037D01*
Y009023D01*
D02*
G37*
G36*
X053872Y008819D02*
X053700D01*
Y008651D01*
X053872D01*
Y008819D01*
D02*
G37*
G36*
X051522D02*
X051350D01*
Y008651D01*
X051522D01*
Y008819D01*
D02*
G37*
G36*
X056149Y008769D02*
X055995D01*
Y008615D01*
X056027Y008621D01*
X056096Y008668D01*
X056143Y008737D01*
X056149Y008769D01*
D02*
G37*
G36*
X055895D02*
X055741D01*
X055747Y008737D01*
X055794Y008668D01*
X055863Y008621D01*
X055895Y008615D01*
Y008769D01*
D02*
G37*
G36*
X055598D02*
X055444D01*
Y008615D01*
X055476Y008621D01*
X055545Y008668D01*
X055591Y008737D01*
X055598Y008769D01*
D02*
G37*
G36*
X055344D02*
X055190D01*
X055196Y008737D01*
X055242Y008668D01*
X055312Y008621D01*
X055344Y008615D01*
Y008769D01*
D02*
G37*
G36*
X055047D02*
X054893D01*
Y008615D01*
X054924Y008621D01*
X054994Y008668D01*
X055040Y008737D01*
X055047Y008769D01*
D02*
G37*
G36*
X054793D02*
X054639D01*
X054645Y008737D01*
X054691Y008668D01*
X054761Y008621D01*
X054793Y008615D01*
Y008769D01*
D02*
G37*
G36*
X054495D02*
X054341D01*
Y008615D01*
X054373Y008621D01*
X054443Y008668D01*
X054489Y008737D01*
X054495Y008769D01*
D02*
G37*
G36*
X054241D02*
X054087D01*
X054094Y008737D01*
X054140Y008668D01*
X054209Y008621D01*
X054241Y008615D01*
Y008769D01*
D02*
G37*
G36*
X052588D02*
X052434D01*
X052440Y008737D01*
X052487Y008668D01*
X052556Y008621D01*
X052588Y008615D01*
Y008769D01*
D02*
G37*
G36*
X052291D02*
X052137D01*
Y008615D01*
X052168Y008621D01*
X052238Y008668D01*
X052284Y008737D01*
X052291Y008769D01*
D02*
G37*
G36*
X052037D02*
X051883D01*
X051889Y008737D01*
X051935Y008668D01*
X052005Y008621D01*
X052037Y008615D01*
Y008769D01*
D02*
G37*
G36*
X053515Y008472D02*
Y008318D01*
X053669D01*
X053662Y008350D01*
X053616Y008419D01*
X053546Y008465D01*
X053515Y008472D01*
D02*
G37*
G36*
X053415D02*
X053383Y008465D01*
X053313Y008419D01*
X053267Y008350D01*
X053261Y008318D01*
X053415D01*
Y008472D01*
D02*
G37*
G36*
X052963D02*
Y008318D01*
X053117D01*
X053111Y008350D01*
X053065Y008419D01*
X052995Y008465D01*
X052963Y008472D01*
D02*
G37*
G36*
X052863D02*
X052832Y008465D01*
X052762Y008419D01*
X052716Y008350D01*
X052709Y008318D01*
X052863D01*
Y008472D01*
D02*
G37*
G36*
X052412D02*
Y008318D01*
X052566D01*
X052560Y008350D01*
X052513Y008419D01*
X052444Y008465D01*
X052412Y008472D01*
D02*
G37*
G36*
X052312D02*
X052280Y008465D01*
X052211Y008419D01*
X052165Y008350D01*
X052158Y008318D01*
X052312D01*
Y008472D01*
D02*
G37*
G36*
X051861D02*
Y008318D01*
X052015D01*
X052009Y008350D01*
X051962Y008419D01*
X051893Y008465D01*
X051861Y008472D01*
D02*
G37*
G36*
X051761D02*
X051729Y008465D01*
X051660Y008419D01*
X051613Y008350D01*
X051607Y008318D01*
X051761D01*
Y008472D01*
D02*
G37*
G36*
X051310D02*
Y008318D01*
X051464D01*
X051458Y008350D01*
X051411Y008419D01*
X051342Y008465D01*
X051310Y008472D01*
D02*
G37*
G36*
X051210D02*
X051178Y008465D01*
X051109Y008419D01*
X051062Y008350D01*
X051056Y008318D01*
X051210D01*
Y008472D01*
D02*
G37*
G36*
X053669Y008218D02*
X053515D01*
Y008064D01*
X053546Y008070D01*
X053616Y008116D01*
X053662Y008186D01*
X053669Y008218D01*
D02*
G37*
G36*
X053415D02*
X053261D01*
X053267Y008186D01*
X053313Y008116D01*
X053383Y008070D01*
X053415Y008064D01*
Y008218D01*
D02*
G37*
G36*
X053117D02*
X052963D01*
Y008064D01*
X052995Y008070D01*
X053065Y008116D01*
X053111Y008186D01*
X053117Y008218D01*
D02*
G37*
G36*
X052863D02*
X052709D01*
X052716Y008186D01*
X052762Y008116D01*
X052832Y008070D01*
X052863Y008064D01*
Y008218D01*
D02*
G37*
G36*
X052566D02*
X052412D01*
Y008064D01*
X052444Y008070D01*
X052513Y008116D01*
X052560Y008186D01*
X052566Y008218D01*
D02*
G37*
G36*
X052312D02*
X052158D01*
X052165Y008186D01*
X052211Y008116D01*
X052280Y008070D01*
X052312Y008064D01*
Y008218D01*
D02*
G37*
G36*
X052015D02*
X051861D01*
Y008064D01*
X051893Y008070D01*
X051962Y008116D01*
X052009Y008186D01*
X052015Y008218D01*
D02*
G37*
G36*
X051761D02*
X051607D01*
X051613Y008186D01*
X051660Y008116D01*
X051729Y008070D01*
X051761Y008064D01*
Y008218D01*
D02*
G37*
G36*
X051464D02*
X051310D01*
Y008064D01*
X051342Y008070D01*
X051411Y008116D01*
X051458Y008186D01*
X051464Y008218D01*
D02*
G37*
G36*
X051210D02*
X051056D01*
X051062Y008186D01*
X051109Y008116D01*
X051178Y008070D01*
X051210Y008064D01*
Y008218D01*
D02*
G37*
G36*
X050658Y008170D02*
X050500D01*
Y008012D01*
X050658D01*
Y008170D01*
D02*
G37*
G36*
X050400D02*
X050242D01*
Y008012D01*
X050400D01*
Y008170D01*
D02*
G37*
%LPD*%
D14*
X049762Y007540D02*
X049960Y007342D01*
Y006658D02*
Y007342D01*
X049621Y006319D02*
X049960Y006658D01*
X055192Y010048D02*
X055279Y010135D01*
X055192Y009792D02*
Y010048D01*
X055000Y009600D02*
X055192Y009792D01*
X053717Y009600D02*
X055000D01*
X053617Y009700D02*
X053717Y009600D01*
X049450Y006300D02*
X049469Y006319D01*
X049621D01*
X048956Y007540D02*
X049762D01*
X048748Y007748D02*
X048956Y007540D01*
X048748Y007748D02*
Y007933D01*
X048739Y007942D02*
X048748Y007933D01*
X017938Y010448D02*
X018035Y010544D01*
Y010549D02*
X018173Y010687D01*
X017938Y010448D02*
X018400Y008000D01*
X050800Y009696D02*
X050804Y009700D01*
X050800Y009231D02*
Y009696D01*
X051267Y009700D02*
X051300Y009667D01*
Y009231D02*
Y009667D01*
X053500Y009632D02*
X053548D01*
X053617Y009700D01*
Y009265D02*
X053650Y009231D01*
X053617Y009265D02*
Y009700D01*
X053150Y009667D02*
X053183Y009700D01*
X053150Y009231D02*
Y009667D01*
X055279Y010135D02*
X055392D01*
X052644Y009700D02*
X053183D01*
X051267D02*
X051834D01*
X051805Y009671D02*
X051834Y009700D01*
X051856D01*
X050712Y009792D02*
X050804Y009700D01*
X049408Y009792D02*
X050712D01*
D15*
X038750Y012400D02*
X038762Y012412D01*
X043300Y013050D02*
X043350D01*
X019050Y013300D02*
X025450D01*
X025500Y013250D01*
X018404Y012654D02*
X019050Y013300D01*
X046750Y011300D02*
X046830D01*
X046850Y011320D01*
X025500Y013250D02*
X025525Y013225D01*
X022278Y012813D02*
Y013250D01*
X026600Y012780D02*
Y012950D01*
Y012780D02*
X027100D01*
X025500Y013250D02*
X026300D01*
X025550Y012908D02*
Y013200D01*
X018414Y011964D02*
Y012654D01*
X018349Y011899D02*
X018414Y011964D01*
X018242Y011899D02*
X018349D01*
X026300Y013250D02*
X026600Y012950D01*
D16*
X047920Y007150D02*
X047950D01*
X047150Y006950D02*
X047750D01*
X046550Y006350D02*
X047150Y006950D01*
X043125Y006350D02*
X046550D01*
X047760Y007471D02*
Y007690D01*
X043250Y012339D02*
X043404Y012184D01*
X045850Y009450D02*
X046100Y009200D01*
X018171Y011389D02*
X018767D01*
X046333Y009200D02*
X046334Y009202D01*
X046057Y009005D02*
X046692D01*
X045573Y009489D02*
X046057Y009005D01*
X045817Y009665D02*
X046152D01*
X045802Y009650D02*
X045817Y009665D01*
X045800Y009650D02*
X045802D01*
X046152Y009665D02*
X046174Y009643D01*
X046536D01*
X046100Y009200D02*
X046333D01*
X046202Y009460D02*
X046250Y009412D01*
X046200Y009458D02*
X046250Y009408D01*
Y009400D02*
Y009408D01*
Y009400D02*
Y009412D01*
X046288Y009450D01*
X046250Y009400D02*
Y009412D01*
X046288Y009450D02*
X046292Y009446D01*
X046200Y009458D02*
X046202Y009460D01*
X046253Y009409D01*
X046200Y009462D02*
X046202Y009460D01*
X045934Y010186D02*
X046692D01*
X043056Y008066D02*
X043080Y008090D01*
Y008632D01*
X043163Y008832D02*
X043375Y008620D01*
X043071Y008832D02*
X043163D01*
X043042Y008860D02*
X043071Y008832D01*
X042978Y008860D02*
X043042D01*
X042968Y008850D02*
X042978Y008860D01*
X042617Y008850D02*
X042968D01*
X042607Y008860D02*
X042617Y008850D01*
X042535Y008860D02*
X042607D01*
X042700Y009050D02*
X042800D01*
X042407Y009560D02*
X042579D01*
X040100Y011867D02*
Y012300D01*
Y011867D02*
X042407Y009560D01*
X047750Y006950D02*
X047872Y007072D01*
X048345Y011095D02*
X048500Y011250D01*
X049385Y012200D02*
X050570D01*
X047900Y011337D02*
X048154Y011591D01*
X047900Y011117D02*
Y011337D01*
Y011117D02*
X047910Y011107D01*
Y010700D02*
Y011107D01*
X047952Y007552D02*
Y007942D01*
X042650Y012450D02*
X042700D01*
X042752Y012398D01*
X050700Y008450D02*
X050775Y008525D01*
X043644Y012099D02*
Y012131D01*
Y012099D02*
X043650Y012093D01*
X043271Y012360D02*
X043300D01*
X043250Y012339D02*
X043271Y012360D01*
X041600Y011000D02*
X041700D01*
X041425Y011175D02*
X041600Y011000D01*
X038650Y011383D02*
Y011950D01*
X037000Y009733D02*
X038650Y011383D01*
X044091Y011883D02*
X044650Y011324D01*
Y011098D02*
Y011324D01*
Y011098D02*
X045089Y010659D01*
X044450Y011100D02*
Y011200D01*
X038850Y011350D02*
Y011375D01*
X048050Y009300D02*
X048739Y009989D01*
X032673Y013460D02*
X043640D01*
X032633Y013500D02*
X032673Y013460D01*
X032467Y013500D02*
X032633D01*
X032427Y013460D02*
X032467Y013500D01*
X027658Y013460D02*
X032427D01*
X043640D02*
X044689Y012411D01*
X032550Y013200D02*
Y013300D01*
Y013200D02*
X032650Y013100D01*
X024000Y013038D02*
Y013050D01*
X024012D01*
X020250Y012450D02*
X020350D01*
X019455Y011655D02*
X020250Y012450D01*
X019277Y011655D02*
X019455D01*
X020295Y012095D02*
X020341Y012141D01*
X019637Y011437D02*
X020295Y012095D01*
X019325Y011437D02*
X019637D01*
X020260Y011860D02*
X020343D01*
X020495Y012013D01*
Y012027D02*
X020819Y012350D01*
X020495Y012013D02*
Y012027D01*
X044950Y010450D02*
X045650D01*
X018735Y011116D02*
Y011155D01*
X044550Y010850D02*
X044950Y010450D01*
X018735Y011116D02*
X018893Y010958D01*
X018700Y011400D02*
X018756D01*
X018767Y011389D01*
X019319Y012197D02*
X020122Y013000D01*
X020111D02*
X020122D01*
X036875Y011675D02*
X036950Y011750D01*
X036794Y011906D02*
X036950Y011750D01*
X037150Y011567D02*
Y011900D01*
X035918Y011750D02*
X036218Y011450D01*
X037033D02*
X037150Y011567D01*
X036218Y011450D02*
X037033D01*
X032237Y011625D02*
Y011800D01*
Y011625D02*
X032300Y011688D01*
X031962Y012075D02*
X032237Y011800D01*
X032300Y011650D02*
Y011688D01*
X026370Y011700D02*
X026600Y011470D01*
X025112Y011700D02*
X026370D01*
X024648Y011236D02*
X025112Y011700D01*
X025150Y010938D02*
Y011250D01*
X025066Y011484D02*
X025284D01*
X024800Y011219D02*
X025066Y011484D01*
X043445Y009816D02*
X044129D01*
X044182Y009869D01*
X044050Y009564D02*
X044750Y008863D01*
X044050Y009564D02*
Y009600D01*
X044399Y009468D02*
Y009513D01*
Y009468D02*
X044567Y009300D01*
X044600D02*
X044900Y009000D01*
X044567Y009300D02*
X044600D01*
X045741Y009709D02*
X045800Y009650D01*
X045730Y009709D02*
X045741D01*
X045675Y010659D02*
X045716Y010700D01*
X045089Y010659D02*
X045675D01*
X045716Y010700D02*
X046050D01*
X045865Y009465D02*
X045900D01*
X045910Y008808D02*
X046692D01*
X045678Y008611D02*
X046692D01*
X045593Y009125D02*
X045910Y008808D01*
X045460Y008400D02*
X046678D01*
X046300Y012680D02*
X046450D01*
X049933Y008600D02*
X050050D01*
X049408Y008611D02*
X049456Y008563D01*
X050271Y008385D02*
X050336Y008450D01*
X049408Y008414D02*
X049438Y008385D01*
X050271D01*
X049800Y008150D02*
Y008200D01*
X049783Y008217D02*
X049800Y008200D01*
X049837Y008505D02*
X049933Y008600D01*
X049456Y008563D02*
X049613D01*
X049672Y008505D02*
X049837D01*
X049666Y008511D02*
X049672Y008505D01*
X049666Y008511D02*
Y008511D01*
X049716Y008704D02*
X049754D01*
X049712Y008700D02*
X049716Y008704D01*
X049613Y008563D02*
X049666Y008511D01*
X048300Y007467D02*
X048435Y007332D01*
Y007100D02*
Y007332D01*
X048310Y007643D02*
Y007906D01*
X048300Y007633D02*
X048310Y007643D01*
X048180Y007410D02*
Y007682D01*
X047950Y007180D02*
X048180Y007410D01*
X047760Y007690D02*
X047800Y007730D01*
X047953Y007550D02*
X047980Y007577D01*
X047800Y007730D02*
Y007788D01*
X047980Y007577D02*
Y007628D01*
X048190Y007692D02*
Y007900D01*
X048180Y007682D02*
X048190Y007692D01*
X048300Y007467D02*
Y007633D01*
X047450Y007180D02*
Y007650D01*
X047252Y007252D02*
Y007663D01*
X047330Y007741D01*
Y007884D01*
X047460Y007589D02*
X047473D01*
X047550Y007666D01*
X048500Y007550D02*
Y007900D01*
X048700Y007400D02*
X049365D01*
X048582Y007282D02*
X048700Y007400D01*
X050100Y006450D02*
Y007500D01*
X049920Y007680D02*
X050100Y007500D01*
X049041Y007680D02*
X049920D01*
X050450Y006550D02*
Y007350D01*
X050000Y007800D02*
X050450Y007350D01*
X049274Y007800D02*
X050000D01*
X045468Y010010D02*
X045928D01*
X045518Y010130D02*
X045879D01*
X045567Y010250D02*
X045829D01*
X045527Y010290D02*
X045567Y010250D01*
X045478Y010170D02*
X045518Y010130D01*
X045458Y010020D02*
X045468Y010010D01*
X045416Y010020D02*
X045458D01*
X044370Y010170D02*
X045478D01*
X044122Y010290D02*
X045527D01*
X045829Y010250D02*
X045962Y010383D01*
X045879Y010130D02*
X045934Y010186D01*
X045968Y010050D02*
X046474D01*
X045928Y010010D02*
X045968Y010050D01*
X044991Y010926D02*
X045350D01*
X044800Y011117D02*
Y011354D01*
Y011117D02*
X044991Y010926D01*
X045402Y011300D02*
X045700D01*
X046350Y010750D02*
Y010900D01*
X045000Y011200D02*
X045150D01*
X044550Y010850D02*
Y011000D01*
X044450Y011100D02*
X044550Y011000D01*
X046474Y010050D02*
X046487Y010037D01*
X045962Y010383D02*
X046692D01*
X045211Y009815D02*
X045416Y010020D01*
X045211Y008267D02*
Y009815D01*
X036444Y011906D02*
X036794D01*
X037512Y011257D02*
X037560D01*
X033400Y011156D02*
Y011300D01*
X033550Y011650D02*
X034050D01*
X034082Y011682D01*
X034067Y011473D02*
X034332D01*
X034044Y011450D02*
X034067Y011473D01*
X033550Y011450D02*
X034044D01*
X034332Y011473D02*
X034609Y011750D01*
X037300Y013050D02*
X037450D01*
X037830Y012670D01*
X032650Y011450D02*
Y013100D01*
X032600Y011500D02*
X032650Y011450D01*
X033132Y010718D02*
Y010758D01*
X033137Y010753D01*
X033267D01*
X033300Y010720D01*
X046498Y011048D02*
Y011963D01*
X046411Y012050D02*
X046498Y011963D01*
X045870Y012050D02*
X046411D01*
X046350Y010900D02*
X046498Y011048D01*
X046644Y010037D02*
X046692Y009989D01*
X046487Y010037D02*
X046644D01*
X043974Y010142D02*
X044122Y010290D01*
X045850Y009450D02*
X045865Y009465D01*
X044182Y009982D02*
X044370Y010170D01*
X046750Y010876D02*
X046967Y010658D01*
X046750Y010876D02*
Y010900D01*
X050750Y008550D02*
X050775Y008525D01*
X050500Y011550D02*
X051064D01*
X050831Y012497D02*
X050967Y012361D01*
X050831Y012497D02*
Y012575D01*
X051064Y011550D02*
X051930Y012416D01*
X049503Y011856D02*
Y011866D01*
X049100Y011453D02*
X049503Y011856D01*
X049008Y011855D02*
X049168Y012015D01*
X049200D01*
X049008Y011855D02*
X049080D01*
X049200Y012015D02*
X049385Y012200D01*
X046998Y012424D02*
Y012832D01*
X046800Y013030D02*
X046998Y012832D01*
X042400Y011200D02*
X042420Y011180D01*
X045710Y007290D02*
Y007583D01*
Y007290D02*
X046250Y006750D01*
X045462Y007830D02*
X045600Y007692D01*
X045710Y007583D01*
X046550Y006750D02*
X047132Y007332D01*
X046250Y006750D02*
X046550D01*
X046600Y006600D02*
X047252Y007252D01*
X045708Y006600D02*
X046600D01*
X045600Y006708D02*
X045708Y006600D01*
X048148Y007942D02*
X048190Y007900D01*
X047950Y007180D02*
X047950D01*
Y007150D02*
Y007180D01*
X047740Y007472D02*
X047741D01*
X047750Y007481D01*
X047760Y007471D01*
X048310Y007906D02*
X048345Y007942D01*
X047952Y007552D02*
X047953Y007550D01*
X047550Y007666D02*
X047558Y007658D01*
X042420Y009830D02*
Y011180D01*
X043357Y009904D02*
Y009936D01*
Y009904D02*
X043445Y009816D01*
X039065Y012118D02*
X039243Y012296D01*
X039065Y011785D02*
Y012118D01*
X039042Y008287D02*
X039121Y008366D01*
X039042Y008275D02*
Y008287D01*
X038968Y008201D02*
X039042Y008275D01*
X041360Y007500D02*
X042034Y006827D01*
X039627Y007500D02*
X041360D01*
X039298Y007829D02*
X039627Y007500D01*
X036744Y010494D02*
Y011007D01*
X036650Y010400D02*
X036744Y010494D01*
X036333Y010400D02*
X036650D01*
X035725Y011008D02*
X036333Y010400D01*
X037000Y010550D02*
Y011007D01*
X036650Y010200D02*
X037000Y010550D01*
X036300Y010200D02*
X036650D01*
X035398Y011102D02*
X036300Y010200D01*
X036800Y010000D02*
X037256Y010456D01*
X036270Y010000D02*
X036800D01*
X035600Y010670D02*
X036270Y010000D01*
X037768Y011007D02*
Y011208D01*
X037830Y011271D01*
Y011700D01*
X037256Y011007D02*
Y011208D01*
X037333Y011286D01*
Y011663D01*
X037370Y011700D01*
X037570Y011316D02*
X037600Y011345D01*
X037570Y011267D02*
Y011316D01*
X037560Y011257D02*
X037570Y011267D01*
X037600Y011345D02*
Y011850D01*
X037500Y011950D02*
X037600Y011850D01*
X037200Y011950D02*
X037500D01*
X037150Y011900D02*
X037200Y011950D01*
X035344Y011500D02*
X035725Y011119D01*
Y011008D02*
Y011119D01*
X034650Y011500D02*
X035344D01*
X019450Y013050D02*
X019500Y013100D01*
X019282Y012882D02*
X019450Y013050D01*
X019282Y012395D02*
Y012882D01*
X035150Y007500D02*
X035963Y008313D01*
X036614D01*
X036744Y008443D02*
Y008693D01*
X036614Y008313D02*
X036744Y008443D01*
X042250Y009350D02*
Y009500D01*
X042579Y009560D02*
X042715Y009696D01*
X043424D01*
X043691Y009600D02*
X043808Y009483D01*
X043520Y009600D02*
X043691D01*
X043424Y009696D02*
X043520Y009600D01*
X046583Y009595D02*
X046692D01*
X046536Y009643D02*
X046583Y009595D01*
X045044Y008100D02*
X045211Y008267D01*
X044800Y008100D02*
X045044D01*
X044240Y007540D02*
X044800Y008100D01*
X044182Y009869D02*
Y009982D01*
X037256Y008693D02*
Y009756D01*
X038850Y011350D01*
X039600Y012296D02*
X039699Y012395D01*
X041425Y011175D02*
Y011550D01*
X047558Y007658D02*
Y007942D01*
X042910Y007090D02*
X042937D01*
X042787Y007213D02*
X042910Y007090D01*
X042787Y007213D02*
Y007438D01*
X042775Y007450D02*
X042787Y007438D01*
X042937Y007090D02*
X042967Y007060D01*
X044187D01*
X044240Y007113D01*
Y007540D01*
X044750Y008650D02*
X045000Y008400D01*
X044750Y008650D02*
Y008863D01*
X040105Y011645D02*
X042250Y009500D01*
X043808Y009399D02*
X043843Y009364D01*
X043886D02*
X043974Y009276D01*
X043843Y009364D02*
X043886D01*
X043808Y009399D02*
Y009483D01*
X039205Y011645D02*
X040105D01*
X039065Y011785D02*
X039205Y011645D01*
X039243Y012296D02*
X039600D01*
X037000Y008693D02*
Y009733D01*
X043974Y009158D02*
Y009276D01*
X043314Y009936D02*
X043357D01*
X043226Y010024D02*
X043314Y009936D01*
X040100Y012300D02*
X040200Y012400D01*
X040600D01*
X040850Y012650D01*
X040250D02*
X040350D01*
X039995Y012395D02*
X040250Y012650D01*
X039699Y012395D02*
X039995D01*
X044025Y008300D02*
Y009107D01*
X043974Y009158D02*
X044025Y009107D01*
X034082Y011682D02*
Y012075D01*
X050450Y006500D02*
Y006550D01*
X049247Y007828D02*
X049274Y007800D01*
X049162Y007828D02*
X049247D01*
X049133Y007857D02*
X049162Y007828D01*
X049133Y007857D02*
Y007942D01*
X031720Y012075D02*
X031962D01*
X043226Y010024D02*
Y010142D01*
X042800Y009050D02*
X042908Y009158D01*
X044900Y008950D02*
X044922Y008928D01*
Y008907D02*
Y008928D01*
Y008907D02*
X045000Y008829D01*
X044900Y008950D02*
Y009000D01*
X044350Y009562D02*
X044399Y009513D01*
X044350Y009562D02*
Y009600D01*
X044650Y009500D02*
X044837Y009313D01*
X044944D01*
X045000Y009257D01*
X036444Y011906D02*
Y012075D01*
X045350Y010926D02*
X045400D01*
X044091Y011883D02*
Y012485D01*
X044689Y011465D02*
X044800Y011354D01*
X044689Y011465D02*
Y012411D01*
X044866Y011457D02*
Y011888D01*
Y011457D02*
X044917Y011407D01*
X044866Y011888D02*
X044938Y011960D01*
X044917Y011407D02*
X045339D01*
X045459Y011527D01*
X044938Y011960D02*
Y012531D01*
X044956Y012550D01*
X045459Y011527D02*
X045498D01*
X045606Y011635D01*
X045634Y011702D02*
X046222D01*
X045744Y012176D02*
X045870Y012050D01*
X045094Y012044D02*
X045500Y012450D01*
X045094Y011674D02*
Y012044D01*
X037830Y011700D02*
Y012670D01*
X026902Y010448D02*
X027006Y010344D01*
X026902Y010448D02*
Y011616D01*
X049408Y008217D02*
X049783D01*
X049633Y008779D02*
X049712Y008700D01*
X049437Y008779D02*
X049633D01*
X049408Y008808D02*
X049437Y008779D01*
X045573Y009489D02*
Y009507D01*
X045430Y009650D02*
X045573Y009507D01*
X025800Y011500D02*
X025900D01*
X025800D02*
X025832Y011468D01*
Y010295D02*
Y011468D01*
Y010295D02*
X025930Y010197D01*
Y009950D02*
Y010197D01*
X048984Y007737D02*
X049041Y007680D01*
X048984Y007737D02*
Y007773D01*
X048965Y007792D02*
X048984Y007773D01*
X048965Y007792D02*
Y007804D01*
X048919Y007850D02*
X048965Y007804D01*
X048907Y007850D02*
X048919D01*
X048907D02*
X048936Y007879D01*
Y007942D01*
X049580Y006770D02*
X049700D01*
X049400Y006950D02*
X049580Y006770D01*
X049400Y006950D02*
Y007365D01*
X027100Y012780D02*
X027450Y012430D01*
Y011600D02*
Y012430D01*
X027182Y011732D02*
X027246D01*
X027298Y011784D02*
Y012224D01*
X027246Y011732D02*
X027298Y011784D01*
X027118Y011668D02*
X027182Y011732D01*
X027263Y012259D02*
X027298Y012224D01*
X027161Y012259D02*
X027263D01*
X027100Y012320D02*
X027161Y012259D01*
X026954Y011668D02*
X027118D01*
X026902Y011616D02*
X026954Y011668D01*
X027022Y011852D02*
X027100Y011930D01*
X026968Y011852D02*
X027022D01*
X026782Y011665D02*
X026968Y011852D01*
X026782Y011652D02*
Y011665D01*
X026600Y011470D02*
X026782Y011652D01*
X025284Y011484D02*
X025550Y011218D01*
Y010632D02*
Y011218D01*
X024648Y010730D02*
Y011236D01*
X024800Y010200D02*
Y011219D01*
X025148Y010936D02*
X025150Y010938D01*
X025148Y010730D02*
Y010936D01*
X025050Y010632D02*
X025148Y010730D01*
X024550Y010632D02*
X024648Y010730D01*
X050336Y008450D02*
X050700D01*
X046850Y012238D02*
Y012276D01*
X046750Y012138D02*
X046850Y012238D01*
X046750Y012100D02*
Y012138D01*
X043594Y012037D02*
X043647Y011985D01*
X043404Y011986D02*
X043450Y011941D01*
X043404Y011986D02*
Y012184D01*
X043594Y012037D02*
X043650Y012093D01*
X042752Y012398D02*
X042992D01*
X048500Y007900D02*
X048542Y007942D01*
X018035Y010544D02*
Y010549D01*
X018173Y010687D02*
X018264D01*
X018202Y011155D02*
X018735D01*
X048582Y007247D02*
Y007282D01*
X048435Y007100D02*
X048582Y007247D01*
X020819Y012350D02*
X023562D01*
X020600Y011900D02*
X020700D01*
X019652Y010952D02*
X020600Y011900D01*
X023562Y012350D02*
X023678Y012465D01*
Y012728D01*
X023951Y013001D01*
X023963D01*
X024000Y013038D01*
X019587Y011187D02*
X020260Y011860D01*
X019340Y011187D02*
X019587D01*
X020250Y012800D02*
X020450D01*
X019377Y011927D02*
X020250Y012800D01*
X044000Y012576D02*
X044091Y012485D01*
X047361Y007915D02*
Y007942D01*
X047330Y007884D02*
X047361Y007915D01*
X047164Y007832D02*
Y007942D01*
X047132Y007800D02*
X047164Y007832D01*
X047132Y007332D02*
Y007800D01*
X047755Y007833D02*
X047800Y007788D01*
X047755Y007833D02*
Y007942D01*
X049745Y009005D02*
X049750Y009000D01*
X049848Y009202D02*
X050050Y009000D01*
X049408Y009202D02*
X049848D01*
X045150Y011200D02*
X045203Y011253D01*
X045355D01*
X045402Y011300D01*
X049408Y009005D02*
X049745D01*
X019023Y011277D02*
Y011474D01*
X018873Y011623D02*
X019023Y011474D01*
X018140Y011623D02*
X018873D01*
X049950Y009300D02*
X050050D01*
X049852Y009398D02*
X049950Y009300D01*
X049408Y009398D02*
X049852D01*
X048325Y006990D02*
X048435Y007100D01*
X048325Y006400D02*
Y006990D01*
X049365Y007400D02*
X049400Y007365D01*
X046850Y012276D02*
X046998Y012424D01*
X043927Y012576D02*
X044000D01*
X043908Y012595D02*
X043927Y012576D01*
X045500Y012450D02*
X046050D01*
X046222Y011702D02*
X046300Y011780D01*
X045606Y011674D02*
X045634Y011702D01*
X044072Y011558D02*
X044150Y011480D01*
X044029Y011558D02*
X044072D01*
X043710Y011877D02*
X044029Y011558D01*
X043666Y011877D02*
X043710D01*
X043647Y011896D02*
X043666Y011877D01*
X043647Y011896D02*
Y011941D01*
X043450Y011730D02*
X043700Y011480D01*
X043450Y011730D02*
Y011941D01*
X040950Y011550D02*
X041425D01*
X040350Y012150D02*
X040950Y011550D01*
X019875Y008721D02*
X020326Y008270D01*
X020700D01*
X048739Y009989D02*
X049408D01*
X047755Y009595D02*
X048050Y009300D01*
X047755Y009595D02*
Y010658D01*
X045606Y011635D02*
Y011674D01*
X046200Y012300D02*
X046530D01*
X046800Y012570D01*
X046050Y012450D02*
X046200Y012300D01*
X046450Y012680D02*
X046800Y013030D01*
X046300Y012570D02*
Y012680D01*
X042125Y008300D02*
Y008425D01*
X042064Y008486D02*
X042125Y008425D01*
X038969Y008486D02*
X042064D01*
X038787Y008304D02*
X038969Y008486D01*
X038787Y008292D02*
Y008304D01*
X038713Y008218D02*
X038787Y008292D01*
X038713Y008108D02*
Y008218D01*
X039684Y008366D02*
X040164Y007886D01*
X039121Y008366D02*
X039684D01*
X038968Y008091D02*
Y008201D01*
X040164Y007886D02*
X041144D01*
X041580Y007450D01*
X042125D01*
X039298Y007829D02*
Y007882D01*
X039224Y007956D02*
X039298Y007882D01*
X039224Y007956D02*
Y008074D01*
X042034Y006827D02*
X042060D01*
Y006800D02*
Y006827D01*
Y006800D02*
X042125Y006735D01*
Y006700D02*
Y006735D01*
X042899Y006576D02*
X043125Y006350D01*
X042840Y006576D02*
X042899D01*
X042775Y006640D02*
X042840Y006576D01*
X042775Y006640D02*
Y006700D01*
X047872Y007072D02*
Y007102D01*
X047920Y007150D01*
X042200Y007700D02*
X042225D01*
X042152Y007652D02*
X042200Y007700D01*
X042152Y007477D02*
Y007652D01*
X042125Y007450D02*
X042152Y007477D01*
X042225Y007700D02*
X042365Y007840D01*
X042985D01*
X043251Y007574D01*
X043310D01*
X043375Y007510D01*
Y007450D02*
Y007510D01*
X043925Y007840D02*
X044025Y007740D01*
X043283Y007840D02*
X043925D01*
X044025Y007450D02*
Y007740D01*
X043056Y008066D02*
X043283Y007840D01*
X042300Y008625D02*
X042535Y008860D01*
X043375Y008300D02*
Y008620D01*
X042908Y009158D02*
X043226D01*
X042225Y008525D02*
Y008540D01*
X042125Y008425D02*
X042225Y008525D01*
Y008540D02*
X042260Y008575D01*
X042265D01*
X042300Y008610D01*
Y008625D01*
X043226Y009076D02*
Y009158D01*
X046200Y009458D02*
Y009462D01*
X046253Y009405D02*
Y009409D01*
X046292Y009446D02*
X046536D01*
X045460Y009257D02*
X045593Y009125D01*
X045460Y008829D02*
X045678Y008611D01*
X046678Y008400D02*
X046692Y008414D01*
X046555D02*
X046692D01*
X036488Y008693D02*
Y009562D01*
X035770Y010280D02*
X036488Y009562D01*
X035120Y008500D02*
Y009930D01*
X034600Y009550D02*
X035050Y010000D01*
X034200Y009550D02*
X034600D01*
X033952Y009302D02*
X034200Y009550D01*
X033952Y009302D02*
X033952D01*
X033837Y009187D02*
X033952Y009302D01*
X033300Y009612D02*
X033725Y009187D01*
X046334Y009202D02*
X046692D01*
X018233Y010921D02*
X018274Y010962D01*
X046536Y009446D02*
X046583Y009398D01*
X046692D01*
X019371Y010952D02*
X019652D01*
X019309Y011421D02*
X019325Y011437D01*
X050967Y012263D02*
X051030Y012200D01*
X050967Y012263D02*
Y012361D01*
X050743Y012663D02*
X050831Y012575D01*
X050665Y012663D02*
X050743D01*
X047910Y010700D02*
X047952Y010658D01*
X048148Y010748D02*
X048150Y010750D01*
X048148Y010658D02*
Y010748D01*
X048150Y010750D02*
Y011112D01*
X048100Y011162D02*
X048150Y011112D01*
X048100Y011162D02*
Y011200D01*
X048345Y010658D02*
Y011095D01*
X043647Y011941D02*
Y011985D01*
X019284Y011927D02*
X019377D01*
X019246Y011889D02*
X019284Y011927D01*
X019319Y012161D02*
Y012197D01*
X019281Y012123D02*
X019319Y012161D01*
X019215Y012123D02*
X019281D01*
X019184Y012357D02*
X019244D01*
X019282Y012395D01*
X034600Y011450D02*
X034650Y011500D01*
X034594Y011450D02*
X034600D01*
X034300Y011156D02*
X034594Y011450D01*
X034944Y011350D02*
X035324D01*
X035398Y011276D01*
Y011102D02*
Y011276D01*
X034750Y011156D02*
X034944Y011350D01*
X034609Y011750D02*
X035918D01*
X033400Y011300D02*
X033550Y011450D01*
X034996Y010000D02*
X035050D01*
X034300Y010696D02*
X034996Y010000D01*
X033620Y011016D02*
X033670Y010966D01*
Y010850D02*
Y010966D01*
Y010850D02*
X033850Y010670D01*
X033620Y011295D02*
X033655Y011330D01*
X033620Y011016D02*
Y011295D01*
X033464Y011002D02*
X033550Y010916D01*
X033464Y011002D02*
Y011016D01*
X033300Y011180D02*
X033464Y011016D01*
X033655Y011330D02*
X033994D01*
X033550Y010626D02*
Y010916D01*
X033994Y011330D02*
X034137Y011187D01*
X034269D01*
X034300Y011156D01*
X034080Y010900D02*
X034650D01*
X033850Y011130D02*
X034080Y010900D01*
X034650D02*
X034950D01*
X035102Y011052D01*
X035122D01*
X035200Y011130D01*
X034828Y010774D02*
X034844D01*
X034750Y010696D02*
X034828Y010774D01*
X034650Y010900D02*
X034691Y010859D01*
Y010755D02*
Y010859D01*
Y010755D02*
X034750Y010696D01*
X033300Y009612D02*
Y010720D01*
X033550Y010626D02*
X034203Y009973D01*
X034327D01*
X034406Y009894D01*
X034432D01*
X035200Y010670D02*
X035600D01*
X035200Y010150D02*
Y010670D01*
X037256Y010456D02*
Y011007D01*
X035050Y010000D02*
X035200Y010150D01*
X035050Y010000D02*
X035120Y009930D01*
X025603Y010277D02*
Y010580D01*
Y010277D02*
X025930Y009950D01*
X025550Y010632D02*
X025603Y010580D01*
X033725Y009187D02*
X033837D01*
X035550Y010280D02*
X035770D01*
X035550Y009380D02*
Y009820D01*
X028720Y011728D02*
X028750Y011758D01*
X028720Y011200D02*
Y011728D01*
X029124Y011758D02*
X029180Y011702D01*
Y011200D02*
Y011702D01*
X026600Y011930D02*
Y012320D01*
X027100D01*
X026050Y012683D02*
Y012768D01*
Y012683D02*
X026148Y012585D01*
X026233D01*
X026437Y012381D01*
X026539D01*
X026600Y012320D01*
X025525Y013225D02*
X025550Y013200D01*
Y012768D02*
Y012908D01*
X025030Y009950D02*
X025470D01*
X025030Y010612D02*
X025050Y010632D01*
X025030Y009950D02*
Y010612D01*
X018200Y011857D02*
X018242Y011899D01*
X018109Y011857D02*
X018200D01*
X048700Y011026D02*
Y011050D01*
X049100Y010831D02*
Y011453D01*
X051930Y012416D02*
Y012500D01*
X052000Y012570D01*
X048590Y010916D02*
X048700Y011026D01*
X048590Y010814D02*
Y010916D01*
X048542Y010767D02*
X048590Y010814D01*
X048542Y010658D02*
Y010767D01*
X051335Y013037D02*
X051993D01*
X052000Y013030D01*
X049408Y010383D02*
Y010708D01*
X049897Y011197D01*
X051335Y012663D02*
X051350Y012648D01*
X049100Y010831D02*
X049104Y010827D01*
Y010687D02*
Y010827D01*
Y010687D02*
X049133Y010658D01*
X045462Y006570D02*
X045600Y006708D01*
X044900Y006570D02*
X045462D01*
X044900Y007830D02*
X045462D01*
X044900Y007030D02*
Y007370D01*
X046830Y007630D02*
X046938Y007738D01*
Y007913D01*
X046830Y007450D02*
Y007630D01*
X048620Y011650D02*
X048700Y011570D01*
X048154Y011650D02*
X048620D01*
X047546Y011800D02*
X047650Y011904D01*
X048225Y012362D02*
Y012500D01*
Y012362D02*
X048254Y012333D01*
Y011800D02*
Y012333D01*
X047502Y011594D02*
X047558Y011538D01*
Y010658D02*
Y011538D01*
D17*
X037768Y008693D02*
D03*
X037512D02*
D03*
X037256D02*
D03*
X037000D02*
D03*
X036744D02*
D03*
X036488D02*
D03*
X036232D02*
D03*
Y011007D02*
D03*
X036488D02*
D03*
X036744D02*
D03*
X037000D02*
D03*
X037256D02*
D03*
X037512D02*
D03*
X037768D02*
D03*
D18*
X049503Y011334D02*
D03*
Y011866D02*
D03*
X049897D02*
D03*
Y011334D02*
D03*
D19*
X046300Y011780D02*
D03*
Y011320D02*
D03*
X052000Y013030D02*
D03*
Y012570D02*
D03*
X050150Y010780D02*
D03*
Y010320D02*
D03*
X050600Y010780D02*
D03*
Y010320D02*
D03*
X050450Y008680D02*
D03*
Y008220D02*
D03*
X049700Y006770D02*
D03*
Y007230D02*
D03*
X047950Y007180D02*
D03*
Y006720D02*
D03*
X047450D02*
D03*
Y007180D02*
D03*
X044900Y006570D02*
D03*
Y007030D02*
D03*
Y007830D02*
D03*
Y007370D02*
D03*
X046850Y011320D02*
D03*
Y011780D02*
D03*
X046800Y012570D02*
D03*
Y013030D02*
D03*
X046300Y012570D02*
D03*
Y013030D02*
D03*
X044150Y011480D02*
D03*
Y011020D02*
D03*
X043700Y011480D02*
D03*
Y011020D02*
D03*
X043150Y011480D02*
D03*
Y011020D02*
D03*
X042750Y011480D02*
D03*
Y011020D02*
D03*
X035550Y009380D02*
D03*
Y008920D02*
D03*
Y010280D02*
D03*
Y009820D02*
D03*
X035200Y010670D02*
D03*
Y011130D02*
D03*
X034750Y011156D02*
D03*
Y010696D02*
D03*
X034300Y011156D02*
D03*
Y010696D02*
D03*
X033850Y011130D02*
D03*
Y010670D02*
D03*
X033300Y010720D02*
D03*
Y011180D02*
D03*
X030250Y012730D02*
D03*
Y012270D02*
D03*
X029800Y012730D02*
D03*
Y012270D02*
D03*
X027100Y012780D02*
D03*
Y012320D02*
D03*
X026600D02*
D03*
Y012780D02*
D03*
Y011930D02*
D03*
Y011470D02*
D03*
Y010830D02*
D03*
Y010370D02*
D03*
X027100Y011930D02*
D03*
Y011470D02*
D03*
X020700Y008730D02*
D03*
Y008270D02*
D03*
X048700Y012030D02*
D03*
Y011570D02*
D03*
D20*
X048254Y011800D02*
D03*
X047546D02*
D03*
D21*
X029180Y011200D02*
D03*
X028720D02*
D03*
X050570Y012150D02*
D03*
X051030D02*
D03*
X046830Y007450D02*
D03*
X046370D02*
D03*
X045460Y008400D02*
D03*
X045000D02*
D03*
X045460Y008829D02*
D03*
X045000D02*
D03*
X045460Y009257D02*
D03*
X045000D02*
D03*
X044970Y009650D02*
D03*
X045430D02*
D03*
X038340Y009950D02*
D03*
X038800D02*
D03*
Y009550D02*
D03*
X038340D02*
D03*
X035580Y008500D02*
D03*
X035120D02*
D03*
X025470Y009950D02*
D03*
X025930D02*
D03*
X024570D02*
D03*
X025030D02*
D03*
X037830Y011700D02*
D03*
X037370D02*
D03*
D22*
X054882Y011455D02*
D03*
X055518Y011545D02*
D03*
D23*
X055392Y010135D02*
D03*
X055008Y012865D02*
D03*
D24*
X051335Y013037D02*
D03*
Y012663D02*
D03*
X050665D02*
D03*
Y013037D02*
D03*
D25*
X051267Y009700D02*
D03*
X050833D02*
D03*
X053617D02*
D03*
X053183D02*
D03*
D26*
X053150Y008869D02*
D03*
Y009231D02*
D03*
X053650Y008869D02*
D03*
Y009231D02*
D03*
X051300Y008869D02*
D03*
Y009231D02*
D03*
X050800Y008869D02*
D03*
Y009231D02*
D03*
D27*
X051994Y009970D02*
D03*
X052250D02*
D03*
X052506D02*
D03*
X051994Y009430D02*
D03*
X052250D02*
D03*
X052506D02*
D03*
D28*
X052644Y009700D02*
D03*
X051856D02*
D03*
D29*
X048325Y006400D02*
D03*
X048975D02*
D03*
X048125Y012550D02*
D03*
X047475D02*
D03*
X044025Y008300D02*
D03*
X043375D02*
D03*
X044025Y007450D02*
D03*
X043375D02*
D03*
X042775Y008300D02*
D03*
X042125D02*
D03*
X042775Y007450D02*
D03*
X042125D02*
D03*
X042775Y006700D02*
D03*
X042125D02*
D03*
X042075Y011550D02*
D03*
X041425D02*
D03*
D30*
X049065Y007100D02*
D03*
X048435D02*
D03*
D31*
X045600Y007692D02*
D03*
Y006708D02*
D03*
D32*
X046967Y007942D02*
D03*
X047164D02*
D03*
X047361D02*
D03*
X047558D02*
D03*
X047755D02*
D03*
X047952D02*
D03*
X048148D02*
D03*
X048345D02*
D03*
X048542D02*
D03*
X048739D02*
D03*
X048936D02*
D03*
X049133D02*
D03*
Y010658D02*
D03*
X048936D02*
D03*
X048739D02*
D03*
X048542D02*
D03*
X048345D02*
D03*
X048148D02*
D03*
X047952D02*
D03*
X047755D02*
D03*
X047558D02*
D03*
X047361D02*
D03*
X047164D02*
D03*
X046967D02*
D03*
D33*
X049408Y008217D02*
D03*
Y008414D02*
D03*
Y008611D02*
D03*
Y008808D02*
D03*
Y009005D02*
D03*
Y009202D02*
D03*
Y009398D02*
D03*
Y009595D02*
D03*
Y009792D02*
D03*
Y009989D02*
D03*
Y010186D02*
D03*
Y010383D02*
D03*
X046692D02*
D03*
Y010186D02*
D03*
Y009989D02*
D03*
Y009792D02*
D03*
Y009595D02*
D03*
Y009398D02*
D03*
Y009202D02*
D03*
Y009005D02*
D03*
Y008808D02*
D03*
Y008611D02*
D03*
Y008414D02*
D03*
Y008217D02*
D03*
D34*
X048050Y009300D02*
D03*
D35*
X045400Y010926D02*
D03*
X045144Y011674D02*
D03*
X045656D02*
D03*
D36*
X044956Y012550D02*
D03*
X045744Y012924D02*
D03*
Y012176D02*
D03*
D37*
X043647Y011941D02*
D03*
X043450D02*
D03*
X043253D02*
D03*
Y012659D02*
D03*
X043450D02*
D03*
X043647D02*
D03*
D38*
X042992Y012005D02*
D03*
Y012202D02*
D03*
Y012398D02*
D03*
Y012595D02*
D03*
X043908D02*
D03*
Y012398D02*
D03*
Y012202D02*
D03*
Y012005D02*
D03*
D39*
X043974Y010142D02*
D03*
X043600D02*
D03*
X043226D02*
D03*
Y009158D02*
D03*
X043600D02*
D03*
X043974D02*
D03*
D40*
X038458Y008125D02*
D03*
X038713Y008108D02*
D03*
X038968Y008091D02*
D03*
X039224Y008074D02*
D03*
X039479Y008058D02*
D03*
D41*
X037088Y007090D02*
D03*
X040702Y006853D02*
D03*
D42*
X036444Y012075D02*
D03*
X034082D02*
D03*
X031720D02*
D03*
D43*
X028376Y012742D02*
D03*
X029124D02*
D03*
Y011758D02*
D03*
X028750D02*
D03*
X028376D02*
D03*
D44*
X026050Y012768D02*
D03*
X025550D02*
D03*
X025050D02*
D03*
X024550D02*
D03*
Y010632D02*
D03*
X025050D02*
D03*
X025550D02*
D03*
X026050D02*
D03*
D45*
X018551Y009493D02*
D03*
X018137Y012616D02*
D03*
D46*
X018388Y009750D02*
D03*
X018357Y009984D02*
D03*
X018326Y010218D02*
D03*
X018295Y010452D02*
D03*
X018264Y010687D02*
D03*
X018233Y010921D02*
D03*
X018202Y011155D02*
D03*
X018171Y011389D02*
D03*
X018140Y011623D02*
D03*
X018109Y011857D02*
D03*
X018078Y012092D02*
D03*
X018047Y012326D02*
D03*
D47*
X019495Y010016D02*
D03*
X019464Y010250D02*
D03*
X019433Y010484D02*
D03*
X019402Y010718D02*
D03*
X019371Y010952D02*
D03*
X019340Y011187D02*
D03*
X019309Y011421D02*
D03*
X019277Y011655D02*
D03*
X019246Y011889D02*
D03*
X019215Y012123D02*
D03*
X019184Y012357D02*
D03*
D48*
X039850Y012150D02*
D03*
Y012650D02*
D03*
X040350Y012150D02*
D03*
Y012650D02*
D03*
X040850Y012150D02*
D03*
Y012650D02*
D03*
D85*
X047250Y006750D02*
X047656D01*
X047686Y006720D01*
X050386Y013080D02*
X050429Y013037D01*
X047400Y012850D02*
X047630Y013080D01*
X050386D01*
X048750Y012080D02*
Y012850D01*
X048700Y012030D02*
X048750Y012080D01*
X047199Y011970D02*
Y012135D01*
X047019Y012044D02*
Y012233D01*
X046898Y011923D02*
X047019Y012044D01*
X047078Y011849D02*
X047199Y011970D01*
X047078Y011622D02*
Y011849D01*
X046898Y011828D02*
Y011923D01*
X050105Y009595D02*
X050300Y009400D01*
X046938Y007913D02*
Y007971D01*
X046810Y007430D02*
X046830D01*
X042075Y011550D02*
X043080D01*
X042475Y012720D02*
X042700D01*
X041840Y012085D02*
X042475Y012720D01*
X019387Y010617D02*
X019402D01*
X019210Y010440D02*
X019387Y010617D01*
X039208Y011134D02*
Y011442D01*
X039155Y011495D02*
X039208Y011442D01*
X039143Y011495D02*
X039155D01*
X038915Y011723D02*
X039143Y011495D01*
X038915Y011723D02*
Y012180D01*
X046270Y007550D02*
X046370Y007450D01*
X047686Y006720D02*
X047693Y006713D01*
X047686Y006720D02*
X047700D01*
X047450D02*
X047686D01*
X039765Y011958D02*
Y012000D01*
Y011915D02*
Y011958D01*
X038044Y011106D02*
X038400Y011462D01*
X038570Y012220D02*
X038750Y012400D01*
X038400Y012061D02*
X038559Y012220D01*
X038400Y011462D02*
Y012061D01*
X045350Y010926D02*
X045421Y010997D01*
X027200Y011000D02*
Y011370D01*
X027100Y011470D02*
X027200Y011370D01*
X044950Y009600D02*
Y009630D01*
X044970Y009650D01*
X045928Y010997D02*
X046203Y011272D01*
X045421Y010997D02*
X045928D01*
X043350Y013000D02*
Y013050D01*
Y013000D02*
X043450Y012900D01*
X047148Y012362D02*
Y013098D01*
X047150Y013100D01*
X050155Y010785D02*
Y011530D01*
X050405Y011780D01*
X050586D02*
X050798Y011992D01*
X050405Y011780D02*
X050586D01*
X050350Y009450D02*
X050375Y009475D01*
X050155Y010785D02*
X050198Y010828D01*
X050150Y010780D02*
X050155Y010785D01*
X050350Y009350D02*
X050450Y009250D01*
X050198Y010848D02*
X050400Y011050D01*
X050198Y010828D02*
Y010848D01*
X050350Y009350D02*
Y009450D01*
X047164Y010658D02*
X047361D01*
X035550Y008530D02*
X035580Y008500D01*
X035550Y008530D02*
Y008920D01*
X042750Y011020D02*
X043150D01*
X024450Y011400D02*
X024550Y011500D01*
Y012768D01*
X029800Y012270D02*
X030250D01*
X024550Y012768D02*
Y012770D01*
X024618Y012838D01*
X024788D01*
X024812Y012862D01*
X024982D01*
X025050Y012794D01*
Y012768D02*
Y012794D01*
X018580Y013460D02*
X027658D01*
X017841Y012722D02*
X018580Y013460D01*
X038572Y010378D02*
Y010488D01*
Y010378D02*
X038784Y010166D01*
X038044Y011106D02*
X038050Y011100D01*
X038559Y012220D02*
X038570D01*
X046329Y009793D02*
X046691D01*
X046692Y009792D01*
X053750Y008500D02*
Y008769D01*
X053712Y008807D02*
X053750Y008769D01*
X053712Y008807D02*
Y008811D01*
X053654Y008869D02*
X053712Y008811D01*
X053650Y008869D02*
X053654D01*
X050250Y012800D02*
X050429Y012979D01*
X050607D01*
X050665Y013037D01*
X050250Y012584D02*
Y012800D01*
Y012584D02*
X050409Y012425D01*
X050691D01*
X050798Y012318D01*
Y011992D02*
Y012318D01*
X047019Y012233D02*
X047148Y012362D01*
X042861Y012879D02*
X043061D01*
X042860Y012880D02*
X042861Y012879D01*
X042700Y012720D02*
X042845D01*
X042700D02*
X042860Y012880D01*
X046378Y006978D02*
X046782Y007382D01*
Y007402D01*
X046810Y007430D01*
X046830D02*
Y007450D01*
X046799Y008110D02*
X046938Y007971D01*
X046799Y008110D02*
Y008216D01*
X046798Y008217D02*
X046799Y008216D01*
X046692Y008217D02*
X046798D01*
X048800Y006600D02*
Y006619D01*
X047693Y006713D02*
X047700Y006720D01*
X037983Y007650D02*
X038458Y008125D01*
X035838Y006838D02*
X036650Y007650D01*
X037983D01*
X037800Y007900D02*
Y007950D01*
X037768Y007982D02*
X037800Y007950D01*
X037768Y007982D02*
Y008693D01*
X050800Y008869D02*
X051300D01*
X043908Y012202D02*
Y012398D01*
X043450Y012659D02*
Y012900D01*
X043595Y012398D02*
X043908D01*
X043478Y012516D02*
X043595Y012398D01*
X043478Y012516D02*
Y012574D01*
X043253Y012659D02*
X043450D01*
X049700Y007200D02*
Y007230D01*
X047700Y006720D02*
X047950D01*
X046270Y007550D02*
X046300D01*
X044700Y007350D02*
X044880D01*
X044900Y007370D01*
X046850Y011780D02*
X046898Y011828D01*
X047199Y012135D02*
X047328Y012264D01*
Y012370D01*
X047373D01*
X047475Y012472D01*
X047060Y011604D02*
X047078Y011622D01*
X045931Y013030D02*
X046300D01*
X045923Y013022D02*
X045931Y013030D01*
X045841Y013022D02*
X045923D01*
X045744Y012924D02*
X045841Y013022D01*
X038132Y010000D02*
X038221D01*
X038223Y009998D01*
X038292D01*
X038340Y009950D01*
X043600Y010142D02*
Y010260D01*
X043542Y010318D02*
X043600Y010260D01*
X043534Y010318D02*
X043542D01*
X043464Y010389D02*
X043534Y010318D01*
X043464Y010389D02*
Y010428D01*
X043150Y010742D02*
X043464Y010428D01*
X043150Y010742D02*
Y011020D01*
X038915Y012180D02*
X039181Y012446D01*
X039766Y012001D02*
Y012014D01*
X039765Y012000D02*
X039766Y012001D01*
Y012014D02*
X039850Y012099D01*
Y012150D01*
X039181Y012446D02*
X039538D01*
X039637Y012545D01*
X039694D01*
X039799Y012650D01*
X039850D01*
X039687Y007850D02*
X039700D01*
X039479Y008058D02*
X039687Y007850D01*
X038784Y009966D02*
Y010166D01*
Y009966D02*
X038800Y009950D01*
Y009550D02*
Y009950D01*
X036488Y010612D02*
Y011007D01*
X035150Y008000D02*
X035532Y008382D01*
Y008452D01*
X035580Y008500D01*
X028700Y010950D02*
Y011180D01*
X028720Y011200D01*
X029850Y011506D02*
Y012220D01*
X029800Y012270D02*
X029850Y012220D01*
X026550Y010150D02*
X026600Y010370D01*
X024550Y009800D02*
X024570Y009950D01*
X018357Y009984D02*
X018600Y010050D01*
X018357Y009984D02*
X018357D01*
X018600Y010050D02*
X018750D01*
X018326Y010218D02*
X018357Y009984D01*
X018388Y009750D01*
X018357Y009984D02*
X018388Y009750D01*
X018295Y010452D02*
X018326Y010218D01*
X042334Y009103D02*
X042777Y009546D01*
X042333Y009103D02*
X042334D01*
X041890Y008660D02*
X042333Y009103D01*
X042777Y009546D02*
X043362D01*
X040850Y012150D02*
X040886Y012114D01*
X043362Y009546D02*
X043464Y009444D01*
Y009412D02*
Y009444D01*
Y009412D02*
X043600Y009276D01*
Y009158D02*
Y009276D01*
X038823Y008660D02*
Y009073D01*
X039200Y009450D01*
X038489Y008325D02*
X038823Y008660D01*
X039200Y009450D02*
Y011126D01*
X039208Y011134D01*
X037796Y008722D02*
Y009006D01*
X037768Y008693D02*
X037796Y008722D01*
Y009006D02*
X038340Y009550D01*
X038823Y008660D02*
X041890D01*
X021717Y007746D02*
X035838Y006838D01*
X042845Y012720D02*
X042970Y012595D01*
X042992D01*
X050450Y008680D02*
Y009250D01*
X049408Y009595D02*
X050105D01*
X048975Y006400D02*
Y006520D01*
X049065Y006610D01*
Y007100D01*
X047060Y011110D02*
X047164Y011006D01*
X046850Y011320D02*
X047060Y011110D01*
Y011604D01*
X047475Y012472D02*
Y012550D01*
X043150Y011480D02*
X043562Y011068D01*
X043652D01*
X043700Y011020D01*
X044150D01*
X043253Y011918D02*
Y011941D01*
X043242Y011907D02*
X043253Y011918D01*
X043220Y011907D02*
X043242D01*
X043150Y011837D02*
X043220Y011907D01*
X043150Y011480D02*
Y011837D01*
X043080Y011550D02*
X043150Y011480D01*
X042063Y011562D02*
Y011862D01*
Y011562D02*
X042075Y011550D01*
X041840Y012085D02*
X042063Y011862D01*
X041015Y012085D02*
X041840D01*
X040986Y012114D02*
X041015Y012085D01*
X040886Y012114D02*
X040986D01*
X019402Y010617D02*
Y010718D01*
X019987Y007813D02*
X021650D01*
X019320Y008480D02*
X019987Y007813D01*
X019320Y008480D02*
Y008906D01*
X019210Y009015D02*
X019320Y008906D01*
X019210Y009015D02*
Y010440D01*
X021650Y007813D02*
X021717Y007746D01*
X046203Y011272D02*
X046252D01*
X046300Y011320D01*
X047164Y010658D02*
Y011006D01*
X038489Y008156D02*
Y008325D01*
X038458Y008125D02*
X038489Y008156D01*
X027658Y013460D02*
X028210Y012909D01*
X038340Y009650D02*
Y009850D01*
X029800Y012730D02*
X030250D01*
X029788Y012742D02*
X029800Y012730D01*
X029124Y012742D02*
X029788D01*
X017841Y012487D02*
Y012722D01*
Y012487D02*
X017932Y012396D01*
X017977D02*
X018047Y012326D01*
X017932Y012396D02*
X017977D01*
X026570Y010800D02*
X026600Y010830D01*
X026118Y010800D02*
X026570D01*
X026050Y010732D02*
X026118Y010800D01*
X026050Y010632D02*
Y010732D01*
X028210Y012909D02*
X028318D01*
X028376Y012850D01*
Y012742D02*
Y012850D01*
X018047Y012326D02*
X018078Y012295D01*
Y012092D02*
Y012295D01*
X019495Y010016D02*
Y010234D01*
X019464Y010047D02*
X019495Y010016D01*
X019464Y010047D02*
Y010250D01*
X049762Y010340D02*
Y010544D01*
X049608Y010187D02*
X049762Y010340D01*
X049409Y010187D02*
X049608D01*
X049408Y010186D02*
X049409Y010187D01*
X049926Y010708D02*
X050078D01*
X049762Y010544D02*
X049926Y010708D01*
X050150Y010780D02*
X050600D01*
D86*
X018875Y008721D02*
D03*
X019875D02*
D03*
D87*
X034432Y009894D02*
D03*
X034432Y009187D02*
D03*
X033725Y009187D02*
D03*
X033725Y009894D02*
D03*
D88*
X022278Y012813D02*
D03*
D89*
X023278D02*
D03*
D90*
X039350Y012800D02*
D03*
Y012000D02*
D03*
X041350Y012400D02*
D03*
D91*
X047250Y006750D02*
D03*
X048750Y012850D02*
D03*
X046250Y009400D02*
D03*
Y009850D02*
D03*
X043080Y008632D02*
D03*
X042700Y009050D02*
D03*
X042420Y009830D02*
D03*
X048500Y011250D02*
D03*
X042650Y012450D02*
D03*
X043644Y012131D02*
D03*
X043300Y012360D02*
D03*
X041700Y011000D02*
D03*
X044450Y011200D02*
D03*
X038850Y011375D02*
D03*
X038650Y011950D02*
D03*
X038750Y012400D02*
D03*
X039765Y011958D02*
D03*
X032550Y013300D02*
D03*
X024012Y013050D02*
D03*
X020295Y012095D02*
D03*
X018893Y010958D02*
D03*
X018700Y011400D02*
D03*
X055669Y009370D02*
D03*
X055945Y008819D02*
D03*
X055394D02*
D03*
X054843D02*
D03*
X054016Y009370D02*
D03*
X054291Y008819D02*
D03*
X053465Y012677D02*
D03*
Y011575D02*
D03*
X053740Y011024D02*
D03*
X053465Y010472D02*
D03*
Y008268D02*
D03*
X053189Y013228D02*
D03*
Y012126D02*
D03*
Y011024D02*
D03*
X052913Y010472D02*
D03*
Y008268D02*
D03*
X052362Y010472D02*
D03*
X052638Y008819D02*
D03*
X052362Y008268D02*
D03*
X051811Y010472D02*
D03*
X052087Y008819D02*
D03*
X051811Y008268D02*
D03*
X051260D02*
D03*
X020111Y013000D02*
D03*
X036875Y011675D02*
D03*
X032300Y011650D02*
D03*
X027200Y011000D02*
D03*
X025150Y011250D02*
D03*
X044050Y009600D02*
D03*
X044950D02*
D03*
X045730Y009709D02*
D03*
X045650Y010450D02*
D03*
X046050Y010700D02*
D03*
X045900Y009465D02*
D03*
X043350Y013050D02*
D03*
X047150Y013100D02*
D03*
X049754Y008704D02*
D03*
X049800Y008150D02*
D03*
X047980Y007628D02*
D03*
X047460Y007589D02*
D03*
X048500Y007550D02*
D03*
X045700Y011300D02*
D03*
X046350Y010750D02*
D03*
X045000Y011200D02*
D03*
X033550Y011650D02*
D03*
X024450Y011400D02*
D03*
X037300Y013050D02*
D03*
X032600Y011500D02*
D03*
X033132Y010718D02*
D03*
X038572Y010488D02*
D03*
X038050Y011100D02*
D03*
X046750Y011300D02*
D03*
Y010900D02*
D03*
X050050Y008600D02*
D03*
X050750Y008550D02*
D03*
X050500Y011550D02*
D03*
X049008Y011855D02*
D03*
X042400Y011200D02*
D03*
X047740Y007472D02*
D03*
X043600Y010142D02*
D03*
X049700Y007200D02*
D03*
X046300Y007550D02*
D03*
X044700Y007350D02*
D03*
X039700Y007850D02*
D03*
X036488Y010612D02*
D03*
X035150Y008000D02*
D03*
X028700Y010950D02*
D03*
X029850Y011506D02*
D03*
X026550Y010150D02*
D03*
X024550Y009800D02*
D03*
X048850Y008850D02*
D03*
Y009600D02*
D03*
X047728Y009412D02*
D03*
X047228D02*
D03*
X047750Y008550D02*
D03*
X047250D02*
D03*
X048200Y008850D02*
D03*
Y009600D02*
D03*
X019450Y013050D02*
D03*
X018750Y010050D02*
D03*
X035150Y007500D02*
D03*
X042750Y008550D02*
D03*
X042250Y009350D02*
D03*
X050450Y006550D02*
D03*
X044350Y009600D02*
D03*
X044650Y009500D02*
D03*
X025900Y011500D02*
D03*
X050100Y006450D02*
D03*
X027450Y011600D02*
D03*
X027006Y010344D02*
D03*
X024800Y010200D02*
D03*
X046750Y012100D02*
D03*
X018400Y008000D02*
D03*
X049450Y006300D02*
D03*
X020700Y011900D02*
D03*
X020350Y012450D02*
D03*
X020450Y012800D02*
D03*
X049750Y009000D02*
D03*
X019023Y011277D02*
D03*
X050050Y009000D02*
D03*
Y009300D02*
D03*
X018450Y010950D02*
D03*
X048100Y011200D02*
D03*
X048700Y011050D02*
D03*
D92*
X050375Y009475D02*
D03*
X050400Y011050D02*
D03*
X047400Y012850D02*
D03*
X043061Y012879D02*
D03*
X046378Y006978D02*
D03*
X048800Y006700D02*
D03*
X037800Y007900D02*
D03*
X038132Y010000D02*
D03*
M02*
