G04*
G04 #@! TF.GenerationSoftware,Altium Limited,Altium Designer,19.1.5 (86)*
G04*
G04 Layer_Color=417716*
%FSAX24Y24*%
%MOIN*%
G70*
G01*
G75*
%ADD13C,0.0079*%
%ADD14C,0.0100*%
%ADD16C,0.0060*%
D13*
X025419Y009867D02*
G03*
X025419Y009867I-000009J000000D01*
G01*
X027819D02*
G03*
X027819Y009867I-000009J000000D01*
G01*
X024291Y010152D02*
Y011648D01*
X025709Y010152D02*
Y011648D01*
X026691Y010152D02*
Y011648D01*
X028109Y010152D02*
Y011648D01*
D14*
X018761Y008070D02*
G03*
X020021Y008071I000629J001367D01*
G01*
X020019Y009330D02*
G03*
X018759Y009329I-000629J-001367D01*
G01*
X018350Y008691D02*
G03*
X018350Y008691I-000013J000000D01*
G01*
X033169Y010466D02*
G03*
X033169Y010466I-000013J000000D01*
G01*
X035142Y009541D02*
G03*
X035142Y009541I-001063J000000D01*
G01*
X033906Y010630D02*
Y011002D01*
X034233D01*
Y010592D02*
Y011002D01*
D16*
X027800Y012300D02*
Y012100D01*
X027700Y012000D01*
X027600Y012100D01*
Y012300D01*
X027500Y012000D02*
Y012300D01*
X027350D01*
X027300Y012250D01*
Y012150D01*
X027350Y012100D01*
X027500D01*
X027400D02*
X027300Y012000D01*
X027000D02*
X027200D01*
X027000Y012200D01*
Y012250D01*
X027050Y012300D01*
X027150D01*
X027200Y012250D01*
X025350Y012350D02*
Y012150D01*
X025250Y012050D01*
X025150Y012150D01*
Y012350D01*
X025050Y012050D02*
Y012350D01*
X024900D01*
X024850Y012300D01*
Y012200D01*
X024900Y012150D01*
X025050D01*
X024950D02*
X024850Y012050D01*
X024750D02*
X024650D01*
X024700D01*
Y012350D01*
X024750Y012300D01*
X033600Y011300D02*
Y011050D01*
X033550Y011000D01*
X033450D01*
X033400Y011050D01*
Y011300D01*
X033300Y011000D02*
X033200D01*
X033250D01*
Y011300D01*
X033300Y011250D01*
X019500Y009700D02*
Y009900D01*
X019550Y009950D01*
X019650D01*
X019700Y009900D01*
Y009700D01*
X019650Y009650D01*
X019550D01*
X019600Y009750D02*
X019500Y009650D01*
X019550D02*
X019500Y009700D01*
X019400Y009900D02*
X019350Y009950D01*
X019250D01*
X019200Y009900D01*
Y009850D01*
X019250Y009800D01*
X019300D01*
X019250D01*
X019200Y009750D01*
Y009700D01*
X019250Y009650D01*
X019350D01*
X019400Y009700D01*
M02*
