%FSTAX23Y23*%
%MOIN*%
%SFA1B1*%

%IPPOS*%
%ADD10C,0.010000*%
%ADD14C,0.006000*%
%ADD15C,0.000500*%
%ADD20R,0.021650X0.021650*%
%ADD21R,0.025590X0.060040*%
%ADD22R,0.021650X0.021650*%
%ADD23C,0.048000*%
%ADD24C,0.050000*%
%LNpcb1-1*%
%LPD*%
G54D10*
X02332Y01062D02*
Y01075D01*
X01895Y01258D02*
Y01296D01*
X01803Y01167D02*
X01895Y01258D01*
X0206Y01237D02*
X02065D01*
X02015D02*
X0206D01*
X0141Y01296D02*
X0146D01*
X0244D02*
X02515D01*
Y01287D02*
Y01296D01*
Y01241D02*
Y01287D01*
X02503Y01087D02*
X02515D01*
X0119Y0107D02*
X01235Y01025D01*
X02443Y01147D02*
X02503Y01087D01*
X02372Y01147D02*
X02443D01*
X0249Y01355D02*
X02507Y01338D01*
X02481Y01166D02*
X02488Y0117D01*
X02495D02*
X02525Y012D01*
X02488Y0117D02*
X02495D01*
X02481Y01166D02*
X02515Y01133D01*
X02332Y01057D02*
Y01062D01*
X02155Y01355D02*
X0216Y0136D01*
X02155Y0128D02*
Y01355D01*
X0206Y01283D02*
X02123Y01346D01*
X02146D02*
X02155Y01355D01*
X02123Y01346D02*
X02146D01*
X02182Y01332D02*
X0221Y0136D01*
X0216D02*
X0221D01*
X0138Y01065D02*
X01391D01*
X0141Y01083*
X01651Y01043D02*
X01673Y01065D01*
X01577Y01042D02*
X01578Y01043D01*
X01418Y01042D02*
X01577D01*
X01403Y01057D02*
X01418Y01042D01*
X01578Y01043D02*
X01651D01*
X01321Y01195D02*
X01323Y01193D01*
X01264Y01195D02*
X01321D01*
X0139Y0134D02*
X0141Y0132D01*
Y01296D02*
Y0132D01*
X01598Y01093D02*
X016Y01095D01*
X01597Y01092D02*
X01598Y01093D01*
X01596Y01093D02*
X01597Y01092D01*
X01594Y01095D02*
X01596Y01093D01*
X01598*
X0158D02*
X01596D01*
X01598Y01093D02*
X01627Y01065D01*
X01598Y01093D02*
X01598Y01093D01*
X0156Y01072D02*
X0158Y01093D01*
X01567Y01095D02*
X01594D01*
X0156Y01087D02*
X01567Y01095D01*
X0156Y01083D02*
Y01087D01*
X01545Y0115D02*
X01612D01*
X01635Y01127*
X01169Y01109D02*
X01354D01*
X01129Y0113D02*
X0133D01*
X01235Y01025D02*
X023D01*
X01071Y01071D02*
X01129Y0113D01*
X01445Y01245D02*
X015D01*
X0133Y0113D02*
X01445Y01245D01*
X0241Y0104D02*
X0244Y0107D01*
Y01083*
X02145Y0106D02*
Y01069D01*
X02132Y01048D02*
X02145Y0106D01*
X02084Y01048D02*
X02132D01*
X02063Y0107D02*
X02084Y01048D01*
X02145Y01069D02*
X02145Y01069D01*
Y01134*
X02111Y01169D02*
X02145Y01134D01*
X0211Y01169D02*
X02111D01*
X02085Y01194D02*
X0211Y01169D01*
X02085Y01194D02*
Y01215D01*
X02089Y01219*
Y01219*
X02111Y01242*
X02123*
X02146Y01265*
Y01271*
X02155Y0128*
X01952Y01283D02*
X01977D01*
X02015*
X01945Y01296D02*
X01947Y01293D01*
X01956Y01285*
X0211Y01275D02*
Y0128D01*
X02101Y01267D02*
X0211Y01275D01*
X02081Y01267D02*
X02101D01*
X021Y0111D02*
X02102Y01108D01*
Y0109D02*
Y01108D01*
Y0109D02*
X02109Y01084D01*
X02087Y01162D02*
X021Y0115D01*
X02075Y01162D02*
X02087D01*
X0207Y01168D02*
X02075Y01162D01*
X021Y0111D02*
Y0115D01*
X02175Y01313D02*
X02177Y01315D01*
X02175Y01263D02*
Y01313D01*
X02015Y01283D02*
X02022D01*
X02044Y01261*
X02075*
X02081Y01267*
X0173Y01328D02*
Y0135D01*
Y01328D02*
X01735Y01323D01*
X01768*
X01773Y01318*
X01787*
X01795Y0131*
Y01296D02*
Y0131D01*
X01673Y01065D02*
X01735Y01127D01*
X0202Y01168D02*
X0207D01*
X02063Y01098D02*
X02065Y011D01*
Y01117*
X0207Y01122*
X02063Y0107D02*
Y01098D01*
X02333Y0117D02*
X02488D01*
X0222Y01263D02*
X02278Y01205D01*
X0234Y01233D02*
Y01296D01*
X02295Y01131D02*
X02333Y0117D01*
X02252Y01185D02*
X02319D01*
X02311Y01205D02*
X0234Y01233D01*
X02278Y01205D02*
X02311D01*
X02295Y01088D02*
Y01131D01*
X0229Y0125D02*
X02295Y01245D01*
X0229Y0125D02*
Y01296D01*
X02324Y0119D02*
X0233D01*
X02319Y01185D02*
X02324Y0119D01*
X0222Y01217D02*
X02252Y01185D01*
X02175Y01217D02*
X0222D01*
X0233Y0119D02*
X0239Y0125D01*
X02182Y0132D02*
Y01332D01*
X02177Y01315D02*
X02182Y0132D01*
X02332Y01052D02*
Y01057D01*
X02337Y01062*
X023Y01025D02*
X02332Y01057D01*
X02007Y0108D02*
X02017Y0107D01*
X02Y0108D02*
X02007D01*
X02217Y01077D02*
Y01103D01*
X02215Y01075D02*
X02217Y01077D01*
X0196Y01068D02*
X01982D01*
X01945Y01083D02*
X0196Y01068D01*
X01945Y01083D02*
Y01105D01*
X01985Y01065D02*
X0199Y0107D01*
X02017*
X01982Y01068D02*
X01985Y01065D01*
X02133Y01203D02*
X02149Y01219D01*
X01099Y01255D02*
Y01284D01*
X01115Y013*
X01115Y013*
X0113Y0107D02*
X01169Y01109D01*
X01354D02*
X014Y01155D01*
X01843Y01084D02*
Y01175D01*
Y01084D02*
X01845Y01083D01*
X01843Y01175D02*
X01863Y01195D01*
X01984Y01203D02*
X0202Y01168D01*
X01883Y01203D02*
X01984D01*
X01874Y01195D02*
X01883Y01203D01*
X01863Y01195D02*
X01874D01*
X019Y01135D02*
Y01163D01*
Y01135D02*
X01904Y0113D01*
X01115Y013D02*
Y01303D01*
X01126Y01314*
Y01325*
X015Y01245D02*
X01608D01*
X01458Y01173D02*
X01635D01*
X0144Y01155D02*
X01458Y01173D01*
X015Y01245D02*
X0151Y01255D01*
X01956Y01285D02*
X01977D01*
X01945Y0129D02*
Y01296D01*
Y0129D02*
X01952Y01283D01*
X01915Y0124D02*
X02012D01*
X02015Y01237*
X0191Y0113D02*
X0192Y0114D01*
X01901Y01121D02*
X0191Y0113D01*
X01904D02*
X0191D01*
X01895Y01066D02*
Y01083D01*
X0169Y0128D02*
X01732D01*
X01735Y01277*
X01685Y01275D02*
X0169Y0128D01*
X01735Y01277D02*
X01777Y01235D01*
X0182*
X01842Y01257*
Y01294*
X01845Y01296*
X01897Y01257D02*
X01915Y0124D01*
X02217Y01103D02*
X0222Y01105D01*
Y01217*
X0192Y0114D02*
X02002D01*
X01901Y01089D02*
Y01121D01*
X014Y01155D02*
X0144D01*
X0239Y0125D02*
Y01296D01*
X0229D02*
Y01307D01*
X02282Y01315D02*
X0229Y01307D01*
X02223Y01315D02*
X02282D01*
X02346Y01121D02*
X02372Y01147D01*
X02346Y01089D02*
Y01121D01*
X0234Y01083D02*
X02346Y01089D01*
X0229Y01083D02*
X02295Y01088D01*
X02332Y01075D02*
X0234Y01083D01*
X01897Y01257D02*
Y01294D01*
X01895Y01296D02*
X01897Y01294D01*
X02002Y0114D02*
X0202Y01122D01*
X01895Y01083D02*
X01901Y01089D01*
X01787Y0109D02*
X01795Y01083D01*
X01787Y0109D02*
Y0112D01*
X01735Y01173D02*
X01787Y0112D01*
X0156Y01072D02*
Y01083D01*
X01685Y01173D02*
X01735D01*
X01635Y01127D02*
X01685D01*
X0151Y01083D02*
Y01115D01*
X01545Y0115*
X01682Y01318D02*
X01685Y01321D01*
X01635Y01318D02*
X01682D01*
X01613Y01296D02*
X01635Y01318D01*
X0156Y01296D02*
X01613D01*
X01608Y01245D02*
X01635Y01272D01*
X0146Y01083D02*
Y01135D01*
X0144Y01155D02*
X0146Y01135D01*
X0151Y01255D02*
Y01296D01*
G54D14*
X02149Y01225D02*
X02163Y0124D01*
X02205Y01248D02*
X0222Y01263D01*
X02194Y01248D02*
X02205D01*
X02149Y01219D02*
Y01225D01*
X02163Y0124D02*
X02186D01*
X02194Y01248*
G54D15*
X01Y01D02*
Y01395D01*
X02585*
Y01D02*
Y01395D01*
X01Y01D02*
X02585D01*
G54D20*
X02515Y01082D03*
Y01128D03*
Y01241D03*
Y01195D03*
Y01287D03*
Y01333D03*
X02175Y01263D03*
Y01217D03*
X0222Y01263D03*
Y01217D03*
X0206Y01237D03*
Y01283D03*
X02015Y01237D03*
Y01283D03*
X0207Y01168D03*
Y01122D03*
X0202D03*
Y01168D03*
X01735Y01173D03*
Y01127D03*
X01685Y01173D03*
Y01127D03*
X01635D03*
Y01173D03*
X01735Y01277D03*
Y01323D03*
X01685Y01275D03*
Y01321D03*
X01635Y01272D03*
Y01318D03*
G54D21*
X0229Y01083D03*
X0234D03*
X0239D03*
X0244D03*
Y01296D03*
X0239D03*
X0234D03*
X0229D03*
X01945D03*
X01895D03*
X01845D03*
X01795D03*
Y01083D03*
X01845D03*
X01895D03*
X01945D03*
X0156Y01296D03*
X0151D03*
X0146D03*
X0141D03*
Y01083D03*
X0146D03*
X0151D03*
X0156D03*
G54D22*
X02223Y01315D03*
X02177D03*
X02017Y0107D03*
X02063D03*
X01627Y01065D03*
X01673D03*
G54D23*
X01319Y01325D03*
X0126D03*
X01082Y01326D03*
X01141Y01325D03*
X012D03*
X01322Y0107D03*
X01263D03*
X01085Y01071D03*
X01145Y0107D03*
X01204D03*
X01086Y01195D03*
X01145D03*
X01323Y01193D03*
X01264Y01195D03*
X01205D03*
G54D24*
X0249Y01355D03*
X01803Y01167D03*
X0221Y0136D03*
X0138Y01065D03*
X0139Y0134D03*
X016Y01095D03*
X0211Y0128D03*
X02125Y01205D03*
X0173Y0135D03*
X02295Y01245D03*
X0241Y0104D03*
X02215Y01075D03*
X02109Y01084D03*
X01985Y01065D03*
X01099Y01255D03*
X019Y01163D03*
M02*