%FSTAX23Y23*%
%MOIN*%
%SFA1B1*%

%IPPOS*%
%ADD10C,0.010000*%
%ADD15C,0.000500*%
%ADD23C,0.048000*%
%ADD24C,0.050000*%
%ADD25R,0.047240X0.047240*%
%ADD26R,0.062990X0.059060*%
%LNpcb1-1*%
%LPD*%
G36*
X0236Y0101D02*
X01535D01*
X01353Y01176*
X01356Y01184*
X01356Y01188*
X01323*
Y01198*
X01356*
X01356Y01201*
X01352Y0121*
X01347Y01217*
X01343Y0122*
X01345Y01225*
X0151*
X01655Y0108*
X02031*
X02046Y01094*
X02068*
Y01103*
X02073Y01105*
X02081Y01097*
X02078Y01092*
X02077Y01084*
X02078Y01075*
X02081Y01068*
X02086Y01061*
X02093Y01056*
X021Y01053*
X02109Y01052*
X02117Y01053*
X02124Y01056*
X02131Y01061*
X02136Y01068*
X02139Y01075*
X0214Y01084*
X02139Y01089*
X02143Y01094*
X02185*
X02187Y01089*
X02184Y01083*
X02183Y01075*
X02184Y01066*
X02187Y01059*
X02192Y01052*
X02199Y01047*
X02206Y01044*
X02215Y01043*
X02223Y01044*
X0223Y01047*
X02237Y01052*
X02242Y01059*
X02245Y01066*
X02246Y01075*
X02245Y01083*
X02242Y01089*
X02244Y01094*
X02273*
Y01153*
X02235*
Y01159*
X02234Y01163*
X02232Y01167*
X02228Y01169*
X02224Y0117*
X0222Y01169*
X02216Y01167*
X02214Y01163*
X02213Y01159*
Y01106*
X02206Y01105*
X022Y01102*
X02195Y01104*
Y01153*
X02136*
Y01107*
X02132Y01106*
X02131Y01106*
X02124Y01111*
X02117Y01114*
X02109Y01115*
X021Y01114*
X02097Y01112*
X02081Y01129*
X02125Y01173*
X02133Y01174*
X0214Y01177*
X02147Y01182*
X02152Y01189*
X02155Y01196*
X02156Y01204*
X02168Y01216*
X02242*
Y0125*
X0236*
Y0101*
G37*
G36*
X02575D02*
X02375D01*
Y0125*
X02365Y0126*
X02322*
X02322Y0126*
X02317Y01267*
X0231Y01272*
X02303Y01275*
X02295Y01276*
X02286Y01275*
X02279Y01272*
X02272Y01267*
X02267Y0126*
X02267Y0126*
X02242*
Y01287*
X02185*
X02176Y01296*
X02172Y013*
X02169Y01302*
X02164Y01303*
X02153*
X02132Y01324*
X02128Y01326*
X02124Y01327*
X01772*
X01768Y01326*
X01764Y01324*
Y01324*
X01737Y01297*
X0134*
X01338Y01302*
X0134Y01303*
X01345Y01309*
X01348Y01317*
X01349Y01325*
X01348Y01332*
X01345Y0134*
X0134Y01346*
X01334Y01351*
X01326Y01354*
X01319Y01355*
X01311Y01354*
X01303Y01351*
X01297Y01346*
X01292Y0134*
X01292Y01338*
X01286*
X01286Y0134*
X01281Y01346*
X01275Y01351*
X01267Y01354*
X0126Y01355*
X01252Y01354*
X01244Y01351*
X01238Y01346*
X01233Y0134*
X01233Y01338*
X01227*
X01227Y0134*
X01222Y01346*
X01216Y01351*
X01208Y01354*
X012Y01355*
X01193Y01354*
X01185Y01351*
X01179Y01346*
X01174Y0134*
X01174Y01338*
X01168*
X01168Y0134*
X01163Y01346*
X01157Y01351*
X01149Y01354*
X01141Y01355*
X01134Y01354*
X01126Y01351*
X0112Y01346*
X01115Y0134*
X01115Y01339*
X0111*
X01109Y01342*
X01104Y01348*
X01097Y01353*
X0109Y01356*
X01082Y01357*
X01075Y01356*
X01067Y01353*
X01061Y01348*
X01056Y01342*
X01053Y01334*
X01052Y01326*
X01053Y01319*
X01056Y01311*
X01061Y01305*
X01067Y013*
X01075Y01297*
X01082Y01296*
X0109Y01297*
X01095Y01299*
X01104Y01291*
X01101Y01286*
X01099Y01287*
X01091Y01286*
X01083Y01283*
X01077Y01278*
X01072Y01271*
X01069Y01264*
X01067Y01255*
X01069Y01247*
X01072Y0124*
X01077Y01233*
X01077Y01233*
X01078Y01231*
X01076Y01227*
X01069Y01224*
X01062Y01219*
X01057Y01212*
X01053Y01203*
X01053Y012*
X01086*
Y01195*
X01091*
Y01161*
X01095Y01161*
X01104Y01165*
X01111Y0117*
X01113Y01174*
X01118*
X01121Y0117*
X01128Y01165*
X01137Y01161*
X0114Y01161*
Y01195*
X0115*
Y01161*
X01154Y01161*
X01163Y01165*
X0117Y0117*
X01174Y01176*
X01178Y01177*
X0118Y01177*
X01183Y01173*
X01189Y01168*
X01197Y01165*
X01205Y01164*
X01212Y01165*
X0122Y01168*
X01226Y01173*
X01231Y01179*
X01231Y01181*
X01237*
X01237Y01179*
X01242Y01173*
X01248Y01168*
X01256Y01165*
X01264Y01164*
X01271Y01165*
X01279Y01168*
X01285Y01173*
X01287Y01176*
X01294Y01177*
X01479Y01009*
X01477Y01005*
X01015Y0101*
Y01385*
X02575*
Y0101*
G37*
%LNpcb1-2*%
%LPC*%
G36*
X01081Y0119D02*
X01053D01*
X01053Y01186*
X01057Y01177*
X01062Y0117*
X01069Y01165*
X01078Y01161*
X01081Y01161*
Y0119*
G37*
G36*
X01085Y01102D02*
X01078Y01101D01*
X0107Y01098*
X01064Y01093*
X01059Y01087*
X01056Y01079*
X01055Y01071*
X01056Y01064*
X01059Y01056*
X01064Y0105*
X0107Y01045*
X01078Y01042*
X01085Y01041*
X01093Y01042*
X01101Y01045*
X01107Y0105*
X01112Y01056*
X01112Y01057*
X01117*
X01118Y01054*
X01123Y01048*
X01129Y01043*
X01137Y0104*
X01145Y01039*
X01152Y0104*
X0116Y01043*
X01166Y01048*
X01171Y01054*
X01171Y01056*
X01177*
X01177Y01054*
X01182Y01048*
X01188Y01043*
X01196Y0104*
X01204Y01039*
X01211Y0104*
X01219Y01043*
X01225Y01048*
X0123Y01054*
X0123Y01056*
X01236*
X01236Y01054*
X01241Y01048*
X01247Y01043*
X01255Y0104*
X01263Y01039*
X0127Y0104*
X01278Y01043*
X01284Y01048*
X01289Y01054*
X01289Y01056*
X01295*
X01295Y01054*
X013Y01048*
X01307Y01043*
X01314Y0104*
X01322Y01039*
X0133Y0104*
X01337Y01043*
X01343Y01048*
X01348Y01054*
X01351Y01062*
X01352Y0107*
X01351Y01077*
X01348Y01085*
X01343Y01091*
X01337Y01096*
X0133Y01099*
X01322Y011*
X01314Y01099*
X01307Y01096*
X013Y01091*
X01295Y01085*
X01295Y01083*
X01289*
X01289Y01085*
X01284Y01091*
X01278Y01096*
X0127Y01099*
X01263Y011*
X01255Y01099*
X01247Y01096*
X01241Y01091*
X01236Y01085*
X01236Y01083*
X0123*
X0123Y01085*
X01225Y01091*
X01219Y01096*
X01211Y01099*
X01204Y011*
X01196Y01099*
X01188Y01096*
X01182Y01091*
X01177Y01085*
X01177Y01083*
X01171*
X01171Y01085*
X01166Y01091*
X0116Y01096*
X01152Y01099*
X01145Y011*
X01137Y01099*
X01129Y01096*
X01123Y01091*
X01118Y01085*
X01118Y01084*
X01113*
X01112Y01087*
X01107Y01093*
X01101Y01098*
X01093Y01101*
X01085Y01102*
G37*
%LNpcb1-3*%
%LPD*%
G54D10*
X01796Y01156D02*
X01829Y01124D01*
X01772Y01316D02*
X02124D01*
X02083Y01296D02*
X02099Y0128D01*
X0211*
X02124Y01316D02*
X02148Y01292D01*
X02164*
X02125Y01205D02*
X02135D01*
X02164Y01234*
X01185Y01325D02*
X01224Y01286D01*
X0172Y0134D02*
X0173Y0135D01*
X02224Y01099D02*
Y01159D01*
X02205Y0108D02*
X02224Y01099D01*
X02051Y01143D02*
X02109Y01085D01*
X0221Y01075D02*
X02215D01*
X02205Y0108D02*
X0221Y01075D01*
X02109Y01084D02*
Y01085D01*
X02168Y01288D02*
X02178Y01278D01*
X02164Y01292D02*
X02168Y01288D01*
X02178Y01276D02*
Y01278D01*
Y01276D02*
X02203Y01252D01*
X02205*
X02164Y01234D02*
X02187D01*
X02205Y01252*
X01962Y01296D02*
X02083D01*
X01179Y01286D02*
X01199Y01266D01*
X01082Y01326D02*
X01084D01*
X01125Y01286D02*
X01179D01*
X01084Y01326D02*
X01125Y01286D01*
X01089Y01255D02*
X01099D01*
X01085Y0126D02*
X01089Y01255D01*
X01099D02*
X01103D01*
X01107Y0126*
X01091Y01243D02*
X01107Y0126D01*
X01085D02*
X011Y01245D01*
X01199Y01266D02*
X0179D01*
X01185Y01325D02*
X01189D01*
X011Y01245D02*
X01714D01*
X01752Y01207*
X01855*
X019Y01163*
X01741Y01286D02*
X01772Y01316D01*
X01224Y01286D02*
X01741D01*
X0179Y01266D02*
X01795Y01261D01*
X0196Y01294D02*
X01962Y01296D01*
X01814Y01294D02*
X0196D01*
X0181Y0129D02*
X01814Y01294D01*
X0181Y01276D02*
Y0129D01*
X01795Y01261D02*
X0181Y01276D01*
X019Y01163D02*
X01964Y01227D01*
X01975*
X02Y01252*
X02035Y01143D02*
X02051D01*
G54D15*
X01Y01D02*
Y01395D01*
X02585*
Y01D02*
Y01395D01*
X01Y01D02*
X02585D01*
G54D23*
X01319Y01325D03*
X0126D03*
X01082Y01326D03*
X01141Y01325D03*
X012D03*
X01322Y0107D03*
X01263D03*
X01085Y01071D03*
X01145Y0107D03*
X01204D03*
X01086Y01195D03*
X01145D03*
X01323Y01193D03*
X01264Y01195D03*
X01205D03*
G54D24*
X0249Y01355D03*
X01803Y01167D03*
X0221Y0136D03*
X0138Y01065D03*
X0139Y0134D03*
X016Y01095D03*
X0211Y0128D03*
X02125Y01205D03*
X0173Y0135D03*
X02295Y01245D03*
X0241Y0104D03*
X02215Y01075D03*
X02109Y01084D03*
X01985Y01065D03*
X01099Y01255D03*
X019Y01163D03*
G54D25*
X02244Y01124D03*
X02165D03*
X02039D03*
X0196D03*
X01829D03*
X0175D03*
G54D26*
X02205Y01252D03*
X02D03*
X0179D03*
M02*