%FSTAX23Y23*%
%MOIN*%
%SFA1B1*%

%IPPOS*%
%ADD11C,0.007870*%
%ADD12C,0.003940*%
%ADD14C,0.006000*%
%ADD15C,0.000500*%
%LNpcb1-1*%
%LPD*%
G54D11*
X02287Y01124D02*
D01*
X02287Y01124*
X02288Y01124*
X02288Y01124*
X02288Y01124*
X02289Y01124*
X02289Y01124*
X02289Y01124*
X02289Y01124*
X02289Y01124*
X0229Y01125*
X0229Y01125*
X0229Y01125*
X0229Y01125*
X0229Y01125*
X02291Y01126*
X02291Y01126*
X02291Y01126*
X02291Y01126*
X02291Y01127*
X02291Y01127*
X02291Y01127*
X02291Y01127*
Y01128*
X02291Y01128*
X02291Y01128*
X02291Y01129*
X02291Y01129*
X02291Y01129*
X02291Y01129*
X02291Y0113*
X0229Y0113*
X0229Y0113*
X0229Y0113*
X0229Y0113*
X0229Y01131*
X02289Y01131*
X02289Y01131*
X02289Y01131*
X02289Y01131*
X02289Y01131*
X02288Y01131*
X02288Y01131*
X02288Y01131*
X02287Y01132*
X02287Y01132*
D01*
X02287Y01132*
X02287Y01131*
X02286Y01131*
X02286Y01131*
X02286Y01131*
X02286Y01131*
X02285Y01131*
X02285Y01131*
X02285Y01131*
X02285Y01131*
X02284Y0113*
X02284Y0113*
X02284Y0113*
X02284Y0113*
X02284Y0113*
X02284Y01129*
X02284Y01129*
X02283Y01129*
X02283Y01129*
X02283Y01128*
X02283Y01128*
X02283Y01128*
Y01127*
X02283Y01127*
X02283Y01127*
X02283Y01127*
X02283Y01126*
X02284Y01126*
X02284Y01126*
X02284Y01126*
X02284Y01125*
X02284Y01125*
X02284Y01125*
X02284Y01125*
X02285Y01125*
X02285Y01124*
X02285Y01124*
X02285Y01124*
X02286Y01124*
X02286Y01124*
X02286Y01124*
X02286Y01124*
X02287Y01124*
X02287Y01124*
X02287Y01124*
X02082D02*
D01*
X02082Y01124*
X02083Y01124*
X02083Y01124*
X02083Y01124*
X02084Y01124*
X02084Y01124*
X02084Y01124*
X02084Y01124*
X02084Y01124*
X02085Y01125*
X02085Y01125*
X02085Y01125*
X02085Y01125*
X02085Y01125*
X02086Y01126*
X02086Y01126*
X02086Y01126*
X02086Y01126*
X02086Y01127*
X02086Y01127*
X02086Y01127*
X02086Y01127*
Y01128*
X02086Y01128*
X02086Y01128*
X02086Y01129*
X02086Y01129*
X02086Y01129*
X02086Y01129*
X02086Y0113*
X02085Y0113*
X02085Y0113*
X02085Y0113*
X02085Y0113*
X02085Y01131*
X02084Y01131*
X02084Y01131*
X02084Y01131*
X02084Y01131*
X02084Y01131*
X02083Y01131*
X02083Y01131*
X02083Y01131*
X02082Y01132*
X02082Y01132*
D01*
X02082Y01132*
X02082Y01131*
X02081Y01131*
X02081Y01131*
X02081Y01131*
X02081Y01131*
X0208Y01131*
X0208Y01131*
X0208Y01131*
X0208Y01131*
X02079Y0113*
X02079Y0113*
X02079Y0113*
X02079Y0113*
X02079Y0113*
X02079Y01129*
X02079Y01129*
X02078Y01129*
X02078Y01129*
X02078Y01128*
X02078Y01128*
X02078Y01128*
Y01127*
X02078Y01127*
X02078Y01127*
X02078Y01127*
X02078Y01126*
X02079Y01126*
X02079Y01126*
X02079Y01126*
X02079Y01125*
X02079Y01125*
X02079Y01125*
X02079Y01125*
X0208Y01125*
X0208Y01124*
X0208Y01124*
X0208Y01124*
X02081Y01124*
X02081Y01124*
X02081Y01124*
X02081Y01124*
X02082Y01124*
X02082Y01124*
X02082Y01124*
X01872D02*
D01*
X01872Y01124*
X01873Y01124*
X01873Y01124*
X01873Y01124*
X01874Y01124*
X01874Y01124*
X01874Y01124*
X01874Y01124*
X01874Y01124*
X01875Y01125*
X01875Y01125*
X01875Y01125*
X01875Y01125*
X01875Y01125*
X01876Y01126*
X01876Y01126*
X01876Y01126*
X01876Y01126*
X01876Y01127*
X01876Y01127*
X01876Y01127*
X01876Y01127*
Y01128*
X01876Y01128*
X01876Y01128*
X01876Y01129*
X01876Y01129*
X01876Y01129*
X01876Y01129*
X01876Y0113*
X01875Y0113*
X01875Y0113*
X01875Y0113*
X01875Y0113*
X01875Y01131*
X01874Y01131*
X01874Y01131*
X01874Y01131*
X01874Y01131*
X01874Y01131*
X01873Y01131*
X01873Y01131*
X01873Y01131*
X01872Y01132*
X01872Y01132*
D01*
X01872Y01132*
X01872Y01131*
X01871Y01131*
X01871Y01131*
X01871Y01131*
X01871Y01131*
X0187Y01131*
X0187Y01131*
X0187Y01131*
X0187Y01131*
X01869Y0113*
X01869Y0113*
X01869Y0113*
X01869Y0113*
X01869Y0113*
X01869Y01129*
X01869Y01129*
X01868Y01129*
X01868Y01129*
X01868Y01128*
X01868Y01128*
X01868Y01128*
Y01127*
X01868Y01127*
X01868Y01127*
X01868Y01127*
X01868Y01126*
X01869Y01126*
X01869Y01126*
X01869Y01126*
X01869Y01125*
X01869Y01125*
X01869Y01125*
X01869Y01125*
X0187Y01125*
X0187Y01124*
X0187Y01124*
X0187Y01124*
X01871Y01124*
X01871Y01124*
X01871Y01124*
X01871Y01124*
X01872Y01124*
X01872Y01124*
X01872Y01124*
G54D12*
X02252Y01263D02*
X02264D01*
Y01175D02*
Y01263D01*
X02145D02*
X02157D01*
X02145Y01175D02*
Y01263D01*
X02201Y01116D02*
X02208D01*
X02047Y01263D02*
X02059D01*
Y01175D02*
Y01263D01*
X0194D02*
X01952D01*
X0194Y01175D02*
Y01263D01*
X01996Y01116D02*
X02003D01*
X01837Y01263D02*
X01849D01*
Y01175D02*
Y01263D01*
X0173D02*
X01742D01*
X0173Y01175D02*
Y01263D01*
X01786Y01116D02*
X01793D01*
G54D14*
X02549Y01376D02*
X02554Y01381D01*
X02564*
X02569Y01376*
Y01371*
X02564Y01366*
X02554*
X02549Y01361*
Y01356*
X02554Y01351*
X02564*
X02569Y01356*
X02519Y01371D02*
X02534D01*
X02539Y01366*
Y01356*
X02534Y01351*
X02519*
X02509D02*
X02499D01*
X02504*
Y01371*
X02509*
X02464Y01381D02*
X02484D01*
Y01366*
X02474*
X02484*
Y01351*
X02449Y01371D02*
X02439D01*
X02434Y01366*
Y01351*
X02449*
X02454Y01356*
X02449Y01361*
X02434*
X02424Y01381D02*
Y01351D01*
X02409*
X02404Y01356*
Y01361*
Y01366*
X02409Y01371*
X02424*
X02344Y01351D02*
X02364D01*
X02344Y01371*
Y01376*
X02349Y01381*
X02359*
X02364Y01376*
X02334D02*
X02329Y01381D01*
X02319*
X02314Y01376*
Y01356*
X02319Y01351*
X02329*
X02334Y01356*
Y01376*
X02304Y01351D02*
X02294D01*
X02299*
Y01381*
X02304Y01376*
X02279Y01356D02*
X02274Y01351D01*
X02264*
X02259Y01356*
Y01376*
X02264Y01381*
X02274*
X02279Y01376*
Y01371*
X02274Y01366*
X02259*
X02569Y0133D02*
Y01301D01*
X02554*
X02549Y01305*
Y0131*
X02554Y01315*
X02569*
X02554*
X02549Y0132*
Y01325*
X02554Y0133*
X02569*
X02539Y0132D02*
Y01305D01*
X02534Y01301*
X02519*
Y01296*
X02524Y01291*
X02529*
X02519Y01301D02*
Y0132D01*
X02509D02*
X02504D01*
Y01315*
X02509*
Y0132*
Y01305D02*
X02504D01*
Y01301*
X02509*
Y01305*
X02454Y01301D02*
Y0133D01*
X02439*
X02434Y01325*
Y01315*
X02439Y0131*
X02454*
X02419Y0132D02*
X02409D01*
X02404Y01315*
Y01301*
X02419*
X02424Y01305*
X02419Y0131*
X02404*
X02389Y01325D02*
Y0132D01*
X02394*
X02384*
X02389*
Y01305*
X02384Y01301*
X02369Y0132D02*
Y01301D01*
Y0131*
X02364Y01315*
X02359Y0132*
X02354*
X02339Y01301D02*
X02329D01*
X02334*
Y0132*
X02339*
X02294D02*
X02309D01*
X02314Y01315*
Y01305*
X02309Y01301*
X02294*
X02284D02*
Y0133D01*
Y0131D02*
X02269Y0132D01*
X02284Y0131D02*
X02269Y01301D01*
X02204Y01325D02*
X02209Y0133D01*
X02219*
X02224Y01325*
Y01305*
X02219Y01301*
X02209*
X02204Y01305*
X02194Y0133D02*
Y01301D01*
Y01315*
X02189Y0132*
X02179*
X02174Y01315*
Y01301*
X02164Y0132D02*
Y01305D01*
X02159Y01301*
X02154Y01305*
X02149Y01301*
X02144Y01305*
Y0132*
X02129D02*
X02119D01*
X02114Y01315*
Y01301*
X02129*
X02134Y01305*
X02129Y0131*
X02114*
X02104Y01301D02*
X02094D01*
X02099*
Y0133*
X02104*
X02064Y01301D02*
X02074D01*
X02079Y01305*
Y01315*
X02074Y0132*
X02064*
X02059Y01315*
Y0131*
X02079*
X02049Y01301D02*
Y0133D01*
Y0131D02*
X02034Y0132D01*
X02049Y0131D02*
X02034Y01301D01*
X0137Y01389D02*
X0138D01*
X01385Y01384*
Y01365*
X0138Y0136*
X0137*
X01365Y01365*
Y01384*
X0137Y01389*
X01355D02*
Y01365D01*
X0135Y0136*
X0134*
X01335Y01365*
Y01389*
X01325D02*
X01305D01*
X01315*
Y0136*
X01265Y01379D02*
X0126D01*
Y01374*
X01265*
Y01379*
Y01365D02*
X0126D01*
Y0136*
X01265*
Y01365*
X0121Y01384D02*
X01205Y01389D01*
X01195*
X0119Y01384*
Y01379*
X01195Y01374*
X012*
X01195*
X0119Y0137*
Y01365*
X01195Y0136*
X01205*
X0121Y01365*
X0113Y0136D02*
X0115D01*
X0113Y01379*
Y01384*
X01135Y01389*
X01145*
X0115Y01384*
X0109Y0136D02*
X0108D01*
X01085*
Y01389*
X0109Y01384*
X0135Y01039D02*
X0134D01*
X01345*
Y0101*
X0135*
X0134*
X01325D02*
Y01039D01*
X01305Y0101*
Y01039*
X01265Y01029D02*
X0126D01*
Y01024*
X01265*
Y01029*
Y01015D02*
X0126D01*
Y0101*
X01265*
Y01015*
X0121Y01034D02*
X01205Y01039D01*
X01195*
X0119Y01034*
Y01029*
X01195Y01024*
X012*
X01195*
X0119Y0102*
Y01015*
X01195Y0101*
X01205*
X0121Y01015*
X0113Y0101D02*
X0115D01*
X0113Y01029*
Y01034*
X01135Y01039*
X01145*
X0115Y01034*
X0109Y0101D02*
X0108D01*
X01085*
Y01039*
X0109Y01034*
X01335Y01144D02*
X01315D01*
X01325Y01154D02*
Y01135D01*
X01275Y01144D02*
X01255D01*
X01265Y01154D02*
Y01135D01*
X01155Y01144D02*
X01135D01*
X01095D02*
X01075D01*
X0224Y01069D02*
Y0105D01*
X0223Y0104*
X0222Y0105*
Y01069*
X0221Y0104D02*
Y01069D01*
X02195*
X0219Y01064*
Y01054*
X02195Y0105*
X0221*
X022D02*
X0219Y0104D01*
X0218D02*
X0217D01*
X02175*
Y01069*
X0218Y01064*
X0204D02*
Y01045D01*
X0203Y01035*
X0202Y01045*
Y01064*
X0201Y01035D02*
Y01064D01*
X01995*
X0199Y01059*
Y01049*
X01995Y01045*
X0201*
X02D02*
X0199Y01035D01*
X0198Y01059D02*
X01975Y01064D01*
X01965*
X0196Y01059*
Y01054*
X01965Y01049*
X0197*
X01965*
X0196Y01045*
Y0104*
X01965Y01035*
X01975*
X0198Y0104*
X0183Y01064D02*
Y01045D01*
X0182Y01035*
X0181Y01045*
Y01064*
X018Y01035D02*
Y01064D01*
X01785*
X0178Y01059*
Y01049*
X01785Y01045*
X018*
X0179D02*
X0178Y01035D01*
X0175D02*
X0177D01*
X0175Y01054*
Y01059*
X01755Y01064*
X01765*
X0177Y01059*
G54D15*
X01Y01D02*
Y01395D01*
X02585*
Y01D02*
Y01395D01*
X01Y01D02*
X02585D01*
M02*