%FSTAX23Y23*%
%MOIN*%
%SFA1B1*%

%IPPOS*%
%AMD18*
4,1,4,0.015300,0.000000,0.000000,0.015300,-0.015300,0.000000,0.000000,-0.015300,0.015300,0.000000,0.0*
%
%AMD38*
4,1,4,0.002300,-0.043800,0.043800,0.002300,-0.002300,0.043800,-0.043800,-0.002300,0.002300,-0.043800,0.0*
%
%AMD46*
4,1,4,-0.005500,-0.013900,0.013900,0.005500,0.005500,0.013900,-0.013900,-0.005500,-0.005500,-0.013900,0.0*
%
%AMD47*
4,1,4,-0.037500,0.009800,0.009800,-0.037500,0.037500,-0.009800,-0.009800,0.037500,-0.037500,0.009800,0.0*
%
%AMD51*
4,1,4,0.001400,0.016500,-0.016500,-0.001400,-0.001400,-0.016500,0.016500,0.001400,0.001400,0.016500,0.0*
%
%AMD54*
4,1,4,0.000000,0.015300,-0.015300,0.000000,0.000000,-0.015300,0.015300,0.000000,0.000000,0.015300,0.0*
%
G04~CAMADD=18~10~0.0~216.5~0.0~0.0~0.0~0.0~0~0.0~0.0~0.0~0.0~0~0.0~0.0~0.0~0.0~0~0.0~0.0~0.0~315.0~216.5~0.0*
%ADD18D18*%
%ADD19R,0.021650X0.021650*%
%ADD34C,0.013780*%
%ADD36C,0.008000*%
G04~CAMADD=38~10~0.0~620.1~0.0~0.0~0.0~0.0~0~0.0~0.0~0.0~0.0~0~0.0~0.0~0.0~0.0~0~0.0~0.0~0.0~228.0~620.1~0.0*
%ADD38D38*%
%ADD39C,0.062010*%
%ADD40C,0.046930*%
%ADD41R,0.046930X0.046930*%
%ADD42C,0.020000*%
%ADD43C,0.062990*%
%ADD45C,0.009840*%
G04~CAMADD=46~9~0.0~0.0~275.6~118.1~0.0~0.0~0~0.0~0.0~0.0~0.0~0~0.0~0.0~0.0~0.0~0~0.0~0.0~0.0~225.0~278.0~277.0*
%ADD46D46*%
G04~CAMADD=47~9~0.0~0.0~669.3~393.7~0.0~0.0~0~0.0~0.0~0.0~0.0~0~0.0~0.0~0.0~0.0~0~0.0~0.0~0.0~135.0~750.0~749.0*
%ADD47D47*%
%ADD48R,0.027560X0.011810*%
%ADD49R,0.039370X0.066930*%
%ADD50R,0.025390X0.018900*%
G04~CAMADD=51~9~0.0~0.0~255.9~214.6~0.0~0.0~0~0.0~0.0~0.0~0.0~0~0.0~0.0~0.0~0.0~0~0.0~0.0~0.0~45.0~330.0~329.0*
%ADD51D51*%
%ADD52C,0.003940*%
%ADD53R,0.021650X0.021650*%
G04~CAMADD=54~10~0.0~216.5~0.0~0.0~0.0~0.0~0~0.0~0.0~0.0~0.0~0~0.0~0.0~0.0~0.0~0~0.0~0.0~0.0~405.0~216.5~0.0*
%ADD54D54*%
%LNkoosh_sensor_top_v1_1-1*%
%LPD*%
G54D18*
X00303Y00453D03*
X00336Y00486D03*
X00241Y00466D03*
X00208Y00433D03*
X00073Y00448D03*
X00106Y00481D03*
X00483Y00118D03*
X00516Y00151D03*
G54D19*
X00332Y00365D03*
X00378D03*
X00247Y0036D03*
X00293D03*
X00408Y00315D03*
X00362D03*
X00472Y00185D03*
X00518D03*
X00399Y00124D03*
X00445D03*
X00353Y0015D03*
X00307D03*
X00208Y00195D03*
X00162D03*
X00073Y00325D03*
X00027D03*
G54D34*
X0025Y00542D03*
G54D36*
X00423Y00285D02*
D01*
X00421Y00286*
X00419Y00287*
X00417Y00288*
X00415Y00289*
X00413Y00289*
X0041Y0029*
X00408Y0029*
X00406Y0029*
X00403Y0029*
X00401Y0029*
X00399Y0029*
X00397Y00289*
X00394Y00289*
X00392Y00288*
X0039Y00287*
X00388Y00286*
X00386Y00285*
X00035Y00318D02*
Y00403D01*
Y0016D02*
Y0026D01*
X0002Y00318D02*
X00027Y00325D01*
X0002Y00315D02*
Y00318D01*
X00011Y00306D02*
X0002Y00315D01*
X00011Y00283D02*
Y00306D01*
Y00283D02*
X00035Y0026D01*
X00031Y00298D02*
X00035D01*
X00101Y00273D02*
Y00284D01*
X0007Y00242D02*
X00101Y00273D01*
Y00284D02*
X00103Y00286D01*
X00073Y0031D02*
X00078Y00315D01*
X00073Y0031D02*
Y00325D01*
Y00291D02*
Y0031D01*
X0007Y00288D02*
X00073Y00291D01*
X00378Y00365D02*
X00406D01*
X00411Y0037*
X00415*
X00195Y00433D02*
X00208D01*
X00175Y00413D02*
X00195Y00433D01*
X00301Y00147D02*
Y00156D01*
X00469Y00182D02*
X00472Y00185D01*
X00459Y00182D02*
X00469D01*
X00457Y0018D02*
X00459Y00182D01*
X00485Y00157D02*
X00486Y00159D01*
X00494*
X00511Y00175D02*
Y00178D01*
X00494Y00159D02*
X00511Y00175D01*
Y00178D02*
X00518Y00185D01*
X00448Y00104D02*
Y00121D01*
X00451Y00118*
X00445Y00124D02*
X00448Y00121D01*
X00451Y00118D02*
X00483D01*
X00445Y00124D02*
X0045Y00129D01*
X0026Y00115D02*
X00292Y00147D01*
X0026Y00095D02*
Y00115D01*
X00315Y00057D02*
X00319Y0006D01*
Y00075*
X00035Y00298D02*
X0005Y00312D01*
X00338Y00488D02*
X00357Y0047D01*
X0005Y00312D02*
Y00371D01*
X00074Y00396*
X00035Y00403D02*
X00073Y00442D01*
X00102Y00328D02*
X00104Y00326D01*
X00215Y00202D02*
Y00203D01*
X00208Y00195D02*
X00215Y00202D01*
X00173Y00218D02*
X00183Y00229D01*
X00165Y00201D02*
Y00227D01*
Y00198D02*
Y00201D01*
X00162Y00198D02*
Y00201D01*
Y00195D02*
Y00198D01*
X00183Y00229D02*
D01*
X00162Y00195D02*
X00165Y00198D01*
X00366Y00093D02*
X0039Y0007D01*
X00422Y00094D02*
Y00164D01*
Y00094D02*
X00435Y00081D01*
Y0003D02*
Y00081D01*
X0039Y0005D02*
Y0007D01*
X00366Y00093D02*
Y00101D01*
X00386Y00158D02*
X0039D01*
X00397Y00124D02*
Y00155D01*
X00448Y00104D02*
X00472Y0008D01*
X00422Y00164D02*
X00431Y00173D01*
X00472Y0008D02*
X00489D01*
X005Y0007*
X00465Y00294D02*
X00473D01*
X00436Y00295D02*
X00465D01*
X00473Y00294D02*
X00475Y00292D01*
X00465Y00295D02*
X00465Y00294D01*
X00408Y00315D02*
X00414Y00308D01*
X00423*
X00436Y00295*
X0045Y00323D02*
Y00324D01*
X00445Y00315D02*
Y00318D01*
X0045Y00323*
Y00324D02*
X00466Y0034D01*
X00401Y00321D02*
X00408Y00315D01*
X00426Y00423D02*
X0043Y0042D01*
X00406Y00423D02*
X00426D01*
X00268Y00318D02*
X0027Y00316D01*
Y00311D02*
Y00316D01*
Y00311D02*
X00275Y00306D01*
X00365Y0015D02*
X00378D01*
X00369Y00137D02*
Y00145D01*
X00365Y0015D02*
X00369Y00145D01*
Y00137D02*
X00372Y00134D01*
X00383Y00155D02*
X00386Y00158D01*
X00383Y00154D02*
Y00155D01*
X00378Y0015D02*
X00383Y00154D01*
X0039Y00162D02*
X00397Y00155D01*
X00228Y00284D02*
X00243Y00269D01*
X00228Y00284D02*
Y00309D01*
X00192Y00345D02*
X00228Y00309D01*
X00202Y00299D02*
Y00325D01*
X00192Y00334D02*
X00202Y00325D01*
X00192Y00334D02*
Y00345D01*
X00202Y00279D02*
Y00299D01*
X0047Y00274D02*
X00474D01*
X00475Y00276*
Y00292*
X00504Y00263D02*
Y00285D01*
Y00252D02*
Y00263D01*
X00511Y00256*
X00475Y00292D02*
X00478Y0029D01*
X00499*
X00504Y00285*
Y00252D02*
X00511Y00245D01*
Y00256*
X00375Y00035D02*
X0039Y0005D01*
X00375Y00015D02*
Y00035D01*
X00365Y00005D02*
X00375Y00015D01*
X0036Y00108D02*
X00366Y00101D01*
X00319Y00075D02*
X00346D01*
X0036Y00062*
X00329Y00108D02*
X0036D01*
X00322Y00114D02*
X00329Y00108D01*
X00319Y00114D02*
X00322D01*
X00295Y00162D02*
X00301Y00156D01*
X00292Y00147D02*
X003D01*
X00301Y00147*
X00518Y00185D02*
X00534Y00201D01*
X00519Y00148D02*
X0058Y00209D01*
X0051Y0014D02*
X00519Y00148D01*
X00431Y00182D02*
X0046Y00211D01*
Y00213*
X0051Y0014D02*
X0051D01*
X0058Y00209D02*
Y0023D01*
X00552Y00235D02*
X00574D01*
X0058Y0023*
X00534Y00201D02*
X00535D01*
X00541Y00207*
Y00208*
X00542Y00209*
Y00213*
X00544Y00215*
X00552*
X00332Y00315D02*
X00362D01*
X00325Y00308D02*
X00332Y00315D01*
X00466Y0034D02*
X00468D01*
X00478Y0035*
X0052*
X00485Y00325D02*
X005D01*
X00415Y0037D02*
X00449D01*
X00348Y00285D02*
X00386D01*
X00423D02*
X00425D01*
X00452Y00258*
X00325Y00262D02*
X00348Y00285D01*
X00552Y00235D02*
Y00255D01*
X00459Y0036D02*
X0046D01*
X00449Y0037D02*
X00459Y0036D01*
X0052Y0035D02*
X00552Y00317D01*
Y00274D02*
Y00317D01*
X00524Y003D02*
X00528D01*
X005Y00325D02*
X00524Y003D01*
X00431Y00173D02*
Y00182D01*
X0046Y00213D02*
X00462Y00215D01*
X0047*
X00469Y00235D02*
X0047Y00235D01*
X00455Y00235D02*
X00469D01*
X00431Y00211D02*
X00455Y00235D01*
X00431Y00209D02*
Y00211D01*
X00425Y00203D02*
X00431Y00209D01*
X0039Y00203D02*
X00425D01*
X00294Y0023D02*
X00295Y0023D01*
Y00162D02*
Y0023D01*
X00294Y0023D02*
Y00238D01*
X00292Y0024D02*
X00294Y00238D01*
X00285Y0024D02*
X00292D01*
X00468Y00256D02*
X0047Y00255D01*
X00457Y00256D02*
X00468D01*
X00455Y00258D02*
X00457Y00256D01*
X00452Y00258D02*
X00455D01*
X00302Y00283D02*
X00308Y00289D01*
X003Y00283D02*
X00302D01*
X00308Y00289D02*
Y00291D01*
X00318Y00301*
X00285Y00279D02*
X00286Y00281D01*
X00298D02*
X003Y00283D01*
X00286Y00281D02*
X00298D01*
X00285Y0026D02*
X00323D01*
X00325Y00262*
X00318Y00301D02*
X00325Y00308D01*
X00332Y00365D02*
Y00385D01*
X00342Y00396*
Y00407*
X00266Y00333D02*
X00293Y0036D01*
X00266Y00319D02*
Y00333D01*
X00216Y0036D02*
X00247D01*
X00202Y00345D02*
X00216Y0036D01*
X00192Y00345D02*
X00202D01*
X00277Y00299D02*
X00285D01*
X00275Y00301D02*
X00277Y00299D01*
X00275Y00301D02*
Y00306D01*
X00165Y00227D02*
X00167Y00229D01*
X00183*
X00192Y00238*
X002D02*
X00202Y0024D01*
X00192Y00238D02*
X002D01*
X0013Y00227D02*
X00165D01*
X0011Y00176D02*
X00115Y00171D01*
X0011Y00176D02*
Y0021D01*
X00109Y00212D02*
X0011Y0021D01*
X00109Y00212D02*
Y00252D01*
X0013Y00273*
X00165D02*
X00171Y00266D01*
X00181*
X00184Y00263*
X00187*
X00189Y00261*
X002*
X00202Y0026*
X0013Y00273D02*
X00165D01*
X00096Y00306D02*
X00122D01*
X00262Y00489D02*
X00274Y00478D01*
X00206Y00503D02*
X00211D01*
X00223Y00491*
X00245*
X00247Y00489*
X00262*
X00072Y00352D02*
X00075Y00354D01*
X00092Y00353D02*
X00095Y00355D01*
X00092Y00345D02*
Y00353D01*
Y00345D02*
X00102Y00335D01*
X00094Y00308D02*
X00096Y00306D01*
X00084Y00308D02*
X00094D01*
X00095Y00358D02*
X00102Y00366D01*
X00095Y00355D02*
Y00358D01*
X00111Y0035D02*
X00116Y00354D01*
X00111Y00347D02*
Y0035D01*
Y00347D02*
X0013Y00328D01*
X00122Y00306D02*
X00131Y00314D01*
X00025Y00318D02*
X00027Y0032D01*
X00336Y00486D02*
Y00493D01*
X0035Y00506*
Y0051*
X00307Y00515D02*
X00336Y00486D01*
X00372Y00462D02*
X00373Y00463D01*
X00369Y00462D02*
X00372D01*
X00361Y0047D02*
X00369Y00462D01*
X00357Y0047D02*
X00361D01*
X00373Y00456D02*
Y00463D01*
X00305Y00515D02*
X00307D01*
X00075Y0045D02*
X00098D01*
X00073Y00448D02*
X00075Y0045D01*
X00099Y00448D02*
X00107D01*
X00098Y0045D02*
X00099Y00448D01*
X00073Y00442D02*
Y00448D01*
X00102Y00366D02*
Y00368D01*
X00088Y0038D02*
Y00382D01*
X00075Y00366D02*
X00088Y0038D01*
X00075Y00354D02*
Y00366D01*
X00102Y00328D02*
Y00335D01*
X00078Y00315D02*
X00084Y00308D01*
X0013Y00312D02*
Y00328D01*
X001Y00366D02*
X00102Y00368D01*
X001Y00365D02*
Y00366D01*
X00143Y00506D02*
X00173Y00536D01*
X00171Y0047D02*
X00176D01*
X00106Y00481D02*
X00139D01*
X00139Y0048*
X00147*
X00148Y00481*
X0016*
X00171Y0047*
X00262Y00453D02*
X00308D01*
X00249Y00466D02*
X00262Y00453D01*
X002Y00466D02*
X00241D01*
X00249*
X00172Y00413D02*
X00175D01*
X00163Y00404D02*
X00172Y00413D01*
X00163Y00404D02*
X00163D01*
X00155Y00396D02*
X00163Y00404D01*
X00133Y00396D02*
X00155D01*
X00125Y00405D02*
X00133Y00396D01*
X00127Y00449D02*
X00133Y00455D01*
X00125Y00449D02*
X00127D01*
X00123Y00451D02*
X00125Y00449D01*
X0012Y00451D02*
X00123D01*
X00119Y00452D02*
X0012Y00451D01*
X00111Y00452D02*
X00119D01*
X00107Y00448D02*
X00111Y00452D01*
X00147Y00441D02*
X00176Y0047D01*
X00161Y00427D02*
X002Y00466D01*
X00283Y00478D02*
X00285Y0048D01*
X00274Y00478D02*
X00283D01*
G54D38*
X0019Y00105D03*
G54D39*
X00115Y00171D03*
G54D40*
X00192Y00345D03*
X00255Y00407D03*
X00342D03*
X00405Y00257D03*
X00342Y00195D03*
G54D41*
X00255Y00195D03*
G54D42*
X00031Y00298D03*
X00325Y0015D03*
X00457Y0018D03*
X00485Y00157D03*
X00245Y00141D03*
X00315Y00057D03*
X00103Y00286D03*
X00104Y00326D03*
X00215Y00203D03*
X00183Y00229D03*
X00395Y00095D03*
X00445Y00315D03*
X0043Y0042D03*
X00572Y003D03*
X00268Y00318D03*
X00372Y00134D03*
X00475Y00292D03*
X00485Y00325D03*
X00415Y0037D03*
X0046Y0036D03*
X00528Y003D03*
X00332Y00336D03*
X00072Y00352D03*
X002Y004D03*
X0035Y0051D03*
X00255D03*
X0009Y00423D03*
G54D43*
X00435Y0003D03*
X00215Y0001D03*
X00035Y0016D03*
X00365Y00005D03*
X005Y0007D03*
X0029Y0D03*
X0014Y00045D03*
X0008Y00095D03*
G54D45*
X00274Y00542D02*
D01*
X00274Y00544*
X00274Y00546*
X00273Y00547*
X00273Y00549*
X00272Y00551*
X00272Y00552*
X00271Y00554*
X0027Y00555*
X00269Y00556*
X00268Y00558*
X00267Y00559*
X00266Y0056*
X00265Y00561*
X00263Y00562*
X00262Y00563*
X00261Y00564*
X00259Y00564*
X00258Y00565*
X00256Y00565*
X00254Y00566*
X00253Y00566*
X00251Y00566*
X00249*
X00248Y00566*
X00246Y00566*
X00245Y00565*
X00243Y00565*
X00241Y00564*
X0024Y00564*
X00238Y00563*
X00237Y00562*
X00236Y00561*
X00234Y0056*
X00233Y00559*
X00232Y00558*
X00231Y00556*
X0023Y00555*
X00229Y00554*
X00229Y00552*
X00228Y00551*
X00228Y00549*
X00227Y00547*
X00227Y00546*
X00227Y00544*
X00227Y00542*
X00227Y00541*
X00227Y00539*
X00227Y00538*
X00228Y00536*
X00228Y00534*
X00229Y00533*
X00229Y00531*
X0023Y0053*
X00231Y00529*
X00232Y00527*
X00233Y00526*
X00234Y00525*
X00236Y00524*
X00237Y00523*
X00238Y00522*
X0024Y00521*
X00241Y00521*
X00243Y0052*
X00245Y0052*
X00246Y00519*
X00248Y00519*
X00249Y00519*
X00251*
X00253Y00519*
X00254Y00519*
X00256Y0052*
X00258Y0052*
X00259Y00521*
X00261Y00521*
X00262Y00522*
X00263Y00523*
X00265Y00524*
X00266Y00525*
X00267Y00526*
X00268Y00527*
X00269Y00529*
X0027Y0053*
X00271Y00531*
X00272Y00533*
X00272Y00534*
X00273Y00536*
X00273Y00538*
X00274Y00539*
X00274Y00541*
X00274Y00542*
G54D46*
X00133Y00455D03*
X00147Y00441D03*
X00161Y00427D03*
X00175Y00413D03*
X00116Y00354D03*
X00102Y00368D03*
X00088Y00382D03*
X00074Y00396D03*
G54D47*
X00125Y00405D03*
G54D48*
X00202Y0024D03*
Y0026D03*
Y00279D03*
Y00299D03*
X00285D03*
Y00279D03*
Y0026D03*
Y0024D03*
X0047Y00215D03*
Y00235D03*
Y00255D03*
Y00274D03*
X00552D03*
Y00255D03*
Y00235D03*
Y00215D03*
G54D49*
X00243Y00269D03*
X00511Y00245D03*
G54D50*
X00319Y00114D03*
Y00075D03*
X0026Y00095D03*
G54D51*
X00305Y00515D03*
X00278Y00488D03*
G54D52*
X00233Y0056D03*
G54D53*
X00325Y00308D03*
Y00262D03*
X0013Y00273D03*
Y00227D03*
X00075Y00293D03*
Y00247D03*
X00425Y00167D03*
Y00213D03*
X0039Y00208D03*
Y00162D03*
X0036Y00062D03*
Y00108D03*
X00165Y00273D03*
Y00227D03*
G54D54*
X00406Y00423D03*
X00373Y00456D03*
X00176Y00473D03*
X00143Y00506D03*
X00173Y00536D03*
X00206Y00503D03*
M02*