%FSTAX23Y23*%
%MOIN*%
%SFA1B1*%

%IPPOS*%
%ADD10C,0.007870*%
%ADD11C,0.006000*%
%LNkoosh_sensor_top_v1_1-1*%
%LPD*%
G54D10*
X00197Y00217D02*
D01*
X00197Y00217*
X00197Y00217*
X00197Y00217*
X00197Y00217*
X00197Y00218*
X00197Y00218*
X00197Y00218*
X00197Y00218*
X00197Y00218*
X00197Y00218*
X00197Y00218*
X00197Y00218*
X00197Y00218*
X00197Y00218*
X00197Y00218*
X00197Y00218*
X00197Y00218*
X00197Y00218*
X00196Y00218*
X00196Y00218*
X00196Y00218*
X00196Y00218*
X00196*
X00196Y00218*
X00196Y00218*
X00196Y00218*
X00196Y00218*
X00196Y00218*
X00196Y00218*
X00196Y00218*
X00195Y00218*
X00195Y00218*
X00195Y00218*
X00195Y00218*
X00195Y00218*
X00195Y00218*
X00195Y00218*
X00195Y00218*
X00195Y00218*
X00195Y00218*
X00195Y00217*
X00195Y00217*
X00195Y00217*
X00195Y00217*
X00195Y00217*
X00195Y00217*
X00195Y00217*
X00195Y00217*
X00195Y00217*
X00195Y00217*
X00195Y00217*
X00195Y00217*
X00195Y00216*
X00195Y00216*
X00195Y00216*
X00195Y00216*
X00195Y00216*
X00195Y00216*
X00195Y00216*
X00196Y00216*
X00196Y00216*
X00196Y00216*
X00196Y00216*
X00196Y00216*
X00196Y00216*
X00196Y00216*
X00196Y00216*
X00196*
X00196Y00216*
X00196Y00216*
X00196Y00216*
X00197Y00216*
X00197Y00216*
X00197Y00216*
X00197Y00216*
X00197Y00216*
X00197Y00216*
X00197Y00216*
X00197Y00216*
X00197Y00216*
X00197Y00216*
X00197Y00216*
X00197Y00217*
X00197Y00217*
X00197Y00217*
X00197Y00217*
X00197Y00217*
X00197Y00217*
X00197Y00217*
X00197Y00217*
X00582Y00266D02*
D01*
X00582Y00266*
X00582Y00266*
X00582Y00266*
X00582Y00266*
X00582Y00266*
X00582Y00266*
X00582Y00266*
X00582Y00266*
X00582Y00267*
X00582Y00267*
X00582Y00267*
X00581Y00267*
X00581Y00267*
X00581Y00267*
X00581Y00267*
X00581Y00267*
X00581Y00267*
X00581Y00267*
X00581Y00267*
X00581Y00267*
X00581Y00267*
X00581Y00267*
X0058*
X0058Y00267*
X0058Y00267*
X0058Y00267*
X0058Y00267*
X0058Y00267*
X0058Y00267*
X0058Y00267*
X0058Y00267*
X0058Y00267*
X0058Y00267*
X0058Y00267*
X0058Y00267*
X00579Y00267*
X00579Y00266*
X00579Y00266*
X00579Y00266*
X00579Y00266*
X00579Y00266*
X00579Y00266*
X00579Y00266*
X00579Y00266*
X00579Y00266*
X00579Y00266*
X00579Y00266*
X00579Y00265*
X00579Y00265*
X00579Y00265*
X00579Y00265*
X00579Y00265*
X00579Y00265*
X00579Y00265*
X0058Y00265*
X0058Y00265*
X0058Y00265*
X0058Y00265*
X0058Y00265*
X0058Y00265*
X0058Y00265*
X0058Y00265*
X0058Y00264*
X0058Y00264*
X0058Y00264*
X0058Y00264*
X0058Y00264*
X00581*
X00581Y00264*
X00581Y00264*
X00581Y00264*
X00581Y00264*
X00581Y00265*
X00581Y00265*
X00581Y00265*
X00581Y00265*
X00581Y00265*
X00581Y00265*
X00582Y00265*
X00582Y00265*
X00582Y00265*
X00582Y00265*
X00582Y00265*
X00582Y00265*
X00582Y00265*
X00582Y00265*
X00582Y00265*
X00582Y00266*
X00582Y00266*
X00582Y00266*
X00255Y00342D02*
X00299Y00359D01*
X00308Y00257D02*
X00334Y00267D01*
X00023Y00133D02*
X00157Y00282D01*
X00023Y00133D02*
X00161Y00009D01*
X00221Y00076*
X00018Y00295D02*
Y00301D01*
X00081*
Y00295D02*
Y00301D01*
X00018Y00295D02*
X00081D01*
X00011Y00255D02*
Y00281D01*
X00564Y00165D02*
X00593Y00238D01*
X00476Y00201D02*
X00505Y00274D01*
G54D11*
X00226Y00066D02*
Y00085D01*
X00236*
X00239Y00082*
Y00076*
X00236Y00072*
X00226*
X00232D02*
X00239Y00066D01*
X00255D02*
X00249D01*
X00245Y00069*
Y00076*
X00249Y00079*
X00255*
X00259Y00076*
Y00072*
X00245*
X00265Y00066D02*
X00275D01*
X00279Y00069*
X00275Y00072*
X00269*
X00265Y00076*
X00269Y00079*
X00279*
X00299Y00085D02*
X00285D01*
Y00066*
X00299*
X00285Y00076D02*
X00292D01*
X00305Y00066D02*
Y00079D01*
X00315*
X00319Y00076*
Y00066*
X00325Y00079D02*
X00332Y00066D01*
X00339Y00079*
X00365D02*
X00372Y00066D01*
X00379Y00079*
X00385Y00066D02*
X00392D01*
X00389*
Y00085*
X00385Y00082*
X00402Y00066D02*
Y00069D01*
X00405*
Y00066*
X00402*
X00419D02*
X00425D01*
X00422*
Y00085*
X00419Y00082*
X00014Y00353D02*
Y00324D01*
X00028*
X00033Y00329*
Y00348*
X00028Y00353*
X00014*
X00063Y00324D02*
X00043D01*
X00063Y00343*
Y00348*
X00058Y00353*
X00048*
X00043Y00348*
X00285Y00525D02*
Y00555D01*
X003*
X00305Y0055*
Y0054*
X003Y00535*
X00285*
X00295D02*
X00305Y00525D01*
X00315Y00555D02*
X00334D01*
Y0055*
X00315Y0053*
Y00525*
X0012Y0021D02*
Y0024D01*
X00135*
X0014Y00235*
Y00225*
X00135Y0022*
X0012*
X0013D02*
X0014Y0021D01*
X0015Y00235D02*
X00155Y0024D01*
X00164*
X00169Y00235*
Y0023*
X00164Y00225*
X0016*
X00164*
X00169Y0022*
Y00215*
X00164Y0021*
X00155*
X0015Y00215*
X00122Y00385D02*
Y00415D01*
X00137*
X00142Y0041*
Y004*
X00137Y00395*
X00122*
X00132D02*
X00142Y00385D01*
X00152D02*
X00162D01*
X00157*
Y00415*
X00152Y0041*
X00177Y00385D02*
X00187D01*
X00182*
Y00415*
X00177Y0041*
X0016Y00435D02*
Y00464D01*
X00175*
X0018Y0046*
Y0045*
X00175Y00445*
X0016*
X0017D02*
X0018Y00435D01*
X0019Y0044D02*
X00195Y00435D01*
X00204*
X00209Y0044*
Y0046*
X00204Y00464*
X00195*
X0019Y0046*
Y00455*
X00195Y0045*
X00209*
X00383Y00158D02*
Y00188D01*
X00398*
X00403Y00183*
Y00173*
X00398Y00168*
X00383*
X00393D02*
X00403Y00158D01*
X00413D02*
X00423D01*
X00418*
Y00188*
X00413Y00183*
X00515Y00321D02*
Y00296D01*
X0052Y00291*
X0053*
X00535Y00296*
Y00321*
X00545Y00291D02*
X00554D01*
X0055*
Y00321*
X00545Y00316*
X00266Y00324D02*
Y00299D01*
X00271Y00294*
X00281*
X00286Y00299*
Y00324*
X00316Y00294D02*
X00296D01*
X00316Y00314*
Y00319*
X00311Y00324*
X00301*
X00296Y00319*
X00114Y00273D02*
Y00293D01*
X00109Y00298*
X00099*
X00094Y00293*
Y00273*
X00099Y00268*
X00109*
X00104Y00278D02*
X00114Y00268D01*
X00109D02*
X00114Y00273D01*
X00124Y00268D02*
X00134D01*
X00129*
Y00298*
X00124Y00293*
X00272Y00469D02*
X00282D01*
X00277*
Y0044*
X00272*
X00282*
X00317Y00465D02*
X00312Y00469D01*
X00302*
X00297Y00465*
Y00445*
X00302Y0044*
X00312*
X00317Y00445*
X00327Y0044D02*
X00337D01*
X00332*
Y00469*
X00327Y00465*
X00165Y00504D02*
Y00475D01*
X0018*
X00185Y0048*
Y005*
X0018Y00504*
X00165*
X00195Y00475D02*
X00204D01*
X00199*
Y00504*
X00195Y005*
X0025Y0052D02*
X00245Y00525D01*
X00235*
X0023Y0052*
Y005*
X00235Y00495*
X00245*
X0025Y005*
X00274Y00495D02*
Y00525D01*
X0026Y0051*
X00279*
M02*