G04*
G04 #@! TF.GenerationSoftware,Altium Limited,Altium Designer,19.1.8 (144)*
G04*
G04 Layer_Physical_Order=1*
G04 Layer_Color=255*
%FSAX24Y24*%
%MOIN*%
G70*
G01*
G75*
%ADD10C,0.0100*%
%ADD11C,0.0060*%
%ADD13C,0.0080*%
%ADD14C,0.0150*%
%ADD15C,0.0200*%
%ADD16C,0.0472*%
%ADD17C,0.0160*%
D10*
X044893Y062673D02*
X045035Y062977D01*
X044893Y062673D02*
X045197Y062531D01*
X044588Y062815D02*
X044893Y062673D01*
X044750Y062368D02*
X044893Y062673D01*
D11*
X044228Y062431D02*
X044283Y062198D01*
D13*
X045822Y066445D02*
G03*
X045726Y066556I-000112J000000D01*
G01*
X045809Y066285D02*
G03*
X045822Y066319I-000037J000034D01*
G01*
X044841Y067007D02*
G03*
X044409Y066827I000000J-000612D01*
G01*
X044301Y066047D02*
G03*
X043960Y066128I-000180J000000D01*
G01*
X044281Y065966D02*
G03*
X044301Y066047I-000161J000081D01*
G01*
X044441Y062113D02*
G03*
X044463Y062186I-000158J000085D01*
G01*
X043388Y064989D02*
G03*
X043369Y064911I000161J-000081D01*
G01*
X043388Y064989D02*
G03*
X043369Y064911I000161J-000081D01*
G01*
X043425Y065843D02*
G03*
X043092Y065040I000803J-000803D01*
G01*
X042806Y063088D02*
G03*
X042753Y063030I000590J-000590D01*
G01*
X043535Y062641D02*
G03*
X043683Y062731I000000J000168D01*
G01*
X043551Y062345D02*
G03*
X043692Y062687I-000343J000342D01*
G01*
X043535Y062641D02*
G03*
X043459Y062610I000000J-000107D01*
G01*
X043459Y062609D02*
G03*
X043387Y062435I000174J-000174D01*
G01*
D02*
G03*
X043447Y062291I000203J000000D01*
G01*
X043447D02*
G03*
X043550Y062345I-000033J000190D01*
G01*
X043264Y060679D02*
G03*
X043498Y060582I000234J000234D01*
G01*
X043060Y062833D02*
G03*
X043015Y062780I000335J-000335D01*
G01*
D02*
G03*
X042922Y062525I000381J-000283D01*
G01*
X042753Y063030D02*
G03*
X042562Y062498I000643J-000532D01*
G01*
D02*
G03*
X042571Y062439I000180J000000D01*
G01*
X042562Y062498D02*
G03*
X042571Y062439I000180J000000D01*
G01*
X042474Y063106D02*
G03*
X042326Y062749I000356J-000356D01*
G01*
X042941Y061601D02*
G03*
X043168Y061525I000156J000090D01*
G01*
X042941Y061600D02*
G03*
X043168Y061525I000156J000090D01*
G01*
X042735Y061965D02*
G03*
X042749Y061933I000170J000059D01*
G01*
X042735Y061965D02*
G03*
X042749Y061933I000170J000059D01*
G01*
X045822Y066319D02*
Y066445D01*
X045034Y066999D02*
X045726Y066556D01*
X045617Y066076D02*
X045808Y066285D01*
X045389Y065814D02*
X045617Y066076D01*
X044752Y067000D02*
X045032D01*
X044381Y066800D02*
X045345D01*
X044841Y067007D02*
X045007D01*
X043981Y066400D02*
X045822D01*
X044215Y066200D02*
X045731D01*
X044181Y066600D02*
X045658D01*
X045110Y065494D02*
X045389Y065814D01*
X045081Y063000D02*
X045501D01*
X044978Y063319D02*
X045358Y063141D01*
X045373Y063131D02*
X045595Y062904D01*
X045271Y062800D02*
X045643D01*
X044881Y063093D02*
X045222Y062934D01*
X044294Y066000D02*
X045551D01*
X044198Y065800D02*
X045377D01*
X044098Y065600D02*
X045203D01*
X044826Y065105D02*
X045110Y065494D01*
X044119Y063200D02*
X045232D01*
X043997Y065400D02*
X045042D01*
X043897Y065200D02*
X044895D01*
X044500Y064551D02*
X044826Y065105D01*
X044405Y064369D02*
X044500Y064551D01*
X043728Y064865D02*
X044281Y065966D01*
X043796Y065000D02*
X044764D01*
X043781Y066200D02*
X044026D01*
X043727Y064800D02*
X044647D01*
X043724Y064600D02*
X044529D01*
X043723Y064528D02*
X043728Y064865D01*
X044231Y063971D02*
X044405Y064369D01*
X044539Y063341D02*
X044959Y063323D01*
X044031Y063418D02*
X044231Y063971D01*
X044160Y063230D02*
X044522Y063339D01*
X044631Y063002D02*
X044881Y063093D01*
X044008Y062708D02*
X044218Y062784D01*
X043704Y064400D02*
X044422D01*
X043883Y063000D02*
X044630D01*
X043965Y063204D02*
X044031Y063418D01*
X043747Y062800D02*
X044537D01*
X043843Y062966D02*
X044142Y063220D01*
X045605Y062889D02*
X045813Y062405D01*
X045274Y062600D02*
X045729D01*
X045222Y062934D02*
X045313Y062684D01*
X045180Y062400D02*
X045815D01*
X045814Y062067D02*
X045818Y062384D01*
X045156Y062347D02*
X045313Y062684D01*
X045125Y062362D02*
X045156Y062347D01*
X045411Y062228D01*
X044900Y062254D02*
X044915Y062285D01*
X045422Y062200D02*
X045815D01*
X045479Y062000D02*
X045793D01*
X045411Y062228D02*
X045488Y062018D01*
X045672Y061657D02*
X045811Y062051D01*
X045386Y061800D02*
X045722D01*
X045470Y061396D02*
X045664Y061642D01*
X045354Y061731D02*
X045488Y062018D01*
X045144Y061655D02*
X045354Y061731D01*
X044857Y061788D02*
X045144Y061655D01*
X044741Y061600D02*
X045630D01*
X045098Y061166D02*
X045457Y061384D01*
X044630Y060995D02*
X045089Y061162D01*
X044474Y062665D02*
X044631Y063002D01*
X044567Y062409D02*
X044581Y062441D01*
X044474Y062665D02*
X044505Y062651D01*
X044567Y062409D02*
X044900Y062254D01*
X044781Y061999D02*
X044900Y062254D01*
X044218Y062784D02*
X044474Y062665D01*
X043875Y062421D02*
X044008Y062708D01*
X043875Y062421D02*
X043938Y062246D01*
X044463Y062186D02*
X044567Y062409D01*
X044469Y062200D02*
X044875D01*
X044781Y061999D02*
X044857Y061788D01*
X044815Y061800D02*
X044853D01*
X044717Y062000D02*
X044782D01*
X044747Y061986D02*
X044823Y061776D01*
X044690Y061489D02*
X044823Y061776D01*
X044480Y061413D02*
X044690Y061489D01*
X044460Y062120D02*
X044747Y061986D01*
X044116Y061757D02*
X044218Y061975D01*
X043810Y061800D02*
X044137D01*
X044193Y061547D02*
X044480Y061413D01*
X044116Y061757D02*
X044193Y061547D01*
X043425Y065843D02*
X044409Y066827D01*
X043581Y066000D02*
X043896D01*
X043384Y065800D02*
X043795D01*
X043388Y064989D02*
X043960Y066128D01*
X043240Y065600D02*
X043695D01*
X043151Y065400D02*
X043594D01*
X043103Y065200D02*
X043494D01*
X043106Y065000D02*
X043393D01*
X043364Y064547D02*
X043369Y064911D01*
X043670Y064200D02*
X044331D01*
X043636Y064000D02*
X044244D01*
X043602Y063800D02*
X044169D01*
X043568Y063600D02*
X044097D01*
X043535Y063400D02*
X044025D01*
X043540Y063433D02*
X043721Y064500D01*
X043530Y063375D02*
X043540Y063433D01*
X043528Y063285D02*
Y063360D01*
X043184Y064800D02*
X043367D01*
X043443Y063200D02*
X043964D01*
X043243Y063000D02*
X043845D01*
X043043Y062800D02*
X043725D01*
X043226Y064600D02*
X043364D01*
X043241Y064400D02*
X043339D01*
X043228Y064216D02*
X043247Y064498D01*
X043185Y063494D02*
X043364Y064547D01*
X043223Y064200D02*
X043305D01*
X043172Y064023D02*
X043228Y064216D01*
X043170Y064863D02*
X043247Y064498D01*
X043169Y064000D02*
X043271D01*
X043097Y065019D02*
X043170Y064863D01*
X043150Y063828D02*
X043170Y064014D01*
X043141Y063800D02*
X043237D01*
X043094Y063658D02*
X043150Y063828D01*
X043055Y063600D02*
X043203D01*
X042876Y063400D02*
X043103D01*
X042971Y063474D02*
X043094Y063658D01*
X042753Y063050D02*
X043183Y063480D01*
X042792Y063335D02*
X042971Y063474D01*
X042607Y063202D02*
X042792Y063335D01*
X042604Y063200D02*
X042903D01*
X042483Y063113D02*
X042606Y063202D01*
X042393Y063000D02*
X042730D01*
X042329Y062800D02*
X042618D01*
X043683Y062731D02*
X043960Y063192D01*
X043699Y062712D02*
X043831Y062952D01*
X043684Y062600D02*
X043958D01*
X043598Y062400D02*
X043882D01*
X043023Y062780D02*
X043528Y063285D01*
X042933Y062600D02*
X043450D01*
X042966Y062400D02*
X043390D01*
X043344Y061600D02*
X044174D01*
X043195Y060800D02*
X044100D01*
X043515Y060585D02*
X044630Y060995D01*
X043390Y060600D02*
X043557D01*
X043173Y061919D02*
X043938Y062246D01*
X043168Y061525D02*
X044218Y061975D01*
X043035Y062200D02*
X043830D01*
X042862Y061400D02*
X045473D01*
X042973Y061200D02*
X045153D01*
X043084Y061000D02*
X044643D01*
X042922Y062525D02*
X043070Y062098D01*
X042571Y062439D02*
X042735Y061965D01*
X042372Y062600D02*
X042568D01*
X042329Y062734D02*
X042620Y061840D01*
X042502Y062200D02*
X042654D01*
X042437Y062400D02*
X042585D01*
X043070Y062098D02*
X043173Y061919D01*
X043127Y062000D02*
X043363D01*
X042749Y061933D02*
X042941Y061601D01*
X042752Y061600D02*
X042942D01*
X042568Y062000D02*
X042723D01*
X042624Y061831D02*
X043256Y060690D01*
X042641Y061800D02*
X042826D01*
D14*
X043353Y063405D02*
G03*
X043363Y063463I-000167J000058D01*
G01*
X043311Y063338D02*
G03*
X043353Y063405I-000125J000125D01*
G01*
D15*
X042933Y062960D02*
G03*
X042742Y062498I000463J-000463D01*
G01*
X043363Y063463D02*
X043543Y064530D01*
X043353Y063405D02*
X043363Y063463D01*
X043348Y063375D02*
X043353Y063405D01*
X042742Y062498D02*
X042905Y062023D01*
X042933Y062960D02*
X043348Y063375D01*
X043097Y061690D02*
X044283Y062198D01*
X042905Y062023D02*
X043097Y061690D01*
X043543Y064530D02*
X043549Y064909D01*
X044121Y066047D01*
D16*
X044228Y062431D02*
D03*
X044470Y061766D02*
D03*
X045134Y062008D02*
D03*
X044893Y062673D02*
D03*
D17*
X044853Y066713D02*
D03*
X045263Y066589D02*
D03*
X044509Y066530D02*
D03*
X044121Y066047D02*
D03*
M02*
