%FSTAX23Y23*%
%MOIN*%
%SFA1B1*%

%IPPOS*%
%ADD14C,0.008000*%
%ADD66C,0.048000*%
%ADD70C,0.059060*%
%ADD72C,0.015750*%
%ADD73C,0.023620*%
%ADD74C,0.016000*%
%LNpower_pcb_v2-1*%
%LPD*%
G36*
X01987Y01493D02*
X01986Y01451D01*
X01981Y0145*
X01981Y01454*
X01978Y01458*
X01974Y01461*
X0197Y01462*
X01965Y01461*
X01961Y01458*
X01958Y01454*
X01957Y0145*
X01958Y01445*
X01961Y01441*
X01965Y01438*
X0197Y01437*
X01974Y01438*
X01978Y01441*
X01981Y01445*
X01981Y01449*
X01986Y01448*
X01986Y01188*
X0183*
Y01203*
X01832Y01205*
Y01245*
Y01284*
X0183Y01286*
Y01295*
X01935*
Y0142*
X01918*
X01907Y0143*
Y01442*
X01907Y01442*
X0191Y01446*
X01911Y01451*
X0191Y01455*
X01907Y01459*
X01903Y01462*
X01899Y01463*
X01894Y01462*
X0189Y01459*
X01888Y01455*
X01887Y01451*
X01887Y0145*
X01888Y01446*
X0189Y01442*
X01891Y01442*
Y01427*
X01891Y01425*
X01889Y01421*
X01888Y0142*
X0175*
X0175Y0142*
X01747Y01424*
X01743Y01427*
X01738Y01428*
X01734Y01427*
X0173Y01424*
X01727Y0142*
X01727Y0142*
X01637*
Y0142*
X01636Y01424*
X01633Y01428*
X01629Y01431*
X01624Y01432*
X0162Y01431*
X01616Y01428*
X01613Y01424*
X01612Y0142*
Y0142*
X01582*
X01581Y01425*
X01583Y01426*
X01586Y0143*
X01587Y01435*
X01586Y01439*
X01583Y01443*
X01579Y01446*
X01575Y01447*
X0157Y01446*
X01568Y01445*
X01566Y01443*
X01563Y01439*
X01562Y01435*
X01563Y0143*
X01566Y01426*
X01568Y01425*
X01567Y0142*
X01505*
Y01445*
X0148*
X01476Y01449*
X01469Y01455*
X0146Y01456*
X0145Y01455*
X01443Y01449*
X01439Y01445*
X01434*
X01433Y01446*
X01429Y01449*
X01425Y0145*
X0142Y01449*
X01416Y01446*
X01415Y01445*
X01373*
X01369Y01449*
X01368Y01454*
X01366Y01458*
X01362Y01461*
X01357Y01462*
X01352Y01461*
X01347Y01463*
X01345Y01467*
X01341Y0147*
X01336Y01471*
X01332Y0147*
X01328Y01467*
X01325Y01463*
X01324Y01459*
X01325Y01454*
X01328Y0145*
X01328Y0145*
X01327Y01445*
X0129*
X01288Y01448*
X01284Y01451*
X0128Y01452*
X01275Y01451*
X01271Y01448*
X01269Y01445*
X0122*
X01219Y01446*
X01218Y0145*
X01216Y01454*
X01212Y01457*
X01207Y01458*
X01203Y01457*
X01199Y01454*
X01196Y0145*
X01195Y01446*
X01194Y01445*
X01158*
X01156Y0145*
X01157Y0145*
X01159Y01454*
X0116Y01458*
X01161Y01459*
X01165Y01461*
X01168Y01461*
X01172Y01461*
X01176Y01464*
X01179Y01468*
X0118Y01473*
X01179Y01477*
X01176Y01481*
X01172Y01484*
X01168Y01485*
X01163Y01484*
X01159Y01481*
X01157Y01477*
X01156Y01474*
X01155Y01472*
X01151Y0147*
X01148Y01471*
X01143Y0147*
X0114Y01467*
X01137Y01463*
X01136Y01458*
X01137Y01454*
X0114Y0145*
X0114Y0145*
X01139Y01445*
X01098*
X01097Y01446*
X01096Y0145*
X01098Y01453*
X01099Y01457*
X01098Y01462*
X01096Y01466*
X01092Y01468*
X01087Y01469*
X01083Y01468*
X01079Y01466*
X01078*
X01076Y01468*
X01072Y01471*
X01068Y01472*
X01063Y01471*
X01059Y01468*
X01056Y01464*
X01055Y0146*
X01056Y01455*
X01059Y01451*
X01059Y01451*
X01058Y01446*
X01055Y01445*
X01052Y0145*
X01051Y01454*
X01048Y01458*
X01044Y01461*
X0104Y01462*
X01035Y01461*
X01031Y01458*
X01028Y01454*
X01027Y0145*
X01023Y01445*
X00998*
X00997Y01445*
X00995Y01449*
X00991Y01451*
X00986Y01452*
X00982Y01451*
X00978Y01449*
X00975Y01445*
X00975Y01445*
X0088*
Y0141*
X00835*
Y01445*
Y01496*
X01223*
X01224Y01491*
X0122Y01491*
X01216Y01488*
X01213Y01484*
X01212Y0148*
X01213Y01475*
X01216Y01471*
X0122Y01468*
X01225Y01467*
X01229Y01468*
X01233Y01471*
X01236Y01475*
X01237Y0148*
X01236Y01484*
X01233Y01488*
X01229Y01491*
X01225Y01491*
X01226Y01496*
X01475Y01496*
X01476Y01491*
X01474Y01491*
X0147Y01489*
X01468Y01485*
X01467Y0148*
X01468Y01475*
X0147Y01471*
X01474Y01469*
X01479Y01468*
X01483Y01469*
X01487Y01471*
X0149Y01475*
X01491Y0148*
X0149Y01485*
X01487Y01489*
X01483Y01491*
X01482Y01491*
X01482Y01496*
X01609*
X01613Y01491*
X01612Y0149*
X01613Y01485*
X01616Y01481*
X0162Y01478*
X01625Y01477*
X01629Y01478*
X01632Y0148*
X01636Y01478*
X01637Y01478*
X01636Y01472*
X01637Y01463*
X01643Y01455*
X0165Y0145*
X0166Y01448*
X01661Y01449*
X01665Y01445*
X01666Y01441*
X01668Y01437*
X01672Y01434*
X01677Y01433*
X01681Y01434*
X01685Y01437*
X01688Y01441*
X01689Y01445*
X01688Y0145*
X01685Y01454*
X01683Y01456*
X0168Y01461*
X01682Y01463*
X01683Y01472*
X01683Y01474*
X01688Y01478*
X0169Y01477*
X01694Y01478*
X01698Y01481*
X01701Y01485*
X01702Y0149*
X01701Y01491*
X01705Y01496*
X01768*
X01772Y01491*
X01772Y01491*
X01773Y01487*
X01776Y01483*
X0178Y0148*
X01785Y01479*
X01789Y0148*
X01793Y01483*
X01796Y01487*
X01797Y01491*
X01797Y01491*
X01801Y01496*
X01983Y01496*
X01987Y01493*
G37*
G36*
X00825Y01493D02*
Y01452D01*
X0082Y0145*
X00819Y01451*
X00815Y01452*
X0081Y01451*
X00808Y0145*
X0041*
Y01496*
X00533*
X00533Y01496*
X00535Y01491*
X00533Y01489*
X00532Y01485*
X00533Y0148*
X00536Y01476*
X0054Y01473*
X00545Y01472*
X00549Y01473*
X00553Y01476*
X00556Y0148*
X00557Y01485*
X00556Y01489*
X00554Y01491*
X00556Y01496*
X00556Y01496*
X00623*
X00624Y01496*
X00625Y01491*
X00623Y01489*
X00622Y01484*
X00623Y0148*
X00626Y01476*
X0063Y01473*
X00635Y01472*
X00639Y01473*
X00643Y01476*
X00646Y0148*
X00647Y01484*
X00646Y01489*
X00644Y01491*
X00645Y01496*
X00646Y01496*
X00821Y01496*
X00825Y01493*
G37*
G36*
X004Y01493D02*
Y01468D01*
X00395Y01465*
X00394Y01466*
X0039Y01467*
X00385Y01466*
X00381Y01463*
X00378Y01459*
X00377Y01455*
X00378Y0145*
X00381Y01446*
X00385Y01443*
X0039Y01442*
X00394Y01443*
X00395Y01444*
X004Y01441*
Y0144*
X0041*
X00413Y01436*
X00413Y01435*
X00412Y0143*
X00413Y01426*
X00416Y01422*
X0042Y01419*
X00425Y01418*
X00429Y01419*
X00433Y01422*
X00436Y01426*
X00437Y0143*
X00436Y01435*
X00436Y01436*
X00439Y0144*
X00467*
X00468Y01435*
X00466Y01433*
X00463Y01429*
X00462Y01425*
X00463Y0142*
X00466Y01416*
X0047Y01413*
X00475Y01412*
X00479Y01413*
X00483Y01416*
X00486Y0142*
X00487Y01425*
X00486Y01429*
X00483Y01433*
X00481Y01435*
X00482Y0144*
X0053*
Y01365*
X00315*
Y013*
X00313Y01295*
X00315Y01289*
Y01265*
X0032Y0126*
Y0122*
X00325Y01215*
X00369*
X00371Y01211*
X00375Y01208*
X0038Y01207*
X00384Y01208*
X00388Y01211*
X0039Y01215*
X00404*
X00405Y01213*
X00406Y01209*
X00409Y01205*
X00413Y01202*
X00417Y01201*
X00422Y01202*
X00426Y01205*
X00429Y01209*
X00431Y01209*
X00434Y01209*
X00436Y01206*
X0044Y01203*
X00445Y01202*
X00449Y01203*
X00453Y01206*
X00456Y0121*
X00457Y01215*
X0064*
Y0132*
X00666*
X00668Y01317*
X00669Y01315*
X00668Y01311*
X00669Y01306*
X00672Y01302*
X00676Y01299*
X0068Y01299*
X00685Y01299*
X00689Y01302*
X00691Y01306*
X00692Y01311*
X00692Y01315*
X00693Y01317*
X00695Y0132*
X00726*
X00729Y01315*
X00728Y01314*
X00727Y0131*
X00728Y01305*
X00731Y01301*
X00735Y01298*
X0074Y01297*
X00744Y01298*
X00748Y01301*
X00751Y01305*
X00752Y0131*
X00751Y01314*
X0075Y01315*
X00753Y0132*
X00791*
X00794Y01315*
X00793Y01314*
X00792Y0131*
X00793Y01305*
X00796Y01301*
X008Y01298*
X00805Y01297*
X00809Y01298*
X00813Y01301*
X00816Y01305*
X00817Y0131*
X00816Y01314*
X00815Y01315*
X00818Y0132*
X0089*
X00935Y01365*
Y01391*
X00976*
X00978Y01386*
X00976Y01383*
X00975Y01376*
X00976Y01372*
X00972Y01371*
X00968Y01369*
X00966Y01365*
X00965Y0136*
X00966Y01356*
X00968Y01352*
X00972Y01349*
X00977Y01348*
X00982Y01349*
X00985Y01352*
X00988Y01356*
X00989Y01359*
X00993Y01358*
X01Y01359*
X01006Y01363*
X0101Y01369*
X0101Y01371*
X00993*
Y01381*
X0101*
X0101Y01383*
X01008Y01386*
X0101Y01391*
X01062*
X01063Y01386*
X01066Y01383*
X0107Y0138*
X01075Y01379*
X01079Y0138*
X01083Y01383*
X01086Y01386*
X01087Y01391*
X01092*
X01093Y01386*
X01096Y01383*
X011Y0138*
X01105Y01379*
X01109Y0138*
X01113Y01383*
X01116Y01386*
X01117Y01391*
X01122*
X01123Y01386*
X01126Y01383*
X0113Y0138*
X01135Y01379*
X01139Y0138*
X01143Y01383*
X01146Y01386*
X01146Y0139*
X01151*
X01152Y01387*
X01155Y01383*
X01159Y0138*
X01163Y01379*
X01168Y0138*
X01172Y01383*
X01174Y01387*
X01175Y01391*
X01223*
X01223Y01389*
X01226Y01385*
X0123Y01383*
X01235Y01382*
X01239Y01383*
X01243Y01385*
X01246Y01389*
X01246Y01391*
X01313*
X0132Y01384*
X01322Y01378*
X01327Y01372*
X01333Y01368*
X01339Y01365*
X0137Y01335*
X0137*
X01372Y01328*
X01377Y01322*
X01383Y01318*
X01389Y01315*
X01397Y01314*
X01404Y01315*
X0141Y01318*
X01416Y01322*
X01421Y01328*
X01423Y01335*
X01457*
X01458Y01334*
X01458Y0133*
X01461Y01326*
X01465Y01323*
X01465*
X01468Y01319*
X01467Y01315*
X01468Y0131*
X01471Y01306*
X01475Y01303*
X0148Y01302*
X01484Y01303*
X01488Y01306*
X01491Y0131*
X01492Y01315*
X01491Y01319*
X01488Y01323*
X01489Y01324*
X0149Y01328*
X01494Y01328*
X01498Y01331*
X01499Y01333*
X01502Y01333*
X01503Y01332*
X01506Y01328*
X01505Y01325*
X01506Y0132*
X01508Y01316*
X01512Y01314*
X01517Y01313*
X01522Y01314*
X01526Y01316*
X01528Y0132*
X01529Y01325*
X01528Y01329*
X01528Y0133*
X01531Y01335*
X01565*
X01567Y01333*
X01572Y01332*
X01576Y01333*
X01578Y01335*
X01592*
X01593Y0133*
X01596Y01326*
X016Y01323*
X01602Y01323*
X01607Y0132*
X01608Y01316*
X0161Y01312*
X01614Y01309*
X01619Y01308*
X01623Y01309*
X01627Y01312*
X0163Y01316*
X01631Y0132*
X0163Y01325*
X01627Y01329*
X01626Y0133*
X01628Y01335*
X01748*
X01749Y01332*
Y0133*
X01746Y01327*
X01743Y01323*
X01742Y01319*
X01743Y01314*
X01745Y01311*
X01745Y01308*
X01744Y01305*
X01741Y01303*
X01738Y01299*
X01737Y01295*
X01738Y0129*
X01741Y01286*
X01745Y01283*
X0175Y01282*
X01754Y01283*
X01758Y01286*
X01761Y0129*
X01762Y01295*
X01761Y01299*
X01759Y01302*
X01759Y01305*
X0176Y01308*
X01763Y0131*
X01766Y01314*
X01766Y01319*
X01766Y01323*
X01763Y01327*
X0176Y0133*
X0176Y01332*
X0176Y01335*
X01899*
X01901Y01331*
X01905Y01328*
X0191Y01327*
X01914Y01328*
X01918Y01331*
X0192Y01335*
X0193*
Y013*
X0183*
Y01299*
X01826Y01298*
X01825Y01295*
Y01286*
X01825Y01286*
X01825Y01286*
X01826Y01284*
X01826Y01283*
X01827Y01283*
X01827Y01283*
X01827Y01282*
Y01276*
X01823Y01274*
X01816Y01268*
X0181Y01261*
X01808Y01255*
X01806Y01254*
X01803Y01254*
X01802Y01254*
X01799Y01256*
X01795Y01257*
X0179Y01256*
X01786Y01253*
X01783Y01249*
X01782Y01245*
X01783Y0124*
X01786Y01236*
X0179Y01233*
X01795Y01232*
X01799Y01233*
X01802Y01235*
X01803Y01235*
X01806Y01235*
X01808Y01234*
X0181Y01228*
X01816Y01221*
X01823Y01215*
X01827Y01213*
Y01207*
X01827Y01206*
X01827Y01206*
X01826Y01206*
X01826Y01205*
X01825Y01203*
X01825Y01203*
X01825Y01203*
Y01188*
X0182*
X01755*
X01754Y01192*
X01761Y01195*
X01767Y012*
X01769Y01203*
X01775Y01202*
X01776Y01201*
X0178Y01198*
X01785Y01197*
X01789Y01198*
X01793Y01201*
X01796Y01205*
X01797Y0121*
X01796Y01214*
X01793Y01218*
X01789Y01221*
X01785Y01222*
X0178Y01221*
X0178Y01221*
X01774Y01223*
X01774Y01227*
X01771Y01234*
X01767Y01239*
X01761Y01244*
X01754Y01247*
X01747Y01248*
X01739Y01247*
X01733Y01244*
X01727Y01239*
X01722Y01234*
X0172Y01228*
X01717Y01227*
X01715Y01228*
X01712Y01234*
X01709Y01237*
X0171Y01238*
Y01255*
X01697*
X01698Y01253*
X01699Y0125*
X01696Y01246*
X01695Y01247*
X01688Y01248*
X0168Y01247*
X01673Y01244*
X01668Y01239*
X01663Y01234*
X01661Y01228*
X01658Y01227*
X01655Y01228*
X01653Y01234*
X01649Y01239*
X01643Y01244*
X01636Y01247*
X01629Y01248*
X01621Y01247*
X01621Y01247*
X01616Y0125*
X01616Y01252*
X01613Y01256*
X01609Y01259*
X01605Y0126*
X016Y01259*
X01596Y01256*
X01593Y01252*
X01592Y01248*
X01593Y01243*
X01596Y01239*
X016Y01237*
X016Y01237*
X01601Y01236*
X01602Y01232*
X01601Y0123*
X01596Y0123*
X01594Y01234*
X01589Y01239*
X01584Y01244*
X01577Y01247*
X0157Y01248*
X01562Y01247*
X01555Y01244*
X01555Y01244*
X01549Y01246*
X01548Y01248*
X01544Y01251*
X01539Y01252*
X01534Y01251*
X01531Y01248*
X0153Y01248*
X01528Y01247*
X01519Y01251*
X01515Y01251*
Y01218*
X0151*
Y01213*
X01477*
X01477Y01209*
X01481Y012*
X01486Y01193*
X01487Y01193*
X01486Y01188*
X01261*
X0126Y01193*
X01264Y01193*
X01268Y01196*
X01271Y012*
X01272Y01205*
X01271Y01209*
X01268Y01213*
X01264Y01216*
X0126Y01217*
X01255Y01216*
X01251Y01213*
X01248Y01209*
X01247Y01205*
X01248Y012*
X01251Y01196*
X01255Y01193*
X01259Y01193*
X01258Y01188*
X00233*
X00233Y01493*
X00236Y01496*
X00396*
X004Y01493*
G37*
G36*
X00825Y01392D02*
X0082Y01391D01*
X00818Y01393*
X00814Y01396*
X0081Y01397*
X00805Y01396*
X00801Y01393*
X00799Y0139*
X00766*
X00764Y01391*
X0076Y01392*
X00755Y01391*
X00753Y0139*
X00606*
X00602Y01395*
X00602Y01395*
X00601Y01399*
X00599Y01403*
X00595Y01406*
X0059Y01407*
X00585Y01406*
X00582Y01403*
X00579Y01399*
X00578Y01395*
X00579Y0139*
X00582Y01386*
X00585Y01384*
X0059Y01383*
X00591Y01383*
X00596Y01379*
Y01302*
X00594Y01301*
X0059Y01299*
X00587Y01295*
X00586Y0129*
X00587Y01285*
X0059Y01281*
X00594Y01279*
X00596Y01278*
Y0127*
X00577*
X00576Y01274*
X00573Y01278*
X00569Y01281*
X00565Y01282*
X0056Y01281*
X00556Y01278*
X00553Y01274*
X00552Y0127*
X00325*
Y01275*
X00328Y01279*
X0033Y01278*
X00336Y0128*
X00341Y01283*
X00344Y01288*
X00346Y01295*
X00344Y01301*
X00341Y01306*
X00336Y01309*
X0033Y01311*
X00328Y0131*
X00325Y01314*
Y01359*
X00426*
X00428Y01354*
X00427Y0135*
X00428Y01345*
X00431Y01341*
X00435Y01338*
X0044Y01337*
X00444Y01338*
X00448Y01341*
X00451Y01345*
X00452Y0135*
X00451Y01354*
X00453Y01359*
X0054*
Y01375*
X00545Y01377*
X00546Y01375*
X0055Y01372*
X00554Y01371*
X00559Y01372*
X00563Y01375*
X00566Y01379*
X00566Y01384*
X00566Y01388*
X00563Y01392*
X00559Y01395*
X00554Y01396*
X0055Y01395*
X00546Y01392*
X00545Y0139*
X0054Y01392*
Y0144*
X00825*
Y01392*
G37*
G36*
X00974Y0144D02*
X00975Y01436D01*
X00978Y01432*
X00982Y01429*
X00986Y01428*
X00991Y01429*
X00995Y01432*
X00997Y01436*
X00998Y0144*
X01033*
X01035Y01438*
X0104Y01437*
X01044Y01438*
X01046Y0144*
X01197*
X01199Y01437*
X01203Y01434*
X01207Y01434*
X01212Y01434*
X01216Y01437*
X01217Y0144*
X01267*
X01268Y01435*
X01271Y01431*
X01275Y01428*
X0128Y01427*
X01284Y01428*
X01288Y01431*
X01291Y01435*
X01292Y0144*
X01351*
X01352Y01438*
X01357Y01437*
X01362Y01438*
X01364Y0144*
X01411*
X01413Y01438*
X01414Y01433*
X01416Y01429*
X0142Y01426*
X01425Y01425*
X01429Y01426*
X01431Y01428*
X01437Y01426*
X01437Y01426*
X01437Y01423*
X01443Y01415*
X01444Y01415*
X0145Y0141*
X0146Y01408*
X01469Y0141*
X01476Y01415*
X01482Y01423*
X01483Y01432*
X01483Y01436*
X01486Y0144*
X01495*
Y01415*
X01607*
X01608Y01413*
X01612Y01407*
X01617Y01403*
X01619Y01402*
Y0142*
X01629*
Y01402*
X01631Y01403*
X01633Y01404*
X01635Y01403*
X01637Y01401*
X01636Y01392*
X01637Y01383*
X01643Y01375*
X0165Y0137*
X0166Y01368*
X01669Y0137*
X01676Y01375*
X01682Y01383*
X01683Y01392*
X01682Y01402*
X01676Y01409*
X01676Y0141*
X01677Y01415*
X01726*
X01727Y01411*
X0173Y01407*
X01734Y01404*
X01738Y01403*
X01743Y01404*
X01747Y01407*
X0175Y01411*
X0175Y01415*
X01841*
X01844Y0141*
X01843Y01409*
X01842Y01405*
X01843Y014*
X01846Y01396*
X0185Y01393*
X01855Y01392*
X01859Y01393*
X01863Y01396*
X01866Y014*
X01867Y01405*
X01866Y01409*
X01865Y0141*
X01868Y01415*
X01928*
Y01343*
X01926Y01341*
X01921Y01343*
X01921Y01344*
X01918Y01348*
X01914Y01351*
X0191Y01352*
X01905Y01351*
X01901Y01348*
X01898Y01344*
X01897Y0134*
X01892*
X01868*
X01865Y01345*
X01866Y01345*
X01867Y0135*
X01866Y01354*
X01863Y01358*
X01859Y01361*
X01855Y01362*
X0185Y01361*
X01846Y01358*
X01843Y01354*
X01842Y0135*
X01843Y01345*
X01844Y01345*
X01841Y0134*
X01622*
X01621Y01345*
X01623Y01346*
X01626Y0135*
X01627Y01355*
X01626Y01359*
X01623Y01363*
X01619Y01366*
X01615Y01367*
X0161Y01366*
X01606Y01363*
X01603Y01359*
X01602Y01355*
X01603Y0135*
X016Y01346*
X016Y01346*
X01596Y01343*
X01593Y0134*
X01588*
X01584Y01345*
X01583Y01349*
X0158Y01353*
X01576Y01356*
X01572Y01357*
X01567Y01356*
X01563Y01353*
X0156Y01349*
X01559Y01345*
X01555Y0134*
X01501*
X01501Y0134*
X015Y01344*
X01498Y01348*
X01494Y01351*
X01489Y01352*
X01485Y01351*
X01481Y01348*
X01478Y01344*
X01477Y01344*
X01474Y01346*
X0147Y01346*
X01465Y01346*
X01461Y01343*
X01459Y0134*
X0143*
Y0136*
X01434Y01361*
X01435Y01361*
X01437Y01357*
X01441Y01355*
X01446Y01354*
X0145Y01355*
X01454Y01357*
X01457Y01361*
X01458Y01366*
X01457Y0137*
X01454Y01374*
X0145Y01377*
X01446Y01378*
X01441Y01377*
X01437Y01374*
X01435Y01371*
X01434Y01371*
X0143Y01372*
Y01374*
X01373*
X01371Y01379*
X01373Y01385*
X01374Y01392*
X01373Y01399*
X01371Y01406*
X01366Y01412*
X0136Y01416*
X01354Y01419*
X01347Y0142*
X01339Y01419*
X01334Y01422*
X01334Y01423*
X01331Y01427*
X01327Y0143*
X01323Y01431*
X01318Y0143*
X01314Y01427*
X01311Y01423*
X0131Y01418*
X01311Y01414*
X01314Y0141*
X01318Y01407*
X01319Y01406*
X01318Y01403*
X01315Y014*
X01245*
X01243Y01402*
X01239Y01405*
X01235Y01406*
X0123Y01405*
X01226Y01402*
X01224Y014*
X01172*
X01172Y014*
X01168Y01402*
X01163Y01403*
X01159Y01402*
X01155Y014*
X01155Y014*
X01143*
X01143Y014*
X01139Y01402*
X01135Y01403*
X0113Y01402*
X01126Y014*
X01126Y014*
X01113*
X01113Y014*
X01109Y01402*
X01105Y01403*
X011Y01402*
X01096Y014*
X01096Y014*
X01083*
X01083Y014*
X01079Y01402*
X01075Y01403*
X0107Y01402*
X01066Y014*
X01066Y014*
X01009*
X01006Y01403*
X01006Y01404*
X01005Y01408*
X01003Y01412*
X00999Y01415*
X00994Y01416*
X00989Y01415*
X00985Y01412*
X00983Y01408*
X00982Y01404*
X00982Y01403*
X00979Y014*
X00972*
X00971Y01403*
X00971Y01405*
X00973Y01408*
X00974Y01413*
X00973Y01418*
X0097Y01421*
X00967Y01424*
X00962Y01425*
X00957Y01424*
X00953Y01421*
X00951Y01418*
X0095Y01413*
X00951Y01408*
X00953Y01405*
X00953Y01403*
X00952Y014*
X00925*
Y0137*
X00903Y01348*
X00898Y01348*
X00894Y01351*
X0089Y01352*
X00885Y01351*
X00881Y01348*
X00878Y01344*
X00877Y0134*
X00873Y01335*
X00866*
X00866Y01338*
X00863Y01342*
X00859Y01344*
X00855Y01345*
X0085Y01344*
X00846Y01342*
X00843Y01338*
X00843Y01335*
X00751*
X00747Y0134*
X00746Y01344*
X00743Y01348*
X00739Y01351*
X00735Y01352*
X0073Y01351*
X00726Y01348*
X00723Y01344*
X00722Y0134*
X00718Y01335*
X0064*
X0063Y01325*
Y0122*
X00617*
X00614Y01224*
X00614Y01225*
X00615Y01229*
X00614Y01233*
X00611Y01237*
X00607Y0124*
X00603Y01241*
X00601Y01241*
X00597Y01244*
X00597Y01245*
X00596Y01249*
X00593Y01253*
X00589Y01256*
X00585Y01257*
X0058Y01256*
X00576Y01253*
X00573Y01249*
X00572Y01245*
X00573Y0124*
X00576Y01236*
X0058Y01233*
X00585Y01232*
X00586Y01233*
X0059Y01229*
X00591Y01229*
X00591Y01229*
X00591Y01224*
X00589Y0122*
X00455*
X00453Y01223*
X00449Y01226*
X00445Y01227*
X0044Y01226*
X00436Y01223*
X00434Y0122*
X00428*
X00426Y01222*
X00422Y01225*
X00417Y01225*
X00413Y01225*
X00409Y01222*
X00407Y0122*
X00392*
X00391Y01224*
X00388Y01228*
X00384Y01231*
X0038Y01232*
X00375Y01231*
X00371Y01228*
X00368Y01224*
X00367Y0122*
X0033*
Y01265*
X00554*
X00556Y01261*
X0056Y01258*
X00565Y01257*
X00569Y01258*
X00573Y01261*
X00575Y01265*
X00605*
Y0128*
X00607Y01281*
X00609Y01285*
X0061Y0129*
X00609Y01295*
X00607Y01299*
X00605Y013*
Y01385*
X00743*
X00747Y0138*
X00748Y01375*
X00751Y01371*
X00755Y01368*
X0076Y01367*
X00762Y01365*
X00763Y0136*
X00766Y01356*
X0077Y01353*
X00775Y01352*
X00779Y01353*
X00782Y01355*
X00783Y01356*
X00788Y01354*
X00789Y01353*
X00793Y0135*
X00797Y0135*
X00802Y0135*
X00806Y01353*
X00809Y01357*
X00814Y01358*
X00814Y01357*
X00818Y01355*
X00823Y01354*
X00828Y01355*
X00831Y01357*
X00834Y01361*
X00835Y01366*
X00834Y0137*
X00831Y01374*
X00828Y01377*
X00827Y01377*
X00825Y0138*
X00825Y01383*
X00826Y01385*
X00835*
Y014*
X0089*
Y0144*
X00974*
G37*
%LNpower_pcb_v2-2*%
%LPC*%
G36*
X00982Y01488D02*
X00977Y01488D01*
X00973Y01485*
X00971Y01481*
X0097Y01476*
X00971Y01472*
X00973Y01468*
X00977Y01465*
X00982Y01464*
X00987Y01465*
X00991Y01468*
X00993Y01472*
X00994Y01476*
X00993Y01481*
X00991Y01485*
X00987Y01488*
X00982Y01488*
G37*
G36*
X01415Y01486D02*
X0141Y01485D01*
X01406Y01482*
X01403Y01478*
X01402Y01473*
X01403Y01469*
X01406Y01465*
X0141Y01462*
X01415Y01461*
X01419Y01462*
X01423Y01465*
X01426Y01469*
X01427Y01473*
X01426Y01478*
X01423Y01482*
X01419Y01485*
X01415Y01486*
G37*
G36*
X01116Y01482D02*
X01111Y01481D01*
X01107Y01478*
X01104Y01474*
X01104Y0147*
X01104Y01465*
X01107Y01461*
X01111Y01459*
X01116Y01458*
X0112Y01459*
X01124Y01461*
X01127Y01465*
X01128Y0147*
X01127Y01474*
X01124Y01478*
X0112Y01481*
X01116Y01482*
G37*
G36*
X0129Y01481D02*
X01285Y0148D01*
X01281Y01477*
X01279Y01473*
X01278Y01469*
X01279Y01464*
X01281Y0146*
X01285Y01458*
X0129Y01457*
X01295Y01458*
X01299Y0146*
X01301Y01464*
X01302Y01469*
X01301Y01473*
X01299Y01477*
X01295Y0148*
X0129Y01481*
G37*
G36*
X01967Y01352D02*
X01962Y01351D01*
X01958Y01348*
X01956Y01344*
X01955Y0134*
X01956Y01335*
X01958Y01331*
X01962Y01328*
X01967Y01327*
X01971Y01328*
X01975Y01331*
X01978Y01335*
X01979Y0134*
X01978Y01344*
X01975Y01348*
X01971Y01351*
X01967Y01352*
G37*
G36*
X01848Y01281D02*
Y01253D01*
X01876*
X01876Y01254*
X01872Y01263*
X01866Y01271*
X01858Y01277*
X01849Y01281*
X01848Y01281*
G37*
G36*
X01973Y01278D02*
X01906D01*
Y01211*
X01973*
Y01278*
G37*
G36*
X01876Y01237D02*
X01848D01*
Y01208*
X01849Y01208*
X01858Y01212*
X01866Y01218*
X01872Y01226*
X01876Y01235*
X01876Y01237*
G37*
G36*
X0026Y01467D02*
X00255Y01466D01*
X00251Y01463*
X00248Y01459*
X00247Y01455*
X00248Y0145*
X00251Y01446*
X00255Y01443*
X0026Y01442*
X00264Y01443*
X00268Y01446*
X00271Y0145*
X00272Y01455*
X00271Y01459*
X00268Y01463*
X00264Y01466*
X0026Y01467*
G37*
G36*
X0125Y01377D02*
X01245Y01376D01*
X01241Y01373*
X01238Y01369*
X01238Y01368*
X01236Y01364*
X01233Y01364*
X01231Y01365*
X01226Y01364*
X01222Y01361*
X0122Y01357*
X01219Y01353*
X0122Y01348*
X01222Y01344*
X01226Y01341*
X01231Y0134*
X01236Y01341*
X0124Y01344*
X01242Y01348*
X01242Y01349*
X01244Y01353*
X01248Y01353*
X0125Y01352*
X01254Y01353*
X01258Y01356*
X01261Y0136*
X01262Y01365*
X01261Y01369*
X01258Y01373*
X01254Y01376*
X0125Y01377*
G37*
G36*
X01165Y01357D02*
X0116Y01356D01*
X01156Y01353*
X01153Y01349*
X01152Y01345*
X01153Y0134*
X01156Y01336*
X0116Y01333*
X01165Y01332*
X01169Y01333*
X01173Y01336*
X01176Y0134*
X01177Y01345*
X01176Y01349*
X01173Y01353*
X01169Y01356*
X01165Y01357*
G37*
G36*
X01135D02*
X0113Y01356D01*
X01126Y01353*
X01123Y01349*
X01122Y01345*
X01123Y0134*
X01126Y01336*
X0113Y01333*
X01135Y01332*
X01139Y01333*
X01143Y01336*
X01146Y0134*
X01147Y01345*
X01146Y01349*
X01143Y01353*
X01139Y01356*
X01135Y01357*
G37*
G36*
X01105D02*
X011Y01356D01*
X01096Y01353*
X01093Y01349*
X01092Y01345*
X01093Y0134*
X01096Y01336*
X011Y01333*
X01105Y01332*
X01109Y01333*
X01113Y01336*
X01116Y0134*
X01117Y01345*
X01116Y01349*
X01113Y01353*
X01109Y01356*
X01105Y01357*
G37*
G36*
X01075Y01353D02*
X0107Y01352D01*
X01066Y0135*
X01063Y01346*
X01062Y01341*
X01063Y01336*
X01066Y01333*
X0107Y0133*
X01075Y01329*
X01079Y0133*
X01083Y01333*
X01086Y01336*
X01087Y01341*
X01086Y01346*
X01083Y0135*
X01079Y01352*
X01075Y01353*
G37*
G36*
X01297Y0137D02*
X01289Y01369D01*
X01283Y01366*
X01277Y01362*
X01272Y01356*
X0127Y01349*
X01269Y01342*
X0127Y01335*
X01272Y01328*
X01277Y01322*
X01283Y01318*
X01289Y01315*
X01297Y01314*
X01304Y01315*
X0131Y01318*
X01316Y01322*
X01321Y01328*
X01323Y01335*
X01324Y01342*
X01323Y01349*
X01321Y01356*
X01316Y01362*
X0131Y01366*
X01304Y01369*
X01297Y0137*
G37*
G36*
X0123Y01327D02*
X01225Y01326D01*
X01221Y01323*
X01218Y01319*
X01217Y01315*
X01218Y0131*
X01221Y01306*
X01225Y01303*
X0123Y01302*
X01234Y01303*
X01238Y01306*
X01241Y0131*
X01242Y01315*
X01241Y01319*
X01238Y01323*
X01234Y01326*
X0123Y01327*
G37*
G36*
X01163Y01308D02*
X01159Y01307D01*
X01155Y01305*
X01152Y01301*
X01151Y01298*
X01146*
X01146Y01301*
X01143Y01305*
X01139Y01307*
X01135Y01308*
X0113Y01307*
X01126Y01305*
X01123Y01301*
X01122Y01296*
X01123Y01291*
X01126Y01287*
X0113Y01285*
X01135Y01284*
X01139Y01285*
X01143Y01287*
X01146Y01291*
X01146Y01295*
X01151*
X01152Y01292*
X01155Y01288*
X01159Y01285*
X01163Y01284*
X01168Y01285*
X01172Y01288*
X01174Y01292*
X01175Y01296*
X01174Y01301*
X01172Y01305*
X01168Y01307*
X01163Y01308*
G37*
G36*
X01553Y01314D02*
X01548Y01313D01*
X01545Y01311*
X01542Y01307*
X01542Y01303*
X01542Y01299*
X01545Y01295*
X01548Y01293*
X01553Y01292*
X01557Y01293*
X0156Y01295*
X01563Y01299*
X01564Y01303*
X01563Y01307*
X0156Y01311*
X01557Y01313*
X01553Y01314*
G37*
G36*
X01105Y01308D02*
X011Y01307D01*
X01096Y01305*
X01093Y01301*
X01092Y01296*
X01093Y01291*
X01096Y01287*
X011Y01285*
X01105Y01284*
X01109Y01285*
X01113Y01287*
X01116Y01291*
X01117Y01296*
X01116Y01301*
X01113Y01305*
X01109Y01307*
X01105Y01308*
G37*
G36*
X01075D02*
X0107Y01307D01*
X01066Y01305*
X01063Y01301*
X01062Y01296*
X01063Y01291*
X01066Y01287*
X0107Y01285*
X01075Y01284*
X01079Y01285*
X01083Y01287*
X01086Y01291*
X01087Y01296*
X01086Y01301*
X01083Y01305*
X01079Y01307*
X01075Y01308*
G37*
G36*
X0127Y01307D02*
X01265Y01306D01*
X01261Y01303*
X01258Y01299*
X01257Y01295*
X01258Y0129*
X01261Y01286*
X01265Y01283*
X0127Y01282*
X01274Y01283*
X01278Y01286*
X01281Y0129*
X01282Y01295*
X01281Y01299*
X01278Y01303*
X01274Y01306*
X0127Y01307*
G37*
G36*
X0172Y01277D02*
Y01265D01*
X01732*
X01731Y01266*
X01727Y01272*
X01721Y01276*
X0172Y01277*
G37*
G36*
X0171D02*
X01708Y01276D01*
X01702Y01272*
X01698Y01266*
X01697Y01265*
X0171*
Y01277*
G37*
G36*
X01588Y01289D02*
X01584Y01288D01*
X0158Y01285*
X01577Y01281*
X01576Y01277*
X01577Y01272*
X0158Y01268*
X01584Y01265*
X01588Y01264*
X01593Y01265*
X01597Y01268*
X01599Y01272*
X016Y01277*
X01599Y01281*
X01597Y01285*
X01593Y01288*
X01588Y01289*
G37*
G36*
X01347Y0132D02*
X01339Y01319D01*
X01333Y01316*
X01327Y01312*
X01322Y01306*
X0132Y01299*
X01319Y01292*
X0132Y01285*
X01322Y01278*
X01327Y01272*
X01333Y01268*
X01339Y01265*
X01347Y01264*
X01354Y01265*
X0136Y01268*
X01366Y01272*
X01371Y01278*
X01373Y01285*
X01374Y01292*
X01373Y01299*
X01371Y01306*
X01366Y01312*
X0136Y01316*
X01354Y01319*
X01347Y0132*
G37*
G36*
X00692Y01284D02*
X00687Y01283D01*
X00683Y0128*
X0068Y01276*
X00679Y01272*
X0068Y01267*
X00683Y01263*
X00687Y0126*
X00692Y0126*
X00696Y0126*
X007Y01263*
X00703Y01267*
X00704Y01272*
X00703Y01276*
X007Y0128*
X00696Y01283*
X00692Y01284*
G37*
G36*
X0127Y01277D02*
X01265Y01276D01*
X01261Y01273*
X01258Y01269*
X01257Y01265*
X01258Y0126*
X01261Y01256*
X01265Y01253*
X0127Y01252*
X01274Y01253*
X01278Y01256*
X01281Y0126*
X01282Y01265*
X01281Y01269*
X01278Y01273*
X01274Y01276*
X0127Y01277*
G37*
G36*
X00925Y01252D02*
X0092Y01251D01*
X00918Y0125*
X00915Y01248*
X00911Y0125*
X00909Y01251*
X00905Y01252*
X009Y01251*
X00896Y01248*
X00893Y01244*
X00892Y0124*
X00893Y01235*
X00896Y01231*
X009Y01228*
X00905Y01227*
X00909Y01228*
X00911Y01229*
X00915Y01231*
X00918Y01229*
X0092Y01228*
X00925Y01227*
X00929Y01228*
X00933Y01231*
X00936Y01235*
X00937Y0124*
X00936Y01244*
X00933Y01248*
X00929Y01251*
X00925Y01252*
G37*
G36*
X01732Y01255D02*
X0172D01*
Y01242*
X01721Y01243*
X01727Y01247*
X01731Y01253*
X01732Y01255*
G37*
G36*
X01205Y01257D02*
X012Y01256D01*
X01196Y01253*
X01193Y01249*
X01192Y01245*
X01193Y0124*
X01196Y01236*
X012Y01233*
X01205Y01232*
X01209Y01233*
X01213Y01236*
X01216Y0124*
X01217Y01245*
X01216Y01249*
X01213Y01253*
X01209Y01256*
X01205Y01257*
G37*
G36*
X01505Y01251D02*
X01502Y01251D01*
X01493Y01247*
X01486Y01242*
X01481Y01235*
X01477Y01226*
X01477Y01223*
X01505*
Y01251*
G37*
G36*
X01128Y01238D02*
X01124Y01237D01*
X0112Y01234*
X01117Y0123*
X01116Y01226*
X01117Y01221*
X0112Y01217*
X01124Y01215*
X01128Y01214*
X01133Y01215*
X01137Y01217*
X01139Y01221*
X0114Y01226*
X01139Y0123*
X01137Y01234*
X01133Y01237*
X01128Y01238*
G37*
G36*
X00854Y01276D02*
X00845Y01275D01*
X00838Y01272*
X00831Y01267*
X00826Y0126*
X00823Y01253*
X00822Y01245*
X00823Y01236*
X00826Y01229*
X00831Y01222*
X00838Y01217*
X00845Y01214*
X00854Y01213*
X00862Y01214*
X00869Y01217*
X00876Y01222*
X00881Y01229*
X00884Y01236*
X00885Y01245*
X00884Y01253*
X00881Y0126*
X00876Y01267*
X00869Y01272*
X00862Y01275*
X00854Y01276*
G37*
G36*
X00735D02*
X00727Y01275D01*
X0072Y01272*
X00713Y01267*
X00708Y0126*
X00705Y01253*
X00704Y01245*
X00705Y01236*
X00708Y01229*
X00713Y01222*
X0072Y01217*
X00727Y01214*
X00735Y01213*
X00744Y01214*
X00751Y01217*
X00758Y01222*
X00763Y01229*
X00766Y01236*
X00767Y01245*
X00766Y01253*
X00763Y0126*
X00758Y01267*
X00751Y01272*
X00744Y01275*
X00735Y01276*
G37*
G36*
X01168Y01237D02*
X01164Y01236D01*
X0116Y01233*
X01157Y01229*
X01156Y01225*
X01157Y0122*
X0116Y01216*
X01164Y01214*
X01168Y01213*
X01173Y01214*
X01177Y01216*
X0118Y0122*
X0118Y01225*
X0118Y01229*
X01177Y01233*
X01173Y01236*
X01168Y01237*
G37*
G36*
X0109Y01237D02*
X01086Y01236D01*
X01082Y01233*
X01079Y01229*
X01078Y01225*
X01079Y0122*
X01082Y01216*
X01086Y01213*
X0109Y01212*
X01095Y01213*
X01099Y01216*
X01101Y0122*
X01102Y01225*
X01101Y01229*
X01099Y01233*
X01095Y01236*
X0109Y01237*
G37*
G36*
X00794Y01225D02*
X00789Y01225D01*
X00785Y01222*
X00783Y01218*
X00782Y01213*
X00783Y01209*
X00785Y01205*
X00789Y01202*
X00794Y01201*
X00798Y01202*
X00802Y01205*
X00805Y01209*
X00806Y01213*
X00805Y01218*
X00802Y01222*
X00798Y01225*
X00794Y01225*
G37*
G36*
X00695Y01427D02*
X0069Y01426D01*
X00686Y01423*
X00683Y01419*
X00682Y01415*
X00683Y0141*
X00686Y01406*
X0069Y01403*
X00695Y01402*
X00699Y01403*
X00703Y01406*
X00706Y0141*
X00707Y01415*
X00706Y01419*
X00703Y01423*
X00699Y01426*
X00695Y01427*
G37*
G36*
X0044Y01327D02*
X00435Y01326D01*
X00431Y01323*
X00428Y01319*
X00427Y01315*
X00428Y0131*
X00431Y01306*
X00435Y01303*
X0044Y01302*
X00444Y01303*
X00448Y01306*
X00451Y0131*
X00452Y01315*
X00451Y01319*
X00448Y01323*
X00444Y01326*
X0044Y01327*
G37*
G36*
X0047Y01312D02*
X00465Y01311D01*
X00461Y01308*
X00458Y01304*
X00457Y013*
X00458Y01295*
X00461Y01291*
X00465Y01288*
X0047Y01287*
X00474Y01288*
X00478Y01291*
X00481Y01295*
X00482Y013*
X00481Y01304*
X00478Y01308*
X00474Y01311*
X0047Y01312*
G37*
G36*
X00396Y01303D02*
X00391Y01302D01*
X00387Y01299*
X00385Y01296*
X00384Y01291*
X00385Y01286*
X00387Y01282*
X00391Y0128*
X00396Y01279*
X00401Y0128*
X00404Y01282*
X00407Y01286*
X00408Y01291*
X00407Y01296*
X00404Y01299*
X00401Y01302*
X00396Y01303*
G37*
G36*
X00853Y01394D02*
X00848Y01393D01*
X00844Y0139*
X00842Y01386*
X00841Y01382*
X00842Y01377*
X00844Y01373*
X00848Y01371*
X00853Y0137*
X00858Y01371*
X00862Y01373*
X00864Y01377*
X00865Y01382*
X00864Y01386*
X00862Y0139*
X00858Y01393*
X00853Y01394*
G37*
G36*
X01788Y01388D02*
X01783Y01387D01*
X01779Y01384*
X01777Y0138*
X01776Y01376*
X01777Y01371*
X01779Y01367*
X01783Y01365*
X01788Y01364*
X01792Y01365*
X01796Y01367*
X01799Y01371*
X018Y01376*
X01799Y0138*
X01796Y01384*
X01792Y01387*
X01788Y01388*
G37*
G36*
X00485Y01252D02*
X0048Y01251D01*
X00476Y01248*
X00473Y01244*
X00472Y0124*
X00473Y01235*
X00476Y01231*
X0048Y01228*
X00485Y01227*
X00489Y01228*
X00493Y01231*
X00496Y01235*
X00497Y0124*
X00496Y01244*
X00493Y01248*
X00489Y01251*
X00485Y01252*
G37*
%LNpower_pcb_v2-3*%
%LPD*%
G54D14*
X01899Y01427D02*
X01915Y0141D01*
X01899Y01427D02*
Y01451D01*
X01915Y0141D02*
X01915Y0141D01*
G54D66*
X0151Y01218D03*
G54D70*
X0184Y01245D03*
G54D72*
X00993Y01376D03*
X00545Y0123D03*
X01624Y0142D03*
X01715Y0126D03*
X01265Y01381D03*
X01899Y01451D03*
X01845Y01325D03*
X01255Y0124D03*
X00445Y01485D03*
X00815Y0147D03*
Y0144D03*
X01Y01255D03*
X00865Y01415D03*
X00325Y0143D03*
G54D73*
X00425Y01285D03*
G54D74*
X01624Y01413D02*
Y0142D01*
X01618Y01407D02*
X01624Y01413D01*
M02*