%FSTAX23Y23*%
%MOIN*%
%SFA1B1*%

%IPPOS*%
%ADD21R,0.021650X0.021650*%
%ADD22R,0.021650X0.021650*%
%ADD31R,0.023620X0.024410*%
%ADD72C,0.015750*%
%ADD75R,0.018900X0.025390*%
%ADD76R,0.035430X0.037400*%
%ADD77R,0.039370X0.066930*%
%ADD78R,0.027560X0.011810*%
%ADD79R,0.021260X0.016540*%
%ADD80R,0.031500X0.011810*%
%ADD81R,0.068900X0.061020*%
%ADD82R,0.033470X0.009840*%
%ADD83R,0.009840X0.033470*%
%ADD84R,0.141730X0.141730*%
%ADD85R,0.027560X0.029530*%
%ADD86R,0.058070X0.017720*%
%ADD87R,0.024410X0.023620*%
%ADD88R,0.068900X0.070870*%
%LNpower_pcb_v2-1*%
%LPD*%
G54D21*
X01688Y0127D03*
X01642D03*
X00313Y01225D03*
X00267D03*
X01922Y0137D03*
X01968D03*
X01068Y01205D03*
X01022D03*
X01807Y013D03*
X01853D03*
X01598Y0137D03*
X01552D03*
X01593Y01435D03*
X01547D03*
X01562Y0128D03*
X01608D03*
X00393Y01475D03*
X00347D03*
X00313D03*
X00267D03*
X00347Y01225D03*
X00393D03*
G54D22*
X01385Y01268D03*
Y01222D03*
X015Y01473D03*
Y01427D03*
X0065Y01398D03*
Y01352D03*
X0173Y01473D03*
Y01427D03*
X0152Y01398D03*
Y01352D03*
X017Y01387D03*
Y01433D03*
X0197Y01458D03*
Y01412D03*
X0126Y01443D03*
Y01397D03*
X01295D03*
Y01443D03*
X00985Y01273D03*
Y01227D03*
X00615Y01352D03*
Y01398D03*
X0065Y01483D03*
Y01437D03*
X0061D03*
Y01483D03*
X0057D03*
Y01437D03*
X01935Y01458D03*
Y01412D03*
G54D31*
X01918Y0134D03*
X01881D03*
X01918Y0131D03*
X01881D03*
G54D72*
X00835Y01465D03*
X0075Y01355D03*
X00975Y013D03*
X0078Y01425D03*
X00465Y01455D03*
X0051Y0146D03*
X01231Y0148D03*
X00254Y01247D03*
X00785Y01465D03*
X0131Y0147D03*
X01251Y01265D03*
X01255Y01295D03*
X00986Y01349D03*
X0133Y012D03*
G54D75*
X01435Y0123D03*
X01454Y01289D03*
X01415D03*
G54D76*
X01885Y0138D03*
X01825D03*
G54D77*
X01691Y0133D03*
G54D78*
X01732Y013D03*
Y0132D03*
Y0134D03*
Y0136D03*
X0165D03*
Y0134D03*
Y0132D03*
Y013D03*
G54D79*
X01558Y014D03*
X01621D03*
G54D80*
X01888Y01472D03*
Y01453D03*
Y01433D03*
Y01413D03*
X0177D03*
Y01433D03*
Y01453D03*
Y01472D03*
G54D81*
X01829Y01443D03*
G54D82*
X01022Y01277D03*
Y01296D03*
Y01316D03*
Y01336D03*
Y01355D03*
Y01375D03*
Y01395D03*
Y01415D03*
X01215D03*
Y01395D03*
Y01375D03*
Y01355D03*
Y01336D03*
Y01316D03*
Y01296D03*
Y01277D03*
G54D83*
X01049Y01442D03*
X01069D03*
X01089D03*
X01108D03*
X01128D03*
X01148D03*
X01167D03*
X01187D03*
Y01249D03*
X01167D03*
X01148D03*
X01128D03*
X01108D03*
X01089D03*
X01069D03*
X01049D03*
G54D84*
X01118Y01346D03*
G54D85*
X00895Y01426D03*
Y01373D03*
X00934D03*
Y01426D03*
G54D86*
X0051Y01425D03*
Y01399D03*
Y01373D03*
Y01348D03*
Y01322D03*
Y01297D03*
Y01271D03*
X00278D03*
Y01297D03*
Y01322D03*
Y01348D03*
Y01373D03*
Y01399D03*
Y01425D03*
G54D87*
X0197Y01291D03*
Y01328D03*
G54D88*
X00926Y0129D03*
X00645D03*
M02*