%FSTAX23Y23*%
%MOIN*%
%SFA1B1*%

%IPPOS*%
%AMD23*
4,1,4,-0.015300,0.000000,0.000000,-0.015300,0.015300,0.000000,0.000000,0.015300,-0.015300,0.000000,0.0*
%
%ADD11C,0.009840*%
%ADD12C,0.010000*%
%ADD15C,0.006000*%
%ADD16C,0.005000*%
%ADD17R,0.021460X0.025590*%
%ADD18O,0.039370X0.019680*%
%ADD19R,0.026570X0.009840*%
%ADD20R,0.009840X0.022640*%
%ADD21R,0.021650X0.021650*%
%ADD22R,0.021650X0.021650*%
G04~CAMADD=23~10~0.0~216.5~0.0~0.0~0.0~0.0~0~0.0~0.0~0.0~0.0~0~0.0~0.0~0.0~0.0~0~0.0~0.0~0.0~135.0~216.5~0.0*
%ADD23D23*%
%ADD24R,0.013780X0.025590*%
%ADD25R,0.066930X0.043310*%
%ADD26R,0.033470X0.013780*%
%ADD27R,0.066930X0.096460*%
%ADD28R,0.070870X0.039370*%
%ADD29C,0.030980*%
%ADD30R,0.023620X0.029530*%
%ADD31R,0.023620X0.024410*%
%ADD32R,0.023620X0.022410*%
%ADD33R,0.039370X0.031500*%
%ADD34R,0.027560X0.059060*%
%ADD35R,0.011810X0.043310*%
%ADD37C,0.003940*%
%ADD63C,0.013780*%
%ADD64C,0.004000*%
%ADD65C,0.012000*%
%ADD66C,0.048000*%
%ADD67C,0.019490*%
%ADD68C,0.055120*%
%ADD69C,0.047240*%
%ADD70C,0.059060*%
%ADD71R,0.059060X0.059060*%
%ADD72C,0.015750*%
%ADD73C,0.023620*%
%LNpower_pcb_v2-1*%
%LPD*%
G54D11*
X01576Y01303D02*
D01*
X01576Y01305*
X01576Y01306*
X01576Y01308*
X01575Y0131*
X01575Y01311*
X01574Y01313*
X01573Y01314*
X01573Y01316*
X01572Y01317*
X01571Y01318*
X0157Y0132*
X01568Y01321*
X01567Y01322*
X01566Y01323*
X01564Y01324*
X01563Y01324*
X01561Y01325*
X0156Y01326*
X01558Y01326*
X01557Y01326*
X01555Y01327*
X01553Y01327*
X01552*
X0155Y01327*
X01549Y01326*
X01547Y01326*
X01545Y01326*
X01544Y01325*
X01542Y01324*
X01541Y01324*
X01539Y01323*
X01538Y01322*
X01537Y01321*
X01536Y0132*
X01535Y01318*
X01534Y01317*
X01533Y01316*
X01532Y01314*
X01531Y01313*
X0153Y01311*
X0153Y0131*
X0153Y01308*
X01529Y01306*
X01529Y01305*
X01529Y01303*
X01529Y01302*
X01529Y013*
X0153Y01298*
X0153Y01297*
X0153Y01295*
X01531Y01294*
X01532Y01292*
X01533Y01291*
X01534Y01289*
X01535Y01288*
X01536Y01287*
X01537Y01286*
X01538Y01285*
X01539Y01284*
X01541Y01283*
X01542Y01282*
X01544Y01281*
X01545Y01281*
X01547Y0128*
X01549Y0128*
X0155Y0128*
X01552Y0128*
X01553*
X01555Y0128*
X01557Y0128*
X01558Y0128*
X0156Y01281*
X01561Y01281*
X01563Y01282*
X01564Y01283*
X01566Y01284*
X01567Y01285*
X01568Y01286*
X0157Y01287*
X01571Y01288*
X01572Y01289*
X01573Y01291*
X01573Y01292*
X01574Y01294*
X01575Y01295*
X01575Y01297*
X01576Y01298*
X01576Y013*
X01576Y01302*
X01576Y01303*
G54D12*
X01005Y0138D02*
X01027D01*
X01003Y01377D02*
X01005Y0138D01*
X00993Y01376D02*
X00994Y01377D01*
X01003*
X00566Y01486D02*
X00568Y01485D01*
X00635Y01483D02*
Y01485D01*
X00566Y01486D02*
X00566D01*
X00563Y01484D02*
X00566Y01486D01*
X00568Y01485D02*
X00635D01*
X0033Y0129D02*
Y01295D01*
X00323Y01283D02*
X0033Y0129D01*
X0157Y01342D02*
X01576Y01336D01*
Y01304D02*
Y01336D01*
Y01304D02*
X01577Y01304D01*
X01605Y01248D02*
X01606Y01249D01*
X00261Y01405D02*
Y01412D01*
X01577Y01296D02*
Y01304D01*
X0157Y01342D02*
X01572Y01345D01*
X00315Y01324D02*
Y01364D01*
X00312Y01367D02*
X00315Y01364D01*
X00312Y0131D02*
Y01318D01*
X00322Y01326D02*
X00335Y01338D01*
X00314Y0131D02*
X0033Y01295D01*
X00312Y0131D02*
X00314D01*
X00315Y01318D02*
Y01324D01*
X0027Y01422D02*
Y01424D01*
X00269Y01421D02*
X0027Y01422D01*
X00269Y01419D02*
Y01421D01*
X00262Y01412D02*
X00269Y01419D01*
X00261Y01412D02*
X00262D01*
X0027Y01424D02*
X00275Y0143D01*
X00325*
X01558Y01355D02*
X0157Y01342D01*
X00295Y01283D02*
X00323D01*
X0031Y01235D02*
X0039Y01315D01*
X00263Y0124D02*
X00269Y01235D01*
X00263Y0124D02*
Y01318D01*
X00269Y01235D02*
X0031D01*
X00294Y01367D02*
X00312D01*
X00289Y01361D02*
X00294Y01367D01*
X00335Y01352D02*
X0034Y01357D01*
X00335Y01338D02*
Y01352D01*
X00316Y01326D02*
X00322D01*
X00315Y01324D02*
X00316Y01326D01*
X0033Y01412D02*
X0034Y01403D01*
X0033Y01412D02*
Y01421D01*
X00325Y01427D02*
X0033Y01421D01*
X00325Y01427D02*
Y01429D01*
X00325Y0143D02*
X00325Y01429D01*
X00425Y01285D02*
Y01305D01*
X0039Y01315D02*
X00415D01*
X00425Y01305*
X00786Y01393D02*
X00815D01*
X00757Y01421D02*
Y01431D01*
X00635Y01483D02*
X0064Y01478D01*
Y01456D02*
Y01478D01*
X00563Y01468D02*
Y01484D01*
X0081Y01385D02*
Y01388D01*
X00809Y01389D02*
X0081Y01388D01*
X00815Y01418D02*
X00823Y0141D01*
X00757Y01382D02*
X0076Y0138D01*
X00757Y01421D02*
X00786Y01393D01*
X01Y01255D02*
X01022D01*
X00865Y01413D02*
Y01415D01*
X00862Y0141D02*
X00865Y01413D01*
X01027Y0138D02*
Y01415D01*
X00757Y01382D02*
Y01421D01*
G54D15*
X01489Y0134D02*
X0149Y01338D01*
X01495D02*
X01512Y01355D01*
X0149Y01338D02*
X01495D01*
X00965Y01223D02*
X00995Y01192D01*
X0187Y01205D02*
X01884Y01219D01*
X01809Y01205D02*
X0187D01*
X01805Y0121D02*
X01809Y01205D01*
X00986Y0144D02*
Y01443D01*
X00946Y01362D02*
X00986Y01402D01*
X00878Y01362D02*
X00946D01*
X00857Y01341D02*
X00878Y01362D01*
X00962Y01413D02*
Y01418D01*
X00954Y01405D02*
X00962Y01413D01*
X00822Y01366D02*
X00823Y01366D01*
X00992Y01402D02*
X00994Y01404D01*
X00986Y01402D02*
X00992D01*
X00974Y01455D02*
X00986Y01443D01*
X00544Y0123D02*
X00545Y0123D01*
X00544Y0123D02*
Y01251D01*
X01785Y01491D02*
Y01492D01*
X01787Y01495*
X01844Y01484D02*
Y01484D01*
X01843Y01485D02*
X01844Y01484D01*
X01842Y01485D02*
X01843D01*
X01838Y01489D02*
X01842Y01485D01*
X01792Y01489D02*
X01838D01*
X01787Y01495D02*
X01792Y01489D01*
X01585Y01421D02*
X01598Y01435D01*
X0164Y01445D02*
X01677D01*
X0163Y01435D02*
X0164Y01445D01*
X01598Y01435D02*
X0163D01*
X01775Y01384D02*
Y0142D01*
X01786Y01356D02*
X01809D01*
X01762Y01432D02*
X01775Y0142D01*
X01773Y01382D02*
X01775Y01384D01*
X01773Y0137D02*
X01786Y01356D01*
X01773Y0137D02*
Y01382D01*
X0173Y01449D02*
X01746Y01432D01*
X01762*
X01786Y01384D02*
Y01458D01*
X01443Y01366D02*
X01446D01*
X0144Y01363D02*
X01443Y01366D01*
X01424Y01363D02*
X0144D01*
X00908Y01405D02*
X00954D01*
X00781Y0135D02*
X00797Y01366D01*
Y01362D02*
Y01366D01*
X00822Y01366D02*
X00834Y01378D01*
X00851Y01384D02*
X00853Y01382D01*
X00844Y01385D02*
X00845Y01384D01*
X00851*
X00855Y01333D02*
Y01336D01*
X00834Y01382D02*
X00838Y01385D01*
X00839Y01385*
X00844*
X01585Y01365D02*
X01589Y0136D01*
Y01296D02*
Y0136D01*
Y01296D02*
X01604Y01281D01*
X01623Y01346D02*
X01631Y01354D01*
X0162Y01346D02*
X01623D01*
X01615Y01351D02*
X0162Y01346D01*
X01615Y01351D02*
Y01355D01*
X01795Y0127D02*
X01808Y01283D01*
X01778Y0124D02*
Y0127D01*
Y0124D02*
X01788Y0123D01*
X01795Y01245D02*
Y0127D01*
X01795Y01245D02*
X01795Y01245D01*
X01789Y0123D02*
X01805Y01215D01*
X01788Y0123D02*
X01789D01*
X0059Y01393D02*
Y01395D01*
Y01393D02*
X00611Y01372D01*
X00746*
X00753Y01365*
X01813Y01376D02*
X01815Y01378D01*
X01828*
X01855Y01405*
X01801Y01474D02*
X01818D01*
X01786Y01458D02*
X01801Y01474D01*
X01604Y01269D02*
Y01281D01*
X01597Y01263D02*
X01598D01*
X01604Y01269*
X01606Y01254D02*
X01627Y01275D01*
X01606Y01249D02*
Y01254D01*
X01589Y01254D02*
X01597Y01263D01*
X01589Y01254D02*
D01*
X01577Y01242D02*
X01589Y01254D01*
X01709Y0126D02*
X01712Y01262D01*
X01709Y0126D02*
X01715D01*
X01265Y0138D02*
Y01381D01*
Y01397*
X01865Y01295D02*
X01866Y01297D01*
Y01305*
X01845Y01325D02*
X01863Y01306D01*
X01832Y01325D02*
X01845D01*
X01863Y01297D02*
Y01306D01*
X0191Y01363D02*
X0192Y01374D01*
X0191Y0134D02*
Y01363D01*
X01808Y01283D02*
X0183D01*
X01585Y01365D02*
Y01421D01*
X01826Y01319D02*
X01832Y01325D01*
X01535Y0119D02*
X0157Y01225D01*
X01397Y01342D02*
X01403D01*
X01424Y01363*
X01884Y01219D02*
Y01295D01*
X01235Y01243D02*
X01238Y0124D01*
X01255*
X01631Y01354D02*
Y01355D01*
X0161Y01457D02*
X01612Y0146D01*
Y01477D02*
X01625Y0149D01*
X01612Y0146D02*
Y01477D01*
X01696Y0149D02*
X01701Y01485D01*
X0169Y0149D02*
X01696D01*
X01712Y01262D02*
Y01263D01*
X01725*
X01732Y0127*
X01805Y0121D02*
Y01215D01*
X0173Y0135D02*
X01743Y01336D01*
X01813*
X01863Y01297D02*
X01865Y01295D01*
X01815Y01319D02*
X01826D01*
X01813Y01317D02*
X01815Y01319D01*
X0192Y01374D02*
X01926D01*
X01668Y01348D02*
X01727D01*
X0185Y01484D02*
X01852Y01482D01*
X01844Y01484D02*
X0185D01*
X01852Y01476D02*
Y01482D01*
X01233Y01428D02*
X01265Y01397D01*
X00518Y01286D02*
X00568D01*
X00494Y0131D02*
X00518Y01286D01*
X00425Y01275D02*
Y01285D01*
Y01275D02*
X00425Y01274D01*
Y01252D02*
Y01274D01*
Y01252D02*
X00426Y01251D01*
X0173Y01449D02*
X01735Y01454D01*
X01163Y01295D02*
X01163Y01296D01*
X01163Y01255D02*
Y01295D01*
X0197Y0143D02*
Y0145D01*
Y0143D02*
X01973Y01427D01*
X00857Y01339D02*
Y01341D01*
X00855Y01336D02*
X00857Y01339D01*
X00912Y0147D02*
X00927Y01455D01*
X00908Y0147D02*
X00912D01*
X00927Y01455D02*
X00974D01*
X00812Y0147D02*
X00815D01*
X00809Y01466D02*
X00812Y0147D01*
X0161Y01407D02*
X01614Y01412D01*
X00445Y01215D02*
X00445Y01215D01*
Y01251*
X00563Y01268D02*
X00565Y0127D01*
X00563Y01251D02*
Y01268D01*
X0081Y0144D02*
X00815D01*
X00809Y0144D02*
X0081Y0144D01*
X00809Y0144D02*
X00809D01*
X00753Y01365D02*
X00775D01*
X00776Y0135D02*
X00781D01*
X0074Y01313D02*
X00776Y0135D01*
X01075Y01391D02*
Y01393D01*
X01073Y01395D02*
X01075Y01393D01*
X01073Y01395D02*
Y01415D01*
X00426Y01461D02*
Y01468D01*
X00438Y0133D02*
X00475D01*
X00425Y01343D02*
X00438Y0133D01*
X00425Y01343D02*
Y01426D01*
X0074Y0131D02*
Y01313D01*
X00475Y0133D02*
X00494Y0131D01*
X01745Y01346D02*
X01748D01*
X01926Y01374D02*
Y01374D01*
X01928Y01376*
X01936*
X0183Y01283D02*
X01835Y01288D01*
X01843*
X01845Y0129*
Y01295*
X01936Y01271D02*
Y01295D01*
X01923Y01271D02*
X01936D01*
X01908Y01286D02*
X01923Y01271D01*
X01906Y01286D02*
X01908D01*
X01904Y01288D02*
X01906Y01286D01*
X01904Y01288D02*
Y01295D01*
X01733Y0148D02*
X01738Y01484D01*
X01733Y0148D02*
X01735Y01478D01*
Y01454D02*
Y01478D01*
X01738Y01484D02*
Y01485D01*
X0088Y01335D02*
X00883Y01331D01*
X00885Y0134D02*
X0089D01*
X00667Y01393D02*
X00691D01*
X00691Y01393*
X0088Y013D02*
X00883Y01303D01*
Y01313*
X00661Y01398D02*
X00667Y01393D01*
X00658Y01398D02*
X00661D01*
X00834Y01378D02*
Y01382D01*
X00883Y01313D02*
Y01331D01*
X0088Y01335D02*
X00885Y0134D01*
X0065Y01407D02*
X00658Y01398D01*
X0065Y01407D02*
Y0141D01*
G54D16*
X01517Y01274D02*
Y01325D01*
X01467Y01225D02*
X01513Y0127D01*
X01517Y01274*
X01785Y0121D02*
X018Y01194D01*
X01873D02*
X01878Y012D01*
X018Y01194D02*
X01873D01*
X01981Y0121D02*
Y01368D01*
X01878Y012D02*
X01971D01*
X01981Y0121*
X01954Y01395D02*
X01981Y01368D01*
X0169Y01322D02*
X01694Y01319D01*
X01754*
X01678Y01335D02*
X0169Y01323D01*
X01619Y0132D02*
X01623Y01317D01*
X01605Y01335D02*
X01678D01*
X01604Y01335D02*
X01605Y01335D01*
X01619Y0132D02*
X01619D01*
X01463Y01358D02*
X01486Y01381D01*
X0146Y01358D02*
X01463D01*
X01446Y01344D02*
X0146Y01358D01*
X01446Y01341D02*
Y01344D01*
X01365Y0126D02*
X01446Y01341D01*
X01466Y01349D02*
X01502Y01384D01*
X01464Y01349D02*
X01466D01*
X01455Y0134D02*
X01464Y01349D01*
X01455Y01338D02*
Y0134D01*
X01368Y01251D02*
X01455Y01338D01*
X01688Y01295D02*
X0175D01*
X01665Y01275D02*
Y01281D01*
Y01275D02*
X01673D01*
X01532Y01435D02*
X0156Y01407D01*
X01502Y01435D02*
X01532D01*
X01467Y01225D02*
D01*
X01414Y0121D02*
X01452D01*
X01467Y01225*
X0169Y01322D02*
Y01323D01*
X01365Y0125D02*
X01366Y01251D01*
X0132Y0126D02*
X01365D01*
X01486Y01381D02*
Y01419D01*
X01502Y01384D02*
Y01393D01*
X01366Y01251D02*
X01368D01*
X0151Y014D02*
Y01407D01*
X01285Y0125D02*
X01365D01*
X01502Y01393D02*
X0151Y014D01*
X01392Y0125D02*
X01435D01*
X01373Y01231D02*
X01392Y0125D01*
X01673Y0131D02*
X01688Y01295D01*
X01413Y01208D02*
X01414Y0121D01*
X01413Y01208D02*
Y0121D01*
X0147Y01285D02*
X01495D01*
X01435Y0125D02*
X0147Y01285D01*
X0131Y01225D02*
X01316Y01231D01*
X01373*
X01285Y01295D02*
X0132Y0126D01*
X0127Y01295D02*
X01285D01*
X01287Y0121D02*
X01302Y01225D01*
X0131*
X01333Y0121D02*
X01367D01*
X0127Y01265D02*
X01285Y0125D01*
X01623Y01317D02*
X01626D01*
X01936Y01395D02*
X01936Y01395D01*
X01954*
X01486Y01419D02*
X01502Y01435D01*
X01632Y01304D02*
X01635Y01301D01*
X01632Y01304D02*
Y01307D01*
X01664Y01282D02*
X01665Y01281D01*
X01638Y01301D02*
X01657Y01282D01*
X01635Y01301D02*
X01638D01*
X01665Y01275D02*
Y01281D01*
X01657Y01282D02*
X01664D01*
X01638Y01301D02*
X01657Y01282D01*
X01627Y0131D02*
X01635Y01301D01*
X01657Y01282D02*
X01664D01*
X01665Y01281D01*
X01635Y01301D02*
X01638D01*
G54D17*
X01495Y01285D03*
X01494Y01322D03*
G54D18*
X01205Y0131D03*
X01206Y01346D03*
X01205Y0138D03*
Y0141D03*
G54D19*
X01813Y01317D03*
Y01336D03*
Y01356D03*
Y01376D03*
Y01395D03*
Y01415D03*
Y01435D03*
Y01455D03*
Y01477D03*
X01936Y01475D03*
Y01455D03*
Y01435D03*
Y01415D03*
Y01395D03*
Y01376D03*
Y01356D03*
Y01336D03*
Y01317D03*
Y01295D03*
X01813Y01297D03*
G54D20*
X01845Y01477D03*
X01865D03*
X01884D03*
X01904D03*
Y01295D03*
X01884D03*
X01865D03*
X01845D03*
G54D21*
X01333Y0121D03*
X01287D03*
X00908Y0144D03*
X00862D03*
X01068Y01255D03*
X01022D03*
X01778Y0127D03*
X01732D03*
X01558Y0136D03*
X01512D03*
X01673Y01275D03*
X01627D03*
X01673Y0131D03*
X01627D03*
X01413Y0121D03*
X01367D03*
X01117Y01255D03*
X01163D03*
X01027Y0138D03*
X01073D03*
Y01415D03*
X01027D03*
X00862Y01405D03*
X00908D03*
X00862Y0147D03*
X00908D03*
G54D22*
X01973Y01473D03*
Y01427D03*
X01235Y01243D03*
Y01197D03*
X00295Y01237D03*
Y01283D03*
X00345Y01403D03*
Y01357D03*
G54D23*
X01266Y01461D03*
X01233Y01428D03*
G54D24*
X00259Y01318D03*
X00285D03*
X0031D03*
Y01405D03*
X00285D03*
X00259D03*
G54D25*
X00285Y01361D03*
G54D26*
X00695Y01466D03*
Y0144D03*
Y01415D03*
Y01389D03*
X00809D03*
Y01415D03*
Y0144D03*
Y01466D03*
G54D27*
X00752Y01427D03*
G54D28*
X0173Y01449D03*
Y0135D03*
G54D29*
X0161Y01457D03*
Y01407D03*
X0156Y01457D03*
Y01407D03*
X0151Y01457D03*
Y01407D03*
G54D30*
X0064Y01456D03*
Y01413D03*
G54D31*
X01631Y01355D03*
X01668D03*
G54D32*
X01701Y01485D03*
X01738D03*
G54D33*
X00938Y01201D03*
Y01288D03*
X00651Y01201D03*
Y01288D03*
G54D34*
X00883Y01313D03*
X00824D03*
X00706D03*
G54D35*
X00563Y01468D03*
Y01251D03*
X00544Y01468D03*
Y01251D03*
X00524Y01468D03*
Y01251D03*
X00504Y01468D03*
Y01251D03*
X00485Y01468D03*
Y01251D03*
X00465Y01468D03*
Y01251D03*
X00445Y01468D03*
Y01251D03*
X00426Y01468D03*
Y01251D03*
G54D37*
X01529Y01303D03*
G54D63*
X01553Y01303D03*
G54D64*
X01496Y0119D02*
D01*
X01499Y01189*
X01502Y01189*
X01504Y01188*
X01507Y01188*
X0151Y01188*
X0151Y01188*
D01*
X01513Y01188*
X01515Y01188*
X01517Y01188*
X01519Y01189*
X01521Y01189*
X01521Y0119*
X00863Y01372D02*
X0094D01*
X00976Y01407*
Y01412D02*
X0099Y01426D01*
X00976Y01407D02*
Y01412D01*
X01306Y01428D02*
X01312Y01435D01*
X01366*
X01306Y01401D02*
Y01428D01*
X01326Y01418D02*
X01331Y01424D01*
X01323Y01418D02*
X01326D01*
X01331Y01424D02*
X01369D01*
X01331Y01445D02*
X01342D01*
X01326Y01449D02*
X01331Y01445D01*
X01235Y01197D02*
X01241Y0119D01*
X01496*
X01539Y0124D02*
X01545D01*
X01521Y0119D02*
X01535D01*
X01104Y012D02*
X01108Y01205D01*
X01168Y01223D02*
Y01225D01*
X01182Y01192D02*
Y01222D01*
X0123Y01192D02*
X01235Y01197D01*
X00964Y0124D02*
X01003Y012D01*
X01104*
X0115Y01205D02*
X01168Y01223D01*
X00995Y01192D02*
X01182D01*
Y01222D02*
X01205Y01245D01*
X01182Y01192D02*
X0123D01*
X00708Y01192D02*
X00761D01*
X00675Y01225D02*
X00708Y01192D01*
X00761D02*
X00779Y0121D01*
X00714Y012D02*
X00755D01*
X00679Y01235D02*
X00714Y012D01*
X00755D02*
X00783Y01227D01*
X0075Y01209D02*
X00776Y01235D01*
X00677Y01253D02*
X00721Y01209D01*
X0075*
X01253Y01483D02*
X01286D01*
X01236Y01466D02*
X01253Y01483D01*
X0129Y01468D02*
X0129Y01468D01*
Y01469*
X01336Y01459D02*
X01336Y01459D01*
X01319Y01449D02*
X01326D01*
X01342Y01445D02*
X01345Y01448D01*
X01356*
X01336Y01459D02*
Y01462D01*
X0128Y01492D02*
X01305D01*
X01336Y01462*
X01356Y01448D02*
X01357Y01449D01*
X01297Y01483D02*
X01305Y01475D01*
X01286Y01483D02*
X01286Y01483D01*
X0129Y01449D02*
X01293Y01445D01*
X01305Y01464D02*
X01319Y01449D01*
X01286Y01483D02*
X01297D01*
X01305Y01464D02*
Y01475D01*
X0129Y01449D02*
Y01468D01*
X01421Y0146D02*
X01468D01*
X01392D02*
X01408D01*
X0142Y0146D02*
X01421Y0146D01*
X01415Y01474D02*
X01418D01*
X01409Y0146D02*
X0142D01*
X01418Y01474D02*
X01423Y0147D01*
X01377Y01445D02*
X01392Y0146D01*
X01408D02*
X01409Y0146D01*
X01415Y01473D02*
X01415Y01474D01*
X00999Y01495D02*
X01278D01*
X0128Y01492*
X01236Y0145D02*
X0126Y01426D01*
X01291*
X01293Y01428*
Y01445*
X01212Y0143D02*
Y01431D01*
X01207Y01446D02*
X01209Y01447D01*
X0121Y01428D02*
X01212Y0143D01*
Y01431D02*
X01231Y0145D01*
X01189Y01428D02*
X0121D01*
X01209Y01447D02*
X01212D01*
X01231Y0145D02*
X01236D01*
X01172Y01445D02*
X01189Y01428D01*
X01212Y01447D02*
X01223Y01458D01*
X01239*
X01266Y01461D02*
D01*
X01255Y0145D02*
X01266Y01461D01*
X01239Y01458D02*
X01247Y0145D01*
X01255*
X01264Y01359D02*
X01306Y01401D01*
X00982Y01478D02*
X00999Y01495D01*
X01163Y0146D02*
X01164Y01459D01*
X0112Y01486D02*
X01121D01*
X0118Y01466D02*
X01236D01*
X01149Y0146D02*
X01163D01*
X0112Y01477D02*
Y01485D01*
X01121Y01486*
X01122Y01487D02*
X01214D01*
X01167Y01473D02*
X01168D01*
X01145Y01475D02*
X01165D01*
X01118Y01471D02*
X01119Y01473D01*
X01117Y01471D02*
X01118D01*
X01121Y01486D02*
X01122Y01487D01*
X01174Y01459D02*
X0118Y01466D01*
X01116Y0147D02*
X01117Y01471D01*
X01119Y01477D02*
X0112Y01477D01*
X01165Y01475D02*
X01167Y01473D01*
X01034Y01486D02*
X0112D01*
X01013Y01466D02*
X01034Y01486D01*
X01214Y01487D02*
X01221Y0148D01*
X01164Y01459D02*
X01174D01*
X01119Y01473D02*
Y01477D01*
X00982Y01476D02*
Y01478D01*
X01Y01437D02*
X01013Y01449D01*
X0099Y01426D02*
X00992D01*
X01Y01435D02*
Y01437D01*
X00992Y01426D02*
X01Y01435D01*
X00691Y01275D02*
X00718D01*
X00584Y01244D02*
X00585Y01245D01*
X00722Y01278D02*
X00736D01*
X00718Y01275D02*
X00722Y01278D01*
X00736D02*
X00808Y0135D01*
X00841*
X00863Y01372*
X01013Y01449D02*
Y01466D01*
X01013Y01325D02*
X01119D01*
X00977Y0136D02*
X01013Y01325D01*
X00504Y01218D02*
Y01251D01*
X00584Y01217D02*
Y01244D01*
X0053Y01215D02*
X00582D01*
X00584Y01217*
X00517Y01205D02*
X00584D01*
X00605Y01226*
X00504Y01218D02*
X00517Y01205D01*
X00528Y01217D02*
Y01248D01*
Y01217D02*
X0053Y01215D01*
X00524Y01251D02*
X00528Y01248D01*
X00702Y01482D02*
X0071Y0149D01*
X00876*
X00886Y0148*
X01887Y01485D02*
X01896Y01494D01*
X01953D02*
X01975Y01473D01*
X01896Y01494D02*
X01953D01*
X01884Y01475D02*
X01887Y01477D01*
Y01485*
X0196Y01354D02*
X01969Y01345D01*
X01967Y0134D02*
X01969Y01342D01*
Y01345*
X01121Y01325D02*
X01187D01*
X01119D02*
X01121D01*
X01148Y01458D02*
X01149Y0146D01*
X01126Y01456D02*
X01145Y01475D01*
X01108Y01456D02*
X01126D01*
X01093Y01471D02*
X01108Y01456D01*
X0107Y0146D02*
X01081Y01471D01*
X01093*
X01068Y0146D02*
X0107D01*
X01043Y0145D02*
X01049Y01443D01*
X01093*
X01094Y01445D02*
X01172D01*
X01093Y01443D02*
X01094Y01445D01*
X01187Y01325D02*
X01191Y01328D01*
X0124D02*
X01264Y01352D01*
X01191Y01328D02*
X0124D01*
X01119Y01325D02*
X01121Y01323D01*
X00839Y01209D02*
X00868D01*
X00776Y01235D02*
X00813D01*
X00839Y01209*
X00783Y01227D02*
X00806D01*
X00835Y01199D02*
X00884D01*
X00806Y01227D02*
X00835Y01199D01*
X00788Y0121D02*
X00792Y01213D01*
X00794*
X00425Y01426D02*
Y0143D01*
X0104Y0145D02*
X01043D01*
X01221Y0148D02*
X01225D01*
X00395Y0129D02*
X00396Y01291D01*
X01473Y01458D02*
X01473Y01457D01*
X0147Y01458D02*
X01473D01*
X01468Y0146D02*
X0147Y01458D01*
X01493Y01478D02*
X01496Y01481D01*
X01493Y01474D02*
Y01478D01*
X01484Y01466D02*
X01493Y01474D01*
X01473Y01466D02*
X01484D01*
X0147Y0147D02*
X01473Y01466D01*
X01423Y0147D02*
X0147D01*
X01117Y01255D02*
X01121Y01259D01*
Y01323*
X01473Y01457D02*
X0151D01*
X01366Y01435D02*
X01376Y01445D01*
X01214Y0141D02*
X0123Y01394D01*
X01235*
X00568Y01301D02*
Y01386D01*
Y01301D02*
X00584Y01285D01*
X00576Y01318D02*
X0058Y01315D01*
X00576Y01318D02*
Y01389D01*
X00492Y01444D02*
X00552Y01384D01*
X00559Y0141D02*
X00576Y01393D01*
Y01389D02*
Y01393D01*
Y01389D02*
D01*
X00556Y01402D02*
X00568Y0139D01*
Y01386D02*
D01*
Y0139D01*
X00552Y01384D02*
X00554D01*
X00557Y0141D02*
X00559D01*
X00546Y01409D02*
X00553Y01402D01*
X00556*
X00525Y01442D02*
X00557Y0141D01*
X00524Y01468D02*
X00525Y01467D01*
Y01442D02*
Y01467D01*
X01422Y01435D02*
X01425Y01438D01*
X01586Y01275D02*
X01588Y01277D01*
X0158Y01275D02*
X01586D01*
X01545Y0124D02*
X0158Y01275D01*
X01861Y0135D02*
X01913Y01401D01*
X01855Y0135D02*
X01861D01*
X01228Y01375D02*
X01239Y01365D01*
X01227Y01375D02*
X01228Y01375D01*
X01225Y01377D02*
X01227Y01375D01*
X01208Y01377D02*
X01225D01*
X01231Y01351D02*
X01233Y01353D01*
X01231D02*
X01233D01*
X01239Y01365D02*
X0125D01*
X0147Y01335D02*
X0147Y01334D01*
X01913Y01401D02*
Y01452D01*
X01916Y01455D02*
X01929D01*
X01913Y01452D02*
X01916Y01455D01*
X01929D02*
X01933Y01452D01*
X01085Y01232D02*
X0109Y01226D01*
X01011Y01225D02*
X0109D01*
X0109Y01225*
Y01226*
X01098Y0121D02*
X01115Y01226D01*
X01128*
X01376Y01445D02*
X01377D01*
X0138Y01435D02*
X01422D01*
X01369Y01424D02*
X0138Y01435D01*
X01465Y01335D02*
X0147D01*
X0137Y0124D02*
X01465Y01335D01*
X00598Y01288D02*
X006D01*
X00779Y0121D02*
X00788D01*
X01264Y01352D02*
Y01359D01*
X0126Y01205D02*
Y01225D01*
X01275Y0124D02*
X0137D01*
X0126Y01225D02*
X01275Y0124D01*
X01532Y0147D02*
X0156D01*
X01727Y01348D02*
X0173Y0135D01*
X01205Y0141D02*
X01214D01*
X00546Y01409D02*
Y0141D01*
X00504Y01451D02*
X00546Y0141D01*
X00485Y01452D02*
X00489Y01448D01*
X00492Y01444D02*
Y01446D01*
X0049Y01448D02*
X00492Y01446D01*
X00489Y01448D02*
X0049D01*
X00504Y01451D02*
Y01468D01*
X00584Y01284D02*
Y01285D01*
X00723Y01351D02*
X00735Y0134D01*
X00465Y0127D02*
Y01275D01*
X00395Y01235D02*
Y0129D01*
X0044Y013D02*
X00465Y01275D01*
X0044Y013D02*
Y01315D01*
X01226Y01351D02*
X01231D01*
X00657Y01315D02*
X0068Y01338D01*
X0121Y01315D02*
X0123D01*
X01205Y0131D02*
X0121Y01315D01*
X01206Y01346D02*
X01209Y01349D01*
X01224*
X01226Y01351*
X01205Y0138D02*
X01208Y01377D01*
X00997Y01239D02*
X01011Y01225D01*
X00993Y01229D02*
X01012Y0121D01*
X01085Y01232D02*
Y0124D01*
X01078Y01246D02*
X01085Y0124D01*
X01012Y0121D02*
X01098D01*
X01108Y01205D02*
X0115D01*
X0156Y01457D02*
Y0147D01*
X01521Y01481D02*
X01532Y0147D01*
X01496Y01481D02*
X01521D01*
X00416Y01213D02*
X00417D01*
X00568Y01286D02*
X00629Y01225D01*
X00675*
X00584Y01284D02*
X00633Y01235D01*
X0058Y01315D02*
X00657D01*
X00604Y01285D02*
X00636Y01253D01*
X00603Y01285D02*
X00604D01*
X006Y01288D02*
X00603Y01285D01*
X00633Y01235D02*
X00679D01*
X01076Y01246D02*
X01078D01*
X01068Y01255D02*
X01076Y01246D01*
X00494Y0131D02*
Y0131D01*
X00636Y01253D02*
X00677D01*
X0044Y0135D02*
X00475Y01385D01*
Y01425*
X00395Y01235D02*
X00416Y01213D01*
X00914Y01226D02*
X00915Y01225D01*
X00911Y01226D02*
X00914D01*
X00884Y01199D02*
X00911Y01226D01*
X00868Y01209D02*
X00889Y0123D01*
Y01244*
X00909Y01263*
X00919*
X0092Y01264*
X00919Y01253D02*
X00964D01*
X00905Y0124D02*
X00919Y01253D01*
X00905Y0124D02*
X00905D01*
X00925D02*
X00964D01*
X00964Y01253D02*
X00989Y01229D01*
X0092Y01264D02*
X00967D01*
X00993Y01239*
X00997*
X00989Y01229D02*
X00993D01*
X00964Y01223D02*
X00965D01*
X01933Y01452D02*
X01936Y01455D01*
Y01354D02*
X0196D01*
X007Y01351D02*
X00723D01*
X00695Y01415D02*
X007D01*
X00689Y01351D02*
X007D01*
X0068Y01342D02*
X00689Y01351D01*
X0068Y01338D02*
Y01342D01*
X00886Y01457D02*
Y0148D01*
X00702Y01471D02*
Y01482D01*
X007Y0147D02*
X00702Y01471D01*
X00961Y01225D02*
X00964Y01223D01*
X00915Y01225D02*
X00961D01*
X00886Y01457D02*
X00895Y01447D01*
X009*
X00908Y0144*
G54D65*
X00823Y0141D02*
X00862D01*
X00815Y01444D02*
X00857D01*
X00862Y0144*
X00815Y0147D02*
X00862D01*
G54D66*
X01747Y0122D03*
X01688D03*
X0151Y01218D03*
X0157Y0122D03*
X01629D03*
G54D67*
X0166Y01392D03*
Y01472D03*
X0146Y01432D03*
G54D68*
X00854Y01245D03*
X00735D03*
G54D69*
X01397Y01342D03*
X01347Y01392D03*
X01297Y01342D03*
X01347Y01292D03*
G54D70*
X0184Y01245D03*
G54D71*
X0194Y01245D03*
G54D72*
X01517Y01325D03*
X01489Y0134D03*
X00962Y01413D03*
X01323Y01418D03*
X01539Y0124D03*
X01168Y01225D03*
X0129Y01469D03*
X01336Y01459D03*
X01415Y01473D03*
X01479Y0148D03*
X01207Y01446D03*
X01168Y01473D03*
X00982Y01476D03*
X00986Y0144D03*
X00692Y01272D03*
X00603Y01229D03*
X00585Y01245D03*
X00993Y01376D03*
X00977Y0136D03*
X00823Y01366D03*
X00545Y0123D03*
X00635Y01484D03*
X01785Y01491D03*
X01967Y0134D03*
X00445Y01215D03*
X01677Y01445D03*
X01624Y0142D03*
X01148Y01458D03*
X01116Y0147D03*
X01068Y0146D03*
X01087Y01457D03*
X00794Y01213D03*
X01225Y0148D03*
X01788Y01376D03*
X01575Y01435D03*
X00396Y01291D03*
X01754Y01319D03*
X01446Y01366D03*
X00797Y01362D03*
X00853Y01382D03*
X00855Y01333D03*
X01357Y01449D03*
X01235Y01394D03*
X01619Y0132D03*
X01604Y01335D03*
X01615Y01355D03*
X01795Y01245D03*
X00554Y01384D03*
X0059Y01395D03*
X01425Y01438D03*
X00425Y0143D03*
X01605Y01248D03*
X01588Y01277D03*
X01715Y0126D03*
X01855Y0135D03*
X0128Y0144D03*
X01231Y01353D03*
X0125Y01365D03*
X01265Y01381D03*
X0148Y01315D03*
X0147Y01334D03*
X01899Y01451D03*
X0109Y01225D03*
X01128Y01226D03*
X0175Y01295D03*
X01845Y01325D03*
X01855Y01405D03*
X01572Y01345D03*
X01785Y0121D03*
X01738Y01415D03*
X0127Y01295D03*
X0126Y01205D03*
X01255Y0124D03*
X01625Y0149D03*
X0169D03*
X0127Y01265D03*
X01205Y01245D03*
X01075Y01296D03*
X01105Y01391D03*
X01135Y01345D03*
X00994Y01404D03*
X01163Y01391D03*
X01135Y01296D03*
X01105Y01345D03*
X01165D03*
X01105Y01296D03*
X01163Y01296D03*
X0123Y01315D03*
X0104Y0145D03*
X01135Y01391D03*
X01075D03*
Y01341D03*
X0191Y0134D03*
X00545Y01485D03*
X00445D03*
X00485Y0124D03*
X00565Y0127D03*
X0081Y01385D03*
X00815Y0147D03*
X00417Y01213D03*
X0038Y0122D03*
X00598Y0129D03*
X00815Y0144D03*
X0044Y01315D03*
X00775Y01365D03*
X00735Y0134D03*
X00805Y0131D03*
X0076Y0138D03*
X0068Y01311D03*
X0197Y0145D03*
X0039Y01455D03*
X0026D03*
X0044Y0135D03*
X00475Y01425D03*
X00905Y0124D03*
X00925D03*
X01Y01255D03*
X0047Y013D03*
X00865Y01415D03*
X00325Y0143D03*
X00695Y01415D03*
X0089Y0134D03*
X0074Y0131D03*
G54D73*
X0033Y01295D03*
X00425Y01285D03*
M02*