%FSTAX23Y23*%
%MOIN*%
%SFA1B1*%

%IPPOS*%
%ADD10C,0.003940*%
%ADD11C,0.009840*%
%ADD12C,0.010000*%
%ADD13C,0.007870*%
%ADD14C,0.008000*%
%ADD15C,0.006000*%
%ADD16C,0.005000*%
%LNpower_pcb_v2-1*%
%LPD*%
G54D10*
X01788Y01295D02*
D01*
X01788Y01295*
X01788Y01295*
X01788Y01295*
X01788Y01295*
X01788Y01295*
X01789Y01295*
X01789Y01295*
X01789Y01295*
X01789Y01295*
X01789Y01296*
X01789Y01296*
X01789Y01296*
X01789Y01296*
X01789Y01296*
X01789Y01296*
X0179Y01296*
X0179Y01296*
X0179Y01296*
X0179Y01297*
X0179Y01297*
X0179Y01297*
X0179Y01297*
Y01297*
X0179Y01297*
X0179Y01297*
X0179Y01298*
X0179Y01298*
X0179Y01298*
X0179Y01298*
X01789Y01298*
X01789Y01298*
X01789Y01298*
X01789Y01298*
X01789Y01298*
X01789Y01299*
X01789Y01299*
X01789Y01299*
X01789Y01299*
X01789Y01299*
X01788Y01299*
X01788Y01299*
X01788Y01299*
X01788Y01299*
X01788Y01299*
X01788Y01299*
D01*
X01788Y01299*
X01787Y01299*
X01787Y01299*
X01787Y01299*
X01787Y01299*
X01787Y01299*
X01787Y01299*
X01787Y01299*
X01787Y01299*
X01786Y01299*
X01786Y01298*
X01786Y01298*
X01786Y01298*
X01786Y01298*
X01786Y01298*
X01786Y01298*
X01786Y01298*
X01786Y01298*
X01786Y01298*
X01786Y01297*
X01786Y01297*
X01786Y01297*
Y01297*
X01786Y01297*
X01786Y01297*
X01786Y01297*
X01786Y01296*
X01786Y01296*
X01786Y01296*
X01786Y01296*
X01786Y01296*
X01786Y01296*
X01786Y01296*
X01786Y01296*
X01786Y01296*
X01787Y01295*
X01787Y01295*
X01787Y01295*
X01787Y01295*
X01787Y01295*
X01787Y01295*
X01787Y01295*
X01787Y01295*
X01788Y01295*
X01788Y01295*
X01508Y01299D02*
D01*
X01508Y01298*
X01508Y01298*
X01508Y01298*
X01508Y01298*
X01508Y01298*
X01508Y01298*
X01509Y01298*
X01509Y01298*
X01509Y01297*
X01509Y01297*
X01509Y01297*
X01509Y01297*
X01509Y01297*
X01509Y01297*
X01509Y01297*
X01509Y01297*
X0151Y01297*
X0151Y01297*
X0151Y01297*
X0151Y01297*
X0151Y01297*
X0151Y01297*
X0151*
X0151Y01297*
X01511Y01297*
X01511Y01297*
X01511Y01297*
X01511Y01297*
X01511Y01297*
X01511Y01297*
X01511Y01297*
X01512Y01297*
X01512Y01297*
X01512Y01297*
X01512Y01297*
X01512Y01297*
X01512Y01298*
X01512Y01298*
X01512Y01298*
X01512Y01298*
X01512Y01298*
X01512Y01298*
X01512Y01298*
X01512Y01298*
X01512Y01299*
D01*
X01512Y01299*
X01512Y01299*
X01512Y01299*
X01512Y01299*
X01512Y01299*
X01512Y01299*
X01512Y01299*
X01512Y013*
X01512Y013*
X01512Y013*
X01512Y013*
X01512Y013*
X01512Y013*
X01511Y013*
X01511Y013*
X01511Y013*
X01511Y013*
X01511Y013*
X01511Y013*
X01511Y013*
X0151Y01301*
X0151Y01301*
X0151*
X0151Y01301*
X0151Y013*
X0151Y013*
X0151Y013*
X0151Y013*
X01509Y013*
X01509Y013*
X01509Y013*
X01509Y013*
X01509Y013*
X01509Y013*
X01509Y013*
X01509Y013*
X01509Y013*
X01509Y01299*
X01508Y01299*
X01508Y01299*
X01508Y01299*
X01508Y01299*
X01508Y01299*
X01508Y01299*
X01508Y01299*
X018Y01283D02*
X01831D01*
X018Y01488D02*
X01831D01*
X01918D02*
X01949D01*
X01918Y01283D02*
X01949D01*
X01759Y01384D02*
Y01415D01*
X017Y01384D02*
Y01415D01*
G54D11*
X00237Y01305D02*
D01*
X00237Y01305*
X00237Y01306*
X00237Y01306*
X00237Y01306*
X00237Y01307*
X00237Y01307*
X00237Y01307*
X00237Y01308*
X00236Y01308*
X00236Y01308*
X00236Y01309*
X00236Y01309*
X00235Y01309*
X00235Y01309*
X00235Y01309*
X00234Y0131*
X00234Y0131*
X00234Y0131*
X00234Y0131*
X00233Y0131*
X00233Y0131*
X00233Y0131*
X00232*
X00232Y0131*
X00231Y0131*
X00231Y0131*
X00231Y0131*
X0023Y0131*
X0023Y0131*
X0023Y01309*
X0023Y01309*
X00229Y01309*
X00229Y01309*
X00229Y01309*
X00229Y01308*
X00228Y01308*
X00228Y01308*
X00228Y01307*
X00228Y01307*
X00228Y01307*
X00228Y01306*
X00228Y01306*
X00227Y01306*
X00227Y01305*
X00227Y01305*
X00227Y01305*
X00227Y01304*
X00228Y01304*
X00228Y01304*
X00228Y01303*
X00228Y01303*
X00228Y01303*
X00228Y01302*
X00228Y01302*
X00229Y01302*
X00229Y01302*
X00229Y01301*
X00229Y01301*
X0023Y01301*
X0023Y01301*
X0023Y01301*
X0023Y01301*
X00231Y013*
X00231Y013*
X00231Y013*
X00232Y013*
X00232Y013*
X00233*
X00233Y013*
X00233Y013*
X00234Y013*
X00234Y013*
X00234Y01301*
X00234Y01301*
X00235Y01301*
X00235Y01301*
X00235Y01301*
X00236Y01301*
X00236Y01302*
X00236Y01302*
X00236Y01302*
X00237Y01302*
X00237Y01303*
X00237Y01303*
X00237Y01303*
X00237Y01304*
X00237Y01304*
X00237Y01304*
X00237Y01305*
X00237Y01305*
X00683Y01492D02*
D01*
X00683Y01493*
X00683Y01493*
X00683Y01493*
X00682Y01494*
X00682Y01494*
X00682Y01494*
X00682Y01495*
X00682Y01495*
X00682Y01495*
X00682Y01495*
X00681Y01496*
X00681Y01496*
X00681Y01496*
X00681Y01496*
X0068Y01497*
X0068Y01497*
X0068Y01497*
X00679Y01497*
X00679Y01497*
X00679Y01497*
X00678Y01497*
X00678Y01497*
X00678*
X00677Y01497*
X00677Y01497*
X00677Y01497*
X00676Y01497*
X00676Y01497*
X00676Y01497*
X00675Y01497*
X00675Y01496*
X00675Y01496*
X00674Y01496*
X00674Y01496*
X00674Y01495*
X00674Y01495*
X00674Y01495*
X00673Y01495*
X00673Y01494*
X00673Y01494*
X00673Y01494*
X00673Y01493*
X00673Y01493*
X00673Y01493*
X00673Y01492*
X00673Y01492*
X00673Y01492*
X00673Y01491*
X00673Y01491*
X00673Y01491*
X00673Y0149*
X00673Y0149*
X00674Y0149*
X00674Y01489*
X00674Y01489*
X00674Y01489*
X00674Y01489*
X00675Y01488*
X00675Y01488*
X00675Y01488*
X00676Y01488*
X00676Y01488*
X00676Y01488*
X00677Y01487*
X00677Y01487*
X00677Y01487*
X00678Y01487*
X00678*
X00678Y01487*
X00679Y01487*
X00679Y01487*
X00679Y01488*
X0068Y01488*
X0068Y01488*
X0068Y01488*
X00681Y01488*
X00681Y01488*
X00681Y01489*
X00681Y01489*
X00682Y01489*
X00682Y01489*
X00682Y0149*
X00682Y0149*
X00682Y0149*
X00682Y01491*
X00682Y01491*
X00683Y01491*
X00683Y01492*
X00683Y01492*
X00683Y01492*
G54D12*
X00711Y01371D02*
D01*
X00711Y01371*
X00711Y01372*
X00711Y01372*
X00711Y01372*
X00711Y01372*
X00711Y01373*
X00711Y01373*
X00711Y01373*
X0071Y01373*
X0071Y01374*
X0071Y01374*
X0071Y01374*
X0071Y01374*
X00709Y01374*
X00709Y01375*
X00709Y01375*
X00709Y01375*
X00708Y01375*
X00708Y01375*
X00708Y01375*
X00707Y01375*
X00707Y01375*
X00707*
X00707Y01375*
X00706Y01375*
X00706Y01375*
X00706Y01375*
X00706Y01375*
X00705Y01375*
X00705Y01375*
X00705Y01374*
X00705Y01374*
X00704Y01374*
X00704Y01374*
X00704Y01374*
X00704Y01373*
X00704Y01373*
X00703Y01373*
X00703Y01373*
X00703Y01372*
X00703Y01372*
X00703Y01372*
X00703Y01372*
X00703Y01371*
X00703Y01371*
X00703Y01371*
X00703Y01371*
X00703Y0137*
X00703Y0137*
X00703Y0137*
X00703Y01369*
X00703Y01369*
X00704Y01369*
X00704Y01369*
X00704Y01368*
X00704Y01368*
X00704Y01368*
X00705Y01368*
X00705Y01368*
X00705Y01368*
X00705Y01367*
X00706Y01367*
X00706Y01367*
X00706Y01367*
X00706Y01367*
X00707Y01367*
X00707Y01367*
X00707*
X00707Y01367*
X00708Y01367*
X00708Y01367*
X00708Y01367*
X00709Y01367*
X00709Y01367*
X00709Y01368*
X00709Y01368*
X0071Y01368*
X0071Y01368*
X0071Y01368*
X0071Y01368*
X0071Y01369*
X00711Y01369*
X00711Y01369*
X00711Y01369*
X00711Y0137*
X00711Y0137*
X00711Y0137*
X00711Y01371*
X00711Y01371*
X00711Y01371*
X01348Y01211D02*
D01*
X01348Y01211*
X01348Y01211*
X01348Y01212*
X01348Y01212*
X01348Y01212*
X01348Y01212*
X01348Y01212*
X01348Y01212*
X01348Y01212*
X01348Y01212*
X01348Y01212*
X01348Y01212*
X01348Y01212*
X01347Y01212*
X01347Y01212*
X01347Y01212*
X01347Y01212*
X01347Y01213*
X01347Y01213*
X01347Y01213*
X01347Y01213*
X01347Y01213*
X01347*
X01347Y01213*
X01347Y01213*
X01346Y01213*
X01346Y01213*
X01346Y01212*
X01346Y01212*
X01346Y01212*
X01346Y01212*
X01346Y01212*
X01346Y01212*
X01346Y01212*
X01346Y01212*
X01346Y01212*
X01346Y01212*
X01346Y01212*
X01346Y01212*
X01346Y01212*
X01346Y01212*
X01345Y01212*
X01345Y01211*
X01345Y01211*
X01345Y01211*
X01345Y01211*
X01345Y01211*
X01345Y01211*
X01346Y01211*
X01346Y01211*
X01346Y01211*
X01346Y01211*
X01346Y01211*
X01346Y01211*
X01346Y0121*
X01346Y0121*
X01346Y0121*
X01346Y0121*
X01346Y0121*
X01346Y0121*
X01346Y0121*
X01346Y0121*
X01346Y0121*
X01346Y0121*
X01347Y0121*
X01347Y0121*
X01347Y0121*
X01347*
X01347Y0121*
X01347Y0121*
X01347Y0121*
X01347Y0121*
X01347Y0121*
X01347Y0121*
X01347Y0121*
X01347Y0121*
X01348Y0121*
X01348Y0121*
X01348Y0121*
X01348Y0121*
X01348Y01211*
X01348Y01211*
X01348Y01211*
X01348Y01211*
X01348Y01211*
X01348Y01211*
X01348Y01211*
X01348Y01211*
X01348Y01211*
X01348Y01211*
X01453Y01342D02*
D01*
X01453Y01349*
X01452Y01357*
X01451Y01364*
X01449Y01371*
X01446Y01378*
X01444Y01385*
X0144Y01392*
X01437Y01398*
X01433Y01404*
X01428Y0141*
X01423Y01416*
X01418Y01421*
X01412Y01426*
X01406Y0143*
X014Y01434*
X01393Y01438*
X01386Y01441*
X01379Y01443*
X01372Y01445*
X01365Y01447*
X01358Y01448*
X0135Y01448*
X01343*
X01335Y01448*
X01328Y01447*
X01321Y01445*
X01314Y01443*
X01307Y01441*
X013Y01438*
X01293Y01434*
X01287Y0143*
X01281Y01426*
X01275Y01421*
X0127Y01416*
X01265Y0141*
X01261Y01404*
X01256Y01398*
X01253Y01392*
X01249Y01385*
X01247Y01378*
X01244Y01371*
X01243Y01364*
X01241Y01357*
X01241Y01349*
X0124Y01342*
X01241Y01335*
X01241Y01327*
X01243Y0132*
X01244Y01313*
X01247Y01306*
X01249Y01299*
X01253Y01292*
X01256Y01286*
X01261Y0128*
X01265Y01274*
X0127Y01268*
X01275Y01263*
X01281Y01258*
X01287Y01254*
X01293Y0125*
X013Y01246*
X01307Y01243*
X01314Y01241*
X01321Y01239*
X01328Y01237*
X01335Y01236*
X01343Y01236*
X0135*
X01358Y01236*
X01365Y01237*
X01372Y01239*
X01379Y01241*
X01386Y01243*
X01393Y01246*
X014Y0125*
X01406Y01254*
X01412Y01258*
X01418Y01263*
X01423Y01268*
X01428Y01274*
X01433Y0128*
X01437Y01286*
X0144Y01292*
X01444Y01299*
X01446Y01306*
X01449Y01313*
X01451Y0132*
X01452Y01327*
X01453Y01335*
X01453Y01342*
X01309Y012D02*
Y0122D01*
X00285Y01259D02*
X00305D01*
X00335Y0138D02*
X00355D01*
X00926Y01229D02*
Y0126D01*
X00663Y01229D02*
Y0126D01*
X00732Y01296D02*
X00798D01*
X01411Y01253D02*
X01438Y01226D01*
X01461Y0125*
X01432Y01279D02*
X01461Y0125D01*
X01955Y012D02*
X01985D01*
X0179Y01205D02*
X0182D01*
X01805Y0119D02*
Y0122D01*
X01139Y01245D02*
Y01265D01*
X01049Y0137D02*
Y0139D01*
X0105Y01405D02*
Y01425D01*
X00884Y01395D02*
Y01415D01*
Y0146D02*
Y0148D01*
G54D13*
X00624Y01261D02*
Y01458D01*
X00365Y01261D02*
Y01458D01*
X00584Y01261D02*
X00624D01*
X00365D02*
X00405D01*
X00584Y01458D02*
X00624D01*
X00365D02*
X00405D01*
G54D14*
X00233Y01187D02*
X00233Y01211D01*
X00244Y01211*
X00248Y01207*
X00248Y01199*
X00244Y01195*
X00233Y01195*
X00256Y01211D02*
X00256Y01187D01*
X00264Y01195*
X00272Y01187*
X00272Y01211*
X0028Y01187D02*
X0028Y01211D01*
X00292Y01211*
X00296Y01207*
X00296Y01199*
X00292Y01195*
X0028Y01195*
X00288Y01195D02*
X00296Y01187D01*
X00327Y01211D02*
X00327Y01187D01*
X00339Y01187*
X00343Y01191*
X00343Y01195*
X00339Y01199*
X00327Y01199*
X00339Y01199*
X00343Y01203*
X00343Y01207*
X00339Y01211*
X00327Y01211*
X00363Y01211D02*
X00355Y01211D01*
X00351Y01207*
X00351Y01191*
X00355Y01187*
X00362Y01187*
X00366Y01191*
X00366Y01207*
X00363Y01211*
X00374Y01187D02*
X00374Y01203D01*
X00382Y01211*
X0039Y01203*
X0039Y01187*
X0039Y01199*
X00374Y01199*
X00398Y01187D02*
X00398Y0121D01*
X0041Y0121*
X00414Y01206*
X00414Y01199*
X0041Y01195*
X00398Y01195*
X00406Y01195D02*
X00414Y01187D01*
X00422Y0121D02*
X00421Y01187D01*
X00433Y01187*
X00437Y01191*
X00437Y01206*
X00433Y0121*
X00422Y0121*
X00469Y01202D02*
X00477Y01187D01*
X00484Y01202*
X00508Y01186D02*
X00492Y01187D01*
X00508Y01202*
X00508Y01206*
X00504Y0121*
X00496Y0121*
X00492Y01206*
X00516Y01186D02*
X00516Y0119D01*
X0052Y0119*
X0052Y01186*
X00516Y01186*
X00536Y01186D02*
X00543Y01186D01*
X0054Y01186*
X0054Y0121*
X00536Y01206*
X00988Y01207D02*
X00992Y01211D01*
X00999Y01211*
X01003Y01207*
X01003Y01191*
X00999Y01187*
X00991Y01187*
X00988Y01191*
X00988Y01207*
X01011Y01207D02*
X01015Y01211D01*
X01023Y01211*
X01027Y01207*
X01027Y01203*
X01023Y01199*
X01019Y01199*
X01023Y01199*
X01027Y01195*
X01027Y01191*
X01023Y01187*
X01015Y01187*
X01011Y01191*
X01035Y01187D02*
X01035Y01191D01*
X01039Y01191*
X01039Y01187*
X01035Y01187*
X0107Y01187D02*
X01054Y01187D01*
X0107Y01203*
X0107Y01207*
X01066Y01211*
X01058Y01211*
X01055Y01207*
X01094Y01211D02*
X01078Y01211D01*
X01078Y01199*
X01086Y01203*
X0109Y01203*
X01094Y01199*
X01094Y01191*
X0109Y01187*
X01082Y01187*
X01078Y01191*
X01102Y01187D02*
X01102Y01191D01*
X01106Y01191*
X01106Y01187*
X01102Y01187*
X01137Y01187D02*
X01121Y01187D01*
X01137Y01203*
X01137Y01207*
X01133Y01211*
X01125Y01211*
X01121Y01207*
X01145Y01207D02*
X01149Y0121D01*
X01157Y0121*
X01161Y01207*
X01161Y01191*
X01157Y01187*
X01149Y01187*
X01145Y01191*
X01145Y01207*
X01184Y01187D02*
X01169Y01187D01*
X01184Y01202*
X01184Y01206*
X0118Y0121*
X01173Y0121*
X01169Y01206*
X01192Y01206D02*
X01196Y0121D01*
X01204Y0121*
X01208Y01206*
X01208Y01191*
X01204Y01187*
X01196Y01187*
X01192Y01191*
X01192Y01206*
G54D15*
X01484Y01367D02*
Y01396D01*
X01494Y01386*
X01503Y01396*
Y01367*
X01513Y01396D02*
Y01367D01*
Y01377*
X01533Y01396*
X01518Y01381*
X01533Y01367*
X01543D02*
X01553D01*
X01548*
Y01396*
X01543Y01391*
X00242Y01465D02*
X00252D01*
X00247*
Y01435*
X00242*
X00252*
X00287Y0146D02*
X00282Y01465D01*
X00272*
X00267Y0146*
Y0144*
X00272Y01435*
X00282*
X00287Y0144*
X00317Y01465D02*
X00297D01*
Y0145*
X00307Y01455*
X00312*
X00317Y0145*
Y0144*
X00312Y01435*
X00302*
X00297Y0144*
X0033Y01247D02*
X00325Y01242D01*
Y01232*
X0033Y01227*
X0035*
X00355Y01232*
Y01242*
X0035Y01247*
X00355Y01257D02*
Y01267D01*
Y01262*
X00325*
X0033Y01257*
X00355Y01297D02*
X00325D01*
X0034Y01282*
Y01302*
X0025Y01245D02*
X00245Y0124D01*
Y0123*
X0025Y01225*
X0027*
X00274Y0123*
Y0124*
X0027Y01245*
X0025Y01255D02*
X00245Y0126D01*
Y01269*
X0025Y01274*
X00255*
X0026Y01269*
Y01264*
Y01269*
X00265Y01274*
X0027*
X00274Y01269*
Y0126*
X0027Y01255*
X0072Y01345D02*
Y01374D01*
X00735*
X00739Y01369*
Y0136*
X00735Y01355*
X0072*
X00769Y01369D02*
X00764Y01374D01*
X00754*
X00749Y01369*
Y01364*
X00754Y0136*
X00764*
X00769Y01355*
Y0135*
X00764Y01345*
X00754*
X00749Y0135*
X00779Y01345D02*
X00789D01*
X00784*
Y01374*
X00779Y01369*
X00665Y01335D02*
X00635D01*
Y0135*
X0064Y01354*
X0065*
X00655Y0135*
Y01335*
Y01345D02*
X00665Y01354D01*
X0064Y01364D02*
X00635Y01369D01*
Y01379*
X0064Y01384*
X00645*
X0065Y01379*
Y01374*
Y01379*
X00655Y01384*
X0066*
X00665Y01379*
Y01369*
X0066Y01364*
X01865Y01185D02*
Y01214D01*
X01879*
X01884Y01209*
Y012*
X01879Y01195*
X01865*
X01894Y01185D02*
X01904D01*
X01899*
Y01214*
X01894Y01209*
G54D16*
X0184Y0142D02*
Y01436D01*
X01848Y01444*
X01856Y01436*
Y0142*
Y01432*
X0184*
X01881Y0144D02*
X01877Y01444D01*
X01869*
X01864Y0144*
Y01424*
X01869Y0142*
X01877*
X01881Y01424*
X01889Y0142D02*
X01898D01*
X01894*
Y01444*
X01889Y0144*
X01425Y01196D02*
Y01221D01*
X01438*
X01442Y01217*
Y01209*
X01438Y01205*
X01425*
X01434D02*
X01442Y01196D01*
X0145D02*
X01459D01*
X01455*
Y01221*
X0145Y01217*
X01471D02*
X01475Y01221D01*
X01484*
X01488Y01217*
Y01213*
X01484Y01209*
X01488Y01205*
Y01201*
X01484Y01196*
X01475*
X01471Y01201*
Y01205*
X01475Y01209*
X01471Y01213*
Y01217*
X01475Y01209D02*
X01484D01*
X01607Y0129D02*
X01582D01*
Y01302*
X01586Y01306*
X01595*
X01599Y01302*
Y0129*
Y01298D02*
X01607Y01306D01*
Y01331D02*
Y01315D01*
X0159Y01331*
X01586*
X01582Y01327*
Y01319*
X01586Y01315*
Y0134D02*
X01582Y01344D01*
Y01352*
X01586Y01356*
X01603*
X01607Y01352*
Y01344*
X01603Y0134*
X01586*
X01541Y01247D02*
Y01272D01*
X01554*
X01558Y01268*
Y0126*
X01554Y01255*
X01541*
X0155D02*
X01558Y01247D01*
X01583D02*
X01566D01*
X01583Y01264*
Y01268*
X01579Y01272*
X0157*
X01566Y01268*
X01608Y01247D02*
X01591D01*
X01608Y01264*
Y01268*
X01604Y01272*
X01595*
X01591Y01268*
X01251Y01198D02*
X01247Y01194D01*
Y01185*
X01251Y01181*
X01268*
X01272Y01185*
Y01194*
X01268Y01198*
X01272Y01223D02*
Y01206D01*
X01255Y01223*
X01251*
X01247Y01219*
Y0121*
X01251Y01206*
Y01231D02*
X01247Y01235D01*
Y01244*
X01251Y01248*
X01255*
X0126Y01244*
X01264Y01248*
X01268*
X01272Y01244*
Y01235*
X01268Y01231*
X01264*
X0126Y01235*
X01255Y01231*
X01251*
X0126Y01235D02*
Y01244D01*
X01461Y01363D02*
X01457Y01359D01*
Y0135*
X01461Y01346*
X01478*
X01482Y0135*
Y01359*
X01478Y01363*
X01482Y01388D02*
Y01371D01*
X01465Y01388*
X01461*
X01457Y01384*
Y01375*
X01461Y01371*
X01457Y01396D02*
Y01413D01*
X01461*
X01478Y01396*
X01482*
X01195Y0144D02*
X01177Y01457D01*
X01186Y01466*
X01192*
X01197Y0146*
Y01454*
X01189Y01445*
X01195Y01451D02*
X01206D01*
X01212Y01457D02*
X01218Y01463D01*
X01215Y0146*
X01197Y01478*
Y01472*
X01236Y01481D02*
X01218Y01498D01*
Y01481*
X0123Y01493*
X01735Y01295D02*
Y01319D01*
X01747*
X01751Y01315*
Y01307*
X01747Y01303*
X01735*
X01743D02*
X01751Y01295D01*
X01759Y01299D02*
X01764Y01295D01*
X01772*
X01776Y01299*
Y01315*
X01772Y01319*
X01764*
X01759Y01315*
Y01311*
X01764Y01307*
X01776*
X0109Y01399D02*
X01106D01*
X01098*
Y01375*
X01114D02*
Y01399D01*
X01127*
X01131Y01395*
Y01387*
X01127Y01383*
X01114*
X01156Y01375D02*
X01139D01*
X01156Y01391*
Y01395*
X01152Y01399*
X01144*
X01139Y01395*
X01181Y01399D02*
X01164D01*
Y01387*
X01173Y01391*
X01177*
X01181Y01387*
Y01379*
X01177Y01375*
X01169*
X01164Y01379*
X0109Y01434D02*
X01106D01*
X01098*
Y0141*
X01114D02*
Y01434D01*
X01127*
X01131Y0143*
Y01422*
X01127Y01418*
X01114*
X01156Y0141D02*
X01139D01*
X01156Y01426*
Y0143*
X01152Y01434*
X01144*
X01139Y0143*
X01177Y0141D02*
Y01434D01*
X01164Y01422*
X01181*
X0109Y01364D02*
X01106D01*
X01098*
Y0134*
X01114D02*
Y01364D01*
X01127*
X01131Y0136*
Y01352*
X01127Y01348*
X01114*
X01156Y0134D02*
X01139D01*
X01156Y01356*
Y0136*
X01152Y01364*
X01144*
X01139Y0136*
X01181Y0134D02*
X01164D01*
X01181Y01356*
Y0136*
X01177Y01364*
X01169*
X01164Y0136*
X0109Y01329D02*
X01106D01*
X01098*
Y01305*
X01114D02*
Y01329D01*
X01127*
X01131Y01325*
Y01317*
X01127Y01313*
X01114*
X01156Y01305D02*
X01139D01*
X01156Y01321*
Y01325*
X01152Y01329*
X01144*
X01139Y01325*
X01164D02*
X01169Y01329D01*
X01177*
X01181Y01325*
Y01309*
X01177Y01305*
X01169*
X01164Y01309*
Y01325*
X01088Y01404D02*
X01092Y014D01*
X011*
X01105Y01404*
Y0142*
X011Y01425*
X01092*
X01088Y0142*
X01063Y01425D02*
X0108D01*
X01063Y01408*
Y01404*
X01067Y014*
X01075*
X0108Y01404*
X01038Y014D02*
X01046Y01404D01*
X01055Y01412*
Y0142*
X0105Y01425*
X01042*
X01038Y0142*
Y01416*
X01042Y01412*
X01055*
X00995Y0129D02*
Y01314D01*
X01007*
X01011Y0131*
Y01302*
X01007Y01298*
X00995*
X01003D02*
X01011Y0129D01*
X01019D02*
X01028D01*
X01024*
Y01314*
X01019Y0131*
X01057Y0129D02*
X0104D01*
X01057Y01306*
Y0131*
X01053Y01314*
X01044*
X0104Y0131*
X01215Y01225D02*
X0119D01*
Y01237*
X01194Y01241*
X01202*
X01206Y01237*
Y01225*
Y01233D02*
X01215Y01241D01*
Y01249D02*
Y01258D01*
Y01254*
X0119*
X01194Y01249*
X01215Y0127D02*
Y01279D01*
Y01274*
X0119*
X01194Y0127*
X01651Y01444D02*
X01643D01*
X01647*
Y01424*
X01643Y0142*
X01639*
X01635Y01424*
X01676Y0142D02*
X01659D01*
X01676Y01436*
Y0144*
X01672Y01444*
X01664*
X01659Y0144*
X01106Y0129D02*
X01102Y01294D01*
X01094*
X0109Y0129*
Y01274*
X01094Y0127*
X01102*
X01106Y01274*
X01131Y0127D02*
X01114D01*
X01131Y01286*
Y0129*
X01127Y01294*
X01119*
X01114Y0129*
X01156Y0127D02*
X01139D01*
X01156Y01286*
Y0129*
X01152Y01294*
X01144*
X01139Y0129*
X01031Y0146D02*
X01027Y01464D01*
X01019*
X01015Y0146*
Y01444*
X01019Y0144*
X01027*
X01031Y01444*
X01056Y0144D02*
X01039D01*
X01056Y01456*
Y0146*
X01052Y01464*
X01044*
X01039Y0146*
X01081Y01464D02*
X01064D01*
Y01452*
X01073Y01456*
X01077*
X01081Y01452*
Y01444*
X01077Y0144*
X01069*
X01064Y01444*
X00596Y0121D02*
X00592Y01214D01*
X00584*
X0058Y0121*
Y01206*
X00584Y01202*
X00592*
X00596Y01198*
Y01194*
X00592Y0119*
X00584*
X0058Y01194*
X00604Y0119D02*
X00613D01*
X00609*
Y01214*
X00604Y0121*
X01774Y01446D02*
X0177Y01442D01*
Y01434*
X01774Y0143*
X0179*
X01795Y01434*
Y01442*
X0179Y01446*
X01795Y01471D02*
Y01454D01*
X01778Y01471*
X01774*
X0177Y01467*
Y01459*
X01774Y01454*
Y01479D02*
X0177Y01484D01*
Y01492*
X01774Y01496*
X0179*
X01795Y01492*
Y01484*
X0179Y01479*
X01774*
X01591Y01385D02*
X01587Y01389D01*
X01579*
X01575Y01385*
Y01369*
X01579Y01365*
X01587*
X01591Y01369*
X01599Y01365D02*
X01608D01*
X01604*
Y01389*
X01599Y01385*
X0162Y01369D02*
X01624Y01365D01*
X01633*
X01637Y01369*
Y01385*
X01633Y01389*
X01624*
X0162Y01385*
Y01381*
X01624Y01377*
X01637*
X0171Y01409D02*
Y01405D01*
X01718Y01397*
X01726Y01405*
Y01409*
X01718Y01397D02*
Y01385D01*
X01751D02*
X01734D01*
X01751Y01401*
Y01405*
X01747Y01409*
X01739*
X01734Y01405*
X01365Y01484D02*
Y01464D01*
X01369Y0146*
X01377*
X01381Y01464*
Y01484*
X01389Y0146D02*
X01398D01*
X01394*
Y01484*
X01389Y0148*
X01985Y01345D02*
X0196D01*
Y01357*
X01964Y01361*
X01972*
X01976Y01357*
Y01345*
Y01353D02*
X01985Y01361D01*
Y01369D02*
Y01378D01*
Y01374*
X0196*
X01964Y01369*
Y0139D02*
X0196Y01394D01*
Y01403*
X01964Y01407*
X0198*
X01985Y01403*
Y01394*
X0198Y0139*
X01964*
X00935Y01415D02*
Y01439D01*
X00947*
X00951Y01435*
Y01427*
X00947Y01423*
X00935*
X00943D02*
X00951Y01415D01*
X00976D02*
X00959D01*
X00976Y01431*
Y01435*
X00972Y01439*
X00964*
X00959Y01435*
X00341Y01489D02*
X00333D01*
X00337*
Y01469*
X00333Y01465*
X00329*
X00325Y01469*
X00349Y01465D02*
X00358D01*
X00354*
Y01489*
X00349Y01485*
X00951Y01475D02*
X00947Y01479D01*
X00939*
X00935Y01475*
Y01459*
X00939Y01455*
X00947*
X00951Y01459*
X00959Y01455D02*
X00968D01*
X00964*
Y01479*
X00959Y01475*
X00951Y01395D02*
X00947Y01399D01*
X00939*
X00935Y01395*
Y01379*
X00939Y01375*
X00947*
X00951Y01379*
X00976Y01375D02*
X00959D01*
X00976Y01391*
Y01395*
X00972Y01399*
X00964*
X00959Y01395*
M02*