%FSTAX23Y23*%
%MOIN*%
%SFA1B1*%

%IPPOS*%
%AMD21*
4,1,4,0.006900,0.000000,0.000000,0.006900,-0.006900,0.000000,0.000000,-0.006900,0.006900,0.000000,0.0*
%
%ADD10C,0.010000*%
%ADD15C,0.008000*%
%ADD16C,0.006000*%
%ADD20R,0.009450X0.007870*%
G04~CAMADD=21~10~0.0~98.4~0.0~0.0~0.0~0.0~0~0.0~0.0~0.0~0.0~0~0.0~0.0~0.0~0.0~0~0.0~0.0~0.0~315.0~98.4~0.0*
%ADD21D21*%
%ADD22R,0.021650X0.021650*%
%ADD23C,0.060000*%
%ADD24R,0.020000X0.040000*%
%ADD25R,0.015750X0.023620*%
%ADD26R,0.023620X0.015750*%
%ADD27C,0.015750*%
%ADD28C,0.066930*%
%ADD29R,0.021650X0.021650*%
%ADD30R,0.224410X0.224410*%
%ADD31R,0.033470X0.011810*%
%ADD32R,0.011810X0.033470*%
%ADD33R,0.027560X0.011810*%
%ADD34R,0.039370X0.066930*%
%ADD35C,0.030980*%
%ADD36R,0.029530X0.023620*%
%ADD37R,0.029530X0.037400*%
%ADD38R,0.068900X0.070870*%
%ADD61C,0.004000*%
%ADD62C,0.012000*%
%ADD63C,0.011300*%
%ADD64C,0.018000*%
%ADD65R,0.033470X0.087800*%
%ADD66R,0.045000X0.031500*%
%ADD67R,0.098430X0.019680*%
%ADD68R,0.019680X0.177170*%
%ADD69R,0.019680X0.059060*%
%ADD70C,0.019490*%
%ADD71R,0.059060X0.059060*%
%ADD72C,0.059060*%
%ADD73C,0.023620*%
%ADD74C,0.030000*%
%LNmcu_pcb_v2-1*%
%LPD*%
G36*
X03368Y01738D02*
X0335D01*
X0334Y01747*
Y01764*
X03311*
Y01749*
X03311Y01749*
X03311Y01748*
Y01735*
X03307Y01732*
X03305*
Y01703*
X03335*
Y01718*
X03368*
Y01603*
X03369Y016*
X03372Y01598*
X0349*
Y0148*
X03152*
X03149Y01482*
Y0153*
X03134*
X03132Y01532*
X03135Y01537*
X03149*
Y01561*
X03153Y01563*
X0319Y01527*
X03192Y01525*
X03195Y01525*
X03197*
X03197Y01524*
X032Y01522*
X03203Y01521*
X0322*
X03224Y01522*
X03226Y01524*
X03234Y01532*
X03234*
X03236Y01534*
X03236Y01534*
X03238Y01537*
X03238Y01537*
X03259*
Y01566*
X0323*
Y01572*
X03215*
Y01552*
X03205*
Y01572*
X03189*
Y01557*
X03184Y01556*
X03161Y01579*
Y01585*
X0316Y01588*
X03158Y0159*
X03151Y01597*
X03149Y01599*
X03146Y016*
X03129Y01616*
X03127Y01618*
X03124Y01619*
X0312Y01618*
X03118Y01617*
X03098*
X03098Y01617*
X03094Y0162*
X03091Y0162*
X03089Y01621*
X03086Y01625*
X03085Y01627*
X03082Y01631*
X03078Y01634*
X03074Y01635*
X03069Y01634*
X03065Y01631*
X03063Y01627*
X03062Y01623*
X03063Y01618*
X03065Y01614*
X03069Y01612*
X03073Y01611*
X03074Y0161*
X03078Y01607*
X03074Y01602*
X03054*
X03048Y01608*
X03044Y0161*
X03043*
Y01619*
X03043Y01619*
X03046Y01623*
X03046Y01627*
X03046Y01632*
X03044Y01634*
X03046Y01639*
X03046*
X03049Y0164*
X03051Y01641*
X03053Y01643*
X03053Y01643*
X03058Y01642*
X03063Y01643*
X03066Y01646*
X03069Y01649*
X03069Y01651*
X03075*
Y01672*
Y01696*
X03075Y01697*
X03081Y01703*
X03095*
Y01732*
X03097Y01734*
Y01765*
X03061*
X03057Y01769*
X03058Y01772*
X03057Y01776*
X03054Y0178*
X0305Y01783*
X03046Y01784*
X03045Y01784*
X03044Y01785*
X03041Y01785*
X03015*
Y01793*
X03157*
Y01781*
X03175*
Y01771*
X03157*
Y01761*
X03145*
X03141Y01763*
Y01765*
X03103*
Y01734*
X03111*
X03115Y01732*
Y01703*
X03145*
Y01732*
X03145Y01732*
X03145Y01733*
X0315Y01738*
X03157*
Y01728*
X03175*
Y01723*
X0318*
Y01701*
X03192*
Y01707*
X03208*
Y01701*
X03221*
Y01723*
X03226*
Y01728*
X03244*
Y01738*
X03255*
Y0174*
X03264*
X03264Y01739*
Y01732*
X03255*
Y01703*
X03284*
Y01732*
X03288Y01735*
X03294*
Y01764*
X03265*
Y01759*
X03255*
Y01761*
X03244*
Y01771*
X03226*
Y01781*
X03244*
Y01793*
X03368*
Y01738*
G37*
G36*
X02447Y01722D02*
X02436D01*
X0243Y01728*
Y01731*
X02447*
Y01722*
G37*
G36*
X02416Y01728D02*
X0241Y01722D01*
X02399*
Y01731*
X02416*
Y01728*
G37*
G36*
X02447Y01703D02*
X0243D01*
Y01706*
X02436Y01712*
X02447*
Y01703*
G37*
G36*
X02416Y01706D02*
Y01703D01*
X02399*
Y01712*
X0241*
X02416Y01706*
G37*
%LNmcu_pcb_v2-2*%
%LPC*%
G36*
X03244Y01718D02*
X03231D01*
Y01701*
X03244*
Y01718*
G37*
G36*
X0317D02*
X03157D01*
Y01701*
X0317*
Y01718*
G37*
G36*
X03341Y01692D02*
X03325D01*
Y01677*
X03341*
Y01692*
G37*
G36*
X0329D02*
X03275D01*
Y01677*
X0329*
Y01692*
G37*
G36*
X03151D02*
X03135D01*
Y01677*
X03151*
Y01692*
G37*
G36*
X03101D02*
X03085D01*
Y01677*
X03101*
Y01692*
G37*
G36*
X03265D02*
X03249D01*
Y01677*
X03265*
Y01692*
G37*
G36*
X03125D02*
X03109D01*
Y01677*
X03125*
Y01692*
G37*
G36*
X03315D02*
X03299D01*
Y01677*
X03315*
Y01692*
G37*
G36*
X03341Y01667D02*
X03325D01*
Y01651*
X03341*
Y01667*
G37*
G36*
X03151D02*
X03135D01*
Y01651*
X03151*
Y01667*
G37*
G36*
X03125D02*
X03109D01*
Y01651*
X03125*
Y01667*
G37*
G36*
X03101D02*
X03085D01*
Y01651*
X03101*
Y01667*
G37*
G36*
X03256Y01644D02*
X03227D01*
Y01637*
X03218*
X03217Y01638*
X03213Y01641*
X03209Y01642*
X03204Y01641*
X032Y01638*
X03197Y01634*
X03196Y0163*
X03197Y01625*
X032Y01621*
X03204Y01618*
X03209Y01617*
X03213Y01618*
X03217Y01621*
X03218Y01622*
X03223*
X03226Y01619*
X03227Y01617*
X03226Y01616*
X03225Y01614*
X03223Y01613*
X03221Y01612*
X0322*
X03195*
X0319Y01611*
X0319Y01611*
X03185Y01612*
X0318Y01611*
X03176Y01609*
X03174Y01605*
X03173Y016*
X03174Y01595*
X03176Y01591*
X0318Y01589*
X03185Y01588*
X0319Y01589*
X0319Y01589*
X03195Y01586*
Y01583*
X03224*
X03225Y01582*
X03226Y01581*
X03228Y0158*
X0323Y01578*
X03235Y01577*
X03239Y01578*
X03243Y01581*
X03244Y01583*
X03259*
Y01577*
X03275*
Y01598*
X0328*
Y01603*
X033*
Y01609*
X03308*
Y01625*
X03267*
Y01622*
X03263Y01619*
X03258Y01619*
X03256Y01622*
Y01644*
G37*
G36*
X0329Y01667D02*
X0327D01*
X03249*
Y01651*
X03262*
X03267Y0165*
Y01646*
Y01635*
X03308*
Y0165*
X03313Y01651*
X03315*
Y01667*
X03299*
Y01652*
X03295Y01651*
X0329Y01652*
Y01655*
Y01667*
G37*
G36*
X033Y01593D02*
X03285D01*
Y01577*
X033*
Y01593*
G37*
G36*
X0334Y01573D02*
X03331Y01572D01*
X03323Y01569*
X03316Y01563*
X03313Y0156*
X03294*
Y01566*
X03265*
Y01537*
X03294*
Y01543*
X03302*
X03306Y0154*
X03306Y0154*
X03307Y01531*
X0331Y01523*
X03316Y01516*
X03323Y0151*
X03331Y01507*
X0334Y01506*
X03348Y01507*
X03356Y0151*
X03363Y01516*
X03369Y01523*
X03372Y01531*
X03373Y0154*
X03372Y01548*
X03369Y01556*
X03363Y01563*
X03356Y01569*
X03348Y01572*
X0334Y01573*
G37*
%LNmcu_pcb_v2-3*%
%LPD*%
G54D10*
X02415Y01755D02*
Y01787D01*
Y01755D02*
X02416Y01754D01*
X02208Y01777D02*
Y01778D01*
Y01777D02*
X02219Y01766D01*
X01769Y01707D02*
X01789Y01726D01*
X02517Y01786D02*
X02585D01*
G54D15*
X0309Y01609D02*
X03122D01*
X03124Y01611*
X02651Y01678D02*
X02657D01*
X02663Y01684*
X02188Y01642D02*
X02214Y01615D01*
X0234*
X02342Y01614D02*
X02366D01*
X0234Y01615D02*
X02342Y01614D01*
X0275Y01747D02*
Y01763D01*
X02749Y01747D02*
X0275Y01747D01*
X02104Y01688D02*
X02251D01*
X03153Y01576D02*
X03195Y01533D01*
X03153Y01576D02*
Y01585D01*
X03146Y01592D02*
X03153Y01585D01*
X02702Y0169D02*
X02702D01*
X02684Y01694D02*
X02697D01*
X02702Y0169*
X02679D02*
X02684Y01694D01*
X02667Y0169D02*
X02679D01*
X02517Y01787D02*
X02517Y01786D01*
X02415Y01787D02*
X02517D01*
X02103Y01732D02*
X02131D01*
X02103D02*
X0211Y01726D01*
X02131Y01732D02*
X02134Y01735D01*
Y01744D02*
X02134Y01745D01*
X02134Y01735D02*
X02144Y01726D01*
X02134Y01745D02*
X02186D01*
X02134Y01735D02*
Y01744D01*
X02092Y01737D02*
Y0174D01*
X02088Y01744D02*
X02092Y0174D01*
X02085Y01744D02*
X02088D01*
X02085Y01745D02*
X02085Y01744D01*
X02043Y01745D02*
X02085D01*
X02043Y01704D02*
Y01745D01*
X02097Y01732D02*
X02103D01*
X02092Y01737D02*
X02097Y01732D01*
X02397Y01614D02*
X02426Y01585D01*
X02366Y01614D02*
X02368Y01615D01*
X02381D02*
X02383Y01614D01*
X02397*
X02368Y01615D02*
X02381D01*
X02706Y01501D02*
X02708Y015D01*
X02687Y01521D02*
X02706Y01501D01*
X02584Y01516D02*
X02589Y01521D01*
X02584Y01512D02*
Y01516D01*
X02589Y01521D02*
X02687D01*
X03124Y01611D02*
X03143Y01592D01*
X03146*
X03203Y0153D02*
X0322D01*
X03195Y01533D02*
X032D01*
X03203Y0153*
X0296Y01705D02*
X03022D01*
X02074Y01772D02*
X02109D01*
X0211Y01772*
X02074D02*
X02074Y01772D01*
X02066Y01663D02*
Y0168D01*
Y01663D02*
X02088Y01642D01*
X02043Y01704D02*
X02066Y0168D01*
X02171Y01772D02*
Y01778D01*
X0217Y0178D02*
X02171Y01778D01*
X0217Y0178D02*
Y01785D01*
X02169Y01787D02*
X0217Y01785D01*
X02259Y01696D02*
X02268Y01705D01*
X02251Y01688D02*
X02265Y01702D01*
X02088Y01642D02*
X02188D01*
X02144Y01772D02*
X02171D01*
X0211D02*
X02144D01*
X02043Y01745D02*
Y01784D01*
X01775Y01606D02*
X01777D01*
X01792Y01591D02*
X01795D01*
X01777Y01606D02*
X01792Y01591D01*
X02702Y0169D02*
X02725Y01666D01*
X02749Y01747D02*
X0275Y01745D01*
X02725Y01666D02*
X0275D01*
X03235Y0159D02*
X03238Y01593D01*
X02705Y0152D02*
X02706Y01518D01*
Y01501D02*
Y01518D01*
X03238Y01591D02*
Y01593D01*
Y01591D02*
X03245Y01598D01*
X03235Y01545D02*
X03238D01*
X0324Y01547*
X0322Y0153D02*
X03228Y01537D01*
X0324Y01547D02*
Y0155D01*
X03242Y01552D02*
X03245D01*
X0324Y0155D02*
X03242Y01552D01*
X03228Y01537D02*
Y01538D01*
X03235Y01545*
X03242Y0163D02*
X03245Y01627D01*
Y01598D02*
Y01627D01*
X03326Y0154D02*
X0334D01*
X03314Y01552D02*
X03326Y0154D01*
X0328Y01552D02*
X03314D01*
G54D16*
X03054Y01654D02*
X03058D01*
X03046Y01646D02*
X03054Y01654D01*
X03022Y01646D02*
X03046D01*
X02384Y01718D02*
Y0172D01*
X02379Y01769D02*
X02394Y01754D01*
X02384Y0172D02*
X02385Y01722D01*
X02394Y01754D02*
X02396D01*
X02515D02*
Y01755D01*
X02504Y01766D02*
X02515Y01755D01*
X0264Y01736D02*
X02661Y01758D01*
X02588Y0166D02*
X0264Y01712D01*
Y01736*
X02656Y01709D02*
Y01716D01*
Y01709D02*
X02659Y01705D01*
X0265Y01642D02*
X02665D01*
X02657Y01663D02*
X02667Y01673D01*
X02642Y01663D02*
X02657D01*
X02639Y0166D02*
X02642Y01663D01*
X02661Y01653D02*
X02671Y01663D01*
X02646Y01653D02*
X02661D01*
X02665Y01642D02*
X02675Y01653D01*
X02671Y01663D02*
X02696D01*
X02675Y01653D02*
X02688D01*
X02643Y0165D02*
X02646Y01653D01*
X02667Y01673D02*
X02682D01*
X02647Y01639D02*
X0265Y01642D01*
X02616Y01639D02*
X02647D01*
X02369Y01709D02*
X02375D01*
X02384Y01718*
X0238Y01747D02*
X0239Y01737D01*
X02392*
X024Y01727D02*
X02404D01*
X024D02*
Y01729D01*
X02392Y01737D02*
X024Y01729D01*
X02481Y01685D02*
X02496Y0167D01*
X02506*
X03185Y016D02*
X03188Y01598D01*
X02209Y01604D02*
X02336D01*
X02184Y0163D02*
X02209Y01604D01*
X02339Y01602D02*
X02366D01*
X02336Y01604D02*
X02339Y01602D01*
X02127Y01704D02*
X02184D01*
X02127Y01704D02*
X02127Y01704D01*
X02128Y01666D02*
X02148D01*
X03046Y01772D02*
Y01774D01*
X03041Y01778D02*
X03046Y01774D01*
X03041Y01746D02*
X03052D01*
X0304Y01746D02*
X03041Y01746D01*
X03039Y01745D02*
X0304Y01746D01*
X03022Y01745D02*
X03039D01*
X02607Y01602D02*
Y01616D01*
X02595Y0159D02*
X02607Y01602D01*
X02588Y0166D02*
X02588D01*
X02562Y01634D02*
X02588Y0166D01*
X02562Y01634D02*
Y01634D01*
X0247Y01542D02*
X02562Y01634D01*
X02593Y0165D02*
X02602Y0166D01*
X02592Y0165D02*
X02593D01*
X02572Y0163D02*
X02592Y0165D01*
X02572Y01627D02*
Y0163D01*
X02459Y01514D02*
X02572Y01627D01*
X026Y0164D02*
X02609Y0165D01*
X02596Y0164D02*
X026D01*
X02582Y01626D02*
X02596Y0164D01*
X02582Y01622D02*
Y01626D01*
X02581Y01621D02*
X02582Y01622D01*
X02607Y0163D02*
X02616Y01639D01*
X026Y0163D02*
X02607D01*
X02592Y01622D02*
X026Y0163D01*
X02592Y01615D02*
Y01622D01*
X0247Y01494D02*
X02592Y01615D01*
X02608Y0157D02*
X02611D01*
X026Y01578D02*
Y01581D01*
X02595Y01585D02*
X026Y01581D01*
X02611Y0157D02*
X02621Y0156D01*
X026Y01578D02*
X02608Y0157D01*
X02595Y01585D02*
Y0159D01*
X02581Y0162D02*
Y01621D01*
X02074Y01504D02*
X02464D01*
X02581Y0162*
X02609Y0165D02*
X02643D01*
X02078Y01514D02*
X02459D01*
X02602Y0166D02*
X02639D01*
X02338Y01542D02*
X0247D01*
X02666Y01627D02*
X02669Y01624D01*
X02659Y01627D02*
X02666D01*
X02688Y01678D02*
X02691D01*
X02682Y01673D02*
X02688Y01678D01*
X02716Y01624D02*
X02748D01*
X02707Y01633D02*
X02716Y01624D01*
X02707Y01633D02*
Y01633D01*
X02688Y01653D02*
X02707Y01633D01*
X0272Y0164D02*
X02722D01*
X0272Y01639D02*
X0272Y0164D01*
X02748Y01624D02*
X0275Y01627D01*
X02555Y01703D02*
X02557Y01705D01*
Y01706*
X02432Y01742D02*
X02434Y01744D01*
X02425Y01742D02*
X02432D01*
X02423Y0174D02*
X02425Y01742D01*
X02454Y01751D02*
Y01761D01*
Y01751D02*
X02473Y01733D01*
X02448D02*
X02473D01*
X02444Y01729D02*
X02448Y01733D01*
X02444Y01728D02*
Y01729D01*
X02363Y01772D02*
X02365Y01769D01*
X02374Y01754D02*
X0238Y01747D01*
X02365Y01769D02*
X02379D01*
X0238Y01747D02*
Y01747D01*
X02343Y01754D02*
X02374D01*
X01898Y01741D02*
X01899Y01742D01*
X01898Y01716D02*
Y01741D01*
X02373Y01601D02*
X02375Y016D01*
X02366Y01601D02*
X02373D01*
X02366Y01602D02*
X02366Y01601D01*
X02209Y01542D02*
X02213Y01547D01*
X02316*
X02318Y01545D02*
X02335D01*
X02316Y01547D02*
X02318Y01545D01*
X02335D02*
X02338Y01542D01*
X02071Y01507D02*
X02074Y01504D01*
X01953Y01497D02*
X02067D01*
X02475D02*
X02477D01*
X02472Y01494D02*
X02475Y01497D01*
X0207Y01494D02*
X02472D01*
X02022Y01507D02*
X02071D01*
X02073Y01543D02*
X02076Y01546D01*
X02103*
X02067Y01497D02*
X0207Y01494D01*
X02024Y01558D02*
X02038Y01543D01*
X02107Y01542D02*
X02209D01*
X02103Y01546D02*
X02107Y01542D01*
X02038Y01543D02*
X02073D01*
X02067Y01525D02*
X02078Y01514D01*
X01875Y01581D02*
X0188Y01575D01*
X01848Y01634D02*
X01875Y01608D01*
X01888Y01595D02*
Y01609D01*
X01875Y01581D02*
Y01608D01*
X01888Y01595D02*
X01889Y01594D01*
X0182Y01605D02*
X01857D01*
X01858Y01604*
X01888Y01609D02*
X01888Y01609D01*
X01888Y01609D02*
Y01614D01*
X01819Y01606D02*
X0182Y01605D01*
X01846Y01656D02*
X01888Y01614D01*
X01833Y01634D02*
X01848D01*
X01985Y01525D02*
Y01526D01*
X01987Y01529*
Y0153*
X02Y01543*
X02021*
X01992Y01556D02*
Y01564D01*
X02Y01543D02*
Y01547D01*
X01992Y01556D02*
X02Y01547D01*
X02268Y01764D02*
X02309D01*
X02317Y01772*
X02404Y01708D02*
X02404D01*
X02403Y01707D02*
X02404Y01708D01*
X02403Y01706D02*
Y01707D01*
X02396Y01699D02*
X02403Y01706D01*
X02396Y01681D02*
Y01699D01*
X02362Y01702D02*
X02369Y01709D01*
X02024Y01558D02*
Y01571D01*
X02699Y01774D02*
X02711Y01786D01*
X02022Y01577D02*
X02023Y01575D01*
X02683Y01758D02*
X02699Y01774D01*
X02023Y01571D02*
Y01575D01*
Y01571D02*
X02024Y01571D01*
X0204Y01525D02*
X02067D01*
X0191Y01541D02*
Y01704D01*
X01819Y01656D02*
X01846D01*
X01898Y01716D02*
X0191Y01704D01*
Y01541D02*
X01953Y01497D01*
X0183Y01632D02*
X01833Y01634D01*
X01799Y01632D02*
X0183D01*
X01894Y01575D02*
X01895Y01575D01*
X0188Y01575D02*
X01894D01*
X02682Y01594D02*
Y01611D01*
X02674Y01618D02*
Y0162D01*
Y01618D02*
X02682Y01611D01*
X02669Y01624D02*
X0267D01*
X02674Y0162*
X02682Y01594D02*
X02701Y01574D01*
X02171Y01772D02*
X02175Y01768D01*
Y01767D02*
Y01768D01*
Y01767D02*
X02178Y01764D01*
X02186*
X02661Y01758D02*
X02683D01*
X02585Y01786D02*
X02617D01*
X02625Y01779*
X02649*
X02711Y01786D02*
X02777D01*
X02102Y01666D02*
Y0169D01*
X02184Y01704D02*
X02186Y01705D01*
X02442Y01681D02*
X0245Y01689D01*
X02477Y01681D02*
X02481Y01685D01*
X02442Y01681D02*
X02477D01*
X02778Y01772D02*
Y01784D01*
X02777Y01786D02*
X02778Y01784D01*
X03024Y01628D02*
X03034D01*
X02322Y017D02*
X02361Y01739D01*
X02317Y017D02*
X02322D01*
X02311D02*
X02317D01*
X02324Y01741D02*
X0233D01*
X02343Y01754*
X02317Y01734D02*
X02324Y01741D01*
X02309Y01745D02*
X02315Y01739D01*
X02268Y01745D02*
X02309D01*
X02219Y01742D02*
Y01766D01*
Y01742D02*
X02227Y01735D01*
X02186Y01705D02*
Y01725D01*
X02228Y01704D02*
Y01734D01*
X02227Y01735D02*
X02228Y01734D01*
X02499Y01717D02*
Y01763D01*
X0249Y01708D02*
X02499Y01717D01*
X02442Y01708D02*
X0249D01*
X02496Y01766D02*
X02499Y01763D01*
X02442Y01727D02*
X02442D01*
X02444Y01728*
X0245Y01766D02*
X02454Y01761D01*
X02287Y01724D02*
X02311Y017D01*
X02269Y01724D02*
X02287D01*
X02268Y01725D02*
X02269Y01724D01*
X02102Y0169D02*
X02104Y01688D01*
X02074Y01718D02*
X02102Y0169D01*
X02074Y01718D02*
Y01726D01*
X02053Y01641D02*
Y0165D01*
Y01639D02*
Y01641D01*
X02062Y0163D02*
X02184D01*
X02053Y01639D02*
X02062Y0163D01*
X0193Y01699D02*
X01934Y01695D01*
Y0168D02*
Y01695D01*
X01921Y01707D02*
X0193Y01699D01*
X01921Y01707D02*
Y01722D01*
X01919Y01725D02*
X01921Y01722D01*
X01917Y01725D02*
X01919D01*
X01898Y01716D02*
X01898Y01716D01*
X01775Y01656D02*
X01799Y01632D01*
X02021Y01543D02*
X0204Y01525D01*
X02005D02*
X02022Y01507D01*
X02477Y01497D02*
X02556Y01576D01*
X03188Y01598D02*
X0321D01*
X01781Y01525D02*
X01785D01*
X01789Y0152*
X01795*
X01797Y01519*
X02571Y01576D02*
X02592Y01556D01*
Y01555D02*
Y01556D01*
X02556Y01576D02*
X02571D01*
X03209Y0163D02*
X03242D01*
X02696Y01663D02*
X0272Y01639D01*
X0267Y01705D02*
Y01727D01*
X02669Y01728D02*
X0267Y01727D01*
X02659Y01705D02*
X0267D01*
X0275*
X0274Y01568D02*
X0275D01*
X02738Y01548D02*
X0275D01*
X03022Y01627D02*
X03024Y01628D01*
X02737Y0157D02*
Y01571D01*
X02995Y01778D02*
X03041D01*
X02621Y0156D02*
X02726D01*
X02733Y01574D02*
X02737Y01571D01*
X02995Y01772D02*
Y01778D01*
X02701Y01574D02*
X02733D01*
X02726Y0156D02*
X02738Y01548D01*
X02995Y01778D02*
X02995Y01778D01*
X02737Y0157D02*
X0274Y01568D01*
X02555Y01703D02*
X02556Y01701D01*
X0254Y01685D02*
X02556Y01701D01*
X02615Y01585D02*
X02616Y01586D01*
Y01591*
X0263Y01605*
X02657*
X0264Y015D02*
X02662D01*
X0254Y01682D02*
Y01685D01*
Y01728D02*
X02598D01*
X026Y0173*
X02745Y01605D02*
X0275Y0161D01*
X02703Y01605D02*
X02745D01*
X0275Y0161D02*
X0275Y01609D01*
Y01607D02*
Y01609D01*
G54D20*
X02404Y01708D03*
Y01727D03*
X02442D03*
Y01708D03*
G54D21*
X02423Y01717D03*
G54D22*
X0328Y0175D03*
X03326D03*
X02649Y01779D03*
X02695D03*
X02396Y01681D03*
X02442D03*
X02496Y01766D03*
X0245D03*
X02317Y01734D03*
X02363D03*
X03242Y0163D03*
X03288D03*
X02708Y015D03*
X02662D03*
X02703Y01605D03*
X02657D03*
X02102Y01666D03*
X02148D03*
X02362Y01702D03*
X02316D03*
X02317Y01772D03*
X02363D03*
X02053Y01641D03*
X02007D03*
G54D23*
X02567Y01514D03*
G54D24*
X03135Y01561D03*
X031D03*
X03065D03*
X03135Y01506D03*
X031D03*
X03065D03*
G54D25*
X03175Y01776D03*
X032D03*
X03226D03*
X03175Y01723D03*
X032D03*
X03226D03*
G54D26*
X0324Y0175D03*
X03161D03*
G54D27*
X02319Y01669D03*
X02282Y01686D03*
X02169Y01787D03*
X03209Y0163D03*
X02585Y01786D03*
X02667Y0169D03*
X0266Y01735D03*
X02724Y0177D03*
X02721Y01727D03*
X02592Y01555D03*
X01876Y01779D03*
X02563Y01661D03*
X01797Y01519D03*
X01992Y01564D03*
X0232Y01582D03*
X02685Y01635D03*
X01745Y01555D03*
X01934Y0168D03*
X02544Y01763D03*
X03462Y01493D03*
X0344D03*
X03419D03*
X03397Y01579D03*
Y01536D03*
Y01493D03*
X03375Y01579D03*
X03386Y01558D03*
Y01514D03*
X03375Y01493D03*
X03354Y01752D03*
Y01709D03*
Y01666D03*
Y01623D03*
Y01579D03*
Y01493D03*
X03343Y01774D03*
X03332Y01623D03*
X03343Y01601D03*
X03332Y01493D03*
X03321Y01774D03*
Y01601D03*
X0331Y01493D03*
X033Y01774D03*
X03289Y01493D03*
X03278Y01774D03*
X03267Y01493D03*
X03256Y01774D03*
X03246Y01493D03*
X03235Y01687D03*
X03224Y01493D03*
X03202Y01752D03*
X03213Y01687D03*
X03202Y01493D03*
X03181D03*
X03159D03*
X03148Y01774D03*
X03126D03*
X0309Y01609D03*
X03074Y01623D03*
X03054Y01621D03*
X03034Y01627D03*
X03058Y01654D03*
X02385Y01722D03*
X02515Y01754D03*
X02396D03*
X02656Y01716D03*
X02651Y01678D03*
X02339Y01689D03*
X02384Y01688D03*
X02506Y0167D03*
X02519Y01505D03*
X03185Y016D03*
X0233Y0159D03*
X0275Y01763D03*
X02743Y01687D03*
X02127Y01704D03*
X02128Y01666D03*
X03023Y01488D03*
X02977Y01484D03*
X03046Y01772D03*
X03052Y01746D03*
X02956Y01505D03*
X02918Y01488D03*
X02876Y0149D03*
X02799Y01502D03*
X02837Y01491D03*
X02607Y01616D03*
X02659Y01627D03*
X02722Y0164D03*
X02691Y01678D03*
X02557Y01706D03*
X02434Y01744D03*
X02208Y01778D03*
X02111Y01748D03*
X01899Y01742D03*
X02355Y0163D03*
X02082Y01531D03*
X01889Y01594D03*
X01858Y01604D03*
X02101Y01584D03*
X02192Y01561D03*
X02296Y01764D03*
X02098Y01614D03*
X02219Y01531D03*
X02022Y01577D03*
X01881Y01657D03*
X01895Y01575D03*
X0271Y0175D03*
X0281Y01782D03*
X02935Y01502D03*
X03021Y01547D03*
X03035Y01665D03*
X01892Y01787D03*
X01795Y01591D03*
X02043Y01784D03*
X01976Y01777D03*
X02005Y01525D03*
X01985D03*
X025Y01615D03*
X02325Y0156D03*
X01781Y01525D03*
X0274Y01725D03*
X02878Y01782D03*
X02839D03*
X03035Y01725D03*
X02898Y01492D03*
X02819Y01502D03*
X02416Y01754D03*
X02615Y01585D03*
X0263Y01675D03*
X0264Y015D03*
X02375Y016D03*
X03235Y0159D03*
X02705Y0152D03*
G54D28*
X026Y0173D03*
X0197D03*
G54D29*
X02481Y01685D03*
Y01731D03*
X0328Y01552D03*
Y01598D03*
X03245Y01552D03*
Y01598D03*
X0321Y01552D03*
Y01598D03*
X0254Y01687D03*
Y01733D03*
X02144Y01772D03*
Y01726D03*
X0211Y01772D03*
Y01726D03*
X02074Y01772D03*
Y01726D03*
X0332Y01718D03*
Y01672D03*
X0327Y01718D03*
Y01672D03*
X0313Y01718D03*
Y01672D03*
X0308D03*
Y01718D03*
G54D30*
X02886Y01636D03*
G54D31*
X0275Y01528D03*
Y01548D03*
Y01568D03*
Y01587D03*
Y01607D03*
Y01627D03*
Y01646D03*
Y01666D03*
Y01686D03*
Y01705D03*
Y01725D03*
Y01745D03*
X03022D03*
Y01725D03*
Y01705D03*
Y01686D03*
Y01666D03*
Y01646D03*
Y01627D03*
Y01607D03*
Y01587D03*
Y01568D03*
Y01548D03*
Y01528D03*
G54D32*
X02778Y01772D03*
X02798D03*
X02817D03*
X02837D03*
X02857D03*
X02876D03*
X02896D03*
X02916D03*
X02935D03*
X02955D03*
X02975D03*
X02995D03*
Y01501D03*
X02975D03*
X02955D03*
X02935D03*
X02916D03*
X02896D03*
X02876D03*
X02857D03*
X02837D03*
X02817D03*
X02798D03*
X02778D03*
G54D33*
X02186Y01764D03*
Y01745D03*
Y01725D03*
Y01705D03*
X02268D03*
Y01725D03*
Y01745D03*
Y01764D03*
G54D34*
X02227Y01735D03*
G54D35*
X01769Y01706D03*
X01819D03*
X01769Y01656D03*
X01819D03*
X01769Y01606D03*
X01819D03*
G54D36*
X03078Y0175D03*
X03122D03*
G54D37*
X03406Y01775D03*
X03473D03*
G54D38*
X02426Y01585D03*
X02145D03*
G54D61*
X03052Y01595D02*
X0308D01*
X03022Y01587D02*
X03077D01*
X03081Y01584*
X03022Y01568D02*
X03057D01*
X03052Y01532D02*
X0312D01*
X03048Y01528D02*
X03052Y01532D01*
X02997Y01504D02*
X03065D01*
X03084Y01592D02*
X03111D01*
X0308Y01595D02*
X03084Y01592D01*
X03081Y01583D02*
X03086Y01578D01*
X03081Y01583D02*
Y01584D01*
X03111Y01592D02*
X03123Y01579D01*
X0312Y01532D02*
X03127Y01526D01*
X03086Y01578D02*
X03092D01*
X03044Y01604D02*
X03052Y01595D01*
X03025Y01604D02*
X03044D01*
X03022Y01587D02*
X03022Y01587D01*
X03056Y01654D02*
X03058D01*
X02724Y0177D02*
X02743D01*
X0275Y01763*
X02995Y01501D02*
X02997Y01504D01*
X03055Y01654D02*
X03056Y01654D01*
X03022Y01607D02*
X03025Y01604D01*
X03023Y01488D02*
D01*
X02513Y01755D02*
X02515D01*
X02423Y01717D02*
Y0174D01*
X02499Y01766D02*
X02504D01*
X03135Y01564D02*
Y01571D01*
X03127Y01579D02*
X03135Y01571D01*
X03123Y01579D02*
X03127D01*
X031Y01564D02*
Y0157D01*
X03092Y01578D02*
X031Y0157D01*
X03127Y01512D02*
Y01526D01*
X03022Y01528D02*
X03048D01*
X03127Y01512D02*
X03133Y01505D01*
X0303Y0148D02*
X03079D01*
X03023Y01488D02*
X0303Y0148D01*
X03087Y01488D02*
X03092D01*
X031Y01496D02*
Y01506D01*
X03092Y01488D02*
X031Y01496D01*
X03079Y0148D02*
X03087Y01488D01*
X03065Y01559D02*
Y0156D01*
X03057Y01568D02*
X03065Y0156D01*
X01743Y01629D02*
X01769Y01656D01*
X01743Y01557D02*
Y01629D01*
X02737Y01727D02*
X0274Y01725D01*
X02721Y01727D02*
X02737D01*
X02513Y01755D02*
X02521Y01763D01*
X02317Y017D02*
X02318Y017D01*
X02316Y01702D02*
X02317Y017D01*
X02318Y01684D02*
X02319Y01683D01*
X02318Y01684D02*
Y017D01*
X02319Y01669D02*
Y01683D01*
X02521Y01763D02*
X02544D01*
X02496Y01766D02*
X02499D01*
X02265Y01702D02*
X02282Y01686D01*
X02265Y01702D02*
D01*
X01884Y01787D02*
X01892D01*
X01876Y01779D02*
X01884Y01787D01*
X0197Y0173D02*
X02007Y01693D01*
Y0165D02*
Y01693D01*
X02857Y01493D02*
Y01499D01*
X02857Y01499*
Y01501*
X02662Y01735D02*
X02669Y01728D01*
X0266Y01735D02*
X02662D01*
X02565Y01661D02*
X02577Y01649D01*
X02563Y01661D02*
X02565D01*
X01743Y01557D02*
X01744D01*
X01747Y01554*
X01751*
X02685Y01623D02*
Y01635D01*
Y01623D02*
X02703Y01605D01*
G54D62*
X0216Y0157D02*
X02172Y01582D01*
X02146Y01584D02*
X0217D01*
X02101D02*
X02146D01*
X0216Y0157*
X02145Y01585D02*
X02146Y01584D01*
X02145Y01585D02*
Y01597D01*
X02154Y01606*
X0217Y01584D02*
X02172Y01582D01*
X0333Y01742D02*
Y01743D01*
X03324Y01749D02*
X0333Y01743D01*
X03321Y01749D02*
X03324D01*
X02857Y01666D02*
Y01772D01*
Y01666D02*
X02886Y01636D01*
X02761Y01511D02*
Y01528D01*
X03075Y01711D02*
Y01713D01*
X0308Y01718*
X01827Y01704D02*
X01884D01*
X01822D02*
X01827D01*
X01822D02*
X01824Y01706D01*
X01819D02*
X01824D01*
X02778Y01501D02*
Y01511D01*
X02778Y01511D02*
X02778Y01511D01*
X0275Y01528D02*
X02761D01*
Y01511D02*
X02778D01*
X03385Y01732D02*
X03386Y01732D01*
X0327Y01718D02*
X03274Y01722D01*
X03273Y01744D02*
X03277Y01749D01*
X03122Y0175D02*
X03126Y01745D01*
Y01721D02*
X0313Y01718D01*
X0328Y01598D02*
X03285Y01603D01*
X0328Y01598D02*
X03284Y01593D01*
X03285Y01627D02*
X03288Y0163D01*
X03285Y01603D02*
Y01627D01*
X02708Y015D02*
X02778D01*
X02778Y015D02*
Y01501D01*
X02778Y015D02*
X02778Y015D01*
G54D63*
X03273Y0175D02*
X03277D01*
X03385Y01728D02*
X03399D01*
X03331Y01743D02*
X03346Y01728D01*
X03329D02*
X03346D01*
X03321Y0172D02*
X03329Y01728D01*
X03346D02*
X03385D01*
X0305Y01686D02*
X03057Y01693D01*
X03075Y01711*
X03022Y01686D02*
X0305D01*
X0308Y01718D02*
Y01746D01*
X03274Y01722D02*
Y01745D01*
X0324Y0175D02*
X03274D01*
X03122D02*
X03161D01*
X03126Y01721D02*
Y01745D01*
G54D64*
X01789Y01737D02*
X01791Y01739D01*
X01769Y01706D02*
Y01707D01*
X03395Y01732D02*
X03399Y01728D01*
X01825Y01706D02*
X01827Y01704D01*
X01827Y01703*
G54D65*
X03403Y01751D03*
G54D66*
X03397Y01722D03*
G54D67*
X03439Y01626D03*
G54D68*
X03478Y01705D03*
G54D69*
X03399Y01646D03*
G54D70*
X01834Y01756D03*
X01754D03*
X01794Y01556D03*
G54D71*
X0344Y0154D03*
G54D72*
X0334Y0154D03*
G54D73*
X02049Y01583D03*
X02875Y01701D03*
X02047Y01672D03*
X02886Y01643D03*
X01917Y01725D03*
X01884Y01704D03*
X01967Y01587D03*
X02514Y01705D03*
X02955Y01655D03*
X0292Y01605D03*
X02805Y0165D03*
Y01605D03*
X0298Y0172D03*
X0286Y01605D03*
X0296Y01555D03*
X02805D03*
Y01725D03*
G54D74*
X0186Y01564D03*
X01791Y01739D03*
M02*