%FSTAX23Y23*%
%MOIN*%
%SFA1B1*%

%IPPOS*%
%ADD10C,0.010000*%
%ADD16C,0.006000*%
%ADD27C,0.015750*%
%ADD62C,0.012000*%
%ADD72C,0.059060*%
%ADD73C,0.023620*%
%ADD75C,0.040000*%
%ADD76C,0.016000*%
%LNmcu_pcb_v2-1*%
%LPD*%
G36*
X01877Y01795D02*
X0188Y0179D01*
X01879Y01787*
X0188Y01782*
X01883Y01778*
X01887Y01775*
X01892Y01774*
X01896Y01775*
X019Y01778*
X01903Y01782*
X01904Y01787*
X01903Y0179*
X01906Y01795*
X0203*
X02032Y0179*
X02031Y01788*
X0203Y01784*
X02031Y01779*
X02034Y01775*
X02038Y01772*
X02043Y01771*
X02047Y01772*
X02051Y01775*
X02054Y01779*
X02055Y01784*
X02054Y01788*
X02053Y0179*
X02055Y01795*
X02205*
X02205Y0179*
X02204Y01789*
X022Y01787*
X02197Y01783*
X02196Y01778*
X02197Y01773*
X022Y01769*
X02204Y01767*
X02208Y01766*
X02213Y01767*
X02217Y01769*
X02219Y01773*
X0222Y01778*
X02219Y01783*
X02217Y01787*
X02213Y01789*
X02211Y0179*
X02211Y01795*
X02798*
X02799Y01793*
X028Y0179*
X02798Y01786*
X02797Y01782*
X02798Y01777*
X02801Y01773*
X02805Y01771*
X0281Y0177*
X02814Y01771*
X02818Y01773*
X02821Y01777*
X02822Y01782*
X02821Y01786*
X02819Y0179*
X0282Y01793*
X02821Y01795*
X02827*
X02828Y01793*
X02829Y0179*
X02827Y01786*
X02826Y01782*
X02827Y01777*
X0283Y01773*
X02834Y01771*
X02839Y0177*
X02843Y01771*
X02847Y01773*
X0285Y01777*
X02851Y01782*
X0285Y01786*
X02848Y0179*
X02849Y01793*
X0285Y01795*
X02867*
X02868Y01793*
X02869Y0179*
X02867Y01786*
X02866Y01782*
X02867Y01777*
X02869Y01773*
X02873Y01771*
X02878Y0177*
X02883Y01771*
X02886Y01773*
X02889Y01777*
X0289Y01782*
X02889Y01786*
X02887Y0179*
X02888Y01793*
X02889Y01795*
X03085*
Y01745*
X03064*
X03064Y01746*
X03063Y0175*
X0306Y01754*
X03056Y01757*
X03054Y01757*
X03053Y01762*
X03054Y01763*
X03057Y01767*
X03058Y01772*
X03057Y01776*
X03054Y0178*
X0305Y01783*
X03046Y01784*
X03041Y01783*
X03037Y0178*
X03034Y01776*
X03033Y01772*
X03034Y01767*
X03037Y01763*
X03041Y0176*
X03043Y0176*
X03044Y01755*
X03043Y01754*
X0304Y0175*
X03039Y01746*
X03039Y01745*
X02726*
X02722Y0175*
X02721Y01754*
X02718Y01758*
X02714Y01761*
X0271Y01762*
X02705Y01761*
X02701Y01758*
X02698Y01754*
X02697Y0175*
X02693Y01745*
X02529*
X02526Y01749*
X02526Y0175*
X02527Y01754*
X02526Y01758*
X02523Y01762*
X02519Y01765*
X02515Y01766*
X0251Y01765*
X02506Y01762*
X02503Y01758*
X02502Y01754*
X02503Y0175*
X02503Y01749*
X025Y01745*
X02445*
X02445Y01748*
X02442Y01752*
X02438Y01755*
X02434Y01756*
X02429Y01755*
X02427Y01758*
X02427Y01758*
X02424Y01762*
X0242Y01765*
X02416Y01766*
X02411Y01765*
X02409Y01764*
X02404Y01762*
X024Y01765*
X02396Y01766*
X02391Y01765*
X02387Y01762*
X02384Y01758*
X02383Y01754*
X02384Y0175*
X02384Y01749*
X02381Y01745*
X02126*
X02123Y01748*
X02122Y01753*
X0212Y01757*
X02116Y01759*
X02111Y0176*
X02107Y01759*
X02103Y01757*
X021Y01753*
X02099Y01748*
X02096Y01745*
X01926*
X01925Y01745*
X01917Y01747*
X0191Y01745*
X0191Y01746*
X01907Y0175*
X01903Y01753*
X01899Y01754*
X01894Y01753*
X0189Y0175*
X01887Y01746*
X01887Y01745*
X01861*
X01857Y0175*
X01858Y01756*
X01856Y01765*
X01851Y01772*
X01843Y01778*
X01834Y01779*
X01825Y01778*
X01817Y01772*
X01812Y01765*
X0181Y01756*
X01811Y01753*
X01806Y01751*
X01805Y01753*
X01798Y01757*
X01791Y01758*
X01784Y01757*
X01783Y01756*
X01777Y01759*
X01776Y01765*
X01771Y01772*
X01763Y01778*
X01754Y01779*
X01745Y01778*
X01744Y01777*
X0174Y01779*
Y01795*
X01877*
G37*
G36*
X02031Y0167D02*
X02032Y01665D01*
X02035Y0166*
X02036Y01659*
Y01592*
X02034Y01589*
X02028Y01587*
X02027Y01588*
X02022Y01589*
X02017Y01588*
X02013Y01585*
X02011Y01581*
X0201Y01577*
X02011Y01572*
X02013Y01568*
X02017Y01565*
X02022Y01564*
X02027Y01565*
X02031Y01568*
X02032Y0157*
X02035Y01571*
X02037Y01571*
X02038Y01571*
X02042Y01568*
X02049Y01566*
X02055Y01568*
X0206Y01571*
X02063Y01576*
X02065Y01583*
X02063Y01589*
X0206Y01594*
X02055Y01597*
X02054Y01597*
Y01658*
X02058Y0166*
X02061Y01665*
X02062Y0167*
X02112*
X02115Y01666*
X02115Y01666*
X02116Y01661*
X02119Y01657*
X02123Y01654*
X02128Y01653*
X02132Y01654*
X02136Y01657*
X02139Y01661*
X0214Y01666*
X0214Y01666*
X02143Y0167*
X02493*
X02494Y01665*
X02497Y01661*
X02501Y01658*
X02506Y01657*
X0251Y01658*
X02514Y01661*
X02517Y01665*
X02518Y0167*
X02619*
X02621Y01666*
X02625Y01663*
X0263Y01662*
X02634Y01663*
X02638Y01666*
X02638Y01666*
X02638Y01666*
X02645Y01667*
X02646Y01666*
X02651Y01665*
X02655Y01666*
X02659Y01669*
X02659Y0167*
X02682*
X02686Y01667*
X02691Y01666*
X02695Y01667*
X02699Y0167*
X02736*
X02743Y01668*
X02749Y0167*
X02798*
X02799Y01665*
X02798Y01664*
X02793Y01661*
X0279Y01656*
X02788Y0165*
X0279Y01643*
X02793Y01638*
X02798Y01635*
X02805Y01633*
X02811Y01635*
X02816Y01638*
X02819Y01643*
X02821Y0165*
X02819Y01656*
X02816Y01661*
X02811Y01664*
X0281Y01665*
X02811Y0167*
X0294*
X0294Y01669*
X02942Y01665*
X0294Y01661*
X02938Y01655*
X0294Y01648*
X02943Y01643*
X02948Y0164*
X02955Y01638*
X02961Y0164*
X02966Y01643*
X02969Y01648*
X02971Y01655*
X02969Y01661*
X02967Y01665*
X02969Y01669*
X02969Y0167*
X03*
X03017Y01662*
X03018Y01658*
X03022Y01652*
X03028Y01648*
X03035Y01646*
X03041Y01648*
X03042Y01648*
X03048Y01647*
X03049Y01646*
X03053Y01643*
X03058Y01642*
X03059Y01641*
X03061Y01636*
X03059Y01632*
X03054Y01633*
X03049Y01632*
X03044Y01634*
X03043Y01636*
X03039Y01638*
X03034Y01639*
X0303Y01638*
X03026Y01636*
X03023Y01632*
X03022Y01627*
X03023Y01623*
X03026Y01619*
X0303Y01616*
X03034Y01615*
X03039Y01616*
X03044Y01614*
X03046Y01612*
X03049Y0161*
X03054Y01609*
X03059Y0161*
X0306Y01611*
X03061Y0161*
X03067Y01606*
X03074Y01605*
X03078Y01605*
X03078Y01604*
X03081Y016*
X03085Y01597*
X0309Y01596*
Y01485*
X03037*
X03035Y01488*
X03034Y01492*
X03031Y01496*
X03027Y01499*
X03023Y015*
X03018Y01499*
X03014Y01496*
X03011Y01492*
X0301Y01488*
X03008Y01485*
X02989*
X02988Y01488*
X02985Y01492*
X02981Y01495*
X02977Y01496*
X02972Y01495*
X02968Y01492*
X02966Y01488*
X02965Y01485*
X02935*
X02935Y01485*
X02939Y01491*
X02939Y01491*
X02943Y01493*
X02947Y01496*
X02951Y01493*
X02956Y01492*
X0296Y01493*
X02964Y01496*
X02967Y015*
X02968Y01505*
X02967Y01509*
X02964Y01513*
X0296Y01516*
X02956Y01517*
X02951Y01516*
X02947Y01513*
X02943Y0151*
X02939Y01513*
X02935Y01514*
X0293Y01513*
X02926Y0151*
X02923Y01506*
X02922Y01502*
X02918Y015*
X02918Y015*
X02913Y01499*
X02913Y01499*
X02909Y01496*
X02906Y015*
X02902Y01503*
X02898Y01504*
X02893Y01503*
X02889Y015*
X02889Y015*
X02884Y01498*
X0288Y01501*
X02878Y01501*
X02878Y01501*
X02876Y01504*
X02858Y01523*
X02855Y01524*
X02853Y01525*
X02762*
X02759Y01524*
X02756Y01523*
X02731Y01497*
X02707*
X02706Y01502*
X02707Y01502*
X02711Y01503*
X02717Y01507*
X02721Y01513*
X02722Y01515*
X02687*
X02688Y01513*
X02692Y01507*
X02698Y01503*
X02702Y01502*
X02703Y01502*
X02702Y01497*
X02679*
X02652Y01524*
X02649Y01526*
X02647Y01527*
X02512*
X0251Y01526*
X02508Y01525*
X02251*
X02241Y01536*
X02238Y01537*
X02236Y01538*
X02228*
X02227Y01539*
X02223Y01542*
X02219Y01543*
X02214Y01542*
X0221Y01539*
X02207Y01535*
X02206Y01531*
X02207Y01526*
X0221Y01522*
X02214Y01519*
X02219Y01518*
X02223Y01519*
X02227Y01522*
X02228Y01523*
X02233Y01523*
X02243Y01512*
X02246Y01511*
X02249Y0151*
X02503*
X02507Y01505*
X02506Y01505*
X02507Y015*
X0251Y01496*
X02514Y01493*
X02519Y01492*
X02523Y01493*
X02527Y01496*
X0253Y015*
X02531Y01505*
X0253Y01507*
X02533Y01512*
X02628*
X02629Y0151*
X0263Y01507*
X02628Y01504*
X02627Y015*
X02628Y01495*
X02631Y01491*
X02633Y0149*
X02632Y01485*
X0174*
Y0167*
X02031*
G37*
G36*
X02964Y0172D02*
X02963Y0172D01*
X02965Y01713*
X02965Y01713*
X02968Y01708*
X02973Y01705*
X0298Y01703*
X02986Y01705*
X02991Y01708*
X02994Y01713*
X03034*
X03035Y01712*
X03035Y01713*
X03067*
X03174Y01605*
X03174Y01605*
X03173Y016*
X03174Y01595*
X03176Y01591*
X0318Y01589*
X03185Y01588*
X0319Y01589*
X03194Y01591*
X03196Y01595*
X03197Y016*
X03197Y01601*
X032Y01605*
X03227*
X03228Y01604*
X03236Y01599*
X03242Y01598*
X03245Y01595*
Y01575*
X0317*
X03065Y0168*
X02876*
X02875Y01685*
X02881Y01686*
X02886Y01689*
X02889Y01694*
X02891Y01701*
X0289Y01702*
X02889Y01707*
X02889Y01708*
X02886Y01712*
X02881Y01715*
X02875Y01717*
X02868Y01715*
X02863Y01712*
X0286Y01707*
X02859Y01702*
X02858Y01701*
X0286Y01694*
X02863Y01689*
X02868Y01686*
X02874Y01685*
X02873Y0168*
X02758*
X02754Y01685*
X02755Y01687*
X02754Y01691*
X02751Y01695*
X02751Y01695*
X02747Y01698*
X02743Y01699*
X02738Y01698*
X02734Y01695*
X02734Y01695*
X02731Y01691*
X0273Y01687*
X02731Y01685*
X02727Y0168*
X02702*
X02702Y01683*
X02699Y01687*
X02695Y01689*
X02691Y0169*
X02686Y01689*
X02682Y01687*
X02679Y01683*
X02679Y0168*
X02662*
X02662Y01682*
X02659Y01686*
X02655Y01689*
X02651Y0169*
X02646Y01689*
X02642Y01686*
X02642Y01686*
X02638Y01683*
X02634Y01686*
X0263Y01687*
X02625Y01686*
X02621Y01683*
X02619Y0168*
X02512*
X0251Y01681*
X02506Y01682*
X02501Y01681*
X02499Y0168*
X02398*
X02396Y01685*
X02396Y01688*
X02395Y01693*
X02393Y01697*
X02389Y01699*
X02384Y017*
X0238Y01699*
X02376Y01697*
X02373Y01693*
X02372Y01688*
X02373Y01685*
X0237Y0168*
X02353*
X0235Y01683*
X0235Y01685*
X02351Y01689*
X0235Y01693*
X02347Y01697*
X02343Y017*
X02339Y01701*
X02334Y017*
X0233Y01697*
X02327Y01693*
X02326Y01689*
X02327Y01685*
X02327Y01683*
X02324Y0168*
X0174*
Y01713*
X01906*
X0191Y0171*
X01917Y01708*
X01923Y0171*
X01927Y01713*
X02112*
X02115Y01709*
X02115Y01708*
X02114Y01704*
X02115Y01699*
X02118Y01695*
X02122Y01692*
X02127Y01691*
X02131Y01692*
X02135Y01695*
X02138Y01699*
X02139Y01704*
X02138Y01708*
X02138Y01709*
X02141Y01713*
X02379*
X02381Y01711*
X02385Y0171*
X0239Y01711*
X02392Y01713*
X02541*
X02545Y01708*
X02544Y01706*
X02545Y01701*
X02548Y01697*
X02552Y01694*
X02557Y01693*
X02561Y01694*
X02565Y01697*
X02568Y01701*
X02569Y01706*
X02568Y01708*
X02572Y01713*
X02623*
X02625Y01715*
X02644*
X02644Y01711*
X02647Y01707*
X02651Y01704*
X02656Y01703*
X0266Y01704*
X02664Y01707*
X02667Y01711*
X02667Y01713*
X02667Y01715*
X02733*
X02735Y01713*
X02739Y01713*
X0274Y01712*
X02744Y01713*
X02746Y01715*
X0276*
X02762Y01713*
X02794*
X02798Y0171*
X02805Y01708*
X02811Y0171*
X02815Y01713*
X02819*
X02845Y01739*
X02946*
X02964Y0172*
G37*
%LNmcu_pcb_v2-2*%
%LPC*%
G36*
X01976Y01789D02*
X01971Y01788D01*
X01967Y01785*
X01964Y01781*
X01963Y01777*
X01964Y01772*
X01967Y01768*
X01971Y01765*
X01976Y01764*
X0198Y01765*
X01984Y01768*
X01987Y01772*
X01988Y01777*
X01987Y01781*
X01984Y01785*
X0198Y01788*
X01976Y01789*
G37*
G36*
X02296Y01776D02*
X02291Y01775D01*
X02287Y01772*
X02284Y01768*
X02283Y01764*
X02284Y01759*
X02287Y01755*
X02291Y01752*
X02296Y01751*
X023Y01752*
X02304Y01755*
X02307Y01759*
X02308Y01764*
X02307Y01768*
X02304Y01772*
X023Y01775*
X02296Y01776*
G37*
G36*
X0275Y01775D02*
X02745Y01774D01*
X02741Y01772*
X02738Y01768*
X02737Y01763*
X02738Y01758*
X02741Y01754*
X02745Y01752*
X0275Y01751*
X02754Y01752*
X02758Y01754*
X02761Y01758*
X02762Y01763*
X02761Y01768*
X02758Y01772*
X02754Y01774*
X0275Y01775*
G37*
G36*
X02722Y01652D02*
X02717Y01651D01*
X02713Y01648*
X0271Y01644*
X02709Y0164*
X0271Y01635*
X02713Y01631*
X02717Y01628*
X02722Y01627*
X02726Y01628*
X0273Y01631*
X02733Y01635*
X02734Y0164*
X02733Y01644*
X0273Y01648*
X02726Y01651*
X02722Y01652*
G37*
G36*
X02886Y01659D02*
X02879Y01657D01*
X02874Y01654*
X02871Y01649*
X02869Y01643*
X02871Y01636*
X02874Y01631*
X02879Y01628*
X02886Y01626*
X02892Y01628*
X02897Y01631*
X029Y01636*
X02902Y01643*
X029Y01649*
X02897Y01654*
X02892Y01657*
X02886Y01659*
G37*
G36*
X02355Y01642D02*
X0235Y01641D01*
X02346Y01638*
X02343Y01634*
X02342Y0163*
X02343Y01625*
X02346Y01621*
X0235Y01618*
X02355Y01617*
X02359Y01618*
X02363Y01621*
X02366Y01625*
X02367Y0163*
X02366Y01634*
X02363Y01638*
X02359Y01641*
X02355Y01642*
G37*
G36*
X02659Y01639D02*
X02655Y01638D01*
X02651Y01636*
X02648Y01632*
X02647Y01627*
X02648Y01623*
X02651Y01619*
X02655Y01616*
X02659Y01615*
X02664Y01616*
X02668Y01619*
X02671Y01623*
X02671Y01627*
X02671Y01632*
X02668Y01636*
X02664Y01638*
X02659Y01639*
G37*
G36*
X02607Y01628D02*
X02602Y01627D01*
X02598Y01624*
X02595Y0162*
X02594Y01616*
X02595Y01611*
X02598Y01607*
X02602Y01604*
X02607Y01603*
X02611Y01604*
X02615Y01607*
X02618Y01611*
X02619Y01616*
X02618Y0162*
X02615Y01624*
X02611Y01627*
X02607Y01628*
G37*
G36*
X025Y01627D02*
X02495Y01626D01*
X02491Y01623*
X02488Y01619*
X02487Y01615*
X02488Y0161*
X02491Y01606*
X02495Y01603*
X025Y01602*
X02504Y01603*
X02508Y01606*
X02511Y0161*
X02512Y01615*
X02511Y01619*
X02508Y01623*
X02504Y01626*
X025Y01627*
G37*
G36*
X02098Y01626D02*
X02093Y01625D01*
X02089Y01622*
X02086Y01618*
X02085Y01614*
X02086Y01609*
X02089Y01605*
X02093Y01602*
X02098Y01601*
X02102Y01602*
X02106Y01605*
X02109Y01609*
X0211Y01614*
X02109Y01618*
X02106Y01622*
X02102Y01625*
X02098Y01626*
G37*
G36*
X018Y01608D02*
Y01596D01*
X01812*
X01811Y01598*
X01807Y01604*
X01801Y01608*
X018Y01608*
G37*
G36*
X0179D02*
X01788Y01608D01*
X01782Y01604*
X01778Y01598*
X01777Y01596*
X0179*
Y01608*
G37*
G36*
X01972Y01608D02*
Y01592D01*
X01988*
X01987Y01595*
X01982Y01602*
X01975Y01607*
X01972Y01608*
G37*
G36*
X01962D02*
X01958Y01607D01*
X01951Y01602*
X01946Y01595*
X01945Y01592*
X01962*
Y01608*
G37*
G36*
X01858Y01616D02*
X01853Y01615D01*
X01849Y01612*
X01846Y01608*
X01846Y01604*
X01846Y01599*
X01849Y01595*
X01853Y01592*
X01858Y01591*
X01862Y01592*
X01866Y01595*
X01869Y01599*
X0187Y01604*
X01869Y01608*
X01866Y01612*
X01862Y01615*
X01858Y01616*
G37*
G36*
X0292Y01621D02*
X02913Y01619D01*
X02908Y01616*
X02905Y01611*
X02903Y01605*
X02905Y01598*
X02908Y01593*
X02913Y0159*
X0292Y01588*
X02926Y0159*
X02931Y01593*
X02934Y01598*
X02936Y01605*
X02934Y01611*
X02931Y01616*
X02926Y01619*
X0292Y01621*
G37*
G36*
X0286D02*
X02853Y01619D01*
X02848Y01616*
X02845Y01611*
X02843Y01605*
X02845Y01598*
X02848Y01593*
X02853Y0159*
X0286Y01588*
X02866Y0159*
X02871Y01593*
X02874Y01598*
X02876Y01605*
X02874Y01611*
X02871Y01616*
X02866Y01619*
X0286Y01621*
G37*
G36*
X02805D02*
X02798Y01619D01*
X02793Y01616*
X0279Y01611*
X02788Y01605*
X0279Y01598*
X02793Y01593*
X02798Y0159*
X02805Y01588*
X02811Y0159*
X02816Y01593*
X02819Y01598*
X02821Y01605*
X02819Y01611*
X02816Y01616*
X02811Y01619*
X02805Y01621*
G37*
G36*
X02375Y01612D02*
X0237Y01611D01*
X02366Y01608*
X02363Y01604*
X02362Y016*
X02363Y01595*
X02366Y01591*
X0237Y01588*
X02375Y01587*
X02379Y01588*
X02383Y01591*
X02386Y01595*
X02387Y016*
X02386Y01604*
X02383Y01608*
X02379Y01611*
X02375Y01612*
G37*
G36*
X0233Y01602D02*
X02325Y01601D01*
X02321Y01598*
X02318Y01594*
X02317Y0159*
X02318Y01585*
X02321Y01581*
X02325Y01578*
X0233Y01577*
X02334Y01578*
X02338Y01581*
X02341Y01585*
X02342Y0159*
X02341Y01594*
X02338Y01598*
X02334Y01601*
X0233Y01602*
G37*
G36*
X02615Y01597D02*
X0261Y01596D01*
X02606Y01593*
X02603Y01589*
X02602Y01585*
X02603Y0158*
X02606Y01576*
X0261Y01573*
X02615Y01572*
X02619Y01573*
X02623Y01576*
X02626Y0158*
X02627Y01585*
X02626Y01589*
X02623Y01593*
X02619Y01596*
X02615Y01597*
G37*
G36*
X01889Y01606D02*
X01885Y01605D01*
X01881Y01602*
X01878Y01598*
X01877Y01594*
X01878Y01589*
X01881Y01585*
X01881Y01585*
X01883Y01579*
X01882Y01575*
X01883Y01573*
X01878Y01572*
X01877Y01573*
X01874Y01578*
X01868Y01582*
X0186Y01584*
X01853Y01582*
X01847Y01578*
X01842Y01572*
X01841Y01564*
X01842Y01557*
X01847Y01551*
X01853Y01546*
X0186Y01545*
X01868Y01546*
X01874Y01551*
X01878Y01557*
X0188Y01564*
X01879Y01567*
X01879Y01568*
X01883Y0157*
X01884Y01569*
X01886Y01566*
X0189Y01563*
X01895Y01562*
X01899Y01563*
X01903Y01566*
X01906Y0157*
X01907Y01575*
X01906Y01579*
X01903Y01583*
X01902Y01583*
X01901Y01589*
X01901Y01594*
X01901Y01598*
X01898Y01602*
X01894Y01605*
X01889Y01606*
G37*
G36*
X02101Y01596D02*
X02096Y01595D01*
X02092Y01592*
X02089Y01588*
X02088Y01584*
X02089Y01579*
X02092Y01575*
X02096Y01572*
X02101Y01571*
X02105Y01572*
X02109Y01575*
X02112Y01579*
X02113Y01584*
X02112Y01588*
X02109Y01592*
X02105Y01595*
X02101Y01596*
G37*
G36*
X02197Y01578D02*
Y01566D01*
X02209*
X02208Y01567*
X02204Y01573*
X02198Y01577*
X02197Y01578*
G37*
G36*
X02187D02*
X02185Y01577D01*
X02179Y01573*
X02175Y01567*
X02174Y01566*
X02187*
Y01578*
G37*
G36*
X01988Y01582D02*
X01972D01*
Y01565*
X01975Y01566*
X01982Y01571*
X01987Y01578*
X01988Y01582*
G37*
G36*
X01962D02*
X01945D01*
X01946Y01578*
X01951Y01571*
X01958Y01566*
X01962Y01565*
Y01582*
G37*
G36*
X02325Y01572D02*
X0232Y01571D01*
X02316Y01568*
X02313Y01564*
X02312Y0156*
X02313Y01555*
X02316Y01551*
X0232Y01548*
X02325Y01547*
X02329Y01548*
X02333Y01551*
X02336Y01555*
X02337Y0156*
X02336Y01564*
X02333Y01568*
X02329Y01571*
X02325Y01572*
G37*
G36*
X02209Y01556D02*
X02197D01*
Y01543*
X02198Y01544*
X02204Y01548*
X02208Y01554*
X02209Y01556*
G37*
G36*
X02187D02*
X02174D01*
X02175Y01554*
X02179Y01548*
X02185Y01544*
X02187Y01543*
Y01556*
G37*
G36*
X0296Y01571D02*
X02953Y01569D01*
X02948Y01566*
X02945Y01561*
X02943Y01555*
X02945Y01548*
X02948Y01543*
X02953Y0154*
X0296Y01538*
X02966Y0154*
X02971Y01543*
X02974Y01548*
X02976Y01555*
X02974Y01561*
X02971Y01566*
X02966Y01569*
X0296Y01571*
G37*
G36*
X02805D02*
X02798Y01569D01*
X02793Y01566*
X0279Y01561*
X02788Y01555*
X0279Y01548*
X02793Y01543*
X02798Y0154*
X02805Y01538*
X02811Y0154*
X02816Y01543*
X02819Y01548*
X02821Y01555*
X02819Y01561*
X02816Y01566*
X02811Y01569*
X02805Y01571*
G37*
G36*
X03021Y01559D02*
X03016Y01558D01*
X03012Y01555*
X03009Y01551*
X03008Y01547*
X03009Y01542*
X03012Y01538*
X03016Y01535*
X03021Y01534*
X03025Y01535*
X03029Y01538*
X03032Y01542*
X03033Y01547*
X03032Y01551*
X03029Y01555*
X03025Y01558*
X03021Y01559*
G37*
G36*
X02005Y01537D02*
X02Y01536D01*
X01998Y01535*
X01995Y01533*
X01991Y01535*
X01989Y01536*
X01985Y01537*
X0198Y01536*
X01976Y01533*
X01973Y01529*
X01972Y01525*
X01973Y0152*
X01976Y01516*
X0198Y01513*
X01985Y01512*
X01989Y01513*
X01991Y01514*
X01995Y01516*
X01998Y01514*
X02Y01513*
X02005Y01512*
X02009Y01513*
X02013Y01516*
X02016Y0152*
X02017Y01525*
X02016Y01529*
X02013Y01533*
X02009Y01536*
X02005Y01537*
G37*
G36*
X0271Y01537D02*
Y01525D01*
X02722*
X02721Y01526*
X02717Y01532*
X02711Y01536*
X0271Y01537*
G37*
G36*
X027D02*
X02698Y01536D01*
X02692Y01532*
X02688Y01526*
X02687Y01525*
X027*
Y01537*
G37*
G36*
X02082Y01543D02*
X02077Y01542D01*
X02073Y01539*
X02071Y01536*
X0207Y01531*
X02071Y01526*
X02073Y01522*
X02077Y0152*
X02082Y01519*
X02087Y0152*
X0209Y01522*
X02093Y01526*
X02094Y01531*
X02093Y01536*
X0209Y01539*
X02087Y01542*
X02082Y01543*
G37*
G36*
X01812Y01586D02*
X01777D01*
X01778Y01584*
X01782Y01578*
Y01575*
X01777Y01572*
X01772Y01565*
X0177Y01556*
X01772Y01546*
X01776Y01541*
X01776Y0154*
X01775Y01535*
X01774Y01535*
X01772Y01533*
X01769Y01529*
X01768Y01525*
X01769Y0152*
X01772Y01516*
X01776Y01513*
X01781Y01512*
X01785Y01513*
X01789Y01516*
X01792Y0152*
X01793Y01525*
X01792Y01527*
X01793Y01528*
X01795Y01531*
X01796Y01532*
X01803Y01533*
X01811Y01539*
X01816Y01546*
X01818Y01556*
X01816Y01565*
X01811Y01572*
X01807Y01575*
Y01578*
X01811Y01584*
X01812Y01586*
G37*
%LNmcu_pcb_v2-3*%
%LPD*%
G54D10*
X02339Y01664D02*
Y01689D01*
Y01664D02*
X02342Y01661D01*
X03073Y01612D02*
Y01615D01*
X03067Y01606D02*
X03073Y01612D01*
X03073Y01622D02*
X03074Y01623D01*
X03073Y01616D02*
Y01622D01*
X03073Y01615D02*
X03073Y01616D01*
X03198Y0159D02*
X03235D01*
X03165Y01605D02*
X03168Y01601D01*
Y01593D02*
Y01601D01*
X03192Y01583D02*
X03198Y0159D01*
X03178Y01583D02*
X03192D01*
X03168Y01593D02*
X03178Y01583D01*
X0273Y0166D02*
X02743Y01673D01*
Y01687*
X0209Y0175D02*
X02098Y01758D01*
X0209Y0175D02*
Y0175D01*
X02098Y01758D02*
Y01759D01*
X02045Y01578D02*
X02049Y01581D01*
Y01583*
X02045Y0167D02*
X02047Y01672D01*
X03023Y01653D02*
X03035Y01665D01*
X02045Y01578D02*
Y0167D01*
X01883Y01645D02*
X01885D01*
G54D16*
X02647Y01519D02*
X02677Y0149D01*
X02512Y01519D02*
X02647D01*
X0251Y01518D02*
X02512Y01519D01*
X02249Y01518D02*
X0251D01*
X02876Y01487D02*
X02876Y01486D01*
X02876Y01487D02*
Y0149D01*
X02871Y01491D02*
X02876Y01486D01*
X02677Y0149D02*
X02734D01*
X02762Y01518D02*
X02853D01*
X02734Y0149D02*
X02762Y01518D01*
X02219Y01531D02*
X02236D01*
X02249Y01518*
X02871Y01491D02*
Y01499D01*
X02853Y01518D02*
X02871Y01499D01*
G54D27*
X03074Y01623D03*
X02339Y01689D03*
X02743Y01687D03*
X02876Y0149D03*
X02192Y01561D03*
X02219Y01531D03*
X01881Y01657D03*
X03035Y01665D03*
X01795Y01591D03*
X03235Y0159D03*
X02705Y0152D03*
G54D62*
X01917Y01753D02*
X0192Y01756D01*
X01918Y01758D02*
X0192Y01756D01*
G54D72*
X0334Y0154D03*
G54D73*
X02049Y01583D03*
X02047Y01672D03*
X01917Y01725D03*
X01884Y01704D03*
X01967Y01587D03*
X02514Y01705D03*
G54D75*
X03245Y01621D02*
X03252D01*
X03229Y01637D02*
X03245Y01621D01*
X03252D02*
X03334Y0154D01*
X03198Y01637D02*
X03229D01*
X03161Y01675D02*
X03198Y01637D01*
X03078Y01767D02*
X03088Y01757D01*
Y01753D02*
Y01757D01*
X03078Y01767D02*
Y0177D01*
X03117Y01725D02*
X03161Y01681D01*
Y01675D02*
Y01681D01*
X03088Y01753D02*
X03117Y01725D01*
X03334Y0154D02*
X0334D01*
G54D76*
X01918Y01726D02*
Y0175D01*
X01917Y01725D02*
X01918Y01726D01*
X01917Y01752D02*
Y01753D01*
Y01752D02*
X01918Y0175D01*
M02*