%FSTAX23Y23*%
%MOIN*%
%SFA1B1*%

%IPPOS*%
%ADD10C,0.010000*%
%ADD11C,0.009840*%
%ADD12C,0.005120*%
%ADD13C,0.003940*%
%ADD14C,0.007870*%
%ADD15C,0.008000*%
%ADD16C,0.006000*%
%ADD17C,0.005000*%
%ADD18C,0.005910*%
%ADD19C,0.005910*%
%LNmcu_pcb_v2-1*%
%LPD*%
G54D10*
X02461Y01693D02*
D01*
X02461Y01693*
X02461Y01693*
X02461Y01693*
X02461Y01693*
X02461Y01694*
X02461Y01694*
X02461Y01694*
X02461Y01694*
X02461Y01694*
X0246Y01695*
X0246Y01695*
X0246Y01695*
X0246Y01695*
X0246Y01695*
X0246Y01695*
X02459Y01695*
X02459Y01695*
X02459Y01696*
X02459Y01696*
X02459Y01696*
X02458Y01696*
X02458Y01696*
X02458*
X02458Y01696*
X02458Y01696*
X02457Y01696*
X02457Y01696*
X02457Y01695*
X02457Y01695*
X02457Y01695*
X02456Y01695*
X02456Y01695*
X02456Y01695*
X02456Y01695*
X02456Y01695*
X02456Y01694*
X02455Y01694*
X02455Y01694*
X02455Y01694*
X02455Y01694*
X02455Y01693*
X02455Y01693*
X02455Y01693*
X02455Y01693*
X02455Y01693*
X02455Y01692*
X02455Y01692*
X02455Y01692*
X02455Y01692*
X02455Y01692*
X02455Y01691*
X02455Y01691*
X02455Y01691*
X02456Y01691*
X02456Y01691*
X02456Y01691*
X02456Y0169*
X02456Y0169*
X02456Y0169*
X02457Y0169*
X02457Y0169*
X02457Y0169*
X02457Y0169*
X02457Y0169*
X02458Y0169*
X02458Y0169*
X02458Y0169*
X02458*
X02458Y0169*
X02459Y0169*
X02459Y0169*
X02459Y0169*
X02459Y0169*
X02459Y0169*
X0246Y0169*
X0246Y0169*
X0246Y0169*
X0246Y0169*
X0246Y01691*
X0246Y01691*
X02461Y01691*
X02461Y01691*
X02461Y01691*
X02461Y01691*
X02461Y01692*
X02461Y01692*
X02461Y01692*
X02461Y01692*
X02461Y01692*
X02461Y01693*
X03045Y01496D02*
D01*
X03044Y01496*
X03044Y01496*
X03044Y01496*
X03044Y01496*
X03044Y01496*
X03044Y01496*
X03044Y01496*
X03044Y01496*
X03044Y01496*
X03044Y01496*
X03044Y01496*
X03044Y01497*
X03044Y01497*
X03044Y01497*
X03044Y01497*
X03044Y01497*
X03044Y01497*
X03044Y01497*
X03043Y01497*
X03043Y01497*
X03043Y01497*
X03043Y01497*
X03043*
X03043Y01497*
X03043Y01497*
X03043Y01497*
X03043Y01497*
X03043Y01497*
X03042Y01497*
X03042Y01497*
X03042Y01497*
X03042Y01497*
X03042Y01497*
X03042Y01496*
X03042Y01496*
X03042Y01496*
X03042Y01496*
X03042Y01496*
X03042Y01496*
X03042Y01496*
X03042Y01496*
X03042Y01496*
X03042Y01496*
X03042Y01496*
X03042Y01496*
X03042Y01495*
X03042Y01495*
X03042Y01495*
X03042Y01495*
X03042Y01495*
X03042Y01495*
X03042Y01495*
X03042Y01495*
X03042Y01495*
X03042Y01495*
X03042Y01495*
X03042Y01494*
X03042Y01494*
X03042Y01494*
X03042Y01494*
X03042Y01494*
X03043Y01494*
X03043Y01494*
X03043Y01494*
X03043Y01494*
X03043Y01494*
X03043Y01494*
X03043*
X03043Y01494*
X03043Y01494*
X03043Y01494*
X03044Y01494*
X03044Y01494*
X03044Y01494*
X03044Y01494*
X03044Y01494*
X03044Y01494*
X03044Y01494*
X03044Y01495*
X03044Y01495*
X03044Y01495*
X03044Y01495*
X03044Y01495*
X03044Y01495*
X03044Y01495*
X03044Y01495*
X03044Y01495*
X03044Y01495*
X03044Y01495*
X03045Y01496*
X03303Y0174D02*
Y0176D01*
X02418Y01671D02*
Y01691D01*
X02437Y01789D02*
X02508D01*
X02437Y01742D02*
X02508D01*
X03319Y01484D02*
Y01512D01*
X03447Y01493D02*
X03475D01*
X03305Y01498D02*
X03333D01*
X0327Y01574D02*
X0329D01*
X03264Y0162D02*
Y0164D01*
X03233Y01539D02*
Y0161D01*
X03186Y01539D02*
Y0161D01*
X02685Y0149D02*
Y0151D01*
X0268Y01595D02*
Y01615D01*
X02339Y01762D02*
Y01782D01*
X021Y01749D02*
X0212D01*
X02064D02*
X02084D01*
X0331Y01694D02*
X0333D01*
X0326D02*
X0328D01*
X0312D02*
X0314D01*
X0307Y01695D02*
X0309D01*
G54D11*
X03154Y01786D02*
D01*
X03154Y01786*
X03154Y01787*
X03154Y01787*
X03154Y01787*
X03154Y01788*
X03153Y01788*
X03153Y01788*
X03153Y01789*
X03153Y01789*
X03153Y01789*
X03152Y01789*
X03152Y0179*
X03152Y0179*
X03152Y0179*
X03151Y0179*
X03151Y0179*
X03151Y0179*
X0315Y01791*
X0315Y01791*
X0315Y01791*
X03149Y01791*
X03149Y01791*
X03149*
X03148Y01791*
X03148Y01791*
X03148Y01791*
X03147Y01791*
X03147Y0179*
X03147Y0179*
X03146Y0179*
X03146Y0179*
X03146Y0179*
X03146Y0179*
X03145Y01789*
X03145Y01789*
X03145Y01789*
X03145Y01789*
X03145Y01788*
X03144Y01788*
X03144Y01788*
X03144Y01787*
X03144Y01787*
X03144Y01787*
X03144Y01786*
X03144Y01786*
X03144Y01786*
X03144Y01785*
X03144Y01785*
X03144Y01785*
X03144Y01784*
X03144Y01784*
X03145Y01784*
X03145Y01783*
X03145Y01783*
X03145Y01783*
X03145Y01783*
X03146Y01782*
X03146Y01782*
X03146Y01782*
X03146Y01782*
X03147Y01781*
X03147Y01781*
X03147Y01781*
X03148Y01781*
X03148Y01781*
X03148Y01781*
X03149Y01781*
X03149*
X03149Y01781*
X0315Y01781*
X0315Y01781*
X0315Y01781*
X03151Y01781*
X03151Y01781*
X03151Y01782*
X03152Y01782*
X03152Y01782*
X03152Y01782*
X03152Y01783*
X03153Y01783*
X03153Y01783*
X03153Y01783*
X03153Y01784*
X03153Y01784*
X03154Y01784*
X03154Y01785*
X03154Y01785*
X03154Y01785*
X03154Y01786*
X03154Y01786*
X02753Y01484D02*
D01*
X02753Y01484*
X02753Y01485*
X02753Y01485*
X02753Y01485*
X02753Y01486*
X02753Y01486*
X02753Y01486*
X02753Y01486*
X02752Y01487*
X02752Y01487*
X02752Y01487*
X02752Y01488*
X02751Y01488*
X02751Y01488*
X02751Y01488*
X02751Y01488*
X0275Y01488*
X0275Y01489*
X0275Y01489*
X02749Y01489*
X02749Y01489*
X02749Y01489*
X02748*
X02748Y01489*
X02748Y01489*
X02747Y01489*
X02747Y01489*
X02747Y01488*
X02746Y01488*
X02746Y01488*
X02746Y01488*
X02745Y01488*
X02745Y01488*
X02745Y01487*
X02745Y01487*
X02744Y01487*
X02744Y01486*
X02744Y01486*
X02744Y01486*
X02744Y01486*
X02744Y01485*
X02744Y01485*
X02744Y01485*
X02744Y01484*
X02744Y01484*
X02744Y01484*
X02744Y01483*
X02744Y01483*
X02744Y01482*
X02744Y01482*
X02744Y01482*
X02744Y01482*
X02744Y01481*
X02744Y01481*
X02745Y01481*
X02745Y0148*
X02745Y0148*
X02745Y0148*
X02746Y0148*
X02746Y0148*
X02746Y01479*
X02747Y01479*
X02747Y01479*
X02747Y01479*
X02748Y01479*
X02748Y01479*
X02748Y01479*
X02749*
X02749Y01479*
X02749Y01479*
X0275Y01479*
X0275Y01479*
X0275Y01479*
X02751Y01479*
X02751Y0148*
X02751Y0148*
X02751Y0148*
X02752Y0148*
X02752Y0148*
X02752Y01481*
X02752Y01481*
X02753Y01481*
X02753Y01482*
X02753Y01482*
X02753Y01482*
X02753Y01482*
X02753Y01483*
X02753Y01483*
X02753Y01484*
X02753Y01484*
X02199Y01785D02*
D01*
X02199Y01785*
X02199Y01785*
X02199Y01786*
X02199Y01786*
X02199Y01786*
X02199Y01787*
X02199Y01787*
X02199Y01787*
X02198Y01787*
X02198Y01788*
X02198Y01788*
X02198Y01788*
X02198Y01788*
X02197Y01789*
X02197Y01789*
X02197Y01789*
X02196Y01789*
X02196Y01789*
X02196Y01789*
X02195Y01789*
X02195Y01789*
X02195Y01789*
X02194*
X02194Y01789*
X02194Y01789*
X02193Y01789*
X02193Y01789*
X02193Y01789*
X02192Y01789*
X02192Y01789*
X02192Y01789*
X02191Y01788*
X02191Y01788*
X02191Y01788*
X02191Y01788*
X02191Y01787*
X0219Y01787*
X0219Y01787*
X0219Y01787*
X0219Y01786*
X0219Y01786*
X0219Y01786*
X0219Y01785*
X0219Y01785*
X0219Y01785*
X0219Y01784*
X0219Y01784*
X0219Y01783*
X0219Y01783*
X0219Y01783*
X0219Y01782*
X0219Y01782*
X0219Y01782*
X02191Y01782*
X02191Y01781*
X02191Y01781*
X02191Y01781*
X02191Y01781*
X02192Y0178*
X02192Y0178*
X02192Y0178*
X02193Y0178*
X02193Y0178*
X02193Y0178*
X02194Y0178*
X02194Y0178*
X02194Y0178*
X02195*
X02195Y0178*
X02195Y0178*
X02196Y0178*
X02196Y0178*
X02196Y0178*
X02197Y0178*
X02197Y0178*
X02197Y0178*
X02198Y01781*
X02198Y01781*
X02198Y01781*
X02198Y01781*
X02198Y01782*
X02199Y01782*
X02199Y01782*
X02199Y01782*
X02199Y01783*
X02199Y01783*
X02199Y01783*
X02199Y01784*
X02199Y01784*
X02199Y01785*
G54D12*
X0233Y01669D02*
D01*
X0233Y01669*
X0233Y0167*
X0233Y01671*
X0233Y01672*
X0233Y01673*
X02329Y01673*
X02329Y01674*
X02329Y01675*
X02328Y01675*
X02328Y01676*
X02327Y01677*
X02326Y01677*
X02326Y01678*
X02325Y01678*
X02324Y01679*
X02324Y01679*
X02323Y01679*
X02322Y0168*
X02321Y0168*
X02321Y0168*
X0232Y0168*
X02319Y0168*
X02318*
X02317Y0168*
X02316Y0168*
X02316Y0168*
X02315Y0168*
X02314Y01679*
X02313Y01679*
X02313Y01679*
X02312Y01678*
X02311Y01678*
X02311Y01677*
X0231Y01677*
X02309Y01676*
X02309Y01675*
X02308Y01675*
X02308Y01674*
X02308Y01673*
X02307Y01673*
X02307Y01672*
X02307Y01671*
X02307Y0167*
X02307Y01669*
X02307Y01669*
X02307Y01668*
X02307Y01667*
X02307Y01666*
X02307Y01665*
X02307Y01664*
X02308Y01664*
X02308Y01663*
X02308Y01662*
X02309Y01662*
X02309Y01661*
X0231Y0166*
X02311Y0166*
X02311Y01659*
X02312Y01659*
X02313Y01658*
X02313Y01658*
X02314Y01658*
X02315Y01657*
X02316Y01657*
X02316Y01657*
X02317Y01657*
X02318Y01657*
X02319*
X0232Y01657*
X02321Y01657*
X02321Y01657*
X02322Y01657*
X02323Y01658*
X02324Y01658*
X02324Y01658*
X02325Y01659*
X02326Y01659*
X02326Y0166*
X02327Y0166*
X02328Y01661*
X02328Y01662*
X02329Y01662*
X02329Y01663*
X02329Y01664*
X0233Y01664*
X0233Y01665*
X0233Y01666*
X0233Y01667*
X0233Y01668*
X0233Y01669*
X02293Y01686D02*
D01*
X02293Y01686*
X02293Y01687*
X02293Y01688*
X02293Y01689*
X02293Y0169*
X02292Y0169*
X02292Y01691*
X02292Y01692*
X02291Y01692*
X02291Y01693*
X0229Y01694*
X02289Y01694*
X02289Y01695*
X02288Y01695*
X02287Y01696*
X02287Y01696*
X02286Y01696*
X02285Y01697*
X02284Y01697*
X02284Y01697*
X02283Y01697*
X02282Y01697*
X02281*
X0228Y01697*
X02279Y01697*
X02279Y01697*
X02278Y01697*
X02277Y01696*
X02276Y01696*
X02276Y01696*
X02275Y01695*
X02274Y01695*
X02274Y01694*
X02273Y01694*
X02272Y01693*
X02272Y01692*
X02271Y01692*
X02271Y01691*
X02271Y0169*
X0227Y0169*
X0227Y01689*
X0227Y01688*
X0227Y01687*
X0227Y01686*
X0227Y01686*
X0227Y01685*
X0227Y01684*
X0227Y01683*
X0227Y01682*
X0227Y01681*
X02271Y01681*
X02271Y0168*
X02271Y01679*
X02272Y01679*
X02272Y01678*
X02273Y01677*
X02274Y01677*
X02274Y01676*
X02275Y01676*
X02276Y01675*
X02276Y01675*
X02277Y01675*
X02278Y01674*
X02279Y01674*
X02279Y01674*
X0228Y01674*
X02281Y01674*
X02282*
X02283Y01674*
X02284Y01674*
X02284Y01674*
X02285Y01674*
X02286Y01675*
X02287Y01675*
X02287Y01675*
X02288Y01676*
X02289Y01676*
X02289Y01677*
X0229Y01677*
X02291Y01678*
X02291Y01679*
X02292Y01679*
X02292Y0168*
X02292Y01681*
X02293Y01681*
X02293Y01682*
X02293Y01683*
X02293Y01684*
X02293Y01685*
X02293Y01686*
X0218Y01787D02*
D01*
X0218Y01787*
X0218Y01788*
X0218Y01789*
X0218Y0179*
X0218Y01791*
X02179Y01791*
X02179Y01792*
X02179Y01793*
X02178Y01793*
X02178Y01794*
X02177Y01795*
X02176Y01795*
X02176Y01796*
X02175Y01796*
X02174Y01797*
X02174Y01797*
X02173Y01797*
X02172Y01798*
X02171Y01798*
X02171Y01798*
X0217Y01798*
X02169Y01798*
X02168*
X02167Y01798*
X02166Y01798*
X02166Y01798*
X02165Y01798*
X02164Y01797*
X02163Y01797*
X02163Y01797*
X02162Y01796*
X02161Y01796*
X02161Y01795*
X0216Y01795*
X02159Y01794*
X02159Y01793*
X02158Y01793*
X02158Y01792*
X02158Y01791*
X02157Y01791*
X02157Y0179*
X02157Y01789*
X02157Y01788*
X02157Y01787*
X02157Y01787*
X02157Y01786*
X02157Y01785*
X02157Y01784*
X02157Y01783*
X02157Y01782*
X02158Y01782*
X02158Y01781*
X02158Y0178*
X02159Y0178*
X02159Y01779*
X0216Y01778*
X02161Y01778*
X02161Y01777*
X02162Y01777*
X02163Y01776*
X02163Y01776*
X02164Y01776*
X02165Y01775*
X02166Y01775*
X02166Y01775*
X02167Y01775*
X02168Y01775*
X02169*
X0217Y01775*
X02171Y01775*
X02171Y01775*
X02172Y01775*
X02173Y01776*
X02174Y01776*
X02174Y01776*
X02175Y01777*
X02176Y01777*
X02176Y01778*
X02177Y01778*
X02178Y01779*
X02178Y0178*
X02179Y0178*
X02179Y01781*
X02179Y01782*
X0218Y01782*
X0218Y01783*
X0218Y01784*
X0218Y01785*
X0218Y01786*
X0218Y01787*
X0322Y0163D02*
D01*
X0322Y0163*
X0322Y01631*
X0322Y01632*
X0322Y01633*
X0322Y01634*
X03219Y01634*
X03219Y01635*
X03219Y01636*
X03218Y01636*
X03218Y01637*
X03217Y01638*
X03216Y01638*
X03216Y01639*
X03215Y01639*
X03214Y0164*
X03214Y0164*
X03213Y0164*
X03212Y01641*
X03211Y01641*
X03211Y01641*
X0321Y01641*
X03209Y01641*
X03208*
X03207Y01641*
X03206Y01641*
X03206Y01641*
X03205Y01641*
X03204Y0164*
X03203Y0164*
X03203Y0164*
X03202Y01639*
X03201Y01639*
X03201Y01638*
X032Y01638*
X03199Y01637*
X03199Y01636*
X03198Y01636*
X03198Y01635*
X03198Y01634*
X03197Y01634*
X03197Y01633*
X03197Y01632*
X03197Y01631*
X03197Y0163*
X03197Y0163*
X03197Y01629*
X03197Y01628*
X03197Y01627*
X03197Y01626*
X03197Y01625*
X03198Y01625*
X03198Y01624*
X03198Y01623*
X03199Y01623*
X03199Y01622*
X032Y01621*
X03201Y01621*
X03201Y0162*
X03202Y0162*
X03203Y01619*
X03203Y01619*
X03204Y01619*
X03205Y01618*
X03206Y01618*
X03206Y01618*
X03207Y01618*
X03208Y01618*
X03209*
X0321Y01618*
X03211Y01618*
X03211Y01618*
X03212Y01618*
X03213Y01619*
X03214Y01619*
X03214Y01619*
X03215Y0162*
X03216Y0162*
X03216Y01621*
X03217Y01621*
X03218Y01622*
X03218Y01623*
X03219Y01623*
X03219Y01624*
X03219Y01625*
X0322Y01625*
X0322Y01626*
X0322Y01627*
X0322Y01628*
X0322Y01629*
X0322Y0163*
X02596Y01786D02*
D01*
X02596Y01787*
X02596Y01788*
X02596Y01789*
X02596Y0179*
X02596Y0179*
X02595Y01791*
X02595Y01792*
X02595Y01793*
X02594Y01793*
X02594Y01794*
X02593Y01795*
X02592Y01795*
X02592Y01796*
X02591Y01796*
X0259Y01797*
X0259Y01797*
X02589Y01797*
X02588Y01798*
X02587Y01798*
X02587Y01798*
X02586Y01798*
X02585Y01798*
X02584*
X02583Y01798*
X02583Y01798*
X02582Y01798*
X02581Y01798*
X0258Y01797*
X02579Y01797*
X02579Y01797*
X02578Y01796*
X02577Y01796*
X02577Y01795*
X02576Y01795*
X02576Y01794*
X02575Y01793*
X02575Y01793*
X02574Y01792*
X02574Y01791*
X02573Y0179*
X02573Y0179*
X02573Y01789*
X02573Y01788*
X02573Y01787*
X02573Y01786*
X02573Y01786*
X02573Y01785*
X02573Y01784*
X02573Y01783*
X02573Y01782*
X02574Y01782*
X02574Y01781*
X02575Y0178*
X02575Y01779*
X02576Y01779*
X02576Y01778*
X02577Y01778*
X02577Y01777*
X02578Y01777*
X02579Y01776*
X02579Y01776*
X0258Y01775*
X02581Y01775*
X02582Y01775*
X02583Y01775*
X02583Y01775*
X02584Y01775*
X02585*
X02586Y01775*
X02587Y01775*
X02587Y01775*
X02588Y01775*
X02589Y01775*
X0259Y01776*
X0259Y01776*
X02591Y01777*
X02592Y01777*
X02592Y01778*
X02593Y01778*
X02594Y01779*
X02594Y01779*
X02595Y0178*
X02595Y01781*
X02595Y01782*
X02596Y01782*
X02596Y01783*
X02596Y01784*
X02596Y01785*
X02596Y01786*
X02596Y01786*
X02678Y0169D02*
D01*
X02678Y0169*
X02678Y01691*
X02678Y01692*
X02678Y01693*
X02678Y01694*
X02677Y01694*
X02677Y01695*
X02677Y01696*
X02676Y01697*
X02676Y01697*
X02675Y01698*
X02674Y01698*
X02674Y01699*
X02673Y01699*
X02672Y017*
X02672Y017*
X02671Y01701*
X0267Y01701*
X02669Y01701*
X02669Y01701*
X02668Y01701*
X02667Y01701*
X02666*
X02665Y01701*
X02664Y01701*
X02664Y01701*
X02663Y01701*
X02662Y01701*
X02661Y017*
X02661Y017*
X0266Y01699*
X02659Y01699*
X02659Y01698*
X02658Y01698*
X02657Y01697*
X02657Y01697*
X02656Y01696*
X02656Y01695*
X02656Y01694*
X02655Y01694*
X02655Y01693*
X02655Y01692*
X02655Y01691*
X02655Y0169*
X02655Y0169*
X02655Y01689*
X02655Y01688*
X02655Y01687*
X02655Y01686*
X02655Y01686*
X02656Y01685*
X02656Y01684*
X02656Y01683*
X02657Y01683*
X02657Y01682*
X02658Y01681*
X02659Y01681*
X02659Y0168*
X0266Y0168*
X02661Y01679*
X02661Y01679*
X02662Y01679*
X02663Y01678*
X02664Y01678*
X02664Y01678*
X02665Y01678*
X02666Y01678*
X02667*
X02668Y01678*
X02669Y01678*
X02669Y01678*
X0267Y01678*
X02671Y01679*
X02672Y01679*
X02672Y01679*
X02673Y0168*
X02674Y0168*
X02674Y01681*
X02675Y01681*
X02676Y01682*
X02676Y01683*
X02677Y01683*
X02677Y01684*
X02677Y01685*
X02678Y01686*
X02678Y01686*
X02678Y01687*
X02678Y01688*
X02678Y01689*
X02678Y0169*
X02671Y01735D02*
D01*
X02671Y01735*
X02671Y01736*
X02671Y01737*
X02671Y01738*
X02671Y01739*
X0267Y01739*
X0267Y0174*
X0267Y01741*
X02669Y01741*
X02669Y01742*
X02668Y01743*
X02667Y01743*
X02667Y01744*
X02666Y01744*
X02665Y01745*
X02665Y01745*
X02664Y01745*
X02663Y01746*
X02662Y01746*
X02662Y01746*
X02661Y01746*
X0266Y01746*
X02659*
X02658Y01746*
X02657Y01746*
X02657Y01746*
X02656Y01746*
X02655Y01745*
X02654Y01745*
X02654Y01745*
X02653Y01744*
X02652Y01744*
X02652Y01743*
X02651Y01743*
X0265Y01742*
X0265Y01741*
X02649Y01741*
X02649Y0174*
X02649Y01739*
X02648Y01739*
X02648Y01738*
X02648Y01737*
X02648Y01736*
X02648Y01735*
X02648Y01735*
X02648Y01734*
X02648Y01733*
X02648Y01732*
X02648Y01731*
X02648Y0173*
X02649Y0173*
X02649Y01729*
X02649Y01728*
X0265Y01728*
X0265Y01727*
X02651Y01726*
X02652Y01726*
X02652Y01725*
X02653Y01725*
X02654Y01724*
X02654Y01724*
X02655Y01724*
X02656Y01723*
X02657Y01723*
X02657Y01723*
X02658Y01723*
X02659Y01723*
X0266*
X02661Y01723*
X02662Y01723*
X02662Y01723*
X02663Y01723*
X02664Y01724*
X02665Y01724*
X02665Y01724*
X02666Y01725*
X02667Y01725*
X02667Y01726*
X02668Y01726*
X02669Y01727*
X02669Y01728*
X0267Y01728*
X0267Y01729*
X0267Y0173*
X02671Y0173*
X02671Y01731*
X02671Y01732*
X02671Y01733*
X02671Y01734*
X02671Y01735*
X02735Y0177D02*
D01*
X02735Y0177*
X02735Y01771*
X02735Y01772*
X02735Y01773*
X02735Y01774*
X02734Y01774*
X02734Y01775*
X02734Y01776*
X02733Y01776*
X02733Y01777*
X02732Y01778*
X02731Y01778*
X02731Y01779*
X0273Y01779*
X02729Y0178*
X02729Y0178*
X02728Y0178*
X02727Y01781*
X02726Y01781*
X02726Y01781*
X02725Y01781*
X02724Y01781*
X02723*
X02722Y01781*
X02721Y01781*
X02721Y01781*
X0272Y01781*
X02719Y0178*
X02718Y0178*
X02718Y0178*
X02717Y01779*
X02716Y01779*
X02716Y01778*
X02715Y01778*
X02714Y01777*
X02714Y01776*
X02713Y01776*
X02713Y01775*
X02713Y01774*
X02712Y01774*
X02712Y01773*
X02712Y01772*
X02712Y01771*
X02712Y0177*
X02712Y0177*
X02712Y01769*
X02712Y01768*
X02712Y01767*
X02712Y01766*
X02712Y01765*
X02713Y01765*
X02713Y01764*
X02713Y01763*
X02714Y01763*
X02714Y01762*
X02715Y01761*
X02716Y01761*
X02716Y0176*
X02717Y0176*
X02718Y01759*
X02718Y01759*
X02719Y01759*
X0272Y01758*
X02721Y01758*
X02721Y01758*
X02722Y01758*
X02723Y01758*
X02724*
X02725Y01758*
X02726Y01758*
X02726Y01758*
X02727Y01758*
X02728Y01759*
X02729Y01759*
X02729Y01759*
X0273Y0176*
X02731Y0176*
X02731Y01761*
X02732Y01761*
X02733Y01762*
X02733Y01763*
X02734Y01763*
X02734Y01764*
X02734Y01765*
X02735Y01765*
X02735Y01766*
X02735Y01767*
X02735Y01768*
X02735Y01769*
X02735Y0177*
X02733Y01727D02*
D01*
X02733Y01728*
X02733Y01729*
X02733Y0173*
X02733Y01731*
X02732Y01731*
X02732Y01732*
X02732Y01733*
X02731Y01734*
X02731Y01734*
X0273Y01735*
X0273Y01735*
X02729Y01736*
X02729Y01737*
X02728Y01737*
X02727Y01737*
X02726Y01738*
X02726Y01738*
X02725Y01738*
X02724Y01739*
X02723Y01739*
X02722Y01739*
X02722Y01739*
X02721*
X0272Y01739*
X02719Y01739*
X02718Y01739*
X02718Y01738*
X02717Y01738*
X02716Y01738*
X02715Y01737*
X02715Y01737*
X02714Y01737*
X02713Y01736*
X02713Y01735*
X02712Y01735*
X02712Y01734*
X02711Y01734*
X02711Y01733*
X0271Y01732*
X0271Y01731*
X0271Y01731*
X0271Y0173*
X0271Y01729*
X02709Y01728*
X02709Y01727*
X02709Y01726*
X0271Y01726*
X0271Y01725*
X0271Y01724*
X0271Y01723*
X0271Y01722*
X02711Y01722*
X02711Y01721*
X02712Y0172*
X02712Y0172*
X02713Y01719*
X02713Y01718*
X02714Y01718*
X02715Y01717*
X02715Y01717*
X02716Y01717*
X02717Y01716*
X02718Y01716*
X02718Y01716*
X02719Y01716*
X0272Y01716*
X02721Y01715*
X02722*
X02722Y01716*
X02723Y01716*
X02724Y01716*
X02725Y01716*
X02726Y01716*
X02726Y01717*
X02727Y01717*
X02728Y01717*
X02729Y01718*
X02729Y01718*
X0273Y01719*
X0273Y0172*
X02731Y0172*
X02731Y01721*
X02732Y01722*
X02732Y01722*
X02732Y01723*
X02733Y01724*
X02733Y01725*
X02733Y01726*
X02733Y01726*
X02733Y01727*
X02603Y01555D02*
D01*
X02603Y01555*
X02603Y01556*
X02603Y01557*
X02603Y01558*
X02603Y01559*
X02602Y01559*
X02602Y0156*
X02602Y01561*
X02601Y01561*
X02601Y01562*
X026Y01563*
X02599Y01563*
X02599Y01564*
X02598Y01564*
X02597Y01565*
X02597Y01565*
X02596Y01565*
X02595Y01566*
X02594Y01566*
X02594Y01566*
X02593Y01566*
X02592Y01566*
X02591*
X0259Y01566*
X02589Y01566*
X02589Y01566*
X02588Y01566*
X02587Y01565*
X02586Y01565*
X02586Y01565*
X02585Y01564*
X02584Y01564*
X02584Y01563*
X02583Y01563*
X02582Y01562*
X02582Y01561*
X02581Y01561*
X02581Y0156*
X02581Y01559*
X0258Y01559*
X0258Y01558*
X0258Y01557*
X0258Y01556*
X0258Y01555*
X0258Y01555*
X0258Y01554*
X0258Y01553*
X0258Y01552*
X0258Y01551*
X0258Y0155*
X02581Y0155*
X02581Y01549*
X02581Y01548*
X02582Y01548*
X02582Y01547*
X02583Y01546*
X02584Y01546*
X02584Y01545*
X02585Y01545*
X02586Y01544*
X02586Y01544*
X02587Y01544*
X02588Y01543*
X02589Y01543*
X02589Y01543*
X0259Y01543*
X02591Y01543*
X02592*
X02593Y01543*
X02594Y01543*
X02594Y01543*
X02595Y01543*
X02596Y01544*
X02597Y01544*
X02597Y01544*
X02598Y01545*
X02599Y01545*
X02599Y01546*
X026Y01546*
X02601Y01547*
X02601Y01548*
X02602Y01548*
X02602Y01549*
X02602Y0155*
X02603Y0155*
X02603Y01551*
X02603Y01552*
X02603Y01553*
X02603Y01554*
X02603Y01555*
X01887Y01779D02*
D01*
X01887Y01779*
X01887Y0178*
X01887Y01781*
X01887Y01782*
X01887Y01783*
X01886Y01783*
X01886Y01784*
X01886Y01785*
X01885Y01785*
X01885Y01786*
X01884Y01787*
X01883Y01787*
X01883Y01788*
X01882Y01788*
X01881Y01789*
X01881Y01789*
X0188Y01789*
X01879Y0179*
X01878Y0179*
X01878Y0179*
X01877Y0179*
X01876Y0179*
X01875*
X01874Y0179*
X01873Y0179*
X01873Y0179*
X01872Y0179*
X01871Y01789*
X0187Y01789*
X0187Y01789*
X01869Y01788*
X01868Y01788*
X01868Y01787*
X01867Y01787*
X01866Y01786*
X01866Y01785*
X01865Y01785*
X01865Y01784*
X01865Y01783*
X01864Y01783*
X01864Y01782*
X01864Y01781*
X01864Y0178*
X01864Y01779*
X01864Y01779*
X01864Y01778*
X01864Y01777*
X01864Y01776*
X01864Y01775*
X01864Y01774*
X01865Y01774*
X01865Y01773*
X01865Y01772*
X01866Y01772*
X01866Y01771*
X01867Y0177*
X01868Y0177*
X01868Y01769*
X01869Y01769*
X0187Y01768*
X0187Y01768*
X01871Y01768*
X01872Y01767*
X01873Y01767*
X01873Y01767*
X01874Y01767*
X01875Y01767*
X01876*
X01877Y01767*
X01878Y01767*
X01878Y01767*
X01879Y01767*
X0188Y01768*
X01881Y01768*
X01881Y01768*
X01882Y01769*
X01883Y01769*
X01883Y0177*
X01884Y0177*
X01885Y01771*
X01885Y01772*
X01886Y01772*
X01886Y01773*
X01886Y01774*
X01887Y01774*
X01887Y01775*
X01887Y01776*
X01887Y01777*
X01887Y01778*
X01887Y01779*
X02574Y01661D02*
D01*
X02574Y01661*
X02574Y01662*
X02574Y01663*
X02574Y01664*
X02574Y01665*
X02573Y01665*
X02573Y01666*
X02573Y01667*
X02572Y01667*
X02572Y01668*
X02571Y01669*
X0257Y01669*
X0257Y0167*
X02569Y0167*
X02568Y01671*
X02568Y01671*
X02567Y01671*
X02566Y01672*
X02565Y01672*
X02565Y01672*
X02564Y01672*
X02563Y01672*
X02562*
X02561Y01672*
X0256Y01672*
X0256Y01672*
X02559Y01672*
X02558Y01671*
X02557Y01671*
X02557Y01671*
X02556Y0167*
X02555Y0167*
X02555Y01669*
X02554Y01669*
X02553Y01668*
X02553Y01667*
X02552Y01667*
X02552Y01666*
X02552Y01665*
X02551Y01665*
X02551Y01664*
X02551Y01663*
X02551Y01662*
X02551Y01661*
X02551Y01661*
X02551Y0166*
X02551Y01659*
X02551Y01658*
X02551Y01657*
X02551Y01656*
X02552Y01656*
X02552Y01655*
X02552Y01654*
X02553Y01654*
X02553Y01653*
X02554Y01652*
X02555Y01652*
X02555Y01651*
X02556Y01651*
X02557Y0165*
X02557Y0165*
X02558Y0165*
X02559Y01649*
X0256Y01649*
X0256Y01649*
X02561Y01649*
X02562Y01649*
X02563*
X02564Y01649*
X02565Y01649*
X02565Y01649*
X02566Y01649*
X02567Y0165*
X02568Y0165*
X02568Y0165*
X02569Y01651*
X0257Y01651*
X0257Y01652*
X02571Y01652*
X02572Y01653*
X02572Y01654*
X02573Y01654*
X02573Y01655*
X02573Y01656*
X02574Y01656*
X02574Y01657*
X02574Y01658*
X02574Y01659*
X02574Y0166*
X02574Y01661*
X01808Y01519D02*
D01*
X01808Y01519*
X01808Y0152*
X01808Y01521*
X01808Y01522*
X01808Y01523*
X01807Y01523*
X01807Y01524*
X01807Y01525*
X01806Y01525*
X01806Y01526*
X01805Y01527*
X01804Y01527*
X01804Y01528*
X01803Y01528*
X01802Y01529*
X01802Y01529*
X01801Y01529*
X018Y0153*
X01799Y0153*
X01799Y0153*
X01798Y0153*
X01797Y0153*
X01796*
X01795Y0153*
X01794Y0153*
X01794Y0153*
X01793Y0153*
X01792Y01529*
X01791Y01529*
X01791Y01529*
X0179Y01528*
X01789Y01528*
X01789Y01527*
X01788Y01527*
X01787Y01526*
X01787Y01525*
X01786Y01525*
X01786Y01524*
X01786Y01523*
X01785Y01523*
X01785Y01522*
X01785Y01521*
X01785Y0152*
X01785Y01519*
X01785Y01519*
X01785Y01518*
X01785Y01517*
X01785Y01516*
X01785Y01515*
X01785Y01514*
X01786Y01514*
X01786Y01513*
X01786Y01512*
X01787Y01512*
X01787Y01511*
X01788Y0151*
X01789Y0151*
X01789Y01509*
X0179Y01509*
X01791Y01508*
X01791Y01508*
X01792Y01508*
X01793Y01507*
X01794Y01507*
X01794Y01507*
X01795Y01507*
X01796Y01507*
X01797*
X01798Y01507*
X01799Y01507*
X01799Y01507*
X018Y01507*
X01801Y01508*
X01802Y01508*
X01802Y01508*
X01803Y01509*
X01804Y01509*
X01804Y0151*
X01805Y0151*
X01806Y01511*
X01806Y01512*
X01807Y01512*
X01807Y01513*
X01807Y01514*
X01808Y01514*
X01808Y01515*
X01808Y01516*
X01808Y01517*
X01808Y01518*
X01808Y01519*
X02003Y01564D02*
D01*
X02003Y01564*
X02003Y01565*
X02003Y01566*
X02003Y01567*
X02003Y01568*
X02002Y01568*
X02002Y01569*
X02002Y0157*
X02001Y0157*
X02001Y01571*
X02Y01572*
X01999Y01572*
X01999Y01573*
X01998Y01573*
X01997Y01574*
X01997Y01574*
X01996Y01574*
X01995Y01575*
X01994Y01575*
X01994Y01575*
X01993Y01575*
X01992Y01575*
X01991*
X0199Y01575*
X01989Y01575*
X01989Y01575*
X01988Y01575*
X01987Y01574*
X01986Y01574*
X01986Y01574*
X01985Y01573*
X01984Y01573*
X01984Y01572*
X01983Y01572*
X01982Y01571*
X01982Y0157*
X01981Y0157*
X01981Y01569*
X01981Y01568*
X0198Y01568*
X0198Y01567*
X0198Y01566*
X0198Y01565*
X0198Y01564*
X0198Y01564*
X0198Y01563*
X0198Y01562*
X0198Y01561*
X0198Y0156*
X0198Y01559*
X01981Y01559*
X01981Y01558*
X01981Y01557*
X01982Y01557*
X01982Y01556*
X01983Y01555*
X01984Y01555*
X01984Y01554*
X01985Y01554*
X01986Y01553*
X01986Y01553*
X01987Y01553*
X01988Y01552*
X01989Y01552*
X01989Y01552*
X0199Y01552*
X01991Y01552*
X01992*
X01993Y01552*
X01994Y01552*
X01994Y01552*
X01995Y01552*
X01996Y01553*
X01997Y01553*
X01997Y01553*
X01998Y01554*
X01999Y01554*
X01999Y01555*
X02Y01555*
X02001Y01556*
X02001Y01557*
X02002Y01557*
X02002Y01558*
X02002Y01559*
X02003Y01559*
X02003Y0156*
X02003Y01561*
X02003Y01562*
X02003Y01563*
X02003Y01564*
X02331Y01582D02*
D01*
X02331Y01582*
X02331Y01583*
X02331Y01584*
X02331Y01585*
X02331Y01586*
X0233Y01586*
X0233Y01587*
X0233Y01588*
X02329Y01588*
X02329Y01589*
X02328Y0159*
X02327Y0159*
X02327Y01591*
X02326Y01591*
X02325Y01592*
X02325Y01592*
X02324Y01592*
X02323Y01593*
X02322Y01593*
X02322Y01593*
X02321Y01593*
X0232Y01593*
X02319*
X02318Y01593*
X02317Y01593*
X02317Y01593*
X02316Y01593*
X02315Y01592*
X02314Y01592*
X02314Y01592*
X02313Y01591*
X02312Y01591*
X02312Y0159*
X02311Y0159*
X0231Y01589*
X0231Y01588*
X02309Y01588*
X02309Y01587*
X02309Y01586*
X02308Y01586*
X02308Y01585*
X02308Y01584*
X02308Y01583*
X02308Y01582*
X02308Y01582*
X02308Y01581*
X02308Y0158*
X02308Y01579*
X02308Y01578*
X02308Y01577*
X02309Y01577*
X02309Y01576*
X02309Y01575*
X0231Y01575*
X0231Y01574*
X02311Y01573*
X02312Y01573*
X02312Y01572*
X02313Y01572*
X02314Y01571*
X02314Y01571*
X02315Y01571*
X02316Y0157*
X02317Y0157*
X02317Y0157*
X02318Y0157*
X02319Y0157*
X0232*
X02321Y0157*
X02322Y0157*
X02322Y0157*
X02323Y0157*
X02324Y01571*
X02325Y01571*
X02325Y01571*
X02326Y01572*
X02327Y01572*
X02327Y01573*
X02328Y01573*
X02329Y01574*
X02329Y01575*
X0233Y01575*
X0233Y01576*
X0233Y01577*
X02331Y01577*
X02331Y01578*
X02331Y01579*
X02331Y0158*
X02331Y01581*
X02331Y01582*
X02696Y01635D02*
D01*
X02696Y01635*
X02696Y01636*
X02696Y01637*
X02696Y01638*
X02696Y01639*
X02695Y01639*
X02695Y0164*
X02695Y01641*
X02694Y01641*
X02694Y01642*
X02693Y01643*
X02692Y01643*
X02692Y01644*
X02691Y01644*
X0269Y01645*
X0269Y01645*
X02689Y01645*
X02688Y01646*
X02687Y01646*
X02687Y01646*
X02686Y01646*
X02685Y01646*
X02684*
X02683Y01646*
X02682Y01646*
X02682Y01646*
X02681Y01646*
X0268Y01645*
X02679Y01645*
X02679Y01645*
X02678Y01644*
X02677Y01644*
X02677Y01643*
X02676Y01643*
X02675Y01642*
X02675Y01641*
X02674Y01641*
X02674Y0164*
X02674Y01639*
X02673Y01639*
X02673Y01638*
X02673Y01637*
X02673Y01636*
X02673Y01635*
X02673Y01635*
X02673Y01634*
X02673Y01633*
X02673Y01632*
X02673Y01631*
X02673Y0163*
X02674Y0163*
X02674Y01629*
X02674Y01628*
X02675Y01628*
X02675Y01627*
X02676Y01626*
X02677Y01626*
X02677Y01625*
X02678Y01625*
X02679Y01624*
X02679Y01624*
X0268Y01624*
X02681Y01623*
X02682Y01623*
X02682Y01623*
X02683Y01623*
X02684Y01623*
X02685*
X02686Y01623*
X02687Y01623*
X02687Y01623*
X02688Y01623*
X02689Y01624*
X0269Y01624*
X0269Y01624*
X02691Y01625*
X02692Y01625*
X02692Y01626*
X02693Y01626*
X02694Y01627*
X02694Y01628*
X02695Y01628*
X02695Y01629*
X02695Y0163*
X02696Y0163*
X02696Y01631*
X02696Y01632*
X02696Y01633*
X02696Y01634*
X02696Y01635*
X01757Y01555D02*
D01*
X01757Y01556*
X01757Y01557*
X01757Y01558*
X01757Y01559*
X01757Y01559*
X01756Y0156*
X01756Y01561*
X01755Y01562*
X01755Y01562*
X01754Y01563*
X01754Y01564*
X01753Y01564*
X01753Y01565*
X01752Y01565*
X01751Y01566*
X01751Y01566*
X0175Y01566*
X01749Y01567*
X01748Y01567*
X01747Y01567*
X01747Y01567*
X01746Y01567*
X01745*
X01744Y01567*
X01743Y01567*
X01743Y01567*
X01742Y01567*
X01741Y01566*
X0174Y01566*
X0174Y01566*
X01739Y01565*
X01738Y01565*
X01738Y01564*
X01737Y01564*
X01736Y01563*
X01736Y01562*
X01735Y01562*
X01735Y01561*
X01735Y0156*
X01734Y01559*
X01734Y01559*
X01734Y01558*
X01734Y01557*
X01734Y01556*
X01734Y01555*
X01734Y01555*
X01734Y01554*
X01734Y01553*
X01734Y01552*
X01734Y01551*
X01735Y01551*
X01735Y0155*
X01735Y01549*
X01736Y01548*
X01736Y01548*
X01737Y01547*
X01738Y01547*
X01738Y01546*
X01739Y01546*
X0174Y01545*
X0174Y01545*
X01741Y01544*
X01742Y01544*
X01743Y01544*
X01743Y01544*
X01744Y01544*
X01745Y01544*
X01746*
X01747Y01544*
X01747Y01544*
X01748Y01544*
X01749Y01544*
X0175Y01544*
X01751Y01545*
X01751Y01545*
X01752Y01546*
X01753Y01546*
X01753Y01547*
X01754Y01547*
X01754Y01548*
X01755Y01548*
X01755Y01549*
X01756Y0155*
X01756Y01551*
X01757Y01551*
X01757Y01552*
X01757Y01553*
X01757Y01554*
X01757Y01555*
X01757Y01555*
X01945Y0168D02*
D01*
X01945Y0168*
X01945Y01681*
X01945Y01682*
X01945Y01683*
X01945Y01684*
X01944Y01684*
X01944Y01685*
X01944Y01686*
X01943Y01686*
X01943Y01687*
X01942Y01688*
X01941Y01688*
X01941Y01689*
X0194Y01689*
X01939Y0169*
X01939Y0169*
X01938Y0169*
X01937Y01691*
X01936Y01691*
X01936Y01691*
X01935Y01691*
X01934Y01691*
X01933*
X01932Y01691*
X01931Y01691*
X01931Y01691*
X0193Y01691*
X01929Y0169*
X01928Y0169*
X01928Y0169*
X01927Y01689*
X01926Y01689*
X01926Y01688*
X01925Y01688*
X01924Y01687*
X01924Y01686*
X01923Y01686*
X01923Y01685*
X01923Y01684*
X01922Y01684*
X01922Y01683*
X01922Y01682*
X01922Y01681*
X01922Y0168*
X01922Y0168*
X01922Y01679*
X01922Y01678*
X01922Y01677*
X01922Y01676*
X01922Y01675*
X01923Y01675*
X01923Y01674*
X01923Y01673*
X01924Y01673*
X01924Y01672*
X01925Y01671*
X01926Y01671*
X01926Y0167*
X01927Y0167*
X01928Y01669*
X01928Y01669*
X01929Y01669*
X0193Y01668*
X01931Y01668*
X01931Y01668*
X01932Y01668*
X01933Y01668*
X01934*
X01935Y01668*
X01936Y01668*
X01936Y01668*
X01937Y01668*
X01938Y01669*
X01939Y01669*
X01939Y01669*
X0194Y0167*
X01941Y0167*
X01941Y01671*
X01942Y01671*
X01943Y01672*
X01943Y01673*
X01944Y01673*
X01944Y01674*
X01944Y01675*
X01945Y01675*
X01945Y01676*
X01945Y01677*
X01945Y01678*
X01945Y01679*
X01945Y0168*
X02555Y01763D02*
D01*
X02555Y01763*
X02555Y01764*
X02555Y01765*
X02555Y01766*
X02555Y01767*
X02554Y01767*
X02554Y01768*
X02554Y01769*
X02553Y01769*
X02553Y0177*
X02552Y01771*
X02551Y01771*
X02551Y01772*
X0255Y01772*
X02549Y01773*
X02549Y01773*
X02548Y01773*
X02547Y01774*
X02546Y01774*
X02546Y01774*
X02545Y01774*
X02544Y01774*
X02543*
X02542Y01774*
X02541Y01774*
X02541Y01774*
X0254Y01774*
X02539Y01773*
X02538Y01773*
X02538Y01773*
X02537Y01772*
X02536Y01772*
X02536Y01771*
X02535Y01771*
X02534Y0177*
X02534Y01769*
X02533Y01769*
X02533Y01768*
X02533Y01767*
X02532Y01767*
X02532Y01766*
X02532Y01765*
X02532Y01764*
X02532Y01763*
X02532Y01763*
X02532Y01762*
X02532Y01761*
X02532Y0176*
X02532Y01759*
X02532Y01758*
X02533Y01758*
X02533Y01757*
X02533Y01756*
X02534Y01756*
X02534Y01755*
X02535Y01754*
X02536Y01754*
X02536Y01753*
X02537Y01753*
X02538Y01752*
X02538Y01752*
X02539Y01752*
X0254Y01751*
X02541Y01751*
X02541Y01751*
X02542Y01751*
X02543Y01751*
X02544*
X02545Y01751*
X02546Y01751*
X02546Y01751*
X02547Y01751*
X02548Y01752*
X02549Y01752*
X02549Y01752*
X0255Y01753*
X02551Y01753*
X02551Y01754*
X02552Y01754*
X02553Y01755*
X02553Y01756*
X02554Y01756*
X02554Y01757*
X02554Y01758*
X02555Y01758*
X02555Y01759*
X02555Y0176*
X02555Y01761*
X02555Y01762*
X02555Y01763*
G54D13*
X01928Y01604D02*
D01*
X01928Y01604*
X01928Y01604*
X01928Y01604*
X01929Y01604*
X01929Y01604*
X01929Y01604*
X01929Y01605*
X01929Y01605*
X01929Y01605*
X01929Y01605*
X01929Y01605*
X01929Y01605*
X0193Y01605*
X0193Y01605*
X0193Y01605*
X0193Y01605*
X0193Y01606*
X0193Y01606*
X0193Y01606*
X0193Y01606*
X0193Y01606*
X0193Y01606*
Y01606*
X0193Y01606*
X0193Y01607*
X0193Y01607*
X0193Y01607*
X0193Y01607*
X0193Y01607*
X0193Y01607*
X0193Y01607*
X0193Y01608*
X01929Y01608*
X01929Y01608*
X01929Y01608*
X01929Y01608*
X01929Y01608*
X01929Y01608*
X01929Y01608*
X01929Y01608*
X01929Y01608*
X01928Y01608*
X01928Y01608*
X01928Y01608*
X01928Y01608*
D01*
X01928Y01608*
X01928Y01608*
X01928Y01608*
X01927Y01608*
X01927Y01608*
X01927Y01608*
X01927Y01608*
X01927Y01608*
X01927Y01608*
X01927Y01608*
X01927Y01608*
X01927Y01608*
X01926Y01608*
X01926Y01607*
X01926Y01607*
X01926Y01607*
X01926Y01607*
X01926Y01607*
X01926Y01607*
X01926Y01607*
X01926Y01606*
X01926Y01606*
Y01606*
X01926Y01606*
X01926Y01606*
X01926Y01606*
X01926Y01606*
X01926Y01606*
X01926Y01605*
X01926Y01605*
X01926Y01605*
X01926Y01605*
X01927Y01605*
X01927Y01605*
X01927Y01605*
X01927Y01605*
X01927Y01605*
X01927Y01605*
X01927Y01604*
X01927Y01604*
X01927Y01604*
X01928Y01604*
X01928Y01604*
X01928Y01604*
X01928Y01604*
X0316Y01725D02*
Y01774D01*
Y01725D02*
X03239D01*
X0316Y01775D02*
X03239D01*
X0324Y01725D02*
Y01775D01*
X0234Y01658D02*
Y01671D01*
Y01658D02*
X02371Y01627D01*
X0251*
X0254*
Y01618D02*
Y01627D01*
G54D14*
X02478Y01581D02*
D01*
X02478Y01581*
X02479Y01581*
X02479Y01581*
X02479Y01581*
X0248Y01581*
X0248Y01581*
X0248Y01581*
X0248Y01581*
X0248Y01581*
X02481Y01581*
X02481Y01582*
X02481Y01582*
X02481Y01582*
X02481Y01582*
X02482Y01583*
X02482Y01583*
X02482Y01583*
X02482Y01583*
X02482Y01584*
X02482Y01584*
X02482Y01584*
X02482Y01584*
Y01585*
X02482Y01585*
X02482Y01585*
X02482Y01585*
X02482Y01586*
X02482Y01586*
X02482Y01586*
X02482Y01586*
X02481Y01587*
X02481Y01587*
X02481Y01587*
X02481Y01587*
X02481Y01588*
X0248Y01588*
X0248Y01588*
X0248Y01588*
X0248Y01588*
X0248Y01588*
X02479Y01588*
X02479Y01588*
X02479Y01588*
X02478Y01588*
X02478Y01588*
D01*
X02478Y01588*
X02478Y01588*
X02477Y01588*
X02477Y01588*
X02477Y01588*
X02477Y01588*
X02476Y01588*
X02476Y01588*
X02476Y01588*
X02476Y01588*
X02475Y01587*
X02475Y01587*
X02475Y01587*
X02475Y01587*
X02475Y01586*
X02475Y01586*
X02475Y01586*
X02474Y01586*
X02474Y01585*
X02474Y01585*
X02474Y01585*
X02474Y01585*
Y01584*
X02474Y01584*
X02474Y01584*
X02474Y01584*
X02474Y01583*
X02475Y01583*
X02475Y01583*
X02475Y01583*
X02475Y01582*
X02475Y01582*
X02475Y01582*
X02475Y01582*
X02476Y01581*
X02476Y01581*
X02476Y01581*
X02476Y01581*
X02477Y01581*
X02477Y01581*
X02477Y01581*
X02477Y01581*
X02478Y01581*
X02478Y01581*
X02478Y01581*
X031Y01744D02*
Y01755D01*
X03377Y01807D02*
X03473D01*
X03377Y01742D02*
Y01807D01*
Y01742D02*
X03473D01*
G54D15*
X02437Y01505D02*
X02441Y01509D01*
X02448Y01509*
X02452Y01505*
X02452Y01501*
X02448Y01497*
X02444Y01497*
X02448Y01497*
X02452Y01493*
X02452Y01489*
X02448Y01485*
X0244Y01485*
X02437Y01489*
X0246Y01485D02*
X0246Y01489D01*
X02464Y01489*
X02464Y01485*
X0246Y01485*
X0248Y01505D02*
X02484Y01509D01*
X02492Y01509*
X02496Y01505*
X02496Y01501*
X02492Y01497*
X02488Y01497*
X02492Y01497*
X02496Y01493*
X02496Y01489*
X02492Y01485*
X02484Y01485*
X0248Y01489*
X02504Y01509D02*
X02503Y01493D01*
X02511Y01485*
X02519Y01493*
X02519Y01509*
X01887Y01587D02*
X01887Y0161D01*
X01895Y01602*
X01903Y0161*
X01903Y01586*
X01926Y01606D02*
X01922Y0161D01*
X01915Y0161*
X01911Y01606*
X01911Y0159*
X01914Y01586*
X01922Y01586*
X01926Y0159*
X01934Y0161D02*
X01934Y0159D01*
X01938Y01586*
X01946Y01586*
X0195Y0159*
X0195Y0161*
X01981Y0161D02*
X01981Y01586D01*
X01993Y01586*
X01997Y0159*
X01997Y01594*
X01993Y01598*
X01981Y01598*
X01993Y01598*
X01997Y01602*
X01997Y01606*
X01993Y0161*
X01981Y0161*
X02017Y0161D02*
X02009Y0161D01*
X02005Y01606*
X02005Y0159*
X02009Y01586*
X02017Y01586*
X02021Y0159*
X02021Y01606*
X02017Y0161*
X02029Y01586D02*
X02029Y01602D01*
X02037Y0161*
X02044Y01602*
X02044Y01586*
X02044Y01598*
X02029Y01598*
X02052Y01586D02*
X02052Y0161D01*
X02064Y0161*
X02068Y01606*
X02068Y01598*
X02064Y01594*
X02052Y01594*
X0206Y01594D02*
X02068Y01586D01*
X02076Y01609D02*
X02076Y01586D01*
X02088Y01586*
X02092Y0159*
X02092Y01605*
X02088Y01609*
X02076Y01609*
X01887Y01555D02*
X01895Y01539D01*
X01903Y01555*
X01926Y01539D02*
X0191Y01539D01*
X01926Y01555*
X01926Y01559*
X01922Y01562*
X01914Y01563*
X0191Y01559*
X01934Y01539D02*
X01934Y01543D01*
X01938Y01543*
X01938Y01539*
X01934Y01539*
X01954Y01539D02*
X01961Y01539D01*
X01958Y01539*
X01958Y01562*
X01954Y01558*
X01887Y01511D02*
X01891Y01515D01*
X01898Y01515*
X01902Y01511*
X01902Y01495*
X01898Y01491*
X0189Y01491*
X01887Y01495*
X01887Y01511*
X0191Y01511D02*
X01914Y01515D01*
X01922Y01515*
X01926Y01511*
X01926Y01507*
X01922Y01503*
X01918Y01503*
X01922Y01503*
X01926Y01499*
X01926Y01495*
X01922Y01491*
X01914Y01491*
X0191Y01495*
X01934Y01491D02*
X01934Y01495D01*
X01938Y01495*
X01938Y01491*
X01934Y01491*
X01969Y01491D02*
X01953Y01491D01*
X01969Y01507*
X01969Y01511*
X01965Y01515*
X01957Y01515*
X01954Y01511*
X01993Y01515D02*
X01977Y01515D01*
X01977Y01503*
X01985Y01507*
X01989Y01507*
X01993Y01503*
X01993Y01495*
X01989Y01491*
X01981Y01491*
X01977Y01495*
X02001Y01491D02*
X02001Y01495D01*
X02005Y01495*
X02005Y01491*
X02001Y01491*
X02036Y01491D02*
X0202Y01491D01*
X02036Y01507*
X02036Y01511*
X02032Y01515*
X02024Y01515*
X0202Y01511*
X02044Y01511D02*
X02048Y01514D01*
X02056Y01514*
X0206Y01511*
X0206Y01495*
X02056Y01491*
X02048Y01491*
X02044Y01495*
X02044Y01511*
X02083Y01491D02*
X02068Y01491D01*
X02083Y01506*
X02083Y0151*
X02079Y01514*
X02072Y01514*
X02068Y0151*
X02091Y0151D02*
X02095Y01514D01*
X02103Y01514*
X02107Y0151*
X02107Y01495*
X02103Y01491*
X02095Y01491*
X02091Y01495*
X02091Y0151*
G54D16*
X02406Y01788D02*
X02416D01*
X02411*
Y01759*
X02406*
X02416*
X0245Y01783D02*
X02445Y01788D01*
X02435*
X0243Y01783*
Y01764*
X02435Y01759*
X02445*
X0245Y01764*
X0248Y01788D02*
X0247Y01783D01*
X0246Y01774*
Y01764*
X02465Y01759*
X02475*
X0248Y01764*
Y01769*
X02475Y01774*
X0246*
X03152Y01494D02*
Y01517D01*
X03164*
X03168Y01513*
Y01506*
X03164Y01502*
X03152*
X03187Y01494D02*
Y01517D01*
X03175Y01506*
X03191*
G54D17*
X03285Y01791D02*
X03281Y01795D01*
X03272*
X03268Y01791*
Y01774*
X03272Y0177*
X03281*
X03285Y01774*
X0331Y0177D02*
X03293D01*
X0331Y01787*
Y01791*
X03306Y01795*
X03297*
X03293Y01791*
X03331Y0177D02*
Y01795D01*
X03318Y01783*
X03335*
X02703Y01702D02*
X02678D01*
Y01714*
X02682Y01718*
X0269*
X02694Y01714*
Y01702*
Y0171D02*
X02703Y01718D01*
Y01726D02*
Y01735D01*
Y01731*
X02678*
X02682Y01726*
Y01747D02*
X02678Y01751D01*
Y0176*
X02682Y01764*
X02686*
X0269Y0176*
Y01756*
Y0176*
X02694Y01764*
X02698*
X02703Y0176*
Y01751*
X02698Y01747*
G54D18*
X02516Y01635D02*
X02496D01*
Y01644*
X02499Y01648*
X02506*
X02509Y01644*
Y01635*
Y01641D02*
X02516Y01648D01*
Y01654D02*
Y01661D01*
Y01657*
X02496*
X02499Y01654*
X02516Y01684D02*
Y01671D01*
X02502Y01684*
X02499*
X02496Y0168*
Y01674*
X02499Y01671*
X02385Y01764D02*
Y01783D01*
X02394*
X02398Y0178*
Y01773*
X02394Y0177*
X02385*
X02391D02*
X02398Y01764D01*
X02404D02*
X02411D01*
X02407*
Y01783*
X02404Y0178*
X02421D02*
X02424Y01783D01*
X0243*
X02434Y0178*
Y01767*
X0243Y01764*
X02424*
X02421Y01767*
Y0178*
X02448Y01656D02*
X02444Y01659D01*
X02438*
X02435Y01656*
Y01643*
X02438Y0164*
X02444*
X02448Y01643*
X02467Y0164D02*
X02454D01*
X02467Y01653*
Y01656*
X02464Y01659*
X02457*
X02454Y01656*
X02474D02*
X02477Y01659D01*
X02484*
X02487Y01656*
Y01653*
X02484Y01649*
X0248*
X02484*
X02487Y01646*
Y01643*
X02484Y0164*
X02477*
X02474Y01643*
X02497Y01561D02*
Y0158D01*
X02506*
X0251Y01577*
Y0157*
X02506Y01567*
X02497*
X02503D02*
X0251Y01561D01*
X02526D02*
Y0158D01*
X02516Y0157*
X02529*
X02543Y01642D02*
X02523D01*
Y01651*
X02526Y01655*
X02533*
X02536Y01651*
Y01642*
Y01648D02*
X02543Y01655D01*
Y01661D02*
Y01668D01*
Y01664*
X02523*
X02526Y01661*
G54D19*
X01919Y0166D02*
X01932D01*
X01925*
Y01641*
X01938D02*
Y0166D01*
X01948*
X01951Y01657*
Y0165*
X01948Y01647*
X01938*
X01958Y01641D02*
X01964D01*
X01961*
Y0166*
X01958Y01657*
X01974D02*
X01978Y0166D01*
X01984*
X01987Y01657*
Y01644*
X01984Y01641*
X01978*
X01974Y01644*
Y01657*
X01893Y0179D02*
X01906D01*
X01899*
Y01771*
X01912D02*
Y0179D01*
X01922*
X01925Y01787*
Y0178*
X01922Y01777*
X01912*
X01945Y0179D02*
X01938Y01787D01*
X01932Y0178*
Y01774*
X01935Y01771*
X01942*
X01945Y01774*
Y01777*
X01942Y0178*
X01932*
X03158Y01539D02*
Y01552D01*
Y01545*
X03178*
Y01558D02*
X03158D01*
Y01568*
X03161Y01571*
X03168*
X03171Y01568*
Y01558*
X03178Y01578D02*
Y01584D01*
Y01581*
X03158*
X03161Y01578*
X03158Y01594D02*
Y01607D01*
X03161*
X03174Y01594*
X03178*
X03316Y01628D02*
X03312Y01632D01*
X03304*
X033Y01628*
Y01613*
X03304Y01609*
X03312*
X03316Y01613*
X03324Y01609D02*
X03332D01*
X03328*
Y01632*
X03324Y01628*
X03344D02*
X03348Y01632D01*
X03355*
X03359Y01628*
Y01624*
X03355Y0162*
X03359Y01617*
Y01613*
X03355Y01609*
X03348*
X03344Y01613*
Y01617*
X03348Y0162*
X03344Y01624*
Y01628*
X03348Y0162D02*
X03355D01*
X01874Y01722D02*
Y01745D01*
X01885*
X01889Y01741*
Y01733*
X01885Y01729*
X01874*
X01913Y01722D02*
X01897D01*
X01913Y01737*
Y01741*
X01909Y01745*
X01901*
X01897Y01741*
X0261Y01665D02*
Y01688D01*
X02621*
X02625Y01684*
Y01676*
X02621Y01672*
X0261*
X02633Y01665D02*
X02641D01*
X02637*
Y01688*
X02633Y01684*
X03396Y01572D02*
Y01587D01*
X03403Y01595*
X03411Y01587*
Y01572*
Y01583*
X03396*
X03419Y01572D02*
Y01595D01*
X03435Y01572*
Y01595*
X03443D02*
X03458D01*
X03451*
Y01572*
X03466D02*
X03474D01*
X0347*
Y01595*
X03466Y01591*
X0251Y01607D02*
X02506Y0161D01*
X025*
X02497Y01607*
Y01594*
X025Y01591*
X02506*
X0251Y01594*
X02529Y01591D02*
X02516D01*
X02529Y01604*
Y01607*
X02526Y0161*
X02519*
X02516Y01607*
X02536D02*
X02539Y0161D01*
X02546*
X02549Y01607*
Y01594*
X02546Y01591*
X02539*
X02536Y01594*
Y01607*
X02068Y01702D02*
X02064Y01706D01*
X02056*
X02053Y01702*
Y01686*
X02056Y01683*
X02064*
X02068Y01686*
X02092Y01683D02*
X02076D01*
X02092Y01698*
Y01702*
X02088Y01706*
X0208*
X02076Y01702*
X02115Y01683D02*
X021D01*
X02115Y01698*
Y01702*
X02112Y01706*
X02104*
X021Y01702*
X02023Y0174D02*
X02019Y01736D01*
Y01728*
X02023Y01724*
X02039*
X02043Y01728*
Y01736*
X02039Y0174*
X02043Y01763D02*
Y01748D01*
X02027Y01763*
X02023*
X02019Y01759*
Y01752*
X02023Y01748*
X02043Y01771D02*
Y01779D01*
Y01775*
X02019*
X02023Y01771*
X03274Y01495D02*
X03271Y01491D01*
Y01485*
X03274Y01482*
X03287*
X03291Y01485*
Y01491*
X03287Y01495*
X03291Y01501D02*
Y01508D01*
Y01504*
X03271*
X03274Y01501*
X03287Y01518D02*
X03291Y01521D01*
Y01527*
X03287Y01531*
X03274*
X03271Y01527*
Y01521*
X03274Y01518*
X03277*
X03281Y01521*
Y01531*
X02613Y01505D02*
X02609Y01509D01*
X02601*
X02598Y01505*
Y01489*
X02601Y01486*
X02609*
X02613Y01489*
X02621D02*
X02625Y01486D01*
X02633*
X02637Y01489*
Y01505*
X02633Y01509*
X02625*
X02621Y01505*
Y01501*
X02625Y01497*
X02637*
X0274Y016D02*
X02744Y01596D01*
X02752*
X02756Y016*
Y01616*
X02752Y0162*
X02744*
X0274Y01616*
X02732Y0162D02*
X02724D01*
X02728*
Y01596*
X02732Y016*
X01752Y01511D02*
X01744D01*
X01748*
Y01491*
X01744Y01488*
X0174*
X01737Y01491*
X0176Y01507D02*
X01764Y01511D01*
X01772*
X01776Y01507*
Y01503*
X01772Y01499*
X01768*
X01772*
X01776Y01495*
Y01491*
X01772Y01488*
X01764*
X0176Y01491*
X02658Y01564D02*
X02665D01*
X02661*
Y01541*
X02658*
X02665*
X02693Y0156D02*
X02689Y01564D01*
X02681*
X02677Y0156*
Y01544*
X02681Y01541*
X02689*
X02693Y01544*
X02717Y01541D02*
X02701D01*
X02717Y01556*
Y0156*
X02713Y01564*
X02705*
X02701Y0156*
X02197Y01691D02*
X02204D01*
X022*
Y01668*
X02197*
X02204*
X02232Y01687D02*
X02228Y01691D01*
X0222*
X02216Y01687*
Y01671*
X0222Y01668*
X02228*
X02232Y01671*
X02256Y01691D02*
X0224D01*
Y01679*
X02248Y01683*
X02252*
X02256Y01679*
Y01671*
X02252Y01668*
X02244*
X0224Y01671*
X03258Y01494D02*
X03234D01*
Y01505*
X03238Y01509*
X03246*
X0325Y01505*
Y01494*
Y01501D02*
X03258Y01509D01*
X03234Y01533D02*
X03238Y01525D01*
X03246Y01517*
X03254*
X03258Y01521*
Y01529*
X03254Y01533*
X0325*
X03246Y01529*
Y01517*
X03224Y01493D02*
X032D01*
Y01504*
X03204Y01508*
X03212*
X03216Y01504*
Y01493*
Y01501D02*
X03224Y01508D01*
X032Y01516D02*
Y01532D01*
X03204*
X0322Y01516*
X03224*
X02496Y01529D02*
Y01548D01*
X02505*
X02509Y01545*
Y01538*
X02505Y01535*
X02496*
X02502D02*
X02509Y01529D01*
X02515D02*
X02522D01*
X02518*
Y01548*
X02515Y01545*
X02532Y01529D02*
X02538D01*
X02535*
Y01548*
X02532Y01545*
X02127Y01686D02*
Y01709D01*
X02138*
X02142Y01705*
Y01697*
X02138Y01693*
X02127*
X02134D02*
X02142Y01686D01*
X0215Y01689D02*
X02154Y01686D01*
X02162*
X02166Y01689*
Y01705*
X02162Y01709*
X02154*
X0215Y01705*
Y01701*
X02154Y01697*
X02166*
X02104Y01625D02*
Y01648D01*
X02115*
X02119Y01644*
Y01636*
X02115Y01632*
X02104*
X02111D02*
X02119Y01625D01*
X02127Y01644D02*
X02131Y01648D01*
X02139*
X02143Y01644*
Y0164*
X02139Y01636*
X02143Y01632*
Y01628*
X02139Y01625*
X02131*
X02127Y01628*
Y01632*
X02131Y01636*
X02127Y0164*
Y01644*
X02131Y01636D02*
X02139D01*
X02001Y01664D02*
Y01687D01*
X02012*
X02016Y01683*
Y01675*
X02012Y01671*
X02001*
X02008D02*
X02016Y01664D01*
X0204D02*
X02024D01*
X0204Y01679*
Y01683*
X02036Y01687*
X02028*
X02024Y01683*
X02278Y01511D02*
Y01488D01*
X02289*
X02293Y01491*
Y01507*
X02289Y01511*
X02278*
X02301Y01488D02*
X02309D01*
X02305*
Y01511*
X02301Y01507*
X03165Y01703D02*
Y0168D01*
X0318*
X03188D02*
Y01703D01*
X032*
X03204Y01699*
Y01691*
X032Y01687*
X03188*
X03227Y01703D02*
X03212D01*
Y01691*
X0322*
X03212*
Y0168*
X03235D02*
X03243D01*
X03239*
Y01703*
X03235Y01699*
X03087Y01794D02*
Y01771D01*
X03102*
X0311D02*
X03118D01*
X03114*
Y01794*
X0311Y0179*
X03342Y01668D02*
X03338Y01664D01*
Y01656*
X03342Y01653*
X03358*
X03362Y01656*
Y01664*
X03358Y01668*
X03338Y01676D02*
Y01692D01*
X03342*
X03358Y01676*
X03362*
X03226Y0167D02*
X03222Y01674D01*
X03214*
X03211Y0167*
Y01654*
X03214Y01651*
X03222*
X03226Y01654*
X0325Y01674D02*
X03242Y0167D01*
X03234Y01662*
Y01654*
X03238Y01651*
X03246*
X0325Y01654*
Y01658*
X03246Y01662*
X03234*
X03133Y01627D02*
X03129Y01623D01*
Y01615*
X03133Y01612*
X03149*
X03153Y01615*
Y01623*
X03149Y01627*
X03129Y01651D02*
Y01635D01*
X03141*
X03137Y01643*
Y01647*
X03141Y01651*
X03149*
X03153Y01647*
Y01639*
X03149Y01635*
X03102Y01627D02*
X03098Y01623D01*
Y01615*
X03102Y01612*
X03118*
X03122Y01615*
Y01623*
X03118Y01627*
X03122Y01647D02*
X03098D01*
X0311Y01635*
Y01651*
M02*