%FSTAX23Y23*%
%MOIN*%
%SFA1B1*%

%IPPOS*%
%ADD10C,0.010000*%
%ADD15C,0.008000*%
%ADD16C,0.006000*%
%ADD22R,0.021650X0.021650*%
%ADD27C,0.015750*%
%ADD29R,0.021650X0.021650*%
%ADD61C,0.004000*%
%ADD62C,0.012000*%
%ADD64C,0.018000*%
%ADD70C,0.019490*%
%ADD71R,0.059060X0.059060*%
%ADD72C,0.059060*%
%ADD73C,0.011810*%
%ADD74C,0.023620*%
%ADD75C,0.030000*%
%ADD78R,0.018900X0.025390*%
%ADD79R,0.037400X0.035430*%
%ADD80R,0.025590X0.013780*%
%ADD81R,0.043310X0.066930*%
%ADD82R,0.031500X0.011810*%
%ADD83R,0.068900X0.061020*%
%ADD84R,0.027560X0.029530*%
%ADD85R,0.023620X0.047240*%
%ADD86R,0.045280X0.057090*%
%ADD87R,0.039370X0.035430*%
%ADD88R,0.015750X0.053150*%
%ADD89R,0.086610X0.062990*%
%ADD90R,0.070870X0.074800*%
%ADD91R,0.074800X0.074800*%
%ADD92R,0.011810X0.043310*%
%ADD93R,0.039370X0.070870*%
%LNmcu_pcb_v2-1*%
%LPD*%
G36*
X03368Y01603D02*
X03369Y016D01*
X03372Y01598*
X0349*
Y0148*
X03131*
X0313Y01484*
Y01505*
X03136*
Y01505*
X0317*
Y01504*
X0321*
Y01545*
Y01585*
X03181*
X03181Y01586*
X03179Y01589*
X03176Y01591*
X03173Y01592*
Y01627*
X03137*
X03133*
X03105*
X03105Y01627*
X03102*
X03097Y01632*
Y01638*
X03098Y01642*
X03133*
X03137*
X03138*
X03173*
Y0168*
X03151*
X03151Y01681*
X03149Y01683*
X03057Y01776*
X03055Y01778*
X03052Y01781*
X03048Y01781*
X03044Y01781*
X03041Y01778*
X03038Y01775*
X03038Y01771*
X03038Y01767*
X03041Y01764*
X03044Y01762*
X03048Y01761*
X0305Y01762*
X03108Y01704*
X03106Y017*
X03105Y017*
X03101Y01699*
X03101Y01699*
X031Y01698*
X03095Y017*
X03094Y017*
X0306Y01735*
X03059Y01738*
X03057Y01742*
X03053Y01744*
X0305Y01745*
X03046Y01744*
X03042Y01742*
X0304Y01738*
X0304Y01738*
X03039Y01735*
X03035Y01735*
X03035Y01735*
X03031Y01734*
X0303Y01734*
X03022*
Y01749*
X03028*
Y01765*
X03008*
Y01775*
X03028*
Y0179*
X03032Y01793*
X03368*
Y01603*
G37*
%LNmcu_pcb_v2-2*%
%LPC*%
G36*
X03235Y016D02*
X03231Y01599D01*
X03227Y01597*
X03225Y01593*
X03224Y0159*
X0322Y01585*
X0322*
Y01545*
Y01504*
X03259*
Y01505*
X03293*
Y01525*
X03309*
X0331Y01523*
X03316Y01516*
X03323Y0151*
X03331Y01507*
X0334Y01506*
X03348Y01507*
X03356Y0151*
X03363Y01516*
X03369Y01523*
X03372Y01531*
X03373Y0154*
X03372Y01548*
X03369Y01556*
X03363Y01563*
X03356Y01569*
X03348Y01572*
X0334Y01573*
X03331Y01572*
X03323Y01569*
X03316Y01563*
X0331Y01556*
X03307Y01548*
X03306Y01544*
X03293*
Y01584*
X03275*
X03274Y01584*
X03272Y01584*
X03272*
X03271Y01587*
X03269Y0159*
X03263Y01596*
X0326Y01598*
X03257Y01599*
X03239*
X03238Y01599*
X03235Y016*
G37*
%LNmcu_pcb_v2-3*%
%LPD*%
G54D10*
X01847Y01656D02*
X0188D01*
X01881Y01657*
X01833Y01627D02*
X01846Y0164D01*
Y01655*
X01847Y01656*
X031Y01564D02*
X03109D01*
X0309Y01593D02*
Y01611D01*
X03073Y01599D02*
Y01621D01*
X0309Y01593D02*
X03098Y01584D01*
X03155Y01574D02*
X03164D01*
X03172Y01582*
X03098Y01584D02*
X0311D01*
X0312Y01575*
X03109Y01564D02*
X0312Y01575D01*
X03008Y017D02*
Y01717D01*
X0307Y01621D02*
X03071Y01619D01*
X03068Y01574D02*
Y01595D01*
X03073Y01599*
X03069Y01621D02*
Y01675D01*
X03062Y01567D02*
X03068Y01574D01*
X01833Y01564D02*
Y01581D01*
Y01547D02*
Y01564D01*
X0186D02*
X0186Y01564D01*
X01833Y01564D02*
X0186D01*
X01803Y01682D02*
Y01724D01*
X01791Y01736D02*
X01803Y01724D01*
X01791Y01736D02*
Y01739D01*
X01791Y01739D02*
X01791Y01739D01*
X01765Y01717D02*
X01787Y01739D01*
X01791*
X0176Y01707D02*
X01761D01*
X01765Y01711*
Y01717*
X02734Y01686D02*
X02773Y01724D01*
Y0175*
X0209Y01688D02*
X02136D01*
X02074Y01672D02*
X0209Y01688D01*
X02047Y01672D02*
X02074D01*
X02136Y01688D02*
X02142Y01693D01*
X02189*
X01967Y01548D02*
Y01587D01*
X01945Y01547D02*
X01945Y01546D01*
X03275Y01515D02*
Y0153D01*
X01795Y01591D02*
X01796D01*
X02189Y01693D02*
X02192Y0169D01*
Y01663D02*
Y0169D01*
Y01663D02*
X02195Y0166D01*
X03008Y01717D02*
Y01735D01*
X03013Y01705D02*
X0304D01*
X03008Y017D02*
X03013Y01705D01*
X0304D02*
X03069Y01675D01*
X0299Y01682D02*
X03008Y017D01*
X0299Y01653D02*
Y01682D01*
X03008Y01717D02*
X03015Y01725D01*
X03035*
X02717Y0158D02*
X0274D01*
X0269Y01607D02*
X02717Y0158D01*
X0311Y01515D02*
X03155D01*
X03109Y01505D02*
X0311Y01505D01*
X03263Y01575D02*
Y01584D01*
X03257Y0159D02*
X03263Y01584D01*
X03235Y0159D02*
X03257D01*
X031Y01505D02*
X03109D01*
X03326Y0154D02*
X0334D01*
X03274Y01535D02*
X03311D01*
G54D15*
X02147Y01509D02*
Y01512D01*
X02153Y01519*
X02157*
X0219Y01553*
Y01559*
X02192Y01561*
X02353Y01707D02*
X02384Y01739D01*
X02404*
X02415Y01753D02*
X02416Y01754D01*
X02415Y01749D02*
Y01753D01*
X02404Y01739D02*
X02415Y01749D01*
X02353Y0167D02*
Y01707D01*
X02141Y01515D02*
X02147Y01509D01*
X02784Y01756D02*
X0281Y01782D01*
X02779Y01756D02*
X02784D01*
X02773Y0175D02*
X02779Y01756D01*
X0176Y01525D02*
X01781D01*
X03205Y01525D02*
X03215Y01535D01*
X03155Y01535D02*
X03205D01*
G54D16*
X02166Y01606D02*
X0219Y01582D01*
X02154Y01606D02*
X02166D01*
X0219Y01562D02*
X02192Y01561D01*
X0219Y01562D02*
Y01566D01*
X0219Y01567D02*
X0219Y01566D01*
X0219Y01567D02*
Y01582D01*
X02098Y01614D02*
X02143Y01568D01*
X02167*
X01885Y0159D02*
X01925Y0163D01*
X02209D02*
X02219Y0164D01*
X01925Y0163D02*
X02209D01*
X02093Y01507D02*
Y01554D01*
Y01507D02*
X02116Y01485D01*
X0282*
X02023Y01605D02*
X02034Y01594D01*
X02053*
X0208Y0153D02*
X02081D01*
X02023Y01547D02*
X02024Y01546D01*
X02053Y01594D02*
X02093Y01554D01*
X02022Y01577D02*
X02023Y01576D01*
X01925Y01605D02*
X02023D01*
X02023Y01547D02*
Y01576D01*
X02044Y01546D02*
Y01576D01*
X02063Y01546D02*
X0208Y0153D01*
X01861Y01605D02*
X01907Y01651D01*
X0186Y01605D02*
X01861D01*
X02148Y01651D02*
X02157Y0166D01*
X01907Y01651D02*
X02148D01*
X02157Y0166D02*
Y0166D01*
X02997Y01504D02*
X03011D01*
X03012Y01503*
X0299Y01508D02*
X02993D01*
X02997Y01504*
X03012Y01503D02*
X03045D01*
X02918Y01485D02*
X02938D01*
X02943Y01489*
X02961D02*
X02975Y01503D01*
X02983*
X02943Y01489D02*
X02961D01*
X02914Y01488D02*
X02915D01*
X02918Y01485*
X02764Y01605D02*
X0278Y01589D01*
Y0155D02*
Y01589D01*
X0272Y01605D02*
X02764D01*
X027Y01624D02*
X0272Y01605D01*
X02613Y016D02*
X02622Y01609D01*
Y01611*
X02865Y01631D02*
X02898Y01599D01*
X02797Y01631D02*
X02865D01*
X0273Y01635D02*
X02793D01*
X02797Y01631*
X02933Y01618D02*
X02938Y01612D01*
X02905Y0167D02*
X02914Y01662D01*
X02867Y0167D02*
X02905D01*
X02865Y01672D02*
X02867Y0167D01*
X02969Y01607D02*
X0299D01*
X02926Y01643D02*
X02943Y01626D01*
X02949D02*
X02969Y01607D01*
X02926Y01643D02*
Y01649D01*
X02914Y01662D02*
D01*
X02863Y01672D02*
X02865D01*
X02914Y01662D02*
X02926Y01649D01*
X02943Y01626D02*
X02949D01*
X02842Y01693D02*
X02863Y01672D01*
X02792Y01693D02*
X02792Y01693D01*
X02842*
X02758Y01665D02*
X02787Y01693D01*
X02792*
X02783Y01703D02*
X02796D01*
X02796Y01703*
X02846*
X02758Y01678D02*
X02783Y01703D01*
X02867Y01682D02*
X02914D01*
X02936Y0166*
X02846Y01703D02*
X02867Y01682D01*
X02938Y01611D02*
X0296Y01589D01*
X02977Y01529D02*
X02979Y01531D01*
X02972Y01525D02*
X02976Y01529D01*
X03032Y01553D02*
X03033Y01552D01*
X0296Y01589D02*
X03008D01*
X02976Y01529D02*
X02977D01*
X02938Y01611D02*
Y01612D01*
X03032Y01553D02*
Y01565D01*
X03033Y01541D02*
Y01552D01*
X02979Y01531D02*
X03023D01*
X02972Y01524D02*
Y01525D01*
X03008Y01589D02*
X03032Y01565D01*
X03023Y01531D02*
X03033Y01541D01*
X02956Y01508D02*
X02972Y01524D01*
X02947Y01636D02*
X02953D01*
X02965Y01625*
X02936Y01647D02*
X02947Y01636D01*
X02965Y01625D02*
X02993D01*
X02936Y01647D02*
Y0166D01*
X02935Y01502D02*
Y01515D01*
X02927Y01523D02*
X02935Y01515D01*
X02667Y01674D02*
Y01715D01*
Y01674D02*
X02676Y01665D01*
X0264Y01757D02*
X02706Y01691D01*
X0271Y0175D02*
X02727D01*
X02321Y01768D02*
X02646D01*
X02268Y01715D02*
X02321Y01768D01*
X02025Y01715D02*
X02268D01*
X0263Y01671D02*
X02653Y01648D01*
X0207Y01748D02*
X02109D01*
X02063Y01754D02*
X0207Y01748D01*
X02063Y01754D02*
Y01763D01*
X02033Y01725D02*
X02175D01*
X02024Y01734D02*
X02033Y01725D01*
X02004Y01736D02*
X02025Y01715D01*
X02464Y01683D02*
X02473D01*
X0246Y01679D02*
X02464Y01683D01*
X0246Y01679D02*
Y01679D01*
X02451Y0167D02*
X0246Y01679D01*
X0245Y0167D02*
X02451D01*
X02473Y01683D02*
X02494Y01704D01*
Y01714*
X02494Y01714D02*
X02494Y01714D01*
X03017Y01548D02*
X03019Y01545D01*
X03017Y01543D02*
Y01548D01*
X03006Y01543D02*
X03017D01*
X02186Y01779D02*
X02195Y01771D01*
X02665Y01629D02*
X02668D01*
X02839Y01544D02*
X02877D01*
X02825Y0153D02*
X02839Y01544D01*
X028Y0153D02*
X02825D01*
X02877Y01544D02*
X02895Y01527D01*
X03023Y01677D02*
X03043D01*
X03007Y01662D02*
X03023Y01677D01*
X03043D02*
X03055Y01666D01*
Y01655D02*
Y01666D01*
X0309Y0163D02*
Y01695D01*
X02515Y01755D02*
X02608D01*
X01904Y01742D02*
X01914Y01751D01*
X01899Y01742D02*
X01904D01*
X01914Y01751D02*
X01923D01*
X01926Y01754*
Y01763*
X02024Y01734D02*
Y01763D01*
X02004Y01736D02*
Y01763D01*
X02004Y01763D02*
X02004Y01763D01*
X01968Y01777D02*
X01976D01*
X01965Y01774D02*
X01968Y01777D01*
X01965Y01763D02*
Y01774D01*
X01895Y01575D02*
X01925Y01605D01*
X02649Y01673D02*
X02651D01*
X02646Y01676D02*
X02646D01*
X02642Y0168D02*
Y0168D01*
X02594Y01725D02*
X02632Y01687D01*
X02635D02*
X02642Y0168D01*
Y0168D02*
X02646Y01676D01*
X02646D02*
X02649Y01673D01*
X0245Y0165D02*
Y0167D01*
X02424Y0165D02*
Y0169D01*
X0246Y01725*
X02632Y01687D02*
X02635D01*
X02638Y01745D02*
X02667Y01715D01*
X02653Y01648D02*
X02685D01*
X02195Y01759D02*
Y01771D01*
X0253Y01745D02*
X02638D01*
X02556Y01713D02*
X02572D01*
X03042Y01607D02*
X03055Y0162D01*
X0303Y01607D02*
X03042D01*
X0301Y01627D02*
X03034D01*
X0299Y01607D02*
X0301Y01627D01*
X03007Y01639D02*
Y01662D01*
X0305Y01735D02*
X0309Y01695D01*
Y0163D02*
X03099Y0162D01*
X03105*
X03116Y01609*
Y01608D02*
Y01609D01*
X03051Y01771D02*
X03144Y01678D01*
Y01672D02*
Y01678D01*
Y01672D02*
X03155Y01661D01*
X02993Y01625D02*
X03007Y01639D01*
X0261Y01757D02*
X0264D01*
X02608Y01755D02*
X0261Y01757D01*
X02615Y01585D02*
Y0159D01*
X02635Y01535D02*
Y01568D01*
X02634Y0162D02*
X02658D01*
X02664Y01627*
X02665*
X02375Y016D02*
X02613D01*
X02572Y01713D02*
X02598Y01688D01*
Y01626D02*
Y01688D01*
Y01626D02*
X0261Y01615D01*
X02402Y01682D02*
X02455Y01735D01*
X02398Y0165D02*
X02402Y01653D01*
Y01682*
X0263Y01671D02*
Y01675D01*
X02957Y01765D02*
X02962Y0177D01*
X03048Y01771D02*
X03051D01*
X02219Y0164D02*
X02223D01*
X02232Y01648*
Y0166*
X02725Y0179D02*
X02749Y01765D01*
Y01757D02*
Y01765D01*
X02895Y0173D02*
X02911Y01746D01*
Y01756*
X02886Y01782D02*
X02911Y01756D01*
X02878Y01782D02*
X02886D01*
X0284Y01765D02*
Y01781D01*
X02839Y01744D02*
Y01764D01*
X0284Y01765*
X02824Y0173D02*
X02839Y01744D01*
X02839Y01782D02*
X0284Y01781D01*
X02911Y01756D02*
X0292Y01765D01*
X02957*
X02665Y01627D02*
Y01629D01*
X02664Y01629D02*
X02665Y01629D01*
X02749Y0152D02*
X02803D01*
X0269Y01495D02*
X02792D01*
X02799Y01502*
X0265Y01535D02*
X0269Y01495D01*
X02819Y01502D02*
Y01503D01*
X0274Y0153D02*
Y0158D01*
X02803Y0152D02*
X02819Y01503D01*
X02725Y01639D02*
X0273Y01635D01*
X02724Y01639D02*
X02725D01*
X0278Y0155D02*
X028Y0153D01*
X02635Y01535D02*
X0265D01*
X0282Y01485D02*
X02827Y01492D01*
X02839*
X02898D02*
Y01523D01*
X02839Y01492D02*
Y01506D01*
X0286Y01527*
X02895D02*
X02898Y01523D01*
G54D22*
X022Y01606D03*
X02154D03*
X02727Y0175D03*
X02773D03*
X03008Y0177D03*
X02962D03*
Y01735D03*
X03008D03*
X02962Y017D03*
X03008D03*
G54D27*
X02868Y01502D03*
X01881Y01657D03*
X03073Y01621D03*
X0281Y01782D03*
X01795Y01591D03*
X02705Y0152D03*
G54D29*
X01833Y01627D03*
Y01581D03*
Y01501D03*
Y01547D03*
X0299Y01653D03*
Y01607D03*
X0264Y01602D03*
Y01648D03*
X02678Y01602D03*
Y01648D03*
X0286Y01527D03*
Y01573D03*
X02895D03*
Y01527D03*
X0303Y01607D03*
Y01653D03*
X0299Y01558D03*
Y01512D03*
G54D61*
X02818Y01566D02*
D01*
X02817Y01567*
X02816Y01568*
X02819Y0166D02*
D01*
X02818Y01661*
X02817Y01662*
X02816Y01663*
X02815Y01664*
X02814Y01665*
X02813Y01665*
X02812Y01666*
X02811Y01666*
X02809Y01667*
X02808Y01667*
X02807Y01667*
X02806Y01667*
X02805Y01667*
X02819Y0166D02*
D01*
X0282Y0166*
X02821Y0166*
X02175Y01725D02*
X02236D01*
X02288Y01777D02*
X02649D01*
X02236Y01725D02*
X0224Y01729D01*
X0225Y01739D02*
X02288Y01777D01*
X0224Y01729D02*
X02246D01*
X0225Y01733*
Y01739*
X02218Y0153D02*
X02219Y01531D01*
X02208Y0153D02*
X02218D01*
X02186Y01509D02*
Y01512D01*
X02194Y0152*
X02197*
X02208Y0153*
Y01601*
X03017Y01485D02*
X03021Y01489D01*
X02977Y01485D02*
X03017D01*
X02826Y01559D02*
X02827Y01557D01*
X02797Y01587D02*
X02816Y01568D01*
X02827Y01557D02*
X02844D01*
X02818Y01566D02*
X02826Y01559D01*
X02816Y01568D02*
X02816Y01568D01*
X02818Y01566D02*
X02818Y01566D01*
X02844Y01557D02*
X02844Y01557D01*
Y01556D02*
Y01557D01*
Y01556D02*
X02895D01*
X02797Y01587D02*
X02797D01*
X02791Y0159D02*
X02794D01*
X02797Y01587*
X02789Y01592D02*
X02791Y0159D01*
X02895Y01556D02*
X02911Y0154D01*
Y01538D02*
X02927Y01523D01*
X02911Y01538D02*
Y0154D01*
X02767Y01614D02*
X02789Y01592D01*
Y01592D02*
Y01592D01*
X02712Y01634D02*
X02733Y01614D01*
X02767*
X02711Y01642D02*
X02712Y0164D01*
Y01634D02*
Y0164D01*
X027Y01624D02*
Y01653D01*
X02687Y01678D02*
X02688D01*
X02693Y01672*
X02694*
X02711Y01656*
Y01642D02*
Y01656D01*
X02694Y01658D02*
X027Y01653D01*
X02694Y01658D02*
Y01661D01*
X02691Y01664D02*
X02694Y01661D01*
X02677Y01664D02*
X02691D01*
X0264Y01586D02*
Y01602D01*
Y01586D02*
X02641Y01586D01*
Y01559D02*
X0265Y0155D01*
X02641Y01559D02*
Y01586D01*
X02622Y01611D02*
X02623Y01612D01*
Y01615*
X02628Y0162*
X02634*
X02676Y01665D02*
X02677Y01664D01*
X02898Y01599D02*
X02907Y01589D01*
X02908*
X02942Y01555*
Y01547D02*
Y01555D01*
X02903Y01647D02*
Y0165D01*
Y01647D02*
X02933Y01618D01*
X02893Y0166D02*
X02903Y0165D01*
X02821Y0166D02*
X02893D01*
X02821D02*
X02821D01*
X02766Y01655D02*
X02778Y01667D01*
X02805*
X02727Y01665D02*
X02758D01*
X02739Y01674D02*
X02744Y01678D01*
X02758*
X02942Y01547D02*
X02952Y01537D01*
X02967*
X0297Y0154*
X02714Y01696D02*
Y01701D01*
X02715Y01677D02*
X02727Y01665D01*
X02706Y01673D02*
X02725Y01655D01*
X02706Y01673D02*
Y01691D01*
X02715Y01677D02*
Y01695D01*
X02714Y01696D02*
X02715Y01695D01*
X02723Y01681D02*
Y01704D01*
X0273Y01674D02*
X02739D01*
X02723Y01681D02*
X0273Y01674D01*
X02649Y01777D02*
X02723Y01704D01*
X02646Y01768D02*
X02714Y01701D01*
X02653Y01785D02*
X02714Y01725D01*
X02281Y01785D02*
X02653D01*
X02714Y01725D02*
X0274D01*
X02278Y01793D02*
X02656D01*
X02503Y01723D02*
X02539D01*
X02494Y01714D02*
X02503Y01723D01*
X02466Y01731D02*
X02527D01*
X0246Y0174D02*
X02525D01*
X02956Y01502D02*
Y01508D01*
X0297Y0154D02*
X03003D01*
X03006Y01543*
X02656Y01793D02*
X0266Y0179D01*
X02274D02*
X02278Y01793D01*
X02276Y0178D02*
X02281Y01785D01*
X02181Y0179D02*
X02274D01*
X02172Y0178D02*
X02181Y0179D01*
X02167Y0178D02*
X02172D01*
X02157Y0177D02*
X02167Y0178D01*
X02157Y01759D02*
Y0177D01*
X02725Y01655D02*
X02766D01*
X01892Y01787D02*
X019Y01795D01*
X02002*
X02004Y01792*
Y01763D02*
Y01792D01*
X01965Y01546D02*
X01967Y01548D01*
X02857Y01493D02*
X02859D01*
X02868Y01502*
X0287*
X02541Y01725D02*
X02594D01*
X02539Y01723D02*
X02541Y01725D01*
X02347Y01589D02*
X0237Y01611D01*
X02378D02*
X02387Y0162D01*
X02527Y01731D02*
X02531Y01735D01*
X0233Y01587D02*
X02332Y01589D01*
X02398Y01631D02*
Y0165D01*
X0263Y01735D02*
X02655Y0171D01*
X02392Y01625D02*
X02398Y01631D01*
X02332Y01589D02*
X02347D01*
X02387Y01623D02*
X02389Y01625D01*
X02387Y0162D02*
Y01623D01*
X0237Y01611D02*
X02378D01*
X0246Y01725D02*
X02466Y01731D01*
X02389Y01625D02*
X02392D01*
X02531Y01735D02*
X0263D01*
X0246Y01725D02*
X0246D01*
X02525Y0174D02*
X0253Y01745D01*
X02455Y01735D02*
X0246Y0174D01*
X0266Y0179D02*
X02725D01*
X02647Y01602D02*
X0265Y01605D01*
X0265Y01555D02*
X02665Y0157D01*
X0265Y0155D02*
Y01555D01*
X02242Y0178D02*
X02276D01*
X02232Y01771D02*
X02242Y0178D01*
X02232Y01759D02*
Y01771D01*
G54D62*
X02527Y01503D02*
Y01515D01*
X02501D02*
X02527D01*
X02471Y01544D02*
X02501Y01515D01*
X02527D02*
X02552D01*
X02314Y0163D02*
X02355D01*
X02479Y0167D02*
X02514Y01705D01*
X02477Y0167D02*
X02479D01*
X02475Y01668D02*
X02477Y0167D01*
X02475Y0165D02*
Y01668D01*
X02355Y0163D02*
X02356Y01631D01*
X023Y01645D02*
X02314Y0163D01*
X02355Y0163D02*
X02355Y0163D01*
X02356Y01631D02*
X02371D01*
X02373Y01633*
Y0165*
X01917Y01725D02*
X01918D01*
X0192Y01727*
X01923Y01724*
X01928Y01729*
X0193*
X01932Y01731*
X01936*
X01945Y01741*
Y01763*
X01926Y01763D02*
X01926Y01763D01*
X02266Y01544D02*
X02282Y0156D01*
X02504Y01619D02*
X02522D01*
X02282Y0156D02*
X02325D01*
X025Y01615D02*
X02504Y01619D01*
X02522D02*
X02548Y01645D01*
X02325Y0156D02*
X02345D01*
X02348Y01556*
X02365*
X02552Y01515D02*
X02581Y01544D01*
X02365Y01556D02*
X02377Y01544D01*
X02581Y01544D02*
Y01544D01*
X0286Y01573D02*
Y01605D01*
Y01573D02*
X02895D01*
X0296Y01555D02*
X02961Y01556D01*
X02988*
X0299Y01558*
X03274Y01554D02*
Y01574D01*
G54D64*
X0176Y01602D02*
Y01647D01*
X01756Y01598D02*
X0176Y01602D01*
X0176Y01525D02*
Y01595D01*
X01756Y01598D02*
X0176Y01595D01*
X01904Y01525D02*
X01919D01*
X01872Y01493D02*
X01904Y01525D01*
X0178Y01493D02*
X01872D01*
X01919Y01525D02*
Y01534D01*
X0176Y01514D02*
Y01525D01*
Y01514D02*
X0178Y01493D01*
X02978Y01721D02*
X0298Y0172D01*
X02975Y01721D02*
X02978D01*
X02962Y01735D02*
X02975Y01721D01*
X02978Y01718D02*
X0298Y0172D01*
X02978Y01716D02*
Y01718D01*
X02962Y017D02*
X02978Y01716D01*
G54D70*
X01834Y01756D03*
X01754D03*
X01794Y01556D03*
G54D71*
X0344Y0154D03*
G54D72*
X0334Y0154D03*
G54D73*
X02101Y01584D03*
X02192Y01561D03*
X02385Y01719D03*
X02386Y01686D03*
X02296Y01764D03*
X02098Y01614D03*
X02219Y01531D03*
X02527Y01503D03*
X02877Y01486D03*
X02081Y0153D03*
X02022Y01577D03*
X0186Y01605D03*
X03023Y01488D03*
X02977Y01485D03*
X02914Y01488D03*
X0309Y01611D03*
X03172Y01582D03*
X01895Y01575D03*
X02687Y01678D03*
X0271Y0175D03*
X02734Y01686D03*
X03354Y01709D03*
X03235Y01688D03*
X02398Y01753D03*
X02425Y0174D03*
X02513Y01752D03*
X02109Y01748D03*
X02128Y01666D03*
X0213Y01703D03*
X02505Y01672D03*
X02354Y01668D03*
X02956Y01502D03*
X02935D03*
X03021Y01547D03*
X02209Y01777D03*
X02355Y0163D03*
X03035Y01665D03*
X03055Y01655D03*
X01892Y01787D03*
X01899Y01742D03*
X01884Y0159D03*
X02043Y01784D03*
X01976Y01777D03*
X02005Y01525D03*
X01985D03*
X02857Y01493D03*
X025Y01615D03*
X0233Y01587D03*
X02655Y0171D03*
X02325Y0156D03*
X02651Y01673D03*
X01781Y01525D03*
X03295Y01699D03*
X0274Y01725D03*
X03034Y01627D03*
X02878Y01782D03*
X02839D03*
X03035Y01725D03*
X02839Y01492D03*
X02665Y01627D03*
X02799Y01502D03*
X0305Y01735D03*
X02749Y01757D03*
X02898Y01492D03*
X03048Y01771D03*
X02819Y01502D03*
X0261Y01615D03*
X03148Y01774D03*
X03256D03*
X03202Y01752D03*
X03478Y01502D03*
X03479Y01519D03*
Y01538D03*
Y01558D03*
Y01578D03*
X0346Y01582D03*
X0344D03*
X0342D03*
X03355Y01687D03*
X02416Y01754D03*
X02556Y01713D03*
X03055Y0162D03*
X03105Y0169D03*
X02615Y01585D03*
X0263Y01675D03*
X0264Y015D03*
X03109Y0178D03*
X03462Y01493D03*
X0344D03*
X03418D03*
X03397Y01579D03*
Y01536D03*
Y01493D03*
X03375Y01579D03*
X03386Y01558D03*
Y01514D03*
X03375Y01493D03*
X03354Y01752D03*
Y01666D03*
Y01623D03*
Y01579D03*
Y01493D03*
X03343Y01774D03*
Y01644D03*
X03332Y01623D03*
X03343Y01601D03*
X03332Y01493D03*
X03321Y01774D03*
Y01644D03*
Y01601D03*
X0331Y01493D03*
X03299Y01774D03*
X03289Y01493D03*
X03278Y01774D03*
X03267Y01493D03*
X03245D03*
X03224Y01666D03*
Y01493D03*
X03213Y01688D03*
X03202Y01493D03*
X0318D03*
X03159D03*
X03126Y01774D03*
X02724Y01639D03*
X02375Y016D03*
X03235Y0159D03*
X033Y01585D03*
G54D74*
X02044Y01576D03*
X02875Y01701D03*
X02047Y01672D03*
X02886Y01643D03*
X01917Y01725D03*
X01884Y01704D03*
X01967Y01587D03*
X02514Y01705D03*
X02955Y01655D03*
X0292Y01605D03*
X02805Y0165D03*
Y01605D03*
X0298Y0172D03*
X0286Y01605D03*
X0296Y01555D03*
X02805D03*
Y01725D03*
G54D75*
X0186Y01564D03*
X01791Y01739D03*
G54D78*
X02186Y01509D03*
X02147D03*
X02167Y01568D03*
G54D79*
X03108Y01506D03*
Y01565D03*
G54D80*
X0176Y01656D03*
Y01682D03*
Y01707D03*
X01847D03*
Y01682D03*
Y01656D03*
G54D81*
X01803Y01682D03*
G54D82*
X03274Y01574D03*
Y01554D03*
Y01535D03*
Y01515D03*
X03155D03*
Y01535D03*
Y01554D03*
Y01574D03*
G54D83*
X03215Y01545D03*
G54D84*
X03155Y01608D03*
Y01661D03*
X03116D03*
Y01608D03*
G54D85*
X02157Y0166D03*
X02195D03*
X02232D03*
Y01759D03*
X02195D03*
X02157D03*
G54D86*
X02844Y01745D03*
X02915D03*
G54D87*
X03063Y01567D03*
Y01504D03*
G54D88*
X02475Y0165D03*
X0245D03*
X02424D03*
X02398D03*
X02373D03*
G54D89*
X02548Y01645D03*
X023D03*
G54D90*
X02581Y01544D03*
X02266D03*
G54D91*
X02471Y01544D03*
X02377D03*
G54D92*
X02063Y01546D03*
Y01763D03*
X02044Y01546D03*
Y01763D03*
X02024Y01546D03*
Y01763D03*
X02004Y01546D03*
Y01763D03*
X01985Y01546D03*
Y01763D03*
X01965Y01546D03*
Y01763D03*
X01945Y01546D03*
Y01763D03*
X01926Y01546D03*
Y01763D03*
G54D93*
X0265Y0155D03*
X02749D03*
M02*