G04*
G04 #@! TF.GenerationSoftware,Altium Limited,Altium Designer,20.0.13 (296)*
G04*
G04 Layer_Physical_Order=4*
G04 Layer_Color=1930808*
%FSLAX25Y25*%
%MOIN*%
G70*
G01*
G75*
%ADD18P,0.03062X4X270.0*%
%ADD19R,0.02165X0.02165*%
%ADD34C,0.01378*%
%ADD36C,0.00800*%
%ADD38P,0.08769X4X183.0*%
%ADD39C,0.06201*%
%ADD40C,0.04693*%
%ADD41R,0.04693X0.04693*%
%ADD42C,0.02000*%
%ADD43C,0.06299*%
%ADD45C,0.00984*%
G04:AMPARAMS|DCode=46|XSize=27.56mil|YSize=11.81mil|CornerRadius=0mil|HoleSize=0mil|Usage=FLASHONLY|Rotation=225.000|XOffset=0mil|YOffset=0mil|HoleType=Round|Shape=Rectangle|*
%AMROTATEDRECTD46*
4,1,4,0.00557,0.01392,0.01392,0.00557,-0.00557,-0.01392,-0.01392,-0.00557,0.00557,0.01392,0.0*
%
%ADD46ROTATEDRECTD46*%

G04:AMPARAMS|DCode=47|XSize=66.93mil|YSize=39.37mil|CornerRadius=0mil|HoleSize=0mil|Usage=FLASHONLY|Rotation=135.000|XOffset=0mil|YOffset=0mil|HoleType=Round|Shape=Rectangle|*
%AMROTATEDRECTD47*
4,1,4,0.03758,-0.00974,0.00974,-0.03758,-0.03758,0.00974,-0.00974,0.03758,0.03758,-0.00974,0.0*
%
%ADD47ROTATEDRECTD47*%

%ADD48R,0.02756X0.01181*%
%ADD49R,0.03937X0.06693*%
%ADD50R,0.02539X0.01890*%
G04:AMPARAMS|DCode=51|XSize=25.59mil|YSize=21.46mil|CornerRadius=0mil|HoleSize=0mil|Usage=FLASHONLY|Rotation=45.000|XOffset=0mil|YOffset=0mil|HoleType=Round|Shape=Rectangle|*
%AMROTATEDRECTD51*
4,1,4,-0.00146,-0.01663,-0.01663,-0.00146,0.00146,0.01663,0.01663,0.00146,-0.00146,-0.01663,0.0*
%
%ADD51ROTATEDRECTD51*%

%ADD52C,0.00394*%
%ADD53R,0.02165X0.02165*%
%ADD54P,0.03062X4X360.0*%
D18*
X30374Y45374D02*
D03*
X33626Y48626D02*
D03*
X24126Y46626D02*
D03*
X20874Y43374D02*
D03*
X7374Y44874D02*
D03*
X10626Y48126D02*
D03*
X48374Y11874D02*
D03*
X51626Y15126D02*
D03*
D19*
X33200Y36500D02*
D03*
X37800D02*
D03*
X24700Y36000D02*
D03*
X29300D02*
D03*
X40800Y31500D02*
D03*
X36200D02*
D03*
X47200Y18500D02*
D03*
X51800D02*
D03*
X39917Y12497D02*
D03*
X44517D02*
D03*
X35300Y15000D02*
D03*
X30700D02*
D03*
X20800Y19500D02*
D03*
X16200D02*
D03*
X7300Y32500D02*
D03*
X2700D02*
D03*
D34*
X25071Y54296D02*
D03*
D36*
X42383Y28500D02*
G03*
X38656Y28500I-1864J-2780D01*
G01*
X3500Y31800D02*
Y40328D01*
Y16000D02*
Y26000D01*
X2017Y31817D02*
X2700Y32500D01*
X2017Y31507D02*
Y31817D01*
X1156Y30646D02*
X2017Y31507D01*
X1156Y28344D02*
Y30646D01*
Y28344D02*
X3500Y26000D01*
X3156Y29817D02*
X3597D01*
X10125Y27325D02*
Y28413D01*
X7000Y24200D02*
X10125Y27325D01*
Y28413D02*
X10336Y28625D01*
X7300Y31000D02*
X7800Y31500D01*
X7300Y31000D02*
Y32500D01*
Y29100D02*
Y31000D01*
X7000Y28800D02*
X7300Y29100D01*
X37800Y36500D02*
X40675D01*
X41175Y37000D01*
X41500D01*
X19549Y43374D02*
X20874D01*
X17511Y41335D02*
X19549Y43374D01*
X30100Y14785D02*
Y15600D01*
X46933Y18233D02*
X47200Y18500D01*
X45940Y18233D02*
X46933D01*
X45710Y18004D02*
X45940Y18233D01*
X48500Y15794D02*
X48630Y15924D01*
X49479D01*
X51117Y17563D02*
Y17817D01*
X49479Y15924D02*
X51117Y17563D01*
Y17817D02*
X51800Y18500D01*
X44881Y10419D02*
Y12133D01*
X45141Y11874D01*
X44517Y12497D02*
X44881Y12133D01*
X45141Y11874D02*
X48374D01*
X44517Y12497D02*
X45019Y12998D01*
X26039Y11539D02*
X29202Y14702D01*
X26039Y9500D02*
Y11539D01*
X31581Y5707D02*
X31961Y6087D01*
Y7531D01*
X3597Y29817D02*
X5000Y31220D01*
X33875Y48875D02*
X35749Y47000D01*
X5000Y31220D02*
Y37176D01*
X7489Y39665D01*
X3500Y40328D02*
X7374Y44202D01*
X10253Y32854D02*
X10482Y32625D01*
X21554Y20254D02*
Y20341D01*
X20800Y19500D02*
X21554Y20254D01*
X17307Y21893D02*
X18314Y22901D01*
X16500Y20183D02*
Y22700D01*
Y19800D02*
Y20183D01*
X16200Y19800D02*
Y20183D01*
Y19500D02*
Y19800D01*
X18314Y22901D02*
Y22901D01*
X16200Y19500D02*
X16500Y19800D01*
X36683Y9317D02*
X39000Y7000D01*
X42217Y9433D02*
Y16417D01*
Y9433D02*
X43500Y8151D01*
Y3000D02*
Y8151D01*
X39000Y5000D02*
Y7000D01*
X36683Y9317D02*
Y10117D01*
X38650Y15850D02*
X39000D01*
X39700Y12497D02*
Y15500D01*
X44881Y10419D02*
X47248Y8052D01*
X42217Y16417D02*
X43170Y17370D01*
X47248Y8052D02*
X48948D01*
X50000Y7000D01*
X46570Y29456D02*
X47364D01*
X43672Y29500D02*
X46525D01*
X47364Y29456D02*
X47594Y29226D01*
X46525Y29500D02*
X46570Y29456D01*
X40800Y31500D02*
X41483Y30817D01*
X42354D01*
X43672Y29500D01*
X45071Y32396D02*
Y32440D01*
X44500Y31500D02*
Y31825D01*
X45071Y32396D01*
Y32440D02*
X46632Y34000D01*
X40117Y32183D02*
X40800Y31500D01*
X42626Y42374D02*
X43000Y42000D01*
X40626Y42374D02*
X42626D01*
X26824Y31854D02*
X27053Y31624D01*
Y31151D02*
Y31624D01*
Y31151D02*
X27522Y30682D01*
X36574Y15000D02*
X37849D01*
X36979Y13707D02*
Y14596D01*
X36574Y15000D02*
X36979Y14596D01*
Y13707D02*
X37208Y13478D01*
X38317Y15517D02*
X38650Y15850D01*
X38317Y15469D02*
Y15517D01*
X37849Y15000D02*
X38317Y15469D01*
X39000Y16200D02*
X39700Y15500D01*
X22885Y28466D02*
X24366Y26984D01*
X22885Y28466D02*
Y30915D01*
X19279Y34520D02*
X22885Y30915D01*
X20232Y29937D02*
Y32513D01*
X19279Y33466D02*
X20232Y32513D01*
X19279Y33466D02*
Y34520D01*
X20232Y27968D02*
Y29937D01*
X47000Y27468D02*
X47403D01*
X47594Y27659D01*
Y29226D01*
X50406Y26399D02*
Y28531D01*
Y25243D02*
Y26399D01*
X51134Y25672D01*
X47594Y29226D02*
X47820Y29000D01*
X49938D01*
X50406Y28531D01*
Y25243D02*
X51134Y24516D01*
Y25672D01*
X37552Y3552D02*
X39000Y5000D01*
X37552Y1552D02*
Y3552D01*
X36500Y500D02*
X37552Y1552D01*
X36000Y10800D02*
X36683Y10117D01*
X31961Y7531D02*
X34668D01*
X36000Y6200D01*
X32954Y10800D02*
X36000D01*
X32285Y11468D02*
X32954Y10800D01*
X31961Y11468D02*
X32285D01*
X29500Y16200D02*
X30100Y15600D01*
X29202Y14702D02*
X30017D01*
X30100Y14785D01*
X51800Y18500D02*
X53469Y20169D01*
X51944Y14856D02*
X58000Y20912D01*
X51087Y14000D02*
X51944Y14856D01*
X43170Y18292D02*
X46022Y21144D01*
Y21372D01*
X51000Y14000D02*
X51087D01*
X58000Y20912D02*
Y23000D01*
X55268Y23531D02*
X57468D01*
X58000Y23000D01*
X53469Y20169D02*
X53517D01*
X54102Y20755D01*
Y20802D01*
X54290Y20990D01*
Y21372D01*
X54480Y21563D01*
X55268D01*
X33200Y31500D02*
X36200D01*
X32500Y30800D02*
X33200Y31500D01*
X46632Y34000D02*
X46828D01*
X47828Y35000D01*
X52000D01*
X48500Y32500D02*
X50000D01*
X41500Y37000D02*
X44994D01*
X34800Y28500D02*
X38656D01*
X42383D02*
X42586D01*
X45208Y25878D01*
X32500Y26200D02*
X34800Y28500D01*
X55268Y23531D02*
Y25500D01*
X45994Y36000D02*
X46000D01*
X44994Y37000D02*
X45994Y36000D01*
X52000Y35000D02*
X55268Y31732D01*
Y27468D02*
Y31732D01*
X52434Y30066D02*
X52876D01*
X50000Y32500D02*
X52434Y30066D01*
X43170Y17370D02*
Y18292D01*
X46022Y21372D02*
X46213Y21563D01*
X47000D01*
X46968Y23500D02*
X47000Y23531D01*
X45500Y23500D02*
X46968D01*
X43183Y21183D02*
X45500Y23500D01*
X43183Y20983D02*
Y21183D01*
X42500Y20300D02*
X43183Y20983D01*
X39000Y20300D02*
X42500D01*
X29478Y23054D02*
X29500Y23031D01*
Y16200D02*
Y23031D01*
X29478Y23054D02*
Y23841D01*
X29287Y24032D02*
X29478Y23841D01*
X28500Y24032D02*
X29287D01*
X46809Y25691D02*
X47000Y25500D01*
X45741Y25691D02*
X46809D01*
X45553Y25878D02*
X45741Y25691D01*
X45208Y25878D02*
X45553D01*
X30292Y28346D02*
X30878Y28932D01*
X30046Y28346D02*
X30292D01*
X30878Y28932D02*
Y29178D01*
X31817Y30117D01*
Y30117D01*
X28500Y27968D02*
X28691Y28159D01*
X29859D02*
X30046Y28346D01*
X28691Y28159D02*
X29859D01*
X28500Y26000D02*
X32300D01*
X32500Y26200D01*
X31817Y30117D02*
X32500Y30800D01*
X33200Y36500D02*
Y38595D01*
X34295Y39691D01*
Y40744D01*
X26688Y33388D02*
X29300Y36000D01*
X26688Y31915D02*
Y33388D01*
X21695Y36000D02*
X24700D01*
X20214Y34520D02*
X21695Y36000D01*
X19279Y34520D02*
X20214D01*
X27713Y29937D02*
X28500D01*
X27522Y30128D02*
X27713Y29937D01*
X27522Y30128D02*
Y30682D01*
X16500Y22700D02*
X16701Y22901D01*
X18314D01*
X19254Y23841D01*
X20042D02*
X20232Y24032D01*
X19254Y23841D02*
X20042D01*
X13000Y22700D02*
X16500D01*
X11097Y17662D02*
X11569Y17191D01*
X11097Y17662D02*
Y21023D01*
X10917Y21203D02*
X11097Y21023D01*
X10917Y21203D02*
Y25217D01*
X13000Y27300D01*
X16500D02*
X17122Y26678D01*
X18140D01*
X18440Y26378D01*
X18786D01*
X18973Y26191D01*
X20042D01*
X20232Y26000D01*
X13000Y27300D02*
X16500D01*
X9654Y30625D02*
X12281D01*
X26259Y48997D02*
X27402Y47854D01*
X20626Y50374D02*
X21126D01*
X22343Y49158D01*
X24541D01*
X24701Y48997D01*
X26259D01*
X7273Y35264D02*
X7502Y35493D01*
X9273Y35346D02*
X9517Y35591D01*
X9273Y34518D02*
Y35346D01*
Y34518D02*
X10253Y33538D01*
X9461Y30817D02*
X9654Y30625D01*
X8483Y30817D02*
X9461D01*
X9517Y35856D02*
X10273Y36612D01*
X9517Y35591D02*
Y35856D01*
X11190Y35014D02*
X11665Y35489D01*
X11190Y34745D02*
Y35014D01*
Y34745D02*
X13046Y32889D01*
X12281Y30625D02*
X13120Y31463D01*
X2500Y31800D02*
X2700Y32000D01*
X33626Y48626D02*
Y49302D01*
X35000Y50675D01*
Y51000D01*
X30753Y51500D02*
X33626Y48626D01*
X37200Y46200D02*
X37374Y46374D01*
X36982Y46200D02*
X37200D01*
X36182Y47000D02*
X36982Y46200D01*
X35749Y47000D02*
X36182D01*
X37374Y45626D02*
Y46374D01*
X30500Y51500D02*
X30753D01*
X7500Y45000D02*
X9828D01*
X7374Y44874D02*
X7500Y45000D01*
X9955Y44874D02*
X10727D01*
X9828Y45000D02*
X9955Y44874D01*
X7374Y44202D02*
Y44874D01*
X10273Y36612D02*
Y36881D01*
X8881Y38003D02*
Y38273D01*
X7502Y36625D02*
X8881Y38003D01*
X7502Y35493D02*
Y36625D01*
X10253Y32854D02*
Y33538D01*
X7800Y31500D02*
X8483Y30817D01*
X13046Y31254D02*
Y32889D01*
X10000Y36608D02*
X10273Y36881D01*
X10000Y36500D02*
Y36608D01*
X14374Y50626D02*
X17374Y53626D01*
X17135Y47018D02*
X17626D01*
X10626Y48126D02*
X13928D01*
X13959Y48095D01*
X14788D01*
X14819Y48126D01*
X16027D01*
X17135Y47018D01*
X26263Y45337D02*
X30871D01*
X24973Y46626D02*
X26263Y45337D01*
X20018Y46626D02*
X24126D01*
X24973D01*
X17242Y41335D02*
X17511D01*
X16380Y40473D02*
X17242Y41335D01*
X16327Y40473D02*
X16380D01*
X15536Y39682D02*
X16327Y40473D01*
X13318Y39682D02*
X15536D01*
X12500Y40500D02*
X13318Y39682D01*
X12778Y44954D02*
X13335Y45511D01*
X12509Y44954D02*
X12778D01*
X12310Y45153D02*
X12509Y44954D01*
X12045Y45153D02*
X12310D01*
X11940Y45258D02*
X12045Y45153D01*
X11111Y45258D02*
X11940D01*
X10727Y44874D02*
X11111Y45258D01*
X14727Y44119D02*
X17626Y47018D01*
X16119Y42727D02*
X20018Y46626D01*
X28354Y47854D02*
X28500Y48000D01*
X27402Y47854D02*
X28354D01*
D38*
X19000Y10500D02*
D03*
D39*
X11569Y17191D02*
D03*
D40*
X19279Y34520D02*
D03*
X25500Y40744D02*
D03*
X34295D02*
D03*
X40520Y25721D02*
D03*
X34295Y19500D02*
D03*
D41*
X25500D02*
D03*
D42*
X3156Y29817D02*
D03*
X32500Y15000D02*
D03*
X45710Y18004D02*
D03*
X48500Y15794D02*
D03*
X24507Y14124D02*
D03*
X31581Y5707D02*
D03*
X10336Y28625D02*
D03*
X10482Y32625D02*
D03*
X21554Y20341D02*
D03*
X18314Y22901D02*
D03*
X39500Y9500D02*
D03*
X44500Y31500D02*
D03*
X43000Y42000D02*
D03*
X57268Y30000D02*
D03*
X26824Y31854D02*
D03*
X37208Y13478D02*
D03*
X47594Y29226D02*
D03*
X48500Y32500D02*
D03*
X41500Y37000D02*
D03*
X46000Y36000D02*
D03*
X52876Y30066D02*
D03*
X33240Y33621D02*
D03*
X7273Y35264D02*
D03*
X20000Y40000D02*
D03*
X35000Y51000D02*
D03*
X25500D02*
D03*
X9048Y42317D02*
D03*
D43*
X43500Y3000D02*
D03*
X21500Y1000D02*
D03*
X3500Y16000D02*
D03*
X36500Y500D02*
D03*
X50000Y7000D02*
D03*
X29000Y0D02*
D03*
X14000Y4500D02*
D03*
X8000Y9500D02*
D03*
D45*
X27434Y54296D02*
G03*
X27434Y54296I-2362J0D01*
G01*
D46*
X13335Y45511D02*
D03*
X14727Y44119D02*
D03*
X16119Y42727D02*
D03*
X17511Y41335D02*
D03*
X11665Y35489D02*
D03*
X10273Y36881D02*
D03*
X8881Y38273D02*
D03*
X7489Y39665D02*
D03*
D47*
X12500Y40500D02*
D03*
D48*
X20232Y24032D02*
D03*
Y26000D02*
D03*
Y27968D02*
D03*
Y29937D02*
D03*
X28500D02*
D03*
Y27968D02*
D03*
Y26000D02*
D03*
Y24032D02*
D03*
X47000Y21563D02*
D03*
Y23531D02*
D03*
Y25500D02*
D03*
Y27468D02*
D03*
X55268D02*
D03*
Y25500D02*
D03*
Y23531D02*
D03*
Y21563D02*
D03*
D49*
X24366Y26984D02*
D03*
X51134Y24516D02*
D03*
D50*
X31961Y11468D02*
D03*
Y7531D02*
D03*
X26039Y9500D02*
D03*
D51*
X30500Y51500D02*
D03*
X27861Y48870D02*
D03*
D52*
X23373Y56050D02*
D03*
D53*
X32500Y30800D02*
D03*
Y26200D02*
D03*
X13000Y27300D02*
D03*
Y22700D02*
D03*
X7500Y29300D02*
D03*
Y24700D02*
D03*
X42500Y16700D02*
D03*
Y21300D02*
D03*
X39000Y20800D02*
D03*
Y16200D02*
D03*
X36000Y6200D02*
D03*
Y10800D02*
D03*
X16500Y27300D02*
D03*
Y22700D02*
D03*
D54*
X40626Y42374D02*
D03*
X37374Y45626D02*
D03*
X17626Y47374D02*
D03*
X14374Y50626D02*
D03*
X17374Y53626D02*
D03*
X20626Y50374D02*
D03*
M02*
