G04*
G04 #@! TF.GenerationSoftware,Altium Limited,Altium Designer,20.0.13 (296)*
G04*
G04 Layer_Physical_Order=1*
G04 Layer_Color=255*
%FSLAX25Y25*%
%MOIN*%
G70*
G01*
G75*
%ADD12P,0.03062X4X270.0*%
G04:AMPARAMS|DCode=13|XSize=39.37mil|YSize=15.75mil|CornerRadius=0mil|HoleSize=0mil|Usage=FLASHONLY|Rotation=248.000|XOffset=0mil|YOffset=0mil|HoleType=Round|Shape=Rectangle|*
%AMROTATEDRECTD13*
4,1,4,0.00007,0.02120,0.01468,0.01530,-0.00007,-0.02120,-0.01468,-0.01530,0.00007,0.02120,0.0*
%
%ADD13ROTATEDRECTD13*%

%ADD14R,0.02165X0.02165*%
%ADD15R,0.02441X0.02362*%
G04:AMPARAMS|DCode=16|XSize=21.26mil|YSize=16.54mil|CornerRadius=0mil|HoleSize=0mil|Usage=FLASHONLY|Rotation=225.000|XOffset=0mil|YOffset=0mil|HoleType=Round|Shape=Rectangle|*
%AMROTATEDRECTD16*
4,1,4,0.00167,0.01336,0.01336,0.00167,-0.00167,-0.01336,-0.01336,-0.00167,0.00167,0.01336,0.0*
%
%ADD16ROTATEDRECTD16*%

%ADD17R,0.01890X0.02539*%
G04:AMPARAMS|DCode=18|XSize=78.74mil|YSize=15.75mil|CornerRadius=0mil|HoleSize=0mil|Usage=FLASHONLY|Rotation=21.000|XOffset=0mil|YOffset=0mil|HoleType=Round|Shape=Rectangle|*
%AMROTATEDRECTD18*
4,1,4,-0.03393,-0.02146,-0.03958,-0.00676,0.03393,0.02146,0.03958,0.00676,-0.03393,-0.02146,0.0*
%
%ADD18ROTATEDRECTD18*%

G04:AMPARAMS|DCode=19|XSize=59.06mil|YSize=19.68mil|CornerRadius=0mil|HoleSize=0mil|Usage=FLASHONLY|Rotation=21.000|XOffset=0mil|YOffset=0mil|HoleType=Round|Shape=Rectangle|*
%AMROTATEDRECTD19*
4,1,4,-0.02404,-0.01977,-0.03109,-0.00139,0.02404,0.01977,0.03109,0.00139,-0.02404,-0.01977,0.0*
%
%ADD19ROTATEDRECTD19*%

%ADD31C,0.00800*%
%ADD32C,0.01400*%
%ADD33C,0.04693*%
%ADD34R,0.04693X0.04693*%
%ADD35C,0.06000*%
%ADD36C,0.02000*%
G36*
X36188Y53213D02*
X35869Y52824D01*
X35780Y52884D01*
X35500Y52940D01*
Y51500D01*
X36940D01*
X36884Y51780D01*
X36825Y51869D01*
X37213Y52188D01*
X43620Y45781D01*
X43595Y45099D01*
X40719Y42223D01*
X38721Y44221D01*
X38721Y44221D01*
X37721Y45221D01*
X37390Y45442D01*
X37000Y45520D01*
X29256D01*
X28866Y45442D01*
X28535Y45221D01*
X26735Y43422D01*
X26269Y43615D01*
X25500Y43716D01*
X24731Y43615D01*
X24014Y43318D01*
X23399Y42845D01*
X22926Y42230D01*
X22629Y41513D01*
X22528Y40744D01*
X22629Y39975D01*
X22926Y39258D01*
X23399Y38643D01*
X24014Y38170D01*
X24731Y37874D01*
X25500Y37772D01*
X26269Y37874D01*
X26986Y38170D01*
X27601Y38643D01*
X28074Y39258D01*
X28371Y39975D01*
X28472Y40744D01*
X28371Y41513D01*
X28177Y41980D01*
X29678Y43480D01*
X32200D01*
X32370Y42980D01*
X32194Y42845D01*
X31722Y42230D01*
X31425Y41513D01*
X31323Y40744D01*
X31425Y39975D01*
X31555Y39660D01*
X29197Y37303D01*
X28977Y36972D01*
X28899Y36582D01*
Y34512D01*
X28876Y34507D01*
X28346Y34154D01*
X27993Y33624D01*
X27869Y33000D01*
X27993Y32376D01*
X28346Y31846D01*
X28876Y31493D01*
X29007Y31467D01*
X29171Y30924D01*
X28291Y30044D01*
X28070Y29714D01*
X28036Y29540D01*
X25959Y27463D01*
X25470Y27567D01*
X25010Y28766D01*
X25010D01*
X24057Y31247D01*
X25895Y31953D01*
X24901Y34543D01*
X22640Y33675D01*
X22188Y34037D01*
X22251Y34520D01*
X22150Y35289D01*
X21853Y36006D01*
X21381Y36621D01*
X20765Y37093D01*
X20049Y37390D01*
X19279Y37492D01*
X18510Y37390D01*
X17794Y37093D01*
X17178Y36621D01*
X16706Y36006D01*
X16409Y35289D01*
X16308Y34520D01*
X16409Y33751D01*
X16706Y33034D01*
X17178Y32418D01*
X17442Y32216D01*
X17360Y31648D01*
X16429Y31291D01*
X17424Y28701D01*
X17424D01*
X18369Y26237D01*
X18369D01*
X19322Y23756D01*
X19322D01*
X19641Y22925D01*
X19221Y22653D01*
X18437Y23437D01*
X18007Y23725D01*
X17500Y23825D01*
X10983D01*
Y24183D01*
X10344D01*
Y24490D01*
X10243Y24997D01*
X9955Y25427D01*
X8975Y26407D01*
X8634Y26635D01*
X8513Y26816D01*
Y28734D01*
X7232D01*
X6922Y29234D01*
X6940Y29325D01*
X5000D01*
Y30325D01*
X6940D01*
X6910Y30473D01*
X6945Y30516D01*
X6945D01*
Y32285D01*
X5000D01*
Y33285D01*
X6945D01*
Y33363D01*
X7273Y33632D01*
X7897Y33757D01*
X8426Y34110D01*
X8661Y34461D01*
X9184Y34622D01*
X9285Y34617D01*
X9463Y34486D01*
Y33868D01*
X9329Y33778D01*
X8975Y33249D01*
X8851Y32625D01*
X8975Y32000D01*
X9329Y31471D01*
X9858Y31117D01*
X10482Y30993D01*
X11106Y31117D01*
X11636Y31471D01*
X11989Y32000D01*
X12113Y32625D01*
X11989Y33249D01*
X11636Y33778D01*
X11502Y33868D01*
Y35293D01*
X11424Y35683D01*
X11203Y36014D01*
X9861Y37355D01*
X10053Y37817D01*
X11483D01*
Y41183D01*
X10820D01*
Y42012D01*
X10742Y42402D01*
X10629Y42571D01*
X10580Y42817D01*
X10860Y43317D01*
X10883D01*
Y46604D01*
X11292Y46902D01*
X11606Y46588D01*
X11617Y46600D01*
X12117Y46393D01*
Y43317D01*
X14041D01*
X17923Y39435D01*
X18254Y39214D01*
X18644Y39136D01*
X18653D01*
X18846Y38846D01*
X19376Y38493D01*
X20000Y38369D01*
X20624Y38493D01*
X21154Y38846D01*
X21507Y39376D01*
X21631Y40000D01*
X21507Y40624D01*
X21154Y41153D01*
X20624Y41507D01*
X20000Y41631D01*
X19376Y41507D01*
X18992Y41250D01*
X16198Y44044D01*
X16221Y44279D01*
X18221Y46279D01*
X18442Y46610D01*
X18520Y47000D01*
Y49974D01*
X18679Y50408D01*
X22321D01*
Y51169D01*
X23389D01*
X23946Y50612D01*
X23993Y50376D01*
X24347Y49847D01*
X24876Y49493D01*
X25500Y49369D01*
X26026Y49473D01*
X26168D01*
X26558Y49551D01*
X26889Y49772D01*
X27214Y50097D01*
X27435Y50427D01*
X27441Y50458D01*
X29521Y52538D01*
X29742Y52869D01*
X29820Y53259D01*
Y55817D01*
X30983D01*
Y57765D01*
X31445Y57956D01*
X36188Y53213D01*
D02*
G37*
G36*
X59444Y29957D02*
Y28249D01*
X59239Y26496D01*
X58809Y26241D01*
X58554Y26344D01*
X57442Y23592D01*
X56515Y23966D01*
X57627Y26719D01*
X56434Y27201D01*
X56284Y26830D01*
X55760Y27042D01*
X55721Y27238D01*
X55721Y27239D01*
Y27799D01*
X55643Y28189D01*
X55422Y28520D01*
X54402Y29539D01*
X54507Y30066D01*
X54383Y30690D01*
X54029Y31219D01*
X53500Y31573D01*
X52876Y31697D01*
X52251Y31573D01*
X51722Y31219D01*
X51368Y30690D01*
X51244Y30066D01*
X51368Y29441D01*
X51661Y29004D01*
X51909Y28598D01*
X51818Y28371D01*
X49985Y23835D01*
X52358Y22876D01*
Y22876D01*
X53969Y22225D01*
X54008Y21894D01*
X53561Y21561D01*
X52070Y22163D01*
Y22163D01*
X49697Y23122D01*
X47850Y18552D01*
X47626Y18506D01*
X47626D01*
X45247Y16126D01*
X47091Y14282D01*
X47042Y13784D01*
X46847Y13654D01*
X46567Y13626D01*
X46200Y13993D01*
X45081Y12874D01*
X46361Y11594D01*
X46707Y11555D01*
X46847Y11347D01*
X47376Y10993D01*
X48000Y10869D01*
X48624Y10993D01*
X49154Y11347D01*
X49243Y11480D01*
X49683D01*
X50074Y11558D01*
X50404Y11779D01*
X53958Y15333D01*
X54180Y15664D01*
X54293Y15725D01*
X55063Y15414D01*
X55185Y15334D01*
X55287Y14845D01*
X53692Y12413D01*
X51499Y9794D01*
X49019Y7446D01*
X47802Y6537D01*
X47583Y6665D01*
X39417D01*
X39489Y6121D01*
X39892Y5148D01*
X40533Y4312D01*
X41369Y3671D01*
X41709Y3530D01*
X41714Y2987D01*
X40195Y2328D01*
X39053Y1983D01*
X38778Y2422D01*
X39098Y3194D01*
X39222Y4134D01*
X39098Y5074D01*
X38735Y5949D01*
X38158Y6701D01*
X37406Y7278D01*
X36530Y7641D01*
X35591Y7765D01*
X34651Y7641D01*
X33775Y7278D01*
X33023Y6701D01*
X32446Y5949D01*
X32083Y5074D01*
X31960Y4134D01*
X32083Y3194D01*
X32446Y2318D01*
X33023Y1566D01*
X33458Y1233D01*
X33301Y722D01*
X30153Y530D01*
X29856Y546D01*
X29699Y1056D01*
X29851Y1173D01*
X30428Y1925D01*
X30791Y2800D01*
X30915Y3740D01*
X30791Y4680D01*
X30428Y5556D01*
X29851Y6308D01*
X29099Y6885D01*
X28223Y7248D01*
X27283Y7371D01*
X26344Y7248D01*
X25468Y6885D01*
X24716Y6308D01*
X24139Y5556D01*
X23776Y4680D01*
X23652Y3740D01*
X23776Y2800D01*
X24139Y1925D01*
X24359Y1638D01*
X24081Y1178D01*
X23377Y1300D01*
X20963Y2014D01*
X20935Y2543D01*
X21461Y2761D01*
X22213Y3338D01*
X22790Y4090D01*
X23153Y4966D01*
X23277Y5906D01*
X23153Y6845D01*
X22790Y7721D01*
X22213Y8473D01*
X21461Y9050D01*
X20665Y9380D01*
Y9909D01*
X20588Y10299D01*
X20367Y10630D01*
X16248Y14748D01*
X22092Y20592D01*
X22554Y20400D01*
Y16554D01*
X28446D01*
Y22341D01*
X29493Y23387D01*
X29993Y23180D01*
Y21205D01*
X29929Y20886D01*
Y15871D01*
X28279Y14221D01*
X28058Y13890D01*
X27980Y13500D01*
Y11743D01*
X27847Y11654D01*
X27493Y11124D01*
X27369Y10500D01*
X27493Y9876D01*
X27847Y9347D01*
X28376Y8993D01*
X29000Y8869D01*
X29624Y8993D01*
X30154Y9347D01*
X30507Y9876D01*
X30631Y10500D01*
X30507Y11124D01*
X30154Y11654D01*
X30020Y11743D01*
Y13078D01*
X31670Y14728D01*
X31891Y15059D01*
X31968Y15449D01*
Y16502D01*
X32417Y16723D01*
X32608Y16577D01*
X33422Y16240D01*
X33795Y16191D01*
Y19500D01*
Y22809D01*
X33422Y22760D01*
X32608Y22423D01*
X32480Y22325D01*
X32032Y22547D01*
Y26257D01*
X32166Y26346D01*
X32519Y26876D01*
X32644Y27500D01*
X32519Y28124D01*
X32278Y28485D01*
X32574Y28936D01*
X33000Y28851D01*
X33167Y28885D01*
X34099Y26457D01*
X37843Y27894D01*
X38154Y27478D01*
X37946Y27206D01*
X37649Y26490D01*
X37548Y25721D01*
X37649Y24951D01*
X37946Y24235D01*
X38418Y23619D01*
X39034Y23147D01*
X39750Y22850D01*
X40520Y22749D01*
X41289Y22850D01*
X42006Y23147D01*
X42621Y23619D01*
X43093Y24235D01*
X43390Y24951D01*
X43492Y25721D01*
X43390Y26490D01*
X43093Y27206D01*
X42621Y27822D01*
X42006Y28294D01*
X41289Y28591D01*
X41114Y28614D01*
X41054Y29126D01*
X42571Y29709D01*
X41750Y31845D01*
X42034Y32257D01*
X46917D01*
X46993Y31876D01*
X47346Y31346D01*
X47876Y30993D01*
X48500Y30869D01*
X49124Y30993D01*
X49589Y31304D01*
X49647Y31315D01*
X49978Y31536D01*
X50199Y31867D01*
X50277Y32257D01*
X50199Y32647D01*
X50061Y32854D01*
X50007Y33124D01*
X49654Y33654D01*
X49124Y34007D01*
X48500Y34131D01*
X48078Y34047D01*
X47822Y34219D01*
X47778Y34227D01*
X47587Y34775D01*
X47884Y35220D01*
X47940Y35500D01*
X46000D01*
Y36000D01*
X45500D01*
Y37940D01*
X45220Y37884D01*
X45020Y37750D01*
X44520Y38000D01*
X44442Y38390D01*
X44221Y38721D01*
X42221Y40721D01*
X45430Y43930D01*
X59444Y29957D01*
D02*
G37*
%LPC*%
G36*
X34500Y52940D02*
X34220Y52884D01*
X33558Y52442D01*
X33116Y51780D01*
X33060Y51500D01*
X34500D01*
Y52940D01*
D02*
G37*
G36*
X36940Y50500D02*
X35500D01*
Y49060D01*
X35780Y49116D01*
X36442Y49558D01*
X36884Y50220D01*
X36940Y50500D01*
D02*
G37*
G36*
X34500D02*
X33060D01*
X33116Y50220D01*
X33558Y49558D01*
X34220Y49116D01*
X34500Y49060D01*
Y50500D01*
D02*
G37*
G36*
X46500Y37940D02*
Y36500D01*
X47940D01*
X47884Y36780D01*
X47442Y37442D01*
X46780Y37884D01*
X46500Y37940D01*
D02*
G37*
G36*
X34795Y22809D02*
Y20000D01*
X37605D01*
X37556Y20374D01*
X37218Y21188D01*
X36682Y21887D01*
X35983Y22423D01*
X35169Y22760D01*
X34795Y22809D01*
D02*
G37*
G36*
X37605Y19000D02*
X34795D01*
Y16191D01*
X35169Y16240D01*
X35983Y16577D01*
X36682Y17113D01*
X37218Y17812D01*
X37556Y18626D01*
X37605Y19000D01*
D02*
G37*
G36*
X44374Y15819D02*
X43255Y14700D01*
X44374Y13581D01*
X45493Y14700D01*
X44374Y15819D01*
D02*
G37*
G36*
X42547Y13993D02*
X41428Y12874D01*
X42735Y11567D01*
X42575Y11093D01*
X42342Y11062D01*
X41369Y10659D01*
X40533Y10018D01*
X39892Y9183D01*
X39489Y8210D01*
X39417Y7665D01*
X47355D01*
X47283Y8210D01*
X46880Y9183D01*
X46239Y10018D01*
X45634Y10482D01*
X45563Y10978D01*
X44020Y12520D01*
X42547Y13993D01*
D02*
G37*
%LPD*%
D12*
X44374Y12874D02*
D03*
X47626Y16126D02*
D03*
D13*
X54767Y18304D02*
D03*
X52394Y19262D02*
D03*
X50021Y20221D02*
D03*
X52233Y25696D02*
D03*
X54606Y24738D02*
D03*
X56979Y23779D02*
D03*
D14*
X29300Y57500D02*
D03*
X24700D02*
D03*
X9200Y45000D02*
D03*
X13800D02*
D03*
X9800Y39500D02*
D03*
X5200D02*
D03*
X4700Y22500D02*
D03*
X9300D02*
D03*
D15*
X20500Y52189D02*
D03*
Y55811D02*
D03*
D16*
X16227Y53227D02*
D03*
X11773Y48773D02*
D03*
D17*
X3032Y26864D02*
D03*
X6968D02*
D03*
X5000Y32785D02*
D03*
D18*
X37838Y29378D02*
D03*
X34945Y36913D02*
D03*
X21162Y31622D02*
D03*
X24055Y24087D02*
D03*
D19*
X37875Y32028D02*
D03*
X36746Y34968D02*
D03*
X21125Y28972D02*
D03*
X22254Y26032D02*
D03*
D31*
X52876Y29624D02*
Y30066D01*
Y29624D02*
X54701Y27799D01*
X37500Y38000D02*
X39510D01*
X36499Y36999D02*
X37500Y38000D01*
X36275Y36913D02*
X36499Y36999D01*
X39744Y37766D02*
X40280Y37230D01*
X34945Y36913D02*
X36275D01*
X39510Y38000D02*
X39744Y37766D01*
X38000Y43500D02*
X38000D01*
X29256Y44500D02*
X37000D01*
X38000Y43500D01*
X25500Y40744D02*
X29256Y44500D01*
X7043Y35493D02*
X7273Y35264D01*
X7436Y37264D02*
X8511D01*
X5200Y39500D02*
X7436Y37264D01*
X10482Y32625D02*
Y35293D01*
X8511Y37264D02*
X10482Y35293D01*
X4950Y22250D02*
X6979Y20221D01*
X4450Y22250D02*
X4700Y22000D01*
X29000Y10500D02*
Y13500D01*
X30949Y15449D01*
X9334Y20221D02*
X19646Y9909D01*
Y5906D02*
Y9909D01*
X49683Y12500D02*
X53237Y16054D01*
X48000Y12500D02*
X49683D01*
X49126Y15799D02*
X51225Y17898D01*
X53237Y16054D02*
Y16579D01*
X51326Y17898D02*
X52394Y18965D01*
X51225Y17898D02*
X51326D01*
X31012Y20950D02*
Y27500D01*
X30949Y20886D02*
X31012Y20950D01*
X30949Y15449D02*
Y20886D01*
X29012Y24349D02*
Y29323D01*
X33020Y30483D02*
X34625Y28878D01*
X29012Y29323D02*
X32172Y32483D01*
X29500Y32810D02*
Y33000D01*
Y32810D02*
X29919Y32392D01*
X33000Y30483D02*
X33020D01*
X33148Y32483D02*
X35134Y34468D01*
X32172Y32483D02*
X33148D01*
X29919Y32392D02*
Y36582D01*
X34625Y28878D02*
X35622D01*
X25500Y19500D02*
X27227Y21227D01*
Y22563D02*
X29012Y24349D01*
X27227Y21227D02*
Y22563D01*
X35134Y34468D02*
X37246D01*
X13800Y45000D02*
X18644Y40156D01*
X19844D01*
X20000Y40000D01*
X3531Y23168D02*
X4450Y22250D01*
X6979Y20221D02*
X9334D01*
X4700Y22500D02*
X4950Y22250D01*
X4000Y35500D02*
X6614D01*
X3000Y36500D02*
X4000Y35500D01*
X3531Y23168D02*
Y26039D01*
X4500Y42380D02*
Y44000D01*
X8500Y48000D02*
X10396D01*
X4500Y44000D02*
X8500Y48000D01*
X3000Y36500D02*
Y40880D01*
X5514Y39814D02*
Y41414D01*
X5900Y42728D02*
X8172Y45000D01*
X3000Y40880D02*
X4500Y42380D01*
X5514Y41414D02*
X5900Y41800D01*
Y42728D01*
X5200Y39500D02*
X5514Y39814D01*
X41270Y37230D02*
X41500Y37000D01*
X40280Y37230D02*
X41270D01*
X38000Y43500D02*
X43500Y38000D01*
X40785Y33277D02*
X43500Y35992D01*
Y38000D01*
X34081Y40744D02*
X34295D01*
X29919Y36582D02*
X34081Y40744D01*
X28800Y53259D02*
Y57500D01*
X26493Y50952D02*
X28800Y53259D01*
X26493Y50818D02*
Y50952D01*
X26168Y50493D02*
X26493Y50818D01*
X20500Y52189D02*
X23811D01*
X25507Y50493D01*
X26168D01*
X9048Y42317D02*
Y42764D01*
X8172Y45000D02*
X9200D01*
X9000Y42812D02*
X9800Y42012D01*
Y39500D02*
Y42012D01*
X22453Y25833D02*
Y26895D01*
X22754Y25532D02*
X24055Y24231D01*
X22254Y26032D02*
X22453Y25833D01*
X24055Y24087D02*
Y24231D01*
X48500Y32257D02*
X49257D01*
X39478Y32028D02*
X40727Y33277D01*
X48208Y32500D02*
X49014D01*
X37875Y32028D02*
X39478D01*
X40727Y33277D02*
X40785D01*
X47431D01*
X48208Y32500D01*
X49014D02*
X49257Y32257D01*
X6621Y35493D02*
X7043D01*
X6614Y35500D02*
X6621Y35493D01*
X11169Y48773D02*
X11773D01*
X10396Y48000D02*
X11169Y48773D01*
X5500Y29825D02*
Y32772D01*
X54701Y24738D02*
X54779Y24816D01*
Y26848D01*
X54701Y26926D02*
X54779Y26848D01*
X54701Y26926D02*
Y27799D01*
X20500Y55811D02*
X22511D01*
X24200Y57500D01*
X19680Y55030D02*
X20461Y55811D01*
X20500D01*
X18280Y53712D02*
Y53784D01*
X18865Y54370D01*
X17811Y53244D02*
X18280Y53712D01*
X16998Y53394D02*
X17148Y53244D01*
X16227Y53227D02*
X16394Y53394D01*
X19059Y54370D02*
X19680Y54991D01*
X18865Y54370D02*
X19059D01*
X17148Y53244D02*
X17811D01*
X16394Y53394D02*
X16998D01*
X19680Y54991D02*
Y55030D01*
X13800Y45000D02*
X15500D01*
X17500Y47000D02*
Y51954D01*
X15500Y45000D02*
X17500Y47000D01*
X16227Y53227D02*
X17500Y51954D01*
X53237Y16579D02*
X53382Y16937D01*
X54749Y18304D01*
X54767D01*
X49126Y15626D02*
Y15799D01*
X52394Y18965D02*
Y19262D01*
X40520Y25721D02*
X40636Y25837D01*
X34295Y19500D02*
X38747D01*
X45874Y12374D01*
X34295Y19500D02*
X35040Y18755D01*
X22453Y25833D02*
X22754Y25532D01*
X21625Y27722D02*
X22453Y26895D01*
X21625Y27722D02*
Y31442D01*
X22754Y25532D02*
X23599D01*
X21486Y31581D02*
X21625Y31442D01*
X19279Y34520D02*
X21486Y32313D01*
Y31581D02*
Y32313D01*
D32*
X9800Y22500D02*
X17500D01*
X9018Y23282D02*
X9800Y22500D01*
X17500D02*
X21500Y18500D01*
X9018Y23282D02*
Y24490D01*
X7468Y25715D02*
Y26039D01*
Y25715D02*
X7713Y25470D01*
X8038D01*
X9018Y24490D01*
D33*
X19279Y34520D02*
D03*
X25500Y40744D02*
D03*
X34295D02*
D03*
X40520Y25721D02*
D03*
X34295Y19500D02*
D03*
D34*
X25500D02*
D03*
D35*
X7677Y16220D02*
D03*
X12992Y10118D02*
D03*
X19646Y5906D02*
D03*
X27283Y3740D02*
D03*
X35591Y4134D02*
D03*
X43386Y7165D02*
D03*
D36*
X52876Y30066D02*
D03*
X7273Y35264D02*
D03*
X10482Y32625D02*
D03*
X29000Y10500D02*
D03*
X46000Y36000D02*
D03*
X48000Y12500D02*
D03*
X31012Y27500D02*
D03*
X29500Y33000D02*
D03*
X33000Y30483D02*
D03*
X20000Y40000D02*
D03*
X5000Y29825D02*
D03*
X41500Y37000D02*
D03*
X35000Y51000D02*
D03*
X25500D02*
D03*
X9048Y42317D02*
D03*
X48500Y32500D02*
D03*
M02*
