M48
;Layer_Color=9474304
;FILE_FORMAT=2:5
INCH,TZ
;TYPE=PLATED
T1F00S00C0.01000
T2F00S00C0.02559
%
T01
X5000Y29825
X7273Y35264
X10482Y32625
X9048Y42317
X20000Y40000
X29500Y33000
X33000Y30483
X31012Y27500
X29000Y10500
X48000Y12500
X48500Y32500
X46000Y36000
X41500Y37000
X52876Y30066
X35000Y51000
X25500
T02
X12992Y10118
X19646Y5906
X27283Y3740
X35591Y4134
X43386Y7165
X40520Y25721
X34295Y19500
X25500
X7677Y16220
X19279Y34520
X25500Y40744
X34295
M30
