G04*
G04 #@! TF.GenerationSoftware,Altium Limited,Altium Designer,20.0.13 (296)*
G04*
G04 Layer_Color=8388736*
%FSLAX25Y25*%
%MOIN*%
G70*
G01*
G75*
G04:AMPARAMS|DCode=21|XSize=106.42mil|YSize=23.75mil|CornerRadius=0mil|HoleSize=0mil|Usage=FLASHONLY|Rotation=21.000|XOffset=0mil|YOffset=0mil|HoleType=Round|Shape=Rectangle|*
%AMROTATEDRECTD21*
4,1,4,-0.04542,-0.03016,-0.05393,-0.00798,0.04542,0.03016,0.05393,0.00798,-0.04542,-0.03016,0.0*
%
%ADD21ROTATEDRECTD21*%

G04:AMPARAMS|DCode=22|XSize=67.06mil|YSize=27.69mil|CornerRadius=0mil|HoleSize=0mil|Usage=FLASHONLY|Rotation=21.000|XOffset=0mil|YOffset=0mil|HoleType=Round|Shape=Rectangle|*
%AMROTATEDRECTD22*
4,1,4,-0.02634,-0.02494,-0.03626,0.00091,0.02634,0.02494,0.03626,-0.00091,-0.02634,-0.02494,0.0*
%
%ADD22ROTATEDRECTD22*%

G04:AMPARAMS|DCode=23|XSize=86.74mil|YSize=23.75mil|CornerRadius=0mil|HoleSize=0mil|Usage=FLASHONLY|Rotation=21.000|XOffset=0mil|YOffset=0mil|HoleType=Round|Shape=Rectangle|*
%AMROTATEDRECTD23*
4,1,4,-0.03623,-0.02663,-0.04475,-0.00446,0.03623,0.02663,0.04475,0.00446,-0.03623,-0.02663,0.0*
%
%ADD23ROTATEDRECTD23*%

%ADD24R,0.02690X0.03339*%
%ADD25R,0.03241X0.03162*%
G04:AMPARAMS|DCode=26|XSize=47.37mil|YSize=23.75mil|CornerRadius=0mil|HoleSize=0mil|Usage=FLASHONLY|Rotation=248.000|XOffset=0mil|YOffset=0mil|HoleType=Round|Shape=Rectangle|*
%AMROTATEDRECTD26*
4,1,4,-0.00214,0.02641,0.01988,0.01751,0.00214,-0.02641,-0.01988,-0.01751,-0.00214,0.02641,0.0*
%
%ADD26ROTATEDRECTD26*%

%ADD27P,0.04194X4X270.0*%
%ADD28R,0.02965X0.02965*%
G04:AMPARAMS|DCode=29|XSize=29.26mil|YSize=24.54mil|CornerRadius=0mil|HoleSize=0mil|Usage=FLASHONLY|Rotation=225.000|XOffset=0mil|YOffset=0mil|HoleType=Round|Shape=Rectangle|*
%AMROTATEDRECTD29*
4,1,4,0.00167,0.01902,0.01902,0.00167,-0.00167,-0.01902,-0.01902,-0.00167,0.00167,0.01902,0.0*
%
%ADD29ROTATEDRECTD29*%

%ADD30P,0.09901X4X183.0*%
%ADD31C,0.07001*%
%ADD32C,0.05493*%
%ADD33R,0.05493X0.05493*%
%ADD34C,0.01378*%
%ADD35C,0.07099*%
D21*
X24973Y24440D02*
D03*
D22*
X22254Y26032D02*
D03*
X21125Y28972D02*
D03*
X36746Y34968D02*
D03*
X37875Y32028D02*
D03*
D23*
X21162Y31622D02*
D03*
X34945Y36913D02*
D03*
X37838Y29378D02*
D03*
D24*
X3032Y26864D02*
D03*
X6968D02*
D03*
X5000Y32785D02*
D03*
D25*
X20500Y52189D02*
D03*
Y55811D02*
D03*
D26*
X54767Y18304D02*
D03*
X52394Y19262D02*
D03*
X50021Y20221D02*
D03*
X52233Y25696D02*
D03*
X54606Y24738D02*
D03*
X56979Y23779D02*
D03*
D27*
X42747Y11247D02*
D03*
X46000Y14500D02*
D03*
D28*
X9200Y45000D02*
D03*
X13800D02*
D03*
X5200Y39500D02*
D03*
X9800D02*
D03*
X4700Y22500D02*
D03*
X9300D02*
D03*
X24700Y57500D02*
D03*
X29300D02*
D03*
D29*
X16227Y53227D02*
D03*
X11773Y48773D02*
D03*
D30*
X19000Y10500D02*
D03*
D31*
X11569Y17191D02*
D03*
D32*
X19279Y34520D02*
D03*
X25500Y40744D02*
D03*
X34295D02*
D03*
X40520Y25721D02*
D03*
X34295Y19500D02*
D03*
D33*
X25500D02*
D03*
D34*
X25071Y54296D02*
D03*
D35*
X43500Y3000D02*
D03*
X21500Y1000D02*
D03*
X3500Y16000D02*
D03*
X36500Y500D02*
D03*
X50000Y7000D02*
D03*
X29000Y0D02*
D03*
X14000Y4500D02*
D03*
X8000Y9500D02*
D03*
M02*
