M48
;Layer_Color=9474304
;FILE_FORMAT=2:4
INCH
;TYPE=PLATED
T1F00S00C0.0118
T2F00S00C0.0276
T3F00S00C0.0280
T4F00S00C0.0315
T5F00S00C0.0354
T6F00S00C0.0413
%
T01
X011750Y007450
X011450Y008000
X014300Y007650
T02
X013627Y005475
X015595
T03
X004250Y005600
X005800
X006150Y006200
X005600Y006500
X007300Y006750
X009100Y004350
X010900Y006000
X011100Y007400
X012300Y006600
T04
X014296Y005396
X014926
X015241Y005947
X014611
X013981
T05
X009800Y003300
X010979Y003223
X015750Y002900
Y003900
T06
X007771Y008113
X008771
M30
