G04*
G04 #@! TF.GenerationSoftware,Altium Limited,Altium Designer,20.0.13 (296)*
G04*
G04 Layer_Physical_Order=3*
G04 Layer_Color=16440176*
%FSLAX25Y25*%
%MOIN*%
G70*
G01*
G75*
%ADD13C,0.01000*%
%ADD14C,0.00600*%
%ADD48C,0.01772*%
%ADD49C,0.06299*%
%ADD51C,0.01800*%
G36*
X43146Y56933D02*
X43149Y56433D01*
X36844Y50128D01*
X36719Y49825D01*
X36686Y49745D01*
X36844Y49363D01*
X36845Y49363D01*
X49372Y36835D01*
X49675Y36709D01*
X49755Y36677D01*
X50137Y36835D01*
X50137Y36835D01*
X56862Y43560D01*
X60000Y40500D01*
Y35801D01*
X59500Y35649D01*
X59360Y35860D01*
X58736Y36276D01*
X58500Y36323D01*
Y34500D01*
Y32677D01*
X58736Y32724D01*
X59360Y33140D01*
X59500Y33351D01*
X60000Y33199D01*
Y28392D01*
X59656Y25194D01*
X58973Y22052D01*
X57957Y19000D01*
X56621Y16075D01*
X54980Y13309D01*
X53053Y10734D01*
X50861Y8381D01*
X48430Y6274D01*
X45789Y4440D01*
X42966Y2899D01*
X39995Y1668D01*
X36909Y762D01*
X34507Y329D01*
X34103Y624D01*
X34043Y1083D01*
X33625Y2093D01*
X32959Y2960D01*
X32093Y3625D01*
X31083Y4043D01*
X30988Y4055D01*
X30867Y4576D01*
X30980Y4651D01*
X31286Y5109D01*
X31394Y5650D01*
X31286Y6191D01*
X30980Y6649D01*
X30521Y6955D01*
X29981Y7063D01*
X29702Y7007D01*
X26816Y9894D01*
Y12414D01*
X26816Y12414D01*
X26754Y12726D01*
X26577Y12991D01*
X26577Y12991D01*
X25605Y13963D01*
X25341Y14139D01*
X25028Y14201D01*
X25028Y14201D01*
X23423D01*
X23173Y14702D01*
X23345Y14959D01*
X23453Y15500D01*
X23345Y16041D01*
X23039Y16499D01*
X22581Y16805D01*
X22040Y16913D01*
X21499Y16805D01*
X21041Y16499D01*
X20735Y16041D01*
X20627Y15500D01*
X20735Y14959D01*
X20907Y14702D01*
X20658Y14201D01*
X19386D01*
X19386Y14201D01*
X19074Y14139D01*
X18809Y13963D01*
X18809Y13963D01*
X17962Y13116D01*
X17597Y13189D01*
X17056Y13081D01*
X16799Y12909D01*
X16268Y12804D01*
X15809Y13110D01*
X15269Y13218D01*
X14728Y13110D01*
X14269Y12804D01*
X14134Y12602D01*
X13679Y12780D01*
X13660Y12792D01*
X13554Y13328D01*
X13248Y13786D01*
X13051Y13917D01*
X13043Y14513D01*
X13196Y14615D01*
X13502Y15073D01*
X13610Y15614D01*
X13502Y16155D01*
X13196Y16613D01*
X12738Y16920D01*
X12197Y17027D01*
X11656Y16920D01*
X11198Y16613D01*
X10891Y16155D01*
X10784Y15614D01*
X10891Y15073D01*
X11198Y14615D01*
X11394Y14484D01*
X11402Y13888D01*
X11249Y13786D01*
X10943Y13328D01*
X10835Y12787D01*
X10943Y12246D01*
X11249Y11788D01*
X11708Y11482D01*
X12248Y11374D01*
X12789Y11482D01*
X13248Y11788D01*
X13383Y11990D01*
X13838Y11812D01*
X13857Y11800D01*
X13963Y11264D01*
X14269Y10806D01*
X14728Y10499D01*
X15269Y10392D01*
X15809Y10499D01*
X16067Y10671D01*
X16598Y10776D01*
X16699Y10709D01*
X16981Y10337D01*
X16827Y10068D01*
X16688Y9860D01*
X16581Y9320D01*
X16688Y8779D01*
X16995Y8321D01*
X17453Y8014D01*
X17994Y7907D01*
X18534Y8014D01*
X18727Y8143D01*
X18904Y7879D01*
X19528Y7462D01*
X19764Y7415D01*
Y9238D01*
X20264D01*
Y9738D01*
X22087D01*
X22040Y9974D01*
X22369Y10177D01*
X22379Y10179D01*
X22838Y10486D01*
X23413Y10499D01*
X23570Y10395D01*
X24110Y10287D01*
X24651Y10395D01*
X24684Y10417D01*
X25184Y10150D01*
Y9556D01*
X25184Y9556D01*
X25246Y9244D01*
X25423Y8979D01*
X28598Y5804D01*
X28568Y5650D01*
X28675Y5109D01*
X28982Y4651D01*
X29101Y4571D01*
X28979Y4051D01*
X28917Y4043D01*
X27907Y3625D01*
X27040Y2960D01*
X26687Y2499D01*
X26464Y2506D01*
X26005Y2812D01*
X25465Y2920D01*
X25393Y2906D01*
X24807Y3290D01*
X24805Y3296D01*
X24499Y3754D01*
X24041Y4061D01*
X23500Y4168D01*
X22959Y4061D01*
X22501Y3754D01*
X22195Y3296D01*
X22087Y2755D01*
X22195Y2214D01*
X22501Y1756D01*
X22959Y1450D01*
X23500Y1342D01*
X23749Y1000D01*
X23393Y725D01*
X21023Y1330D01*
X19635Y1847D01*
X19435Y2306D01*
X19556Y2597D01*
X19681Y3550D01*
X19556Y4502D01*
X19188Y5390D01*
X18603Y6152D01*
X17841Y6737D01*
X16953Y7105D01*
X16000Y7231D01*
X15047Y7105D01*
X14160Y6737D01*
X13397Y6152D01*
X12855Y5446D01*
X12404Y5651D01*
X9924Y7650D01*
X8845Y8728D01*
X9010Y9271D01*
X9373Y9343D01*
X9997Y9760D01*
X10414Y10384D01*
X10461Y10620D01*
X8637D01*
Y11120D01*
X8138D01*
Y12943D01*
X7902Y12896D01*
X7799Y12827D01*
X7395Y13159D01*
X7556Y13547D01*
X7681Y14500D01*
X7556Y15453D01*
X7188Y16341D01*
X6603Y17103D01*
X5841Y17688D01*
X4953Y18056D01*
X4000Y18181D01*
X3047Y18056D01*
X2915Y18001D01*
X2343Y18304D01*
X1330Y21023D01*
X534Y24139D01*
X77Y27322D01*
X-38Y30536D01*
X191Y33744D01*
X762Y36909D01*
X1668Y39995D01*
X2899Y42966D01*
X4440Y45789D01*
X6274Y48430D01*
X8381Y50861D01*
X10734Y53053D01*
X13309Y54980D01*
X16075Y56621D01*
X19000Y57957D01*
X22052Y58973D01*
X25194Y59656D01*
X28392Y60000D01*
X40000D01*
X43146Y56933D01*
D02*
G37*
%LPC*%
G36*
X35829Y48349D02*
X35289Y48241D01*
X34830Y47935D01*
X34524Y47477D01*
X34416Y46936D01*
X34524Y46395D01*
X34830Y45937D01*
X35289Y45630D01*
X35829Y45523D01*
X36370Y45630D01*
X36829Y45937D01*
X37135Y46395D01*
X37242Y46936D01*
X37135Y47477D01*
X36829Y47935D01*
X36370Y48241D01*
X35829Y48349D01*
D02*
G37*
G36*
X12500Y47913D02*
X11959Y47805D01*
X11501Y47499D01*
X11195Y47041D01*
X11087Y46500D01*
X11195Y45959D01*
X11501Y45501D01*
X11959Y45195D01*
X12500Y45087D01*
X13041Y45195D01*
X13499Y45501D01*
X13805Y45959D01*
X13913Y46500D01*
X13805Y47041D01*
X13499Y47499D01*
X13041Y47805D01*
X12500Y47913D01*
D02*
G37*
G36*
X32064Y46170D02*
X31523Y46062D01*
X31065Y45756D01*
X30759Y45297D01*
X30651Y44757D01*
X30759Y44216D01*
X31065Y43758D01*
X31523Y43451D01*
X32064Y43344D01*
X32605Y43451D01*
X33063Y43758D01*
X33370Y44216D01*
X33477Y44757D01*
X33370Y45297D01*
X33063Y45756D01*
X32605Y46062D01*
X32064Y46170D01*
D02*
G37*
G36*
X16032Y45778D02*
X15491Y45671D01*
X15033Y45364D01*
X14726Y44906D01*
X14619Y44365D01*
X14726Y43824D01*
X15033Y43366D01*
X15491Y43060D01*
X16032Y42952D01*
X16572Y43060D01*
X17031Y43366D01*
X17337Y43824D01*
X17445Y44365D01*
X17337Y44906D01*
X17031Y45364D01*
X16572Y45671D01*
X16032Y45778D01*
D02*
G37*
G36*
X23000Y46913D02*
X22459Y46805D01*
X22001Y46499D01*
X21695Y46041D01*
X21587Y45500D01*
X21695Y44959D01*
X22001Y44501D01*
X22459Y44195D01*
X23000Y44087D01*
X23541Y44195D01*
X23804Y44370D01*
X24332Y44198D01*
X24351Y44181D01*
X24389Y43991D01*
X24695Y43532D01*
X25154Y43226D01*
X25694Y43119D01*
X26235Y43226D01*
X26693Y43532D01*
X27002Y43315D01*
X27006Y43309D01*
X27465Y43002D01*
X28005Y42895D01*
X28287Y42951D01*
X28615Y42541D01*
X28507Y42000D01*
X28615Y41459D01*
X28921Y41001D01*
X29379Y40695D01*
X29920Y40587D01*
X30461Y40695D01*
X30919Y41001D01*
X31225Y41459D01*
X31333Y42000D01*
X31225Y42541D01*
X30919Y42999D01*
X30461Y43305D01*
X29920Y43413D01*
X29638Y43357D01*
X29311Y43767D01*
X29418Y44308D01*
X29311Y44848D01*
X29004Y45307D01*
X28546Y45613D01*
X28005Y45721D01*
X27465Y45613D01*
X27006Y45307D01*
X26698Y45524D01*
X26693Y45531D01*
X26235Y45837D01*
X25694Y45944D01*
X25154Y45837D01*
X24891Y45661D01*
X24363Y45833D01*
X24343Y45851D01*
X24305Y46041D01*
X23999Y46499D01*
X23541Y46805D01*
X23000Y46913D01*
D02*
G37*
G36*
X6000Y43413D02*
X5459Y43305D01*
X5001Y42999D01*
X4695Y42541D01*
X4587Y42000D01*
X4695Y41459D01*
X5001Y41001D01*
X5459Y40695D01*
X5548Y40677D01*
X5926Y40342D01*
X5819Y39802D01*
X5926Y39261D01*
X6232Y38802D01*
X6691Y38496D01*
X7232Y38389D01*
X7772Y38496D01*
X8231Y38802D01*
X8537Y39261D01*
X8598Y39566D01*
X8877Y39844D01*
X9133Y39891D01*
X9500Y39819D01*
X10041Y39926D01*
X10499Y40232D01*
X10805Y40691D01*
X10913Y41232D01*
X10805Y41772D01*
X10499Y42231D01*
X10041Y42537D01*
X9500Y42645D01*
X8959Y42537D01*
X8501Y42231D01*
X8195Y41772D01*
X8134Y41467D01*
X7854Y41189D01*
X7656Y41152D01*
X7310Y41480D01*
X7413Y42000D01*
X7305Y42541D01*
X6999Y42999D01*
X6541Y43305D01*
X6000Y43413D01*
D02*
G37*
G36*
X37812Y41714D02*
X37271Y41607D01*
X36813Y41300D01*
X36507Y40842D01*
X36399Y40301D01*
X36507Y39760D01*
X36813Y39302D01*
X37271Y38996D01*
X37812Y38888D01*
X38353Y38996D01*
X38811Y39302D01*
X39118Y39760D01*
X39225Y40301D01*
X39118Y40842D01*
X38811Y41300D01*
X38353Y41607D01*
X37812Y41714D01*
D02*
G37*
G36*
X3929Y38563D02*
Y37240D01*
X5252D01*
X5205Y37476D01*
X4788Y38100D01*
X4164Y38517D01*
X3929Y38563D01*
D02*
G37*
G36*
X2929D02*
X2693Y38517D01*
X2069Y38100D01*
X1652Y37476D01*
X1605Y37240D01*
X2929D01*
Y38563D01*
D02*
G37*
G36*
X40403Y38688D02*
X39863Y38581D01*
X39404Y38275D01*
X39098Y37816D01*
X38991Y37276D01*
X39098Y36735D01*
X39404Y36277D01*
X39863Y35970D01*
X40403Y35863D01*
X40944Y35970D01*
X41403Y36277D01*
X41709Y36735D01*
X41816Y37276D01*
X41709Y37816D01*
X41403Y38275D01*
X40944Y38581D01*
X40403Y38688D01*
D02*
G37*
G36*
X54807Y38483D02*
X54266Y38375D01*
X53808Y38069D01*
X53501Y37611D01*
X53394Y37070D01*
X53501Y36529D01*
X53808Y36071D01*
X54266Y35764D01*
X54807Y35657D01*
X55348Y35764D01*
X55806Y36071D01*
X56112Y36529D01*
X56220Y37070D01*
X56112Y37611D01*
X55806Y38069D01*
X55348Y38375D01*
X54807Y38483D01*
D02*
G37*
G36*
X57500Y36323D02*
X57264Y36276D01*
X56640Y35860D01*
X56224Y35236D01*
X56177Y35000D01*
X57500D01*
Y36323D01*
D02*
G37*
G36*
X5252Y36240D02*
X3929D01*
Y34917D01*
X4164Y34964D01*
X4788Y35381D01*
X5205Y36004D01*
X5252Y36240D01*
D02*
G37*
G36*
X2929D02*
X1605D01*
X1652Y36004D01*
X2069Y35381D01*
X2693Y34964D01*
X2929Y34917D01*
Y36240D01*
D02*
G37*
G36*
X57500Y34000D02*
X56177D01*
X56224Y33764D01*
X56640Y33140D01*
X57264Y32724D01*
X57500Y32677D01*
Y34000D01*
D02*
G37*
G36*
X41500Y34913D02*
X40959Y34805D01*
X40501Y34499D01*
X40195Y34041D01*
X40087Y33500D01*
X40195Y32959D01*
X40501Y32501D01*
X40959Y32195D01*
X41500Y32087D01*
X42041Y32195D01*
X42499Y32501D01*
X42805Y32959D01*
X42913Y33500D01*
X42805Y34041D01*
X42499Y34499D01*
X42041Y34805D01*
X41500Y34913D01*
D02*
G37*
G36*
X2224Y32767D02*
X1834Y32689D01*
X1503Y32468D01*
X1282Y32138D01*
X1277Y32111D01*
X1097Y31841D01*
X989Y31300D01*
X1097Y30759D01*
X1403Y30301D01*
X1861Y29995D01*
X2402Y29887D01*
X2943Y29995D01*
X3401Y30301D01*
X3707Y30759D01*
X3815Y31300D01*
X3707Y31841D01*
X3401Y32299D01*
X2943Y32605D01*
X2654Y32663D01*
X2615Y32689D01*
X2224Y32767D01*
D02*
G37*
G36*
X50458Y29871D02*
X49917Y29763D01*
X49459Y29457D01*
X49152Y28999D01*
X49045Y28458D01*
X49152Y27917D01*
X49459Y27459D01*
X49917Y27152D01*
X50458Y27045D01*
X50999Y27152D01*
X51457Y27459D01*
X51763Y27917D01*
X51871Y28458D01*
X51763Y28999D01*
X51457Y29457D01*
X50999Y29763D01*
X50458Y29871D01*
D02*
G37*
G36*
X41728Y29679D02*
X41188Y29572D01*
X40729Y29265D01*
X40423Y28807D01*
X40315Y28266D01*
X40423Y27725D01*
X40729Y27267D01*
X41188Y26961D01*
X41728Y26853D01*
X42269Y26961D01*
X42728Y27267D01*
X43034Y27725D01*
X43102Y28069D01*
X43587Y28000D01*
X43695Y27459D01*
X44001Y27001D01*
X44459Y26695D01*
X45000Y26587D01*
X45541Y26695D01*
X45999Y27001D01*
X46305Y27459D01*
X46413Y28000D01*
X46305Y28541D01*
X45999Y28999D01*
X45541Y29305D01*
X45000Y29413D01*
X44459Y29305D01*
X44001Y28999D01*
X43695Y28541D01*
X43626Y28197D01*
X43141Y28266D01*
X43034Y28807D01*
X42728Y29265D01*
X42269Y29572D01*
X41728Y29679D01*
D02*
G37*
G36*
X42365Y26089D02*
X41824Y25981D01*
X41366Y25675D01*
X41059Y25216D01*
X40952Y24676D01*
X41059Y24135D01*
X41366Y23676D01*
X41824Y23370D01*
X42365Y23263D01*
X42906Y23370D01*
X43364Y23676D01*
X43670Y24135D01*
X43778Y24676D01*
X43670Y25216D01*
X43364Y25675D01*
X42906Y25981D01*
X42365Y26089D01*
D02*
G37*
G36*
X12168Y21245D02*
X11628Y21137D01*
X11169Y20831D01*
X10863Y20372D01*
X10756Y19831D01*
X10863Y19291D01*
X11169Y18832D01*
X11628Y18526D01*
X12168Y18418D01*
X12709Y18526D01*
X13168Y18832D01*
X13474Y19291D01*
X13581Y19831D01*
X13474Y20372D01*
X13168Y20831D01*
X12709Y21137D01*
X12168Y21245D01*
D02*
G37*
G36*
X18110Y17213D02*
X17569Y17105D01*
X17111Y16799D01*
X16805Y16341D01*
X16697Y15800D01*
X16805Y15259D01*
X17111Y14801D01*
X17569Y14495D01*
X18110Y14387D01*
X18651Y14495D01*
X19109Y14801D01*
X19415Y15259D01*
X19523Y15800D01*
X19415Y16341D01*
X19109Y16799D01*
X18651Y17105D01*
X18110Y17213D01*
D02*
G37*
G36*
X37850Y16913D02*
X37309Y16805D01*
X36851Y16499D01*
X36545Y16041D01*
X36437Y15500D01*
X36545Y14959D01*
X36851Y14501D01*
X37309Y14195D01*
X37850Y14087D01*
X38391Y14195D01*
X38849Y14501D01*
X39155Y14959D01*
X39263Y15500D01*
X39155Y16041D01*
X38849Y16499D01*
X38391Y16805D01*
X37850Y16913D01*
D02*
G37*
G36*
X41327Y16662D02*
X40787Y16554D01*
X40328Y16248D01*
X40022Y15790D01*
X39915Y15249D01*
X40022Y14708D01*
X40328Y14250D01*
X40787Y13943D01*
X41327Y13836D01*
X41868Y13943D01*
X42327Y14250D01*
X42633Y14708D01*
X42740Y15249D01*
X42633Y15790D01*
X42327Y16248D01*
X41868Y16554D01*
X41327Y16662D01*
D02*
G37*
G36*
X31900Y14913D02*
X31359Y14805D01*
X30901Y14499D01*
X30595Y14041D01*
X30487Y13500D01*
X30595Y12959D01*
X30901Y12501D01*
X31359Y12195D01*
X31900Y12087D01*
X32441Y12195D01*
X32899Y12501D01*
X33205Y12959D01*
X33313Y13500D01*
X33205Y14041D01*
X32899Y14499D01*
X32441Y14805D01*
X31900Y14913D01*
D02*
G37*
G36*
X9138Y12943D02*
Y11620D01*
X10461D01*
X10414Y11856D01*
X9997Y12479D01*
X9373Y12896D01*
X9138Y12943D01*
D02*
G37*
G36*
X22087Y8738D02*
X20764D01*
Y7415D01*
X21000Y7462D01*
X21623Y7879D01*
X22040Y8502D01*
X22087Y8738D01*
D02*
G37*
%LPD*%
D13*
X2224Y31747D02*
X2402Y31570D01*
D14*
X17597Y11776D02*
X17776D01*
X19386Y13386D02*
X25028D01*
X17776Y11776D02*
X19386Y13386D01*
X26000Y9556D02*
Y12414D01*
Y9556D02*
X29906Y5650D01*
X25028Y13386D02*
X26000Y12414D01*
X29906Y5650D02*
X29981D01*
D48*
X17994Y9320D02*
D03*
X15269Y11805D02*
D03*
X18110Y15800D02*
D03*
X20264Y9238D02*
D03*
X25465Y1507D02*
D03*
X17597Y11776D02*
D03*
X8637Y11120D02*
D03*
X22040Y15500D02*
D03*
X21839Y11485D02*
D03*
X24110Y11700D02*
D03*
X23500Y2755D02*
D03*
X12197Y15614D02*
D03*
X12248Y12787D02*
D03*
X2402Y31300D02*
D03*
X25694Y44532D02*
D03*
X23000Y45500D02*
D03*
X28005Y44308D02*
D03*
X32064Y44757D02*
D03*
X35829Y46936D02*
D03*
X36000Y49500D02*
D03*
X40032Y44546D02*
D03*
X38091Y46722D02*
D03*
X29981Y5650D02*
D03*
X12168Y19831D02*
D03*
X15535Y31700D02*
D03*
X45500Y6500D02*
D03*
X41500Y33500D02*
D03*
X54807Y37070D02*
D03*
X42365Y24676D02*
D03*
X41728Y28266D02*
D03*
X40403Y37276D02*
D03*
X37812Y40301D02*
D03*
X42474Y42105D02*
D03*
X29920Y42000D02*
D03*
X44539Y40039D02*
D03*
X58000Y34500D02*
D03*
X47000Y37500D02*
D03*
X52000D02*
D03*
X49165Y31965D02*
D03*
X50458Y28458D02*
D03*
X45000Y28000D02*
D03*
X16032Y44365D02*
D03*
X3429Y36740D02*
D03*
X19000Y38000D02*
D03*
X25500Y35000D02*
D03*
X7232Y39802D02*
D03*
X6000Y42000D02*
D03*
X6268Y44272D02*
D03*
X9500Y41232D02*
D03*
X12500Y46500D02*
D03*
X16847Y21531D02*
D03*
X15134Y53857D02*
D03*
X16753Y46637D02*
D03*
X38000Y3000D02*
D03*
X31900Y13500D02*
D03*
X37850Y15500D02*
D03*
X41327Y15249D02*
D03*
X57000Y20500D02*
D03*
X48165Y14465D02*
D03*
X17500Y18500D02*
D03*
X29165Y34965D02*
D03*
X33000Y35000D02*
D03*
X28665Y29465D02*
D03*
X19665Y27465D02*
D03*
X34665Y18465D02*
D03*
X39000Y54132D02*
D03*
X41000Y58631D02*
D03*
X36500D02*
D03*
Y51631D02*
D03*
X55000Y40000D02*
D03*
D49*
X4000Y14500D02*
D03*
X16000Y3550D02*
D03*
X30000Y0D02*
D03*
D51*
X26500Y4934D02*
Y5500D01*
X30000Y500D02*
X34000Y4500D01*
X30000Y1434D02*
X30000D01*
X28429Y3005D02*
Y3005D01*
Y3005D02*
X30000Y1434D01*
X26500Y4934D02*
X28429Y3005D01*
X30000Y0D02*
Y500D01*
M02*
