M48
;Layer_Color=9474304
;FILE_FORMAT=2:5
INCH,TZ
;TYPE=PLATED
T1F00S00C0.00984
T2F00S00C0.03150
%
T01
X8637Y11120
X12248Y12787
X12197Y15614
X12168Y19831
X16847Y21531
X17500Y18500
X18110Y15800
X22040Y15500
X21839Y11485
X24110Y11700
X20264Y9238
X17994Y9320
X17597Y11776
X15269Y11805
X23500Y2755
X25465Y1507
X29981Y5650
X31900Y13500
X34665Y18465
X37850Y15500
X41327Y15249
X48165Y14465
X45500Y6500
X38000Y3000
X42365Y24676
X41728Y28266
X45000Y28000
X50458Y28458
X49165Y31965
X47000Y37500
X44539Y40039
X42474Y42105
X40032Y44546
X38091Y46722
X35829Y46936
X36000Y49500
X36500Y51631
X39000Y54132
X41000Y58631
X36500
X32064Y44757
X28005Y44308
X25694Y44532
X23000Y45500
X16753Y46637
X16032Y44365
X12500Y46500
X9500Y41232
X7232Y39802
X6000Y42000
X6268Y44272
X3429Y36740
X2402Y31300
X15535Y31700
X19665Y27465
X28665Y29465
X29165Y34965
X25500Y35000
X33000
X40403Y37276
X41500Y33500
X37812Y40301
X29920Y42000
X19000Y38000
X15134Y53857
X52000Y37500
X54807Y37070
X55000Y40000
X58000Y34500
X57000Y20500
T02
X4000Y14500
X16000Y3550
X30000Y0
M30
