G04*
G04 #@! TF.GenerationSoftware,Altium Limited,Altium Designer,20.0.13 (296)*
G04*
G04 Layer_Color=65535*
%FSLAX25Y25*%
%MOIN*%
G70*
G01*
G75*
%ADD10C,0.00984*%
%ADD11C,0.00787*%
%ADD12C,0.00394*%
%ADD13C,0.01000*%
%ADD14C,0.00600*%
D10*
X40748Y14638D02*
G03*
X40748Y14638I-492J0D01*
G01*
X25374Y57642D02*
G03*
X25374Y57642I-492J0D01*
G01*
D11*
X21610Y8881D02*
G03*
X21610Y9668I0J394D01*
G01*
D02*
G03*
X21610Y8881I0J-394D01*
G01*
X3119Y24141D02*
X7190Y24859D01*
X52819Y30000D02*
X55181D01*
X20582Y49918D02*
X21418Y49082D01*
D12*
X24366Y10850D02*
X34602D01*
X24268Y4550D02*
X34701D01*
X26000Y51500D02*
Y56421D01*
Y51500D02*
X33874D01*
X26000Y56500D02*
X33874D01*
X34000Y51579D02*
Y56500D01*
D13*
X42447Y13431D02*
Y17368D01*
X48353Y13431D02*
Y17368D01*
X55638Y23457D02*
Y30543D01*
X60362Y23457D02*
Y30543D01*
X52999Y17500D02*
Y19500D01*
X20000Y5501D02*
X22000D01*
X9000Y46001D02*
X11000D01*
X47499Y31000D02*
Y33000D01*
X37500Y11001D02*
X39500D01*
X27499Y46000D02*
Y48000D01*
X10293Y10792D02*
X11708Y12207D01*
X51792Y14707D02*
X53207Y13292D01*
X57000Y35001D02*
X59000D01*
X2500Y36499D02*
X4500D01*
X15501Y50500D02*
Y52500D01*
X20499Y54000D02*
Y56000D01*
D14*
X55700Y33600D02*
Y36599D01*
X57200D01*
X57699Y36099D01*
Y35100D01*
X57200Y34600D01*
X55700D01*
X56700D02*
X57699Y33600D01*
X58699Y36099D02*
X59199Y36599D01*
X60199D01*
X60698Y36099D01*
Y35599D01*
X59699Y34600D01*
Y34100D02*
Y33600D01*
M02*
