%FSTAX23Y23*%
%MOIN*%
%SFA1B1*%

%IPPOS*%
%AMD38*
4,1,4,0.002300,-0.043800,0.043800,0.002300,-0.002300,0.043800,-0.043800,-0.002300,0.002300,-0.043800,0.0*
%
%ADD34C,0.013780*%
G04~CAMADD=38~10~0.0~620.1~0.0~0.0~0.0~0.0~0~0.0~0.0~0.0~0.0~0~0.0~0.0~0.0~0.0~0~0.0~0.0~0.0~228.0~620.1~0.0*
%ADD38D38*%
%ADD39C,0.062010*%
%ADD40C,0.046930*%
%ADD41R,0.046930X0.046930*%
%ADD42C,0.020000*%
%ADD43C,0.062990*%
%ADD44C,0.010000*%
%LNkoosh_sensor_top_v1_1-1*%
%LPD*%
G36*
X00301Y00593D02*
D01*
X00304Y0059*
X00573Y00321*
X00573Y00318*
X00571Y00316*
X00566Y00315*
X00561Y00311*
X00557Y00306*
X00556Y003*
X00557Y00293*
X00561Y00288*
X00566Y00284*
X00572Y00283*
X00578Y00284*
X00584Y00288*
X00587Y00293*
X00588Y00295*
X00592Y00297*
X00593Y00297*
X00595Y00296*
Y00284*
X00591Y00252*
X00584Y00222*
X00574Y00192*
X00561Y00163*
X00545Y00136*
X00526Y00111*
X00518Y00102*
X00518Y00102*
X00509Y00106*
X005Y00107*
X0049Y00106*
X00481Y00102*
X00473Y00096*
X00467Y00088*
X00463Y00079*
X00462Y0007*
X00463Y00061*
X00458Y00058*
X00458Y00058*
X00453Y00062*
X00444Y00066*
X00435Y00067*
X00425Y00066*
X00416Y00062*
X00408Y00056*
X00402Y00048*
X00398Y00039*
X00397Y00032*
X00392Y00031*
X00391Y00031*
X00383Y00037*
X00374Y00041*
X00365Y00042*
X00355Y00041*
X00346Y00037*
X00338Y00031*
X00332Y00023*
X00329Y00016*
X00323Y00016*
X00322Y00018*
X00316Y00026*
X00308Y00032*
X00299Y00036*
X0029Y00037*
X0028Y00036*
X00271Y00032*
X00263Y00026*
X00261Y00024*
X00255Y00025*
X00252Y00031*
X00252Y00033*
X00222Y00002*
X00207Y00017*
X00238Y00047*
X00236Y00047*
X00226Y00052*
X00215Y00053*
X00204Y00052*
X00201Y00056*
X00217Y00073*
X00186Y00101*
X00193Y00108*
X00223Y00081*
X00247Y00108*
X00222Y00131*
X00223Y00135*
X00229*
X0023Y00135*
X00233Y00129*
X00238Y00126*
X00245Y00124*
X00251Y00126*
X00256Y00129*
X0026Y00135*
X00261Y00141*
X0026Y00147*
X00256Y00152*
X00251Y00156*
X00245Y00157*
X00243Y00157*
X00243Y00157*
X00239Y00158*
X00211*
X00202Y00167*
X00198Y0017*
X00194Y00171*
X00183*
X00178Y0017*
X00175Y00168*
X00174*
X0017Y00167*
X00166Y00164*
X0015Y00148*
X00146Y00151*
X00148Y00154*
X00152Y00164*
X00152Y00173*
X00151Y00183*
X00146Y00192*
X0014Y00199*
X00132Y00205*
X00123Y00208*
X00113Y00209*
X00104Y00207*
X00095Y00203*
X00087Y00196*
X00082Y00188*
X00079Y00179*
X00078Y00169*
X0008Y0016*
X00084Y00151*
X0009Y00144*
X00098Y00138*
X00107Y00135*
X00117Y00134*
X00127Y00136*
X00135Y0014*
X00138Y00136*
X00117Y00115*
X00116Y00115*
X00111Y00116*
X00106Y00121*
X00098Y00127*
X00089Y00131*
X0008Y00132*
X0007Y00131*
X00064Y00129*
X00061Y00133*
X00067Y00141*
X00071Y0015*
X00072Y0016*
X00071Y00169*
X00067Y00178*
X00061Y00186*
X00053Y00192*
X00044Y00196*
X00035Y00197*
X00026Y00196*
X0002Y00212*
X00012Y00242*
X00008Y00273*
X00007Y00305*
X00009Y00336*
X00014Y00367*
X00023Y00397*
X00035Y00426*
X0005Y00454*
X00068Y0048*
X00089Y00504*
X00112Y00525*
X00137Y00544*
X00164Y0056*
X00193Y00573*
X00223Y00583*
X00254Y0059*
X00285Y00593*
X00301*
Y00593*
G37*
%LNkoosh_sensor_top_v1_1-2*%
%LPC*%
G36*
X0025Y00556D02*
X00245Y00555D01*
X00241Y00552*
X00238Y00547*
X00237Y00542*
X00238Y00537*
X00241Y00533*
X00243Y00532*
X00243Y00526*
X0024Y00524*
X00236Y00517*
X00235Y00515*
X00274*
X00273Y00517*
X00269Y00524*
X00262Y00528*
X00262Y00529*
X00261Y00531*
X0026Y00534*
X00262Y00537*
X00263Y00542*
X00262Y00547*
X0026Y00552*
X00255Y00555*
X0025Y00556*
G37*
G36*
X0035Y00526D02*
X00343Y00525D01*
X00338Y00521*
X00334Y00516*
X00333Y0051*
X00334Y00503*
X00338Y00498*
X00343Y00494*
X0035Y00493*
X00356Y00494*
X00361Y00498*
X00365Y00503*
X00366Y0051*
X00365Y00516*
X00361Y00521*
X00356Y00525*
X0035Y00526*
G37*
G36*
X00274Y00505D02*
X0026D01*
Y0049*
X00262Y00491*
X00269Y00495*
X00273Y00502*
X00274Y00505*
G37*
G36*
X0025D02*
X00235D01*
X00236Y00502*
X0024Y00495*
X00247Y00491*
X0025Y0049*
Y00505*
G37*
G36*
X00095Y00442D02*
Y00428D01*
X00109*
X00109Y0043*
X00104Y00437*
X00098Y00442*
X00095Y00442*
G37*
G36*
X00085D02*
X00082Y00442D01*
X00076Y00437*
X00071Y0043*
X00071Y00428*
X00085*
Y00442*
G37*
G36*
X00435Y00439D02*
Y00425D01*
X00449*
X00448Y00427*
X00444Y00434*
X00437Y00438*
X00435Y00439*
G37*
G36*
X00425D02*
X00422Y00438D01*
X00415Y00434*
X00411Y00427*
X0041Y00425*
X00425*
Y00439*
G37*
G36*
X00109Y00418D02*
X00095D01*
Y00403*
X00098Y00404*
X00104Y00408*
X00109Y00415*
X00109Y00418*
G37*
G36*
X00085D02*
X00071D01*
X00071Y00415*
X00076Y00408*
X00082Y00404*
X00085Y00403*
Y00418*
G37*
G36*
X00449Y00415D02*
X00435D01*
Y004*
X00437Y00401*
X00444Y00405*
X00448Y00412*
X00449Y00415*
G37*
G36*
X00425D02*
X0041D01*
X00411Y00412*
X00415Y00405*
X00422Y00401*
X00425Y004*
Y00415*
G37*
G36*
X002Y00416D02*
X00193Y00415D01*
X00188Y00411*
X00184Y00406*
X00183Y004*
X00184Y00393*
X00188Y00388*
X00193Y00384*
X002Y00383*
X00206Y00384*
X00211Y00388*
X00215Y00393*
X00216Y004*
X00215Y00406*
X00211Y00411*
X00206Y00415*
X002Y00416*
G37*
G36*
X00342Y00437D02*
X00335Y00436D01*
X00328Y00433*
X00321Y00428*
X00317Y00422*
X00314Y00415*
X00313Y00407*
X00314Y00399*
X00317Y00392*
X00321Y00386*
X00328Y00381*
X00335Y00378*
X00342Y00377*
X0035Y00378*
X00357Y00381*
X00363Y00386*
X00368Y00392*
X00371Y00399*
X00372Y00407*
X00371Y00415*
X00368Y00422*
X00363Y00428*
X00357Y00433*
X0035Y00436*
X00342Y00437*
G37*
G36*
X00255D02*
X00247Y00436D01*
X0024Y00433*
X00233Y00428*
X00229Y00422*
X00226Y00415*
X00225Y00407*
X00226Y00399*
X00229Y00392*
X00233Y00386*
X0024Y00381*
X00247Y00378*
X00255Y00377*
X00262Y00378*
X00269Y00381*
X00276Y00386*
X0028Y00392*
X00283Y00399*
X00284Y00407*
X00283Y00415*
X0028Y00422*
X00276Y00428*
X00269Y00433*
X00262Y00436*
X00255Y00437*
G37*
G36*
X00415Y00386D02*
X00408Y00385D01*
X00403Y00381*
X00399Y00376*
X00398Y0037*
X00399Y00363*
X00403Y00358*
X00408Y00354*
X00415Y00353*
X00421Y00354*
X00426Y00358*
X0043Y00363*
X00431Y0037*
X0043Y00376*
X00426Y00381*
X00421Y00385*
X00415Y00386*
G37*
G36*
X00197Y00378D02*
Y0035D01*
X00225*
X00225Y00353*
X00222Y00362*
X00216Y00369*
X00209Y00374*
X00201Y00377*
X00197Y00378*
G37*
G36*
X00187D02*
X00184Y00377D01*
X00175Y00374*
X00168Y00369*
X00163Y00362*
X0016Y00353*
X00159Y0035*
X00187*
Y00378*
G37*
G36*
X0046Y00376D02*
X00453Y00375D01*
X00448Y00371*
X00444Y00366*
X00443Y0036*
X00444Y00353*
X00448Y00348*
X00453Y00344*
X0046Y00343*
X00466Y00344*
X00471Y00348*
X00475Y00353*
X00476Y0036*
X00475Y00366*
X00471Y00371*
X00466Y00375*
X0046Y00376*
G37*
G36*
X00072Y00368D02*
X00066Y00367D01*
X00061Y00364*
X00057Y00358*
X00056Y00352*
X00057Y00346*
X00061Y00341*
X00066Y00337*
X00072Y00336*
X00078Y00337*
X00084Y00341*
X00087Y00346*
X00089Y00352*
X00087Y00358*
X00084Y00364*
X00078Y00367*
X00072Y00368*
G37*
G36*
X00332Y00352D02*
X00326Y00351D01*
X0032Y00347*
X00317Y00342*
X00316Y00336*
X00317Y00329*
X0032Y00324*
X00326Y00321*
X00332Y00319*
X00338Y00321*
X00343Y00324*
X00347Y00329*
X00348Y00336*
X00347Y00342*
X00343Y00347*
X00338Y00351*
X00332Y00352*
G37*
G36*
X00225Y0034D02*
X00197D01*
Y00312*
X00201Y00312*
X00209Y00315*
X00216Y00321*
X00222Y00328*
X00225Y00336*
X00225Y0034*
G37*
G36*
X00187D02*
X00159D01*
X0016Y00336*
X00163Y00328*
X00168Y00321*
X00175Y00315*
X00184Y00312*
X00187Y00312*
Y0034*
G37*
G36*
X00485Y00341D02*
X00478Y0034D01*
X00473Y00336*
X00469Y00331*
X00468Y00325*
X00469Y00318*
X00471Y00316*
X00469Y00311*
X00464Y0031*
X0046Y00312*
X00461Y00315*
X0046Y00321*
X00456Y00326*
X00451Y0033*
X00445Y00331*
X00438Y0033*
X00433Y00326*
X00429Y00321*
X00428Y00315*
X00429Y00308*
X00433Y00303*
X00438Y00299*
X00445Y00298*
X00451Y00299*
X00452Y003*
X00456Y00297*
X00456Y00297*
X00495*
X00494Y003*
X00491Y00304*
X00491Y00305*
X00492Y0031*
X00492Y00311*
X00496Y00313*
X005Y00318*
X00501Y00325*
X005Y00331*
X00496Y00336*
X00491Y0034*
X00485Y00341*
G37*
G36*
X00268Y00334D02*
X00262Y00333D01*
X00256Y0033*
X00253Y00324*
X00251Y00318*
X00253Y00312*
X00256Y00307*
X00262Y00303*
X00268Y00302*
X00274Y00303*
X00279Y00307*
X00283Y00312*
X00284Y00318*
X00283Y00324*
X00279Y0033*
X00274Y00333*
X00268Y00334*
G37*
G36*
X00104Y00342D02*
X00098Y00341D01*
X00093Y00337*
X00089Y00332*
X00088Y00326*
X00089Y0032*
X00093Y00314*
X00098Y00311*
X00099Y0031*
Y00305*
X00095Y00305*
X00088Y003*
X00084Y00294*
X00083Y00291*
X00122*
X00122Y00294*
X00117Y003*
X00111Y00305*
X00108Y00305*
Y0031*
X00111Y00311*
X00116Y00314*
X00119Y0032*
X00121Y00326*
X00119Y00332*
X00116Y00337*
X00111Y00341*
X00104Y00342*
G37*
G36*
X00528Y00316D02*
X00522Y00315D01*
X00517Y00312*
X00513Y00306*
X00512Y003*
X00513Y00294*
X00517Y00289*
X00522Y00285*
X00528Y00284*
X00535Y00285*
X0054Y00289*
X00543Y00294*
X00545Y003*
X00543Y00306*
X0054Y00312*
X00535Y00315*
X00528Y00316*
G37*
G36*
X00031Y00314D02*
X00025Y00313D01*
X0002Y00309*
X00016Y00304*
X00015Y00298*
X00016Y00291*
X0002Y00286*
X00025Y00283*
X00031Y00281*
X00037Y00283*
X00043Y00286*
X00046Y00291*
X00047Y00298*
X00046Y00304*
X00043Y00309*
X00037Y00313*
X00031Y00314*
G37*
G36*
X00495Y00287D02*
X0048D01*
Y00272*
X00483Y00273*
X0049Y00277*
X00494Y00284*
X00495Y00287*
G37*
G36*
X0047D02*
X00456D01*
X00457Y00284*
X00461Y00277*
X00468Y00273*
X0047Y00272*
Y00287*
G37*
G36*
X00098Y00281D02*
X00083D01*
X00084Y00278*
X00088Y00271*
X00095Y00267*
X00098Y00266*
Y00281*
G37*
G36*
X00122D02*
X00108D01*
Y00266*
X00111Y00267*
X00117Y00271*
X00122Y00278*
X00122Y00281*
G37*
G36*
X0041Y0029D02*
Y00262D01*
X00438*
X00437Y00265*
X00434Y00274*
X00429Y00281*
X00422Y00286*
X00413Y00289*
X0041Y0029*
G37*
G36*
X004D02*
X00396Y00289D01*
X00388Y00286*
X00381Y00281*
X00375Y00274*
X00372Y00265*
X00372Y00262*
X004*
Y0029*
G37*
G36*
X00438Y00252D02*
X0041D01*
Y00224*
X00413Y00224*
X00422Y00227*
X00429Y00233*
X00434Y0024*
X00437Y00248*
X00438Y00252*
G37*
G36*
X004D02*
X00372D01*
X00372Y00248*
X00375Y0024*
X00381Y00233*
X00388Y00227*
X00396Y00224*
X004Y00224*
Y00252*
G37*
G36*
X00284Y00224D02*
X00225D01*
Y00221*
X0022Y00218*
X00215Y00219*
X00209Y00218*
X00204Y00214*
X002Y00209*
X00199Y00203*
X002Y00197*
X00204Y00191*
X00209Y00188*
X00215Y00187*
X0022Y00188*
X00225Y00185*
Y00165*
X00284*
Y00224*
G37*
G36*
X00183Y00245D02*
X00176Y00244D01*
X00171Y0024*
X00168Y00235*
X00166Y00229*
X00168Y00222*
X00171Y00217*
X00176Y00213*
X00183Y00212*
X00189Y00213*
X00194Y00217*
X00198Y00222*
X00199Y00229*
X00198Y00235*
X00194Y0024*
X00189Y00244*
X00183Y00245*
G37*
G36*
X00462Y00199D02*
Y00185D01*
X00476*
X00475Y00187*
X00471Y00194*
X00464Y00198*
X00462Y00199*
G37*
G36*
X00452D02*
X00449Y00198D01*
X00442Y00194*
X00438Y00187*
X00437Y00185*
X00452*
Y00199*
G37*
G36*
X00342Y00224D02*
X00335Y00223D01*
X00328Y0022*
X00321Y00216*
X00317Y00209*
X00314Y00202*
X00313Y00195*
X00314Y00187*
X00317Y0018*
X00321Y00173*
X00325Y00171*
X00325Y00169*
X00323Y00166*
X00318Y00165*
X00313Y00161*
X00309Y00156*
X00308Y0015*
X00309Y00143*
X00313Y00138*
X00318Y00134*
X00325Y00133*
X00331Y00134*
X00336Y00138*
X0034Y00143*
X00341Y0015*
X0034Y00156*
X00336Y00161*
X00337Y00163*
X00339Y00165*
X00342Y00165*
X0035Y00166*
X00357Y00169*
X00363Y00173*
X00368Y0018*
X00371Y00187*
X00372Y00195*
X00371Y00202*
X00368Y00209*
X00363Y00216*
X00357Y0022*
X0035Y00223*
X00342Y00224*
G37*
G36*
X00452Y00175D02*
X00437D01*
X00438Y00172*
X00442Y00165*
X00449Y00161*
X00452Y0016*
Y00175*
G37*
G36*
X00479D02*
X00462D01*
Y0016*
X00464Y00161*
X00467Y00159*
X00468Y00157*
X00469Y00151*
X00473Y00146*
X00478Y00142*
X00485Y00141*
X00491Y00142*
X00496Y00146*
X005Y00151*
X00501Y00157*
X005Y00164*
X00496Y00169*
X00491Y00173*
X00485Y00174*
X00481Y00173*
X00479Y00175*
G37*
G36*
X00377Y00154D02*
Y00139D01*
X00391*
X0039Y00142*
X00386Y00149*
X00379Y00153*
X00377Y00154*
G37*
G36*
X00367D02*
X00364Y00153D01*
X00357Y00149*
X00353Y00142*
X00352Y00139*
X00367*
Y00154*
G37*
G36*
X00391Y00129D02*
X00377D01*
Y00115*
X00379Y00115*
X00386Y0012*
X0039Y00126*
X00391Y00129*
G37*
G36*
X00367D02*
X00352D01*
X00353Y00126*
X00357Y0012*
X00364Y00115*
X00367Y00115*
Y00129*
G37*
G36*
X00395Y00111D02*
X00388Y0011D01*
X00383Y00106*
X00379Y00101*
X00378Y00095*
X00379Y00088*
X00383Y00083*
X00388Y00079*
X00395Y00078*
X00401Y00079*
X00406Y00083*
X0041Y00088*
X00411Y00095*
X0041Y00101*
X00406Y00106*
X00401Y0011*
X00395Y00111*
G37*
G36*
X00315Y00073D02*
X00309Y00072D01*
X00304Y00068*
X003Y00063*
X00299Y00057*
X003Y0005*
X00304Y00045*
X00309Y00042*
X00315Y0004*
X00322Y00042*
X00327Y00045*
X0033Y0005*
X00332Y00057*
X0033Y00063*
X00327Y00068*
X00322Y00072*
X00315Y00073*
G37*
%LNkoosh_sensor_top_v1_1-3*%
%LPD*%
G54D34*
X0025Y00542D03*
G54D38*
X0019Y00105D03*
G54D39*
X00115Y00171D03*
G54D40*
X00192Y00345D03*
X00255Y00407D03*
X00342D03*
X00405Y00257D03*
X00342Y00195D03*
G54D41*
X00255Y00195D03*
G54D42*
X00031Y00298D03*
X00325Y0015D03*
X00457Y0018D03*
X00485Y00157D03*
X00245Y00141D03*
X00315Y00057D03*
X00103Y00286D03*
X00104Y00326D03*
X00215Y00203D03*
X00183Y00229D03*
X00395Y00095D03*
X00445Y00315D03*
X0043Y0042D03*
X00572Y003D03*
X00268Y00318D03*
X00372Y00134D03*
X00475Y00292D03*
X00485Y00325D03*
X00415Y0037D03*
X0046Y0036D03*
X00528Y003D03*
X00332Y00336D03*
X00072Y00352D03*
X002Y004D03*
X0035Y0051D03*
X00255D03*
X0009Y00423D03*
G54D43*
X00435Y0003D03*
X00215Y0001D03*
X00035Y0016D03*
X00365Y00005D03*
X005Y0007D03*
X0029Y0D03*
X0014Y00045D03*
X0008Y00095D03*
G54D44*
X00239Y00147D02*
X00245Y00141D01*
X00207Y00147D02*
X00239D01*
X00194Y00159D02*
X00207Y00147D01*
X00183Y00159D02*
X00194D01*
X0018Y00156D02*
X00183Y00159D01*
X00174Y00156D02*
X0018D01*
X00119Y00101D02*
X00174Y00156D01*
X0008Y00095D02*
X00086Y00101D01*
X00119*
M02*