%FSTAX23Y23*%
%MOIN*%
%SFA1B1*%

%IPPOS*%
%AMD21*
4,1,4,0.045400,0.030100,-0.053900,-0.008000,-0.045400,-0.030100,0.053900,0.008000,0.045400,0.030100,0.0*
%
%AMD22*
4,1,4,0.026300,0.024900,-0.036200,0.000900,-0.026300,-0.024900,0.036200,-0.000900,0.026300,0.024900,0.0*
%
%AMD23*
4,1,4,0.036200,0.026500,-0.044700,-0.004500,-0.036200,-0.026500,0.044700,0.004500,0.036200,0.026500,0.0*
%
%AMD26*
4,1,4,0.002100,-0.026300,0.019800,0.017500,-0.002100,0.026300,-0.019800,-0.017500,0.002100,-0.026300,0.0*
%
%AMD27*
4,1,4,0.020900,0.000000,0.000000,0.020900,-0.020900,0.000000,0.000000,-0.020900,0.020900,0.000000,0.0*
%
%AMD29*
4,1,4,-0.001700,-0.019000,0.019000,0.001700,0.001700,0.019000,-0.019000,-0.001700,-0.001700,-0.019000,0.0*
%
%AMD30*
4,1,4,0.002600,-0.049400,0.049400,0.002600,-0.002600,0.049400,-0.049400,-0.002600,0.002600,-0.049400,0.0*
%
G04~CAMADD=21~9~0.0~0.0~1064.2~237.5~0.0~0.0~0~0.0~0.0~0.0~0.0~0~0.0~0.0~0.0~0.0~0~0.0~0.0~0.0~21.0~1078.0~601.0*
%ADD21D21*%
G04~CAMADD=22~9~0.0~0.0~670.6~276.9~0.0~0.0~0~0.0~0.0~0.0~0.0~0~0.0~0.0~0.0~0.0~0~0.0~0.0~0.0~21.0~724.0~497.0*
%ADD22D22*%
G04~CAMADD=23~9~0.0~0.0~867.4~237.5~0.0~0.0~0~0.0~0.0~0.0~0.0~0~0.0~0.0~0.0~0.0~0~0.0~0.0~0.0~21.0~894.0~529.0*
%ADD23D23*%
%ADD24R,0.026900X0.033390*%
%ADD25R,0.032410X0.031620*%
G04~CAMADD=26~9~0.0~0.0~473.7~237.5~0.0~0.0~0~0.0~0.0~0.0~0.0~0~0.0~0.0~0.0~0.0~0~0.0~0.0~0.0~248.0~396.0~525.0*
%ADD26D26*%
G04~CAMADD=27~10~0.0~296.6~0.0~0.0~0.0~0.0~0~0.0~0.0~0.0~0.0~0~0.0~0.0~0.0~0.0~0~0.0~0.0~0.0~315.0~296.6~0.0*
%ADD27D27*%
%ADD28R,0.029650X0.029650*%
G04~CAMADD=29~9~0.0~0.0~292.6~245.4~0.0~0.0~0~0.0~0.0~0.0~0.0~0~0.0~0.0~0.0~0.0~0~0.0~0.0~0.0~225.0~380.0~379.0*
%ADD29D29*%
G04~CAMADD=30~10~0.0~700.1~0.0~0.0~0.0~0.0~0~0.0~0.0~0.0~0.0~0~0.0~0.0~0.0~0.0~0~0.0~0.0~0.0~228.0~700.1~0.0*
%ADD30D30*%
%ADD31C,0.070010*%
%ADD32C,0.054930*%
%ADD33R,0.054930X0.054930*%
%ADD34C,0.013780*%
%ADD35C,0.070990*%
%LNkoosh_sensor_top_v1_1-1*%
%LPD*%
G54D21*
X00249Y00244D03*
G54D22*
X00222Y0026D03*
X00211Y00289D03*
X00367Y00349D03*
X00378Y0032D03*
G54D23*
X00211Y00316D03*
X00349Y00369D03*
X00378Y00293D03*
G54D24*
X0003Y00268D03*
X00069D03*
X0005Y00327D03*
G54D25*
X00205Y00521D03*
Y00558D03*
G54D26*
X00547Y00183D03*
X00523Y00192D03*
X005Y00202D03*
X00522Y00256D03*
X00546Y00247D03*
X00569Y00237D03*
G54D27*
X00427Y00112D03*
X0046Y00145D03*
G54D28*
X00092Y0045D03*
X00138D03*
X00052Y00395D03*
X00098D03*
X00047Y00225D03*
X00093D03*
X00247Y00575D03*
X00293D03*
G54D29*
X00162Y00532D03*
X00117Y00487D03*
G54D30*
X0019Y00105D03*
G54D31*
X00115Y00171D03*
G54D32*
X00192Y00345D03*
X00255Y00407D03*
X00342D03*
X00405Y00257D03*
X00342Y00195D03*
G54D33*
X00255Y00195D03*
G54D34*
X0025Y00542D03*
G54D35*
X00435Y0003D03*
X00215Y0001D03*
X00035Y0016D03*
X00365Y00005D03*
X005Y0007D03*
X0029Y0D03*
X0014Y00045D03*
X0008Y00095D03*
M02*