%FSTAX23Y23*%
%MOIN*%
%SFA1B1*%

%IPPOS*%
%ADD10C,0.007870*%
%ADD11C,0.006000*%
%ADD44C,0.010000*%
%ADD45C,0.009840*%
%LNkoosh_sensor_top_v1_1-1*%
%LPD*%
G54D10*
X00286Y00126D02*
X00293D01*
X00286Y00063D02*
Y00126D01*
Y00063D02*
X00293D01*
Y00126*
X00306Y00133D02*
X00332D01*
G54D11*
X00415Y00388D02*
X0041D01*
X00406Y00392*
Y00397*
X00415Y00407*
X0042*
X00424Y00402*
Y00397*
X00417Y00381D02*
X00431Y00395D01*
X00424Y00388*
X00434Y00378*
X00427Y00371*
X00441Y00385*
X00431Y00366D02*
X00446Y00381D01*
Y00371*
X00455*
X00441Y00357*
X0046Y00366D02*
X0045Y00357D01*
Y00348*
X0046*
X00469Y00357*
X00462Y0035*
X00453Y00359*
X0046Y00338D02*
X00474Y00352D01*
X00483Y00343*
Y00315D02*
X00474Y00324D01*
X00488Y00338*
X00497Y00329*
X00481Y00331D02*
X00486Y00326D01*
X00488Y0031D02*
X00502Y00324D01*
X00497Y00319*
Y003*
Y00315*
X00512*
X00445Y00436D02*
X0043Y00422D01*
X00437Y00415*
X00442*
X00447Y0042*
Y00424*
X0044Y00431*
X00459Y00422D02*
X00445Y00408D01*
X00452Y00401*
X00456*
X00461Y00405*
Y0041*
X00454Y00417*
X00459Y00412D02*
X00468D01*
X00466Y00387D02*
X00461Y00391D01*
Y00396*
X0047Y00405*
X00475*
X0048Y00401*
Y00396*
X0047Y00387*
X00466*
X00482Y0037D02*
X00477Y00375D01*
X0048Y00372*
X00492Y00384*
Y00389*
X00489Y00391*
X00485*
X00501Y00351D02*
X00515Y00365D01*
X0051Y00361*
Y00342*
Y00356*
X00525*
X00522Y0033D02*
X00518Y00335D01*
Y00339*
X00527Y00349*
X00532*
X00536Y00344*
Y00339*
X00527Y0033*
X00522*
X00536Y00316D02*
X00532Y00321D01*
Y00325*
X00541Y00335*
X00546*
X00551Y0033*
Y00325*
X00541Y00316*
X00536*
X00555Y00302D02*
X00551D01*
X00546Y00306*
Y00311*
X00548Y00313*
X00553*
X00558Y00309*
X00562*
X00565Y00311*
Y00316*
X0056Y00321*
X00555*
X00558Y00295D02*
X00572Y00309D01*
X00565Y00302*
X00574Y00292*
X00567Y00285*
X00581Y00299*
X00204Y00222D02*
X00198Y00209D01*
X00191Y00222*
X00184Y00209D02*
X00178D01*
X00181*
Y00229*
X00184Y00225*
X00168Y00206D02*
X00154D01*
X00148Y00209D02*
X00141D01*
X00144*
Y00229*
X00148Y00225*
X00292Y00339D02*
X00282D01*
X00287*
Y0031*
X00292*
X00282*
X00247Y00335D02*
X00252Y00339D01*
X00262*
X00267Y00335*
Y00315*
X00262Y0031*
X00252*
X00247Y00315*
X00222Y0031D02*
Y00339D01*
X00237Y00325*
X00217*
X00367Y00481D02*
X00388Y00502D01*
X00377Y00513*
X0037*
X00363Y00506*
Y00499*
X00374Y00488*
X00367Y00495D02*
X00352D01*
X00363Y0052D02*
Y00527D01*
X00356Y00534*
X00349*
X00345Y00531*
Y00524*
X00338*
X00335Y0052*
Y00513*
X00342Y00506*
X00349*
X00352Y0051*
Y00517*
X0036*
X00363Y0052*
X00352Y00517D02*
X00345Y00524D01*
X00324Y00529D02*
X00345Y0055D01*
X00331*
Y00565*
X0031Y00543*
X00324Y00572D02*
X00302Y0055D01*
X0031Y00557*
Y00586*
Y00565*
X00288*
X00281Y00572D02*
X00274Y00579D01*
X00278Y00575*
X00299Y00596*
Y00589*
G54D44*
X00495Y00175D02*
Y00195D01*
X00422Y00114D02*
Y00134D01*
X00329Y0014D02*
Y0016D01*
X00184Y00185D02*
Y00205D01*
X00155Y00249D02*
X00175D01*
X00049Y00315D02*
Y00335D01*
X00182Y00512D02*
X00197Y00527D01*
G54D45*
X00129Y00482D02*
D01*
X00129Y00483*
X00129Y00483*
X00129Y00483*
X00129Y00484*
X00129Y00484*
X00129Y00484*
X00129Y00485*
X00129Y00485*
X00128Y00485*
X00128Y00486*
X00128Y00486*
X00128Y00486*
X00128Y00486*
X00127Y00487*
X00127Y00487*
X00127Y00487*
X00126Y00487*
X00126Y00487*
X00126Y00487*
X00125Y00487*
X00125Y00487*
X00125Y00487*
X00124*
X00124Y00487*
X00124Y00487*
X00123Y00487*
X00123Y00487*
X00123Y00487*
X00122Y00487*
X00122Y00487*
X00122Y00487*
X00121Y00486*
X00121Y00486*
X00121Y00486*
X00121Y00486*
X00121Y00485*
X0012Y00485*
X0012Y00485*
X0012Y00484*
X0012Y00484*
X0012Y00484*
X0012Y00483*
X0012Y00483*
X0012Y00483*
X0012Y00482*
X0012Y00482*
X0012Y00482*
X0012Y00481*
X0012Y00481*
X0012Y00481*
X0012Y0048*
X0012Y0048*
X0012Y0048*
X00121Y0048*
X00121Y00479*
X00121Y00479*
X00121Y00479*
X00121Y00479*
X00122Y00478*
X00122Y00478*
X00122Y00478*
X00123Y00478*
X00123Y00478*
X00123Y00478*
X00124Y00478*
X00124Y00478*
X00124Y00478*
X00125*
X00125Y00478*
X00125Y00478*
X00126Y00478*
X00126Y00478*
X00126Y00478*
X00127Y00478*
X00127Y00478*
X00127Y00478*
X00128Y00479*
X00128Y00479*
X00128Y00479*
X00128Y00479*
X00128Y0048*
X00129Y0048*
X00129Y0048*
X00129Y0048*
X00129Y00481*
X00129Y00481*
X00129Y00481*
X00129Y00482*
X00129Y00482*
X00129Y00482*
X00193Y00214D02*
D01*
X00193Y00215*
X00193Y00215*
X00193Y00215*
X00193Y00216*
X00193Y00216*
X00193Y00216*
X00192Y00217*
X00192Y00217*
X00192Y00217*
X00192Y00217*
X00192Y00218*
X00191Y00218*
X00191Y00218*
X00191Y00218*
X00191Y00218*
X0019Y00219*
X0019Y00219*
X0019Y00219*
X00189Y00219*
X00189Y00219*
X00189Y00219*
X00188Y00219*
X00188*
X00188Y00219*
X00187Y00219*
X00187Y00219*
X00187Y00219*
X00186Y00219*
X00186Y00219*
X00186Y00218*
X00185Y00218*
X00185Y00218*
X00185Y00218*
X00185Y00218*
X00184Y00217*
X00184Y00217*
X00184Y00217*
X00184Y00217*
X00184Y00216*
X00183Y00216*
X00183Y00216*
X00183Y00215*
X00183Y00215*
X00183Y00215*
X00183Y00214*
X00183Y00214*
X00183Y00214*
X00183Y00213*
X00183Y00213*
X00183Y00213*
X00184Y00212*
X00184Y00212*
X00184Y00212*
X00184Y00211*
X00184Y00211*
X00185Y00211*
X00185Y00211*
X00185Y0021*
X00185Y0021*
X00186Y0021*
X00186Y0021*
X00186Y0021*
X00187Y0021*
X00187Y00209*
X00187Y00209*
X00188Y00209*
X00188Y00209*
X00188*
X00189Y00209*
X00189Y00209*
X00189Y00209*
X0019Y0021*
X0019Y0021*
X0019Y0021*
X00191Y0021*
X00191Y0021*
X00191Y0021*
X00191Y00211*
X00192Y00211*
X00192Y00211*
X00192Y00211*
X00192Y00212*
X00192Y00212*
X00193Y00212*
X00193Y00213*
X00193Y00213*
X00193Y00213*
X00193Y00214*
X00193Y00214*
X00193Y00214*
X00461Y0019D02*
D01*
X00461Y0019*
X00461Y0019*
X00461Y00191*
X0046Y00191*
X0046Y00191*
X0046Y00192*
X0046Y00192*
X0046Y00192*
X0046Y00192*
X00459Y00193*
X00459Y00193*
X00459Y00193*
X00459Y00193*
X00458Y00194*
X00458Y00194*
X00458Y00194*
X00458Y00194*
X00457Y00194*
X00457Y00194*
X00457Y00194*
X00456Y00194*
X00456Y00194*
X00456*
X00455Y00194*
X00455Y00194*
X00455Y00194*
X00454Y00194*
X00454Y00194*
X00454Y00194*
X00453Y00194*
X00453Y00194*
X00453Y00193*
X00452Y00193*
X00452Y00193*
X00452Y00193*
X00452Y00192*
X00452Y00192*
X00451Y00192*
X00451Y00192*
X00451Y00191*
X00451Y00191*
X00451Y00191*
X00451Y0019*
X00451Y0019*
X00451Y0019*
X00451Y00189*
X00451Y00189*
X00451Y00189*
X00451Y00188*
X00451Y00188*
X00451Y00188*
X00451Y00187*
X00452Y00187*
X00452Y00187*
X00452Y00186*
X00452Y00186*
X00452Y00186*
X00453Y00186*
X00453Y00185*
X00453Y00185*
X00454Y00185*
X00454Y00185*
X00454Y00185*
X00455Y00185*
X00455Y00185*
X00455Y00185*
X00456Y00185*
X00456*
X00456Y00185*
X00457Y00185*
X00457Y00185*
X00457Y00185*
X00458Y00185*
X00458Y00185*
X00458Y00185*
X00458Y00185*
X00459Y00186*
X00459Y00186*
X00459Y00186*
X00459Y00186*
X0046Y00187*
X0046Y00187*
X0046Y00187*
X0046Y00188*
X0046Y00188*
X0046Y00188*
X00461Y00189*
X00461Y00189*
X00461Y00189*
X00461Y0019*
M02*