%FSTAX23Y23*%
%MOIN*%
%SFA1B1*%

%IPPOS*%
%AMD27*
4,1,4,0.020900,0.000000,0.000000,0.020900,-0.020900,0.000000,0.000000,-0.020900,0.020900,0.000000,0.0*
%
%AMD30*
4,1,4,0.002600,-0.049400,0.049400,0.002600,-0.002600,0.049400,-0.049400,-0.002600,0.002600,-0.049400,0.0*
%
%AMD56*
4,1,4,-0.005500,-0.019500,0.019500,0.005500,0.005500,0.019500,-0.019500,-0.005500,-0.005500,-0.019500,0.0*
%
%AMD57*
4,1,4,-0.043100,0.009800,0.009800,-0.043100,0.043100,-0.009800,-0.009800,0.043100,-0.043100,0.009800,0.0*
%
%AMD61*
4,1,4,0.001400,0.022200,-0.022200,-0.001400,-0.001400,-0.022200,0.022200,0.001400,0.001400,0.022200,0.0*
%
%AMD63*
4,1,4,0.000000,0.020900,-0.020900,0.000000,0.000000,-0.020900,0.020900,0.000000,0.000000,0.020900,0.0*
%
G04~CAMADD=27~10~0.0~296.6~0.0~0.0~0.0~0.0~0~0.0~0.0~0.0~0.0~0~0.0~0.0~0.0~0.0~0~0.0~0.0~0.0~315.0~296.6~0.0*
%ADD27D27*%
%ADD28R,0.029650X0.029650*%
G04~CAMADD=30~10~0.0~700.1~0.0~0.0~0.0~0.0~0~0.0~0.0~0.0~0.0~0~0.0~0.0~0.0~0.0~0~0.0~0.0~0.0~228.0~700.1~0.0*
%ADD30D30*%
%ADD31C,0.070010*%
%ADD32C,0.054930*%
%ADD33R,0.054930X0.054930*%
%ADD34C,0.013780*%
%ADD35C,0.070990*%
%ADD52C,0.003940*%
%ADD55C,0.017840*%
G04~CAMADD=56~9~0.0~0.0~355.6~198.1~0.0~0.0~0~0.0~0.0~0.0~0.0~0~0.0~0.0~0.0~0.0~0~0.0~0.0~0.0~225.0~390.0~389.0*
%ADD56D56*%
G04~CAMADD=57~9~0.0~0.0~749.3~473.7~0.0~0.0~0~0.0~0.0~0.0~0.0~0~0.0~0.0~0.0~0.0~0~0.0~0.0~0.0~135.0~862.0~861.0*
%ADD57D57*%
%ADD58R,0.035560X0.019810*%
%ADD59R,0.047370X0.074930*%
%ADD60R,0.033390X0.026900*%
G04~CAMADD=61~9~0.0~0.0~335.9~294.6~0.0~0.0~0~0.0~0.0~0.0~0.0~0~0.0~0.0~0.0~0.0~0~0.0~0.0~0.0~45.0~444.0~443.0*
%ADD61D61*%
%ADD62R,0.029650X0.029650*%
G04~CAMADD=63~10~0.0~296.6~0.0~0.0~0.0~0.0~0~0.0~0.0~0.0~0.0~0~0.0~0.0~0.0~0.0~0~0.0~0.0~0.0~405.0~296.6~0.0*
%ADD63D63*%
%LNkoosh_sensor_top_v1_1-1*%
%LPD*%
G54D27*
X00303Y00453D03*
X00336Y00486D03*
X00241Y00466D03*
X00208Y00433D03*
X00073Y00448D03*
X00106Y00481D03*
X00483Y00118D03*
X00516Y00151D03*
G54D28*
X00332Y00365D03*
X00378D03*
X00247Y0036D03*
X00293D03*
X00408Y00315D03*
X00362D03*
X00472Y00185D03*
X00518D03*
X00399Y00124D03*
X00445D03*
X00353Y0015D03*
X00307D03*
X00208Y00195D03*
X00162D03*
X00073Y00325D03*
X00027D03*
G54D30*
X0019Y00105D03*
G54D31*
X00115Y00171D03*
G54D32*
X00192Y00345D03*
X00255Y00407D03*
X00342D03*
X00405Y00257D03*
X00342Y00195D03*
G54D33*
X00255Y00195D03*
G54D34*
X0025Y00542D03*
G54D35*
X00435Y0003D03*
X00215Y0001D03*
X00035Y0016D03*
X00365Y00005D03*
X005Y0007D03*
X0029Y0D03*
X0014Y00045D03*
X0008Y00095D03*
G54D52*
X00233Y0056D03*
G54D55*
X00274Y00542D02*
D01*
X00274Y00544*
X00274Y00546*
X00273Y00547*
X00273Y00549*
X00272Y00551*
X00272Y00552*
X00271Y00554*
X0027Y00555*
X00269Y00556*
X00268Y00558*
X00267Y00559*
X00266Y0056*
X00265Y00561*
X00263Y00562*
X00262Y00563*
X00261Y00564*
X00259Y00564*
X00258Y00565*
X00256Y00565*
X00254Y00566*
X00253Y00566*
X00251Y00566*
X00249*
X00248Y00566*
X00246Y00566*
X00245Y00565*
X00243Y00565*
X00241Y00564*
X0024Y00564*
X00238Y00563*
X00237Y00562*
X00236Y00561*
X00234Y0056*
X00233Y00559*
X00232Y00558*
X00231Y00556*
X0023Y00555*
X00229Y00554*
X00229Y00552*
X00228Y00551*
X00228Y00549*
X00227Y00547*
X00227Y00546*
X00227Y00544*
X00227Y00542*
X00227Y00541*
X00227Y00539*
X00227Y00538*
X00228Y00536*
X00228Y00534*
X00229Y00533*
X00229Y00531*
X0023Y0053*
X00231Y00529*
X00232Y00527*
X00233Y00526*
X00234Y00525*
X00236Y00524*
X00237Y00523*
X00238Y00522*
X0024Y00521*
X00241Y00521*
X00243Y0052*
X00245Y0052*
X00246Y00519*
X00248Y00519*
X00249Y00519*
X00251*
X00253Y00519*
X00254Y00519*
X00256Y0052*
X00258Y0052*
X00259Y00521*
X00261Y00521*
X00262Y00522*
X00263Y00523*
X00265Y00524*
X00266Y00525*
X00267Y00526*
X00268Y00527*
X00269Y00529*
X0027Y0053*
X00271Y00531*
X00272Y00533*
X00272Y00534*
X00273Y00536*
X00273Y00538*
X00274Y00539*
X00274Y00541*
X00274Y00542*
G54D56*
X00133Y00455D03*
X00147Y00441D03*
X00161Y00427D03*
X00175Y00413D03*
X00116Y00354D03*
X00102Y00368D03*
X00088Y00382D03*
X00074Y00396D03*
G54D57*
X00125Y00405D03*
G54D58*
X00202Y0024D03*
Y0026D03*
Y00279D03*
Y00299D03*
X00285D03*
Y00279D03*
Y0026D03*
Y0024D03*
X0047Y00215D03*
Y00235D03*
Y00255D03*
Y00274D03*
X00552D03*
Y00255D03*
Y00235D03*
Y00215D03*
G54D59*
X00243Y00269D03*
X00511Y00245D03*
G54D60*
X00319Y00114D03*
Y00075D03*
X0026Y00095D03*
G54D61*
X00305Y00515D03*
X00278Y00488D03*
G54D62*
X00325Y00308D03*
Y00262D03*
X0013Y00273D03*
Y00227D03*
X00075Y00293D03*
Y00247D03*
X00425Y00167D03*
Y00213D03*
X0039Y00208D03*
Y00162D03*
X0036Y00062D03*
Y00108D03*
X00165Y00273D03*
Y00227D03*
G54D63*
X00406Y00423D03*
X00373Y00456D03*
X00176Y00473D03*
X00143Y00506D03*
X00173Y00536D03*
X00206Y00503D03*
M02*