%FSTAX23Y23*%
%MOIN*%
%SFA1B1*%

%IPPOS*%
%AMD40*
4,1,4,-0.020900,0.000000,0.000000,-0.020900,0.020900,0.000000,0.000000,0.020900,-0.020900,0.000000,0.0*
%
%ADD20C,0.003940*%
%ADD37C,0.017840*%
%ADD38R,0.029650X0.029650*%
%ADD39R,0.029650X0.029650*%
G04~CAMADD=40~10~0.0~296.6~0.0~0.0~0.0~0.0~0~0.0~0.0~0.0~0.0~0~0.0~0.0~0.0~0.0~0~0.0~0.0~0.0~135.0~296.6~0.0*
%ADD40D40*%
%ADD41R,0.029460X0.033590*%
%ADD42R,0.021780X0.033590*%
%ADD43R,0.074930X0.051310*%
%ADD44O,0.047370X0.027690*%
%ADD45R,0.041470X0.021780*%
%ADD46R,0.074930X0.104460*%
%ADD47R,0.078870X0.047370*%
%ADD48C,0.038980*%
%ADD49R,0.031620X0.037530*%
%ADD50R,0.031620X0.032410*%
%ADD51R,0.031620X0.030410*%
%ADD52R,0.047370X0.039500*%
%ADD53R,0.035560X0.067060*%
%ADD54R,0.019810X0.051310*%
%ADD55R,0.034580X0.017840*%
%ADD56R,0.017840X0.030640*%
%ADD57C,0.056000*%
%ADD58C,0.027490*%
%ADD59C,0.063120*%
%ADD60C,0.055240*%
%ADD61C,0.067060*%
%ADD62R,0.067060X0.067060*%
%ADD63C,0.013780*%
%ADD64C,0.019810*%
%LNpower_pcb_v2-1*%
%LPD*%
G54D20*
X01577Y01304D03*
G54D37*
X01576Y01303D02*
D01*
X01576Y01305*
X01576Y01306*
X01576Y01308*
X01575Y0131*
X01575Y01311*
X01574Y01313*
X01573Y01314*
X01573Y01316*
X01572Y01317*
X01571Y01318*
X0157Y0132*
X01568Y01321*
X01567Y01322*
X01566Y01323*
X01564Y01324*
X01563Y01324*
X01561Y01325*
X0156Y01326*
X01558Y01326*
X01557Y01326*
X01555Y01327*
X01553Y01327*
X01552*
X0155Y01327*
X01548Y01326*
X01547Y01326*
X01545Y01326*
X01544Y01325*
X01542Y01324*
X01541Y01324*
X01539Y01323*
X01538Y01322*
X01537Y01321*
X01536Y0132*
X01534Y01318*
X01533Y01317*
X01533Y01316*
X01532Y01314*
X01531Y01313*
X0153Y01311*
X0153Y0131*
X01529Y01308*
X01529Y01306*
X01529Y01305*
X01529Y01303*
X01529Y01302*
X01529Y013*
X01529Y01298*
X0153Y01297*
X0153Y01295*
X01531Y01294*
X01532Y01292*
X01533Y01291*
X01533Y01289*
X01534Y01288*
X01536Y01287*
X01537Y01286*
X01538Y01285*
X01539Y01284*
X01541Y01283*
X01542Y01282*
X01544Y01281*
X01545Y01281*
X01547Y0128*
X01548Y0128*
X0155Y0128*
X01552Y0128*
X01553*
X01555Y0128*
X01557Y0128*
X01558Y0128*
X0156Y01281*
X01561Y01281*
X01563Y01282*
X01564Y01283*
X01566Y01284*
X01567Y01285*
X01568Y01286*
X0157Y01287*
X01571Y01288*
X01572Y01289*
X01573Y01291*
X01573Y01292*
X01574Y01294*
X01575Y01295*
X01575Y01297*
X01576Y01298*
X01576Y013*
X01576Y01302*
X01576Y01303*
G54D38*
X01333Y0121D03*
X01287D03*
X00908Y0144D03*
X00862D03*
X01068Y01255D03*
X01022D03*
X01778Y0127D03*
X01732D03*
X01558Y0136D03*
X01512D03*
X01673Y01275D03*
X01627D03*
X01673Y0131D03*
X01627D03*
X01413Y0121D03*
X01367D03*
X01117Y01255D03*
X01163D03*
X01027Y0138D03*
X01073D03*
Y01415D03*
X01027D03*
X00862Y01405D03*
X00908D03*
X00862Y0147D03*
X00908D03*
G54D39*
X01973Y01473D03*
Y01427D03*
X01235Y01243D03*
Y01197D03*
X00295Y01237D03*
Y01283D03*
X00345Y01403D03*
Y01357D03*
G54D40*
X01266Y01461D03*
X01233Y01428D03*
G54D41*
X01495Y01285D03*
X01494Y01322D03*
G54D42*
X00259Y01318D03*
X00285D03*
X0031D03*
Y01405D03*
X00285D03*
X00259D03*
G54D43*
X00285Y01361D03*
G54D44*
X01205Y0131D03*
X01206Y01346D03*
X01205Y0138D03*
Y0141D03*
G54D45*
X00695Y01466D03*
Y0144D03*
Y01415D03*
Y01389D03*
X00809D03*
Y01415D03*
Y0144D03*
Y01466D03*
G54D46*
X00752Y01427D03*
G54D47*
X0173Y01449D03*
Y0135D03*
G54D48*
X0161Y01457D03*
Y01407D03*
X0156Y01457D03*
Y01407D03*
X0151Y01457D03*
Y01407D03*
G54D49*
X0064Y01456D03*
Y01413D03*
G54D50*
X01631Y01355D03*
X01668D03*
G54D51*
X01701Y01485D03*
X01738D03*
G54D52*
X00938Y01201D03*
Y01288D03*
X00651Y01201D03*
Y01288D03*
G54D53*
X00883Y01313D03*
X00824D03*
X00706D03*
G54D54*
X00563Y01468D03*
Y01251D03*
X00544Y01468D03*
Y01251D03*
X00524Y01468D03*
Y01251D03*
X00504Y01468D03*
Y01251D03*
X00485Y01468D03*
Y01251D03*
X00465Y01468D03*
Y01251D03*
X00445Y01468D03*
Y01251D03*
X00426Y01468D03*
Y01251D03*
G54D55*
X01813Y01297D03*
X01936Y01295D03*
Y01317D03*
Y01336D03*
Y01356D03*
Y01376D03*
Y01395D03*
Y01415D03*
Y01435D03*
Y01455D03*
Y01475D03*
X01813Y01477D03*
Y01455D03*
Y01435D03*
Y01415D03*
Y01395D03*
Y01376D03*
Y01356D03*
Y01336D03*
Y01317D03*
G54D56*
X01845Y01295D03*
X01865D03*
X01884D03*
X01904D03*
Y01477D03*
X01884D03*
X01865D03*
X01845D03*
G54D57*
X01747Y0122D03*
X01688D03*
X0151Y01218D03*
X0157Y0122D03*
X01629D03*
G54D58*
X0166Y01392D03*
Y01472D03*
X0146Y01432D03*
G54D59*
X00854Y01245D03*
X00735D03*
G54D60*
X01397Y01342D03*
X01347Y01392D03*
X01297Y01342D03*
X01347Y01292D03*
G54D61*
X0184Y01245D03*
G54D62*
X0194Y01245D03*
G54D63*
X01553Y01303D03*
G54D64*
X01607Y01329D03*
X01656Y0124D03*
X01622Y01322D03*
X01572Y01345D03*
X0161D03*
X01205Y0144D03*
M02*