%FSTAX23Y23*%
%MOIN*%
%SFA1B1*%

%IPPOS*%
%ADD14C,0.008000*%
%ADD67C,0.048000*%
%ADD71C,0.059060*%
%ADD73C,0.011810*%
%ADD74C,0.023620*%
%ADD75C,0.015750*%
%ADD76C,0.016000*%
%LNpower_pcb_v2-1*%
%LPD*%
G36*
X0199Y01342D02*
X01985Y01341D01*
X01984Y01343*
X01984Y01343*
X01984Y01343*
X01982Y01347*
X01978Y01349*
X01975Y0135*
X01971Y01349*
X01967Y01347*
X01965Y01343*
X01964Y0134*
X01965Y01336*
X01967Y01332*
X01971Y0133*
X01975Y01329*
X01978Y0133*
X01982Y01332*
X01984Y01335*
X01984Y01336*
X01984Y01336*
X01985Y01338*
X0199Y01337*
Y01185*
X0183*
Y01203*
X01832Y01205*
Y01245*
Y01284*
X0183Y01286*
Y01295*
X01935*
Y0142*
X01921*
Y01438*
X01922Y0144*
X01923Y01443*
X01923Y01445*
X01922Y01447*
X0192Y01451*
X01917Y01453*
X01913Y01454*
X01909Y01453*
X01906Y01451*
X01903Y01447*
X01903Y01445*
X01903Y01443*
X01903Y0144*
X01905Y01438*
Y0142*
X01748*
X01746Y01423*
X01742Y01425*
X01738Y01426*
X01735Y01425*
X01731Y01423*
X01729Y0142*
X0163*
Y01423*
X01629Y01428*
X01627Y01432*
X01623Y01434*
X01618Y01435*
X01613Y01434*
X01609Y01432*
X01607Y01428*
X01606Y01423*
Y0142*
X01577*
X01576Y01425*
X01578Y01425*
X01578Y01425*
X01578Y01425*
X01582Y01427*
X01584Y01431*
X01585Y01435*
X01584Y01438*
X01582Y01442*
X01578Y01444*
X01575Y01445*
X01574Y01445*
X01571Y01444*
X01567Y01442*
X01565Y01438*
X01564Y01435*
X01565Y01431*
X01567Y01427*
X0157Y01425*
X01571Y01425*
X01571Y01425*
X01573Y01425*
X01572Y0142*
X01505*
Y01445*
X0148*
X01476Y01449*
X01469Y01455*
X0146Y01456*
X0145Y01455*
X01445Y01451*
X01439Y01452*
X01435Y01454*
X01431Y01454*
X01428Y01454*
X01424Y01452*
X01422Y01448*
X01421Y01445*
X01371*
X01366Y01449*
X01366Y01453*
X01364Y01456*
X01362Y01457*
Y01457*
X01364Y01461*
X01365Y01465*
X01364Y01468*
X01362Y01472*
X01358Y01474*
X01355Y01475*
X01351Y01474*
X01347Y01472*
X01346Y0147*
X01343Y01469*
X0134Y01469*
X01338Y0147*
X01335Y01471*
X01331Y0147*
X01327Y01468*
X01325Y01465*
X01324Y01461*
X01325Y01457*
X01327Y01454*
X01331Y01451*
X01335Y01451*
X01338Y01451*
X01341Y01453*
X01345Y01452*
X01346Y01452*
X01347Y01451*
X01346Y01449*
X01342Y01445*
X01288*
X01287Y01447*
X01283Y01449*
X0128Y0145*
X01276Y01449*
X01272Y01447*
X01271Y01445*
X01213*
X01212Y01447*
X01208Y01449*
X01205Y0145*
X01201Y01449*
X01197Y01447*
X01196Y01445*
X01149*
X01149Y0145*
X0115Y0145*
X01151Y0145*
X01151Y0145*
X01154Y01452*
X01156Y01456*
X01157Y0146*
X01156Y01463*
X01154Y01467*
X01151Y01469*
X01147Y0147*
X01143Y01469*
X0114Y01467*
X01138Y01463*
X01137Y0146*
X01138Y01456*
X0114Y01452*
X01143Y0145*
X01143Y0145*
X01144Y0145*
X01145Y0145*
X01145Y01445*
X0109*
X0109Y0145*
X01093Y0145*
X01097Y01452*
X01099Y01456*
X011Y0146*
X01099Y01463*
X01097Y01467*
X01093Y01469*
X01089Y0147*
X01086Y01469*
X01082Y01467*
X01077*
X01073Y01469*
X0107Y0147*
X01066Y01469*
X01062Y01467*
X0106Y01463*
X01059Y0146*
X0106Y01456*
X01062Y01452*
X01066Y0145*
X01069Y0145*
X01069Y01445*
X01054*
X0105Y0145*
X01049Y01453*
X01047Y01457*
X01043Y01459*
X0104Y0146*
X01036Y01459*
X01032Y01457*
X0103Y01453*
X01029Y0145*
X01025Y01445*
X00996*
X00996Y01447*
X00993Y0145*
X0099Y01452*
X00986Y01453*
X00982Y01452*
X00979Y0145*
X00977Y01447*
X00976Y01445*
X0088*
Y0141*
X00835*
Y01445*
Y015*
X01217*
X01218Y01495*
X01216Y01494*
X01216Y01494*
X01216Y01494*
X01212Y01492*
X0121Y01488*
X01209Y01485*
X0121Y01481*
X01212Y01477*
X01216Y01475*
X0122Y01474*
X01223Y01475*
X01227Y01477*
X01229Y01481*
X0123Y01485*
X01229Y01488*
X01227Y01492*
X01224Y01494*
X01223Y01494*
X01223Y01494*
X01221Y01495*
X01222Y015*
X01573*
X01576Y01495*
X01575Y01493*
X01574Y0149*
X01575Y01486*
X01577Y01482*
X01581Y0148*
X01585Y01479*
X01588Y0148*
X01592Y01482*
X01594Y01486*
X01595Y0149*
X01594Y01493*
X01593Y01495*
X01596Y015*
X01613*
X01616Y01495*
X01615Y01493*
X01614Y0149*
X01615Y01486*
X01617Y01482*
X01621Y0148*
X01625Y01479*
X01628Y0148*
X01632Y01482*
X01634Y01486*
X01635Y0149*
X01634Y01493*
X01633Y01495*
X01636Y015*
X0165*
X0165Y01495*
X01643Y01489*
X01637Y01482*
X01636Y01472*
X01637Y01463*
X01643Y01455*
X0165Y0145*
X0166Y01448*
X01665Y0145*
X01669Y0145*
X01676Y01455*
X01682Y01463*
X01683Y01472*
X01683Y01476*
X01684Y01477*
X01687Y0148*
X0169Y01479*
X01693Y0148*
X01697Y01482*
X01699Y01486*
X017Y0149*
X01699Y01493*
X01698Y01495*
X01701Y015*
X01768*
X01771Y01495*
X0177Y01493*
X01769Y0149*
X0177Y01486*
X01772Y01482*
X01776Y0148*
X0178Y01479*
X01783Y0148*
X01787Y01482*
X01789Y01486*
X0179Y0149*
X01789Y01493*
X01788Y01495*
X01791Y015*
X0199*
Y01342*
G37*
G36*
X00825Y0145D02*
X00815D01*
X00815Y0145*
X00814Y0145*
X0041*
Y015*
X00542*
X00543Y01495*
X00541Y01494*
X00541Y01494*
X00541Y01494*
X00537Y01492*
X00535Y01488*
X00534Y01485*
X00535Y01481*
X00537Y01477*
X00541Y01475*
X00545Y01474*
X00548Y01475*
X00552Y01477*
X00554Y01481*
X00555Y01485*
X00554Y01488*
X00552Y01492*
X00549Y01494*
X00548Y01494*
X00548Y01494*
X00546Y01495*
X00547Y015*
X00632*
X00633Y01495*
X00631Y01494*
X00631Y01494*
X00631Y01494*
X00627Y01492*
X00625Y01488*
X00624Y01485*
X00625Y01481*
X00627Y01477*
X00631Y01475*
X00635Y01474*
X00638Y01475*
X00642Y01477*
X00644Y01481*
X00645Y01485*
X00644Y01488*
X00642Y01492*
X00639Y01494*
X00638Y01494*
X00638Y01494*
X00636Y01495*
X00637Y015*
X00825*
Y0145*
G37*
G36*
X004Y01466D02*
X00395Y01463D01*
X00393Y01464*
X0039Y01465*
X00386Y01464*
X00382Y01462*
X0038Y01458*
X00379Y01455*
X0038Y01451*
X00382Y01447*
X00386Y01445*
X0039Y01444*
X00393Y01445*
X00395Y01446*
X004Y01443*
Y0144*
X0041*
X00414Y01435*
X00415Y01431*
X00417Y01427*
X00421Y01425*
X00425Y01424*
X00428Y01425*
X00432Y01427*
X00434Y01431*
X00435Y01435*
X00439Y0144*
X00472*
X00473Y01435*
X00471Y01434*
X00471Y01434*
X00471Y01434*
X00467Y01432*
X00465Y01428*
X00464Y01425*
X00465Y01421*
X00467Y01417*
X00471Y01415*
X00475Y01414*
X00478Y01415*
X00482Y01417*
X00484Y01421*
X00485Y01425*
X00484Y01428*
X00482Y01432*
X00479Y01434*
X00478Y01434*
X00478Y01434*
X00476Y01435*
X00477Y0144*
X0053*
Y01365*
X00315*
Y013*
X00313Y01295*
X00315Y01289*
Y01265*
X0032Y0126*
Y0122*
X00325Y01215*
X00371*
X00372Y01212*
X00376Y0121*
X0038Y01209*
X00383Y0121*
X00387Y01212*
X00388Y01215*
X00406*
X00407Y01213*
X00408Y01209*
X0041Y01206*
X00414Y01204*
X00417Y01203*
X00421Y01204*
X00425Y01206*
X00427Y01209*
X00428Y01213*
X00428Y01215*
X00434*
X00435Y01211*
X00437Y01207*
X00441Y01205*
X00445Y01204*
X00448Y01205*
X00452Y01207*
X00454Y01211*
X00455Y01215*
X0064*
Y0132*
X00668*
X00671Y01315*
X0067Y01311*
X00671Y01307*
X00673Y01304*
X00676Y01301*
X0068Y01301*
X00684Y01301*
X00687Y01304*
X0069Y01307*
X0069Y01311*
X0069Y01315*
X00692Y0132*
X00728*
X00731Y01315*
X0073Y01313*
X00729Y0131*
X0073Y01306*
X00732Y01302*
X00736Y013*
X0074Y01299*
X00743Y013*
X00747Y01302*
X00749Y01306*
X0075Y0131*
X00749Y01313*
X00748Y01315*
X00751Y0132*
X00793*
X00796Y01315*
X00795Y01313*
X00794Y0131*
X00795Y01306*
X00797Y01302*
X00801Y013*
X00805Y01299*
X00808Y013*
X00812Y01302*
X00814Y01306*
X00815Y0131*
X00814Y01313*
X00813Y01315*
X00816Y0132*
X0089*
X00935Y01365*
Y01391*
X01064*
X01065Y01387*
X01067Y01384*
X01071Y01382*
X01075Y01381*
X01078Y01382*
X01082Y01384*
X01084Y01387*
X01085Y01391*
X01094*
X01095Y01387*
X01097Y01384*
X01101Y01382*
X01105Y01381*
X01108Y01382*
X01112Y01384*
X01114Y01387*
X01115Y01391*
X01124*
X01125Y01387*
X01127Y01384*
X01131Y01382*
X01135Y01381*
X01138Y01382*
X01142Y01384*
X01144Y01387*
X01145Y01391*
X01153*
X01154Y01387*
X01156Y01384*
X01159Y01382*
X01163Y01381*
X01167Y01382*
X0117Y01384*
X01173Y01387*
X01173Y01391*
X0122*
X0122Y01391*
X01222Y01387*
X01222Y01382*
X0122Y01378*
X01219Y01375*
X0122Y01371*
X01222Y01367*
X01226Y01365*
X01227Y01365*
X01227Y01361*
X01227Y0136*
X01224Y01358*
X01222Y01355*
X01221Y01351*
X01222Y01347*
X01224Y01344*
X01227Y01341*
X01231Y01341*
X01235Y01341*
X01238Y01344*
X0124Y01347*
X01241Y01351*
X0124Y01355*
X01238Y01358*
X01235Y0136*
X01234Y0136*
X01233Y01364*
X01234Y01365*
X01237Y01367*
X01239Y01371*
X0124Y01375*
X01239Y01378*
X01237Y01382*
X01237Y01387*
X0124Y01391*
X01313*
X0132Y01384*
X01322Y01378*
X01327Y01372*
X01333Y01368*
X01339Y01365*
X0137Y01335*
X0137*
X01372Y01328*
X01377Y01322*
X01383Y01318*
X01389Y01315*
X01397Y01314*
X01404Y01315*
X0141Y01318*
X01416Y01322*
X01421Y01328*
X01423Y01335*
X01459*
X0146Y01334*
X0146Y01331*
X01462Y01327*
X01466Y01325*
X0147Y01324*
X01474Y01325*
X01477Y01327*
X01478Y0133*
X0148Y01331*
X01484Y01331*
X01486Y0133*
X0149Y01329*
X01493Y0133*
X01497Y01332*
X01498Y01335*
X01571*
X01572Y01334*
X01572Y01335*
X01594*
X01597Y0133*
X01597Y01329*
X01598Y01325*
X016Y01322*
X01604Y0132*
X01607Y01319*
X01611Y0132*
X01614Y01315*
X01615Y01315*
X01618Y01312*
X01622Y01312*
X01626Y01312*
X01629Y01315*
X01631Y01318*
X01632Y01322*
X01631Y01326*
X01629Y01329*
X01628Y0133*
X0163Y01335*
X01752*
X01753Y0133*
X01751Y01329*
X01751Y01329*
X01751Y01329*
X01747Y01327*
X01745Y01323*
X01744Y0132*
X01745Y01316*
X01747Y01312*
X01751Y0131*
X01755Y01309*
X01758Y0131*
X01762Y01312*
X01764Y01316*
X01765Y0132*
X01764Y01323*
X01762Y01327*
X01759Y01329*
X01758Y01329*
X01758Y01329*
X01756Y0133*
X01757Y01335*
X01901*
X01902Y01332*
X01906Y0133*
X0191Y01329*
X01913Y0133*
X01917Y01332*
X01918Y01335*
X0193*
Y013*
X0183*
Y01299*
X01826Y01298*
X01825Y01295*
Y01286*
X01825Y01286*
X01825Y01286*
X01826Y01284*
X01826Y01283*
X01827Y01283*
X01827Y01283*
X01827Y01282*
Y01276*
X01823Y01274*
X01816Y01268*
X0181Y01261*
X0181Y0126*
X01804Y01259*
X01803Y01259*
X018Y0126*
X01796Y01259*
X01792Y01257*
X0179Y01253*
X01789Y0125*
X0179Y01246*
X01792Y01242*
X01796Y0124*
X018Y01239*
X01801Y0124*
X01807Y01237*
X01807Y01236*
X0181Y01228*
X01816Y01221*
X01823Y01215*
X01827Y01213*
Y01207*
X01827Y01206*
X01827Y01206*
X01826Y01206*
X01826Y01205*
X01825Y01203*
X01825Y01203*
X01825Y01203*
Y01185*
X01531*
X0153Y0119*
X01535Y01193*
X0154Y012*
X01541Y01203*
X01547Y01203*
X0155Y012*
X01555Y01195*
X01562Y01192*
X0157Y01191*
X01577Y01192*
X01584Y01195*
X01589Y012*
X01594Y01205*
X01596Y01211*
X01599Y01212*
X01602Y01211*
X01604Y01205*
X01609Y012*
X01614Y01195*
X01621Y01192*
X01629Y01191*
X01636Y01192*
X01643Y01195*
X01649Y012*
X01653Y01205*
X01655Y01211*
X01658Y01212*
X01661Y01211*
X01663Y01205*
X01668Y012*
X01673Y01195*
X0168Y01192*
X01688Y01191*
X01695Y01192*
X01702Y01195*
X01708Y012*
X01712Y01205*
X01715Y01211*
X01717Y01212*
X0172Y01211*
X01722Y01205*
X01727Y012*
X01733Y01195*
X01739Y01192*
X01747Y01191*
X01754Y01192*
X01761Y01195*
X01767Y012*
X0177Y01204*
X01772Y01205*
X01774Y01205*
X01776Y01204*
X01777Y01202*
X01781Y012*
X01785Y01199*
X01788Y012*
X01792Y01202*
X01794Y01206*
X01795Y0121*
X01794Y01213*
X01792Y01217*
X01788Y01219*
X01785Y0122*
X01781Y01219*
X0178Y01218*
X01778Y01219*
X01775Y01221*
X01774Y01227*
X01771Y01234*
X01767Y01239*
X01761Y01244*
X01754Y01247*
X01747Y01248*
X01739Y01247*
X01733Y01244*
X01727Y01239*
X01722Y01234*
X0172Y01228*
X01717Y01227*
X01715Y01228*
X01712Y01234*
X0171Y01236*
X01712Y01242*
X01714Y01242*
X0172Y01246*
X01723Y01251*
X01723Y01252*
X01693*
X01691Y01249*
X01689Y01248*
X01688Y01248*
X0168Y01247*
X01673Y01244*
X01671Y01242*
X01666Y01244*
X01665Y01244*
X01663Y01247*
X0166Y01249*
X01656Y0125*
X01652Y01249*
X01649Y01247*
X01648Y01246*
X01643Y01244*
X01642Y01244*
X01636Y01247*
X01629Y01248*
X01621Y01247*
X01614Y01244*
X01609Y01239*
X01604Y01234*
X01602Y01228*
X01599Y01227*
X01596Y01228*
X01594Y01234*
X01589Y01239*
X01584Y01244*
X01577Y01247*
X0157Y01248*
X01562Y01247*
X01555Y01244*
X01554Y01243*
X01549Y01245*
X01549Y01245*
X01547Y01249*
X01543Y01251*
X0154Y01252*
X01536Y01251*
X01532Y01249*
X01528Y01247*
X01526Y01248*
X01519Y01251*
X01515Y01251*
Y01218*
X0151*
Y01213*
X01477*
X01477Y01209*
X01481Y012*
X01486Y01193*
X01491Y0119*
X01489Y01185*
X0023*
Y015*
X00367*
X00368Y01495*
X00366Y01494*
X00366Y01494*
X00366Y01494*
X00362Y01492*
X0036Y01488*
X00359Y01485*
X0036Y01481*
X00362Y01477*
X00366Y01475*
X0037Y01474*
X00373Y01475*
X00377Y01477*
X00379Y01481*
X0038Y01485*
X00379Y01488*
X00377Y01492*
X00374Y01494*
X00373Y01494*
X00373Y01494*
X00371Y01495*
X00372Y015*
X004*
Y01466*
G37*
G36*
X00825Y0139D02*
X00818D01*
X00817Y01392*
X00813Y01394*
X0081Y01395*
X00806Y01394*
X00802Y01392*
X00801Y0139*
X0076*
X0076Y0139*
X00759Y0139*
X00596*
Y013*
X00594Y01299*
X00591Y01297*
X00589Y01294*
X00588Y0129*
X00589Y01286*
X00591Y01283*
X00594Y01281*
X00596Y0128*
Y0127*
X00575*
X00574Y01273*
X00572Y01277*
X00568Y01279*
X00565Y0128*
X00561Y01279*
X00557Y01277*
X00555Y01273*
X00554Y0127*
X00325*
Y01275*
X00328Y01279*
X0033Y01278*
X00336Y0128*
X00341Y01283*
X00344Y01288*
X00346Y01295*
X00344Y01301*
X00341Y01306*
X00336Y01309*
X0033Y01311*
X00328Y0131*
X00325Y01314*
Y01359*
X00428*
X00431Y01354*
X0043Y01353*
X00429Y0135*
X0043Y01346*
X00432Y01342*
X00436Y0134*
X0044Y01339*
X00443Y0134*
X00447Y01342*
X00449Y01346*
X0045Y0135*
X00449Y01353*
X00448Y01354*
X00451Y01359*
X0054*
Y01378*
X00545Y0138*
X00545Y0138*
X00548Y01379*
X00552Y0138*
X00556Y01382*
X00558Y01386*
X00559Y0139*
X00558Y01393*
X00556Y01397*
X00552Y01399*
X00548Y014*
X00545Y01399*
X00545Y01399*
X0054Y01401*
Y0144*
X00825*
Y0139*
G37*
G36*
X00977Y0144D02*
X00977Y01439D01*
X00979Y01436*
X00982Y01433*
X00986Y01433*
X0099Y01433*
X00993Y01436*
X00996Y01439*
X00996Y0144*
X01039*
X0104Y01439*
X0104Y0144*
X01194*
X01195Y01436*
X01197Y01432*
X01201Y0143*
X01205Y01429*
X01208Y0143*
X01212Y01432*
X01214Y01436*
X01215Y0144*
X01269*
X0127Y01436*
X01272Y01432*
X01276Y0143*
X0128Y01429*
X01283Y0143*
X01287Y01432*
X01289Y01436*
X0129Y0144*
X01352*
X01353Y01439*
X01356Y01439*
X0136Y01439*
X0136Y0144*
X01423*
X01424Y01437*
X01428Y01435*
X01431Y01434*
X01436Y0143*
X01437Y01423*
X01443Y01415*
X01444Y01415*
X0145Y0141*
X0146Y01408*
X01469Y0141*
X01476Y01415*
X01482Y01423*
X01483Y01432*
X01483Y01436*
X01486Y0144*
X01495*
Y01415*
X01604*
X01606Y01411*
X01612Y01408*
X01618Y01407*
X01624Y01408*
X01629Y01411*
X01631Y01415*
X01642*
X01643Y0141*
X01643Y01409*
X01637Y01402*
X01636Y01392*
X01637Y01383*
X01643Y01375*
X0165Y0137*
X0166Y01368*
X01669Y0137*
X01676Y01375*
X01682Y01383*
X01683Y01392*
X01682Y01402*
X01676Y01409*
X01676Y0141*
X01677Y01415*
X01729*
X01729Y01412*
X01731Y01408*
X01735Y01406*
X01738Y01405*
X01742Y01406*
X01746Y01408*
X01748Y01412*
X01748Y01415*
X01843*
X01846Y0141*
X01845Y01408*
X01844Y01405*
X01845Y01401*
X01847Y01397*
X01851Y01395*
X01855Y01394*
X01858Y01395*
X01862Y01397*
X01864Y01401*
X01865Y01405*
X01864Y01408*
X01863Y0141*
X01866Y01415*
X01928*
Y01343*
X01924Y0134*
X0192*
X01919Y01343*
X01917Y01347*
X01913Y01349*
X0191Y0135*
X01906Y01349*
X01902Y01347*
X019Y01343*
X01899Y0134*
X01894*
X01867*
X01866Y01345*
X01867Y01345*
X01869Y01348*
X0187Y01352*
X01869Y01356*
X01867Y01359*
X01864Y01362*
X01864Y01366*
X01865Y0137*
X01864Y01373*
X01862Y01377*
X01859Y01379*
X01855Y0138*
X01851Y01379*
X01848Y01377*
X01846Y01373*
X01845Y0137*
X01846Y01366*
X01848Y01362*
X01851Y0136*
X0185Y01355*
X0185Y01352*
X0185Y01348*
X01853Y01345*
X01853Y01345*
X01852Y0134*
X01624*
X0162Y01345*
X01619Y01348*
X01617Y01352*
X01613Y01354*
X0161Y01355*
X01606Y01354*
X01602Y01352*
X016Y01348*
X01599Y01345*
X01595Y0134*
X01586*
X01582Y01345*
X01581Y01348*
X01579Y01352*
X01575Y01354*
X01572Y01355*
X01568Y01354*
X01564Y01352*
X01562Y01348*
X01562Y01345*
X01557Y0134*
X015*
X01499Y01343*
X01497Y01347*
X01493Y01349*
X0149Y0135*
X01486Y01349*
X01482Y01347*
X01481Y01344*
X01479Y01343*
X01475Y01343*
X01474Y01344*
X0147Y01344*
X01466Y01344*
X01462Y01342*
X01461Y0134*
X0143*
Y01358*
X01431Y01362*
X01435Y01362*
X01435Y01362*
X01435Y01361*
X01437Y01357*
X0144Y01355*
X01444Y01354*
X01448Y01355*
X01451Y01357*
X01453Y01361*
X01454Y01364*
X01453Y01368*
X01451Y01372*
X01448Y01374*
X01447Y01374*
X01444Y01375*
X01441Y01374*
X0144Y01374*
X01437Y01372*
X01435Y01368*
X01435Y01367*
X01435Y01367*
X01431Y01367*
X0143Y01371*
Y01374*
X01373*
X01371Y01379*
X01373Y01385*
X01374Y01392*
X01373Y01399*
X01371Y01406*
X01366Y01412*
X0136Y01416*
X01354Y01419*
X01347Y0142*
X01339Y01419*
X01338Y01418*
X01332Y01421*
X01332Y01422*
X0133Y01425*
X01327Y01427*
X01323Y01428*
X01319Y01427*
X01316Y01425*
X01313Y01422*
X01313Y01418*
X01313Y01414*
X01316Y01411*
X01318Y01409*
X01319Y01408*
X0132Y01405*
X01319Y01402*
X01315Y014*
X01238*
X01237Y01402*
X01233Y01404*
X01229Y01405*
X01226Y01404*
X01222Y01402*
X01221Y014*
X01169*
X01167Y014*
X01163Y01401*
X01159Y014*
X01158Y014*
X0114*
X01138Y014*
X01135Y01401*
X01131Y014*
X01129Y014*
X0111*
X01108Y014*
X01105Y01401*
X01101Y014*
X01099Y014*
X0108*
X01078Y014*
X01075Y01401*
X01071Y014*
X01069Y014*
X01008*
X01004Y01404*
X01003Y01407*
X01001Y01411*
X00998Y01413*
X00994Y01414*
X0099Y01413*
X00987Y01411*
X00985Y01407*
X00984Y01404*
X00983Y01402*
X00982Y01403*
X00981Y01403*
X00978Y01408*
X00978Y01409*
X00978Y01413*
X00975Y01417*
X00972Y01419*
X00968Y0142*
X00964Y01419*
X00961Y01417*
X00959Y01413*
X00958Y01409*
X00959Y01406*
X0096Y01405*
X00957Y014*
X00925*
Y0137*
X00901Y01346*
X00897Y01347*
X00893Y01349*
X0089Y0135*
X00886Y01349*
X00882Y01347*
X0088Y01343*
X00879Y0134*
X00875Y01335*
X00865*
X00864Y01338*
X00862Y01342*
X00858Y01344*
X00855Y01345*
X00851Y01344*
X00847Y01342*
X00845Y01338*
X00844Y01335*
X00749*
X00745Y0134*
X00744Y01343*
X00742Y01347*
X00738Y01349*
X00735Y0135*
X00731Y01349*
X00727Y01347*
X00725Y01343*
X00724Y0134*
X0072Y01335*
X0064*
X0063Y01325*
Y0122*
X00507*
X00506Y01225*
X00508Y01225*
X00508Y01225*
X00508Y01225*
X00512Y01227*
X00514Y01231*
X00515Y01235*
X00514Y01238*
X00512Y01242*
X00508Y01244*
X00505Y01245*
X00501Y01244*
X00499Y01243*
X00495Y01243*
X00493Y01244*
X00492Y01247*
X00488Y01249*
X00485Y0125*
X00481Y01249*
X00477Y01247*
X00475Y01243*
X00474Y0124*
X00475Y01236*
X00477Y01232*
X00481Y0123*
X00485Y01229*
X00488Y0123*
X0049Y01231*
X00494Y01231*
X00496Y0123*
X00497Y01227*
X005Y01225*
X00501Y01225*
X00501Y01225*
X00503Y01225*
X00502Y0122*
X00453*
X00452Y01222*
X00448Y01224*
X00445Y01225*
X00441Y01224*
X00437Y01222*
X00436Y0122*
X00425*
X00425Y01221*
X00421Y01223*
X00417Y01223*
X00414Y01223*
X0041Y01221*
X0041Y0122*
X0039*
X00389Y01223*
X00387Y01227*
X00383Y01229*
X0038Y0123*
X00376Y01229*
X00372Y01227*
X0037Y01223*
X00369Y0122*
X0033*
Y01265*
X00556*
X00557Y01262*
X00561Y0126*
X00565Y01259*
X00568Y0126*
X00572Y01262*
X00573Y01265*
X00605*
Y01282*
X00605Y01283*
X00607Y01286*
X00608Y0129*
X00607Y01294*
X00605Y01297*
X00605Y01298*
Y01385*
X00745*
X00749Y0138*
X0075Y01376*
X00752Y01372*
X00756Y0137*
X0076Y01369*
X0076Y0137*
X00765Y01365*
X00764Y01365*
X00765Y01361*
X00767Y01357*
X00771Y01355*
X00775Y01354*
X00778Y01355*
X00782Y01357*
X00784Y01361*
X00785Y01365*
X00789Y01365*
X0079Y01364*
X00792Y01361*
X00795Y01359*
X00799Y01358*
X00803Y01359*
X00804Y0136*
X00806Y01361*
X00811Y01359*
X00814Y01357*
X00818Y01356*
X00822Y01357*
X00825Y01359*
X00827Y01362*
X00828Y01366*
X00827Y0137*
X00825Y01373*
X00822Y01376*
X0082Y0138*
X00821Y01385*
X0083*
X00832Y01382*
X00835Y0138*
X00839Y01379*
X00843Y0138*
X00846Y01382*
X00848Y01386*
X00849Y0139*
X00848Y01393*
X00847Y01395*
X0085Y014*
X0089*
Y0144*
X00977*
G37*
%LNpower_pcb_v2-2*%
%LPC*%
G36*
X01475Y01494D02*
X01471Y01494D01*
X01467Y01491*
X01465Y01488*
X01464Y01484*
X01465Y0148*
X01467Y01477*
X01471Y01475*
X01475Y01474*
X01478Y01475*
X01482Y01477*
X01484Y0148*
X01485Y01484*
X01484Y01488*
X01482Y01491*
X01478Y01494*
X01475Y01494*
G37*
G36*
X01415D02*
X01411Y01494D01*
X01407Y01491*
X01405Y01488*
X01404Y01484*
X01405Y0148*
X01407Y01477*
X01411Y01475*
X01415Y01474*
X01418Y01475*
X01422Y01477*
X01424Y0148*
X01425Y01484*
X01424Y01488*
X01422Y01491*
X01418Y01494*
X01415Y01494*
G37*
G36*
X01539Y01493D02*
X01535Y01492D01*
X01531Y0149*
X01529Y01487*
X01528Y01483*
X01529Y01479*
X01531Y01476*
X01533Y01475*
X01535Y01474*
X01539Y01473*
X01542Y01474*
X01546Y01476*
X01548Y01479*
X01549Y01483*
X01548Y01487*
X01546Y0149*
X01542Y01492*
X01539Y01493*
G37*
G36*
X0097Y0149D02*
X00966Y01489D01*
X00962Y01487*
X0096Y01483*
X00959Y0148*
X0096Y01476*
X00962Y01472*
X00966Y0147*
X0097Y01469*
X00973Y0147*
X00977Y01472*
X00979Y01476*
X0098Y0148*
X00979Y01483*
X00977Y01487*
X00973Y01489*
X0097Y0149*
G37*
G36*
X0117Y01485D02*
X01166Y01484D01*
X01162Y01482*
X0116Y01478*
X01159Y01475*
X0116Y01471*
X01162Y01467*
X01166Y01465*
X0117Y01464*
X01173Y01465*
X01177Y01467*
X01179Y01471*
X0118Y01475*
X01179Y01478*
X01177Y01482*
X01173Y01484*
X0117Y01485*
G37*
G36*
X01296Y01483D02*
X01293Y01482D01*
X01289Y0148*
X01287Y01476*
X01286Y01473*
X01287Y01469*
X01289Y01465*
X01293Y01463*
X01296Y01463*
X013Y01463*
X01304Y01465*
X01306Y01469*
X01307Y01473*
X01306Y01476*
X01304Y0148*
X013Y01482*
X01296Y01483*
G37*
G36*
X01118Y01481D02*
X01114Y0148D01*
X0111Y01478*
X01108Y01475*
X01108Y01471*
X01108Y01467*
X0111Y01464*
X01114Y01462*
X01118Y01461*
X01121Y01462*
X01125Y01464*
X01127Y01467*
X01128Y01471*
X01127Y01475*
X01125Y01478*
X01121Y0148*
X01118Y01481*
G37*
G36*
X0197Y0146D02*
X01966Y01459D01*
X01962Y01457*
X0196Y01453*
X01959Y0145*
X0196Y01446*
X01962Y01442*
X01966Y0144*
X0197Y01439*
X01973Y0144*
X01977Y01442*
X01979Y01446*
X0198Y0145*
X01979Y01453*
X01977Y01457*
X01973Y01459*
X0197Y0146*
G37*
G36*
X01848Y01281D02*
Y01253D01*
X01876*
X01876Y01254*
X01872Y01263*
X01866Y01271*
X01858Y01277*
X01849Y01281*
X01848Y01281*
G37*
G36*
X01973Y01278D02*
X01906D01*
Y01211*
X01973*
Y01278*
G37*
G36*
X01876Y01237D02*
X01848D01*
Y01208*
X01849Y01208*
X01858Y01212*
X01866Y01218*
X01872Y01226*
X01876Y01235*
X01876Y01237*
G37*
G36*
X0026Y01465D02*
X00256Y01464D01*
X00252Y01462*
X0025Y01458*
X00249Y01455*
X0025Y01451*
X00252Y01447*
X00256Y01445*
X0026Y01444*
X00263Y01445*
X00267Y01447*
X00269Y01451*
X0027Y01455*
X00269Y01458*
X00267Y01462*
X00263Y01464*
X0026Y01465*
G37*
G36*
X00974Y01373D02*
X0097Y01372D01*
X00967Y0137*
X00965Y01367*
X00964Y01363*
X00965Y01359*
X00967Y01356*
X0097Y01353*
X00974Y01353*
X00978Y01353*
X00981Y01356*
X00984Y01359*
X00984Y01363*
X00984Y01367*
X00981Y0137*
X00978Y01372*
X00974Y01373*
G37*
G36*
X01165Y01355D02*
X01161Y01354D01*
X01157Y01352*
X01155Y01348*
X01154Y01345*
X01155Y01341*
X01157Y01337*
X01161Y01335*
X01165Y01334*
X01168Y01335*
X01172Y01337*
X01174Y01341*
X01175Y01345*
X01174Y01348*
X01172Y01352*
X01168Y01354*
X01165Y01355*
G37*
G36*
X01135D02*
X01131Y01354D01*
X01127Y01352*
X01125Y01348*
X01124Y01345*
X01125Y01341*
X01127Y01337*
X01131Y01335*
X01135Y01334*
X01138Y01335*
X01142Y01337*
X01144Y01341*
X01145Y01345*
X01144Y01348*
X01142Y01352*
X01138Y01354*
X01135Y01355*
G37*
G36*
X01105D02*
X01101Y01354D01*
X01097Y01352*
X01095Y01348*
X01094Y01345*
X01095Y01341*
X01097Y01337*
X01101Y01335*
X01105Y01334*
X01108Y01335*
X01112Y01337*
X01114Y01341*
X01115Y01345*
X01114Y01348*
X01112Y01352*
X01108Y01354*
X01105Y01355*
G37*
G36*
X01075Y01351D02*
X01071Y0135D01*
X01067Y01348*
X01065Y01345*
X01064Y01341*
X01065Y01337*
X01067Y01334*
X01071Y01332*
X01075Y01331*
X01078Y01332*
X01082Y01334*
X01084Y01337*
X01085Y01341*
X01084Y01345*
X01082Y01348*
X01078Y0135*
X01075Y01351*
G37*
G36*
X01297Y0137D02*
X01289Y01369D01*
X01283Y01366*
X01277Y01362*
X01272Y01356*
X0127Y01349*
X01269Y01342*
X0127Y01335*
X01272Y01328*
X01277Y01322*
X01283Y01318*
X01289Y01315*
X01297Y01314*
X01304Y01315*
X0131Y01318*
X01316Y01322*
X01321Y01328*
X01323Y01335*
X01324Y01342*
X01323Y01349*
X01321Y01356*
X01316Y01362*
X0131Y01366*
X01304Y01369*
X01297Y0137*
G37*
G36*
X0123Y01325D02*
X01226Y01324D01*
X01222Y01322*
X0122Y01318*
X01219Y01315*
X0122Y01311*
X01222Y01307*
X01226Y01305*
X0123Y01304*
X01233Y01305*
X01237Y01307*
X01239Y01311*
X0124Y01315*
X01239Y01318*
X01237Y01322*
X01233Y01324*
X0123Y01325*
G37*
G36*
X01483Y01318D02*
X01479Y01317D01*
X01476Y01315*
X01474Y01312*
X01473Y01308*
X01474Y01304*
X01476Y01301*
X01479Y01299*
X01483Y01298*
X01487Y01299*
X0149Y01301*
X01492Y01304*
X01493Y01308*
X01492Y01312*
X0149Y01315*
X01487Y01317*
X01483Y01318*
G37*
G36*
X01553Y01314D02*
X01548Y01313D01*
X01545Y01311*
X01542Y01307*
X01541Y01303*
X01542Y01299*
X01545Y01295*
X01548Y01293*
X01553Y01292*
X01557Y01293*
X0156Y01295*
X01563Y01299*
X01564Y01303*
X01563Y01307*
X0156Y01311*
X01557Y01313*
X01553Y01314*
G37*
G36*
X01163Y01306D02*
X01159Y01305D01*
X01156Y01303*
X01154Y013*
X01153Y01296*
X01154Y01292*
X01156Y01289*
X01159Y01287*
X01163Y01286*
X01167Y01287*
X0117Y01289*
X01173Y01292*
X01173Y01296*
X01173Y013*
X0117Y01303*
X01167Y01305*
X01163Y01306*
G37*
G36*
X01135Y01306D02*
X01131Y01305D01*
X01127Y01303*
X01125Y013*
X01124Y01296*
X01125Y01292*
X01127Y01289*
X01131Y01287*
X01135Y01286*
X01138Y01287*
X01142Y01289*
X01144Y01292*
X01145Y01296*
X01144Y013*
X01142Y01303*
X01138Y01305*
X01135Y01306*
G37*
G36*
X01105D02*
X01101Y01305D01*
X01097Y01303*
X01095Y013*
X01094Y01296*
X01095Y01292*
X01097Y01289*
X01101Y01287*
X01105Y01286*
X01108Y01287*
X01112Y01289*
X01114Y01292*
X01115Y01296*
X01114Y013*
X01112Y01303*
X01108Y01305*
X01105Y01306*
G37*
G36*
X01075D02*
X01071Y01305D01*
X01067Y01303*
X01065Y013*
X01064Y01296*
X01065Y01292*
X01067Y01289*
X01071Y01287*
X01075Y01286*
X01078Y01287*
X01082Y01289*
X01084Y01292*
X01085Y01296*
X01084Y013*
X01082Y01303*
X01078Y01305*
X01075Y01306*
G37*
G36*
X0175Y01305D02*
X01746Y01304D01*
X01742Y01302*
X0174Y01298*
X01739Y01295*
X0174Y01291*
X01742Y01287*
X01746Y01285*
X0175Y01284*
X01753Y01285*
X01757Y01287*
X01759Y01291*
X0176Y01295*
X01759Y01298*
X01757Y01302*
X01753Y01304*
X0175Y01305*
G37*
G36*
X0127D02*
X01266Y01304D01*
X01262Y01302*
X0126Y01298*
X01259Y01295*
X0126Y01291*
X01262Y01287*
X01266Y01285*
X0127Y01284*
X01273Y01285*
X01277Y01287*
X01279Y01291*
X0128Y01295*
X01279Y01298*
X01277Y01302*
X01273Y01304*
X0127Y01305*
G37*
G36*
X01525Y01287D02*
X01521Y01286D01*
X01517Y01284*
X01515Y0128*
X01514Y01276*
X01515Y01273*
X01517Y01269*
X01521Y01267*
X01525Y01266*
X01528Y01267*
X01532Y01269*
X01534Y01273*
X01535Y01276*
X01534Y0128*
X01532Y01284*
X01528Y01286*
X01525Y01287*
G37*
G36*
X01347Y0132D02*
X01339Y01319D01*
X01333Y01316*
X01327Y01312*
X01322Y01306*
X0132Y01299*
X01319Y01292*
X0132Y01285*
X01322Y01278*
X01327Y01272*
X01333Y01268*
X01339Y01265*
X01347Y01264*
X01354Y01265*
X0136Y01268*
X01366Y01272*
X01371Y01278*
X01373Y01285*
X01374Y01292*
X01373Y01299*
X01371Y01306*
X01366Y01312*
X0136Y01316*
X01354Y01319*
X01347Y0132*
G37*
G36*
X01713Y01272D02*
Y01262D01*
X01723*
X01723Y01263*
X0172Y01269*
X01714Y01272*
X01713Y01272*
G37*
G36*
X01703D02*
X01702Y01272D01*
X01697Y01269*
X01693Y01263*
X01693Y01262*
X01703*
Y01272*
G37*
G36*
X01595Y0128D02*
X01591Y01279D01*
X01587Y01277*
X01585Y01273*
X01584Y0127*
X01585Y01266*
X01587Y01262*
X01591Y0126*
X01595Y01259*
X01598Y0126*
X01602Y01262*
X01604Y01266*
X01605Y0127*
X01604Y01273*
X01602Y01277*
X01598Y01279*
X01595Y0128*
G37*
G36*
X0127Y01275D02*
X01266Y01274D01*
X01262Y01272*
X0126Y01268*
X01259Y01265*
X0126Y01261*
X01262Y01257*
X01266Y01255*
X0127Y01254*
X01273Y01255*
X01277Y01257*
X01279Y01261*
X0128Y01265*
X01279Y01268*
X01277Y01272*
X01273Y01274*
X0127Y01275*
G37*
G36*
X00925Y0125D02*
X00921Y01249D01*
X00917Y01247*
X00912*
X00908Y01249*
X00905Y0125*
X00901Y01249*
X00897Y01247*
X00895Y01243*
X00894Y0124*
X00895Y01236*
X00897Y01232*
X00901Y0123*
X00905Y01229*
X00908Y0123*
X00912Y01232*
X00917*
X00921Y0123*
X00925Y01229*
X00928Y0123*
X00932Y01232*
X00934Y01236*
X00935Y0124*
X00934Y01243*
X00932Y01247*
X00928Y01249*
X00925Y0125*
G37*
G36*
X01205Y01255D02*
X01201Y01254D01*
X01197Y01252*
X01195Y01248*
X01194Y01245*
X01195Y01241*
X01197Y01237*
X01201Y01235*
X01205Y01234*
X01208Y01235*
X01212Y01237*
X01214Y01241*
X01215Y01245*
X01214Y01248*
X01212Y01252*
X01208Y01254*
X01205Y01255*
G37*
G36*
X01505Y01251D02*
X01502Y01251D01*
X01493Y01247*
X01486Y01242*
X01481Y01235*
X01477Y01226*
X01477Y01223*
X01505*
Y01251*
G37*
G36*
X0109Y01235D02*
X01086Y01235D01*
X01082Y01233*
X0108Y01229*
X01079Y01225*
X0108Y01222*
X01082Y01218*
X01086Y01216*
X0109Y01215*
X01093Y01216*
X01097Y01218*
X01099Y01222*
X011Y01225*
X01099Y01229*
X01097Y01233*
X01093Y01235*
X0109Y01235*
G37*
G36*
X0117Y01235D02*
X01166Y01234D01*
X01162Y01232*
X0116Y01228*
X01159Y01225*
X0116Y01221*
X01162Y01217*
X01166Y01215*
X0117Y01214*
X01173Y01215*
X01177Y01217*
X01179Y01221*
X0118Y01225*
X01179Y01228*
X01177Y01232*
X01173Y01234*
X0117Y01235*
G37*
G36*
X0113D02*
X01126Y01234D01*
X01122Y01232*
X0112Y01228*
X01119Y01225*
X0112Y01221*
X01122Y01217*
X01126Y01215*
X0113Y01214*
X01133Y01215*
X01137Y01217*
X01139Y01221*
X0114Y01225*
X01139Y01228*
X01137Y01232*
X01133Y01234*
X0113Y01235*
G37*
G36*
X00854Y01276D02*
X00845Y01275D01*
X00838Y01272*
X00831Y01267*
X00826Y0126*
X00823Y01253*
X00822Y01245*
X00823Y01236*
X00826Y01229*
X00831Y01222*
X00838Y01217*
X00845Y01214*
X00854Y01213*
X00862Y01214*
X00869Y01217*
X00876Y01222*
X00881Y01229*
X00884Y01236*
X00885Y01245*
X00884Y01253*
X00881Y0126*
X00876Y01267*
X00869Y01272*
X00862Y01275*
X00854Y01276*
G37*
G36*
X00735D02*
X00727Y01275D01*
X0072Y01272*
X00713Y01267*
X00708Y0126*
X00705Y01253*
X00704Y01245*
X00705Y01236*
X00708Y01229*
X00713Y01222*
X0072Y01217*
X00727Y01214*
X00735Y01213*
X00744Y01214*
X00751Y01217*
X00758Y01222*
X00763Y01229*
X00766Y01236*
X00767Y01245*
X00766Y01253*
X00763Y0126*
X00758Y01267*
X00751Y01272*
X00744Y01275*
X00735Y01276*
G37*
G36*
X00795Y01222D02*
X00791Y01221D01*
X00787Y01219*
X00785Y01215*
X00784Y01211*
X00785Y01208*
X00787Y01204*
X00791Y01202*
X00795Y01201*
X00798Y01202*
X00802Y01204*
X00804Y01208*
X00805Y01211*
X00804Y01215*
X00802Y01219*
X00798Y01221*
X00795Y01222*
G37*
G36*
X0126Y01215D02*
X01256Y01214D01*
X01252Y01212*
X0125Y01208*
X01249Y01205*
X0125Y01201*
X01252Y01197*
X01256Y01195*
X0126Y01194*
X01263Y01195*
X01267Y01197*
X01269Y01201*
X0127Y01205*
X01269Y01208*
X01267Y01212*
X01263Y01214*
X0126Y01215*
G37*
G36*
X00695Y01425D02*
X00691Y01424D01*
X00687Y01422*
X00685Y01418*
X00684Y01415*
X00685Y01411*
X00687Y01407*
X00691Y01405*
X00695Y01404*
X00698Y01405*
X00702Y01407*
X00704Y01411*
X00705Y01415*
X00704Y01418*
X00702Y01422*
X00698Y01424*
X00695Y01425*
G37*
G36*
X0058Y01391D02*
X00576Y01391D01*
X00573Y01388*
X00571Y01385*
X0057Y01381*
X00571Y01377*
X00573Y01374*
X00576Y01372*
X0058Y01371*
X00584Y01372*
X00587Y01374*
X0059Y01377*
X0059Y01381*
X0059Y01385*
X00587Y01388*
X00584Y01391*
X0058Y01391*
G37*
G36*
X0044Y01325D02*
X00436Y01324D01*
X00432Y01322*
X0043Y01318*
X00429Y01315*
X0043Y01311*
X00432Y01307*
X00436Y01305*
X0044Y01304*
X00443Y01305*
X00447Y01307*
X00449Y01311*
X0045Y01315*
X00449Y01318*
X00447Y01322*
X00443Y01324*
X0044Y01325*
G37*
G36*
X0047Y0131D02*
X00466Y01309D01*
X00462Y01307*
X0046Y01303*
X00459Y013*
X0046Y01296*
X00462Y01292*
X00466Y0129*
X0047Y01289*
X00473Y0129*
X00477Y01292*
X00479Y01296*
X0048Y013*
X00479Y01303*
X00477Y01307*
X00473Y01309*
X0047Y0131*
G37*
G36*
X00395Y013D02*
X00391Y01299D01*
X00387Y01297*
X00385Y01293*
X00384Y0129*
X00385Y01286*
X00387Y01282*
X00391Y0128*
X00395Y01279*
X00398Y0128*
X00402Y01282*
X00404Y01286*
X00405Y0129*
X00404Y01293*
X00402Y01297*
X00398Y01299*
X00395Y013*
G37*
G36*
X01786Y01386D02*
X01782Y01385D01*
X01779Y01383*
X01776Y0138*
X01776Y01376*
X01776Y01372*
X01779Y01369*
X01782Y01366*
X01786Y01366*
X0179Y01366*
X01793Y01369*
X01795Y01372*
X01796Y01376*
X01795Y0138*
X01793Y01383*
X0179Y01385*
X01786Y01386*
G37*
G36*
X00585Y01255D02*
X00581Y01254D01*
X00577Y01252*
X00575Y01248*
X00574Y01245*
X00575Y01241*
X00577Y01237*
X00581Y01235*
X00585Y01234*
X00588Y01235*
X00592Y01237*
X00594Y01241*
X00595Y01245*
X00594Y01248*
X00592Y01252*
X00588Y01254*
X00585Y01255*
G37*
%LNpower_pcb_v2-3*%
%LPD*%
G54D14*
X01913Y01413D02*
Y01443D01*
Y01413D02*
X01915Y0141D01*
X01915Y0141D02*
X01915Y0141D01*
G54D67*
X0151Y01218D03*
G54D71*
X0184Y01245D03*
G54D73*
X01845Y01325D03*
X01618Y01423D03*
X01265Y01381D03*
X01255Y0124D03*
X01708Y01257D03*
X00991Y01386D03*
X01913Y01443D03*
X00545Y0123D03*
X00815Y0147D03*
Y0144D03*
X01Y01255D03*
X00865Y01415D03*
X00325Y0143D03*
G54D74*
X00425Y01285D03*
G54D75*
X00445Y01485D03*
G54D76*
X01618Y01407D02*
Y01423D01*
M02*