%FSTAX23Y23*%
%MOIN*%
%SFA1B1*%

%IPPOS*%
%ADD16R,0.021650X0.021650*%
%ADD17R,0.033470X0.013780*%
%ADD18R,0.066930X0.096460*%
%ADD19R,0.018900X0.025390*%
%ADD20R,0.023620X0.047240*%
%ADD21R,0.070870X0.039370*%
%ADD22R,0.024410X0.023620*%
%ADD23R,0.023620X0.024410*%
%ADD24R,0.009840X0.047240*%
%ADD25R,0.026570X0.009840*%
%ADD26R,0.009840X0.022640*%
%ADD27R,0.021650X0.021650*%
%ADD28R,0.031500X0.031500*%
%LNkoosh_sd_card_base_v1_1-1*%
%LPD*%
G54D16*
X00302Y00055D03*
X00348D03*
X00352Y0034D03*
X00398D03*
X00432Y00466D03*
X00478D03*
X00352Y00305D03*
X00398D03*
G54D17*
X00435Y00345D03*
Y0032D03*
Y00294D03*
Y00268D03*
X0055D03*
Y00294D03*
Y0032D03*
Y00345D03*
G54D18*
X00492Y00307D03*
G54D19*
X0049Y00505D03*
X00529D03*
X0051Y00564D03*
G54D20*
X00042Y00309D03*
X0008D03*
X00117D03*
Y0021D03*
X0008D03*
X00042D03*
G54D21*
X00195Y00454D03*
Y00355D03*
G54D22*
X0013Y00371D03*
Y00408D03*
X0044Y00386D03*
Y00423D03*
G54D23*
X00256Y0034D03*
X00293D03*
X00161Y00285D03*
X00198D03*
X00256Y003D03*
X00293D03*
G54D24*
X00221Y00098D03*
Y00231D03*
X00241Y00098D03*
Y00231D03*
X0026Y00098D03*
Y00231D03*
X0028Y00098D03*
Y00231D03*
X003Y00098D03*
Y00231D03*
X00319Y00098D03*
Y00231D03*
X00339Y00098D03*
Y00231D03*
X00359Y00098D03*
Y00231D03*
X00378Y00098D03*
Y00231D03*
X00398Y00098D03*
Y00231D03*
G54D25*
X00275Y00386D03*
X00398Y00383D03*
Y00406D03*
Y00425D03*
Y00445D03*
Y00465D03*
Y00484D03*
Y00504D03*
Y00524D03*
Y00543D03*
Y00564D03*
X00275Y00566D03*
Y00543D03*
Y00524D03*
Y00504D03*
Y00484D03*
Y00465D03*
Y00445D03*
Y00425D03*
Y00406D03*
G54D26*
X00307Y00383D03*
X00327D03*
X00346D03*
X00366D03*
Y00566D03*
X00346D03*
X00327D03*
X00307D03*
G54D27*
X0052Y00428D03*
Y00382D03*
X00485Y00428D03*
Y00382D03*
G54D28*
X00574Y0047D03*
X00515D03*
M02*