%FSTAX23Y23*%
%MOIN*%
%SFA1B1*%

%IPPOS*%
%ADD10C,0.009840*%
%ADD11C,0.003940*%
%ADD12C,0.007870*%
%ADD13C,0.015750*%
%ADD14C,0.010000*%
%ADD15C,0.006000*%
%LNkoosh_sd_card_base_v1_1-1*%
%LPD*%
G54D10*
X00424Y00372D02*
D01*
X00424Y00372*
X00423Y00372*
X00423Y00373*
X00423Y00373*
X00423Y00373*
X00423Y00374*
X00423Y00374*
X00423Y00374*
X00423Y00375*
X00422Y00375*
X00422Y00375*
X00422Y00375*
X00422Y00376*
X00421Y00376*
X00421Y00376*
X00421Y00376*
X0042Y00376*
X0042Y00376*
X0042Y00376*
X00419Y00377*
X00419Y00377*
X00419Y00377*
X00418*
X00418Y00377*
X00418Y00377*
X00417Y00376*
X00417Y00376*
X00417Y00376*
X00416Y00376*
X00416Y00376*
X00416Y00376*
X00416Y00376*
X00415Y00375*
X00415Y00375*
X00415Y00375*
X00415Y00375*
X00414Y00374*
X00414Y00374*
X00414Y00374*
X00414Y00373*
X00414Y00373*
X00414Y00373*
X00414Y00372*
X00414Y00372*
X00414Y00372*
X00414Y00371*
X00414Y00371*
X00414Y00371*
X00414Y0037*
X00414Y0037*
X00414Y0037*
X00414Y00369*
X00414Y00369*
X00415Y00369*
X00415Y00368*
X00415Y00368*
X00415Y00368*
X00416Y00368*
X00416Y00368*
X00416Y00367*
X00416Y00367*
X00417Y00367*
X00417Y00367*
X00417Y00367*
X00418Y00367*
X00418Y00367*
X00418Y00367*
X00419*
X00419Y00367*
X00419Y00367*
X0042Y00367*
X0042Y00367*
X0042Y00367*
X00421Y00367*
X00421Y00367*
X00421Y00368*
X00422Y00368*
X00422Y00368*
X00422Y00368*
X00422Y00368*
X00423Y00369*
X00423Y00369*
X00423Y00369*
X00423Y0037*
X00423Y0037*
X00423Y0037*
X00423Y00371*
X00423Y00371*
X00424Y00371*
X00424Y00372*
G54D11*
X0025Y00388D02*
D01*
X0025Y00388*
X0025Y00388*
X00249Y00388*
X00249Y00388*
X00249Y00388*
X00249Y00388*
X00249Y00388*
X00249Y00388*
X00249Y00388*
X00249Y00387*
X00248Y00387*
X00248Y00387*
X00248Y00387*
X00248Y00387*
X00248Y00387*
X00248Y00387*
X00248Y00387*
X00248Y00387*
X00248Y00386*
X00248Y00386*
X00248Y00386*
X00248Y00386*
Y00386*
X00248Y00386*
X00248Y00386*
X00248Y00385*
X00248Y00385*
X00248Y00385*
X00248Y00385*
X00248Y00385*
X00248Y00385*
X00248Y00385*
X00248Y00385*
X00248Y00385*
X00249Y00384*
X00249Y00384*
X00249Y00384*
X00249Y00384*
X00249Y00384*
X00249Y00384*
X00249Y00384*
X00249Y00384*
X0025Y00384*
X0025Y00384*
X0025Y00384*
D01*
X0025Y00384*
X0025Y00384*
X0025Y00384*
X0025Y00384*
X0025Y00384*
X00251Y00384*
X00251Y00384*
X00251Y00384*
X00251Y00384*
X00251Y00384*
X00251Y00385*
X00251Y00385*
X00251Y00385*
X00251Y00385*
X00251Y00385*
X00252Y00385*
X00252Y00385*
X00252Y00385*
X00252Y00385*
X00252Y00386*
X00252Y00386*
X00252Y00386*
Y00386*
X00252Y00386*
X00252Y00386*
X00252Y00386*
X00252Y00387*
X00252Y00387*
X00252Y00387*
X00251Y00387*
X00251Y00387*
X00251Y00387*
X00251Y00387*
X00251Y00387*
X00251Y00387*
X00251Y00388*
X00251Y00388*
X00251Y00388*
X00251Y00388*
X0025Y00388*
X0025Y00388*
X0025Y00388*
X0025Y00388*
X0025Y00388*
X0025Y00388*
X00224Y00389D02*
Y0042D01*
X00165Y00389D02*
Y0042D01*
X00136Y0008D02*
X00191D01*
X00136D02*
Y00249D01*
X00191*
X00428Y0008D02*
X00483D01*
Y00249*
X00428D02*
X00483D01*
X0038Y00372D02*
X00411D01*
X0038Y00577D02*
X00411D01*
X00262D02*
X00293D01*
X00262Y00372D02*
X00293D01*
G54D12*
X00478Y00531D02*
Y00538D01*
X00541*
Y00531D02*
Y00538D01*
X00478Y00531D02*
X00541D01*
X00471Y00518D02*
Y00492D01*
X00017Y00187D02*
Y00234D01*
X00022Y00248D02*
X00137D01*
Y00271*
X00022D02*
X00137D01*
X00022Y00248D02*
Y00271D01*
G54D13*
X00609Y00454D02*
Y00485D01*
G54D14*
X00375Y00295D02*
Y00315D01*
X00475Y00404D02*
X00495D01*
G54D15*
X00095Y00102D02*
Y00112D01*
Y00107*
X00125*
Y00102*
Y00112*
X001Y00147D02*
X00095Y00142D01*
Y00132*
X001Y00127*
X0012*
X00125Y00132*
Y00142*
X0012Y00147*
X00125Y00177D02*
Y00157D01*
X00105Y00177*
X001*
X00095Y00172*
Y00162*
X001Y00157*
X00175Y0042D02*
Y00415D01*
X00185Y00405*
X00195Y00415*
Y0042*
X00185Y00405D02*
Y0039D01*
X00205D02*
X00214D01*
X0021*
Y0042*
X00205Y00415*
X0031Y00184D02*
X003D01*
X00305*
Y0016*
X003Y00155*
X00295*
X0029Y0016*
X00339Y00155D02*
X0032D01*
X00339Y00175*
Y0018*
X00334Y00184*
X00325*
X0032Y0018*
X00443Y00249D02*
X00453D01*
X00448*
Y0022*
X00443*
X00453*
X00488Y00245D02*
X00483Y00249D01*
X00473*
X00468Y00245*
Y00225*
X00473Y0022*
X00483*
X00488Y00225*
X00498Y0022D02*
X00508D01*
X00503*
Y00249*
X00498Y00245*
X00085Y0036D02*
X0008Y00355D01*
Y00345*
X00085Y0034*
X00105*
X0011Y00345*
Y00355*
X00105Y0036*
X0008Y00389D02*
Y0037D01*
X00095*
X0009Y00379*
Y00384*
X00095Y00389*
X00105*
X0011Y00384*
Y00375*
X00105Y0037*
X00305Y00505D02*
Y00525D01*
X00315Y00535*
X00325Y00525*
Y00505*
Y0052*
X00305*
X00355Y0053D02*
X0035Y00535D01*
X0034*
X00335Y0053*
Y0051*
X0034Y00505*
X0035*
X00355Y0051*
X00364Y00505D02*
X00374D01*
X00369*
Y00535*
X00364Y0053*
M02*