%FSTAX23Y23*%
%MOIN*%
%SFA1B1*%

%IPPOS*%
%ADD14C,0.010000*%
%ADD46C,0.019490*%
%ADD47C,0.017720*%
%ADD48C,0.062990*%
%ADD49C,0.018000*%
%ADD50C,0.024000*%
%LNkoosh_sd_card_base_v1_1-1*%
%LPD*%
G36*
X00532Y00542D02*
X00531Y0054D01*
X00529Y00535*
X00531Y00529*
X00534Y00524*
X00539Y00521*
X00545Y00519*
X0055Y00521*
X00552Y00522*
X00583Y00491*
X00582Y00485*
X00521Y00454*
X0052Y00453*
X00519Y00452*
X00518Y00452*
X00515Y00452*
X00512Y0045*
X00507Y00453*
X00507Y00456*
X00517Y00467*
X0052Y0047*
X00521Y00475*
Y00501*
X0052Y00505*
X00517Y00509*
X00514Y00512*
X00514Y00513*
X00516Y00519*
X00514Y00525*
X00511Y0053*
X00506Y00533*
X005Y00534*
X00495Y00533*
X0049Y0053*
X00486Y00525*
X00485Y00519*
X00485Y00519*
X00485Y00519*
X00485Y00515*
X00485Y0051*
X00488Y00507*
X00498Y00496*
Y00479*
X00487Y00467*
X00484Y00464*
X00483Y0046*
Y00437*
X00461*
X0046Y00438*
X0046Y00442*
X00465Y00446*
X00469Y00452*
X0047Y00455*
X00452*
Y00465*
X0047*
X00469Y00467*
X00465Y00473*
X00463Y00475*
X00465Y00479*
X00465Y00479*
X00471Y00481*
X00476Y00484*
X00479Y00489*
X0048Y00495*
X00479Y005*
X00476Y00505*
X00471Y00509*
X00465Y0051*
X00459Y00509*
X00454Y00505*
X00451Y005*
X0045Y00495*
X00451Y00489*
X00454Y00484*
X00455Y00483*
X00453Y00478*
X00452Y00479*
X00448Y00478*
X00443Y00482*
Y00488*
X00443Y00488*
X00444Y00494*
X00443Y005*
X0044Y00505*
X00435Y00508*
X00429Y00509*
X00423Y00508*
X00418Y00505*
X00417Y00503*
X00414Y00498*
X00412Y00492*
Y00475*
X00412Y00475*
X00361*
X00359Y00475*
X00355Y00479*
X00355Y0048*
X00354Y00485*
X0035Y0049*
X00345Y00494*
X0034Y00495*
X00334Y00494*
X00329Y0049*
X00326Y00485*
X00324Y0048*
X00326Y00474*
X00329Y00469*
X0033Y00468*
X00329Y00463*
X00328Y00463*
X00323Y00459*
X00275Y00411*
X00238*
X00232Y0041*
X00227Y00407*
X00224Y00402*
X00223Y00396*
X00224Y0039*
X00227Y00385*
X00232Y00382*
X00238Y00381*
X00274*
X00276Y00376*
X00215Y00315*
Y0024*
X0017*
X00169Y0024*
X00163Y00241*
X00157Y0024*
X00156Y0024*
X00108*
X00106Y00242*
X00105Y00247*
X00102Y00252*
X00097Y00256*
X00091Y00257*
X00085Y00256*
X0008Y00252*
X00077Y00247*
X00076Y00242*
X00074Y0024*
X00064*
X00064Y0024*
X0006Y00245*
X00055Y00249*
X0005Y0025*
X00044Y00249*
X0004Y00246*
X00036Y00249*
X00036Y0025*
X00037Y0026*
X00036Y00269*
X00032Y00278*
X00026Y00286*
X00025Y00288*
Y00337*
X00048Y00361*
X00052Y00357*
X00051Y00355*
X00049Y0035*
X00051Y00344*
X00054Y00339*
X00059Y00336*
X00065Y00334*
X0007Y00336*
X00075Y00339*
X0008Y0034*
X00083Y00338*
X00085Y00337*
Y00355*
X00095*
Y00337*
X00098Y00338*
X00104Y00342*
X00108Y00348*
X0011Y00355*
X00109Y00356*
X0011Y00359*
X00115Y00361*
X0012Y00364*
X00124Y00369*
X00125Y00375*
X00124Y0038*
X0012Y00385*
X00115Y00389*
X0011Y0039*
X00104Y00389*
X00099Y00385*
X00096Y0038*
X00094Y00375*
X00091Y00374*
X0009Y00375*
X00083Y00373*
X00077Y00369*
X00073Y00363*
X00071Y00363*
X0007Y00364*
X00065Y00365*
X00059Y00364*
X00057Y00362*
X00053Y00366*
X00247Y0056*
X00425*
X00428Y00555*
X00428Y00554*
X00427Y00549*
X00424Y00549*
X00419Y00545*
X00416Y0054*
X00414Y00535*
X00416Y00529*
X00419Y00524*
X00424Y00521*
X0043Y00519*
X00435Y00521*
X0044Y00524*
X00444Y00529*
X00445Y00535*
X00444Y0054*
X00442Y00543*
X00445Y00547*
X00446Y00547*
X00456Y00549*
X00465Y00555*
X00468Y0056*
X00515*
X00532Y00542*
G37*
G36*
X00594Y00478D02*
Y00473D01*
X00592Y0047*
X0059Y0046*
X00592Y0045*
X00594Y00447*
Y003*
Y00283*
X00593Y0027*
X0059Y00267*
X0058Y00266*
X00571Y00262*
X00563Y00256*
X00557Y00248*
X00553Y00239*
X00552Y0023*
X00553Y0022*
X00557Y00211*
X00563Y00203*
X00563Y00202*
X00562Y00197*
X00555Y00196*
X00546Y00192*
X00538Y00186*
X00532Y00178*
X00528Y00169*
X00527Y0016*
X00528Y0015*
X00532Y00141*
X00533Y00138*
X00527Y00132*
X00525Y00132*
X00515Y00131*
X00506Y00127*
X00498Y00121*
X00492Y00113*
X00488Y00105*
X00431*
X00429Y0011*
X0043Y00114*
X00429Y0012*
X00425Y00125*
X0042Y00128*
X00415Y0013*
X00409Y00128*
X00404Y00125*
X00401Y0012*
X00399Y00114*
X004Y0011*
X00398Y00105*
X00373*
X00371Y00109*
X00372Y00113*
X00376Y00115*
X00376Y00115*
X0038Y00114*
X00385Y00116*
X0039Y00119*
X00394Y00124*
X00395Y0013*
X00394Y00135*
X0039Y0014*
X00389Y00141*
X00388Y00148*
X00397Y00157*
X004Y00161*
X00401Y00165*
Y00212*
X004Y00217*
X00397Y0022*
X00374Y00243*
Y00248*
X00373Y00252*
X00372Y00254*
X00375Y00258*
X00375Y00261*
X00375Y00261*
X00381Y00263*
X00384Y00261*
X0039Y00259*
X00395Y00261*
X004Y00264*
X00404Y00269*
X00405Y00275*
X00404Y0028*
X004Y00285*
X00395Y00289*
X0039Y0029*
X00384Y00289*
X00379Y00285*
X00376Y0028*
X00375Y00278*
X00375Y00278*
X0037Y00276*
X00367Y00278*
X00361Y00279*
X00355Y00278*
X0035Y00275*
X00347Y0027*
X00346Y00264*
X00347Y00258*
X0035Y00254*
Y0025*
Y0025*
X0035Y00246*
X00352Y00244*
Y00239*
X00352Y00234*
X00355Y00231*
X00375Y00211*
X00375Y00209*
X0037Y00205*
X00364Y00204*
X00359Y002*
X00356Y00196*
X00354Y00195*
X00351Y00193*
X0035Y00194*
X00345Y00195*
X00339Y00194*
X00334Y0019*
X00332Y00187*
X00326Y00185*
X00325Y00185*
X00321Y00186*
Y00186*
X00321*
X00318Y00191*
X00319Y00191*
X0032Y00197*
X00319Y00203*
X00315Y00207*
X0031Y00211*
X00305Y00212*
X00299Y00211*
X00299Y00211*
X00294Y0021*
X00291Y00214*
X00286Y00218*
X0028Y00219*
X00274Y00218*
X00269Y00214*
X00266Y0021*
X00265Y00204*
X00265Y00203*
X00262Y002*
X0026Y002*
X00255Y00199*
X0025Y00195*
X00246Y00191*
X00245Y00185*
X00246Y00179*
X0025Y00174*
X00255Y00171*
X0026Y0017*
X00266Y00171*
X0027Y00173*
X00277Y00167*
X0028Y00164*
X00283Y00164*
X00285Y0016*
X00286Y00158*
X00284Y00156*
X00283Y00151*
X00284Y00145*
X00288Y0014*
X00293Y00137*
X00298Y00135*
X00304Y00137*
X00309Y0014*
X00312Y00145*
X00314Y00151*
X00312Y00156*
X00312Y00156*
X00315Y00161*
X00318Y00162*
X00328Y00152*
X00329Y00151*
X00329Y00146*
X00326Y00141*
X00325Y00135*
X00326Y00129*
X00328Y00126*
X00326Y00121*
X00326Y00121*
X00259*
X00256Y00126*
X00257Y00127*
X00258Y00132*
X00257Y00138*
X00254Y00143*
X00249Y00146*
X00243Y00148*
X00237Y00146*
X00232Y00143*
X00229Y00138*
X00228Y00132*
X00229Y00127*
X0023Y00126*
X00227Y00121*
X00207*
X00203Y00126*
X00226Y00242*
X00231Y00244*
X00232Y00243*
X00235Y00243*
Y00261*
Y00283*
X00234Y00283*
X0024Y0031*
X00275Y00327*
X00276Y00326*
X00279Y00323*
X00278Y00318*
X00279Y00313*
X00282Y00308*
X00287Y00304*
X00293Y00303*
X00299Y00304*
X00304Y00308*
X00307Y00313*
X00308Y00318*
X00307Y00324*
X00304Y00329*
X00299Y00332*
X00298Y00332*
X00298Y00337*
X00301Y00339*
X00306Y00337*
X00309Y00333*
X00314Y00329*
X0032Y00328*
X00325Y00329*
X0033Y00333*
X00334Y00337*
X00335Y00343*
X00334Y00349*
X00333Y00351*
X00334Y00356*
X00479Y00427*
X00483Y00424*
Y0034*
X00484Y00335*
X00487Y00332*
X00513Y00305*
Y00214*
X00511Y0021*
X00509Y00205*
X00511Y00199*
X00514Y00194*
X00519Y00191*
X00525Y00189*
X0053Y00191*
X00535Y00194*
X00539Y00199*
X0054Y00205*
X00539Y0021*
X00536Y00214*
Y0031*
X00535Y00314*
X00532Y00317*
X00513Y00337*
X00516Y00341*
X00518Y00341*
X00524Y00342*
X00529Y00345*
X00532Y0035*
X00534Y00356*
X00532Y00362*
X00529Y00367*
X00524Y0037*
X00518Y00371*
X00513Y0037*
X00511Y00369*
X00506Y00371*
Y0044*
X00518Y00446*
X00521Y00442*
X00519Y0044*
X00516Y00435*
X00514Y0043*
X00516Y00424*
X00519Y00419*
X00524Y00416*
X0053Y00414*
X00531Y00415*
X00535Y0041*
X00534Y00403*
X00536Y00393*
X00541Y00385*
X0055Y00379*
X0056Y00377*
X0057Y00379*
X00578Y00385*
X00584Y00393*
X00586Y00403*
X00584Y00413*
X00578Y00422*
X0057Y00427*
X0056Y00429*
X0055Y00427*
X00549Y00427*
X00545Y0043*
X00544Y00435*
X0054Y0044*
X00535Y00444*
X0053Y00445*
X00525Y00444*
X00524Y00449*
X0059Y00481*
X00594Y00478*
G37*
%LNkoosh_sd_card_base_v1_1-2*%
%LPC*%
G36*
X00241Y00523D02*
X00235Y00522D01*
X0023Y00519*
X00227Y00514*
X00225Y00508*
X00227Y00502*
X0023Y00498*
X00234Y00495*
X00231Y0049*
X00229Y00485*
X00231Y00479*
X00234Y00474*
X00239Y00471*
X00245Y00469*
X0025Y00471*
X00255Y00474*
X00259Y00479*
X0026Y00485*
X00259Y0049*
X00255Y00495*
X00251Y00498*
X00255Y00502*
X00256Y00508*
X00255Y00514*
X00251Y00519*
X00246Y00522*
X00241Y00523*
G37*
G36*
X00188Y00339D02*
Y00326D01*
X00202*
X00201Y00328*
X00197Y00334*
X00191Y00339*
X00188Y00339*
G37*
G36*
X00178D02*
X00176Y00339D01*
X0017Y00334*
X00166Y00328*
X00165Y00326*
X00178*
Y00339*
G37*
G36*
X00202Y00316D02*
X00188D01*
Y00303*
X00191Y00303*
X00197Y00307*
X00201Y00313*
X00202Y00316*
G37*
G36*
X00178D02*
X00165D01*
X00166Y00313*
X0017Y00307*
X00176Y00303*
X00178Y00303*
Y00316*
G37*
G36*
X00245Y00279D02*
Y00266D01*
X00258*
X00257Y00268*
X00253Y00274*
X00247Y00279*
X00245Y00279*
G37*
G36*
X00258Y00256D02*
X00245D01*
Y00243*
X00247Y00243*
X00253Y00247*
X00257Y00253*
X00258Y00256*
G37*
G36*
X0043Y00227D02*
X00424Y00226D01*
X0042Y00223*
X00416Y00218*
X00415Y00212*
X00416Y00206*
X0042Y00201*
X00424Y00198*
X0043Y00197*
X00436Y00198*
X00441Y00201*
X00444Y00206*
X00445Y00212*
X00444Y00218*
X00441Y00223*
X00436Y00226*
X0043Y00227*
G37*
G36*
X0044Y0017D02*
X00434Y00169D01*
X00429Y00165*
X00426Y0016*
X00424Y00155*
X00426Y00149*
X00429Y00144*
X00434Y00141*
X0044Y00139*
X00445Y00141*
X0045Y00144*
X00454Y00149*
X00455Y00155*
X00454Y0016*
X0045Y00165*
X00445Y00169*
X0044Y0017*
G37*
%LNkoosh_sd_card_base_v1_1-3*%
%LPD*%
G54D14*
X00355Y0016D02*
X0037Y00174D01*
X00336Y0016D02*
X00355D01*
X00321Y00175D02*
X00336Y0016D01*
X00285Y00175D02*
X00321D01*
X00496Y00515D02*
X005Y00519D01*
X0051Y00475D02*
Y00501D01*
X00496Y00515D02*
X0051Y00501D01*
X00495Y0034D02*
Y0046D01*
X0051Y00475*
X00495Y0034D02*
X00525Y0031D01*
X00361Y0025D02*
Y00264D01*
Y0025D02*
X00363Y00248D01*
X00388Y00273D02*
X0039Y00275D01*
X00363Y00239D02*
Y00248D01*
Y00239D02*
X00389Y00212D01*
X00374Y00149D02*
X00389Y00165D01*
Y00212*
X00371Y00149D02*
X00374D01*
X0036Y00138D02*
X00371Y00149D01*
X00202Y0011D02*
X00354D01*
X0036Y00115D02*
Y00138D01*
X00354Y0011D02*
X0036Y00115D01*
X00105Y0007D02*
X00142Y00107D01*
X00229Y00094D02*
X005D01*
X00142Y00107D02*
X00199D01*
X00202Y0011*
X005Y00094D02*
X00501Y00095D01*
X00525*
X00213Y00078D02*
X00229Y00094D01*
X0037Y00174D02*
Y0019D01*
X00274Y00185D02*
X00285Y00175D01*
X0026Y00185D02*
X00274D01*
X0016Y00081D02*
X00161Y0008D01*
X00196Y00078D02*
X00213D01*
X00194Y0008D02*
X00196Y00078D01*
X00161Y0008D02*
X00194D01*
X00238Y00261D02*
X0024D01*
X00525Y00205D02*
Y0031D01*
X00237Y0026D02*
X00238Y00261D01*
G54D46*
X00616Y0046D03*
X0056Y00403D03*
X00446Y00573D03*
G54D47*
X00345Y0018D03*
X00485Y00585D03*
X00545Y00535D03*
X005Y00519D03*
X00452Y0046D03*
X00465Y00495D03*
X00429Y00494D03*
X0034Y0048D03*
X0043Y00535D03*
X00361Y00264D03*
X0039Y00275D03*
X0034Y00135D03*
X0037Y0019D03*
X0028Y00204D03*
X0026Y00185D03*
X00305Y00197D03*
X00298Y00151D03*
X00243Y00132D03*
X0016Y00081D03*
X00415Y00114D03*
X00163Y00226D03*
X0038Y0013D03*
X0024Y00261D03*
X0044Y00155D03*
X00318Y00057D03*
X00525Y00205D03*
X00561Y005D03*
X00564Y00438D03*
X00518Y00356D03*
X00238Y00396D03*
X00241Y00508D03*
X0053Y0043D03*
X00293Y00318D03*
X0032Y00343D03*
X00245Y00485D03*
X0011Y00375D03*
X0043Y00212D03*
X00091Y00242D03*
X0013Y00193D03*
X0005Y00235D03*
X00183Y00321D03*
X00065Y0035D03*
X0009Y00355D03*
X00305Y00586D03*
G54D48*
X0059Y0023D03*
X00565Y0016D03*
X0032Y0D03*
X00465Y00045D03*
X0Y0026D03*
X00185Y00025D03*
X00105Y0007D03*
X00525Y00095D03*
X0005Y0013D03*
X00395Y00015D03*
G54D49*
X00428Y00469D02*
Y00492D01*
X00429Y00494*
X00419Y0046D02*
X00428Y00469D01*
X00333Y00448D02*
X00349D01*
X00281Y00396D02*
X00333Y00448D01*
X00349D02*
X00361Y0046D01*
X00419*
X00238Y00396D02*
X00281D01*
G54D50*
X0019Y0013D02*
X00235Y00175D01*
X0005Y0013D02*
X0019D01*
M02*