%FSTAX23Y23*%
%MOIN*%
%SFA1B1*%

%IPPOS*%
%AMD52*
4,1,4,0.051500,-0.001400,-0.001400,0.051500,-0.051500,0.001400,0.001400,-0.051500,0.051500,-0.001400,0.0*
%
%AMD53*
4,1,4,0.000000,0.052900,-0.052900,0.000000,0.000000,-0.052900,0.052900,0.000000,0.000000,0.052900,0.0*
%
%AMD54*
4,1,4,0.008400,0.052800,-0.052800,-0.008400,-0.008400,-0.052800,0.052800,0.008400,0.008400,0.052800,0.0*
%
%AMD55*
4,1,4,0.024300,-0.013200,-0.013200,0.024300,-0.024300,0.013200,0.013200,-0.024300,0.024300,-0.013200,0.0*
%
%AMD56*
4,1,4,-0.006900,-0.032000,0.032000,0.006900,0.006900,0.032000,-0.032000,-0.006900,-0.006900,-0.032000,0.0*
%
%AMD57*
4,1,4,-0.004200,-0.023500,0.023500,0.004200,0.004200,0.023500,-0.023500,-0.004200,-0.004200,-0.023500,0.0*
%
%AMD58*
4,1,4,-0.002800,-0.036100,0.036100,0.002800,0.002800,0.036100,-0.036100,-0.002800,-0.002800,-0.036100,0.0*
%
%AMD59*
4,1,4,-0.032700,0.000700,0.000700,-0.032700,0.032700,-0.000700,-0.000700,0.032700,-0.032700,0.000700,0.0*
%
%AMD60*
4,1,4,-0.023500,0.004200,0.004200,-0.023500,0.023500,-0.004200,-0.004200,0.023500,-0.023500,0.004200,0.0*
%
%ADD15C,0.006000*%
%ADD44C,0.008000*%
%ADD46C,0.019490*%
%ADD47C,0.017720*%
%ADD48C,0.062990*%
%ADD51C,0.030980*%
G04~CAMADD=52~9~0.0~0.0~748.0~708.7~0.0~0.0~0~0.0~0.0~0.0~0.0~0~0.0~0.0~0.0~0.0~0~0.0~0.0~0.0~315.0~1030.0~1029.0*
%ADD52D52*%
G04~CAMADD=53~10~0.0~748.0~0.0~0.0~0.0~0.0~0~0.0~0.0~0.0~0.0~0~0.0~0.0~0.0~0.0~0~0.0~0.0~0.0~405.0~748.0~0.0*
%ADD53D53*%
G04~CAMADD=54~9~0.0~0.0~866.1~629.9~0.0~0.0~0~0.0~0.0~0.0~0.0~0~0.0~0.0~0.0~0.0~0~0.0~0.0~0.0~45.0~1056.0~1055.0*
%ADD54D54*%
G04~CAMADD=55~9~0.0~0.0~531.5~157.5~0.0~0.0~0~0.0~0.0~0.0~0.0~0~0.0~0.0~0.0~0.0~0~0.0~0.0~0.0~315.0~486.0~485.0*
%ADD55D55*%
G04~CAMADD=56~9~0.0~0.0~551.2~354.3~0.0~0.0~0~0.0~0.0~0.0~0.0~0~0.0~0.0~0.0~0.0~0~0.0~0.0~0.0~225.0~640.0~639.0*
%ADD56D56*%
G04~CAMADD=57~9~0.0~0.0~393.7~275.6~0.0~0.0~0~0.0~0.0~0.0~0.0~0~0.0~0.0~0.0~0.0~0~0.0~0.0~0.0~225.0~470.0~469.0*
%ADD57D57*%
G04~CAMADD=58~9~0.0~0.0~551.2~472.4~0.0~0.0~0~0.0~0.0~0.0~0.0~0~0.0~0.0~0.0~0.0~0~0.0~0.0~0.0~225.0~722.0~721.0*
%ADD58D58*%
G04~CAMADD=59~9~0.0~0.0~472.4~452.8~0.0~0.0~0~0.0~0.0~0.0~0.0~0~0.0~0.0~0.0~0.0~0~0.0~0.0~0.0~135.0~654.0~653.0*
%ADD59D59*%
G04~CAMADD=60~9~0.0~0.0~393.7~275.6~0.0~0.0~0~0.0~0.0~0.0~0.0~0~0.0~0.0~0.0~0.0~0~0.0~0.0~0.0~135.0~470.0~469.0*
%ADD60D60*%
%LNkoosh_sd_card_base_v1_1-1*%
%LPD*%
G54D15*
X00313Y00168D02*
X00323Y00179D01*
X00487Y00585D02*
X00497Y00575D01*
X00485Y00585D02*
X00487D01*
X00464Y00495D02*
X00465Y00495D01*
X00464Y0052D02*
X00464Y0052D01*
Y00495D02*
Y0052D01*
X00185Y00035D02*
X00187D01*
X0021Y001D02*
X00213Y00103D01*
X0021Y00068D02*
Y001D01*
X00207Y00065D02*
X0021Y00068D01*
X00207Y00055D02*
Y00065D01*
X00187Y00035D02*
X00207Y00055D01*
X0036Y00265D02*
X00361Y00264D01*
X0036Y00265D02*
X0036D01*
X00291Y00168D02*
X00313D01*
X00287Y00165D02*
X00291Y00168D01*
X00243Y00132D02*
X00275Y00165D01*
X00287*
X00295Y00088D02*
Y00143D01*
X00293Y00082D02*
X00318Y00057D01*
X00293Y00082D02*
Y00087D01*
X00295Y00088*
X00497Y00558D02*
X005Y00555D01*
X00497Y00558D02*
Y00575D01*
X00491Y00405D02*
X00515Y0043D01*
X0053*
X0054Y00356D02*
X00563Y00333D01*
X00518Y00356D02*
X0054D01*
G54D44*
X00345Y0018D02*
Y00187D01*
X00346Y00189*
X00323Y0019D02*
X0034Y00207D01*
X00323Y00179D02*
Y0019D01*
X00346Y00189D02*
X00351Y00193D01*
X0034Y0048D02*
Y0048D01*
X00341Y00212D02*
Y0027D01*
X00344Y00272D02*
Y00294D01*
X00279Y00204D02*
X0028D01*
X00263Y00219D02*
X00279Y00204D01*
X0025Y00219D02*
X00263D01*
X00302Y00197D02*
X00305D01*
X003Y00195D02*
X00302Y00197D01*
X00299Y00196D02*
X003Y00195D01*
X00299Y00196D02*
Y0023D01*
X0028Y0025D02*
X00299Y0023D01*
X0037Y0019D02*
X0039Y0017D01*
X00428*
X00447Y00173D02*
X00465Y00156D01*
X00428Y0017D02*
X00432Y00173D01*
X00465Y0006D02*
Y00156D01*
X00464Y0006D02*
X00465Y0006D01*
X00432Y00173D02*
X00447D01*
X00182Y0023D02*
X00265Y00313D01*
X00182Y00212D02*
Y0023D01*
X00155Y00185D02*
X00182Y00212D01*
X00058Y00239D02*
X00165Y00347D01*
X0024Y00261D02*
Y00263D01*
X00291Y00286D02*
X00305D01*
X0029Y00285D02*
X00291Y00286D01*
X00279Y00285D02*
X0029D01*
X00278Y00285D02*
X00279Y00285D01*
X0027Y00285D02*
X00278D01*
X0027Y00285D02*
X0027Y00285D01*
X00261Y00285D02*
X0027D01*
X00351Y00197D02*
X00419Y00265D01*
X00351Y00193D02*
Y00197D01*
X0034Y0021D02*
X00341Y00212D01*
X0034Y00207D02*
Y0021D01*
X0057Y00485D02*
Y00488D01*
X00561Y00497D02*
X0057Y00488D01*
X00561Y00497D02*
Y005D01*
X00238Y00396D02*
X0024Y00395D01*
X00419Y00265D02*
Y00342D01*
X0024Y00263D02*
X00261Y00285D01*
X00305Y00286D02*
X0031Y0028D01*
X00216Y00456D02*
X00245Y00485D01*
X00208Y00456D02*
X00216D01*
X00208Y00438D02*
Y00456D01*
X00141Y0039D02*
X0016D01*
X00344Y00295D02*
Y00301D01*
X00339Y00306D02*
X00344Y00301D01*
X00344Y00294D02*
X00344Y00295D01*
X00285Y00039D02*
X00298Y00052D01*
X00277Y00039D02*
X00285D01*
X0013Y00193D02*
X0013D01*
X0005Y00235D02*
X00052D01*
X00057Y00239*
X00058*
X0013Y00193D02*
X00139Y00185D01*
X00155*
X00185Y00323D02*
X00191D01*
X00199Y00325D02*
X00213Y00312D01*
X00191Y00323D02*
X00194Y00325D01*
X00199*
X00183Y00321D02*
X00185Y00323D01*
X00333Y00406D02*
Y0044D01*
Y00406D02*
X0034Y004D01*
Y00374D02*
X00371Y00342D01*
X0034Y00374D02*
Y004D01*
X00284Y00385D02*
X00285Y00385D01*
X00284Y00385D02*
Y00391D01*
X00333Y0044*
X00286Y00534D02*
X0034Y0048D01*
X00065Y00328D02*
Y0035D01*
X00063Y00326D02*
X00065Y00328D01*
X00063Y00312D02*
Y00326D01*
X00402Y00359D02*
X00419Y00342D01*
X00402Y00359D02*
Y00372D01*
X00265Y00313D02*
Y00321D01*
X00249Y00348D02*
X00262Y00335D01*
Y00324D02*
Y00335D01*
Y00324D02*
X00265Y00321D01*
X00204Y00347D02*
X00207Y00344D01*
X00165Y00347D02*
X00204D01*
X00207Y00344D02*
X00217D01*
X00231Y0033*
X00339Y00306D02*
X00341Y00307D01*
G54D46*
X00616Y0046D03*
X0056Y00403D03*
X00446Y00573D03*
G54D47*
X00345Y0018D03*
X00485Y00585D03*
X00545Y00535D03*
X005Y00519D03*
X00452Y0046D03*
X00465Y00495D03*
X00429Y00494D03*
X0034Y0048D03*
X0043Y00535D03*
X00361Y00264D03*
X0039Y00275D03*
X0034Y00135D03*
X0037Y0019D03*
X0028Y00204D03*
X0026Y00185D03*
X00305Y00197D03*
X00298Y00151D03*
X00243Y00132D03*
X0016Y00081D03*
X00415Y00114D03*
X00163Y00226D03*
X0038Y0013D03*
X0024Y00261D03*
X0044Y00155D03*
X00318Y00057D03*
X00525Y00205D03*
X00561Y005D03*
X00564Y00438D03*
X00518Y00356D03*
X00238Y00396D03*
X00241Y00508D03*
X0053Y0043D03*
X00293Y00318D03*
X0032Y00343D03*
X00245Y00485D03*
X0011Y00375D03*
X0043Y00212D03*
X00091Y00242D03*
X0013Y00193D03*
X0005Y00235D03*
X00183Y00321D03*
X00065Y0035D03*
X0009Y00355D03*
X00305Y00586D03*
G54D48*
X0059Y0023D03*
X00565Y0016D03*
X0032Y0D03*
X00465Y00045D03*
X0Y0026D03*
X00185Y00025D03*
X00105Y0007D03*
X00525Y00095D03*
X0005Y0013D03*
X00395Y00015D03*
G54D51*
X00535Y00449D03*
X0057Y00485D03*
X005D03*
X00535Y0052D03*
X00464D03*
X005Y00555D03*
G54D52*
X00286Y00534D03*
X00063Y00312D03*
G54D53*
X00208Y00456D03*
X00141Y0039D03*
G54D54*
X00333Y0044D03*
X00158Y00264D03*
G54D55*
X00285Y00385D03*
X00267Y00367D03*
X00249Y00348D03*
X00231Y0033D03*
X00213Y00312D03*
G54D56*
X00277Y00039D03*
G54D57*
X00239Y00065D03*
G54D58*
X00213Y00103D03*
G54D59*
X00563Y00333D03*
X00491Y00405D03*
G54D60*
X00432Y00404D03*
X00401Y00374D03*
X0037Y00343D03*
X0034Y00313D03*
X00309Y00282D03*
X00279Y00251D03*
X00248Y00221D03*
X00217Y0019D03*
M02*