%FSTAX23Y23*%
%MOIN*%
%SFA1B1*%

%IPPOS*%
%ADD71C,0.002000*%
%ADD72C,0.002000*%
%LNfront_flex-1*%
%LPD*%
G54D71*
X-02511Y00328D02*
D01*
X-02511Y00328*
X-02511Y00328*
X-02436Y00328D02*
D01*
X-02436Y00328*
Y00328*
Y00328*
Y00328*
X-02436Y00328*
X-02436Y00328D02*
D01*
X-02436Y00328*
X-02436Y00328*
X-02435Y00374D02*
D01*
Y00374*
Y00374*
Y00374*
Y00374*
Y00374*
X-02435Y00375D02*
D01*
X-02435Y00375*
X-02435Y00374*
X-0243Y00421D02*
D01*
X-0243Y00421*
X-0243Y0042*
X-0242Y00466D02*
D01*
X-0242Y00466*
X-0242Y00466*
X-0242Y00466*
X-0242Y00466*
X-0242Y00466*
X-02422Y00488D02*
D01*
X-02422Y00488*
X-02422Y00488*
X-02421Y00488*
X-02421Y00488*
X-0243Y00492D02*
D01*
X-0243Y00492*
X-02429Y00492*
X-02429Y00492*
X-02429Y00492*
X-0243Y00492D02*
D01*
X-0243Y00492*
X-0243Y00492*
X-0243Y00492*
X-0243Y00492*
X-0243Y00492*
X-02436Y00498D02*
D01*
X-02436Y00498*
X-02436Y00498*
X-02436Y00498*
X-02436Y00498D02*
D01*
X-02436Y00498*
X-02436Y00498*
X-02436Y00498*
X-02436Y00498*
X-02436Y00498*
X-02436Y00498*
X-02442Y00505D02*
D01*
X-02442Y00505*
X-02442Y00505*
X-02442Y00505*
X-02442Y00505*
X-02445Y00514D02*
D01*
X-02445Y00513*
X-02445Y00513*
X-02445Y00513*
X-02445Y00513*
X-02447Y00522D02*
D01*
X-02447Y00522*
X-02447Y00522*
X-02447Y00522*
X-02447Y00522*
X-02447Y00531D02*
D01*
X-02447Y00531*
X-02447Y00531*
X-02447Y00531*
X-02447Y00531*
X-02445Y0054D02*
D01*
X-02445Y0054*
X-02445Y0054*
X-02446Y0054*
X-02446Y0054*
X-02442Y00548D02*
D01*
X-02442Y00548*
X-02442Y00548*
X-02442Y00548*
D01*
Y00548*
X-02442Y00548*
X-02442Y00548*
X-02442Y00548*
Y00548*
X-02442Y00548*
X-02442Y00548D02*
D01*
X-02442Y00548*
X-02442Y00548*
X-02442Y00548*
X-02442Y00548*
X-02442Y00548D02*
D01*
X-02442Y00548*
X-02442Y00548*
X-02442Y00548*
X-02442Y00548*
X-02442Y00548*
X-02437Y00555D02*
D01*
X-02437Y00555*
X-02437Y00555*
X-02437Y00555*
X-02437Y00555*
X-02437Y00555*
X-02437Y00555*
X-02436Y00555D02*
D01*
X-02436Y00555*
X-02436Y00555*
X-02437Y00555*
X-02437Y00555*
X-02428Y00561D02*
D01*
X-02429Y00561*
X-02429Y00561*
X-02429Y00561*
X-02429Y00561*
X-02429Y00561*
X-02429Y00561*
X-0243Y00561*
X-0243Y00561*
X-0243Y00561*
X-0243Y00561*
X-0243Y00561*
X-01325Y00726D02*
D01*
X-01325Y00726*
X-01325Y00727*
X-01325Y00727*
X-01324Y00727*
X-01324Y00727*
X-01324Y00727*
X-01324Y00727*
X-01324Y00727*
X-01324Y00727*
X-01324Y00727*
X-01323Y00727*
X-01323Y00727*
X-01323Y00727*
X-01323Y00728*
X-01323Y00728*
X-01323Y00728*
X-01323Y00728*
X-01323Y00728*
X-01323Y00728*
X-01323Y00729*
X-01323Y00729*
X-01323Y00729*
X-01323Y00729*
X-02432Y00719D02*
D01*
X-02432Y00719*
X-02432Y00719*
X-02432Y00718*
X-02432Y00718*
X-02432Y00718*
X-02432Y00718*
X-02431Y00718*
X-02431Y00718*
X-02431Y00717*
X-02431Y00717*
X-02431Y00717*
X-02431Y00717*
X-02431Y00717*
X-02431Y00717*
X-0243Y00717*
X-0243Y00717*
X-0243Y00717*
X-0243Y00716*
X-0243Y00716*
X-0243Y00716*
X-02429Y00716*
X-02429Y00716*
X-02429Y00716*
X-02432Y00741D02*
D01*
X-02432Y00741*
X-02432Y00741*
X-02431Y00745D02*
D01*
X-02432Y00744*
X-02432Y00744*
X-02432Y00744*
X-02432Y00744*
X-0243Y00748D02*
D01*
X-0243Y00748*
X-0243Y00748*
X-0243Y00747*
X-02431Y00747*
X-0243Y00748D02*
D01*
X-0243Y00748*
X-0243Y00748*
X-0243Y00748*
X-0243Y00748*
X-0243Y00748*
X-0243Y00748*
X-02428Y00751D02*
D01*
X-02428Y00751*
X-02429Y0075*
X-02429Y0075*
X-02429Y0075*
X-02429Y0075D02*
D01*
X-02429Y0075*
X-02429Y0075*
X-02429Y0075*
X-02429Y0075*
X-02429Y0075*
X-02429Y0075*
X-02428Y00751D02*
D01*
X-02428Y00751*
X-02429Y00751*
X-02429Y0075*
X-02429Y0075*
X-02428Y00751D02*
D01*
X-02428Y00751*
X-02428Y00751*
X-02428Y00751*
X-02428Y00751*
X-02428Y00751*
X-02426Y00753D02*
D01*
X-02426Y00753*
X-02426Y00753*
X-02426Y00753*
X-02426Y00753*
X-02426Y00753*
X-02426Y00753D02*
D01*
X-02426Y00753*
X-02426Y00753*
X-02426Y00753*
X-02426Y00753*
X-02426*
D01*
X-02426Y00753*
X-02426Y00753*
X-02426Y00753*
X-02426Y00753*
X-02426Y00753D02*
D01*
X-02426Y00753*
X-02426Y00753*
X-02426Y00753*
X-02426Y00753*
X-02423Y00755D02*
D01*
X-02423Y00755*
X-02423Y00755*
X-02423Y00755*
X-02423Y00755*
X-02423Y00755*
X-02423Y00755D02*
D01*
X-02423Y00755*
X-02423Y00755*
X-02423Y00755*
X-02423Y00755*
X-02419Y00756D02*
D01*
X-0242Y00756*
X-0242Y00756*
X-0242Y00756*
X-0242Y00756*
X-02419Y00756D02*
D01*
X-0242Y00756*
X-0242Y00756*
X-0242Y00756*
X-0242Y00756*
X-02416Y00756D02*
D01*
X-02416Y00756*
X-02416Y00756*
X-02215Y00804D02*
D01*
X-02215Y00804*
X-02215Y00804*
X-02215Y00804*
X-02215Y00804*
X-02215Y00804*
X-02215Y00804*
X-02211Y00803D02*
D01*
X-02211Y00804*
X-02211Y00804*
X-02211Y00804*
X-02211Y00804*
X-02211Y00804*
X-02211Y00804*
X-02212Y00804*
X-02212Y00804*
X-02212Y00805*
X-02212Y00805*
X-02212Y00805*
X-02212Y00805*
X-02212Y00805*
X-02213Y00805*
X-02213Y00805*
X-02213Y00805*
X-02213Y00805*
X-02213Y00805*
X-02213Y00805*
X-02214Y00805*
X-02214Y00805*
X-02214Y00805*
X-02214Y00805*
X-02214Y00805*
X-02214Y00805*
X-02215Y00804*
X-02215Y00804*
X-02186Y00823D02*
D01*
X-02186Y00823*
X-02186Y00823*
X-02186Y00823*
X-02186Y00823*
X-02186Y00823*
X-02186Y00823*
X-02158Y00843D02*
D01*
X-02158Y00843*
X-02158Y00843*
X-02158Y00843*
X-02158Y00843*
X-02158Y00843*
X-02158Y00843*
X-02158Y00843D02*
D01*
Y00843*
X-02158Y00843*
X-02158*
X-02158Y00843*
X-02158Y00843*
X-02119Y00867D02*
D01*
X-02119Y00867*
X-02119Y00867*
X-02119Y00867D02*
D01*
X-02119Y00867*
X-02119Y00867*
X-02075Y0089D02*
D01*
X-02075Y0089*
X-02075Y0089*
X-02075Y0089*
X-02075Y0089*
X-02075Y0089*
X-02074Y0089D02*
D01*
X-02075Y0089*
X-02075Y0089*
X-02028Y0091D02*
D01*
X-02029Y0091*
X-02029Y0091*
X-01993Y00922D02*
D01*
X-01993Y00922*
X-01993Y00922*
X-01994Y00922*
X-01994Y00922*
X-01994Y00922*
Y00922*
X-0189Y00952D02*
D01*
X-0189Y00952*
X-0189Y00952*
X-0189*
X-0189Y00952*
X-0189*
X-0189Y00952*
X-0189Y00952D02*
D01*
X-0189Y00952*
X-0189Y00952*
X-0189Y00952*
X-0189Y00952*
X-0189Y00952*
X-0189Y00952*
D01*
X-0189Y00952*
X-0189Y00952*
X-0189Y00952*
X-0189Y00952*
X-0189Y00952*
X-0189Y00952*
X-0189Y00952D02*
D01*
X-0189Y00952*
X-0189Y00952*
X-0189Y00952*
X-0189Y00952*
X-0189Y00952*
X-0189Y00952*
X-01797Y00975D02*
D01*
X-01797Y00975*
X-01797Y00975*
X-01797Y00975*
X-01797Y00975*
X-01797Y00975*
X-01797Y00975*
X-01797Y00975D02*
D01*
X-01797Y00975*
X-01797Y00975*
X-01797Y00975*
X-01797Y00975*
X-01797Y00975*
X-01797Y00975*
X-01704Y00995D02*
D01*
X-01704Y00995*
X-01704Y00995*
X-01704Y00994*
X-01704Y00994*
X-01704Y00994*
X-01704Y00995D02*
D01*
X-01704Y00995*
X-01704*
X-01704*
X-01704Y00995*
X-01704*
X-01704Y00995*
X-01608Y0101D02*
D01*
X-01608Y0101*
X-01608*
X-01608*
X-01608Y0101*
X-01608*
X-01608Y0101*
X-01607Y0101D02*
D01*
X-01608Y0101*
X-01608Y0101*
X-01608Y0101*
X-01608Y0101*
X-01608Y0101*
X-01607Y0101D02*
D01*
X-01607Y0101*
X-01608Y0101*
X-01608Y0101*
X-01608Y0101*
X-01608Y0101*
X-01608Y0101*
X-01607Y0101D02*
D01*
X-01607Y0101*
X-01607*
X-01607Y0101*
X-01607*
X-01607Y0101*
X-01607Y0101*
X-01511Y01022D02*
D01*
X-01511Y01022*
X-01511*
X-01511*
X-01511*
X-01511Y01022*
X-01511Y01022D02*
D01*
X-01511Y01022*
X-01511Y01022*
X-01511Y01022*
X-01511Y01022*
X-01511Y01022*
X-01511Y01022*
X-01465Y01026D02*
D01*
X-01465Y01026*
X-01465Y01026*
X-01465Y01026*
X-01465Y01026*
X-01465Y01026*
X-01419Y01028D02*
D01*
X-01419*
X-01419Y01028*
X-01419*
X-01419Y01028*
X-01419Y01028*
X-0136Y01027D02*
D01*
X-0136Y01027*
X-0136Y01027*
X-0136Y01027*
X-0136Y01027*
X-0136Y01027*
X-01301Y01024D02*
D01*
X-01301Y01024*
X-01301Y01024*
X-01301Y01024*
X-01301Y01024*
X-01301Y01024*
X-01242Y01016D02*
D01*
X-01242Y01016*
X-01242Y01016*
X-01242Y01016*
X-01242Y01016*
X-01242Y01016*
X-01242Y01016*
X-01178Y01005D02*
D01*
X-01178Y01005*
X-01178Y01005*
X-01178Y01005*
X-01178Y01005*
X-01178Y01005*
X-01178Y01005*
X-01178Y01005D02*
D01*
X-01178Y01005*
X-01178Y01005*
X-01178Y01005*
X-01178Y01005*
X-01178Y01005*
X-01121Y00991D02*
D01*
X-01121Y00991*
X-01121Y00991*
X-01121Y00991*
X-01121Y00991*
X-01121Y00991*
X-01058Y00972D02*
D01*
X-01058Y00972*
X-01058Y00972*
X-01058Y00972*
X-01058Y00972*
X-01058Y00972*
X-01058*
X-00997Y00949D02*
D01*
X-00997Y00949*
X-00997Y00949*
X-00997Y00949*
X-00997Y00949*
X-00997Y00949*
X-00997Y00949*
X-00997Y00949D02*
D01*
X-00997*
X-00997Y00949*
X-00997Y00949*
X-00997*
X-00997Y00949*
X-00943Y00926D02*
D01*
X-00943Y00926*
X-00943Y00926*
X-00943Y00926*
X-00943Y00926*
X-00943Y00926*
X-00943Y00926D02*
D01*
X-00943*
X-00943Y00926*
X-00943Y00926*
X-00943Y00926*
X-00943Y00926*
X-00891Y00899D02*
D01*
X-00891*
X-00891Y00899*
X-00891Y00899*
X-00891Y00899*
X-00891Y00899*
X-0089Y00899D02*
D01*
X-0089Y00899*
X-0089Y00899*
X-0089Y00899*
X-00891Y00899*
X-00891Y00899*
X-00891*
X-00834Y00866D02*
D01*
X-00834Y00866*
X-00834Y00866*
X-00834Y00866*
X-00834Y00866*
X-00834Y00866*
X-00784Y00833D02*
D01*
X-00784Y00833*
X-00784Y00833*
X-00784Y00833*
X-00784Y00833*
X-00784Y00833*
X-00784Y00833*
X-00784Y00833D02*
D01*
X-00784Y00833*
X-00784Y00833*
X-00784Y00833*
X-00784Y00833*
X-00784Y00833*
X-00784Y00833*
X-00737Y00798D02*
D01*
X-00737Y00798*
X-00737Y00798*
X-00737Y00798*
X-00737Y00798*
X-00737Y00798*
X-00737Y00798*
X-00737Y00797D02*
D01*
X-00737Y00797*
X-00737Y00798*
X-00737Y00798*
X-00737Y00798*
X-00737Y00798*
X-00737Y00798*
X-00697Y00765D02*
D01*
X-00697Y00765*
X-00697Y00765*
X-00697Y00765*
X-00697Y00765*
X-00697Y00765*
Y00765*
X-00697Y00765D02*
D01*
X-00697Y00765*
X-00697Y00765*
X-00697Y00765*
X-00697Y00765*
X-00697Y00765*
Y00765*
X-0066Y0073D02*
D01*
X-0066Y0073*
X-0066Y0073*
X-0066Y0073*
X-0066Y0073*
X-0066Y0073*
X-0066Y0073*
X-0066Y0073D02*
D01*
X-0066Y0073*
X-0066Y0073*
X-0066Y0073*
X-0066Y0073*
X-0066Y0073*
X-00623Y00694D02*
D01*
X-00623Y00694*
X-00623Y00694*
X-00623Y00694*
X-00623Y00694*
X-00624Y00694*
X-0056Y00622D02*
D01*
X-00561Y00622*
X-00561Y00622*
X-00537Y0059D02*
D01*
X-00537Y0059*
Y0059*
X-00537Y0059D02*
D01*
X-00537Y0059*
X-00537Y0059*
X-00537Y0059*
X-00537Y0059*
X-00537Y0059*
X-00516Y00557D02*
D01*
X-00516Y00557*
X-00516Y00557*
X-00516Y00557*
X-00516Y00557*
X-00516Y00557*
X-00516Y00557D02*
D01*
X-00516Y00557*
X-00516Y00557*
X-00492Y00514D02*
D01*
X-00492Y00515*
X-00492Y00515*
X-00472Y00469D02*
D01*
X-00472Y00469*
X-00472Y00469*
X-00472Y0047*
X-00472Y0047*
X-00472Y0047*
X-00473Y0047*
X-00472Y00469D02*
D01*
X-00472Y00469*
Y00469*
Y00469*
Y00469*
X-00472Y00469*
X-00435Y00436D02*
D01*
X-00435Y00436*
X-00435Y00436*
X-00435Y00436*
X-00435Y00437*
X-00436Y00437*
X-00436Y00437*
X-00436Y00437*
X-00436Y00437*
X-00436Y00437*
X-00436Y00437*
X-00436Y00438*
X-00436Y00438*
X-00436Y00438*
X-00437Y00438*
X-00437Y00438*
X-00437Y00438*
X-00437Y00438*
X-00437Y00438*
X-00438Y00433D02*
D01*
X-00437Y00433*
X-00437Y00433*
X-00437Y00433*
X-00437Y00434*
X-00437Y00434*
X-00437Y00434*
X-00436Y00434*
X-00436Y00434*
X-00436Y00434*
X-00436Y00434*
X-00436Y00434*
X-00436Y00434*
X-00436Y00435*
X-00436Y00435*
X-00436Y00435*
X-00436Y00435*
X-00435Y00435*
X-00435Y00435*
X-00435Y00436*
X-00435Y00436*
X-00435Y00436*
X-00438Y00433D02*
D01*
X-00438*
X-00438Y00433*
X-00437Y00433*
X-00437*
X-00437Y00433*
X-00579Y00283D02*
D01*
X-00579Y00283*
X-00579Y00283*
X-00579Y00283*
X-00581Y0028D02*
D01*
X-00581Y0028*
X-00581Y0028*
X-00581Y0028*
X-00581Y0028*
X-00581Y00281*
X-00581Y00281*
X-0058Y00281*
X-0058Y00281*
X-0058Y00281*
X-0058Y00281*
X-0058Y00281*
X-0058Y00281*
X-0058Y00282*
X-0058Y00282*
X-0058Y00282*
X-00579Y00282*
X-00579Y00282*
X-00579Y00282*
X-00579Y00283*
X-00579Y00283*
X-00579Y00283*
X-00582Y0028D02*
D01*
X-00581*
X-00581Y0028*
X-00581Y0028*
X-00581*
X-00581Y0028*
X-00576Y00136D02*
D01*
X-00576Y00136*
X-00576Y00136*
X-00576Y00136D02*
D01*
X-00576Y00136*
X-00576*
X-00576*
X-00576Y00136*
X-00576*
X-00576Y00136*
X-00573Y00137D02*
D01*
X-00573Y00137*
X-00573*
X-00573*
X-00573*
X-00573*
X-00573Y00137*
X-00572D02*
D01*
X-00572Y00137*
X-00573Y00137*
X-00573Y00137*
X-00569Y00136D02*
D01*
X-00569Y00136*
X-00569Y00136*
X-00569Y00136*
X-00565Y00135D02*
D01*
X-00565Y00135*
X-00565Y00135*
X-00565Y00135*
X-00565Y00135D02*
D01*
X-00565*
X-00565Y00135*
X-00565Y00135*
X-00565Y00135*
X-00565Y00135*
X-00561Y00133D02*
D01*
X-00562Y00134*
X-00562Y00134*
X-00562Y00134*
X-00558Y00131D02*
D01*
X-00559Y00131*
X-00559Y00131*
X-00559Y00131*
X-00556Y00128D02*
D01*
X-00556Y00128*
X-00556Y00129*
X-00556Y00129*
X-00554Y00125D02*
D01*
X-00554Y00125*
X-00554Y00125*
X-00554Y00125*
X-00554Y00125D02*
D01*
X-00554Y00125*
X-00554Y00125*
X-00554Y00125*
X-00554Y00125*
X-00554Y00125*
X-00552Y00122D02*
D01*
X-00552Y00122*
X-00552Y00122*
X-00552Y00122*
X-00552Y00122D02*
D01*
Y00122*
X-00552Y00122*
Y00122*
X-00552Y00122*
X-00552Y00122*
X-00552Y00119D02*
D01*
Y00119*
X-00552Y00119*
X-00552Y00119*
X-00552Y00119*
X-00552Y00119*
X-00552Y00119D02*
D01*
X-00552Y00119*
X-00552Y00119*
X-00552Y00119*
X-00552Y00119*
X-00552Y00119*
X-00552Y00119*
X-00468Y00318D02*
D01*
X-00468Y00318*
X-00468Y00318*
X-00468Y00318*
X-00469Y00318*
X-00469Y00318*
X-00469Y00318*
X-00469Y00318*
X-00469Y00318*
X-00469Y00318*
X-00469Y00317*
X-0047Y00317*
X-0047Y00317*
X-0047Y00317*
X-0047Y00317*
X-0047Y00317*
X-0047Y00316*
X-0047Y00316*
X-0047Y00316*
X-0047Y00316*
X-0047Y00316*
X-0047Y00316*
X-0047Y00315*
X-0047Y00315*
X-00468Y00318D02*
D01*
X-00468Y00318*
X-00468Y00318*
X-00468*
X-00468Y00318*
X-00468Y00318*
X-00416Y00327D02*
D01*
X-00416Y00327*
X-00416Y00327*
X-00416Y00327*
X-00416*
X-00416Y00327*
X-00415Y00327D02*
D01*
X-00416Y00327*
X-00416Y00327*
X-00416Y00327*
X-00396Y00327D02*
D01*
X-00396Y00327*
X-00396*
X-00396*
X-00396*
X-00396Y00327*
X-00396D02*
D01*
X-00396Y00327*
X-00396*
X-00396*
X-00396*
X-00396Y00327*
X-00378Y00328D02*
D01*
X-00378Y00328*
X-00378*
X-00378*
X-00378*
X-00378Y00328*
X-00334Y00398D02*
D01*
X-00334Y00397*
X-00334Y00397*
X-00334Y00398D02*
D01*
X-00334Y00398*
X-00334Y00398*
X-00334Y00398*
X-00334Y00398*
X-00334Y00398*
X-00334Y00398*
X-00346Y00409D02*
D01*
X-00346Y00409*
X-00345Y00409*
X-00361Y00428D02*
D01*
X-00361Y00428*
X-00361Y00428*
X-00361Y00428*
X-00361Y00428D02*
D01*
X-00361Y00428*
X-00361Y00428*
X-00361Y00428*
X-00361Y00428*
X-00361Y00428*
X-00373Y00449D02*
D01*
X-00373Y00449*
X-00373Y00449*
X-00373Y00449*
X-00379Y00466D02*
D01*
X-00379Y00465*
X-00379Y00465*
X-0038Y00468D02*
D01*
X-0038Y00468*
X-0038Y00468*
X-0038Y00468*
X-0038Y00468*
X-0038Y00468*
Y00468*
X-00385Y00486D02*
D01*
X-00385Y00486*
X-00385Y00486*
X-00385Y00486*
X-00388Y00504D02*
D01*
X-00388Y00504*
X-00388Y00504*
X-00388Y00504*
X-00388Y00522D02*
D01*
X-00388Y00522*
X-00388Y00522*
Y00522*
X-00385Y0054D02*
D01*
X-00385Y0054*
X-00385Y0054*
X-00385Y0054*
X-00379Y00559D02*
D01*
X-00379Y00559*
X-00379Y00559*
X-00379Y00558*
X-0037Y00577D02*
D01*
X-0037Y00577*
X-0037Y00577*
X-0037Y00577*
X-00357Y00594D02*
D01*
X-00357Y00594*
X-00357Y00594*
X-00357Y00594*
X-00358Y00594*
X-00358Y00594*
X-00357Y00594D02*
D01*
X-00357Y00594*
X-00357Y00594*
X-00357Y00594*
X-00357Y00594*
X-00357Y00594*
X-00357Y00594*
X-00296Y00636D02*
D01*
X-00296Y00636*
X-00296Y00636*
X-00296Y00636*
X-00289Y0064D02*
D01*
X-00289Y0064*
X-00289Y0064*
X-00289Y0064*
X-00289Y0064*
X-00289Y0064*
X-00289Y0064D02*
D01*
X-00289Y0064*
X-00289Y0064*
X-00289Y0064*
X-00289Y0064*
X-00289Y0064*
X-00273Y00647D02*
D01*
X-00273Y00647*
X-00273Y00647*
X-00273Y00647*
X-00273Y00647*
X-00273Y00647*
X-00273Y00647D02*
D01*
X-00273Y00647*
X-00273Y00647*
X-00227Y00664D02*
D01*
X-00227Y00664*
X-00227Y00664*
X-00205Y00671D02*
D01*
X-00205Y00671*
X-00205Y00671*
X-00205Y00671*
X-00205Y00671*
X-00205Y00671*
X-00182Y00676D02*
D01*
X-00182Y00676*
X-00182Y00676*
X-00182Y00676*
X-00183Y00676*
X-00183Y00676*
X-00146Y00682D02*
D01*
X-00146Y00682*
X-00146Y00682*
X-00146Y00682D02*
D01*
X-00146Y00682*
X-00146Y00682*
X-00089Y00686D02*
D01*
X-00089Y00686*
X-00089*
X-00089Y00686*
X-00089Y00686*
X-00089Y00686*
X00089D02*
D01*
X00089Y00686*
X00089Y00686*
X00089Y00686*
X00089Y00686*
X00089Y00686*
X00146Y00682D02*
D01*
X00146Y00682*
X00146*
X00146Y00682D02*
D01*
X00146*
X00146Y00682*
X00146*
X00146Y00682*
X00146Y00682*
X00169Y00679D02*
D01*
X00169Y00679*
X00169Y00679*
X00169Y00679*
X00169Y00679*
X00169Y00679*
Y00679*
X00192Y00674D02*
D01*
X00192Y00674*
X00191Y00674*
X00191Y00674*
X00191Y00674*
X00191Y00674*
X00191Y00674*
X00227Y00664D02*
D01*
X00227Y00664*
X00227Y00664*
X00273Y00647D02*
D01*
X00273Y00647*
X00273Y00647*
X00289Y0064D02*
D01*
X00289Y0064*
X00289Y0064*
X00289Y0064*
X00289Y0064*
X00289Y0064*
X00296Y00636D02*
D01*
X00296Y00636*
X00296Y00636*
X00296Y00636*
X00358Y00594D02*
D01*
X00357Y00594*
X00357Y00594*
X00357Y00594*
X00357Y00594*
X00357Y00594*
X00358Y00594D02*
D01*
X00358Y00594*
X00358Y00594*
X00358Y00594*
X00358Y00594*
X00358Y00594*
X00368Y0058D02*
D01*
X00368Y0058*
X00368Y0058*
X00368Y0058*
X00368Y0058*
X00368Y0058*
X00368Y0058D02*
D01*
X00368Y0058*
X00368Y0058*
X00376Y00566D02*
D01*
X00376Y00566*
X00376Y00566*
X00376Y00566*
X00383Y00548D02*
D01*
X00383Y00548*
X00383Y00548*
X00383Y00548*
X00383Y00548*
X00383Y00548*
X00383Y00547D02*
D01*
X00383Y00547*
X00383Y00547*
X00383Y00548*
X00383Y00547D02*
D01*
X00383Y00547*
X00383Y00547*
X00383Y00547*
X00383Y00547*
X00383Y00547*
X00387Y00528D02*
D01*
X00387Y00528*
X00387Y00528*
X00387Y00528*
X00387Y00528*
X00387Y00528*
X00387Y00528D02*
D01*
X00387Y00528*
X00387Y00528*
X00387Y00528*
X00388Y00508D02*
D01*
X00388Y00508*
Y00508*
Y00508*
X00388Y00508*
X00388Y00508*
X00388Y00508D02*
D01*
X00388Y00508*
X00388Y00508*
X00388Y00508D02*
D01*
Y00508*
X00388Y00508*
Y00508*
X00388Y00508*
Y00508*
X00388*
X00386Y00488D02*
D01*
X00386Y00488*
X00386Y00488*
X00386Y00488*
X00378Y00449D02*
D01*
X00378Y00449*
X00378Y00449*
X00378Y00449*
X00378Y00449*
X00372Y0043D02*
D01*
X00372Y0043*
X00372Y0043*
X00372Y00431*
X00372Y00431*
X00361Y00413D02*
D01*
X00362Y00413*
X00362Y00413*
X00362Y00414*
X00362Y00414*
X00362Y00414*
X00354Y00406D02*
D01*
X00354Y00407*
X00354Y00407*
X00354Y00407*
X00355Y00407*
X00308Y00383D02*
D01*
X00305Y0038*
X00302Y00376*
X003Y00373*
X00298Y00369*
X00296Y00366*
X00295Y00362*
X00293Y00358*
X00292Y00354*
X00291Y0035*
X00291Y00346*
X00291Y00342*
X00291Y00342*
X0032Y00253D02*
D01*
X0032*
Y00253*
Y00253*
X0032Y00253*
X0032D02*
D01*
X0032*
Y00253*
Y00253*
X0032Y00253*
D01*
X0032Y00253*
X0032Y00253*
Y00253*
X0032Y00253*
X0032Y00253*
X0032Y00253D02*
D01*
Y00253*
X0032Y00253*
Y00253*
X0032Y00253*
X0032Y00253*
D01*
X0032Y00252*
X0032Y00252*
X0032Y00252*
X0032Y00252D02*
D01*
X0032Y00252*
X0032Y00252*
X0032Y00252*
X0032Y00252*
X0032Y00252*
X0032Y00252*
X0032Y00252D02*
D01*
X0032Y00252*
X0032Y00252*
X0032Y00252*
X0032Y00252*
X0032Y00252*
X0032Y00252*
X00383Y00138D02*
D01*
X00383Y00138*
X00383Y00138*
X00383Y00138*
X00383Y00138*
X00383Y00138*
X00383Y00138*
X00383Y00138D02*
D01*
X00383Y00138*
X00383Y00138*
X00383Y00138*
X00383Y00138*
X00383Y00138*
X00383Y00138D02*
D01*
Y00138*
X00383Y00138*
X00383Y00138*
X00383Y00138*
X00383Y00138*
D01*
X00383Y00138*
X00383Y00138*
X00383Y00138*
X00384Y00138*
X00384Y00138D02*
D01*
X00384Y00138*
X00384Y00138*
X00384Y00138*
X00384Y00138*
X00384Y00138*
X00384Y00137D02*
D01*
X00384Y00137*
X00384Y00137*
X00384Y00137*
X00384Y00137*
X00384Y00138*
X00384Y00137D02*
D01*
X00385Y00136*
X00387Y00135*
X00389Y00133*
X0039Y00132*
X00392Y00131*
X00394Y00131*
X00396Y0013*
X00398Y00129*
X004Y00129*
X00403Y00129*
X00405Y00129*
X00405Y00129*
D01*
X00405Y00129*
X00406Y00129*
X00406Y00129*
X00406Y00129*
X00406Y00129*
X00406*
X00406Y00129D02*
D01*
X00406Y00129*
X00406Y00129*
X00406Y00129*
X00406Y00129*
Y00129*
X00518Y0017D02*
D01*
X00518Y0017*
X00518Y0017*
X00518Y0017*
X00518Y0017*
X00518Y0017*
X00518Y0017D02*
D01*
X00518Y0017*
X00518Y0017*
X00518*
X00518Y0017*
X00518Y0017*
X00518D02*
D01*
X00518Y0017*
X00518Y0017*
X00518*
X00518Y0017*
X00518Y0017*
X00518Y0017D02*
D01*
X00518Y0017*
X00518Y0017*
X00518Y0017*
X00518Y0017*
X00518Y0017*
X00563Y00186D02*
D01*
X00564Y00186*
X00564Y00187*
X00564Y00187*
D01*
X00564*
X00564Y00187*
X00564Y00187*
X00564Y00187*
X00564Y00187*
D01*
X00564Y00187*
X00564Y00187*
X00564Y00187*
X00564Y00187*
X00564Y00187*
X00564Y00187*
X00564Y00187D02*
D01*
X00564Y00187*
X00564Y00187*
X00564Y00187*
X00564Y00187*
Y00187*
D01*
X00564Y00187*
X00564Y00187*
X00564Y00187*
X00564Y00187*
X00564Y00187*
D01*
X00564Y00187*
X00564Y00187*
X00564*
X00564Y00187*
X00564Y00187*
X0062Y00234D02*
D01*
X0062Y00234*
X0062Y00234*
X0062Y00234*
X0062Y00234*
X0062Y00234*
X0062Y00234D02*
D01*
X0062Y00234*
X0062Y00234*
X0062Y00234*
X0062Y00234*
X0062Y00234*
X0062Y00234*
D01*
X0062Y00234*
X0062Y00234*
X0062Y00234*
X0062Y00234*
X0062Y00234*
X0062Y00234D02*
D01*
Y00234*
X0062Y00234*
X0062Y00234*
X0062Y00234*
X0062Y00234*
D01*
X0062Y00234*
X0062Y00234*
X0062Y00234*
X0062Y00234*
X0062Y00234*
Y00234D02*
D01*
X0062Y00234*
X0062Y00234*
X0062Y00234*
X0062Y00234*
X0062Y00234*
X0062Y00234D02*
D01*
X0062Y00234*
X0062Y00234*
X0062Y00234*
X0062Y00234*
X0062Y00234*
D01*
X0062Y00234*
X0062Y00234*
Y00234*
X0062Y00234*
D01*
X0062Y00234*
X0062Y00234*
X0062Y00234*
X0062Y00234*
X0062Y00234*
D01*
Y00234*
Y00234*
X0062Y00234*
X0062Y00234*
X00634Y00274D02*
D01*
Y00274*
X00634Y00274*
Y00274*
X00634Y00274*
X00634Y00274*
D01*
X00634Y00274*
X00634Y00274*
X00634Y00274*
X00634Y00274*
X00634Y00275*
D01*
Y00275*
Y00275*
Y00275*
Y00275*
Y00275*
D01*
Y00275*
Y00275*
Y00275*
Y00275*
Y00275*
Y00275D02*
D01*
X00634Y00275*
Y00275*
Y00275*
Y00275*
X00634Y00275*
X00634Y00275D02*
D01*
X00634Y00275*
Y00275*
Y00275*
Y00275*
Y00275*
X00634Y00275*
X00635Y00306D02*
D01*
Y00306*
Y00306*
Y00306*
Y00306*
Y00306*
Y00306D02*
D01*
X00635Y00306*
Y00306*
Y00306*
Y00306*
X00635Y00306*
Y00306D02*
D01*
X00635Y00306*
Y00306*
Y00306*
Y00306*
X00635Y00306*
Y00306D02*
D01*
Y00306*
Y00306*
Y00306*
Y00306*
Y00306*
Y00306D02*
D01*
X00635Y00307*
X00635Y00307*
X00635Y00307*
X00635Y00307*
X00634Y00307*
X00634Y00307*
X00614Y00356D02*
D01*
X00614*
Y00356*
Y00356*
X00614*
Y00356*
X00614Y00356*
D01*
X00614Y00356*
X00613Y00356*
X00613Y00356*
X00613Y00356*
X00613Y00356*
X00613Y00356*
X00613Y00356D02*
D01*
X00613Y00356*
X00613Y00356*
X00613Y00356*
X00613Y00356*
X00613Y00356*
X00613Y00356*
X00591Y00379D02*
D01*
Y00379*
X00591Y00379*
X00591Y00379*
X00591Y00379*
X00591Y00379*
X00591D02*
D01*
X00591Y00379*
X00591Y00379*
X00591Y0038*
X0059Y0038*
X0059Y0038*
X0059Y0038*
X0059Y0038D02*
D01*
X0059Y0038*
X0059Y0038*
X0059Y0038*
X0059Y0038*
X0059Y0038*
X0059Y0038D02*
D01*
X0059Y0038*
X0059Y0038*
X0059Y0038*
X0059Y0038*
X0059Y0038*
X0059Y0038D02*
D01*
X0059Y0038*
X0059Y0038*
X0059Y0038*
X0059Y0038*
X0059Y0038*
X0059Y0038D02*
D01*
X0059*
X0059*
X0059Y0038*
X0059*
X0059Y0038*
X0059Y0038D02*
D01*
X0059Y0038*
X0059Y0038*
X0059Y0038*
X0059Y0038*
X0059Y0038*
X0059Y0038*
X0059Y0038D02*
D01*
X0059Y0038*
X0059Y0038*
X0059Y0038*
X0059Y0038*
X0059Y0038*
X0059Y0038D02*
D01*
X0059Y0038*
X0059Y0038*
X0059Y0038*
X0059Y0038*
X0059Y0038*
X00552Y00397D02*
D01*
X00552*
X00552*
X00552Y00397*
X00552*
X00552Y00397*
X00552D02*
D01*
X00552Y00397*
X00552Y00397*
X00552Y00397*
X00552Y00397*
X00552Y00397*
D01*
X00552*
X00552Y00397*
X00552Y00397*
X00552Y00397*
X00552*
X00552Y00397*
D01*
X00552Y00398*
X00552Y00398*
X00552Y00398*
X00551Y00398*
X00551Y00398*
X00551Y00398*
X00551D02*
D01*
X00551Y00398*
X00551*
X00551*
X00551*
X00551Y00398*
X00509Y00399D02*
D01*
X00509Y00399*
X00509Y00399*
X00509Y00399*
X00508Y00399*
X00508Y00399*
X00472Y00388D02*
D01*
X00472Y00388*
X00472Y00388*
X00472Y00388*
X00472Y00388*
X00471Y00388*
X00471Y00388*
X00471Y00388D02*
D01*
X00471Y00388*
X00471Y00388*
X00471Y00388*
X00471Y00388*
X00471Y00388*
X00441Y00363D02*
D01*
X00441*
X00441Y00363*
X00441Y00363*
X00441Y00363*
X00441Y00363*
X00441Y00363D02*
D01*
X00441Y00363*
X00441Y00363*
X00441Y00363*
X00441Y00363*
X00441Y00363D02*
D01*
X00441*
X00441Y00363*
X00441Y00363*
X00441Y00363*
X00441Y00363*
X00441Y00363D02*
D01*
X00441Y00363*
X00441Y00363*
X00441Y00363*
X00441Y00363*
X00441Y00363*
X00441Y00363D02*
D01*
X00441Y00362*
X00441Y00362*
X00441Y00362*
X00441Y00362*
X00441Y00362*
X00441Y00362*
X00427Y00338D02*
D01*
Y00338*
X00427Y00338*
X00427Y00338*
X00427Y00338*
X00427Y00338*
Y00338D02*
D01*
X00427Y00338*
X00427Y00337*
X00427Y00337*
X00427Y00337*
X00427Y00337*
X00427Y00337*
X00427Y00337*
X00427Y00337*
X00412Y00301D02*
D01*
X00415Y00303*
X00417Y00306*
X00419Y00309*
X00421Y00312*
X00422Y00315*
X00424Y00318*
X00425Y00322*
X00426Y00325*
X00427Y00329*
X00427Y00332*
X00427Y00336*
X00427Y00337*
X00412Y00301D02*
D01*
X00412Y00301*
X00412Y00301*
X00412Y00301*
X00412Y00301*
X00412Y00301*
X00401Y00295D02*
D01*
X00402Y00295*
X00403Y00295*
X00405Y00296*
X00406Y00296*
X00408Y00297*
X00409Y00298*
X0041Y00299*
X00411Y003*
X00412Y00301*
X004Y00294D02*
D01*
X004Y00294*
X004Y00294*
X00401Y00295*
X00398Y00295D02*
D01*
X00398Y00295*
X00399Y00295*
X00399Y00295*
X00399Y00295*
X00399Y00295*
X00399Y00295*
X00399Y00295*
X004Y00295*
X004Y00294*
X004Y00294*
X004Y00294*
X004Y00294*
X00392Y00311D02*
D01*
X00392Y0031*
X00392Y00308*
X00392Y00307*
X00392Y00305*
X00393Y00304*
X00394Y00302*
X00394Y00301*
X00395Y00299*
X00396Y00298*
X00397Y00297*
X00398Y00296*
X00398Y00295*
X004Y00331D02*
D01*
X00398Y00329*
X00397Y00328*
X00396Y00326*
X00395Y00325*
X00394Y00323*
X00393Y00321*
X00393Y00319*
X00392Y00317*
X00392Y00316*
X00392Y00314*
X00392Y00312*
X00392Y00311*
X004Y00331D02*
D01*
X004Y00331*
X004Y00331*
X004Y00331*
X004Y00331*
X004Y00331*
Y00331*
D01*
X004Y00331*
X004Y00331*
X004Y00331*
X004Y00331*
X004Y00331*
X004Y00331D02*
D01*
X004Y00331*
X004Y00331*
X004Y00331*
X004Y00331*
X004Y00331*
X004Y00331D02*
D01*
X004Y00331*
X004Y00331*
X004Y00331*
X004Y00331*
X004Y00331*
D01*
X004Y00331*
X004Y00331*
X004Y00331*
X004Y00331*
X004Y00331*
X004*
X004Y00331D02*
D01*
X004Y00331*
X004Y00331*
X004Y00331*
X004Y00331*
X004Y00331*
X004Y00331D02*
D01*
X004Y00331*
X004Y00331*
X004Y00331*
X004Y00331*
X004Y00331*
X00409Y00334D02*
D01*
X00408Y00334*
X00407Y00334*
X00406Y00334*
X00405Y00334*
X00404Y00334*
X00403Y00333*
X00403Y00333*
X00402Y00332*
X00401Y00332*
X004Y00331*
X004Y00331*
X004Y00331*
X00409Y00334D02*
D01*
X0041Y00334*
X00411Y00335*
X00412Y00335*
X00413Y00335*
X00414Y00335*
X00415Y00336*
X00416Y00336*
X00416Y00337*
X00417Y00337*
X00418Y00338*
X00419Y00338*
X00419Y00339*
X0042Y0034*
X00421Y00341*
X00421Y00342*
X00421Y00342*
X00422Y00342D02*
D01*
X00422Y00342*
X00422Y00342*
X00422Y00342*
X00421Y00342*
X00421Y00342*
X00449Y00388D02*
D01*
X00449Y00389*
X00449Y00389*
X00449Y00389*
X0045Y00389*
D01*
Y00389*
X0045Y00389*
Y00389*
X0045Y00389*
X0045Y00389*
X0045D02*
D01*
X0045Y00389*
X0045Y00389*
X0045Y00389*
Y00389*
X0045Y00389*
X0045Y00389*
Y00389D02*
D01*
Y00389*
Y00389*
X0045Y00389*
D01*
X0045Y00389*
Y00389*
Y00389*
X0045Y00389*
X0045D02*
D01*
Y00389*
X0045Y00389*
Y00389*
X0045Y00389*
Y00389*
X0045Y00389*
X0045Y00389D02*
D01*
X0045Y00389*
X0045Y00389*
X0045Y00389*
X0045Y00389*
X0045Y00389*
D01*
X0045Y00389*
X0045Y00389*
X0045Y00389*
X0045Y00389*
X0045Y00389*
X0045Y00389D02*
D01*
X0045Y00389*
X0045Y00389*
X0045Y00389*
X0045Y00389*
X0045Y00389*
X0045Y00389D02*
D01*
X0045Y00389*
X0045Y00389*
X0045Y00389*
X0045Y00389*
X0045Y00389*
X0045*
X00489Y00508D02*
D01*
X00489Y00508*
X00489Y00508*
X00489Y00508*
X00489Y00508*
X00489Y00508*
X00489Y00508*
X00489Y00508D02*
D01*
X00489Y00508*
X00489Y00508*
X00489Y00508*
X00509Y00545D02*
D01*
X00509Y00545*
X00509Y00545*
X00508Y00545*
X00508Y00545*
X00508Y00545*
X00532Y00583D02*
D01*
X00532Y00582*
X00532Y00582*
X00561Y00622D02*
D01*
X00561Y00622*
X0056Y00622*
X00624Y00694D02*
D01*
X00624Y00694*
X00623Y00694*
X00623Y00694*
X00623Y00694*
X00623Y00694*
X00624Y00694D02*
D01*
X00624Y00694*
X00624Y00694*
X00624Y00694*
X00624Y00694*
X00624Y00694*
X0066Y0073D02*
D01*
X0066Y0073*
X0066Y0073*
X0066Y0073*
X0066Y0073*
X0066Y0073*
X0066Y0073D02*
D01*
X0066Y0073*
X0066Y0073*
X0066Y0073*
X0066Y0073*
X0066Y0073*
X0066Y0073D02*
D01*
X0066Y0073*
X0066Y0073*
X0066Y0073*
X0066Y0073*
X0066Y0073*
X0066Y0073D02*
D01*
X0066Y0073*
X0066Y0073*
X0066Y0073*
X0066Y0073*
X0066Y0073*
X0066Y0073*
X00698Y00765D02*
D01*
X00697Y00765*
X00697Y00765*
X00697Y00765*
X00697Y00765*
X00697Y00765*
X00697Y00765*
X00697Y00765D02*
D01*
X00697Y00765*
X00697Y00765*
X00697Y00765*
X00697Y00765*
X00697Y00765*
X00698Y00765D02*
D01*
X00697Y00765*
X00697Y00765*
X00697Y00765*
X00697Y00765*
X00697Y00765*
X00697Y00765*
X00698Y00765D02*
D01*
X00698Y00765*
X00698Y00765*
X00698Y00765*
X00698Y00765*
X00698Y00765*
X00737Y00798D02*
D01*
X00737Y00798*
X00737Y00798*
X00737Y00798*
X00737Y00798*
X00737Y00797*
Y00797D02*
D01*
X00737Y00797*
X00737Y00797*
X00737Y00797*
X00737Y00797*
X00737Y00797*
X00737Y00798D02*
D01*
X00737Y00798*
X00737Y00798*
X00737Y00798*
X00737Y00798*
X00737Y00797*
X00737Y00797*
X00737Y00798D02*
D01*
X00737Y00798*
X00737Y00798*
X00737Y00798*
X00737Y00798*
X00737Y00798*
X00788Y00835D02*
D01*
X00788Y00835*
X00787Y00835*
X00787Y00835*
X00787Y00835*
X00787Y00835*
X00787Y00835*
D01*
X00787Y00835*
X00787Y00835*
X00787Y00835*
X00787Y00835*
X00787Y00835*
X00787Y00835*
X00788Y00835D02*
D01*
X00788Y00835*
X00788Y00835*
X00787Y00835*
X00787Y00835*
X00787Y00835*
X00788Y00835D02*
D01*
X00788Y00835*
X00788Y00835*
X00788Y00835*
X00788Y00835*
X00788*
X0084Y0087D02*
D01*
X0084Y0087*
X0084Y0087*
X0084Y0087*
X0084Y0087*
X0084*
X0084Y0087D02*
D01*
X0084Y0087*
X0084Y0087*
X0084Y0087*
X0084Y0087*
X0084Y0087*
X0084Y0087*
X00892Y00899D02*
D01*
X00892Y00899*
X00892Y00899*
X00892Y00899*
X00892Y00899*
X00892Y00899*
X00892Y00899*
X00892Y00899D02*
D01*
X00892Y00899*
X00892Y00899*
X00892Y00899*
X00892Y00899*
X00892Y00899*
X0095Y00929D02*
D01*
X0095Y00929*
X0095Y00929*
X0095Y00929*
X0095Y00929*
X0095Y00929*
X0095Y00929D02*
D01*
X0095Y00929*
X0095Y00929*
X0095Y00929*
X0095Y00929*
X0095Y00929*
X0101Y00954D02*
D01*
X0101Y00954*
X0101Y00954*
X0101Y00954*
X0101Y00954*
X0101Y00954*
X0101*
X0101Y00954D02*
D01*
X0101Y00954*
X0101Y00954*
X0101Y00954*
X0101Y00954*
X0101Y00954*
X0101Y00954*
X01065Y00974D02*
D01*
X01065Y00974*
X01065Y00974*
X01065Y00974*
X01065Y00974*
Y00974*
X01065Y00974D02*
D01*
X01065Y00974*
X01065Y00974*
X01065Y00974*
X01065Y00974*
X01065Y00974*
X01065Y00974*
X01065Y00974D02*
D01*
X01065Y00974*
X01065Y00974*
X01065Y00974*
X01065Y00974*
X01065Y00974*
X01065Y00974D02*
D01*
X01065Y00974*
X01065Y00974*
X01065*
X01065Y00974*
X01065Y00974*
X01128Y00993D02*
D01*
X01128Y00993*
X01128Y00993*
X01128Y00993*
X01128Y00993*
X01128Y00993*
X01128Y00993D02*
D01*
X01128Y00993*
X01128Y00993*
X01128Y00993*
X01128Y00993*
X01128Y00993*
X01128*
X01191Y01008D02*
D01*
X01191Y01008*
X01191Y01008*
X01191Y01008*
X01191Y01008*
X01191Y01008*
X01191Y01008D02*
D01*
X01191Y01008*
X01191*
X01191Y01008*
X01191*
X01191*
X01191Y01008*
X01256Y01018D02*
D01*
X01256Y01018*
X01256*
X01256Y01018*
X01256*
X01256*
X01256Y01018*
X01256Y01018D02*
D01*
X01256Y01018*
X01256Y01018*
X01256Y01018*
X01256Y01018*
X01256Y01018*
X01321Y01025D02*
D01*
X01321Y01025*
X01321Y01025*
X01321Y01025*
X01321Y01025*
X01321Y01025*
X01321Y01025D02*
D01*
X01321Y01025*
X01321*
X01321*
X01321*
X01321*
Y01025*
X01386Y01028D02*
D01*
X01386Y01028*
X01386*
X01386*
X01386*
X01386*
Y01028*
X01386D02*
D01*
X01386*
X01386*
X01386*
X01386Y01028*
X01386Y01028*
Y01028*
X01445Y01027D02*
D01*
X01445Y01027*
X01445Y01027*
X01445Y01027*
X01445*
X01445Y01027*
X01511Y01022D02*
D01*
X01511Y01022*
X01511Y01022*
X01511Y01022*
X01511Y01022*
X01511Y01022*
X01511Y01022*
X01511Y01022D02*
D01*
X01511*
X01511*
X01511*
X01511*
X01511*
X01569Y01016D02*
D01*
X01569Y01016*
X01569Y01016*
X01569Y01016*
X01569Y01016*
X01569Y01016*
X01627Y01007D02*
D01*
X01627Y01007*
X01627Y01007*
X01627Y01007*
X01627Y01007*
X01627Y01007*
Y01007*
X01715Y00992D02*
D01*
X01715*
X01715*
X01715Y00992*
X01715*
X01715*
Y00992*
X01715Y00992D02*
D01*
X01715Y00992*
X01715Y00992*
X01715Y00992*
X01715Y00992*
X01715Y00992*
X01803Y00974D02*
D01*
X01803Y00974*
X01803Y00974*
X01803Y00974*
X01803Y00974*
X01803Y00974*
X0189Y00952D02*
D01*
X0189Y00952*
X0189Y00952*
X0189Y00952*
X0189Y00952*
X0189Y00952*
X0189Y00952*
X01993Y00922D02*
D01*
X01993Y00922*
X01993Y00922*
X01993Y00922*
X01993Y00922*
X01993Y00922*
X01993Y00922D02*
D01*
X01993Y00922*
X01993Y00922*
X01993Y00922*
X01993Y00922*
X01993Y00922*
X02029Y0091D02*
D01*
X02029Y0091*
X02028Y0091*
X02028Y0091*
X02028Y0091*
X02028Y0091*
X02061Y00897D02*
D01*
X02061Y00897*
X02061Y00897*
X02061Y00897*
X02061Y00897*
X02061Y00897*
X02092Y00882D02*
D01*
X02092Y00882*
X02092Y00882*
X02092Y00882*
X02092Y00882*
X02092Y00882*
X02092Y00882*
X02132Y00859D02*
D01*
X02132Y00859*
X02132Y00859*
X02132Y00859D02*
D01*
X02132*
X02132Y00859*
X02132Y00859*
X02132Y00859*
X02132Y00859*
X02132Y00859*
X02174Y00832D02*
D01*
X02174Y00832*
X02174Y00832*
X02174Y00832*
X02174Y00832*
X02174Y00832*
X02174Y00832*
X02174Y00832D02*
D01*
X02174Y00832*
X02174Y00832*
X02215Y00804D02*
D01*
X02215Y00804*
X02214Y00805*
X02214Y00805*
X02214Y00805*
X02214Y00805*
X02214Y00805*
X02214Y00805*
X02214Y00805*
X02213Y00805*
X02213Y00805*
X02213Y00805*
X02213Y00805*
X02213Y00805*
X02212Y00805*
X02212Y00805*
X02212Y00805*
X02212Y00805*
X02212Y00805*
X02212Y00804*
X02212Y00804*
X02211Y00804*
X02211Y00804*
X02211Y00804*
X02211Y00804*
X02211Y00804*
X02211Y00804*
X02211Y00803*
X02211Y00803*
X02215Y00804D02*
D01*
X02215Y00804*
X02215Y00804*
X02215Y00804*
X02215Y00804*
X02215Y00804*
X02416Y00756D02*
D01*
X02416Y00756*
X02416Y00756*
X0242Y00756D02*
D01*
X0242Y00756*
X0242Y00756*
X02419Y00756*
X02419Y00756*
X02423Y00755D02*
D01*
X02423Y00755*
X02423Y00755*
X02423Y00755*
X02423Y00755*
X02423Y00755D02*
D01*
X02423Y00755*
X02423Y00755*
X02423Y00755*
X02423Y00755*
X02423Y00755*
X02426Y00753D02*
D01*
X02426Y00753*
X02426Y00753*
X02426Y00753*
X02426Y00753*
X02426Y00753*
X02426Y00753*
D01*
X02426Y00753*
X02426Y00753*
X02426Y00753*
X02426Y00753*
X02426D02*
D01*
X02426Y00753*
X02426Y00753*
X02426Y00753*
X02426Y00753*
X02426Y00753*
X02426Y00753D02*
D01*
X02426Y00753*
X02426Y00753*
X02426Y00753*
X02426Y00753*
X02429Y0075D02*
D01*
X02429Y0075*
X02429Y00751*
X02428Y00751*
X02428Y00751*
X02431Y00747D02*
D01*
X0243Y00747*
X0243Y00748*
X0243Y00748*
X0243Y00748*
X02432Y00744D02*
D01*
X02432Y00744*
X02432Y00744*
X02432Y00744*
X02432Y00744*
X02432Y00741D02*
D01*
X02432Y00741*
X02432Y00741*
X02432Y00741D02*
D01*
Y00741*
Y00741*
Y00741*
Y00741*
Y00741*
X02429Y00716D02*
D01*
X02429Y00716*
X0243Y00716*
X0243Y00716*
X0243Y00716*
X0243Y00717*
X0243Y00717*
X0243Y00717*
X02431Y00717*
X02431Y00717*
X02431Y00717*
X02431Y00717*
X02431Y00717*
X02431Y00717*
X02431Y00717*
X02431Y00718*
X02432Y00718*
X02432Y00718*
X02432Y00718*
X02432Y00718*
X02432Y00718*
X02432Y00719*
X02432Y00719*
X02432Y00719*
X01322Y00729D02*
D01*
X01322Y00729*
X01322Y00729*
X01323Y00728*
X01323Y00728*
X01323Y00728*
X01323Y00728*
X01323Y00728*
X01323Y00728*
X01323Y00728*
X01323Y00727*
X01323Y00727*
X01323Y00727*
X01323Y00727*
X01324Y00727*
X01324Y00727*
X01324Y00727*
X01324Y00727*
X01324Y00727*
X01324Y00727*
X01325Y00727*
X01325Y00726*
X01325Y00726*
X01325Y00726*
X0243Y00561D02*
D01*
X0243Y00561*
X0243Y00561*
X0243Y00561*
X02429Y00561*
X02429Y00561*
X02429Y00561*
X02429Y00561*
X02429Y00561*
X02429Y00561*
X02428Y00561*
X02428Y00561*
X02437Y00555D02*
D01*
X02436Y00555*
X02436Y00555*
X02436Y00555*
X02436Y00555*
X02437Y00555D02*
D01*
X02437Y00555*
X02437Y00555*
X02437Y00555*
X02437Y00555*
X02437Y00555*
X02437Y00555*
X02442Y00548D02*
D01*
X02442Y00548*
X02442Y00548*
X02442Y00548*
X02442Y00548*
X02442Y00548*
X02442Y00548*
X02442Y00548D02*
D01*
X02442Y00548*
X02442Y00548*
X02442Y00548*
X02442Y00548*
X02446Y0054D02*
D01*
X02446Y0054*
X02445Y0054*
X02445Y0054*
X02445Y0054*
X02447Y00531D02*
D01*
X02447Y00531*
X02447Y00531*
X02447Y00531*
X02447Y00531*
X02447Y00522D02*
D01*
X02447Y00522*
X02447Y00522*
X02447Y00522*
X02447Y00522*
X02445Y00513D02*
D01*
X02445Y00513*
X02445Y00513*
X02446Y00514*
X02446Y00514*
X02442Y00505D02*
D01*
X02442Y00505*
X02442Y00505*
X02442Y00505*
X02442Y00505*
X02436Y00498D02*
D01*
X02436Y00498*
X02436Y00498*
X02436Y00498*
X02436Y00498*
X02429Y00492D02*
D01*
X02429Y00492*
X0243Y00492*
X0243Y00492*
X0243Y00492*
X02421Y00488D02*
D01*
X02422Y00488*
X02422Y00488*
X02422Y00488*
X02422Y00488*
X0242Y00466D02*
D01*
X0242Y00466*
X0242Y00466*
X0242Y00466*
X0242Y00466*
X0242Y00466*
X0243Y0042D02*
D01*
X0243Y00421*
X0243Y00421*
X02435Y00374D02*
D01*
X02435Y00375*
X02435Y00375*
X02435Y00374D02*
D01*
X02435Y00374*
Y00374*
Y00374*
Y00374*
X02435Y00374*
D01*
X02435Y00374*
Y00374*
Y00374*
Y00374*
Y00374*
X02435Y00374*
X02436Y00328D02*
D01*
X02436Y00328*
Y00328*
Y00328*
Y00328*
Y00328*
X02436Y00328*
Y00328D02*
D01*
X02436Y00328*
Y00328*
Y00328*
Y00328*
X02436Y00328*
X02436Y00328D02*
D01*
X02436Y00328*
X02436Y00328*
X02511Y00328D02*
D01*
X02511Y00328*
X02511Y00328*
X02511Y00328D02*
D01*
X02511Y00328*
Y00328*
X02511Y00328*
Y00328*
X02511Y00328*
X02522Y00373D02*
D01*
X02522Y00373*
X02522Y00373*
X02522Y00373*
X02522Y00373*
X02522Y00373*
X02522Y00373*
X02522Y00373D02*
D01*
X02522Y00373*
X02522Y00373*
X02537Y00417D02*
D01*
X02537Y00417*
X02537Y00417*
X02478Y00459D02*
D01*
X02478Y00459*
X02478Y00459*
X02478Y00459*
X02478Y00459*
X02478Y00459*
X02478Y00458*
X02478Y00458*
X02478Y00458*
X02479Y00458*
X02479Y00458*
X02479Y00458*
X02479Y00458*
X02479Y00457*
X02479Y00457*
X02479Y00457*
X02479Y00457*
X0248Y00457*
X0248Y00457*
X0248Y00457*
X0248Y00457*
X0248Y00457*
X0248Y00457*
X02481Y00457*
X02482Y00562D02*
D01*
X02481Y00562*
X02481Y00562*
X02481Y00562*
X02481Y00562*
X02481Y00562*
X0248Y00562*
X0248Y00562*
X0248Y00562*
X0248Y00562*
X0248Y00562*
X0248Y00562*
X0248Y00562*
X0248Y00561*
X02479Y00561*
X02479Y00561*
X02479Y00561*
X02479Y00561*
X02479Y00561*
X02479Y0056*
X02479Y0056*
X02479Y0056*
X02479Y0056*
X02479Y0056*
X02794Y00689D02*
D01*
X02794Y00689*
Y00689*
Y00689*
Y00689*
X02794Y00689*
Y00689D02*
D01*
X02794Y00689*
Y00689*
Y00689*
Y00689*
X02794Y00689*
X02794Y00734D02*
D01*
X02794Y00734*
Y00734*
Y00734*
Y00734*
X02794Y00734*
Y00734D02*
D01*
X02794Y00734*
Y00734*
Y00734*
Y00734*
X02794Y00734*
X02794Y00744D02*
D01*
X02794Y00744*
Y00744*
Y00744*
Y00744*
X02794Y00744*
Y00744D02*
D01*
X02794Y00744*
Y00744*
Y00744*
Y00744*
X02794Y00744*
X02794Y00788D02*
D01*
X02794Y00788*
Y00788*
Y00788*
Y00788*
X02794Y00788*
D01*
X02794Y00788*
Y00788*
Y00788*
Y00788*
X02794Y00788*
X02795Y00795D02*
D01*
X02795Y00795*
Y00795*
Y00795*
Y00795*
X02795Y00795*
X02797Y00797D02*
D01*
X02797Y00797*
X02796Y00797*
X02796Y00797*
X02796Y00797*
X02796Y00797*
X02796Y00797*
X02796Y00797*
X02796Y00797*
X02795Y00796*
X02795Y00796*
X02795Y00796*
X02795Y00796*
X02795Y00796*
X02795Y00796*
X02795Y00796*
X02795Y00795*
X02795Y00795*
X02795Y00795*
X02795Y00795*
X02795Y00795*
X02795Y00795*
X02758Y00891D02*
D01*
X02758Y00891*
X02759Y00891*
X02759Y00891*
X02759Y00891*
X02759Y00891*
X02759Y00891*
X02759Y00891*
X0276Y00891*
X0276Y00891*
X0276Y00891*
X0276Y00891*
X0276Y00891*
X0276Y00892*
X0276Y00892*
X0276Y00892*
X0276Y00892*
X02761Y00892*
X02761Y00892*
X02761Y00893*
X02761Y00893*
X02761Y00893*
X02761Y00893*
X02761Y00893*
X02758Y00891D02*
D01*
X02758Y00891*
X02758*
X02758*
X02758*
X02758Y00891*
X026Y00797D02*
D01*
Y00797*
Y00797*
Y00797*
Y00797*
Y00797*
X02599Y00745D02*
D01*
Y00745*
Y00745*
Y00745*
Y00745*
Y00745*
X02599Y00736D02*
D01*
Y00736*
Y00736*
Y00736*
Y00736*
Y00736*
X02596Y0069D02*
D01*
X02596Y0069*
X02596Y0069*
X02596Y0069*
X02597Y0069*
X02597Y0069*
X02597Y0069*
X02597Y0069*
X02597Y0069*
X02597Y0069*
X02598Y0069*
X02598Y0069*
X02598Y0069*
X02598Y0069*
X02598Y0069*
X02598Y00691*
X02598Y00691*
X02598Y00691*
X02598Y00691*
X02599Y00691*
X02599Y00691*
X02599Y00691*
X02599Y00692*
X02599Y00692*
X02599Y00692*
X02599Y00692*
X02596Y0069D02*
D01*
X02596Y0069*
X02596*
X02596*
X02596Y0069*
X02596*
X02596Y0069*
X0259Y0069D02*
D01*
X0259Y0069*
X0259*
X0259*
X0259*
X0259Y0069*
X0259Y0069D02*
D01*
X0259Y0069*
X0259Y0069*
X0259Y0069*
X0259Y0069*
X02583Y00693D02*
D01*
X02583Y00693*
X02583Y00693*
X02583Y00693*
X02583Y00693*
X02577Y00697D02*
D01*
X02577Y00697*
X02577Y00697*
X02577Y00697*
X02577Y00696*
X02572Y00702D02*
D01*
X02572Y00702*
X02572Y00702*
X02572Y00702*
X02572Y00702*
X02568Y00708D02*
D01*
X02568Y00708*
X02568Y00708*
X02569Y00708*
X02569Y00708*
X02566Y00715D02*
D01*
X02566Y00715*
X02566Y00715*
X02566Y00715*
X02566Y00715*
X02565Y00721D02*
D01*
X02566Y00721*
X02566Y00721*
X02564Y00721D02*
D01*
X02564Y00721*
X02564Y00721*
X02565Y00721*
X02564Y00721D02*
D01*
X02564Y00721*
X02564Y00721*
X02564Y00721*
X02564Y00721*
X02564Y00721*
X02563Y00722D02*
D01*
X02563Y00722*
X02563Y00722*
X02563Y00722*
X02563Y00722*
X02563Y00722*
X02563Y00722D02*
D01*
X02563Y00722*
X02563Y00722*
X02563Y00722*
X02562Y00723D02*
D01*
X02562Y00723*
X02562Y00723*
X02562Y00723*
X02562Y00723*
X02561Y00724D02*
D01*
X02561Y00724*
X02561Y00724*
X02561Y00724*
X02561Y00724*
X02561Y00725D02*
D01*
X02561Y00725*
X02561Y00725*
X02561Y00725*
X02561Y00725*
X02561Y00725*
X02561Y00725D02*
D01*
Y00725*
Y00725*
X02561Y00725*
Y00725*
X02561Y00725*
D01*
X02561Y00725*
X02561Y00725*
X02561Y00725*
X02561Y00725D02*
D01*
X02561Y00725*
X02561Y00725*
X02561Y00725*
X02561Y00726D02*
D01*
Y00726*
X02561Y00726*
X02561Y00726*
X02561Y00726*
X02561Y00726*
X0256Y00727D02*
D01*
X0256Y00727*
X0256Y00726*
X02561Y00726*
X02561Y00728D02*
D01*
X02561Y00728*
X0256Y00728*
X0256Y00728*
X02561Y00729D02*
D01*
X02561Y00729*
X02561Y00729*
X02561Y00729*
X02561Y00729*
X02562Y00731D02*
D01*
X02561Y00731*
X02561Y0073*
X02561Y0073*
X02561Y0073*
X02562Y00732D02*
D01*
X02562Y00732*
X02562Y00732*
X02562Y00731*
X02562Y00731*
X02563Y00733D02*
D01*
X02563Y00733*
X02563Y00732*
X02563Y00732*
X02563Y00733D02*
D01*
X02563Y00733*
X02563Y00733*
X02563Y00733*
X02563Y00733*
X02563Y00733*
X02563Y00733*
X02564Y00733D02*
D01*
X02564Y00733*
X02564Y00733*
X02564Y00733*
X02564Y00733*
Y00733*
X02565Y00733D02*
D01*
X02565Y00733*
X02564Y00733*
X02564Y00733*
X02564Y00733*
X02566Y00734D02*
D01*
X02566Y00734*
X02566Y00734*
X02566Y00734*
X02566Y00734*
X02566Y00734*
Y00734*
X02486Y00859D02*
D01*
X02486Y00858*
X02486Y00858*
X02486Y00858*
X02486Y00858*
X02486Y00858*
X02486Y00858*
X02486Y00857*
X02486Y00857*
X02487Y00857*
X02487Y00857*
X02487Y00857*
X02487Y00857*
X02487Y00857*
X02487Y00857*
X02487Y00856*
X02487Y00856*
X02488Y00856*
X02488Y00856*
X02488Y00856*
X02488Y00856*
X02488Y00856*
X02488Y00856*
X02489Y00856*
X02467Y00914D02*
D01*
X02467Y00914*
X02467Y00914*
X02467Y00914*
X02467Y00914*
X02467Y00914*
X02467Y00914*
X02467Y00914D02*
D01*
X02467Y00914*
X02467Y00914*
X02467Y00914*
X02467Y00914*
X02467Y00914*
X02447Y00921D02*
D01*
X02447Y0092*
X02447Y0092*
X02447Y00921D02*
D01*
X02447Y0092*
X02447Y0092*
X0241Y00936D02*
D01*
X0241Y00936*
X0241Y00936*
X0241Y00936D02*
D01*
X0241Y00936*
X0241Y00936*
X0241Y00936*
X0241Y00936*
X0241Y00936*
X02298Y00978D02*
D01*
X02298Y00978*
X02298Y00978*
X02298Y00978*
X02298*
X02298Y00978*
X02298Y00978*
X02298Y00978D02*
D01*
X02298Y00978*
X02298Y00978*
X02298*
X02298Y00978*
X02298*
X02298Y00978*
X02213Y01005D02*
D01*
X02213Y01005*
X02213Y01005*
X02213Y01005*
X02213Y01004*
X02213Y01004*
X02213Y01004*
X02213Y01004*
X02213Y01004*
X02213Y01004*
X02213Y01004*
X02214Y01004*
X02214Y01003*
X02214Y01003*
X02214Y01003*
X02214Y01003*
X02214Y01003*
X02029Y0106D02*
D01*
X02029Y0106*
X02029Y0106*
X02029*
X02029Y0106*
X02029Y0106*
X00471Y00786D02*
D01*
X00471Y00786*
X00472Y00786*
X00472Y00786*
X00472Y00786*
X00472Y00786*
X00472Y00787*
X00472Y00787*
X00473Y00787*
X00473Y00787*
X00473Y00787*
X0043Y00788D02*
D01*
X00431Y00788*
X00431Y00788*
X00431Y00788*
X00431Y00788*
X00431Y00788*
X00431Y00788*
X00432Y00788*
X00432Y00788*
X00432Y00788*
X00432Y00787*
X00432Y00788*
X00396Y00819D02*
D01*
X00396Y00819*
X00396Y00819*
X00396Y00819*
X00396Y00819*
X00396Y00819*
X00396Y00819*
X00368Y00841D02*
D01*
X00368Y00841*
X00368Y00841*
X00368Y0084*
X00368Y0084*
X00368Y0084*
X00354Y00852D02*
D01*
X00354Y00852*
X00354Y00852*
X00354Y00852*
X00354Y00852*
X00354Y00852*
Y00852*
D01*
X00354Y00852*
X00354Y00852*
X00354Y00852*
X00354Y00852*
X00354Y00852*
X00326Y00852D02*
D01*
X00326Y00852*
X00326Y00852*
X00324Y00851D02*
D01*
X00325Y00851*
X00325Y00851*
X0032Y0085D02*
D01*
X00321Y0085*
X00321Y0085*
X00316Y00849D02*
D01*
X00317Y00849*
X00317Y00849*
X00313Y00849D02*
D01*
X00313*
X00313*
X00313Y00849*
X00313Y00849*
X00313Y00849*
X-00313D02*
D01*
X-00313Y00849*
X-00313Y00849*
X-00313Y00849*
X-00313*
X-00313Y00849*
X-00317Y00849D02*
D01*
X-00317Y00849*
X-00316Y00849*
X-00321Y0085D02*
D01*
X-00321Y0085*
X-0032Y0085*
X-00325Y00851D02*
D01*
X-00324Y00851*
X-00324Y00851*
X-00326Y00852D02*
D01*
X-00326Y00852*
X-00326Y00852*
X-00354Y00852D02*
D01*
X-00354*
X-00354Y00852*
X-00354Y00852*
X-00354Y00852*
X-00354Y00852*
X-00354Y00852*
X-00368Y0084D02*
D01*
X-00368Y0084*
X-00368Y00841*
X-00368Y00841*
X-00368Y00841*
X-00368Y00841*
X-00368Y0084D02*
D01*
X-00368Y0084*
X-00368Y0084*
X-00368Y0084*
X-00368Y0084*
X-00368Y0084*
X-00432Y00788D02*
D01*
X-00432Y00788*
X-00432Y00788*
X-00431Y00788*
X-00431Y00788*
X-00431Y00788*
X-00431Y00788*
X-00431Y00788*
X-00431Y00788*
X-00431Y00788*
X-0043Y00788*
X-0043Y00788*
X-00473Y00787D02*
D01*
X-00473Y00787*
X-00473Y00787*
X-00472Y00787*
X-00472Y00787*
X-00472Y00786*
X-00472Y00786*
X-00472Y00786*
X-00472Y00786*
X-00471Y00786*
X-00471Y00786*
X-00471Y00786*
X-02006Y01066D02*
D01*
X-02006*
X-02006Y01066*
X-02006*
X-02006Y01066*
X-02006Y01066*
X-02029Y0106D02*
D01*
X-02029*
X-02029Y0106*
X-02029*
X-02029Y0106*
X-02029Y0106*
X-02214Y01003D02*
D01*
X-02214Y01003*
X-02214Y01003*
X-02214Y01003*
X-02214Y01004*
X-02213Y01004*
X-02213Y01004*
X-02213Y01004*
X-02213Y01004*
X-02213Y01004*
X-02213Y01004*
X-02213Y01004*
X-02213Y01005*
X-02213Y01005*
X-02213Y01005*
X-02213Y01005*
X-02212Y01005*
X-02214Y01003D02*
D01*
X-02214*
X-02214Y01003*
X-02214Y01003*
X-02214*
Y01003*
X-02298Y00978D02*
D01*
X-02298*
X-02298Y00978*
X-02298*
X-02298Y00978*
X-02298*
Y00978*
X-02397Y00943D02*
D01*
X-02397Y00943*
X-02396Y00943*
X-02396Y00943*
X-02396Y00943*
X-02396Y00943*
X-02396Y00943*
X-02419Y00932D02*
D01*
X-02419Y00932*
X-02419Y00932*
X-02453Y00918D02*
D01*
X-02452Y00918*
X-02452Y00918*
X-02489Y00856D02*
D01*
X-02488Y00856*
X-02488Y00856*
X-02488Y00856*
X-02488Y00856*
X-02488Y00856*
X-02488Y00856*
X-02487Y00856*
X-02487Y00856*
X-02487Y00857*
X-02487Y00857*
X-02487Y00857*
X-02487Y00857*
X-02487Y00857*
X-02486Y00857*
X-02486Y00857*
X-02486Y00858*
X-02486Y00858*
X-02486Y00858*
X-02486Y00858*
X-02486Y00858*
X-02486Y00858*
X-02486Y00859*
X-02486Y00859*
X-02551Y00856D02*
D01*
X-02551*
X-02551*
X-02551*
X-02551*
X-02551*
X-02565Y00734D02*
D01*
X-02566Y00734*
X-02566Y00734*
X-02566Y00734*
X-02566Y00734*
X-02566Y00734*
X-02564Y00733D02*
D01*
X-02564Y00733*
X-02564Y00733*
X-02565Y00733*
X-02565Y00733*
X-02563Y00732D02*
D01*
X-02563Y00732*
X-02563Y00733*
X-02563Y00733*
X-02563Y00733*
X-02562Y00731D02*
D01*
X-02562Y00732*
X-02562Y00732*
X-02562Y00732*
X-02562Y00732*
X-02561Y0073D02*
D01*
X-02561Y0073*
X-02561Y00731*
X-02561Y00731*
X-02561Y00731*
X-02561Y0073D02*
D01*
X-02561Y0073*
X-02561Y00731*
X-02561Y00731*
X-02562Y00731*
X-02561Y00729D02*
D01*
X-02561Y00729*
X-02561Y00729*
X-02561Y00729*
X-02561Y00729*
X-02561Y00729D02*
D01*
X-02561Y00729*
X-02561Y00729*
X-02561Y00729*
X-02561Y00729*
X-0256Y00728D02*
D01*
X-0256Y00728*
X-0256Y00728*
X-02561Y00728*
X-02561Y00728*
X-0256Y00728D02*
D01*
Y00728*
Y00728*
Y00728*
Y00728*
Y00728*
X-0256Y00727D02*
D01*
Y00727*
Y00727*
Y00727*
Y00727*
Y00727*
X-02561Y00726D02*
D01*
X-0256Y00726*
X-0256Y00727*
X-0256Y00727*
X-02561Y00725D02*
D01*
X-02561Y00725*
X-02561Y00725*
X-02561Y00725*
X-02561Y00725*
X-02561Y00725D02*
D01*
X-02561Y00725*
X-02561Y00725*
X-02561Y00725*
X-02561Y00725*
X-02561Y00725*
X-02561Y00724D02*
D01*
X-02561Y00724*
X-02561Y00724*
X-02561Y00724*
X-02561Y00724*
X-02562Y00723D02*
D01*
X-02562Y00723*
X-02562Y00723*
X-02562Y00723*
X-02562Y00723*
X-02563Y00722D02*
D01*
X-02563Y00722*
X-02563Y00722*
X-02563Y00722*
X-02563Y00722D02*
D01*
X-02563Y00722*
X-02563Y00722*
X-02563Y00722*
X-02563Y00722*
Y00722*
X-02565Y00721D02*
D01*
X-02564Y00721*
X-02564Y00721*
X-02564Y00721*
X-02564Y00721*
X-02566Y00721D02*
D01*
X-02565Y00721*
X-02565Y00721*
X-02565Y00721*
X-02565Y00721*
X-02565Y00721*
X-02565Y00721*
X-02566Y00715D02*
D01*
X-02566Y00715*
X-02566Y00715*
X-02566Y00715*
Y00715*
X-02569Y00708D02*
D01*
X-02568Y00708*
X-02568Y00708*
X-02568Y00708*
X-02568Y00708*
X-02572Y00702D02*
D01*
X-02572Y00702*
X-02572Y00702*
X-02572Y00702*
X-02572Y00702*
X-02577Y00696D02*
D01*
X-02577Y00697*
X-02577Y00697*
X-02577Y00697*
X-02577Y00697*
X-02577Y00696D02*
D01*
X-02577Y00696*
X-02577Y00696*
X-02577Y00696*
X-02577Y00696*
X-02577Y00697*
X-02583Y00693D02*
D01*
X-02583Y00693*
X-02583Y00693*
X-02583Y00693*
X-02583Y00693*
X-0259Y0069D02*
D01*
X-0259Y0069*
X-0259Y0069*
X-0259Y0069*
X-0259Y0069*
X-02599Y00692D02*
D01*
X-02599Y00692*
X-02599Y00692*
X-02599Y00691*
X-02599Y00691*
X-02598Y00691*
X-02598Y00691*
X-02598Y00691*
X-02598Y00691*
X-02598Y00691*
X-02598Y0069*
X-02598Y0069*
X-02598Y0069*
X-02598Y0069*
X-02598Y0069*
X-02597Y0069*
X-02597Y0069*
X-02597Y0069*
X-02597Y0069*
X-02597Y0069*
X-02597Y0069*
X-02596Y0069*
X-02596Y0069*
X-02596Y0069*
X-02596Y0069*
X-02596Y0069*
X-02599Y00692D02*
D01*
X-02599Y00692*
Y00692*
Y00692*
Y00692*
X-02599Y00692*
X-02599Y00736D02*
D01*
X-02599Y00736*
Y00736*
Y00736*
Y00736*
X-02599Y00736*
X-02599Y0079D02*
D01*
X-02599Y0079*
Y0079*
Y0079*
Y0079*
X-02599Y0079*
Y0079D02*
D01*
X-02599Y0079*
Y0079*
Y0079*
Y0079*
X-02599Y0079*
X-026Y00797D02*
D01*
X-026Y00797*
Y00797*
Y00797*
Y00797*
X-026Y00797*
X-02761Y00893D02*
D01*
X-02761Y00893*
X-02761Y00893*
X-02761Y00893*
X-02761Y00892*
X-02761Y00892*
X-0276Y00892*
X-0276Y00892*
X-0276Y00892*
X-0276Y00892*
X-0276Y00892*
X-0276Y00891*
X-0276Y00891*
X-0276Y00891*
X-0276Y00891*
X-02759Y00891*
X-02759Y00891*
X-02759Y00891*
X-02759Y00891*
X-02759Y00891*
X-02759Y00891*
X-02758Y00891*
X-02758Y00891*
X-02758Y00891*
X-02795Y00795D02*
D01*
X-02795Y00795*
X-02795Y00795*
X-02795Y00795*
X-02795Y00795*
X-02795Y00795*
X-02795Y00796*
X-02795Y00796*
X-02795Y00796*
X-02795Y00796*
X-02795Y00796*
X-02795Y00796*
X-02795Y00796*
X-02795Y00797*
X-02796Y00797*
X-02796Y00797*
X-02796Y00797*
X-02796Y00797*
X-02796Y00797*
X-02796Y00797*
X-02797Y00797*
X-02797Y00797*
X-02795Y00795D02*
D01*
Y00795*
Y00795*
Y00795*
Y00795*
Y00795*
D01*
Y00795*
Y00795*
Y00795*
Y00795*
Y00795*
Y00795*
X-02794Y00788D02*
D01*
Y00788*
Y00788*
Y00788*
Y00788*
Y00788*
Y00788*
X-02794Y00744D02*
D01*
Y00744*
Y00744*
Y00744*
Y00744*
Y00744*
Y00744D02*
D01*
Y00744*
Y00744*
Y00744*
Y00744*
Y00744*
Y00744*
X-02794Y00734D02*
D01*
Y00734*
Y00734*
Y00734*
Y00734*
Y00734*
Y00734D02*
D01*
Y00734*
Y00734*
Y00734*
Y00734*
Y00734*
Y00734D02*
D01*
Y00734*
Y00734*
Y00734*
Y00734*
Y00734*
Y00734*
X-02794Y00689D02*
D01*
Y00689*
Y00689*
Y00689*
Y00689*
Y00689*
Y00689D02*
D01*
Y00689*
Y00689*
Y00689*
Y00689*
Y00689*
Y00689*
X-02479Y0056D02*
D01*
X-02479Y0056*
X-02479Y0056*
X-02479Y0056*
X-02479Y00561*
X-02479Y00561*
X-02479Y00561*
X-02479Y00561*
X-02479Y00561*
X-02479Y00561*
X-0248Y00562*
X-0248Y00562*
X-0248Y00562*
X-0248Y00562*
X-0248Y00562*
X-0248Y00562*
X-0248Y00562*
X-02481Y00562*
X-02481Y00562*
X-02481Y00562*
X-02481Y00562*
X-02481Y00562*
X-02481Y00562*
X-02481Y00562*
X-02478Y00459D02*
D01*
Y00459*
Y00459*
Y00459*
Y00459*
Y00459*
X-02481Y00457D02*
D01*
X-0248Y00457*
X-0248Y00457*
X-0248Y00457*
X-0248Y00457*
X-0248Y00457*
X-02479Y00457*
X-02479Y00457*
X-02479Y00457*
X-02479Y00457*
X-02479Y00457*
X-02479Y00458*
X-02479Y00458*
X-02479Y00458*
X-02478Y00458*
X-02478Y00458*
X-02478Y00458*
X-02478Y00458*
X-02478Y00459*
X-02478Y00459*
X-02478Y00459*
X-02478Y00459*
X-02478Y00459*
X-02478Y00459*
X-02537Y00417D02*
D01*
X-02537Y00417*
X-02537Y00417*
X-02522Y00373D02*
D01*
X-02522Y00373*
X-02522Y00373*
X-02522Y00373D02*
D01*
Y00373*
X-02522Y00373*
X-02522Y00373*
X-02522Y00373*
X-02522Y00373*
X-02511Y00328D02*
D01*
Y00328*
Y00328*
X-02511Y00328*
Y00328*
X-02511Y00328*
X-02511Y00328*
X-02763Y00878D02*
X-02758Y0088D01*
X-02768Y00875D02*
X-02763Y00878D01*
X-02772Y00872D02*
X-02768Y00875D01*
X-02776Y00868D02*
X-02772Y00872D01*
X-02778Y00863D02*
X-02776Y00868D01*
X-0278Y00858D02*
X-02778Y00863D01*
X-02781Y00852D02*
X-0278Y00858D01*
X-02781Y00852D02*
X-02781Y00847D01*
X-02779Y00842*
X-02777Y00837*
X-02774Y00832*
X-0277Y00828*
X-02766Y00825*
X-02761Y00823*
X-02756Y00822*
X-0275Y00822*
X-02747Y00822*
X-02744Y00822*
X-02739Y00824*
X-02735Y00827*
X-0273Y0083*
X-02727Y00834*
X-02724Y00839*
X-02723Y00844*
X-02722Y0085*
X-02722Y00855D02*
X-02722Y0085D01*
X-02723Y0086D02*
X-02722Y00855D01*
X-02725Y00865D02*
X-02723Y0086D01*
X-02729Y0087D02*
X-02725Y00865D01*
X-02732Y00874D02*
X-02729Y0087D01*
X-02737Y00877D02*
X-02732Y00874D01*
X-02742Y00879D02*
X-02737Y00877D01*
X-02747Y0088D02*
X-02742Y00879D01*
X-02752Y00881D02*
X-02747Y0088D01*
X-02755Y0088D02*
X-02752Y00881D01*
X-02758Y0088D02*
X-02755Y0088D01*
X-00462Y00101D02*
X-00461Y00098D01*
X-00463Y00103D02*
X-00462Y00101D01*
X-00466Y00108D02*
X-00463Y00103D01*
X-0047Y00112D02*
X-00466Y00108D01*
X-00474Y00115D02*
X-0047Y00112D01*
X-00479Y00117D02*
X-00474Y00115D01*
X-00485Y00119D02*
X-00479Y00117D01*
X-0049Y00119D02*
X-00485Y00119D01*
X-00495Y00118D02*
X-0049Y00119D01*
X-00501Y00117D02*
X-00495Y00118D01*
X-00505Y00114D02*
X-00501Y00117D01*
X-0051Y00111D02*
X-00505Y00114D01*
X-00513Y00107D02*
X-0051Y00111D01*
X-00516Y00102D02*
X-00513Y00107D01*
X-00518Y00097D02*
X-00516Y00102D01*
X-00519Y00092D02*
X-00518Y00097D01*
X-00519Y00092D02*
X-00519Y00086D01*
X-00518Y00081*
X-00517Y00078*
X-00515Y00076*
X-00512Y00071*
X-00509Y00067*
X-00504Y00064*
X-00499Y00062*
X-00494Y00061*
X-00489Y0006*
X-00483Y00061*
X-00478Y00062*
X-00473Y00065*
X-00469Y00068*
X-00465Y00072*
X-00463Y00077*
X-00461Y00082*
X-0046Y00088*
X-0046Y00093D02*
X-0046Y00088D01*
X-00461Y00098D02*
X-0046Y00093D01*
X02744Y00822D02*
X0275Y00822D01*
X02755Y00822*
X02761Y00823*
X02766Y00825*
X0277Y00828*
X02774Y00832*
X02777Y00836*
X02779Y00841*
X02781Y00847*
X02781Y00852*
X0278Y00857D02*
X02781Y00852D01*
X02779Y00863D02*
X0278Y00857D01*
X02776Y00867D02*
X02779Y00863D01*
X02773Y00872D02*
X02776Y00867D01*
X02768Y00875D02*
X02773Y00872D01*
X02764Y00878D02*
X02768Y00875D01*
X02761Y00879D02*
X02764Y00878D01*
X02758Y0088D02*
X02761Y00879D01*
X02753Y00881D02*
X02758Y0088D01*
X02747Y0088D02*
X02753Y00881D01*
X02742Y00879D02*
X02747Y0088D01*
X02737Y00877D02*
X02742Y00879D01*
X02733Y00874D02*
X02737Y00877D01*
X02729Y0087D02*
X02733Y00874D01*
X02726Y00866D02*
X02729Y0087D01*
X02723Y00861D02*
X02726Y00866D01*
X02722Y00855D02*
X02723Y00861D01*
X02722Y0085D02*
X02722Y00855D01*
X02722Y0085D02*
X02723Y00845D01*
X02724Y00839*
X02727Y00835*
X0273Y0083*
X02734Y00827*
X02739Y00824*
X02742Y00823*
X02744Y00822*
X-02511Y00328D02*
Y00328D01*
Y00328D02*
Y00328D01*
X-02507Y00283*
X-02432Y00284*
X-02436Y00328D02*
X-02432Y00284D01*
X-02436Y00328D02*
Y00328D01*
X-02435Y00374*
Y00374*
Y00374D02*
Y00374D01*
Y00374*
X-02435Y00375D02*
Y00375D01*
Y00375D02*
Y00375D01*
X-0243Y0042*
Y0042*
Y0042D02*
Y0042D01*
X-0243Y00421D02*
X-0242Y00466D01*
X-0242Y00466D02*
X-02415Y00486D01*
X-02421Y00488D02*
X-02415Y00486D01*
X-02429Y00492D02*
X-02422Y00488D01*
X-02429Y00492D02*
X-02429D01*
X-02429D02*
X-02429D01*
X-0243Y00492D02*
X-0243Y00492D01*
X-0243Y00492D02*
X-0243Y00492D01*
X-02436Y00498D02*
X-0243Y00492D01*
X-02436Y00498D02*
X-02436Y00498D01*
X-02436Y00498D02*
X-02436Y00498D01*
X-02436Y00498D02*
X-02436Y00498D01*
X-02442Y00505D02*
X-02436Y00498D01*
X-02442Y00505D02*
Y00505D01*
X-02445Y00513D02*
X-02442Y00505D01*
X-02447Y00522D02*
X-02445Y00514D01*
X-02447Y00531D02*
X-02447Y00522D01*
X-02447Y00531D02*
X-02446Y0054D01*
X-02445Y0054D02*
D01*
D01*
X-02442Y00548*
X-02442Y00548*
X-02442Y00548D02*
D01*
Y00548D02*
Y00548D01*
X-02442Y00548D02*
X-02442Y00548D01*
X-02442Y00548D02*
X-02442Y00548D01*
X-02442Y00548*
X-02437Y00555*
Y00555*
Y00555D02*
Y00555D01*
X-02437Y00555*
X-02436Y00555D02*
X-0243Y00561D01*
X-02428Y00561D02*
X-0238Y00562D01*
X-0234Y00562*
X-02207Y00563*
X-01921Y00566*
X-01053Y00574*
Y00844*
X-01312Y00844D02*
X-01053Y00844D01*
X-01323Y00833D02*
X-01312Y00844D01*
X-01323Y00729D02*
Y00833D01*
X-01924Y00721D02*
X-01325Y00726D01*
X-01924Y00721D02*
D01*
X-02209Y00718D02*
X-01924Y00721D01*
X-02342Y00717D02*
X-02209Y00718D01*
X-02381Y00717D02*
X-02342Y00717D01*
X-02429Y00716D02*
X-02381Y00717D01*
X-02432Y00741D02*
X-02432Y00719D01*
X-02432Y00741D02*
X-02432Y00744D01*
X-02431Y00745D02*
X-02431Y00747D01*
Y00747*
Y00747D02*
Y00747D01*
X-0243Y00748D02*
X-0243Y00748D01*
X-0243Y00748D02*
X-0243Y00748D01*
X-02429Y0075*
X-02428Y00751*
X-02429Y0075D02*
X-02429Y0075D01*
X-02429Y0075D02*
X-02429Y0075D01*
X-02428Y00751D02*
D01*
D01*
Y00751D02*
Y00751D01*
X-02426Y00753D01*
X-02426Y00753*
X-02426Y00753D02*
X-02426Y00753D01*
X-02426Y00753D01*
X-02426*
X-02426Y00753*
X-02426Y00753D02*
D01*
X-02426Y00753D02*
X-02426Y00753D01*
X-02423Y00755*
Y00755*
Y00755D02*
Y00755D01*
X-02423Y00755*
X-02423Y00755D02*
X-0242Y00756D01*
X-02419Y00756*
X-02419D02*
X-02419D01*
X-0242Y00756D02*
X-0242D01*
X-02419Y00756D02*
X-02416Y00756D01*
X-02416*
X-02416D02*
X-02416D01*
X-02416Y00756D02*
X-02296Y00757D01*
X-02269Y00758*
X-02215Y00804*
D01*
X-02215*
X-02211Y00803D02*
X-02186Y00823D01*
X-02186Y00823D02*
X-02158Y00843D01*
X-02158Y00843D02*
D01*
Y00843D02*
Y00843D01*
X-02119Y00867*
D01*
X-02119Y00867D01*
X-02119Y00867D02*
D01*
X-02119Y00867D02*
D01*
D01*
X-02075Y0089*
X-02075*
X-02075D02*
X-02075D01*
X-02074Y0089D02*
X-02074Y0089D01*
X-02074Y0089D02*
X-02074Y0089D01*
X-02029Y0091*
X-02029*
X-02029D02*
X-02029D01*
X-02028Y0091D02*
X-01994Y00922D01*
X-01993Y00922D02*
X-01993D01*
X-0189Y00952*
D01*
X-0189D02*
X-0189Y00952D01*
X-0189Y00952*
X-0189*
X-0189Y00952D02*
X-0189D01*
X-0189Y00952D02*
X-0189D01*
X-01797Y00975*
X-01797*
X-01797D02*
X-01797D01*
X-01797*
X-01797Y00975D02*
X-01704Y00994D01*
X-01704*
X-01704D02*
X-01704D01*
X-01704Y00995D02*
D01*
D01*
X-01704D02*
X-01704D01*
X-01608Y0101D01*
X-01608*
X-01608D02*
X-01608D01*
X-01607Y0101D01*
X-01608Y0101D02*
D01*
X-01607Y0101D02*
X-01607D01*
X-01607D02*
X-01607D01*
X-01607*
X-01511Y01022*
D01*
X-01511*
X-01511Y01022D02*
X-01511D01*
X-01511D02*
X-01511D01*
X-01465Y01026*
X-01465Y01026*
X-01465Y01026D02*
X-01465Y01026D01*
X-01465D02*
X-01419Y01028D01*
X-01419D02*
X-0136Y01027D01*
X-0136Y01027D02*
X-01301Y01024D01*
X-01301Y01024D02*
X-01242Y01016D01*
X-01242Y01016D02*
X-01178Y01005D01*
X-01178Y01005*
X-01178Y01005D02*
X-01178Y01005D01*
X-01178Y01005D02*
X-01178Y01005D01*
X-01178Y01005D02*
X-01121Y00991D01*
X-01121Y00991D02*
X-01058Y00972D01*
X-01058Y00972D02*
X-00997Y00949D01*
X-00997Y00949D02*
D01*
X-00997D02*
X-00997D01*
X-00943Y00926*
X-00943Y00926*
X-00943Y00926D02*
X-00943D01*
X-00891Y00899D01*
X-00891D02*
D01*
X-0089Y00899D02*
X-00834Y00866D01*
X-00834Y00866D02*
X-00834D01*
X-00834D02*
X-00834D01*
X-00784Y00833*
X-00784Y00833*
X-00784Y00833D02*
X-00784Y00833D01*
X-00784Y00833D02*
X-00784D01*
X-00784Y00833D02*
X-00784Y00833D01*
X-00737Y00798*
X-00737Y00798*
X-00737Y00798D02*
X-00737Y00798D01*
D01*
X-00737Y00797D02*
X-00697Y00765D01*
X-00697Y00765D02*
X-00697D01*
Y00765D02*
X-0066Y0073D01*
X-0066Y0073D02*
X-0066D01*
X-0066Y0073D02*
X-00624Y00694D01*
X-00623Y00694D02*
X-00561Y00622D01*
X-0056Y00622D02*
X-00537Y0059D01*
X-00537Y0059*
X-00537Y0059D02*
X-00537Y0059D01*
X-00537Y0059D02*
X-00537D01*
X-00537Y0059D02*
Y0059D01*
X-00537*
X-00516Y00557*
X-00516D02*
Y00557D01*
X-00516Y00557D02*
X-00516Y00557D01*
X-00516Y00557D02*
X-00516Y00557D01*
X-00492Y00515*
X-00492Y00515*
X-00492Y00515D02*
X-00492Y00515D01*
X-00492Y00514D02*
X-00473Y0047D01*
X-00472Y00469D02*
Y00469D01*
Y00469D02*
X-00471Y00464D01*
X-00461Y00452*
X-00448Y00443*
X-00437Y00438*
X-00437*
X-00437D02*
X-00437D01*
X-00438Y00433D02*
X-00437D01*
X-006Y00406D02*
X-00438Y00433D01*
X-006Y00406D02*
X-00579Y00283D01*
X-00579Y00283*
X-00579Y00283D02*
X-00579Y00283D01*
X-00581Y0028D02*
X-00581Y0028D01*
X-00639Y00271D02*
X-00582Y0028D01*
X-00642Y0027D02*
X-00639Y00271D01*
X-00645Y00268D02*
X-00642Y0027D01*
X-00648Y00266D02*
X-00645Y00268D01*
X-0065Y00264D02*
X-00648Y00266D01*
X-00652Y00261D02*
X-0065Y00264D01*
X-00653Y00258D02*
X-00652Y00261D01*
X-00654Y00255D02*
X-00653Y00258D01*
X-00654Y00252D02*
X-00654Y00255D01*
X-00654Y00252D02*
X-00654Y0025D01*
X-00636Y00145*
X-00635Y00143*
X-00634Y00139*
X-00632Y00137*
X-0063Y00134*
X-00627Y00132*
X-00624Y00131*
X-00621Y0013*
X-00618Y0013*
X-00615Y0013*
X-00576Y00136*
X-00576Y00136D02*
X-00576D01*
X-00576D02*
X-00576D01*
X-00576D02*
X-00576D01*
X-00576D02*
X-00573Y00137D01*
X-00573*
X-00573D02*
X-00573D01*
X-00572D02*
X-00569Y00136D01*
X-00569*
X-00569Y00136D02*
X-00565Y00135D01*
X-00565*
X-00565D02*
X-00565D01*
X-00565Y00135D02*
X-00565D01*
X-00565D02*
X-00565D01*
X-00562Y00134*
Y00134*
X-00561Y00133D02*
X-00561Y00133D01*
X-00561Y00133D02*
X-00561Y00133D01*
X-00559Y00131*
X-00559Y00131*
X-00559Y00131D02*
X-00559Y00131D01*
X-00558Y00131D02*
X-00556Y00129D01*
X-00556Y00128D02*
X-00554Y00125D01*
X-00554Y00125D02*
X-00554Y00125D01*
X-00554Y00125D02*
X-00554Y00125D01*
X-00552Y00122*
X-00552Y00122*
X-00552Y00122D02*
Y00122D01*
X-00552D02*
X-00552Y00119D01*
X-00552Y00119*
X-00552Y00119D02*
X-00552Y00119D01*
Y00119*
X-00552Y00119D02*
X-00545Y0008D01*
X-00544Y00074*
X-0054Y00064*
X-00534Y00055*
X-00526Y00048*
X-00518Y00042*
X-00508Y00038*
X-00497Y00036*
X-0049Y00036*
X-00483Y00036*
X-00478Y00037*
X-00467Y0004*
X-00458Y00045*
X-0045Y00051*
X-00443Y00059*
X-00437Y00068*
X-00434Y00078*
X-00433Y00088*
X-00433Y00099D02*
X-00433Y00088D01*
X-0047Y00315D02*
X-00433Y00099D01*
X-0047Y00315D02*
Y00315D01*
Y00315D02*
Y00315D01*
X-00468Y00318D02*
X-00468D01*
X-00468D02*
X-00468D01*
X-00468*
X-00416Y00327*
X-00416Y00327*
X-00416Y00327D02*
X-00416Y00327D01*
X-00416*
X-00415Y00327D02*
X-00396Y00327D01*
X-00396D02*
X-00396D01*
X-00396D02*
X-00396D01*
X-00378Y00328*
X-00378*
X-00378D02*
X-00378D01*
X-00331Y00328D01*
X-00328Y00328*
X-00325Y00329*
X-00322Y00331*
X-00319Y00333*
X-00317Y00335*
X-00315Y00338*
X-00314Y00341*
X-00313Y00344*
X-00313Y00347*
X-00314Y0035D02*
X-00313Y00347D01*
X-00322Y00388D02*
X-00314Y0035D01*
X-00334Y00397D02*
X-00322Y00388D01*
X-00334Y00398D02*
X-00334Y00398D01*
X-00334Y00398D02*
X-00334Y00398D01*
X-00334*
X-00345Y00408D02*
X-00334Y00398D01*
X-00345Y00409D02*
X-00345Y00408D01*
X-00361Y00428D02*
X-00346Y00409D01*
X-00361Y00428D02*
Y00428D01*
Y00428*
Y00428D02*
Y00428D01*
X-00373Y00449D02*
X-00361Y00428D01*
X-00373Y00449D02*
Y00449D01*
X-00379Y00465D02*
X-00373Y00449D01*
X-00379Y00466D02*
Y00466D01*
Y00466D02*
Y00466D01*
X-0038Y00468D02*
X-00379Y00466D01*
X-00385Y00486D02*
X-0038Y00468D01*
X-00385Y00486D02*
Y00486D01*
X-00388Y00504D02*
X-00385Y00486D01*
X-00388Y00504D02*
D01*
X-00388Y00504D02*
X-00388Y00522D01*
X-00388Y00522D02*
Y00522D01*
Y00522D02*
Y00522D01*
X-00385Y0054*
X-00385Y0054*
X-00385Y0054D02*
X-00385Y0054D01*
X-00385Y0054D02*
X-00379Y00558D01*
X-00379Y00559D02*
X-0037Y00577D01*
X-0037Y00577D02*
X-00358Y00594D01*
X-00357Y00594D02*
X-00357Y00594D01*
X-00357Y00594D02*
D01*
X-00357Y00594*
X-00356Y00595*
X-00356Y00595D02*
X-00356Y00595D01*
X-00356Y00595D02*
X-00296Y00636D01*
X-00296Y00636D02*
X-00289Y0064D01*
X-00289Y0064*
X-00289Y0064D02*
X-00289Y0064D01*
X-00289Y0064D02*
X-00289D01*
X-00289Y0064D02*
X-00289Y0064D01*
X-00273Y00647*
X-00273Y00647*
X-00273Y00647D02*
X-00273Y00647D01*
X-00273Y00647D02*
X-00227Y00664D01*
X-00227Y00664D02*
X-00205Y00671D01*
X-00205Y00671D02*
X-00183Y00676D01*
X-00182Y00676D02*
X-00182D01*
X-00182D02*
X-00182D01*
X-00146Y00682*
X-00146Y00682*
X-00146Y00682D02*
X-00146Y00682D01*
X-00146Y00682D02*
X-00146D01*
X-00146Y00682D02*
X-00089Y00686D01*
X-00089Y00686*
X-00089Y00686D02*
X-00089Y00686D01*
X-00089D02*
X00089D01*
X00089D02*
X00089Y00686D01*
X00089Y00686D02*
X00089Y00686D01*
X00146Y00682*
X00146*
X00146D02*
X00146D01*
X00146Y00682D02*
X00146D01*
X00146D02*
X00146D01*
X00169Y00679*
X00169*
X00169D02*
X00169D01*
X00169Y00679D02*
X00191Y00674D01*
X00192Y00674D02*
X00227Y00664D01*
X00227Y00664D02*
X00273Y00647D01*
X00273Y00647D02*
X00289Y0064D01*
X00289Y0064D02*
X00289Y0064D01*
X00289Y0064D02*
X00289Y0064D01*
X00296Y00636*
X00296Y00636*
X00296Y00636D02*
X00296Y00636D01*
X00296Y00636D02*
X00356Y00595D01*
D01*
X00357Y00594D01*
X00358Y00594D02*
Y00594D01*
X00358Y00594D02*
X00358Y00594D01*
Y00594*
X00368Y0058*
X00368Y0058D02*
Y0058D01*
X00368Y0058D02*
X00368Y0058D01*
X00368Y0058D02*
X00368Y0058D01*
X00376Y00566*
X00376Y00566D02*
Y00566D01*
X00383Y00548*
X00383Y00547D02*
Y00547D01*
Y00547D02*
Y00547D01*
Y00547*
X00387Y00528*
Y00528*
Y00528*
Y00528D02*
Y00528D01*
X00387Y00528D02*
X00388Y00508D01*
X00388Y00508D02*
Y00508D01*
Y00508D02*
X00388Y00508D01*
X00386Y00488D02*
X00388Y00508D01*
X00386Y00488D02*
D01*
X0038Y00468D02*
X00386Y00488D01*
X00378Y00449D02*
X0038Y00468D01*
X00378Y00449D02*
Y00449D01*
X00372Y00431D02*
X00378Y00449D01*
X00372Y00431D02*
X00372Y00431D01*
X00362Y00414D02*
X00372Y0043D01*
X00361Y00413D02*
X00361Y00413D01*
X00355Y00407D02*
X00361Y00413D01*
X00308Y00383D02*
X00354Y00406D01*
X00291Y00342D02*
X0032Y00253D01*
Y00253D02*
D01*
X0032Y00253*
X0032Y00252D02*
Y00252D01*
X00383Y00138D01*
Y00138*
Y00138D02*
Y00138D01*
X00383Y00138D01*
X00383Y00138D02*
D01*
X00383Y00138*
X00384Y00138D02*
D01*
X00406Y00129D02*
X00406Y00129D01*
X00406Y00129D02*
X00406Y00129D01*
X00518Y0017*
X00518Y0017*
X00518Y0017D02*
X00518Y0017D01*
X00518*
X00518Y0017*
X00518D02*
X00518D01*
X00518D02*
X00518D01*
X00518Y0017D02*
Y0017D01*
Y0017D02*
Y0017D01*
X00518Y0017D02*
X00518Y0017D01*
Y0017D02*
Y0017D01*
X00518D02*
X00563Y00186D01*
D01*
X00564Y00187D02*
D01*
X00564D02*
X00564D01*
X00564Y00187*
X00564Y00187D02*
D01*
X00564D02*
Y00187D01*
X006Y00208D01*
X00601Y00209*
X0062Y00234*
X0062Y00234*
X0062Y00234D02*
X0062Y00234D01*
X0062Y00234D02*
D01*
X0062Y00234D01*
Y00234D01*
Y00234D02*
Y00234D01*
X0062D01*
X0062Y00234D02*
X0062D01*
X0062D02*
X0062D01*
X00634Y00274*
Y00274*
Y00274D02*
Y00274D01*
X00634Y00275D02*
X00635Y00306D01*
Y00306*
Y00306D02*
D01*
Y00306D02*
Y00306D01*
X00614Y00356D02*
X00634Y00307D01*
X00613Y00356D02*
X00613Y00356D01*
X00613Y00356D02*
X00613Y00356D01*
X00591Y00379D02*
X00613Y00356D01*
X00591Y00379D02*
X00591D01*
X00591D02*
X00591D01*
X0059Y0038D02*
Y0038D01*
X0059Y0038D02*
X0059Y0038D01*
X0059Y0038D02*
D01*
X0059Y0038D02*
D01*
X0059Y0038D01*
D01*
X0059Y0038D02*
D01*
X00552Y00397D02*
X0059Y0038D01*
X00552Y00397D02*
D01*
X00552Y00397D02*
X00552D01*
X00552D02*
D01*
X00551Y00398D02*
X00551D01*
X00551D02*
X00551D01*
X00509Y00399D02*
X00551Y00398D01*
X00509Y00399D02*
X00509D01*
X00472Y00388D02*
X00508Y00399D01*
X00471Y00388D02*
D01*
X00441Y00363D02*
X00471Y00388D01*
X00441Y00363D02*
D01*
X00441Y00362D02*
Y00362D01*
X00441Y00362D02*
X00441Y00362D01*
X00427Y00338D02*
X00441Y00362D01*
X00401Y00295D02*
D01*
X004Y00294D02*
D01*
X004Y00331D02*
D01*
X004Y00331D02*
D01*
X004Y00331D02*
Y00331D01*
X00422Y00342D02*
X00449Y00388D01*
X0045Y00389D02*
Y00389D01*
Y00389D02*
D01*
X0045Y00389D02*
X0045Y00389D01*
Y00389D02*
Y00389D01*
X0045Y00389D02*
X0045Y00389D01*
X0045Y00389D02*
Y00389D01*
X0045Y00389D02*
X00489Y00508D01*
X00489Y00508*
X00489Y00508D02*
X00489Y00508D01*
X00489Y00508D02*
X00489Y00508D01*
X00489Y00508D02*
X00508Y00545D01*
X00509Y00545D02*
X00532Y00582D01*
X00532Y00583D02*
X00532Y00583D01*
X00532Y00583D02*
X00532Y00583D01*
X0056Y00622*
X0056Y00622*
X0056Y00622D02*
X0056Y00622D01*
X00561Y00622D02*
X00623Y00694D01*
X00624Y00694D02*
X00624Y00694D01*
X00624Y00694D02*
X00624Y00694D01*
X0066Y0073*
X0066Y0073*
X0066Y0073D02*
X0066Y0073D01*
X0066Y0073D02*
X0066Y0073D01*
X0066Y0073D02*
X0066Y0073D01*
X0066Y0073D02*
X0066D01*
X0066Y0073*
X00697Y00765*
Y00765*
X00697Y00765*
X00698Y00765*
X00697Y00765D02*
Y00765D01*
X00698Y00765D02*
X00698Y00765D01*
X00698Y00765D02*
X00698Y00765D01*
X00737Y00797*
X00737Y00798*
X00737Y00797D02*
Y00797D01*
X00737Y00797D02*
X00737Y00797D01*
X00737Y00798D02*
X00737D01*
X00737Y00798D02*
X00737Y00798D01*
X00787Y00835*
X00788Y00835*
X00787Y00835D02*
D01*
X00787Y00835D02*
X00787Y00835D01*
X00788Y00835D02*
X00788Y00835D01*
X00788Y00835D02*
X00788Y00835D01*
X0084Y0087*
X0084Y0087*
X0084Y0087D02*
X0084Y0087D01*
X0084Y0087D02*
X0084Y0087D01*
X0084Y0087D02*
X0084D01*
X0084D02*
X0084D01*
X00892Y00899*
X00892Y00899*
X00892D02*
X00892D01*
X00892Y00899D02*
X00892Y00899D01*
X00892Y00899D02*
X0095Y00929D01*
X0095Y00929*
X0095D02*
X0095D01*
X0095Y00929D02*
X0095Y00929D01*
X0095Y00929D02*
X0101Y00954D01*
X0101Y00954*
X0101Y00954D02*
X0101Y00954D01*
X0101Y00954D02*
X0101D01*
X0101D02*
X0101D01*
X0101D02*
X0101D01*
X0101D02*
X01065Y00974D01*
Y00974*
Y00974D02*
Y00974D01*
X01065D02*
X01065Y00974D01*
X01065Y00974D02*
X01065D01*
X01065Y00974D02*
X01065D01*
X01065D02*
D01*
X01065*
X01128Y00993*
X01128*
X01128D02*
X01128D01*
X01128*
X01128Y00993D02*
X01191Y01008D01*
X01191Y01008D02*
X01191Y01008D01*
X01191Y01008D02*
X01191Y01008D01*
X01256Y01018*
X01256Y01018*
X01256Y01018D02*
X01256D01*
X01256Y01018D02*
X01256D01*
X01256D02*
X01256D01*
X01321Y01025*
X01321Y01025*
X01321Y01025D02*
X01321Y01025D01*
X01321Y01025D02*
X01321D01*
X01321D02*
X01321D01*
X01386Y01028*
X01386*
X01386D02*
X01386D01*
X01386D02*
X01386D01*
X01386D02*
X01445Y01027D01*
X01445Y01027D02*
X01511Y01022D01*
X01511Y01022D02*
X01511D01*
X01511D02*
X01511D01*
X01569Y01016*
X01569Y01016*
X01569D02*
X01569D01*
X01569D02*
X01627Y01007D01*
X01627Y01007D02*
D01*
X01715Y00992*
X01715*
X01715D02*
D01*
X01715Y00992D02*
X01803Y00974D01*
X01803Y00974D02*
X01803D01*
X01803D02*
X01803D01*
X0189Y00952*
X0189Y00952D02*
X0189D01*
X01993Y00922*
X01993D02*
X01993D01*
X01993Y00922D02*
X02028Y0091D01*
X02029Y0091D02*
X02061Y00897D01*
X02061Y00897D02*
X02061Y00897D01*
X02092Y00882*
X02092Y00882*
X02092Y00882D02*
X02092Y00882D01*
X02092Y00882D02*
D01*
X02132Y00859*
D01*
X02132Y00859D02*
D01*
X02132D02*
X02174Y00832D01*
D01*
X02174Y00832*
X02174Y00832D02*
X02211Y00803D01*
X02215Y00804D02*
X02215D01*
X02215Y00804D02*
Y00804D01*
X02215*
X02269Y00758*
X02297Y00757*
X02416Y00756*
X02416Y00756D02*
X02416D01*
X02416D02*
X02416D01*
X02419Y00756*
X0242Y00756D02*
X0242D01*
X02423Y00755*
X02423Y00755*
X02423Y00755D02*
X02423Y00755D01*
X02423Y00755D02*
X02423Y00755D01*
X02423Y00755D02*
X02423Y00755D01*
X02423Y00755*
X02426Y00753*
X02426Y00753*
X02426D02*
D01*
D01*
X02426Y00753D02*
X02426D01*
X02426Y00753D02*
X02426Y00753D01*
X02426*
X02426Y00753D02*
X02426D01*
X02428Y00751*
X02429Y0075D02*
X0243Y00748D01*
X02431Y00747D02*
X02432Y00744D01*
X02432Y00744D02*
X02432Y00744D01*
X02432Y00744D02*
X02432Y00744D01*
X02432Y00741*
Y00741*
Y00741D02*
Y00741D01*
X02432Y00719D02*
X02432Y00741D01*
X02381Y00717D02*
X02429Y00716D01*
X02342Y00717D02*
X02381Y00717D01*
X0221Y00718D02*
X02342Y00717D01*
X01924Y00721D02*
X0221Y00718D01*
X01924Y00721D02*
D01*
X01325Y00726D02*
X01924Y00721D01*
X01322Y00729D02*
Y00833D01*
X01322Y00833D02*
X01322Y00833D01*
X01312Y00844D02*
X01322Y00833D01*
X01053Y00844D02*
X01312D01*
X01053Y00574D02*
Y00844D01*
Y00574D02*
X01921Y00566D01*
X02207Y00563*
X0234Y00562*
X02379Y00562*
X02428Y00561*
X0243Y00561D02*
X02436Y00555D01*
X02437Y00555D02*
Y00555D01*
X02437Y00555D02*
X02437Y00555D01*
Y00555*
X02442Y00548*
X02442Y00548D02*
Y00548D01*
X02442Y00548D02*
X02442Y00548D01*
X02442Y00548D02*
X02442Y00548D01*
X02445Y0054*
X02445Y0054*
X02445Y0054D02*
X02445Y0054D01*
X02446Y0054D02*
X02447Y00531D01*
X02447Y00522D02*
X02447Y00531D01*
X02447Y00522D02*
D01*
X02446Y00514D02*
X02447Y00522D01*
X02442Y00505D02*
X02445Y00513D01*
X02436Y00498D02*
X02442Y00505D01*
X0243Y00492D02*
X02436Y00498D01*
X02429Y00492D02*
X02429D01*
X02429D02*
X02429D01*
X02422Y00488D02*
X02429Y00492D01*
X02415Y00486D02*
X02421Y00488D01*
X02415Y00486D02*
X0242Y00466D01*
X0242Y00466D02*
X0243Y00421D01*
X0243Y0042D02*
X02435Y00375D01*
Y00375*
Y00375D02*
Y00375D01*
X02435Y00374D02*
Y00374D01*
Y00374D02*
Y00374D01*
X02436Y00328*
Y00328*
Y00328D02*
Y00328D01*
X02432Y00284D02*
X02436Y00328D01*
X02432Y00284D02*
X02507Y00283D01*
X02511Y00328*
Y00328*
Y00328D02*
Y00328D01*
X02511Y00328D02*
Y00328D01*
Y00328D02*
D01*
Y00328*
X02522Y00373*
X02522Y00373*
X02522Y00373D02*
X02522Y00373D01*
Y00373*
X02522Y00373D02*
X02537Y00417D01*
X02537Y00417D02*
X02557Y00456D01*
X02481Y00457D02*
X02557Y00456D01*
X02478Y00459D02*
X02479Y0056D01*
X02482Y00562D02*
X02566Y00562D01*
X0258Y00561*
X02725Y0056*
X02742Y00562*
X02757Y00567*
X02779Y00579*
X02793Y00599*
X02794Y00689*
Y00689*
Y00689D02*
Y00689D01*
X02794Y00734*
Y00734*
Y00734D02*
Y00734D01*
Y00734D02*
Y00734D01*
Y00734D02*
X02794Y00744D01*
Y00744*
Y00744D02*
Y00744D01*
Y00744D02*
Y00744D01*
Y00744D02*
X02794Y00788D01*
Y00788*
Y00788D02*
Y00788D01*
Y00788D01*
X02795Y00795*
Y00795*
Y00795D02*
Y00795D01*
Y00795*
X02797Y00797D02*
X02797D01*
X02797D02*
X02797D01*
X02804Y00798*
X02811Y008*
X02818Y00804*
X02823Y0081*
X02827Y00816*
X0283Y00824*
X02831Y00831*
X02831Y00917*
X02815Y00926D02*
X02831Y00917D01*
X02796Y00931D02*
X02815Y00926D01*
X02777Y00933D02*
X02796Y00931D01*
X02761Y00933D02*
X02777Y00933D01*
X02761Y00914D02*
X02761Y00933D01*
X02761Y00893D02*
X02761Y00914D01*
X02758Y00891D02*
D01*
X02758D01*
X026Y00892D02*
X02758Y00891D01*
X026Y00797D02*
X026Y00892D01*
X026Y00797D02*
Y00797D01*
X026Y0079D02*
X026Y00797D01*
X026Y0079D02*
Y0079D01*
X02599Y00745D02*
X026Y0079D01*
X02599Y00745D02*
D01*
X02599Y00736D02*
X02599Y00745D01*
X02599Y00736D02*
Y00736D01*
X02599Y00692D02*
X02599Y00736D01*
X02599Y00692D02*
Y00692D01*
X0259Y0069D02*
X02596Y0069D01*
X0259Y0069D02*
X0259D01*
X02583Y00693D02*
X0259Y0069D01*
X02577Y00696D02*
X02583Y00693D01*
X02572Y00702D02*
X02577Y00697D01*
X02569Y00708D02*
X02572Y00702D01*
X02566Y00715D02*
X02568Y00708D01*
X02566Y00715D02*
Y00715D01*
Y00715D02*
Y00715D01*
X02566Y00721D02*
X02566Y00715D01*
X02565Y00721D02*
X02565Y00721D01*
X02564Y00721D02*
X02564D01*
X02564D02*
X02564D01*
X02563Y00722D02*
X02564Y00721D01*
X02563Y00722D02*
X02563D01*
X02563D02*
X02563D01*
X02562Y00723D02*
X02563Y00722D01*
X02561Y00724D02*
X02562Y00723D01*
X02561Y00724D02*
Y00724D01*
X02561Y00725D02*
X02561Y00724D01*
X02561Y00725D02*
X02561Y00725D01*
X02561Y00725D02*
X02561Y00725D01*
X02561Y00725D02*
X02561Y00725D01*
X02561Y00725D02*
D01*
X02561Y00725D02*
D01*
X02561Y00725D02*
Y00725D01*
X02561Y00726D02*
X02561Y00725D01*
X02561Y00726D02*
Y00726D01*
Y00726D02*
Y00726D01*
X0256Y00727D02*
X0256Y00728D01*
X02561Y00728D02*
X02561Y00729D01*
X02561Y00729D02*
X02561Y0073D01*
X02562Y00731D02*
X02562Y00731D01*
X02562Y00731*
X02562Y00731D02*
X02562Y00731D01*
X02562Y00732D02*
X02563Y00732D01*
X02563Y00733D02*
D01*
X02563D02*
X02563D01*
X02564Y00733*
D01*
X02564Y00733*
X02565Y00733D02*
X02566Y00734D01*
X02566Y00734D02*
X02567Y0084D01*
X02566Y00844D02*
X02567Y0084D01*
X02565Y00847D02*
X02566Y00844D01*
X02564Y0085D02*
X02565Y00847D01*
X02561Y00852D02*
X02564Y0085D01*
X02559Y00854D02*
X02561Y00852D01*
X02556Y00855D02*
X02559Y00854D01*
X02552Y00856D02*
X02556Y00855D01*
X02551Y00856D02*
X02552Y00856D01*
X02551Y00856D02*
X02551D01*
X02551D02*
X02551D01*
X02551*
X02551D02*
X02551D01*
X02489Y00856D02*
X02551Y00856D01*
X02489Y00856D02*
X02489D01*
X02489D02*
X02489D01*
X02486Y00859D02*
X02486Y00908D01*
X02467Y00914D02*
X02486Y00908D01*
X02467Y00914D02*
X02467D01*
X02467D02*
X02467D01*
X02447Y0092D02*
X02467Y00914D01*
X02447Y00921D02*
X02447Y0092D01*
X02447Y00921D02*
X02447D01*
X02447Y0092D02*
X02447D01*
X0241Y00936D02*
X02447Y00921D01*
X0241Y00936D02*
X0241Y00936D01*
X02375Y00955D02*
X0241Y00936D01*
X02298Y00978D02*
X02375Y00955D01*
X02298Y00978D02*
X02298D01*
X02298D02*
X02298D01*
X02214Y01003D02*
X02298Y00978D01*
X02214Y01003D02*
D01*
X02029Y0106D02*
X02213Y01005D01*
X02007Y01066D02*
X02029Y0106D01*
X02007Y01066D02*
D01*
D01*
X01985Y01073D02*
X02007Y01066D01*
X01985Y01073D02*
D01*
D01*
D01*
X0196Y0108D02*
X01985Y01073D01*
X01886Y011D02*
X0196Y0108D01*
X01816Y01116D02*
X01886Y011D01*
X01744Y01129D02*
X01816Y01116D01*
X01665Y01139D02*
X01744Y01129D01*
X01585Y01146D02*
X01665Y01139D01*
X01391Y01146D02*
X01585Y01146D01*
X01316Y01139D02*
X01391Y01146D01*
X01242Y0113D02*
X01316Y01139D01*
X01164Y01115D02*
X01242Y0113D01*
X01093Y01099D02*
X01164Y01115D01*
X01024Y0108D02*
X01093Y01099D01*
X00948Y01054D02*
X01024Y0108D01*
X0088Y01028D02*
X00948Y01054D01*
X00814Y00999D02*
X0088Y01028D01*
X0075Y00968D02*
X00814Y00999D01*
X00688Y00934D02*
X0075Y00968D01*
X00627Y00898D02*
X00688Y00934D01*
X00574Y00863D02*
X00627Y00898D01*
X00523Y00826D02*
X00574Y00863D01*
X00473Y00787D02*
X00523Y00826D01*
X00471Y00786D02*
D01*
X00432Y00788D02*
X00471Y00786D01*
X00432Y00788D02*
D01*
D01*
X0043Y00788D02*
X0043Y00788D01*
X00396Y00819D02*
X0043Y00788D01*
X00375Y00838D02*
X00396Y00819D01*
X00368Y0084D02*
X00375Y00838D01*
X00354Y00852D02*
X00368Y00841D01*
X00354Y00852D02*
X00354Y00852D01*
X00354Y00852D02*
X00354Y00852D01*
X00354Y00852D02*
X00354Y00852D01*
X00343Y00861D02*
X00354Y00852D01*
X00326Y00852D02*
X00343Y00861D01*
X00325Y00851D02*
X00326Y00852D01*
X00321Y0085D02*
X00324Y00851D01*
X0032Y0085D02*
X0032Y0085D01*
X00317Y00849D02*
X0032Y0085D01*
X00313Y00849D02*
X00316Y00849D01*
X-00313Y00849D02*
X00313D01*
X-00316Y00849D02*
X-00313Y00849D01*
X-0032Y0085D02*
X-00317Y00849D01*
X-00321Y0085D02*
X-00321D01*
X-00324Y00851D02*
X-00321Y0085D01*
X-00326Y00852D02*
X-00325Y00851D01*
X-00343Y00861D02*
X-00326Y00852D01*
X-00354Y00852D02*
X-00343Y00861D01*
X-00368Y00841D02*
X-00354Y00852D01*
X-00368Y0084D02*
X-00368D01*
X-00375Y00838D02*
X-00368Y0084D01*
X-00396Y00819D02*
X-00375Y00838D01*
X-00396Y00819D02*
X-00396Y00819D01*
X-00396Y00819D02*
X-00396Y00819D01*
X-0043Y00788D02*
X-00396Y00819D01*
X-0043Y00788D02*
X-0043Y00788D01*
X-00471Y00786D02*
X-00432Y00788D01*
X-00498Y00807D02*
X-00473Y00787D01*
X-00498Y00807D02*
X-00498Y00807D01*
X-00498Y00807D02*
X-00498Y00807D01*
X-00538Y00837D02*
X-00498Y00807D01*
X-00538Y00837D02*
X-00538Y00837D01*
X-00538Y00837D02*
X-00538Y00837D01*
X-00538Y00837*
X-00538Y00837D02*
X-00538Y00837D01*
X-00579Y00866D02*
X-00538Y00837D01*
X-00579Y00866D02*
X-00579Y00866D01*
X-00579Y00866D02*
X-00579Y00866D01*
X-00579Y00866D02*
X-00579Y00866D01*
X-00579Y00866D02*
X-00579Y00866D01*
X-00584Y0087D02*
X-00579Y00866D01*
X-00584Y0087D02*
X-00584Y0087D01*
X-00584Y0087D02*
X-00584Y0087D01*
X-00584Y00869*
X-00584Y0087D02*
X-00584Y00869D01*
X-00627Y00898D02*
X-00584Y0087D01*
X-00627Y00898D02*
X-00627Y00898D01*
X-00627Y00898D02*
X-00627Y00898D01*
X-00627Y00898*
X-00627Y00898D02*
X-00627Y00898D01*
X-00688Y00934D02*
X-00627Y00898D01*
X-0075Y00968D02*
X-00688Y00934D01*
X-00813Y00999D02*
X-0075Y00968D01*
X-00875Y01027D02*
X-00813Y00999D01*
X-00938Y01051D02*
X-00875Y01027D01*
X-01007Y01074D02*
X-00938Y01051D01*
X-01084Y01097D02*
X-01007Y01074D01*
X-01161Y01115D02*
X-01084Y01097D01*
X-01232Y01128D02*
X-01161Y01115D01*
X-01311Y01139D02*
X-01232Y01128D01*
X-01391Y01146D02*
X-01311Y01139D01*
X-01584Y01146D02*
X-01391Y01146D01*
X-01627Y01143D02*
X-01584Y01146D01*
X-01668Y01139D02*
X-01627Y01143D01*
X-01741Y01129D02*
X-01668Y01139D01*
X-01814Y01116D02*
X-01741Y01129D01*
X-01886Y011D02*
X-01814Y01116D01*
X-0196Y0108D02*
X-01886Y011D01*
X-01983Y01073D02*
X-0196Y0108D01*
X-02006Y01066D02*
X-01983Y01073D01*
X-02029Y0106D02*
X-02006Y01066D01*
X-02212Y01005D02*
X-02029Y0106D01*
X-02214Y01003D02*
X-02214D01*
X-02298Y00978D02*
X-02214Y01003D01*
X-02298Y00978D02*
D01*
X-02375Y00955D02*
X-02298Y00978D01*
X-02396Y00943D02*
X-02375Y00955D01*
X-02419Y00932D02*
X-02397Y00943D01*
X-02452Y00918D02*
X-02419Y00932D01*
X-02486Y00908D02*
X-02453Y00918D01*
X-02486Y00859D02*
X-02486Y00908D01*
X-02489Y00856D02*
X-02489D01*
X-02489D02*
X-02489D01*
X-02551Y00856D02*
X-02489Y00856D01*
X-02551Y00856D02*
X-02551D01*
X-02552Y00856D02*
X-02551Y00856D01*
X-02555Y00855D02*
X-02552Y00856D01*
X-02558Y00854D02*
X-02555Y00855D01*
X-02561Y00852D02*
X-02558Y00854D01*
X-02563Y0085D02*
X-02561Y00852D01*
X-02565Y00847D02*
X-02563Y0085D01*
X-02566Y00844D02*
X-02565Y00847D01*
X-02567Y0084D02*
X-02566Y00844D01*
X-02567Y0084D02*
X-02566Y00734D01*
X-02565Y00734D02*
X-02565Y00733D01*
X-02564Y00733D02*
X-02564Y00733D01*
X-02564Y00733D02*
X-02564Y00733D01*
X-02563Y00733*
X-02563Y00733*
X-02563Y00733D02*
X-02563Y00733D01*
X-02563Y00732D02*
X-02562Y00732D01*
X-02562Y00731D02*
X-02562Y00731D01*
X-02561Y0073*
X-02562Y00731D02*
X-02561Y00731D01*
X-02561Y0073D02*
X-02561Y0073D01*
X-02561Y00729*
X-02561Y00729*
X-02561Y00729D02*
X-02561Y00729D01*
X-02561Y00729D02*
X-02561Y00729D01*
X-02561Y00728*
X-0256Y00728D02*
Y00728D01*
Y00728D02*
X-0256Y00727D01*
X-02561Y00725D02*
X-02561Y00726D01*
X-02561Y00725D02*
X-02561Y00725D01*
X-02561Y00725D02*
X-02561Y00725D01*
X-02561Y00724D02*
X-02561Y00725D01*
X-02561Y00724D02*
D01*
X-02562Y00723D02*
X-02561Y00724D01*
X-02562Y00723D02*
D01*
X-02563Y00722D02*
X-02562Y00723D01*
X-02563Y00722D02*
D01*
X-02564Y00721D02*
X-02563Y00722D01*
X-02564Y00721D02*
X-02564Y00721D01*
X-02565Y00721D02*
X-02565Y00721D01*
X-02566Y00715D02*
X-02566Y00721D01*
X-02568Y00708D02*
X-02566Y00715D01*
X-02572Y00702D02*
X-02569Y00708D01*
X-02572Y00702D02*
X-02572Y00702D01*
X-02572Y00702D02*
X-02572Y00702D01*
X-02577Y00697D02*
X-02572Y00702D01*
X-02577Y00696D02*
X-02577Y00697D01*
X-02583Y00693D02*
X-02577Y00696D01*
X-02583Y00693D02*
X-02583D01*
X-0259Y0069D02*
X-02583Y00693D01*
X-02596Y0069D02*
X-0259Y0069D01*
X-02599Y00692D02*
Y00692D01*
Y00692D02*
Y00692D01*
X-02599Y00736D02*
X-02599Y00692D01*
X-02599Y00736D02*
Y00736D01*
Y00736D02*
Y00736D01*
X-02599Y00745D02*
X-02599Y00736D01*
X-02599Y00745D02*
Y00745D01*
X-02599Y0079D02*
X-02599Y00745D01*
X-02599Y0079D02*
Y0079D01*
Y0079D02*
Y0079D01*
Y0079D01*
X-026Y00797D02*
X-02599Y0079D01*
X-026Y00797D02*
D01*
X-026Y00892D02*
X-026Y00797D01*
X-02758Y00891D02*
X-026Y00892D01*
X-02758Y00891D02*
X-02758D01*
X-02761Y00914D02*
X-02761Y00893D01*
X-02761Y00933D02*
X-02761Y00914D01*
X-02777Y00933D02*
X-02761Y00933D01*
X-02796Y00931D02*
X-02777Y00933D01*
X-02815Y00926D02*
X-02796Y00931D01*
X-02831Y00917D02*
X-02815Y00926D01*
X-02831Y00917D02*
X-02831Y00832D01*
X-0283Y00824*
X-02827Y00817*
X-02823Y0081*
X-02818Y00805*
X-02811Y008*
X-02804Y00798*
X-02797Y00797*
X-02795Y00795D02*
Y00795D01*
Y00795D02*
D01*
Y00795*
X-02794Y00788*
Y00788*
Y00788D02*
X-02794Y00744D01*
Y00744D02*
X-02794Y00734D01*
Y00734*
Y00734D02*
Y00734D01*
X-02794Y00689*
Y00689D02*
X-02793Y00599D01*
X-02784Y00586*
X-02772Y00575*
X-02757Y00567*
X-02742Y00562*
X-02725Y0056*
X-0258Y00561*
D01*
X-02566Y00562D01*
X-02481Y00562*
X-02479Y0056D02*
X-02478Y00459D01*
X-02557Y00456D02*
X-02481Y00457D01*
X-02557Y00456D02*
X-02537Y00417D01*
X-02537Y00417D02*
Y00417D01*
Y00417D02*
Y00417D01*
X-02522Y00373*
X-02522Y00373D02*
Y00373D01*
Y00373D02*
X-02511Y00328D01*
G54D72*
X-02445Y0054D03*
X-02119Y00867D03*
X-02119Y00867D03*
X00563Y00186D03*
X00564Y00187D03*
D03*
X00564D03*
D03*
D03*
X0062Y00234D03*
D03*
D03*
D03*
D03*
Y00234D03*
D03*
D03*
X00634Y00307D03*
X0059Y0038D03*
X00552Y00397D03*
X00552Y00397D03*
D03*
X004Y00331D03*
X02447Y00531D03*
X02447Y00522D03*
X01985Y01073D03*
X-01983Y01073D03*
D03*
X-02562Y00723D03*
X-02599Y00736D03*
M02*