G04*
G04 #@! TF.GenerationSoftware,Altium Limited,Altium Designer,19.1.8 (144)*
G04*
G04 Layer_Color=65535*
%FSAX24Y24*%
%MOIN*%
G70*
G01*
G75*
%ADD10C,0.0100*%
D10*
X033934Y066666D02*
G03*
X033934Y066666I-000020J000000D01*
G01*
X033129Y061400D02*
X033085Y061646D01*
X033103Y061548D01*
X033054Y061539D01*
X033152Y061556D01*
X033103Y061548D01*
X033085Y061646D01*
X033126Y061704D01*
X033326Y061435D02*
X033424Y061452D01*
X033375Y061443D01*
X033340Y061640D01*
X033291Y061632D01*
X033537Y061675D02*
X033769Y061513D01*
X033653Y061594D01*
X033734Y061710D01*
X033572Y061478D01*
X034163Y061582D02*
X034261Y061600D01*
X034212Y061591D01*
X034160Y061886D01*
X034119Y061828D01*
X034409Y061626D02*
X034400Y061675D01*
X034449Y061684D01*
X034458Y061634D01*
X034409Y061626D01*
X034611Y061915D02*
X034652Y061973D01*
X034750Y061991D01*
X034808Y061950D01*
X034843Y061753D01*
X034802Y061695D01*
X034704Y061678D01*
X034646Y061718D01*
X034611Y061915D01*
X033132Y061096D02*
X033184Y060801D01*
X033331Y060827D01*
X033372Y060885D01*
X033337Y061081D01*
X033279Y061122D01*
X033132Y061096D01*
X033479Y060853D02*
X033427Y061148D01*
X033575Y061174D01*
X033633Y061134D01*
X033650Y061035D01*
X033609Y060977D01*
X033462Y060951D01*
X033560Y060969D02*
X033676Y060887D01*
X033748Y061052D02*
X033945Y061087D01*
X033830Y061168D02*
X033864Y060971D01*
X034070Y060957D02*
X034018Y061252D01*
X034165Y061278D01*
X034223Y061238D01*
X034241Y061139D01*
X034200Y061081D01*
X034052Y061055D01*
X034519Y061290D02*
X034461Y061330D01*
X034362Y061313D01*
X034322Y061255D01*
X034356Y061058D01*
X034414Y061018D01*
X034513Y061035D01*
X034553Y061093D01*
M02*
