G04*
G04 #@! TF.GenerationSoftware,Altium Limited,Altium Designer,19.1.8 (144)*
G04*
G04 Layer_Color=32768*
%FSAX24Y24*%
%MOIN*%
G70*
G01*
G75*
%ADD24C,0.0040*%
D24*
X033044Y062052D02*
X034769Y062344D01*
X034537Y060512D02*
X034591Y060508D01*
X034643Y060495D01*
X034692Y060472D01*
X034737Y060440D01*
X034774Y060401D01*
X034804Y060356D01*
X034816Y060331D01*
X034825Y060304D01*
X034836Y060251D01*
X034837Y060197D01*
X034828Y060143D02*
X034837Y060197D01*
X034809Y060092D02*
X034828Y060143D01*
X034781Y060046D02*
X034809Y060092D01*
X034746Y060005D02*
X034781Y060046D01*
X034703Y059971D02*
X034746Y060005D01*
X034655Y059946D02*
X034703Y059971D01*
X034603Y059930D02*
X034655Y059946D01*
X034549Y059924D02*
X034603Y059930D01*
X034495Y059928D02*
X034549Y059924D01*
X034443Y059941D02*
X034495Y059928D01*
X034393Y059964D02*
X034443Y059941D01*
X034349Y059996D02*
X034393Y059964D01*
X034312Y060035D02*
X034349Y059996D01*
X034282Y060080D02*
X034312Y060035D01*
X034270Y060106D02*
X034282Y060080D01*
X034260Y060132D02*
X034270Y060106D01*
X034250Y060185D02*
X034260Y060132D01*
X034249Y060240D02*
X034250Y060185D01*
X034249Y060240D02*
X034258Y060293D01*
X034277Y060344D01*
X034304Y060391D01*
X034340Y060431D01*
X034383Y060465D01*
X034431Y060490D01*
X034483Y060506D01*
X034537Y060512D01*
X033007Y062042D02*
X033044Y062052D01*
X032973Y062026D02*
X033007Y062042D01*
X032943Y062003D02*
X032973Y062026D01*
X032917Y061976D02*
X032943Y062003D01*
X032896Y061944D02*
X032917Y061976D01*
X032882Y061910D02*
X032896Y061944D01*
X032874Y061873D02*
X032882Y061910D01*
X032862Y061844D02*
X032874Y061873D01*
X032862Y061844D02*
X033058Y060714D01*
X033094Y060670D01*
X033120Y060643D01*
X033150Y060621D01*
X033184Y060604D01*
X033221Y060594D01*
X033256Y060591D01*
X033291Y060594D01*
X033679Y060660D01*
X033711Y060662D01*
X033743Y060659D01*
X033776Y060651D01*
X033806Y060636D01*
X033834Y060616D01*
X033857Y060591D01*
X033876Y060562D01*
X033889Y060531D01*
X033894Y060508D01*
X033960Y060120D01*
X033977Y060050D01*
X034020Y059946D01*
X034081Y059855D01*
X034159Y059777D01*
X034251Y059716D01*
X034352Y059675D01*
X034460Y059654D01*
X034534Y059651D01*
X034607Y059659D01*
X034667Y059669D01*
X034773Y059698D01*
X034872Y059747D01*
X034959Y059815D01*
X035031Y059898D01*
X035085Y059994D01*
X035120Y060098D01*
X035134Y060207D01*
X035126Y060316D02*
X035134Y060207D01*
X034783Y062346D02*
X035126Y060316D01*
M02*
