G04*
G04 #@! TF.GenerationSoftware,Altium Limited,Altium Designer,19.1.8 (144)*
G04*
G04 Layer_Color=128*
%FSAX24Y24*%
%MOIN*%
G70*
G01*
G75*
G04:AMPARAMS|DCode=19|XSize=55.1mil|YSize=78.7mil|CornerRadius=0mil|HoleSize=0mil|Usage=FLASHONLY|Rotation=125.000|XOffset=0mil|YOffset=0mil|HoleType=Round|Shape=Round|*
%AMOVALD19*
21,1,0.0236,0.0551,0.0000,0.0000,215.0*
1,1,0.0551,0.0097,0.0068*
1,1,0.0551,-0.0097,-0.0068*
%
%ADD19OVALD19*%

%ADD20P,0.0557X4X144.5*%
G36*
X033090Y060740D02*
X033483Y060806D01*
X033425Y061151D01*
X033032Y061085D01*
X033090Y060740D01*
D02*
G37*
G36*
X032966Y061480D02*
X033359Y061546D01*
X033301Y061891D01*
X032908Y061825D01*
X032966Y061480D01*
D02*
G37*
G36*
X034571Y060988D02*
X034963Y061054D01*
X034906Y061399D01*
X034513Y061333D01*
X034571Y060988D01*
D02*
G37*
G36*
X034466Y061731D02*
X034840Y061794D01*
X034782Y062139D01*
X034408Y062076D01*
X034466Y061731D01*
D02*
G37*
D19*
X034971Y064643D02*
D03*
X034609Y065159D02*
D03*
X034248Y065675D02*
D03*
X033887Y066191D02*
D03*
D20*
X033247Y060949D02*
D03*
X033123Y061691D02*
D03*
X034746Y061200D02*
D03*
X034622Y061942D02*
D03*
M02*
