G04*
G04 #@! TF.GenerationSoftware,Altium Limited,Altium Designer,19.1.8 (144)*
G04*
G04 Layer_Physical_Order=1*
G04 Layer_Color=255*
%FSAX24Y24*%
%MOIN*%
G70*
G01*
G75*
%ADD10C,0.0100*%
%ADD11C,0.0080*%
%ADD12C,0.0060*%
%ADD13C,0.0080*%
%ADD14C,0.0200*%
%ADD15C,0.0160*%
G36*
X034851Y063784D02*
D01*
D02*
G37*
G36*
X035002Y063619D02*
X035115Y063653D01*
X035148Y063584D01*
X035073Y063544D01*
X035002Y063619D01*
D02*
G37*
G36*
X035846Y064670D02*
D01*
D02*
G37*
D10*
X035300Y064018D02*
G03*
X035374Y063840I000252J000000D01*
G01*
X035432Y063698D02*
G03*
X035374Y063840I-000201J000000D01*
G01*
X034671Y062847D02*
G03*
X034805Y063170I-000323J000323D01*
G01*
X034469Y062645D02*
G03*
X034191Y061974I000671J-000671D01*
G01*
X035300Y064018D02*
Y064405D01*
X034696Y065179D02*
X035300Y064405D01*
X034191Y061935D02*
Y061974D01*
X035432Y063577D02*
Y063698D01*
X034469Y062645D02*
X034671Y062847D01*
X034805Y063170D02*
Y063241D01*
D11*
X035536Y064839D02*
G03*
X035382Y065220I-000548J000000D01*
G01*
X035430Y064405D02*
G03*
X035402Y064485I-000130J000000D01*
G01*
X035562Y063701D02*
G03*
X035554Y063771I-000331J-000003D01*
G01*
X035612Y063577D02*
G03*
X035562Y063701I-000180J000000D01*
G01*
X035517Y063418D02*
G03*
X035612Y063577I-000085J000159D01*
G01*
X035430Y064018D02*
G03*
X035465Y063932I000122J000000D01*
G01*
X035554Y063771D02*
G03*
X035465Y063932I-000323J-000073D01*
G01*
X035177Y063946D02*
G03*
X035282Y063748I000375J000072D01*
G01*
X035187Y063756D02*
G03*
X035138Y063888I-000201J000000D01*
G01*
X035170Y064018D02*
G03*
X035177Y063946I000382J000000D01*
G01*
X035138Y063888D02*
G03*
X035095Y063915I-000068J-000059D01*
G01*
X035301Y063711D02*
G03*
X035282Y063748I-000070J-000013D01*
G01*
X035136Y063622D02*
G03*
X035187Y063756I-000150J000134D01*
G01*
X035138Y063888D02*
G03*
X035094Y063915I-000068J-000059D01*
G01*
X036126Y062665D02*
G03*
X036237Y062769I000000J000112D01*
G01*
X034801Y062797D02*
G03*
X034931Y063101I-000453J000373D01*
G01*
X034902Y062594D02*
G03*
X034697Y062427I000009J-000219D01*
G01*
X034763Y062755D02*
G03*
X034801Y062797I-000415J000415D01*
G01*
X034697Y062427D02*
G03*
X034691Y062376I000213J-000051D01*
G01*
X034720Y063400D02*
G03*
X034671Y063120I000085J-000159D01*
G01*
X034612Y062977D02*
G03*
X034671Y063120I-000264J000193D01*
G01*
X034579Y062939D02*
G03*
X034612Y062977I-000231J000231D01*
G01*
X034377Y062737D02*
G03*
X034339Y062697I000763J-000763D01*
G01*
X034561Y062553D02*
G03*
X034525Y062515I000579J-000579D01*
G01*
D02*
G03*
X034324Y062042I000615J-000541D01*
G01*
X034284Y066564D02*
G03*
X034121Y066652I-000163J-000108D01*
G01*
X033941Y066652D02*
G03*
X033658Y066548I-000000J-000437D01*
G01*
D02*
G03*
X033632Y066523I000283J-000333D01*
G01*
X033880Y062819D02*
G03*
X033855Y062793I000454J-000454D01*
G01*
X033560Y066452D02*
G03*
X033535Y066425I000362J-000362D01*
G01*
D02*
G03*
X033411Y066122I000387J-000336D01*
G01*
X033855Y062793D02*
G03*
X033692Y062366I000479J-000427D01*
G01*
X034339Y062697D02*
G03*
X034063Y062047I000801J-000723D01*
G01*
X033685Y062184D02*
G03*
X033692Y062236I-000191J000052D01*
G01*
X033503Y062038D02*
G03*
X033685Y062184I-000009J000198D01*
G01*
X033080Y061977D02*
G03*
X032963Y061864I000000J-000117D01*
G01*
X033801Y060745D02*
G03*
X033750Y060751I-000051J-000226D01*
G01*
X033981Y060528D02*
G03*
X033801Y060745I-000231J-000009D01*
G01*
X033204Y060711D02*
G03*
X033230Y060692I000069J000069D01*
G01*
D02*
G03*
X033266Y060683I000042J000088D01*
G01*
X035521Y064736D02*
X035536Y064836D01*
X035507Y064641D02*
X035521Y064735D01*
X035494Y064553D02*
X035507Y064640D01*
X035493Y064453D02*
X035493Y064539D01*
X035493Y064451D02*
X035495Y064350D01*
X035430Y064280D02*
X035495Y064345D01*
X035496Y064338D02*
X035507Y064263D01*
X035430Y064414D02*
X035495Y064349D01*
X035430Y064018D02*
Y064405D01*
X035257Y064672D02*
X035527Y064942D01*
X035384Y064516D02*
X035507Y064639D01*
X034712Y066068D02*
X035375Y065228D01*
X035133Y064831D02*
X035444Y065143D01*
X035430Y064405D02*
Y064470D01*
X035363Y064535D02*
X035402Y064485D01*
X035365Y064535D02*
X035430Y064470D01*
X035582Y063966D02*
X035616Y063873D01*
X035549Y064073D02*
X035580Y063972D01*
X035617Y063871D02*
X035652Y063784D01*
X035562Y063701D02*
Y063763D01*
X035657Y063773D02*
X035711Y063676D01*
X035713Y063673D02*
X035792Y063541D01*
X035609Y063611D02*
X035698Y063699D01*
X035523Y064162D02*
X035549Y064073D01*
X035430Y064131D02*
X035576Y063985D01*
X035507Y064263D02*
X035520Y064174D01*
X035431Y063999D02*
X035539Y064106D01*
X035538Y063822D02*
X035609Y063893D01*
X035009Y064990D02*
X035319Y065300D01*
X034885Y065149D02*
X035194Y065458D01*
X034870Y065168D02*
X035363Y064535D01*
X034790Y065328D02*
X034870Y065248D01*
Y065168D02*
Y065248D01*
X035072Y063922D02*
X035170Y064020D01*
Y063953D02*
Y064018D01*
Y064360D01*
X034853Y063986D02*
X035170Y064303D01*
X034781Y065328D02*
X035069Y065616D01*
X034665Y065008D02*
X035170Y064360D01*
X034630Y065328D02*
X034790D01*
X034630Y065008D02*
X034665D01*
X034725Y064141D02*
X035071Y064487D01*
X034625Y064370D02*
X035074Y063921D01*
X034640Y064338D02*
X034947Y064646D01*
X034673Y064267D02*
X034780Y064007D01*
X035187Y063754D02*
X035236Y063803D01*
X035136Y063622D02*
X035301Y063711D01*
X035177Y063818D02*
X035290Y063705D01*
X034780Y064007D02*
X035094Y063915D01*
X034962Y063529D02*
X035013Y063580D01*
X035009D02*
X035056Y063580D01*
X034720Y063400D02*
X035058Y063580D01*
X034608Y063512D02*
X035009Y063580D01*
X034872Y063557D02*
X034922Y063508D01*
X034630Y063516D02*
X034737Y063409D01*
X035998Y063301D02*
X036161Y063165D01*
X035562Y063715D02*
X036172Y063106D01*
X036161Y063165D02*
X036237Y062769D01*
X035799Y063531D02*
X035927Y063370D01*
X035935Y063361D02*
X035994Y063305D01*
X035552Y063443D02*
X036236Y062759D01*
X036078Y062665D02*
X036228Y062816D01*
X035793Y062663D02*
X036182Y063052D01*
X036078Y062665D02*
X036228Y062816D01*
X035372Y063340D02*
X036047Y062665D01*
X035188Y063242D02*
X035767Y062663D01*
X035506Y062659D02*
X036080Y063233D01*
X034935Y063106D02*
X035517Y063418D01*
X034819Y062821D02*
X035301Y063302D01*
X034873Y062591D02*
X035805Y063524D01*
X035211Y062647D02*
X035930Y063366D01*
X035003Y063143D02*
X035488Y062658D01*
X034898Y062966D02*
X035216Y062648D01*
X036046Y062665D02*
X036126D01*
X036001D02*
X036046D01*
X036000Y062665D02*
X036045Y062665D01*
X035781Y062663D02*
X036000Y062665D01*
X035269Y062655D02*
X035780Y062663D01*
X035031Y060341D02*
X035040Y060256D01*
X035037Y060162D02*
X035040Y060256D01*
X035016Y060073D02*
X035037Y060162D01*
X035007Y062612D02*
X035255Y062654D01*
X034699Y062303D02*
X035031Y060341D01*
X034902Y062594D02*
X035007Y062612D01*
X034902Y060358D02*
X035010Y060465D01*
X034897Y060070D02*
X035038Y060211D01*
X034979Y059989D02*
X035016Y060073D01*
X034915Y060120D02*
X035000Y060036D01*
X034925Y059914D02*
X034979Y059989D01*
X034800Y062781D02*
X034974Y062607D01*
X034781Y060519D02*
X034969Y060707D01*
X034745Y060545D02*
X034789Y060513D01*
X034691Y062311D02*
Y062356D01*
X034693Y062341D02*
X034699Y062303D01*
X034658Y062640D02*
X034762Y062536D01*
X034578Y060600D02*
X034928Y060949D01*
X034681Y060576D02*
X034731Y060553D01*
X034691Y062376D02*
Y062421D01*
X034613Y060596D02*
X034666Y060582D01*
X034926Y060252D02*
X034927Y060198D01*
X034914Y060322D02*
X034924Y060269D01*
X034917Y060128D02*
X034926Y060182D01*
X034849Y060451D02*
X034879Y060405D01*
X034894Y060062D02*
X034912Y060112D01*
X034859Y060000D02*
X034887Y060046D01*
X034859Y059852D02*
X034925Y059914D01*
X034814Y059946D02*
X034849Y059986D01*
X034810Y059942D02*
X034880Y059872D01*
X034802Y060502D02*
X034839Y060464D01*
X034759Y059901D02*
X034801Y059934D01*
X034697Y059866D02*
X034745Y059892D01*
X034630Y059844D02*
X034681Y059860D01*
X034781Y059803D02*
X034859Y059852D01*
X034693Y059769D02*
X034781Y059803D01*
X034626Y059843D02*
X034698Y059771D01*
X034620Y059752D02*
X034693Y059769D01*
X034291Y066555D02*
X034712Y066068D01*
X034241Y065071D02*
X034944Y065774D01*
X034550Y065248D02*
X034630Y065328D01*
X034550Y065088D02*
Y065248D01*
Y065088D02*
X034630Y065008D01*
X034289Y064989D02*
X035170Y064108D01*
X034448Y064713D02*
X034700Y064964D01*
X034345Y064892D02*
X034550Y065097D01*
X034230Y065091D02*
X034529Y064574D01*
X034040Y066652D02*
X035042Y065650D01*
X033486Y066358D02*
X034573Y065271D01*
X034011Y065407D02*
X034694Y066089D01*
X033760Y065721D02*
X034431Y066392D01*
X033887Y065566D02*
X034562Y066241D01*
X033786Y066623D02*
X035535Y064874D01*
X033621Y066505D02*
X035504Y064622D01*
X033413Y066147D02*
X035062Y064498D01*
X034127Y065240D02*
X034819Y065932D01*
X034549Y064531D02*
X034823Y064805D01*
X034532Y064567D02*
X034671Y064272D01*
X034466Y063398D02*
X034625Y063239D01*
X034339Y062710D02*
X034606Y062977D01*
X034534Y062515D02*
X034801Y062782D01*
X034402Y062330D02*
X034754Y061978D01*
X034513Y062502D02*
X034691Y062324D01*
X033728Y062578D02*
X034674Y063523D01*
X034325Y063256D02*
X034605Y062976D01*
X033861Y062793D02*
X034577Y063509D01*
X034183Y063115D02*
X034463Y062835D01*
X033692Y062259D02*
X034630Y063197D01*
X034324Y062042D02*
X034691Y062410D01*
X034324Y062042D02*
X034351Y062015D01*
X033941Y066652D02*
X034119Y066652D01*
X033813Y065660D02*
X033999Y065424D01*
X034002Y065419D02*
X034225Y065098D01*
X034042Y062973D02*
X034329Y062686D01*
X033900Y062832D02*
X034210Y062522D01*
X033434Y066243D02*
X033827Y066636D01*
X033541Y066425D02*
X033658Y066542D01*
X033497Y066024D02*
X034125Y066651D01*
X033628Y065872D02*
X034300Y066544D01*
X033411Y066122D02*
X033565Y065945D01*
X033565Y065945D02*
X033810Y065664D01*
X033773Y062677D02*
X034121Y062329D01*
X033700Y062466D02*
X034068Y062099D01*
X033692Y062236D02*
Y062366D01*
Y062191D02*
Y062236D01*
X034351Y061855D02*
Y062015D01*
X034031D02*
X034063Y062047D01*
X034031Y061855D02*
Y062015D01*
X033185Y061984D02*
X033503Y062038D01*
X033147Y061978D02*
X033185Y061984D01*
X033080Y061977D02*
X033132D01*
X033177D01*
X032969Y061818D02*
X033127Y061977D01*
X034333Y062116D02*
X034811Y061638D01*
X034331Y061835D02*
X034869Y061298D01*
X034543Y060602D02*
X034597Y060598D01*
X034271Y061775D02*
X034351Y061855D01*
X034111Y061775D02*
X034271D01*
X033977Y060564D02*
X034846Y061433D01*
X034018Y060322D02*
X034887Y061191D01*
X034472Y060595D02*
X034526Y060602D01*
X034404Y060576D02*
X034456Y060592D01*
X033692Y062192D02*
X034926Y060957D01*
X033856Y060726D02*
X034805Y061675D01*
X033250Y060685D02*
X034723Y062159D01*
X033581Y060734D02*
X034764Y061917D01*
X033554Y062047D02*
X034984Y060617D01*
X033312Y062006D02*
X035037Y060281D01*
X033060Y061975D02*
X034446Y060589D01*
X033977Y060564D02*
X034846Y061433D01*
X034560Y059835D02*
X034613Y059841D01*
X034420Y059854D02*
X034473Y059841D01*
X034489Y059838D02*
X034543Y059834D01*
X034341Y060545D02*
X034389Y060570D01*
X034355Y059883D02*
X034404Y059860D01*
X034573Y059746D02*
X034691Y059864D01*
X034562Y059745D02*
X034620Y059752D01*
X034423Y059753D02*
X034500Y059743D01*
X034562Y059745D01*
X034284Y060502D02*
X034327Y060536D01*
X034297Y059923D02*
X034341Y059891D01*
X034237Y060450D02*
X034272Y060491D01*
X034247Y059973D02*
X034284Y059934D01*
X034050Y060136D02*
X034435Y059751D01*
X034334Y059780D02*
X034423Y059753D01*
X034328Y059783D02*
X034404Y059860D01*
X034253Y059823D02*
X034334Y059780D01*
X034031Y061855D02*
X034111Y061775D01*
X033130Y060848D02*
X034083Y061802D01*
X033695Y060751D02*
X033795D01*
X033129Y060851D02*
X033145Y060777D01*
X033650Y060751D02*
X033695D01*
X033145Y060777D02*
X033230Y060692D01*
X033643Y060744D02*
X033681Y060750D01*
X033048Y061332D02*
X034177Y062461D01*
X033089Y061090D02*
X034065Y062066D01*
X033007Y061574D02*
X033465Y062032D01*
X032963Y061864D02*
X032976Y061757D01*
X032973Y061779D02*
X034267Y060485D01*
X033029Y061440D02*
X033719Y060751D01*
X032976Y061757D02*
X033129Y060851D01*
X033087Y061100D02*
X033471Y060716D01*
X034199Y060390D02*
X034227Y060437D01*
X034174Y060324D02*
X034192Y060375D01*
X034161Y060167D02*
X034172Y060114D01*
X034160Y060255D02*
X034169Y060308D01*
X034159Y060238D02*
X034160Y060184D01*
X034165Y059903D02*
X034241Y059980D01*
X034182Y059881D02*
X034253Y059823D01*
X034207Y060031D02*
X034237Y059986D01*
X034124Y059952D02*
X034182Y059881D01*
X033266Y060683D02*
X033643Y060744D01*
X033990Y060480D02*
X034168Y060301D01*
X034063Y060085D02*
X034160Y060181D01*
X034080Y060036D02*
X034124Y059952D01*
X033981Y060528D02*
X034055Y060108D01*
X034080Y060036D01*
X035136Y063622D02*
X035136Y063622D01*
X033772Y066617D02*
X034117Y066648D01*
D12*
X035503Y064459D02*
G03*
X035465Y064369I000091J-000091D01*
G01*
X035494Y064450D02*
X035503Y064459D01*
X035465Y064277D02*
Y064369D01*
D13*
X035455Y064400D02*
D03*
D14*
X034805Y063241D02*
X035432Y063577D01*
D15*
X034808Y065765D02*
D03*
X033895Y066194D02*
D03*
X034324Y066499D02*
D03*
X033662Y066520D02*
D03*
X034710Y065168D02*
D03*
X033983Y060965D02*
D03*
X033757Y061321D02*
D03*
X034191Y061935D02*
D03*
X033562Y060982D02*
D03*
M02*
