solid
 facet normal  0.000000e+00  1.000000e+00 -0.000000e+00
   outer loop
     vertex  1.000000e+00  8.000000e-01  1.000000e-01
     vertex -1.000000e+00  8.000000e-01  1.000000e-01
     vertex -1.000000e+00  8.000000e-01  8.000000e-01
   endloop
 endfacet
 facet normal  0.000000e+00  1.000000e+00 -0.000000e+00
   outer loop
     vertex  1.000000e+00  8.000000e-01  1.000000e-01
     vertex -1.000000e+00  8.000000e-01  8.000000e-01
     vertex  1.000000e+00  8.000000e-01  8.000000e-01
   endloop
 endfacet
 facet normal  1.000000e+00  0.000000e+00  0.000000e+00
   outer loop
     vertex  1.000000e+00 -8.000000e-01  1.000000e-01
     vertex  1.000000e+00  8.000000e-01  1.000000e-01
     vertex  1.000000e+00  8.000000e-01  8.000000e-01
   endloop
 endfacet
 facet normal  1.000000e+00  0.000000e+00 -0.000000e+00
   outer loop
     vertex  1.000000e+00 -8.000000e-01  1.000000e-01
     vertex  1.000000e+00  8.000000e-01  8.000000e-01
     vertex  1.000000e+00 -8.000000e-01  8.000000e-01
   endloop
 endfacet
 facet normal  0.000000e+00 -1.000000e+00  0.000000e+00
   outer loop
     vertex -1.000000e+00 -8.000000e-01  1.000000e-01
     vertex  1.000000e+00 -8.000000e-01  1.000000e-01
     vertex  1.000000e+00 -8.000000e-01  8.000000e-01
   endloop
 endfacet
 facet normal  0.000000e+00 -1.000000e+00  0.000000e+00
   outer loop
     vertex -1.000000e+00 -8.000000e-01  1.000000e-01
     vertex  1.000000e+00 -8.000000e-01  8.000000e-01
     vertex -1.000000e+00 -8.000000e-01  8.000000e-01
   endloop
 endfacet
 facet normal -1.000000e+00  0.000000e+00  0.000000e+00
   outer loop
     vertex -1.000000e+00  8.000000e-01  1.000000e-01
     vertex -1.000000e+00 -8.000000e-01  1.000000e-01
     vertex -1.000000e+00 -8.000000e-01  8.000000e-01
   endloop
 endfacet
 facet normal -1.000000e+00  0.000000e+00  0.000000e+00
   outer loop
     vertex -1.000000e+00  8.000000e-01  1.000000e-01
     vertex -1.000000e+00 -8.000000e-01  8.000000e-01
     vertex -1.000000e+00  8.000000e-01  8.000000e-01
   endloop
 endfacet
 facet normal  0.000000e+00  0.000000e+00 -1.000000e+00
   outer loop
     vertex  1.000000e+00 -8.000000e-01  1.000000e-01
     vertex -1.000000e+00 -8.000000e-01  1.000000e-01
     vertex  1.000000e+00  8.000000e-01  1.000000e-01
   endloop
 endfacet
 facet normal  0.000000e+00  0.000000e+00 -1.000000e+00
   outer loop
     vertex -1.000000e+00 -8.000000e-01  1.000000e-01
     vertex -1.000000e+00  8.000000e-01  1.000000e-01
     vertex  1.000000e+00  8.000000e-01  1.000000e-01
   endloop
 endfacet
 facet normal -0.000000e+00  0.000000e+00  1.000000e+00
   outer loop
     vertex  1.000000e+00  8.000000e-01  8.000000e-01
     vertex -1.000000e+00 -8.000000e-01  8.000000e-01
     vertex  1.000000e+00 -8.000000e-01  8.000000e-01
   endloop
 endfacet
 facet normal  0.000000e+00  0.000000e+00  1.000000e+00
   outer loop
     vertex  1.000000e+00  8.000000e-01  8.000000e-01
     vertex -1.000000e+00  8.000000e-01  8.000000e-01
     vertex -1.000000e+00 -8.000000e-01  8.000000e-01
   endloop
 endfacet
 facet normal -1.000000e+00 -0.000000e+00 -0.000000e+00
   outer loop
     vertex -9.800000e-01 -2.200000e-01  1.000000e-01
     vertex -9.800000e-01 -2.200000e-01  0.000000e+00
     vertex -9.800000e-01 -7.800000e-01  1.000000e-01
   endloop
 endfacet
 facet normal -1.000000e+00  0.000000e+00  0.000000e+00
   outer loop
     vertex -9.800000e-01 -2.200000e-01  0.000000e+00
     vertex -9.800000e-01 -7.800000e-01  0.000000e+00
     vertex -9.800000e-01 -7.800000e-01  1.000000e-01
   endloop
 endfacet
 facet normal  1.000000e+00 -0.000000e+00  0.000000e+00
   outer loop
     vertex -3.700000e-01 -7.800000e-01  1.000000e-01
     vertex -3.700000e-01 -2.200000e-01  0.000000e+00
     vertex -3.700000e-01 -2.200000e-01  1.000000e-01
   endloop
 endfacet
 facet normal  1.000000e+00 -0.000000e+00  0.000000e+00
   outer loop
     vertex -3.700000e-01 -7.800000e-01  1.000000e-01
     vertex -3.700000e-01 -7.800000e-01  0.000000e+00
     vertex -3.700000e-01 -2.200000e-01  0.000000e+00
   endloop
 endfacet
 facet normal  0.000000e+00 -1.000000e+00  0.000000e+00
   outer loop
     vertex -9.800000e-01 -7.800000e-01  1.000000e-01
     vertex -9.800000e-01 -7.800000e-01  0.000000e+00
     vertex -3.700000e-01 -7.800000e-01  0.000000e+00
   endloop
 endfacet
 facet normal  0.000000e+00 -1.000000e+00  0.000000e+00
   outer loop
     vertex -9.800000e-01 -7.800000e-01  1.000000e-01
     vertex -3.700000e-01 -7.800000e-01  0.000000e+00
     vertex -3.700000e-01 -7.800000e-01  1.000000e-01
   endloop
 endfacet
 facet normal  0.000000e+00  1.000000e+00 -0.000000e+00
   outer loop
     vertex -3.700000e-01 -2.200000e-01  0.000000e+00
     vertex -9.800000e-01 -2.200000e-01  0.000000e+00
     vertex -9.800000e-01 -2.200000e-01  1.000000e-01
   endloop
 endfacet
 facet normal  0.000000e+00  1.000000e+00  0.000000e+00
   outer loop
     vertex -3.700000e-01 -2.200000e-01  1.000000e-01
     vertex -3.700000e-01 -2.200000e-01  0.000000e+00
     vertex -9.800000e-01 -2.200000e-01  1.000000e-01
   endloop
 endfacet
 facet normal  0.000000e+00  0.000000e+00 -1.000000e+00
   outer loop
     vertex -9.800000e-01 -7.800000e-01  0.000000e+00
     vertex -9.800000e-01 -2.200000e-01  0.000000e+00
     vertex -3.700000e-01 -7.800000e-01  0.000000e+00
   endloop
 endfacet
 facet normal  0.000000e+00  0.000000e+00 -1.000000e+00
   outer loop
     vertex -3.700000e-01 -7.800000e-01  0.000000e+00
     vertex -9.800000e-01 -2.200000e-01  0.000000e+00
     vertex -3.700000e-01 -2.200000e-01  0.000000e+00
   endloop
 endfacet
 facet normal  0.000000e+00  0.000000e+00  1.000000e+00
   outer loop
     vertex -3.700000e-01 -7.800000e-01  1.000000e-01
     vertex -9.800000e-01 -2.200000e-01  1.000000e-01
     vertex -9.800000e-01 -7.800000e-01  1.000000e-01
   endloop
 endfacet
 facet normal  0.000000e+00  0.000000e+00  1.000000e+00
   outer loop
     vertex -3.700000e-01 -2.200000e-01  1.000000e-01
     vertex -9.800000e-01 -2.200000e-01  1.000000e-01
     vertex -3.700000e-01 -7.800000e-01  1.000000e-01
   endloop
 endfacet
 facet normal -1.000000e+00 -0.000000e+00 -0.000000e+00
   outer loop
     vertex  3.700000e-01 -2.200000e-01  1.000000e-01
     vertex  3.700000e-01 -2.200000e-01  0.000000e+00
     vertex  3.700000e-01 -7.800000e-01  1.000000e-01
   endloop
 endfacet
 facet normal -1.000000e+00  0.000000e+00  0.000000e+00
   outer loop
     vertex  3.700000e-01 -2.200000e-01  0.000000e+00
     vertex  3.700000e-01 -7.800000e-01  0.000000e+00
     vertex  3.700000e-01 -7.800000e-01  1.000000e-01
   endloop
 endfacet
 facet normal  1.000000e+00 -0.000000e+00  0.000000e+00
   outer loop
     vertex  9.800000e-01 -7.800000e-01  1.000000e-01
     vertex  9.800000e-01 -2.200000e-01  0.000000e+00
     vertex  9.800000e-01 -2.200000e-01  1.000000e-01
   endloop
 endfacet
 facet normal  1.000000e+00 -0.000000e+00  0.000000e+00
   outer loop
     vertex  9.800000e-01 -7.800000e-01  1.000000e-01
     vertex  9.800000e-01 -7.800000e-01  0.000000e+00
     vertex  9.800000e-01 -2.200000e-01  0.000000e+00
   endloop
 endfacet
 facet normal  0.000000e+00 -1.000000e+00  0.000000e+00
   outer loop
     vertex  3.700000e-01 -7.800000e-01  1.000000e-01
     vertex  3.700000e-01 -7.800000e-01  0.000000e+00
     vertex  9.800000e-01 -7.800000e-01  0.000000e+00
   endloop
 endfacet
 facet normal  0.000000e+00 -1.000000e+00  0.000000e+00
   outer loop
     vertex  3.700000e-01 -7.800000e-01  1.000000e-01
     vertex  9.800000e-01 -7.800000e-01  0.000000e+00
     vertex  9.800000e-01 -7.800000e-01  1.000000e-01
   endloop
 endfacet
 facet normal  0.000000e+00  1.000000e+00 -0.000000e+00
   outer loop
     vertex  9.800000e-01 -2.200000e-01  0.000000e+00
     vertex  3.700000e-01 -2.200000e-01  0.000000e+00
     vertex  3.700000e-01 -2.200000e-01  1.000000e-01
   endloop
 endfacet
 facet normal  0.000000e+00  1.000000e+00  0.000000e+00
   outer loop
     vertex  9.800000e-01 -2.200000e-01  1.000000e-01
     vertex  9.800000e-01 -2.200000e-01  0.000000e+00
     vertex  3.700000e-01 -2.200000e-01  1.000000e-01
   endloop
 endfacet
 facet normal  0.000000e+00  0.000000e+00 -1.000000e+00
   outer loop
     vertex  3.700000e-01 -7.800000e-01  0.000000e+00
     vertex  3.700000e-01 -2.200000e-01  0.000000e+00
     vertex  9.800000e-01 -7.800000e-01  0.000000e+00
   endloop
 endfacet
 facet normal  0.000000e+00  0.000000e+00 -1.000000e+00
   outer loop
     vertex  9.800000e-01 -7.800000e-01  0.000000e+00
     vertex  3.700000e-01 -2.200000e-01  0.000000e+00
     vertex  9.800000e-01 -2.200000e-01  0.000000e+00
   endloop
 endfacet
 facet normal  0.000000e+00  0.000000e+00  1.000000e+00
   outer loop
     vertex  9.800000e-01 -7.800000e-01  1.000000e-01
     vertex  3.700000e-01 -2.200000e-01  1.000000e-01
     vertex  3.700000e-01 -7.800000e-01  1.000000e-01
   endloop
 endfacet
 facet normal  0.000000e+00  0.000000e+00  1.000000e+00
   outer loop
     vertex  9.800000e-01 -2.200000e-01  1.000000e-01
     vertex  3.700000e-01 -2.200000e-01  1.000000e-01
     vertex  9.800000e-01 -7.800000e-01  1.000000e-01
   endloop
 endfacet
 facet normal -1.000000e+00 -0.000000e+00 -0.000000e+00
   outer loop
     vertex  3.700000e-01  7.800000e-01  1.000000e-01
     vertex  3.700000e-01  7.800000e-01  0.000000e+00
     vertex  3.700000e-01  2.200000e-01  1.000000e-01
   endloop
 endfacet
 facet normal -1.000000e+00  0.000000e+00  0.000000e+00
   outer loop
     vertex  3.700000e-01  7.800000e-01  0.000000e+00
     vertex  3.700000e-01  2.200000e-01  0.000000e+00
     vertex  3.700000e-01  2.200000e-01  1.000000e-01
   endloop
 endfacet
 facet normal  1.000000e+00 -0.000000e+00  0.000000e+00
   outer loop
     vertex  9.800000e-01  2.200000e-01  1.000000e-01
     vertex  9.800000e-01  7.800000e-01  0.000000e+00
     vertex  9.800000e-01  7.800000e-01  1.000000e-01
   endloop
 endfacet
 facet normal  1.000000e+00 -0.000000e+00  0.000000e+00
   outer loop
     vertex  9.800000e-01  2.200000e-01  1.000000e-01
     vertex  9.800000e-01  2.200000e-01  0.000000e+00
     vertex  9.800000e-01  7.800000e-01  0.000000e+00
   endloop
 endfacet
 facet normal  0.000000e+00 -1.000000e+00  0.000000e+00
   outer loop
     vertex  3.700000e-01  2.200000e-01  1.000000e-01
     vertex  3.700000e-01  2.200000e-01  0.000000e+00
     vertex  9.800000e-01  2.200000e-01  0.000000e+00
   endloop
 endfacet
 facet normal  0.000000e+00 -1.000000e+00  0.000000e+00
   outer loop
     vertex  3.700000e-01  2.200000e-01  1.000000e-01
     vertex  9.800000e-01  2.200000e-01  0.000000e+00
     vertex  9.800000e-01  2.200000e-01  1.000000e-01
   endloop
 endfacet
 facet normal  0.000000e+00  1.000000e+00 -0.000000e+00
   outer loop
     vertex  9.800000e-01  7.800000e-01  0.000000e+00
     vertex  3.700000e-01  7.800000e-01  0.000000e+00
     vertex  3.700000e-01  7.800000e-01  1.000000e-01
   endloop
 endfacet
 facet normal  0.000000e+00  1.000000e+00  0.000000e+00
   outer loop
     vertex  9.800000e-01  7.800000e-01  1.000000e-01
     vertex  9.800000e-01  7.800000e-01  0.000000e+00
     vertex  3.700000e-01  7.800000e-01  1.000000e-01
   endloop
 endfacet
 facet normal  0.000000e+00  0.000000e+00 -1.000000e+00
   outer loop
     vertex  3.700000e-01  2.200000e-01  0.000000e+00
     vertex  3.700000e-01  7.800000e-01  0.000000e+00
     vertex  9.800000e-01  2.200000e-01  0.000000e+00
   endloop
 endfacet
 facet normal  0.000000e+00  0.000000e+00 -1.000000e+00
   outer loop
     vertex  9.800000e-01  2.200000e-01  0.000000e+00
     vertex  3.700000e-01  7.800000e-01  0.000000e+00
     vertex  9.800000e-01  7.800000e-01  0.000000e+00
   endloop
 endfacet
 facet normal  0.000000e+00  0.000000e+00  1.000000e+00
   outer loop
     vertex  9.800000e-01  2.200000e-01  1.000000e-01
     vertex  3.700000e-01  7.800000e-01  1.000000e-01
     vertex  3.700000e-01  2.200000e-01  1.000000e-01
   endloop
 endfacet
 facet normal  0.000000e+00  0.000000e+00  1.000000e+00
   outer loop
     vertex  9.800000e-01  7.800000e-01  1.000000e-01
     vertex  3.700000e-01  7.800000e-01  1.000000e-01
     vertex  9.800000e-01  2.200000e-01  1.000000e-01
   endloop
 endfacet
 facet normal -1.000000e+00 -0.000000e+00 -0.000000e+00
   outer loop
     vertex -9.800000e-01  7.800000e-01  1.000000e-01
     vertex -9.800000e-01  7.800000e-01  0.000000e+00
     vertex -9.800000e-01  2.200000e-01  1.000000e-01
   endloop
 endfacet
 facet normal -1.000000e+00  0.000000e+00  0.000000e+00
   outer loop
     vertex -9.800000e-01  7.800000e-01  0.000000e+00
     vertex -9.800000e-01  2.200000e-01  0.000000e+00
     vertex -9.800000e-01  2.200000e-01  1.000000e-01
   endloop
 endfacet
 facet normal  1.000000e+00 -0.000000e+00  0.000000e+00
   outer loop
     vertex -3.700000e-01  2.200000e-01  1.000000e-01
     vertex -3.700000e-01  7.800000e-01  0.000000e+00
     vertex -3.700000e-01  7.800000e-01  1.000000e-01
   endloop
 endfacet
 facet normal  1.000000e+00 -0.000000e+00  0.000000e+00
   outer loop
     vertex -3.700000e-01  2.200000e-01  1.000000e-01
     vertex -3.700000e-01  2.200000e-01  0.000000e+00
     vertex -3.700000e-01  7.800000e-01  0.000000e+00
   endloop
 endfacet
 facet normal  0.000000e+00 -1.000000e+00  0.000000e+00
   outer loop
     vertex -9.800000e-01  2.200000e-01  1.000000e-01
     vertex -9.800000e-01  2.200000e-01  0.000000e+00
     vertex -3.700000e-01  2.200000e-01  0.000000e+00
   endloop
 endfacet
 facet normal  0.000000e+00 -1.000000e+00  0.000000e+00
   outer loop
     vertex -9.800000e-01  2.200000e-01  1.000000e-01
     vertex -3.700000e-01  2.200000e-01  0.000000e+00
     vertex -3.700000e-01  2.200000e-01  1.000000e-01
   endloop
 endfacet
 facet normal  0.000000e+00  1.000000e+00 -0.000000e+00
   outer loop
     vertex -3.700000e-01  7.800000e-01  0.000000e+00
     vertex -9.800000e-01  7.800000e-01  0.000000e+00
     vertex -9.800000e-01  7.800000e-01  1.000000e-01
   endloop
 endfacet
 facet normal  0.000000e+00  1.000000e+00  0.000000e+00
   outer loop
     vertex -3.700000e-01  7.800000e-01  1.000000e-01
     vertex -3.700000e-01  7.800000e-01  0.000000e+00
     vertex -9.800000e-01  7.800000e-01  1.000000e-01
   endloop
 endfacet
 facet normal  0.000000e+00  0.000000e+00 -1.000000e+00
   outer loop
     vertex -9.800000e-01  2.200000e-01  0.000000e+00
     vertex -9.800000e-01  7.800000e-01  0.000000e+00
     vertex -3.700000e-01  2.200000e-01  0.000000e+00
   endloop
 endfacet
 facet normal  0.000000e+00  0.000000e+00 -1.000000e+00
   outer loop
     vertex -3.700000e-01  2.200000e-01  0.000000e+00
     vertex -9.800000e-01  7.800000e-01  0.000000e+00
     vertex -3.700000e-01  7.800000e-01  0.000000e+00
   endloop
 endfacet
 facet normal  0.000000e+00  0.000000e+00  1.000000e+00
   outer loop
     vertex -3.700000e-01  2.200000e-01  1.000000e-01
     vertex -9.800000e-01  7.800000e-01  1.000000e-01
     vertex -9.800000e-01  2.200000e-01  1.000000e-01
   endloop
 endfacet
 facet normal  0.000000e+00  0.000000e+00  1.000000e+00
   outer loop
     vertex -3.700000e-01  7.800000e-01  1.000000e-01
     vertex -9.800000e-01  7.800000e-01  1.000000e-01
     vertex -3.700000e-01  2.200000e-01  1.000000e-01
   endloop
 endfacet
endsolid
