%FSTAX23Y23*%
%MOIN*%
%SFA1B1*%

%IPPOS*%
%AMD51*
4,1,4,-0.006100,-0.029300,0.025400,0.015800,0.006100,0.029300,-0.025400,-0.015800,-0.006100,-0.029300,0.0*
1,1,0.055120,0.009700,-0.006800*
1,1,0.055120,-0.009700,0.006800*
%
%AMD52*
4,1,4,-0.025400,0.015800,0.006100,-0.029300,0.025400,-0.015800,-0.006100,0.029300,-0.025400,0.015800,0.0*
1,1,0.055120,-0.009700,-0.006800*
1,1,0.055120,0.009700,0.006800*
%
%AMD65*
4,1,4,-0.016100,-0.022600,0.022600,-0.016100,0.016100,0.022600,-0.022600,0.016100,-0.016100,-0.022600,0.0*
%
%ADD11C,0.010000*%
%ADD13C,0.006000*%
%ADD14C,0.008000*%
%ADD32C,0.018000*%
%ADD46C,0.014000*%
%ADD47C,0.020000*%
%ADD48C,0.004000*%
%ADD50C,0.047240*%
G04~CAMADD=51~3~0.0~0.0~551.2~787.4~0.0~0.0~0~0.0~0.0~0.0~0.0~0~0.0~0.0~0.0~0.0~0~0.0~0.0~0.0~235.0~740.0~682.0*
%ADD51D51*%
G04~CAMADD=52~3~0.0~0.0~551.2~787.4~0.0~0.0~0~0.0~0.0~0.0~0.0~0~0.0~0.0~0.0~0.0~0~0.0~0.0~0.0~125.0~740.0~682.0*
%ADD52D52*%
%ADD53C,0.016000*%
%ADD54C,0.008000*%
%ADD55C,0.024000*%
%ADD56C,0.020000*%
%ADD57C,0.012000*%
%ADD58C,0.013000*%
%ADD59C,0.016000*%
%ADD61C,0.025000*%
%ADD62C,0.018000*%
%ADD63R,0.017720X0.017720*%
%ADD64R,0.015750X0.017720*%
G04~CAMADD=65~10~0.0~393.7~0.0~0.0~0.0~0.0~0~0.0~0.0~0.0~0.0~0~0.0~0.0~0.0~0.0~0~0.0~0.0~0.0~189.5~393.7~0.0*
%ADD65D65*%
%ADD66R,0.068900X0.070870*%
%LNfront_flex-1*%
%LPD*%
G36*
X-02641Y00862D02*
X-02641Y00862D01*
X-02641Y00863*
X-02642Y00864*
X-02642Y00864*
X-02643Y00865*
X-02644Y00865*
X-02645Y00865*
X-02646Y00866*
X-02647Y00865*
X-02648Y00865*
X-02649Y00865*
X-0265Y00864*
X-0265Y00864*
X-02651Y00863*
X-02651Y00862*
X-02651Y00862*
Y00878*
X-02651Y00877*
X-02651Y00876*
X-0265Y00876*
X-0265Y00875*
X-02649Y00875*
X-02648Y00874*
X-02647Y00874*
X-02646Y00874*
X-02645Y00874*
X-02644Y00874*
X-02643Y00875*
X-02642Y00875*
X-02642Y00876*
X-02641Y00876*
X-02641Y00877*
X-02641Y00878*
Y00862*
G37*
G36*
X-02667D02*
X-02667Y00862D01*
X-02667Y00863*
X-02667Y00864*
X-02668Y00864*
X-02669Y00865*
X-02669Y00865*
X-02671Y00865*
X-02672Y00866*
X-02673Y00865*
X-02674Y00865*
X-02675Y00865*
X-02675Y00864*
X-02676Y00864*
X-02676Y00863*
X-02677Y00862*
X-02677Y00862*
Y00878*
X-02677Y00877*
X-02676Y00876*
X-02676Y00876*
X-02675Y00875*
X-02675Y00875*
X-02674Y00874*
X-02673Y00874*
X-02672Y00874*
X-02671Y00874*
X-02669Y00874*
X-02669Y00875*
X-02668Y00875*
X-02667Y00876*
X-02667Y00876*
X-02667Y00877*
X-02667Y00878*
Y00862*
G37*
G36*
X-02629Y00828D02*
X-02629Y00828D01*
X-0263Y00827*
X-0263Y00827*
X-0263Y00826*
X-0263Y00826*
X-02631Y00825*
X-02631Y00824*
X-02631Y00823*
X-02631Y00822*
X-02637*
X-02637Y00823*
X-02637Y00824*
X-02637Y00825*
X-02637Y00826*
X-02637Y00826*
X-02638Y00827*
X-02638Y00827*
X-02638Y00828*
X-02639Y00828*
X-02639Y00828*
X-02628*
X-02629Y00828*
G37*
G36*
X-02685D02*
X-02686Y00828D01*
X-02686Y00827*
X-02687Y00827*
X-02687Y00826*
X-02688Y00826*
X-02689Y00825*
X-02689Y00824*
X-0269Y00822*
X-02696Y00825*
X-02694Y00828*
X-02685Y00828*
X-02685Y00828*
G37*
G36*
X-02657Y00828D02*
X-02658Y00828D01*
X-02658Y00827*
X-02659Y00827*
X-02659Y00826*
X-02659Y00826*
X-02659Y00825*
X-02659Y00824*
X-0266Y00823*
X-0266Y00822*
X-02666*
X-02666Y00823*
X-02666Y00826*
X-02666Y00827*
X-02666Y00827*
X-02666Y00827*
X-02666Y00828*
X-02667Y00828*
X-02657Y00828*
X-02657Y00828*
G37*
G36*
X-01267Y00798D02*
X-01267Y00798D01*
X-01267Y00798*
X-01268Y00797*
X-01268Y00797*
X-01268Y00796*
X-01268Y00795*
X-01268Y00794*
X-01268Y00793*
X-01274*
X-01274Y00794*
X-01274Y00795*
X-01274Y00796*
X-01274Y00796*
X-01274Y00797*
X-01275Y00797*
X-01275Y00797*
X-01275Y00797*
X-01275Y00797*
X-01267Y00798*
X-01267Y00798*
G37*
G36*
X-00446Y00761D02*
X-00447Y00761D01*
X-00447Y00762*
X-00447Y00762*
X-00448Y00763*
X-00448Y00763*
X-00449Y00763*
X-00449Y00763*
X-0045Y00764*
X-00451Y00764*
X-00452Y00764*
X-00449Y0077*
X-00448Y0077*
X-00447Y0077*
X-00446Y0077*
X-00444Y0077*
X-00444Y0077*
X-00443Y00771*
X-00442Y00771*
X-00446Y00761*
G37*
G36*
X-01172Y00763D02*
X-01173Y00763D01*
X-01173Y00763*
X-01174Y00763*
X-01175Y00763*
X-01175Y00763*
X-01176Y00762*
X-01177Y00762*
X-01177Y00761*
X-01178Y00761*
X-01178Y0076*
X-01183Y00765*
X-01182Y00765*
X-01182Y00766*
X-01181Y00766*
X-01181Y00767*
X-0118Y00768*
X-0118Y00768*
X-0118Y00769*
X-0118Y0077*
X-0118Y0077*
X-0118Y00771*
X-01172Y00763*
G37*
G36*
X-01149Y00759D02*
X-01149Y00759D01*
X-01149Y00759*
X-01149Y00759*
X-01149Y00758*
X-01149Y00758*
X-0115Y00758*
X-0115Y00757*
X-0115Y00756*
X-0115Y00756*
X-01156*
X-01156Y00756*
X-01156Y0076*
X-01156Y0076*
X-01156Y0076*
X-01156Y0076*
X-01149Y00759*
G37*
G36*
X-01129Y00749D02*
X-0113Y00749D01*
X-01131Y00749*
X-01132Y00749*
X-01132Y00749*
X-01133Y00748*
X-01133Y00748*
X-01134Y00748*
X-01135Y00747*
X-01135Y00747*
X-01136Y00746*
X-0114Y00751*
X-0114Y00751*
X-01139Y00752*
X-01139Y00752*
X-01138Y00753*
X-01138Y00754*
X-01138Y00754*
X-01138Y00755*
X-01137Y00756*
X-01137Y00756*
X-01137Y00757*
X-01129Y00749*
G37*
G36*
X-02464Y00741D02*
X-02464Y00741D01*
X-02465Y0074*
X-02465Y00739*
X-02465Y00739*
X-02465Y00739*
X-02465Y00738*
X-02465Y00738*
X-02465Y00738*
X-02464Y00738*
X-02465Y00732*
X-02467Y00732*
X-02468Y00732*
X-02468Y00731*
X-02469Y00731*
X-0247Y0073*
X-0247Y0073*
X-02471Y00729*
X-02471Y00728*
X-02471Y00727*
X-02471Y00726*
X-02474Y00735*
X-02463Y00742*
X-02464Y00741*
G37*
G36*
X-0277Y00687D02*
X-02769Y00686D01*
X-02769Y00686*
X-02769Y00685*
X-02769Y00684*
X-02769Y00684*
X-02768Y00683*
X-02768Y00683*
X-02767Y00682*
X-02767Y00682*
X-02778*
X-02778Y00682*
X-02777Y00683*
X-02777Y00683*
X-02777Y00684*
X-02776Y00684*
X-02776Y00685*
X-02776Y00686*
X-02776Y00686*
X-02776Y00687*
X-02776Y00688*
X-0277*
X-0277Y00687*
G37*
G36*
X-02741Y0069D02*
X-0274Y00689D01*
X-0274Y00688*
X-0274Y00688*
X-0274Y00687*
X-0274Y00687*
X-02739Y00686*
X-02739Y00686*
X-02738Y00686*
X-02738Y00685*
X-02747Y0068*
X-02747Y00681*
X-02747Y00681*
X-02747Y00682*
X-02747Y00683*
X-02747Y00685*
X-02747Y00686*
X-02741Y0069*
X-02741Y0069*
G37*
G36*
X-02619Y00669D02*
X-0262Y00669D01*
X-02622Y0067*
X-02623Y00671*
X-02624Y00671*
X-02625Y00672*
X-02626Y00672*
X-02626Y00672*
X-02627Y00672*
X-02628Y00676*
X-02627Y00676*
X-02626Y00676*
X-02626Y00676*
X-02625Y00676*
X-02624Y00677*
X-02624Y00677*
X-02623Y00678*
X-02623Y00678*
X-02622Y00679*
X-02621Y0068*
X-02619Y00669*
G37*
G36*
X-02575Y00661D02*
X-02576Y00661D01*
X-02577Y00661*
X-02578Y00661*
X-02579Y00661*
X-02579Y00661*
X-0258Y00661*
X-02581Y00661*
X-02581Y0066*
X-02582Y0066*
X-02582Y00659*
X-02585Y00662*
X-02585Y00663*
X-02584Y00663*
X-02584Y00664*
X-02583Y00665*
X-02583Y00666*
X-02582Y00666*
X-02582Y00668*
X-02582Y00669*
X-02581Y0067*
X-02575Y00661*
G37*
G36*
X-02758Y00664D02*
X-02759Y00664D01*
X-02759Y00664*
X-02759Y00664*
X-0276Y00663*
X-02762Y00661*
X-02765Y00663*
X-02762Y00667*
X-02758Y00664*
G37*
G36*
X-027Y00656D02*
X-027Y00657D01*
X-027Y00657*
X-027Y00657*
X-02699Y00656*
X-02699Y00656*
X-02699Y00656*
X-02699Y00656*
Y00656*
X-02697Y00654*
X-027Y00651*
X-027Y00651*
X-027Y00651*
X-02701Y00651*
X-02701Y00652*
X-02702Y00652*
X-02702Y00652*
X-02702Y00653*
X-02702Y00653*
X-02703Y00653*
X-02703Y00653*
X-02703Y00653*
X-02703Y00653*
X-02704Y00653*
X-02703Y00654*
X-02704Y00654*
X-02701Y00657*
X-027Y00656*
G37*
G36*
X-02723Y00652D02*
X-02723Y00651D01*
X-02723Y00651*
X-02723Y00651*
X-02723Y00651*
X-02722Y0065*
X-02722Y0065*
X-02722Y0065*
X-02722Y0065*
X-02728*
X-02727Y0065*
X-02727Y0065*
X-02727Y0065*
X-02727Y00651*
X-02727Y00651*
X-02727Y00651*
X-02727Y00651*
X-02727Y00652*
X-02727Y00653*
X-02723*
X-02723Y00652*
G37*
G36*
X-0275Y00651D02*
X-02751Y00651D01*
X-02751Y0065*
X-02751Y0065*
X-02752Y00649*
X-02752Y00648*
X-02752Y00647*
X-02752Y00647*
X-02753Y00646*
X-02753Y00645*
X-02753Y00644*
X-02761Y00652*
X-0276Y00652*
X-02758Y00652*
X-02757Y00652*
X-02756Y00652*
X-02755Y00653*
X-02755Y00653*
X-02754Y00653*
X-02754Y00654*
X-02753Y00654*
X-0275Y00651*
G37*
G36*
X-02684Y00642D02*
X-02684Y00642D01*
X-02684Y00642*
X-02684Y00642*
X-02683Y00641*
X-02683Y00641*
X-02682Y0064*
X-02684Y00636*
X-02684Y00637*
X-02685Y00637*
X-02685Y00637*
X-02685Y00637*
X-02685Y00637*
X-02686Y00637*
X-02686Y00638*
X-02686Y00638*
X-02686Y00638*
X-02687Y00637*
X-02684Y00642*
X-02684Y00642*
G37*
G36*
X-02554Y00627D02*
X-02555Y00628D01*
X-02555Y00628*
X-02556Y00628*
X-02557Y00629*
X-02557Y00629*
X-02558Y00629*
X-02559Y00629*
X-02559Y0063*
X-0256Y0063*
X-02561Y0063*
Y00636*
X-0256Y00636*
X-02559Y00636*
X-02559Y00636*
X-02558Y00636*
X-02557Y00636*
X-02557Y00637*
X-02556Y00637*
X-02555Y00637*
X-02555Y00638*
X-02554Y00638*
Y00627*
G37*
G36*
X-01131Y00634D02*
X-01138Y00626D01*
X-01138Y00627*
X-01138Y00627*
X-01138Y00628*
X-01138Y00628*
X-01139Y00628*
X-01139Y00629*
X-0114Y00629*
X-0114Y00629*
X-01141Y00629*
X-01142Y00629*
X-0114Y00635*
X-01131Y00634*
G37*
G36*
X-02726Y00622D02*
X-02726Y00622D01*
X-02727Y00622*
X-02727Y00622*
X-02727Y00622*
X-02727Y00622*
X-02728Y00622*
X-02728Y00621*
X-02728Y00621*
X-02729Y00621*
X-02729Y00621*
X-0273Y00625*
X-0273Y00625*
X-02729Y00627*
X-02729Y00627*
X-02729Y00627*
X-02729Y00627*
X-02726Y00622*
G37*
G36*
X-0244Y0062D02*
X-0244Y0062D01*
X-02439Y0062*
X-02437Y0062*
X-02435*
Y00614*
X-02436Y00614*
X-02437Y00614*
X-02438Y00613*
X-02438Y00613*
X-02438Y00613*
X-02438Y00613*
X-02438Y00613*
X-0244Y0062*
X-0244Y0062*
G37*
G36*
X-02453Y00624D02*
X-02453Y00624D01*
X-02452Y00623*
X-02452Y00623*
X-02451Y00623*
X-0245Y00622*
X-0245Y00622*
X-02449Y00622*
X-02448Y00622*
X-02448Y00622*
X-02454Y00613*
X-02454Y00614*
X-02454Y00614*
X-02454Y00615*
X-02455Y00616*
X-02455Y00616*
X-02455Y00617*
X-02456Y00618*
X-02456Y00618*
X-02457Y00619*
X-02457Y00619*
X-02454Y00625*
X-02453Y00624*
G37*
G36*
X-02769Y00622D02*
X-02768Y00621D01*
X-02767Y00621*
X-02767Y00621*
X-02766Y0062*
X-02765Y0062*
X-02764Y0062*
X-02764Y0062*
X-02763Y0062*
X-02762Y0062*
X-0277Y00612*
X-0277Y00613*
X-0277Y00615*
X-0277Y00615*
X-0277Y00616*
X-0277Y00617*
X-02771Y00618*
X-02771Y00618*
X-02771Y00619*
X-02772Y00619*
X-02769Y00622*
X-02769Y00622*
G37*
G36*
X-02714Y00613D02*
X-02714Y00612D01*
X-02715Y00612*
X-02715Y00611*
X-02715Y00611*
X-02715Y00611*
X-02715Y00611*
X-02715Y0061*
X-02715Y0061*
X-02715Y0061*
X-02719Y00614*
X-02719Y00614*
X-02719Y00614*
X-02719Y00614*
X-02718Y00614*
X-02718Y00614*
X-02718Y00614*
X-02718Y00615*
X-02717Y00615*
X-02717Y00615*
X-02714Y00613*
G37*
G36*
X-02656Y00616D02*
X-02655Y00615D01*
X-02654Y00615*
X-02654Y00615*
X-02653Y00614*
X-02652Y00614*
X-02651Y00614*
X-02651Y00614*
X-0265Y00614*
X-02649Y00614*
X-02657Y00606*
X-02657Y00607*
X-02657Y00609*
X-02657Y00609*
X-02657Y0061*
X-02657Y00611*
X-02658Y00612*
X-02658Y00612*
X-02658Y00613*
X-02659Y00613*
X-02656Y00616*
X-02656Y00616*
G37*
G36*
X-01156Y00616D02*
X-01156Y00616D01*
X-01155Y00615*
X-01155Y00615*
X-01154Y00615*
X-01153Y00615*
X-01153Y00614*
X-01152Y00614*
X-01152Y00615*
X-01151Y00615*
X-01157Y00605*
X-01157Y00606*
X-01157Y00606*
X-01157Y00607*
X-01158Y00608*
X-01158Y00608*
X-01158Y00609*
X-01159Y0061*
X-01159Y0061*
X-0116Y00611*
X-0116Y00611*
X-01157Y00617*
X-01156Y00616*
G37*
G36*
X-01178Y0061D02*
X-01177Y00609D01*
X-01176Y00609*
X-01176Y00608*
X-01176Y00608*
X-01176Y00608*
X-01176Y00608*
X-0118Y00603*
X-0118Y00603*
X-0118Y00603*
X-0118Y00603*
X-0118Y00604*
X-01183Y00606*
X-01178Y0061*
X-01178Y0061*
G37*
G36*
X-02603Y00596D02*
X-02604Y00597D01*
X-02605Y00598*
X-02606Y00599*
X-02607Y00599*
X-02608Y00599*
X-02608Y006*
X-02609Y006*
X-0261Y006*
X-0261Y006*
Y00604*
X-0261Y00604*
X-02609Y00604*
X-02608Y00604*
X-02608Y00605*
X-02607Y00605*
X-02606Y00605*
X-02605Y00606*
X-02605Y00606*
X-02604Y00607*
X-02603Y00608*
Y00596*
G37*
G36*
X-01197Y00587D02*
X-01197Y00587D01*
X-01198Y00588*
X-01199Y00588*
X-01199Y00588*
X-012Y00589*
X-012Y00589*
X-01201Y00589*
X-01202Y00589*
X-01203Y00589*
X-01203Y00589*
X-01204Y00595*
X-01203Y00595*
X-01202Y00595*
X-01202Y00596*
X-01201Y00596*
X-012Y00596*
X-012Y00596*
X-01199Y00597*
X-01199Y00597*
X-01198Y00598*
X-01198Y00598*
X-01197Y00587*
G37*
G36*
X-02625Y00581D02*
X-02626Y00581D01*
X-02626Y00581*
X-02626Y0058*
X-02627Y0058*
X-02629Y00577*
X-02632Y0058*
X-02629Y00584*
X-02625Y00581*
G37*
G36*
X-02621Y0057D02*
X-02622Y0057D01*
X-02622Y0057*
X-02622Y00569*
X-02623Y00569*
X-02625Y00566*
X-02628Y00569*
X-02625Y00573*
X-02621Y0057*
G37*
G36*
X-0246Y00404D02*
X-0246Y00403D01*
X-0246Y00403*
X-0246Y00402*
X-0246Y00401*
X-02459Y00401*
X-02459Y004*
X-02458Y004*
X-02458Y004*
X-02457Y00399*
X-02468Y00396*
X-02468Y00396*
X-02467Y00398*
X-02467Y00398*
X-02467Y004*
X-02467Y004*
X-02466Y00402*
X-02466Y00403*
X-0246Y00405*
X-0246Y00404*
G37*
G36*
X-02448Y00356D02*
X-02449Y00356D01*
X-0245Y00354*
X-0245Y00354*
X-0245Y00353*
Y00353*
X-02455Y00358*
X-02455Y00358*
X-02455Y00358*
X-02455Y00358*
X-02454Y00359*
X-02454Y00359*
X-02454Y00359*
X-02452Y0036*
X-02448Y00356*
G37*
G36*
X-00072Y00791D02*
X-00072Y00792D01*
X-00072Y00792*
X-00073Y00792*
X-00073Y00792*
X-00074Y00792*
X-00075Y00792*
X-00076Y00792*
X-00077Y00792*
X-00076Y00802*
X-00075*
X-00071Y00802*
X-00071Y00803*
X-00071Y00803*
X-00072Y00791*
G37*
G36*
X-00106Y00802D02*
X-00106Y00802D01*
X-00105Y00802*
X-00101Y00802*
X-00096Y00802*
Y00792*
X-00098Y00792*
X-001Y00792*
X-00101Y00792*
X-00102Y00791*
X-00103Y00791*
X-00104Y0079*
X-00105Y0079*
X-00106Y00789*
X-00106Y00788*
X-00106Y00787*
X-00106Y00802*
X-00106Y00802*
G37*
G36*
X01203Y00779D02*
X01203Y00778D01*
X01203Y00777*
X01203Y00777*
X01203Y00776*
X01204Y00776*
X01204Y00775*
X01204Y00774*
X01205Y00774*
X01205Y00773*
X01201Y00769*
X01201Y00769*
X012Y0077*
X01199Y0077*
X01199Y00771*
X01198Y00771*
X01198Y00771*
X01197Y00771*
X01196Y00772*
X01195Y00772*
X01195Y00772*
X01203Y0078*
X01203Y00779*
G37*
G36*
X01182Y00774D02*
X01183Y00774D01*
X01183Y00773*
X01184Y00772*
X01185Y0077*
X01188Y00768*
X01184Y00763*
X01184Y00763*
X01183Y00764*
X01183Y00764*
X01182Y00764*
X01181Y00765*
X01181Y00765*
X0118Y00765*
X0118Y00765*
X01179Y00764*
X01179Y00764*
X01182Y00775*
X01182Y00774*
G37*
G36*
X00143Y00766D02*
X00143Y00766D01*
X00144Y00766*
X00144Y00765*
X00147Y00763*
X00144Y0076*
X0014Y00763*
X00143Y00766*
X00143Y00766*
G37*
G36*
X00445Y00769D02*
X00446Y00768D01*
X00446Y00768*
X00447Y00768*
X00447Y00767*
X00448Y00767*
X00449Y00767*
X00449Y00767*
X0045Y00767*
X00451Y00766*
X00451Y0076*
X0045Y0076*
X00448Y0076*
X00447Y0076*
X00446Y0076*
X00445Y0076*
X00445Y00759*
X00444Y00759*
X00443Y00759*
X00443Y00758*
X00445Y00769*
X00445Y00769*
G37*
G36*
X01136Y00765D02*
X01136Y00764D01*
X01136Y00764*
X01136Y00763*
X01137Y00762*
X01137Y00762*
X01137Y00761*
X01138Y00761*
X01138Y0076*
X01139Y00759*
X01134Y00755*
X01134Y00756*
X01133Y00756*
X01132Y00757*
X01132Y00757*
X01131Y00758*
X01131Y00758*
X0113Y00758*
X01129Y00758*
X01128Y00758*
X01128Y00758*
X01136Y00766*
X01136Y00765*
G37*
G36*
X01163Y00765D02*
X01163Y00764D01*
X01163Y00763*
X01163Y00763*
X01163Y00762*
X01163Y00761*
X01164Y00761*
X01164Y0076*
X01165Y0076*
X01165Y00759*
X01161Y00755*
X0116Y00755*
X0116Y00756*
X01159Y00756*
X01159Y00757*
X01158Y00757*
X01157Y00757*
X01157Y00757*
X01156Y00757*
X01155Y00757*
X01155Y00758*
X01163Y00765*
X01163Y00765*
G37*
G36*
X00132Y00732D02*
X00131Y00732D01*
X0013Y00732*
X00129Y00731*
X00128Y00731*
X00127Y0073*
X00127Y0073*
X00126Y00729*
X00125Y00728*
X00124Y00728*
X00115*
X00116Y00728*
X00117Y00729*
X00117Y0073*
X00118Y0073*
X00118Y00731*
X00118Y00731*
X00117Y00732*
X00117Y00732*
X00116Y00732*
X00115Y00732*
X00132*
X00132Y00732*
G37*
G36*
X00187Y00724D02*
X00184Y00721D01*
X00184Y00721*
X00184Y00721*
X00184Y00721*
X00183Y00722*
X00181Y00725*
X00184Y00728*
X00187Y00724*
G37*
G36*
X02456Y00725D02*
X02456Y00724D01*
X02457Y00723*
X02457Y00722*
X02458Y00722*
X02458Y00721*
X02459Y00721*
X0246Y0072*
X0246Y0072*
X0246Y0072*
X02461Y00721*
X02462Y00721*
X02463Y00721*
X02463Y00721*
X02464Y00722*
X02464Y00722*
X02465Y00722*
X02463Y00711*
X02463Y00712*
X02463Y00712*
X02462Y00713*
X02461Y00713*
X02461Y00713*
X0246Y00714*
X0246Y00714*
X02459Y00714*
X02458Y00714*
X02457Y00714*
X02458Y00719*
X02453Y00717*
X02456Y00726*
X02456Y00725*
G37*
G36*
X02496Y00679D02*
X02496Y00678D01*
X02496Y00677*
X02496Y00677*
X02497Y00676*
X02497Y00675*
X02497Y00675*
X02498Y00674*
X02498Y00674*
X02498Y00673*
X02487*
X02488Y00674*
X02488Y00674*
X02489Y00675*
X02489Y00675*
X02489Y00676*
X02489Y00677*
X0249Y00677*
X0249Y00678*
X0249Y00679*
X0249Y00679*
X02496*
X02496Y00679*
G37*
G36*
X01132Y00607D02*
X01132Y00607D01*
X01133Y00606*
X01133Y00606*
X01134Y00606*
X01135Y00606*
X01135Y00605*
X01136Y00605*
X01137Y00605*
X01138Y00605*
X01138Y00599*
X01137Y00599*
X01137Y00599*
X01136Y00599*
X01135Y00599*
X01135Y00599*
X01134Y00598*
X01134Y00598*
X01133Y00598*
X01133Y00597*
X01132Y00597*
X01131Y00607*
X01132Y00607*
G37*
G36*
X0254Y00604D02*
X0254Y00603D01*
X02541Y00603*
X02542Y00602*
X02542Y00602*
X02543Y00602*
X02544Y00602*
X02544Y00602*
X02545Y00601*
X02546Y00601*
Y00595*
X02545Y00595*
X02544Y00595*
X02544Y00595*
X02543Y00595*
X02542Y00595*
X02542Y00594*
X02541Y00594*
X0254Y00594*
X0254Y00593*
X02539Y00593*
Y00604*
X0254Y00604*
G37*
G36*
X01165Y00596D02*
X01165Y00596D01*
X01164Y00595*
X01164Y00595*
X01163Y00594*
X01163Y00593*
X01163Y00593*
X01163Y00592*
X01162Y00591*
X01162Y00591*
X01162Y0059*
X01154Y00598*
X01155Y00598*
X01156Y00598*
X01157Y00598*
X01157Y00598*
X01158Y00598*
X01158Y00599*
X01159Y00599*
X0116Y006*
X0116Y006*
X01161Y00601*
X01165Y00596*
G37*
G36*
X012Y00592D02*
X01201Y00592D01*
X01201Y00591*
X01202Y00591*
X01203Y00591*
X01203Y00591*
X01204Y0059*
X01205Y0059*
X01206Y0059*
X01206Y0059*
Y00584*
X01206Y00584*
X01205Y00584*
X01204Y00584*
X01203Y00584*
X01203Y00583*
X01202Y00583*
X01201Y00583*
X01201Y00582*
X012Y00582*
X012Y00581*
Y00593*
X012Y00592*
G37*
G36*
X02526Y00586D02*
X02527Y00586D01*
X02527Y00585*
X02528Y00585*
X02528Y00585*
X02529Y00584*
X0253Y00584*
X0253Y00584*
X02531Y00584*
X02532Y00584*
X0253Y00578*
X02529Y00578*
X02528Y00578*
X02527Y00578*
X02527Y00577*
X02526Y00577*
X02525Y00577*
X02525Y00577*
X02524Y00576*
X02523Y00576*
X02526Y00587*
X02526Y00586*
G37*
G36*
X-00422Y00568D02*
X-00422Y00567D01*
X-00422Y00566*
X-00422Y00565*
X-00422Y00564*
X-00422Y00563*
X-00422Y00563*
X-00422Y00562*
X-00421Y00561*
X-00421Y00561*
X-00421Y00561*
X-00432Y00566*
X-00431Y00566*
X-00431Y00566*
X-0043Y00566*
X-0043Y00566*
X-00429Y00566*
X-00429Y00567*
X-00428Y00568*
X-00428Y00569*
X-00428Y0057*
X-00427Y00571*
X-00422Y00568*
G37*
G36*
X02452Y00376D02*
X02453Y00375D01*
X02454Y00375*
X02454Y00375*
X02455Y00375*
X02455Y00374*
X02456Y00374*
X02456Y00374*
X02456Y00374*
X0245Y00368*
X0245Y00368*
X0245Y00368*
X0245Y00369*
X0245Y00369*
X02449Y0037*
X02449Y0037*
X02449Y00371*
X02448Y00372*
X02448Y00372*
X02447Y00373*
X02451Y00377*
X02452Y00376*
G37*
G36*
X02651Y00864D02*
X02651Y00864D01*
X02651Y00865*
X02651Y00865*
X0265Y00866*
X0265Y00866*
X02649Y00866*
X02648Y00867*
X02647Y00867*
X02646Y00867*
X02646Y00867*
X02646Y00867*
X02645Y00867*
X02644Y00867*
X02643Y00866*
X02643Y00866*
X02642Y00866*
X02642Y00865*
X02641Y00865*
X02641Y00864*
X02641Y00864*
Y00876*
X02641Y00875*
X02641Y00875*
X02642Y00874*
X02642Y00874*
X02643Y00874*
X02643Y00873*
X02644Y00873*
X02645Y00873*
X02646Y00873*
X02646*
X02646*
X02647Y00873*
X02648Y00873*
X02649Y00873*
X0265Y00874*
X0265Y00874*
X02651Y00874*
X02651Y00875*
X02651Y00875*
X02651Y00876*
Y00864*
G37*
G36*
X02677Y00864D02*
X02677Y00864D01*
X02677Y00865*
X02676Y00865*
X02676Y00866*
X02675Y00866*
X02675Y00866*
X02674Y00866*
X02673Y00867*
X02672Y00867*
X02672Y00867*
X02672Y00867*
X02671Y00867*
X0267Y00866*
X02669Y00866*
X02668Y00866*
X02668Y00866*
X02667Y00865*
X02667Y00865*
X02667Y00864*
X02667Y00864*
Y00876*
X02667Y00875*
X02667Y00875*
X02667Y00874*
X02668Y00874*
X02668Y00873*
X02669Y00873*
X0267Y00873*
X02671Y00873*
X02672Y00873*
X02672*
X02672*
X02673Y00873*
X02674Y00873*
X02675Y00873*
X02675Y00873*
X02676Y00874*
X02676Y00874*
X02677Y00875*
X02677Y00875*
X02677Y00876*
Y00864*
G37*
G36*
X02624Y00836D02*
X02624Y00836D01*
X02625Y00836*
X02626Y00836*
X02626Y00836*
X02627Y00836*
Y0083*
X02626Y0083*
X02626Y0083*
X02625Y0083*
X02624Y00829*
X02624Y00829*
X02624Y00828*
X02624Y00828*
X02623Y00828*
X02623Y00829*
X02623Y00829*
X02622Y00829*
X02622Y00828*
X02621Y00828*
X02621Y00827*
Y0083*
X02621Y0083*
X0262Y0083*
X02619Y0083*
X02618Y0083*
Y00836*
X02619Y00836*
X0262Y00836*
X02621Y00836*
Y00838*
X02621Y00838*
X02622Y00838*
X02622Y00837*
X02623Y00837*
X02623*
X02623Y00837*
X02623Y00838*
X02624Y00838*
X02624Y00839*
X02624Y00836*
G37*
G36*
X02664Y00828D02*
X02664Y00828D01*
X02663Y00827*
X02663Y00827*
X02663Y00826*
X02662Y00826*
X02662Y00825*
X02662Y00824*
X02662Y00823*
X02662Y00822*
X02656*
X02656Y00823*
X02656Y00824*
X02656Y00825*
X02655Y00826*
X02655Y00826*
X02655Y00827*
X02654Y00827*
X02654Y00828*
X02653Y00828*
X02653Y00828*
X02665*
X02664Y00828*
G37*
G36*
X02707Y00658D02*
X02707Y00658D01*
X02707Y00658*
X02707Y00658*
X02706Y00658*
X02706Y00658*
X02706Y00658*
X02705Y00658*
X02705Y00658*
X02704Y00658*
Y00662*
X02705*
X02705Y00662*
X02706Y00663*
X02706Y00663*
X02706Y00663*
X02707Y00663*
X02707Y00663*
X02707Y00663*
X02707Y00663*
Y00658*
G37*
G36*
X02647Y00657D02*
X02648Y00657D01*
X02648Y00656*
X02648Y00656*
X02648Y00656*
X02649Y00656*
X02649Y00656*
X02649Y00656*
X0265Y00656*
Y00652*
X0265Y00652*
X02649Y00652*
X02649Y00652*
X02648Y00652*
X02648Y00652*
X02648Y00652*
X02648Y00652*
X02647Y00651*
X02647Y00651*
Y00657*
X02647Y00657*
G37*
G36*
X02569Y0066D02*
X02569Y00658D01*
X02569Y00658*
X0257Y00656*
X0257Y00655*
X02571Y00655*
X02571Y00654*
X02571Y00654*
X02569Y0065*
X02569Y00651*
X02568Y00651*
X02567Y00652*
X02567Y00652*
X02566Y00652*
X02565Y00652*
X02565Y00652*
X02564Y00652*
X02563Y00652*
X02562Y00652*
X02568Y00661*
X02569Y0066*
G37*
G36*
X02634Y00652D02*
X02631Y00649D01*
X02631Y00649*
X02631Y0065*
X0263Y0065*
X0263Y0065*
X0263Y0065*
X0263Y0065*
X02629Y0065*
X02629Y0065*
X02629Y0065*
X0263Y00655*
X02634Y00652*
G37*
G36*
X02697Y00645D02*
X02697Y00645D01*
X02697Y00645*
X02696Y00646*
X02696Y00646*
X02696Y00646*
X02696Y00646*
X02695Y00646*
X02695Y00646*
X02694Y00646*
Y0065*
X02694Y0065*
X02695Y0065*
X02696Y0065*
X02696Y0065*
X02696Y0065*
X02696Y0065*
X02697Y0065*
X02697Y00651*
X02697Y00651*
Y00645*
G37*
G36*
X02631Y00642D02*
X02631Y00642D01*
X02631Y00641*
X02631Y00641*
X02631Y00641*
X02631Y00641*
X02632Y0064*
X02632Y00639*
X0263Y00636*
X0263Y00636*
X02629Y00637*
X02629Y00637*
X02629Y00637*
X02628Y00637*
X02628Y00637*
X02628Y00637*
X02628Y00637*
X02627Y00637*
X02631Y00642*
X02631Y00642*
G37*
G36*
X02585Y0064D02*
X02586Y00639D01*
X02586Y00639*
X02586Y00639*
X02587Y00639*
X02587Y00639*
X02587*
X02587Y00639*
X02587Y00639*
X02586Y00634*
X02583Y00637*
X02585Y0064*
X02585Y0064*
G37*
G36*
X0265Y00621D02*
X0265Y00622D01*
X0265Y00622*
X0265Y00622*
X02649Y00622*
X02649Y00622*
X02648Y00622*
X02648Y00622*
X02647*
Y00626*
X02648*
X02649Y00626*
X0265Y00626*
X0265Y00626*
X0265Y00626*
X0265Y00626*
Y00621*
G37*
G36*
X02568Y00622D02*
X02568Y00622D01*
X02568Y00622*
X02567Y00622*
X02567Y00622*
X02567Y00621*
X02567Y00621*
X02567Y00621*
X02567Y0062*
X02567Y0062*
X02567Y0062*
X02564Y00621*
X02566Y00618*
X02566Y00618*
X02563Y00615*
X02563Y00615*
X02563Y00615*
X0256Y00618*
X0256Y00618*
X0256Y00618*
X02561Y00618*
X02561Y00619*
X02562Y00619*
X02563Y00621*
X02563Y00621*
Y00622*
X02563Y00623*
X02563Y00623*
X02563Y00624*
X02563Y00624*
X02563Y00624*
X02568Y00622*
G37*
G36*
X02592Y00617D02*
X02592Y00617D01*
X02592Y00617*
X02592Y00617*
X02592Y00617*
X02592Y00616*
X02592Y00616*
X02592Y00616*
X02593Y00616*
X02593Y00616*
X0259Y00613*
X02587Y00617*
X02592Y00617*
X02592Y00617*
G37*
G36*
X0259Y006D02*
X02589Y006D01*
X02589Y006*
X02589Y006*
X02589Y006*
X02588Y006*
X02588Y006*
X02588Y006*
X02588Y00599*
X02587Y00599*
X02584Y00602*
X02584Y00602*
X02585Y00602*
X02585Y00603*
X02585Y00603*
X02585Y00603*
X02586Y00604*
X02586Y00604*
X02586Y00604*
X02586Y00604*
X0259Y006*
G37*
G54D11*
X-00478Y00184D02*
D01*
X-00478Y00184*
X-00477Y00184*
X-00476Y00184*
X-00475Y00184*
X-00474Y00185*
X-00473Y00185*
X-00472Y00185*
X-00471Y00186*
X-00471Y00186*
X-0047Y00187*
X-00469Y00188*
X-00469Y00188*
X-00588Y00166D02*
D01*
X-00588Y00166*
X-00588Y00166*
X-00588Y00166*
X-00588Y00166*
X-00588Y00166*
X-00589Y00166*
X-00589Y00166*
X-00589Y00166*
X-00589Y00166*
X-00589Y00166*
X-00589Y00166*
X-00589Y00166*
X-00596Y00163D02*
D01*
X-00595Y00163*
X-00595Y00163*
X-00594Y00163*
X-00593Y00163*
X-00593Y00163*
X-00592Y00164*
X-00591Y00164*
X-00591Y00164*
X-0059Y00165*
X-0059Y00165*
X-00589Y00166*
X-00589Y00166*
X-00483Y00261D02*
D01*
X-00483Y00261*
X-00483Y00261*
X-00483Y00261*
X-00482Y00261*
X-00482Y00261*
X-00482Y00262*
X-00482Y00262*
X-00482Y00262*
X-00482Y00262*
X-00482Y00262*
X-00481Y00262*
X-00481Y00262*
X-00562Y00256D02*
D01*
X-00562Y00258*
X-00561Y0026*
X-00561Y00262*
X-00561Y00263*
X-00561Y00264*
X-0256Y00704D02*
D01*
X-0256Y00703*
X-0256Y00702*
X-00447Y00509D02*
X-00436Y00499D01*
X-00417Y00392D02*
Y0048D01*
X-00447Y00509D02*
Y00532D01*
X-00436Y00499D02*
Y00499D01*
Y00499D02*
X-00417Y0048D01*
X-00498Y00184D02*
X-00478D01*
X-00588Y00166D02*
X-00587D01*
X-00619Y00163D02*
X-00596D01*
X-00525Y00261D02*
X-00483D01*
X-00561Y00291D02*
D01*
X-0256Y00704D02*
Y00706D01*
X-00066Y00797D02*
X-00066Y00797D01*
X-00111Y00797D02*
X-00066D01*
X-0014Y00768D02*
X-00111Y00797D01*
X-0014Y00767D02*
Y00768D01*
G54D13*
X00445Y00763D02*
D01*
X00445Y00763*
X00444Y00763*
X00444Y00763*
X00444Y00763*
X00443Y00763*
X00443Y00763*
X00442Y00763*
X00442Y00763*
X00442Y00762*
X00441Y00762*
X00441Y00762*
X00441Y00762*
X00465Y00763D02*
D01*
X00466Y00764*
X00468Y00764*
X0047Y00764*
X00472Y00764*
X00473Y00765*
X00475Y00766*
X00476Y00766*
X00478Y00767*
X00479Y00768*
X00481Y00769*
X00482Y00771*
X00482Y00771*
X00555Y00737D02*
D01*
X00553Y00737*
X00551Y00737*
X00549Y00737*
X00548Y00736*
X00546Y00736*
X00545Y00735*
X00543Y00734*
X00541Y00734*
X0054Y00733*
X00539Y00732*
X00537Y0073*
X00537Y0073*
X-02471Y0043D02*
D01*
X-02471Y00428*
X-02471Y00427*
X-0247Y00425*
X-0247Y00423*
X-02469Y00422*
X-02469Y0042*
X-02468Y00418*
X-02467Y00417*
X-02466Y00415*
X-02465Y00414*
X-02464Y00413*
X-02463Y00412*
X02452Y00427D02*
D01*
X02452Y00426*
X02451Y00426*
X02451Y00425*
X0245Y00424*
X0245Y00423*
X02449Y00422*
X02449Y00422*
X02449Y00421*
X02449Y0042*
X02449Y00419*
X02449Y00418*
X02449Y00418*
X02452Y00427D02*
D01*
X02453Y00428*
X02454Y00428*
X02454Y00429*
X02454Y0043*
X02455Y00431*
X02455Y00432*
X02456Y00432*
X02456Y00433*
X02456Y00434*
X02456Y00435*
X02456Y00436*
X02456Y00436*
X02425Y00686D02*
D01*
X02426Y00686*
X02427Y00686*
X02428Y00686*
X02429Y00687*
X0243Y00687*
X0243Y00687*
X02431Y00688*
X02432Y00688*
X02433Y00688*
X02433Y00689*
X02434Y0069*
X02434Y0069*
X00554Y00749D02*
D01*
X00552Y00749*
X0055Y00748*
X00548Y00748*
X00546Y00748*
X00544Y00747*
X00542Y00746*
X0054Y00745*
X00539Y00744*
X00537Y00743*
X00535Y00742*
X00534Y00741*
X00534Y0074*
X02483Y00643D02*
D01*
X02484Y00643*
X02484Y00644*
X02484Y00644*
X02485Y00644*
X02485Y00644*
X02486Y00644*
X02486Y00644*
X02487Y00644*
X02487Y00645*
X02487Y00645*
X02488Y00645*
X02488Y00645*
D01*
X02488Y00646*
X02489Y00647*
X0249Y00648*
X02491Y00649*
X02491Y0065*
X02492Y00652*
X02492Y00653*
X02492Y00654*
X02493Y00655*
X02493Y00656*
X02493Y00658*
X02493Y00658*
X02469Y00642D02*
D01*
X02469Y00641*
X02469Y00641*
X02475Y00643D02*
D01*
X02474Y00643*
X02473Y00643*
X02473Y00643*
X02472Y00643*
X02472Y00643*
X02471Y00643*
X02471Y00642*
X0247Y00642*
X0247Y00642*
X02469Y00642*
X00544Y0078D02*
D01*
X00542Y0078*
X0054Y00779*
X00537Y00779*
X00535Y00778*
X00532Y00777*
X0053Y00777*
X00528Y00776*
X00526Y00774*
X00524Y00773*
X00522Y00771*
X0052Y0077*
X0052Y00769*
X02466Y00626D02*
D01*
X02465Y00625*
X02465Y00625*
X02465Y00624*
X02464Y00624*
X02464Y00623*
X02464Y00623*
X02464Y00622*
X02464Y00622*
X02464Y00621*
X02463Y00621*
X02463Y0062*
Y0062*
X02459Y00612D02*
D01*
X02459Y00613*
X0246Y00613*
X0246Y00613*
X0246Y00614*
X02461Y00615*
X02461Y00615*
X02461Y00616*
X02461Y00616*
X02461Y00617*
X02461Y00617*
X02462Y00618*
X02462Y00618*
X02459Y00612D02*
D01*
X02459Y00612*
X02459Y00612*
X02459Y00612*
X02459Y00612*
X02459Y00612*
X02459*
X02444Y00603D02*
D01*
X02445Y00603*
X02446Y00603*
X02447Y00603*
X02448Y00603*
X02449Y00603*
X02449Y00604*
X0245Y00604*
X02451Y00605*
X02452Y00605*
X02453Y00606*
X02453Y00606*
X02454Y00607*
X02479Y00632D02*
D01*
X02478Y00632*
X02477Y00632*
X02476Y00632*
X02476Y00632*
X02475Y00632*
X02474Y00631*
X02473Y00631*
D01*
X02473Y00631*
X02472Y00631*
X02472Y00631*
X02472Y00631*
X02471Y00631*
X02471Y0063*
X02471Y0063*
X0247Y0063*
X0247Y0063*
X0247Y0063*
X0247Y00629*
X0247Y00629*
X02466Y00626D02*
D01*
X02466Y00626*
X02466Y00626*
X02466Y00626*
X02466Y00626*
X02466Y00626*
X02466Y00626*
X02434Y00662D02*
D01*
X02434*
X02434*
X02434*
X02434Y00662*
X02434Y00662*
X02434Y00662*
X02482Y00692D02*
D01*
X02482Y00692*
X02483Y00692*
X02483Y00693*
X02483Y00693*
X02483Y00694*
X02483Y00694*
X02484Y00694*
X02484Y00694*
X02465Y00682D02*
D01*
X02466Y00682*
X02467Y00682*
X02468Y00682*
X0247Y00682*
X02471Y00683*
X02472Y00683*
X02473Y00684*
X02474Y00684*
X02475Y00685*
X02476Y00686*
X02477Y00687*
X02477Y00687*
X02465Y00682D02*
D01*
X02464Y00682*
X02463Y00682*
X02462Y00682*
X02461Y00681*
X0246Y00681*
X02459Y00681*
X02458Y0068*
X02458Y0068*
X02457Y00679*
X02456Y00679*
X02455Y00678*
X02455Y00678*
X02434Y00662D02*
D01*
X02435Y00662*
X02436Y00662*
X02437Y00662*
X02438Y00663*
X02439Y00663*
X0244Y00663*
X0244Y00664*
X02441Y00664*
X02442Y00665*
X02443Y00665*
X02443Y00666*
X0247Y007D02*
D01*
X02471Y007*
X02472Y007*
X02473Y00701*
X02473Y00701*
X02474Y00701*
X02475Y00702*
X02476Y00702*
X02477Y00702*
X02478Y00703*
X02479Y00704*
X02479Y00704*
X0248Y00704*
X0247Y007D02*
D01*
X02469Y007*
X02468Y007*
X02467Y007*
X02466Y007*
X02465Y00699*
X02464Y00699*
X02463Y00699*
X02462Y00698*
X02461Y00698*
X0246Y00697*
X02459Y00696*
X02459Y00696*
X02434Y00674D02*
D01*
X02434Y00674*
X02435Y00674*
X02436Y00674*
X02436Y00674*
X02437Y00675*
X02437Y00675*
X02438Y00675*
X02438Y00675*
X02439Y00676*
X02439Y00676*
X0244Y00677*
X0244Y00677*
X00551Y00759D02*
D01*
X00549Y00759*
X00547Y00758*
X00544Y00758*
X00542Y00757*
X0054Y00757*
X00538Y00756*
X00536Y00755*
X00533Y00754*
X00531Y00752*
X0053Y00751*
X00528Y00749*
X00527Y00749*
X02466Y00427D02*
D01*
X02466Y00425*
X02466Y00424*
D01*
X02466Y00422*
X02467Y0042*
X02467Y00418*
X02468Y00416*
X02469Y00414*
X0247Y00412*
X02471Y00411*
X02472Y00409*
X02474Y00407*
X02475Y00406*
X02477Y00404*
X02478Y00403*
X0248Y00402*
X02482Y00401*
X02484Y004*
X02486Y00399*
X02488Y00398*
X0249Y00398*
X02492Y00397*
X02494Y00397*
X02496Y00397*
X02498Y00397*
X02499Y00397*
X-02442Y00716D02*
D01*
X-02442Y00716*
X-02441Y00715*
X-02441Y00714*
X-02441Y00713*
X-02441Y00713*
X-02441Y00712*
X-0244Y00711*
X-0244Y00711*
X-0244Y0071*
X-02439Y00709*
X-02439Y00709*
X-02438Y00709*
X-00423Y00586D02*
D01*
X-00423Y00589*
X-00424Y00592*
X-00424Y00594*
X-00425Y00597*
X-00426Y006*
X-00427Y00603*
X-00428Y00605*
X-0043Y00608*
X-00431Y0061*
X-00433Y00612*
X-00435Y00614*
X-00435Y00615*
X-00442Y00537D02*
D01*
X-00439Y0054*
X-00436Y00543*
X-00434Y00547*
X-00431Y00551*
X-00429Y00555*
X-00428Y00559*
X-00426Y00563*
X-00425Y00568*
X-00424Y00572*
X-00424Y00576*
X-00423Y00581*
X-00423Y00582*
X00548Y00769D02*
D01*
X00546Y00769*
X00543Y00769*
X00541Y00768*
X00538Y00768*
X00536Y00767*
X00534Y00766*
X00532Y00765*
X00529Y00764*
X00527Y00762*
X00525Y00761*
X00524Y00759*
X00523Y00759*
X02659Y00831D02*
D01*
X02659Y00831*
X02659Y00831*
X02659Y00831*
X02659Y00831*
X02659Y00831*
X02659Y00831*
X02659Y0083*
X02659Y0083*
X02659Y0083*
D01*
X02659Y0083*
X02659Y0083*
X02659Y0083*
X0263Y00833D02*
D01*
X0263Y00833*
X02631Y00833*
X02631Y00833*
X02631Y00833*
X02631Y00833*
X02632Y00833*
X02632Y00833*
X02632Y00833*
X02632Y00834*
X02633Y00834*
X02633Y00834*
X02633Y00834*
X-02694Y00823D02*
D01*
X-02693Y00823*
X-02693Y00824*
X-02692Y00825*
X-02692Y00825*
X-02692Y00826*
X-02692Y00826*
X-02691Y00827*
X-02691Y00828*
X-02691Y00828*
X-02691Y00829*
X-02691Y0083*
X-02691Y0083*
X-02716Y00809D02*
D01*
X-02714Y00809*
X-02712Y0081*
X-0271Y0081*
X-02708Y00811*
X-02707Y00812*
X-02705Y00813*
X-02703Y00814*
X-02702Y00815*
X-027Y00816*
X-027Y00817*
X-0272Y00809D02*
D01*
X-02718Y00809*
X-02716Y00809*
X-02768Y00791D02*
D01*
X-02769Y0079*
X-0277Y00789*
X-0277Y00789*
X-02771Y00788*
X-02771Y00787*
X-02772Y00786*
X-02772Y00785*
X-02772Y00784*
X-02772Y00783*
X-02772Y00782*
X-02772Y00781*
X-02772Y00781*
X-02738Y00809D02*
D01*
X-0274Y00809*
X-02742Y00808*
X-02744Y00808*
X-02746Y00808*
X-02748Y00807*
X-0275Y00806*
X-02752Y00805*
X-02754Y00804*
X-02756Y00803*
X-02757Y00802*
X-02759Y008*
X-02759Y008*
X-02456Y0044D02*
D01*
X-02456Y00438*
X-02456Y00435*
X-02456Y00433*
X-02455Y0043*
X-02454Y00428*
X-02453Y00426*
X-02452Y00423*
X-02451Y00421*
X-0245Y00419*
X-02448Y00417*
X-02446Y00415*
X-02446Y00415*
X-0245Y00364D02*
D01*
X-0245Y00364*
X-0245Y00364*
X-0245Y00364*
X-0245Y00364*
X-0245Y00364*
X-0245Y00364*
X-0245Y00365*
X-0245Y00365*
X-02451Y00365*
X-02451Y00365*
X-02451Y00365*
X-02451Y00365*
X00466Y00774D02*
D01*
X00467Y00774*
X00468Y00774*
X00468Y00774*
X00469Y00775*
X0047Y00775*
X00471Y00775*
X00472Y00776*
X00473Y00776*
X00473Y00777*
X00474Y00777*
X00475Y00778*
X00475Y00778*
X-01173Y006D02*
X-01172Y006D01*
X-01172*
X00436Y0052D02*
Y006D01*
X00441Y00762D02*
X00446D01*
X00445Y00763D02*
X00465D01*
X00482Y00771D02*
D01*
D01*
X00612Y00861*
X00555Y00737D02*
X00558D01*
X00516Y00716D02*
X00537Y0073D01*
X02456Y00436D02*
Y00559D01*
X02466Y00424D02*
Y00555D01*
X-02463Y00395D02*
Y00412D01*
X-02471Y0043D02*
Y00458D01*
X-02468Y00391D02*
X-02463Y00395D01*
X02449Y00388D02*
Y00418D01*
X00554Y00749D02*
X00555D01*
X0242Y00686D02*
X02425D01*
X00491Y0071D02*
X00534Y0074D01*
X02443Y00666D02*
X02455Y00678D01*
X0244Y00677D02*
X02459Y00696D01*
X02493Y00658D02*
Y00667D01*
Y0069*
X02508Y00646D02*
Y0069D01*
X02468Y00642D02*
X02469D01*
X02453Y00627D02*
X02468Y00642D01*
X02493Y00611D02*
X02521Y00639D01*
X02493Y00611D02*
Y00611D01*
X02485Y00603D02*
X02493Y00611D01*
X02485Y006D02*
Y00603D01*
X02475Y00643D02*
X02483D01*
X00544Y0078D02*
X00633Y00846D01*
X00517Y00766D02*
X0052Y00769D01*
X02441Y00613D02*
X02448Y00621D01*
X01266Y00624D02*
X02441Y00613D01*
X02448Y00621D02*
X0245D01*
X02462Y00618D02*
X02463Y0062D01*
X02459Y00612D02*
X02459Y00612D01*
X02454Y00607D02*
X02459Y00612D01*
X02422Y00603D02*
X02444D01*
X02479Y00632D02*
X02485D01*
X02468Y00628D02*
X0247Y00629D01*
X02466Y00626D02*
X02467Y00627D01*
X02466Y00626D02*
X02466D01*
X02485Y00632D02*
X02485Y00632D01*
X02495*
X02507Y00644*
Y00645*
X02508Y00646*
X02469Y006D02*
X02485D01*
X0246Y00591D02*
X02469Y006D01*
X02473Y0059D02*
X02489D01*
X02461Y00578D02*
X02473Y0059D01*
X02477Y0058D02*
X02494D01*
X02456Y00559D02*
X02477Y0058D01*
X02481Y0057D02*
X02511D01*
X02466Y00555D02*
X02481Y0057D01*
X02453Y00624D02*
Y00627D01*
X0245Y00621D02*
X02453Y00624D01*
X02565Y00568D02*
X02572Y00575D01*
X02513Y00568D02*
X02565D01*
X02511Y0057D02*
X02513Y00568D01*
X02494Y0058D02*
X02527Y00613D01*
X02435Y00578D02*
X02461D01*
X02485Y006D02*
X02485Y006D01*
X02489Y0059D02*
X02524Y00625D01*
X02566Y00595D02*
X02566D01*
X02534Y00637D02*
Y00689D01*
X02524Y00627D02*
X02534Y00637D01*
X02525Y00693D02*
Y00755D01*
X02521Y00689D02*
X02525Y00693D01*
X02521Y00639D02*
Y00689D01*
X02568Y00673D02*
X02659D01*
X02567Y00675D02*
X02568Y00673D01*
X02554Y00675D02*
X02567D01*
X02455Y00591D02*
X0246Y00591D01*
X02545Y00637D02*
X02547Y00636D01*
X02527Y00613D02*
X02538D01*
X02434Y00662D02*
X02434D01*
X02482Y00692D02*
D01*
X02477Y00687D02*
X02482Y00692D01*
X02477Y00687D02*
D01*
X02484Y00694D02*
X02495Y00706D01*
Y00741*
X01225Y00673D02*
X02434Y00662D01*
X0248Y00704D02*
X02485Y0071D01*
X01235Y00685D02*
X02434Y00674D01*
X00551Y00759D02*
X00655Y00837D01*
X00527Y00748D02*
X00527Y00749D01*
X01228Y00692D02*
X01235Y00685D01*
X02434Y0069D02*
X02453Y00708D01*
X01255Y00697D02*
X0242Y00686D01*
X02453Y00717D02*
X02453Y00717D01*
X02453Y00708D02*
Y00717D01*
X-02594Y00633D02*
X-02549D01*
X-02594Y00632D02*
X-02594Y00633D01*
X-02605Y00643D02*
X-02594Y00632D01*
X-02534Y00653D02*
X-02475Y00594D01*
X-02504Y00637D02*
X-02456Y00589D01*
X-02514Y00662D02*
X-02453Y006D01*
X-02504Y00671D02*
X-02448Y00615D01*
X-02482Y00573D02*
X-02471Y00561D01*
X-02479Y00584D02*
X-02461Y00565D01*
X-0246Y00579D02*
X-02444D01*
X-02475Y00594D02*
X-0246Y00579D01*
X-02456Y0059D02*
X-02436D01*
X-02456Y00589D02*
X-02456Y0059D01*
X-02452Y006D02*
X-0244D01*
X-02452Y006D02*
X-02452Y006D01*
X-02453Y006D02*
X-02452D01*
X-02446Y00615D02*
Y00615D01*
X-02626Y00584D02*
X-02479D01*
X-02622Y00573D02*
X-02482D01*
X02589Y0062D02*
X0259D01*
X02515Y00581D02*
X02563D01*
X02469Y00717D02*
X0247Y00716D01*
X02485Y0071D02*
Y00737D01*
X02538Y00613D02*
X02541Y00617D01*
X01138Y00624D02*
X01266D01*
X01262Y00613D02*
X01281D01*
X01262Y00614D02*
X01262Y00613D01*
X0115Y00614D02*
X01262D01*
X01138Y00602D02*
X0115Y00614D01*
X01248Y00601D02*
X013D01*
X01246Y00603D02*
X01248Y00601D01*
X01167Y00603D02*
X01246D01*
X01154Y0059D02*
X01167Y00603D01*
X01194Y00587D02*
X0124D01*
X-02438Y00709D02*
X-02433Y00703D01*
X-02442Y00716D02*
Y00736D01*
X-00423Y00582D02*
Y00586D01*
X-00435Y00615D02*
D01*
X-00515Y00715D02*
X-00435Y00615D01*
X-02444Y00738D02*
Y00751D01*
Y00738D02*
X-02442Y00736D01*
X-02444Y00751D02*
X-02426Y00769D01*
X-02433Y00703D02*
X-02426D01*
X-02438Y00664D02*
X-02437Y00666D01*
X-02443Y00674D02*
X-02439Y00678D01*
X-02447Y00684D02*
X-02441Y00689D01*
X-02462Y00684D02*
X-02447D01*
X-02466Y00674D02*
X-02443D01*
X-0247Y00664D02*
X-02438D01*
X-02484Y00665D02*
X-02471D01*
X-0248Y00675D02*
X-02467D01*
X-02471Y00665D02*
X-0247Y00664D01*
X-02467Y00675D02*
X-02466Y00674D01*
X-02463Y00685D02*
X-02462Y00684D01*
X-02469Y00685D02*
X-02463D01*
X-02474Y00691D02*
X-02469Y00685D01*
X-02474Y00691D02*
Y00735D01*
X-02484Y00679D02*
X-0248Y00675D01*
X-02484Y00679D02*
Y00739D01*
X00548Y00769D02*
X00632Y00833D01*
X00523Y00759D02*
D01*
X-02489Y00669D02*
X-02484Y00665D01*
X-02494Y00675D02*
X-02489Y00669D01*
X-02494Y00675D02*
Y00743D01*
X-0243Y00581D02*
X-0243D01*
X-02431Y0058D02*
X-0243Y00581D01*
X-02444Y0058D02*
X-02431D01*
X-02444Y00579D02*
X-02444Y0058D01*
X-02431Y00594D02*
X-02424D01*
X-02436Y0059D02*
X-02431Y00594D01*
X-02433Y00606D02*
X-02416D01*
X-0244Y006D02*
X-02433Y00606D01*
X-02446Y00615D02*
X-02444Y00617D01*
X-02504Y00671D02*
Y00747D01*
X-02439Y00678D02*
X-02436D01*
X-02654Y00643D02*
X-02605D01*
X-02663Y00652D02*
X-02654Y00643D01*
X02659Y0083D02*
Y00836D01*
X02659Y00807D02*
Y0083D01*
X02659Y00673D02*
Y00807D01*
X02659Y00807D02*
X02659Y00807D01*
X02615Y00833D02*
X0263D01*
X02636Y0087D02*
X02636Y0087D01*
X02659*
X02685Y0087D02*
X02685Y00869D01*
X02662Y0087D02*
X02685D01*
X02685Y00869D02*
X02685Y0087D01*
Y0087*
X-027Y00817D02*
X-02694Y00823D01*
X-0272Y00809D02*
X-02716D01*
X-02738D02*
X-0272D01*
Y00809D02*
Y00809D01*
X-02773Y00676D02*
Y00781D01*
X-02738Y00809D02*
Y00809D01*
X-02768Y00791D02*
X-02759Y008D01*
X-02659Y00832D02*
Y00836D01*
X-02663Y00749D02*
Y00832D01*
X-02663D02*
X-02663D01*
X-02634Y00739D02*
Y00823D01*
X-02634Y00822D02*
Y00836D01*
X-02632*
X02449Y00388D02*
X02449Y00388D01*
Y00375D02*
Y00388D01*
Y00375D02*
X02458Y00366D01*
X-02446Y00372D02*
Y00415D01*
X-02456Y0044D02*
Y00462D01*
X-0245Y00358D02*
Y00364D01*
X-02452Y00366D02*
X-02446Y00372D01*
X-02458Y00351D02*
X-0245Y00358D01*
X-02458Y00351D02*
X-02458D01*
X00475Y00778D02*
X00571Y00846D01*
X00475Y00778D02*
D01*
X00457Y00774D02*
X00466D01*
X-02692Y00652D02*
X-02663D01*
X-02694Y00651D02*
X-02692Y00652D01*
X-02697Y00651D02*
X-02694D01*
X00651Y0086D02*
X00659Y00866D01*
X00633Y00846D02*
X00638Y0085D01*
X00651Y0086*
X00667Y00883D02*
X00684Y00893D01*
X00658Y00878D02*
X00667Y00883D01*
X00652Y00873D02*
X00658Y00878D01*
X00629Y00859D02*
X00652Y00873D01*
X00616Y00851D02*
X00629Y00859D01*
X00664Y00869D02*
X00668Y00871D01*
X-00557Y00787D02*
X-00543Y00777D01*
X-00542Y00775D02*
X-00528Y00765D01*
X-00502Y00746*
X-02456Y00462D02*
Y0056D01*
X-02514Y00662D02*
Y00753D01*
X-02513Y00646D02*
D01*
X-02524Y00657D02*
X-02513Y00646D01*
X-02524Y00657D02*
Y00757D01*
X-01192Y00592D02*
X-01192Y00591D01*
X-02534Y00653D02*
Y00761D01*
X-02513Y00646D02*
X-02504Y00637D01*
X-00502Y00746D02*
X-00487Y00733D01*
X-00479Y00723*
X-00466Y00721*
X-00509Y00738D02*
X-00499Y00729D01*
X-00494Y00723*
X-00484Y00711*
X-00479Y00705*
X-00468Y00706*
X-00495Y00708D02*
X-00495Y00708D01*
X-00484Y00695*
X-00501Y00717D02*
X-00495Y00708D01*
X-00495Y00708*
X-0051Y00725D02*
X-00501Y00717D01*
X-00624Y00809D02*
X-0051Y00725D01*
X-00685Y00846D02*
X-00624Y00809D01*
X-00484Y00695D02*
X-00474Y00694D01*
X-00606Y00822D02*
X-00557Y00787D01*
X-00624Y00833D02*
X-00606Y00822D01*
X-00477Y00737D02*
X-00469Y00734D01*
X-00481Y00743D02*
X-00477Y00737D01*
X-00491Y00752D02*
X-00481Y00743D01*
X-00526Y00779D02*
X-00491Y00752D01*
X-0057Y0081D02*
X-00526Y00779D01*
X-00599Y00831D02*
X-0057Y0081D01*
X-00624Y00845D02*
X-00599Y00831D01*
X-00479Y00755D02*
X-00469Y00746D01*
X-00493Y00767D02*
X-00479Y00755D01*
X-00544Y00804D02*
X-00493Y00767D01*
X-00593Y00839D02*
X-00544Y00804D01*
X-00624Y00857D02*
X-00593Y00839D01*
X-00458Y00767D02*
X-00442Y00767D01*
X-00478Y00769D02*
X-00458Y00767D01*
X-00502Y00787D02*
X-00478Y00769D01*
X-00528Y00807D02*
X-00502Y00787D01*
X-00551Y00823D02*
X-00528Y00807D01*
X-00569Y00835D02*
X-00551Y00823D01*
X-00585Y00847D02*
X-00569Y00835D01*
X-00599Y00855D02*
X-00585Y00847D01*
X-00614Y00864D02*
X-00599Y00855D01*
X-00624Y00869D02*
X-00614Y00864D01*
X-00474Y00779D02*
X-00462Y00778D01*
X-00479Y00782D02*
X-00474Y00779D01*
X-005Y00798D02*
X-00479Y00782D01*
X-00534Y00824D02*
X-005Y00798D01*
X-0056Y00843D02*
X-00534Y00824D01*
X-00581Y00857D02*
X-0056Y00843D01*
X-00612Y00876D02*
X-00581Y00857D01*
X-00624Y00881D02*
X-00612Y00876D01*
X-0118Y00608D02*
X-01174Y00602D01*
X-01172*
X-0122Y00627D02*
Y00629D01*
X-01218Y00631*
X-02435Y00617D02*
X-01282Y00627D01*
X-01218Y00631D02*
X-01209Y00631D01*
X-01282Y00627D02*
X-0122D01*
X-01201Y00631D02*
X-01135Y00632D01*
X-01209Y00631D02*
X-01201Y00631D01*
X-01209D02*
X-01201D01*
X-02426Y00703D02*
X-01321Y00713D01*
X-01303D02*
X-01271Y00746D01*
X-01321Y00713D02*
X-01303D01*
X-02436Y00689D02*
X-01298Y007D01*
X-01243D02*
X-01172Y00771D01*
X-01298Y007D02*
X-01243D01*
X-0122Y00688D02*
X-01153Y00756D01*
X-01276Y00688D02*
X-0122D01*
X02425Y00917D02*
X02453Y00889D01*
X02412Y00917D02*
X02425D01*
X02453Y00841D02*
Y00889D01*
X00521Y00756D02*
X00523Y00759D01*
X-02437Y00666D02*
X-02429D01*
X-02441Y00689D02*
X-02436D01*
X-02475Y00594D02*
D01*
X-02534Y00761D02*
X-02452Y00843D01*
Y0089*
X-02424Y00918*
X-02415*
X-02384Y00936*
X-02296Y00962*
X-02424Y00594D02*
X-01235Y00605D01*
X-02444Y00617D02*
X-02435D01*
X-02471Y00461D02*
Y00561D01*
X-01235Y00605D02*
X-01234Y00607D01*
X-01209*
X-01208Y00608*
X-01236Y00592D02*
X-01192D01*
X-01213Y00617D02*
X-01208Y00621D01*
X-01275Y00617D02*
X-01213D01*
X-01219Y00677D02*
X-0121D01*
X-0243Y00581D02*
X-01236Y00592D01*
X-02429Y00666D02*
X-01219Y00677D01*
X-02416Y00606D02*
X-01275Y00617D01*
X-02436Y00678D02*
X-01276Y00688D01*
X0243Y007D02*
X02443Y00713D01*
X01264Y0071D02*
X0243Y007D01*
X01195Y0078D02*
X01264Y0071D01*
X01182Y00769D02*
X01255Y00697D01*
X0124Y00587D02*
X01242Y00589D01*
X013Y00601D02*
X02455Y00591D01*
X00659Y00866D02*
D01*
X01281Y00613D02*
X02422Y00603D01*
X-02743Y00678D02*
X-0274D01*
X-02744Y00677D02*
X-02743Y00678D01*
X02412Y00907D02*
X02414Y00904D01*
X02409Y00907D02*
X02411Y00906D01*
X02414Y00904D02*
X02415D01*
X02416Y00903*
X02419*
X02443Y00879*
Y00837D02*
Y00879D01*
Y00837D02*
X02525Y00755D01*
X02421Y00829D02*
X02505Y00745D01*
Y00702D02*
Y00745D01*
X02493Y0069D02*
X02505Y00702D01*
X02409Y00827D02*
X02495Y00741D01*
X02398Y00824D02*
X02485Y00737D01*
X02535Y00689D02*
Y00759D01*
X02534Y00689D02*
X02535Y00689D01*
X02453Y00841D02*
X02535Y00759D01*
X02292Y00951D02*
X0237Y00928D01*
X0239Y00916D02*
X02408Y00907D01*
X02372Y00927D02*
X0239Y00916D01*
X-0043Y00779D02*
X-00422Y00771D01*
X-00445Y00779D02*
X-0043D01*
X-00446Y00778D02*
X-00445Y00779D01*
X-00462Y00778D02*
X-00446D01*
X-02461Y00565D02*
X-02456Y0056D01*
X-02461Y00565D02*
Y00565D01*
X-00685Y00894D02*
X-00624Y00857D01*
X-00469Y00746D02*
X-00398D01*
X-00469Y00734D02*
X-00393Y00734D01*
X-00315Y00812*
X00481Y00756D02*
X005Y00771D01*
X00526Y00788*
X00608Y00846*
X00616Y00851*
X00659Y00866D02*
X00664Y00869D01*
X00668Y00871D02*
X00669Y00872D01*
X00684Y00881*
X00485Y00745D02*
X00511Y00763D01*
X00517Y00766*
X00667Y00859D02*
X00684Y00869D01*
X00661Y00854D02*
X00667Y00859D01*
X00654Y00849D02*
X00661Y00854D01*
X00632Y00833D02*
X00654Y00849D01*
X00498Y00742D02*
X00521Y00756D01*
X00673Y00851D02*
X00684Y00857D01*
X0067Y00848D02*
X00673Y00851D01*
X00664Y00844D02*
X0067Y00848D01*
X00655Y00837D02*
X00664Y00844D01*
X00508Y00734D02*
X00527Y00748D01*
X00486Y00719D02*
X00508Y00734D01*
X-00474Y00694D02*
X00469D01*
X00469Y00695*
X00491Y0071*
X00555Y00749D02*
X00654Y00824D01*
X00678Y00841*
X0068Y00842*
X00684Y00845*
X00436Y00599D02*
X00516Y00716D01*
X00558Y00737D02*
X00684Y00833D01*
X00465Y00746D02*
X00481Y00756D01*
X00464Y00745D02*
X00465Y00746D01*
X0039Y00745D02*
X00464D01*
X00384Y00732D02*
X00465D01*
X00485Y00745*
X00304Y00812D02*
X00384Y00732D01*
X00312Y00823D02*
X0039Y00745D01*
X-00167Y00823D02*
X00312D01*
X-00168Y00822D02*
X-00167Y00823D01*
X-00322Y00822D02*
X-00168D01*
X-00315Y00812D02*
X00304D01*
X0014Y00748D02*
Y00766D01*
X00113Y00721D02*
X0014Y00748D01*
X-00466Y00721D02*
X00113D01*
X00488Y00734D02*
X00498Y00742D01*
X00468Y00721D02*
X00488Y00734D01*
X-00468Y00706D02*
X00467D01*
X00486Y00719*
X00612Y00861D02*
X00618Y00864D01*
X00619Y00865*
X00624Y00869*
X-00617Y00817D02*
X-00509Y00738D01*
X-00624Y00821D02*
X-00617Y00817D01*
X-00633Y00803D02*
X-00515Y00715D01*
X-00436Y0052D02*
Y00531D01*
X01127Y00602D02*
X01138D01*
X01126Y00602D02*
X01127Y00602D01*
X01128Y00766D02*
X01212Y00682D01*
X01225Y00673*
X01128Y00766D02*
Y00766D01*
X01155Y00766D02*
X01228Y00692D01*
X01177Y00769D02*
X01182D01*
X01175Y00771D02*
X01177Y00769D01*
X-01208Y00608D02*
X-01198D01*
X-01198Y00608*
X-0118*
X-01166Y00622D02*
X-01152Y00607D01*
X-01166Y00622D02*
D01*
X-01208Y00621D02*
X-01166Y00622D01*
X-01135Y00632D02*
X-0113Y00627D01*
X-01135Y00632D02*
D01*
X-01172Y006D02*
Y00602D01*
X-02504Y00637D02*
D01*
X-02524Y00757D02*
X-02442Y0084D01*
Y00884*
X-0242Y00906*
X-02413*
X-02412Y00907*
X-02393Y00916*
X-02375Y00927*
X-02298Y0095*
X-02297Y0095*
X-01152Y00607D02*
X-01149D01*
X-0121Y00677D02*
X-01129Y00757D01*
X-01151Y00767D02*
X-0115Y00766D01*
Y00765D02*
Y00766D01*
X-01153Y00762D02*
X-0115Y00765D01*
X-01153Y00756D02*
Y00762D01*
X-01271Y00746D02*
Y00793D01*
X-01272Y00805D02*
X-01271Y00804D01*
Y00793D02*
Y00804D01*
Y00793D02*
X-01271Y00793D01*
X01242Y00589D02*
X02435Y00578D01*
X00187Y00721D02*
X00468D01*
X00448Y00777D02*
X00454D01*
X00444Y0078D02*
X00448Y00777D01*
X00432Y0078D02*
X00444D01*
X00429Y00777D02*
X00432Y0078D01*
X00418Y00777D02*
X00429D01*
X02545Y00666D02*
X02554Y00675D01*
X02545Y00637D02*
Y00666D01*
X-02375Y00811D02*
Y00853D01*
X-02426Y00769D02*
X-0242D01*
X-02378Y00811D02*
X-02375D01*
X-0242Y00769D02*
X-02378Y00811D01*
X-02474Y00735D02*
X-02387Y00823D01*
X-02398Y00826D02*
Y00864D01*
X-02484Y00739D02*
X-02398Y00826D01*
X-02409Y00829D02*
Y0087D01*
X-02494Y00743D02*
X-02409Y00829D01*
X-02421Y00831D02*
Y00874D01*
X-02504Y00747D02*
X-02421Y00831D01*
X-02432Y00836D02*
Y00878D01*
X-02514Y00753D02*
X-02432Y00836D01*
X-02386Y00823D02*
Y0086D01*
X-02387Y00823D02*
X-02386D01*
X-00436Y00531D02*
X-00415Y00553D01*
X02563Y00581D02*
X02565Y00583D01*
X02512Y00583D02*
X02515Y00581D01*
X02562Y00598D02*
X02566Y00595D01*
X02541Y00617D02*
X02554D01*
X02524Y00625D02*
Y00627D01*
X02556Y00615D02*
X0256D01*
X02554Y00617D02*
X02556Y00615D01*
X02535Y00598D02*
X02562D01*
X02508Y0069D02*
X02515Y00697D01*
Y00751*
X02421Y00829D02*
Y00872D01*
X02432Y00834D02*
X02515Y00751D01*
X02453Y00717D02*
Y00755D01*
Y00717D02*
X02469D01*
X00454Y00777D02*
X00457Y00774D01*
X-02474Y00735D02*
X-02464D01*
X-02459Y0073*
X-02432Y00878D02*
X-02415Y00895D01*
X-02412*
X-02421Y00874D02*
X-02412Y00883D01*
X-02409Y0087D02*
X-02404Y00875D01*
X-02398Y00864D02*
X-02393Y00868D01*
X-02386Y0086D02*
X-02375Y00867D01*
X-02296Y00878D02*
X-02212Y00903D01*
X-02027Y00959D02*
X-02004Y00966D01*
X-01909Y00994D02*
X-01884Y01D01*
X-00747Y00868D02*
X-00685Y00834D01*
X-01308Y01039D02*
X-01229Y01028D01*
X-01158Y01015*
X-01011Y00977D02*
X-00935Y00951D01*
X-00685Y00834D02*
X-00633Y00803D01*
X-01582Y01046D02*
X-0152Y01046D01*
X-01454Y01046*
X-00935Y00951D02*
X-00872Y00926D01*
X-02004Y00966D02*
X-01981Y00973D01*
X-01812Y01016D02*
X-01739Y01029D01*
X-01667Y01039*
X-02212Y00905D02*
X-02027Y00959D01*
X-01958Y0098D02*
X-01934Y00987D01*
X-01909Y00994*
X-01088Y00998D02*
X-01011Y00977D01*
X-02298Y00878D02*
X-02297Y00878D01*
X-02212Y00905D02*
X-02212Y00903D01*
X-01624Y01043D02*
X-01582Y01046D01*
X-01388Y01046D02*
X-01308Y01039D01*
X-0081Y00899D02*
X-00747Y00868D01*
X-01884Y01D02*
X-01812Y01016D01*
X-01158Y01015D02*
X-01088Y00998D01*
X-00872Y00926D02*
X-0081Y00899D01*
X-02375Y00855D02*
X-02298Y00878D01*
X-01981Y00973D02*
X-01958Y0098D01*
X-01667Y01039D02*
X-01624Y01043D01*
X-01454Y01046D02*
X-01388Y01046D01*
X-02296Y0089D02*
X-02212Y00915D01*
X-01909Y01006D02*
X-01884Y01012D01*
X-01454Y01058D02*
X-01388Y01058D01*
X-02027Y00971D02*
X-02004Y00978D01*
X-01158Y01027D02*
X-01088Y0101D01*
X-0081Y00911D02*
X-00747Y0088D01*
X-02212Y00917D02*
X-02212Y00915D01*
X-01884Y01012D02*
X-01812Y01028D01*
X-01667Y01051D02*
X-01624Y01055D01*
X-01388Y01058D02*
X-01308Y01051D01*
X-00872Y00938D02*
X-0081Y00911D01*
X-02298Y0089D02*
X-02297Y0089D01*
X-02212Y00917D02*
X-02027Y00971D01*
X-01958Y00992D02*
X-01934Y00999D01*
X-01624Y01055D02*
X-01582Y01058D01*
X-01088Y0101D02*
X-01011Y00989D01*
X-02004Y00978D02*
X-01981Y00985D01*
X-01934Y00999D02*
X-01909Y01006D01*
X-01812Y01028D02*
X-01739Y01041D01*
X-0152Y01058D02*
X-01454Y01058D01*
X-02375Y00867D02*
X-02298Y0089D01*
X-01739Y01041D02*
X-01667Y01051D01*
X-01582Y01058D02*
X-0152Y01058D01*
X-01229Y0104D02*
X-01158Y01027D01*
X-01011Y00989D02*
X-00935Y00963D01*
X-00872Y00938*
X-01981Y00985D02*
X-01958Y00992D01*
X-01308Y01051D02*
X-01229Y0104D01*
X-00747Y0088D02*
X-00685Y00846D01*
X-02212Y00929D02*
X-02027Y00983D01*
X-01958Y01004D02*
X-01934Y01011D01*
X-01884Y01024D02*
X-01812Y0104D01*
X-01158Y01039D02*
X-01088Y01022D01*
X-00872Y0095D02*
X-0081Y00923D01*
X-02298Y00902D02*
X-02297Y00902D01*
X-02004Y0099D02*
X-01981Y00997D01*
X-01934Y01011D02*
X-01909Y01018D01*
X-01624Y01067D02*
X-01582Y0107D01*
X-0152Y0107D02*
X-01454Y0107D01*
X-01582Y0107D02*
X-0152Y0107D01*
X-01088Y01022D02*
X-01011Y01001D01*
X-02393Y00868D02*
X-02375Y00879D01*
X-01812Y0104D02*
X-01739Y01053D01*
X-01667Y01063*
X-00685Y00858D02*
X-00624Y00821D01*
X-01981Y00997D02*
X-01958Y01004D01*
X-01229Y01052D02*
X-01158Y01039D01*
X-00935Y00975D02*
X-00872Y0095D01*
X-00747Y00892D02*
X-00685Y00858D01*
X-01909Y01018D02*
X-01884Y01024D01*
X-01454Y0107D02*
X-01388Y0107D01*
X-01308Y01063D02*
X-01229Y01052D01*
X-01011Y01001D02*
X-00935Y00975D01*
X-02296Y00902D02*
X-02212Y00927D01*
X-02027Y00983D02*
X-02004Y0099D01*
X-0081Y00923D02*
X-00747Y00892D01*
X-02375Y00879D02*
X-02298Y00902D01*
X-02212Y00929D02*
X-02212Y00927D01*
X-01667Y01063D02*
X-01624Y01067D01*
X-01388Y0107D02*
X-01308Y01063D01*
X-02393Y0088D02*
X-02375Y00891D01*
X-01981Y01009D02*
X-01958Y01016D01*
X-01812Y01052D02*
X-01739Y01065D01*
X-01667Y01075*
X-00747Y00904D02*
X-00685Y0087D01*
X-01454Y01082D02*
X-01388Y01082D01*
X-01229Y01064D02*
X-01158Y01051D01*
X-00935Y00987D02*
X-00872Y00962D01*
X-01909Y0103D02*
X-01884Y01036D01*
X-01308Y01075D02*
X-01229Y01064D01*
X-01011Y01013D02*
X-00935Y00987D01*
X-0081Y00935D02*
X-00747Y00904D01*
X-02296Y00914D02*
X-02212Y00939D01*
X-02212Y00941D02*
X-02212Y00939D01*
X-02027Y00995D02*
X-02004Y01002D01*
X-01388Y01082D02*
X-01308Y01075D01*
X-02375Y00891D02*
X-02298Y00914D01*
X-02212Y00941D02*
X-02027Y00995D01*
X-01958Y01016D02*
X-01934Y01023D01*
X-01667Y01075D02*
X-01624Y01079D01*
X-02004Y01002D02*
X-01981Y01009D01*
X-01934Y01023D02*
X-01909Y0103D01*
X-01884Y01036D02*
X-01812Y01052D01*
X-0152Y01082D02*
X-01454Y01082D01*
X-01158Y01051D02*
X-01088Y01034D01*
X-00872Y00962D02*
X-0081Y00935D01*
X-02404Y00875D02*
X-02393Y0088D01*
X-02298Y00914D02*
X-02297Y00914D01*
X-01624Y01079D02*
X-01582Y01082D01*
X-0152Y01082*
X-01088Y01034D02*
X-01011Y01013D01*
X-00685Y0087D02*
X-00624Y00833D01*
X-02296Y00962D02*
X-02212Y00987D01*
X-02027Y01043D02*
X-02004Y0105D01*
X-0081Y00983D02*
X-00747Y00952D01*
X-01909Y01078D02*
X-01884Y01084D01*
X-01454Y0113D02*
X-01388Y0113D01*
X-01308Y01123D02*
X-01229Y01112D01*
X-01011Y01061D02*
X-00935Y01035D01*
X-01981Y01057D02*
X-01958Y01064D01*
X-01229Y01112D02*
X-01158Y01099D01*
X-00935Y01035D02*
X-00872Y0101D01*
X-00747Y00952D02*
X-00685Y00918D01*
X-01812Y011D02*
X-01739Y01113D01*
X-01667Y01123*
X-00685Y00918D02*
X-00624Y00881D01*
X-01582Y0113D02*
X-0152Y0113D01*
X-01088Y01082D02*
X-01011Y01061D01*
X-02004Y0105D02*
X-01981Y01057D01*
X-01934Y01071D02*
X-01909Y01078D01*
X-01624Y01127D02*
X-01582Y0113D01*
X-0152Y0113D02*
X-01454Y0113D01*
X-02212Y00989D02*
X-02027Y01043D01*
X-01958Y01064D02*
X-01934Y01071D01*
X-01884Y01084D02*
X-01812Y011D01*
X-01158Y01099D02*
X-01088Y01082D01*
X-00872Y0101D02*
X-0081Y00983D01*
X-02212Y00989D02*
X-02212Y00987D01*
X-01667Y01123D02*
X-01624Y01127D01*
X-01388Y0113D02*
X-01308Y01123D01*
X-02004Y01038D02*
X-01981Y01045D01*
X-01812Y01088D02*
X-01739Y01101D01*
X-0152Y01118D02*
X-01454Y01118D01*
X-02212Y00977D02*
X-02027Y01031D01*
X-01934Y01059D02*
X-01909Y01066D01*
X-01088Y0107D02*
X-01011Y01049D01*
X-02212Y00977D02*
X-02212Y00975D01*
X-01958Y01052D02*
X-01934Y01059D01*
X-01884Y01072D02*
X-01812Y01088D01*
X-01624Y01115D02*
X-01582Y01118D01*
X-01388Y01118D02*
X-01308Y01111D01*
X-01667Y01111D02*
X-01624Y01115D01*
X-01158Y01087D02*
X-01088Y0107D01*
X-00872Y00998D02*
X-0081Y00971D01*
X-00747Y0094*
X-02027Y01031D02*
X-02004Y01038D01*
X-01454Y01118D02*
X-01388Y01118D01*
X-02296Y0095D02*
X-02212Y00975D01*
X-01981Y01045D02*
X-01958Y01052D01*
X-01909Y01066D02*
X-01884Y01072D01*
X-00747Y0094D02*
X-00685Y00906D01*
X-01308Y01111D02*
X-01229Y011D01*
X-01011Y01049D02*
X-00935Y01023D01*
X-00872Y00998*
X-00685Y00906D02*
X-00624Y00869D01*
X-01739Y01101D02*
X-01667Y01111D01*
X-01582Y01118D02*
X-0152Y01118D01*
X-01229Y011D02*
X-01158Y01087D01*
X-02375Y00915D02*
X-02298Y00938D01*
X-02027Y01019D02*
X-02004Y01026D01*
X-01454Y01106D02*
X-01388Y01106D01*
X-02296Y00938D02*
X-02212Y00963D01*
X-01981Y01033D02*
X-01958Y0104D01*
X-01909Y01054D02*
X-01884Y0106D01*
X-00747Y00928D02*
X-00685Y00894D01*
X-01308Y01099D02*
X-01229Y01088D01*
X-01011Y01037D02*
X-00935Y01011D01*
X-00872Y00986*
X-02393Y00904D02*
X-02375Y00915D01*
X-01739Y01089D02*
X-01667Y01099D01*
X-01582Y01106D02*
X-0152Y01106D01*
X-01229Y01088D02*
X-01158Y01075D01*
X-02412Y00895D02*
X-02393Y00904D01*
X-02004Y01026D02*
X-01981Y01033D01*
X-01812Y01076D02*
X-01739Y01089D01*
X-0152Y01106D02*
X-01454Y01106D01*
X-02298Y00938D02*
X-02297Y00938D01*
X-02212Y00965D02*
X-02027Y01019D01*
X-01934Y01047D02*
X-01909Y01054D01*
X-01624Y01103D02*
X-01582Y01106D01*
X-01088Y01058D02*
X-01011Y01037D01*
X-02212Y00965D02*
X-02212Y00963D01*
X-01958Y0104D02*
X-01934Y01047D01*
X-01884Y0106D02*
X-01812Y01076D01*
X-01667Y01099D02*
X-01624Y01103D01*
X-01388Y01106D02*
X-01308Y01099D01*
X-00872Y00986D02*
X-0081Y00959D01*
X-01158Y01075D02*
X-01088Y01058D01*
X-0081Y00959D02*
X-00747Y00928D01*
X-02212Y00953D02*
X-02212Y00951D01*
X-01958Y01028D02*
X-01934Y01035D01*
X-01884Y01048D02*
X-01812Y01064D01*
X-01624Y01091D02*
X-01582Y01094D01*
X-01388Y01094D02*
X-01308Y01087D01*
X-02412Y00883D02*
X-02393Y00892D01*
X-02298Y00926D02*
X-02297Y00926D01*
X-02212Y00953D02*
X-02027Y01007D01*
X-01934Y01035D02*
X-01909Y01042D01*
X-01088Y01046D02*
X-01011Y01025D01*
X-02004Y01014D02*
X-01981Y01021D01*
X-01812Y01064D02*
X-01739Y01077D01*
X-0152Y01094D02*
X-01454Y01094D01*
X-02393Y00892D02*
X-02375Y00903D01*
X-01739Y01077D02*
X-01667Y01087D01*
X-01582Y01094D02*
X-0152Y01094D01*
X-01229Y01076D02*
X-01158Y01063D01*
X-01308Y01087D02*
X-01229Y01076D01*
X-01011Y01025D02*
X-00935Y00999D01*
X-00872Y00974*
X-00685Y00882D02*
X-00624Y00845D01*
X-02296Y00926D02*
X-02212Y00951D01*
X-01981Y01021D02*
X-01958Y01028D01*
X-01909Y01042D02*
X-01884Y01048D01*
X-00747Y00916D02*
X-00685Y00882D01*
X-02375Y00903D02*
X-02298Y00926D01*
X-02027Y01007D02*
X-02004Y01014D01*
X-01454Y01094D02*
X-01388Y01094D01*
X-01667Y01087D02*
X-01624Y01091D01*
X-01158Y01063D02*
X-01088Y01046D01*
X-00872Y00974D02*
X-0081Y00947D01*
X-00747Y00916*
X02427Y00767D02*
X02443Y00751D01*
Y00713D02*
Y00751D01*
X02431Y00777D02*
X02453Y00755D01*
X-02749Y00627D02*
X-02747Y00625D01*
X-02758Y0067D02*
Y00749D01*
X-02759Y00669D02*
X-02758Y0067D01*
X-02759Y00667D02*
Y00669D01*
X-02744Y00677D02*
Y00739D01*
X-02634*
X-02758Y00749D02*
X-02663D01*
X-00422Y00771D02*
X-00407Y00763D01*
X-00398Y00746D02*
X-00322Y00822D01*
X02412Y00917D02*
X02412Y00917D01*
X02432Y00834D02*
Y00876D01*
X02409Y00827D02*
Y00868D01*
X02398Y00824D02*
Y00862D01*
X02431Y00777D02*
X02431D01*
X02386Y00821D02*
X02431Y00777D01*
X02386Y00821D02*
Y00858D01*
X02425Y00767D02*
X02427D01*
X02375Y00817D02*
X02425Y00767D01*
X02375Y00817D02*
Y00851D01*
X02415Y00893D02*
X02432Y00876D01*
X02412Y00893D02*
X02415D01*
X02412Y00881D02*
X02421Y00872D01*
X02405Y00873D02*
X02409Y00868D01*
X02393Y00866D02*
X02398Y00862D01*
X02375Y00865D02*
X02386Y00858D01*
X02375Y00877D02*
X02393Y00866D01*
X02375Y00889D02*
X02393Y00878D01*
X02405Y00873*
X02375Y00937D02*
X02393Y00926D01*
X02412Y00917*
X02375Y00913D02*
X02393Y00902D01*
X02412Y00893*
X02393Y0089D02*
X02412Y00881D01*
X02375Y00901D02*
X02393Y0089D01*
X01229Y01027D02*
X01308Y01038D01*
X01158Y01014D02*
X01229Y01027D01*
X00872Y00926D02*
X00935Y0095D01*
X01884Y00999D02*
X01909Y00993D01*
X00935Y0095D02*
X01011Y00976D01*
X00684Y00833D02*
X00747Y00867D01*
X02296Y00877D02*
X02373Y00854D01*
X02211Y00903D02*
X02296Y00877D01*
X02003Y00966D02*
X02027Y00959D01*
X01958Y00979D02*
X01981Y00972D01*
X01388Y01045D02*
X01454Y01045D01*
X01812Y01015D02*
X01884Y00999D01*
X01624Y01042D02*
X01666Y01038D01*
X01088Y00998D02*
X01158Y01014D01*
X02296Y00877D02*
X02296Y00877D01*
X02211Y00903D02*
X02211Y00904D01*
X01308Y01038D02*
X01388Y01045D01*
X0081Y00898D02*
X00872Y00926D01*
X00747Y00867D02*
X0081Y00898D01*
X02027Y00959D02*
X02211Y00904D01*
X01933Y00986D02*
X01958Y00979D01*
X01909Y00993D02*
X01933Y00986D01*
X01582Y01045D02*
X01624Y01042D01*
X01011Y00976D02*
X01088Y00998D01*
X01981Y00972D02*
X02003Y00966D01*
X01739Y01028D02*
X01812Y01015D01*
X01666Y01038D02*
X01739Y01028D01*
X0152Y01045D02*
X01582Y01045D01*
X01454Y01045D02*
X0152Y01045D01*
X02296Y00889D02*
X02373Y00866D01*
X01909Y01005D02*
X01933Y00998D01*
X01739Y0104D02*
X01812Y01027D01*
X01454Y01057D02*
X0152Y01057D01*
X02027Y00971D02*
X02211Y00916D01*
X01981Y00984D02*
X02003Y00978D01*
X01933Y00998D02*
X01958Y00991D01*
X01011Y00988D02*
X01088Y0101D01*
X02296Y00889D02*
X02296Y00889D01*
X02211Y00915D02*
X02211Y00916D01*
X01812Y01027D02*
X01884Y01011D01*
X01582Y01057D02*
X01624Y01054D01*
X01308Y0105D02*
X01388Y01057D01*
X01088Y0101D02*
X01158Y01026D01*
X0081Y0091D02*
X00872Y00938D01*
X00747Y00879D02*
X0081Y0091D01*
X02003Y00978D02*
X02027Y00971D01*
X01624Y01054D02*
X01666Y0105D01*
X01388Y01057D02*
X01454Y01057D01*
X02211Y00915D02*
X02296Y00889D01*
X01958Y00991D02*
X01981Y00984D01*
X01884Y01011D02*
X01909Y01005D01*
X01229Y01039D02*
X01308Y0105D01*
X01158Y01026D02*
X01229Y01039D01*
X00935Y00962D02*
X01011Y00988D01*
X00684Y00845D02*
X00747Y00879D01*
X01666Y0105D02*
X01739Y0104D01*
X0152Y01057D02*
X01582Y01057D01*
X00872Y00938D02*
X00935Y00962D01*
X02027Y00983D02*
X02211Y00928D01*
X02003Y0099D02*
X02027Y00983D01*
X01933Y0101D02*
X01958Y01003D01*
X01624Y01066D02*
X01666Y01062D01*
X01308Y01062D02*
X01388Y01069D01*
X01088Y01022D02*
X01158Y01038D01*
X02296Y00901D02*
X02373Y00878D01*
X02211Y00927D02*
X02296Y00901D01*
X02211Y00927D02*
X02211Y00928D01*
X00747Y00891D02*
X0081Y00922D01*
X01884Y01023D02*
X01909Y01017D01*
X00935Y00974D02*
X01011Y01D01*
X01958Y01003D02*
X01981Y00996D01*
X01666Y01062D02*
X01739Y01052D01*
X01388Y01069D02*
X01454Y01069D01*
X01229Y01051D02*
X01308Y01062D01*
X00872Y0095D02*
X00935Y00974D01*
X01739Y01052D02*
X01812Y01039D01*
X01158Y01038D02*
X01229Y01051D01*
X00684Y00857D02*
X00747Y00891D01*
X01011Y01D02*
X01088Y01022D01*
X02296Y00901D02*
X02296Y00901D01*
X01812Y01039D02*
X01884Y01023D01*
X01582Y01069D02*
X01624Y01066D01*
X0152Y01069D02*
X01582Y01069D01*
X01454Y01069D02*
X0152Y01069D01*
X01981Y00996D02*
X02003Y0099D01*
X01909Y01017D02*
X01933Y0101D01*
X0081Y00922D02*
X00872Y0095D01*
X01666Y01074D02*
X01739Y01064D01*
X01158Y0105D02*
X01229Y01063D01*
X00872Y00962D02*
X00935Y00986D01*
X00684Y00869D02*
X00747Y00903D01*
X01739Y01064D02*
X01812Y01051D01*
X0152Y01081D02*
X01582Y01081D01*
X01454Y01081D02*
X0152Y01081D01*
X01011Y01012D02*
X01088Y01034D01*
X02296Y00913D02*
X02296Y00913D01*
X01981Y01008D02*
X02003Y01002D01*
X01909Y01029D02*
X01933Y01022D01*
X01812Y01051D02*
X01884Y01035D01*
X01582Y01081D02*
X01624Y01078D01*
X02027Y00995D02*
X02211Y0094D01*
X01933Y01022D02*
X01958Y01015D01*
X01308Y01074D02*
X01388Y01081D01*
X01088Y01034D02*
X01158Y0105D01*
X0081Y00934D02*
X00872Y00962D01*
X02296Y00913D02*
X02373Y0089D01*
X02211Y00939D02*
X02211Y0094D01*
X02003Y01002D02*
X02027Y00995D01*
X01624Y01078D02*
X01666Y01074D01*
X00747Y00903D02*
X0081Y00934D01*
X02211Y00939D02*
X02296Y00913D01*
X01884Y01035D02*
X01909Y01029D01*
X01958Y01015D02*
X01981Y01008D01*
X01388Y01081D02*
X01454Y01081D01*
X01229Y01063D02*
X01308Y01074D01*
X00935Y00986D02*
X01011Y01012D01*
Y0106D02*
X01088Y01082D01*
X00624Y00881D02*
X00684Y00917D01*
X01739Y01112D02*
X01812Y01099D01*
X01158Y01098D02*
X01229Y01111D01*
X00684Y00917D02*
X00747Y00951D01*
X01958Y01063D02*
X01981Y01056D01*
X01666Y01122D02*
X01739Y01112D01*
X01388Y01129D02*
X01454Y01129D01*
X01229Y01111D02*
X01308Y01122D01*
X00872Y0101D02*
X00935Y01034D01*
X01884Y01083D02*
X01909Y01077D01*
X00935Y01034D02*
X01011Y0106D01*
X00571Y00846D02*
X00624Y00881D01*
X02296Y00961D02*
X02373Y00938D01*
X02211Y00987D02*
X02296Y00961D01*
X02211Y00987D02*
X02211Y00988D01*
X00747Y00951D02*
X0081Y00982D01*
X02027Y01043D02*
X02211Y00988D01*
X02003Y0105D02*
X02027Y01043D01*
X01933Y0107D02*
X01958Y01063D01*
X01624Y01126D02*
X01666Y01122D01*
X01308Y01122D02*
X01388Y01129D01*
X01088Y01082D02*
X01158Y01098D01*
X02296Y00961D02*
X02296Y00961D01*
X01981Y01056D02*
X02003Y0105D01*
X01909Y01077D02*
X01933Y0107D01*
X01812Y01099D02*
X01884Y01083D01*
X0081Y00982D02*
X00872Y0101D01*
X01582Y01129D02*
X01624Y01126D01*
X0152Y01129D02*
X01582Y01129D01*
X01454Y01129D02*
X0152Y01129D01*
X02211Y00975D02*
X02211Y00976D01*
X01812Y01087D02*
X01884Y01071D01*
X01582Y01117D02*
X01624Y01114D01*
X01308Y0111D02*
X01388Y01117D01*
X0081Y0097D02*
X00872Y00998D01*
X00747Y00939D02*
X0081Y0097D01*
X02027Y01031D02*
X02211Y00976D01*
X01933Y01058D02*
X01958Y01051D01*
X01909Y01065D02*
X01933Y01058D01*
X01981Y01044D02*
X02003Y01038D01*
X01739Y011D02*
X01812Y01087D01*
X01011Y01048D02*
X01088Y0107D01*
X01666Y0111D02*
X01739Y011D01*
X0152Y01117D02*
X01582Y01117D01*
X01454Y01117D02*
X0152Y01117D01*
X01229Y01099D02*
X01308Y0111D01*
X01158Y01086D02*
X01229Y01099D01*
X00872Y00998D02*
X00935Y01022D01*
X00624Y00869D02*
X00684Y00905D01*
X02211Y00975D02*
X02296Y00949D01*
X01884Y01071D02*
X01909Y01065D01*
X00935Y01022D02*
X01011Y01048D01*
X00684Y00905D02*
X00747Y00939D01*
X02003Y01038D02*
X02027Y01031D01*
X01958Y01051D02*
X01981Y01044D01*
X01388Y01117D02*
X01454Y01117D01*
X01624Y01114D02*
X01666Y0111D01*
X01088Y0107D02*
X01158Y01086D01*
X02211Y00963D02*
X02296Y00937D01*
X01884Y01059D02*
X01909Y01053D01*
X00935Y0101D02*
X01011Y01036D01*
X00684Y00893D02*
X00747Y00927D01*
X02003Y01026D02*
X02027Y01019D01*
X01958Y01039D02*
X01981Y01032D01*
X01388Y01105D02*
X01454Y01105D01*
X02296Y00937D02*
X02373Y00914D01*
X01624Y01102D02*
X01666Y01098D01*
X01088Y01058D02*
X01158Y01074D01*
X02211Y00963D02*
X02211Y00964D01*
X01812Y01075D02*
X01884Y01059D01*
X01582Y01105D02*
X01624Y01102D01*
X01308Y01098D02*
X01388Y01105D01*
X0081Y00958D02*
X00872Y00986D01*
X00747Y00927D02*
X0081Y00958D01*
X02296Y00937D02*
X02296Y00937D01*
X02027Y01019D02*
X02211Y00964D01*
X01933Y01046D02*
X01958Y01039D01*
X01909Y01053D02*
X01933Y01046D01*
X01981Y01032D02*
X02003Y01026D01*
X01739Y01088D02*
X01812Y01075D01*
X01011Y01036D02*
X01088Y01058D01*
X01666Y01098D02*
X01739Y01088D01*
X0152Y01105D02*
X01582Y01105D01*
X01454Y01105D02*
X0152Y01105D01*
X01229Y01087D02*
X01308Y01098D01*
X01158Y01074D02*
X01229Y01087D01*
X00872Y00986D02*
X00935Y0101D01*
X01981Y0102D02*
X02003Y01014D01*
X01739Y01076D02*
X01812Y01063D01*
X01011Y01024D02*
X01088Y01046D01*
X02296Y00925D02*
X02296Y00925D01*
X02027Y01007D02*
X02211Y00952D01*
X01933Y01034D02*
X01958Y01027D01*
X01909Y01041D02*
X01933Y01034D01*
X02211Y00951D02*
X02211Y00952D01*
X01812Y01063D02*
X01884Y01047D01*
X01582Y01093D02*
X01624Y0109D01*
X01308Y01086D02*
X01388Y01093D01*
X0081Y00946D02*
X00872Y00974D01*
X00747Y00915D02*
X0081Y00946D01*
X02296Y00925D02*
X02373Y00902D01*
X01624Y0109D02*
X01666Y01086D01*
X01088Y01046D02*
X01158Y01062D01*
X02003Y01014D02*
X02027Y01007D01*
X01958Y01027D02*
X01981Y0102D01*
X01388Y01093D02*
X01454Y01093D01*
X02211Y00951D02*
X02296Y00925D01*
X01884Y01047D02*
X01909Y01041D01*
X00935Y00998D02*
X01011Y01024D01*
X00684Y00881D02*
X00747Y00915D01*
X01229Y01075D02*
X01308Y01086D01*
X01158Y01062D02*
X01229Y01075D01*
X00872Y00974D02*
X00935Y00998D01*
X01666Y01086D02*
X01739Y01076D01*
X0152Y01093D02*
X01582Y01093D01*
X01454Y01093D02*
X0152Y01093D01*
G54D14*
X-02692Y00865D02*
X-02688Y0087D01*
X-02695Y00865D02*
X-02692D01*
X-02688Y0087D02*
X-02634D01*
X-02703Y00858D02*
X-02702D01*
X-02695Y00865*
G54D32*
X02461Y00659D03*
G54D46*
X-00461Y00374D02*
D01*
X-00457Y00374*
X-00452Y00374*
X-00448Y00375*
X-00444Y00376*
X-0044Y00377*
X-00436Y00379*
X-00432Y00381*
X-00428Y00383*
X-00424Y00386*
X-00421Y00388*
X-00418Y00391*
X-00417Y00392*
X-00542Y00327D02*
D01*
X-00546Y00323*
X-00548Y00319*
X-00551Y00316*
X-00554Y00312*
X-00556Y00307*
X-00558Y00303*
X-00559Y00299*
X-0056Y00294*
X-00561Y00291*
X-00569Y00245D02*
D01*
X-00568Y00246*
X-00566Y00247*
X-00565Y00249*
X-00564Y00251*
X-00563Y00252*
X-00563Y00254*
X-00562Y00256*
X-00562Y00256*
X-00587Y00237D02*
D01*
X-00586Y00237*
X-00584Y00237*
X-00582Y00238*
X-0058Y00238*
X-00578Y00239*
X-00577Y00239*
X-00575Y0024*
X-00574Y00241*
X-00572Y00242*
X-00571Y00243*
X-00569Y00244*
X-00569Y00245*
X-00461Y00374D02*
D01*
X-00467Y00374*
X-00472Y00373*
X-00478Y00372*
X-00484Y0037*
X-00489Y00369*
X-00495Y00367*
X-005Y00364*
X-00505Y00361*
X-0051Y00358*
X-00514Y00354*
X-00518Y0035*
X-00519Y00349*
X-00561Y00264D02*
Y00291D01*
X-00631Y00237D02*
X-00587D01*
X-00542Y00327D02*
X-00519Y00349D01*
G54D47*
X00411Y00178D02*
D01*
X00412Y00177*
X00414Y00176*
X00416Y00175*
X00417Y00174*
X00419Y00173*
X00421Y00172*
X00423Y00171*
X00425Y00171*
X00427Y0017*
X00429Y0017*
X00431Y0017*
X00431Y0017*
X00381Y00366D02*
D01*
X00383Y00368*
X00385Y00371*
X00387Y00374*
X00389Y00377*
X00391Y0038*
X00392Y00383*
X00393Y00386*
X00394Y0039*
X00395Y00393*
X00395Y00397*
X00396Y004*
X00396Y00401*
X00363Y00348D02*
D01*
X00361Y00346*
X0036Y00344*
X00358Y00342*
X00357Y0034*
X00356Y00338*
X00355Y00335*
X00354Y00333*
X00354Y00331*
X00353Y00328*
X00353Y00326*
X00353Y00323*
X00353Y00323*
X00396Y00401D02*
X00398Y00489D01*
X00353Y00306D02*
Y00323D01*
X00404Y00185D02*
X00411Y00178D01*
X00366Y0027D02*
X00403Y00186D01*
X00366Y0027D02*
X00366Y0027D01*
X00353Y00306D02*
X00366Y0027D01*
X00403Y00186D02*
X00404Y00185D01*
X00547Y00219D02*
X00569Y00269D01*
X00547Y00218D02*
X00547Y00219D01*
X00545Y00216D02*
X00547Y00218D01*
X00363Y00348D02*
X00381Y00366D01*
X-02438Y0064D02*
X-02436Y00639D01*
X-02447Y0064D02*
X-02438D01*
X00554Y00269D02*
X00569D01*
X01126Y0069D02*
Y00694D01*
X01126Y0069D02*
X01126Y0069D01*
X01126Y00657D02*
Y0069D01*
Y00657D02*
X01134Y00649D01*
X-01135Y00695D02*
X-01129Y00701D01*
X-01135Y00652D02*
Y00695D01*
G54D48*
X02595Y00613D02*
D01*
X02595Y00613*
X02595Y00613*
X02594Y00613*
X02594Y00614*
X02594Y00614*
X02594Y00614*
X02593Y00614*
X02593Y00614*
X02592Y00614*
X02592Y00614*
X02592Y00614*
X02592Y00614*
X026Y00604D02*
D01*
X026Y00605*
X026Y00606*
X02599Y00606*
X02599Y00607*
X02599Y00608*
X02599Y00608*
X02598Y00609*
X02598Y0061*
X02598Y0061*
X02597Y00611*
X02597Y00611*
X02597Y00611*
X02595Y00613D02*
D01*
X02595Y00613*
X02595Y00613*
X02595Y00613*
X02595Y00613*
X02595Y00613*
X02595Y00613*
X-02747Y00593D02*
X-02719Y00565D01*
X-02747Y00593D02*
Y00625D01*
X-02719Y00565D02*
X-0263D01*
X0256Y0066D02*
X02563D01*
X02565Y00625D02*
X02566Y00626D01*
X02591Y00614D02*
X02592D01*
X02595Y00613D02*
X02597Y00611D01*
X02595Y00613D02*
X02595D01*
X026Y006D02*
Y00604D01*
X02572Y00575D02*
Y00576D01*
X02594Y00594D02*
X026Y006D01*
X02591Y00594D02*
X02594D01*
X02572Y00576D02*
X02591Y00594D01*
X02588Y00618D02*
Y00618D01*
Y00618D02*
X02591Y00614D01*
X-02627Y0066D02*
X-02585D01*
X-0263Y00652D02*
X-02567D01*
X-02629Y00662D02*
X-02627Y0066D01*
X-02585D02*
X-0258Y00665D01*
X-02632Y00654D02*
X-0263Y00652D01*
X-02567D02*
X-0256Y00659D01*
X02695Y00831D02*
X02699D01*
X-02649Y00674D02*
X-02615D01*
X-0256Y00702D02*
X-0256Y00702D01*
X-02714Y00683D02*
X-02659D01*
X-02711Y00675D02*
X-02662D01*
X-02708Y00667D02*
X-02665D01*
X-02652Y00654*
X-02662Y00675D02*
X-02649Y00662D01*
X-02659Y00683D02*
X-02649Y00674D01*
X-02688Y00641D02*
Y00641D01*
Y00641D02*
X-02687Y0064D01*
X-02649Y00662D02*
X-02629D01*
X-02652Y00654D02*
X-02632D01*
X-02667Y00637D02*
Y00641D01*
Y00637D02*
X-02663Y00632D01*
X-02687Y0064D02*
Y00642D01*
X-02676Y00631*
X0271Y0066D02*
X02713D01*
X02672D02*
X0271D01*
X0268Y00644D02*
X02684Y00648D01*
X027*
X-02674Y00631D02*
X-02649Y00606D01*
X-02676Y00631D02*
X-02674D01*
X-0263Y00565D02*
X-02622Y00573D01*
X-02736Y00594D02*
X-02715Y00573D01*
X-02637*
X-02626Y00584*
X-02615Y00602D02*
X-02598D01*
X-02646Y00632D02*
X-02616Y00601D01*
X-02704Y00657D02*
X-02697Y00651D01*
X-02742Y00662D02*
X-02735D01*
X-02725Y00647D02*
Y00661D01*
X-02735Y00662D02*
X-02714Y00683D01*
X-02725Y00661D02*
X-02711Y00675D01*
X-02716Y00659D02*
X-02708Y00667D01*
X-02716Y00652D02*
Y00659D01*
Y00652D02*
X-02715Y00651D01*
Y00643D02*
Y00651D01*
X-02716Y00642D02*
X-02715Y00643D01*
X-02716Y00635D02*
Y00642D01*
X-02727Y00626D02*
X-02725D01*
X-02736Y00616D02*
X-02727Y00626D01*
X-02716Y00635D02*
X-02714Y00633D01*
Y00615D02*
Y00633D01*
X-02719Y0061D02*
X-02714Y00615D01*
X02627Y00653D02*
X0263D01*
X02639Y00644*
X02627Y00641D02*
X02628D01*
X02646Y00623*
X0257Y00585D02*
X0259Y00604D01*
Y00604*
X02588Y00618D02*
X02589Y0062D01*
X02587Y00636D02*
X0259D01*
X02563Y0066D02*
X02587Y00636D01*
X0259D02*
X0259D01*
X02588Y00634D02*
X0259Y00636D01*
X00175Y00734D02*
X00187Y00721D01*
X00173Y00734D02*
X00175D01*
X-0256Y00659D02*
Y00702D01*
X0014Y00766D02*
X00173Y00734D01*
X0014Y00766D02*
Y00767D01*
X02569Y00585D02*
X0257D01*
X02568Y00583D02*
X02569Y00585D01*
X02565Y0062D02*
Y00625D01*
X0256Y00615D02*
X02565Y0062D01*
X-02616Y00601D02*
X-02615Y00602D01*
X02647Y00624D02*
X02653D01*
X02646Y00623D02*
X02647Y00624D01*
X02665Y00654D02*
X02672Y0066D01*
X02644Y00654D02*
X02665D01*
X02639Y00644D02*
X0268D01*
X-02776Y00626D02*
X-02762Y00612D01*
X-02776Y0065D02*
X-02759Y00667D01*
X-02761Y00644D02*
X-02742Y00662D01*
X-02663Y00632D02*
X-02646D01*
X-02776Y00626D02*
Y0065D01*
X-02736Y00594D02*
Y00616D01*
G54D50*
X00478Y00311D03*
X00502Y00245D03*
X00569Y00269D03*
X00545Y00335D03*
G54D51*
X00447Y00532D03*
X00483Y00584D03*
X00519Y00635D03*
X00555Y00687D03*
G54D52*
X-00447Y00532D03*
X-00483Y00584D03*
X-00519Y00635D03*
X-00555Y00687D03*
G54D53*
X-02447Y00318D03*
X02505Y00424D03*
X02506Y004D03*
X-02461Y00392D03*
X-02458Y00351D03*
X-00587Y00166D03*
X-00525Y00261D03*
X-00498Y00184D03*
X02478Y00617D03*
X02493Y00667D03*
X02519Y00583D03*
X02534Y00598D03*
X0256Y0066D03*
X-02549Y00633D03*
X-02509Y00602D03*
X-02446Y00615D03*
X0247Y00716D03*
X01138Y00624D03*
X01194Y00587D03*
X-02615Y00675D03*
X02615Y00833D03*
X02699Y00831D03*
X02698Y0086D03*
X-02703Y00858D03*
X02458Y00366D03*
X-02598Y00602D03*
X-02649Y00606D03*
X-02574Y00669D03*
X-0274Y00678D03*
X-00439Y00764D03*
X01154Y0059D03*
X0275Y00593D03*
X0042Y0059D03*
X-00066Y00797D03*
X-0256Y00706D03*
X01126Y00602D03*
X01128Y00766D03*
X01155Y00766D03*
X01175Y00771D03*
X01195Y0078D03*
X01126Y00694D03*
X-0113Y00627D03*
X-01172Y00602D03*
X-01192Y00593D03*
X-01149Y00607D03*
X-01129Y00757D03*
X-01151Y00767D03*
X-01172Y00771D03*
X-01272Y00805D03*
X-00401Y00771D03*
X02701Y0058D03*
X00438Y00765D03*
X00409Y00774D03*
X-02457Y0073D03*
X-02333Y00774D03*
X02294Y00857D03*
X02658Y00584D03*
X-02773Y00676D03*
X-02761Y00644D03*
X-02762Y00612D03*
G54D54*
X02566Y00595D03*
X02547Y00636D03*
X02566Y00626D03*
X-02688Y00641D03*
X-02667Y00641D03*
X0271Y0066D03*
X027Y00648D03*
X-02704Y00657D03*
X-02725Y00647D03*
Y00626D03*
X-02719Y0061D03*
X02627Y00653D03*
Y00641D03*
X0259Y00604D03*
Y0062D03*
X0259Y00636D03*
X02653Y00624D03*
X02644Y00654D03*
X-02749Y00627D03*
G54D55*
X-02447Y0064D03*
X02356Y0078D03*
X-01129Y00701D03*
X-00315Y00662D03*
G54D56*
X-02524Y00618D03*
X-02455Y00701D03*
G54D57*
X-02706Y00585D03*
G54D58*
X00398Y00568D02*
X0042Y0059D01*
X00398Y00489D02*
Y00568D01*
G54D59*
X00431Y0017D02*
X00545Y00216D01*
G54D61*
X01134Y00649D02*
X0243Y00637D01*
X-02442Y0064D02*
X-01135Y00652D01*
G54D62*
X0243Y00637D02*
D01*
X02432Y00637*
X02434Y00638*
X02435Y00638*
X02437Y00638*
X02438Y00639*
X0244Y00639*
X02441Y0064*
X02442Y00641*
X02444Y00642*
X02445Y00643*
X02446Y00644*
X02447Y00644*
X02461Y00659*
G54D63*
X-02632Y00836D03*
X-02685D03*
Y0087D03*
X-02632D03*
X02685Y00836D03*
X02632D03*
Y0087D03*
X02685D03*
G54D64*
X-02659Y00836D03*
Y0087D03*
X02659Y00836D03*
Y0087D03*
G54D65*
X-00619Y00163D03*
X-00631Y00237D03*
X-00469Y00188D03*
X-00481Y00262D03*
G54D66*
X-0014Y00767D03*
X0014D03*
M02*