%FSTAX23Y23*%
%MOIN*%
%SFA1B1*%

%IPPOS*%
%ADD73C,0.000100*%
%ADD74C,0.002000*%
%LNfront_flex-1*%
%LPD*%
G54D73*
X00367Y00578D02*
X00367Y00577D01*
X00368Y00575*
X00375Y0056*
X00383Y00523*
X00381Y00495D02*
X00383Y00523D01*
X00375Y00476D02*
X00381Y00495D01*
X00375Y00475D02*
X00375Y00476D01*
X00373Y00456D02*
X00375Y00475D01*
X00367Y00439D02*
X00373Y00456D01*
X00355Y00421D02*
X00367Y00439D01*
X00337Y00407D02*
X00355Y00421D01*
X00319Y00394D02*
X00337Y00407D01*
X00306Y00385D02*
X00319Y00394D01*
X00306Y00384D02*
X00306Y00385D01*
X00305Y00384D02*
X00306Y00384D01*
X00297Y00374D02*
X00305Y00384D01*
X00292Y00362D02*
X00297Y00374D01*
X00291Y00349D02*
X00292Y00362D01*
X00291Y00349D02*
X00291Y00347D01*
X0032Y00258*
X0032Y00257*
X00384Y00143*
X00384Y00141*
X00391Y00136*
X00399Y00133*
X00408Y00132*
X0041Y00132*
X00521Y00173*
X00567Y0019*
X00568Y0019*
X00604Y00212*
X00605Y00213*
X00605Y00213*
X00605*
X00624Y00238*
X00625Y00239*
X00639Y00279*
X00639Y0028*
X0064Y00312*
X0064Y00313D02*
X0064Y00312D01*
X00639Y00314D02*
X0064Y00313D01*
X00618Y00362D02*
X00639Y00314D01*
X00618Y00363D02*
X00618Y00362D01*
X00617Y00364D02*
X00618Y00363D01*
X00595Y00387D02*
X00617Y00364D01*
X00594Y00388D02*
X00595Y00387D01*
X00556Y00405D02*
X00594Y00388D01*
X00555Y00406D02*
X00556Y00405D01*
X00554Y00406D02*
X00555Y00406D01*
X00512Y00408D02*
X00554Y00406D01*
X00511Y00408D02*
X00512D01*
X0051Y00408D02*
X00511Y00408D01*
X00474Y00397D02*
X0051Y00408D01*
X00473Y00396D02*
X00474Y00397D01*
X00472Y00396D02*
X00473Y00396D01*
X00442Y0037D02*
X00472Y00396D01*
X00441Y00369D02*
X00442Y0037D01*
X00428Y00345D02*
X00441Y00369D01*
X00427Y00344D02*
X00428Y00345D01*
X00427Y00342D02*
X00427Y00344D01*
X00426Y0033D02*
X00427Y00342D01*
X00421Y00318D02*
X00426Y0033D01*
X00413Y00308D02*
X00421Y00318D01*
X0041Y00306D02*
X00413Y00308D01*
X00406Y00304D02*
X0041Y00306D01*
X00403Y00303D02*
X00406Y00304D01*
X00399Y00307D02*
X00403Y00303D01*
X00397Y00312D02*
X00399Y00307D01*
X00397Y00317D02*
X00397Y00312D01*
X00397Y00317D02*
X00397Y00323D01*
X004Y00329*
X00404Y00335*
X00406Y00336*
X00409Y00337*
X00411Y00338*
X00415Y00338*
X00419Y00339*
X00422Y00341*
X00424Y00344*
X00426Y00347*
X00454Y00393*
X00455Y00394*
X00461Y00415*
X00481Y00471*
X00498Y0051*
X00508Y00529*
X00541Y00584*
X00569Y00623*
X00597Y00655*
X0062Y00681*
X00639Y00702*
X0064Y00703*
X0064Y00704*
X0064Y00705*
Y00709*
X0066Y00729*
X00698Y00764*
X00737Y00796*
X00788Y00834*
X00841Y00869*
X00892Y00898*
X00951Y00928*
X0101Y00953*
X01066Y00973*
X01129Y00992*
X01192Y01006*
X01256Y01017*
X01321Y01024*
X01387Y01027*
X01446Y01026*
X01511Y01021*
X0157Y01015*
X01628Y01006*
X01715Y00991*
X01803Y00973*
X0189Y00951*
X01994Y00921*
X02029Y00909*
X02061Y00895*
X02093Y0088*
X02133Y00858*
X02174Y00831*
X02211Y00802*
X02214Y00804*
X02215Y00803*
X0227Y00757*
X02297Y00756*
X02417Y00755*
X0242Y00755*
X02423Y00754*
X02426Y00752*
X02429Y0075*
X02431Y00747*
X02432Y00743*
X02433Y0074*
X02432Y00718D02*
X02433Y0074D01*
X02432Y00716D02*
X02432Y00718D01*
X02432Y00715D02*
X02432Y00716D01*
X0243Y00715D02*
X02432Y00715D01*
X02382Y00716D02*
X0243Y00715D01*
X02342Y00716D02*
X02382Y00716D01*
X0221Y00717D02*
X02342Y00716D01*
X01925Y0072D02*
X0221Y00717D01*
X01326Y00725D02*
X01925Y0072D01*
X01324Y00726D02*
X01326Y00725D01*
X01323Y00831D02*
X01324Y00726D01*
X01312Y00842D02*
X01323Y00831D01*
X01054Y00842D02*
X01312D01*
X01054Y00573D02*
Y00842D01*
Y00573D02*
X01922Y00565D01*
X02207Y00562*
X02341Y00561*
X0238Y00561*
X02429Y0056*
X02437Y00554*
X02442Y00547*
X02446Y00539*
X02448Y0053*
X02448Y00521*
X02446Y00512D02*
X02448Y00521D01*
X02442Y00504D02*
X02446Y00512D01*
X02437Y00497D02*
X02442Y00504D01*
X0243Y00491D02*
X02437Y00497D01*
X02422Y00487D02*
X0243Y00491D01*
X02415Y00484D02*
X02422Y00487D01*
X02415Y00484D02*
X0242Y00465D01*
X0243Y0042*
X02435Y00374*
X02436Y00327*
X02433Y00283D02*
X02436Y00327D01*
X02433Y00283D02*
X02507Y00282D01*
X02512Y00326*
X02522Y00372*
X02538Y00416*
X02557Y00455*
X02481Y00456D02*
X02557Y00455D01*
X0248Y00456D02*
X02481Y00456D01*
X0248Y00559D02*
X0248Y00456D01*
X0248Y00559D02*
X0248Y0056D01*
X02566Y0056*
X02581Y0056*
X02726Y00559*
X02742Y00561*
X02758Y00566*
X02779Y00578*
X02793Y00598*
X02794Y00688*
X02795Y00733*
X02795Y00742*
X02795Y00787*
X02795Y00793*
X02796Y00891*
X02761D02*
X02796D01*
X02601Y00891D02*
X02761Y00891D01*
X026Y00796D02*
X02601Y00891D01*
X026Y00788D02*
X026Y00796D01*
X026Y00744D02*
X026Y00788D01*
X026Y00734D02*
X026Y00744D01*
X02599Y00691D02*
X026Y00734D01*
X02597Y00688D02*
X02599Y00691D01*
X02591Y00689D02*
X02597Y00688D01*
X02584Y00691D02*
X02591Y00689D01*
X02578Y00695D02*
X02584Y00691D01*
X02573Y007D02*
X02578Y00695D01*
X02569Y00707D02*
X02573Y007D01*
X02567Y00713D02*
X02569Y00707D01*
X02566Y00719D02*
X02567Y00713D01*
X02565Y0072D02*
X02566Y00719D01*
X02564Y0072D02*
X02565Y0072D01*
X02563Y00721D02*
X02564Y0072D01*
X02562Y00722D02*
X02563Y00721D01*
X02561Y00724D02*
X02562Y00722D01*
X02561Y00724D02*
X02562Y00729D01*
X02563Y0073*
X02564Y00731*
X02565Y00732*
X02566Y00732*
X02567Y00839*
X02567Y00842D02*
X02567Y00839D01*
X02566Y00846D02*
X02567Y00842D01*
X02564Y00848D02*
X02566Y00846D01*
X02562Y00851D02*
X02564Y00848D01*
X02559Y00853D02*
X02562Y00851D01*
X02556Y00854D02*
X02559Y00853D01*
X02553Y00854D02*
X02556Y00854D01*
X02551Y00854D02*
X02553D01*
X02489Y00855D02*
X02551Y00854D01*
X02488Y00855D02*
X02489Y00855D01*
X02487Y00907D02*
X02488Y00855D01*
X02467Y00912D02*
X02487Y00907D01*
X02447Y00919D02*
X02467Y00912D01*
X02411Y00935D02*
X02447Y00919D01*
X02376Y00954D02*
X02411Y00935D01*
X02299Y00977D02*
X02376Y00954D01*
X02215Y01002D02*
X02299Y00977D01*
X02213Y01004D02*
X02215Y01002D01*
X02029Y01058D02*
X02213Y01004D01*
X02008Y01065D02*
X02029Y01058D01*
X01985Y01072D02*
X02008Y01065D01*
X01961Y01079D02*
X01985Y01072D01*
X01887Y01099D02*
X01961Y01079D01*
X01816Y01115D02*
X01887Y01099D01*
X01745Y01128D02*
X01816Y01115D01*
X01665Y01138D02*
X01745Y01128D01*
X01585Y01145D02*
X01665Y01138D01*
X01391Y01145D02*
X01585Y01145D01*
X01317Y01138D02*
X01391Y01145D01*
X01243Y01128D02*
X01317Y01138D01*
X01164Y01114D02*
X01243Y01128D01*
X01094Y01098D02*
X01164Y01114D01*
X01024Y01079D02*
X01094Y01098D01*
X00948Y01053D02*
X01024Y01079D01*
X0088Y01027D02*
X00948Y01053D01*
X00814Y00998D02*
X0088Y01027D01*
X00751Y00967D02*
X00814Y00998D01*
X00689Y00933D02*
X00751Y00967D01*
X00628Y00897D02*
X00689Y00933D01*
X00575Y00862D02*
X00628Y00897D01*
X00523Y00825D02*
X00575Y00862D01*
X00473Y00786D02*
X00523Y00825D01*
X00433Y00786D02*
X00473Y00786D01*
X00396Y00818D02*
X00433Y00786D01*
X00376Y00836D02*
X00396Y00818D01*
X00369Y00839D02*
X00376Y00836D01*
X00355Y00851D02*
X00369Y00839D01*
X00344Y0086D02*
X00355Y00851D01*
X00326Y0085D02*
X00344Y0086D01*
X00325Y0085D02*
X00326Y0085D01*
X00321Y00849D02*
X00325Y0085D01*
X00317Y00848D02*
X00321Y00849D01*
X00313Y00848D02*
X00317Y00848D01*
X-00312Y00848D02*
X00313D01*
X-00316Y00848D02*
X-00312Y00848D01*
X-0032Y00849D02*
X-00316Y00848D01*
X-00324Y0085D02*
X-0032Y00849D01*
X-00325Y0085D02*
X-00324Y0085D01*
X-00342Y0086D02*
X-00325Y0085D01*
X-00353Y00851D02*
X-00342Y0086D01*
X-00367Y0084D02*
X-00353Y00851D01*
X-00374Y00837D02*
X-00367Y0084D01*
X-00395Y00818D02*
X-00374Y00837D01*
X-0043Y00787D02*
X-00395Y00818D01*
X-00471Y00785D02*
X-0043Y00787D01*
X-00497Y00806D02*
X-00471Y00785D01*
X-00537Y00836D02*
X-00497Y00806D01*
X-00578Y00865D02*
X-00537Y00836D01*
X-00584Y00868D02*
X-00578Y00865D01*
X-00627Y00896D02*
X-00584Y00868D01*
X-00687Y00933D02*
X-00627Y00896D01*
X-0075Y00967D02*
X-00687Y00933D01*
X-00813Y00998D02*
X-0075Y00967D01*
X-00875Y01025D02*
X-00813Y00998D01*
X-00938Y0105D02*
X-00875Y01025D01*
X-01006Y01073D02*
X-00938Y0105D01*
X-01083Y01095D02*
X-01006Y01073D01*
X-0116Y01114D02*
X-01083Y01095D01*
X-01231Y01127D02*
X-0116Y01114D01*
X-0131Y01138D02*
X-01231Y01127D01*
X-0139Y01145D02*
X-0131Y01138D01*
X-01584Y01145D02*
X-0139Y01145D01*
X-01626Y01142D02*
X-01584Y01145D01*
X-01668Y01138D02*
X-01626Y01142D01*
X-01741Y01128D02*
X-01668Y01138D01*
X-01813Y01115D02*
X-01741Y01128D01*
X-01886Y01099D02*
X-01813Y01115D01*
X-0196Y01079D02*
X-01886Y01099D01*
X-01982Y01072D02*
X-0196Y01079D01*
X-02005Y01065D02*
X-01982Y01072D01*
X-02028Y01058D02*
X-02005Y01065D01*
X-02212Y01004D02*
X-02028Y01058D01*
X-02297Y00977D02*
X-02212Y01004D01*
X-02374Y00954D02*
X-02297Y00977D01*
X-02396Y00942D02*
X-02374Y00954D01*
X-02418Y00931D02*
X-02396Y00942D01*
X-02452Y00917D02*
X-02418Y00931D01*
X-02485Y00907D02*
X-02452Y00917D01*
X-02485Y00857D02*
X-02485Y00907D01*
X-02486Y00856D02*
X-02485Y00857D01*
X-0255Y00854D02*
X-02486Y00856D01*
X-02551Y00854D02*
X-0255D01*
X-02555Y00854D02*
X-02551Y00854D01*
X-02558Y00853D02*
X-02555Y00854D01*
X-02561Y00851D02*
X-02558Y00853D01*
X-02563Y00849D02*
X-02561Y00851D01*
X-02565Y00846D02*
X-02563Y00849D01*
X-02566Y00843D02*
X-02565Y00846D01*
X-02566Y00839D02*
X-02566Y00843D01*
X-02566Y00839D02*
X-02565Y00732D01*
X-02563Y00731*
X-02562Y00731*
X-02561Y0073*
X-0256Y00728*
X-02561Y00722D02*
X-0256Y00728D01*
X-02563Y0072D02*
X-02561Y00722D01*
X-02565Y0072D02*
X-02563Y0072D01*
X-02566Y00714D02*
X-02565Y0072D01*
X-02568Y00707D02*
X-02566Y00714D01*
X-02571Y00701D02*
X-02568Y00707D01*
X-02576Y00696D02*
X-02571Y00701D01*
X-02582Y00692D02*
X-02576Y00696D01*
X-02589Y00689D02*
X-02582Y00692D01*
X-02595Y00688D02*
X-02589Y00689D01*
X-02597Y00689D02*
X-02595Y00688D01*
X-02598Y00734D02*
X-02597Y00689D01*
X-02599Y00744D02*
X-02598Y00734D01*
X-02599Y00788D02*
X-02599Y00744D01*
X-02599Y00796D02*
X-02599Y00788D01*
X-026Y00891D02*
X-02599Y00796D01*
X-02758Y00889D02*
X-026Y00891D01*
X-02794Y00889D02*
X-02758D01*
X-02794D02*
X-02794Y00787D01*
X-02793Y00742*
X-02793Y00733*
X-02793Y00688*
X-02792Y00598*
X-02783Y00585*
X-02771Y00574*
X-02757Y00566*
X-02741Y00561*
X-02725Y00559*
X-0258Y0056*
X-02565Y0056*
X-02481Y00561*
X-02479Y00561*
X-02477Y00458*
X-02556Y00455D02*
X-02477Y00458D01*
X-02556Y00455D02*
X-02537Y00416D01*
X-02521Y00372*
X-02511Y00327*
X-02506Y00282*
X-02432Y00283*
X-02435Y00327D02*
X-02432Y00283D01*
X-02435Y00327D02*
X-02434Y00373D01*
X-02429Y00419*
X-02419Y00465*
X-02414Y00484*
X-02421Y00486D02*
X-02414Y00484D01*
X-02429Y00491D02*
X-02421Y00486D01*
X-02436Y00497D02*
X-02429Y00491D01*
X-02441Y00504D02*
X-02436Y00497D01*
X-02445Y00512D02*
X-02441Y00504D01*
X-02447Y00521D02*
X-02445Y00512D01*
X-02447Y0053D02*
X-02447Y00521D01*
X-02447Y0053D02*
X-02445Y00538D01*
X-02441Y00547*
X-02436Y00554*
X-02429Y0056*
X-02427Y0056*
D01*
X-02423Y0056D01*
X-02379Y00561*
X-0234Y00561*
X-02206Y00562*
X-0192Y00565*
X-01053Y00573*
Y00843*
X-01311Y00842D02*
X-01053Y00843D01*
X-01322Y00832D02*
X-01311Y00842D01*
X-01322Y00728D02*
Y00832D01*
X-01323Y00726D02*
X-01322Y00728D01*
X-01923Y0072D02*
X-01323Y00726D01*
X-02209Y00717D02*
X-01923Y0072D01*
X-02341Y00716D02*
X-02209Y00717D01*
X-0238Y00716D02*
X-02341Y00716D01*
X-02424Y00715D02*
X-0238Y00716D01*
X-02428Y00715D02*
X-02424Y00715D01*
X-02428Y00715D02*
D01*
X-0243Y00716D02*
X-02428Y00715D01*
X-02431Y00739D02*
X-0243Y00716D01*
X-02431Y00739D02*
X-02431Y00743D01*
X-0243Y00746*
X-02428Y00749*
X-02426Y00752*
X-02423Y00754*
X-02419Y00755*
X-02416Y00755*
X-02296Y00756*
X-02269Y00757*
X-02214Y00803*
X-02213Y00804*
X-02211Y00803*
X-02185Y00822*
X-02157Y00842*
X-02118Y00866*
X-02074Y00889*
X-02028Y00909*
X-01993Y00921*
X-01889Y00951*
X-01797Y00974*
X-01703Y00993*
X-01607Y01009*
X-0151Y01021*
X-01464Y01025*
X-01418Y01027*
X-01359Y01026*
X-013Y01022*
X-01242Y01015*
X-01178Y01004*
X-01121Y0099*
X-01058Y00971*
X-00997Y00948*
X-00943Y00924*
X-0089Y00898*
X-00833Y00865*
X-00784Y00832*
X-00736Y00796*
X-00697Y00764*
X-00659Y00729*
X-00623Y00693*
X-00611Y0068*
X-00612Y00674D02*
X-00611Y0068D01*
X-00612Y00674D02*
X-00594Y00654D01*
X-00569Y00626*
X-00551Y00602*
X-00529Y0057*
X-00499Y00518*
X-00485Y00489*
X-00473Y0046*
X-00473Y00459*
X-00473Y00459*
X-00472Y00459*
X-00472Y00458*
X-00437Y00448*
X-00435Y00446*
X-00434Y00444*
X-00434Y00441*
X-00434Y00439D02*
X-00434Y00441D01*
X-00435Y00436D02*
X-00434Y00439D01*
X-00436Y00434D02*
X-00435Y00436D01*
X-00438Y00432D02*
X-00436Y00434D01*
X-00444Y00432D02*
X-00438D01*
X-00484Y00425D02*
X-00444Y00432D01*
X-00487Y00425D02*
X-00484Y00425D01*
X-0049Y00424D02*
X-00487Y00425D01*
X-00492Y00423D02*
X-0049Y00424D01*
X-00494Y00421D02*
X-00492Y00423D01*
X-00562Y00354D02*
X-00494Y00421D01*
X-00574Y00338D02*
X-00562Y00354D01*
X-00581Y00321D02*
X-00574Y00338D01*
X-00584Y00302D02*
X-00581Y00321D01*
X-00584Y00289D02*
Y00302D01*
X-00584Y00286D02*
X-00584Y00289D01*
X-00585Y00284D02*
X-00584Y00286D01*
X-00586Y00282D02*
X-00585Y00284D01*
X-00588Y0028D02*
X-00586Y00282D01*
X-0059Y00279D02*
X-00588Y0028D01*
X-00592Y00278D02*
X-0059Y00279D01*
X-00594Y00278D02*
X-00592Y00278D01*
X-0063Y00272D02*
X-00594Y00278D01*
X-00636Y00272D02*
X-0063D01*
X-0064Y00271D02*
X-00636Y00272D01*
X-00645Y0027D02*
X-0064Y00271D01*
X-00649Y00267D02*
X-00645Y0027D01*
X-00652Y00264D02*
X-00649Y00267D01*
X-00654Y0026D02*
X-00652Y00264D01*
X-00656Y00256D02*
X-00654Y0026D01*
X-00656Y00251D02*
X-00656Y00256D01*
X-00656Y00251D02*
X-00655Y0024D01*
X-0064Y00149*
X-00637Y00138*
X-0063Y0013*
X-00626Y00127*
X-00621Y00125*
X-00616Y00125*
X-00574Y00131*
X-00441Y00154*
X-00466Y00301D02*
X-00441Y00154D01*
X-00466Y00301D02*
Y00303D01*
X-00465Y00306*
X-00464Y00308*
X-00463Y00311*
X-00461Y00313*
X-00458Y00314*
X-00456Y00315*
X-00453Y00316*
X-00442Y00318*
X-00417Y00322*
X-00366Y00323*
X-00339Y00323*
X-00331*
X-00327Y00323*
X-00322Y00325*
X-00319Y00327*
X-00315Y0033*
X-00313Y00334*
X-00311Y00338*
X-00311Y00343*
X-00319Y00387D02*
X-00311Y00343D01*
X-00338Y00402D02*
X-00319Y00387D01*
X-00344Y00408D02*
X-00338Y00402D01*
X-00357Y00424D02*
X-00344Y00408D01*
X-00365Y00437D02*
X-00357Y00424D01*
X-0037Y00447D02*
X-00365Y00437D01*
X-00374Y00456D02*
X-0037Y00447D01*
X-00377Y00465D02*
X-00374Y00456D01*
X-0038Y00475D02*
X-00377Y00465D01*
X-00383Y00484D02*
X-0038Y00475D01*
X-00384Y00493D02*
X-00383Y00484D01*
X-00385Y005D02*
X-00384Y00493D01*
X-00385Y00511D02*
X-00385Y005D01*
X-00385Y00511D02*
Y00519D01*
X-00384Y00528*
X-00383Y00537*
X-00381Y00548*
Y0055*
X-00379Y00557*
X-00369Y00575*
X-00357Y00592*
X-00355Y00594*
X-00296Y00635*
X-00288Y00638*
X-00272Y00646*
X-00226Y00663*
X-00204Y0067*
X-00182Y00675*
X-00146Y00681*
X-00088Y00685*
X00089*
X00146Y00681*
X00169Y00677*
X00192Y00673*
X00227Y00663*
X00273Y00646*
X00289Y00638*
X00297Y00635*
X00356Y00594*
X00358Y00593*
X00367Y0058*
X00367Y00578D02*
X00367Y0058D01*
G54D74*
X-02763Y00878D02*
X-02758Y0088D01*
X-02768Y00875D02*
X-02763Y00878D01*
X-02772Y00872D02*
X-02768Y00875D01*
X-02776Y00868D02*
X-02772Y00872D01*
X-02778Y00863D02*
X-02776Y00868D01*
X-0278Y00858D02*
X-02778Y00863D01*
X-02781Y00852D02*
X-0278Y00858D01*
X-02781Y00852D02*
X-02781Y00847D01*
X-02779Y00842*
X-02777Y00837*
X-02774Y00832*
X-0277Y00828*
X-02766Y00825*
X-02761Y00823*
X-02756Y00822*
X-0275Y00822*
X-02747Y00822*
X-02744Y00822*
X-02739Y00824*
X-02735Y00827*
X-0273Y0083*
X-02727Y00834*
X-02724Y00839*
X-02723Y00844*
X-02722Y0085*
X-02722Y00855D02*
X-02722Y0085D01*
X-02723Y0086D02*
X-02722Y00855D01*
X-02725Y00865D02*
X-02723Y0086D01*
X-02729Y0087D02*
X-02725Y00865D01*
X-02732Y00874D02*
X-02729Y0087D01*
X-02737Y00877D02*
X-02732Y00874D01*
X-02742Y00879D02*
X-02737Y00877D01*
X-02747Y0088D02*
X-02742Y00879D01*
X-02752Y00881D02*
X-02747Y0088D01*
X-02755Y0088D02*
X-02752Y00881D01*
X-02758Y0088D02*
X-02755Y0088D01*
X02744Y00822D02*
X0275Y00822D01*
X02755Y00822*
X02761Y00823*
X02766Y00825*
X0277Y00828*
X02774Y00832*
X02777Y00836*
X02779Y00841*
X02781Y00847*
X02781Y00852*
X0278Y00857D02*
X02781Y00852D01*
X02779Y00863D02*
X0278Y00857D01*
X02776Y00867D02*
X02779Y00863D01*
X02773Y00872D02*
X02776Y00867D01*
X02768Y00875D02*
X02773Y00872D01*
X02764Y00878D02*
X02768Y00875D01*
X02761Y00879D02*
X02764Y00878D01*
X02758Y0088D02*
X02761Y00879D01*
X02753Y00881D02*
X02758Y0088D01*
X02747Y0088D02*
X02753Y00881D01*
X02742Y00879D02*
X02747Y0088D01*
X02737Y00877D02*
X02742Y00879D01*
X02733Y00874D02*
X02737Y00877D01*
X02729Y0087D02*
X02733Y00874D01*
X02726Y00866D02*
X02729Y0087D01*
X02723Y00861D02*
X02726Y00866D01*
X02722Y00855D02*
X02723Y00861D01*
X02722Y0085D02*
X02722Y00855D01*
X02722Y0085D02*
X02723Y00845D01*
X02724Y00839*
X02727Y00835*
X0273Y0083*
X02734Y00827*
X02739Y00824*
X02742Y00823*
X02744Y00822*
M02*