%FSTAX23Y23*%
%MOIN*%
%SFA1B1*%

%IPPOS*%
%ADD58C,0.001000*%
%ADD59C,0.001000*%
%LNfront_flex-1*%
%LPD*%
G54D58*
X-02818Y00274D02*
D01*
X-02818Y00274*
X-02818Y00274*
X-02817Y00274*
X-02817Y00274*
X-02818Y00274D02*
D01*
X-02818Y00274*
X-02818Y00274*
X-02818Y00274*
X-02818Y00274*
X-02818Y00274*
X-02818Y00274*
X-02832Y00283D02*
D01*
X-02832Y00283*
X-02832Y00283*
X-02832Y00283*
X-02832Y00283*
X-02832Y00283*
X-02832Y00283*
X-02832Y00283D02*
D01*
X-02832Y00283*
X-02832Y00283*
X-02832Y00283*
X-02845Y00294D02*
D01*
X-02845Y00294*
X-02845Y00294*
X-02845Y00294*
X-02845Y00294*
X-02855Y00308D02*
D01*
X-02855Y00308*
X-02855Y00308*
X-02855Y00308*
X-02855Y00308*
X-02855Y00308*
X-02855Y00308*
X-02855Y00309D02*
D01*
X-02855Y00309*
X-02855Y00309*
X-02855Y00309*
X-02855Y00309*
X-02855Y00309*
X-02855Y00309*
X-02855Y00308*
X-02855Y00308*
X-02855Y00308*
X-02855Y00309D02*
D01*
X-02855Y00309*
Y00309*
Y00309*
Y00309*
X-02855Y00309*
X-02865Y00505D02*
D01*
X-02865Y00505*
X-02865Y00505*
X-02865*
X-02865*
X-02865Y00505*
X-02865Y00505D02*
D01*
X-02865Y00505*
X-02865Y00505*
X-02865Y00505*
X-02865Y00505*
X-02874Y00509D02*
D01*
X-02874Y00509*
X-02874Y00509*
X-02874Y00509*
X-02874Y00509*
X-02874Y00509D02*
D01*
X-02874Y00509*
X-02874Y00509*
X-02874Y00509*
X-02874Y00509*
X-02874Y00509*
X-02874Y00509*
X-02882Y00515D02*
D01*
X-02882Y00515*
X-02882Y00515*
X-02882Y00515*
X-02882Y00515*
X-02888Y00523D02*
D01*
X-02888Y00523*
X-02888Y00523*
X-02888Y00523*
X-02888Y00523*
X-02892Y00532D02*
D01*
X-02892Y00532*
X-02892Y00532*
X-02892Y00532*
X-02892Y00532*
X-02893Y00542D02*
D01*
X-02893Y00542*
X-02893Y00542*
X-02892Y00631D02*
D01*
X-02892Y00631*
X-02892Y00631*
X-02893Y00631*
X-02893Y0063*
X-02893Y0063*
X-02893Y0063*
X-02893Y0063*
X-02893Y0063*
X-02893Y0063*
X-02893Y0063*
X-02893Y0063*
X-02893Y00629*
X-02893Y00629*
X-02893Y00629*
X-02893Y00629*
Y00629*
X-02892Y00631D02*
D01*
X-02892Y00631*
X-02892Y00631*
X-02892Y00631*
X-02892Y00631*
X-02892Y00631*
X-02892Y00631D02*
D01*
X-02892Y00631*
X-02892Y00631*
X-02892Y00631*
X-02892Y00631*
X-02892Y00631*
X-02892Y00631*
X-02875Y0064D02*
D01*
X-02875Y0064*
X-02875Y0064*
X-02875Y0064*
X-02875Y0064D02*
D01*
X-02875Y0064*
X-02875Y0064*
X-02875Y0064*
X-02875*
X-02875Y0064*
X-02856Y00645D02*
D01*
X-02856Y00645*
X-02856Y00645*
X-02856*
X-02856Y00645*
X-02856Y00645*
X-02856Y00645D02*
D01*
X-02856Y00645*
X-02856Y00645*
X-02856Y00645*
X-02836Y00648D02*
D01*
X-02836Y00648*
X-02836Y00648*
X-02816Y00646D02*
D01*
X-02816Y00646*
X-02816Y00646*
X-02816Y00646*
X-02816Y00646*
X-02816Y00646*
X-02817Y00647*
X-02817Y00647*
X-02817Y00647*
X-02817Y00647*
X-02817Y00647*
X-02817Y00647*
X-02817Y00647*
X-02817Y00647*
X-02817Y00647*
X-02817Y00647*
X-02817Y00648*
X-02818Y00648*
X-02818Y00648*
X-02818Y00648*
X-02818Y00648*
X-02818Y00648*
X-02818Y00648*
X-02816Y00646D02*
D01*
X-02816Y00646*
X-02816Y00646*
X-02816Y00625D02*
D01*
Y00625*
Y00625*
Y00625*
Y00625*
Y00625*
X-02656Y00604D02*
D01*
X-02656Y00604*
X-02656Y00605*
X-02656Y00605*
X-02656Y00605*
X-02656Y00605*
X-02656Y00605*
X-02656Y00605*
X-02656Y00605*
X-02656Y00605*
X-02656Y00606*
X-02656Y00606*
X-02656Y00606*
X-02657Y00606*
X-02657Y00606*
X-02657Y00606*
X-02657Y00606*
X-02657Y00606*
X-02657Y00606*
X-02657Y00606*
X-02658Y00606*
X-02658Y00606*
X-02658Y00606*
X-02656Y00604D02*
D01*
X-02656Y00604*
X-02656Y00604*
X-02654Y00446D02*
D01*
Y00446*
Y00446*
Y00446*
Y00446*
Y00446*
X-02626Y00435D02*
D01*
X-02626Y00435*
X-02626Y00435*
X-02627Y00435*
X-02627Y00435*
X-02627Y00434*
X-02627Y00434*
X-02627Y00434*
X-02627Y00434*
X-02627Y00434*
X-02627Y00434*
X-02627Y00434*
X-02628Y00434*
X-02628Y00434*
X-02628Y00434*
X-02628Y00433*
X-02628Y00433*
X-02628Y00433*
X-02628Y00433*
X-02628Y00433*
X-02628Y00433*
X-02628Y00433*
X-02626Y00435D02*
D01*
X-02626Y00435*
X-02626Y00435*
X-02626Y00435*
X-02626Y00435*
X-02626Y00435*
X-02626Y00435D02*
D01*
X-02626Y00435*
X-02626Y00435*
X-02628Y00443D02*
D01*
X-02628Y00443*
X-02628Y00443*
X-02628Y00443*
X-02628Y00442*
X-02628Y00442*
X-02628Y00442*
X-02628Y00442*
X-02628Y00442*
X-02628Y00442*
X-02628Y00442*
X-02627Y00442*
X-02627Y00441*
X-02627Y00441*
X-02627Y00441*
X-02627Y00441*
X-02627Y00441*
X-02627Y00441*
X-02627Y00441*
X-02626Y00441*
X-02626Y00441*
X-02626Y00441*
X-02629Y00551D02*
D01*
X-02629Y00551*
X-02629Y00551*
X-02629Y00551*
X-02629Y00551D02*
D01*
Y00551*
Y00551*
Y00551*
X-02629Y00551*
Y00551*
X-02629*
X-02628Y00556D02*
D01*
Y00556*
Y00556*
Y00556*
X-02628Y00556*
Y00556*
X-02628*
X-02628Y00556D02*
D01*
X-02628Y00556*
X-02628Y00556*
X-02628Y00556*
X-02628Y00556*
X-02628*
X-02626Y00561D02*
D01*
X-02626Y00561*
X-02626Y00561*
X-02626Y00561*
X-02626Y00561*
X-02626Y00561D02*
D01*
X-02626Y00561*
X-02626Y00561*
X-02626Y00561*
X-02626Y00561*
X-02626Y00561*
X-02626Y00561*
X-02623Y00564D02*
D01*
X-02623Y00564*
X-02623Y00564*
X-02623Y00564*
X-02623Y00564*
X-02623Y00564*
X-02623Y00564*
X-02623Y00565D02*
D01*
X-02623Y00565*
X-02623Y00565*
X-02623Y00564*
X-02623Y00564*
X-0262Y00567D02*
D01*
X-0262Y00567*
X-0262Y00567*
X-0262Y00567*
X-0262Y00567*
X-02616Y00569D02*
D01*
X-02616Y00569*
X-02616Y00569*
X-02616Y00569*
X-02616Y00569*
X-02611Y0057D02*
D01*
X-02611Y0057*
X-02611Y0057*
X-02611Y0057*
X-0261Y0057D02*
D01*
X-0261Y0057*
X-0261*
X-0261*
X-0261*
X-0261Y0057*
X-02547Y00622D02*
D01*
X-02547Y00622*
X-02547Y00622*
X-02548Y00622*
X-02548Y00622*
X-02548Y00622*
X-02548Y00622*
X-02548Y00622*
X-02548Y00621*
X-02548Y00621*
X-02548Y00621*
X-02548Y00621*
X-02548Y00621*
X-02548Y00621*
X-02548Y00621*
X-02548Y00621*
X-02548Y0062*
X-02548Y0062*
X-02548Y0062*
X-02547Y00622D02*
D01*
X-02547Y00622*
X-02547Y00622*
X-02547Y00622*
X-02547Y00622*
X-02547Y00622*
X-02547Y00622D02*
D01*
X-02547Y00622*
X-02547Y00622*
X-02547Y00622*
X-02547Y00622*
X-02547Y00622*
X-02547Y00622*
X-02435Y00669D02*
D01*
X-02436Y00669*
X-02436Y00669*
X-02436Y00669*
X-02436Y00669*
X-02435Y00669D02*
D01*
X-02435Y00669*
X-02435Y00669*
X-02435*
X-02435Y00669*
X-02435Y00669*
X-02274Y00719D02*
D01*
X-02274Y00719*
X-02274Y00719*
X-02274Y00719*
X-02274Y00719*
X-02274Y00719*
X-02274Y00719*
X-02274Y00718*
X-02274Y00718*
X-02275Y00718*
X-02275Y00718*
X-02275Y00718*
X-02275Y00718*
X-02275Y00718*
X-02275Y00718*
X-02275Y00717*
X-02275Y00717*
X-02275Y00717*
X-02275Y00717*
X-02273Y00719D02*
D01*
X-02273Y00719*
X-02273Y00719*
X-02273Y00719*
X-02273Y00719*
X-02274Y00719*
Y00719*
X-02273Y00719D02*
D01*
X-02273Y00719*
X-02273Y00719*
X-02273Y00719*
X-02273Y00719*
X-02274Y00719*
X-02043Y00787D02*
D01*
X-02043Y00787*
X-02043Y00787*
X-02043*
X-02043Y00787*
X-02043Y00787*
X-0202Y00794D02*
D01*
X-0202Y00794*
X-0202Y00794*
X-0202*
X-0202Y00794*
X-0202Y00794*
X-0202D02*
D01*
X-0202Y00794*
X-0202Y00794*
X-0202Y00794*
X-0202Y00794*
X-0202Y00794*
X-0202Y00794*
X-01995Y00801D02*
D01*
X-01995Y00801*
X-01995Y00801*
X-01995Y00801*
X-01995*
X-01995Y00801*
X-01995D02*
D01*
X-01995Y00801*
X-01995Y00801*
X-01995Y00801*
X-01995Y00801*
X-01995Y00801*
X-01995Y00801*
X-01995Y00801D02*
D01*
X-01995Y00801*
X-01995Y00801*
X-01995*
X-01995Y00801*
X-01995Y00801*
X-01995Y00801D02*
D01*
X-01995Y00801*
X-01995Y00801*
X-01995*
X-01995Y00801*
X-01995Y00801*
X-01971Y00808D02*
D01*
X-01971Y00808*
X-01971Y00808*
X-01971*
X-01971Y00808*
X-01971Y00808*
X-01971D02*
D01*
X-01971Y00808*
X-01971*
X-01971Y00808*
X-01971*
X-01971Y00808*
X-01946Y00814D02*
D01*
X-01946Y00814*
X-01946Y00814*
X-01946Y00814*
X-01946Y00814*
X-01946Y00814*
X-01946Y00814D02*
D01*
X-01946Y00814*
X-01946Y00814*
X-01946Y00814*
X-01946Y00814*
X-01946Y00814*
X-01874Y0083D02*
D01*
X-01874Y0083*
X-01874Y0083*
X-01874Y0083*
X-01874Y0083*
X-01874Y0083*
X-01874Y0083D02*
D01*
X-01874Y0083*
X-01874Y0083*
X-01874Y0083*
X-01874*
X-01874Y0083*
X-01874Y0083*
D01*
X-01874Y0083*
X-01874Y0083*
X-01874Y0083*
X-01874Y0083*
X-01874Y0083*
X-01874Y0083D02*
D01*
X-01874Y0083*
X-01874Y0083*
X-01874Y0083*
X-01874Y0083*
X-01874Y0083*
X-01801Y00843D02*
D01*
X-01801Y00843*
X-01801Y00843*
X-01801Y00843*
X-01801*
X-01801Y00843*
X-01801Y00843*
X-01801Y00843D02*
D01*
X-01801Y00843*
X-01801Y00843*
X-01801Y00843*
X-01801Y00843*
X-01801Y00843*
Y00843*
X-01728Y00853D02*
D01*
X-01728Y00853*
X-01728Y00853*
X-01728Y00853*
X-01728Y00853*
X-01728Y00853*
X-01686Y00857D02*
D01*
X-01686Y00857*
X-01686*
X-01686Y00857*
X-01686Y00857*
X-01686Y00857*
X-01644Y0086D02*
D01*
X-01644Y0086*
X-01644Y0086*
X-01449Y0086D02*
D01*
X-01449Y0086*
X-01449Y0086*
X-01369Y00853D02*
D01*
X-01369Y00853*
X-01369Y00853*
X-01369Y00853*
X-01369Y00853*
X-0137Y00853*
X-0137Y00853*
X-01369Y00853D02*
D01*
X-01369*
X-01369*
X-01369*
X-01369Y00853*
X-01369*
X-01369Y00853*
X-0129Y00842D02*
D01*
X-0129Y00842*
X-0129Y00842*
X-0129Y00842*
X-0129Y00842*
X-0129Y00842*
Y00842*
X-01219Y00829D02*
D01*
X-01219Y00829*
X-01219Y00829*
X-01219Y00829*
X-01219Y00829*
X-01219Y00829*
X-01219Y00829*
X-01149Y00813D02*
D01*
X-01149Y00813*
X-01149Y00813*
X-01149Y00813*
X-01149Y00813*
X-01149Y00813*
X-01149Y00813*
X-01072Y00791D02*
D01*
X-01072Y00791*
X-01072Y00791*
X-01072Y00791*
X-01072Y00791*
X-01072Y00791*
X-00996Y00765D02*
D01*
X-00996Y00765*
X-00996Y00765*
X-00996Y00765*
X-00996Y00765*
X-00996Y00765*
X-00933Y0074D02*
D01*
X-00933Y0074*
X-00933Y0074*
X-00933Y0074*
X-00933Y0074*
X-00933Y0074*
X-00933Y0074*
X-00933Y0074D02*
D01*
X-00933Y0074*
X-00933Y0074*
X-00933Y0074*
X-00933Y0074*
X-00933Y0074*
Y0074*
X-00871Y00713D02*
D01*
X-00871Y00713*
X-00871Y00713*
X-00871Y00713*
X-00871Y00713*
X-00871Y00713*
X-00871Y00713D02*
D01*
X-00871*
X-00871Y00713*
X-00871Y00713*
X-00871Y00713*
X-00871Y00713*
X-00807Y00682D02*
D01*
X-00807*
X-00807Y00682*
X-00807Y00682*
X-00807Y00682*
X-00807Y00682*
X-00807Y00682D02*
D01*
X-00807Y00682*
X-00807Y00682*
X-00807Y00682*
X-00807Y00682*
X-00807Y00682*
X-00807*
X-00745Y00648D02*
D01*
X-00745Y00648*
X-00745Y00648*
X-00745Y00648*
X-00745Y00648*
X-00745Y00648*
X-00745Y00648D02*
D01*
X-00745Y00648*
X-00745Y00648*
X-00745Y00648*
X-00745Y00648*
X-00745Y00648*
X-00684Y00611D02*
D01*
X-00684Y00611*
X-00684Y00611*
X-00684Y00611*
X-00684Y00611*
X-00684Y00611*
X-00631Y00576D02*
D01*
X-00631Y00576*
X-00631Y00576*
X-00631Y00576*
X-00631Y00576*
X-00631*
X-0058Y00539D02*
D01*
X-0058Y00539*
X-0058Y00539*
X-0058Y00539*
X-0058Y00539*
X-0058Y00539*
X-00436Y00551D02*
D01*
X-00436Y00551*
X-00436Y00551*
X-00436Y00551*
X-00436Y00551*
X-00436Y00551*
X-00415Y00565D02*
D01*
X-00415Y00565*
X-00415Y00565*
X-00415Y00565*
X-00415Y00565*
X-00415Y00565*
X-00403Y00575D02*
D01*
X-00403Y00575*
X-00403Y00575*
X-00403Y00575*
X-00403Y00575*
X-00403Y00575*
X-00401Y00575D02*
D01*
X-00401Y00575*
X-00401Y00576*
X-00402Y00576*
X-00402Y00576*
X-00402Y00576*
X-00402Y00576*
X-00402Y00576*
X-00402Y00576*
X-00402Y00576*
X-00403Y00576*
X-00403Y00576*
X-00403Y00575*
X-00403Y00575*
X-00403Y00575*
X-00403Y00575*
X-00403Y00575*
X-00403Y00575*
X-00401Y00575D02*
D01*
X-00401Y00575*
X-00401Y00575*
X-00401Y00575*
X-00401Y00575*
X-00401Y00575*
X-00401Y00575*
X-00401Y00575D02*
D01*
X-00401Y00575*
X-00401Y00575*
X00404Y00575D02*
D01*
X00403Y00575*
X00403Y00575*
X00403Y00575*
X00403Y00576*
X00403Y00576*
X00403Y00576*
X00403Y00576*
X00403Y00576*
X00402Y00576*
X00402Y00576*
X00402Y00576*
X00402Y00576*
X00402Y00576*
X00402Y00576*
X00402Y00575*
X00402Y00575*
X00401Y00575*
X00404Y00575D02*
D01*
X00404Y00575*
X00404Y00575*
X00415Y00565D02*
D01*
X00415*
X00415Y00565*
X00415Y00565*
X00415Y00565*
X00415Y00565*
X00436Y00552D02*
D01*
X00436Y00552*
X00436Y00552*
X00436Y00552*
X00436Y00552*
X00436Y00552*
X00436Y00552*
X00436Y00551D02*
D01*
X00436Y00551*
X00436Y00551*
X00436Y00551*
X00436Y00551*
X00436Y00552*
X00457Y00533D02*
D01*
X00457Y00533*
X00457Y00533*
X00457Y00533*
X00457Y00533*
X00457Y00533*
X0058Y00539D02*
D01*
X0058Y00539*
X0058Y00539*
X0058Y00539*
X0058Y00539*
X0058Y00539*
X0058Y00539*
X00632Y00576D02*
D01*
X00631Y00576*
X00631Y00576*
X00631Y00576*
X00631Y00576*
X00631Y00576*
X00632Y00576D02*
D01*
X00631Y00576*
X00631Y00576*
X00631Y00576*
X00631Y00576*
X00631Y00576*
X00685Y00611D02*
D01*
X00685Y00611*
X00685Y00611*
X00685Y00611*
X00685Y00611*
X00685Y00611*
X00685Y00611*
X00685Y00611D02*
D01*
X00685Y00611*
X00685Y00611*
X00685Y00611*
X00685Y00611*
X00685Y00611*
X00685Y00611D02*
D01*
X00685Y00611*
X00685Y00611*
X00685Y00611*
X00685Y00611*
X00685Y00611*
X00685Y00611D02*
D01*
X00685Y00611*
X00685Y00611*
X00685Y00611*
X00685Y00611*
X00685Y00611*
X00745Y00648D02*
D01*
X00745Y00648*
X00745Y00648*
X00745Y00648*
X00745Y00648*
X00745Y00648*
X00745Y00648D02*
D01*
X00745Y00648*
X00745Y00648*
X00745Y00648*
X00745Y00648*
X00745Y00648*
X00808Y00682D02*
D01*
X00808Y00682*
X00808Y00682*
X00808Y00682*
X00808Y00682*
X00808Y00682*
Y00682*
X00871Y00713D02*
D01*
X00871Y00713*
X00871Y00713*
X00871Y00713*
X00871Y00713*
X00871Y00713*
X00871Y00713D02*
D01*
X00871Y00713*
X00871*
X00871*
Y00713*
X00871Y00713*
X00945Y00745D02*
D01*
X00945Y00745*
X00945Y00745*
X00945Y00745*
X00945Y00745*
Y00745*
X00945Y00745D02*
D01*
X00945Y00745*
X00945Y00745*
X00945Y00745*
X00945Y00745*
X00945Y00745*
X0102Y00774D02*
D01*
X0102Y00774*
X0102Y00774*
X0102Y00773*
X0102Y00773*
X0102Y00773*
X01089Y00796D02*
D01*
X01089Y00796*
X01089Y00796*
X01089Y00796*
X01089Y00796*
X01089*
X01158Y00815D02*
D01*
X01158Y00815*
X01158Y00815*
X01158Y00815*
X01158Y00815*
X01158Y00815*
X01236Y00832D02*
D01*
X01236Y00832*
X01236Y00832*
X01236Y00832*
X01236Y00832*
X01236Y00832*
X01315Y00846D02*
D01*
X01315Y00846*
X01315Y00846*
X01315Y00846*
X01315Y00846*
X01315Y00846*
X01382Y00854D02*
D01*
X01382Y00854*
X01382Y00854*
X01382Y00854*
X01382Y00854*
X01382Y00854*
X0145Y0086D02*
D01*
X0145Y0086*
X0145*
X0145*
X0145*
X0145Y0086*
X0145Y0086D02*
D01*
X0145Y0086*
X0145Y0086*
X01644Y0086D02*
D01*
X01644Y0086*
X01644Y0086*
X01724Y00854D02*
D01*
X01724Y00854*
X01724Y00854*
X01724Y00854*
X01724Y00854*
X01724Y00854*
X01804Y00843D02*
D01*
X01804Y00843*
X01804Y00843*
X01804Y00843*
X01804Y00843*
X01804Y00843*
X01804Y00843*
X01876Y0083D02*
D01*
X01876Y0083*
X01876Y0083*
X01876Y0083*
X01876Y0083*
X01876Y0083*
X01876Y0083D02*
D01*
X01876*
X01876Y0083*
X01876*
X01876Y0083*
Y0083*
X01946Y00814D02*
D01*
X01946*
X01946Y00814*
X01946Y00814*
X01946Y00814*
X01946Y00814*
X01946Y00814D02*
D01*
X01946Y00814*
X01946Y00814*
X01946Y00814*
X01946Y00814*
X01946Y00814*
X01946Y00814*
X01971Y00808D02*
D01*
X01971Y00808*
X01971Y00808*
X01971Y00808*
X01971Y00808*
X01971Y00808*
X01971Y00808*
X01996Y00801D02*
D01*
X01996Y00801*
X01996Y00801*
X01996Y00801*
X01996Y00801*
X01996Y00801*
X01996Y00801D02*
D01*
X01996*
X01996Y00801*
X01996Y00801*
X01996*
Y00801*
X0202Y00794D02*
D01*
X0202*
X0202Y00794*
X0202Y00794*
X0202*
Y00794*
X0202Y00794D02*
D01*
X0202Y00794*
X0202Y00794*
X0202Y00794*
X0202Y00794*
X0202Y00794*
X0202Y00794*
X02045Y00787D02*
D01*
X02045*
X02045Y00787*
X02045*
X02045Y00787*
X02045Y00787*
X02274Y00719D02*
D01*
X02274Y00719*
X02274Y00719*
X02274Y00719*
X02274Y00719*
X02274Y00719*
X02274Y00719D02*
D01*
X02274Y00719*
X02274Y00719*
X02274Y00719*
X02274Y00719*
X02274Y00719*
X02275Y00717D02*
D01*
X02275Y00717*
X02275Y00717*
X02275Y00718*
X02275Y00718*
X02275Y00718*
X02275Y00718*
X02275Y00718*
X02275Y00718*
X02275Y00718*
X02275Y00718*
X02275Y00718*
X02274Y00719*
X02274Y00719*
X02274Y00719*
X02274Y00719*
X02274Y00719*
X02274Y00719*
X02274Y00719*
X02275Y00717D02*
D01*
X02275Y00717*
Y00717*
X02275Y00717*
Y00717*
X02275Y00717*
Y00717D02*
D01*
X02275Y00717*
Y00717*
Y00717*
Y00717*
X02275Y00717*
X02436Y00669D02*
D01*
X02436*
X02436Y00669*
X02436*
X02436Y00669*
X02436Y00669*
X02436Y00669D02*
D01*
X02436Y00669*
X02436Y00669*
X02436Y00669*
X02436Y00669*
X02547Y00622D02*
D01*
X02547*
X02547Y00622*
X02547Y00622*
X02547Y00622*
X02547*
X02547Y00622*
X02549Y0062D02*
D01*
X02549Y0062*
X02549Y00621*
X02549Y00621*
X02549Y00621*
X02549Y00621*
X02549Y00621*
X02549Y00621*
X02548Y00621*
X02548Y00621*
X02548Y00621*
X02548Y00622*
X02548Y00622*
X02548Y00622*
X02548Y00622*
X02548Y00622*
X02548Y00622*
X02547Y00622*
X02547Y00622*
X02549Y0062D02*
D01*
X02549Y0062*
Y0062*
Y0062*
X02549Y0062*
X02549Y0062*
Y0062D02*
D01*
X02549Y0062*
X02549Y0062*
X02612Y0057D02*
D01*
X02612Y0057*
X02612Y0057*
X02611Y0057*
X02612Y0057D02*
D01*
X02612*
X02612Y0057*
X02612*
X02612Y0057*
X02612Y0057*
X02616Y00569D02*
D01*
X02616*
X02616Y00569*
X02616Y00569*
X02616*
X02616Y00569*
X02616Y00569*
X02616Y00569D02*
D01*
X02616Y00569*
X02616Y00569*
X02616Y00569*
X02616*
X0262Y00567D02*
D01*
X0262Y00567*
X0262Y00567*
X0262Y00567*
X0262Y00567*
X02624Y00565D02*
D01*
X02624Y00565*
X02624Y00565*
X02623Y00565*
X02623Y00565*
X02626Y00561D02*
D01*
X02626Y00561*
X02626Y00561*
X02626Y00561*
X02626Y00561*
X02629Y00557D02*
D01*
X02629Y00557*
X02629Y00557*
X02629Y00557*
X02629Y00557*
X02629Y00557*
X02629Y00556D02*
D01*
X02629Y00556*
X02629Y00556*
X02629Y00557*
X02629Y00557*
X02629Y00557*
X02629Y00551D02*
D01*
X02629Y00551*
X02629Y00551*
Y00551*
X02628Y00443D02*
D01*
Y00443*
Y00443*
Y00443*
Y00443*
Y00443*
Y00443D02*
D01*
Y00443*
Y00443*
Y00443*
Y00443*
Y00443*
X02627Y00441D02*
D01*
X02627Y00441*
X02627Y00441*
X02627Y00441*
X02627Y00441*
X02627Y00441*
X02627Y00441*
X02627Y00441*
X02628Y00441*
X02628Y00441*
X02628Y00442*
X02628Y00442*
X02628Y00442*
X02628Y00442*
X02628Y00442*
X02628Y00442*
X02628Y00442*
X02628Y00442*
X02628Y00443*
X02628Y00443*
X02628Y00443*
X02628Y00443*
X02627Y00441D02*
D01*
X02627*
X02627Y00441*
X02627Y00441*
X02627Y00441*
X02627Y00441*
X02628Y00433D02*
D01*
X02628Y00433*
X02628Y00433*
X02628Y00433*
X02628Y00433*
X02628Y00433*
X02628Y00434*
X02628Y00434*
X02628Y00434*
X02628Y00434*
X02628Y00434*
X02628Y00434*
X02628Y00434*
X02627Y00434*
X02627Y00434*
X02627Y00434*
X02627Y00435*
X02627Y00435*
X02627Y00435*
X02627Y00435*
X02627Y00435*
X02626Y00435*
X02628Y00433D02*
D01*
X02628Y00433*
Y00433*
Y00433*
Y00433*
X02628Y00433*
Y00433D02*
D01*
X02628Y00433*
X02628Y00433*
Y00433D02*
D01*
Y00433*
Y00433*
Y00433*
Y00433*
Y00433*
X02658Y00606D02*
D01*
X02658Y00606*
X02658Y00606*
X02658Y00606*
X02657Y00606*
X02657Y00606*
X02657Y00606*
X02657Y00606*
X02657Y00606*
X02657Y00606*
X02657Y00606*
X02657Y00606*
X02657Y00606*
X02656Y00605*
X02656Y00605*
X02656Y00605*
X02656Y00605*
X02656Y00605*
X02656Y00605*
X02656Y00605*
X02656Y00604*
X02656Y00604*
X02656Y00604*
X02658Y00606D02*
D01*
X02658*
X02658*
X02658Y00606*
X02658*
X02658*
Y00606*
X02658D02*
D01*
X02658Y00606*
Y00606*
X02804Y00626D02*
D01*
X02804Y00626*
X02804Y00626*
X02803Y00626*
X02803Y00626*
X02803Y00626*
X02803Y00626*
X02803Y00626*
X02803Y00626*
X02803Y00625*
X02803Y00625*
X02803Y00625*
X02803Y00625*
X02819Y00648D02*
D01*
X02818Y00648*
X02818Y00648*
X02818Y00648*
X02818Y00648*
X02818Y00648*
X02818Y00648*
X02818Y00647*
X02818Y00647*
X02817Y00647*
X02817Y00647*
X02817Y00647*
X02817Y00647*
X02817Y00647*
X02817Y00647*
X02817Y00647*
X02817Y00647*
X02817Y00646*
X02817Y00646*
X02817Y00646*
X02817Y00646*
X02817Y00646*
X02817Y00646*
X02819Y00648D02*
D01*
X02819*
X02819*
X02819Y00648*
X02819*
X02819Y00648*
X02819Y00648D02*
D01*
X02819Y00648*
X02819Y00648*
X02837Y00648D02*
D01*
X02837Y00648*
X02837Y00648*
X02856Y00645D02*
D01*
X02856Y00646*
X02856Y00646*
X02856Y00646*
X02856Y00645D02*
D01*
X02856Y00645*
X02856Y00645*
X02856Y00645*
X02856Y00645*
X02856Y00645*
X02856Y00645*
X02875Y0064D02*
D01*
X02875*
X02875Y0064*
X02875Y0064*
X02875*
Y0064*
X02875Y0064D02*
D01*
X02875Y0064*
X02875Y0064*
X02875Y0064*
X02892Y00631D02*
D01*
X02892Y00631*
X02892Y00631*
X02892Y00631*
X02892Y00631*
X02892Y00631*
X02894Y00629D02*
D01*
X02894Y00629*
X02894Y00629*
X02893Y00629*
X02893Y0063*
X02893Y0063*
X02893Y0063*
X02893Y0063*
X02893Y0063*
X02893Y0063*
X02893Y0063*
X02893Y0063*
X02893Y00631*
X02893Y00631*
X02893Y00631*
X02892Y00631*
X02894Y00629D02*
D01*
Y00629*
Y00629*
Y00629*
Y00629*
Y00629*
D01*
X02894Y00629*
Y00629*
Y00629*
Y00629*
X02894Y00629*
X02894Y00629D02*
D01*
X02894Y00629*
X02894Y00629*
X02893Y00542D02*
D01*
X02893Y00542*
X02893Y00542*
X02892Y00532D02*
D01*
X02892Y00532*
X02892Y00532*
X02892Y00532*
X02892Y00532*
X02888Y00523D02*
D01*
X02888Y00523*
X02888Y00523*
X02888Y00523*
X02888Y00523*
X02882Y00515D02*
D01*
X02882Y00515*
X02882Y00515*
X02882Y00515*
X02882Y00515*
X02874Y00509D02*
D01*
X02874Y00509*
X02874Y00509*
X02875Y00509*
X02875Y00509*
X02874Y00509D02*
D01*
X02874*
X02874Y00509*
X02874Y00509*
X02874*
X02874Y00509*
X02865Y00505D02*
D01*
X02865Y00505*
X02865Y00505*
X02865Y00505*
X02865Y00506*
X02857Y00444D02*
D01*
Y00444*
Y00444*
Y00444*
Y00444*
Y00444*
X02855Y00308D02*
D01*
X02855Y00308*
X02855Y00308*
X02855Y00309*
X02855Y00309*
X02856Y00309*
X02856Y00309*
X02856Y00309*
X02856Y00309*
X02856Y00309*
X02855Y00308D02*
D01*
X02855Y00308*
X02855Y00308*
X02855Y00308*
X02855Y00308*
Y00308*
X02845Y00294D02*
D01*
X02845Y00294*
X02846Y00295*
X02846Y00295*
X02846Y00295*
X02833Y00283D02*
D01*
X02833Y00283*
X02833Y00283*
X02833Y00283*
X02833Y00283*
X02833Y00283D02*
D01*
X02833Y00283*
X02833Y00283*
X02833Y00283*
X02833Y00283*
X02833Y00283*
X02833Y00283*
X02818Y00274D02*
D01*
X02818Y00274*
X02818Y00274*
X02818Y00274*
X02818Y00274*
X02802Y00269D02*
D01*
X02802Y00269*
X02802Y00269*
X02802Y00269*
X02785Y00267D02*
D01*
X02785Y00267*
X02785Y00267*
X02619Y0017D02*
D01*
X02619*
X02619*
X02619*
X02619*
X02619*
X0262Y00168D02*
D01*
X0262Y00169*
X0262Y00169*
X0262Y00169*
X0262Y00169*
X0262Y00169*
X0262Y00169*
X0262Y00169*
X0262Y00169*
X0262Y0017*
X0262Y0017*
X0262Y0017*
X0262Y0017*
X0262Y0017*
X0262Y0017*
X02619Y0017*
X02619Y0017*
X02619Y0017*
X02619Y0017*
X02619Y0017*
X02619Y0017*
X02619Y0017*
X02619Y0017*
X0262Y00168D02*
D01*
X0262Y00168*
X0262Y00168*
X0262Y00168D02*
D01*
X0262Y00168*
X0262Y00168*
X0262Y00168*
X0262Y00168*
X0262Y00168*
X0262Y00168*
X0262Y00168*
X02567Y-00009D02*
D01*
X02568Y-00009*
X02568Y-00009*
X02568Y-00009*
X02568Y-00009*
X02568Y-00009*
X02568Y-00009*
X02568Y-00009*
X02568Y-00008*
X02569Y-00008*
X02569Y-00008*
X02569Y-00008*
X02569Y-00008*
X02569Y-00008*
X02569Y-00008*
X02569Y-00008*
X02569Y-00008*
X02569Y-00008*
X02569Y-00007*
X02569Y-00007*
X02569Y-00007*
X02569Y-00007*
X02569Y-00007*
X02488Y-00006D02*
D01*
X02488Y-00006*
X02488Y-00006*
X02488Y-00006*
X02488Y-00006*
X02488Y-00007*
X02488Y-00007*
X02488Y-00007*
X02488Y-00007*
X02488Y-00007*
X02488Y-00007*
X02488Y-00007*
X02488Y-00007*
X02488Y-00008*
X02488Y-00008*
X02489Y-00008*
X02489Y-00008*
X02489Y-00008*
X02489Y-00008*
X02489Y-00008*
X02489Y-00008*
X02489Y-00008*
X02489Y-00008*
X0249Y-00008*
X0249Y-00008*
X02488Y-00006D02*
D01*
X02488Y-00006*
Y-00006*
Y-00006*
Y-00006*
X02488Y-00006*
X02488Y-00006D02*
D01*
X02488Y-00006*
Y-00006*
Y-00006*
Y-00006*
X02488Y-00006*
X02471Y00199D02*
D01*
X02471Y00199*
X02471Y00199*
X02471Y00199*
X02471Y00199*
X02471Y00199*
X02471Y00199*
X02471Y00199*
X0247Y00199*
X0247Y00199*
X0247Y00198*
X0247Y00198*
X0247Y00198*
X0247Y00198*
X0247Y00198*
X0247Y00198*
X0247Y00198*
X0247Y00198*
X0247Y00197*
X0247Y00197*
X0247Y00197*
X0247Y00197*
X0247Y00197*
X02471Y00199D02*
D01*
X02471Y00199*
X02471Y00199*
X02471Y00199*
X02471Y00199*
X02471Y00199*
X02471Y00199*
X02471Y00199D02*
D01*
X02471Y00199*
X02471Y00199*
X02471Y00199*
X02471Y00199*
X02471Y00199*
X02487Y00269D02*
D01*
X02487Y00269*
X02487*
X02487*
X02487*
X02487Y00269*
X00966Y00282D02*
D01*
X00966Y00282*
X00966Y00282*
X00966Y00282*
X00966Y00282*
X00966Y00283*
X00966Y00283*
X00966Y00283*
X00951Y00283D02*
D01*
X00951Y00283*
X00951Y00283*
X00951Y00283*
X00951Y00283*
X00951Y00283*
X00951Y00283*
X00951Y00283*
X00951Y00283*
X00951Y00283*
X00951Y00283*
X00951Y00283*
X00951Y00283*
X00951Y00283*
X00951Y00283*
X00951Y00283*
X00951Y00283*
X00951Y00283*
X00951Y00282*
X00951Y00282*
X00951Y00282*
X00951Y00282*
X00951Y00282*
X00952*
Y00499D02*
D01*
X00951Y00498*
X00951Y00498*
X00951Y00498*
X00951Y00498*
X00951Y00498*
X00951Y00498*
X00951Y00498*
X00951Y00498*
X00951Y00498*
X00951Y00498*
X00951Y00498*
X00951Y00498*
X00951Y00498*
X00951Y00498*
X00951Y00498*
X00951Y00498*
X00951Y00498*
X00951Y00498*
X00951Y00498*
X00951Y00498*
X00951Y00498*
X00951Y00498*
Y00498*
X01166Y00498D02*
D01*
X01166Y00498*
X01166Y00498*
X01166Y00498*
X01166Y00498*
X01166Y00498*
X01166Y00498*
X01166Y00498*
X01166Y00498*
X01166Y00498*
X01166Y00499*
X01166Y00499*
X01166Y00499*
X02326Y00466D02*
D01*
X02326Y00466*
X02326Y00466*
X02326Y00466*
X02326Y00466*
X02326Y00466*
X02326Y00465*
X02327Y00465*
X02327Y00465*
X02327Y00465*
X02327Y00465*
X02327Y00465*
X02327Y00465*
X02327Y00465*
X02327Y00465*
X02328Y00465*
X02328Y00465*
X02328Y00465*
X00535Y00179D02*
D01*
X00535Y00179*
Y00179*
Y00179*
Y00179*
X00535Y0018*
X00534Y00178D02*
D01*
X00534Y00178*
X00534Y00178*
X00534Y00178*
X00535Y00178*
X00535Y00178*
X00535Y00178*
X00535Y00178*
X00535Y00179*
X00535Y00179*
X00535Y00179*
X00535Y00179*
X00535Y00179*
X00535Y00179*
X00535Y00179*
X00535Y00179*
X00532Y00177D02*
D01*
X00532Y00177*
X00532Y00177*
X00532Y00177*
X00532Y00177*
X00532Y00177*
X00533Y00177*
X00533Y00177*
X00533Y00177*
X00533Y00177*
X00533Y00177*
X00533Y00177*
X00533Y00177*
X00534Y00177*
X00534Y00177*
X00534Y00177*
X00534Y00177*
X00534Y00178*
X00534Y00178*
X00436Y0018D02*
D01*
X00436Y0018*
X00436Y0018*
X00436Y00179*
X00436Y00179*
X00436Y00179*
X00436Y00179*
X00436Y00179*
X00436Y00179*
X00436Y00179*
X00436Y00178*
X00436Y00178*
X00436Y00178*
X00436Y00178*
X00436Y00178*
X00436Y00178*
X00436Y00178*
X00436Y00178*
X00437Y00178*
X00437Y00178*
X00437Y00177*
X00437Y00177*
X00437Y00177*
X00437Y00177*
X00437Y00177*
X00437Y00177*
X00438Y00177*
X00438Y00177*
X00436Y0018D02*
D01*
X00436Y0018*
X00436Y0018*
X00436Y0018*
X00436Y0018*
X00436Y0018*
X00436*
X00436Y0018D02*
D01*
X00436Y0018*
X00436Y0018*
X00436Y0018*
X00436Y0018*
X00436Y0018*
X00436*
X00413Y00303D02*
D01*
X00413Y00303*
X00413Y00303*
X00413Y00303*
X00413Y00303*
X00413Y00303*
X00413Y00303*
X-00435Y0018D02*
D01*
X-00435Y0018*
X-00435Y0018*
X-00435Y0018*
X-00435Y0018D02*
D01*
Y0018*
X-00435Y0018*
Y0018*
X-00435Y0018*
Y0018*
X-00435Y0018*
X-00435Y00179D02*
D01*
X-00435Y0018*
X-00435Y0018*
X-00437Y00177D02*
D01*
X-00437Y00177*
X-00437Y00177*
X-00437Y00177*
X-00437Y00177*
X-00436Y00178*
X-00436Y00178*
X-00436Y00178*
X-00436Y00178*
X-00436Y00178*
X-00436Y00178*
X-00436Y00178*
X-00436Y00178*
X-00436Y00178*
X-00436Y00179*
X-00435Y00179*
X-00435Y00179*
X-00435Y00179*
X-00435Y00179*
X-00435Y00179*
X-00435Y00179*
X-00435Y00179*
X-00437Y00177D02*
D01*
X-00437*
X-00437*
X-00437Y00177*
X-00437Y00177*
X-00437Y00177*
X-00437Y00177D02*
D01*
X-00437Y00177*
X-00437Y00177*
X-00534Y00177D02*
D01*
X-00533Y00177*
X-00533Y00177*
X-00533Y00177*
X-00533Y00177*
X-00533Y00177*
X-00533Y00177*
X-00533Y00177*
X-00533Y00177*
X-00532Y00177*
X-00532Y00177*
X-00532Y00177*
X-00532Y00177*
X-00532Y00177*
X-00532Y00177*
X-00532Y00177*
X-00532Y00177*
X-00531Y00177*
X-00535Y00179D02*
D01*
X-00535Y00179*
X-00535Y00179*
X-00535Y00179*
X-00535Y00178*
X-00534Y00178*
X-00534Y00178*
X-00534Y00178*
X-00534Y00178*
X-00534Y00178*
X-00534Y00178*
X-00534Y00178*
X-00534Y00178*
X-00534Y00178*
X-00534Y00177*
X-00534Y00177*
X-02329Y00465D02*
D01*
X-02329Y00465*
X-02329Y00465*
X-02329Y00465*
X-02329Y00464*
X-02329Y00464*
X-02329Y00464*
X-02328Y00464*
X-02328Y00464*
X-02328Y00464*
X-02328Y00464*
X-02328Y00464*
X-02328Y00464*
X-02328Y00464*
X-02327Y00464*
X-02327Y00464*
X-02327Y00464*
X-02327Y00464*
X-02327Y00464*
X-02327Y00464*
X-02327Y00464*
X-02327Y00464*
X-02326Y00464*
X-02326Y00464*
X-02326Y00464*
X-02326Y00464*
X-01166Y00499D02*
D01*
X-01166Y00498*
X-01166Y00498*
X-01166Y00498*
X-01166Y00498*
X-01166Y00498*
X-01166Y00498*
X-01166Y00498*
X-01166Y00498*
X-01166Y00498*
X-01166Y00498*
X-01166Y00498*
X-01166Y00498*
X-00951Y00498D02*
D01*
X-00951Y00498*
X-00951Y00498*
X-00951Y00498*
X-00951Y00498*
X-00951Y00498*
X-00951Y00498*
X-00951Y00498*
X-00951Y00498*
X-00951Y00498*
X-00951Y00498*
X-00951Y00498*
X-00951Y00498*
X-00951Y00498*
X-00951Y00498*
X-00951Y00498*
X-00951Y00498*
X-00951Y00498*
X-00951Y00498*
X-00951Y00498*
X-00951Y00498*
X-00951Y00498*
X-00951Y00498*
X-00952Y00499*
Y00282D02*
D01*
X-00951Y00282*
X-00951Y00282*
X-00951Y00282*
X-00951Y00282*
X-00951Y00283*
X-00951Y00283*
X-00951Y00283*
X-00951Y00283*
X-00951Y00283*
X-00951Y00283*
X-00951Y00283*
X-00951Y00283*
X-00951Y00283*
X-00951Y00283*
X-00951Y00283*
X-00951Y00283*
X-00951Y00283*
X-00951Y00283*
X-00951Y00283*
X-00951Y00283*
X-00951Y00283*
X-00951Y00283*
Y00283*
X-00966Y00283D02*
D01*
X-00966Y00283*
X-00966Y00283*
X-00966Y00282*
X-00966Y00282*
X-00966Y00282*
X-00966Y00282*
X-00966Y00282*
X-02471Y00199D02*
D01*
X-02471*
X-02471Y00199*
X-02471*
X-02471Y00199*
X-02471Y00199*
X-0247Y00197D02*
D01*
X-0247Y00198*
X-0247Y00198*
X-0247Y00198*
X-0247Y00198*
X-0247Y00198*
X-0247Y00198*
X-0247Y00198*
X-0247Y00198*
X-0247Y00199*
X-0247Y00199*
X-0247Y00199*
X-0247Y00199*
X-0247Y00199*
X-0247Y00199*
X-02471Y00199*
X-02471Y00199*
X-02471Y00199*
X-02471Y00199*
X-02471Y00199*
X-0247Y00197D02*
D01*
Y00197*
Y00197*
Y00197*
Y00197*
Y00197*
X-0247Y00197D02*
D01*
X-0247Y00197*
X-0247Y00197*
X-0247Y00197*
X-0247Y00197*
X-02487Y-00006D02*
D01*
Y-00006*
Y-00006*
X-02487Y-00006*
Y-00006*
X-02487Y-00006*
X-02487*
Y-00006D02*
D01*
Y-00006*
Y-00006*
Y-00006*
Y-00006*
Y-00006*
Y-00006D02*
D01*
Y-00006*
Y-00006*
Y-00006*
X-02487Y-00006*
X-02487Y-00006*
X-02489Y-00008D02*
D01*
X-02489Y-00008*
X-02489Y-00008*
X-02489Y-00008*
X-02489Y-00008*
X-02489Y-00008*
X-02488Y-00008*
X-02488Y-00008*
X-02488Y-00008*
X-02488Y-00008*
X-02488Y-00008*
X-02488Y-00007*
X-02488Y-00007*
X-02488Y-00007*
X-02488Y-00007*
X-02488Y-00007*
X-02488Y-00007*
X-02487Y-00007*
X-02487Y-00007*
X-02487Y-00006*
X-02487Y-00006*
X-02487Y-00006*
Y-00006*
X-02489Y-00008D02*
D01*
X-02489Y-00008*
X-02489*
X-02489*
X-02489*
X-02489Y-00008*
X-02567Y-00009D02*
D01*
X-02567Y-00009*
X-02567*
X-02567*
X-02567*
X-02567Y-00009*
X-02569Y-00007D02*
D01*
X-02569Y-00007*
X-02569Y-00007*
X-02569Y-00007*
X-02569Y-00008*
X-02569Y-00008*
X-02569Y-00008*
X-02569Y-00008*
X-02569Y-00008*
X-02569Y-00008*
X-02568Y-00008*
X-02568Y-00008*
X-02568Y-00008*
X-02568Y-00008*
X-02568Y-00009*
X-02568Y-00009*
X-02568Y-00009*
X-02568Y-00009*
X-02568Y-00009*
X-02567Y-00009*
X-02567Y-00009*
X-02567Y-00009*
X-02567*
X-02569Y-00007D02*
D01*
X-02569Y-00007*
Y-00007*
Y-00007*
Y-00007*
X-02569Y-00007*
X-02618Y0017D02*
D01*
X-02618Y0017*
X-02618Y0017*
X-02619Y0017*
X-02619Y0017*
X-02619Y0017*
X-02619Y0017*
X-02619Y0017*
X-02619Y0017*
X-02619Y0017*
X-02619Y0017*
X-0262Y0017*
X-0262Y0017*
X-0262Y0017*
X-0262Y00169*
X-0262Y00169*
X-0262Y00169*
X-0262Y00169*
X-0262Y00169*
X-0262Y00169*
X-0262Y00169*
X-0262Y00169*
X-0262Y00168*
X-0262Y00168*
X-0262Y00168*
X-0262Y00168*
X-0262Y00168*
X-0262Y00168*
X-0262Y00168*
X-0262Y00167*
X-02618Y0017D02*
D01*
X-02618Y0017*
X-02618*
X-02618*
X-02618*
X-02618Y0017*
X-02618D02*
D01*
X-02618Y0017*
X-02618*
X-02618*
X-02618*
X-02618Y0017*
X-02784Y00267D02*
D01*
X-02784Y00267*
X-02784Y00267*
X-02784D02*
D01*
X-02784Y00267*
X-02784*
X-02784Y00267*
X-02784*
X-02784Y00267*
Y00267*
X-02801Y00269D02*
D01*
X-02801Y00269*
X-02801Y00269*
X-02801Y00269*
X-02801Y00269*
X-02487Y00268D02*
X-02486Y00431D01*
X02487Y00431D02*
X02488Y00268D01*
X-02822Y00589D02*
X-02817Y0059D01*
X-02827Y00586D02*
X-02822Y00589D01*
X-02831Y00583D02*
X-02827Y00586D01*
X-02834Y00579D02*
X-02831Y00583D01*
X-02837Y00574D02*
X-02834Y00579D01*
X-02839Y0057D02*
X-02837Y00574D01*
X-0284Y00565D02*
X-02839Y0057D01*
X-0284Y0056D02*
X-0284Y00565D01*
X-0284Y0056D02*
X-02839Y00557D01*
X-02839Y00555*
X-02837Y0055*
X-02834Y00545*
X-02831Y00541*
X-02827Y00538*
X-02823Y00535*
X-02818Y00533*
X-02813Y00532*
X-02808Y00532*
X-02806Y00533*
X-02803Y00533*
X-02798Y00535*
X-02793Y00537*
X-0279Y00541*
X-02786Y00545*
X-02784Y00549*
X-02782Y00554*
X-02781Y00559*
X-02781Y00563*
X-02781Y00566D02*
X-02781Y00563D01*
X-02782Y00569D02*
X-02781Y00566D01*
X-02783Y00574D02*
X-02782Y00569D01*
X-02786Y00579D02*
X-02783Y00574D01*
X-02789Y00582D02*
X-02786Y00579D01*
X-02793Y00586D02*
X-02789Y00582D01*
X-02798Y00588D02*
X-02793Y00586D01*
X-02802Y0059D02*
X-02798Y00588D01*
X-02807Y00591D02*
X-02802Y0059D01*
X-02812Y00591D02*
X-02807Y00591D01*
X-02815Y00591D02*
X-02812Y00591D01*
X-02817Y0059D02*
X-02815Y00591D01*
X02804Y00533D02*
X02809Y00532D01*
X02815Y00532*
X02819Y00534*
X02824Y00536*
X02829Y00538*
X02832Y00542*
X02835Y00546*
X02838Y0055*
X02839Y00552*
X02839Y00555*
X0284Y0056*
X0284Y00566D02*
X0284Y0056D01*
X02839Y00571D02*
X0284Y00566D01*
X02837Y00575D02*
X02839Y00571D01*
X02834Y0058D02*
X02837Y00575D01*
X02831Y00583D02*
X02834Y0058D01*
X02827Y00587D02*
X02831Y00583D01*
X02822Y00589D02*
X02827Y00587D01*
X0282Y0059D02*
X02822Y00589D01*
X02817Y0059D02*
X0282Y0059D01*
X02812Y00591D02*
X02817Y0059D01*
X02807Y00591D02*
X02812Y00591D01*
X02802Y0059D02*
X02807Y00591D01*
X02797Y00588D02*
X02802Y0059D01*
X02793Y00585D02*
X02797Y00588D01*
X02789Y00582D02*
X02793Y00585D01*
X02786Y00578D02*
X02789Y00582D01*
X02784Y00574D02*
X02786Y00578D01*
X02783Y00571D02*
X02784Y00574D01*
X02782Y00569D02*
X02783Y00571D01*
X02781Y00563D02*
X02782Y00569D01*
X02781Y00563D02*
X02781Y00558D01*
X02782Y00553*
X02784Y00548*
X02787Y00544*
X02791Y0054*
X02795Y00537*
X02799Y00535*
X02801Y00534*
X02804Y00533*
X-02817Y00274D02*
X-02801Y00269D01*
X-02817Y00274D02*
D01*
X-02818Y00274D02*
D01*
X-02818Y00274D01*
X-02832Y00283D02*
X-02818Y00274D01*
X-02832Y00283D02*
X-02832Y00283D01*
X-02832Y00283D02*
X-02832Y00283D01*
X-02845Y00294D02*
X-02832Y00283D01*
X-02855Y00308D02*
X-02845Y00294D01*
X-02855Y00308D02*
D01*
X-02856Y004D02*
X-02855Y00309D01*
X-02856Y00444D02*
X-02856Y004D01*
X-02856Y00454D02*
X-02856Y00444D01*
X-02857Y00498D02*
X-02856Y00454D01*
X-02857Y00504D02*
X-02857Y00498D01*
X-02865Y00505D02*
X-02857Y00504D01*
X-02865Y00505D02*
X-02865D01*
X-02865D02*
X-02865D01*
X-02874Y00509D02*
X-02865Y00505D01*
X-02874Y00509D02*
D01*
X-02874*
X-02874D02*
D01*
X-02882Y00515D02*
X-02874Y00509D01*
X-02882Y00515D02*
D01*
X-02888Y00523D02*
X-02882Y00515D01*
X-02892Y00532D02*
X-02888Y00523D01*
X-02893Y00542D02*
X-02892Y00532D01*
X-02893Y00629D02*
X-02893Y00542D01*
X-02892Y00631D02*
X-02892Y00631D01*
X-02875Y0064D01*
X-02875Y0064D02*
Y0064D01*
X-02875Y0064D02*
X-02875Y0064D01*
X-02856Y00645*
X-02856*
X-02856D02*
X-02856D01*
X-02856Y00645D02*
X-02836Y00648D01*
X-02836Y00648D02*
X-02818Y00648D01*
D01*
X-02816Y00646D02*
X-02816Y00625D01*
Y00625D02*
D01*
X-02816Y00605*
X-02658Y00606*
D01*
X-02656Y00604D02*
X-02655Y00508D01*
D01*
X-02655Y005*
X-02654Y00456*
D01*
X-02654Y00446*
Y00446D02*
Y00446D01*
X-02654Y00404*
X-02648Y00405*
X-02641Y00408*
X-02637Y00411*
X-02633Y00416*
X-0263Y00421*
X-02629Y00426*
X-02628Y00432*
X-02628Y00433D02*
X-02628Y00432D01*
X-02628Y00433D02*
D01*
D01*
X-02626Y00435D02*
X-02626Y00435D01*
X-02625Y00435D01*
X-02625Y00435*
X-02624Y00435*
X-02624Y00436*
X-02623Y00436*
X-02623Y00437*
X-02623Y00438*
Y00438D02*
Y00438D01*
X-02623Y00439D02*
X-02623Y00438D01*
X-02623Y00439D02*
X-02623Y00439D01*
X-02624Y0044D02*
X-02623Y00439D01*
X-02624Y0044D02*
X-02624Y0044D01*
X-02625Y00441D02*
X-02624Y0044D01*
X-02625Y00441D02*
X-02625Y00441D01*
X-02626Y00441D02*
X-02625Y00441D01*
X-02626Y00441D02*
D01*
X-02628Y00443D02*
D01*
X-02629Y00551D02*
X-02628Y00443D01*
X-02629Y00551D02*
D01*
Y00551D02*
Y00551D01*
X-02628Y00556*
Y00556*
Y00556D02*
Y00556D01*
D01*
X-02628Y00556D02*
X-02626Y00561D01*
X-02626Y00561D02*
D01*
X-02626Y00561D02*
X-02626Y00561D01*
X-02623Y00564*
Y00564*
Y00564D02*
Y00564D01*
X-02623*
X-02623Y00565D02*
X-0262Y00567D01*
X-0262Y00567D02*
X-02616Y00569D01*
X-02616Y00569D02*
X-02611Y0057D01*
X-02611Y0057D02*
X-0261Y0057D01*
X-0261D02*
X-02548Y0057D01*
X-02548Y0062D02*
X-02548Y0057D01*
X-02547Y00622D02*
X-02547Y00622D01*
D01*
X-02503Y00636D01*
X-02472Y00649*
X-02454Y00658*
X-02454Y00658D02*
X-02454Y00658D01*
X-02454Y00658D02*
X-02454Y00658D01*
X-02454Y00658*
X-02454Y00658D02*
X-02454Y00658D01*
X-02454Y00658D02*
X-02436Y00669D01*
X-02435Y00669D02*
D01*
X-02435D02*
X-02435D01*
X-02358Y00692*
X-02358Y00692*
X-02358Y00692D02*
X-02358Y00692D01*
X-02358Y00692D02*
X-02275Y00717D01*
X-02274Y00719D02*
X-02273Y00719D01*
X-02089Y00774D01*
D01*
X-02066Y00781D01*
D01*
X-02043Y00787D01*
X-02043*
X-02043D02*
X-02043D01*
X-0202Y00794*
X-0202*
X-0202D02*
X-0202D01*
X-0202D02*
D01*
X-01995Y00801*
X-01995*
X-01995D02*
Y00801D01*
X-01995Y00801D02*
X-01995D01*
X-01995Y00801D02*
D01*
X-01995D02*
X-01995D01*
X-01971Y00808*
X-01971*
X-01971D02*
X-01971D01*
X-01971D02*
X-01946Y00814D01*
X-01946D02*
X-01946Y00814D01*
X-01946Y00814D02*
X-01946D01*
X-01946Y00814*
X-01874Y0083*
X-01874*
X-01874D02*
X-01874D01*
X-01874D02*
X-01874Y0083D01*
X-01874*
X-01874*
X-01874Y0083D02*
X-01874D01*
X-01874Y0083D02*
X-01874D01*
X-01801Y00843*
X-01801*
X-01801D02*
X-01801D01*
X-01801*
X-01801Y00843D02*
X-01728Y00853D01*
X-01728Y00853D02*
X-01686Y00857D01*
X-01686Y00857D02*
X-01644Y0086D01*
X-01644D02*
X-01582Y0086D01*
X-01516Y0086D01*
X-01449Y0086D01*
X-01449D02*
X-0137Y00853D01*
X-01369D02*
Y00853D01*
X-01369Y00853D02*
X-01369Y00853D01*
X-0129Y00842*
X-0129*
X-0129Y00842D02*
X-01219Y00829D01*
X-01219Y00829D02*
X-01149Y00813D01*
X-01149*
X-01149D02*
X-01149D01*
X-01149Y00813D02*
X-01072Y00791D01*
X-01072Y00791D02*
X-00996Y00765D01*
X-00996Y00765D02*
X-00933Y0074D01*
X-00933Y0074D02*
X-00933Y0074D01*
X-00933D02*
X-00871Y00713D01*
X-00871*
X-00871Y00713D02*
X-00807Y00682D01*
X-00807*
X-00807D02*
D01*
X-00807Y00682D02*
D01*
X-00807*
X-00745Y00648*
X-00745*
X-00745D02*
X-00745D01*
X-00745*
X-00745Y00648D02*
X-00684Y00611D01*
X-00684Y00611D02*
X-00631Y00576D01*
X-00631Y00576D02*
X-0058Y00539D01*
X-0058Y00539D02*
X-0053Y00501D01*
X-00491Y00502*
X-00457Y00533*
X-00436Y00551D01*
X-00436Y00551D02*
X-00436D01*
X-00429Y00554*
X-00415Y00565*
X-00415Y00565*
D01*
X-00415Y00565D02*
X-00415Y00565D01*
X-00403Y00575D01*
X-00403D02*
X-00403D01*
X-00401Y00575D02*
X-00401Y00575D01*
X-00383Y00565D01*
X-00382Y00565*
X-00379Y00564*
X-00375Y00563*
X-00371Y00563*
X00372*
X00375Y00563*
X00379Y00564*
X00382Y00565*
X00383Y00565*
X00401Y00575*
D01*
D01*
X00404Y00575D02*
D01*
X00404Y00575D02*
X00415Y00565D01*
X00415D02*
Y00565D01*
X00429Y00554*
X00436Y00552*
X00436Y00552*
X00436*
X00436Y00552D02*
X00436Y00552D01*
X00436Y00551D02*
X00457Y00533D01*
X00457Y00533D02*
X00492Y00502D01*
X0053Y00501*
X0058Y00539*
X0058Y00539D02*
X00631Y00576D01*
X00632Y00576*
D01*
D01*
X00685Y00611*
X00685*
X00685D02*
X00685D01*
X00685Y00611D01*
X00685Y00611D02*
D01*
X00685Y00611D02*
X00685D01*
X00685D02*
X00685D01*
X00745Y00648*
X00745*
X00745D02*
X00745D01*
X00745D02*
X00745D01*
X00745Y00648D02*
X00808Y00682D01*
X00808Y00682D02*
X00871Y00713D01*
X00871Y00713D02*
D01*
Y00713D02*
Y00713D01*
X00945Y00745*
X00945Y00745*
X00945Y00745D02*
D01*
X00945Y00745D02*
X0102Y00773D01*
X0102Y00774D02*
X01089Y00796D01*
X01089Y00796D02*
X01158Y00815D01*
X01158Y00815D02*
X01236Y00832D01*
X01236Y00832D02*
X01315Y00846D01*
X01315Y00846D02*
X01382Y00854D01*
X01382D02*
D01*
D01*
X0145Y0086*
X0145*
X0145D02*
X0145D01*
D01*
X0145Y0086D02*
X01512Y0086D01*
X01578Y0086D01*
X01644Y0086D01*
X01644Y0086D02*
X01724Y00854D01*
X01724D02*
X01804Y00843D01*
X01804Y00843D02*
X01876Y0083D01*
X01876D02*
X01876Y0083D01*
X01876Y0083D02*
D01*
X01876Y0083*
X01946Y00814*
X01946*
X01946*
X01946D02*
X01946D01*
X01946Y00814D02*
X01971Y00808D01*
X01971*
X01971D02*
X01971D01*
X01971Y00808D02*
X01996Y00801D01*
X01996D02*
Y00801D01*
X01996Y00801D02*
X01996D01*
Y00801*
X0202Y00794*
D01*
X0202Y00794*
X0202D02*
X02045Y00787D01*
X02045*
X02045D02*
X02045D01*
X02068Y0078*
D01*
X02089Y00774D01*
D01*
X02274Y00719D01*
X02274Y00719*
X02274Y00719D02*
D01*
X02275Y00717D02*
X02275Y00717D01*
X02275D02*
X02275D01*
X02358Y00692*
D01*
X02436Y00669D01*
X02436Y00669D02*
D01*
D01*
X02465Y00653*
X02484Y00644*
X02503Y00636*
X02547Y00622*
X02549Y0062D02*
Y0062D01*
X02549Y0057D02*
X02549Y0062D01*
X02549Y0057D02*
X0261Y0057D01*
X02611Y0057D01*
X02612Y0057D02*
X02612D01*
X02612D02*
X02612D01*
X02612*
X02616Y00569*
X02616Y00569*
X02616*
X02616Y00569D02*
X02616Y00569D01*
X02616Y00569D02*
X0262Y00567D01*
X0262Y00567D02*
X02623Y00565D01*
X02624Y00565D02*
X02626Y00561D01*
X02626Y00561D02*
Y00561D01*
X02629Y00557*
Y00557D01*
X02629Y00556D02*
X02629Y00551D01*
X02628Y00443D02*
X02629Y00551D01*
X02628Y00443D02*
Y00443D01*
Y00443D02*
D01*
X02627Y00441D02*
D01*
X02626Y00441D02*
X02627Y00441D01*
X02625Y00441D02*
X02626Y00441D01*
X02624Y0044D02*
X02625Y00441D01*
X02624Y0044D02*
X02624Y0044D01*
X02624Y00439D02*
X02624Y0044D01*
X02623Y00439D02*
X02624Y00439D01*
X02623Y00438D02*
X02623Y00439D01*
X02623Y00438D02*
X02623Y00438D01*
X02623Y00438D02*
X02623Y00437D01*
X02624Y00436*
X02624Y00436*
X02624Y00435*
X02625Y00435*
X02626Y00435*
X02626Y00435*
X02628Y00433D02*
Y00433D01*
X02628Y00432D02*
X02628Y00433D01*
X02628Y00432D02*
X02629Y00426D01*
X02631Y00421*
X02633Y00416*
X02637Y00411*
X02642Y00408*
X02649Y00405*
X02654Y00404*
X02655Y00446*
X02655Y00456*
X02655Y005*
X02655Y00508*
X02656Y00604D01*
X02658Y00606D02*
X02658D01*
X02658D02*
D01*
X02658D02*
X02784D01*
X02803Y00625*
X02804Y00626D02*
X02816D01*
X02817Y00646*
X02819Y00648D02*
X02819Y00648D01*
X02819Y00648D02*
D01*
X02819Y00648D02*
X02837Y00648D01*
X02837D02*
X02856Y00646D01*
X02856Y00645D02*
X02856D01*
X02856D02*
X02856D01*
X02856D02*
X02856D01*
X02856D02*
X02875Y0064D01*
X02875Y0064D01*
X02875Y0064D02*
X02892Y00631D01*
D01*
X02894Y00629D02*
Y00629D01*
X02893Y00542D02*
X02894Y00629D01*
X02892Y00532D02*
X02893Y00542D01*
X02888Y00523D02*
X02892Y00532D01*
X02882Y00515D02*
X02888Y00523D01*
X02875Y00509D02*
X02882Y00515D01*
X02874Y00509D02*
X02874D01*
X02865Y00506D02*
X02874Y00509D01*
X02865Y00506D02*
X02865D01*
X02857Y00504D02*
X02865Y00505D01*
X02857Y00498D02*
X02857Y00504D01*
X02857Y00454D02*
X02857Y00498D01*
X02857Y00444D02*
X02857Y00454D01*
X02857Y00444D02*
Y00444D01*
X02856Y004D02*
X02857Y00444D01*
X02856Y00309D02*
X02856Y004D01*
X02855Y00308D02*
D01*
X02846Y00295D02*
X02855Y00308D01*
X02846Y00295D02*
D01*
X02833Y00283D02*
X02845Y00294D01*
X02833Y00283D02*
Y00283D01*
Y00283D02*
X02833Y00283D01*
X02818Y00274D02*
X02833Y00283D01*
X02818Y00274D02*
D01*
X02802Y00269D02*
X02818Y00274D01*
X02802Y00269D02*
X02802D01*
X02785Y00267D02*
X02802Y00269D01*
X02639Y00269D02*
X02785Y00267D01*
X02625Y00269D02*
X02639Y00269D01*
X02542Y0027D02*
X02625Y00269D01*
X02541Y00171D02*
X02542Y0027D01*
X02541Y00171D02*
X02619Y0017D01*
D01*
X026Y00126D02*
X0262Y00168D01*
X02584Y00083D02*
X026Y00126D01*
X02574Y00038D02*
X02584Y00083D01*
X02569Y-00007D02*
X02574Y00038D01*
X02569Y-00007D02*
D01*
X02567Y-00009D02*
D01*
X0249Y-00008D02*
X02567Y-00009D01*
X0249Y-00008D02*
D01*
X02488Y-00006D02*
X02488Y-00006D01*
X02488Y-00006D02*
D01*
X02488Y-00006D02*
X02491Y00039D01*
X02491Y00085D02*
X02491Y00039D01*
X02485Y00131D02*
X02491Y00085D01*
X02476Y00176D02*
X02485Y00131D01*
X02476Y00176D02*
X02476Y00176D01*
X02476Y00176D02*
X02476Y00176D01*
X0247Y00197D02*
X02476Y00176D01*
X02471Y00199D02*
X02471Y00199D01*
X02471Y00199D02*
D01*
X02471Y00199D02*
X02479Y00202D01*
X02486Y00205*
X02492Y00211*
X02497Y00217*
X02501Y00224*
X02503Y00232*
X02503Y0024*
X02502Y00248D02*
X02503Y0024D01*
X02499Y00255D02*
X02502Y00248D01*
X02495Y00262D02*
X02499Y00255D01*
X02489Y00267D02*
X02495Y00262D01*
X02487Y00269D02*
X02489Y00267D01*
X02438Y00269D02*
X02487Y00269D01*
X02399Y00269D02*
X02438Y00269D01*
X02265Y00271D02*
X02399Y00269D01*
X0198Y00273D02*
X02265Y00271D01*
X00966Y00283D02*
X0198Y00273D01*
X00952Y00282D02*
X00966D01*
X00951Y00283D02*
Y00498D01*
X00952Y00499D02*
X01166D01*
X01166Y00498D02*
X01222Y00442D01*
X01983Y00435*
X02268Y00433*
X02401Y00431*
X0244Y00431*
X02487Y00431*
X02488Y00451*
X02487Y00454D02*
X02488Y00451D01*
X02486Y00457D02*
X02487Y00454D01*
X02485Y00459D02*
X02486Y00457D01*
X02483Y00461D02*
X02485Y00459D01*
X02481Y00462D02*
X02483Y00461D01*
X02478Y00463D02*
X02481Y00462D01*
X02475Y00464D02*
X02478Y00463D01*
X02356Y00465D02*
X02475Y00464D01*
X02328Y00465D02*
X02356Y00465D01*
X02328Y00465D02*
D01*
X02231Y0054D02*
X02326Y00466D01*
X0219Y00567D02*
X02231Y0054D01*
X0215Y00589D02*
X0219Y00567D01*
X0215Y00589D02*
X0215Y00589D01*
X0215Y00589D02*
X0215Y00589D01*
X02118Y00604D02*
X0215Y00589D01*
X02118Y00604D02*
X02118Y00604D01*
X02118Y00604D02*
X02118Y00604D01*
X02119Y00604*
X02118Y00604D02*
X02119Y00604D01*
X02086Y00617D02*
X02118Y00604D01*
X02086Y00617D02*
X02086Y00617D01*
X02086Y00617D02*
X02086Y00617D01*
X0207Y00624D02*
X02086Y00617D01*
X0207Y00624D02*
X0207Y00624D01*
X0207Y00624D02*
X0207Y00624D01*
X0207*
X0207D02*
X0207D01*
X02061Y00627D02*
X0207Y00624D01*
X02061Y00627D02*
D01*
D01*
X02061*
X02061D02*
X02061D01*
X02052Y00629D02*
X02061Y00627D01*
X02052Y00629D02*
X02052Y00629D01*
X02052Y00629D02*
X02052Y00629D01*
X02021Y00639D02*
X02052Y00629D01*
X02021Y00639D02*
X02021D01*
X02021D02*
X02021D01*
X02021D02*
X02021D01*
X02021D02*
X02021D01*
X0199Y00648D02*
X02021Y00639D01*
X0199Y00648D02*
D01*
D01*
X0199D02*
X0199D01*
X0199D02*
X0199D01*
X01948Y0066D02*
X0199Y00648D01*
X01948Y0066D02*
X01948D01*
X01948D02*
X01948D01*
X01861Y00681D02*
X01948Y0066D01*
X01861Y00681D02*
X01861D01*
X01861D02*
X01861D01*
X01861D02*
X01861D01*
X01861D02*
X01861D01*
X01774Y007D02*
X01861Y00681D01*
X01774Y007D02*
X01774D01*
X01774D02*
X01774D01*
X01774*
X01774D02*
X01774D01*
X01686Y00715D02*
X01774Y007D01*
X01686Y00715D02*
X01686D01*
X01686D02*
X01686D01*
X01686*
X01686D02*
X01686D01*
X01628Y00723D02*
X01686Y00715D01*
X0157Y0073D02*
X01628Y00723D01*
X0157Y0073D02*
X0157D01*
X0157D02*
X0157D01*
X0157Y0073D02*
X0157Y0073D01*
X0157Y0073D02*
X0157Y0073D01*
X01504Y00734D02*
X0157Y0073D01*
X01504Y00734D02*
X01504D01*
X01504D02*
X01504D01*
X01504*
X01504D02*
X01504D01*
X01445Y00735D02*
X01504Y00734D01*
X01445Y00735D02*
X01445D01*
X01445D02*
X01445D01*
X0138Y00732D02*
X01445Y00735D01*
X01322Y00726D02*
X0138Y00732D01*
X01322Y00726D02*
X01322D01*
X01322D02*
X01322D01*
X01264Y00717D02*
X01322Y00726D01*
X012Y00703D02*
X01264Y00717D01*
X01138Y00686D02*
X012Y00703D01*
X01082Y00666D02*
X01138Y00686D01*
X01082Y00666D02*
X01082Y00666D01*
X01082Y00666D02*
X01082Y00666D01*
X01028Y00644D02*
X01082Y00666D01*
X01028Y00644D02*
X01028Y00644D01*
X01028Y00644D02*
X01028Y00644D01*
X00969Y00616D02*
X01028Y00644D01*
X00969Y00616D02*
X00969Y00616D01*
X00969Y00616D02*
X00969Y00616D01*
X00912Y00584D02*
X00969Y00616D01*
X00862Y00552D02*
X00912Y00584D01*
X0083Y00529D02*
X00862Y00552D01*
X0083Y00529D02*
X0083Y00529D01*
X0083Y00529D02*
X0083Y00529D01*
X00798Y00505D02*
X0083Y00529D01*
X00759Y00473D02*
X00798Y00505D01*
X00759Y00473D02*
X00759Y00473D01*
X00759Y00473D02*
X00759Y00473D01*
X00721Y00439D02*
X00759Y00473D01*
X00685Y00402D02*
X00721Y00439D01*
X00623Y0033D02*
X00685Y00402D01*
X00594Y00291D02*
X00623Y0033D01*
X00568Y0025D02*
X00594Y00291D01*
X0055Y00215D02*
X00568Y0025D01*
X00535Y0018D02*
X0055Y00215D01*
X00491Y00177D02*
X00532D01*
X00438Y00177D02*
X00491Y00177D01*
X00438Y00177D02*
D01*
X00436Y0018D02*
X00436Y0018D01*
D01*
X00436Y0018D02*
D01*
X00436Y0018D02*
X00441Y002D01*
X00444Y00219*
X00443Y00238D02*
X00444Y00219D01*
X00439Y00257D02*
X00443Y00238D01*
X00432Y00275D02*
X00439Y00257D01*
X00424Y00289D02*
X00432Y00275D01*
X00414Y00302D02*
X00424Y00289D01*
X00413Y00303D02*
X00414Y00302D01*
X00413Y00303D02*
X00413Y00303D01*
Y00303D02*
Y00303D01*
X00413Y00303D02*
X00413D01*
X00354Y00344D02*
X00413Y00303D01*
X00346Y00347D02*
X00354Y00344D01*
X00346Y00347D02*
X00346D01*
X00346D02*
X00346D01*
Y00347*
Y00347D02*
Y00347D01*
X00331Y00354D02*
X00346Y00347D01*
X00285Y00372D02*
X00331Y00354D01*
X0025Y00381D02*
X00285Y00372D01*
X00228Y00386D02*
X0025Y00381D01*
X00228Y00386D02*
X00228D01*
X00228D02*
X00228D01*
X00228Y00386D02*
X00228Y00386D01*
X00228Y00386D02*
X00228Y00386D01*
X00205Y00389D02*
X00228Y00386D01*
X00148Y00393D02*
X00205Y00389D01*
X-00148Y00393D02*
X00148D01*
X-00204Y00389D02*
X-00148Y00393D01*
X-00241Y00383D02*
X-00204Y00389D01*
X-00263Y00378D02*
X-00241Y00383D01*
X-00284Y00372D02*
X-00263Y00378D01*
X-0033Y00354D02*
X-00284Y00372D01*
X-00346Y00347D02*
X-0033Y00354D01*
X-00353Y00344D02*
X-00346Y00347D01*
X-00413Y00303D02*
X-00353Y00344D01*
X-00413Y00303D02*
X-00413D01*
X-00414Y00302D02*
X-00413Y00303D01*
X-00426Y00286D02*
X-00414Y00302D01*
X-00435Y00268D02*
X-00426Y00286D01*
X-00441Y0025D02*
X-00435Y00268D01*
X-00443Y00233D02*
X-00441Y0025D01*
X-00443Y00215D02*
X-00443Y00233D01*
X-00443Y00215D02*
X-00441Y00198D01*
X-00435Y0018*
X-00435Y0018D02*
Y0018D01*
X-00491Y00177D02*
X-00437D01*
X-00531Y00177D02*
X-00491Y00177D01*
X-00554Y00224D02*
X-00535Y00179D01*
X-00578Y00266D02*
X-00554Y00224D01*
X-00599Y00299D02*
X-00578Y00266D01*
X-00622Y0033D02*
X-00599Y00299D01*
X-00685Y00402D02*
X-00622Y0033D01*
X-00721Y00439D02*
X-00685Y00402D01*
X-00721Y00439D02*
X-00721Y00439D01*
X-00721Y00439D02*
X-00721Y00439D01*
X-00759Y00473D02*
X-00721Y00439D01*
X-00759Y00473D02*
X-00759Y00473D01*
X-00759Y00473D02*
X-00759Y00473D01*
X-00759Y00473*
X-00759Y00473D02*
X-00759Y00473D01*
X-00798Y00505D02*
X-00759Y00473D01*
X-00798Y00505D02*
X-00798Y00505D01*
X-00798Y00505D02*
X-00798Y00505D01*
X-00845Y00541D02*
X-00798Y00505D01*
X-00845Y00541D02*
X-00845Y00541D01*
X-00845Y00541D02*
X-00845Y00541D01*
X-00894Y00573D02*
X-00845Y00541D01*
X-00894Y00573D02*
X-00894Y00573D01*
X-00894Y00573D02*
X-00894Y00573D01*
X-00894Y00573D02*
X-00894Y00573D01*
X-00894Y00573D02*
X-00894Y00573D01*
X-00951Y00606D02*
X-00894Y00573D01*
X-00951Y00606D02*
X-00951Y00606D01*
X-00951Y00606D02*
X-00951Y00606D01*
X-00951Y00606D02*
X-00951Y00606D01*
X-00951Y00606D02*
X-00951Y00606D01*
X-01004Y00633D02*
X-00951Y00606D01*
X-01004Y00633D02*
X-01004Y00633D01*
X-01004Y00633D02*
X-01004Y00633D01*
X-01004Y00633*
X-01004Y00633D02*
X-01004Y00633D01*
X-01057Y00657D02*
X-01004Y00633D01*
X-01057Y00657D02*
X-01057Y00657D01*
X-01057Y00657D02*
X-01057Y00657D01*
X-01118Y00679D02*
X-01057Y00657D01*
X-01118Y00679D02*
X-01118Y00679D01*
X-01118Y00679D02*
X-01118Y00679D01*
X-0118Y00698D02*
X-01118Y00679D01*
X-0118Y00698D02*
X-0118D01*
X-0118D02*
X-0118D01*
X-0118Y00698D02*
X-0118Y00698D01*
X-0118Y00698D02*
X-0118Y00698D01*
X-01238Y00712D02*
X-0118Y00698D01*
X-01238Y00712D02*
X-01238Y00712D01*
X-01238Y00712D02*
X-01238Y00712D01*
X-01301Y00724D02*
X-01238Y00712D01*
X-01366Y00731D02*
X-01301Y00724D01*
X-01366Y00731D02*
X-01366D01*
X-01366D02*
X-01366D01*
X-01366D02*
X-01366D01*
X-01366D02*
X-01366D01*
X-01425Y00735D02*
X-01366Y00731D01*
X-01425Y00735D02*
X-01425D01*
X-01425D02*
X-01425D01*
X-01425*
X-01425D02*
X-01425D01*
X-01484Y00735D02*
X-01425Y00735D01*
X-01484Y00735D02*
X-01484D01*
X-01484D02*
X-01484D01*
X-01526Y00733D02*
X-01484Y00735D01*
X-01569Y0073D02*
X-01526Y00733D01*
X-01666Y00718D02*
X-01569Y0073D01*
X-01762Y00702D02*
X-01666Y00718D01*
X-01855Y00682D02*
X-01762Y00702D01*
X-01948Y0066D02*
X-01855Y00682D01*
X-01979Y00651D02*
X-01948Y0066D01*
X-0201Y00642D02*
X-01979Y00651D01*
X-02051Y00629D02*
X-0201Y00642D01*
X-02069Y00623D02*
X-02051Y00629D01*
X-02078Y0062D02*
X-02069Y00623D01*
X-02086Y00617D02*
X-02078Y0062D01*
X-02086Y00617D02*
X-02086Y00617D01*
X-02086Y00617D02*
X-02086Y00617D01*
X-02132Y00598D02*
X-02086Y00617D01*
X-02176Y00575D02*
X-02132Y00598D01*
X-02219Y00548D02*
X-02176Y00575D01*
X-02245Y00529D02*
X-02219Y00548D01*
X-02326Y00464D02*
X-02245Y00529D01*
X-02355Y00465D02*
X-02329Y00465D01*
X-02475Y00464D02*
X-02355Y00465D01*
X-02478Y00463D02*
X-02475Y00464D01*
X-0248Y00462D02*
X-02478Y00463D01*
X-02483Y00461D02*
X-0248Y00462D01*
X-02485Y00459D02*
X-02483Y00461D01*
X-02486Y00457D02*
X-02485Y00459D01*
X-02487Y00454D02*
X-02486Y00457D01*
X-02487Y00451D02*
X-02487Y00454D01*
X-02487Y00451D02*
X-02487Y00431D01*
X-0244Y00431*
X-02401Y00431*
X-02268Y00433*
X-01983Y00435*
X-01222Y00442*
X-01166Y00498*
X-01166Y00499D02*
X-00952D01*
X-00951Y00283D02*
Y00498D01*
X-00966Y00282D02*
X-00952D01*
X-0198Y00273D02*
X-00966Y00283D01*
X-02265Y00271D02*
X-0198Y00273D01*
X-02399Y00269D02*
X-02265Y00271D01*
X-02438Y00269D02*
X-02399Y00269D01*
X-02487Y00269D02*
X-02438Y00269D01*
X-02489Y00267D02*
X-02487Y00269D01*
X-02494Y00262D02*
X-02489Y00267D01*
X-02499Y00255D02*
X-02494Y00262D01*
X-02502Y00248D02*
X-02499Y00255D01*
X-02503Y0024D02*
X-02502Y00248D01*
X-02503Y0024D02*
X-02503Y00232D01*
X-02501Y00224*
X-02497Y00217*
X-02492Y00211*
X-02486Y00205*
X-02479Y00202*
X-02471Y00199*
X-02475Y00176D02*
X-0247Y00197D01*
X-02485Y00131D02*
X-02475Y00176D01*
X-0249Y00085D02*
X-02485Y00131D01*
X-02491Y00039D02*
X-0249Y00085D01*
X-02491Y00039D02*
X-02487Y-00006D01*
Y-00006D02*
Y-00006D01*
X-02567Y-00009D02*
X-02489Y-00008D01*
X-02567Y-00009D02*
D01*
X-02569Y-00007D02*
Y-00007D01*
D01*
Y-00007D02*
Y-00007D01*
X-02574Y00038D02*
X-02569Y-00007D01*
X-02584Y00083D02*
X-02574Y00038D01*
X-02599Y00126D02*
X-02584Y00083D01*
X-0262Y00167D02*
X-02599Y00126D01*
X-02618Y0017D02*
X-02618D01*
X-02618D02*
D01*
X-02618D02*
X-0254Y00171D01*
X-02541Y0027D02*
X-0254Y00171D01*
X-02624Y00269D02*
X-02541Y0027D01*
X-02639Y00269D02*
X-02624Y00269D01*
X-02784Y00267D02*
X-02639Y00269D01*
X-02784Y00267D02*
X-02784D01*
X-02784*
X-02784D02*
X-02784D01*
X-02801Y00269D02*
X-02784Y00267D01*
X-02801Y00269D02*
X-02801D01*
G54D59*
X-02855Y00308D03*
X-02893Y00629D03*
X-02892Y00631D03*
X-02818Y00648D03*
D03*
X-02816Y00625D03*
X-02658Y00606D03*
X-02655Y00508D03*
D03*
X-02654Y00456D03*
X-02628Y00433D03*
D03*
X-02626Y00441D03*
X-02628Y00443D03*
X-02548Y0062D03*
X-02547Y00622D03*
X-02358Y00692D03*
X-01582Y0086D03*
X-01516Y0086D03*
X-00457Y00533D03*
X-00415Y00565D03*
X-00401Y00575D03*
X00401D03*
X00632Y00576D03*
X01382Y00854D03*
X01512Y0086D03*
X01578Y0086D03*
X02274Y00719D03*
X02436Y00669D03*
X02549Y0062D03*
X0261Y0057D03*
X02629Y00551D03*
X02628Y00443D03*
X02655Y00508D03*
X02819Y00648D03*
X02894Y00629D03*
X02894D03*
X02818Y00274D03*
X02639Y00269D03*
X02619Y0017D03*
X02569Y-00007D03*
X0249Y-00008D03*
X02488Y-00006D03*
X02328Y00465D03*
X00491Y00177D03*
X00436Y0018D03*
X-00413Y00303D03*
X-0262Y00167D03*
X-02618Y0017D03*
M02*