%FSTAX23Y23*%
%MOIN*%
%SFA1B1*%

%IPPOS*%
%AMD19*
4,1,4,0.012300,-0.029600,0.028500,0.014800,-0.012300,0.029600,-0.028500,-0.014800,0.012300,-0.029600,0.0*
%
%AMD20*
4,1,4,0.022500,0.004400,-0.014500,0.017800,-0.022500,-0.004400,0.014500,-0.017800,0.022500,0.004400,0.0*
%
%AMD23*
4,1,4,-0.028500,0.014800,-0.012300,-0.029600,0.028500,-0.014800,0.012300,0.029600,-0.028500,0.014800,0.0*
%
%AMD24*
4,1,4,-0.014500,-0.017800,0.022500,-0.004400,0.014500,0.017800,-0.022500,0.004400,-0.014500,-0.017800,0.0*
%
%AMD25*
4,1,4,-0.002700,-0.024500,0.022100,0.010900,0.002700,0.024500,-0.022100,-0.010900,-0.002700,-0.024500,0.0*
1,1,0.043310,0.009700,-0.006800*
1,1,0.043310,-0.009700,0.006800*
%
%AMD26*
4,1,4,-0.022100,0.010900,0.002700,-0.024500,0.022100,-0.010900,-0.002700,0.024500,-0.022100,0.010900,0.0*
1,1,0.043310,-0.009700,-0.006800*
1,1,0.043310,0.009700,0.006800*
%
%ADD15R,0.031620X0.030000*%
%ADD16R,0.029650X0.029650*%
%ADD17C,0.016350*%
%ADD18R,0.030000X0.031620*%
G04~CAMADD=19~9~0.0~0.0~473.7~434.3~0.0~0.0~0~0.0~0.0~0.0~0.0~0~0.0~0.0~0.0~0.0~0~0.0~0.0~0.0~250.0~570.0~591.0*
%ADD19D19*%
G04~CAMADD=20~9~0.0~0.0~395.0~237.5~0.0~0.0~0~0.0~0.0~0.0~0.0~0~0.0~0.0~0.0~0.0~0~0.0~0.0~0.0~340.0~450.0~355.0*
%ADD20D20*%
%ADD21R,0.043430X0.047370*%
%ADD22R,0.039500X0.023750*%
G04~CAMADD=23~9~0.0~0.0~473.7~434.3~0.0~0.0~0~0.0~0.0~0.0~0.0~0~0.0~0.0~0.0~0.0~0~0.0~0.0~0.0~110.0~570.0~591.0*
%ADD23D23*%
G04~CAMADD=24~9~0.0~0.0~395.0~237.5~0.0~0.0~0~0.0~0.0~0.0~0.0~0~0.0~0.0~0.0~0.0~0~0.0~0.0~0.0~200.0~450.0~355.0*
%ADD24D24*%
G04~CAMADD=25~3~0.0~0.0~433.1~669.3~0.0~0.0~0~0.0~0.0~0.0~0.0~0~0.0~0.0~0.0~0.0~0~0.0~0.0~0.0~235.0~624.0~566.0*
%ADD25D25*%
G04~CAMADD=26~3~0.0~0.0~433.1~669.3~0.0~0.0~0~0.0~0.0~0.0~0.0~0~0.0~0.0~0.0~0.0~0~0.0~0.0~0.0~125.0~624.0~566.0*
%ADD26D26*%
%LNfront_flex-1*%
%LPD*%
G54D15*
X-00438Y00347D03*
Y00385D03*
X-00495D03*
Y00347D03*
X02821Y0033D03*
Y00368D03*
G54D16*
X00444Y00396D03*
Y0035D03*
G54D17*
X027Y00304D03*
X02684D03*
X02669D03*
X02653D03*
X02637D03*
X027Y0032D03*
X02684D03*
X02669D03*
X02653D03*
X02637D03*
X027Y00336D03*
X02684D03*
X02669D03*
X02653D03*
X02637D03*
X027Y00351D03*
X02684D03*
X02669D03*
X02653D03*
X02637D03*
X027Y00367D03*
X02684D03*
X02669D03*
X02653D03*
X02637D03*
X-02734Y00309D03*
X-0275D03*
X-02765D03*
X-02781D03*
X-02797D03*
X-02734Y00324D03*
X-0275D03*
X-02765D03*
X-02781D03*
X-02797D03*
X-02734Y0034D03*
X-0275D03*
X-02765D03*
X-02781D03*
X-02797D03*
X-02734Y00356D03*
X-0275D03*
X-02765D03*
X-02781D03*
X-02797D03*
X-02734Y00372D03*
X-0275D03*
X-02765D03*
X-02781D03*
X-02797D03*
G54D18*
X02785Y00295D03*
X02747D03*
X02785Y00331D03*
X02747D03*
X02785Y00368D03*
X02747D03*
X-02559Y00317D03*
X-02596D03*
X-02558Y00358D03*
X-02596D03*
X-02646Y00319D03*
X-02684D03*
X-02685Y00357D03*
X-02648D03*
G54D19*
X02386Y00525D03*
X02426Y00636D03*
G54D20*
X02428Y00589D03*
X02417Y00559D03*
G54D21*
X02534Y00022D03*
Y00141D03*
X-02534D03*
Y00022D03*
G54D22*
X02551Y00097D03*
Y00066D03*
X-02551D03*
Y00097D03*
G54D23*
X-02426Y00636D03*
X-02386Y00525D03*
G54D24*
X-02417Y00559D03*
X-02428Y00589D03*
G54D25*
X00497Y00232D03*
X00533Y00284D03*
X00569Y00335D03*
X00605Y00387D03*
G54D26*
X-00497Y00232D03*
X-00533Y00284D03*
X-00569Y00335D03*
X-00605Y00387D03*
M02*