%FSTAX23Y23*%
%MOIN*%
%SFA1B1*%

%IPPOS*%
%AMD18*
4,1,8,0.024700,-0.004500,0.016000,0.019400,-0.000500,0.027100,-0.017000,0.021000,-0.024700,0.004500,-0.016000,-0.019400,0.000500,-0.027100,0.017000,-0.021000,0.024700,-0.004500,0.0*
1,1,0.025800,0.012600,-0.008900*
1,1,0.025800,0.003900,0.014900*
1,1,0.025800,-0.012600,0.008900*
1,1,0.025800,-0.003900,-0.014900*
%
%AMD45*
4,1,4,0.000000,-0.039000,0.039000,0.000000,0.000000,0.039000,-0.039000,0.000000,0.000000,-0.039000,0.0*
%
%AMD46*
4,1,4,0.033800,-0.019500,0.019500,0.033800,-0.033800,0.019500,-0.019500,-0.033800,0.033800,-0.019500,0.0*
%
%AMD47*
4,1,4,-0.019500,0.033800,-0.033800,-0.019500,0.019500,-0.033800,0.033800,0.019500,-0.019500,0.033800,0.0*
%
%AMD48*
4,1,4,-0.039000,0.000000,0.000000,-0.039000,0.039000,0.000000,0.000000,0.039000,-0.039000,0.000000,0.0*
%
%ADD14C,0.008000*%
%ADD15C,0.071000*%
%ADD16C,0.102500*%
%ADD17C,0.055200*%
G04~CAMADD=18~8~0.0~0.0~513.0~434.0~129.0~0.0~15~0.0~0.0~0.0~0.0~0~0.0~0.0~0.0~0.0~0~0.0~0.0~0.0~290.0~510.0~556.0*
%ADD18D18*%
G04~CAMADD=45~10~0.0~552.3~0.0~0.0~0.0~0.0~0~0.0~0.0~0.0~0.0~0~0.0~0.0~0.0~0.0~0~0.0~0.0~0.0~225.0~552.3~0.0*
%ADD45D45*%
G04~CAMADD=46~10~0.0~552.3~0.0~0.0~0.0~0.0~0~0.0~0.0~0.0~0.0~0~0.0~0.0~0.0~0.0~0~0.0~0.0~0.0~285.0~552.3~0.0*
%ADD46D46*%
G04~CAMADD=47~10~0.0~552.3~0.0~0.0~0.0~0.0~0~0.0~0.0~0.0~0.0~0~0.0~0.0~0.0~0.0~0~0.0~0.0~0.0~435.0~552.3~0.0*
%ADD47D47*%
G04~CAMADD=48~10~0.0~552.3~0.0~0.0~0.0~0.0~0~0.0~0.0~0.0~0.0~0~0.0~0.0~0.0~0.0~0~0.0~0.0~0.0~135.0~552.3~0.0*
%ADD48D48*%
%ADD49R,0.055200X0.055200*%
%ADD50R,0.039500X0.018200*%
%ADD51R,0.033600X0.018200*%
%ADD52R,0.041500X0.023700*%
%ADD53R,0.043400X0.031600*%
%ADD54R,0.029700X0.031600*%
%ADD55R,0.030000X0.031600*%
%ADD56R,0.031600X0.030000*%
%ADD57R,0.031600X0.037500*%
%ADD58R,0.118200X0.118200*%
%ADD59R,0.015900X0.027700*%
%ADD60R,0.027700X0.015900*%
%ADD61C,0.030000*%
%LNglasses_full_v1_small_revised-1*%
%LPD*%
G54D14*
X02465Y0012D03*
X01074Y00088D03*
X-01074D03*
X-02465Y0012D03*
X-00271Y-00303D03*
X00271D03*
G54D15*
X02711Y-00547D03*
Y00172D03*
X-02711D03*
Y-00547D03*
G54D16*
X00261Y-00622D03*
X-0026D03*
G54D17*
X-00416Y-01005D03*
X-00434Y-01073D03*
X-00502Y-01055D03*
X-00484Y-00986D03*
G54D18*
X0051Y-0097D03*
X00355Y-01026D03*
X00534Y-01036D03*
X00379Y-01093D03*
G54D45*
X02389Y0015D03*
X02434Y00195D03*
X02495Y00044D03*
X0254Y00089D03*
G54D46*
X0101Y00038D03*
X00993Y00099D03*
X01154Y00077D03*
X01138Y00138D03*
G54D47*
X-00993Y00099D03*
X-0101Y00038D03*
X-01138Y00138D03*
X-01154Y00077D03*
G54D48*
X-02434Y00195D03*
X-02389Y0015D03*
X-0254Y00089D03*
X-02495Y00044D03*
G54D49*
X-0024Y-00378D03*
X-00303D03*
X-0024Y-00228D03*
X-00303D03*
X00303Y-00378D03*
X0024D03*
X00303Y-00228D03*
X0024D03*
G54D50*
X02671Y-0004D03*
Y-00063D03*
Y-00087D03*
Y-0011D03*
Y-00134D03*
Y-00158D03*
Y-00181D03*
Y-00205D03*
Y-00229D03*
Y-00252D03*
Y-00276D03*
Y-00299D03*
X-02675D03*
Y-00276D03*
Y-00252D03*
Y-00229D03*
Y-00205D03*
Y-00181D03*
Y-00158D03*
Y-00134D03*
Y-0011D03*
Y-00087D03*
Y-00063D03*
Y-0004D03*
G54D51*
X02558Y-00051D03*
Y-00075D03*
Y-00099D03*
Y-00122D03*
Y-00146D03*
Y-0017D03*
Y-00193D03*
Y-00217D03*
Y-0024D03*
Y-00264D03*
Y-00288D03*
X-02562D03*
Y-00264D03*
Y-0024D03*
Y-00217D03*
Y-00193D03*
Y-0017D03*
Y-00146D03*
Y-00122D03*
Y-00099D03*
Y-00075D03*
Y-00051D03*
G54D52*
X02658Y-00012D03*
Y-00327D03*
X-02662D03*
Y-00012D03*
G54D53*
X0259Y-00615D03*
Y-00504D03*
X-02589Y-00615D03*
Y-00504D03*
G54D54*
X02603Y-00577D03*
Y-00542D03*
X-02602Y-00577D03*
Y-00542D03*
G54D55*
X00143Y-0048D03*
X00105D03*
X00143Y-0052D03*
X00106D03*
G54D56*
X-0011Y-00139D03*
Y-00176D03*
X-00071Y-00141D03*
Y-00178D03*
X00068Y-00103D03*
Y-0014D03*
G54D57*
X00028Y-00102D03*
Y-00145D03*
G54D58*
X0Y-0032D03*
G54D59*
X00055Y-00235D03*
X00039D03*
X00023D03*
X00007D03*
X-00007D03*
X-00023D03*
X-00039D03*
X-00055D03*
Y-00404D03*
X-00039D03*
X-00023D03*
X-00007D03*
X00007D03*
X00023D03*
X00039D03*
X00055D03*
G54D60*
X-00084Y-00264D03*
Y-0028D03*
Y-00296D03*
Y-00312D03*
Y-00327D03*
Y-00343D03*
Y-00359D03*
Y-00375D03*
X00084D03*
Y-00359D03*
Y-00343D03*
Y-00327D03*
Y-00312D03*
Y-00296D03*
Y-0028D03*
Y-00264D03*
G54D61*
X00032Y-00352D03*
X-00034Y-00286D03*
Y-00352D03*
X00032Y-00286D03*
M02*