%FSTAX23Y23*%
%MOIN*%
%SFA1B1*%

%IPPOS*%
%ADD10C,0.003900*%
%ADD19C,0.008000*%
%ADD64C,0.002000*%
%LNglasses_full_v1_small_revised-1*%
%LPD*%
G54D10*
X02501Y-0038D02*
Y0004D01*
Y-0038D02*
X02726D01*
Y0004*
X02501D02*
X02726D01*
X02633Y-0066D02*
Y-00473D01*
X02551D02*
X02633D01*
X02551Y-0066D02*
Y-00473D01*
Y-0066D02*
X02633D01*
X-02505Y-0038D02*
Y0004D01*
X-0273D02*
X-02505D01*
X-0273Y-0038D02*
Y0004D01*
Y-0038D02*
X-02505D01*
X-02632Y-00459D02*
X-0255D01*
Y-00646D02*
Y-00459D01*
X-02632Y-00646D02*
X-0255D01*
X-02632D02*
Y-00459D01*
X-00014Y-00185D02*
X00025D01*
X00005Y-00204D02*
Y-00165D01*
X00366Y-00982D02*
X00473Y-00943D01*
X00521Y-01076*
X00414Y-01115D02*
X00521Y-01076D01*
X00366Y-00982D02*
X00414Y-01115D01*
G54D19*
X-01726Y00037D02*
X-01632Y00036D01*
X-01546Y00036*
X-0146Y00032*
X-01375Y00026*
X-01299Y00018*
X-01223Y00007*
X-01128Y-0001*
X-01036Y-00031*
X-00944Y-00054*
X-00851Y-00081*
X-00759Y-00111*
X-00715Y-00127*
X-00672Y-00144*
X-00611Y-0017*
X-0056Y-00196*
X-00524Y-00218*
X-00501Y-00234*
X-00479Y-00253*
X-00458Y-00275*
X-0044Y-00299*
X-00426Y-00323*
X-00415Y-00349*
X-00403Y-00385*
X-00392Y-00426*
X-00383Y-00468*
X-00376Y-00523*
X-00372Y-00576*
X-00372Y-00629D02*
X-00372Y-00576D01*
X-00376Y-00677D02*
X-00372Y-00629D01*
X-00383Y-00724D02*
X-00376Y-00677D01*
X-00395Y-00783D02*
X-00383Y-00724D01*
X-00412Y-00848D02*
X-00395Y-00783D01*
X-0043Y-0087D02*
X-00412Y-00848D01*
X-00451Y-00887D02*
X-0043Y-0087D01*
X-00477Y-00898D02*
X-00451Y-00887D01*
X-00485Y-00901D02*
X-00477Y-00898D01*
X-00506Y-0091D02*
X-00485Y-00901D01*
X-00525Y-00923D02*
X-00506Y-0091D01*
X-0054Y-00939D02*
X-00525Y-00923D01*
X-00553Y-00957D02*
X-0054Y-00939D01*
X-00562Y-00978D02*
X-00553Y-00957D01*
X-00566Y-01D02*
X-00562Y-00978D01*
X-00571Y-01037D02*
X-00566Y-01D01*
X-00571Y-01037D02*
X-00569Y-01072D01*
X-00546Y-01197*
X-00544Y-0123*
X-00573Y-01298D02*
X-00544Y-0123D01*
X-00602Y-01357D02*
X-00573Y-01298D01*
X-00633Y-01411D02*
X-00602Y-01357D01*
X-00665Y-0146D02*
X-00633Y-01411D01*
X-00699Y-01506D02*
X-00665Y-0146D01*
X-00733Y-01546D02*
X-00699Y-01506D01*
X-0077Y-01583D02*
X-00733Y-01546D01*
X-00813Y-01622D02*
X-0077Y-01583D01*
X-00854Y-01654D02*
X-00813Y-01622D01*
X-00897Y-01684D02*
X-00854Y-01654D01*
X-00942Y-01711D02*
X-00897Y-01684D01*
X-00989Y-01736D02*
X-00942Y-01711D01*
X-01043Y-0176D02*
X-00989Y-01736D01*
X-01094Y-01779D02*
X-01043Y-0176D01*
X-01149Y-01795D02*
X-01094Y-01779D01*
X-01205Y-01809D02*
X-01149Y-01795D01*
X-01263Y-01819D02*
X-01205Y-01809D01*
X-01325Y-01827D02*
X-01263Y-01819D01*
X-01389Y-01831D02*
X-01325Y-01827D01*
X-01457Y-01832D02*
X-01389Y-01831D01*
X-01528Y-0183D02*
X-01457Y-01832D01*
X-01603Y-01824D02*
X-01528Y-0183D01*
X-01679Y-01815D02*
X-01603Y-01824D01*
X-01756Y-01802D02*
X-01679Y-01815D01*
X-01832Y-01786D02*
X-01756Y-01802D01*
X-0188Y-01774D02*
X-01832Y-01786D01*
X-01928Y-0176D02*
X-0188Y-01774D01*
X-01995Y-01738D02*
X-01928Y-0176D01*
X-02055Y-01716D02*
X-01995Y-01738D01*
X-02107Y-01692D02*
X-02055Y-01716D01*
X-02151Y-01668D02*
X-02107Y-01692D01*
X-02174Y-01653D02*
X-02151Y-01668D01*
X-02197Y-01638D02*
X-02174Y-01653D01*
X-0223Y-01612D02*
X-02197Y-01638D01*
X-02258Y-01585D02*
X-0223Y-01612D01*
X-02285Y-01554D02*
X-02258Y-01585D01*
X-0231Y-0152D02*
X-02285Y-01554D01*
X-02325Y-01496D02*
X-0231Y-0152D01*
X-02339Y-01471D02*
X-02325Y-01496D01*
X-0236Y-01428D02*
X-02339Y-01471D01*
X-02382Y-01373D02*
X-0236Y-01428D01*
X-02408Y-01298D02*
X-02382Y-01373D01*
X-02442Y-01189D02*
X-02408Y-01298D01*
X-02476Y-01066D02*
X-02442Y-01189D01*
X-02491Y-01008D02*
X-02476Y-01066D01*
X-02504Y-0095D02*
X-02491Y-01008D01*
X-02519Y-00871D02*
X-02504Y-0095D01*
X-02531Y-00791D02*
X-02519Y-00871D01*
X-02537Y-00734D02*
X-02531Y-00791D01*
X-02541Y-00676D02*
X-02537Y-00734D01*
X-02544Y-006D02*
X-02541Y-00676D01*
X-02544Y-00567D02*
X-02544Y-006D01*
X-02544Y-00567D02*
X-02543Y-00535D01*
X-02539Y-00484*
X-02534Y-00456*
X-02529Y-00428*
X-02518Y-00385*
X-02508Y-00349*
X-02496Y-00314*
X-02479Y-00273*
X-02459Y-00235*
X-02436Y-002*
X-02413Y-00171*
X-02385Y-00141*
X-02353Y-00113*
X-02332Y-00098*
X-0231Y-00083*
X-02272Y-00062*
X-02229Y-00041*
X-02181Y-00023*
X-02131Y-00007*
X-02098Y0*
X-02065Y00007*
X-01999Y00019*
X-01925Y00028*
X-01843Y00033*
X-01785Y00036*
X-01726Y00037*
X01727D02*
X01785Y00036D01*
X01844Y00033*
X01926Y00028*
X02Y00019*
X02066Y00007*
X02099Y0*
X02132Y-00007*
X02181Y-00023*
X0223Y-00041*
X02273Y-00062*
X02311Y-00083*
X02333Y-00098*
X02354Y-00113*
X02385Y-00141*
X02414Y-00171*
X02437Y-002*
X0246Y-00235*
X0248Y-00273*
X02497Y-00314*
X02509Y-00349*
X02519Y-00385*
X0253Y-00428*
X02535Y-00456*
X02539Y-00484*
X02544Y-00535*
X02544Y-00567*
Y-006D02*
Y-00567D01*
X02542Y-00676D02*
X02544Y-006D01*
X02537Y-00734D02*
X02542Y-00676D01*
X02531Y-00791D02*
X02537Y-00734D01*
X0252Y-00871D02*
X02531Y-00791D01*
X02505Y-0095D02*
X0252Y-00871D01*
X02492Y-01008D02*
X02505Y-0095D01*
X02477Y-01066D02*
X02492Y-01008D01*
X02443Y-01189D02*
X02477Y-01066D01*
X02409Y-01298D02*
X02443Y-01189D01*
X02383Y-01373D02*
X02409Y-01298D01*
X0236Y-01428D02*
X02383Y-01373D01*
X02339Y-01471D02*
X0236Y-01428D01*
X02326Y-01496D02*
X02339Y-01471D01*
X02311Y-0152D02*
X02326Y-01496D01*
X02286Y-01554D02*
X02311Y-0152D01*
X02258Y-01585D02*
X02286Y-01554D01*
X0223Y-01612D02*
X02258Y-01585D01*
X02197Y-01638D02*
X0223Y-01612D01*
X02175Y-01653D02*
X02197Y-01638D01*
X02152Y-01668D02*
X02175Y-01653D01*
X02108Y-01692D02*
X02152Y-01668D01*
X02055Y-01716D02*
X02108Y-01692D01*
X01996Y-01738D02*
X02055Y-01716D01*
X01929Y-0176D02*
X01996Y-01738D01*
X01881Y-01774D02*
X01929Y-0176D01*
X01833Y-01786D02*
X01881Y-01774D01*
X01756Y-01802D02*
X01833Y-01786D01*
X01679Y-01815D02*
X01756Y-01802D01*
X01603Y-01824D02*
X01679Y-01815D01*
X01529Y-0183D02*
X01603Y-01824D01*
X01458Y-01832D02*
X01529Y-0183D01*
X01389Y-01831D02*
X01458Y-01832D01*
X01325Y-01827D02*
X01389Y-01831D01*
X01264Y-01819D02*
X01325Y-01827D01*
X01206Y-01809D02*
X01264Y-01819D01*
X01149Y-01795D02*
X01206Y-01809D01*
X01095Y-01779D02*
X01149Y-01795D01*
X01043Y-0176D02*
X01095Y-01779D01*
X0099Y-01736D02*
X01043Y-0176D01*
X00943Y-01711D02*
X0099Y-01736D01*
X00897Y-01684D02*
X00943Y-01711D01*
X00854Y-01654D02*
X00897Y-01684D01*
X00814Y-01622D02*
X00854Y-01654D01*
X00771Y-01583D02*
X00814Y-01622D01*
X00734Y-01546D02*
X00771Y-01583D01*
X007Y-01506D02*
X00734Y-01546D01*
X00666Y-0146D02*
X007Y-01506D01*
X00633Y-01411D02*
X00666Y-0146D01*
X00603Y-01357D02*
X00633Y-01411D01*
X00574Y-01298D02*
X00603Y-01357D01*
X00545Y-0123D02*
X00574Y-01298D01*
X00542Y-01222D02*
X00545Y-0123D01*
X00542Y-01222D02*
X00542Y-01221D01*
X0057Y-01072*
X00571Y-01037*
X00567Y-01D02*
X00571Y-01037D01*
X00563Y-00978D02*
X00567Y-01D01*
X00554Y-00957D02*
X00563Y-00978D01*
X00541Y-00939D02*
X00554Y-00957D01*
X00525Y-00923D02*
X00541Y-00939D01*
X00507Y-0091D02*
X00525Y-00923D01*
X00486Y-00901D02*
X00507Y-0091D01*
X00477Y-00898D02*
X00486Y-00901D01*
X00452Y-00887D02*
X00477Y-00898D01*
X0043Y-0087D02*
X00452Y-00887D01*
X00413Y-00848D02*
X0043Y-0087D01*
X00396Y-00783D02*
X00413Y-00848D01*
X00384Y-00724D02*
X00396Y-00783D01*
X00377Y-00677D02*
X00384Y-00724D01*
X00373Y-00629D02*
X00377Y-00677D01*
X00373Y-00576D02*
X00373Y-00629D01*
X00373Y-00576D02*
X00376Y-00523D01*
X00384Y-00468*
X00393Y-00426*
X00403Y-00385*
X00415Y-00349*
X00427Y-00323*
X00441Y-00299*
X00459Y-00275*
X0048Y-00253*
X00502Y-00234*
X00525Y-00218*
X00561Y-00196*
X00612Y-0017*
X00673Y-00144*
X00716Y-00127*
X0076Y-00111*
X00852Y-00081*
X00945Y-00054*
X01036Y-00031*
X01128Y-0001*
X01224Y00007*
X013Y00018*
X01376Y00026*
X01461Y00032*
X01547Y00036*
X01633Y00036*
X01727Y00037*
X01671Y00326D02*
X01944Y00325D01*
X01518Y00325D02*
X01671Y00326D01*
X01404Y00321D02*
X01518Y00325D01*
X013Y00313D02*
X01404Y00321D01*
X01201Y00303D02*
X013Y00313D01*
X01103Y00288D02*
X01201Y00303D01*
X01012Y00271D02*
X01103Y00288D01*
X00916Y0025D02*
X01012Y00271D01*
X0081Y00222D02*
X00916Y0025D01*
X00684Y00185D02*
X0081Y00222D01*
X00555Y00143D02*
X00684Y00185D01*
X00328Y00066D02*
X00555Y00143D01*
X00226Y00034D02*
X00328Y00066D01*
X00151Y00013D02*
X00226Y00034D01*
X00096Y00001D02*
X00151Y00013D01*
X00054Y-00004D02*
X00096Y00001D01*
X00022Y-00006D02*
X00054Y-00004D01*
X0Y-00003D02*
X00022Y-00006D01*
X-00021D02*
X0Y-00003D01*
X-00047Y-00005D02*
X-00021Y-00006D01*
X-00087Y0D02*
X-00047Y-00005D01*
X-00141Y00011D02*
X-00087Y0D01*
X-00218Y00032D02*
X-00141Y00011D01*
X-00302Y00058D02*
X-00218Y00032D01*
X-00423Y00099D02*
X-00302Y00058D01*
X-00622Y00165D02*
X-00423Y00099D01*
X-00746Y00204D02*
X-00622Y00165D01*
X-00858Y00235D02*
X-00746Y00204D01*
X-00961Y0026D02*
X-00858Y00235D01*
X-01061Y00281D02*
X-00961Y0026D01*
X-01149Y00296D02*
X-01061Y00281D01*
X-0124Y00307D02*
X-01149Y00296D01*
X-01336Y00316D02*
X-0124Y00307D01*
X-01444Y00323D02*
X-01336Y00316D01*
X-01565Y00326D02*
X-01444Y00323D01*
X-01761Y00326D02*
X-01565Y00326D01*
X-02054Y00324D02*
X-01761Y00326D01*
X-0228Y00323D02*
X-02054Y00324D01*
X-02376Y0032D02*
X-0228Y00323D01*
X-02443Y00316D02*
X-02376Y0032D01*
X-02554Y00301D02*
X-02443Y00316D01*
X-02652Y0029D02*
X-02554Y00301D01*
X-02665Y00298D02*
X-02652Y0029D01*
X-02679Y00304D02*
X-02665Y00298D01*
X-027Y00309D02*
X-02679Y00304D01*
X-02722Y00311D02*
X-027Y00309D01*
X-02858Y00311D02*
X-02722D01*
X-0295Y00304D02*
X-02858Y00311D01*
X-02957Y00304D02*
X-0295Y00304D01*
X-02966Y00304D02*
X-02957Y00304D01*
X-02977Y003D02*
X-02966Y00304D01*
X-0299Y00294D02*
X-02977Y003D01*
X-02994Y00292D02*
X-0299Y00294D01*
X-02998Y00289D02*
X-02994Y00292D01*
X-03004Y00283D02*
X-02998Y00289D01*
X-0301Y00277D02*
X-03004Y00283D01*
X-03015Y0027D02*
X-0301Y00277D01*
X-03023Y00255D02*
X-03015Y0027D01*
X-03028Y00238D02*
X-03023Y00255D01*
X-03029Y00221D02*
X-03028Y00238D01*
X-03029Y00221D02*
X-03022Y-00005D01*
X-03015Y-00232*
X-03003Y-00595*
X-03002Y-00607*
X-02998Y-00619*
X-02991Y-00632*
X-02981Y-00645*
X-02971Y-00654*
X-02961Y-00661*
X-02948Y-00668*
X-02941Y-0067*
X-02938Y-00672*
X-02937Y-00673*
X-02936Y-00673*
X-02936Y-00674*
X-02894Y-00677*
X-02853Y-00684*
X-02812Y-00697*
X-02774Y-00713*
X-02737Y-00734*
X-02703Y-00759*
X-02672Y-00787*
X-02645Y-00819*
X-02621Y-00853*
X-02587Y-00962*
X-02511Y-01222*
X-02468Y-01363*
X-02438Y-01451*
X-02417Y-01505*
X-02396Y-01549*
X-02375Y-01587*
X-02352Y-0162*
X-02329Y-01647*
X-023Y-01676*
X-02263Y-01706*
X-02223Y-01734*
X-02176Y-01763*
X-02122Y-01791*
X-02059Y-0182*
X-01994Y-01845*
X-01929Y-01866*
X-01868Y-01882*
X-01802Y-01895*
X-01731Y-01906*
X-01656Y-01914*
X-01574Y-01919*
X-01481Y-01921*
X-01394Y-01919*
X-01314Y-01913*
X-01238Y-01904*
X-01167Y-01892*
X-011Y-01877*
X-01037Y-01859*
X-00978Y-01838*
X-00922Y-01814*
X-00869Y-01788*
X-00819Y-01757*
X-00771Y-01725*
X-0073Y-01692*
X-00691Y-01657*
X-00653Y-01618*
X-00618Y-01577*
X-00583Y-01532*
X-0055Y-01483*
X-00517Y-01428*
X-00485Y-01367*
X-00453Y-01297*
X-00418Y-01213*
X-00387Y-01128*
X-00337Y-00984*
X-00307Y-00893*
X-00291Y-00852*
X-0027Y-00812*
X-00246Y-00775*
X-00217Y-0074*
X-00186Y-00709*
X-00151Y-00681*
X-00113Y-00656*
X-00073Y-00636*
X-00032Y-0062*
X0Y-00617*
X00032Y-0062*
X00071Y-00635*
X00108Y-00653*
X00144Y-00675*
X00177Y-007*
X00207Y-00728*
X00235Y-00759*
X00259Y-00793*
X0028Y-00829*
X00289Y-00852*
X00294Y-00876*
X003Y-00973*
X0031Y-01013*
X00366Y-01141*
X00374Y-01156*
X00431Y-01247*
X0044Y-01265*
X00454Y-01297*
X00486Y-01367*
X00518Y-01428*
X00551Y-01483*
X00584Y-01532*
X00618Y-01577*
X00654Y-01618*
X00692Y-01657*
X00731Y-01692*
X00772Y-01725*
X0082Y-01757*
X0087Y-01788*
X00923Y-01814*
X00978Y-01838*
X01037Y-01859*
X011Y-01877*
X01168Y-01892*
X01239Y-01904*
X01314Y-01913*
X01395Y-01919*
X01481Y-01921*
X01575Y-01919*
X01657Y-01914*
X01732Y-01906*
X01803Y-01895*
X01868Y-01882*
X0193Y-01866*
X01995Y-01845*
X02059Y-0182*
X02123Y-01791*
X02177Y-01763*
X02223Y-01734*
X02264Y-01706*
X023Y-01676*
X0233Y-01647*
X02353Y-0162*
X02375Y-01587*
X02397Y-01549*
X02418Y-01505*
X02439Y-01451*
X02469Y-01363*
X02511Y-01222*
X02588Y-00962*
X02622Y-00853*
X02646Y-00819*
X02673Y-00787*
X02704Y-00759*
X02738Y-00734*
X02775Y-00713*
X02813Y-00697*
X02853Y-00684*
X02895Y-00677*
X02936Y-00674*
X02937Y-00673*
X02953Y-00666*
X02969Y-00656*
X02982Y-00645*
X02987Y-0064*
X02991Y-00634*
X02998Y-00622*
X03002Y-00609*
X03004Y-00595*
X03011Y-00368*
X03019Y-00141*
X0303Y00221*
X03029Y00231D02*
X0303Y00221D01*
X03028Y00241D02*
X03029Y00231D01*
X03022Y00258D02*
X03028Y00241D01*
X03014Y00272D02*
X03022Y00258D01*
X03005Y00283D02*
X03014Y00272D01*
X03001Y00287D02*
X03005Y00283D01*
X02997Y0029D02*
X03001Y00287D01*
X02991Y00294D02*
X02997Y0029D01*
X02982Y00299D02*
X02991Y00294D01*
X02972Y00302D02*
X02982Y00299D01*
X02961Y00304D02*
X02972Y00302D01*
X0295Y00304D02*
X02961Y00304D01*
X02859Y00311D02*
X0295Y00304D01*
X02723Y00311D02*
X02859D01*
X02708Y0031D02*
X02723Y00311D01*
X02693Y00308D02*
X02708Y0031D01*
X02673Y00301D02*
X02693Y00308D01*
X02653Y0029D02*
X02673Y00301D01*
X02556Y00301D02*
X02653Y0029D01*
X02474Y00312D02*
X02556Y00301D01*
X02412Y00318D02*
X02474Y00312D01*
X02337Y00322D02*
X02412Y00318D01*
X02179Y00324D02*
X02337Y00322D01*
X01944Y00325D02*
X02179Y00324D01*
X-01726Y00037D02*
X-01632Y00036D01*
X-01546Y00036*
X-0146Y00032*
X-01375Y00026*
X-01299Y00018*
X-01223Y00007*
X-01128Y-0001*
X-01036Y-00031*
X-00944Y-00054*
X-00851Y-00081*
X-00759Y-00111*
X-00715Y-00127*
X-00672Y-00144*
X-00611Y-0017*
X-0056Y-00196*
X-00524Y-00218*
X-00501Y-00234*
X-00479Y-00253*
X-00458Y-00275*
X-0044Y-00299*
X-00426Y-00323*
X-00415Y-00349*
X-00403Y-00385*
X-00392Y-00426*
X-00383Y-00468*
X-00376Y-00523*
X-00372Y-00576*
X-00372Y-00629D02*
X-00372Y-00576D01*
X-00376Y-00677D02*
X-00372Y-00629D01*
X-00383Y-00724D02*
X-00376Y-00677D01*
X-00395Y-00783D02*
X-00383Y-00724D01*
X-00412Y-00848D02*
X-00395Y-00783D01*
X-0043Y-0087D02*
X-00412Y-00848D01*
X-00451Y-00887D02*
X-0043Y-0087D01*
X-00477Y-00898D02*
X-00451Y-00887D01*
X-00485Y-00901D02*
X-00477Y-00898D01*
X-00506Y-0091D02*
X-00485Y-00901D01*
X-00525Y-00923D02*
X-00506Y-0091D01*
X-0054Y-00939D02*
X-00525Y-00923D01*
X-00553Y-00957D02*
X-0054Y-00939D01*
X-00562Y-00978D02*
X-00553Y-00957D01*
X-00566Y-01D02*
X-00562Y-00978D01*
X-00571Y-01037D02*
X-00566Y-01D01*
X-00571Y-01037D02*
X-00569Y-01072D01*
X-00546Y-01197*
X-00544Y-0123*
X-00573Y-01298D02*
X-00544Y-0123D01*
X-00602Y-01357D02*
X-00573Y-01298D01*
X-00633Y-01411D02*
X-00602Y-01357D01*
X-00665Y-0146D02*
X-00633Y-01411D01*
X-00699Y-01506D02*
X-00665Y-0146D01*
X-00733Y-01546D02*
X-00699Y-01506D01*
X-0077Y-01583D02*
X-00733Y-01546D01*
X-00813Y-01622D02*
X-0077Y-01583D01*
X-00854Y-01654D02*
X-00813Y-01622D01*
X-00897Y-01684D02*
X-00854Y-01654D01*
X-00942Y-01711D02*
X-00897Y-01684D01*
X-00989Y-01736D02*
X-00942Y-01711D01*
X-01043Y-0176D02*
X-00989Y-01736D01*
X-01094Y-01779D02*
X-01043Y-0176D01*
X-01149Y-01795D02*
X-01094Y-01779D01*
X-01205Y-01809D02*
X-01149Y-01795D01*
X-01263Y-01819D02*
X-01205Y-01809D01*
X-01325Y-01827D02*
X-01263Y-01819D01*
X-01389Y-01831D02*
X-01325Y-01827D01*
X-01457Y-01832D02*
X-01389Y-01831D01*
X-01528Y-0183D02*
X-01457Y-01832D01*
X-01603Y-01824D02*
X-01528Y-0183D01*
X-01679Y-01815D02*
X-01603Y-01824D01*
X-01756Y-01802D02*
X-01679Y-01815D01*
X-01832Y-01786D02*
X-01756Y-01802D01*
X-0188Y-01774D02*
X-01832Y-01786D01*
X-01928Y-0176D02*
X-0188Y-01774D01*
X-01995Y-01738D02*
X-01928Y-0176D01*
X-02055Y-01716D02*
X-01995Y-01738D01*
X-02107Y-01692D02*
X-02055Y-01716D01*
X-02151Y-01668D02*
X-02107Y-01692D01*
X-02174Y-01653D02*
X-02151Y-01668D01*
X-02197Y-01638D02*
X-02174Y-01653D01*
X-0223Y-01612D02*
X-02197Y-01638D01*
X-02258Y-01585D02*
X-0223Y-01612D01*
X-02285Y-01554D02*
X-02258Y-01585D01*
X-0231Y-0152D02*
X-02285Y-01554D01*
X-02325Y-01496D02*
X-0231Y-0152D01*
X-02339Y-01471D02*
X-02325Y-01496D01*
X-0236Y-01428D02*
X-02339Y-01471D01*
X-02382Y-01373D02*
X-0236Y-01428D01*
X-02408Y-01298D02*
X-02382Y-01373D01*
X-02442Y-01189D02*
X-02408Y-01298D01*
X-02476Y-01066D02*
X-02442Y-01189D01*
X-02491Y-01008D02*
X-02476Y-01066D01*
X-02504Y-0095D02*
X-02491Y-01008D01*
X-02519Y-00871D02*
X-02504Y-0095D01*
X-02531Y-00791D02*
X-02519Y-00871D01*
X-02537Y-00734D02*
X-02531Y-00791D01*
X-02541Y-00676D02*
X-02537Y-00734D01*
X-02544Y-006D02*
X-02541Y-00676D01*
X-02544Y-00567D02*
X-02544Y-006D01*
X-02544Y-00567D02*
X-02543Y-00535D01*
X-02539Y-00484*
X-02534Y-00456*
X-02529Y-00428*
X-02518Y-00385*
X-02508Y-00349*
X-02496Y-00314*
X-02479Y-00273*
X-02459Y-00235*
X-02436Y-002*
X-02413Y-00171*
X-02385Y-00141*
X-02353Y-00113*
X-02332Y-00098*
X-0231Y-00083*
X-02272Y-00062*
X-02229Y-00041*
X-02181Y-00023*
X-02131Y-00007*
X-02098Y0*
X-02065Y00007*
X-01999Y00019*
X-01925Y00028*
X-01843Y00033*
X-01785Y00036*
X-01726Y00037*
X01727D02*
X01785Y00036D01*
X01844Y00033*
X01926Y00028*
X02Y00019*
X02066Y00007*
X02099Y0*
X02132Y-00007*
X02181Y-00023*
X0223Y-00041*
X02273Y-00062*
X02311Y-00083*
X02333Y-00098*
X02354Y-00113*
X02385Y-00141*
X02414Y-00171*
X02437Y-002*
X0246Y-00235*
X0248Y-00273*
X02497Y-00314*
X02509Y-00349*
X02519Y-00385*
X0253Y-00428*
X02535Y-00456*
X02539Y-00484*
X02544Y-00535*
X02544Y-00567*
Y-006D02*
Y-00567D01*
X02542Y-00676D02*
X02544Y-006D01*
X02537Y-00734D02*
X02542Y-00676D01*
X02531Y-00791D02*
X02537Y-00734D01*
X0252Y-00871D02*
X02531Y-00791D01*
X02505Y-0095D02*
X0252Y-00871D01*
X02492Y-01008D02*
X02505Y-0095D01*
X02477Y-01066D02*
X02492Y-01008D01*
X02443Y-01189D02*
X02477Y-01066D01*
X02409Y-01298D02*
X02443Y-01189D01*
X02383Y-01373D02*
X02409Y-01298D01*
X0236Y-01428D02*
X02383Y-01373D01*
X02339Y-01471D02*
X0236Y-01428D01*
X02326Y-01496D02*
X02339Y-01471D01*
X02311Y-0152D02*
X02326Y-01496D01*
X02286Y-01554D02*
X02311Y-0152D01*
X02258Y-01585D02*
X02286Y-01554D01*
X0223Y-01612D02*
X02258Y-01585D01*
X02197Y-01638D02*
X0223Y-01612D01*
X02175Y-01653D02*
X02197Y-01638D01*
X02152Y-01668D02*
X02175Y-01653D01*
X02108Y-01692D02*
X02152Y-01668D01*
X02055Y-01716D02*
X02108Y-01692D01*
X01996Y-01738D02*
X02055Y-01716D01*
X01929Y-0176D02*
X01996Y-01738D01*
X01881Y-01774D02*
X01929Y-0176D01*
X01833Y-01786D02*
X01881Y-01774D01*
X01756Y-01802D02*
X01833Y-01786D01*
X01679Y-01815D02*
X01756Y-01802D01*
X01603Y-01824D02*
X01679Y-01815D01*
X01529Y-0183D02*
X01603Y-01824D01*
X01458Y-01832D02*
X01529Y-0183D01*
X01389Y-01831D02*
X01458Y-01832D01*
X01325Y-01827D02*
X01389Y-01831D01*
X01264Y-01819D02*
X01325Y-01827D01*
X01206Y-01809D02*
X01264Y-01819D01*
X01149Y-01795D02*
X01206Y-01809D01*
X01095Y-01779D02*
X01149Y-01795D01*
X01043Y-0176D02*
X01095Y-01779D01*
X0099Y-01736D02*
X01043Y-0176D01*
X00943Y-01711D02*
X0099Y-01736D01*
X00897Y-01684D02*
X00943Y-01711D01*
X00854Y-01654D02*
X00897Y-01684D01*
X00814Y-01622D02*
X00854Y-01654D01*
X00771Y-01583D02*
X00814Y-01622D01*
X00734Y-01546D02*
X00771Y-01583D01*
X007Y-01506D02*
X00734Y-01546D01*
X00666Y-0146D02*
X007Y-01506D01*
X00633Y-01411D02*
X00666Y-0146D01*
X00603Y-01357D02*
X00633Y-01411D01*
X00574Y-01298D02*
X00603Y-01357D01*
X00545Y-0123D02*
X00574Y-01298D01*
X00542Y-01222D02*
X00545Y-0123D01*
X00542Y-01222D02*
X00542Y-01221D01*
X0057Y-01072*
X00571Y-01037*
X00567Y-01D02*
X00571Y-01037D01*
X00563Y-00978D02*
X00567Y-01D01*
X00554Y-00957D02*
X00563Y-00978D01*
X00541Y-00939D02*
X00554Y-00957D01*
X00525Y-00923D02*
X00541Y-00939D01*
X00507Y-0091D02*
X00525Y-00923D01*
X00486Y-00901D02*
X00507Y-0091D01*
X00477Y-00898D02*
X00486Y-00901D01*
X00452Y-00887D02*
X00477Y-00898D01*
X0043Y-0087D02*
X00452Y-00887D01*
X00413Y-00848D02*
X0043Y-0087D01*
X00396Y-00783D02*
X00413Y-00848D01*
X00384Y-00724D02*
X00396Y-00783D01*
X00377Y-00677D02*
X00384Y-00724D01*
X00373Y-00629D02*
X00377Y-00677D01*
X00373Y-00576D02*
X00373Y-00629D01*
X00373Y-00576D02*
X00376Y-00523D01*
X00384Y-00468*
X00393Y-00426*
X00403Y-00385*
X00415Y-00349*
X00427Y-00323*
X00441Y-00299*
X00459Y-00275*
X0048Y-00253*
X00502Y-00234*
X00525Y-00218*
X00561Y-00196*
X00612Y-0017*
X00673Y-00144*
X00716Y-00127*
X0076Y-00111*
X00852Y-00081*
X00945Y-00054*
X01036Y-00031*
X01128Y-0001*
X01224Y00007*
X013Y00018*
X01376Y00026*
X01461Y00032*
X01547Y00036*
X01633Y00036*
X01727Y00037*
X-01726D02*
X-01632Y00036D01*
X-01546Y00036*
X-0146Y00032*
X-01375Y00026*
X-01299Y00018*
X-01223Y00007*
X-01128Y-0001*
X-01036Y-00031*
X-00944Y-00054*
X-00851Y-00081*
X-00759Y-00111*
X-00715Y-00127*
X-00672Y-00144*
X-00611Y-0017*
X-0056Y-00196*
X-00524Y-00218*
X-00501Y-00234*
X-00479Y-00253*
X-00458Y-00275*
X-0044Y-00299*
X-00426Y-00323*
X-00415Y-00349*
X-00403Y-00385*
X-00392Y-00426*
X-00383Y-00468*
X-00376Y-00523*
X-00372Y-00576*
X-00372Y-00629D02*
X-00372Y-00576D01*
X-00376Y-00677D02*
X-00372Y-00629D01*
X-00383Y-00724D02*
X-00376Y-00677D01*
X-00395Y-00783D02*
X-00383Y-00724D01*
X-00412Y-00848D02*
X-00395Y-00783D01*
X-0043Y-0087D02*
X-00412Y-00848D01*
X-00451Y-00887D02*
X-0043Y-0087D01*
X-00477Y-00898D02*
X-00451Y-00887D01*
X-00485Y-00901D02*
X-00477Y-00898D01*
X-00506Y-0091D02*
X-00485Y-00901D01*
X-00525Y-00923D02*
X-00506Y-0091D01*
X-0054Y-00939D02*
X-00525Y-00923D01*
X-00553Y-00957D02*
X-0054Y-00939D01*
X-00562Y-00978D02*
X-00553Y-00957D01*
X-00566Y-01D02*
X-00562Y-00978D01*
X-00571Y-01037D02*
X-00566Y-01D01*
X-00571Y-01037D02*
X-00569Y-01072D01*
X-00546Y-01197*
X-00544Y-0123*
X-00573Y-01298D02*
X-00544Y-0123D01*
X-00602Y-01357D02*
X-00573Y-01298D01*
X-00633Y-01411D02*
X-00602Y-01357D01*
X-00665Y-0146D02*
X-00633Y-01411D01*
X-00699Y-01506D02*
X-00665Y-0146D01*
X-00733Y-01546D02*
X-00699Y-01506D01*
X-0077Y-01583D02*
X-00733Y-01546D01*
X-00813Y-01622D02*
X-0077Y-01583D01*
X-00854Y-01654D02*
X-00813Y-01622D01*
X-00897Y-01684D02*
X-00854Y-01654D01*
X-00942Y-01711D02*
X-00897Y-01684D01*
X-00989Y-01736D02*
X-00942Y-01711D01*
X-01043Y-0176D02*
X-00989Y-01736D01*
X-01094Y-01779D02*
X-01043Y-0176D01*
X-01149Y-01795D02*
X-01094Y-01779D01*
X-01205Y-01809D02*
X-01149Y-01795D01*
X-01263Y-01819D02*
X-01205Y-01809D01*
X-01325Y-01827D02*
X-01263Y-01819D01*
X-01389Y-01831D02*
X-01325Y-01827D01*
X-01457Y-01832D02*
X-01389Y-01831D01*
X-01528Y-0183D02*
X-01457Y-01832D01*
X-01603Y-01824D02*
X-01528Y-0183D01*
X-01679Y-01815D02*
X-01603Y-01824D01*
X-01756Y-01802D02*
X-01679Y-01815D01*
X-01832Y-01786D02*
X-01756Y-01802D01*
X-0188Y-01774D02*
X-01832Y-01786D01*
X-01928Y-0176D02*
X-0188Y-01774D01*
X-01995Y-01738D02*
X-01928Y-0176D01*
X-02055Y-01716D02*
X-01995Y-01738D01*
X-02107Y-01692D02*
X-02055Y-01716D01*
X-02151Y-01668D02*
X-02107Y-01692D01*
X-02174Y-01653D02*
X-02151Y-01668D01*
X-02197Y-01638D02*
X-02174Y-01653D01*
X-0223Y-01612D02*
X-02197Y-01638D01*
X-02258Y-01585D02*
X-0223Y-01612D01*
X-02285Y-01554D02*
X-02258Y-01585D01*
X-0231Y-0152D02*
X-02285Y-01554D01*
X-02325Y-01496D02*
X-0231Y-0152D01*
X-02339Y-01471D02*
X-02325Y-01496D01*
X-0236Y-01428D02*
X-02339Y-01471D01*
X-02382Y-01373D02*
X-0236Y-01428D01*
X-02408Y-01298D02*
X-02382Y-01373D01*
X-02442Y-01189D02*
X-02408Y-01298D01*
X-02476Y-01066D02*
X-02442Y-01189D01*
X-02491Y-01008D02*
X-02476Y-01066D01*
X-02504Y-0095D02*
X-02491Y-01008D01*
X-02519Y-00871D02*
X-02504Y-0095D01*
X-02531Y-00791D02*
X-02519Y-00871D01*
X-02537Y-00734D02*
X-02531Y-00791D01*
X-02541Y-00676D02*
X-02537Y-00734D01*
X-02544Y-006D02*
X-02541Y-00676D01*
X-02544Y-00567D02*
X-02544Y-006D01*
X-02544Y-00567D02*
X-02543Y-00535D01*
X-02539Y-00484*
X-02534Y-00456*
X-02529Y-00428*
X-02518Y-00385*
X-02508Y-00349*
X-02496Y-00314*
X-02479Y-00273*
X-02459Y-00235*
X-02436Y-002*
X-02413Y-00171*
X-02385Y-00141*
X-02353Y-00113*
X-02332Y-00098*
X-0231Y-00083*
X-02272Y-00062*
X-02229Y-00041*
X-02181Y-00023*
X-02131Y-00007*
X-02098Y0*
X-02065Y00007*
X-01999Y00019*
X-01925Y00028*
X-01843Y00033*
X-01785Y00036*
X-01726Y00037*
X01727D02*
X01785Y00036D01*
X01844Y00033*
X01926Y00028*
X02Y00019*
X02066Y00007*
X02099Y0*
X02132Y-00007*
X02181Y-00023*
X0223Y-00041*
X02273Y-00062*
X02311Y-00083*
X02333Y-00098*
X02354Y-00113*
X02385Y-00141*
X02414Y-00171*
X02437Y-002*
X0246Y-00235*
X0248Y-00273*
X02497Y-00314*
X02509Y-00349*
X02519Y-00385*
X0253Y-00428*
X02535Y-00456*
X02539Y-00484*
X02544Y-00535*
X02544Y-00567*
Y-006D02*
Y-00567D01*
X02542Y-00676D02*
X02544Y-006D01*
X02537Y-00734D02*
X02542Y-00676D01*
X02531Y-00791D02*
X02537Y-00734D01*
X0252Y-00871D02*
X02531Y-00791D01*
X02505Y-0095D02*
X0252Y-00871D01*
X02492Y-01008D02*
X02505Y-0095D01*
X02477Y-01066D02*
X02492Y-01008D01*
X02443Y-01189D02*
X02477Y-01066D01*
X02409Y-01298D02*
X02443Y-01189D01*
X02383Y-01373D02*
X02409Y-01298D01*
X0236Y-01428D02*
X02383Y-01373D01*
X02339Y-01471D02*
X0236Y-01428D01*
X02326Y-01496D02*
X02339Y-01471D01*
X02311Y-0152D02*
X02326Y-01496D01*
X02286Y-01554D02*
X02311Y-0152D01*
X02258Y-01585D02*
X02286Y-01554D01*
X0223Y-01612D02*
X02258Y-01585D01*
X02197Y-01638D02*
X0223Y-01612D01*
X02175Y-01653D02*
X02197Y-01638D01*
X02152Y-01668D02*
X02175Y-01653D01*
X02108Y-01692D02*
X02152Y-01668D01*
X02055Y-01716D02*
X02108Y-01692D01*
X01996Y-01738D02*
X02055Y-01716D01*
X01929Y-0176D02*
X01996Y-01738D01*
X01881Y-01774D02*
X01929Y-0176D01*
X01833Y-01786D02*
X01881Y-01774D01*
X01756Y-01802D02*
X01833Y-01786D01*
X01679Y-01815D02*
X01756Y-01802D01*
X01603Y-01824D02*
X01679Y-01815D01*
X01529Y-0183D02*
X01603Y-01824D01*
X01458Y-01832D02*
X01529Y-0183D01*
X01389Y-01831D02*
X01458Y-01832D01*
X01325Y-01827D02*
X01389Y-01831D01*
X01264Y-01819D02*
X01325Y-01827D01*
X01206Y-01809D02*
X01264Y-01819D01*
X01149Y-01795D02*
X01206Y-01809D01*
X01095Y-01779D02*
X01149Y-01795D01*
X01043Y-0176D02*
X01095Y-01779D01*
X0099Y-01736D02*
X01043Y-0176D01*
X00943Y-01711D02*
X0099Y-01736D01*
X00897Y-01684D02*
X00943Y-01711D01*
X00854Y-01654D02*
X00897Y-01684D01*
X00814Y-01622D02*
X00854Y-01654D01*
X00771Y-01583D02*
X00814Y-01622D01*
X00734Y-01546D02*
X00771Y-01583D01*
X007Y-01506D02*
X00734Y-01546D01*
X00666Y-0146D02*
X007Y-01506D01*
X00633Y-01411D02*
X00666Y-0146D01*
X00603Y-01357D02*
X00633Y-01411D01*
X00574Y-01298D02*
X00603Y-01357D01*
X00545Y-0123D02*
X00574Y-01298D01*
X00542Y-01222D02*
X00545Y-0123D01*
X00542Y-01222D02*
X00542Y-01221D01*
X0057Y-01072*
X00571Y-01037*
X00567Y-01D02*
X00571Y-01037D01*
X00563Y-00978D02*
X00567Y-01D01*
X00554Y-00957D02*
X00563Y-00978D01*
X00541Y-00939D02*
X00554Y-00957D01*
X00525Y-00923D02*
X00541Y-00939D01*
X00507Y-0091D02*
X00525Y-00923D01*
X00486Y-00901D02*
X00507Y-0091D01*
X00477Y-00898D02*
X00486Y-00901D01*
X00452Y-00887D02*
X00477Y-00898D01*
X0043Y-0087D02*
X00452Y-00887D01*
X00413Y-00848D02*
X0043Y-0087D01*
X00396Y-00783D02*
X00413Y-00848D01*
X00384Y-00724D02*
X00396Y-00783D01*
X00377Y-00677D02*
X00384Y-00724D01*
X00373Y-00629D02*
X00377Y-00677D01*
X00373Y-00576D02*
X00373Y-00629D01*
X00373Y-00576D02*
X00376Y-00523D01*
X00384Y-00468*
X00393Y-00426*
X00403Y-00385*
X00415Y-00349*
X00427Y-00323*
X00441Y-00299*
X00459Y-00275*
X0048Y-00253*
X00502Y-00234*
X00525Y-00218*
X00561Y-00196*
X00612Y-0017*
X00673Y-00144*
X00716Y-00127*
X0076Y-00111*
X00852Y-00081*
X00945Y-00054*
X01036Y-00031*
X01128Y-0001*
X01224Y00007*
X013Y00018*
X01376Y00026*
X01461Y00032*
X01547Y00036*
X01633Y00036*
X01727Y00037*
G54D64*
X00006Y-0017D02*
X00049D01*
X00006D02*
Y-00077D01*
X00049*
Y-0017D02*
Y-00077D01*
X00104Y-00424D02*
Y-00215D01*
X-00104Y-00424D02*
X00104D01*
X-00104D02*
Y-00215D01*
X00104*
X-00083Y-00106D02*
X00093D01*
X-00083Y-00263D02*
Y-00106D01*
X00093Y-00263D02*
Y-00106D01*
X-00083Y-00263D02*
X00093D01*
M02*