%FSTAX23Y23*%
%MOIN*%
%SFA1B1*%

%IPPOS*%
%AMD27*
4,1,8,0.021000,-0.005900,0.012300,0.018000,0.000900,0.023300,-0.015700,0.017300,-0.021000,0.005900,-0.012300,-0.018000,-0.000900,-0.023300,0.015700,-0.017300,0.021000,-0.005900,0.0*
1,1,0.017800,0.012600,-0.008900*
1,1,0.017800,0.003900,0.014900*
1,1,0.017800,-0.012600,0.008900*
1,1,0.017800,-0.003900,-0.014900*
%
%AMD29*
4,1,4,0.000000,-0.033400,0.033400,0.000000,0.000000,0.033400,-0.033400,0.000000,0.000000,-0.033400,0.0*
%
%AMD30*
4,1,4,0.028900,-0.016700,0.016700,0.028900,-0.028900,0.016700,-0.016700,-0.028900,0.028900,-0.016700,0.0*
%
%AMD31*
4,1,4,-0.016700,0.028900,-0.028900,-0.016700,0.016700,-0.028900,0.028900,0.016700,-0.016700,0.028900,0.0*
%
%AMD32*
4,1,4,-0.033400,0.000000,0.000000,-0.033400,0.033400,0.000000,0.000000,0.033400,-0.033400,0.000000,0.0*
%
%ADD11C,0.010000*%
%ADD19C,0.008000*%
%ADD20C,0.006000*%
%ADD21C,0.012000*%
%ADD22C,0.016000*%
%ADD24C,0.063000*%
%ADD25C,0.094500*%
%ADD26C,0.047200*%
G04~CAMADD=27~8~0.0~0.0~433.0~354.0~89.0~0.0~15~0.0~0.0~0.0~0.0~0~0.0~0.0~0.0~0.0~0~0.0~0.0~0.0~290.0~432.0~477.0*
%ADD27D27*%
%ADD28C,0.022000*%
G04~CAMADD=29~10~0.0~472.3~0.0~0.0~0.0~0.0~0~0.0~0.0~0.0~0.0~0~0.0~0.0~0.0~0.0~0~0.0~0.0~0.0~225.0~472.3~0.0*
%ADD29D29*%
G04~CAMADD=30~10~0.0~472.3~0.0~0.0~0.0~0.0~0~0.0~0.0~0.0~0.0~0~0.0~0.0~0.0~0.0~0~0.0~0.0~0.0~285.0~472.3~0.0*
%ADD30D30*%
G04~CAMADD=31~10~0.0~472.3~0.0~0.0~0.0~0.0~0~0.0~0.0~0.0~0.0~0~0.0~0.0~0.0~0.0~0~0.0~0.0~0.0~435.0~472.3~0.0*
%ADD31D31*%
G04~CAMADD=32~10~0.0~472.3~0.0~0.0~0.0~0.0~0~0.0~0.0~0.0~0.0~0~0.0~0.0~0.0~0.0~0~0.0~0.0~0.0~135.0~472.3~0.0*
%ADD32D32*%
%ADD33R,0.047200X0.047200*%
%ADD34R,0.031500X0.010200*%
%ADD35R,0.025600X0.010200*%
%ADD36R,0.033500X0.015700*%
%ADD37R,0.035400X0.023600*%
%ADD38R,0.021700X0.023600*%
%ADD39R,0.022000X0.023600*%
%ADD40R,0.023600X0.022000*%
%ADD41R,0.023600X0.029500*%
%ADD42R,0.110200X0.110200*%
%ADD43R,0.007900X0.019700*%
%ADD44R,0.019700X0.007900*%
%LNglasses_full_v1_small_revised-1*%
%LPD*%
G36*
X02858Y00307D02*
X02859Y00307D01*
X02867*
X02874Y00306*
X0295Y003*
X0295Y003*
X02951Y003*
X02953*
X02961Y00299*
X02961*
X02961*
X02968Y00299*
X02972Y00298*
X02975Y00297*
X0298Y00295*
X02981Y00294*
X02987Y00291*
X02988Y00291*
X02988Y00291*
X02994Y00286*
X02998Y00283*
X03001Y0028*
X03002Y0028*
X03006Y00275*
X03008Y00273*
X03011Y00269*
X03015Y00263*
X03018Y00256*
X03021Y0025*
X03021Y00249*
X03021Y00248*
X03023Y0024*
X03025Y00233*
X03025Y00232*
X03024Y00231*
X03025Y00231*
X03025Y00228*
X03025Y00222*
X03025Y00221*
X03025Y00221*
X03025Y00216*
X03025Y00214*
Y00214*
X03025Y00205*
X03015Y-00133*
Y-00133*
X03014Y-00139*
X03014Y-00141*
X03014Y-00149*
Y-00149*
X03008Y-0036*
X03007Y-00368*
X03007Y-00376*
X03Y-00587*
X03Y-00587*
X02999Y-00595*
X02999Y-00603*
X02998Y-00608*
X02996Y-00613*
X02994Y-0062*
X02991Y-00625*
X0299Y-00627*
X02988Y-0063*
X02988Y-00631*
X02987Y-00631*
X02983Y-00636*
X02979Y-00641*
X02978Y-00642*
X02973Y-00647*
X02972Y-00648*
X02972Y-00648*
X02966Y-00653*
X02959Y-00657*
X02958Y-00658*
X02955Y-00659*
X0295Y-00662*
X02943Y-00666*
X02936Y-00669*
X02935Y-0067*
X02935Y-0067*
X02934Y-0067*
X02895Y-00673*
X02894Y-00673*
X02894*
X02853Y-0068*
X02852Y-00681*
X02852*
X02812Y-00693*
X02812Y-00693*
X02811Y-00693*
X02806Y-00695*
X02554*
X02549Y-00689*
X0255Y-00679*
Y-00679*
Y-00678*
X02553Y-00602*
X02553Y-00601*
X02553Y-00601*
Y-00569*
Y-00569*
Y-00569*
X02552Y-00537*
X02552Y-00536*
Y-00536*
X02547Y-00485*
X02547Y-00485*
Y-00484*
X02547Y-00483*
X02555Y-00479*
X02568Y-00493*
Y-00496*
X02568Y-00496*
Y-0052*
X02583*
X02588Y-00526*
Y-00558*
Y-00561*
Y-00566*
Y-00591*
Y-00593*
X02583Y-00599*
X02568*
Y-0063*
X02572Y-00638*
X0257Y-00641*
X0257Y-00645*
X0261*
X0261Y-00641*
X02608Y-00638*
X02612Y-0063*
Y-00601*
Y-00599*
X02617Y-00593*
X02618*
Y-00574*
X02618Y-00574*
X02622Y-00573*
X02625Y-00571*
X02633Y-00563*
X02642Y-00565*
X02645Y-00575*
X02651Y-00587*
X0266Y-00598*
X02671Y-00607*
X02684Y-00614*
X02697Y-00618*
X02711Y-00619*
X02725Y-00618*
X02739Y-00614*
X02751Y-00607*
X02762Y-00598*
X02771Y-00587*
X02778Y-00575*
X02782Y-00561*
X02784Y-00547*
X02782Y-00533*
X02778Y-00519*
X02771Y-00507*
X02762Y-00496*
X02751Y-00487*
X02739Y-0048*
X02725Y-00476*
X02711Y-00475*
X02697Y-00476*
X02684Y-0048*
X02671Y-00487*
X02663Y-00494*
X02655Y-00491*
Y-00458*
X02654Y-00454*
X02652Y-00451*
X02649Y-00448*
Y-00445*
X02648Y-00441*
X02646Y-00438*
X02643Y-00436*
X0264Y-00435*
X02636Y-00436*
X02634Y-00437*
X02633*
X02605Y-0041*
X02602Y-00408*
X026Y-00407*
X02589*
X02546Y-00303*
X02549Y-00299*
X02552Y-00297*
X02555Y-00298*
X02558*
X02561Y-00297*
X02562Y-00297*
X02574*
Y-00279*
X02581Y-00274*
X02584Y-00273*
X02587Y-00271*
X02589Y-0027*
X0259Y-0027*
X02595Y-00269*
X026Y-00265*
X02604Y-0026*
X02605Y-00255*
X02604Y-00249*
X026Y-00244*
X02596Y-00241*
X02595Y-0024*
X02594Y-00232*
X02595Y-0023*
X02597Y-00228*
X02598Y-00225*
Y-00183*
X02637Y-00143*
X02638*
X02645Y-00146*
Y-00153*
X02671*
X02697*
Y-00143*
X02691*
Y-0012*
Y-00117*
Y-00096*
X02697Y-0009*
X02701*
X02702Y-0009*
X02708Y-00094*
X02709Y-00096*
X0271Y-001*
X02714Y-00105*
X02715Y-00106*
Y-00236*
X02702Y-00249*
X02697Y-00243*
Y-00234*
X02671*
X02645*
Y-00244*
X02651*
Y-00261*
Y-00267*
Y-00269*
Y-00284*
X02645*
Y-00294*
X02671*
X02697*
Y-00284*
X02699Y-00278*
X02731Y-00246*
X02733Y-00243*
X02734Y-0024*
Y-00106*
X02735Y-00105*
X02739Y-001*
X0274Y-00095*
X02739Y-00089*
X02735Y-00084*
X0273Y-0008*
X02726Y-0008*
X02724Y-00074*
X02723Y-00071*
X02725Y-0007*
X02727Y-00067*
X02727Y-00065*
Y00013*
X02731Y00013*
X02736Y00017*
X0274Y00022*
X02741Y00028*
X0274Y00033*
X02736Y00038*
X02732Y00042*
X02731Y00042*
X02733Y0005*
X0275*
X02753Y0005*
X02755Y00052*
X02809Y00106*
X02811Y00108*
X02812Y00112*
Y00252*
X02811Y00255*
X02809Y00257*
X02791Y00275*
X02789Y00277*
X02786Y00278*
X02702*
Y00302*
X02708Y00305*
X02714Y00307*
X02715Y00307*
X02723Y00307*
X02723Y00307*
X02724Y00307*
X0273Y00307*
X0285*
X02858Y00307*
G37*
G36*
X-02722D02*
X-02722Y00307D01*
X-02714Y00306*
X-02709Y00306*
X-02701Y00305*
X-02701Y00305*
X-02693Y00303*
X-02688Y00302*
X-02681Y003*
X-0268Y00299*
X-02674Y00297*
X-02668Y00294*
X-02663Y00291*
X-0266Y0029*
X-02655Y00287*
X-02654Y00287*
X-02654Y00287*
X-02654Y00286*
X-02655Y00279*
X-0266Y00275*
X-02663Y0027*
X-02664Y00265*
X-02663Y00259*
X-0266Y00254*
X-02661Y00251*
Y00234*
X-02668Y0023*
X-0267Y00232*
X-02683Y00239*
X-02696Y00243*
X-02711Y00245*
X-02725Y00243*
X-02738Y00239*
X-02751Y00232*
X-02762Y00223*
X-02771Y00213*
X-02777Y002*
X-02781Y00186*
X-02783Y00172*
X-02781Y00158*
X-02777Y00145*
X-02771Y00132*
X-02762Y00121*
X-02751Y00112*
X-02738Y00106*
X-02725Y00102*
X-02711Y001*
X-02696Y00102*
X-02683Y00106*
X-0267Y00112*
X-02659Y00121*
X-02659Y00122*
X-02651Y00119*
Y00106*
X-02681Y00076*
X-02689Y00079*
X-02689Y00081*
X-02693Y00086*
X-02698Y0009*
X-02704Y00091*
X-02709Y0009*
X-02714Y00086*
X-02718Y00081*
X-02719Y00076*
X-02718Y0007*
X-02717Y00068*
X-02725Y0006*
X-02726Y00058*
X-02727Y00055*
Y-00031*
X-02731Y-00033*
X-02735Y-00034*
X-02741Y-0003*
X-02744Y-00029*
Y-0005*
Y-0007*
X-02741Y-00069*
X-02734Y-00065*
X-02732Y-00061*
X-0273Y-0006*
X-02723Y-0006*
X-02722Y-0006*
X-027Y-00082*
X-02697Y-00084*
X-02695Y-00084*
Y-00085*
X-02695Y-00085*
Y-00101*
Y-00104*
Y-00125*
Y-00128*
Y-00143*
X-02701*
Y-00153*
X-02675*
Y-00163*
X-02701*
Y-00173*
X-02695*
Y-00196*
Y-00198*
Y-00213*
X-02701*
Y-00224*
X-02649*
Y-00213*
X-02655*
Y-0019*
Y-00188*
Y-00173*
X-02649*
Y-00167*
X-02641Y-00163*
X-0264Y-00164*
X-02635Y-00165*
X-02633Y-00164*
X-02605Y-00192*
Y-00255*
X-02604Y-00258*
X-02602Y-00262*
X-02592Y-00271*
X-02589Y-00273*
X-02585Y-00274*
X-02585*
X-02579Y-00279*
Y-00297*
X-02566*
X-02566Y-00297*
X-02562Y-00298*
X-02558Y-00297*
X-02557Y-00297*
X-02545*
Y-00279*
Y-00273*
Y-00258*
Y-00255*
X-0254Y-00249*
X-02534Y-00249*
X-02533Y-00248*
X-02531Y-00248*
X-02531Y-00248*
X-02531*
X-02529Y-00247*
X-02528Y-00246*
X-02528Y-00246*
X-0252Y-00249*
X-02518Y-00254*
X-02582Y-00407*
X-02611*
X-02614Y-00407*
X-02617Y-00409*
X-02652Y-00444*
X-02654Y-00447*
X-02655Y-00451*
Y-00489*
X-02663Y-00493*
X-0267Y-00487*
X-02683Y-0048*
X-02696Y-00476*
X-02711Y-00475*
X-02725Y-00476*
X-02738Y-0048*
X-02751Y-00487*
X-02762Y-00496*
X-02771Y-00507*
X-02777Y-00519*
X-02781Y-00533*
X-02783Y-00547*
X-02781Y-00561*
X-02777Y-00575*
X-02771Y-00587*
X-02762Y-00598*
X-02751Y-00607*
X-02738Y-00614*
X-02725Y-00618*
X-02711Y-00619*
X-02696Y-00618*
X-02683Y-00614*
X-0267Y-00607*
X-02659Y-00598*
X-02658Y-00596*
X-02647Y-00595*
X-02626Y-00616*
X-02623Y-00618*
X-0262Y-00619*
X-02611*
Y-0063*
X-02591*
X-02587Y-00638*
X-02589Y-00641*
X-0259Y-00645*
X-02569*
Y-0065*
X-02564*
Y-0067*
X-02561Y-00669*
X-02557Y-00667*
X-02549Y-00671*
X-02549Y-00678*
Y-00679*
Y-00679*
X-02548Y-00687*
X-02554Y-00693*
X-0281*
X-02811Y-00693*
X-02811Y-00693*
X-02811Y-00693*
X-02851Y-00681*
X-02852*
X-02852Y-0068*
X-02893Y-00673*
X-02893*
X-02894Y-00673*
X-0291Y-00672*
X-02912Y-00669*
X-02913Y-00663*
X-02909Y-00658*
X-02909Y-00655*
X-02952*
X-02958Y-00657*
X-02958*
X-02964Y-00654*
X-02965Y-00653*
X-02968Y-00651*
X-02968Y-00651*
X-02968Y-0065*
X-02974Y-00645*
X-02978Y-00642*
Y-00642*
X-02978Y-00641*
X-02978Y-00641*
X-02983Y-00636*
X-02983Y-00636*
X-02988Y-00629*
X-02991Y-00624*
X-02993Y-00618*
X-02994Y-00617*
X-02996Y-00612*
X-02997Y-00606*
X-02998Y-00606*
X-02998Y-00598*
X-02999Y-00595*
Y-00595*
X-03Y-00588*
Y-00587*
Y-00587*
X-03Y-00579*
X-03011Y-0024*
X-0301Y-00232*
Y-00232*
X-03011Y-00224*
X-03018Y-00013*
X-03017Y-00005*
X-03018Y00002*
X-03024Y00205*
X-03025Y00213*
Y00214*
X-03024Y00216*
X-03024Y00221*
Y00227*
Y00229*
X-03023Y00236*
X-03023Y00238*
X-03021Y00245*
Y00245*
X-03021Y00246*
X-0302Y00248*
X-03018Y00254*
X-03015Y0026*
X-03011Y00267*
Y00267*
X-03011Y00268*
X-03008Y00272*
X-03006Y00274*
X-03006Y00274*
X-03001Y0028*
X-03001Y0028*
X-02998Y00282*
X-02995Y00285*
X-02995*
X-02991Y00288*
X-02987Y00291*
X-02981Y00294*
X-02976Y00296*
X-02976Y00296*
X-02975Y00296*
X-02973Y00297*
X-02965Y00299*
X-02958Y00299*
X-02957*
X-02957Y003*
X-02951Y003*
X-02949*
X-02866Y00307*
X-02866*
X-02858*
X-02858Y00307*
X-02857Y00307*
X-0273*
X-02722Y00307*
G37*
G36*
X-01503Y00262D02*
X-01389Y00257D01*
X-01285Y0025*
X-01187Y0024*
X-01089Y00225*
X-00999Y00208*
X-00903Y00187*
X-00797Y00153*
X-00797*
X-00671Y00116*
X-00191Y-00042*
X-00173Y-00061*
Y-00175*
X-0018Y-00178*
X-00196Y-00162*
X-00198Y-00161*
X-00207Y-00152*
X-00203Y-00145*
X-00202Y-00145*
X-00196Y-00144*
X-00191Y-0014*
X-00187Y-00135*
X-00186Y-0013*
X-00187Y-00124*
X-00191Y-00119*
X-00196Y-00115*
X-00196Y-00115*
Y-00106*
X-00197Y-00103*
X-00199Y-00101*
X-00245Y-00055*
X-00245Y-00054*
X-00245Y-00054*
X-00246Y-00054*
X-00247Y-00053*
X-00247Y-00053*
X-00247Y-00053*
X-01039Y00192*
X-0104Y00193*
X-01042Y00193*
X-01164*
X-01166Y00192*
X-01169Y00191*
X-012Y0016*
X-01201Y00157*
X-01202Y00155*
Y00095*
X-01201Y00092*
X-012Y0009*
X-01184Y00074*
X-01188Y00057*
X-01177Y00054*
X-01172Y00045*
X-01172Y00045*
X-01248Y00056*
X-01248*
X-01248*
X-01324Y00064*
X-01324*
X-01324*
X-01407Y0007*
X-01418Y00081*
X-0142Y00082*
X-01423Y00083*
X-01499*
X-01585Y00086*
X-01585*
X-01585*
X-01671Y00087*
X-01671*
X-01765Y00087*
X-01765*
X-01765*
X-01823Y00086*
X-01823*
X-01824*
X-01882Y00084*
X-01882*
X-01882*
X-01965Y00078*
X-01965*
X-01965*
X-02039Y00069*
X-02039Y00069*
X-02039*
X-02105Y00058*
X-02105*
X-02105*
X-02138Y0005*
X-02138*
X-02138*
X-02171Y00042*
X-02171Y00042*
X-02171*
X-02221Y00026*
X-02222Y00026*
X-02222Y00026*
X-02271Y00007*
X-02271Y00007*
X-02271Y00007*
X-02314Y-00012*
X-02314Y-00012*
X-02314Y-00012*
X-02352Y-00034*
X-02353Y-00034*
X-02353*
X-02375Y-00049*
X-02375Y-00049*
X-02375Y-00049*
X-02396Y-00065*
X-02396Y-00065*
X-02397Y-00065*
X-02428Y-00092*
X-02428Y-00092*
X-02428Y-00093*
X-02457Y-00123*
X-02457Y-00123*
X-02457Y-00123*
X-0248Y-00152*
X-0248Y-00153*
X-02481Y-00153*
X-02503Y-00187*
X-02508Y-00192*
X-02515Y-00189*
Y-00062*
X-02461Y-00008*
X-0246Y-00009*
X-02454Y-00008*
X-02449Y-00004*
X-02445Y0*
X-02444Y00006*
X-02445Y00011*
X-02449Y00016*
X-02454Y0002*
X-0246Y00021*
X-02465Y0002*
X-0247Y00016*
X-02474Y00011*
X-02475Y00006*
X-02474Y00004*
X-02531Y-00052*
X-02531*
X-02539Y-0005*
Y-00036*
X-02556*
X-02556Y-00028*
X-02551Y-00027*
X-02544Y-00023*
X-0254Y-00016*
X-02539Y-00013*
X-0256*
Y-00008*
X-02565*
Y00012*
X-02568Y00011*
X-02569Y0001*
X-02577Y00014*
Y00075*
X-02577Y00076*
X-02577Y00076*
X-02569Y00079*
X-0254Y0005*
X-02534Y00044*
X-02495Y00005*
X-0246Y0004*
X-02442*
X-02439Y00041*
X-02437Y00042*
X-0233Y0015*
X-02328Y00152*
X-02327Y00155*
Y00222*
X-02289Y0026*
X-01929Y00261*
X-01656Y00263*
X-01503Y00262*
G37*
G36*
X-00088Y-00004D02*
X-00088D01*
X-00087Y-00004*
X-00048Y-00009*
X-00047Y-00009*
X-00047Y-00009*
X-00021Y-0001*
X-00021Y-0001*
X-0002*
X-00007Y-00008*
X-00007*
X0Y-00008*
X0Y-00008*
X0Y-00008*
X00008Y-00008*
X00021Y-0001*
X00023Y-00013*
X00024Y-00018*
X00001Y-00041*
X0Y-00043*
X-00001Y-00047*
Y-00086*
X-00008Y-00089*
X-00022Y-00075*
Y-00073*
X-00022Y-00072*
X-00021Y-00069*
X-00021Y-00063*
X-00016Y-00059*
X-00012Y-00054*
X-00011Y-00049*
X-00012Y-00043*
X-00016Y-00038*
X-00021Y-00034*
X-00026Y-00033*
X-00032Y-00034*
X-00037Y-00038*
X-00041Y-00043*
X-00041Y-00047*
X-00045Y-0005*
X-00049Y-00052*
X-00053Y-00051*
X-00059Y-00052*
X-00064Y-00056*
X-00067Y-00061*
X-00068Y-00066*
X-00067Y-00072*
X-00064Y-00077*
X-0006Y-0008*
Y-00082*
X-00059Y-00085*
X-00057Y-00087*
X-00025Y-0012*
Y-00163*
X-00031Y-00167*
Y-0019*
X-00041*
Y-00169*
X-00041Y-00169*
X-00047Y-00165*
X-00049Y-00164*
X-00049Y-00162*
Y-00146*
X-00071*
Y-00141*
X-00076*
Y-0012*
X-00088*
Y-00118*
X-00102*
X-00109Y-00113*
Y-00027*
X-00106Y-00024*
X-00103Y-00019*
X-00101Y-00013*
X-00102Y-00009*
X-001Y-00005*
X-00097Y-00002*
X-00088Y-00004*
G37*
G36*
X00063Y-00032D02*
X00068Y-00035D01*
X00074Y-00036*
X00077Y-00036*
X00101Y-00061*
Y-00157*
X00081Y-00178*
X00079Y-0018*
X00079Y-00184*
X00072Y-00188*
X00071*
X00069Y-00189*
X00061Y-00183*
Y-00157*
X00062Y-00155*
X00083*
Y-00125*
X00089Y-00124*
Y-00108*
X00068*
Y-00103*
X00063*
Y-00082*
X00049*
Y-00077*
X00033*
Y-00102*
X00023*
Y-00077*
X00015*
Y-0005*
X00035Y-00029*
X00061*
X00063Y-00032*
G37*
G36*
X-00094Y-00191D02*
X-00086Y-00193D01*
Y-00193*
X-00065*
X-00061Y-00198*
X-0006Y-002*
X-00059Y-00202*
X-00053Y-00208*
X-00056Y-00215*
X-00069*
Y-0023*
X-00055*
Y-0024*
X-00069*
Y-00249*
X-0007Y-00255*
X-00076Y-00256*
X-00098*
Y-00258*
X-00107*
X-00109Y-00257*
X-00113Y-0025*
X-00112Y-00248*
X-00113Y-00242*
X-00117Y-00237*
X-00121Y-00234*
Y-00191*
X-00094*
G37*
G36*
X-00003Y-00429D02*
Y-00548D01*
X-00006Y-00551*
X-0001Y-00556*
X-00011Y-00562*
X-0001Y-00567*
X-00006Y-00572*
X-00001Y-00576*
X00004Y-00577*
X00009Y-00576*
X00014Y-00572*
X00018Y-00567*
X00019Y-00562*
X00018Y-00556*
X00014Y-00551*
X00011Y-00548*
Y-00453*
X00016Y-00451*
X00019Y-00451*
X00033Y-00465*
X00035Y-00466*
X00038Y-00467*
X00084*
Y-00475*
X00105*
Y-00485*
X00084*
Y-005*
X00083Y-00501*
X00077Y-00504*
X00073Y-00501*
X00068Y-005*
X00062Y-00501*
X00057Y-00505*
X00053Y-0051*
X00052Y-00516*
X00053Y-00521*
X00057Y-00526*
X0006Y-00529*
Y-00532*
X00061Y-00534*
X00063Y-00537*
X00079Y-00554*
Y-00557*
X0008Y-0056*
X00082Y-00562*
X00092Y-00573*
X00094Y-00574*
X00097Y-00575*
X00101*
X0011Y-00584*
X00112Y-00586*
X00115Y-00586*
X00136*
Y-00638*
X00137Y-00641*
X00138Y-00643*
X00202Y-00707*
X00197Y-00713*
X0018Y-00697*
X00179Y-00697*
X00179Y-00697*
X00146Y-00672*
X00146Y-00672*
X00146Y-00671*
X00111Y-0065*
X0011Y-0065*
X0011Y-00649*
X00073Y-00631*
X00073Y-00631*
X00072Y-00631*
X00034Y-00617*
X00033Y-00616*
X00032Y-00616*
X00001Y-00613*
X0Y-00613*
X0Y-00613*
X-00031Y-00616*
X-00032Y-00616*
X-00034Y-00617*
X-00075Y-00632*
X-00075Y-00633*
X-00075Y-00633*
X-00115Y-00653*
X-00115Y-00653*
X-00116Y-00653*
X-00151Y-00676*
X-00156Y-00669*
X-0012Y-0064*
X-0012Y-0064*
X-0012Y-0064*
X-00073Y-00593*
X-00071Y-0059*
X-0007Y-00588*
Y-00543*
X-00066Y-00542*
X-00061Y-00538*
X-00057Y-00533*
X-00056Y-00528*
X-00057Y-00522*
X-00061Y-00517*
X-00066Y-00513*
X-00072Y-00512*
X-00077Y-00513*
X-00082Y-00517*
X-00086Y-00522*
X-00094Y-00525*
X-001Y-00524*
X-00105Y-00525*
X-00106Y-00526*
X-00112Y-00527*
X-00116Y-00524*
X-00117Y-00523*
X-00122Y-00519*
X-00128Y-00518*
X-00133Y-00519*
X-00138Y-00523*
X-00142Y-00528*
X-00143Y-00534*
X-00142Y-00539*
X-00138Y-00544*
X-00135Y-00547*
Y-006*
X-00144Y-00609*
X-00294Y-00724*
X-00294Y-00724*
X-00295Y-00725*
X-00305Y-00735*
X-00305Y-00735*
X-00306Y-00736*
X-00321Y-00764*
X-00329Y-00763*
X-00329Y-00761*
X-00334Y-00754*
X-00341Y-0075*
X-00344Y-00749*
Y-0077*
Y-0079*
X-00344*
X-00338Y-00796*
X-00382Y-00878*
X-00391Y-00878*
X-00394Y-00874*
X-00401Y-0087*
X-00407Y-00869*
X-0041Y-00862*
X-0041Y-0086*
X-00406Y-00855*
X-00406Y-00855*
X-00406*
X-00405Y-00854*
X-00405Y-00852*
Y-00852*
X-00404Y-00852*
X-00387Y-00787*
X-00387Y-00787*
Y-00787*
X-00375Y-00727*
Y-00727*
X-00375Y-00727*
X-00368Y-00679*
X-00368Y-00679*
X-00368Y-00679*
X-00364Y-00631*
Y-00631*
X-00364Y-00631*
X-00364Y-00578*
Y-00577*
Y-00577*
X-00366Y-00553*
X-00358Y-00549*
X-00357Y-00549*
X-00354Y-0055*
Y-0053*
Y-00509*
X-00357Y-0051*
X-00361Y-00512*
X-0037Y-00509*
X-00373Y-00488*
X-00366Y-00484*
X-00365*
X-00365Y-00484*
X-00365Y-00485*
X-00364Y-00485*
X-00363Y-00486*
X-00363Y-00486*
X-00362Y-00486*
X-00361Y-00486*
X-00361Y-00487*
X-0036Y-00487*
X-0036Y-00487*
X-00075*
X-00072Y-00486*
X-0007Y-00485*
X-00011Y-00425*
X-00003Y-00429*
G37*
G36*
X00269Y-00509D02*
X00271Y-0051D01*
X00274Y-00511*
X00358*
X00358Y-00511*
X00359Y-00511*
X00359Y-0051*
X0036Y-0051*
X00361Y-0051*
X00361Y-0051*
X00362Y-00509*
X00362Y-00509*
X00367Y-0051*
X0037Y-00512*
X00368Y-00523*
X00368Y-00524*
X00368Y-00524*
X00365Y-00577*
X00365Y-00577*
X00365Y-00578*
X00365Y-00631*
X00365Y-00631*
X00365Y-00631*
X00369Y-00679*
X00369Y-00679*
Y-00679*
X00376Y-00727*
X00376Y-00727*
Y-00727*
X00379Y-00742*
X00375Y-00745*
Y-0077*
Y-0079*
X00378Y-00789*
X0038Y-00788*
X00381Y-00788*
X00389Y-00792*
X00405Y-00852*
Y-00852*
X00405Y-00852*
X00406Y-00854*
X00407Y-00855*
X00407*
Y-00855*
X00424Y-00877*
X00425Y-00877*
X00425Y-00878*
X00447Y-00895*
X00448Y-00895*
X00449Y-00896*
X00474Y-00908*
X00475Y-00908*
X00475Y-00908*
X00483Y-0091*
X00503Y-00919*
X00516Y-00928*
X00515Y-0093*
X00513Y-00936*
X00507Y-00936*
X00504Y-00938*
X00515Y-00968*
X00526Y-00998*
X00529Y-00997*
X00536Y-00993*
X0054Y-00987*
X00542Y-00979*
X00541Y-00974*
X00544Y-0097*
X00548Y-00968*
X00549Y-00968*
X00555Y-00982*
X00559Y-01003*
X00561Y-01024*
X00554Y-01025*
X0055Y-01017*
X00548Y-01012*
X00544Y-01009*
X00539Y-01008*
X00534Y-01009*
X00517Y-01015*
X00513Y-01017*
X0051Y-01022*
X00508Y-01027*
X00506Y-01029*
X00454*
X00352Y-00927*
Y-00792*
X00357Y-00788*
X0036Y-00788*
X00362Y-00789*
X00365Y-0079*
Y-00775*
X00346*
X00342Y-00777*
X00245Y-0068*
X00247Y-00674*
X00249Y-00672*
X00261Y-00674*
X00275Y-00672*
X00287Y-00667*
X00298Y-00659*
X00306Y-00648*
X00311Y-00636*
X00313Y-00622*
X00311Y-00609*
X00306Y-00597*
X00298Y-00586*
X00287Y-00578*
X00275Y-00572*
X00261Y-00571*
X00248Y-00572*
X00235Y-00578*
X00225Y-00586*
X00216Y-00597*
X00211Y-00609*
X0021Y-00622*
X00211Y-00635*
X00209Y-00637*
X00204Y-00639*
X00192Y-00627*
Y-00513*
X00198Y-00507*
X00222*
X00223Y-00508*
X00228Y-00512*
X00234Y-00513*
X00239Y-00512*
X00244Y-00508*
X00248Y-00503*
X00248Y-005*
X00255Y-00497*
X00257Y-00497*
X00269Y-00509*
G37*
G36*
X-00195Y-00712D02*
X-0022Y-00737D01*
X-0022Y-00737*
X-00221Y-00738*
X-00249Y-00772*
X-00249Y-00772*
X-00249Y-00773*
X-00274Y-0081*
X-00274Y-0081*
X-00274Y-0081*
X-00294Y-0085*
X-00295Y-0085*
X-00295Y-0085*
X-00311Y-00892*
Y-00892*
X-00311Y-00892*
X-00339Y-00975*
X-00342Y-00982*
X-00344Y-0099*
X-00386Y-01112*
X-0039Y-01113*
X-00395Y-01114*
X-00401Y-0111*
X-00404Y-01109*
Y-0113*
X-00409*
Y-01135*
X-0043*
X-00429Y-01138*
X-00424Y-01145*
X-00417Y-01149*
X-00409Y-01151*
X-00408Y-01151*
X-00402Y-01158*
X-00408Y-01173*
X-00542*
X-00546Y-01153*
X-00539Y-01148*
X-00537Y-01149*
X-00534Y-0115*
Y-0113*
Y-01109*
X-00537Y-0111*
X-00544Y-01114*
X-00545Y-01115*
X-00553Y-01114*
X-00561Y-01073*
X-00562Y-01039*
X-00558Y-01003*
X-00554Y-00982*
X-00546Y-00963*
X-00534Y-00946*
X-00519Y-00931*
X-00502Y-00919*
X-00482Y-0091*
X-00474Y-00908*
X-00474Y-00908*
X-00473Y-00908*
X-00448Y-00896*
X-00447Y-00895*
X-00446Y-00895*
X-00438Y-00888*
X-0043Y-00892*
X-00429Y-00898*
X-00424Y-00905*
X-00417Y-00909*
X-00409Y-00911*
X-00409*
X-00404Y-00918*
X-0041Y-0093*
X-00448Y-00968*
X-00457Y-00966*
X-0046Y-00962*
X-00467Y-00957*
X-00475Y-00953*
X-00484Y-00952*
X-00493Y-00953*
X-00496Y-00955*
X-0048Y-00984*
X-00484Y-00986*
X-00482Y-00991*
X-0051Y-01007*
X-00508Y-0101*
X-00501Y-01016*
X-00495Y-01018*
X-00493Y-01025*
X-00493Y-01027*
X-00494Y-01028*
X-00495Y-01028*
X-00502Y-01027*
X-0051Y-01028*
X-00516Y-0103*
X-00522Y-01035*
X-00527Y-01041*
X-00529Y-01047*
X-0053Y-01055*
X-00529Y-01062*
X-00527Y-01068*
X-00522Y-01074*
X-00516Y-01079*
X-0051Y-01081*
X-00502Y-01082*
X-00495Y-01081*
X-00489Y-01079*
X-00483Y-01074*
X-00478Y-01068*
X-00476Y-01062*
X-00475Y-01055*
X-00476Y-01047*
X-00478Y-01041*
Y-01041*
X-0045Y-01012*
X-00441Y-01015*
X-0044Y-01018*
X-00436Y-01024*
X-0043Y-01029*
X-00423Y-01031*
X-00416Y-01032*
X-00409Y-01031*
X-00407Y-01031*
X-00403Y-01038*
X-00417Y-01052*
X-0042Y-01049*
X-00427Y-01046*
X-00434Y-01045*
X-00441Y-01046*
X-00448Y-01049*
X-00454Y-01053*
X-00458Y-01059*
X-00461Y-01066*
X-00462Y-01073*
X-00461Y-0108*
X-00458Y-01087*
X-00454Y-01093*
X-00448Y-01097*
X-00441Y-011*
X-00434Y-01101*
X-00427Y-011*
X-0042Y-01097*
X-00414Y-01093*
X-0041Y-01087*
X-00407Y-0108*
X-00406Y-01073*
X-00407Y-01066*
X-00408Y-01063*
X-00365Y-0102*
X-00363Y-01017*
X-00362Y-01015*
Y-00961*
X-00259Y-00754*
X-002Y-00706*
X-00195Y-00712*
G37*
%LNglasses_full_v1_small_revised-2*%
%LPC*%
G36*
X02895Y-00029D02*
Y-00045D01*
X0291*
X0291Y-00041*
X02905Y-00034*
X02898Y-0003*
X02895Y-00029*
G37*
G36*
X02885D02*
X02882Y-0003D01*
X02875Y-00034*
X0287Y-00041*
X0287Y-00045*
X02885*
Y-00029*
G37*
G36*
X0291Y-00055D02*
X02895D01*
Y-0007*
X02898Y-00069*
X02905Y-00065*
X0291Y-00058*
X0291Y-00055*
G37*
G36*
X02885D02*
X0287D01*
X0287Y-00058*
X02875Y-00065*
X02882Y-00069*
X02885Y-0007*
Y-00055*
G37*
G36*
X02955Y-00149D02*
Y-00165D01*
X0297*
X0297Y-00161*
X02965Y-00154*
X02958Y-0015*
X02955Y-00149*
G37*
G36*
X02945D02*
X02942Y-0015D01*
X02935Y-00154*
X0293Y-00161*
X0293Y-00165*
X02945*
Y-00149*
G37*
G36*
X02835D02*
Y-00165D01*
X0285*
X0285Y-00161*
X02845Y-00154*
X02838Y-0015*
X02835Y-00149*
G37*
G36*
X02825D02*
X02822Y-0015D01*
X02815Y-00154*
X0281Y-00161*
X0281Y-00165*
X02825*
Y-00149*
G37*
G36*
X0297Y-00175D02*
X02955D01*
Y-0019*
X02958Y-00189*
X02965Y-00185*
X0297Y-00178*
X0297Y-00175*
G37*
G36*
X02945D02*
X0293D01*
X0293Y-00178*
X02935Y-00185*
X02942Y-00189*
X02945Y-0019*
Y-00175*
G37*
G36*
X0285D02*
X02835D01*
Y-0019*
X02838Y-00189*
X02845Y-00185*
X0285Y-00178*
X0285Y-00175*
G37*
G36*
X02825D02*
X0281D01*
X0281Y-00178*
X02815Y-00185*
X02822Y-00189*
X02825Y-0019*
Y-00175*
G37*
G36*
X02697Y-00163D02*
X02671D01*
X02645*
Y-00173*
X02651*
Y-00196*
Y-00198*
Y-00213*
X02645*
Y-00224*
X02671*
X02697*
Y-00213*
X02691*
Y-0019*
Y-00188*
Y-00173*
X02697*
Y-00163*
G37*
G36*
X02895Y-00269D02*
Y-00285D01*
X0291*
X0291Y-00281*
X02905Y-00274*
X02898Y-0027*
X02895Y-00269*
G37*
G36*
X02885D02*
X02882Y-0027D01*
X02875Y-00274*
X0287Y-00281*
X0287Y-00285*
X02885*
Y-00269*
G37*
G36*
X02775D02*
Y-00285D01*
X0279*
X0279Y-00281*
X02785Y-00274*
X02778Y-0027*
X02775Y-00269*
G37*
G36*
X02765D02*
X02762Y-0027D01*
X02755Y-00274*
X0275Y-00281*
X0275Y-00285*
X02765*
Y-00269*
G37*
G36*
X0291Y-00295D02*
X02895D01*
Y-0031*
X02898Y-00309*
X02905Y-00305*
X0291Y-00298*
X0291Y-00295*
G37*
G36*
X02885D02*
X0287D01*
X0287Y-00298*
X02875Y-00305*
X02882Y-00309*
X02885Y-0031*
Y-00295*
G37*
G36*
X0279D02*
X02775D01*
Y-0031*
X02778Y-00309*
X02785Y-00305*
X0279Y-00298*
X0279Y-00295*
G37*
G36*
X02765D02*
X0275D01*
X0275Y-00298*
X02755Y-00305*
X02762Y-00309*
X02765Y-0031*
Y-00295*
G37*
G36*
X02697Y-00304D02*
X02671D01*
X02645*
Y-00315*
X02637Y-00315*
Y-00339*
X02679*
Y-00315*
X02686Y-00315*
X02697*
Y-00304*
G37*
G36*
X02835Y-00389D02*
Y-00405D01*
X0285*
X0285Y-00401*
X02845Y-00394*
X02838Y-0039*
X02835Y-00389*
G37*
G36*
X02825D02*
X02822Y-0039D01*
X02815Y-00394*
X0281Y-00401*
X0281Y-00405*
X02825*
Y-00389*
G37*
G36*
X0285Y-00415D02*
X02835D01*
Y-0043*
X02838Y-00429*
X02845Y-00425*
X0285Y-00418*
X0285Y-00415*
G37*
G36*
X02825D02*
X0281D01*
X0281Y-00418*
X02815Y-00425*
X02822Y-00429*
X02825Y-0043*
Y-00415*
G37*
G36*
X02895Y-00509D02*
Y-00525D01*
X0291*
X0291Y-00521*
X02905Y-00514*
X02898Y-0051*
X02895Y-00509*
G37*
G36*
X02885D02*
X02882Y-0051D01*
X02875Y-00514*
X0287Y-00521*
X0287Y-00525*
X02885*
Y-00509*
G37*
G36*
X0291Y-00535D02*
X02895D01*
Y-0055*
X02898Y-00549*
X02905Y-00545*
X0291Y-00538*
X0291Y-00535*
G37*
G36*
X02885D02*
X0287D01*
X0287Y-00538*
X02875Y-00545*
X02882Y-00549*
X02885Y-0055*
Y-00535*
G37*
G36*
X02835Y-00629D02*
Y-00645D01*
X0285*
X0285Y-00641*
X02845Y-00634*
X02838Y-0063*
X02835Y-00629*
G37*
G36*
X02825D02*
X02822Y-0063D01*
X02815Y-00634*
X0281Y-00641*
X0281Y-00645*
X02825*
Y-00629*
G37*
G36*
X02715D02*
Y-00645D01*
X0273*
X0273Y-00641*
X02725Y-00634*
X02718Y-0063*
X02715Y-00629*
G37*
G36*
X02705D02*
X02702Y-0063D01*
X02695Y-00634*
X0269Y-00641*
X0269Y-00645*
X02705*
Y-00629*
G37*
G36*
X0285Y-00655D02*
X02835D01*
Y-0067*
X02838Y-00669*
X02845Y-00665*
X0285Y-00658*
X0285Y-00655*
G37*
G36*
X02825D02*
X0281D01*
X0281Y-00658*
X02815Y-00665*
X02822Y-00669*
X02825Y-0067*
Y-00655*
G37*
G36*
X0273D02*
X02715D01*
Y-0067*
X02718Y-00669*
X02725Y-00665*
X0273Y-00658*
X0273Y-00655*
G37*
G36*
X02705D02*
X0269D01*
X0269Y-00658*
X02695Y-00665*
X02702Y-00669*
X02705Y-0067*
Y-00655*
G37*
G36*
X0261D02*
X02595D01*
Y-0067*
X02598Y-00669*
X02605Y-00665*
X0261Y-00658*
X0261Y-00655*
G37*
G36*
X02585D02*
X0257D01*
X0257Y-00658*
X02575Y-00665*
X02582Y-00669*
X02585Y-0067*
Y-00655*
G37*
G36*
X-02864Y0021D02*
Y00195D01*
X-02849*
X-02849Y00198*
X-02854Y00205*
X-02861Y00209*
X-02864Y0021*
G37*
G36*
X-02874D02*
X-02877Y00209D01*
X-02884Y00205*
X-02889Y00198*
X-0289Y00195*
X-02874*
Y0021*
G37*
G36*
X-02849Y00185D02*
X-02864D01*
Y00169*
X-02861Y0017*
X-02854Y00174*
X-02849Y00181*
X-02849Y00185*
G37*
G36*
X-02874D02*
X-0289D01*
X-02889Y00181*
X-02884Y00174*
X-02877Y0017*
X-02874Y00169*
Y00185*
G37*
G36*
X-02804Y0009D02*
Y00075D01*
X-02789*
X-02789Y00078*
X-02794Y00085*
X-02801Y00089*
X-02804Y0009*
G37*
G36*
X-02814D02*
X-02817Y00089D01*
X-02824Y00085*
X-02829Y00078*
X-0283Y00075*
X-02814*
Y0009*
G37*
G36*
X-02924D02*
Y00075D01*
X-02909*
X-02909Y00078*
X-02914Y00085*
X-02921Y00089*
X-02924Y0009*
G37*
G36*
X-02934D02*
X-02937Y00089D01*
X-02944Y00085*
X-02949Y00078*
X-0295Y00075*
X-02934*
Y0009*
G37*
G36*
X-02789Y00065D02*
X-02804D01*
Y00049*
X-02801Y0005*
X-02794Y00054*
X-02789Y00061*
X-02789Y00065*
G37*
G36*
X-02814D02*
X-0283D01*
X-02829Y00061*
X-02824Y00054*
X-02817Y0005*
X-02814Y00049*
Y00065*
G37*
G36*
X-02909D02*
X-02924D01*
Y00049*
X-02921Y0005*
X-02914Y00054*
X-02909Y00061*
X-02909Y00065*
G37*
G36*
X-02934D02*
X-0295D01*
X-02949Y00061*
X-02944Y00054*
X-02937Y0005*
X-02934Y00049*
Y00065*
G37*
G36*
X-02754Y-00029D02*
X-02757Y-0003D01*
X-02764Y-00034*
X-02769Y-00041*
X-0277Y-00045*
X-02754*
Y-00029*
G37*
G36*
X-02864D02*
Y-00045D01*
X-02849*
X-02849Y-00041*
X-02854Y-00034*
X-02861Y-0003*
X-02864Y-00029*
G37*
G36*
X-02874D02*
X-02877Y-0003D01*
X-02884Y-00034*
X-02889Y-00041*
X-0289Y-00045*
X-02874*
Y-00029*
G37*
G36*
X-02754Y-00055D02*
X-0277D01*
X-02769Y-00058*
X-02764Y-00065*
X-02757Y-00069*
X-02754Y-0007*
Y-00055*
G37*
G36*
X-02849D02*
X-02864D01*
Y-0007*
X-02861Y-00069*
X-02854Y-00065*
X-02849Y-00058*
X-02849Y-00055*
G37*
G36*
X-02874D02*
X-0289D01*
X-02889Y-00058*
X-02884Y-00065*
X-02877Y-00069*
X-02874Y-0007*
Y-00055*
G37*
G36*
X-02804Y-00149D02*
Y-00165D01*
X-02789*
X-02789Y-00161*
X-02794Y-00154*
X-02801Y-0015*
X-02804Y-00149*
G37*
G36*
X-02814D02*
X-02817Y-0015D01*
X-02824Y-00154*
X-02829Y-00161*
X-0283Y-00165*
X-02814*
Y-00149*
G37*
G36*
X-02924D02*
Y-00165D01*
X-02909*
X-02909Y-00161*
X-02914Y-00154*
X-02921Y-0015*
X-02924Y-00149*
G37*
G36*
X-02934D02*
X-02937Y-0015D01*
X-02944Y-00154*
X-02949Y-00161*
X-0295Y-00165*
X-02934*
Y-00149*
G37*
G36*
X-02789Y-00175D02*
X-02804D01*
Y-0019*
X-02801Y-00189*
X-02794Y-00185*
X-02789Y-00178*
X-02789Y-00175*
G37*
G36*
X-02814D02*
X-0283D01*
X-02829Y-00178*
X-02824Y-00185*
X-02817Y-00189*
X-02814Y-0019*
Y-00175*
G37*
G36*
X-02909D02*
X-02924D01*
Y-0019*
X-02921Y-00189*
X-02914Y-00185*
X-02909Y-00178*
X-02909Y-00175*
G37*
G36*
X-02934D02*
X-0295D01*
X-02949Y-00178*
X-02944Y-00185*
X-02937Y-00189*
X-02934Y-0019*
Y-00175*
G37*
G36*
X-02624Y-00269D02*
Y-00285D01*
X-02609*
X-02609Y-00281*
X-02614Y-00274*
X-02621Y-0027*
X-02624Y-00269*
G37*
G36*
X-02649Y-00234D02*
X-02701D01*
Y-00244*
X-02695*
Y-00267*
Y-00269*
Y-0029*
Y-00293*
Y-00309*
X-02686*
X-02683Y-00315*
Y-00317*
Y-00339*
X-02641*
Y-00316*
X-02641Y-00315*
X-02636Y-0031*
X-02634Y-0031*
Y-0029*
Y-00269*
X-02637Y-0027*
X-02644Y-00274*
X-02647Y-00279*
X-02655Y-00276*
Y-00261*
Y-00259*
Y-00244*
X-02649*
Y-00234*
G37*
G36*
X-02609Y-00295D02*
X-02624D01*
Y-0031*
X-02621Y-00309*
X-02614Y-00305*
X-02609Y-00298*
X-02609Y-00295*
G37*
G36*
X-02684Y-00629D02*
Y-00645D01*
X-02669*
X-02669Y-00641*
X-02674Y-00634*
X-02681Y-0063*
X-02684Y-00629*
G37*
G36*
X-02694D02*
X-02697Y-0063D01*
X-02704Y-00634*
X-02709Y-00641*
X-0271Y-00645*
X-02694*
Y-00629*
G37*
G36*
X-02804D02*
Y-00645D01*
X-02789*
X-02789Y-00641*
X-02794Y-00634*
X-02801Y-0063*
X-02804Y-00629*
G37*
G36*
X-02814D02*
X-02817Y-0063D01*
X-02824Y-00634*
X-02829Y-00641*
X-0283Y-00645*
X-02814*
Y-00629*
G37*
G36*
X-02924D02*
Y-00645D01*
X-02909*
X-02909Y-00641*
X-02914Y-00634*
X-02921Y-0063*
X-02924Y-00629*
G37*
G36*
X-02934D02*
X-02937Y-0063D01*
X-02944Y-00634*
X-02949Y-00641*
X-0295Y-00645*
X-02934*
Y-00629*
G37*
G36*
X-02574Y-00655D02*
X-0259D01*
X-02589Y-00658*
X-02584Y-00665*
X-02577Y-00669*
X-02574Y-0067*
Y-00655*
G37*
G36*
X-02669D02*
X-02684D01*
Y-0067*
X-02681Y-00669*
X-02674Y-00665*
X-02669Y-00658*
X-02669Y-00655*
G37*
G36*
X-02694D02*
X-0271D01*
X-02709Y-00658*
X-02704Y-00665*
X-02697Y-00669*
X-02694Y-0067*
Y-00655*
G37*
G36*
X-02789D02*
X-02804D01*
Y-0067*
X-02801Y-00669*
X-02794Y-00665*
X-02789Y-00658*
X-02789Y-00655*
G37*
G36*
X-02814D02*
X-0283D01*
X-02829Y-00658*
X-02824Y-00665*
X-02817Y-00669*
X-02814Y-0067*
Y-00655*
G37*
G36*
X-02555Y00012D02*
Y-00003D01*
X-02539*
X-0254Y0*
X-02544Y00007*
X-02551Y00011*
X-02555Y00012*
G37*
G36*
X-00049Y-0012D02*
X-00066D01*
Y-00136*
X-00049*
Y-0012*
G37*
G36*
X00089Y-00082D02*
X00073D01*
Y-00098*
X00089*
Y-00082*
G37*
G36*
X-00224Y-00509D02*
Y-00525D01*
X-00209*
X-00209Y-00521*
X-00214Y-00514*
X-00221Y-0051*
X-00224Y-00509*
G37*
G36*
X-00234D02*
X-00237Y-0051D01*
X-00244Y-00514*
X-00249Y-00521*
X-0025Y-00525*
X-00234*
Y-00509*
G37*
G36*
X-00344D02*
Y-00525D01*
X-00329*
X-00329Y-00521*
X-00334Y-00514*
X-00341Y-0051*
X-00344Y-00509*
G37*
G36*
X-00209Y-00535D02*
X-00224D01*
Y-0055*
X-00221Y-00549*
X-00214Y-00545*
X-00209Y-00538*
X-00209Y-00535*
G37*
G36*
X-00234D02*
X-0025D01*
X-00249Y-00538*
X-00244Y-00545*
X-00237Y-00549*
X-00234Y-0055*
Y-00535*
G37*
G36*
X-00329D02*
X-00344D01*
Y-0055*
X-00341Y-00549*
X-00334Y-00545*
X-00329Y-00538*
X-00329Y-00535*
G37*
G36*
X-0026Y-00571D02*
X-00274Y-00572D01*
X-00286Y-00578*
X-00297Y-00586*
X-00305Y-00597*
X-0031Y-00609*
X-00312Y-00622*
X-0031Y-00636*
X-00305Y-00648*
X-00297Y-00659*
X-00286Y-00667*
X-00274Y-00672*
X-0026Y-00674*
X-00247Y-00672*
X-00235Y-00667*
X-00224Y-00659*
X-00216Y-00648*
X-00211Y-00636*
X-00209Y-00622*
X-00211Y-00609*
X-00216Y-00597*
X-00224Y-00586*
X-00235Y-00578*
X-00247Y-00572*
X-0026Y-00571*
G37*
G36*
X-00354Y-00749D02*
X-00357Y-0075D01*
X-00364Y-00754*
X-00369Y-00761*
X-0037Y-00765*
X-00354*
Y-00749*
G37*
G36*
Y-00775D02*
X-0037D01*
X-00369Y-00778*
X-00364Y-00785*
X-00357Y-00789*
X-00354Y-0079*
Y-00775*
G37*
G36*
X00365Y-00749D02*
X00362Y-0075D01*
X00355Y-00754*
X0035Y-00761*
X0035Y-00765*
X00365*
Y-00749*
G37*
G36*
X00494Y-00941D02*
X00491Y-00942D01*
X00484Y-00946*
X0048Y-00952*
X00478Y-0096*
X00479Y-00967*
X00482Y-00974*
X00504Y-00967*
X00494Y-00941*
G37*
G36*
X00507Y-00976D02*
X00485Y-00984D01*
X00488Y-00991*
X00492Y-00998*
X00498Y-01002*
X00505Y-01004*
X00513Y-01003*
X00516Y-01001*
X00507Y-00976*
G37*
G36*
X-00505Y-0096D02*
X-00508Y-00962D01*
X-00514Y-00969*
X-00517Y-00977*
X-00518Y-00986*
X-00517Y-00995*
X-00515Y-00999*
X-00491Y-00984*
X-00505Y-0096*
G37*
G36*
X-00414Y-01109D02*
X-00417Y-0111D01*
X-00424Y-01114*
X-00429Y-01121*
X-0043Y-01125*
X-00414*
Y-01109*
G37*
G36*
X-00524D02*
Y-01125D01*
X-00509*
X-00509Y-01121*
X-00514Y-01114*
X-00521Y-0111*
X-00524Y-01109*
G37*
G36*
X-00509Y-01135D02*
X-00524D01*
Y-0115*
X-00521Y-01149*
X-00514Y-01145*
X-00509Y-01138*
X-00509Y-01135*
G37*
%LNglasses_full_v1_small_revised-3*%
%LPD*%
G54D11*
X-02525Y-0023D02*
Y-00059D01*
X-0246Y00006*
X02725Y-0024D02*
Y-00095D01*
X02688Y-00276D02*
X02725Y-0024D01*
X02671Y-00276D02*
X02688D01*
X02671Y-00276D02*
X02671Y-00276D01*
X-02646Y-00451D02*
X-02611Y-00416D01*
X-02646Y-00584D02*
Y-00451D01*
Y-00584D02*
X-0262Y-0061D01*
X-02632Y-00467D02*
X-02605Y-0044D01*
X-02632Y-0055D02*
Y-00467D01*
Y-0055D02*
X-02617Y-00565D01*
X-02616Y-00528D02*
X-02609Y-00535D01*
X-02616Y-00528D02*
Y-00476D01*
X-02616Y-00476*
X-02535Y-0024D02*
X-02525Y-0023D01*
X-02605Y-0044D02*
X-026D01*
X-02611Y-00416D02*
X-02579D01*
X-02635Y-0015D02*
X-02595Y-0019D01*
X0264Y-00452D02*
Y-00445D01*
Y-00452D02*
X02646Y-00458D01*
Y-00537D02*
Y-00458D01*
X02618Y-00565D02*
X02646Y-00537D01*
X02614Y-00565D02*
X02618D01*
X02603Y-00576D02*
X02614Y-00565D01*
X02603Y-00577D02*
Y-00576D01*
X0262Y-00455D02*
X0263Y-00465D01*
Y-0052D02*
Y-00465D01*
X02614Y-00535D02*
X0263Y-0052D01*
X02609Y-00535D02*
X02614D01*
X02603Y-00541D02*
X02609Y-00535D01*
X02603Y-00542D02*
Y-00541D01*
X-0262Y-0061D02*
X-02594D01*
X-02589Y-00615*
X-02614Y-00565D02*
X-02602Y-00576D01*
X-02617Y-00565D02*
X-02614D01*
X-02602Y-00577D02*
Y-00576D01*
X-02609Y-00535D02*
X-02608D01*
X-02602Y-00541*
Y-00542D02*
Y-00541D01*
X-02562Y-0024D02*
X-02535Y-0024D01*
G54D19*
X-00128Y-00248D02*
D01*
X-00127Y-00247*
X-00127Y-00247*
X-00127Y-00247*
X-00126Y-00247*
X-00126Y-00247*
X-00126Y-00247*
X-00126Y-00247*
X-00125Y-00247*
X-00125Y-00247*
X-00125Y-00247*
X-00125Y-00246*
X-00125Y-00246*
X-00124Y-00246*
X-00124Y-00246*
X-00124Y-00246*
X-00124Y-00245*
X-00124Y-00245*
X-00124Y-00245*
X-00124Y-00244*
X-00124Y-00244*
X-00124Y-00244*
X-00124Y-00244*
X-00124Y-00244*
X02678Y0027D02*
X02786D01*
X02673Y00265D02*
X02678Y0027D01*
X0267Y00265D02*
X02673D01*
X02786Y0027D02*
X02804Y00252D01*
Y00112D02*
Y00252D01*
X0275Y00058D02*
X02804Y00112D01*
X02705Y00058D02*
X0275D01*
X02558Y00146D02*
X02567Y00138D01*
X02568*
X02555Y0015D02*
X02558Y00146D01*
X0252Y00195D02*
X0256Y00155D01*
X02555Y0015D02*
X0256Y00155D01*
X0019Y-00312D02*
X00191Y-00313D01*
Y-00249*
X0019Y-00344D02*
Y-00312D01*
X00021Y-00225D02*
X00024D01*
X-00129Y-00238D02*
X-00124Y-00244D01*
X00193Y-00199D02*
Y-00176D01*
X00255Y-00184D02*
X00303Y-00232D01*
X00195Y-00174D02*
Y-00088D01*
X00193Y-00176D02*
X00195Y-00174D01*
X00212Y-00184D02*
X00255D01*
X00191Y-00249D02*
X00195Y-00245D01*
X00193Y-00199D02*
X00195Y-00201D01*
Y-00245D02*
Y-00201D01*
X00179Y-00072D02*
X00195Y-00088D01*
X-00052Y-00082D02*
Y-00065D01*
X00008Y-00235D02*
Y-00226D01*
X02705Y-00041D02*
Y00058D01*
X00096Y-00194D02*
Y-00192D01*
X00087Y-00184D02*
X00096Y-00192D01*
X-0003Y-00078D02*
X-00005Y-00104D01*
X-00052Y-00082D02*
X-00017Y-00117D01*
Y-00216D02*
Y-00117D01*
Y-00216D02*
X-00011Y-00222D01*
X-0003Y-00078D02*
Y-0007D01*
X-00029Y-00069*
Y-00051*
X-00026Y-00049*
X-00005Y-00211D02*
Y-00104D01*
X00007Y-00202D02*
Y-00047D01*
X00032Y-00021*
X-00005Y-00211D02*
X0Y-00217D01*
X00087Y-00184D02*
X0011Y-00161D01*
X00007Y-00202D02*
X0002Y-00215D01*
X-00011Y-00225D02*
Y-00222D01*
X00004Y-00222D02*
Y-00222D01*
X-00011Y-00225D02*
X-00007Y-00229D01*
X00004Y-00222D02*
X00008Y-00226D01*
X0Y-00218D02*
Y-00217D01*
Y-00218D02*
X00004Y-00222D01*
X0002Y-00226D02*
Y-00215D01*
X00024Y-00225D02*
Y-00215D01*
X0002Y-00226D02*
X00021Y-00225D01*
X00021Y-00213D02*
X00024Y-00215D01*
X00074Y-00021D02*
X0011Y-00057D01*
Y-00161D02*
Y-00057D01*
X-00129Y-00238D02*
Y-00124D01*
X-00118Y-00113*
Y-00018*
X00032Y-00021D02*
X00074D01*
X-00053Y-00066D02*
X-00052Y-00065D01*
X0252Y00195D02*
Y0024D01*
X0115Y00076D02*
X01189Y00115D01*
X-01175Y00135D02*
X-01136D01*
X-01134Y00137*
X01189Y00115D02*
X02305D01*
X0231Y0011*
X0233*
X02392Y00047*
X02492*
X02485Y0D02*
Y00003D01*
X02492Y00011D02*
Y00047D01*
X02485Y00003D02*
X02492Y00011D01*
X02632Y00007D02*
X02655Y0003D01*
X02632Y-00137D02*
Y00007D01*
X02683Y-00023D02*
Y00023D01*
X02685Y00025*
X02698Y-00048D02*
X02705Y-00041D01*
X02698Y-00058D02*
X027Y-0006D01*
X02698Y-00058D02*
Y-00048D01*
X0259Y-00179D02*
X02632Y-00137D01*
X0259Y-00225D02*
Y-00179D01*
X02679Y-00027D02*
X02683Y-00023D01*
X02679Y-00039D02*
Y-00027D01*
X02678Y-0004D02*
X02679Y-00039D01*
X02671Y-0004D02*
X02678D01*
X02575Y-0024D02*
X0259Y-00225D01*
X02558Y-0024D02*
X02575D01*
X02558Y-0024D02*
X02558Y-0024D01*
X-02685Y-00041D02*
X-02683Y-0004D01*
X-02675*
X02683Y-00062D02*
X02689Y-00055D01*
X02683Y-00062D02*
Y-00062D01*
X02681Y-00063D02*
X02683Y-00062D01*
X02671Y-00063D02*
X02681D01*
X-02675D02*
Y-0004D01*
G54D20*
X00007Y-00404D02*
D01*
X00007Y-00405*
X00006Y-00405*
X00006Y-00406*
X00005Y-00407*
X00005Y-00408*
X00004Y-00409*
X00004Y-0041*
X00004Y-00411*
X00004Y-00411*
X00004Y-00412*
X00004Y-00413*
X00004Y-00414*
X0256Y00112D02*
Y0012D01*
X-0272Y00055D02*
X-02701Y00073D01*
X-00303Y-00232D02*
X-00282Y-00211D01*
X-0028*
X-00196Y-00276D02*
Y-00201D01*
X-00176Y-00267D02*
Y-00193D01*
X-00186Y-00272D02*
Y-00197D01*
X-00209Y-00187D02*
X-00196Y-00201D01*
X-00205Y-00177D02*
X-00186Y-00197D01*
X-00201Y-00167D02*
X-00176Y-00193D01*
X-0022Y-00178D02*
X-0021Y-00187D01*
X-00267Y-00197D02*
X-00213D01*
X-00282Y-00102D02*
X-00206Y-00177D01*
X-00234Y-00178D02*
X-0022D01*
X-00202Y-00167D02*
X-00201D01*
X-00258Y-00112D02*
X-00202Y-00167D01*
X-00206Y-00177D02*
X-00205D01*
X-0021Y-00187D02*
X-00209D01*
Y-00211D02*
Y-00201D01*
X-00213Y-00197D02*
X-00209Y-00201D01*
X-0028Y-00211D02*
X-00267Y-00197D01*
X02543Y-00025D02*
X02567Y-00049D01*
X02535Y00199D02*
X02587Y00146D01*
Y00099D02*
Y00146D01*
Y00099D02*
X02595Y00091D01*
X02544Y00136D02*
X0256Y0012D01*
X02544Y00136D02*
Y00155D01*
X02532Y00035D02*
X02585Y00087D01*
X0256Y00112D02*
X02585Y00087D01*
X02627Y00115D02*
Y00162D01*
Y00115D02*
X02635Y00108D01*
Y00067D02*
Y00108D01*
X02627Y00059D02*
X02635Y00067D01*
X02627Y00057D02*
Y00059D01*
X02617Y00111D02*
Y00158D01*
Y00111D02*
X02625Y00104D01*
Y00071D02*
Y00104D01*
X02617Y00063D02*
X02625Y00071D01*
X02617Y00061D02*
Y00063D01*
X02607Y00107D02*
Y00154D01*
Y00107D02*
X02615Y001D01*
Y00075D02*
Y001D01*
X02607Y00067D02*
X02615Y00075D01*
X02607Y00065D02*
Y00067D01*
X02597Y00103D02*
Y0015D01*
Y00103D02*
X02605Y00096D01*
Y00079D02*
Y00096D01*
X02597Y00072D02*
X02605Y00079D01*
X02597Y00069D02*
Y00072D01*
X02595Y00083D02*
Y00091D01*
X02578Y00066D02*
X02595Y00083D01*
X02578Y00064D02*
Y00066D01*
X02499Y00186D02*
X02534Y00151D01*
Y00124D02*
Y00151D01*
Y00124D02*
X02537Y00121D01*
Y00092D02*
Y00121D01*
X02509Y0019D02*
X02544Y00155D01*
X02606Y00184D02*
X02627Y00162D01*
X02582Y00194D02*
X02617Y00158D01*
X02555Y00193D02*
X02597Y0015D01*
X02568Y00194D02*
X02607Y00154D01*
X02606Y00184D02*
Y00197D01*
X02592Y00211D02*
X02606Y00197D01*
X02582Y00194D02*
Y00215D01*
X02568Y00194D02*
Y0024D01*
X02499Y00186D02*
Y00196D01*
X02509Y0019D02*
Y00205D01*
X01117Y00154D02*
X01134Y00137D01*
X01021Y00154D02*
X01117D01*
X00976Y00144D02*
X01021Y00154D01*
X00973Y00141D02*
X00976Y00144D01*
X00204Y-00332D02*
Y-00268D01*
Y-00332D02*
X00209Y-00338D01*
Y-00393D02*
Y-00338D01*
X00179Y-00329D02*
Y-00307D01*
X00169Y-00325D02*
Y-00303D01*
X00159Y-00321D02*
Y-00299D01*
X00143Y-00336D02*
X00159Y-00321D01*
X00149Y-00311D02*
Y-00295D01*
X00128Y-00332D02*
X00149Y-00311D01*
X00182Y-00204D02*
Y-00171D01*
X00184Y-00169D02*
Y-00104D01*
X00182Y-00171D02*
X00184Y-00169D01*
X00216Y-00154D02*
X00224Y-00162D01*
X02565Y00005D02*
Y00007D01*
X02583Y00003D02*
Y00012D01*
Y00003D02*
X02585Y00001D01*
X02593Y00007D02*
Y00016D01*
Y00007D02*
X02595Y00005D01*
X02603Y00011D02*
X02605Y00009D01*
X02603Y00011D02*
Y00012D01*
X02605Y00014*
X00195Y-005D02*
X00234D01*
X00185Y-0063D02*
X00345Y-0079D01*
X00185Y-0051D02*
X00195Y-005D01*
X00345Y-0093D02*
Y-0079D01*
X00185Y-0063D02*
Y-0051D01*
X00345Y-0093D02*
X00451Y-01036D01*
X00534*
X-00209Y-00211D02*
X-00206Y-00215D01*
Y-0028D02*
Y-00215D01*
X-00166Y-00263D02*
Y-00058D01*
X-00156Y-00259D02*
Y-00048D01*
X-00146Y-00255D02*
Y-00033D01*
Y-00255D02*
X-00135Y-00266D01*
X-00156Y-00259D02*
X-00135Y-0028D01*
X-00166Y-00263D02*
X-00133Y-00296D01*
X00172Y-00351D02*
X0019Y-00369D01*
Y-00388D02*
Y-00369D01*
X00162Y-00386D02*
Y-0036D01*
X00161Y-00386D02*
X00162Y-00386D01*
X00162Y-00359D02*
Y-00332D01*
Y-00359D02*
X00162Y-0036D01*
X0017Y-00302D02*
Y-00113D01*
X00144Y-00367D02*
Y-00336D01*
X00143Y-00336D02*
X00144Y-00336D01*
X0015Y-00294D02*
Y-0018D01*
X00149Y-00295D02*
X0015Y-00294D01*
X0016Y-00298D02*
Y-00176D01*
X00159Y-00299D02*
X0016Y-00298D01*
X00169Y-00303D02*
X0017Y-00302D01*
X00162Y-00332D02*
X00169Y-00325D01*
X0018Y-00306D02*
Y-00244D01*
X00179Y-00307D02*
X0018Y-00306D01*
X00172Y-00336D02*
X00179Y-00329D01*
X00172Y-00351D02*
Y-00336D01*
X00142Y-00086D02*
X0017Y-00113D01*
X00142Y-00086D02*
Y-00049D01*
X00128Y-00341D02*
Y-00332D01*
Y-00341D02*
X00129Y-00342D01*
Y-00357D02*
Y-00342D01*
X00123Y-00363D02*
X00129Y-00357D01*
X00123Y-00376D02*
Y-00363D01*
X00109Y-0035D02*
X00111D01*
X00128Y-00306D02*
X0013Y-00304D01*
X00112Y-00296D02*
X0013Y-00278D01*
X00085Y-00296D02*
X00112D01*
X0011Y-00263D02*
Y-0026D01*
X0012Y-0038D02*
X00123Y-00376D01*
X00101Y-00409D02*
Y-00368D01*
X00076Y-0044D02*
X00282D01*
X00055Y-00419D02*
X00076Y-0044D01*
X00055Y-00419D02*
Y-00404D01*
X00054Y-0045D02*
X00342D01*
X00038Y-0046D02*
X0023D01*
X00112Y-0042D02*
X00183D01*
X00102Y-0043D02*
X00187D01*
X0004Y-00436D02*
X00054Y-0045D01*
X00039Y-00436D02*
X0004D01*
X00039D02*
Y-00404D01*
X00182Y-00204D02*
X00184Y-00206D01*
Y-0024D02*
Y-00206D01*
X00158Y-00174D02*
Y-00116D01*
Y-00174D02*
X0016Y-00176D01*
X00148Y-00178D02*
Y-00126D01*
Y-00178D02*
X0015Y-0018D01*
X02608Y00227D02*
X02617D01*
X02592Y00211D02*
X02608Y00227D01*
X0261Y00243D02*
Y00245D01*
X0263Y0024D02*
X0264D01*
X02582Y00215D02*
X0261Y00243D01*
X02628Y00238D02*
X0263Y0024D01*
X02628Y00237D02*
Y00238D01*
X02617Y00227D02*
X02628Y00237D01*
X0257Y0024D02*
X02579Y00249D01*
X02584Y00255D02*
X02585D01*
X02568Y0024D02*
X0257D01*
X02579Y00249D02*
Y0025D01*
X02584Y00255*
X02555Y00193D02*
Y00236D01*
X02467Y00246D02*
X02509Y00205D01*
X02479Y00216D02*
X02499Y00196D01*
X02535Y00199D02*
Y0024D01*
X0272Y-00065D02*
Y00018D01*
X02726Y00023*
Y00028*
X-02616Y-00476D02*
X-02596Y-00456D01*
X02605Y00034D02*
X02627Y00057D01*
X02595Y00038D02*
X02617Y00061D01*
X0258Y00037D02*
X02607Y00065D01*
X0257Y00042D02*
X02597Y00069D01*
X0256Y00046D02*
X02578Y00064D01*
X-00064Y-00248D02*
Y-00246D01*
X-00075Y-00235D02*
X-00064Y-00246D01*
X-00075Y-00235D02*
X-00055D01*
X-00034Y-00192D02*
Y-00178D01*
X-00111Y-00178D02*
X-0007D01*
X-00039Y-00212D02*
X-00024Y-00226D01*
X-00039Y-00212D02*
X-00039D01*
X-00054Y-00197D02*
X-00039Y-00212D01*
X-00054Y-00197D02*
Y-00195D01*
X-0007Y-00178D02*
X-00054Y-00195D01*
X-00036Y-0019D02*
X-00034Y-00192D01*
Y-00194D02*
Y-00192D01*
X-00062Y-00149D02*
Y-00149D01*
X-0007Y-00141D02*
X-00062Y-00149D01*
X-00071Y-00141D02*
X-0007D01*
X00067Y-0014D02*
X00068D01*
X00054Y-00154D02*
X00067Y-0014D01*
X00054Y-00217D02*
Y-00154D01*
Y-00217D02*
X00054Y-00217D01*
Y-00234D02*
Y-00217D01*
Y-00234D02*
X00055Y-00235D01*
X00072Y-0021D02*
X00074Y-00208D01*
Y-00206*
X0007Y-00202D02*
X00074Y-00206D01*
X0007Y-00202D02*
Y-00178D01*
X00094Y-00154*
Y-00106*
X0009Y-00103D02*
X00094Y-00106D01*
X00068Y-00103D02*
X0009D01*
X-00092Y-00121D02*
Y-00102D01*
X-00101Y-0013D02*
X-00092Y-00121D01*
X-00101Y-00131D02*
Y-0013D01*
X-00109Y-00139D02*
X-00101Y-00131D01*
X-0011Y-00139D02*
X-00109D01*
X-02562Y-0001D02*
X-0256Y-00008D01*
X-02562Y-00051D02*
Y-0001D01*
Y-00075D02*
Y-00051D01*
X-00055Y-00264D02*
X-00039Y-0028D01*
X0Y-0032*
X-00039Y-0028D02*
Y-00235D01*
X-00055Y-00264D02*
Y-00235D01*
X-0013Y-00623D02*
X-001Y-00593D01*
Y-0054*
X-00078Y-00588D02*
Y-00534D01*
X-00072Y-00528*
X-00128Y-00534D02*
X-00128Y-00534D01*
X-00128Y-00603D02*
Y-00534D01*
X-00272Y-00088D02*
X-00258Y-00102D01*
X-00272Y-00088D02*
Y-00064D01*
X-00258Y-00112D02*
Y-00102D01*
X00453Y-00037D02*
X00652Y00029D01*
X00338Y-00152D02*
X00453Y-00037D01*
X00338Y-00154D02*
Y-00152D01*
X00353Y-00059D02*
X00632Y00034D01*
X0031Y-00102D02*
X00353Y-00059D01*
X0031Y-00156D02*
Y-00102D01*
X00135Y-0002D02*
X0014D01*
X00121Y-00034D02*
X00135Y-0002D01*
X00121Y-00099D02*
Y-00034D01*
X00103Y-00343D02*
X00109Y-0035D01*
X00084Y-00343D02*
X00103D01*
X00092Y-00359D02*
X00101Y-00368D01*
X00084Y-00359D02*
X00092D01*
X00106Y-00327D02*
X0011Y-00324D01*
X00102Y-00306D02*
X00128D01*
X00097Y-00311D02*
X00102Y-00306D01*
X00085Y-00311D02*
X00097D01*
X00101Y-00409D02*
X00112Y-0042D01*
X00187Y-0043D02*
X00219Y-00397D01*
Y-00394*
X0024Y-00374*
X00187Y-0039D02*
X0019Y-00388D01*
X00101Y-00276D02*
Y-00271D01*
X00098Y-00279D02*
X00101Y-00276D01*
X00085Y-00279D02*
X00098D01*
X00101Y-00271D02*
X0011Y-00263D01*
X00183Y-0042D02*
X00209Y-00393D01*
X00084Y-00327D02*
X00106D01*
X00084Y-00296D02*
X00085Y-00296D01*
X00084Y-00312D02*
X00085Y-00311D01*
X0028Y-00158D02*
Y-00156D01*
X00292Y-00144*
Y-00088*
X00323Y-00057*
X0024Y-00105D02*
X00308Y-00037D01*
X0024Y-00141D02*
Y-00105D01*
X00266Y-00119D02*
Y-00096D01*
Y-00119D02*
X00273Y-00126D01*
Y-0013D02*
Y-00126D01*
X00266Y-00096D02*
X00313Y-00048D01*
Y-00047*
X00084Y-0028D02*
X00085Y-00279D01*
X00078Y-00245D02*
X00084Y-00251D01*
X00078Y-00245D02*
Y-00244D01*
X00084Y-00264D02*
Y-00251D01*
X00216Y-00154D02*
Y-00093D01*
X00213Y-00091D02*
X00216Y-00093D01*
X00213Y-00091D02*
Y-00053D01*
X0018Y-00244D02*
X00184Y-0024D01*
X00121Y-00099D02*
X00148Y-00126D01*
X00132Y-0009D02*
X00132Y-00045D01*
X00132Y-0009D02*
X00158Y-00116D01*
X0016Y-0008D02*
X00184Y-00104D01*
X0016Y-0008D02*
Y-00058D01*
X00104Y-00568D02*
X00115Y-00579D01*
X00097Y-00568D02*
X00104D01*
X00087Y-00557D02*
X00097Y-00568D01*
X00087Y-00557D02*
Y-00551D01*
X00068Y-00532D02*
X00087Y-00551D01*
X00115Y-00579D02*
X00143D01*
X00068Y-00532D02*
Y-00516D01*
X00084Y-00412D02*
X00102Y-0043D01*
X00282Y-0044D02*
X00303Y-00418D01*
X00084Y-00412D02*
Y-00375D01*
X-00169Y-00009D02*
X-00146Y-00033D01*
X-00184Y-00019D02*
X-00156Y-00048D01*
X-00188Y-00036D02*
X-00166Y-00058D01*
X-00128Y-00343D02*
X-00084D01*
X-0013Y-00327D02*
X-00084D01*
X-00133Y-0031D02*
X-00091D01*
X-00133Y-00296D02*
X-00084D01*
X-00135Y-0028D02*
X-00084D01*
X-00135Y-00266D02*
X-00085D01*
X-00084Y-00264*
X-00176Y-00267D02*
X-00133Y-0031D01*
X-00186Y-00272D02*
X-0013Y-00327D01*
X-00196Y-00276D02*
X-00128Y-00343D01*
X-00206Y-0028D02*
X-00199Y-00286D01*
Y-00355D02*
Y-00286D01*
X-00292Y-0007D02*
X-00282Y-0008D01*
Y-00102D02*
Y-0008D01*
X00204Y-00268D02*
X0024Y-00232D01*
X-00202Y-0013D02*
Y-00122D01*
X-00204Y-0012D02*
X-00202Y-00122D01*
X-00204Y-0012D02*
Y-00106D01*
X00303Y-00418D02*
Y-00374D01*
X00055Y-00404D02*
Y-00404D01*
X00343Y-00449D02*
X00382Y-00291D01*
X00342Y-0045D02*
X00343Y-00449D01*
X00004Y-00562D02*
Y-00414D01*
X00348Y-00484D02*
X0035Y-00486D01*
X00306Y-00484D02*
X00348D01*
X00023Y-00445D02*
X00038Y-0046D01*
X00023Y-00445D02*
Y-00404D01*
X0023Y-0046D02*
X00274Y-00504D01*
X00358*
X0035Y-00486D02*
X00397Y-00301D01*
X00358Y-00504D02*
X00406Y-00313D01*
X00165Y-00635D02*
X00332Y-00802D01*
X00165Y-00635D02*
Y-00501D01*
X00332Y-00937D02*
Y-00802D01*
X00039Y-00235D02*
Y-0016D01*
X00028Y-00148D02*
X00039Y-0016D01*
X00028Y-00148D02*
Y-00145D01*
X-00024Y-00234D02*
Y-00226D01*
Y-00234D02*
X-00023Y-00235D01*
X-00376Y-00292D02*
X-00338Y-00442D01*
X-00106Y-0042D02*
X-00104Y-00421D01*
X-00048*
X-0004Y-00413*
Y-00405*
X-00039Y-00404*
X-00338Y-00442D02*
X-00053D01*
X-00028Y-00417*
X-00112Y-00464D02*
X-00108Y-0046D01*
X-0035Y-00464D02*
X-00112D01*
X-00028Y-00417D02*
Y-00415D01*
X-00024Y-00411*
X-00024*
X-00023Y-0041*
Y-00404*
X-0036Y-0048D02*
X-00075D01*
X-00008Y-00413*
Y-00405*
X-00007Y-00404*
X-00391Y-00302D02*
X-0035Y-00464D01*
X-004Y-00315D02*
X-0036Y-0048D01*
X-00168Y-00362D02*
X-00164D01*
X-00156Y-0037*
X-00095*
X-00091Y-00373*
Y-00374D02*
Y-00373D01*
Y-00374D02*
X-0009Y-00375D01*
X-00084*
X-00159Y-00395D02*
X-00063D01*
X-00199Y-00355D02*
X-00159Y-00395D01*
X-0022Y-00416D02*
X-00194Y-0039D01*
X-00288Y-00416D02*
X-0022D01*
X-00144Y-00359D02*
X-00084D01*
X-00178Y-00326D02*
X-00144Y-00359D01*
X-00218Y-0034D02*
X-00218D01*
X-00222Y-00343D02*
X-00218Y-0034D01*
X-00222Y-00355D02*
Y-00343D01*
X-0024Y-00374D02*
X-00222Y-00355D01*
X-00063Y-00395D02*
X-00062Y-00397D01*
X-00056*
X-00055Y-00398*
Y-00404D02*
Y-00398D01*
X-003Y-00403D02*
X-00288Y-00416D01*
X-003Y-00403D02*
Y-00376D01*
X-00303Y-00374D02*
X-003Y-00376D01*
X-00169Y-00009D02*
D01*
X-00169Y-00009D02*
X-00169Y-00009D01*
X-00669Y00123D02*
X-00188Y-00036D01*
X-00902Y00132D02*
X-00272Y-00064D01*
X-00091Y-00311D02*
Y-0031D01*
Y-00311D02*
X-0009Y-00312D01*
X-00084*
X-0025Y-0006D02*
X-00204Y-00106D01*
X00142Y-00049D02*
X00148Y-00044D01*
X00132Y-00045D02*
X00147Y-00031D01*
X-01042Y00186D02*
X-0025Y-0006D01*
X-00997Y001D02*
X-00902Y00132D01*
X-00897Y00117D02*
X-00292Y-0007D01*
X0016Y-00027D02*
X002Y-00018D01*
X00267Y00002*
X00147Y-00031D02*
X0016Y-00027D01*
X00148Y-00044D02*
X00208Y-00027D01*
X0016Y-00058D02*
X00163Y-00054D01*
X00208Y-00027D02*
X00293Y-00001D01*
X01759Y00254D02*
X0205D01*
X0227Y00263D02*
X02282D01*
X02285Y0026*
X02054Y0025D02*
X0246D01*
X0205Y00254D02*
X02054Y0025D01*
X0156Y0024D02*
X02449D01*
X0157Y0023D02*
X02429D01*
X02435Y00223D02*
X02437Y00221D01*
Y00192D02*
Y00221D01*
X0246Y0025D02*
X02464Y00246D01*
X02449Y0024D02*
X02474Y00216D01*
X02429Y0023D02*
X02435Y00224D01*
Y00223D02*
Y00224D01*
X02285Y0026D02*
X02464D01*
X02468Y00256*
X02503*
X02505Y0027D02*
X02535Y0024D01*
X02289Y0027D02*
X02505D01*
X02282Y00277D02*
X02289Y0027D01*
X01555Y00266D02*
X01751Y00266D01*
X01326Y00256D02*
X01434Y00262D01*
X0123Y00247D02*
X01326Y00256D01*
X00952Y002D02*
X01051Y00221D01*
X00612Y00105D02*
X00737Y00144D01*
X00293Y-00001D02*
X00413Y00038D01*
X01051Y00221D02*
X0114Y00235D01*
X00737Y00144D02*
X00848Y00175D01*
X01434Y00262D02*
X01555Y00266D01*
X01751Y00266D02*
X02044Y00264D01*
X0227Y00263*
X00848Y00175D02*
X00952Y002D01*
X0114Y00235D02*
X0123Y00247D01*
X00413Y00038D02*
X00612Y00105D01*
X01567Y0028D02*
X01763Y0028D01*
X01338Y0027D02*
X01446Y00276D01*
X01242Y00261D02*
X01338Y0027D01*
X00964Y00214D02*
X01063Y00235D01*
X0062Y00121D02*
X00749Y0016D01*
X00267Y00002D02*
X00389Y00044D01*
X01063Y00235D02*
X01152Y00249D01*
X00749Y0016D02*
X0086Y00189D01*
X01446Y00276D02*
X01567Y0028D01*
X01763Y0028D02*
X02056Y00278D01*
X02282Y00277*
X0086Y00189D02*
X00964Y00214D01*
X01152Y00249D02*
X01242Y00261D01*
X00389Y00044D02*
X0062Y00121D01*
X02464Y00246D02*
X02467D01*
X02474Y00216D02*
X02479D01*
X02503Y00256D02*
X0252Y0024D01*
X00878Y00119D02*
X0095D01*
X00973Y00141*
X00867Y00104D02*
X00867D01*
X00757Y00073D02*
X00867Y00104D01*
X00867Y00103D02*
X00871Y001D01*
X00861Y00089D02*
X00911Y00039D01*
X01013*
X00777Y00068D02*
X00859Y00091D01*
X00652Y00029D02*
X00777Y00068D01*
X00859Y00091D02*
D01*
X02511Y0028D02*
X02555Y00236D01*
X02493Y0028D02*
X02511D01*
X02278Y00291D02*
X02374Y00288D01*
X02493Y0028*
X01563Y00294D02*
X01759Y00294D01*
X01334Y00284D02*
X01442Y0029D01*
X01238Y00275D02*
X01334Y00284D01*
X0096Y00228D02*
X01059Y00249D01*
X0062Y00133D02*
X00745Y00172D01*
X00301Y00026D02*
X00421Y00066D01*
X0014Y-0002D02*
X00216Y0D01*
X01059Y00249D02*
X01148Y00263D01*
X00745Y00172D02*
X00856Y00203D01*
X01442Y0029D02*
X01563Y00294D01*
X01759Y00294D02*
X02052Y00292D01*
X02278Y00291*
X00856Y00203D02*
X0096Y00228D01*
X01148Y00263D02*
X01238Y00275D01*
X00216Y0D02*
X00301Y00026D01*
X00421Y00066D02*
X0062Y00133D01*
X00421Y00026D02*
X0062Y00093D01*
X00216Y-00039D02*
X00301Y-00013D01*
X01148Y00223D02*
X01238Y00235D01*
X00856Y00163D02*
X0096Y00188D01*
X01442Y0025D02*
X01563Y00254D01*
X00745Y00132D02*
X00856Y00163D01*
X01059Y00209D02*
X01148Y00223D01*
X00163Y-00054D02*
X00216Y-00039D01*
X00301Y-00013D02*
X00421Y00026D01*
X0062Y00093D02*
X00745Y00132D01*
X0096Y00188D02*
X01059Y00209D01*
X01238Y00235D02*
X01334Y00244D01*
X01442Y0025*
X01563Y00254D02*
X01759Y00254D01*
X02323Y00216D02*
X02392Y00147D01*
X01454Y00216D02*
X02323D01*
X01331Y0023D02*
X01439Y00236D01*
X01235Y00221D02*
X01331Y0023D01*
X00957Y00174D02*
X01056Y00195D01*
X00617Y00079D02*
X00742Y00118D01*
X00298Y-00027D02*
X00418Y00012D01*
X01056Y00195D02*
X01145Y00209D01*
X00742Y00118D02*
X00853Y00149D01*
X01439Y00236D02*
X0156Y0024D01*
X00853Y00149D02*
X00957Y00174D01*
X01145Y00209D02*
X01235Y00221D01*
X00213Y-00053D02*
X00298Y-00027D01*
X00418Y00012D02*
X00617Y00079D01*
X00428Y00002D02*
X00627Y00069D01*
X01155Y00199D02*
X01245Y00211D01*
X00863Y00139D02*
X00967Y00164D01*
X01449Y00226D02*
X0157Y0023D01*
X00752Y00108D02*
X00863Y00139D01*
X01066Y00185D02*
X01155Y00199D01*
X00308Y-00037D02*
X00428Y00002D01*
X00627Y00069D02*
X00752Y00108D01*
X00967Y00164D02*
X01066Y00185D01*
X01245Y00211D02*
X01341Y0022D01*
X01449Y00226*
X00433Y-00007D02*
X00632Y00059D01*
X0116Y00189D02*
X0125Y00201D01*
X00868Y00129D02*
X00972Y00154D01*
X00757Y00098D02*
X00868Y00129D01*
X01071Y00175D02*
X0116Y00189D01*
X00313Y-00047D02*
X00433Y-00007D01*
X00632Y00059D02*
X00757Y00098D01*
X00972Y00154D02*
X01071Y00175D01*
X0125Y00201D02*
X01346Y0021D01*
X01454Y00216*
X00443Y-00017D02*
X00642Y00049D01*
X00767Y00088D02*
X00878Y00119D01*
X00323Y-00057D02*
X00443Y-00017D01*
X00642Y00049D02*
X00767Y00088D01*
X00632Y00034D02*
X00757Y00073D01*
X00867Y00104D02*
X00868Y00104D01*
X-02292Y00267D02*
X-01929Y00269D01*
X-02335Y00225D02*
X-02292Y00267D01*
X-02335Y00155D02*
Y00225D01*
X-02387Y00247D02*
X-02353Y00281D01*
X-02392Y00247D02*
X-02387D01*
X-00554Y00102D02*
X-00328Y00025D01*
X-0081Y00181D02*
X-00684Y00144D01*
X-01103Y00247D02*
X-01012Y0023D01*
X-02337Y00281D02*
X-02179Y00283D01*
X-01403Y0028D02*
X-013Y00272D01*
X-01671Y00285D02*
X-01518Y00284D01*
X-02179Y00283D02*
X-01944Y00284D01*
X-01012Y0023D02*
X-00916Y00208D01*
X-01201Y00262D02*
X-01103Y00247D01*
X-00328Y00025D02*
X-00184Y-00019D01*
X-01944Y00284D02*
X-01671Y00285D01*
X-01518Y00284D02*
X-01403Y0028D01*
X-013Y00272D02*
X-01201Y00262D01*
X-00916Y00208D02*
X-0081Y00181D01*
X-00684Y00144D02*
X-00554Y00102D01*
X-02353Y00281D02*
X-02337D01*
X-01186Y00247D02*
X-01088Y00232D01*
X-01285Y00257D02*
X-01186Y00247D01*
X-01088Y00232D02*
X-00997Y00215D01*
X-00901Y00193D02*
X-00795Y0016D01*
X-01503Y00269D02*
X-01388Y00265D01*
X-01929Y00269D02*
X-01656Y0027D01*
X-00997Y00215D02*
X-00901Y00193D01*
X-01656Y0027D02*
X-01503Y00269D01*
X-01388Y00265D02*
X-01285Y00257D01*
X-00795Y0016D02*
X-00669Y00123D01*
X00871Y001D02*
X00997D01*
X-02584Y00078D02*
Y00091D01*
X-02585Y00077D02*
X-02584Y00078D01*
X-02585Y-00084D02*
Y00077D01*
X-02596Y00083D02*
Y00096D01*
X-02597Y00082D02*
X-02596Y00083D01*
X-02597Y-00095D02*
Y00082D01*
X-02608Y00088D02*
Y00101D01*
X-02609Y00087D02*
X-02608Y00088D01*
X-02609Y-00107D02*
Y00087D01*
X-0251Y-00205D02*
X-02497Y-00192D01*
X-0251Y-00254D02*
Y-00205D01*
X-0255Y-00421D02*
X-02483Y-00246D01*
X-02585Y-00456D02*
X-0255Y-00421D01*
X-02596Y-00456D02*
X-02585D01*
X-02583Y-0044D02*
X-02567Y-00424D01*
X-026Y-0044D02*
X-02583D01*
X-02578Y-00416D02*
X-0251Y-00254D01*
X-02578Y-00416D02*
X-02578Y-00416D01*
X-02567Y-00424D02*
X-02499Y-00255D01*
X-02498Y-00221*
X-02484Y-00246D02*
X-02483Y-00246D01*
X-02484Y-00246D02*
Y-00221D01*
X-02461Y-00186*
X-02438Y-00157*
X-02409Y-00127*
X-02378Y-001*
X-02357Y-00084*
X-02335Y-0007*
X-02297Y-00048*
X-02254Y-00028*
X-02205Y-00009*
X-02156Y00006*
X-02123Y00014*
X-0209Y00021*
X-02024Y00033*
X-0195Y00041*
X-01868Y00047*
X-01809Y00049*
X-01751Y0005*
X-01657Y0005*
X-01571Y00049*
X-01485Y00046*
X-01457*
X-01456Y00046*
X-01446*
X-01444Y00044*
X-01434*
X-0148Y00058D02*
X-0143D01*
X-01425Y00053*
X-02498Y-00221D02*
X-02489Y-00206D01*
X-01423Y00076D02*
X-0141Y00063D01*
X-01325Y00057*
X-01499Y00076D02*
X-01423D01*
X-0149Y00061D02*
X-01488Y00059D01*
X-0148Y00058*
X-01425Y00053D02*
X-0134Y00047D01*
X-0039Y-00268D02*
X-00376Y-00292D01*
X-00801Y-0005D02*
X-00709Y-0008D01*
X-00665Y-00096*
X-00622Y-00113D02*
X-00561Y-00139D01*
X-00665Y-00096D02*
X-00622Y-00113D01*
X-00561Y-00139D02*
X-0051Y-00165D01*
X-01249Y00049D02*
X-01173Y00038D01*
X-01325Y00057D02*
X-01249Y00049D01*
X-0051Y-00165D02*
X-00474Y-00187D01*
X-01173Y00038D02*
X-01078Y0002D01*
X-00451Y-00203D02*
X-00429Y-00222D01*
X-00474Y-00187D02*
X-00451Y-00203D01*
X-01078Y0002D02*
X-00986Y0D01*
X-00429Y-00222D02*
X-00408Y-00244D01*
X-00894Y-00023D02*
X-00801Y-0005D01*
X-00986Y0D02*
X-00894Y-00023D01*
X-00408Y-00244D02*
X-0039Y-00268D01*
X-00405Y-00278D02*
X-00391Y-00302D01*
X-00816Y-0006D02*
X-00724Y-0009D01*
X-0068Y-00106*
X-00637Y-00123D02*
X-00576Y-00149D01*
X-0068Y-00106D02*
X-00637Y-00123D01*
X-00576Y-00149D02*
X-00525Y-00175D01*
X-01264Y00039D02*
X-01188Y00028D01*
X-0134Y00047D02*
X-01264Y00039D01*
X-00525Y-00175D02*
X-00489Y-00197D01*
X-01188Y00028D02*
X-01093Y0001D01*
X-00466Y-00213D02*
X-00444Y-00232D01*
X-00489Y-00197D02*
X-00466Y-00213D01*
X-01093Y0001D02*
X-01001Y-0001D01*
X-00444Y-00232D02*
X-00423Y-00254D01*
X-00909Y-00033D02*
X-00816Y-0006D01*
X-01001Y-0001D02*
X-00909Y-00033D01*
X-00423Y-00254D02*
X-00405Y-00278D01*
X-00414Y-00291D02*
X-004Y-00315D01*
X-00825Y-00073D02*
X-00733Y-00103D01*
X-00689Y-00119*
X-00646Y-00136D02*
X-00585Y-00162D01*
X-00689Y-00119D02*
X-00646Y-00136D01*
X-01434Y00041D02*
X-01349Y00035D01*
X-00585Y-00162D02*
X-00534Y-00188D01*
X-01273Y00026D02*
X-01197Y00015D01*
X-01349Y00035D02*
X-01273Y00026D01*
X-00534Y-00188D02*
X-00497Y-0021D01*
X-01197Y00015D02*
X-01101Y-00002D01*
X-00474Y-00226D02*
X-00453Y-00244D01*
X-00497Y-0021D02*
X-00474Y-00226D01*
X-01101Y-00002D02*
X-01009Y-00022D01*
X-00453Y-00244D02*
X-00432Y-00266D01*
X-00918Y-00046D02*
X-00825Y-00073D01*
X-01009Y-00022D02*
X-00918Y-00046D01*
X-00432Y-00266D02*
X-00414Y-00291D01*
X-01671Y0008D02*
X-01585Y00079D01*
X-01765Y0008D02*
X-01671D01*
X-02268Y00001D02*
X-02219Y0002D01*
X-01585Y00079D02*
X-01499Y00076D01*
X-02169Y00035D02*
X-02136Y00043D01*
X-02219Y0002D02*
X-02169Y00035D01*
X-02136Y00043D02*
X-02103Y00051D01*
X-02497Y-00192D02*
X-02475Y-00157D01*
X-02103Y00051D02*
X-02038Y00062D01*
X-02475Y-00157D02*
X-02452Y-00127D01*
X-02423Y-00097*
X-01964Y00071D02*
X-01882Y00077D01*
X-02038Y00062D02*
X-01964Y00071D01*
X-02423Y-00097D02*
X-02392Y-0007D01*
X-01882Y00077D02*
X-01823Y00079D01*
X-02392Y-0007D02*
X-02371Y-00055D01*
X-01823Y00079D02*
X-01765Y0008D01*
X-02349Y-0004D02*
X-02311Y-00018D01*
X-02371Y-00055D02*
X-02349Y-0004D01*
X-02311Y-00018D02*
X-02268Y00001D01*
X-01662Y00065D02*
X-01576Y00064D01*
X-01756Y00065D02*
X-01662Y00065D01*
X-02259Y-00013D02*
X-0221Y00005D01*
X-01576Y00064D02*
X-0149Y00061D01*
X-02161Y00021D02*
X-02128Y00029D01*
X-0221Y00005D02*
X-02161Y00021D01*
X-02128Y00029D02*
X-02095Y00036D01*
X-02489Y-00206D02*
X-02466Y-00171D01*
X-02095Y00036D02*
X-02029Y00048D01*
X-02466Y-00171D02*
X-02443Y-00142D01*
X-02414Y-00112*
X-01955Y00056D02*
X-01873Y00062D01*
X-02029Y00048D02*
X-01955Y00056D01*
X-02414Y-00112D02*
X-02383Y-00085D01*
X-01873Y00062D02*
X-01814Y00064D01*
X-02383Y-00085D02*
X-02362Y-00069D01*
X-01814Y00064D02*
X-01756Y00065D01*
X-0234Y-00055D02*
X-02302Y-00033D01*
X-02362Y-00069D02*
X-0234Y-00055D01*
X-02302Y-00033D02*
X-02259Y-00013D01*
X-00985Y0003D02*
X-00897Y00117D01*
X-01004Y0003D02*
X-00985D01*
X-01013Y00039D02*
X-01004Y0003D01*
X-01195Y00155D02*
X-01164Y00186D01*
X-01195Y00095D02*
Y00155D01*
Y00095D02*
X-01175Y00075D01*
X-01164Y00186D02*
X-01042D01*
X-02442Y00047D02*
X-02335Y00155D01*
X-02492Y00047D02*
X-02442D01*
X-02392Y00147D02*
Y00247D01*
X-02337Y00296D02*
X-02179Y00298D01*
X-02337Y00296D02*
X-02337D01*
X-02367Y00297D02*
X-02337D01*
X-02437Y00227D02*
X-02367Y00297D01*
X-02437Y00192D02*
Y00227D01*
X-00448Y-00978D02*
X-00405Y-00935D01*
X-00448Y-01001D02*
Y-00978D01*
X-00502Y-01055D02*
X-00448Y-01001D01*
X0252Y-0001D02*
X02525Y-00005D01*
X0256Y00012D02*
X02565Y00007D01*
X0257Y00022D02*
Y00042D01*
X0256Y00012D02*
X0257Y00022D01*
X02545Y-00075D02*
X02558D01*
X0252Y-0005D02*
X02545Y-00075D01*
X0252Y-0005D02*
Y-0001D01*
X-0014Y-00615D02*
X-00128Y-00603D01*
X-00405Y-00935D02*
X-003Y-0074D01*
X-0029Y-0073*
X-0014Y-00615*
X02532Y00027D02*
Y00035D01*
X02507Y00002D02*
X02532Y00027D01*
X02507Y-00051D02*
Y00002D01*
X02542Y00003D02*
Y00014D01*
Y00003D02*
X02543Y00002D01*
Y-00025D02*
Y00002D01*
X0258Y00015D02*
Y00037D01*
Y00015D02*
X02583Y00012D01*
X02585Y-00085D02*
Y00001D01*
X02595Y-0011D02*
Y00005D01*
X02592Y00017D02*
X02593Y00016D01*
X02592Y00017D02*
Y00026D01*
X02595Y00029*
X02605Y00014D02*
Y00034D01*
Y-00114D02*
Y00009D01*
X02595Y00029D02*
Y00038D01*
X0256Y00032D02*
Y00046D01*
X02542Y00014D02*
X0256Y00032D01*
X02507Y-00051D02*
X0253Y-00074D01*
Y-002D02*
Y-00074D01*
Y-002D02*
X02545Y-00215D01*
X02555*
X02558Y-00217*
X00143Y-00579D02*
Y-0052D01*
Y-00638D02*
Y-00579D01*
X00152Y-00488D02*
X00165Y-00501D01*
X00151Y-00488D02*
X00152D01*
X00143Y-0048D02*
X00151Y-00488D01*
X02606Y-00455D02*
X0262D01*
X02573Y-00422D02*
X02606Y-00455D01*
X02684Y-00083D02*
X02701D01*
X0272Y-00065*
X02575Y-00144D02*
X02605Y-00114D01*
X0256Y-00144D02*
X02575D01*
X02558Y-00146D02*
X0256Y-00144D01*
X02517Y-00252D02*
Y-00203D01*
Y-00252D02*
X02585Y-00415D01*
X02504Y-0019D02*
X02517Y-00203D01*
X02585Y-00415D02*
X026D01*
X0263Y-00445*
X0264*
X02505Y-00254D02*
X02573Y-00422D01*
X02505Y-0022D02*
X02505Y-00254D01*
X0249Y-00245D02*
X02555Y-00415D01*
Y-00469D02*
Y-00415D01*
Y-00469D02*
X02575Y-0049D01*
Y-00496D02*
Y-0049D01*
Y-00496D02*
X02584Y-00504D01*
X0259*
X-00125Y-00635D02*
X-00078Y-00588D01*
X02582Y-00122D02*
X02595Y-0011D01*
X02573Y-00097D02*
X02585Y-00085D01*
X02565Y-00051D02*
X02567Y-00049D01*
X02558Y-00051D02*
X02565D01*
X0256Y-00097D02*
X02573D01*
X02558Y-00099D02*
X0256Y-00097D01*
X02558Y-00122D02*
X02582D01*
X-02585Y-00084D02*
X-02569Y-00099D01*
X-02597Y-00095D02*
X-02578Y-00113D01*
X-02609Y-00107D02*
X-02569Y-00146D01*
X-026Y00109D02*
Y0019D01*
X-0263Y0022D02*
X-026Y0019D01*
X-02576Y00099D02*
Y00228D01*
X-02584Y00237D02*
X-02576Y00228D01*
X-02584Y00237D02*
Y0026D01*
X-02608Y00101D02*
X-026Y00109D01*
X-02596Y00096D02*
X-02588Y00104D01*
X-02584Y00091D02*
X-02576Y00099D01*
X-02588Y00104D02*
Y00223D01*
X-02609Y00245D02*
X-02588Y00223D01*
X-0272Y-00052D02*
Y00055D01*
Y-00052D02*
X-02694Y-00077D01*
X-02569Y-00146D02*
X-02562D01*
X-02575Y-00113D02*
X-02572Y-00116D01*
X-02578Y-00113D02*
X-02575D01*
X-01175Y00075D02*
X-0116D01*
X-00387Y-00957D02*
X-00284Y-00745D01*
X-0013Y-00623*
X-00265Y-0075D02*
X-00125Y-00635D01*
X-0037Y-0096D02*
X-00265Y-0075D01*
X-0037Y-01015D02*
Y-0096D01*
X-00428Y-01073D02*
X-0037Y-01015D01*
X-00434Y-01073D02*
X-00428D01*
X-00416Y-00986D02*
X-00387Y-00957D01*
X-00416Y-01005D02*
Y-00986D01*
X00345Y-01002D02*
Y-00975D01*
Y-01002D02*
X00346Y-01003D01*
Y-01017D02*
Y-01003D01*
Y-01017D02*
X00355Y-01026D01*
X00379Y-01085D02*
X00395Y-01069D01*
X00379Y-01093D02*
Y-01085D01*
X00395Y-01069D02*
Y-01D01*
X00332Y-00937D02*
X00395Y-01D01*
X00143Y-0048D02*
Y-0048D01*
X0032Y-0095D02*
X00345Y-00975D01*
X0032Y-0095D02*
Y-00815D01*
X00143Y-00638D02*
X0032Y-00815D01*
X-00684Y00159D02*
X-00554Y00117D01*
X-00916Y00223D02*
X-0081Y00196D01*
X-013Y00287D02*
X-01201Y00277D01*
X-01518Y00299D02*
X-01403Y00295D01*
X-01944Y00299D02*
X-01671Y003D01*
X-00328Y0004D02*
X-00169Y-00009D01*
X-01201Y00277D02*
X-01103Y00262D01*
X-01012Y00245D02*
X-00916Y00223D01*
X-02179Y00298D02*
X-01944Y00299D01*
X-01671Y003D02*
X-01518Y00299D01*
X-01403Y00295D02*
X-013Y00287D01*
X-01103Y00262D02*
X-01012Y00245D01*
X-0081Y00196D02*
X-00684Y00159D01*
X-00554Y00117D02*
X-00328Y0004D01*
X0249Y-00245D02*
X0249Y-00244D01*
Y-00219*
X02467Y-00184D02*
X0249Y-00219D01*
X02444Y-00155D02*
X02467Y-00184D01*
X02416Y-00125D02*
X02444Y-00155D01*
X02384Y-00098D02*
X02416Y-00125D01*
X02363Y-00082D02*
X02384Y-00098D01*
X02341Y-00068D02*
X02363Y-00082D01*
X02303Y-00046D02*
X02341Y-00068D01*
X02261Y-00026D02*
X02303Y-00046D01*
X02212Y-00007D02*
X02261Y-00026D01*
X02162Y00007D02*
X02212Y-00007D01*
X02129Y00016D02*
X02162Y00007D01*
X02096Y00023D02*
X02129Y00016D01*
X0203Y00034D02*
X02096Y00023D01*
X01957Y00043D02*
X0203Y00034D01*
X01874Y00049D02*
X01957Y00043D01*
X01816Y00051D02*
X01874Y00049D01*
X01757Y00052D02*
X01816Y00051D01*
X01663Y00052D02*
X01757Y00052D01*
X01577Y00051D02*
X01663Y00052D01*
X01492Y00048D02*
X01577Y00051D01*
X01463Y00048D02*
X01492D01*
X01463Y00048D02*
X01463Y00048D01*
X01453Y00048D02*
X01463D01*
X0145Y00045D02*
X01453Y00048D01*
X0144Y00045D02*
X0145D01*
X01437Y0006D02*
X01487D01*
X01432Y00055D02*
X01437Y0006D01*
X02495Y-00204D02*
X02505Y-0022D01*
X01417Y00065D02*
X01429Y00077D01*
X01331Y00059D02*
X01417Y00065D01*
X01429Y00077D02*
X01505D01*
X01494Y0006D02*
X01497Y00063D01*
X01487Y0006D02*
X01494Y0006D01*
X01346Y00049D02*
X01432Y00055D01*
X00382Y-00291D02*
X00396Y-00266D01*
X00715Y-00078D02*
X00807Y-00048D01*
X00672Y-00094D02*
X00715Y-00078D01*
X00567Y-00138D02*
X00628Y-00111D01*
X00672Y-00094*
X00517Y-00163D02*
X00567Y-00138D01*
X0118Y0004D02*
X01255Y00051D01*
X01331Y00059*
X0048Y-00185D02*
X00517Y-00163D01*
X01084Y00022D02*
X0118Y0004D01*
X00435Y-0022D02*
X00457Y-00202D01*
X0048Y-00185*
X00992Y00001D02*
X01084Y00022D01*
X00414Y-00242D02*
X00435Y-0022D01*
X00807Y-00048D02*
X00901Y-00021D01*
X00992Y00001*
X00396Y-00266D02*
X00414Y-00242D01*
X00397Y-00301D02*
X00411Y-00276D01*
X0073Y-00088D02*
X00822Y-00058D01*
X00687Y-00104D02*
X0073Y-00088D01*
X00582Y-00148D02*
X00643Y-00121D01*
X00687Y-00104*
X00532Y-00173D02*
X00582Y-00148D01*
X01195Y0003D02*
X0127Y00041D01*
X01346Y00049*
X00495Y-00195D02*
X00532Y-00173D01*
X01099Y00012D02*
X01195Y0003D01*
X0045Y-0023D02*
X00472Y-00212D01*
X00495Y-00195*
X01007Y-00008D02*
X01099Y00012D01*
X00429Y-00252D02*
X0045Y-0023D01*
X00822Y-00058D02*
X00916Y-00031D01*
X01007Y-00008*
X00411Y-00276D02*
X00429Y-00252D01*
X00406Y-00313D02*
X0042Y-00289D01*
X00739Y-00101D02*
X00831Y-00071D01*
X00695Y-00117D02*
X00739Y-00101D01*
X00591Y-0016D02*
X00652Y-00134D01*
X00695Y-00117*
X01355Y00036D02*
X0144Y00042D01*
X0054Y-00186D02*
X00591Y-0016D01*
X01203Y00017D02*
X01279Y00028D01*
X01355Y00036*
X00504Y-00208D02*
X0054Y-00186D01*
X01108Y0D02*
X01203Y00017D01*
X00459Y-00243D02*
X00481Y-00224D01*
X00504Y-00208*
X01016Y-00021D02*
X01108Y0D01*
X00438Y-00265D02*
X00459Y-00243D01*
X00831Y-00071D02*
X00924Y-00044D01*
X01016Y-00021*
X0042Y-00289D02*
X00438Y-00265D01*
X01591Y00081D02*
X01677Y00081D01*
X01771Y00082*
X02226Y00021D02*
X02274Y00003D01*
X01505Y00077D02*
X01591Y00081D01*
X02143Y00045D02*
X02176Y00037D01*
X02226Y00021*
X0211Y00052D02*
X02143Y00045D01*
X02481Y-00155D02*
X02504Y-0019D01*
X02044Y00064D02*
X0211Y00052D01*
X02458Y-00126D02*
X02481Y-00155D01*
X0243Y-00096D02*
X02458Y-00126D01*
X01888Y00078D02*
X0197Y00073D01*
X02044Y00064*
X02398Y-00068D02*
X0243Y-00096D01*
X0183Y00081D02*
X01888Y00078D01*
X02377Y-00053D02*
X02398Y-00068D01*
X01771Y00082D02*
X0183Y00081D01*
X02317Y-00017D02*
X02355Y-00038D01*
X02377Y-00053*
X02274Y00003D02*
X02317Y-00017D01*
X01582Y00066D02*
X01668Y00067D01*
X01762Y00067*
X02217Y00007D02*
X02266Y-00011D01*
X01497Y00063D02*
X01582Y00066D01*
X02134Y00031D02*
X02167Y00022D01*
X02217Y00007*
X02101Y00038D02*
X02134Y00031D01*
X02472Y-00169D02*
X02495Y-00204D01*
X02035Y00049D02*
X02101Y00038D01*
X02449Y-0014D02*
X02472Y-00169D01*
X02421Y-0011D02*
X02449Y-0014D01*
X01879Y00064D02*
X01962Y00058D01*
X02035Y00049*
X02389Y-00083D02*
X02421Y-0011D01*
X01821Y00066D02*
X01879Y00064D01*
X02368Y-00067D02*
X02389Y-00083D01*
X01762Y00067D02*
X01821Y00066D01*
X02308Y-00031D02*
X02346Y-00053D01*
X02368Y-00067*
X02266Y-00011D02*
X02308Y-00031D01*
X-02572Y-0012D02*
Y-00116D01*
Y-0012D02*
X-02569Y-00122D01*
X-02562*
X-02569Y-00099D02*
X-02562D01*
X02684Y-00085D02*
Y-00083D01*
X02681Y-00087D02*
X02684Y-00085D01*
X02671Y-00087D02*
X02681D01*
X-02694Y-00077D02*
X-02691D01*
X-02688Y-00081*
Y-00085D02*
Y-00081D01*
Y-00085D02*
X-02686Y-00087D01*
X-02675*
G54D21*
X0264Y00121D02*
X02648Y00113D01*
Y00095D02*
Y00113D01*
Y00095D02*
X0265Y00093D01*
Y00063D02*
Y00093D01*
X0264Y00054D02*
X0265Y00063D01*
X0264Y00121D02*
Y00175D01*
Y00051D02*
Y00054D01*
X02624Y00192D02*
X0264Y00175D01*
X-02685Y-00041D02*
Y-00031D01*
X-02649Y00253D02*
Y00265D01*
X-02651Y00211D02*
Y00251D01*
X-02649Y00253*
X-02651Y00211D02*
X-02638Y00199D01*
X-02637*
Y00187D02*
Y00199D01*
X-02641Y00183D02*
X-02637Y00187D01*
X-02641Y00166D02*
Y00183D01*
Y00166D02*
X-02637Y00162D01*
Y0013D02*
Y00162D01*
X02618Y00029D02*
X0264Y00051D01*
X-02624Y-00119D02*
Y00094D01*
X02618Y-00132D02*
Y00029D01*
X0258Y-0017D02*
X02618Y-00132D01*
X00105Y-0055D02*
Y-00521D01*
X00106Y-0052*
X02555Y-00287D02*
Y-00265D01*
X02555Y-00264*
X02558*
X02555Y-00287D02*
X02555Y-00288D01*
X02558*
X0258Y-00264D02*
X0259Y-00255D01*
X02558Y-00264D02*
X0258D01*
X02558Y-00193D02*
Y-0017D01*
X0258*
X-02624Y-00119D02*
X-0258Y-00163D01*
X-02623Y00094D02*
Y00107D01*
X-02624Y00094D02*
X-02623Y00094D01*
X-02641Y00102D02*
Y00126D01*
X-0267Y00072D02*
X-02641Y00102D01*
X-02657Y0006D02*
X-02655D01*
X-02623Y00107D02*
X-02619Y00111D01*
X-0267Y00072D02*
X-02657Y0006D01*
X-02585Y-00264D02*
X-02562D01*
X-02595Y-00255D02*
X-02585Y-00264D01*
X-02595Y-00255D02*
Y-0019D01*
X-02641Y00126D02*
X-02637Y0013D01*
X-02619Y00111D02*
Y00162D01*
X-0262Y00163D02*
Y00175D01*
X-02555Y0013D02*
X-02537Y00112D01*
X-02562Y-00288D02*
Y-00264D01*
Y-00193D02*
Y-0017D01*
X-027Y00043D02*
X-0267Y00072D01*
X-02537Y00092D02*
Y00112D01*
X-0262Y00163D02*
X-02619Y00162D01*
X-0258Y-00163D02*
X-02574D01*
X-02568Y-0017*
X-02562*
X-027Y-00015D02*
Y00043D01*
Y-00015D02*
X-02691Y-00023D01*
Y-00025D02*
Y-00023D01*
Y-00025D02*
X-02685Y-00031D01*
G54D22*
X-00118Y-00018D02*
X-00117Y-00017D01*
Y-00013*
G54D24*
X02711Y-00547D03*
Y00172D03*
X-02711D03*
Y-00547D03*
G54D25*
X00261Y-00622D03*
X-0026D03*
G54D26*
X-00416Y-01005D03*
X-00434Y-01073D03*
X-00502Y-01055D03*
X-00484Y-00986D03*
G54D27*
X0051Y-0097D03*
X00355Y-01026D03*
X00534Y-01036D03*
X00379Y-01093D03*
G54D28*
X-0246Y00006D03*
X-02704Y00076D03*
X-00234Y-00178D03*
X02568Y00138D03*
X00212Y-00184D03*
X00216Y-00154D03*
X02565Y00005D03*
X00234Y-00498D03*
X02725Y-00095D03*
X-00234Y-00242D03*
X00144Y-00367D03*
X00161Y-00386D03*
X0019Y-00344D03*
X00111Y-0035D03*
X0013Y-00304D03*
Y-00278D03*
X0011Y-0026D03*
X0012Y-0038D03*
X02624Y00192D03*
X0261Y00245D03*
X0264Y0024D03*
X02585Y0026D03*
X02726Y00028D03*
X0295Y-0017D03*
X0289Y-0005D03*
X0283Y-0017D03*
X0289Y-0029D03*
X0283Y-0041D03*
X0289Y-0053D03*
X0283Y-0065D03*
X0277Y-0029D03*
X0271Y-0065D03*
X0259D03*
X0037Y-0077D03*
X-00229Y-0053D03*
X-00349D03*
Y-0077D03*
X-00409Y-0089D03*
Y-0113D03*
X-00529D03*
X-02569Y-0065D03*
X-02629Y-0029D03*
X-02689Y-0065D03*
X-02809Y0007D03*
X-02749Y-0005D03*
X-02809Y-0017D03*
Y-0065D03*
X-02869Y0019D03*
X-02929Y0007D03*
X-02869Y-0005D03*
X-02929Y-0017D03*
Y-0065D03*
X00096Y-00194D03*
X-00036Y-0019D03*
X00072Y-0021D03*
X-0256Y-00008D03*
X00032Y-00352D03*
X-00034Y-00286D03*
Y-00352D03*
X00032Y-00286D03*
X-001Y-0054D03*
X-00072Y-00528D03*
X-00128Y-00534D03*
X0011Y-00324D03*
X00187Y-0039D03*
X00338Y-00154D03*
X0031Y-00156D03*
X0028Y-00158D03*
X0024Y-00141D03*
X00273Y-0013D03*
X00078Y-00244D03*
X00068Y-00516D03*
X-00128Y-00248D03*
X-00117Y-00013D03*
X-00202Y-0013D03*
X00004Y-00562D03*
X00306Y-00484D03*
X-00106Y-0042D03*
X-00108Y-0046D03*
X-00168Y-00362D03*
X-00194Y-0039D03*
X-00178Y-00326D03*
X-00218Y-0034D03*
X-01175Y00135D03*
X02525Y-00005D03*
X-00053Y-00066D03*
X-00026Y-00049D03*
X02485Y0D03*
X02655Y0003D03*
X02685Y00025D03*
X00179Y-00072D03*
X027Y-0006D03*
X00074Y-00021D03*
X00105Y-0055D03*
X0267Y00265D03*
X0259Y-00255D03*
X-02655Y0006D03*
X-02635Y-0015D03*
X-0262Y00175D03*
X-02555Y0013D03*
X-02609Y00245D03*
X-0263Y0022D03*
X-02584Y0026D03*
X-02649Y00265D03*
G54D29*
X02389Y0015D03*
X02434Y00195D03*
X02495Y00044D03*
X0254Y00089D03*
G54D30*
X0101Y00038D03*
X00993Y00099D03*
X01154Y00077D03*
X01138Y00138D03*
G54D31*
X-00993Y00099D03*
X-0101Y00038D03*
X-01138Y00138D03*
X-01154Y00077D03*
G54D32*
X-02434Y00195D03*
X-02389Y0015D03*
X-0254Y00089D03*
X-02495Y00044D03*
G54D33*
X-0024Y-00378D03*
X-00303D03*
X-0024Y-00228D03*
X-00303D03*
X00303Y-00378D03*
X0024D03*
X00303Y-00228D03*
X0024D03*
G54D34*
X02671Y-0004D03*
Y-00063D03*
Y-00087D03*
Y-0011D03*
Y-00134D03*
Y-00158D03*
Y-00181D03*
Y-00205D03*
Y-00229D03*
Y-00252D03*
Y-00276D03*
Y-00299D03*
X-02675D03*
Y-00276D03*
Y-00252D03*
Y-00229D03*
Y-00205D03*
Y-00181D03*
Y-00158D03*
Y-00134D03*
Y-0011D03*
Y-00087D03*
Y-00063D03*
Y-0004D03*
G54D35*
X02558Y-00051D03*
Y-00075D03*
Y-00099D03*
Y-00122D03*
Y-00146D03*
Y-0017D03*
Y-00193D03*
Y-00217D03*
Y-0024D03*
Y-00264D03*
Y-00288D03*
X-02562D03*
Y-00264D03*
Y-0024D03*
Y-00217D03*
Y-00193D03*
Y-0017D03*
Y-00146D03*
Y-00122D03*
Y-00099D03*
Y-00075D03*
Y-00051D03*
G54D36*
X02658Y-00012D03*
Y-00327D03*
X-02662D03*
Y-00012D03*
G54D37*
X0259Y-00615D03*
Y-00504D03*
X-02589Y-00615D03*
Y-00504D03*
G54D38*
X02603Y-00577D03*
Y-00542D03*
X-02602Y-00577D03*
Y-00542D03*
G54D39*
X00143Y-0048D03*
X00105D03*
X00143Y-0052D03*
X00106D03*
G54D40*
X-0011Y-00139D03*
Y-00176D03*
X-00071Y-00141D03*
Y-00178D03*
X00068Y-00103D03*
Y-0014D03*
G54D41*
X00028Y-00102D03*
Y-00145D03*
G54D42*
X0Y-0032D03*
G54D43*
X00055Y-00235D03*
X00039D03*
X00023D03*
X00007D03*
X-00007D03*
X-00023D03*
X-00039D03*
X-00055D03*
Y-00404D03*
X-00039D03*
X-00023D03*
X-00007D03*
X00007D03*
X00023D03*
X00039D03*
X00055D03*
G54D44*
X-00084Y-00264D03*
Y-0028D03*
Y-00296D03*
Y-00312D03*
Y-00327D03*
Y-00343D03*
Y-00359D03*
Y-00375D03*
X00084D03*
Y-00359D03*
Y-00343D03*
Y-00327D03*
Y-00312D03*
Y-00296D03*
Y-0028D03*
Y-00264D03*
M02*