%FSTAX23Y23*%
%MOIN*%
%SFA1B1*%

%IPPOS*%
%AMD27*
4,1,8,0.021000,-0.005900,0.012300,0.018000,0.000900,0.023300,-0.015700,0.017300,-0.021000,0.005900,-0.012300,-0.018000,-0.000900,-0.023300,0.015700,-0.017300,0.021000,-0.005900,0.0*
1,1,0.017800,0.012600,-0.008900*
1,1,0.017800,0.003900,0.014900*
1,1,0.017800,-0.012600,0.008900*
1,1,0.017800,-0.003900,-0.014900*
%
%ADD11C,0.010000*%
%ADD12R,0.068900X0.070900*%
%ADD19C,0.008000*%
%ADD20C,0.006000*%
%ADD21C,0.012000*%
%ADD22C,0.016000*%
%ADD23C,0.014000*%
%ADD24C,0.063000*%
%ADD25C,0.094500*%
%ADD26C,0.047200*%
G04~CAMADD=27~8~0.0~0.0~433.0~354.0~89.0~0.0~15~0.0~0.0~0.0~0.0~0~0.0~0.0~0.0~0.0~0~0.0~0.0~0.0~290.0~432.0~477.0*
%ADD27D27*%
%ADD28C,0.022000*%
%LNglasses_full_v1_small_revised-1*%
%LPD*%
G36*
X02946Y00294D02*
X02957Y00294D01*
X02968Y00292*
X02978Y00289*
X02987Y00284*
X02993Y0028*
X02997Y00277*
X03001Y00273*
X0301Y00262*
X03018Y00248*
X03024Y00231*
X03025Y00222*
X03025Y00221*
X03025Y00221*
X03025Y00221*
X03025Y00216*
X03015Y-00136*
Y-00136*
X03014Y-00138*
X03015Y-00136*
X03014Y-00141*
X03014Y-00146*
Y-00146*
X03007Y-00363*
X03007Y-00368*
X03007Y-00373*
X03Y-0059*
X03Y-0059*
X02999Y-00595*
X02999Y-006*
X02999Y-00603*
Y-00604*
X02998Y-00608*
X02996Y-00613*
X02996Y-00615*
X02994Y-0062*
X02993Y-00622*
X02991Y-00625*
X02988Y-00631*
X02987Y-00631*
X02987Y-00632*
X02984Y-00636*
X02984Y-00636*
X02983Y-00636*
X02983Y-00637*
X02983Y-00637*
X02982Y-00638*
X02979Y-00641*
X02979Y-00641*
X02978Y-00642*
X02975Y-00645*
X0297Y-0065*
X0297Y-0065*
X02966Y-00653*
X02962Y-00656*
X02955Y-0066*
X02953Y-00661*
X0295Y-00662*
X02946Y-00664*
X02936Y-00669*
X02935Y-0067*
X02935Y-0067*
X02934Y-0067*
X02895Y-00673*
X02894Y-00673*
X02894*
X02853Y-0068*
X02852Y-00681*
X02852*
X02812Y-00693*
X02812Y-00693*
X02811Y-00693*
X02806Y-00695*
X02552*
X02549Y-00692*
X0255Y-00679*
Y-00679*
Y-00678*
X02553Y-00602*
X02553Y-00601*
X02553Y-00601*
Y-00569*
Y-00569*
Y-00569*
X02552Y-00537*
X02552Y-00536*
Y-00536*
X02547Y-00485*
X02547Y-00485*
Y-00484*
X02543Y-00457*
X02543Y-00456*
Y-00456*
X02538Y-00429*
Y-00428*
X02538Y-00428*
X02527Y-00384*
X02527Y-00384*
Y-00384*
X02517Y-00349*
X02517Y-00349*
Y-00348*
X02505Y-00313*
X02505Y-00313*
X02505Y-00313*
X02487Y-00272*
X02487Y-00271*
X02487Y-00271*
X02467Y-00233*
X02467Y-00233*
X02466Y-00232*
X02444Y-00197*
X02443Y-00197*
X02443Y-00197*
X0242Y-00167*
X0242Y-00167*
X0242Y-00167*
X02391Y-00137*
X02391Y-00137*
X02391Y-00136*
X02359Y-00109*
X02359Y-00109*
X02359Y-00109*
X02338Y-00093*
X02338*
X02337Y-00093*
X02316Y-00078*
X02315Y-00078*
X02315Y-00078*
X02277Y-00056*
X02277Y-00056*
X02276Y-00056*
X02234Y-00036*
X02233Y-00036*
X02233Y-00036*
X02184Y-00017*
X02184*
X02184Y-00017*
X02134Y-00001*
X02134*
X02134Y-00001*
X02101Y00006*
X021*
X021*
X02067Y00014*
X02067*
X02067*
X02001Y00025*
X02001*
X02001Y00025*
X01927Y00034*
X01927*
X01927*
X01844Y0004*
X01844*
X01844*
X01786Y00042*
X01786*
X01786*
X01727Y00043*
X01727*
X01633Y00043*
X01547Y00042*
X01547*
X01547*
X01461Y00039*
X01461*
X01461*
X01375Y00033*
X01375*
X01375*
X01299Y00024*
X01299*
X01299*
X01223Y00013*
X01223Y00013*
X01223*
X01127Y-00004*
X01127Y-00004*
X01127*
X01035Y-00024*
X01035Y-00025*
X01034*
X00943Y-00048*
X00943Y-00048*
X00943*
X0085Y-00075*
X0085Y-00075*
X00849*
X00757Y-00105*
X00757*
X00757Y-00105*
X00713Y-00121*
X00713*
X00713Y-00121*
X0067Y-00138*
X0067*
X0067Y-00138*
X00609Y-00165*
X00608Y-00165*
X00608Y-00165*
X00557Y-00191*
X00557Y-00191*
X00557Y-00191*
X0052Y-00213*
X0052Y-00213*
X0052Y-00213*
X00497Y-0023*
X00497Y-0023*
X00496Y-0023*
X00475Y-00248*
X00474Y-00249*
X00474Y-00249*
X00453Y-00271*
X00453Y-00271*
X00452Y-00272*
X00434Y-00296*
X00434Y-00296*
X00434Y-00297*
X0042Y-00321*
X0042Y-00322*
X00419Y-00322*
X00408Y-00348*
X00408Y-00348*
X00408Y-00349*
X00396Y-00384*
X00396Y-00385*
X00395Y-00385*
X00385Y-00426*
Y-00426*
X00385Y-00426*
X00376Y-00468*
Y-00468*
X00376Y-00468*
X00368Y-00523*
X00368Y-00524*
X00368Y-00524*
X00365Y-00577*
X00365Y-00577*
X00365Y-00578*
X00365Y-00631*
X00365Y-00631*
X00365Y-00631*
X00369Y-00679*
X00369Y-00679*
Y-00679*
X00376Y-00727*
X00376Y-00727*
Y-00727*
X00379Y-00745*
X00375Y-00749*
X00375*
Y-0077*
Y-0079*
X00378Y-00789*
X00383Y-00786*
X00385Y-00786*
X00388Y-00788*
X00405Y-00852*
Y-00852*
X00405Y-00852*
X00406Y-00854*
X00407Y-00855*
X00407*
Y-00855*
X00424Y-00877*
X00425Y-00877*
X00425Y-00878*
X00447Y-00895*
X00448Y-00895*
X00449Y-00896*
X00474Y-00908*
X00475Y-00908*
X00475Y-00908*
X00483Y-0091*
X00503Y-00919*
X0052Y-00931*
X00521Y-00932*
X00519Y-00936*
X00515Y-00935*
X00507Y-00936*
X00504Y-00938*
X00513Y-00963*
X00535Y-00955*
X00534Y-00953*
X00538Y-00951*
X00547Y-00963*
X00555Y-00982*
X00559Y-01003*
X00563Y-01036*
X00558Y-01037*
X0055Y-01017*
X00548Y-01012*
X00544Y-01009*
X00539Y-01008*
X00534Y-01009*
X00517Y-01015*
X00513Y-01017*
X0051Y-01022*
X00508Y-01027*
X00509Y-01032*
X00518Y-01056*
X00521Y-0106*
X00525Y-01063*
X0053Y-01064*
X00535Y-01064*
X00551Y-01057*
X00556Y-01055*
X00558Y-01052*
X00563Y-01054*
X00562Y-01073*
X00543Y-01173*
X0039*
X00383Y-01162*
X0038Y-01158*
X00379Y-01156*
X00378Y-01154*
X00375Y-0115*
X00372Y-01143*
X00372*
X0037Y-01139*
X00368Y-01134*
X00362Y-01121*
X00365Y-01117*
X00365*
X00369Y-0112*
X00374Y-01121*
X00379Y-0112*
X00396Y-01114*
X004Y-01111*
X00403Y-01107*
X00405Y-01102*
X00404Y-01097*
X00395Y-01073*
X00392Y-01069*
X00388Y-01066*
X00383Y-01065*
X00378Y-01065*
X00362Y-01071*
X00357Y-01074*
X00354Y-01078*
X00353Y-01083*
X00354Y-01088*
X00358Y-011*
X00354Y-01102*
X00316Y-01017*
X00314Y-01012*
X00313Y-01009*
X00312Y-01007*
X00305Y-00977*
X00305Y-00973*
X00304Y-00972*
X00304Y-00967*
X00298Y-00876*
X00298Y-00876*
Y-00875*
X00294Y-00851*
X00293Y-00851*
X00293Y-0085*
X00284Y-00827*
X00284Y-00827*
X00284Y-00826*
X00263Y-00791*
X00263Y-00791*
X00262Y-0079*
X00238Y-00757*
X00238Y-00757*
X00238Y-00756*
X0021Y-00726*
X0021Y-00725*
X0021Y-00725*
X0018Y-00697*
X00179Y-00697*
X00179Y-00697*
X00146Y-00672*
X00146Y-00672*
X00146Y-00671*
X00111Y-0065*
X0011Y-0065*
X0011Y-00649*
X00073Y-00631*
X00073Y-00631*
X00072Y-00631*
X00034Y-00617*
X00033Y-00616*
X00032Y-00616*
X00001Y-00613*
X0Y-00613*
X0Y-00613*
X-00031Y-00616*
X-00032Y-00616*
X-00034Y-00617*
X-00075Y-00632*
X-00075Y-00633*
X-00075Y-00633*
X-00115Y-00653*
X-00115Y-00653*
X-00116Y-00653*
X-00153Y-00677*
X-00153Y-00677*
X-00154Y-00678*
X-00188Y-00705*
X-00188Y-00706*
X-00189Y-00706*
X-0022Y-00737*
X-0022Y-00737*
X-00221Y-00738*
X-00249Y-00772*
X-00249Y-00772*
X-00249Y-00773*
X-00274Y-0081*
X-00274Y-0081*
X-00274Y-0081*
X-00294Y-0085*
X-00295Y-0085*
X-00295Y-0085*
X-00311Y-00892*
Y-00892*
X-00311Y-00892*
X-0034Y-00978*
X-00342Y-00982*
Y-00982*
X-00343Y-00987*
X-00387Y-01116*
X-00393Y-01116*
X-00394Y-01114*
X-00401Y-0111*
X-00404Y-01109*
Y-0113*
Y-01151*
X-00401Y-01154*
X-00408Y-01173*
X-00542*
X-00547Y-01149*
X-00542Y-01146*
X-00537Y-01149*
X-00534Y-0115*
Y-0113*
Y-01109*
X-00537Y-0111*
X-00544Y-01114*
X-00547Y-01119*
X-00553Y-01118*
X-00561Y-01073*
X-00562Y-01039*
X-00558Y-01003*
X-00554Y-00982*
X-00546Y-00963*
X-00534Y-00946*
X-00519Y-00931*
X-00502Y-00919*
X-00482Y-0091*
X-00474Y-00908*
X-00474Y-00908*
X-00473Y-00908*
X-00448Y-00896*
X-00447Y-00895*
X-00446Y-00895*
X-00435Y-00886*
X-0043Y-00888*
X-00431Y-0089*
X-00429Y-00898*
X-00424Y-00905*
X-00417Y-00909*
X-00414Y-0091*
Y-0089*
X-00409*
Y-00885*
X-00389*
X-00389Y-00881*
X-00394Y-00874*
X-00401Y-0087*
X-00409Y-00868*
X-0041Y-00868*
X-00413Y-00864*
X-00406Y-00855*
X-00406Y-00855*
X-00406*
X-00405Y-00854*
X-00405Y-00852*
Y-00852*
X-00404Y-00852*
X-00387Y-00787*
X-00387Y-00787*
Y-00787*
X-00375Y-00727*
Y-00727*
X-00375Y-00727*
X-00368Y-00679*
X-00368Y-00679*
X-00368Y-00679*
X-00364Y-00631*
Y-00631*
X-00364Y-00631*
X-00364Y-00578*
Y-00577*
Y-00577*
X-00366Y-0055*
X-00361Y-00547*
X-00357Y-00549*
X-00354Y-0055*
Y-0053*
Y-00509*
X-00357Y-0051*
X-00364Y-00514*
X-00369Y-00513*
X-00375Y-00468*
X-00375Y-00468*
Y-00468*
X-00384Y-00426*
X-00384Y-00426*
Y-00426*
X-00395Y-00385*
X-00395Y-00385*
Y-00384*
X-00407Y-00349*
X-00407Y-00348*
Y-00348*
X-00419Y-00322*
X-00419Y-00322*
X-00419Y-00321*
X-00433Y-00297*
X-00433Y-00296*
X-00433Y-00296*
X-00451Y-00272*
X-00452Y-00271*
X-00452Y-00271*
X-00473Y-00249*
X-00473Y-00249*
X-00474Y-00248*
X-00496Y-0023*
X-00496Y-0023*
X-00496Y-0023*
X-00519Y-00213*
X-00519Y-00213*
X-0052Y-00213*
X-00556Y-00191*
X-00556Y-00191*
X-00557Y-00191*
X-00607Y-00165*
X-00608Y-00165*
X-00608Y-00165*
X-00669Y-00138*
X-00669Y-00138*
X-00669*
X-00712Y-00121*
X-00713Y-00121*
X-00713*
X-00756Y-00105*
X-00756Y-00105*
X-00757*
X-00849Y-00075*
X-00849*
X-00849Y-00075*
X-00942Y-00048*
X-00942*
X-00942Y-00048*
X-01034Y-00025*
X-01034*
X-01034Y-00024*
X-01126Y-00004*
X-01126*
X-01126*
X-01222Y00013*
X-01222*
X-01222Y00013*
X-01298Y00024*
X-01298*
X-01298*
X-01374Y00033*
X-01374*
X-01374*
X-0146Y00039*
X-0146*
X-0146*
X-01546Y00042*
X-01546*
X-01546*
X-01632Y00043*
X-01632*
X-01726Y00043*
X-01726*
X-01726*
X-01785Y00042*
X-01785*
X-01785*
X-01843Y0004*
X-01844*
X-01844*
X-01926Y00034*
X-01926*
X-01926*
X-02Y00025*
X-02Y00025*
X-02*
X-02066Y00014*
X-02066*
X-02067*
X-021Y00006*
X-021*
X-021*
X-02133Y-00001*
X-02133Y-00001*
X-02133*
X-02183Y-00017*
X-02183Y-00017*
X-02184Y-00017*
X-02232Y-00036*
X-02233Y-00036*
X-02233Y-00036*
X-02276Y-00056*
X-02276Y-00056*
X-02276Y-00056*
X-02314Y-00078*
X-02314Y-00078*
X-02315Y-00078*
X-02337Y-00093*
X-02337Y-00093*
X-02337Y-00093*
X-02358Y-00109*
X-02358Y-00109*
X-02359Y-00109*
X-0239Y-00136*
X-0239Y-00137*
X-02391Y-00137*
X-02419Y-00167*
X-02419Y-00167*
X-02419Y-00167*
X-02443Y-00197*
X-02443Y-00197*
X-02443Y-00197*
X-02466Y-00232*
X-02466Y-00233*
X-02466Y-00233*
X-02486Y-00271*
X-02486Y-00271*
X-02487Y-00272*
X-02504Y-00313*
X-02504Y-00313*
X-02504Y-00313*
X-02516Y-00348*
X-02516Y-00349*
X-02516Y-00349*
X-02526Y-00384*
Y-00384*
Y-00384*
X-02537Y-00428*
Y-00428*
X-02537Y-00429*
X-02542Y-00456*
Y-00456*
Y-00457*
X-02547Y-00484*
Y-00485*
Y-00485*
X-02551Y-00536*
X-02551Y-00536*
X-02551Y-00537*
X-02552Y-00569*
Y-00569*
Y-00569*
Y-00601*
Y-00601*
Y-00602*
X-02551Y-00631*
X-02556Y-00633*
X-02561Y-0063*
X-02564Y-00629*
Y-0065*
Y-0067*
X-02561Y-00669*
X-02554Y-00665*
X-02549Y-00666*
X-02549Y-00678*
Y-00679*
Y-00679*
X-02548Y-0069*
X-02552Y-00693*
X-0281*
X-02811Y-00693*
X-02811Y-00693*
X-02811Y-00693*
X-02851Y-00681*
X-02852*
X-02852Y-0068*
X-02893Y-00673*
X-02893*
X-02894Y-00673*
X-02915Y-00671*
X-02916Y-00666*
X-02914Y-00665*
X-02909Y-00658*
X-02909Y-00655*
X-0295*
X-02949Y-00657*
X-0295Y-00658*
X-02953Y-00659*
X-02951Y-00659*
X-02955Y-0066*
X-02953Y-00659*
X-02956Y-00659*
X-02958Y-00657*
X-02961Y-00656*
X-02964Y-00654*
X-02965Y-00653*
X-02968Y-00651*
X-02971Y-00648*
X-02971Y-00648*
X-02972Y-00647*
X-02973Y-00646*
X-02974Y-00645*
X-02976Y-00644*
X-02978Y-00641*
X-02978Y-00641*
X-02982Y-00638*
X-02985Y-00634*
X-02985Y-00633*
X-02988Y-00629*
X-0299Y-00625*
X-02992Y-00622*
X-02994Y-00618*
X-02994Y-00617*
X-02996Y-00612*
X-02996Y-00611*
X-02997Y-00606*
X-02998Y-00606*
X-02999Y-00601*
X-02999Y-006*
Y-00595*
Y-00595*
X-02999Y-00591*
X-02999Y-0059*
X-03011Y-00237*
X-0301Y-00232*
Y-00232*
X-03011Y-00227*
X-03018Y-0001*
X-03017Y-00005*
X-03018Y0*
X-03025Y00216*
X-03025Y00217*
X-03024Y00221*
X-03024Y00226*
X-03024Y00233*
Y00233*
X-03023Y00238*
X-03022Y00243*
X-0302Y00248*
X-03019Y00251*
X-03018Y00254*
X-03016Y00258*
X-03014Y00263*
X-03014Y00264*
X-03012Y00267*
X-03011*
X-03011Y00268*
X-03009Y00271*
X-03006Y00274*
X-03003Y00278*
X-03003Y00278*
X-03002Y00279*
X-02998Y00282*
X-02994Y00284*
X-02981Y0029*
X-0297Y00294*
X-02961Y00294*
X-02954Y00294*
X-02862Y00301*
X-02726*
X-02704Y00299*
X-02683Y00294*
X-02669Y00288*
X-02659Y00282*
X-02659Y00276*
X-0266Y00275*
X-02663Y0027*
X-02664Y00265*
X-02663Y00259*
X-0266Y00254*
X-02655Y0025*
X-02649Y00249*
X-02643Y0025*
X-02638Y00254*
X-02636Y00257*
X-02625*
X-02622Y00252*
X-02623Y0025*
X-02624Y00245*
X-02623Y00239*
X-02626Y00234*
X-0263Y00235*
X-02635Y00234*
X-0264Y0023*
X-02644Y00225*
X-02645Y0022*
X-02644Y00214*
X-0264Y00209*
X-02637Y00206*
X-02636Y00202*
Y00201*
X-02639Y00199*
X-02644Y002*
Y002*
X-0265Y00213*
X-02659Y00223*
X-0267Y00232*
X-02683Y00239*
X-02696Y00243*
X-02711Y00245*
X-02725Y00243*
X-02738Y00239*
X-02751Y00232*
X-02762Y00223*
X-02771Y00213*
X-02777Y002*
X-02781Y00186*
X-02783Y00172*
X-02781Y00158*
X-02777Y00145*
X-02771Y00132*
X-02762Y00121*
X-02751Y00112*
X-02738Y00106*
X-02726Y00102*
X-02723Y00097*
X-02754Y00066*
X-02756Y00063*
X-02757Y0006*
Y-00023*
X-02756Y-00024*
X-02757Y-0003*
X-02764Y-00034*
X-02769Y-00041*
X-0277Y-00045*
X-02749*
Y-0005*
X-02744*
Y-0007*
X-02741Y-00069*
X-02734Y-00065*
X-02733Y-00065*
X-02649Y-00148*
X-0265Y-0015*
X-02649Y-00155*
X-02645Y-0016*
X-0264Y-00164*
X-02635Y-00165*
X-02629Y-00164*
X-02624Y-0016*
X-0262Y-00155*
X-02619Y-0015*
X-0262Y-00144*
X-02624Y-00139*
X-02629Y-00135*
X-02635Y-00134*
X-02636Y-00135*
X-0272Y-00051*
Y-00041*
X-02721Y-00038*
X-02723Y-00035*
X-02738Y-00019*
Y00056*
X-02723Y00071*
X-02718Y0007*
X-02714Y00065*
X-02709Y00061*
X-02704Y0006*
X-02698Y00061*
X-02693Y00065*
X-02689Y0007*
X-02688Y00076*
X-02687Y00077*
X-02664*
X-02663Y00072*
X-02665Y0007*
X-02669Y00065*
X-0267Y0006*
X-02669Y00054*
X-02665Y00049*
X-0266Y00045*
X-02655Y00044*
X-02649Y00045*
X-02644Y00049*
X-0264Y00054*
X-02639Y0006*
X-02639Y0006*
X-02625Y00074*
X-02616*
X-02612Y00075*
X-02609Y00077*
X-02573Y00113*
X-02569Y0011*
X-0257Y00108*
X-0257Y00107*
X-0257Y00106*
X-0257Y00105*
X-0257Y00105*
X-0257Y00104*
X-02569Y00103*
X-02569Y00102*
X-02569Y00102*
X-02568Y00101*
X-02568Y001*
X-02505Y00038*
X-02503Y00036*
X-025Y00035*
X-0242*
X-02419Y00034*
X-02418Y0003*
X-02435Y00014*
X-02447*
X-02449Y00016*
X-02454Y0002*
X-0246Y00021*
X-02465Y0002*
X-0247Y00016*
X-02474Y00011*
X-02475Y00006*
X-02474Y0*
X-0247Y-00004*
X-02465Y-00008*
X-0246Y-00009*
X-02454Y-00008*
X-02449Y-00004*
X-02447Y-00002*
X-02432*
X-02428Y-00001*
X-02426Y0*
X-02408Y00017*
X-02323*
X-0232Y00018*
X-02318Y0002*
X-02278Y0006*
X-02063Y00061*
X-02062Y00061*
X-0206Y00062*
X-0206*
X-02059Y00062*
X-02058Y00063*
X-01994Y00127*
X-01239*
X-01229Y00117*
X-01227Y00116*
X-01157Y00046*
X-01155Y00044*
X-01152Y00043*
X-01147*
X-01129Y00026*
X-01129Y00025*
X-01129Y00025*
X-01128Y00025*
X-01127Y00024*
X-01126Y00024*
X-01126Y00024*
X-01046Y00002*
X-01045*
X-01044Y00001*
X-01043Y00001*
X-01043*
X-01042Y00002*
X-0104Y00002*
X-01023Y00009*
X-00964Y-00002*
X-00861Y-00027*
X-0075Y-00058*
X-00625Y-00097*
X-00426Y-00163*
X-00306Y-00204*
X-00306*
X-00306*
X-00242Y-00223*
X-00242Y-00229*
X-00244Y-00231*
X-00248Y-00236*
X-00249Y-00242*
X-00248Y-00247*
X-00244Y-00252*
X-00239Y-00256*
X-00234Y-00257*
X-00228Y-00256*
X-00227Y-00255*
X-00226Y-00256*
X-0014*
X-00138Y-00258*
X-00133Y-00262*
X-00128Y-00263*
X-00122Y-00262*
X-00117Y-00258*
X-00113Y-00253*
X-00112Y-00248*
X-00113Y-00242*
X-00114Y-00241*
X-00111Y-00236*
X-00097*
X-00094Y-00236*
X-00091Y-00234*
X-00087Y-00229*
X-00087*
X-00085Y-00226*
X-00084Y-00223*
Y-00204*
X-00062Y-00181*
X-0006Y-00181*
X-00058Y-00185*
X-00015*
X-00016Y-00181*
X-0002Y-00174*
X-00027Y-0017*
X-00034Y-00168*
X-00034Y-00163*
X00058Y-00159*
X00059Y-00159*
X00059*
X00097Y-00151*
X00101Y-00154*
Y-00175*
X00097Y-00179*
X00096Y-00178*
X0009Y-00179*
X00089Y-0018*
X00088Y-0018*
X00086Y-00182*
X00085Y-00182*
X00085Y-00183*
X00083Y-00186*
X0008Y-0019*
X00077Y-00189*
Y-0021*
X00072*
Y-00215*
X00051*
X00052Y-00218*
X00056Y-00225*
X00063Y-00229*
X00063*
X00065Y-00235*
X00063Y-00238*
X00062Y-00244*
X00063Y-00249*
X00067Y-00254*
X00072Y-00258*
X00078Y-00259*
X00083Y-00258*
X00088Y-00254*
X00091Y-0025*
X00092Y-0025*
X00093Y-00252*
X00095Y-00255*
Y-00255*
X00094Y-0026*
X00095Y-00265*
X00099Y-0027*
X00104Y-00274*
X0011Y-00275*
X0011Y-00275*
X00114Y-00278*
X00115Y-00283*
X00118Y-00287*
X00118Y-00291*
X00118Y-00294*
X00115Y-00298*
X00114Y-00304*
X00114Y-00304*
X0011Y-00308*
X0011Y-00308*
X00104Y-00309*
X00099Y-00313*
X00095Y-00318*
X00094Y-00324*
X00095Y-00329*
X00098Y-00334*
X00099Y-00335*
Y-0034*
X00097Y-00344*
X00095Y-0035*
X00097Y-00355*
X001Y-0036*
X00105Y-00364*
X00106Y-00364*
X00108Y-00369*
X00105Y-00372*
X00047*
X00046Y-00367*
X00047Y-00367*
X00051Y-0036*
X00052Y-00357*
X00011*
X00012Y-0036*
X00016Y-00367*
X00023Y-00371*
X00025Y-00372*
X00026Y-00377*
X-00118Y-00522*
X-00122Y-00519*
X-00128Y-00518*
X-00133Y-00519*
X-00138Y-00523*
X-00142Y-00528*
X-00143Y-00534*
X-00142Y-00539*
X-00138Y-00544*
X-00133Y-00548*
X-00128Y-00549*
X-00122Y-00548*
X-00119Y-00546*
X-00115Y-00545*
X-00113Y-00547*
X-0011Y-0055*
X-00105Y-00554*
X-001Y-00555*
X-00094Y-00554*
X-00089Y-0055*
X-00085Y-00545*
X-00085Y-00543*
X-00079Y-0054*
X-00077Y-00542*
X-00072Y-00543*
X-00066Y-00542*
X-00061Y-00538*
X-00058Y-00535*
X0001*
X00012Y-00535*
X00015Y-00534*
X00017Y-00533*
X00152Y-00398*
X00156Y-00401*
X00159Y-00401*
X0016Y-00407*
X00067Y-005*
X00062Y-00501*
X00057Y-00505*
X00053Y-0051*
X00052Y-00516*
X00053Y-00521*
X00057Y-00526*
X00062Y-0053*
X00068Y-00531*
X00073Y-0053*
X00078Y-00526*
X00082Y-00521*
X00083Y-00516*
X00082Y-0051*
X0008Y-00507*
X00183Y-00404*
X00187Y-00405*
X00193Y-00404*
X00198Y-00407*
Y-00444*
X00108Y-00535*
X00105Y-00534*
X00099Y-00535*
X00094Y-00539*
X0009Y-00544*
X00089Y-0055*
X0009Y-00551*
X00086Y-00556*
X00018*
X00018Y-00556*
X00014Y-00551*
X00009Y-00547*
X00004Y-00546*
X-00001Y-00547*
X-00006Y-00551*
X-0001Y-00556*
X-00011Y-00562*
X-0001Y-00567*
X-00006Y-00572*
X-00001Y-00576*
X00004Y-00577*
X00009Y-00576*
X00014Y-00572*
X00015Y-00571*
X0009*
X00092Y-00573*
X00094Y-00574*
X00097Y-00575*
X00222*
X00224Y-00574*
X00227Y-00573*
X00301Y-00498*
X00306Y-00499*
X00311Y-00498*
X00316Y-00494*
X0032Y-00489*
X00321Y-00484*
X0032Y-00478*
X00316Y-00473*
X00311Y-00469*
X00306Y-00468*
X003Y-00469*
X00295Y-00473*
X00291Y-00478*
X0029Y-00484*
X00291Y-00488*
X00219Y-0056*
X00121*
X00119Y-00555*
X0012Y-0055*
X00119Y-00546*
X00212Y-00453*
X00214Y-00451*
X00215Y-00448*
Y-00382*
X00214Y-00379*
X00214Y-00378*
Y-00366*
X00218Y-00364*
X00237Y-00383*
X00239Y-00384*
X00242Y-00385*
X003*
X00302Y-00384*
X00305Y-00383*
X00349Y-00338*
X00354Y-00339*
X00354Y-0034*
Y-00373*
X00242Y-00485*
X00239Y-00483*
X00234Y-00482*
X00228Y-00483*
X00223Y-00487*
X00219Y-00492*
X00218Y-00498*
X00219Y-00503*
X00223Y-00508*
X00228Y-00512*
X00234Y-00513*
X00239Y-00512*
X00244Y-00508*
X00248Y-00503*
X00249Y-00499*
X00367Y-00381*
X00368Y-00378*
X00369Y-00376*
Y-0022*
X00372Y-00216*
X00374Y-00213*
X00375Y-00211*
Y-00195*
X00556Y-00134*
X00685Y-00092*
X00811Y-00055*
X00917Y-00027*
X01013Y-00006*
X01122Y00011*
X01123Y00011*
X01124Y00011*
X01124Y00012*
X01125Y00012*
X01126Y00013*
X01127Y00013*
X01217Y00103*
X02122*
X0217Y00056*
Y00054*
X0217Y00052*
X0217Y00051*
X0217Y00051*
X02171Y00049*
X02172Y00048*
X02173Y00047*
X02175Y00046*
X02175*
X02176Y00046*
X02178Y00046*
X02335Y00044*
X0246Y00025*
X0246*
X0246*
X02524Y00016*
X02526Y00011*
X02526Y0001*
X02525Y0001*
X02519Y00009*
X02514Y00005*
X0251Y0*
X02509Y-00005*
X0251Y-00006*
X02505Y-00008*
X02499Y-00003*
X025Y0*
X02499Y00005*
X02495Y0001*
X0249Y00014*
X02485Y00015*
X02479Y00014*
X02474Y0001*
X0247Y00005*
X02469Y0*
X0247Y-00005*
X02474Y-0001*
X02479Y-00014*
X02485Y-00015*
X02488Y-00014*
X02539Y-00065*
X02541Y-00067*
X02545Y-00068*
X02687*
X02689Y-0007*
X02694Y-00074*
X027Y-00075*
X02705Y-00074*
X0271Y-0007*
X02712Y-00067*
X02717Y-00069*
Y-00081*
X02714Y-00084*
X0271Y-00089*
X02709Y-00095*
X0271Y-001*
X02714Y-00105*
X02719Y-00109*
X02719Y-00109*
X02721Y-00114*
X02667Y-00168*
X02666*
X02662Y-00169*
X02659Y-00171*
X0259Y-00239*
X0259Y-00239*
X02584Y-0024*
X02579Y-00244*
X02575Y-00249*
X02574Y-00255*
X02575Y-0026*
X02579Y-00265*
X02584Y-00269*
X0259Y-0027*
X02595Y-00269*
X026Y-00265*
X02604Y-0026*
X02605Y-00255*
X02605Y-00254*
X0267Y-00188*
X02671*
X02675Y-00187*
X02678Y-00185*
X02757Y-00106*
X02759Y-00103*
X0276Y-00099*
Y00069*
X02759Y00073*
X02757Y00076*
X0275Y00083*
X02747Y00085*
X02743Y00086*
X02702*
X02689Y00099*
X02691Y00103*
X02697Y00102*
X02711Y001*
X02725Y00102*
X02739Y00106*
X02751Y00112*
X02762Y00121*
X02771Y00132*
X02778Y00145*
X02782Y00158*
X02784Y00172*
X02782Y00186*
X02778Y002*
X02771Y00213*
X02762Y00223*
X02751Y00232*
X02739Y00239*
X02725Y00243*
X02711Y00245*
X02697Y00243*
X02684Y00239*
X02671Y00232*
X0266Y00223*
X02652Y00214*
X02651Y00214*
X02646Y00216*
X02643Y0022*
X02643Y0022*
X02644Y00225*
X02645Y00225*
X0265Y00229*
X02654Y00234*
X02655Y0024*
X02654Y00245*
X0265Y0025*
X02649Y00251*
X0265Y00256*
X02657*
X02659Y00254*
X02664Y0025*
X0267Y00249*
X02675Y0025*
X0268Y00254*
X02684Y00259*
X02685Y00265*
X02684Y0027*
X0268Y00275*
X02675Y00279*
X0267Y0028*
X02664Y00279*
X02659Y00275*
X02657Y00273*
X02643*
X02639Y00277*
X02641Y00281*
X02649Y0028*
X02669Y00291*
X02689Y00298*
X02704Y003*
X02719Y00301*
X02855*
X02946Y00294*
G37*
%LNglasses_full_v1_small_revised-2*%
%LPC*%
G36*
X-02864Y0021D02*
Y00195D01*
X-02849*
X-02849Y00198*
X-02854Y00205*
X-02861Y00209*
X-02864Y0021*
G37*
G36*
X-02874D02*
X-02877Y00209D01*
X-02884Y00205*
X-02889Y00198*
X-0289Y00195*
X-02874*
Y0021*
G37*
G36*
X-02849Y00185D02*
X-02864D01*
Y00169*
X-02861Y0017*
X-02854Y00174*
X-02849Y00181*
X-02849Y00185*
G37*
G36*
X-02874D02*
X-0289D01*
X-02889Y00181*
X-02884Y00174*
X-02877Y0017*
X-02874Y00169*
Y00185*
G37*
G36*
X-02804Y0009D02*
Y00075D01*
X-02789*
X-02789Y00078*
X-02794Y00085*
X-02801Y00089*
X-02804Y0009*
G37*
G36*
X-02814D02*
X-02817Y00089D01*
X-02824Y00085*
X-02829Y00078*
X-0283Y00075*
X-02814*
Y0009*
G37*
G36*
X-02924D02*
Y00075D01*
X-02909*
X-02909Y00078*
X-02914Y00085*
X-02921Y00089*
X-02924Y0009*
G37*
G36*
X-02934D02*
X-02937Y00089D01*
X-02944Y00085*
X-02949Y00078*
X-0295Y00075*
X-02934*
Y0009*
G37*
G36*
X-02789Y00065D02*
X-02804D01*
Y00049*
X-02801Y0005*
X-02794Y00054*
X-02789Y00061*
X-02789Y00065*
G37*
G36*
X-02814D02*
X-0283D01*
X-02829Y00061*
X-02824Y00054*
X-02817Y0005*
X-02814Y00049*
Y00065*
G37*
G36*
X-02909D02*
X-02924D01*
Y00049*
X-02921Y0005*
X-02914Y00054*
X-02909Y00061*
X-02909Y00065*
G37*
G36*
X-02934D02*
X-0295D01*
X-02949Y00061*
X-02944Y00054*
X-02937Y0005*
X-02934Y00049*
Y00065*
G37*
G36*
X-02555Y00012D02*
Y-00003D01*
X-02539*
X-0254Y0*
X-02544Y00007*
X-02551Y00011*
X-02555Y00012*
G37*
G36*
X-02565D02*
X-02568Y00011D01*
X-02575Y00007*
X-02579Y0*
X-0258Y-00003*
X-02565*
Y00012*
G37*
G36*
X-02539Y-00013D02*
X-02555D01*
Y-00028*
X-02551Y-00027*
X-02544Y-00023*
X-0254Y-00016*
X-02539Y-00013*
G37*
G36*
X-02565D02*
X-0258D01*
X-02579Y-00016*
X-02575Y-00023*
X-02568Y-00027*
X-02565Y-00028*
Y-00013*
G37*
G36*
X02895Y-00029D02*
Y-00045D01*
X0291*
X0291Y-00041*
X02905Y-00034*
X02898Y-0003*
X02895Y-00029*
G37*
G36*
X02885D02*
X02882Y-0003D01*
X02875Y-00034*
X0287Y-00041*
X0287Y-00045*
X02885*
Y-00029*
G37*
G36*
X-02864D02*
Y-00045D01*
X-02849*
X-02849Y-00041*
X-02854Y-00034*
X-02861Y-0003*
X-02864Y-00029*
G37*
G36*
X-02874D02*
X-02877Y-0003D01*
X-02884Y-00034*
X-02889Y-00041*
X-0289Y-00045*
X-02874*
Y-00029*
G37*
G36*
X0291Y-00055D02*
X02895D01*
Y-0007*
X02898Y-00069*
X02905Y-00065*
X0291Y-00058*
X0291Y-00055*
G37*
G36*
X02885D02*
X0287D01*
X0287Y-00058*
X02875Y-00065*
X02882Y-00069*
X02885Y-0007*
Y-00055*
G37*
G36*
X-02754D02*
X-0277D01*
X-02769Y-00058*
X-02764Y-00065*
X-02757Y-00069*
X-02754Y-0007*
Y-00055*
G37*
G36*
X-02849D02*
X-02864D01*
Y-0007*
X-02861Y-00069*
X-02854Y-00065*
X-02849Y-00058*
X-02849Y-00055*
G37*
G36*
X-02874D02*
X-0289D01*
X-02889Y-00058*
X-02884Y-00065*
X-02877Y-00069*
X-02874Y-0007*
Y-00055*
G37*
G36*
X02955Y-00149D02*
Y-00165D01*
X0297*
X0297Y-00161*
X02965Y-00154*
X02958Y-0015*
X02955Y-00149*
G37*
G36*
X02945D02*
X02942Y-0015D01*
X02935Y-00154*
X0293Y-00161*
X0293Y-00165*
X02945*
Y-00149*
G37*
G36*
X02835D02*
Y-00165D01*
X0285*
X0285Y-00161*
X02845Y-00154*
X02838Y-0015*
X02835Y-00149*
G37*
G36*
X02825D02*
X02822Y-0015D01*
X02815Y-00154*
X0281Y-00161*
X0281Y-00165*
X02825*
Y-00149*
G37*
G36*
X-02804D02*
Y-00165D01*
X-02789*
X-02789Y-00161*
X-02794Y-00154*
X-02801Y-0015*
X-02804Y-00149*
G37*
G36*
X-02814D02*
X-02817Y-0015D01*
X-02824Y-00154*
X-02829Y-00161*
X-0283Y-00165*
X-02814*
Y-00149*
G37*
G36*
X-02924D02*
Y-00165D01*
X-02909*
X-02909Y-00161*
X-02914Y-00154*
X-02921Y-0015*
X-02924Y-00149*
G37*
G36*
X-02934D02*
X-02937Y-0015D01*
X-02944Y-00154*
X-02949Y-00161*
X-0295Y-00165*
X-02934*
Y-00149*
G37*
G36*
X0297Y-00175D02*
X02955D01*
Y-0019*
X02958Y-00189*
X02965Y-00185*
X0297Y-00178*
X0297Y-00175*
G37*
G36*
X02945D02*
X0293D01*
X0293Y-00178*
X02935Y-00185*
X02942Y-00189*
X02945Y-0019*
Y-00175*
G37*
G36*
X0285D02*
X02835D01*
Y-0019*
X02838Y-00189*
X02845Y-00185*
X0285Y-00178*
X0285Y-00175*
G37*
G36*
X02825D02*
X0281D01*
X0281Y-00178*
X02815Y-00185*
X02822Y-00189*
X02825Y-0019*
Y-00175*
G37*
G36*
X-02789D02*
X-02804D01*
Y-0019*
X-02801Y-00189*
X-02794Y-00185*
X-02789Y-00178*
X-02789Y-00175*
G37*
G36*
X-02814D02*
X-0283D01*
X-02829Y-00178*
X-02824Y-00185*
X-02817Y-00189*
X-02814Y-0019*
Y-00175*
G37*
G36*
X-02909D02*
X-02924D01*
Y-0019*
X-02921Y-00189*
X-02914Y-00185*
X-02909Y-00178*
X-02909Y-00175*
G37*
G36*
X-02934D02*
X-0295D01*
X-02949Y-00178*
X-02944Y-00185*
X-02937Y-00189*
X-02934Y-0019*
Y-00175*
G37*
G36*
X00067Y-00189D02*
X00063Y-0019D01*
X00056Y-00194*
X00052Y-00201*
X00051Y-00205*
X00067*
Y-00189*
G37*
G36*
X-00015Y-00195D02*
X-00031D01*
Y-0021*
X-00027Y-00209*
X-0002Y-00205*
X-00016Y-00198*
X-00015Y-00195*
G37*
G36*
X-00041D02*
X-00056D01*
X-00055Y-00198*
X-00051Y-00205*
X-00044Y-00209*
X-00041Y-0021*
Y-00195*
G37*
G36*
X00037Y-00265D02*
Y-00281D01*
X00052*
X00051Y-00277*
X00047Y-0027*
X0004Y-00266*
X00037Y-00265*
G37*
G36*
X00027D02*
X00023Y-00266D01*
X00016Y-0027*
X00012Y-00277*
X00011Y-00281*
X00027*
Y-00265*
G37*
G36*
X-00029D02*
Y-00281D01*
X-00013*
X-00014Y-00277*
X-00018Y-0027*
X-00025Y-00266*
X-00029Y-00265*
G37*
G36*
X-00039D02*
X-00042Y-00266D01*
X-00049Y-0027*
X-00053Y-00277*
X-00054Y-00281*
X-00039*
Y-00265*
G37*
G36*
X02895Y-00269D02*
Y-00285D01*
X0291*
X0291Y-00281*
X02905Y-00274*
X02898Y-0027*
X02895Y-00269*
G37*
G36*
X02885D02*
X02882Y-0027D01*
X02875Y-00274*
X0287Y-00281*
X0287Y-00285*
X02885*
Y-00269*
G37*
G36*
X02775D02*
Y-00285D01*
X0279*
X0279Y-00281*
X02785Y-00274*
X02778Y-0027*
X02775Y-00269*
G37*
G36*
X02765D02*
X02762Y-0027D01*
X02755Y-00274*
X0275Y-00281*
X0275Y-00285*
X02765*
Y-00269*
G37*
G36*
X-02624D02*
Y-00285D01*
X-02609*
X-02609Y-00281*
X-02614Y-00274*
X-02621Y-0027*
X-02624Y-00269*
G37*
G36*
X-02634D02*
X-02637Y-0027D01*
X-02644Y-00274*
X-02649Y-00281*
X-0265Y-00285*
X-02634*
Y-00269*
G37*
G36*
X00052Y-00291D02*
X00037D01*
Y-00306*
X0004Y-00305*
X00047Y-00301*
X00051Y-00294*
X00052Y-00291*
G37*
G36*
X00027D02*
X00011D01*
X00012Y-00294*
X00016Y-00301*
X00023Y-00305*
X00027Y-00306*
Y-00291*
G37*
G36*
X-00013D02*
X-00029D01*
Y-00306*
X-00025Y-00305*
X-00018Y-00301*
X-00014Y-00294*
X-00013Y-00291*
G37*
G36*
X-00039D02*
X-00054D01*
X-00053Y-00294*
X-00049Y-00301*
X-00042Y-00305*
X-00039Y-00306*
Y-00291*
G37*
G36*
X-02609Y-00295D02*
X-02624D01*
Y-0031*
X-02621Y-00309*
X-02614Y-00305*
X-02609Y-00298*
X-02609Y-00295*
G37*
G36*
X-02634D02*
X-0265D01*
X-02649Y-00298*
X-02644Y-00305*
X-02637Y-00309*
X-02634Y-0031*
Y-00295*
G37*
G36*
X0291D02*
X02895D01*
Y-0031*
X02898Y-00309*
X02905Y-00305*
X0291Y-00298*
X0291Y-00295*
G37*
G36*
X02885D02*
X0287D01*
X0287Y-00298*
X02875Y-00305*
X02882Y-00309*
X02885Y-0031*
Y-00295*
G37*
G36*
X0279D02*
X02775D01*
Y-0031*
X02778Y-00309*
X02785Y-00305*
X0279Y-00298*
X0279Y-00295*
G37*
G36*
X02765D02*
X0275D01*
X0275Y-00298*
X02755Y-00305*
X02762Y-00309*
X02765Y-0031*
Y-00295*
G37*
G36*
X-00271Y-00251D02*
X-00285Y-00253D01*
X-00297Y-00258*
X-00308Y-00266*
X-00316Y-00277*
X-00321Y-00289*
X-00323Y-00303*
X-00321Y-00316*
X-00316Y-00329*
X-00308Y-00339*
X-00297Y-00347*
X-00285Y-00353*
X-00271Y-00354*
X-00258Y-00353*
X-00246Y-00347*
X-00238Y-00341*
X-00232Y-00343*
X-00232Y-00345*
X-00228Y-0035*
X-00223Y-00354*
X-00218Y-00355*
X-00212Y-00354*
X-00207Y-0035*
X-00204Y-00346*
X-00202*
X-002Y-00345*
X-00197Y-00343*
X-0019Y-00336*
X-00188Y-00336*
X-00183Y-0034*
X-00178Y-00341*
X-00172Y-0034*
X-00167Y-00336*
X-00163Y-00331*
X-00162Y-00326*
X-00163Y-0032*
X-00167Y-00315*
X-00172Y-00311*
X-00178Y-0031*
X-00183Y-00311*
X-00188Y-00315*
X-00189Y-00315*
X-00191Y-00317*
X-00203Y-00329*
X-00207Y-00329*
X-00212Y-00325*
X-00218Y-00324*
X-0022Y-00325*
X-00223Y-0032*
X-00222Y-00316*
X-0022Y-00303*
X-00222Y-00289*
X-00227Y-00277*
X-00235Y-00266*
X-00246Y-00258*
X-00258Y-00253*
X-00271Y-00251*
G37*
G36*
X00037Y-00331D02*
Y-00347D01*
X00052*
X00051Y-00343*
X00047Y-00336*
X0004Y-00332*
X00037Y-00331*
G37*
G36*
X00027D02*
X00023Y-00332D01*
X00016Y-00336*
X00012Y-00343*
X00011Y-00347*
X00027*
Y-00331*
G37*
G36*
X-00029D02*
Y-00347D01*
X-00013*
X-00014Y-00343*
X-00018Y-00336*
X-00025Y-00332*
X-00029Y-00331*
G37*
G36*
X-00039D02*
X-00042Y-00332D01*
X-00049Y-00336*
X-00053Y-00343*
X-00054Y-00347*
X-00039*
Y-00331*
G37*
G36*
X-00013Y-00357D02*
X-00029D01*
Y-00372*
X-00025Y-00371*
X-00018Y-00367*
X-00014Y-0036*
X-00013Y-00357*
G37*
G36*
X-00039D02*
X-00054D01*
X-00053Y-0036*
X-00049Y-00367*
X-00042Y-00371*
X-00039Y-00372*
Y-00357*
G37*
G36*
X-00168Y-00346D02*
X-00173Y-00347D01*
X-00178Y-00351*
X-00182Y-00356*
X-00183Y-00362*
X-00182Y-00367*
Y-00368*
X-00189Y-00375*
X-00194Y-00374*
X-00199Y-00375*
X-00204Y-00379*
X-00208Y-00384*
X-00209Y-0039*
X-00208Y-00395*
X-00204Y-004*
X-00199Y-00404*
X-00194Y-00405*
X-00188Y-00404*
X-00183Y-004*
X-00179Y-00395*
X-00178Y-0039*
X-00179Y-00385*
X-0017Y-00376*
X-00168Y-00377*
X-00162Y-00376*
X-00157Y-00372*
X-00153Y-00367*
X-00152Y-00362*
X-00153Y-00356*
X-00157Y-00351*
X-00162Y-00347*
X-00168Y-00346*
G37*
G36*
X02835Y-00389D02*
Y-00405D01*
X0285*
X0285Y-00401*
X02845Y-00394*
X02838Y-0039*
X02835Y-00389*
G37*
G36*
X02825D02*
X02822Y-0039D01*
X02815Y-00394*
X0281Y-00401*
X0281Y-00405*
X02825*
Y-00389*
G37*
G36*
X0285Y-00415D02*
X02835D01*
Y-0043*
X02838Y-00429*
X02845Y-00425*
X0285Y-00418*
X0285Y-00415*
G37*
G36*
X02825D02*
X0281D01*
X0281Y-00418*
X02815Y-00425*
X02822Y-00429*
X02825Y-0043*
Y-00415*
G37*
G36*
X-00106Y-00404D02*
X-00111Y-00405D01*
X-00116Y-00409*
X-0012Y-00414*
X-00121Y-0042*
X-0012Y-00425*
X-00116Y-0043*
X-00111Y-00434*
X-00111Y-00434*
Y-00445*
X-00113Y-00445*
X-00118Y-00449*
X-00122Y-00454*
X-00123Y-0046*
X-00122Y-00465*
X-00118Y-0047*
X-00113Y-00474*
X-00108Y-00475*
X-00102Y-00474*
X-00097Y-0047*
X-00093Y-00465*
X-00092Y-0046*
X-00093Y-00454*
X-00097Y-00449*
X-00096Y-00448*
Y-00431*
X-00095Y-0043*
X-00091Y-00425*
X-0009Y-0042*
X-00091Y-00414*
X-00095Y-00409*
X-001Y-00405*
X-00106Y-00404*
G37*
G36*
X02895Y-00509D02*
Y-00525D01*
X0291*
X0291Y-00521*
X02905Y-00514*
X02898Y-0051*
X02895Y-00509*
G37*
G36*
X02885D02*
X02882Y-0051D01*
X02875Y-00514*
X0287Y-00521*
X0287Y-00525*
X02885*
Y-00509*
G37*
G36*
X-00224D02*
Y-00525D01*
X-00209*
X-00209Y-00521*
X-00214Y-00514*
X-00221Y-0051*
X-00224Y-00509*
G37*
G36*
X-00234D02*
X-00237Y-0051D01*
X-00244Y-00514*
X-00249Y-00521*
X-0025Y-00525*
X-00234*
Y-00509*
G37*
G36*
X-00344D02*
Y-00525D01*
X-00329*
X-00329Y-00521*
X-00334Y-00514*
X-00341Y-0051*
X-00344Y-00509*
G37*
G36*
X0291Y-00535D02*
X02895D01*
Y-0055*
X02898Y-00549*
X02905Y-00545*
X0291Y-00538*
X0291Y-00535*
G37*
G36*
X02885D02*
X0287D01*
X0287Y-00538*
X02875Y-00545*
X02882Y-00549*
X02885Y-0055*
Y-00535*
G37*
G36*
X-00209D02*
X-00224D01*
Y-0055*
X-00221Y-00549*
X-00214Y-00545*
X-00209Y-00538*
X-00209Y-00535*
G37*
G36*
X-00234D02*
X-0025D01*
X-00249Y-00538*
X-00244Y-00545*
X-00237Y-00549*
X-00234Y-0055*
Y-00535*
G37*
G36*
X-00329D02*
X-00344D01*
Y-0055*
X-00341Y-00549*
X-00334Y-00545*
X-00329Y-00538*
X-00329Y-00535*
G37*
G36*
X02711Y-00475D02*
X02697Y-00476D01*
X02684Y-0048*
X02671Y-00487*
X0266Y-00496*
X02651Y-00507*
X02645Y-00519*
X0264Y-00533*
X02639Y-00547*
X0264Y-00561*
X02645Y-00575*
X02651Y-00587*
X0266Y-00598*
X02671Y-00607*
X02684Y-00614*
X02697Y-00618*
X02711Y-00619*
X02725Y-00618*
X02739Y-00614*
X02751Y-00607*
X02762Y-00598*
X02771Y-00587*
X02778Y-00575*
X02782Y-00561*
X02784Y-00547*
X02782Y-00533*
X02778Y-00519*
X02771Y-00507*
X02762Y-00496*
X02751Y-00487*
X02739Y-0048*
X02725Y-00476*
X02711Y-00475*
G37*
G36*
X-02711D02*
X-02725Y-00476D01*
X-02738Y-0048*
X-02751Y-00487*
X-02762Y-00496*
X-02771Y-00507*
X-02777Y-00519*
X-02781Y-00533*
X-02783Y-00547*
X-02781Y-00561*
X-02777Y-00575*
X-02771Y-00587*
X-02762Y-00598*
X-02751Y-00607*
X-02738Y-00614*
X-02725Y-00618*
X-02711Y-00619*
X-02696Y-00618*
X-02683Y-00614*
X-0267Y-00607*
X-02659Y-00598*
X-0265Y-00587*
X-02644Y-00575*
X-0264Y-00561*
X-02638Y-00547*
X-0264Y-00533*
X-02644Y-00519*
X-0265Y-00507*
X-02659Y-00496*
X-0267Y-00487*
X-02683Y-0048*
X-02696Y-00476*
X-02711Y-00475*
G37*
G36*
X02835Y-00629D02*
Y-00645D01*
X0285*
X0285Y-00641*
X02845Y-00634*
X02838Y-0063*
X02835Y-00629*
G37*
G36*
X02825D02*
X02822Y-0063D01*
X02815Y-00634*
X0281Y-00641*
X0281Y-00645*
X02825*
Y-00629*
G37*
G36*
X02715D02*
Y-00645D01*
X0273*
X0273Y-00641*
X02725Y-00634*
X02718Y-0063*
X02715Y-00629*
G37*
G36*
X02705D02*
X02702Y-0063D01*
X02695Y-00634*
X0269Y-00641*
X0269Y-00645*
X02705*
Y-00629*
G37*
G36*
X02595D02*
Y-00645D01*
X0261*
X0261Y-00641*
X02605Y-00634*
X02598Y-0063*
X02595Y-00629*
G37*
G36*
X02585D02*
X02582Y-0063D01*
X02575Y-00634*
X0257Y-00641*
X0257Y-00645*
X02585*
Y-00629*
G37*
G36*
X-02574D02*
X-02577Y-0063D01*
X-02584Y-00634*
X-02589Y-00641*
X-0259Y-00645*
X-02574*
Y-00629*
G37*
G36*
X-02684D02*
Y-00645D01*
X-02669*
X-02669Y-00641*
X-02674Y-00634*
X-02681Y-0063*
X-02684Y-00629*
G37*
G36*
X-02694D02*
X-02697Y-0063D01*
X-02704Y-00634*
X-02709Y-00641*
X-0271Y-00645*
X-02694*
Y-00629*
G37*
G36*
X-02804D02*
Y-00645D01*
X-02789*
X-02789Y-00641*
X-02794Y-00634*
X-02801Y-0063*
X-02804Y-00629*
G37*
G36*
X-02814D02*
X-02817Y-0063D01*
X-02824Y-00634*
X-02829Y-00641*
X-0283Y-00645*
X-02814*
Y-00629*
G37*
G36*
X-02924D02*
Y-00645D01*
X-02909*
X-02909Y-00641*
X-02914Y-00634*
X-02921Y-0063*
X-02924Y-00629*
G37*
G36*
X-02934D02*
X-02937Y-0063D01*
X-02944Y-00634*
X-02949Y-00641*
X-0295Y-00645*
X-02934*
Y-00629*
G37*
G36*
X0285Y-00655D02*
X02835D01*
Y-0067*
X02838Y-00669*
X02845Y-00665*
X0285Y-00658*
X0285Y-00655*
G37*
G36*
X02825D02*
X0281D01*
X0281Y-00658*
X02815Y-00665*
X02822Y-00669*
X02825Y-0067*
Y-00655*
G37*
G36*
X0273D02*
X02715D01*
Y-0067*
X02718Y-00669*
X02725Y-00665*
X0273Y-00658*
X0273Y-00655*
G37*
G36*
X02705D02*
X0269D01*
X0269Y-00658*
X02695Y-00665*
X02702Y-00669*
X02705Y-0067*
Y-00655*
G37*
G36*
X0261D02*
X02595D01*
Y-0067*
X02598Y-00669*
X02605Y-00665*
X0261Y-00658*
X0261Y-00655*
G37*
G36*
X02585D02*
X0257D01*
X0257Y-00658*
X02575Y-00665*
X02582Y-00669*
X02585Y-0067*
Y-00655*
G37*
G36*
X-02574D02*
X-0259D01*
X-02589Y-00658*
X-02584Y-00665*
X-02577Y-00669*
X-02574Y-0067*
Y-00655*
G37*
G36*
X-02669D02*
X-02684D01*
Y-0067*
X-02681Y-00669*
X-02674Y-00665*
X-02669Y-00658*
X-02669Y-00655*
G37*
G36*
X-02694D02*
X-0271D01*
X-02709Y-00658*
X-02704Y-00665*
X-02697Y-00669*
X-02694Y-0067*
Y-00655*
G37*
G36*
X-02789D02*
X-02804D01*
Y-0067*
X-02801Y-00669*
X-02794Y-00665*
X-02789Y-00658*
X-02789Y-00655*
G37*
G36*
X-02814D02*
X-0283D01*
X-02829Y-00658*
X-02824Y-00665*
X-02817Y-00669*
X-02814Y-0067*
Y-00655*
G37*
G36*
X00261Y-00571D02*
X00248Y-00572D01*
X00235Y-00578*
X00225Y-00586*
X00216Y-00597*
X00211Y-00609*
X0021Y-00622*
X00211Y-00636*
X00216Y-00648*
X00225Y-00659*
X00235Y-00667*
X00248Y-00672*
X00261Y-00674*
X00275Y-00672*
X00287Y-00667*
X00298Y-00659*
X00306Y-00648*
X00311Y-00636*
X00313Y-00622*
X00311Y-00609*
X00306Y-00597*
X00298Y-00586*
X00287Y-00578*
X00275Y-00572*
X00261Y-00571*
G37*
G36*
X-0026D02*
X-00274Y-00572D01*
X-00286Y-00578*
X-00297Y-00586*
X-00305Y-00597*
X-0031Y-00609*
X-00312Y-00622*
X-0031Y-00636*
X-00305Y-00648*
X-00297Y-00659*
X-00286Y-00667*
X-00274Y-00672*
X-0026Y-00674*
X-00247Y-00672*
X-00235Y-00667*
X-00224Y-00659*
X-00216Y-00648*
X-00211Y-00636*
X-00209Y-00622*
X-00211Y-00609*
X-00216Y-00597*
X-00224Y-00586*
X-00235Y-00578*
X-00247Y-00572*
X-0026Y-00571*
G37*
G36*
X00365Y-00749D02*
X00362Y-0075D01*
X00355Y-00754*
X0035Y-00761*
X0035Y-00765*
X00365*
Y-00749*
G37*
G36*
X-00344D02*
Y-00765D01*
X-00329*
X-00329Y-00761*
X-00334Y-00754*
X-00341Y-0075*
X-00344Y-00749*
G37*
G36*
X-00354D02*
X-00357Y-0075D01*
X-00364Y-00754*
X-00369Y-00761*
X-0037Y-00765*
X-00354*
Y-00749*
G37*
G36*
X00365Y-00775D02*
X0035D01*
X0035Y-00778*
X00355Y-00785*
X00362Y-00789*
X00365Y-0079*
Y-00775*
G37*
G36*
X-00329D02*
X-00344D01*
Y-0079*
X-00341Y-00789*
X-00334Y-00785*
X-00329Y-00778*
X-00329Y-00775*
G37*
G36*
X-00354D02*
X-0037D01*
X-00369Y-00778*
X-00364Y-00785*
X-00357Y-00789*
X-00354Y-0079*
Y-00775*
G37*
G36*
X-00389Y-00895D02*
X-00404D01*
Y-0091*
X-00401Y-00909*
X-00394Y-00905*
X-00389Y-00898*
X-00389Y-00895*
G37*
G36*
X00494Y-00941D02*
X00491Y-00942D01*
X00484Y-00946*
X0048Y-00952*
X00478Y-0096*
X00479Y-00967*
X00482Y-00974*
X00504Y-00967*
X00494Y-00941*
G37*
G36*
X-00484Y-00952D02*
X-00493Y-00953D01*
X-00496Y-00955*
X-00482Y-00979*
X-00458Y-00965*
X-0046Y-00962*
X-00467Y-00957*
X-00475Y-00953*
X-00484Y-00952*
G37*
G36*
X00538Y-00965D02*
X00516Y-00973D01*
X00526Y-00998*
X00529Y-00997*
X00536Y-00993*
X0054Y-00987*
X00542Y-00979*
X00541Y-00972*
X00538Y-00965*
G37*
G36*
X-00505Y-0096D02*
X-00508Y-00962D01*
X-00514Y-00969*
X-00517Y-00977*
X-00518Y-00986*
X-00517Y-00995*
X-00515Y-00999*
X-00491Y-00984*
X-00505Y-0096*
G37*
G36*
X00507Y-00976D02*
X00485Y-00984D01*
X00488Y-00991*
X00492Y-00998*
X00498Y-01002*
X00505Y-01004*
X00513Y-01003*
X00516Y-01001*
X00507Y-00976*
G37*
G36*
X-00453Y-00974D02*
X-00477Y-00988D01*
X-00463Y-01013*
X-0046Y-0101*
X-00455Y-01003*
X-00451Y-00995*
X-0045Y-00986*
X-00451Y-00977*
X-00453Y-00974*
G37*
G36*
X-00486Y-00993D02*
X-0051Y-01007D01*
X-00508Y-0101*
X-00501Y-01016*
X-00493Y-01019*
X-00484Y-0102*
X-00475Y-01019*
X-00472Y-01018*
X-00486Y-00993*
G37*
G36*
X-00416Y-00977D02*
X-00423Y-00978D01*
X-0043Y-0098*
X-00436Y-00985*
X-0044Y-00991*
X-00443Y-00997*
X-00444Y-01005*
X-00443Y-01012*
X-0044Y-01018*
X-00436Y-01024*
X-0043Y-01029*
X-00423Y-01031*
X-00416Y-01032*
X-00409Y-01031*
X-00402Y-01029*
X-00396Y-01024*
X-00392Y-01018*
X-00389Y-01012*
X-00388Y-01005*
X-00389Y-00997*
X-00392Y-00991*
X-00396Y-00985*
X-00402Y-0098*
X-00409Y-00978*
X-00416Y-00977*
G37*
G36*
X00359Y-00998D02*
X00354Y-00999D01*
X00337Y-01005*
X00333Y-01007*
X0033Y-01012*
X00329Y-01017*
X0033Y-01022*
X00338Y-01046*
X00341Y-0105*
X00345Y-01053*
X0035Y-01054*
X00355Y-01053*
X00372Y-01047*
X00376Y-01045*
X00379Y-01041*
X0038Y-01036*
X0038Y-01031*
X00371Y-01007*
X00368Y-01002*
X00364Y-00999*
X00359Y-00998*
G37*
G36*
X-00502Y-01027D02*
X-0051Y-01028D01*
X-00516Y-0103*
X-00522Y-01035*
X-00527Y-01041*
X-00529Y-01047*
X-0053Y-01055*
X-00529Y-01062*
X-00527Y-01068*
X-00522Y-01074*
X-00516Y-01079*
X-0051Y-01081*
X-00502Y-01082*
X-00495Y-01081*
X-00489Y-01079*
X-00483Y-01074*
X-00478Y-01068*
X-00476Y-01062*
X-00475Y-01055*
X-00476Y-01047*
X-00478Y-01041*
X-00483Y-01035*
X-00489Y-0103*
X-00495Y-01028*
X-00502Y-01027*
G37*
G36*
X-00434Y-01045D02*
X-00441Y-01046D01*
X-00448Y-01049*
X-00454Y-01053*
X-00458Y-01059*
X-00461Y-01066*
X-00462Y-01073*
X-00461Y-0108*
X-00458Y-01087*
X-00454Y-01093*
X-00448Y-01097*
X-00441Y-011*
X-00434Y-01101*
X-00427Y-011*
X-0042Y-01097*
X-00414Y-01093*
X-0041Y-01087*
X-00407Y-0108*
X-00406Y-01073*
X-00407Y-01066*
X-0041Y-01059*
X-00414Y-01053*
X-0042Y-01049*
X-00427Y-01046*
X-00434Y-01045*
G37*
G36*
X-00414Y-01109D02*
X-00417Y-0111D01*
X-00424Y-01114*
X-00429Y-01121*
X-0043Y-01125*
X-00414*
Y-01109*
G37*
G36*
X-00524D02*
Y-01125D01*
X-00509*
X-00509Y-01121*
X-00514Y-01114*
X-00521Y-0111*
X-00524Y-01109*
G37*
G36*
X-00414Y-01135D02*
X-0043D01*
X-00429Y-01138*
X-00424Y-01145*
X-00417Y-01149*
X-00414Y-0115*
Y-01135*
G37*
G36*
X-00509D02*
X-00524D01*
Y-0115*
X-00521Y-01149*
X-00514Y-01145*
X-00509Y-01138*
X-00509Y-01135*
G37*
%LNglasses_full_v1_small_revised-3*%
%LPD*%
G54D11*
X-02576Y0021D02*
D01*
X-02576Y0021*
X-02576Y0021*
X-02575Y0021*
X-02575Y0021*
X-02575Y0021*
X-02574Y0021*
X-02574Y0021*
X-02574Y0021*
X-02573Y0021*
X-02573Y00211*
X-02573Y00211*
X-02573Y00211*
X-02556*
X-0258Y0021D02*
X-02576D01*
X-0271Y00098D02*
X-0268D01*
X-0264Y00184D02*
X-02626Y00198D01*
X-0264Y00138D02*
Y00184D01*
X-0268Y00098D02*
X-0264Y00138D01*
X-02748Y0006D02*
X-0271Y00098D01*
X-02748Y-00023D02*
Y0006D01*
Y-00023D02*
X-02729Y-00041D01*
Y-00055D02*
Y-00041D01*
Y-00055D02*
X-02635Y-0015D01*
X-02626Y00198D02*
X-026D01*
Y00205*
X-0258*
Y0021*
G54D12*
X00146Y-00185D03*
X-00135D03*
G54D19*
X00098Y-0022D02*
D01*
X00098Y-0022*
X00097Y-00219*
X00097Y-00219*
X00096Y-00219*
X00096Y-00218*
X00095Y-00218*
X00094Y-00218*
X00094Y-00218*
X00093Y-00218*
X00092Y-00218*
X00092Y-00217*
X00092Y-00218*
X-02412Y00026D02*
X-02323D01*
X-02432Y00006D02*
X-02412Y00026D01*
X-0246Y00006D02*
X-02432D01*
X02568Y00146D02*
X02577Y00138D01*
X02568D02*
X02577D01*
X02568Y00146D02*
X0266Y00055D01*
X0255Y00176D02*
X02555Y00171D01*
X02549Y00176D02*
X0255D01*
X00092Y-00218D02*
Y-00188D01*
X00181Y-00231D02*
X00188Y-00223D01*
X00109Y-00231D02*
X00181D01*
X00212Y-00191D02*
Y-00184D01*
Y-00191D02*
X00212Y-00192D01*
X00188Y-00216D02*
X00212Y-00192D01*
X-02562Y00106D02*
X-02555Y0013D01*
X-02562Y00106D02*
X-025Y00044D01*
X0241Y00054D02*
X02455Y00046D01*
X02458Y00046*
X02555*
X02396Y00067D02*
X0241Y00054D01*
X02336Y00067D02*
X02396D01*
X02461Y00033D02*
X02542Y00022D01*
X02336Y00052D02*
X02461Y00033D01*
X02411Y00183D02*
X02495D01*
X02549Y00176*
X01011Y00001D02*
X01121Y00019D01*
X00915Y-0002D02*
X01011Y00001D01*
X01121Y00019D02*
X01214Y00112D01*
X01095Y00028D02*
X01116Y00031D01*
X01214Y00112D02*
X02126D01*
X00367Y-00189D02*
X00554Y-00126D01*
X02126Y00112D02*
X02178Y00059D01*
Y00054D02*
Y00059D01*
X00554Y-00126D02*
X00683Y-00084D01*
X00809Y-00047D02*
X00915Y-0002D01*
X02178Y00054D02*
X02336Y00052D01*
X00683Y-00084D02*
X00809Y-00047D01*
X01011Y00016D02*
X01095Y00028D01*
X01215Y0013D02*
X02144D01*
X01116Y00031D02*
X01215Y0013D01*
X-02549Y00173D02*
X-0245Y00187D01*
X-02412Y00191*
X-02377Y00185*
X-02281Y00188*
X-025Y00044D02*
X-02416D01*
X-0236Y001D02*
X-02344D01*
X-02416Y00044D02*
X-0236Y001D01*
X-02323Y00026D02*
X-02281Y00068D01*
X-0115Y00161D02*
X-0111Y00158D01*
X-0101Y0014*
X-01006Y00134*
X-01044Y0001D02*
X-01023Y00018D01*
X-01124Y00032D02*
X-01044Y0001D01*
X-01144Y00052D02*
X-01124Y00032D01*
X-01152Y00052D02*
X-01144D01*
X-01223Y00123D02*
X-01152Y00052D01*
X-01023Y00018D02*
X-00962Y00005D01*
X-00234Y-00242D02*
X-00231D01*
X-00226Y-00247*
Y-00248D02*
Y-00247D01*
X0019Y-00344D02*
X0019D01*
X00199Y-00335*
X00206Y-00342*
Y-00381D02*
Y-00342D01*
Y-00381D02*
X00206Y-00382D01*
X00098Y-0022D02*
X00109Y-00231D01*
X00188Y-00223D02*
Y-00216D01*
X0264Y00265D02*
X0267D01*
X02624Y00281D02*
X0264Y00265D01*
X02555Y00281D02*
X02624D01*
X-00069Y-00042D02*
X00008D01*
X00096Y-00194D02*
Y-00192D01*
X00092Y-00188D02*
X00096Y-00192D01*
X-00135Y-00228D02*
X-00097D01*
X-00092Y-002D02*
X-00048Y-00156D01*
X-00092Y-00223D02*
Y-002D01*
X-00097Y-00228D02*
X-00092Y-00223D01*
X-00048Y-00156D02*
X00058Y-00151D01*
X00103Y-00141D02*
X002D01*
X00058Y-00151D02*
X00103Y-00141D01*
X02144Y0013D02*
X02205Y00068D01*
X02232*
X02336Y00067*
X-01205Y00135D02*
X-01175D01*
X-01221Y00151D02*
X-01205Y00135D01*
X-01332Y00161D02*
X-01221Y00151D01*
X-01223Y00123D02*
X-01223D01*
X-01997Y00136D02*
X-01236D01*
X-01223Y00123*
X-02281Y00068D02*
X-02064Y00069D01*
X-01997Y00136*
X-00962Y00005D02*
X-00859Y-00019D01*
X-00747Y-0005*
X-00623Y-00089*
X-00424Y-00156*
X-00304Y-00196*
X-00219Y-00222*
X-0018Y-00233*
X-0014*
X-00135Y-00228*
X002Y-00141D02*
X00222Y-0012D01*
X0024*
X00492Y-00036*
X00498*
X00531Y-00069*
X00683*
X00809Y-00032*
X00915Y-00005*
X01011Y00016*
X00105Y-0055D02*
X00206Y-00448D01*
Y-00382*
X-00226Y-00248D02*
X-00128D01*
X00136Y-00121D02*
X00151D01*
X00053Y-00139D02*
X00136Y-00121D01*
X00211Y-00114D02*
X00224Y-001D01*
X00158Y-00114D02*
X00211D01*
X00151Y-00121D02*
X00158Y-00114D01*
X-02344Y001D02*
X-02276Y00168D01*
X-0205Y00169*
X-01757Y00171*
X-01561Y00171D02*
X-0144Y00168D01*
X-01332Y00161*
X-01757Y00171D02*
X-01561Y00171D01*
X-00053Y-00066D02*
X-00047Y-00067D01*
X-00075Y-00063D02*
X-00053Y-00066D01*
X-00045*
X-00044Y-00067*
X-00022Y-00081D02*
X0Y-00078D01*
X-00022Y-00081D02*
D01*
X-00026Y-00049D02*
Y-00045D01*
X-00142Y-00063D02*
X-00088Y-00075D01*
X-00044Y-00067D02*
X-00035Y-00068D01*
X-00047Y-00067D02*
X-00044Y-00067D01*
X02485Y0D02*
X02545Y-0006D01*
X027*
X02629Y00046D02*
X02646Y0003D01*
X02655*
X02685Y00025D02*
Y0004D01*
X0267Y00055D02*
X02685Y0004D01*
X0266Y00055D02*
X0267D01*
X0001Y-00065D02*
X00021Y-00066D01*
X-00011Y-00066D02*
X0001Y-00065D01*
X-0002Y-00068D02*
X-00011Y-00066D01*
X-00035Y-00068D02*
X-0002D01*
X-00078Y-0006D02*
X-00075Y-00063D01*
X-00088Y-0006D02*
X-00078D01*
X-00137Y-00035D02*
X-00105Y-00041D01*
X-0007*
X-00069Y-00042*
X-00219Y-00012D02*
X-00137Y-00035D01*
X00029Y-00044D02*
X00053Y-00049D01*
X00008Y-00042D02*
X00029Y-00044D01*
X00053Y-00049D02*
X00094Y-00043D01*
X02555Y00046D02*
X02629D01*
X-02556Y00226D02*
X-02444Y00241D01*
X-02377Y00245*
X-02556Y00241D02*
X-02444Y00256D01*
X-00134Y-00125D02*
X-00088Y-00135D01*
X-00142Y-00123D02*
X-00134Y-00125D01*
X-00022Y-00141D02*
X0Y-00138D01*
X-00048Y-0014D02*
X-00022Y-00141D01*
X00021Y-00141D02*
X00053Y-00139D01*
X-01762Y00191D02*
X-01566Y00191D01*
X-01445Y00188D02*
X-01337Y00181D01*
X-01241Y00172*
X-01006Y00134D02*
X-00962Y00125D01*
X-00747Y00069D02*
X-00623Y0003D01*
X-00424Y-00036D02*
X-00304Y-00076D01*
X0Y-00138D02*
X00021Y-00141D01*
X-00088Y-00135D02*
X-00048Y-0014D01*
X-00219Y-00102D02*
X-00142Y-00123D01*
X00554Y00008D02*
X00683Y0005D01*
X00809Y00087D02*
X00915Y00115D01*
X012Y00168D02*
X01299Y00178D01*
X01403Y00186D02*
X01517Y0019D01*
X0167Y00191D02*
X01943Y0019D01*
X02336Y00187D02*
X02411Y00183D01*
X-00859Y001D02*
X-00747Y00069D01*
X00224Y-001D02*
X00327Y-00068D01*
X01102Y00153D02*
X012Y00168D01*
X-01566Y00191D02*
X-01445Y00188D01*
X-02055Y00189D02*
X-01762Y00191D01*
X-02281Y00188D02*
X-02055Y00189D01*
X-00962Y00125D02*
X-00859Y001D01*
X-01241Y00172D02*
X-0115Y00161D01*
X00915Y00115D02*
X01011Y00136D01*
X01943Y0019D02*
X02178Y00189D01*
X01517Y0019D02*
X0167Y00191D01*
X01299Y00178D02*
X01403Y00186D01*
X02178Y00189D02*
X02336Y00187D01*
X-00304Y-00076D02*
X-00219Y-00102D01*
X-00623Y0003D02*
X-00424Y-00036D01*
X01011Y00136D02*
X01102Y00153D01*
X00683Y0005D02*
X00809Y00087D01*
X00327Y-00068D02*
X00554Y00008D01*
X00021Y-00081D02*
X00053Y-00079D01*
X-02377Y00245D02*
X-02281Y00248D01*
X-01762Y00251D02*
X-01566Y00251D01*
X-01445Y00248D02*
X-01337Y00241D01*
X-01241Y00232*
X-01062Y00206D02*
X-00962Y00185D01*
X-00747Y00129D02*
X-00623Y0009D01*
X-00424Y00024D02*
X-00304Y-00016D01*
X0Y-00078D02*
X00021Y-00081D01*
X-00219Y-00042D02*
X-00142Y-00063D01*
X00094Y-00073D02*
X0015Y-00061D01*
X00224Y-0004*
X00554Y00068D02*
X00683Y0011D01*
X00809Y00147D02*
X00915Y00175D01*
X012Y00228D02*
X01299Y00238D01*
X01403Y00246D02*
X01517Y0025D01*
X0167Y00251D02*
X01943Y0025D01*
X02411Y00243D02*
X02473Y00237D01*
X02555Y00226*
X02336Y00247D02*
X02411Y00243D01*
X-0115Y00221D02*
X-01062Y00206D01*
X-00859Y0016D02*
X-00747Y00129D01*
X00224Y-0004D02*
X00327Y-00008D01*
X01102Y00213D02*
X012Y00228D01*
X-01566Y00251D02*
X-01445Y00248D01*
X-02055Y00249D02*
X-01762Y00251D01*
X-02281Y00248D02*
X-02055Y00249D01*
X-00962Y00185D02*
X-00859Y0016D01*
X-01241Y00232D02*
X-0115Y00221D01*
X00053Y-00079D02*
X00094Y-00073D01*
X00915Y00175D02*
X01011Y00196D01*
X01943Y0025D02*
X02178Y00249D01*
X01517Y0025D02*
X0167Y00251D01*
X01299Y00238D02*
X01403Y00246D01*
X02178Y00249D02*
X02336Y00247D01*
X-00304Y-00016D02*
X-00219Y-00042D01*
X-00623Y0009D02*
X-00424Y00024D01*
X01011Y00196D02*
X01102Y00213D01*
X00683Y0011D02*
X00809Y00147D01*
X00327Y-00008D02*
X00554Y00068D01*
X00021Y-00066D02*
X00053Y-00064D01*
X-02377Y0026D02*
X-02281Y00263D01*
X-02444Y00256D02*
X-02377Y0026D01*
X-01762Y00266D02*
X-01566Y00266D01*
X-01445Y00263D02*
X-01337Y00256D01*
X-01241Y00247*
X-01062Y00221D02*
X-00962Y002D01*
X-00747Y00144D02*
X-00623Y00105D01*
X-00424Y00039D02*
X-00304Y-00001D01*
X-00142Y-00048D02*
X-00088Y-0006D01*
X-00219Y-00027D02*
X-00142Y-00048D01*
X00094Y-00058D02*
X0015Y-00046D01*
X00224Y-00025*
X00554Y00083D02*
X00683Y00125D01*
X00809Y00162D02*
X00915Y0019D01*
X012Y00243D02*
X01299Y00253D01*
X01403Y00261D02*
X01517Y00265D01*
X0167Y00266D02*
X01943Y00265D01*
X02411Y00258D02*
X02473Y00252D01*
X02555Y00241*
X02336Y00262D02*
X02411Y00258D01*
X-0115Y00236D02*
X-01062Y00221D01*
X-00859Y00175D02*
X-00747Y00144D01*
X00224Y-00025D02*
X00327Y00006D01*
X01102Y00228D02*
X012Y00243D01*
X-01566Y00266D02*
X-01445Y00263D01*
X-02055Y00264D02*
X-01762Y00266D01*
X-02281Y00263D02*
X-02055Y00264D01*
X-00962Y002D02*
X-00859Y00175D01*
X-01241Y00247D02*
X-0115Y00236D01*
X00053Y-00064D02*
X00094Y-00058D01*
X00915Y0019D02*
X01011Y00211D01*
X01943Y00265D02*
X02178Y00264D01*
X01517Y00265D02*
X0167Y00266D01*
X01299Y00253D02*
X01403Y00261D01*
X02178Y00264D02*
X02336Y00262D01*
X-00304Y-00001D02*
X-00219Y-00027D01*
X-00623Y00105D02*
X-00424Y00039D01*
X01011Y00211D02*
X01102Y00228D01*
X00683Y00125D02*
X00809Y00162D01*
X00327Y00006D02*
X00554Y00083D01*
X-02377Y00275D02*
X-02281Y00278D01*
X-02444Y00271D02*
X-02377Y00275D01*
X-01762Y00281D02*
X-01566Y00281D01*
X-01445Y00278D02*
X-01337Y00271D01*
X-01241Y00262*
X-01062Y00236D02*
X-00962Y00215D01*
X-00747Y00159D02*
X-00623Y0012D01*
X-00424Y00054D02*
X-00304Y00013D01*
X00094Y-00043D02*
X0015Y-00031D01*
X00224Y-0001*
X00554Y00098D02*
X00683Y0014D01*
X00809Y00177D02*
X00915Y00205D01*
X012Y00258D02*
X01299Y00268D01*
X01403Y00276D02*
X01517Y0028D01*
X0167Y00281D02*
X01943Y0028D01*
X02411Y00273D02*
X02473Y00267D01*
X02555Y00256*
X02336Y00277D02*
X02411Y00273D01*
X-0115Y00251D02*
X-01062Y00236D01*
X-00859Y0019D02*
X-00747Y00159D01*
X00224Y-0001D02*
X00327Y00021D01*
X01102Y00243D02*
X012Y00258D01*
X-01566Y00281D02*
X-01445Y00278D01*
X-02055Y00279D02*
X-01762Y00281D01*
X-02281Y00278D02*
X-02055Y00279D01*
X-02556Y00256D02*
X-02444Y00271D01*
X-00962Y00215D02*
X-00859Y0019D01*
X-01241Y00262D02*
X-0115Y00251D01*
X00915Y00205D02*
X01011Y00226D01*
X01943Y0028D02*
X02178Y00279D01*
X01517Y0028D02*
X0167Y00281D01*
X01299Y00268D02*
X01403Y00276D01*
X02178Y00279D02*
X02336Y00277D01*
X-00304Y00013D02*
X-00219Y-00012D01*
X-00623Y0012D02*
X-00424Y00054D01*
X01011Y00226D02*
X01102Y00243D01*
X00683Y0014D02*
X00809Y00177D01*
X00327Y00021D02*
X00554Y00098D01*
G54D20*
X00004Y-00562D02*
D01*
X00004Y-00562*
X00004Y-00562*
X00005Y-00562*
X00005Y-00563*
X00005Y-00563*
X00006Y-00563*
X00006Y-00563*
X00007Y-00563*
X00007Y-00563*
X00008Y-00563*
X00008Y-00563*
X00008Y-00564*
X-02624Y00098D02*
X-02549Y00173D01*
X-02635Y00098D02*
X-02624D01*
X-02648Y00084D02*
X-02635Y00098D01*
X-02695Y00084D02*
X-02648D01*
X-02704Y00076D02*
X-02695Y00084D01*
X-00234Y-00178D02*
X-00232D01*
X-00202Y-00148*
X02574Y00171D02*
X02718Y00028D01*
X02555Y00171D02*
X02574D01*
X00185Y-00242D02*
X00199Y-00228D01*
X00104Y-00242D02*
X00185D01*
X00101Y-00239D02*
X00104Y-00242D01*
X00082Y-00239D02*
X00101D01*
X00078Y-00244D02*
X00082Y-00239D01*
X00189Y-00252D02*
X0019D01*
X00181Y-0026D02*
X00189Y-00252D01*
X0011Y-0026D02*
X00181D01*
X00193Y-00262D02*
X00194D01*
X00181Y-00274D02*
X00193Y-00262D01*
X00134Y-00274D02*
X00181D01*
X00198Y-00272D02*
X00198D01*
X00186Y-00284D02*
X00198Y-00272D01*
X00154Y-00284D02*
X00186D01*
X0028Y-00204D02*
Y-00186D01*
X00202Y-00282D02*
X0028Y-00204D01*
X00202Y-00282D02*
X00202D01*
X0016Y-00324D02*
X00202Y-00282D01*
X0027Y-002D02*
Y-00172D01*
X00198Y-00272D02*
X0027Y-002D01*
X0026Y-00196D02*
Y-00145D01*
X00194Y-00262D02*
X0026Y-00196D01*
X0025Y-00186D02*
Y-00177D01*
X00209Y-00226D02*
X0025Y-00186D01*
X00209Y-00232D02*
Y-00226D01*
X0019Y-00252D02*
X00209Y-00232D01*
X00199Y-00222D02*
X0024Y-00182D01*
X00199Y-00228D02*
Y-00222D01*
X00216Y-00158D02*
Y-00154D01*
Y-00158D02*
X0024Y-00182D01*
X0018Y-00317D02*
X00196D01*
X02545Y00005D02*
X02565D01*
X02542Y00022D02*
X02556Y0003D01*
X00367Y-00211D02*
Y-00189D01*
X00362Y-00217D02*
X00367Y-00211D01*
X00362Y-00376D02*
Y-00217D01*
X00238Y-005D02*
X00362Y-00376D01*
X00234Y-00498D02*
X00238Y-005D01*
X02607Y0003D02*
X0263Y00007D01*
X02556Y0003D02*
X02607D01*
X0263Y00007D02*
X02668D01*
X02725Y-0005*
Y-00095D02*
Y-0005D01*
X00242Y-00378D02*
X003D01*
X00217Y-00353D02*
X00242Y-00378D01*
X00217Y-00353D02*
Y-00338D01*
X0021Y-00331D02*
X00217Y-00338D01*
X003Y-00378D02*
X00346Y-00332D01*
Y-00162*
X00338Y-00154D02*
X00346Y-00162D01*
X0021Y-00331D02*
D01*
X00206Y-00328D02*
X0021Y-00331D01*
X00196Y-00317D02*
X00206Y-00328D01*
X00142Y-00366D02*
X00143Y-00367D01*
X00152Y-00388D02*
X0016D01*
X00161Y-00386*
X00143Y-00367D02*
X00144D01*
X00161Y-00386D02*
Y-00379D01*
X00177Y-00363*
X00152Y-00346D02*
X0018Y-00317D01*
X0017Y-0037D02*
Y-00367D01*
X00111Y-0035D02*
Y-00346D01*
X00034Y-0038D02*
X0012D01*
X00068Y-00457D02*
X00138Y-00387D01*
X00012Y-00528D02*
X00152Y-00388D01*
X00112Y-00346D02*
X00152D01*
X0011Y-00324D02*
X0016D01*
X0013Y-00304D02*
X00132Y-00302D01*
X00136D02*
X00154Y-00284D01*
X0013Y-00278D02*
X00134Y-00274D01*
X00068Y-0051D02*
X00187Y-0039D01*
X-00026Y-00457D02*
X00068D01*
X02626Y00226D02*
X0264Y0024D01*
X02555Y00226D02*
X02626D01*
X0261Y00245D02*
X02615Y0024D01*
X02558Y0026D02*
X02585D01*
X02556Y0024D02*
X02615D01*
X02718Y00028D02*
X02726D01*
X00138Y-00387D02*
Y-0037D01*
X00098Y-00164D02*
X00106Y-00172D01*
X00133*
X00146Y-00185*
X-00116Y-0053D02*
X00034Y-0038D01*
X-00122Y-0053D02*
X-00116D01*
X-00125Y-00534D02*
X-00122Y-0053D01*
X-0009Y-00528D02*
Y-0052D01*
X-001Y-00538D02*
X-0009Y-00528D01*
X-001Y-0054D02*
Y-00538D01*
X00012Y-00528D02*
X00012Y-00528D01*
X-00072Y-00528D02*
X00012D01*
X-0009Y-0052D02*
X-00026Y-00457D01*
X00242Y-00169D02*
X0025Y-00177D01*
X00242Y-00169D02*
Y-00143D01*
X0024Y-00141D02*
X00242Y-00143D01*
X0026Y-00145D02*
X00273Y-00132D01*
Y-0013*
X0027Y-00172D02*
X0028Y-00162D01*
Y-00158*
Y-00186D02*
X0031Y-00156D01*
X00111Y-00346D02*
X00112Y-00346D01*
X00138Y-0037D02*
X00142Y-00366D01*
X00132Y-00302D02*
X00136D01*
X00152Y-00388D02*
X00152D01*
X0017Y-0037*
X00068Y-00516D02*
Y-0051D01*
X-00202Y-00148D02*
Y-0013D01*
X00008Y-00564D02*
X00093D01*
X00097Y-00568*
X00222*
X00306Y-00484*
X-00106Y-0042D02*
X-00104Y-00422D01*
Y-00448D02*
Y-00422D01*
X-00104Y-00449D02*
X-00104Y-00448D01*
X-00104Y-00456D02*
Y-00449D01*
X-00108Y-0046D02*
X-00104Y-00456D01*
X-0017Y-00366D02*
X-00168D01*
Y-00362*
X-00194Y-0039D02*
X-0017Y-00366D01*
X-00182Y-00322D02*
X-00178Y-00326D01*
X-00186Y-00322D02*
X-00182D01*
X-00202Y-00338D02*
X-00186Y-00322D01*
X-00216Y-00338D02*
X-00202D01*
X-00218Y-0034D02*
X-00216Y-00338D01*
X02525Y-00005D02*
X0254Y0001D01*
X02545Y00005*
X-00065Y-00085D02*
X-0004D01*
X-00075Y-00075D02*
X-00065Y-00085D01*
X-0004D02*
X-00035Y-0008D01*
X-00022*
X-00088Y-00075D02*
X-00075D01*
X02555Y00256D02*
X02558Y0026D01*
X02555Y00241D02*
X02556Y0024D01*
X-02557Y00226D02*
X-02556D01*
X-0263Y0022D02*
X-02627Y00223D01*
X-02601Y00225D02*
X-026Y00226D01*
X-02602Y00225D02*
X-02601D01*
X-02604Y00223D02*
X-02602Y00225D01*
X-02627Y00223D02*
X-02604D01*
X-02558Y00226D02*
X-02557Y00226D01*
X-026Y00226D02*
X-02558D01*
X-02563Y00238D02*
X-02557Y00243D01*
X-02585Y00238D02*
X-02563D01*
X-02605Y00238D02*
X-02585D01*
X-02585Y00238*
X-02585Y00238D02*
D01*
X-02559Y00259D02*
X-02557Y00258D01*
X-02569Y00259D02*
X-02559D01*
X-0257Y00258D02*
X-02569Y00259D01*
X-02571Y00258D02*
X-0257D01*
X-02574Y00255D02*
X-02571Y00258D01*
X-02574Y00255D02*
X-02574D01*
X-00135Y-00127D02*
X-00134Y-00127D01*
X-00135Y-00185D02*
Y-00127D01*
G54D21*
X0015Y-00076D02*
X00178Y-00068D01*
X-0263Y00085D02*
X-02616D01*
X-02655Y0006D02*
X-0263Y00085D01*
X-02616D02*
X-02571Y0013D01*
X02623Y00191D02*
X02624Y0019D01*
X02645Y00129D02*
Y002D01*
Y00129D02*
X02698Y00076D01*
X02636Y00209D02*
Y00213D01*
Y00209D02*
X02645Y002D01*
X02624Y0019D02*
Y00192D01*
X02615Y00213D02*
X02636D01*
X02613Y00211D02*
X02615Y00213D01*
X02555Y00211D02*
X02613D01*
X02743Y00076D02*
X0275Y00069D01*
X02698Y00076D02*
X02743D01*
X-00036Y-00106D02*
X-00027Y-00096D01*
X-00048Y-00106D02*
X-00036D01*
X-00027Y-00096D02*
X-00023D01*
X-00084Y-0009D02*
X-00071Y-00103D01*
X-00023Y-00096D02*
X-00022Y-00096D01*
X-00051Y-00103D02*
X-00048Y-00106D01*
X-00071Y-00103D02*
X-00051D01*
X-00088Y-0009D02*
X-00084D01*
X-00142Y-00078D02*
X-00088Y-0009D01*
X02555Y00191D02*
X02623D01*
X00179Y-00072D02*
Y-00068D01*
X00224Y-00055*
X0275Y-00099D02*
Y00069D01*
X02671Y-00178D02*
X0275Y-00099D01*
X02666Y-00178D02*
X02671D01*
X0259Y-00255D02*
X02666Y-00178D01*
X-02571Y0013D02*
X-02555D01*
X-02612Y00268D02*
X-02597Y00283D01*
X-02646Y00268D02*
X-02612D01*
X-02597Y00283D02*
X-02557D01*
X-02649Y00265D02*
X-02646Y00268D01*
X-02557Y00283D02*
X-02556Y00281D01*
X-00022Y-00096D02*
X0Y-00093D01*
X00021Y-00096D02*
X00053Y-00094D01*
X-02377Y0023D02*
X-02281Y00233D01*
X-02444Y00226D02*
X-02377Y0023D01*
X-01762Y00236D02*
X-01566Y00236D01*
X-01445Y00233D02*
X-01337Y00226D01*
X-01241Y00217*
X-01062Y00191D02*
X-00962Y0017D01*
X-00747Y00114D02*
X-00623Y00075D01*
X-00424Y00009D02*
X-00304Y-00031D01*
X0Y-00093D02*
X00021Y-00096D01*
X-00219Y-00057D02*
X-00142Y-00078D01*
X00094Y-00088D02*
X0015Y-00076D01*
X00554Y00053D02*
X00683Y00095D01*
X00809Y00132D02*
X00915Y0016D01*
X012Y00213D02*
X01299Y00223D01*
X01403Y00231D02*
X01517Y00235D01*
X0167Y00236D02*
X01943Y00235D01*
X02411Y00228D02*
X02473Y00222D01*
X02555Y00211*
X02336Y00232D02*
X02411Y00228D01*
X-0115Y00206D02*
X-01062Y00191D01*
X-00859Y00145D02*
X-00747Y00114D01*
X00224Y-00055D02*
X00327Y-00023D01*
X01102Y00198D02*
X012Y00213D01*
X-01566Y00236D02*
X-01445Y00233D01*
X-02055Y00234D02*
X-01762Y00236D01*
X-02281Y00233D02*
X-02055Y00234D01*
X-02556Y00211D02*
X-02444Y00226D01*
X-00962Y0017D02*
X-00859Y00145D01*
X-01241Y00217D02*
X-0115Y00206D01*
X00053Y-00094D02*
X00094Y-00088D01*
X00915Y0016D02*
X01011Y00181D01*
X01943Y00235D02*
X02178Y00234D01*
X01517Y00235D02*
X0167Y00236D01*
X01299Y00223D02*
X01403Y00231D01*
X02178Y00234D02*
X02336Y00232D01*
X-00304Y-00031D02*
X-00219Y-00057D01*
X-00623Y00075D02*
X-00424Y00009D01*
X01011Y00181D02*
X01102Y00198D01*
X00683Y00095D02*
X00809Y00132D01*
X00327Y-00023D02*
X00554Y00053D01*
G54D22*
X-00117Y-00013D02*
X-00088Y-0002D01*
X-00142Y-00008D02*
X-00117Y-00013D01*
X-00022Y-00026D02*
X0Y-00023D01*
X-00048Y-00025D02*
X-00022Y-00026D01*
X-00088Y-0002D02*
X-00048Y-00025D01*
X00074Y-00021D02*
X00094Y-00018D01*
X00053Y-00024D02*
X00074Y-00021D01*
X0Y-00023D02*
X00016Y-00025D01*
X00021Y-00026D02*
X00053Y-00024D01*
X-02377Y003D02*
X-02281Y00303D01*
X-02444Y00296D02*
X-02377Y003D01*
X-01762Y00306D02*
X-01566Y00306D01*
X-01445Y00303D02*
X-01337Y00296D01*
X-01241Y00287*
X-01062Y00261D02*
X-00962Y0024D01*
X-00747Y00184D02*
X-00623Y00145D01*
X-00424Y00079D02*
X-00304Y00038D01*
X-00219Y00012D02*
X-00142Y-00008D01*
X00094Y-00018D02*
X0015Y-00006D01*
X00224Y00014*
X00554Y00123D02*
X00683Y00165D01*
X00809Y00202D02*
X00915Y0023D01*
X012Y00283D02*
X01299Y00293D01*
X01403Y00301D02*
X01517Y00305D01*
X0167Y00306D02*
X01943Y00305D01*
X02411Y00298D02*
X02473Y00292D01*
X02555Y00281*
X02336Y00302D02*
X02411Y00298D01*
X-0115Y00276D02*
X-01062Y00261D01*
X-00859Y00215D02*
X-00747Y00184D01*
X00224Y00014D02*
X00327Y00046D01*
X01102Y00268D02*
X012Y00283D01*
X-01566Y00306D02*
X-01445Y00303D01*
X-02055Y00304D02*
X-01762Y00306D01*
X-02281Y00303D02*
X-02055Y00304D01*
X-02556Y00281D02*
X-02444Y00296D01*
X-00962Y0024D02*
X-00859Y00215D01*
X-01241Y00287D02*
X-0115Y00276D01*
X00915Y0023D02*
X01011Y00251D01*
X01943Y00305D02*
X02178Y00304D01*
X01517Y00305D02*
X0167Y00306D01*
X01299Y00293D02*
X01403Y00301D01*
X02178Y00304D02*
X02336Y00302D01*
X-00304Y00038D02*
X-00219Y00012D01*
X-00623Y00145D02*
X-00424Y00079D01*
X01011Y00251D02*
X01102Y00268D01*
X00683Y00165D02*
X00809Y00202D01*
X00327Y00046D02*
X00554Y00123D01*
G54D23*
X00204Y-00096D02*
X00224Y-00075D01*
X0015Y-00096D02*
X00204D01*
X-00055Y-00123D02*
X-00029D01*
X-00058Y-0012D02*
X-00055Y-00123D01*
X-00029D02*
X-00022Y-00116D01*
X-0008Y-0012D02*
X-00058D01*
X-00088Y-00111D02*
X-0008Y-0012D01*
X-00088Y-00111D02*
Y-0011D01*
X-0262Y00175D02*
X-02572D01*
X-02556Y00191*
X-00022Y-00116D02*
X0Y-00113D01*
X00021Y-00116D02*
X00053Y-00114D01*
X-02377Y0021D02*
X-02281Y00213D01*
X-02444Y00206D02*
X-02377Y0021D01*
X-01762Y00216D02*
X-01566Y00216D01*
X-01445Y00213D02*
X-01337Y00206D01*
X-01241Y00197*
X-01062Y00171D02*
X-00962Y0015D01*
X-00747Y00094D02*
X-00623Y00055D01*
X-00424Y-00011D02*
X-00304Y-00051D01*
X0Y-00113D02*
X00021Y-00116D01*
X-00142Y-00098D02*
X-00088Y-0011D01*
X-00219Y-00077D02*
X-00142Y-00098D01*
X00094Y-00108D02*
X0015Y-00096D01*
X00554Y00033D02*
X00683Y00075D01*
X00809Y00112D02*
X00915Y0014D01*
X012Y00193D02*
X01299Y00203D01*
X01403Y00211D02*
X01517Y00215D01*
X0167Y00216D02*
X01943Y00215D01*
X02411Y00208D02*
X02473Y00202D01*
X02555Y00191*
X02336Y00212D02*
X02411Y00208D01*
X-0115Y00186D02*
X-01062Y00171D01*
X-00859Y00125D02*
X-00747Y00094D01*
X00224Y-00075D02*
X00327Y-00043D01*
X01102Y00178D02*
X012Y00193D01*
X-01566Y00216D02*
X-01445Y00213D01*
X-02055Y00214D02*
X-01762Y00216D01*
X-02281Y00213D02*
X-02055Y00214D01*
X-02556Y00191D02*
X-02444Y00206D01*
X-00962Y0015D02*
X-00859Y00125D01*
X-01241Y00197D02*
X-0115Y00186D01*
X00053Y-00114D02*
X00094Y-00108D01*
X00915Y0014D02*
X01011Y00161D01*
X01943Y00215D02*
X02178Y00214D01*
X01517Y00215D02*
X0167Y00216D01*
X01299Y00203D02*
X01403Y00211D01*
X02178Y00214D02*
X02336Y00212D01*
X-00304Y-00051D02*
X-00219Y-00077D01*
X-00623Y00055D02*
X-00424Y-00011D01*
X01011Y00161D02*
X01102Y00178D01*
X00683Y00075D02*
X00809Y00112D01*
X00327Y-00043D02*
X00554Y00033D01*
G54D24*
X02711Y-00547D03*
Y00172D03*
X-02711D03*
Y-00547D03*
G54D25*
X00261Y-00622D03*
X-0026D03*
G54D26*
X-00416Y-01005D03*
X-00434Y-01073D03*
X-00502Y-01055D03*
X-00484Y-00986D03*
G54D27*
X0051Y-0097D03*
X00355Y-01026D03*
X00534Y-01036D03*
X00379Y-01093D03*
G54D28*
X-0246Y00006D03*
X-02704Y00076D03*
X-00234Y-00178D03*
X02568Y00138D03*
X00212Y-00184D03*
X00216Y-00154D03*
X02565Y00005D03*
X00234Y-00498D03*
X02725Y-00095D03*
X-00234Y-00242D03*
X00144Y-00367D03*
X00161Y-00386D03*
X0019Y-00344D03*
X00111Y-0035D03*
X0013Y-00304D03*
Y-00278D03*
X0011Y-0026D03*
X0012Y-0038D03*
X02624Y00192D03*
X0261Y00245D03*
X0264Y0024D03*
X02585Y0026D03*
X02726Y00028D03*
X0295Y-0017D03*
X0289Y-0005D03*
X0283Y-0017D03*
X0289Y-0029D03*
X0283Y-0041D03*
X0289Y-0053D03*
X0283Y-0065D03*
X0277Y-0029D03*
X0271Y-0065D03*
X0259D03*
X0037Y-0077D03*
X-00229Y-0053D03*
X-00349D03*
Y-0077D03*
X-00409Y-0089D03*
Y-0113D03*
X-00529D03*
X-02569Y-0065D03*
X-02629Y-0029D03*
X-02689Y-0065D03*
X-02809Y0007D03*
X-02749Y-0005D03*
X-02809Y-0017D03*
Y-0065D03*
X-02869Y0019D03*
X-02929Y0007D03*
X-02869Y-0005D03*
X-02929Y-0017D03*
Y-0065D03*
X00096Y-00194D03*
X-00036Y-0019D03*
X00072Y-0021D03*
X-0256Y-00008D03*
X00032Y-00352D03*
X-00034Y-00286D03*
Y-00352D03*
X00032Y-00286D03*
X-001Y-0054D03*
X-00072Y-00528D03*
X-00128Y-00534D03*
X0011Y-00324D03*
X00187Y-0039D03*
X00338Y-00154D03*
X0031Y-00156D03*
X0028Y-00158D03*
X0024Y-00141D03*
X00273Y-0013D03*
X00078Y-00244D03*
X00068Y-00516D03*
X-00128Y-00248D03*
X-00117Y-00013D03*
X-00202Y-0013D03*
X00004Y-00562D03*
X00306Y-00484D03*
X-00106Y-0042D03*
X-00108Y-0046D03*
X-00168Y-00362D03*
X-00194Y-0039D03*
X-00178Y-00326D03*
X-00218Y-0034D03*
X-01175Y00135D03*
X02525Y-00005D03*
X-00053Y-00066D03*
X-00026Y-00049D03*
X02485Y0D03*
X02655Y0003D03*
X02685Y00025D03*
X00179Y-00072D03*
X027Y-0006D03*
X00074Y-00021D03*
X00105Y-0055D03*
X0267Y00265D03*
X0259Y-00255D03*
X-02655Y0006D03*
X-02635Y-0015D03*
X-0262Y00175D03*
X-02555Y0013D03*
X-02609Y00245D03*
X-0263Y0022D03*
X-02584Y0026D03*
X-02649Y00265D03*
M02*