%FSTAX23Y23*%
%MOIN*%
%SFA1B1*%

%IPPOS*%
%AMD49*
4,1,8,0.017700,-0.012800,0.017700,0.012800,0.008900,0.021700,-0.008900,0.021700,-0.017700,0.012800,-0.017700,-0.012800,-0.008900,-0.021700,0.008900,-0.021700,0.017700,-0.012800,0.0*
1,1,0.017720,0.008900,-0.012800*
1,1,0.017720,0.008900,0.012800*
1,1,0.017720,-0.008900,0.012800*
1,1,0.017720,-0.008900,-0.012800*
%
%ADD12C,0.010000*%
%ADD14C,0.006000*%
%ADD31R,0.011810X0.039370*%
%ADD32R,0.070870X0.068900*%
%ADD33R,0.040000X0.060000*%
%ADD34R,0.022000X0.023620*%
%ADD35R,0.017720X0.017720*%
%ADD36R,0.015750X0.017720*%
%ADD37R,0.031500X0.015750*%
%ADD38R,0.035430X0.039370*%
%ADD39R,0.060000X0.040000*%
%ADD40R,0.021650X0.021650*%
%ADD41C,0.014000*%
%ADD42C,0.020000*%
%ADD43C,0.012000*%
%ADD44C,0.064960*%
%ADD45R,0.064960X0.064960*%
%ADD46O,0.055120X0.078740*%
%ADD47O,0.078740X0.055120*%
%ADD48C,0.047240*%
G04~CAMADD=49~8~0.0~0.0~433.1~354.3~88.6~0.0~15~0.0~0.0~0.0~0.0~0~0.0~0.0~0.0~0.0~0~0.0~0.0~0.0~270.0~356.0~433.0*
%ADD49D49*%
%ADD50C,0.023620*%
%LNfront_flex_dev_board-1*%
%LPD*%
G54D12*
X00055Y0025D02*
X0006Y00244D01*
X01335Y0028D02*
X01352D01*
X01377Y00254*
X014Y00245D02*
X01405D01*
X01398Y00243D02*
X014Y00245D01*
X01377Y00235D02*
Y00254D01*
X01372Y0023D02*
X01377Y00235D01*
X01372Y0023D02*
X01378Y00224D01*
Y00202D02*
Y00224D01*
Y00202D02*
X01379Y00201D01*
X01303Y00293D02*
Y00358D01*
X01305Y0036*
X01335Y00279D02*
X01335Y0028D01*
X01316Y00279D02*
X01335D01*
X01303Y00293D02*
X01316Y00279D01*
X00155Y0008D02*
X00157D01*
X00139Y00062D02*
X00157Y0008D01*
X0016Y0023D02*
X00165Y00235D01*
X0016Y0021D02*
Y0023D01*
X00159Y00209D02*
X0016Y0021D01*
X00159Y00201D02*
Y00209D01*
X014Y0005D02*
X0142D01*
X01398Y00048D02*
X014Y0005D01*
X01304Y00361D02*
Y0041D01*
X01295Y0042D02*
X01304Y0041D01*
X01398Y00201D02*
Y00243D01*
X00159Y00079D02*
X0016Y0008D01*
X00159Y00048D02*
Y00079D01*
Y00048D02*
X00159Y00048D01*
X00245Y0033D02*
X0029D01*
X00198Y00283D02*
X00245Y0033D01*
X00198Y00201D02*
Y00283D01*
X0006Y00202D02*
Y00244D01*
Y00202D02*
X00061Y00201D01*
X00139Y00048D02*
Y00062D01*
X00045Y00075D02*
X00061Y00058D01*
Y00048D02*
Y00058D01*
X01385Y00745D02*
X01388Y00741D01*
X0077Y0032D02*
X00775Y00315D01*
X00735Y0032D02*
X0077D01*
X00725Y0033D02*
X00735Y0032D01*
X00725Y0033D02*
Y0033D01*
X00043Y0082D02*
X0005D01*
X00027Y00804D02*
X00043Y0082D01*
X01378Y00746D02*
X01388D01*
X01345Y0078D02*
X01378Y00746D01*
X0132Y0078D02*
X01345D01*
X0139Y00746D02*
X01415D01*
X01388Y00741D02*
Y00746D01*
X01415D02*
X01441D01*
X01Y00568D02*
Y006D01*
X00465Y0042D02*
X00466Y00421D01*
Y0045*
G54D14*
X0136Y0006D02*
Y0009D01*
X01365Y00095*
X00034Y0019D02*
X00085Y00139D01*
X00133*
X0014Y00146D02*
X00163D01*
X00133Y00139D02*
X0014Y00146D01*
X00125Y0016D02*
Y00165D01*
X0013Y0017*
X01424Y00835D02*
X01435Y00825D01*
X00857Y00782D02*
X0091Y00835D01*
X01424*
X0141Y00815D02*
X01415Y0082D01*
X0122Y0039D02*
X01225Y00385D01*
X01275Y00395D02*
X0128D01*
X01261Y00408D02*
X01275Y00395D01*
X01225Y00385D02*
X01245D01*
X01158Y00408D02*
X01261D01*
X01095Y00345D02*
X01158Y00408D01*
X0068Y00475D02*
X00695D01*
X00288Y004D02*
X00306Y00382D01*
X00185Y004D02*
X00288D01*
X00306Y00382D02*
X00449D01*
X00655Y00362D02*
X00695Y00402D01*
X00444Y0037D02*
X00452Y00362D01*
X00449Y00382D02*
X00457Y00374D01*
X00593*
X00452Y00362D02*
X00655D01*
X00605Y004D02*
X0068Y00475D01*
X00605Y00386D02*
Y004D01*
X00593Y00374D02*
X00605Y00386D01*
X00585Y00395D02*
Y00495D01*
X00034Y0019D02*
Y00258D01*
X00041Y00265D02*
Y00461D01*
X00034Y00258D02*
X00041Y00265D01*
X01274Y00249D02*
X013Y00223D01*
X01274Y00249D02*
Y00294D01*
X0128Y003*
X01295Y00265D02*
X01297Y00262D01*
Y00243D02*
Y00262D01*
Y00243D02*
X01316Y00224D01*
X01317Y00217D02*
Y00224D01*
X01316D02*
X01317D01*
X01345Y0033D02*
Y00335D01*
Y0033D02*
X0135Y00325D01*
X0134Y0005D02*
Y00105D01*
X0009Y00085D02*
X00098Y00076D01*
X0009Y00085D02*
X0009D01*
X00098Y0005D02*
Y00076D01*
Y0005D02*
X001Y00048D01*
X0012Y00073D02*
X0013Y00083D01*
X00124D02*
X0013D01*
X00163Y00146D02*
X002Y0011D01*
Y00063D02*
Y0011D01*
X0013Y0017D02*
X00133Y00167D01*
X00092Y00577D02*
X00115Y006D01*
X00138*
X0014Y00598D02*
X00438D01*
X00138Y006D02*
X0014Y00598D01*
X0013Y00305D02*
X0014D01*
X0013Y00304D02*
X0013Y00305D01*
X00265Y00055D02*
Y0007D01*
X0031Y00115*
X00589Y00116D02*
X01005D01*
X01011Y0011D02*
X0114D01*
X01005Y00116D02*
X01011Y0011D01*
X0128Y00125D02*
X0132Y00085D01*
Y00055D02*
Y00085D01*
X0118Y00125D02*
X0128D01*
X01095Y0021D02*
X0118Y00125D01*
X01305Y0014D02*
X0134Y00105D01*
X0122Y0014D02*
X01305D01*
X0113Y0023D02*
X0122Y0014D01*
X01034Y00019D02*
X01038Y00015D01*
X00993Y0006D02*
X01026Y00027D01*
X01027D02*
X01035Y0002D01*
X01026Y00027D02*
X01027D01*
X00955Y0006D02*
X00993D01*
X01374Y00025D02*
X01383Y00035D01*
X01374Y00024D02*
Y00025D01*
X01364Y00015D02*
X01374Y00024D01*
X01038Y00015D02*
X01364D01*
X01157Y0039D02*
X0122D01*
X01325Y00245D02*
X0134Y0023D01*
Y0021D02*
Y0023D01*
X01317Y00217D02*
X0132Y00215D01*
X01355Y0022D02*
Y00245D01*
Y0022D02*
X0136Y00215D01*
Y0021D02*
Y00215D01*
X01326Y00302D02*
X01327Y00301D01*
X013Y0022D02*
Y00223D01*
X01327Y00301D02*
X01371D01*
X014Y0033*
X0031Y00115D02*
X0045D01*
X00133Y00167D02*
X00159D01*
X00161Y00165*
X0021*
X00275Y0023*
X00175Y0039D02*
X00185Y004D01*
X00147Y0036D02*
X00176Y00388D01*
X00141Y0036D02*
X00147D01*
X00095Y00415D02*
Y0042D01*
X00189Y0038D02*
X0029D01*
X003Y0037D02*
X00301Y0037D01*
X0029Y0038D02*
X003Y0037D01*
X00301D02*
X00444D01*
X00157Y00348D02*
X00189Y0038D01*
X00116Y00221D02*
Y00292D01*
Y00221D02*
X00117Y0022D01*
Y00212D02*
Y0022D01*
Y00212D02*
X0012Y0021D01*
X00103Y00204D02*
Y00229D01*
X001Y00201D02*
X00103Y00204D01*
X00111Y00297D02*
X00116Y00292D01*
X00099Y00292D02*
X00104Y00287D01*
Y00229D02*
Y00287D01*
X00103Y00229D02*
X00104Y00229D01*
X0013Y00304D02*
X00139Y00294D01*
Y00201D02*
Y00294D01*
X00146Y00348D02*
X00157D01*
X00111Y00312D02*
X00146Y00348D01*
X00099Y00317D02*
X00141Y0036D01*
X00099Y00292D02*
Y00317D01*
X00111Y00297D02*
Y00312D01*
X00041Y00461D02*
X00045Y00465D01*
X00198Y00062D02*
X002Y00063D01*
X00198Y00048D02*
Y00062D01*
X0012Y00048D02*
Y00073D01*
X00274Y00019D02*
X0028Y00025D01*
X0009Y00019D02*
X00274D01*
X00085Y00024D02*
X0009Y00019D01*
X00085Y00024D02*
Y00029D01*
X00083Y00031D02*
X00085Y00029D01*
X00083Y00031D02*
Y00031D01*
X0008Y00035D02*
X00083Y00031D01*
X0008Y00035D02*
X0008D01*
X002Y0045D02*
X00231D01*
X00044Y0076D02*
X00087D01*
X0056Y00145D02*
X00589Y00116D01*
X00261Y00721D02*
X0032Y0078D01*
X00073Y00721D02*
X00261D01*
X00054Y00702D02*
X00073Y00721D01*
X00041Y00702D02*
X00054D01*
X00027Y00687D02*
X00041Y00702D01*
X00027Y00685D02*
Y00687D01*
X00173Y00733D02*
X0022Y0078D01*
X00049Y00733D02*
X00173D01*
X00044Y00729D02*
X00049Y00733D01*
X00035Y0076D02*
X00044D01*
X00107Y0078D02*
X0012D01*
X00087Y0076D02*
X00107Y0078D01*
X00035Y0076D02*
X00035Y0076D01*
X00044*
X01413Y00821D02*
X01415Y0082D01*
X00961Y00821D02*
X01413D01*
X01435Y00795D02*
Y00825D01*
X01415Y00775D02*
X01435Y00795D01*
X0092Y0078D02*
X00961Y00821D01*
X01325Y00733D02*
X01345Y00713D01*
X00766Y00733D02*
X01325D01*
X0144Y00645D02*
X01441Y00646D01*
Y00713*
X01415Y00685D02*
Y00713D01*
X00822Y00782D02*
X00857D01*
X0082Y0078D02*
X00822Y00782D01*
X0072Y0078D02*
X00766Y00733D01*
X01001Y00721D02*
X01078D01*
X00978Y00698D02*
X01001Y00721D01*
X01078D02*
X0112Y0068D01*
X01345Y00713D02*
X01388D01*
X01002Y0021D02*
X01095D01*
X00974Y00182D02*
X01002Y0021D01*
X00972Y00182D02*
X00974D01*
X00963Y00173D02*
X00972Y00182D01*
X00963Y00171D02*
Y00173D01*
X0102Y00665D02*
X01075Y0061D01*
X0102Y00665D02*
Y0068D01*
X01Y0043D02*
Y00522D01*
X009Y00385D02*
X00955D01*
X01Y0043*
X00892Y00175D02*
X0091D01*
X00875Y00158D02*
X00892Y00175D01*
X00875Y00155D02*
Y00158D01*
X00585Y00495D02*
X006Y0051D01*
X00092Y00557D02*
Y00577D01*
X00075Y0054D02*
X00092Y00557D01*
X00063Y0054D02*
X00075D01*
X00503Y0045D02*
Y00551D01*
X00492Y00563D02*
X00503Y00551D01*
X00491Y00563D02*
X00492D01*
X00475Y0058D02*
X00491Y00563D01*
X0052Y0059D02*
X006Y0051D01*
X0055Y00605D02*
X0062Y00675D01*
Y0068*
X00063Y0054D02*
X0008Y00523D01*
X00085Y0051D02*
X0021D01*
X00438Y00598D02*
X00455Y00615D01*
X0013Y0058D02*
X00145Y00565D01*
X0056Y0023D02*
X0113D01*
X00695Y00402D02*
Y00405D01*
X00565Y00055D02*
X0087D01*
X006Y0006D02*
X0061Y0007D01*
X0056Y0006D02*
X006D01*
X00948Y00559D02*
Y00625D01*
X0096Y00497D02*
Y0062D01*
X00936Y00547D02*
X00948Y00559D01*
X00936Y00546D02*
Y00547D01*
X00948Y00625D02*
X00978Y00655D01*
X009Y00511D02*
X00901D01*
X0096Y0062D02*
X0102Y0068D01*
X00901Y00511D02*
X00936Y00546D01*
X00911Y00448D02*
X0096Y00497D01*
X00535Y00615D02*
X00622Y00527D01*
X00145Y0054D02*
Y00565D01*
X00475Y0058D02*
Y0058D01*
X00978Y00655D02*
Y00698D01*
X009Y00448D02*
X00911D01*
X01117Y00556D02*
X0115Y00523D01*
X01117Y00556D02*
Y00677D01*
X0112Y0068*
X0115Y0047D02*
Y00523D01*
X01145Y00575D02*
X0115Y0057D01*
X01098Y00522D02*
X011Y0052D01*
X01Y00522D02*
X01098D01*
X01355Y00585D02*
X01374Y00565D01*
X01165Y00585D02*
X01355D01*
X0115Y0057D02*
X01165Y00585D01*
X01374Y00557D02*
Y00565D01*
Y00557D02*
X01391Y0054D01*
X014*
X0115Y0047D02*
X0125D01*
X01294Y00514*
Y00523*
X013*
X01317Y0054*
X0132*
X0135Y00325D02*
Y0045D01*
X0134Y0046D02*
X0135Y0045D01*
X0132Y0046D02*
X0134D01*
X014Y0033D02*
Y0046D01*
X0084Y0033D02*
X01095D01*
X01098Y00333*
X01099*
X01157Y0039*
X00775Y00475D02*
X008D01*
X00842Y00345D02*
X01095D01*
X0035Y00529D02*
X00351Y00528D01*
Y0051D02*
Y00528D01*
X00459Y00565D02*
X00475Y0058D01*
X00315Y00565D02*
X00459D01*
X0017D02*
X00315D01*
X0034Y00539D02*
X0035Y00529D01*
X00315Y00565D02*
X0034Y00539D01*
X00455Y00615D02*
X00535D01*
X00622Y00527D02*
X00623D01*
X0064Y0051*
Y0051D02*
Y0051D01*
X00419Y00454D02*
X00475Y0051D01*
X00272Y00454D02*
X00419D01*
X00268Y0045D02*
X00272Y00454D01*
X00268Y0045D02*
Y0051D01*
Y0045D02*
Y0045D01*
X00724Y00049D02*
X00725D01*
X00692Y0008D02*
X00724Y00049D01*
X00692Y0008D02*
Y00081D01*
X0077Y00381D02*
Y0039D01*
X00795Y00375D02*
X0084Y0033D01*
X0087Y00055D02*
X00875Y0006D01*
X00454Y00034D02*
X00463D01*
X00445Y00025D02*
X00454Y00034D01*
X0028Y00025D02*
X00445D01*
X0056Y0006D02*
X00565Y00055D01*
X00268Y0051D02*
X00273Y00515D01*
X0077Y00485D02*
X00775D01*
X008Y00475D02*
X00825Y0045D01*
Y00362D02*
Y0045D01*
Y00362D02*
X00842Y00345D01*
X00095Y0042D02*
X00109Y00434D01*
X00275Y0023D02*
X0048D01*
X0045Y00115D02*
X00454Y00119D01*
X00463*
X0048Y00136*
Y00145*
X00463Y00034D02*
X0048Y00051D01*
Y0006*
X00145Y0054D02*
X0017Y00565D01*
X0021Y00515D02*
X00225D01*
X00135Y0054D02*
X00145D01*
X0008Y00514D02*
X00085Y0051D01*
X0008Y00514D02*
Y00523D01*
X00109Y00434D02*
Y00443D01*
X00126Y0046*
X00135*
G54D31*
X00198Y00201D03*
Y00048D03*
X00179Y00201D03*
Y00048D03*
X00159Y00201D03*
Y00048D03*
X00139Y00201D03*
Y00048D03*
X0012Y00201D03*
Y00048D03*
X001Y00201D03*
Y00048D03*
X0008Y00201D03*
Y00048D03*
X00061Y00201D03*
Y00048D03*
X01261D03*
Y00201D03*
X0128Y00048D03*
Y00201D03*
X013Y00048D03*
Y00201D03*
X0132Y00048D03*
Y00201D03*
X01339Y00048D03*
Y00201D03*
X01359Y00048D03*
Y00201D03*
X01379Y00048D03*
Y00201D03*
X01398Y00048D03*
Y00201D03*
G54D32*
X00725Y0033D03*
Y00049D03*
G54D33*
X00775Y00485D03*
X00695D03*
X00775Y00405D03*
X00695D03*
X00875Y00155D03*
X00955D03*
X00875Y0006D03*
X00955D03*
X0048D03*
X0056D03*
X0048Y00145D03*
X0056D03*
X0048Y0023D03*
X0056D03*
G54D34*
X00268Y0045D03*
X00231D03*
X00466D03*
X00503D03*
G54D35*
X01388Y00713D03*
X01441D03*
Y00746D03*
X01388D03*
G54D36*
X01415Y00713D03*
Y00746D03*
G54D37*
X00044Y00729D03*
Y0076D03*
G54D38*
X00027Y00804D03*
Y00685D03*
G54D39*
X00065Y0046D03*
Y0054D03*
X00145D03*
Y0046D03*
X0132Y0054D03*
Y0046D03*
X014D03*
Y0054D03*
G54D40*
X01Y00522D03*
Y00568D03*
G54D41*
X0115Y00424D02*
X0129D01*
X01145Y0042D02*
X0115Y00424D01*
X0129D02*
X01295Y0042D01*
X01039D02*
X01145D01*
X00144Y00394D02*
X0015D01*
X0008Y00232D02*
X00085Y00237D01*
X0008Y00228D02*
Y00232D01*
Y00228D02*
X00081Y00226D01*
X0008Y0022D02*
X00081Y00221D01*
Y00226*
G54D42*
X00015Y00169D02*
X00073Y00111D01*
X00015Y00169D02*
Y00266D01*
X0002Y00271D02*
Y0043D01*
X00015Y00266D02*
X0002Y00271D01*
X00142Y00112D02*
X00145Y0011D01*
X00083Y00112D02*
X00142D01*
X00081Y00111D02*
X00083Y00112D01*
X00073Y00111D02*
X00081D01*
X00019Y00566D02*
X00072Y00619D01*
X00146*
X00148Y00617D02*
X00426D01*
X00146Y00619D02*
X00148Y00617D01*
X01235Y00195D02*
X01258D01*
X0128Y00077D02*
X0128Y00076D01*
X0128Y00077D02*
Y0009D01*
X0008Y0033D02*
X00144Y00394D01*
X00165Y00235D02*
Y00285D01*
X00231Y00351D02*
X00298D01*
X00165Y00285D02*
X00231Y00351D01*
X00298D02*
X00304Y00345D01*
X0008Y00284D02*
X00085Y00279D01*
Y00237D02*
Y00279D01*
X0008Y00284D02*
Y0033D01*
X0015Y00395D02*
X00177Y00422D01*
X00293*
X003Y00415*
X00385*
X0015Y00395D02*
X0015Y00394D01*
X00795Y00545D02*
Y0057D01*
X0072Y00645D02*
X00795Y0057D01*
X0072Y00645D02*
Y0068D01*
X00304Y00345D02*
X0044D01*
X00465Y0032*
X00019Y00431D02*
X0002Y0043D01*
X00019Y00431D02*
Y00566D01*
X00426Y00617D02*
X00442Y00634D01*
X00473*
X0052Y0068*
X00825Y00585D02*
X0092Y0068D01*
X00825Y00585D02*
Y00585D01*
G54D43*
X00165Y0011D02*
X00184Y0009D01*
Y00076D02*
Y0009D01*
X0018Y00065D02*
Y00072D01*
X00184Y00076*
X00145Y0011D02*
X00165D01*
X0018Y00065D02*
X0018Y00065D01*
G54D44*
X0132Y0078D03*
Y0068D03*
X0122Y0078D03*
Y0068D03*
X0112Y0078D03*
Y0068D03*
X0102Y0078D03*
Y0068D03*
X0092Y0078D03*
Y0068D03*
X0082Y0078D03*
Y0068D03*
X0072Y0078D03*
Y0068D03*
X0062Y0078D03*
Y0068D03*
X0052Y0078D03*
Y0068D03*
X0042Y0078D03*
Y0068D03*
X0032Y0078D03*
Y0068D03*
X0022Y0078D03*
Y0068D03*
X0012Y0078D03*
G54D45*
X0012Y0068D03*
G54D46*
X00399Y00515D03*
X00336D03*
X00273D03*
X0021D03*
G54D47*
X009Y00385D03*
Y00448D03*
Y00511D03*
Y00574D03*
G54D48*
X012Y0052D03*
X0115Y0057D03*
X011Y0052D03*
X0115Y0047D03*
X01039Y00175D03*
X0039D03*
X0039Y0006D03*
X0104D03*
X01039Y0029D03*
X0039D03*
G54D49*
X00475Y0051D03*
X0064D03*
X00475Y0058D03*
X0064D03*
G54D50*
X00285Y0032D03*
X01365Y00095D03*
X00125Y0016D03*
X0141Y00815D03*
X0128Y00395D03*
X01245Y00385D03*
X00585Y00395D03*
X00055Y0025D03*
X01405Y00245D03*
X01295Y00265D03*
X01345Y00335D03*
X00155Y0008D03*
X00094Y00085D03*
X00124Y00083D03*
X00145Y0011D03*
X0014Y00305D03*
X00265Y00055D03*
X0142Y0005D03*
X01235Y00195D03*
X0114Y0011D03*
X0128Y0009D03*
X01325Y00245D03*
X01355D03*
X01326Y00302D03*
X0128Y003D03*
X00095Y00415D03*
X00045Y00075D03*
X00385Y00415D03*
X002Y0045D03*
X00775Y00315D03*
X0005Y0082D03*
X0144Y00645D03*
X01415Y00685D03*
Y00775D03*
X01039Y0042D03*
X01075Y0061D03*
X0091Y00175D03*
X00795Y00545D03*
X0052Y0059D03*
X0013Y0058D03*
X0061Y0007D03*
X00825Y00585D03*
X01Y006D03*
X00465Y0032D03*
Y0042D03*
M02*