%FSTAX23Y23*%
%MOIN*%
%SFA1B1*%

%IPPOS*%
%ADD9500C,0.011810*%
%ADD9501C,0.027560*%
%ADD9502C,0.031500*%
%ADD9503C,0.039370*%
%ADD9504C,0.043310*%
%LNfront_flex_dev_board-roundholes-1*%
%LPD*%
G54D9500*
X00045Y00075D03*
X00094Y00085D03*
X00124Y00083D03*
X00155Y0008D03*
X00145Y0011D03*
X00125Y0016D03*
X00055Y0025D03*
X0014Y00305D03*
X00095Y00415D03*
X002Y0045D03*
X0013Y0058D03*
X0052Y0059D03*
X00465Y0042D03*
X00385Y00415D03*
X00465Y0032D03*
X00285D03*
X00265Y00055D03*
X0061Y0007D03*
X00585Y00395D03*
X00775Y00315D03*
X00795Y00545D03*
X00825Y00585D03*
X01Y006D03*
X01075Y0061D03*
X01039Y0042D03*
X01245Y00385D03*
X0128Y00395D03*
Y003D03*
X01326Y00302D03*
X01345Y00335D03*
X01355Y00245D03*
X01325D03*
X01295Y00265D03*
X01405Y00245D03*
X01365Y00095D03*
X0128Y0009D03*
X01235Y00195D03*
X0114Y0011D03*
X0091Y00175D03*
X0142Y0005D03*
X0144Y00645D03*
X01415Y00685D03*
Y00775D03*
X0141Y00815D03*
X0005Y0082D03*
G54D9501*
X0115Y0047D03*
X012Y0052D03*
X0115Y0057D03*
X011Y0052D03*
G54D9502*
X0039Y0006D03*
X0039Y00175D03*
Y0029D03*
X01039D03*
Y00175D03*
X0104Y0006D03*
G54D9503*
X0021Y00515D03*
X00273D03*
X00336D03*
X00399D03*
X009Y00511D03*
Y00574D03*
Y00448D03*
Y00385D03*
G54D9504*
X0012Y0068D03*
X0022D03*
X0032D03*
X0042D03*
X0052D03*
X0062D03*
X0072D03*
X0082D03*
X0092D03*
X0102D03*
X0112D03*
X0122D03*
X0132D03*
Y0078D03*
X0122D03*
X0112D03*
X0102D03*
X0092D03*
X0082D03*
X0072D03*
X0062D03*
X0052D03*
X0042D03*
X0032D03*
X0022D03*
X0012D03*
M02*