%FSTAX23Y23*%
%MOIN*%
%SFA1B1*%

%IPPOS*%
%ADD10C,0.007870*%
%ADD11C,0.003940*%
%ADD12C,0.010000*%
%ADD13C,0.008000*%
%ADD14C,0.006000*%
%LNfront_flex_dev_board-1*%
%LPD*%
G54D10*
X00204Y00239D02*
D01*
X00204Y00239*
X00204Y00239*
X00204Y00239*
X00204Y00239*
X00204Y00239*
X00204Y00239*
X00204Y0024*
X00204Y0024*
X00204Y0024*
X00204Y0024*
X00204Y0024*
X00204Y0024*
X00204Y0024*
X00203Y0024*
X00203Y0024*
X00203Y0024*
X00203Y0024*
X00203Y00241*
X00203Y00241*
X00203Y00241*
X00203Y00241*
X00202Y00241*
X00202*
X00202Y00241*
X00202Y00241*
X00202Y00241*
X00202Y00241*
X00202Y0024*
X00201Y0024*
X00201Y0024*
X00201Y0024*
X00201Y0024*
X00201Y0024*
X00201Y0024*
X00201Y0024*
X00201Y0024*
X00201Y0024*
X00201Y0024*
X00201Y00239*
X002Y00239*
X002Y00239*
X002Y00239*
X002Y00239*
X002Y00239*
X002Y00239*
D01*
X002Y00239*
X002Y00238*
X002Y00238*
X002Y00238*
X002Y00238*
X00201Y00238*
X00201Y00238*
X00201Y00238*
X00201Y00238*
X00201Y00237*
X00201Y00237*
X00201Y00237*
X00201Y00237*
X00201Y00237*
X00201Y00237*
X00201Y00237*
X00202Y00237*
X00202Y00237*
X00202Y00237*
X00202Y00237*
X00202Y00237*
X00202Y00237*
X00202*
X00203Y00237*
X00203Y00237*
X00203Y00237*
X00203Y00237*
X00203Y00237*
X00203Y00237*
X00203Y00237*
X00203Y00237*
X00204Y00237*
X00204Y00237*
X00204Y00237*
X00204Y00237*
X00204Y00238*
X00204Y00238*
X00204Y00238*
X00204Y00238*
X00204Y00238*
X00204Y00238*
X00204Y00238*
X00204Y00238*
X00204Y00239*
X00204Y00239*
D01*
X00204Y00239*
X00204Y00239*
X00204Y00239*
X00204Y00239*
X00204Y00239*
X00204Y00239*
X00204Y0024*
X00204Y0024*
X00204Y0024*
X00204Y0024*
X00204Y0024*
X00204Y0024*
X00204Y0024*
X00203Y0024*
X00203Y0024*
X00203Y0024*
X00203Y0024*
X00203Y00241*
X00203Y00241*
X00203Y00241*
X00203Y00241*
X00202Y00241*
X00202*
X00202Y00241*
X00202Y00241*
X00202Y00241*
X00202Y00241*
X00202Y0024*
X00201Y0024*
X00201Y0024*
X00201Y0024*
X00201Y0024*
X00201Y0024*
X00201Y0024*
X00201Y0024*
X00201Y0024*
X00201Y0024*
X00201Y0024*
X00201Y00239*
X002Y00239*
X002Y00239*
X002Y00239*
X002Y00239*
X002Y00239*
X002Y00239*
X01255Y0001D02*
D01*
X01255Y0001*
X01255Y0001*
X01255Y0001*
X01255Y0001*
X01255Y0001*
X01255Y0001*
X01255Y00009*
X01255Y00009*
X01255Y00009*
X01255Y00009*
X01255Y00009*
X01255Y00009*
X01255Y00009*
X01256Y00009*
X01256Y00009*
X01256Y00009*
X01256Y00009*
X01256Y00008*
X01256Y00008*
X01256Y00008*
X01256Y00008*
X01257Y00008*
X01257*
X01257Y00008*
X01257Y00008*
X01257Y00008*
X01257Y00008*
X01257Y00009*
X01258Y00009*
X01258Y00009*
X01258Y00009*
X01258Y00009*
X01258Y00009*
X01258Y00009*
X01258Y00009*
X01258Y00009*
X01258Y00009*
X01258Y00009*
X01258Y0001*
X01259Y0001*
X01259Y0001*
X01259Y0001*
X01259Y0001*
X01259Y0001*
X01259Y0001*
D01*
X01259Y0001*
X01259Y00011*
X01259Y00011*
X01259Y00011*
X01259Y00011*
X01258Y00011*
X01258Y00011*
X01258Y00011*
X01258Y00011*
X01258Y00012*
X01258Y00012*
X01258Y00012*
X01258Y00012*
X01258Y00012*
X01258Y00012*
X01258Y00012*
X01257Y00012*
X01257Y00012*
X01257Y00012*
X01257Y00012*
X01257Y00012*
X01257Y00012*
X01257*
X01256Y00012*
X01256Y00012*
X01256Y00012*
X01256Y00012*
X01256Y00012*
X01256Y00012*
X01256Y00012*
X01256Y00012*
X01255Y00012*
X01255Y00012*
X01255Y00012*
X01255Y00012*
X01255Y00011*
X01255Y00011*
X01255Y00011*
X01255Y00011*
X01255Y00011*
X01255Y00011*
X01255Y00011*
X01255Y00011*
X01255Y0001*
X01255Y0001*
D01*
X01255Y0001*
X01255Y0001*
X01255Y0001*
X01255Y0001*
X01255Y0001*
X01255Y0001*
X01255Y00009*
X01255Y00009*
X01255Y00009*
X01255Y00009*
X01255Y00009*
X01255Y00009*
X01255Y00009*
X01256Y00009*
X01256Y00009*
X01256Y00009*
X01256Y00009*
X01256Y00008*
X01256Y00008*
X01256Y00008*
X01256Y00008*
X01257Y00008*
X01257*
X01257Y00008*
X01257Y00008*
X01257Y00008*
X01257Y00008*
X01257Y00009*
X01258Y00009*
X01258Y00009*
X01258Y00009*
X01258Y00009*
X01258Y00009*
X01258Y00009*
X01258Y00009*
X01258Y00009*
X01258Y00009*
X01258Y00009*
X01258Y0001*
X01259Y0001*
X01259Y0001*
X01259Y0001*
X01259Y0001*
X01259Y0001*
X01259Y0001*
X0012Y00829D02*
X01366D01*
Y0063D02*
Y00829D01*
X00073Y0063D02*
X01366D01*
X00073D02*
Y0068D01*
G54D11*
X00669Y00087D02*
D01*
X00669Y00087*
X00669Y00088*
X00669Y00088*
X00669Y00088*
X00669Y00088*
X00669Y00088*
X00669Y00088*
X00669Y00088*
X00669Y00088*
X00669Y00089*
X00669Y00089*
X00669Y00089*
X00669Y00089*
X00669Y00089*
X00668Y00089*
X00668Y00089*
X00668Y00089*
X00668Y00089*
X00668Y00089*
X00668Y00089*
X00668Y00089*
X00668Y00089*
X00667*
X00667Y00089*
X00667Y00089*
X00667Y00089*
X00667Y00089*
X00667Y00089*
X00667Y00089*
X00666Y00089*
X00666Y00089*
X00666Y00089*
X00666Y00089*
X00666Y00089*
X00666Y00089*
X00666Y00088*
X00666Y00088*
X00666Y00088*
X00666Y00088*
X00666Y00088*
X00666Y00088*
X00666Y00088*
X00665Y00088*
X00665Y00087*
X00665Y00087*
X00665Y00087*
X00665Y00087*
X00666Y00087*
X00666Y00087*
X00666Y00087*
X00666Y00086*
X00666Y00086*
X00666Y00086*
X00666Y00086*
X00666Y00086*
X00666Y00086*
X00666Y00086*
X00666Y00086*
X00666Y00086*
X00666Y00086*
X00667Y00086*
X00667Y00085*
X00667Y00085*
X00667Y00085*
X00667Y00085*
X00667Y00085*
X00667Y00085*
X00668*
X00668Y00085*
X00668Y00085*
X00668Y00085*
X00668Y00085*
X00668Y00085*
X00668Y00086*
X00668Y00086*
X00669Y00086*
X00669Y00086*
X00669Y00086*
X00669Y00086*
X00669Y00086*
X00669Y00086*
X00669Y00086*
X00669Y00086*
X00669Y00086*
X00669Y00087*
X00669Y00087*
X00669Y00087*
X00669Y00087*
X00669Y00087*
X00669Y00087*
X00237Y00069D02*
Y0018D01*
Y00069D02*
Y0018D01*
X00022Y00069D02*
Y0018D01*
Y00069D02*
Y0018D01*
X00228D02*
X00237D01*
X00228D02*
X00237D01*
X00022D02*
X00031D01*
X00022D02*
X00031D01*
X00022Y00069D02*
X00031D01*
X00022D02*
X00031D01*
X00228D02*
X00237D01*
X00228D02*
X00237D01*
X01222D02*
Y0018D01*
Y00069D02*
Y0018D01*
X01437Y00069D02*
Y0018D01*
Y00069D02*
Y0018D01*
X01222Y00069D02*
X01231D01*
X01222D02*
X01231D01*
X01428D02*
X01437D01*
X01428D02*
X01437D01*
X01428Y0018D02*
X01437D01*
X01428D02*
X01437D01*
X01222D02*
X01231D01*
X01222D02*
X01231D01*
X00803Y00186D02*
Y00193D01*
X00646Y00186D02*
Y00193D01*
G54D12*
X00058Y00684D02*
D01*
X00058Y00684*
X00058Y00684*
X00058Y00684*
X00058Y00684*
X00058Y00684*
X00058Y00684*
X00058Y00684*
X00058Y00685*
X00058Y00685*
X00058Y00685*
X00057Y00685*
X00057Y00685*
X00057Y00685*
X00057Y00685*
X00057Y00685*
X00057Y00685*
X00057Y00685*
X00057Y00685*
X00057Y00685*
X00057Y00685*
X00057Y00685*
X00057Y00685*
X00057*
X00057Y00685*
X00057Y00685*
X00057Y00685*
X00057Y00685*
X00057Y00685*
X00057Y00685*
X00057Y00685*
X00057Y00685*
X00057Y00685*
X00057Y00685*
X00057Y00685*
X00057Y00685*
X00057Y00685*
X00057Y00685*
X00057Y00684*
X00057Y00684*
X00057Y00684*
X00057Y00684*
X00057Y00684*
X00057Y00684*
X00057Y00684*
X00057Y00684*
X00057Y00684*
X00057Y00684*
X00057Y00684*
X00057Y00684*
X00057Y00684*
X00057Y00684*
X00057Y00684*
X00057Y00684*
X00057Y00684*
X00057Y00684*
X00057Y00684*
X00057Y00684*
X00057Y00684*
X00057Y00684*
X00057Y00684*
X00057Y00684*
X00057Y00684*
X00057Y00684*
X00057Y00684*
X00057Y00684*
X00057Y00684*
X00057Y00684*
X00057*
X00057Y00684*
X00057Y00684*
X00057Y00684*
X00057Y00684*
X00057Y00684*
X00057Y00684*
X00057Y00684*
X00057Y00684*
X00057Y00684*
X00057Y00684*
X00057Y00684*
X00058Y00684*
X00058Y00684*
X00058Y00684*
X00058Y00684*
X00058Y00684*
X00058Y00684*
X00058Y00684*
X00058Y00684*
X00058Y00684*
X00058Y00684*
X00058Y00684*
X0Y00781D02*
D01*
X-00002Y0078*
X-00004Y00778*
X-00007Y00777*
X-00009Y00775*
X-00011Y00773*
X-00013Y00772*
X-00015Y00769*
X-00016Y00767*
X-00018Y00765*
X-00019Y00763*
X-0002Y0076*
X-00021Y00758*
X-00022Y00755*
X-00023Y00752*
X-00023Y0075*
X-00024Y00747*
X-00024Y00744*
X-00023Y00741*
X-00023Y00739*
X-00023Y00736*
X-00022Y00733*
X-00021Y00731*
X-0002Y00728*
X-00019Y00726*
X-00017Y00723*
X-00016Y00721*
X-00014Y00719*
X-00012Y00717*
X-0001Y00715*
X-00008Y00713*
X-00006Y00712*
X-00004Y0071*
X-00001Y00709*
X0Y00708*
X00438Y00485D02*
D01*
X00438Y00485*
X00438Y00485*
X00438Y00485*
X00438Y00486*
X00438Y00486*
X00438Y00486*
X00438Y00486*
X00438Y00486*
X00438Y00486*
X00438Y00486*
X00438Y00486*
X00438Y00486*
X00438Y00487*
X00437Y00487*
X00437Y00487*
X00437Y00487*
X00437Y00487*
X00437Y00487*
X00437Y00487*
X00437Y00487*
X00437Y00487*
X00436Y00487*
X00436*
X00436Y00487*
X00436Y00487*
X00436Y00487*
X00436Y00487*
X00436Y00487*
X00436Y00487*
X00435Y00487*
X00435Y00487*
X00435Y00487*
X00435Y00486*
X00435Y00486*
X00435Y00486*
X00435Y00486*
X00435Y00486*
X00435Y00486*
X00435Y00486*
X00435Y00486*
X00434Y00486*
X00434Y00485*
X00434Y00485*
X00434Y00485*
X00434Y00485*
X00434Y00485*
X00434Y00485*
X00434Y00485*
X00434Y00484*
X00435Y00484*
X00435Y00484*
X00435Y00484*
X00435Y00484*
X00435Y00484*
X00435Y00484*
X00435Y00484*
X00435Y00484*
X00435Y00483*
X00435Y00483*
X00435Y00483*
X00436Y00483*
X00436Y00483*
X00436Y00483*
X00436Y00483*
X00436Y00483*
X00436Y00483*
X00436Y00483*
X00436*
X00437Y00483*
X00437Y00483*
X00437Y00483*
X00437Y00483*
X00437Y00483*
X00437Y00483*
X00437Y00483*
X00437Y00483*
X00438Y00483*
X00438Y00484*
X00438Y00484*
X00438Y00484*
X00438Y00484*
X00438Y00484*
X00438Y00484*
X00438Y00484*
X00438Y00484*
X00438Y00484*
X00438Y00485*
X00438Y00485*
X00438Y00485*
X00438Y00485*
X00872Y00348D02*
D01*
X00872Y00348*
X00872Y00348*
X00872Y00348*
X00872Y00348*
X00872Y00348*
X00872Y00348*
X00872Y00349*
X00872Y00349*
X00872Y00349*
X00871Y00349*
X00871Y00349*
X00871Y00349*
X00871Y00349*
X00871Y00349*
X00871Y00349*
X00871Y00349*
X00871Y00349*
X00871Y00349*
X0087Y0035*
X0087Y0035*
X0087Y0035*
X0087Y0035*
X0087*
X0087Y0035*
X0087Y0035*
X00869Y0035*
X00869Y00349*
X00869Y00349*
X00869Y00349*
X00869Y00349*
X00869Y00349*
X00869Y00349*
X00869Y00349*
X00869Y00349*
X00868Y00349*
X00868Y00349*
X00868Y00349*
X00868Y00349*
X00868Y00348*
X00868Y00348*
X00868Y00348*
X00868Y00348*
X00868Y00348*
X00868Y00348*
X00868Y00348*
X00868Y00347*
X00868Y00347*
X00868Y00347*
X00868Y00347*
X00868Y00347*
X00868Y00347*
X00868Y00347*
X00868Y00347*
X00868Y00346*
X00868Y00346*
X00869Y00346*
X00869Y00346*
X00869Y00346*
X00869Y00346*
X00869Y00346*
X00869Y00346*
X00869Y00346*
X00869Y00346*
X00869Y00346*
X0087Y00346*
X0087Y00346*
X0087Y00346*
X0087*
X0087Y00346*
X0087Y00346*
X0087Y00346*
X00871Y00346*
X00871Y00346*
X00871Y00346*
X00871Y00346*
X00871Y00346*
X00871Y00346*
X00871Y00346*
X00871Y00346*
X00871Y00346*
X00872Y00346*
X00872Y00347*
X00872Y00347*
X00872Y00347*
X00872Y00347*
X00872Y00347*
X00872Y00347*
X00872Y00347*
X00872Y00347*
X00872Y00348*
X01023Y00509D02*
Y0058D01*
X00976Y00509D02*
Y0058D01*
G54D13*
X0067Y0052D02*
X008D01*
X0067Y0045D02*
Y0052D01*
Y0045D02*
X008D01*
Y0052*
X0067Y0044D02*
X008D01*
X0067Y0037D02*
Y0044D01*
Y0037D02*
X008D01*
Y0044*
X0085Y0012D02*
X0098D01*
Y0019*
X0085D02*
X0098D01*
X0085Y0012D02*
Y0019D01*
Y00025D02*
X0098D01*
Y00095*
X0085D02*
X0098D01*
X0085Y00025D02*
Y00095D01*
X00455Y00025D02*
X00585D01*
Y00095*
X00455D02*
X00585D01*
X00455Y00025D02*
Y00095D01*
Y0011D02*
X00585D01*
Y0018*
X00455D02*
X00585D01*
X00455Y0011D02*
Y0018D01*
Y00195D02*
X00585D01*
Y00265*
X00455D02*
X00585D01*
X00455Y00195D02*
Y00265D01*
X001Y00435D02*
Y00565D01*
X0003D02*
X001D01*
X0003Y00435D02*
Y00565D01*
Y00435D02*
X001D01*
X0011D02*
Y00565D01*
Y00435D02*
X0018D01*
Y00565*
X0011D02*
X0018D01*
X01285Y00435D02*
X01355D01*
X01285D02*
Y00565D01*
X01355*
Y00435D02*
Y00565D01*
X01435Y00435D02*
Y00565D01*
X01365D02*
X01435D01*
X01365Y00435D02*
Y00565D01*
Y00435D02*
X01435D01*
G54D14*
X00212Y0043D02*
Y00469D01*
Y0043D02*
X00287D01*
Y00469*
X00212D02*
X00287D01*
X00522Y0043D02*
Y00469D01*
X00447D02*
X00522D01*
X00447Y0043D02*
Y00469D01*
Y0043D02*
X00522D01*
X00289Y00149D02*
X0028D01*
X00284*
Y00125*
X0028Y0012*
X00275*
X0027Y00125*
X00299Y0012D02*
X00309D01*
X00304*
Y00149*
X00299Y00144*
X01425Y00605D02*
X0145D01*
Y00621*
X01425Y00646D02*
Y00629D01*
X0145*
Y00646*
X01437Y00629D02*
Y00638D01*
X01425Y00654D02*
X0145D01*
Y00667*
X01445Y00671*
X01429*
X01425Y00667*
Y00654*
X01429Y00679D02*
X01425Y00684D01*
Y00692*
X01429Y00696*
X01433*
X01437Y00692*
Y00688*
Y00692*
X01441Y00696*
X01445*
X0145Y00692*
Y00684*
X01445Y00679*
X0001Y00575D02*
X00035D01*
Y00591*
X0001Y00616D02*
Y00599D01*
X00035*
Y00616*
X00022Y00599D02*
Y00608D01*
X0001Y00624D02*
X00035D01*
Y00637*
X0003Y00641*
X00014*
X0001Y00637*
Y00624*
X00035Y00649D02*
Y00658D01*
Y00654*
X0001*
X00014Y00649*
X0129Y00575D02*
Y00604D01*
X01304*
X01309Y00599*
Y0059*
X01304Y00585*
X0129*
X013D02*
X01309Y00575D01*
X01319Y00599D02*
X01324Y00604D01*
X01334*
X01339Y00599*
Y00594*
X01334Y0059*
X01339Y00585*
Y0058*
X01334Y00575*
X01324*
X01319Y0058*
Y00585*
X01324Y0059*
X01319Y00594*
Y00599*
X01324Y0059D02*
X01334D01*
X0046Y00385D02*
Y00414D01*
X00474*
X00479Y00409*
Y00399*
X00474Y00395*
X0046*
X0047D02*
X00479Y00385D01*
X00489Y00409D02*
X00494Y00414D01*
X00504*
X00509Y00409*
Y00404*
X00504Y00399*
X00499*
X00504*
X00509Y00395*
Y0039*
X00504Y00385*
X00494*
X00489Y0039*
X003Y00435D02*
Y00464D01*
X00314*
X00319Y00459*
Y0045*
X00314Y00445*
X003*
X0031D02*
X00319Y00435D01*
X00349D02*
X00329D01*
X00349Y00454*
Y00459*
X00344Y00464*
X00334*
X00329Y00459*
X00855Y0024D02*
X00885D01*
Y00254*
X0088Y00259*
X0086*
X00855Y00254*
Y0024*
X00885Y00269D02*
Y00279D01*
Y00274*
X00855*
X0086Y00269*
X00585Y00375D02*
Y00404D01*
X006*
X00604Y00399*
Y0039*
X006Y00385*
X00585*
X00595D02*
X00604Y00375D01*
X00614D02*
X00624D01*
X00619*
Y00404*
X00614Y00399*
X00659Y00375D02*
X00639D01*
X00659Y00394*
Y00399*
X00654Y00404*
X00644*
X00639Y00399*
X0012Y00575D02*
Y00604D01*
X00134*
X00139Y00599*
Y0059*
X00134Y00585*
X0012*
X0013D02*
X00139Y00575D01*
X00149D02*
X00159D01*
X00154*
Y00604*
X00149Y00599*
X00174D02*
X00179Y00604D01*
X00189*
X00194Y00599*
Y0058*
X00189Y00575*
X00179*
X00174Y0058*
Y00599*
X01364Y00575D02*
Y00605D01*
X01379*
X01384Y006*
Y0059*
X01379Y00585*
X01364*
X01374D02*
X01384Y00575D01*
X01414Y00605D02*
X01404Y006D01*
X01394Y0059*
Y0058*
X01399Y00575*
X01409*
X01414Y0058*
Y00585*
X01409Y0059*
X01394*
X0005Y00575D02*
Y00604D01*
X00064*
X00069Y00599*
Y0059*
X00064Y00585*
X0005*
X0006D02*
X00069Y00575D01*
X00099Y00604D02*
X00079D01*
Y0059*
X00089Y00594*
X00094*
X00099Y0059*
Y0058*
X00094Y00575*
X00084*
X00079Y0058*
X01Y00115D02*
Y00144D01*
X01014*
X01019Y00139*
Y0013*
X01014Y00125*
X01*
X0101D02*
X01019Y00115D01*
X01029Y0012D02*
X01034Y00115D01*
X01044*
X01049Y0012*
Y00139*
X01044Y00144*
X01034*
X01029Y00139*
Y00134*
X01034Y0013*
X01049*
X00585Y00447D02*
Y00477D01*
X006*
X00604Y00472*
Y00462*
X006Y00457*
X00585*
X00595D02*
X00604Y00447D01*
X00614D02*
X00624D01*
X00619*
Y00477*
X00614Y00472*
X00659Y00477D02*
X00639D01*
Y00462*
X00649Y00467*
X00654*
X00659Y00462*
Y00452*
X00654Y00447*
X00644*
X00639Y00452*
X01Y00005D02*
Y00034D01*
X01014*
X01019Y00029*
Y0002*
X01014Y00015*
X01*
X0101D02*
X01019Y00005D01*
X01029D02*
X01039D01*
X01034*
Y00034*
X01029Y00029*
X01074Y00034D02*
X01064Y00029D01*
X01054Y0002*
Y0001*
X01059Y00005*
X01069*
X01074Y0001*
Y00015*
X01069Y0002*
X01054*
X0037Y00215D02*
Y00244D01*
X00385*
X00389Y00239*
Y00229*
X00385Y00225*
X0037*
X0038D02*
X00389Y00215D01*
X00399D02*
X00409D01*
X00404*
Y00244*
X00399Y00239*
X00424Y00215D02*
X00434D01*
X00429*
Y00244*
X00424Y00239*
X00365Y00115D02*
Y00144D01*
X00379*
X00384Y00139*
Y0013*
X00379Y00125*
X00365*
X00375D02*
X00384Y00115D01*
X00394D02*
X00404D01*
X00399*
Y00144*
X00394Y00139*
X00419D02*
X00424Y00144D01*
X00434*
X00439Y00139*
Y00134*
X00434Y0013*
X00429*
X00434*
X00439Y00125*
Y0012*
X00434Y00115*
X00424*
X00419Y0012*
X0037Y00005D02*
Y00034D01*
X00385*
X00389Y00029*
Y0002*
X00385Y00015*
X0037*
X0038D02*
X00389Y00005D01*
X00399D02*
X00409D01*
X00404*
Y00034*
X00399Y00029*
X00439Y00005D02*
Y00034D01*
X00424Y0002*
X00444*
X0098Y00465D02*
Y00494D01*
X00994*
X00999Y00489*
Y0048*
X00994Y00475*
X0098*
X0099D02*
X00999Y00465D01*
X01009D02*
X01019D01*
X01014*
Y00494*
X01009Y00489*
X00779Y00619D02*
X0077D01*
X00775*
Y00595*
X0077Y0059*
X00765*
X0076Y00595*
X00789Y00614D02*
X00794Y00619D01*
X00804*
X00809Y00614*
Y00609*
X00804Y00605*
X00799*
X00804*
X00809Y006*
Y00595*
X00804Y0059*
X00794*
X00789Y00595*
X01179Y00149D02*
X0117D01*
X01174*
Y00125*
X0117Y0012*
X01165*
X0116Y00125*
X01209Y0012D02*
X01189D01*
X01209Y00139*
Y00144*
X01204Y00149*
X01194*
X01189Y00144*
X00244Y00594D02*
X0024Y00599D01*
X0023*
X00225Y00594*
Y00575*
X0023Y0057*
X0024*
X00244Y00575*
X00269Y00599D02*
X00259D01*
X00254Y00594*
Y00575*
X00259Y0057*
X00269*
X00274Y00575*
Y00594*
X00269Y00599*
X00284Y0057D02*
Y00599D01*
X00304Y0057*
Y00599*
X00314Y0057D02*
Y00599D01*
X00334Y0057*
Y00599*
X00344Y00565D02*
X00364D01*
X00394Y0057D02*
X00374D01*
X00394Y00589*
Y00594*
X00389Y00599*
X00379*
X00374Y00594*
X00825Y00404D02*
X0082Y00399D01*
Y0039*
X00825Y00385*
X00845*
X0085Y0039*
Y00399*
X00845Y00404*
X0082Y00429D02*
Y00419D01*
X00825Y00414*
X00845*
X0085Y00419*
Y00429*
X00845Y00434*
X00825*
X0082Y00429*
X0085Y00444D02*
X0082D01*
X0085Y00464*
X0082*
X0085Y00474D02*
X0082D01*
X0085Y00494*
X0082*
X00855Y00504D02*
Y00524D01*
X0085Y00534D02*
Y00544D01*
Y00539*
X0082*
X00825Y00534*
M02*