M48
;Layer_Color=9474304
;FILE_FORMAT=2:4
INCH
;TYPE=PLATED
T1F00S00C0.0120
T2F00S00C0.0433
%
T01
X013500Y011550
Y012100
X013450Y012450
X014500Y013350
X014850Y013100
X015200Y012850
X015600Y012600
X016550Y012350
X017600Y012100
X018150Y011850
X018400Y011600
X018700Y011150
X018950Y013650
X020800Y013300
X021100Y012950
X020750Y012700
X020800Y012250
T02
X016600Y015650
Y016649
X017600
Y015650
X018600
Y016649
X019600
Y015650
X020600
Y016649
X021600
Y015650
X022600
Y016649
X015600
Y015650
X014600
Y016649
X013600
Y015650
X012600
Y016649
X011600
Y015650
X010600
Y016649
M30
