G04*
G04 #@! TF.GenerationSoftware,Altium Limited,Altium Designer,19.1.5 (86)*
G04*
G04 Layer_Physical_Order=1*
G04 Layer_Color=255*
%FSAX24Y24*%
%MOIN*%
G70*
G01*
G75*
%ADD11C,0.0039*%
%ADD13R,0.0315X0.0102*%
%ADD14R,0.0256X0.0102*%
%ADD15R,0.0335X0.0157*%
%ADD21C,0.0080*%
%ADD22C,0.0140*%
%ADD23C,0.0120*%
%ADD24R,0.0650X0.0650*%
%ADD25C,0.0650*%
%ADD26C,0.0220*%
D11*
X019100Y018650D02*
X019900D01*
X020775D01*
X023200D01*
Y017300D02*
Y018650D01*
X010000D02*
X019100D01*
X010000Y017300D02*
Y018650D01*
X023200Y009950D02*
Y017300D01*
X010000Y009950D02*
X023200D01*
X010000D02*
Y017300D01*
D13*
X020458Y010801D02*
D03*
Y011037D02*
D03*
Y011273D02*
D03*
Y011509D02*
D03*
Y011746D02*
D03*
Y011982D02*
D03*
Y012218D02*
D03*
Y012454D02*
D03*
Y012691D02*
D03*
Y012927D02*
D03*
Y013163D02*
D03*
Y013399D02*
D03*
X012742D02*
D03*
Y013163D02*
D03*
Y012927D02*
D03*
Y012691D02*
D03*
Y012454D02*
D03*
Y012218D02*
D03*
Y011982D02*
D03*
Y011746D02*
D03*
Y011509D02*
D03*
Y011273D02*
D03*
Y011037D02*
D03*
Y010801D02*
D03*
D14*
X019326Y010919D02*
D03*
Y011155D02*
D03*
Y011391D02*
D03*
Y011628D02*
D03*
Y011864D02*
D03*
Y012100D02*
D03*
Y012336D02*
D03*
Y012572D02*
D03*
Y012809D02*
D03*
Y013045D02*
D03*
Y013281D02*
D03*
X013874D02*
D03*
Y013045D02*
D03*
Y012809D02*
D03*
Y012572D02*
D03*
Y012336D02*
D03*
Y012100D02*
D03*
Y011864D02*
D03*
Y011628D02*
D03*
Y011391D02*
D03*
Y011155D02*
D03*
Y010919D02*
D03*
D15*
X020330Y010525D02*
D03*
Y013675D02*
D03*
X012870D02*
D03*
Y010525D02*
D03*
D21*
X022542Y015592D02*
X022600Y015650D01*
X022065Y015772D02*
X022407Y016115D01*
X022065Y015457D02*
Y015772D01*
X021600Y016649D02*
X022600D01*
X020596Y012250D02*
X020800D01*
X020565Y012218D02*
X020596Y012250D01*
X020458Y012218D02*
X020565D01*
X018400Y011600D02*
X018701D01*
X012923Y011734D02*
X013039Y011619D01*
X013450Y011550D02*
X013500D01*
X013219Y011262D02*
Y011693D01*
X013039Y011187D02*
Y011619D01*
X013399Y011601D02*
X013450Y011550D01*
X012942Y011971D02*
X013219Y011693D01*
X013403Y012200D02*
X013500Y012103D01*
X013399Y011601D02*
Y011768D01*
X012994Y012173D02*
X013399Y011768D01*
X012893Y012173D02*
X012994D01*
X012848Y012218D02*
X012893Y012173D01*
X012742Y012218D02*
X012848D01*
X012753Y011734D02*
X012923D01*
X012742Y011746D02*
X012753Y011734D01*
Y011971D02*
X012942D01*
X012742Y011982D02*
X012753Y011971D01*
X013500Y012100D02*
Y012103D01*
X013346Y012200D02*
X013403D01*
X013276Y012270D02*
X013346Y012200D01*
X013275Y012270D02*
X013276D01*
X013039Y012506D02*
X013275Y012270D01*
X013039Y012506D02*
Y012564D01*
X019620Y013085D02*
X020206Y012499D01*
X019620Y013085D02*
Y013430D01*
X019800Y013160D02*
X020258Y012702D01*
X019800Y013160D02*
Y014600D01*
X013550Y014000D02*
X016150D01*
X020447Y012916D02*
X020458Y012927D01*
X021077D02*
X021100Y012950D01*
X020877Y012927D02*
X021077D01*
X020854Y012950D02*
X020877Y012927D01*
X020646Y012950D02*
X020854D01*
X020634Y012938D02*
X020646Y012950D01*
X020469Y012938D02*
X020634D01*
X013350Y012450D02*
X013450D01*
X013219Y012581D02*
X013350Y012450D01*
X013219Y012581D02*
Y012638D01*
X012976Y012882D02*
X013219Y012638D01*
X012893Y012882D02*
X012976D01*
X012848Y012927D02*
X012893Y012882D01*
X012742Y012927D02*
X012848D01*
X020258Y012702D02*
X020447D01*
X018150Y014900D02*
Y015443D01*
X018135Y015457D02*
X018150Y015443D01*
Y014900D02*
X018885Y014165D01*
X020447Y012702D02*
X020458Y012691D01*
X020741D01*
X020750Y012700D01*
X012957Y012646D02*
X013039Y012564D01*
X012893Y012646D02*
X012957D01*
X012848Y012691D02*
X012893Y012646D01*
X012742Y012691D02*
X012848D01*
X013850Y010550D02*
X019335D01*
X019594Y010810D01*
Y011307D01*
X020258Y011971D01*
X020447D01*
X020458Y011982D01*
X020050Y010716D02*
Y011508D01*
X013540Y010360D02*
X019750D01*
X020023Y010633D02*
Y010689D01*
X019750Y010360D02*
X020023Y010633D01*
Y010689D02*
X020050Y010716D01*
Y011508D02*
X020243Y011701D01*
X013480Y010920D02*
X013850Y010550D01*
X013480Y010920D02*
Y011001D01*
X013219Y011262D02*
X013480Y011001D01*
X020260Y011701D02*
X020350Y011791D01*
X020243Y011701D02*
X020260D01*
X013300Y010600D02*
X013540Y010360D01*
X013300Y010600D02*
Y010927D01*
X013039Y011187D02*
X013300Y010927D01*
X019326Y011391D02*
Y011628D01*
Y011155D02*
Y011200D01*
Y010919D02*
Y011155D01*
X020458Y010801D02*
X020565D01*
X018885Y014165D02*
X019620Y013430D01*
X012333Y012693D02*
Y013833D01*
Y012693D02*
X012526Y012499D01*
X012590D01*
X012635Y012454D01*
X012742D01*
X012333Y013833D02*
X012550Y014050D01*
X013500D01*
X013550Y014000D01*
X016150D02*
X016315Y014165D01*
X018885D01*
X012000Y014253D02*
X012047Y014300D01*
X012000Y012559D02*
Y014253D01*
Y012559D02*
X012296Y012263D01*
X012590D01*
X012635Y012218D01*
X012742D01*
X012047Y014300D02*
X015200D01*
X016135Y015235D01*
Y015988D01*
X016247Y016100D01*
X016393D01*
X016407Y016115D01*
X017066D01*
X017600Y016649D01*
X012635Y011982D02*
X012742D01*
X011450Y014703D02*
X011497Y014750D01*
X011450Y012855D02*
Y014703D01*
Y012855D02*
X012278Y012027D01*
X012590D01*
X012635Y011982D01*
X011497Y014750D02*
X014050D01*
X014485Y015185D01*
X014793D01*
X015117Y015510D01*
Y015825D01*
X015442Y016149D01*
X015758D01*
X016065Y016456D01*
Y016602D01*
X016112Y016649D01*
X016600D01*
X012259Y011791D02*
X012590D01*
X011065Y012985D02*
X012259Y011791D01*
X011065Y012985D02*
Y015843D01*
X011050Y016103D02*
X011097Y016150D01*
X011050Y015857D02*
Y016103D01*
Y015857D02*
X011065Y015843D01*
X012590Y011791D02*
X012635Y011746D01*
X012742D01*
X011097Y016150D02*
X015101D01*
X015600Y016649D01*
X012635Y010801D02*
X012742D01*
X020458Y013163D02*
Y013399D01*
Y013163D02*
X020465Y013170D01*
X020023Y013332D02*
X020161Y013194D01*
X020023Y013332D02*
Y015416D01*
X012742Y013163D02*
Y013399D01*
X018135Y015457D02*
Y016184D01*
X018600Y016649D01*
X020206Y012499D02*
X020307D01*
X020352Y012454D01*
X020458D01*
X019300Y015100D02*
X019800Y014600D01*
X019200Y015100D02*
X019300D01*
X019135Y015165D02*
X019200Y015100D01*
X019135Y015165D02*
Y015843D01*
X020161Y013054D02*
X020299Y012916D01*
X020447D01*
X020161Y013054D02*
Y013194D01*
X019300Y016250D02*
X019600Y016550D01*
Y016649D01*
X019300Y016007D02*
Y016250D01*
X019135Y015843D02*
X019300Y016007D01*
X020135Y016184D02*
X020600Y016649D01*
X020135Y015528D02*
Y016184D01*
X020023Y015416D02*
X020135Y015528D01*
X022600Y016162D02*
Y016649D01*
X022553Y016115D02*
X022600Y016162D01*
X022407Y016115D02*
X022553D01*
X020638Y014030D02*
X022065Y015457D01*
X020638Y013538D02*
Y014030D01*
X020576Y013476D02*
X020638Y013538D01*
X020576Y013410D02*
Y013476D01*
X020565Y013399D02*
X020576Y013410D01*
X020458Y013399D02*
X020565D01*
X018674Y011628D02*
X018701Y011600D01*
X018150Y011850D02*
X019236D01*
X016600D02*
X018150D01*
X017939Y012336D02*
X019326D01*
X017925Y012350D02*
X017939Y012336D01*
X016543Y012343D02*
X016550Y012336D01*
X016564Y012350D02*
X017925D01*
X016550Y012336D02*
X016564Y012350D01*
X017600Y012100D02*
X019326D01*
X013874D02*
X017600D01*
X016586Y011864D02*
X016600Y011850D01*
X013874Y011864D02*
X016586D01*
X013881Y012343D02*
X016543D01*
X013874Y012336D02*
X013881Y012343D01*
X019250Y011864D02*
X019326D01*
X019236Y011850D02*
X019250Y011864D01*
X017471Y012572D02*
X019326D01*
X017443Y012600D02*
X017471Y012572D01*
X015600D02*
X015628Y012600D01*
X015589Y012584D02*
X015600Y012572D01*
X015628Y012600D02*
X017443D01*
X013885Y012584D02*
X015589D01*
X013874Y012572D02*
X013885Y012584D01*
X015200Y012800D02*
X015250Y012850D01*
X017236D01*
X017278Y012809D01*
X019326D01*
X015177Y012823D02*
X015200Y012800D01*
X015135Y012823D02*
X015177D01*
X015121Y012809D02*
X015135Y012823D01*
X013874Y012809D02*
X015121D01*
X014850Y013045D02*
X014905Y013100D01*
X017055D01*
X017110Y013045D01*
X019326D01*
X014800D02*
X014825Y013070D01*
X014850Y013095D01*
X013874Y013045D02*
X014800D01*
X014850Y013095D02*
Y013100D01*
X014746Y013350D02*
X016964D01*
X017032Y013281D01*
X019326D01*
X014678D02*
X014746Y013350D01*
X014500Y013281D02*
X014678D01*
X013874D02*
X014500D01*
Y013350D01*
X012742Y011273D02*
Y011509D01*
Y011037D02*
Y011273D01*
Y010801D02*
Y011037D01*
X020458Y011273D02*
Y011509D01*
X020461Y011040D02*
Y011270D01*
X020458Y011273D02*
X020461Y011270D01*
X020458Y011037D02*
X020461Y011040D01*
X020458Y010801D02*
Y011037D01*
X013874Y010919D02*
Y011155D01*
Y011391D02*
Y011628D01*
D22*
X018787Y011565D02*
X018849Y011628D01*
X018621Y011565D02*
X018787D01*
X018616Y011570D02*
X018621Y011565D01*
X016303Y011570D02*
X018616D01*
X018849Y011628D02*
X019326D01*
X013500Y013650D02*
X018950D01*
X013874Y011155D02*
X019326D01*
X011850Y010801D02*
X012635D01*
X011850Y010500D02*
Y010801D01*
Y010500D02*
X012200Y010150D01*
X020650D02*
X020800Y010300D01*
X012200Y010150D02*
X020650D01*
X020800Y010300D02*
Y010565D01*
X020565Y010801D02*
X020800Y010565D01*
X010600Y012100D02*
X011850Y010850D01*
X010600Y012100D02*
Y015650D01*
X013249Y013399D02*
X013500Y013650D01*
X012742Y013399D02*
X013249D01*
X020465Y013170D02*
X020670D01*
X016245Y011628D02*
X016303Y011570D01*
X013874Y011628D02*
X016245D01*
D23*
X020670Y013170D02*
X020800Y013300D01*
D24*
X022600Y016649D02*
D03*
D25*
Y015650D02*
D03*
X021600Y016649D02*
D03*
Y015650D02*
D03*
X020600Y016649D02*
D03*
Y015650D02*
D03*
X019600Y016649D02*
D03*
Y015650D02*
D03*
X018600Y016649D02*
D03*
Y015650D02*
D03*
X017600Y016649D02*
D03*
Y015650D02*
D03*
X016600Y016649D02*
D03*
Y015650D02*
D03*
X015600Y016649D02*
D03*
Y015650D02*
D03*
X014600Y016649D02*
D03*
Y015650D02*
D03*
X013600Y016649D02*
D03*
Y015650D02*
D03*
X012600Y016649D02*
D03*
Y015650D02*
D03*
X011600Y016649D02*
D03*
Y015650D02*
D03*
X010600Y016649D02*
D03*
Y015650D02*
D03*
D26*
X020800Y012250D02*
D03*
X018700Y011150D02*
D03*
X013500Y011550D02*
D03*
Y012100D02*
D03*
X021100Y012950D02*
D03*
X013450Y012450D02*
D03*
X020750Y012700D02*
D03*
X020800Y013300D02*
D03*
X018950Y013650D02*
D03*
X018400Y011600D02*
D03*
X018150Y011850D02*
D03*
X017600Y012100D02*
D03*
X016550Y012350D02*
D03*
X015600Y012600D02*
D03*
X015200Y012850D02*
D03*
X014850Y013100D02*
D03*
X014500Y013350D02*
D03*
M02*
