G04*
G04 #@! TF.GenerationSoftware,Altium Limited,Altium Designer,19.1.5 (86)*
G04*
G04 Layer_Color=65535*
%FSAX24Y24*%
%MOIN*%
G70*
G01*
G75*
%ADD10C,0.0079*%
%ADD11C,0.0039*%
%ADD12C,0.0060*%
D10*
X023063Y016649D02*
Y017145D01*
X010137D02*
X023063D01*
X010137Y015154D02*
Y017145D01*
Y015154D02*
X022600D01*
D11*
X019155Y010387D02*
X020047D01*
X019155D02*
Y010722D01*
Y013813D02*
X020047D01*
X019155Y013478D02*
Y013813D01*
X013153D02*
X014045D01*
Y013478D02*
Y013813D01*
X013153Y010387D02*
X014045D01*
Y010722D01*
D12*
X011100Y016350D02*
X011000D01*
X011050D01*
Y016100D01*
X011000Y016050D01*
X010950D01*
X010900Y016100D01*
X011200Y016050D02*
X011300D01*
X011250D01*
Y016350D01*
X011200Y016300D01*
X010626Y017512D02*
X010579D01*
X010532Y017465D01*
X010532Y017418D01*
X010626Y017324D01*
X010674D01*
X010721Y017371D01*
X010721Y017418D01*
X010674Y017465D01*
X010626Y017418D01*
X010791Y017441D02*
X010650Y017583D01*
X010886Y017536D01*
X010744Y017677D01*
X010791Y017724D02*
X010933Y017583D01*
X011003Y017653D01*
X011003Y017701D01*
X010909Y017795D01*
X010862D01*
X010791Y017724D01*
X011626Y017512D02*
X011579D01*
X011532Y017465D01*
X011532Y017418D01*
X011626Y017324D01*
X011674D01*
X011721Y017371D01*
X011721Y017418D01*
X011674Y017465D01*
X011626Y017418D01*
X011791Y017441D02*
X011650Y017583D01*
X011886Y017536D01*
X011744Y017677D01*
X011791Y017724D02*
X011933Y017583D01*
X012003Y017653D01*
X012003Y017701D01*
X011909Y017795D01*
X011862D01*
X011791Y017724D01*
X012676Y017512D02*
X012629D01*
X012582Y017465D01*
X012582Y017418D01*
X012676Y017324D01*
X012724D01*
X012771Y017371D01*
X012771Y017418D01*
X012724Y017465D01*
X012676Y017418D01*
X012841Y017441D02*
X012700Y017583D01*
X012936Y017536D01*
X012794Y017677D01*
X012841Y017724D02*
X012983Y017583D01*
X013053Y017653D01*
X013053Y017701D01*
X012959Y017795D01*
X012912D01*
X012841Y017724D01*
X013626Y017512D02*
X013579D01*
X013532Y017465D01*
X013532Y017418D01*
X013626Y017324D01*
X013674D01*
X013721Y017371D01*
X013721Y017418D01*
X013674Y017465D01*
X013626Y017418D01*
X013791Y017441D02*
X013650Y017583D01*
X013886Y017536D01*
X013744Y017677D01*
X013791Y017724D02*
X013933Y017583D01*
X014003Y017653D01*
X014003Y017701D01*
X013909Y017795D01*
X013862D01*
X013791Y017724D01*
X014676Y017512D02*
X014629D01*
X014582Y017465D01*
X014582Y017418D01*
X014676Y017324D01*
X014724D01*
X014771Y017371D01*
X014771Y017418D01*
X014724Y017465D01*
X014676Y017418D01*
X014841Y017441D02*
X014700Y017583D01*
X014936Y017536D01*
X014794Y017677D01*
X014841Y017724D02*
X014983Y017583D01*
X015053Y017653D01*
X015053Y017701D01*
X014959Y017795D01*
X014912D01*
X014841Y017724D01*
X019559Y017441D02*
X019700Y017300D01*
X019794Y017394D01*
Y017677D02*
X019700Y017583D01*
X019841Y017441D01*
X019936Y017536D01*
X019771Y017512D02*
X019818Y017559D01*
X019841Y017724D02*
X019983Y017583D01*
X020053Y017653D01*
X020053Y017701D01*
X019959Y017795D01*
X019912D01*
X019841Y017724D01*
X020148Y017701D02*
X020242Y017795D01*
Y018078D02*
X020195D01*
X020148Y018030D01*
X020148Y017983D01*
X020171Y017960D01*
X020218Y017960D01*
X020266Y018007D01*
X020313Y018007D01*
X020336Y017983D01*
X020336Y017936D01*
X020289Y017889D01*
X020242D01*
X020383Y018219D02*
X020336D01*
X020289Y018172D01*
Y018125D01*
X020313Y018101D01*
X020360Y018101D01*
X020407Y018148D01*
X020454Y018148D01*
X020478Y018125D01*
X020478Y018078D01*
X020430Y018030D01*
X020383D01*
X020459Y017441D02*
X020600Y017300D01*
X020694Y017394D01*
X020600Y017583D02*
X020741Y017441D01*
X020671Y017512D01*
X020765Y017606D01*
X020694Y017677D01*
X020836Y017536D01*
X020906Y017559D02*
X021001Y017653D01*
X021024Y017724D02*
X020930Y017818D01*
Y017913D01*
X021024D01*
X021118Y017818D01*
X021048Y017889D01*
X020953Y017795D01*
X021165Y017866D02*
X021024Y018007D01*
X021095Y018078D01*
X021142D01*
X021189Y018030D01*
Y017983D01*
X021118Y017913D01*
X021165Y017960D02*
X021260D01*
X021307Y018007D02*
X021165Y018148D01*
X021236Y018219D01*
X021283D01*
X021330Y018172D01*
X021330Y018125D01*
X021260Y018054D01*
X021307Y018101D02*
X021401D01*
X021448Y018148D02*
X021354Y018242D01*
Y018337D01*
X021448D01*
X021542Y018242D01*
X021472Y018313D01*
X021378Y018219D01*
X021448Y018431D02*
X021472Y018407D01*
X021566D01*
Y018502D01*
X021542Y018525D01*
X021566Y018407D02*
X021637Y018337D01*
X021559Y017491D02*
X021653Y017397D01*
X021747D01*
Y017491D01*
X021653Y017586D01*
X021700Y017633D02*
X021841Y017491D01*
X021912Y017562D01*
Y017609D01*
X021888Y017633D01*
X021841D01*
X021771Y017562D01*
X021841Y017633D01*
Y017680D01*
X021818Y017703D01*
X021771D01*
X021700Y017633D01*
X021983D02*
X021888Y017727D01*
Y017821D01*
X021983D01*
X022077Y017727D01*
X022006Y017798D01*
X021912Y017703D01*
X021983Y017916D02*
X022077Y018010D01*
X022030Y017963D01*
X022171Y017821D01*
X022132Y014468D02*
X022132Y014515D01*
X022179Y014562D01*
X022226D01*
X022250Y014539D01*
Y014491D01*
X022226Y014468D01*
X022250Y014491D01*
X022297Y014491D01*
X022321Y014468D01*
X022321Y014421D01*
X022274Y014374D01*
X022226D01*
X022391Y014491D02*
X022368Y014515D01*
X022391Y014539D01*
X022415Y014515D01*
X022391Y014491D01*
Y014727D02*
X022391Y014774D01*
X022438Y014821D01*
X022486D01*
X022509Y014798D01*
Y014751D01*
X022486Y014727D01*
X022509Y014751D01*
X022556Y014751D01*
X022580Y014727D01*
X022580Y014680D01*
X022533Y014633D01*
X022486D01*
X022509Y014892D02*
X022603Y014798D01*
X022698D01*
Y014892D01*
X022603Y014986D01*
X021082Y014518D02*
X021082Y014565D01*
X021129Y014612D01*
X021176D01*
X021200Y014589D01*
Y014541D01*
X021176Y014518D01*
X021200Y014541D01*
X021247Y014541D01*
X021271Y014518D01*
X021271Y014471D01*
X021224Y014424D01*
X021176D01*
X021341Y014541D02*
X021318Y014565D01*
X021341Y014589D01*
X021365Y014565D01*
X021341Y014541D01*
Y014777D02*
X021341Y014824D01*
X021388Y014871D01*
X021436D01*
X021459Y014848D01*
Y014801D01*
X021436Y014777D01*
X021459Y014801D01*
X021506Y014801D01*
X021530Y014777D01*
X021530Y014730D01*
X021483Y014683D01*
X021436D01*
X021459Y014942D02*
X021553Y014848D01*
X021648D01*
Y014942D01*
X021553Y015036D01*
X020453Y014886D02*
X020359Y014791D01*
X020429Y014721D01*
X020453Y014791D01*
X020476Y014815D01*
X020524D01*
X020571Y014768D01*
X020571Y014721D01*
X020524Y014674D01*
X020476D01*
X020500Y014933D02*
X020594Y014839D01*
X020689D01*
Y014933D01*
X020594Y015027D01*
X019453Y014836D02*
X019359Y014741D01*
X019429Y014671D01*
X019453Y014741D01*
X019476Y014765D01*
X019524D01*
X019571Y014718D01*
X019571Y014671D01*
X019524Y014624D01*
X019476D01*
X019500Y014883D02*
X019594Y014789D01*
X019689D01*
Y014883D01*
X019594Y014977D01*
X017400Y013450D02*
X017306Y013544D01*
Y013638D01*
X017400D01*
X017494Y013544D01*
X017424Y013615D01*
X017329Y013521D01*
X017565Y013568D02*
X017659Y013662D01*
X017636Y013968D02*
X017541Y013874D01*
X017683Y013733D01*
X017777Y013827D01*
X017612Y013803D02*
X017659Y013851D01*
X017683Y014016D02*
X017918Y013968D01*
X017777Y014110D02*
X017824Y013874D01*
Y014157D02*
X017918Y014251D01*
X017871Y014204D01*
X018013Y014063D01*
X018130Y014133D02*
X018225Y014228D01*
X018225Y014510D02*
X018178D01*
X018130Y014463D01*
X018130Y014416D01*
X018225Y014322D01*
X018272D01*
X018319Y014369D01*
Y014416D01*
Y014652D02*
X018272Y014605D01*
Y014557D01*
X018366Y014463D01*
X018413D01*
X018460Y014510D01*
X018460Y014557D01*
X018366Y014652D01*
X018319D01*
X018531Y014581D02*
X018390Y014722D01*
X018625Y014675D01*
X018484Y014817D01*
X018672Y014722D02*
X018531Y014864D01*
X018767Y014817D01*
X018625Y014958D01*
X022259Y017491D02*
X022353Y017397D01*
X022447D01*
Y017491D01*
X022353Y017586D01*
X022400Y017633D02*
X022541Y017491D01*
X022612Y017562D01*
Y017609D01*
X022589Y017633D01*
X022541D01*
X022471Y017562D01*
X022541Y017633D01*
Y017680D01*
X022518Y017703D01*
X022471D01*
X022400Y017633D01*
X022683D02*
X022589Y017727D01*
Y017821D01*
X022683D01*
X022777Y017727D01*
X022706Y017798D01*
X022612Y017703D01*
X022683Y017916D02*
X022777Y018010D01*
X022730Y017963D01*
X022871Y017821D01*
X018726Y017512D02*
X018679D01*
X018632Y017465D01*
X018632Y017418D01*
X018656Y017394D01*
X018703Y017394D01*
X018750Y017441D01*
X018797Y017441D01*
X018821Y017418D01*
X018821Y017371D01*
X018774Y017324D01*
X018726D01*
X018891Y017441D02*
X018750Y017583D01*
X018821Y017653D01*
X018868D01*
X018915Y017606D01*
Y017559D01*
X018844Y017488D01*
X018891Y017724D02*
X018938Y017771D01*
X018915Y017748D01*
X019056Y017606D01*
X019033Y017583D01*
X019080Y017630D01*
X019174Y017677D02*
X019268Y017771D01*
X019268Y018054D02*
X019221D01*
X019174Y018007D01*
X019174Y017960D01*
X019198Y017936D01*
X019245D01*
X019292Y017983D01*
X019339D01*
X019363Y017960D01*
Y017913D01*
X019316Y017866D01*
X019268D01*
X019410Y018195D02*
X019363D01*
X019316Y018148D01*
Y018101D01*
X019410Y018007D01*
X019457D01*
X019504Y018054D01*
X019504Y018101D01*
X019433Y018266D02*
X019575Y018125D01*
X019528Y018172D01*
Y018360D01*
Y018219D01*
X019669Y018219D01*
X017726Y017512D02*
X017679D01*
X017632Y017465D01*
X017632Y017418D01*
X017656Y017394D01*
X017703Y017394D01*
X017750Y017441D01*
X017797Y017441D01*
X017821Y017418D01*
X017821Y017371D01*
X017774Y017324D01*
X017726D01*
X017891Y017441D02*
X017750Y017583D01*
X017821Y017653D01*
X017868D01*
X017915Y017606D01*
Y017559D01*
X017844Y017488D01*
X017891Y017724D02*
X017938Y017771D01*
X017915Y017748D01*
X018056Y017606D01*
X018033Y017583D01*
X018080Y017630D01*
X018174Y017677D02*
X018268Y017771D01*
X018268Y018054D02*
X018221D01*
X018174Y018007D01*
X018174Y017960D01*
X018198Y017936D01*
X018245D01*
X018292Y017983D01*
X018339D01*
X018363Y017960D01*
Y017913D01*
X018316Y017866D01*
X018268D01*
X018292Y018125D02*
X018433Y017983D01*
X018504Y018054D01*
X018504Y018101D01*
X018410Y018195D01*
X018363D01*
X018292Y018125D01*
X018433Y018266D02*
X018480Y018313D01*
X018457Y018290D01*
X018598Y018148D01*
X018575Y018125D01*
X018622Y018172D01*
X018622Y018455D02*
X018575Y018407D01*
X018575Y018360D01*
X018669Y018266D01*
X018716D01*
X018763Y018313D01*
Y018360D01*
X018669Y018455D01*
X018622D01*
X015509Y017341D02*
X015650Y017200D01*
X015721Y017271D01*
X015721Y017318D01*
X015697Y017341D01*
X015650Y017341D01*
X015579Y017271D01*
X015650Y017341D01*
Y017388D01*
X015626Y017412D01*
X015579D01*
X015509Y017341D01*
X015650Y017483D02*
X015791Y017341D01*
X015886Y017436D01*
X015791Y017624D02*
X015839Y017671D01*
X015815Y017648D01*
X015956Y017506D01*
X015933Y017483D01*
X015980Y017530D01*
X016051Y017601D02*
X015909Y017742D01*
X016145Y017695D01*
X016003Y017836D01*
X016051Y017883D02*
X016192Y017742D01*
X016145Y017789D01*
Y017978D01*
Y017836D01*
X016286D01*
X016357Y017860D02*
X016451Y017954D01*
X016475Y018025D02*
X016333Y018166D01*
X016404Y018237D01*
X016451D01*
X016498Y018190D01*
X016498Y018142D01*
X016428Y018072D01*
X016475Y018307D02*
X016616Y018166D01*
Y018260D01*
X016710D01*
X016569Y018402D01*
X016757Y018307D02*
X016616Y018449D01*
X016710D01*
Y018543D01*
X016852Y018402D01*
X016559Y017441D02*
X016700Y017300D01*
X016794Y017394D01*
Y017677D02*
X016700Y017583D01*
X016841Y017441D01*
X016936Y017536D01*
X016771Y017512D02*
X016818Y017559D01*
X016841Y017724D02*
X016983Y017583D01*
X017053Y017653D01*
X017053Y017701D01*
X016959Y017795D01*
X016912D01*
X016841Y017724D01*
X017148Y017701D02*
X017242Y017795D01*
X017265Y017866D02*
X017124Y018007D01*
X017195Y018078D01*
X017242D01*
X017289Y018030D01*
Y017983D01*
X017218Y017913D01*
X017265Y018148D02*
X017407Y018007D01*
Y018101D01*
X017501D01*
X017360Y018242D01*
X017548Y018148D02*
X017407Y018290D01*
X017501D01*
Y018384D01*
X017643Y018242D01*
X017350Y014450D02*
X017209Y014591D01*
X017279Y014662D01*
X017326D01*
X017374Y014615D01*
X017374Y014568D01*
X017303Y014497D01*
X017491Y014591D02*
X017397Y014686D01*
Y014780D01*
X017491D01*
X017586Y014686D01*
X017515Y014756D01*
X017421Y014662D01*
X017515Y014851D02*
Y014898D01*
X017562Y014945D01*
X017609D01*
X017703Y014851D01*
X017703Y014803D01*
X017656Y014756D01*
X017609D01*
X017515Y014851D01*
X015509Y013791D02*
X015650Y013650D01*
X015721Y013721D01*
X015721Y013768D01*
X015697Y013791D01*
X015650Y013791D01*
X015579Y013721D01*
X015650Y013791D01*
Y013838D01*
X015626Y013862D01*
X015579D01*
X015509Y013791D01*
X015650Y013933D02*
X015791Y013791D01*
X015886Y013886D01*
X015791Y014074D02*
X015839Y014121D01*
X015815Y014098D01*
X015956Y013956D01*
X015933Y013933D01*
X015980Y013980D01*
X016051Y014051D02*
X015909Y014192D01*
X016145Y014145D01*
X016003Y014286D01*
X016051Y014333D02*
X016192Y014192D01*
X016145Y014239D01*
Y014428D01*
Y014286D01*
X016286D01*
X016451Y014687D02*
X016404D01*
X016357Y014640D01*
X016357Y014592D01*
X016380Y014569D01*
X016428Y014569D01*
X016475Y014616D01*
X016522D01*
X016545Y014592D01*
X016545Y014545D01*
X016498Y014498D01*
X016451D01*
X016475Y014757D02*
X016522Y014805D01*
X016498Y014781D01*
X016640Y014640D01*
X016616Y014616D01*
X016663Y014663D01*
X016710Y014946D02*
X016663D01*
X016616Y014899D01*
Y014852D01*
X016710Y014757D01*
X016757D01*
X016805Y014805D01*
X016805Y014852D01*
X016757Y014899D01*
X016710Y014852D01*
X014759Y014141D02*
X014806Y014188D01*
X014782Y014165D01*
X014924Y014024D01*
X014900Y014000D01*
X014947Y014047D01*
X015112Y014212D02*
X015018Y014118D01*
Y014306D01*
X014994Y014330D01*
X014947D01*
X014900Y014283D01*
X014900Y014236D01*
X015136Y014471D02*
X015088D01*
X015041Y014424D01*
X015041Y014377D01*
X015136Y014283D01*
X015183D01*
X015230Y014330D01*
X015230Y014377D01*
X015418Y014754D02*
X015371D01*
X015324Y014707D01*
X015324Y014660D01*
X015348Y014636D01*
X015395D01*
X015442Y014683D01*
X015489D01*
X015513Y014660D01*
Y014613D01*
X015466Y014566D01*
X015418D01*
X015442Y014825D02*
X015583Y014683D01*
X015654Y014754D01*
X015654Y014801D01*
X015560Y014895D01*
X015513D01*
X015442Y014825D01*
X015725D02*
X015630Y014919D01*
Y015013D01*
X015725D01*
X015819Y014919D01*
X015748Y014990D01*
X015654Y014895D01*
X013809Y014141D02*
X013856Y014188D01*
X013832Y014165D01*
X013974Y014024D01*
X013950Y014000D01*
X013997Y014047D01*
X014162Y014212D02*
X014068Y014118D01*
Y014306D01*
X014044Y014330D01*
X013997D01*
X013950Y014283D01*
X013950Y014236D01*
X014186Y014471D02*
X014138D01*
X014091Y014424D01*
X014091Y014377D01*
X014186Y014283D01*
X014233D01*
X014280Y014330D01*
X014280Y014377D01*
X014468Y014754D02*
X014421D01*
X014374Y014707D01*
X014374Y014660D01*
X014398Y014636D01*
X014445D01*
X014492Y014683D01*
X014539D01*
X014563Y014660D01*
Y014613D01*
X014516Y014566D01*
X014468D01*
X014610Y014895D02*
X014563D01*
X014516Y014848D01*
Y014801D01*
X014610Y014707D01*
X014657D01*
X014704Y014754D01*
X014704Y014801D01*
X014633Y014966D02*
X014775Y014825D01*
X014869Y014919D01*
X012709Y014091D02*
X012803Y014186D01*
X012756Y014138D01*
X012897Y013997D01*
X012991Y014091D02*
X012850Y014233D01*
X012921Y014303D01*
X012968D01*
X013015Y014256D01*
Y014209D01*
X012944Y014138D01*
X013156Y014209D02*
X013251Y014303D01*
X013274Y014374D02*
X013133Y014516D01*
X013368Y014468D01*
X013227Y014610D01*
X013345Y014728D02*
X013298Y014680D01*
X013298Y014633D01*
X013392Y014539D01*
X013439D01*
X013486Y014586D01*
X013486Y014633D01*
X013392Y014728D01*
X013345D01*
X013533Y014869D02*
X013486D01*
X013439Y014822D01*
Y014775D01*
X013463Y014751D01*
X013510Y014751D01*
X013557Y014798D01*
X013604Y014798D01*
X013628Y014775D01*
X013628Y014728D01*
X013580Y014680D01*
X013533D01*
X013651Y015034D02*
X013557Y014940D01*
X013698Y014798D01*
X013793Y014892D01*
X013628Y014869D02*
X013675Y014916D01*
X011159Y013541D02*
X011253Y013636D01*
X011206Y013589D01*
X011347Y013447D01*
X011441Y013541D02*
X011300Y013683D01*
X011371Y013753D01*
X011418D01*
X011465Y013706D01*
Y013659D01*
X011394Y013589D01*
X011606Y013659D02*
X011701Y013753D01*
X011724Y013824D02*
X011583Y013966D01*
X011818Y013918D01*
X011677Y014060D01*
X011795Y014178D02*
X011748Y014130D01*
X011748Y014083D01*
X011842Y013989D01*
X011889D01*
X011936Y014036D01*
X011936Y014083D01*
X011842Y014178D01*
X011795D01*
X011983Y014319D02*
X011936D01*
X011889Y014272D01*
Y014225D01*
X011913Y014201D01*
X011960Y014201D01*
X012007Y014248D01*
X012054Y014248D01*
X012078Y014225D01*
X012078Y014178D01*
X012030Y014130D01*
X011983D01*
X012101Y014484D02*
X012007Y014390D01*
X012148Y014248D01*
X012242Y014342D01*
X012078Y014319D02*
X012125Y014366D01*
X012313Y014366D02*
X012407Y014460D01*
X012407Y014743D02*
X012360D01*
X012313Y014696D01*
X012313Y014649D01*
X012407Y014555D01*
X012455D01*
X012502Y014602D01*
X012502Y014649D01*
X012455Y014696D01*
X012407Y014649D01*
X012572Y014672D02*
X012431Y014814D01*
X012667Y014767D01*
X012525Y014908D01*
X012572Y014955D02*
X012714Y014814D01*
X012784Y014884D01*
X012784Y014932D01*
X012690Y015026D01*
X012643D01*
X012572Y014955D01*
X011326Y014662D02*
X011279D01*
X011232Y014615D01*
X011232Y014568D01*
X011326Y014474D01*
X011374D01*
X011421Y014521D01*
X011421Y014568D01*
X011374Y014615D01*
X011326Y014568D01*
X011491Y014591D02*
X011350Y014733D01*
X011586Y014686D01*
X011444Y014827D01*
X011491Y014874D02*
X011633Y014733D01*
X011703Y014803D01*
X011703Y014851D01*
X011609Y014945D01*
X011562D01*
X011491Y014874D01*
X010476Y014712D02*
X010429D01*
X010382Y014665D01*
X010382Y014618D01*
X010476Y014524D01*
X010524D01*
X010571Y014571D01*
X010571Y014618D01*
X010524Y014665D01*
X010476Y014618D01*
X010641Y014641D02*
X010500Y014783D01*
X010736Y014736D01*
X010594Y014877D01*
X010641Y014924D02*
X010783Y014783D01*
X010853Y014853D01*
X010853Y014901D01*
X010759Y014995D01*
X010712D01*
X010641Y014924D01*
X021100Y010550D02*
X020900D01*
Y010400D01*
X021000D01*
X020900D01*
Y010250D01*
X021200D02*
Y010550D01*
X021350D01*
X021400Y010500D01*
Y010400D01*
X021350Y010350D01*
X021200D01*
X021700Y010500D02*
X021650Y010550D01*
X021550D01*
X021500Y010500D01*
Y010300D01*
X021550Y010250D01*
X021650D01*
X021700Y010300D01*
X021800Y010200D02*
X022000D01*
X022100Y010250D02*
Y010550D01*
X022250D01*
X022300Y010500D01*
Y010400D01*
X022250Y010350D01*
X022100D01*
X022400Y010550D02*
Y010250D01*
X022499Y010350D01*
X022599Y010250D01*
Y010550D01*
X022699Y010250D02*
Y010550D01*
X022849D01*
X022899Y010500D01*
Y010400D01*
X022849Y010350D01*
X022699D01*
X022799D02*
X022899Y010250D01*
X022999D02*
X023099D01*
X023049D01*
Y010550D01*
X022999Y010500D01*
X010350Y010600D02*
X010150D01*
Y010450D01*
X010250D01*
X010150D01*
Y010300D01*
X010450D02*
Y010600D01*
X010600D01*
X010650Y010550D01*
Y010450D01*
X010600Y010400D01*
X010450D01*
X010950Y010550D02*
X010900Y010600D01*
X010800D01*
X010750Y010550D01*
Y010350D01*
X010800Y010300D01*
X010900D01*
X010950Y010350D01*
X011050Y010250D02*
X011250D01*
X011350Y010300D02*
Y010600D01*
X011450Y010500D01*
X011550Y010600D01*
Y010300D01*
X011849Y010550D02*
X011799Y010600D01*
X011700D01*
X011650Y010550D01*
Y010350D01*
X011700Y010300D01*
X011799D01*
X011849Y010350D01*
X011949Y010600D02*
Y010350D01*
X011999Y010300D01*
X012099D01*
X012149Y010350D01*
Y010600D01*
X012249Y010300D02*
X012349D01*
X012299D01*
Y010600D01*
X012249Y010550D01*
M02*
