G04*
G04 #@! TF.GenerationSoftware,Altium Limited,Altium Designer,19.1.5 (86)*
G04*
G04 Layer_Color=8421504*
%FSAX24Y24*%
%MOIN*%
G70*
G01*
G75*
%ADD13R,0.0315X0.0102*%
%ADD14R,0.0256X0.0102*%
%ADD15R,0.0335X0.0157*%
D13*
X020458Y010801D02*
D03*
Y011037D02*
D03*
Y011273D02*
D03*
Y011509D02*
D03*
Y011746D02*
D03*
Y011982D02*
D03*
Y012218D02*
D03*
Y012454D02*
D03*
Y012691D02*
D03*
Y012927D02*
D03*
Y013163D02*
D03*
Y013399D02*
D03*
X012742D02*
D03*
Y013163D02*
D03*
Y012927D02*
D03*
Y012691D02*
D03*
Y012454D02*
D03*
Y012218D02*
D03*
Y011982D02*
D03*
Y011746D02*
D03*
Y011509D02*
D03*
Y011273D02*
D03*
Y011037D02*
D03*
Y010801D02*
D03*
D14*
X019326Y010919D02*
D03*
Y011155D02*
D03*
Y011391D02*
D03*
Y011628D02*
D03*
Y011864D02*
D03*
Y012100D02*
D03*
Y012336D02*
D03*
Y012572D02*
D03*
Y012809D02*
D03*
Y013045D02*
D03*
Y013281D02*
D03*
X013874D02*
D03*
Y013045D02*
D03*
Y012809D02*
D03*
Y012572D02*
D03*
Y012336D02*
D03*
Y012100D02*
D03*
Y011864D02*
D03*
Y011628D02*
D03*
Y011391D02*
D03*
Y011155D02*
D03*
Y010919D02*
D03*
D15*
X020330Y010525D02*
D03*
Y013675D02*
D03*
X012870D02*
D03*
Y010525D02*
D03*
M02*
