%FSTAX23Y23*%
%MOIN*%
%SFA1B1*%

%IPPOS*%
%AMD18*
4,1,4,-0.024100,-0.027200,0.032000,-0.017300,0.024100,0.027200,-0.032000,0.017300,-0.024100,-0.027200,0.0*
%
%AMD20*
4,1,4,0.002100,0.018700,-0.018700,-0.002100,-0.002100,-0.018700,0.018700,0.002100,0.002100,0.018700,0.0*
%
%AMD24*
4,1,4,-0.034800,0.000000,0.000000,-0.034800,0.034800,0.000000,0.000000,0.034800,-0.034800,0.000000,0.0*
%
%AMD27*
4,1,4,0.000000,-0.015300,0.015300,0.000000,0.000000,0.015300,-0.015300,0.000000,0.000000,-0.015300,0.0*
%
%AMD28*
4,1,4,-0.015300,0.000000,0.000000,-0.015300,0.015300,0.000000,0.000000,0.015300,-0.015300,0.000000,0.0*
%
%ADD15R,0.224410X0.224410*%
%ADD16R,0.011810X0.033470*%
%ADD17R,0.033470X0.011810*%
G04~CAMADD=18~9~0.0~0.0~570.9~452.8~0.0~0.0~0~0.0~0.0~0.0~0.0~0~0.0~0.0~0.0~0.0~0~0.0~0.0~0.0~190.0~640.0~543.0*
%ADD18D18*%
%ADD19R,0.039370X0.035430*%
G04~CAMADD=20~9~0.0~0.0~295.3~236.2~0.0~0.0~0~0.0~0.0~0.0~0.0~0~0.0~0.0~0.0~0.0~0~0.0~0.0~0.0~45.0~374.0~373.0*
%ADD20D20*%
%ADD21R,0.021650X0.021650*%
%ADD22R,0.070870X0.039370*%
%ADD23R,0.021650X0.021650*%
G04~CAMADD=24~10~0.0~492.1~0.0~0.0~0.0~0.0~0~0.0~0.0~0.0~0.0~0~0.0~0.0~0.0~0.0~0~0.0~0.0~0.0~135.0~492.1~0.0*
%ADD24D24*%
%ADD25R,0.015750X0.023620*%
%ADD26R,0.023620X0.015750*%
G04~CAMADD=27~10~0.0~216.5~0.0~0.0~0.0~0.0~0~0.0~0.0~0.0~0.0~0~0.0~0.0~0.0~0.0~0~0.0~0.0~0.0~225.0~216.5~0.0*
%ADD27D27*%
G04~CAMADD=28~10~0.0~216.5~0.0~0.0~0.0~0.0~0~0.0~0.0~0.0~0.0~0~0.0~0.0~0.0~0.0~0~0.0~0.0~0.0~135.0~216.5~0.0*
%ADD28D28*%
%LNkoosh_main_board_v1_2-1*%
%LPD*%
G54D15*
X0025Y00284D03*
G54D16*
X00358Y00148D03*
X00338D03*
X00318D03*
X00299D03*
X00279D03*
X00259D03*
X0024D03*
X0022D03*
X002D03*
X00181D03*
X00161D03*
X00141D03*
Y0042D03*
X00161D03*
X00181D03*
X002D03*
X0022D03*
X0024D03*
X00259D03*
X00279D03*
X00299D03*
X00318D03*
X00338D03*
X00358D03*
G54D17*
X00114Y00175D03*
Y00195D03*
Y00215D03*
Y00234D03*
Y00254D03*
Y00274D03*
Y00294D03*
Y00313D03*
Y00333D03*
Y00353D03*
Y00372D03*
Y00392D03*
X00385D03*
Y00372D03*
Y00353D03*
Y00333D03*
Y00313D03*
Y00294D03*
Y00274D03*
Y00254D03*
Y00234D03*
Y00215D03*
Y00195D03*
Y00175D03*
G54D18*
X00057Y0021D03*
X00045Y00279D03*
G54D19*
X0054Y00268D03*
Y00331D03*
G54D20*
X00194Y00479D03*
X00225Y0051D03*
G54D21*
X00242Y00091D03*
Y00062D03*
X00347D03*
Y00091D03*
X00442Y00285D03*
X00488D03*
Y0025D03*
X00442D03*
X00553Y0022D03*
X00507D03*
X00428Y00055D03*
X00382D03*
X00498Y0032D03*
X00452D03*
X00298Y0047D03*
X00252D03*
X00553Y00185D03*
X00507D03*
X00132Y00515D03*
X00178D03*
X00228Y0055D03*
X00182D03*
G54D22*
X00454Y00203D03*
Y00104D03*
G54D23*
X0058Y00293D03*
Y00247D03*
X0021Y00078D03*
Y00032D03*
X001Y00437D03*
Y00483D03*
X00385Y00087D03*
Y00133D03*
X0058Y00327D03*
Y00373D03*
X00035Y00388D03*
Y00342D03*
G54D24*
X00497Y0056D03*
X00434Y00497D03*
X0056D03*
X00497Y00434D03*
G54D25*
X00274Y00566D03*
X003D03*
X00325D03*
X00274Y00513D03*
X003D03*
X00325D03*
G54D26*
X00339Y0054D03*
X0026D03*
G54D27*
X00093Y00131D03*
X00126Y00098D03*
G54D28*
X00541Y00156D03*
X00508Y00123D03*
M02*