%FSTAX23Y23*%
%MOIN*%
%SFA1B1*%

%IPPOS*%
%ADD10C,0.009840*%
%ADD11C,0.007870*%
%ADD12C,0.003940*%
%ADD13C,0.010000*%
%ADD14C,0.006000*%
%LNkoosh_main_board_v1_2-1*%
%LPD*%
G54D10*
X00039Y00277D02*
D01*
X00039Y00278*
X00039Y00278*
X00039Y00278*
X00039Y00279*
X00039Y00279*
X00039Y00279*
X00038Y0028*
X00038Y0028*
X00038Y0028*
X00038Y00281*
X00038Y00281*
X00037Y00281*
X00037Y00281*
X00037Y00281*
X00036Y00282*
X00036Y00282*
X00036Y00282*
X00036Y00282*
X00035Y00282*
X00035Y00282*
X00035Y00282*
X00034Y00282*
X00034*
X00034Y00282*
X00033Y00282*
X00033Y00282*
X00033Y00282*
X00032Y00282*
X00032Y00282*
X00032Y00282*
X00031Y00281*
X00031Y00281*
X00031Y00281*
X0003Y00281*
X0003Y00281*
X0003Y0028*
X0003Y0028*
X0003Y0028*
X0003Y00279*
X00029Y00279*
X00029Y00279*
X00029Y00278*
X00029Y00278*
X00029Y00278*
X00029Y00277*
X00029Y00277*
X00029Y00277*
X00029Y00276*
X00029Y00276*
X00029Y00276*
X0003Y00275*
X0003Y00275*
X0003Y00275*
X0003Y00274*
X0003Y00274*
X0003Y00274*
X00031Y00274*
X00031Y00273*
X00031Y00273*
X00032Y00273*
X00032Y00273*
X00032Y00273*
X00033Y00273*
X00033Y00273*
X00033Y00272*
X00034Y00272*
X00034Y00272*
X00034*
X00035Y00272*
X00035Y00272*
X00035Y00273*
X00036Y00273*
X00036Y00273*
X00036Y00273*
X00036Y00273*
X00037Y00273*
X00037Y00273*
X00037Y00274*
X00038Y00274*
X00038Y00274*
X00038Y00274*
X00038Y00275*
X00038Y00275*
X00039Y00275*
X00039Y00276*
X00039Y00276*
X00039Y00276*
X00039Y00277*
X00039Y00277*
X00039Y00277*
G54D11*
X00329Y00458D02*
D01*
X00328Y00458*
X00328Y00458*
X00328Y00458*
X00328Y00458*
X00327Y00459*
X00327Y00459*
X00327Y00459*
X00327Y00459*
X00326Y00459*
X00326Y00459*
X00326Y00459*
X00326Y00459*
X00325Y00459*
X00325Y00459*
X00325Y00459*
X00324Y00459*
X00324Y00459*
X00324Y00458*
X00324Y00458*
X00323Y00458*
X00323Y00458*
X00323Y00458*
X00323Y00458*
X00323Y00457*
X00323Y00457*
X00322Y00457*
X00322Y00457*
X00322Y00456*
X00322Y00456*
X00322Y00456*
X00322Y00456*
X00322Y00455*
X00322Y00455*
X00322Y00455*
X00322Y00455*
X00322Y00454*
X00322Y00454*
X00322Y00454*
X00322Y00454*
X00322Y00453*
X00322Y00453*
X00322Y00453*
X00323Y00453*
X00323Y00452*
X00323Y00452*
D01*
X00323Y00452*
X00323Y00452*
X00324Y00452*
X00324Y00452*
X00324Y00451*
X00324Y00451*
X00325Y00451*
X00325Y00451*
X00325Y00451*
X00325Y00451*
X00326Y00451*
X00326Y00451*
X00326Y00451*
X00326Y00451*
X00327Y00451*
X00327Y00451*
X00327Y00451*
X00328Y00451*
X00328Y00452*
X00328Y00452*
X00328Y00452*
X00328Y00452*
X00329Y00452*
X00329Y00452*
X00329Y00453*
X00329Y00453*
X00329Y00453*
X00329Y00453*
X00329Y00454*
X0033Y00454*
X0033Y00454*
X0033Y00454*
X0033Y00455*
X0033Y00455*
X0033Y00455*
X0033Y00456*
X0033Y00456*
X00329Y00456*
X00329Y00456*
X00329Y00457*
X00329Y00457*
X00329Y00457*
X00329Y00457*
X00329Y00458*
X00329Y00458*
X00555Y00139D02*
Y00283D01*
X00494Y00176D02*
Y00283D01*
G54D12*
X00157Y00482D02*
D01*
X00157Y00482*
X00157Y00482*
X00157Y00482*
X00157Y00483*
X00157Y00483*
X00157Y00483*
X00157Y00483*
X00156Y00483*
X00156Y00483*
X00156Y00483*
X00156Y00483*
X00156Y00484*
X00156Y00484*
X00156Y00484*
X00156Y00484*
X00156Y00484*
X00156Y00484*
X00155Y00484*
X00155Y00484*
X00155Y00484*
X00155Y00484*
X00155Y00484*
X00155*
X00155Y00484*
X00154Y00484*
X00154Y00484*
X00154Y00484*
X00154Y00484*
X00154Y00484*
X00154Y00484*
X00154Y00484*
X00154Y00484*
X00153Y00484*
X00153Y00483*
X00153Y00483*
X00153Y00483*
X00153Y00483*
X00153Y00483*
X00153Y00483*
X00153Y00483*
X00153Y00483*
X00153Y00482*
X00153Y00482*
X00153Y00482*
X00153Y00482*
D01*
X00153Y00482*
X00153Y00482*
X00153Y00482*
X00153Y00482*
X00153Y00481*
X00153Y00481*
X00153Y00481*
X00153Y00481*
X00153Y00481*
X00153Y00481*
X00153Y00481*
X00153Y00481*
X00154Y00481*
X00154Y0048*
X00154Y0048*
X00154Y0048*
X00154Y0048*
X00154Y0048*
X00154Y0048*
X00154Y0048*
X00155Y0048*
X00155Y0048*
X00155*
X00155Y0048*
X00155Y0048*
X00155Y0048*
X00155Y0048*
X00156Y0048*
X00156Y0048*
X00156Y0048*
X00156Y0048*
X00156Y00481*
X00156Y00481*
X00156Y00481*
X00156Y00481*
X00156Y00481*
X00156Y00481*
X00157Y00481*
X00157Y00481*
X00157Y00481*
X00157Y00482*
X00157Y00482*
X00157Y00482*
X00157Y00482*
X00157Y00482*
X00099Y00214D02*
D01*
X00099Y00214*
X00099Y00214*
X00099Y00214*
X00099Y00214*
X00099Y00214*
X00099Y00213*
X00099Y00213*
X00099Y00213*
X00099Y00213*
X00099Y00213*
X00099Y00213*
X00099Y00213*
X00099Y00213*
X00099Y00213*
X00099Y00213*
X001Y00212*
X001Y00212*
X001Y00212*
X001Y00212*
X001Y00212*
X001Y00212*
X001Y00212*
X00101*
X00101Y00212*
X00101Y00212*
X00101Y00212*
X00101Y00212*
X00101Y00212*
X00101Y00212*
X00101Y00213*
X00102Y00213*
X00102Y00213*
X00102Y00213*
X00102Y00213*
X00102Y00213*
X00102Y00213*
X00102Y00213*
X00102Y00213*
X00102Y00213*
X00102Y00214*
X00102Y00214*
X00102Y00214*
X00102Y00214*
X00102Y00214*
X00102Y00214*
D01*
X00102Y00214*
X00102Y00214*
X00102Y00215*
X00102Y00215*
X00102Y00215*
X00102Y00215*
X00102Y00215*
X00102Y00215*
X00102Y00215*
X00102Y00215*
X00102Y00216*
X00102Y00216*
X00102Y00216*
X00102Y00216*
X00101Y00216*
X00101Y00216*
X00101Y00216*
X00101Y00216*
X00101Y00216*
X00101Y00216*
X00101Y00216*
X00101Y00216*
X001*
X001Y00216*
X001Y00216*
X001Y00216*
X001Y00216*
X001Y00216*
X001Y00216*
X00099Y00216*
X00099Y00216*
X00099Y00216*
X00099Y00216*
X00099Y00216*
X00099Y00215*
X00099Y00215*
X00099Y00215*
X00099Y00215*
X00099Y00215*
X00099Y00215*
X00099Y00215*
X00099Y00215*
X00099Y00214*
X00099Y00214*
X00099Y00214*
X00428Y00271D02*
X00483D01*
Y00058D02*
Y00271D01*
X00428Y00058D02*
X00483D01*
X00136Y00271D02*
X00191D01*
X00136Y00058D02*
Y00271D01*
Y00058D02*
X00191D01*
X00255Y00596D02*
X00344Y00506D01*
X00185Y00526D02*
X00274Y00437D01*
G54D13*
X00251Y00299D02*
D01*
Y00299*
Y00299*
Y00299*
Y00299*
Y00299*
X00565Y00255D02*
X00585D01*
X00175Y00444D02*
X00195D01*
X00028Y00248D02*
X00048D01*
X00118Y00104D02*
X00138D01*
X00076Y00144D02*
X00096D01*
G54D14*
X00575Y00396D02*
X00579Y00399D01*
X00585*
X00589Y00396*
Y00382*
X00585Y00379*
X00579*
X00575Y00382*
X00569Y00399D02*
Y00379D01*
Y00389*
X00555*
Y00399*
Y00379*
X00549Y00399D02*
Y00379D01*
X00542Y00386*
X00535Y00379*
Y00399*
X00529Y00379D02*
Y00392D01*
X00522Y00399*
X00515Y00392*
Y00379*
Y00389*
X00529*
X00509Y00399D02*
Y00379D01*
X00495*
X00475Y00399D02*
X00489D01*
Y00379*
X00475*
X00489Y00389D02*
X00482D01*
X00469Y00399D02*
Y00379D01*
Y00386*
X00455Y00399*
X00465Y00389*
X00455Y00379*
X00589Y00341D02*
Y0036D01*
X00579*
X00575Y00357*
Y00351*
X00579Y00347*
X00589*
X00569Y00341D02*
Y0036D01*
X00559*
X00555Y00357*
Y00351*
X00559Y00347*
X00569*
X00562D02*
X00555Y00341D01*
X00539Y0036D02*
X00545D01*
X00549Y00357*
Y00344*
X00545Y00341*
X00539*
X00535Y00344*
Y00357*
X00539Y0036*
X00515D02*
X00522D01*
X00519*
Y00344*
X00522Y00341*
X00525*
X00529Y00344*
X00489Y0036D02*
Y00341D01*
Y00347*
X00475Y0036*
X00485Y00351*
X00475Y00341*
X00459Y0036D02*
X00465D01*
X00469Y00357*
Y00344*
X00465Y00341*
X00459*
X00455Y00344*
Y00357*
X00459Y0036*
X00439D02*
X00445D01*
X00449Y00357*
Y00344*
X00445Y00341*
X00439*
X00435Y00344*
Y00357*
X00439Y0036*
X00415Y00357D02*
X00419Y0036D01*
X00425*
X00429Y00357*
Y00354*
X00425Y00351*
X00419*
X00415Y00347*
Y00344*
X00419Y00341*
X00425*
X00429Y00344*
X00409Y0036D02*
Y00341D01*
Y00351*
X00395*
Y0036*
Y00341*
X00386Y0042D02*
X00383Y00424D01*
X00376*
X00373Y0042*
Y00417*
X00376Y00414*
X00379*
X00376*
X00373Y0041*
Y00407*
X00376Y00404*
X00383*
X00386Y00407*
X00366Y00404D02*
X00353Y00417D01*
X00346Y00404D02*
X00339D01*
X00343*
Y00424*
X00346Y0042*
X00329Y00407D02*
X00326Y00404D01*
X00319*
X00316Y00407*
Y0042*
X00319Y00424*
X00326*
X00329Y0042*
Y00417*
X00326Y00414*
X00316*
X00309Y00404D02*
X00296Y00417D01*
X00276Y00404D02*
X00289D01*
X00276Y00417*
Y0042*
X00279Y00424*
X00286*
X00289Y0042*
X00269D02*
X00266Y00424D01*
X00259*
X00256Y0042*
Y00407*
X00259Y00404*
X00266*
X00269Y00407*
Y0042*
X00236Y00404D02*
X00249D01*
X00236Y00417*
Y0042*
X00239Y00424*
X00246*
X00249Y0042*
X00229D02*
X00226Y00424D01*
X00219*
X00216Y0042*
Y00407*
X00219Y00404*
X00226*
X00229Y00407*
Y0042*
X00419Y00561D02*
Y0058D01*
X00409*
X00405Y00577*
Y00571*
X00409Y00567*
X00419*
X00412D02*
X00405Y00561D01*
X00389D02*
X00395D01*
X00399Y00564*
Y00571*
X00395Y00574*
X00389*
X00385Y00571*
Y00567*
X00399*
X00379Y00561D02*
X00369D01*
X00365Y00564*
X00369Y00567*
X00375*
X00379Y00571*
X00375Y00574*
X00365*
X00345Y0058D02*
X00359D01*
Y00561*
X00345*
X00359Y00571D02*
X00352D01*
X00339Y00561D02*
Y00574D01*
X00329*
X00325Y00571*
Y00561*
X00319Y00574D02*
X00312Y00561D01*
X00305Y00574*
X00215Y0048D02*
X00209Y00467D01*
X00202Y0048*
X00195Y00467D02*
X00189D01*
X00192*
Y00487*
X00195Y00484*
X00179Y00464D02*
X00165D01*
X00145Y00467D02*
X00159D01*
X00145Y0048*
Y00484*
X00149Y00487*
X00155*
X00159Y00484*
M02*