%FSTAX23Y23*%
%MOIN*%
%SFA1B1*%

%IPPOS*%
%AMD36*
4,1,4,-0.031400,0.006600,-0.004000,-0.031800,0.031400,-0.006600,0.004000,0.031800,-0.031400,0.006600,0.0*
%
%AMD37*
4,1,4,-0.009200,-0.021000,0.022900,0.001800,0.009200,0.021000,-0.022900,-0.001800,-0.009200,-0.021000,0.0*
%
%AMD38*
4,1,4,0.004000,-0.031800,0.031400,0.006600,-0.004000,0.031800,-0.031400,-0.006600,0.004000,-0.031800,0.0*
%
%AMD39*
4,1,4,0.022900,-0.001800,-0.009200,0.021000,-0.022900,0.001800,0.009200,-0.021000,0.022900,-0.001800,0.0*
%
%AMD44*
4,1,4,-0.008400,-0.032600,0.027700,0.019000,0.008400,0.032600,-0.027700,-0.019000,-0.008400,-0.032600,0.0*
1,1,0.063120,0.009700,-0.006800*
1,1,0.063120,-0.009700,0.006800*
%
%AMD45*
4,1,4,-0.027700,0.019000,0.008400,-0.032600,0.027700,-0.019000,-0.008400,0.032600,-0.027700,0.019000,0.0*
1,1,0.063120,-0.009700,-0.006800*
1,1,0.063120,0.009700,0.006800*
%
%ADD33C,0.018000*%
%ADD34R,0.039500X0.023750*%
%ADD35R,0.043430X0.047370*%
G04~CAMADD=36~9~0.0~0.0~473.7~434.3~0.0~0.0~0~0.0~0.0~0.0~0.0~0~0.0~0.0~0.0~0.0~0~0.0~0.0~0.0~125.5~628.0~635.0*
%ADD36D36*%
G04~CAMADD=37~9~0.0~0.0~395.0~237.5~0.0~0.0~0~0.0~0.0~0.0~0.0~0~0.0~0.0~0.0~0.0~0~0.0~0.0~0.0~215.5~458.0~419.0*
%ADD37D37*%
G04~CAMADD=38~9~0.0~0.0~473.7~434.3~0.0~0.0~0~0.0~0.0~0.0~0.0~0~0.0~0.0~0.0~0.0~0~0.0~0.0~0.0~234.5~628.0~635.0*
%ADD38D38*%
G04~CAMADD=39~9~0.0~0.0~395.0~237.5~0.0~0.0~0~0.0~0.0~0.0~0.0~0~0.0~0.0~0.0~0.0~0~0.0~0.0~0.0~324.5~458.0~419.0*
%ADD39D39*%
%ADD40R,0.030000X0.031620*%
%ADD41R,0.031620X0.030000*%
%ADD42R,0.029650X0.029650*%
%ADD43C,0.055240*%
G04~CAMADD=44~3~0.0~0.0~631.2~867.4~0.0~0.0~0~0.0~0.0~0.0~0.0~0~0.0~0.0~0.0~0.0~0~0.0~0.0~0.0~235.0~820.0~762.0*
%ADD44D44*%
G04~CAMADD=45~3~0.0~0.0~631.2~867.4~0.0~0.0~0~0.0~0.0~0.0~0.0~0~0.0~0.0~0.0~0.0~0~0.0~0.0~0.0~125.0~820.0~762.0*
%ADD45D45*%
%LNfront_flex-1*%
%LPD*%
G54D33*
X-02738Y0066D03*
X-02722D03*
X-02706D03*
X-02691D03*
X-02675D03*
X-02738Y00644D03*
X-02722D03*
X-02706D03*
X-02691D03*
X-02675D03*
X-02738Y00628D03*
X-02722D03*
X-02706D03*
X-02691D03*
X-02675D03*
X-02738Y00613D03*
X-02722D03*
X-02706D03*
X-02691D03*
X-02675D03*
X-02738Y00597D03*
X-02722D03*
X-02706D03*
X-02691D03*
X-02675D03*
X02577Y00654D03*
X02592D03*
X02608D03*
X02624D03*
X0264D03*
X02577Y00639D03*
X02592D03*
X02608D03*
X02624D03*
X0264D03*
X02577Y00623D03*
X02592D03*
X02608D03*
X02624D03*
X0264D03*
X02577Y00607D03*
X02592D03*
X02608D03*
X02624D03*
X0264D03*
X02577Y00591D03*
X02592D03*
X02608D03*
X02624D03*
X0264D03*
G54D34*
X-02496Y00386D03*
Y00355D03*
X02496D03*
Y00386D03*
G54D35*
X-02479Y00311D03*
Y0043D03*
X02479D03*
Y00311D03*
G54D36*
X-02382Y00918D03*
X-02314Y00822D03*
G54D37*
X-02353Y00847D03*
X-02372Y00873D03*
G54D38*
X02312Y00821D03*
X02381Y00917D03*
G54D39*
X0237Y00872D03*
X02352Y00846D03*
G54D40*
X02687Y00581D03*
X02724D03*
X02687Y00656D03*
X02724D03*
X02687Y00616D03*
X02724D03*
X-02533Y00605D03*
X-02495D03*
X-02537Y00651D03*
X-02499D03*
X-02628Y00605D03*
X-02591D03*
Y00643D03*
X-02628D03*
G54D41*
X02765Y00657D03*
Y00619D03*
X-00372Y00644D03*
Y00681D03*
X-00428D03*
Y00644D03*
G54D42*
X00381Y00687D03*
Y00641D03*
G54D43*
X00478Y00311D03*
X00502Y00245D03*
X00569Y00269D03*
X00545Y00335D03*
G54D44*
X00447Y00532D03*
X00483Y00584D03*
X00519Y00635D03*
X00555Y00687D03*
G54D45*
X-00447Y00532D03*
X-00483Y00584D03*
X-00519Y00635D03*
X-00555Y00687D03*
M02*