%FSTAX23Y23*%
%MOIN*%
%SFA1B1*%

%IPPOS*%
%ADD12C,0.003940*%
%ADD13C,0.006000*%
%ADD68C,0.005000*%
%LNfront_flex-1*%
%LPD*%
G54D12*
X00104Y00824D02*
D01*
X00104Y00824*
X00104Y00825*
X00104Y00825*
X00104Y00825*
X00104Y00825*
X00104Y00825*
X00103Y00825*
X00103Y00825*
X00103Y00825*
X00103Y00825*
X00103Y00826*
X00103Y00826*
X00103Y00826*
X00103Y00826*
X00103Y00826*
X00103Y00826*
X00102Y00826*
X00102Y00826*
X00102Y00826*
X00102Y00826*
X00102Y00826*
X00102Y00826*
X00102*
X00102Y00826*
X00101Y00826*
X00101Y00826*
X00101Y00826*
X00101Y00826*
X00101Y00826*
X00101Y00826*
X00101Y00826*
X00101Y00826*
X001Y00826*
X001Y00826*
X001Y00825*
X001Y00825*
X001Y00825*
X001Y00825*
X001Y00825*
X001Y00825*
X001Y00825*
X001Y00825*
X001Y00825*
X001Y00824*
X001Y00824*
X001Y00824*
X001Y00824*
X001Y00824*
X001Y00824*
X001Y00824*
X001Y00823*
X001Y00823*
X001Y00823*
X001Y00823*
X001Y00823*
X001Y00823*
X001Y00823*
X00101Y00823*
X00101Y00823*
X00101Y00823*
X00101Y00822*
X00101Y00822*
X00101Y00822*
X00101Y00822*
X00101Y00822*
X00102Y00822*
X00102Y00822*
X00102*
X00102Y00822*
X00102Y00822*
X00102Y00822*
X00102Y00822*
X00102Y00822*
X00103Y00822*
X00103Y00823*
X00103Y00823*
X00103Y00823*
X00103Y00823*
X00103Y00823*
X00103Y00823*
X00103Y00823*
X00103Y00823*
X00103Y00823*
X00104Y00823*
X00104Y00824*
X00104Y00824*
X00104Y00824*
X00104Y00824*
X00104Y00824*
X00104Y00824*
X-00003Y00688D02*
X00003D01*
X-00003Y00846D02*
X00003D01*
G54D13*
X-00265Y00805D02*
X-00251Y00791D01*
X-00258Y00784*
X-00262*
X-00265Y00786*
Y00791*
X-00258Y00798*
X-00265Y00791*
X-0027*
X-00272Y00793*
Y00798*
X-00265Y00805*
X-00279Y00791D02*
X-00265Y00777D01*
X-00274Y00767*
X-00293Y00777D02*
X-00298Y00772D01*
X-00295Y00774*
X-00281Y0076*
X-00279Y00763*
X-00284Y00758*
X-00291Y00751D02*
X-00305Y00765D01*
X-003Y00741*
X-00314Y00756*
X-00319Y00751D02*
X-00305Y00737D01*
X-0031Y00741*
X-00328*
X-00314*
Y00727*
X-00317Y0072D02*
X-00326Y00711D01*
X-00354D02*
Y00716D01*
X-0035Y0072*
X-00345*
X-00335Y00711*
Y00706*
X-0034Y00701*
X-00345*
X-00347Y00694D02*
X-00357Y00704D01*
X-00366*
Y00694*
X-00357Y00685*
X-00364Y00692*
X-00354Y00701*
X-00376Y00694D02*
X-00385Y00685D01*
X-0038Y0069*
X-00366Y00676*
X-0039Y0068D02*
X-00376Y00666D01*
X-00383Y00673*
X-00392Y00664*
X-00399Y00671*
X-00385Y00657*
X-00411Y00659D02*
X-00406Y00664D01*
X-00401*
X-00392Y00654*
Y0065*
X-00397Y00645*
X-00401*
X-00411Y00654*
Y00659*
X-00418Y00652D02*
X-00404Y00638D01*
X-00411Y00631*
X-00416*
X-00425Y0064*
Y00645*
X-00418Y00652*
X-00442Y00628D02*
X-00432Y00638D01*
X-00418Y00624*
X-00427Y00614*
X-00425Y00631D02*
X-0043Y00626D01*
X-00484Y00751D02*
Y00756D01*
X-00479Y0076*
X-00475*
X-00465Y00751*
Y00746*
X-0047Y00741*
X-00475*
X-00479Y00746*
X-00475Y00751*
X-00477Y00734D02*
X-00491Y00749D01*
X-00486Y00725*
X-005Y00739*
X-00505Y00734D02*
X-00491Y0072D01*
X-00498Y00713*
X-00503*
X-00512Y00723*
Y00727*
X-00505Y00734*
X-00364Y00791D02*
X-0035Y00777D01*
X-00357Y0077*
X-00361*
X-00364Y00772*
Y00777*
X-00357Y00784*
X-00364Y00777*
X-00369*
X-00371Y00779*
Y00784*
X-00364Y00791*
X-00378Y00777D02*
X-00364Y00763D01*
X-00373Y00753*
X-00392Y00763D02*
X-00397Y00758D01*
X-00394Y0076*
X-0038Y00746*
X-00378Y00749*
X-00383Y00744*
X-0039Y00737D02*
X-00404Y00751D01*
X-00399Y00727*
X-00413Y00741*
X-00418Y00737D02*
X-00404Y00723D01*
X-00409Y00727*
X-00427*
X-00413*
Y00713*
X-00416Y00706D02*
X-00425Y00697D01*
X-00453D02*
Y00701D01*
X-00449Y00706*
X-00444*
X-00442Y00704*
Y00699*
X-00446Y00694*
Y0069*
X-00444Y00687*
X-00439*
X-00434Y00692*
Y00697*
X-0046Y00694D02*
X-00465Y0069D01*
X-00463Y00692*
X-00449Y00678*
X-00446Y0068*
X-00451Y00675*
X-00479Y00671D02*
Y00675D01*
X-00475Y0068*
X-0047*
X-0046Y00671*
Y00666*
X-00465Y00661*
X-0047*
X-00475Y00666*
X-0047Y00671*
X-00287Y00715D02*
X-00273Y007D01*
X-0028Y00693*
X-00285*
X-00287Y00696*
Y007*
X-0028Y00707*
X-00287Y007*
X-00292*
X-00294Y00703*
Y00707*
X-00287Y00715*
X-00302Y007D02*
X-00287Y00686D01*
X-00297Y00677*
X-00316Y00686D02*
X-0032Y00682D01*
X-00318Y00684*
X-00304Y0067*
X-00302Y00672*
X-00306Y00667*
X-00313Y0066D02*
X-00327Y00674D01*
X-00323Y00651*
X-00337Y00665*
X-00342Y0066D02*
X-00327Y00646D01*
X-00332Y00651*
X-00351*
X-00337*
Y00637*
X-00339Y0063D02*
X-00349Y0062D01*
X-00356Y00618D02*
X-0037Y00632D01*
X-00377Y00625*
Y0062*
X-00372Y00616*
X-00367*
X-0036Y00623*
X-00384Y00618D02*
X-0037Y00604D01*
X-00379*
Y00594*
X-00393Y00608*
X-00384Y0059D02*
X-00398Y00604D01*
Y00594*
X-00408*
X-00393Y0058*
X00417Y00574D02*
X00409Y00585D01*
X00413Y0058*
X00397Y00568*
X00389Y00579D02*
X00405Y00591D01*
X004Y00599*
X00395Y006*
X0039Y00596*
X00389Y00591*
X00394Y00583*
X00375Y00594D02*
X00367Y00605D01*
X00382Y00623D02*
X00375Y00634D01*
X00379Y00629*
X00362Y00617*
X00371Y0064D02*
X00355Y00628D01*
X00363Y00634*
X00355Y00645*
X00363Y00651*
X00347Y00639*
X00352Y00667D02*
X00359Y00656D01*
X00343Y00645*
X00335Y00656*
X00351Y0065D02*
X00347Y00656D01*
X00332Y00661D02*
X00348Y00673D01*
X00342Y00681*
X00338Y00682*
X00332Y00678*
X00331Y00673*
X00337Y00665*
X00333Y0067D02*
X00324Y00672D01*
X0032Y00677D02*
X00337Y00689D01*
X00327Y00691*
X00329Y007*
X00313Y00688*
X00325Y00705D02*
X00321Y00711D01*
X00323Y00708*
X00307Y00697*
X00309Y00694*
X00305Y00699*
X00305Y00728D02*
X0031Y00727D01*
X00314Y00722*
X00313Y00717*
X0031Y00715*
X00305Y00716*
X00302Y00721*
X00297Y00722*
X00294Y0072*
X00293Y00716*
X00297Y0071*
X00302Y00709*
X00304Y00735D02*
X00296Y00746D01*
X003Y00741*
X00284Y00729*
X00287Y0076D02*
X00291Y00754D01*
X0029Y0075*
X00279Y00742*
X00274Y00743*
X0027Y00748*
X00271Y00753*
X00282Y00761*
X00287Y0076*
X00265Y00757D02*
X00281Y00768D01*
X00275Y00776*
X00271Y00777*
X00265Y00773*
X00264Y00769*
X0027Y0076*
X00266Y00766D02*
X00257Y00768D01*
X00449Y0062D02*
X00441Y00631D01*
X00445Y00626*
X00428Y00614*
X00421Y00625D02*
X00437Y00636D01*
X00431Y00645*
X00427Y00645*
X00421Y00642*
X00421Y00637*
X00426Y00629*
X00407Y00639D02*
X00399Y0065D01*
X00398Y00658D02*
X00414Y00669D01*
X0039Y00669*
X00407Y0068*
X00397Y00694D02*
X00401Y00688D01*
X004Y00684*
X00389Y00676*
X00385Y00677*
X00381Y00682*
X00382Y00687*
X00392Y00695*
X00397Y00694*
X00381Y00711D02*
X00386Y0071D01*
X00389Y00705*
X00389Y007*
X00386Y00698*
X00381Y00699*
X00377Y00704*
X00373Y00705*
X0037Y00703*
X00369Y00699*
X00373Y00693*
X00378Y00692*
X00372Y00729D02*
X0038Y00718D01*
X00364Y00707*
X00356Y00718*
X00372Y00713D02*
X00368Y00718D01*
X00349Y00721D02*
X00342Y00732D01*
X00347Y0076D02*
X00351Y00759D01*
X00355Y00754*
X00354Y00749*
X00343Y00742*
X00339Y00742*
X00335Y00748*
X00336Y00752*
X00341Y00756*
X00345Y00751*
X00329Y00756D02*
X00345Y00768D01*
X00321Y00767*
X00338Y00778*
X00334Y00784D02*
X00318Y00772D01*
X00312Y00781*
X00313Y00785*
X00324Y00793*
X00328Y00792*
X00334Y00784*
X00508Y00727D02*
X00512Y00726D01*
X00516Y00721*
X00515Y00716*
X00504Y00708*
X005Y00709*
X00496Y00715*
X00497Y00719*
X00502Y00723*
X00506Y00718*
X0049Y00723D02*
X00506Y00734D01*
X00482Y00734*
X00499Y00745*
X00495Y00751D02*
X00479Y00739D01*
X00473Y00747*
X00474Y00752*
X00485Y0076*
X00489Y00759*
X00495Y00751*
X00487Y00673D02*
X00479Y00684D01*
X00483Y00678*
X00467Y00667*
X00459Y00678D02*
X00475Y00689D01*
X0047Y00697*
X00465Y00698*
X0046Y00694*
X00459Y0069*
X00465Y00681*
X00445Y00692D02*
X00437Y00703D01*
X00436Y0071D02*
X00453Y00722D01*
X00429Y00721*
X00445Y00733*
X00435Y00746D02*
X00439Y00741D01*
X00438Y00736*
X00427Y00729*
X00423Y00729*
X00419Y00735*
X0042Y0074*
X00431Y00747*
X00435Y00746*
X00419Y00764D02*
X00424Y00763D01*
X00428Y00757*
X00427Y00753*
X00424Y00751*
X0042Y00752*
X00416Y00757*
X00411Y00758*
X00408Y00756*
X00408Y00751*
X00411Y00746*
X00416Y00745*
X00411Y00782D02*
X00418Y00771D01*
X00402Y00759*
X00394Y0077*
X0041Y00765D02*
X00406Y00771D01*
X-00517Y00348D02*
X-00507Y0032D01*
X-00521Y00315*
X-00528Y00318*
X-00534Y00337*
X-00531Y00343*
X-00517Y00348*
X-00554Y00304D02*
X-00535Y0031D01*
X-00561Y00322*
X-00562Y00327*
X-00559Y00333*
X-0055Y00337*
X-00544Y00334*
X02725Y00811D02*
Y00781D01*
X02705*
X02675Y00811D02*
X02695D01*
Y00781*
X02675*
X02695Y00796D02*
X02685D01*
X02665Y00811D02*
Y00781D01*
X0265*
X02645Y00786*
Y00806*
X0265Y00811*
X02665*
X02615D02*
X02625Y00806D01*
X02635Y00796*
Y00786*
X0263Y00781*
X0262*
X02615Y00786*
Y00791*
X0262Y00796*
X02635*
X-02617Y00819D02*
Y00789D01*
X-02637*
X-02667Y00819D02*
X-02647D01*
Y00789*
X-02667*
X-02647Y00804D02*
X-02657D01*
X-02677Y00819D02*
Y00789D01*
X-02692*
X-02697Y00794*
Y00814*
X-02692Y00819*
X-02677*
X-02727D02*
X-02707D01*
Y00804*
X-02717Y00809*
X-02722*
X-02727Y00804*
Y00794*
X-02722Y00789*
X-02712*
X-02707Y00794*
X-00197Y00796D02*
Y00766D01*
X-00212*
X-00217Y00771*
Y00791*
X-00212Y00796*
X-00197*
X-00227Y00766D02*
X-00237D01*
X-00232*
Y00796*
X-00227Y00791*
G54D68*
X-00591Y00135D02*
X-00486Y00153D01*
X-0051Y00292D02*
X-00486Y00153D01*
X-00597Y00278D02*
X-0051Y00292D01*
X-00612Y00257D02*
X-00591Y00135D01*
X-00612Y00257D02*
X-00597Y00278D01*
M02*