G04*
G04 #@! TF.GenerationSoftware,Altium Limited,Altium Designer,19.1.5 (86)*
G04*
G04 Layer_Color=16711935*
%FSLAX25Y25*%
%MOIN*%
G70*
G01*
G75*
%ADD25C,0.07296*%
%ADD26R,0.07296X0.07296*%
%ADD27O,0.04331X0.06693*%
%ADD28O,0.06693X0.04331*%
%ADD29C,0.05524*%
G04:AMPARAMS|DCode=30|XSize=51.31mil|YSize=43.43mil|CornerRadius=12.86mil|HoleSize=0mil|Usage=FLASHONLY|Rotation=270.000|XOffset=0mil|YOffset=0mil|HoleType=Round|Shape=RoundedRectangle|*
%AMROUNDEDRECTD30*
21,1,0.05131,0.01772,0,0,270.0*
21,1,0.02559,0.04343,0,0,270.0*
1,1,0.02572,-0.00886,-0.01280*
1,1,0.02572,-0.00886,0.01280*
1,1,0.02572,0.00886,0.01280*
1,1,0.02572,0.00886,-0.01280*
%
%ADD30ROUNDEDRECTD30*%
D25*
X132000Y78000D02*
D03*
Y68012D02*
D03*
X122000Y78000D02*
D03*
Y68012D02*
D03*
X112000Y78000D02*
D03*
Y68012D02*
D03*
X102000Y78000D02*
D03*
Y68012D02*
D03*
X92000Y78000D02*
D03*
Y68012D02*
D03*
X82000Y78000D02*
D03*
Y68012D02*
D03*
X72000Y78000D02*
D03*
Y68012D02*
D03*
X62000Y78000D02*
D03*
Y68012D02*
D03*
X52000Y78000D02*
D03*
Y68012D02*
D03*
X42000Y78000D02*
D03*
Y68012D02*
D03*
X32000Y78000D02*
D03*
Y68012D02*
D03*
X22000Y78000D02*
D03*
Y68012D02*
D03*
X12000Y78000D02*
D03*
D26*
Y68012D02*
D03*
D27*
X39949Y51500D02*
D03*
X33650D02*
D03*
X27350D02*
D03*
X21051D02*
D03*
D28*
X90000Y38551D02*
D03*
Y44850D02*
D03*
Y51150D02*
D03*
Y57449D02*
D03*
D29*
X120000Y52000D02*
D03*
X115000Y57000D02*
D03*
X110000Y52000D02*
D03*
X115000Y47000D02*
D03*
X103961Y17500D02*
D03*
X39000D02*
D03*
X39039Y6000D02*
D03*
X104000D02*
D03*
X103961Y29000D02*
D03*
X39000D02*
D03*
D30*
X47500Y51000D02*
D03*
X64035D02*
D03*
X47500Y58087D02*
D03*
X64035D02*
D03*
M02*
