M48
;Layer_Color=9474304
;FILE_FORMAT=2:5
INCH,LZ
;TYPE=PLATED
T1F00S00C0.01181
T3F00S00C0.02756
T4F00S00C0.03150
T5F00S00C0.03937
T6F00S00C0.04331
%
T01
X00045Y00075
X0009473Y0008507
X0012435Y0008351
X00155Y0008
X00145Y0011
X00125Y0016
X00055Y0025
X0014Y00305
X00095Y00415
X002Y0045
X0013Y0058
X0052Y0059
X00465Y0042
X00385Y00415
X00465Y0032
X00285
X00265Y00055
X0061Y0007
X00585Y00395
X00775Y00315
X00795Y00545
X00825Y00585
X01Y006
X01075Y0061
X0103961Y0042
X01245Y00385
X0128Y00395
Y003
X0132616Y0030252
X01345Y00335
X01355Y00245
X01325
X01295Y00265
X01405Y00245
X01365Y00095
X0128Y0009
X01235Y00195
X0114Y0011
X0091Y00175
X0142Y0005
X0144Y00645
X01415Y00685
Y00775
X0141Y00815
X0005Y0082
T03
X0115Y0047
X012Y0052
X0115Y0057
X011Y0052
T04
X0039039Y0006
X0039Y00175
Y0029
X0103961
Y00175
X0104Y0006
T05
X0021051Y00515
X002735
X003365
X0039949
X009Y005115
Y0057449
Y004485
Y0038551
T06
X0012Y0068012
X0022
X0032
X0042
X0052
X0062
X0072
X0082
X0092
X0102
X0112
X0122
X0132
Y0078
X0122
X0112
X0102
X0092
X0082
X0072
X0062
X0052
X0042
X0032
X0022
X0012
M30
