G04*
G04 #@! TF.GenerationSoftware,Altium Limited,Altium Designer,19.1.5 (86)*
G04*
G04 Layer_Physical_Order=2*
G04 Layer_Color=1930808*
%FSLAX25Y25*%
%MOIN*%
G70*
G01*
G75*
%ADD12C,0.01000*%
%ADD14C,0.00600*%
%ADD42C,0.02000*%
%ADD44C,0.06496*%
%ADD45R,0.06496X0.06496*%
%ADD46O,0.05512X0.07874*%
%ADD47O,0.07874X0.05512*%
%ADD48C,0.04724*%
G04:AMPARAMS|DCode=49|XSize=43.31mil|YSize=35.43mil|CornerRadius=8.86mil|HoleSize=0mil|Usage=FLASHONLY|Rotation=270.000|XOffset=0mil|YOffset=0mil|HoleType=Round|Shape=RoundedRectangle|*
%AMROUNDEDRECTD49*
21,1,0.04331,0.01772,0,0,270.0*
21,1,0.02559,0.03543,0,0,270.0*
1,1,0.01772,-0.00886,-0.01280*
1,1,0.01772,-0.00886,0.01280*
1,1,0.01772,0.00886,0.01280*
1,1,0.01772,0.00886,-0.01280*
%
%ADD49ROUNDEDRECTD49*%
%ADD50C,0.02362*%
G36*
X145000Y81212D02*
X144000Y80798D01*
X142696Y82101D01*
X142678Y82195D01*
X142284Y82784D01*
X141695Y83178D01*
X141000Y83316D01*
X140305Y83178D01*
X139716Y82784D01*
X139322Y82195D01*
X139184Y81500D01*
X139322Y80805D01*
X139716Y80216D01*
X140137Y79934D01*
X140277Y79227D01*
X140258Y78812D01*
X140216Y78784D01*
X139822Y78195D01*
X139684Y77500D01*
X139822Y76805D01*
X140216Y76216D01*
X140582Y75971D01*
Y70029D01*
X140216Y69784D01*
X139822Y69195D01*
X139684Y68500D01*
X139822Y67805D01*
X140216Y67216D01*
X140805Y66822D01*
X141500Y66684D01*
X142082Y66800D01*
X142312Y66742D01*
X142330Y66729D01*
X142716Y65784D01*
X142322Y65195D01*
X142184Y64500D01*
X142322Y63805D01*
X142716Y63216D01*
X143305Y62822D01*
X144000Y62684D01*
X145000Y61915D01*
Y6561D01*
X144839Y6451D01*
X143572Y6572D01*
X142851Y7055D01*
X142500Y7124D01*
Y5000D01*
Y2876D01*
X142851Y2945D01*
X143572Y3427D01*
X144839Y3549D01*
X145000Y3439D01*
Y500D01*
X65149D01*
Y5500D01*
X64959Y5959D01*
X64500Y6149D01*
X63666D01*
X62816Y7000D01*
X62678Y7695D01*
X62284Y8284D01*
X61918Y8529D01*
Y37000D01*
X61848Y37351D01*
X61649Y37649D01*
X60230Y39068D01*
X60316Y39500D01*
X60226Y39953D01*
X60642Y40700D01*
X60874Y40953D01*
X67584D01*
X68208Y41077D01*
X68738Y41431D01*
X80113Y52806D01*
X80195Y52822D01*
X80784Y53216D01*
X81178Y53805D01*
X81316Y54500D01*
X81178Y55195D01*
X80914Y55590D01*
X81120Y56376D01*
X81279Y56656D01*
X81805Y56822D01*
X82500Y56684D01*
X83195Y56822D01*
X83784Y57216D01*
X84042Y57602D01*
X84852Y57476D01*
X85038Y57393D01*
X85160Y56468D01*
X85538Y55555D01*
X86140Y54770D01*
X86261Y54677D01*
X86425Y53543D01*
X85887Y52842D01*
X85549Y52026D01*
X85434Y51150D01*
X85549Y50274D01*
X85887Y49457D01*
X86425Y48756D01*
X86624Y48604D01*
Y47396D01*
X86425Y47244D01*
X85887Y46543D01*
X85549Y45726D01*
X85434Y44850D01*
X85549Y43974D01*
X85887Y43158D01*
X86425Y42457D01*
X86624Y42304D01*
Y41097D01*
X86425Y40945D01*
X85887Y40244D01*
X85549Y39427D01*
X85434Y38551D01*
X85549Y37675D01*
X85887Y36859D01*
X86425Y36158D01*
X87126Y35620D01*
X87943Y35282D01*
X88819Y35166D01*
X89082D01*
Y18500D01*
X89152Y18149D01*
X89276Y17963D01*
X89184Y17500D01*
X89322Y16805D01*
X89716Y16216D01*
X90305Y15822D01*
X91000Y15684D01*
X91695Y15822D01*
X92284Y16216D01*
X92678Y16805D01*
X92816Y17500D01*
X92678Y18195D01*
X92284Y18784D01*
X91695Y19178D01*
X91000Y19316D01*
X90918Y19384D01*
Y35166D01*
X91181D01*
X92057Y35282D01*
X92874Y35620D01*
X93575Y36158D01*
X94112Y36859D01*
X94451Y37675D01*
X94566Y38551D01*
X94451Y39427D01*
X94112Y40244D01*
X93575Y40945D01*
X93376Y41097D01*
Y42304D01*
X93575Y42457D01*
X94112Y43158D01*
X94451Y43974D01*
X94566Y44850D01*
X94451Y45726D01*
X94112Y46543D01*
X93575Y47244D01*
X93376Y47396D01*
Y48604D01*
X93575Y48756D01*
X94112Y49457D01*
X94451Y50274D01*
X94566Y51150D01*
X94451Y52026D01*
X94112Y52842D01*
X93575Y53543D01*
X93739Y54677D01*
X93860Y54770D01*
X94462Y55555D01*
X94840Y56468D01*
X94904Y56949D01*
X90000D01*
Y57949D01*
X95288D01*
X95853Y58398D01*
X96000Y58369D01*
X99236D01*
X99305Y58322D01*
X100000Y58184D01*
X100695Y58322D01*
X100829Y58412D01*
X101829Y57877D01*
Y31088D01*
X101373Y30494D01*
X101075Y29773D01*
X100973Y29000D01*
X101075Y28227D01*
X101373Y27506D01*
X101848Y26887D01*
X102467Y26412D01*
X103187Y26114D01*
X103961Y26012D01*
X104734Y26114D01*
X105455Y26412D01*
X106073Y26887D01*
X106548Y27506D01*
X106847Y28227D01*
X106948Y29000D01*
X106847Y29773D01*
X106548Y30494D01*
X106073Y31113D01*
X105455Y31587D01*
X105092Y31738D01*
Y40614D01*
X105245Y40716D01*
X105638Y41305D01*
X105777Y42000D01*
X105638Y42695D01*
X105245Y43284D01*
X105092Y43386D01*
Y59598D01*
X106092Y59901D01*
X106216Y59716D01*
X106805Y59322D01*
X107500Y59184D01*
X107932Y59270D01*
X110851Y56351D01*
X111149Y56152D01*
X111500Y56082D01*
X112174D01*
X112413Y55506D01*
X112887Y54887D01*
X113506Y54413D01*
X113817Y53643D01*
X113815Y53252D01*
X113750Y53198D01*
X112625Y53404D01*
X112587Y53494D01*
X112113Y54113D01*
X111494Y54588D01*
X110773Y54886D01*
X110000Y54988D01*
X109227Y54886D01*
X108506Y54588D01*
X107887Y54113D01*
X107413Y53494D01*
X107114Y52773D01*
X107012Y52000D01*
X107114Y51227D01*
X107413Y50506D01*
X107887Y49887D01*
X108506Y49413D01*
X109227Y49114D01*
X110000Y49012D01*
X110773Y49114D01*
X111494Y49413D01*
X112113Y49887D01*
X112587Y50506D01*
X112826Y51082D01*
X114613D01*
X114965Y51152D01*
X115262Y51351D01*
X115636Y51725D01*
X116692Y51367D01*
X116724Y51122D01*
X117023Y50402D01*
X116843Y50125D01*
X116287Y49673D01*
X115773Y49886D01*
X115000Y49988D01*
X114227Y49886D01*
X113506Y49588D01*
X112887Y49113D01*
X112413Y48494D01*
X112114Y47773D01*
X112012Y47000D01*
X112114Y46227D01*
X112413Y45506D01*
X112887Y44887D01*
X113506Y44412D01*
X114227Y44114D01*
X115000Y44012D01*
X115773Y44114D01*
X116494Y44412D01*
X117113Y44887D01*
X117587Y45506D01*
X117886Y46227D01*
X117988Y47000D01*
X117886Y47773D01*
X117673Y48287D01*
X118125Y48843D01*
X118402Y49023D01*
X119122Y48724D01*
X119500Y48675D01*
Y52000D01*
X120000D01*
Y52500D01*
X123325D01*
X123276Y52878D01*
X122937Y53696D01*
X122398Y54398D01*
X121696Y54937D01*
X120878Y55276D01*
X120144Y55372D01*
X119972Y55422D01*
X119180Y56292D01*
Y59238D01*
X119110Y59589D01*
X118911Y59887D01*
X117418Y61380D01*
Y66406D01*
X118418Y66605D01*
X118639Y66071D01*
X119256Y65267D01*
X120059Y64651D01*
X120995Y64263D01*
X122000Y64131D01*
X123004Y64263D01*
X123768Y64579D01*
X124362Y64146D01*
X124582Y63882D01*
Y40384D01*
X124500Y40316D01*
X123805Y40178D01*
X123216Y39784D01*
X122822Y39195D01*
X122684Y38500D01*
X122822Y37805D01*
X123216Y37216D01*
X123805Y36822D01*
X124500Y36684D01*
X124582Y36616D01*
Y27557D01*
X124652Y27206D01*
X124851Y26908D01*
X127989Y23770D01*
X128287Y23571D01*
X128638Y23501D01*
X130362D01*
X130713Y23571D01*
X131216Y23216D01*
X131805Y22822D01*
X132500Y22684D01*
X133195Y22822D01*
X133784Y23216D01*
X134216D01*
X134805Y22822D01*
X135500Y22684D01*
X136195Y22822D01*
X136784Y23216D01*
X137178Y23805D01*
X137264Y24239D01*
X137302Y24273D01*
X137395Y24284D01*
X138394Y23909D01*
X138445Y23649D01*
X138927Y22928D01*
X139649Y22445D01*
X140000Y22376D01*
Y24500D01*
Y26624D01*
X139649Y26555D01*
X138927Y26072D01*
X138695Y25724D01*
X138559Y25534D01*
X138404Y25361D01*
X137567Y25565D01*
X137499Y25633D01*
X137499Y26171D01*
Y36419D01*
X137429Y36770D01*
X137230Y37068D01*
X134149Y40149D01*
X129418Y44880D01*
Y63882D01*
X129638Y64146D01*
X130232Y64579D01*
X130996Y64263D01*
X132000Y64131D01*
X133004Y64263D01*
X133941Y64651D01*
X134744Y65267D01*
X135361Y66071D01*
X135749Y67007D01*
X135881Y68012D01*
X135749Y69016D01*
X135361Y69952D01*
X134744Y70756D01*
X133941Y71373D01*
X133004Y71761D01*
X132000Y71893D01*
X130996Y71761D01*
X130059Y71373D01*
X129256Y70756D01*
X128639Y69952D01*
X128251Y69016D01*
X128119Y68012D01*
X128251Y67007D01*
X128639Y66071D01*
X128692Y66002D01*
X127851Y65161D01*
X127652Y64863D01*
X127582Y64512D01*
Y44500D01*
X127652Y44149D01*
X127851Y43851D01*
X129718Y41985D01*
X129720Y41974D01*
X129353Y40935D01*
X129099Y40908D01*
X128695Y41178D01*
X128000Y41316D01*
X127418Y41200D01*
X127188Y41258D01*
X126418Y41787D01*
Y64512D01*
X126348Y64863D01*
X126149Y65161D01*
X125308Y66002D01*
X125361Y66071D01*
X125749Y67007D01*
X125881Y68012D01*
X125749Y69016D01*
X125361Y69952D01*
X124744Y70756D01*
X123941Y71373D01*
X123004Y71761D01*
X122000Y71893D01*
X120995Y71761D01*
X120059Y71373D01*
X119256Y70756D01*
X118639Y69952D01*
X118418Y69419D01*
X117418Y69617D01*
Y73500D01*
X117348Y73851D01*
X117149Y74149D01*
X115308Y75990D01*
X115361Y76059D01*
X115749Y76995D01*
X115881Y78000D01*
X115749Y79005D01*
X115361Y79941D01*
X114744Y80744D01*
X113941Y81361D01*
X113005Y81749D01*
X112000Y81881D01*
X110995Y81749D01*
X110059Y81361D01*
X109256Y80744D01*
X108639Y79941D01*
X108251Y79005D01*
X108119Y78000D01*
X108251Y76995D01*
X108639Y76059D01*
X109256Y75256D01*
X110059Y74639D01*
X110995Y74251D01*
X112000Y74119D01*
X113005Y74251D01*
X113941Y74639D01*
X114010Y74692D01*
X115582Y73120D01*
Y71307D01*
X115182Y71044D01*
X114582Y70881D01*
X113941Y71373D01*
X113005Y71761D01*
X112000Y71893D01*
X110995Y71761D01*
X110059Y71373D01*
X109783Y71161D01*
X108783Y71654D01*
Y72848D01*
X108659Y73472D01*
X108306Y74002D01*
X105621Y76686D01*
X105749Y76995D01*
X105881Y78000D01*
X105749Y79005D01*
X105361Y79941D01*
X104744Y80744D01*
X103941Y81361D01*
X103005Y81749D01*
X102000Y81881D01*
X100996Y81749D01*
X100059Y81361D01*
X99256Y80744D01*
X98639Y79941D01*
X98251Y79005D01*
X98119Y78000D01*
X98251Y76995D01*
X98639Y76059D01*
X99256Y75256D01*
X100059Y74639D01*
X100996Y74251D01*
X102000Y74119D01*
X103005Y74251D01*
X103314Y74379D01*
X105393Y72300D01*
X105357Y71328D01*
X104470Y70967D01*
X103941Y71373D01*
X103005Y71761D01*
X102000Y71893D01*
X100996Y71761D01*
X100059Y71373D01*
X99256Y70756D01*
X98639Y69952D01*
X98251Y69016D01*
X98119Y68012D01*
X98251Y67007D01*
X98639Y66071D01*
X99256Y65267D01*
X100059Y64651D01*
X100996Y64263D01*
X102000Y64131D01*
X102845Y64242D01*
X103146Y63891D01*
X103356Y63339D01*
X102307Y62290D01*
X102040Y61890D01*
X101967Y61832D01*
X101681Y61706D01*
X100891Y61547D01*
X100695Y61678D01*
X100000Y61816D01*
X99305Y61678D01*
X99236Y61631D01*
X96676D01*
X94653Y63653D01*
X94412Y63815D01*
X94405Y63827D01*
X94304Y64764D01*
X94352Y64966D01*
X94744Y65267D01*
X95361Y66071D01*
X95749Y67007D01*
X95881Y68012D01*
X95749Y69016D01*
X95361Y69952D01*
X94744Y70756D01*
X93941Y71373D01*
X93005Y71761D01*
X92000Y71893D01*
X90996Y71761D01*
X90059Y71373D01*
X89256Y70756D01*
X88639Y69952D01*
X88251Y69016D01*
X88119Y68012D01*
X88251Y67007D01*
X88639Y66071D01*
X89256Y65267D01*
X89433Y65131D01*
X89093Y64131D01*
X85564D01*
X85291Y64565D01*
X85144Y65131D01*
X85711Y65869D01*
X86139Y66903D01*
X86219Y67512D01*
X77781D01*
X77861Y66903D01*
X78289Y65869D01*
X78328Y65819D01*
X78096Y64795D01*
X77956Y64661D01*
X77615Y64704D01*
X75621Y66698D01*
X75749Y67007D01*
X75881Y68012D01*
X75749Y69016D01*
X75361Y69952D01*
X74744Y70756D01*
X73941Y71373D01*
X73005Y71761D01*
X72000Y71893D01*
X70995Y71761D01*
X70059Y71373D01*
X69256Y70756D01*
X68639Y69952D01*
X68251Y69016D01*
X68119Y68012D01*
X68251Y67007D01*
X68639Y66071D01*
X69256Y65267D01*
X70059Y64651D01*
X70995Y64263D01*
X72000Y64131D01*
X73005Y64263D01*
X73314Y64391D01*
X76358Y61347D01*
X76888Y60993D01*
X77512Y60869D01*
X77971D01*
X78168Y59869D01*
X77846Y59654D01*
X67342Y49149D01*
X66421Y49642D01*
X66436Y49720D01*
Y52280D01*
X66321Y52859D01*
X65992Y53351D01*
X65501Y53679D01*
X64921Y53794D01*
X63150D01*
X62570Y53679D01*
X62078Y53351D01*
X61750Y52859D01*
X61635Y52280D01*
Y49720D01*
X61750Y49141D01*
X62078Y48649D01*
X62570Y48321D01*
X63150Y48206D01*
X64403D01*
X64911Y47205D01*
X64626Y46816D01*
X43196D01*
X42942Y47183D01*
X42762Y47816D01*
X43230Y48425D01*
X43608Y49338D01*
X43737Y50319D01*
Y51000D01*
X39949D01*
Y51500D01*
X39449D01*
Y56404D01*
X38968Y56340D01*
X38055Y55962D01*
X37270Y55360D01*
X37177Y55239D01*
X36043Y55075D01*
X35342Y55612D01*
X34526Y55951D01*
X33650Y56066D01*
X32774Y55951D01*
X31957Y55612D01*
X31256Y55075D01*
X31104Y54876D01*
X29896D01*
X29744Y55075D01*
X29043Y55612D01*
X28227Y55951D01*
X27350Y56066D01*
X26474Y55951D01*
X25658Y55612D01*
X24957Y55075D01*
X24804Y54876D01*
X23597D01*
X23445Y55075D01*
X22744Y55612D01*
X21927Y55951D01*
X21051Y56066D01*
X20175Y55951D01*
X19359Y55612D01*
X18918Y55274D01*
X18066Y55586D01*
X17991Y55650D01*
X17968Y56671D01*
X27630Y66333D01*
X28419Y66176D01*
X28701Y65990D01*
X29256Y65267D01*
X30059Y64651D01*
X30996Y64263D01*
X32000Y64131D01*
X33005Y64263D01*
X33941Y64651D01*
X34744Y65267D01*
X35361Y66071D01*
X35749Y67007D01*
X35881Y68012D01*
X35749Y69016D01*
X35361Y69952D01*
X34744Y70756D01*
X33941Y71373D01*
X33005Y71761D01*
X32000Y71893D01*
X30996Y71761D01*
X30059Y71373D01*
X29256Y70756D01*
X28639Y69952D01*
X28251Y69016D01*
X28240Y68929D01*
X28012D01*
X27661Y68860D01*
X27363Y68661D01*
X26869Y68167D01*
X25814Y68525D01*
X25749Y69016D01*
X25361Y69952D01*
X24744Y70756D01*
X23941Y71373D01*
X23005Y71761D01*
X22000Y71893D01*
X20996Y71761D01*
X20059Y71373D01*
X19256Y70756D01*
X18639Y69952D01*
X18251Y69016D01*
X18119Y68012D01*
X18251Y67007D01*
X18639Y66071D01*
X19256Y65267D01*
X19801Y64849D01*
X20061Y63694D01*
X15527Y59160D01*
X14409Y59212D01*
X14284Y59284D01*
X14283Y59285D01*
X13695Y59678D01*
X13418Y59733D01*
Y64164D01*
X15848D01*
Y71860D01*
X8152D01*
Y64164D01*
X11582D01*
Y59084D01*
X11322Y58695D01*
X11184Y58000D01*
X11322Y57305D01*
X11716Y56716D01*
X12305Y56322D01*
X13000Y56184D01*
X13695Y56322D01*
X13882Y56447D01*
X14882Y55948D01*
Y33160D01*
X14000Y32316D01*
X13305Y32178D01*
X12894Y31903D01*
X10418Y34380D01*
Y39971D01*
X10784Y40216D01*
X11178Y40805D01*
X11316Y41500D01*
X11178Y42195D01*
X10784Y42784D01*
X10195Y43178D01*
X9500Y43316D01*
X8805Y43178D01*
X8216Y42784D01*
X7822Y42195D01*
X7684Y41500D01*
X7822Y40805D01*
X8216Y40216D01*
X8582Y39971D01*
Y34000D01*
X8652Y33649D01*
X8851Y33351D01*
X12304Y29899D01*
X12322Y29805D01*
X12716Y29216D01*
X12889Y29100D01*
X13119Y27917D01*
X8824Y23621D01*
X8625Y23324D01*
X8555Y22973D01*
Y10036D01*
X8189Y9791D01*
X7795Y9202D01*
X7657Y8507D01*
X7795Y7812D01*
X8189Y7223D01*
X8778Y6829D01*
X8897Y6805D01*
X10851Y4851D01*
X11149Y4652D01*
X11500Y4582D01*
X24971D01*
X25216Y4216D01*
X25805Y3822D01*
X26500Y3684D01*
X27195Y3822D01*
X27784Y4216D01*
X28178Y4805D01*
X28316Y5500D01*
X28178Y6195D01*
X27784Y6784D01*
X27195Y7178D01*
X26500Y7316D01*
X25805Y7178D01*
X25216Y6784D01*
X24971Y6418D01*
X18269D01*
X18049Y6642D01*
X17608Y7418D01*
X17624Y7500D01*
X15500D01*
Y8500D01*
X17624D01*
X17555Y8851D01*
X17543Y8869D01*
X18077Y9869D01*
X32864D01*
X36131Y6601D01*
X36052Y6000D01*
X36153Y5227D01*
X36452Y4506D01*
X36927Y3887D01*
X37545Y3413D01*
X38266Y3114D01*
X39039Y3012D01*
X39813Y3114D01*
X40533Y3413D01*
X41152Y3887D01*
X41627Y4506D01*
X41925Y5227D01*
X42027Y6000D01*
X41925Y6773D01*
X41627Y7494D01*
X41152Y8113D01*
X40533Y8587D01*
X39813Y8886D01*
X39039Y8988D01*
X38438Y8909D01*
X34693Y12653D01*
X34164Y13007D01*
X33539Y13131D01*
X14500D01*
X13656Y13755D01*
X13613Y14602D01*
X13784Y14716D01*
X14178Y15305D01*
X14316Y16000D01*
X14178Y16695D01*
X13784Y17284D01*
X13337Y17583D01*
Y23539D01*
X17930Y28132D01*
X18129Y28430D01*
X18199Y28781D01*
Y31859D01*
X18129Y32210D01*
X17930Y32508D01*
X17918Y32520D01*
Y42566D01*
X18918Y43100D01*
X19149Y42945D01*
X19500Y42876D01*
Y45000D01*
X20000D01*
Y45500D01*
X22124D01*
X22055Y45851D01*
X21928Y46041D01*
X21928Y46269D01*
X22294Y47201D01*
X22744Y47387D01*
X23445Y47925D01*
X23597Y48124D01*
X24804D01*
X24957Y47925D01*
X25658Y47387D01*
X26474Y47049D01*
X27350Y46934D01*
X28227Y47049D01*
X29043Y47387D01*
X29744Y47925D01*
X29896Y48124D01*
X31104D01*
X31256Y47925D01*
X31957Y47387D01*
X32774Y47049D01*
X33650Y46934D01*
X34526Y47049D01*
X34964Y47231D01*
X35438Y46345D01*
X35427Y46338D01*
X27347Y38257D01*
X26993Y37728D01*
X26869Y37103D01*
Y32764D01*
X26822Y32695D01*
X26684Y32000D01*
X26822Y31305D01*
X26869Y31236D01*
Y28500D01*
X26993Y27876D01*
X27347Y27347D01*
X36204Y18489D01*
X36114Y18273D01*
X36012Y17500D01*
X36114Y16727D01*
X36413Y16006D01*
X36887Y15387D01*
X37506Y14912D01*
X38227Y14614D01*
X39000Y14512D01*
X39773Y14614D01*
X40494Y14912D01*
X41113Y15387D01*
X41587Y16006D01*
X41886Y16727D01*
X41988Y17500D01*
X41886Y18273D01*
X41587Y18994D01*
X41113Y19613D01*
X40494Y20087D01*
X39773Y20386D01*
X39000Y20488D01*
X38840Y20467D01*
X30131Y29176D01*
Y31236D01*
X30178Y31305D01*
X30316Y32000D01*
X30178Y32695D01*
X30131Y32764D01*
Y36428D01*
X35779Y42075D01*
X36700Y41583D01*
X36684Y41500D01*
X36822Y40805D01*
X36869Y40736D01*
Y31088D01*
X36413Y30494D01*
X36114Y29773D01*
X36012Y29000D01*
X36114Y28227D01*
X36413Y27506D01*
X36887Y26887D01*
X37506Y26412D01*
X38227Y26114D01*
X39000Y26012D01*
X39773Y26114D01*
X40494Y26412D01*
X41113Y26887D01*
X41587Y27506D01*
X41886Y28227D01*
X41988Y29000D01*
X41886Y29773D01*
X41587Y30494D01*
X41113Y31113D01*
X40494Y31587D01*
X40131Y31738D01*
Y40736D01*
X40178Y40805D01*
X40316Y41500D01*
X40178Y42195D01*
X39939Y42553D01*
X40224Y43350D01*
X40382Y43553D01*
X44193D01*
X44640Y42943D01*
X44794Y42553D01*
X44684Y42000D01*
X44822Y41305D01*
X44869Y41236D01*
Y32764D01*
X44822Y32695D01*
X44684Y32000D01*
X44822Y31305D01*
X45216Y30716D01*
X45805Y30322D01*
X46500Y30184D01*
X47195Y30322D01*
X47784Y30716D01*
X48178Y31305D01*
X48316Y32000D01*
X48178Y32695D01*
X48131Y32764D01*
Y40953D01*
X56126D01*
X56358Y40700D01*
X56774Y39953D01*
X56684Y39500D01*
X56822Y38805D01*
X57216Y38216D01*
X57805Y37822D01*
X58500Y37684D01*
X58932Y37770D01*
X60082Y36620D01*
Y8529D01*
X59716Y8284D01*
X59322Y7695D01*
X59184Y7000D01*
X59003Y6164D01*
X58541Y5959D01*
X58351Y5500D01*
Y500D01*
X500D01*
Y84500D01*
X3016D01*
X3295Y83871D01*
X3379Y83500D01*
X2945Y82851D01*
X2876Y82500D01*
X7124D01*
X7055Y82851D01*
X6621Y83500D01*
X6705Y83871D01*
X6984Y84500D01*
X145000D01*
Y81212D01*
D02*
G37*
%LPC*%
G36*
X7124Y81500D02*
X5500D01*
Y79876D01*
X5851Y79945D01*
X6572Y80427D01*
X7055Y81149D01*
X7124Y81500D01*
D02*
G37*
G36*
X4500D02*
X2876D01*
X2945Y81149D01*
X3427Y80427D01*
X4149Y79945D01*
X4500Y79876D01*
Y81500D01*
D02*
G37*
G36*
X132500Y82219D02*
Y78500D01*
X136219D01*
X136139Y79109D01*
X135711Y80142D01*
X135030Y81030D01*
X134142Y81711D01*
X133109Y82139D01*
X132500Y82219D01*
D02*
G37*
G36*
X131500D02*
X130891Y82139D01*
X129858Y81711D01*
X128970Y81030D01*
X128289Y80142D01*
X127861Y79109D01*
X127781Y78500D01*
X131500D01*
Y82219D01*
D02*
G37*
G36*
X122500D02*
Y78500D01*
X126219D01*
X126139Y79109D01*
X125711Y80142D01*
X125030Y81030D01*
X124142Y81711D01*
X123109Y82139D01*
X122500Y82219D01*
D02*
G37*
G36*
X121500D02*
X120891Y82139D01*
X119858Y81711D01*
X118970Y81030D01*
X118289Y80142D01*
X117861Y79109D01*
X117781Y78500D01*
X121500D01*
Y82219D01*
D02*
G37*
G36*
X62500D02*
Y78500D01*
X66219D01*
X66139Y79109D01*
X65711Y80142D01*
X65030Y81030D01*
X64142Y81711D01*
X63109Y82139D01*
X62500Y82219D01*
D02*
G37*
G36*
X61500D02*
X60891Y82139D01*
X59858Y81711D01*
X58970Y81030D01*
X58289Y80142D01*
X57861Y79109D01*
X57781Y78500D01*
X61500D01*
Y82219D01*
D02*
G37*
G36*
X52500D02*
Y78500D01*
X56219D01*
X56139Y79109D01*
X55711Y80142D01*
X55030Y81030D01*
X54142Y81711D01*
X53109Y82139D01*
X52500Y82219D01*
D02*
G37*
G36*
X51500D02*
X50891Y82139D01*
X49858Y81711D01*
X48970Y81030D01*
X48289Y80142D01*
X47861Y79109D01*
X47781Y78500D01*
X51500D01*
Y82219D01*
D02*
G37*
G36*
X42500D02*
Y78500D01*
X46219D01*
X46139Y79109D01*
X45711Y80142D01*
X45030Y81030D01*
X44142Y81711D01*
X43109Y82139D01*
X42500Y82219D01*
D02*
G37*
G36*
X41500D02*
X40891Y82139D01*
X39858Y81711D01*
X38970Y81030D01*
X38289Y80142D01*
X37861Y79109D01*
X37781Y78500D01*
X41500D01*
Y82219D01*
D02*
G37*
G36*
X92000Y81881D02*
X90996Y81749D01*
X90059Y81361D01*
X89256Y80744D01*
X88639Y79941D01*
X88251Y79005D01*
X88119Y78000D01*
X88251Y76995D01*
X88639Y76059D01*
X89256Y75256D01*
X90059Y74639D01*
X90996Y74251D01*
X92000Y74119D01*
X93005Y74251D01*
X93941Y74639D01*
X94744Y75256D01*
X95361Y76059D01*
X95749Y76995D01*
X95881Y78000D01*
X95749Y79005D01*
X95361Y79941D01*
X94744Y80744D01*
X93941Y81361D01*
X93005Y81749D01*
X92000Y81881D01*
D02*
G37*
G36*
X82000D02*
X80996Y81749D01*
X80059Y81361D01*
X79256Y80744D01*
X78639Y79941D01*
X78251Y79005D01*
X78119Y78000D01*
X78251Y76995D01*
X78639Y76059D01*
X79256Y75256D01*
X80059Y74639D01*
X80996Y74251D01*
X82000Y74119D01*
X83004Y74251D01*
X83941Y74639D01*
X84744Y75256D01*
X85361Y76059D01*
X85749Y76995D01*
X85881Y78000D01*
X85749Y79005D01*
X85361Y79941D01*
X84744Y80744D01*
X83941Y81361D01*
X83004Y81749D01*
X82000Y81881D01*
D02*
G37*
G36*
X72000D02*
X70995Y81749D01*
X70059Y81361D01*
X69256Y80744D01*
X68639Y79941D01*
X68251Y79005D01*
X68119Y78000D01*
X68251Y76995D01*
X68639Y76059D01*
X69256Y75256D01*
X70059Y74639D01*
X70995Y74251D01*
X72000Y74119D01*
X73005Y74251D01*
X73941Y74639D01*
X74744Y75256D01*
X75361Y76059D01*
X75749Y76995D01*
X75881Y78000D01*
X75749Y79005D01*
X75361Y79941D01*
X74744Y80744D01*
X73941Y81361D01*
X73005Y81749D01*
X72000Y81881D01*
D02*
G37*
G36*
X32000D02*
X30996Y81749D01*
X30059Y81361D01*
X29256Y80744D01*
X28639Y79941D01*
X28251Y79005D01*
X28119Y78000D01*
X28251Y76995D01*
X28639Y76059D01*
X29256Y75256D01*
X30059Y74639D01*
X30996Y74251D01*
X32000Y74119D01*
X33005Y74251D01*
X33941Y74639D01*
X34744Y75256D01*
X35361Y76059D01*
X35749Y76995D01*
X35881Y78000D01*
X35749Y79005D01*
X35361Y79941D01*
X34744Y80744D01*
X33941Y81361D01*
X33005Y81749D01*
X32000Y81881D01*
D02*
G37*
G36*
X22000D02*
X20996Y81749D01*
X20059Y81361D01*
X19256Y80744D01*
X18639Y79941D01*
X18251Y79005D01*
X18119Y78000D01*
X18251Y76995D01*
X18639Y76059D01*
X19256Y75256D01*
X20059Y74639D01*
X20996Y74251D01*
X22000Y74119D01*
X23005Y74251D01*
X23941Y74639D01*
X24744Y75256D01*
X25361Y76059D01*
X25749Y76995D01*
X25881Y78000D01*
X25749Y79005D01*
X25361Y79941D01*
X24744Y80744D01*
X23941Y81361D01*
X23005Y81749D01*
X22000Y81881D01*
D02*
G37*
G36*
X12000D02*
X10995Y81749D01*
X10059Y81361D01*
X9256Y80744D01*
X8639Y79941D01*
X8251Y79005D01*
X8119Y78000D01*
X8251Y76995D01*
X8639Y76059D01*
X9256Y75256D01*
X10059Y74639D01*
X10995Y74251D01*
X12000Y74119D01*
X13004Y74251D01*
X13941Y74639D01*
X14744Y75256D01*
X15361Y76059D01*
X15749Y76995D01*
X15881Y78000D01*
X15749Y79005D01*
X15361Y79941D01*
X14744Y80744D01*
X13941Y81361D01*
X13004Y81749D01*
X12000Y81881D01*
D02*
G37*
G36*
X136219Y77500D02*
X132500D01*
Y73781D01*
X133109Y73861D01*
X134142Y74289D01*
X135030Y74970D01*
X135711Y75858D01*
X136139Y76891D01*
X136219Y77500D01*
D02*
G37*
G36*
X131500D02*
X127781D01*
X127861Y76891D01*
X128289Y75858D01*
X128970Y74970D01*
X129858Y74289D01*
X130891Y73861D01*
X131500Y73781D01*
Y77500D01*
D02*
G37*
G36*
X126219D02*
X122500D01*
Y73781D01*
X123109Y73861D01*
X124142Y74289D01*
X125030Y74970D01*
X125711Y75858D01*
X126139Y76891D01*
X126219Y77500D01*
D02*
G37*
G36*
X121500D02*
X117781D01*
X117861Y76891D01*
X118289Y75858D01*
X118970Y74970D01*
X119858Y74289D01*
X120891Y73861D01*
X121500Y73781D01*
Y77500D01*
D02*
G37*
G36*
X66219D02*
X62500D01*
Y73781D01*
X63109Y73861D01*
X64142Y74289D01*
X65030Y74970D01*
X65711Y75858D01*
X66139Y76891D01*
X66219Y77500D01*
D02*
G37*
G36*
X61500D02*
X57781D01*
X57861Y76891D01*
X58289Y75858D01*
X58970Y74970D01*
X59858Y74289D01*
X60891Y73861D01*
X61500Y73781D01*
Y77500D01*
D02*
G37*
G36*
X56219D02*
X52500D01*
Y73781D01*
X53109Y73861D01*
X54142Y74289D01*
X55030Y74970D01*
X55711Y75858D01*
X56139Y76891D01*
X56219Y77500D01*
D02*
G37*
G36*
X51500D02*
X47781D01*
X47861Y76891D01*
X48289Y75858D01*
X48970Y74970D01*
X49858Y74289D01*
X50891Y73861D01*
X51500Y73781D01*
Y77500D01*
D02*
G37*
G36*
X46219D02*
X42500D01*
Y73781D01*
X43109Y73861D01*
X44142Y74289D01*
X45030Y74970D01*
X45711Y75858D01*
X46139Y76891D01*
X46219Y77500D01*
D02*
G37*
G36*
X41500D02*
X37781D01*
X37861Y76891D01*
X38289Y75858D01*
X38970Y74970D01*
X39858Y74289D01*
X40891Y73861D01*
X41500Y73781D01*
Y77500D01*
D02*
G37*
G36*
X82500Y72231D02*
Y68512D01*
X86219D01*
X86139Y69121D01*
X85711Y70154D01*
X85030Y71042D01*
X84142Y71723D01*
X83109Y72150D01*
X82500Y72231D01*
D02*
G37*
G36*
X81500D02*
X80891Y72150D01*
X79858Y71723D01*
X78970Y71042D01*
X78289Y70154D01*
X77861Y69121D01*
X77781Y68512D01*
X81500D01*
Y72231D01*
D02*
G37*
G36*
X62000Y71893D02*
X60996Y71761D01*
X60059Y71373D01*
X59256Y70756D01*
X58639Y69952D01*
X58251Y69016D01*
X58119Y68012D01*
X58251Y67007D01*
X58639Y66071D01*
X59256Y65267D01*
X60059Y64651D01*
X60996Y64263D01*
X62000Y64131D01*
X63004Y64263D01*
X63941Y64651D01*
X64744Y65267D01*
X65361Y66071D01*
X65749Y67007D01*
X65881Y68012D01*
X65749Y69016D01*
X65361Y69952D01*
X64744Y70756D01*
X63941Y71373D01*
X63004Y71761D01*
X62000Y71893D01*
D02*
G37*
G36*
X52000D02*
X50995Y71761D01*
X50059Y71373D01*
X49256Y70756D01*
X48639Y69952D01*
X48251Y69016D01*
X48119Y68012D01*
X48251Y67007D01*
X48639Y66071D01*
X49256Y65267D01*
X50059Y64651D01*
X50995Y64263D01*
X52000Y64131D01*
X53004Y64263D01*
X53941Y64651D01*
X54744Y65267D01*
X55361Y66071D01*
X55749Y67007D01*
X55881Y68012D01*
X55749Y69016D01*
X55361Y69952D01*
X54744Y70756D01*
X53941Y71373D01*
X53004Y71761D01*
X52000Y71893D01*
D02*
G37*
G36*
X64921Y61289D02*
X64535D01*
Y58587D01*
X66844D01*
Y59366D01*
X66698Y60102D01*
X66281Y60726D01*
X65657Y61143D01*
X64921Y61289D01*
D02*
G37*
G36*
X63535D02*
X63150D01*
X62414Y61143D01*
X61790Y60726D01*
X61373Y60102D01*
X61227Y59366D01*
Y58587D01*
X63535D01*
Y61289D01*
D02*
G37*
G36*
X42000Y71893D02*
X40995Y71761D01*
X40059Y71373D01*
X39256Y70756D01*
X38639Y69952D01*
X38251Y69016D01*
X38119Y68012D01*
X38251Y67007D01*
X38639Y66071D01*
X39256Y65267D01*
X40059Y64651D01*
X40995Y64263D01*
X42000Y64131D01*
X43005Y64263D01*
X43941Y64651D01*
X44569Y65133D01*
X47821Y61881D01*
X47407Y60881D01*
X46614D01*
X46034Y60766D01*
X45543Y60437D01*
X45215Y59946D01*
X45099Y59366D01*
Y56807D01*
X45215Y56227D01*
X45543Y55736D01*
X46034Y55408D01*
X46614Y55292D01*
X48386D01*
X48966Y55408D01*
X49457Y55736D01*
X49785Y56227D01*
X49901Y56807D01*
Y57149D01*
X50230Y57378D01*
X50901Y57592D01*
X51305Y57322D01*
X52000Y57184D01*
X52695Y57322D01*
X53284Y57716D01*
X53678Y58305D01*
X53816Y59000D01*
X53678Y59695D01*
X53284Y60284D01*
X52695Y60678D01*
X52000Y60816D01*
X51568Y60730D01*
X45615Y66683D01*
X45749Y67007D01*
X45881Y68012D01*
X45749Y69016D01*
X45361Y69952D01*
X44744Y70756D01*
X43941Y71373D01*
X43005Y71761D01*
X42000Y71893D01*
D02*
G37*
G36*
X66844Y57587D02*
X64535D01*
Y54884D01*
X64921D01*
X65657Y55031D01*
X66281Y55448D01*
X66698Y56071D01*
X66844Y56807D01*
Y57587D01*
D02*
G37*
G36*
X63535D02*
X61227D01*
Y56807D01*
X61373Y56071D01*
X61790Y55448D01*
X62414Y55031D01*
X63150Y54884D01*
X63535D01*
Y57587D01*
D02*
G37*
G36*
X40449Y56404D02*
Y52000D01*
X43737D01*
Y52681D01*
X43608Y53662D01*
X43230Y54575D01*
X42628Y55360D01*
X41843Y55962D01*
X40929Y56340D01*
X40449Y56404D01*
D02*
G37*
G36*
X123325Y51500D02*
X120500D01*
Y48675D01*
X120878Y48724D01*
X121696Y49063D01*
X122398Y49602D01*
X122937Y50304D01*
X123276Y51122D01*
X123325Y51500D01*
D02*
G37*
G36*
X47579Y53797D02*
X47567Y53794D01*
X46614D01*
X46034Y53679D01*
X45543Y53351D01*
X45215Y52859D01*
X45099Y52280D01*
Y49720D01*
X45215Y49141D01*
X45543Y48649D01*
X46034Y48321D01*
X46614Y48206D01*
X48386D01*
X48966Y48321D01*
X49457Y48649D01*
X49785Y49141D01*
X49901Y49720D01*
Y52280D01*
X49785Y52859D01*
X49457Y53351D01*
X48966Y53679D01*
X48386Y53794D01*
X47590D01*
X47579Y53797D01*
D02*
G37*
G36*
X22124Y44500D02*
X20500D01*
Y42876D01*
X20851Y42945D01*
X21573Y43428D01*
X22055Y44149D01*
X22124Y44500D01*
D02*
G37*
G36*
X78000Y33624D02*
Y32000D01*
X79624D01*
X79554Y32351D01*
X79072Y33073D01*
X78351Y33555D01*
X78000Y33624D01*
D02*
G37*
G36*
X77000D02*
X76649Y33555D01*
X75928Y33073D01*
X75445Y32351D01*
X75376Y32000D01*
X77000D01*
Y33624D01*
D02*
G37*
G36*
X79624Y31000D02*
X78000D01*
Y29376D01*
X78351Y29445D01*
X79072Y29928D01*
X79554Y30649D01*
X79624Y31000D01*
D02*
G37*
G36*
X77000D02*
X75376D01*
X75445Y30649D01*
X75928Y29928D01*
X76649Y29445D01*
X77000Y29376D01*
Y31000D01*
D02*
G37*
G36*
X6000Y27124D02*
Y25500D01*
X7624D01*
X7555Y25851D01*
X7073Y26572D01*
X6351Y27055D01*
X6000Y27124D01*
D02*
G37*
G36*
X5000D02*
X4649Y27055D01*
X3928Y26572D01*
X3446Y25851D01*
X3376Y25500D01*
X5000D01*
Y27124D01*
D02*
G37*
G36*
X141000Y26624D02*
Y25000D01*
X142624D01*
X142554Y25351D01*
X142072Y26072D01*
X141351Y26555D01*
X141000Y26624D01*
D02*
G37*
G36*
X7624Y24500D02*
X6000D01*
Y22876D01*
X6351Y22945D01*
X7073Y23427D01*
X7555Y24149D01*
X7624Y24500D01*
D02*
G37*
G36*
X5000D02*
X3376D01*
X3446Y24149D01*
X3928Y23427D01*
X4649Y22945D01*
X5000Y22876D01*
Y24500D01*
D02*
G37*
G36*
X142624Y24000D02*
X141000D01*
Y22376D01*
X141351Y22445D01*
X142072Y22928D01*
X142554Y23649D01*
X142624Y24000D01*
D02*
G37*
G36*
X123500Y21316D02*
X122805Y21178D01*
X122216Y20784D01*
X121822Y20195D01*
X121806Y20113D01*
X119824Y18131D01*
X106865D01*
X106847Y18273D01*
X106548Y18994D01*
X106073Y19613D01*
X105455Y20087D01*
X104734Y20386D01*
X103961Y20488D01*
X103187Y20386D01*
X102467Y20087D01*
X101848Y19613D01*
X101373Y18994D01*
X101075Y18273D01*
X100973Y17500D01*
X101075Y16727D01*
X101373Y16006D01*
X101848Y15387D01*
X102467Y14912D01*
X103187Y14614D01*
X103961Y14512D01*
X104734Y14614D01*
X105349Y14869D01*
X120500D01*
X121124Y14993D01*
X121653Y15347D01*
X124113Y17806D01*
X124195Y17822D01*
X124784Y18216D01*
X125178Y18805D01*
X125316Y19500D01*
X125178Y20195D01*
X124784Y20784D01*
X124195Y21178D01*
X123500Y21316D01*
D02*
G37*
G36*
X5000Y9624D02*
Y8000D01*
X6624D01*
X6555Y8351D01*
X6072Y9072D01*
X5351Y9555D01*
X5000Y9624D01*
D02*
G37*
G36*
X4000D02*
X3649Y9555D01*
X2928Y9072D01*
X2445Y8351D01*
X2376Y8000D01*
X4000D01*
Y9624D01*
D02*
G37*
G36*
X114000Y12816D02*
X113305Y12678D01*
X112716Y12284D01*
X112322Y11695D01*
X112184Y11000D01*
X112322Y10305D01*
X112716Y9716D01*
X113305Y9322D01*
X114000Y9184D01*
X114695Y9322D01*
X115284Y9716D01*
X115678Y10305D01*
X115733Y10582D01*
X125713D01*
X126260Y9786D01*
X126268Y9757D01*
X126275Y9582D01*
X124324Y7631D01*
X106482D01*
X106113Y8113D01*
X105494Y8587D01*
X104773Y8886D01*
X104000Y8988D01*
X103227Y8886D01*
X102506Y8587D01*
X101887Y8113D01*
X101412Y7494D01*
X101114Y6773D01*
X101012Y6000D01*
X101114Y5227D01*
X101412Y4506D01*
X101887Y3887D01*
X102506Y3413D01*
X103227Y3114D01*
X104000Y3012D01*
X104773Y3114D01*
X105494Y3413D01*
X106113Y3887D01*
X106482Y4369D01*
X125000D01*
X125624Y4493D01*
X126154Y4846D01*
X128613Y7306D01*
X128695Y7322D01*
X129284Y7716D01*
X129678Y8305D01*
X129816Y9000D01*
X129700Y9582D01*
X129758Y9812D01*
X130288Y10582D01*
X133620D01*
X134687Y9515D01*
X134684Y9500D01*
X134822Y8805D01*
X135216Y8216D01*
X135805Y7822D01*
X136500Y7684D01*
X137195Y7822D01*
X137784Y8216D01*
X138178Y8805D01*
X138316Y9500D01*
X138178Y10195D01*
X137784Y10784D01*
X137195Y11178D01*
X136500Y11316D01*
X135805Y11178D01*
X135694Y11104D01*
X134649Y12149D01*
X134351Y12348D01*
X134000Y12418D01*
X115084D01*
X114695Y12678D01*
X114000Y12816D01*
D02*
G37*
G36*
X141500Y7124D02*
X141149Y7055D01*
X140427Y6572D01*
X139945Y5851D01*
X139876Y5500D01*
X141500D01*
Y7124D01*
D02*
G37*
G36*
X6624Y7000D02*
X5000D01*
Y5376D01*
X5351Y5446D01*
X6072Y5928D01*
X6555Y6649D01*
X6624Y7000D01*
D02*
G37*
G36*
X4000D02*
X2376D01*
X2445Y6649D01*
X2928Y5928D01*
X3649Y5446D01*
X4000Y5376D01*
Y7000D01*
D02*
G37*
G36*
X141500Y4500D02*
X139876D01*
X139945Y4149D01*
X140427Y3427D01*
X141149Y2945D01*
X141500Y2876D01*
Y4500D01*
D02*
G37*
%LPD*%
D12*
X15500Y8000D02*
X15653D01*
X15711Y8058D01*
D14*
X136000Y9500D02*
X136500D01*
X134000Y11500D02*
X136000Y9500D01*
X142000Y81500D02*
X144000Y79500D01*
X141000Y81500D02*
X142000D01*
X128000Y39500D02*
X133500D01*
X124500Y38500D02*
X125000D01*
X125500Y39000D01*
X58500Y39500D02*
Y39630D01*
X58982Y39147D01*
X130362Y24419D02*
X130612Y24669D01*
X125500Y27557D02*
X128638Y24419D01*
X130362D01*
X125500Y27557D02*
Y39000D01*
X130612Y24669D02*
X130831D01*
X129500Y26500D02*
X129581Y26581D01*
X130831Y24669D02*
X131000Y24500D01*
X132500D01*
X129581Y26581D02*
X131888D01*
X133500Y39500D02*
X136581Y36419D01*
X135500Y24500D02*
X136581Y25581D01*
Y36419D01*
X134697Y29390D02*
Y33303D01*
X134500Y33500D02*
X134697Y33303D01*
X131888Y26581D02*
X134697Y29390D01*
X114500Y11500D02*
X134000D01*
X114000Y11000D02*
X114500Y11500D01*
X12419Y23919D02*
X17281Y28781D01*
X9473Y7527D02*
X11500Y5500D01*
X9473Y22973D02*
X16081Y29581D01*
X12419Y8367D02*
Y23919D01*
Y8367D02*
X12435Y8351D01*
X9473Y7527D02*
Y8507D01*
Y22973D01*
X11500Y5500D02*
X26500D01*
X15800Y58135D02*
X22000Y64335D01*
X15800Y31643D02*
Y58135D01*
Y31643D02*
X16081Y31362D01*
X17000Y57000D02*
X28012Y68012D01*
X17000Y32140D02*
Y57000D01*
Y32140D02*
X17281Y31859D01*
X16081Y29581D02*
Y31362D01*
X17281Y28781D02*
Y31859D01*
X13000Y30500D02*
X14000D01*
X9500Y34000D02*
X13000Y30500D01*
X125500Y39000D02*
Y64512D01*
X128500Y44500D02*
X133500Y39500D01*
X128500Y44500D02*
Y64512D01*
X128000Y30000D02*
X132500D01*
X133000Y30500D01*
X9500Y34000D02*
Y41500D01*
X28012Y68012D02*
X32000D01*
X144000Y64500D02*
Y79500D01*
X141500Y68500D02*
Y77500D01*
X107500Y61000D02*
X111500Y57000D01*
X115000D01*
X118262Y55649D02*
Y59238D01*
X110000Y52000D02*
X114613D01*
X118262Y55649D01*
X116500Y61000D02*
X118262Y59238D01*
X116500Y61000D02*
Y73500D01*
X112000Y78000D02*
X116500Y73500D01*
X90000Y18500D02*
X91000Y17500D01*
X90000Y18500D02*
Y38551D01*
X61000Y7000D02*
Y37000D01*
X58982Y39018D02*
X61000Y37000D01*
X58982Y39018D02*
Y39147D01*
X42988Y68012D02*
X52000Y59000D01*
X122000Y68012D02*
X125500Y64512D01*
X128500D02*
X132000Y68012D01*
X122000Y66416D02*
Y68012D01*
X42000D02*
X42988D01*
X22000Y64335D02*
Y68012D01*
X12000D02*
X12500Y67512D01*
Y57500D02*
Y67512D01*
X103128Y66884D02*
X105116D01*
X102000Y68012D02*
X103128Y66884D01*
D42*
X28500Y32000D02*
Y37103D01*
Y28500D02*
Y32000D01*
X14500Y11000D02*
Y11500D01*
X120500Y16500D02*
X123500Y19500D01*
X104500Y16500D02*
X120500D01*
X125000Y6000D02*
X128000Y9000D01*
X104000Y6000D02*
X125000D01*
X103461Y29500D02*
Y61137D01*
X28500Y28500D02*
X39539Y17461D01*
X14500Y11500D02*
X33539D01*
X39039Y6000D01*
X47084Y42584D02*
X67584D01*
X46500Y42000D02*
X47084Y42584D01*
X28500Y37103D02*
X36581Y45184D01*
X65684D01*
X79000Y58500D01*
X82500D01*
X103461Y29500D02*
X103961Y29000D01*
X38500Y29500D02*
Y41500D01*
Y29500D02*
X39000Y29000D01*
X39539Y16500D02*
Y17461D01*
X107152Y64828D02*
Y72848D01*
X103461Y61137D02*
X107152Y64828D01*
X102000Y78000D02*
X107152Y72848D01*
X67584Y42584D02*
X79500Y54500D01*
X72000Y68012D02*
X77512Y62500D01*
X93500D01*
X96000Y60000D01*
X100000D01*
X46500Y32000D02*
Y42000D01*
X47500Y51000D02*
Y52087D01*
X47579Y52165D01*
D44*
X132000Y78000D02*
D03*
Y68012D02*
D03*
X122000Y78000D02*
D03*
Y68012D02*
D03*
X112000Y78000D02*
D03*
Y68012D02*
D03*
X102000Y78000D02*
D03*
Y68012D02*
D03*
X92000Y78000D02*
D03*
Y68012D02*
D03*
X82000Y78000D02*
D03*
Y68012D02*
D03*
X72000Y78000D02*
D03*
Y68012D02*
D03*
X62000Y78000D02*
D03*
Y68012D02*
D03*
X52000Y78000D02*
D03*
Y68012D02*
D03*
X42000Y78000D02*
D03*
Y68012D02*
D03*
X32000Y78000D02*
D03*
Y68012D02*
D03*
X22000Y78000D02*
D03*
Y68012D02*
D03*
X12000Y78000D02*
D03*
D45*
Y68012D02*
D03*
D46*
X39949Y51500D02*
D03*
X33650D02*
D03*
X27350D02*
D03*
X21051D02*
D03*
D47*
X90000Y38551D02*
D03*
Y44850D02*
D03*
Y51150D02*
D03*
Y57449D02*
D03*
D48*
X120000Y52000D02*
D03*
X115000Y57000D02*
D03*
X110000Y52000D02*
D03*
X115000Y47000D02*
D03*
X103961Y17500D02*
D03*
X39000D02*
D03*
X39039Y6000D02*
D03*
X104000D02*
D03*
X103961Y29000D02*
D03*
X39000D02*
D03*
D49*
X47500Y51000D02*
D03*
X64035D02*
D03*
X47500Y58087D02*
D03*
X64035D02*
D03*
D50*
X28500Y32000D02*
D03*
X136500Y9500D02*
D03*
X12500Y16000D02*
D03*
X141000Y81500D02*
D03*
X128000Y39500D02*
D03*
X124500Y38500D02*
D03*
X58500Y39500D02*
D03*
X5500Y25000D02*
D03*
X140500Y24500D02*
D03*
X129500Y26500D02*
D03*
X134500Y33500D02*
D03*
X15500Y8000D02*
D03*
X9473Y8507D02*
D03*
X12435Y8351D02*
D03*
X14500Y11000D02*
D03*
X14000Y30500D02*
D03*
X26500Y5500D02*
D03*
X142000Y5000D02*
D03*
X123500Y19500D02*
D03*
X114000Y11000D02*
D03*
X128000Y9000D02*
D03*
X132500Y24500D02*
D03*
X135500D02*
D03*
X132616Y30252D02*
D03*
X128000Y30000D02*
D03*
X9500Y41500D02*
D03*
X4500Y7500D02*
D03*
X38500Y41500D02*
D03*
X20000Y45000D02*
D03*
X77500Y31500D02*
D03*
X5000Y82000D02*
D03*
X144000Y64500D02*
D03*
X141500Y68500D02*
D03*
Y77500D02*
D03*
X103961Y42000D02*
D03*
X107500Y61000D02*
D03*
X91000Y17500D02*
D03*
X79500Y54500D02*
D03*
X52000Y59000D02*
D03*
X13000Y58000D02*
D03*
X61000Y7000D02*
D03*
X82500Y58500D02*
D03*
X100000Y60000D02*
D03*
X46500Y32000D02*
D03*
Y42000D02*
D03*
M02*
