%FSTAX23Y23*%
%MOIN*%
%SFA1B1*%

%IPPOS*%
%AMD38*
4,1,4,-0.011800,0.030300,-0.015700,-0.028500,0.011800,-0.030300,0.015700,0.028500,-0.011800,0.030300,0.0*
%
%AMD39*
4,1,4,-0.020700,-0.014400,0.018600,-0.017000,0.020700,0.014400,-0.018600,0.017000,-0.020700,-0.014400,0.0*
%
%AMD40*
4,1,4,0.014900,0.007100,-0.016200,0.003000,-0.014900,-0.007100,0.016200,-0.003000,0.014900,0.007100,0.0*
%
%AMD41*
4,1,4,0.012000,0.006700,-0.013400,0.003400,-0.012000,-0.006700,0.013400,-0.003400,0.012000,0.006700,0.0*
%
%AMD42*
4,1,4,0.015500,0.009900,-0.017600,0.005500,-0.015500,-0.009900,0.017600,-0.005500,0.015500,0.009900,0.0*
%
%ADD37R,0.055100X0.023600*%
G04~CAMADD=38~9~0.0~0.0~591.0~276.0~0.0~0.0~0~0.0~0.0~0.0~0.0~0~0.0~0.0~0.0~0.0~0~0.0~0.0~0.0~86.3~314.0~605.0*
%ADD38D38*%
G04~CAMADD=39~9~0.0~0.0~394.0~315.0~0.0~0.0~0~0.0~0.0~0.0~0.0~0~0.0~0.0~0.0~0.0~0~0.0~0.0~0.0~176.3~414.0~339.0*
%ADD39D39*%
G04~CAMADD=40~9~0.0~0.0~315.0~102.0~0.0~0.0~0~0.0~0.0~0.0~0.0~0~0.0~0.0~0.0~0.0~0~0.0~0.0~0.0~7.5~324.0~141.0*
%ADD40D40*%
G04~CAMADD=41~9~0.0~0.0~256.0~102.0~0.0~0.0~0~0.0~0.0~0.0~0.0~0~0.0~0.0~0.0~0.0~0~0.0~0.0~0.0~7.5~268.0~133.0*
%ADD41D41*%
G04~CAMADD=42~9~0.0~0.0~335.0~157.0~0.0~0.0~0~0.0~0.0~0.0~0.0~0~0.0~0.0~0.0~0.0~0~0.0~0.0~0.0~7.5~352.0~197.0*
%ADD42D42*%
%ADD43R,0.031500X0.035400*%
%ADD44R,0.021700X0.021700*%
%ADD45R,0.021700X0.021700*%
%ADD46R,0.031500X0.031500*%
%LNpower_pcb-1*%
%LPD*%
G54D37*
X01285Y00792D03*
Y00717D03*
X01384D03*
Y00755D03*
Y00792D03*
G54D38*
X01131Y00389D03*
X01014Y00396D03*
X00955Y004D03*
G54D39*
X01185Y0036D03*
X01179Y00273D03*
X00898Y00378D03*
X00892Y00292D03*
G54D40*
X00388Y00505D03*
X00385Y00529D03*
X00381Y00552D03*
X00378Y00575D03*
X00375Y00599D03*
X00372Y00622D03*
X00369Y00646D03*
X00366Y00669D03*
X00363Y00693D03*
X0036Y00716D03*
X00357Y00739D03*
X00354Y00763D03*
G54D41*
X00498Y00532D03*
X00495Y00555D03*
X00492Y00579D03*
X00489Y00602D03*
X00486Y00625D03*
X00483Y00649D03*
X0048Y00672D03*
X00477Y00696D03*
X00474Y00719D03*
X0047Y00743D03*
X00467Y00766D03*
G54D42*
X00404Y0048D03*
X00363Y00792D03*
G54D43*
X01025Y00695D03*
X01062Y00774D03*
X00987D03*
G54D44*
X00997Y00625D03*
X01043D03*
X01218Y00715D03*
X01172D03*
Y00795D03*
X01218D03*
X01538Y0085D03*
X01492D03*
G54D45*
X0146Y00727D03*
Y00773D03*
G54D46*
X0153Y00789D03*
Y0073D03*
M02*