%FSTAX23Y23*%
%MOIN*%
%SFA1B1*%

%IPPOS*%
%ADD10C,0.009800*%
%ADD11C,0.007900*%
%ADD12C,0.003900*%
%ADD13C,0.010000*%
%ADD14C,0.008000*%
%ADD15C,0.005000*%
%ADD16C,0.006000*%
%LNpower_pcb-1*%
%LPD*%
G54D10*
X00683Y01492D02*
D01*
X00683Y01493*
X00683Y01493*
X00683Y01493*
X00683Y01494*
X00682Y01494*
X00682Y01494*
X00682Y01495*
X00682Y01495*
X00682Y01495*
X00682Y01495*
X00681Y01496*
X00681Y01496*
X00681Y01496*
X00681Y01496*
X0068Y01497*
X0068Y01497*
X0068Y01497*
X00679Y01497*
X00679Y01497*
X00679Y01497*
X00678Y01497*
X00678Y01497*
X00678*
X00677Y01497*
X00677Y01497*
X00677Y01497*
X00676Y01497*
X00676Y01497*
X00676Y01497*
X00675Y01497*
X00675Y01496*
X00675Y01496*
X00675Y01496*
X00674Y01496*
X00674Y01495*
X00674Y01495*
X00674Y01495*
X00673Y01495*
X00673Y01494*
X00673Y01494*
X00673Y01494*
X00673Y01493*
X00673Y01493*
X00673Y01493*
X00673Y01492*
X00673Y01492*
X00673Y01492*
X00673Y01491*
X00673Y01491*
X00673Y01491*
X00673Y0149*
X00673Y0149*
X00674Y0149*
X00674Y01489*
X00674Y01489*
X00674Y01489*
X00675Y01489*
X00675Y01488*
X00675Y01488*
X00675Y01488*
X00676Y01488*
X00676Y01488*
X00676Y01488*
X00677Y01488*
X00677Y01487*
X00677Y01487*
X00678Y01487*
X00678*
X00678Y01487*
X00679Y01487*
X00679Y01488*
X00679Y01488*
X0068Y01488*
X0068Y01488*
X0068Y01488*
X00681Y01488*
X00681Y01488*
X00681Y01489*
X00681Y01489*
X00682Y01489*
X00682Y01489*
X00682Y0149*
X00682Y0149*
X00682Y0149*
X00682Y01491*
X00683Y01491*
X00683Y01491*
X00683Y01492*
X00683Y01492*
X00683Y01492*
G54D11*
X00358Y01313D02*
D01*
X00358Y01313*
X00358Y01314*
X00358Y01314*
X00358Y01314*
X00358Y01314*
X00357Y01315*
X00357Y01315*
X00357Y01315*
X00357Y01315*
X00357Y01316*
X00357Y01316*
X00357Y01316*
X00356Y01316*
X00356Y01316*
X00356Y01316*
X00356Y01317*
X00355Y01317*
X00355Y01317*
X00355Y01317*
X00355Y01317*
X00354Y01317*
X00354Y01317*
X00354*
X00353Y01317*
X00353Y01317*
X00353Y01317*
X00353Y01317*
X00352Y01317*
X00352Y01317*
X00352Y01316*
X00352Y01316*
X00351Y01316*
X00351Y01316*
X00351Y01316*
X00351Y01316*
X00351Y01315*
X00351Y01315*
X0035Y01315*
X0035Y01315*
X0035Y01314*
X0035Y01314*
X0035Y01314*
X0035Y01314*
X0035Y01313*
X0035Y01313*
X0035Y01313*
X0035Y01313*
X0035Y01312*
X0035Y01312*
X0035Y01312*
X0035Y01312*
X0035Y01311*
X00351Y01311*
X00351Y01311*
X00351Y01311*
X00351Y0131*
X00351Y0131*
X00351Y0131*
X00352Y0131*
X00352Y0131*
X00352Y0131*
X00352Y01309*
X00353Y01309*
X00353Y01309*
X00353Y01309*
X00353Y01309*
X00354Y01309*
X00354*
X00354Y01309*
X00355Y01309*
X00355Y01309*
X00355Y01309*
X00355Y01309*
X00356Y0131*
X00356Y0131*
X00356Y0131*
X00356Y0131*
X00357Y0131*
X00357Y0131*
X00357Y01311*
X00357Y01311*
X00357Y01311*
X00357Y01311*
X00357Y01312*
X00358Y01312*
X00358Y01312*
X00358Y01312*
X00358Y01313*
X00358Y01313*
X00358Y01313*
X00354Y01262D02*
Y01295D01*
X00287Y01262D02*
X00354D01*
X00287D02*
Y01313D01*
X00336*
X00354Y01295*
X003Y01344D02*
Y01385D01*
X00624Y01261D02*
Y01458D01*
X00365Y01261D02*
Y01458D01*
X00584Y01261D02*
X00624D01*
X00365D02*
X00405D01*
X00584Y01458D02*
X00624D01*
X00365D02*
X00405D01*
G54D12*
X01508Y01299D02*
D01*
X01508Y01298*
X01508Y01298*
X01508Y01298*
X01508Y01298*
X01508Y01298*
X01508Y01298*
X01509Y01298*
X01509Y01298*
X01509Y01297*
X01509Y01297*
X01509Y01297*
X01509Y01297*
X01509Y01297*
X01509Y01297*
X01509Y01297*
X01509Y01297*
X0151Y01297*
X0151Y01297*
X0151Y01297*
X0151Y01297*
X0151Y01297*
X0151Y01297*
X0151*
X01511Y01297*
X01511Y01297*
X01511Y01297*
X01511Y01297*
X01511Y01297*
X01511Y01297*
X01511Y01297*
X01511Y01297*
X01512Y01297*
X01512Y01297*
X01512Y01297*
X01512Y01297*
X01512Y01297*
X01512Y01298*
X01512Y01298*
X01512Y01298*
X01512Y01298*
X01512Y01298*
X01512Y01298*
X01512Y01298*
X01512Y01298*
X01512Y01299*
D01*
X01512Y01299*
X01512Y01299*
X01512Y01299*
X01512Y01299*
X01512Y01299*
X01512Y01299*
X01512Y013*
X01512Y013*
X01512Y013*
X01512Y013*
X01512Y013*
X01512Y013*
X01512Y013*
X01511Y013*
X01511Y013*
X01511Y013*
X01511Y013*
X01511Y01301*
X01511Y01301*
X01511Y01301*
X01511Y01301*
X0151Y01301*
X0151*
X0151Y01301*
X0151Y01301*
X0151Y01301*
X0151Y01301*
X0151Y013*
X01509Y013*
X01509Y013*
X01509Y013*
X01509Y013*
X01509Y013*
X01509Y013*
X01509Y013*
X01509Y013*
X01509Y013*
X01509Y013*
X01508Y01299*
X01508Y01299*
X01508Y01299*
X01508Y01299*
X01508Y01299*
X01508Y01299*
X01508Y01299*
X01788Y01299D02*
D01*
X01788Y01299*
X01787Y01299*
X01787Y01299*
X01787Y01299*
X01787Y01299*
X01787Y01299*
X01787Y01299*
X01787Y01299*
X01787Y01299*
X01786Y01299*
X01786Y01298*
X01786Y01298*
X01786Y01298*
X01786Y01298*
X01786Y01298*
X01786Y01298*
X01786Y01298*
X01786Y01298*
X01786Y01297*
X01786Y01297*
X01786Y01297*
X01786Y01297*
Y01297*
X01786Y01297*
X01786Y01297*
X01786Y01297*
X01786Y01296*
X01786Y01296*
X01786Y01296*
X01786Y01296*
X01786Y01296*
X01786Y01296*
X01786Y01296*
X01786Y01296*
X01786Y01295*
X01787Y01295*
X01787Y01295*
X01787Y01295*
X01787Y01295*
X01787Y01295*
X01787Y01295*
X01787Y01295*
X01787Y01295*
X01788Y01295*
X01788Y01295*
D01*
X01788Y01295*
X01788Y01295*
X01788Y01295*
X01788Y01295*
X01788Y01295*
X01789Y01295*
X01789Y01295*
X01789Y01295*
X01789Y01295*
X01789Y01296*
X01789Y01296*
X01789Y01296*
X01789Y01296*
X01789Y01296*
X01789Y01296*
X01789Y01296*
X0179Y01296*
X0179Y01296*
X0179Y01297*
X0179Y01297*
X0179Y01297*
X0179Y01297*
Y01297*
X0179Y01297*
X0179Y01297*
X0179Y01298*
X0179Y01298*
X0179Y01298*
X01789Y01298*
X01789Y01298*
X01789Y01298*
X01789Y01298*
X01789Y01298*
X01789Y01299*
X01789Y01299*
X01789Y01299*
X01789Y01299*
X01789Y01299*
X01789Y01299*
X01788Y01299*
X01788Y01299*
X01788Y01299*
X01788Y01299*
X01788Y01299*
X01788Y01299*
X01759Y01384D02*
Y01415D01*
X017Y01384D02*
Y01415D01*
X01918Y01283D02*
X01949D01*
X01918Y01488D02*
X01949D01*
X018D02*
X01831D01*
X018Y01283D02*
X01831D01*
G54D13*
X00711Y01371D02*
D01*
X00711Y01371*
X00711Y01372*
X00711Y01372*
X00711Y01372*
X00711Y01373*
X00711Y01373*
X00711Y01373*
X0071Y01373*
X0071Y01374*
X0071Y01374*
X0071Y01374*
X0071Y01374*
X0071Y01374*
X00709Y01374*
X00709Y01375*
X00709Y01375*
X00709Y01375*
X00708Y01375*
X00708Y01375*
X00708Y01375*
X00707Y01375*
X00707Y01375*
X00707*
X00707Y01375*
X00706Y01375*
X00706Y01375*
X00706Y01375*
X00705Y01375*
X00705Y01375*
X00705Y01375*
X00705Y01374*
X00704Y01374*
X00704Y01374*
X00704Y01374*
X00704Y01374*
X00704Y01374*
X00704Y01373*
X00703Y01373*
X00703Y01373*
X00703Y01373*
X00703Y01372*
X00703Y01372*
X00703Y01372*
X00703Y01371*
X00703Y01371*
X00703Y01371*
X00703Y01371*
X00703Y0137*
X00703Y0137*
X00703Y0137*
X00703Y01369*
X00703Y01369*
X00704Y01369*
X00704Y01369*
X00704Y01368*
X00704Y01368*
X00704Y01368*
X00704Y01368*
X00705Y01368*
X00705Y01368*
X00705Y01367*
X00705Y01367*
X00706Y01367*
X00706Y01367*
X00706Y01367*
X00707Y01367*
X00707Y01367*
X00707*
X00707Y01367*
X00708Y01367*
X00708Y01367*
X00708Y01367*
X00709Y01367*
X00709Y01367*
X00709Y01368*
X00709Y01368*
X0071Y01368*
X0071Y01368*
X0071Y01368*
X0071Y01368*
X0071Y01369*
X0071Y01369*
X00711Y01369*
X00711Y01369*
X00711Y0137*
X00711Y0137*
X00711Y0137*
X00711Y01371*
X00711Y01371*
X00711Y01371*
X01348Y01211D02*
D01*
X01348Y01211*
X01348Y01211*
X01348Y01212*
X01348Y01212*
X01348Y01212*
X01348Y01212*
X01348Y01212*
X01348Y01212*
X01348Y01212*
X01348Y01212*
X01348Y01212*
X01348Y01212*
X01348Y01212*
X01347Y01212*
X01347Y01212*
X01347Y01212*
X01347Y01213*
X01347Y01213*
X01347Y01213*
X01347Y01213*
X01347Y01213*
X01347Y01213*
X01347*
X01347Y01213*
X01346Y01213*
X01346Y01213*
X01346Y01213*
X01346Y01213*
X01346Y01212*
X01346Y01212*
X01346Y01212*
X01346Y01212*
X01346Y01212*
X01346Y01212*
X01346Y01212*
X01346Y01212*
X01346Y01212*
X01346Y01212*
X01346Y01212*
X01345Y01212*
X01345Y01212*
X01345Y01212*
X01345Y01211*
X01345Y01211*
X01345Y01211*
X01345Y01211*
X01345Y01211*
X01345Y01211*
X01345Y01211*
X01345Y01211*
X01346Y01211*
X01346Y01211*
X01346Y01211*
X01346Y01211*
X01346Y0121*
X01346Y0121*
X01346Y0121*
X01346Y0121*
X01346Y0121*
X01346Y0121*
X01346Y0121*
X01346Y0121*
X01346Y0121*
X01346Y0121*
X01346Y0121*
X01347Y0121*
X01347Y0121*
X01347*
X01347Y0121*
X01347Y0121*
X01347Y0121*
X01347Y0121*
X01347Y0121*
X01347Y0121*
X01347Y0121*
X01347Y0121*
X01348Y0121*
X01348Y0121*
X01348Y0121*
X01348Y0121*
X01348Y01211*
X01348Y01211*
X01348Y01211*
X01348Y01211*
X01348Y01211*
X01348Y01211*
X01348Y01211*
X01348Y01211*
X01348Y01211*
X01348Y01211*
X01453Y01342D02*
D01*
X01453Y01349*
X01452Y01357*
X0145Y01364*
X01449Y01371*
X01446Y01378*
X01444Y01385*
X0144Y01392*
X01437Y01398*
X01432Y01404*
X01428Y0141*
X01423Y01416*
X01418Y01421*
X01412Y01426*
X01406Y0143*
X014Y01434*
X01393Y01438*
X01386Y01441*
X01379Y01443*
X01372Y01445*
X01365Y01447*
X01358Y01448*
X0135Y01448*
X01343*
X01335Y01448*
X01328Y01447*
X01321Y01445*
X01314Y01443*
X01307Y01441*
X013Y01438*
X01293Y01434*
X01287Y0143*
X01281Y01426*
X01275Y01421*
X0127Y01416*
X01265Y0141*
X01261Y01404*
X01256Y01398*
X01253Y01392*
X01249Y01385*
X01247Y01378*
X01244Y01371*
X01243Y01364*
X01241Y01357*
X0124Y01349*
X0124Y01342*
X0124Y01335*
X01241Y01327*
X01243Y0132*
X01244Y01313*
X01247Y01306*
X01249Y01299*
X01253Y01292*
X01256Y01286*
X01261Y0128*
X01265Y01274*
X0127Y01268*
X01275Y01263*
X01281Y01258*
X01287Y01254*
X01293Y0125*
X013Y01246*
X01307Y01243*
X01314Y01241*
X01321Y01239*
X01328Y01237*
X01335Y01236*
X01343Y01236*
X0135*
X01358Y01236*
X01365Y01237*
X01372Y01239*
X01379Y01241*
X01386Y01243*
X01393Y01246*
X014Y0125*
X01406Y01254*
X01412Y01258*
X01418Y01263*
X01423Y01268*
X01428Y01274*
X01432Y0128*
X01437Y01286*
X0144Y01292*
X01444Y01299*
X01446Y01306*
X01449Y01313*
X0145Y0132*
X01452Y01327*
X01453Y01335*
X01453Y01342*
X01208Y01436D02*
X01258Y01486D01*
X01241Y01403D02*
X01291Y01453D01*
X00926Y01229D02*
Y0126D01*
X00663Y01229D02*
Y0126D01*
X00732Y01296D02*
X00798D01*
X00663Y01134D02*
Y01172D01*
X00926Y01134D02*
Y01171D01*
X00663Y01134D02*
X00926D01*
X01411Y01253D02*
X01438Y01227D01*
X01461Y0125*
X01432Y01279D02*
X01461Y0125D01*
X01955Y012D02*
X01985D01*
X0179Y01205D02*
X0182D01*
X01805Y0119D02*
Y0122D01*
X0114Y01245D02*
Y01265D01*
X01009Y01278D02*
X0108D01*
X01009Y01231D02*
X0108D01*
X0105Y0137D02*
Y0139D01*
Y01405D02*
Y01425D01*
X00885Y01395D02*
Y01415D01*
X00849Y01416D02*
X0092D01*
X00849Y01463D02*
X0092D01*
X00885Y0146D02*
Y0148D01*
X01949Y01414D02*
Y01485D01*
G54D14*
X01298Y01193D02*
X01298Y01216D01*
X01309Y01216*
X01313Y01212*
Y01204*
X01309Y012*
X01298*
X01321Y01216D02*
X01321Y01192D01*
X01329Y012*
X01337Y01192*
X01337Y01216*
X01345Y01192D02*
Y01216D01*
X01357*
X01361Y01212*
X01361Y01204*
X01357Y012*
X01345Y012*
X01353Y012D02*
X01361Y01192D01*
X01392Y01216D02*
X01392Y01192D01*
X01404*
X01408Y01196*
X01408Y012*
X01404Y01204*
X01392*
X01404*
X01408Y01208*
Y01212*
X01404Y01216*
X01392*
X01428Y01216D02*
X0142D01*
X01416Y01212*
X01416Y01196*
X0142Y01192*
X01427*
X01431Y01196*
Y01212*
X01428Y01216*
X01439Y01192D02*
X01439Y01208D01*
X01447Y01216*
X01455Y01208*
Y01192*
Y01204*
X01439*
X01463Y01192D02*
X01463Y01216D01*
X01475Y01215*
X01479Y01212*
Y01204*
X01475Y012*
X01463*
X01471D02*
X01479Y01192D01*
X01487Y01215D02*
X01486Y01192D01*
X01498Y01192*
X01502Y01196*
X01502Y01211*
X01498Y01215*
X01487Y01215*
X01534Y01207D02*
X01542Y01192D01*
X0155Y01207*
X01573Y01191D02*
X01557Y01192D01*
X01573Y01207*
Y01211*
X01569Y01215*
X01561*
X01557Y01211*
X01581Y01191D02*
Y01195D01*
X01585*
X01585Y01191*
X01581*
X01601Y01211D02*
X01605Y01215D01*
X01613*
X01616Y01211*
X01616Y01195*
X01612Y01191*
X01605*
X01601Y01195*
X01601Y01211*
X00988Y01207D02*
X00992Y01211D01*
X00999Y01211*
X01003Y01207*
Y01191*
X00999Y01187*
X00992Y01188*
X00988Y01191*
X00988Y01207*
X01011D02*
X01015Y01211D01*
X01023*
X01027Y01207*
X01027Y01203*
X01023Y01199*
X01027Y01195*
Y01191*
X01023Y01187*
X01015Y01187*
X01011Y01191*
Y01195*
X01015Y01199*
X01011Y01203*
Y01207*
X01015Y01199D02*
X01023Y01199D01*
X01035Y01187D02*
Y01191D01*
X01039*
Y01187*
X01035*
X01054Y01187D02*
X01062D01*
X01058*
X01059Y01211*
X01055Y01207*
X01074Y01191D02*
X01078Y01187D01*
X01086*
X0109Y01191*
Y01207*
X01086Y01211*
X01078*
X01074Y01207*
Y01203*
X01078Y01199*
X0109*
X01098Y01187D02*
Y01191D01*
X01102*
Y01187*
X01098Y01187*
X01133Y01187D02*
X01117Y01187D01*
X01133Y01203*
Y01207*
X01129Y01211*
X01121*
X01118Y01207*
X01141Y01207D02*
X01145Y01211D01*
X01153*
X01157Y01207*
Y01191*
X01153Y01187*
X01145*
X01141Y01191*
X01141Y01207*
X01165Y01187D02*
X01173D01*
X01169*
X01169Y0121*
X01165Y01207*
X01184Y01191D02*
X01188Y01187D01*
X01196*
X012Y01191*
Y01206*
X01196Y0121*
X01188*
X01184Y01206*
Y01203*
X01188Y01199*
X012*
G54D15*
X01195Y0144D02*
X01177Y01457D01*
X01186Y01466*
X01192*
X01197Y0146*
Y01454*
X01189Y01445*
X01195Y01451D02*
X01206D01*
X01212Y01457D02*
X01218Y01463D01*
X01215Y0146*
X01197Y01478*
Y01472*
X01236Y01481D02*
X01218Y01498D01*
Y01481*
X0123Y01493*
X01675Y0122D02*
Y01245D01*
X01687*
X01691Y0124*
Y01232*
X01687Y01228*
X01675*
X01683D02*
X01691Y0122D01*
X017Y01224D02*
X01704Y0122D01*
X01712*
X01716Y01224*
Y0124*
X01712Y01245*
X01704*
X017Y0124*
Y01236*
X01704Y01232*
X01716*
X0109Y014D02*
X01106D01*
X01098*
Y01375*
X01115D02*
Y014D01*
X01127*
X01131Y01395*
Y01387*
X01127Y01383*
X01115*
X01156Y01375D02*
X0114D01*
X01156Y01391*
Y01395*
X01152Y014*
X01144*
X0114Y01395*
X01181Y014D02*
X01165D01*
Y01387*
X01173Y01391*
X01177*
X01181Y01387*
Y01379*
X01177Y01375*
X01169*
X01165Y01379*
X0109Y01435D02*
X01106D01*
X01098*
Y0141*
X01115D02*
Y01435D01*
X01127*
X01131Y0143*
Y01422*
X01127Y01418*
X01115*
X01156Y0141D02*
X0114D01*
X01156Y01426*
Y0143*
X01152Y01435*
X01144*
X0114Y0143*
X01177Y0141D02*
Y01435D01*
X01165Y01422*
X01181*
X0109Y01365D02*
X01106D01*
X01098*
Y0134*
X01115D02*
Y01365D01*
X01127*
X01131Y0136*
Y01352*
X01127Y01348*
X01115*
X01156Y0134D02*
X0114D01*
X01156Y01356*
Y0136*
X01152Y01365*
X01144*
X0114Y0136*
X01181Y0134D02*
X01165D01*
X01181Y01356*
Y0136*
X01177Y01365*
X01169*
X01165Y0136*
X0109Y0133D02*
X01106D01*
X01098*
Y01305*
X01115D02*
Y0133D01*
X01127*
X01131Y01325*
Y01317*
X01127Y01313*
X01115*
X01156Y01305D02*
X0114D01*
X01156Y01321*
Y01325*
X01152Y0133*
X01144*
X0114Y01325*
X01165D02*
X01169Y0133D01*
X01177*
X01181Y01325*
Y01309*
X01177Y01305*
X01169*
X01165Y01309*
Y01325*
X01011Y01355D02*
X01007Y0136D01*
X00999*
X00995Y01355*
Y01339*
X00999Y01335*
X01007*
X01011Y01339*
X01036Y01335D02*
X0102D01*
X01036Y01351*
Y01355*
X01032Y0136*
X01024*
X0102Y01355*
X01061Y0136D02*
X01053Y01355D01*
X01045Y01347*
Y01339*
X01049Y01335*
X01057*
X01061Y01339*
Y01343*
X01057Y01347*
X01045*
X00995Y0129D02*
Y01315D01*
X01007*
X01011Y0131*
Y01302*
X01007Y01298*
X00995*
X01003D02*
X01011Y0129D01*
X0102D02*
X01028D01*
X01024*
Y01315*
X0102Y0131*
X01057Y0129D02*
X0104D01*
X01057Y01306*
Y0131*
X01053Y01315*
X01045*
X0104Y0131*
X01195Y0126D02*
Y01285D01*
X01207*
X01211Y0128*
Y01272*
X01207Y01268*
X01195*
X01203D02*
X01211Y0126D01*
X0122D02*
X01228D01*
X01224*
Y01285*
X0122Y0128*
X0124Y0126D02*
X01249D01*
X01245*
Y01285*
X0124Y0128*
X01496Y01385D02*
X01488D01*
X01492*
Y01364*
X01488Y0136*
X01484*
X0148Y01364*
X01521Y0136D02*
X01505D01*
X01521Y01376*
Y0138*
X01517Y01385*
X01509*
X01505Y0138*
X01106Y0129D02*
X01102Y01295D01*
X01094*
X0109Y0129*
Y01274*
X01094Y0127*
X01102*
X01106Y01274*
X01131Y0127D02*
X01115D01*
X01131Y01286*
Y0129*
X01127Y01295*
X01119*
X01115Y0129*
X01156Y0127D02*
X0114D01*
X01156Y01286*
Y0129*
X01152Y01295*
X01144*
X0114Y0129*
X01031Y0146D02*
X01027Y01465D01*
X01019*
X01015Y0146*
Y01444*
X01019Y0144*
X01027*
X01031Y01444*
X01056Y0144D02*
X0104D01*
X01056Y01456*
Y0146*
X01052Y01465*
X01044*
X0104Y0146*
X01081Y01465D02*
X01065D01*
Y01452*
X01073Y01456*
X01077*
X01081Y01452*
Y01444*
X01077Y0144*
X01069*
X01065Y01444*
X00596Y0121D02*
X00592Y01215D01*
X00584*
X0058Y0121*
Y01206*
X00584Y01202*
X00592*
X00596Y01198*
Y01194*
X00592Y0119*
X00584*
X0058Y01194*
X00605Y0119D02*
X00613D01*
X00609*
Y01215*
X00605Y0121*
X01774Y01446D02*
X0177Y01442D01*
Y01434*
X01774Y0143*
X0179*
X01795Y01434*
Y01442*
X0179Y01446*
X01795Y01471D02*
Y01455D01*
X01778Y01471*
X01774*
X0177Y01467*
Y01459*
X01774Y01455*
Y0148D02*
X0177Y01484D01*
Y01492*
X01774Y01496*
X0179*
X01795Y01492*
Y01484*
X0179Y0148*
X01774*
X01561Y01355D02*
X01557Y0136D01*
X01549*
X01545Y01355*
Y01339*
X01549Y01335*
X01557*
X01561Y01339*
X0157Y01335D02*
X01578D01*
X01574*
Y0136*
X0157Y01355*
X0159Y01339D02*
X01595Y01335D01*
X01603*
X01607Y01339*
Y01355*
X01603Y0136*
X01595*
X0159Y01355*
Y01351*
X01595Y01347*
X01607*
X0171Y0141D02*
Y01405D01*
X01718Y01397*
X01726Y01405*
Y0141*
X01718Y01397D02*
Y01385D01*
X01751D02*
X01735D01*
X01751Y01401*
Y01405*
X01747Y0141*
X01739*
X01735Y01405*
X01365Y01485D02*
Y01464D01*
X01369Y0146*
X01377*
X01381Y01464*
Y01485*
X0139Y0146D02*
X01398D01*
X01394*
Y01485*
X0139Y0148*
X01985Y01345D02*
X0196D01*
Y01357*
X01964Y01361*
X01972*
X01976Y01357*
Y01345*
Y01353D02*
X01985Y01361D01*
Y0137D02*
Y01378D01*
Y01374*
X0196*
X01964Y0137*
Y0139D02*
X0196Y01395D01*
Y01403*
X01964Y01407*
X0198*
X01985Y01403*
Y01395*
X0198Y0139*
X01964*
X00935Y01415D02*
Y0144D01*
X00947*
X00951Y01435*
Y01427*
X00947Y01423*
X00935*
X00943D02*
X00951Y01415D01*
X00976D02*
X0096D01*
X00976Y01431*
Y01435*
X00972Y0144*
X00964*
X0096Y01435*
X00235Y0144D02*
Y01415D01*
X00251*
X0026D02*
X00268D01*
X00264*
Y0144*
X0026Y01435*
X00341Y0149D02*
X00333D01*
X00337*
Y01469*
X00333Y01465*
X00329*
X00325Y01469*
X0035Y01465D02*
X00358D01*
X00354*
Y0149*
X0035Y01485*
X0029Y0144D02*
X00298D01*
X00294*
Y01415*
X0029*
X00298*
X00327Y01435D02*
X00323Y0144D01*
X00315*
X0031Y01435*
Y01419*
X00315Y01415*
X00323*
X00327Y01419*
X00335Y01415D02*
X00344D01*
X0034*
Y0144*
X00335Y01435*
X00246Y0121D02*
X00242Y01215D01*
X00234*
X0023Y0121*
Y01194*
X00234Y0119*
X00242*
X00246Y01194*
X00271Y01215D02*
X00255D01*
Y01202*
X00263Y01206*
X00267*
X00271Y01202*
Y01194*
X00267Y0119*
X00259*
X00255Y01194*
X00381Y0121D02*
X00377Y01215D01*
X00369*
X00365Y0121*
Y01194*
X00369Y0119*
X00377*
X00381Y01194*
X00402Y0119D02*
Y01215D01*
X0039Y01202*
X00406*
X00951Y01475D02*
X00947Y0148D01*
X00939*
X00935Y01475*
Y01459*
X00939Y01455*
X00947*
X00951Y01459*
X0096Y01455D02*
X00968D01*
X00964*
Y0148*
X0096Y01475*
X00951Y01395D02*
X00947Y014D01*
X00939*
X00935Y01395*
Y01379*
X00939Y01375*
X00947*
X00951Y01379*
X00976Y01375D02*
X0096D01*
X00976Y01391*
Y01395*
X00972Y014*
X00964*
X0096Y01395*
X0184Y0142D02*
Y01436D01*
X01848Y01445*
X01856Y01436*
Y0142*
Y01432*
X0184*
X01881Y0144D02*
X01877Y01445D01*
X01869*
X01865Y0144*
Y01424*
X01869Y0142*
X01877*
X01881Y01424*
X0189Y0142D02*
X01898D01*
X01894*
Y01445*
X0189Y0144*
G54D16*
X0072Y01345D02*
Y01375D01*
X00735*
X0074Y0137*
Y0136*
X00735Y01355*
X0072*
X0077Y0137D02*
X00765Y01375D01*
X00755*
X0075Y0137*
Y01365*
X00755Y0136*
X00765*
X0077Y01355*
Y0135*
X00765Y01345*
X00755*
X0075Y0135*
X0078Y01345D02*
X0079D01*
X00785*
Y01375*
X0078Y0137*
X00665Y01335D02*
X00635D01*
Y0135*
X0064Y01355*
X0065*
X00655Y0135*
Y01335*
Y01345D02*
X00665Y01355D01*
X0064Y01365D02*
X00635Y0137D01*
Y0138*
X0064Y01385*
X00645*
X0065Y0138*
Y01375*
Y0138*
X00655Y01385*
X0066*
X00665Y0138*
Y0137*
X0066Y01365*
X01865Y01185D02*
Y01215D01*
X0188*
X01885Y0121*
Y012*
X0188Y01195*
X01865*
X01895Y01185D02*
X01905D01*
X019*
Y01215*
X01895Y0121*
M02*