%FSTAX23Y23*%
%MOIN*%
%SFA1B1*%

%IPPOS*%
%ADD10C,0.007900*%
%ADD11C,0.006000*%
%ADD12C,0.010000*%
%ADD57C,0.009800*%
%ADD58C,0.003900*%
%ADD59C,0.015700*%
%LNpower_pcb-1*%
%LPD*%
G54D10*
X00734Y0072D02*
Y00811D01*
Y0072D02*
X00919D01*
Y00921*
X01356Y00814D02*
X01411D01*
X01342Y00697D02*
Y00812D01*
X01327Y00697D02*
X01342D01*
X01327D02*
Y00812D01*
X01342*
X01056Y00709D02*
X01082D01*
Y00741*
X00967Y00709D02*
X00993D01*
X00967D02*
Y00741D01*
G54D11*
X01322Y00727D02*
Y00697D01*
Y00712*
X01302*
Y00727*
Y00697*
X01292D02*
X01282D01*
X01287*
Y00727*
X01292Y00722*
X0054Y00875D02*
X0056D01*
Y0086*
X0055*
X0056*
Y00845*
X0053D02*
Y00875D01*
X00515*
X0051Y0087*
Y0086*
X00515Y00855*
X0053*
X0048Y0087D02*
X00485Y00875D01*
X00495*
X005Y0087*
Y0085*
X00495Y00845*
X00485*
X0048Y0085*
X0047Y0084D02*
X0045D01*
X0044Y00845D02*
Y00875D01*
X00425*
X0042Y0087*
Y0086*
X00425Y00855*
X0044*
X0041Y00875D02*
Y00845D01*
X004Y00855*
X0039Y00845*
Y00875*
X0038Y00845D02*
Y00875D01*
X00365*
X0036Y0087*
Y0086*
X00365Y00855*
X0038*
X0037D02*
X0036Y00845D01*
X012Y00475D02*
X01205Y0048D01*
X01215*
X0122Y00475*
Y0047*
X01215Y00465*
X01205*
X012Y0046*
Y00455*
X01205Y0045*
X01215*
X0122Y00455*
X0119Y0045D02*
X0118D01*
X01185*
Y0048*
X0119Y00475*
X00965Y0061D02*
Y0064D01*
X0095*
X00945Y00635*
Y00625*
X0095Y0062*
X00965*
X00955D02*
X00945Y0061D01*
X00935Y00635D02*
X0093Y0064D01*
X0092*
X00915Y00635*
Y0063*
X0092Y00625*
X00925*
X0092*
X00915Y0062*
Y00615*
X0092Y0061*
X0093*
X00935Y00615*
X0122Y0083D02*
Y0086D01*
X01205*
X012Y00855*
Y00845*
X01205Y0084*
X0122*
X0121D02*
X012Y0083D01*
X0117D02*
X0119D01*
X0117Y0085*
Y00855*
X01175Y0086*
X01185*
X0119Y00855*
X01605Y00835D02*
Y00865D01*
X0159*
X01585Y0086*
Y0085*
X0159Y00845*
X01605*
X01595D02*
X01585Y00835D01*
X01575D02*
X01565D01*
X0157*
Y00865*
X01575Y0086*
X01025Y0082D02*
Y0084D01*
X0103Y00845*
X0104*
X01045Y0084*
Y0082*
X0104Y00815*
X0103*
X01035Y00825D02*
X01025Y00815D01*
X0103D02*
X01025Y0082D01*
X01015Y00815D02*
X01005D01*
X0101*
Y00845*
X01015Y0084*
X0137Y00865D02*
X0136D01*
X01365*
Y00835*
X0137*
X0136*
X01325Y0086D02*
X0133Y00865D01*
X0134*
X01345Y0086*
Y0084*
X0134Y00835*
X0133*
X01325Y0084*
X01315Y00835D02*
X01305D01*
X0131*
Y00865*
X01315Y0086*
X01635Y00785D02*
Y00755D01*
X0162*
X01615Y0076*
Y0078*
X0162Y00785*
X01635*
X01585Y0078D02*
X0159Y00785D01*
X016*
X01605Y0078*
Y00775*
X016Y0077*
X0159*
X01585Y00765*
Y0076*
X0159Y00755*
X016*
X01605Y0076*
X01575Y00755D02*
X01565D01*
X0157*
Y00785*
X01575Y0078*
X00715Y00845D02*
Y00815D01*
X007*
X00695Y0082*
Y0084*
X007Y00845*
X00715*
X00685Y00815D02*
X00675D01*
X0068*
Y00845*
X00685Y0084*
X01465Y0069D02*
X0147Y00695D01*
X0148*
X01485Y0069*
Y0067*
X0148Y00665*
X0147*
X01465Y0067*
X01435Y00665D02*
X01455D01*
X01435Y00685*
Y0069*
X0144Y00695*
X0145*
X01455Y0069*
X0118Y0068D02*
X01185Y00685D01*
X01195*
X012Y0068*
Y0066*
X01195Y00655*
X01185*
X0118Y0066*
X0117Y00655D02*
X0116D01*
X01165*
Y00685*
X0117Y0068*
G54D12*
X01138Y00446D02*
D01*
X01138Y00446*
X01138Y00447*
X01138Y00447*
X01138Y00447*
X01138Y00448*
X01138Y00448*
X01138Y00448*
X01137Y00448*
X01137Y00449*
X01137Y00449*
X01137Y00449*
X01137Y00449*
X01136Y00449*
X01136Y0045*
X01136Y0045*
X01136Y0045*
X01135Y0045*
X01135Y0045*
X01135Y0045*
X01135Y0045*
X01134Y0045*
X01134Y0045*
X01134*
X01133Y0045*
X01133Y0045*
X01133Y0045*
X01133Y0045*
X01132Y0045*
X01132Y0045*
X01132Y0045*
X01132Y0045*
X01131Y00449*
X01131Y00449*
X01131Y00449*
X01131Y00449*
X01131Y00449*
X0113Y00448*
X0113Y00448*
X0113Y00448*
X0113Y00448*
X0113Y00447*
X0113Y00447*
X0113Y00447*
X0113Y00446*
X0113Y00446*
X0113Y00446*
X0113Y00446*
X0113Y00445*
X0113Y00445*
X0113Y00445*
X0113Y00445*
X0113Y00444*
X0113Y00444*
X01131Y00444*
X01131Y00444*
X01131Y00443*
X01131Y00443*
X01131Y00443*
X01132Y00443*
X01132Y00443*
X01132Y00443*
X01132Y00442*
X01133Y00442*
X01133Y00442*
X01133Y00442*
X01133Y00442*
X01134Y00442*
X01134*
X01134Y00442*
X01135Y00442*
X01135Y00442*
X01135Y00442*
X01135Y00442*
X01136Y00443*
X01136Y00443*
X01136Y00443*
X01136Y00443*
X01137Y00443*
X01137Y00443*
X01137Y00444*
X01137Y00444*
X01137Y00444*
X01138Y00444*
X01138Y00445*
X01138Y00445*
X01138Y00445*
X01138Y00445*
X01138Y00446*
X01138Y00446*
X01138Y00446*
X009Y00224D02*
X01163Y00207D01*
X009Y00224D02*
X00902Y00261D01*
X01163Y00207D02*
X01165Y00245D01*
X01038Y00377D02*
X01105Y00373D01*
X01169Y00301D02*
X01171Y00333D01*
X00906Y00319D02*
X00908Y0035D01*
X00984Y00648D02*
X01055D01*
X00984Y00601D02*
X01055D01*
X01195Y00705D02*
Y00725D01*
X01159Y00818D02*
X0123D01*
X01159Y00771D02*
X0123D01*
X0145Y0075D02*
X0147D01*
X01479Y00826D02*
X0155D01*
X01479Y00873D02*
X0155D01*
X0151Y00305D02*
X01476D01*
X0151Y0039D02*
X01476D01*
X01493Y00406D02*
Y00373D01*
G54D57*
X00955Y00774D02*
D01*
X00955Y00774*
X00955Y00775*
X00954Y00775*
X00954Y00775*
X00954Y00776*
X00954Y00776*
X00954Y00776*
X00954Y00776*
X00954Y00777*
X00953Y00777*
X00953Y00777*
X00953Y00778*
X00953Y00778*
X00952Y00778*
X00952Y00778*
X00952Y00778*
X00952Y00778*
X00951Y00779*
X00951Y00779*
X00951Y00779*
X0095Y00779*
X0095Y00779*
X0095*
X00949Y00779*
X00949Y00779*
X00949Y00779*
X00948Y00779*
X00948Y00778*
X00948Y00778*
X00947Y00778*
X00947Y00778*
X00947Y00778*
X00946Y00778*
X00946Y00777*
X00946Y00777*
X00946Y00777*
X00946Y00776*
X00945Y00776*
X00945Y00776*
X00945Y00776*
X00945Y00775*
X00945Y00775*
X00945Y00775*
X00945Y00774*
X00945Y00774*
X00945Y00774*
X00945Y00773*
X00945Y00773*
X00945Y00773*
X00945Y00772*
X00945Y00772*
X00945Y00772*
X00946Y00771*
X00946Y00771*
X00946Y00771*
X00946Y0077*
X00946Y0077*
X00947Y0077*
X00947Y0077*
X00947Y0077*
X00948Y00769*
X00948Y00769*
X00948Y00769*
X00949Y00769*
X00949Y00769*
X00949Y00769*
X0095Y00769*
X0095*
X0095Y00769*
X00951Y00769*
X00951Y00769*
X00951Y00769*
X00952Y00769*
X00952Y00769*
X00952Y0077*
X00952Y0077*
X00953Y0077*
X00953Y0077*
X00953Y0077*
X00953Y00771*
X00954Y00771*
X00954Y00771*
X00954Y00772*
X00954Y00772*
X00954Y00772*
X00954Y00773*
X00954Y00773*
X00955Y00773*
X00955Y00774*
X00955Y00774*
G54D58*
X00434Y0047D02*
X00522Y00481D01*
X00518Y00515D02*
X00522Y00481D01*
X00389Y00809D02*
X00477Y00821D01*
X00482Y00788*
G54D59*
X01514Y00695D02*
X01545D01*
M02*