%FSTAX23Y23*%
%MOIN*%
%SFA1B1*%

%IPPOS*%
%AMD38*
4,1,4,-0.011800,0.030300,-0.015700,-0.028500,0.011800,-0.030300,0.015700,0.028500,-0.011800,0.030300,0.0*
%
%AMD39*
4,1,4,-0.020700,-0.014400,0.018600,-0.017000,0.020700,0.014400,-0.018600,0.017000,-0.020700,-0.014400,0.0*
%
%AMD40*
4,1,4,0.014900,0.007100,-0.016200,0.003000,-0.014900,-0.007100,0.016200,-0.003000,0.014900,0.007100,0.0*
%
%AMD41*
4,1,4,0.012000,0.006700,-0.013400,0.003400,-0.012000,-0.006700,0.013400,-0.003400,0.012000,0.006700,0.0*
%
%AMD42*
4,1,4,0.015500,0.009900,-0.017600,0.005500,-0.015500,-0.009900,0.017600,-0.005500,0.015500,0.009900,0.0*
%
%ADD12C,0.010000*%
%ADD24C,0.070900*%
%ADD27C,0.014000*%
%ADD28C,0.062000*%
%ADD29R,0.062000X0.062000*%
%ADD30O,0.051200X0.051200*%
%ADD31C,0.055100*%
%ADD32C,0.059100*%
%ADD33R,0.059100X0.059100*%
%ADD34C,0.050000*%
%ADD35C,0.020000*%
%ADD36C,0.021600*%
%ADD37R,0.055100X0.023600*%
G04~CAMADD=38~9~0.0~0.0~591.0~276.0~0.0~0.0~0~0.0~0.0~0.0~0.0~0~0.0~0.0~0.0~0.0~0~0.0~0.0~0.0~86.3~314.0~605.0*
%ADD38D38*%
G04~CAMADD=39~9~0.0~0.0~394.0~315.0~0.0~0.0~0~0.0~0.0~0.0~0.0~0~0.0~0.0~0.0~0.0~0~0.0~0.0~0.0~176.3~414.0~339.0*
%ADD39D39*%
G04~CAMADD=40~9~0.0~0.0~315.0~102.0~0.0~0.0~0~0.0~0.0~0.0~0.0~0~0.0~0.0~0.0~0.0~0~0.0~0.0~0.0~7.5~324.0~141.0*
%ADD40D40*%
G04~CAMADD=41~9~0.0~0.0~256.0~102.0~0.0~0.0~0~0.0~0.0~0.0~0.0~0~0.0~0.0~0.0~0.0~0~0.0~0.0~0.0~7.5~268.0~133.0*
%ADD41D41*%
G04~CAMADD=42~9~0.0~0.0~335.0~157.0~0.0~0.0~0~0.0~0.0~0.0~0.0~0~0.0~0.0~0.0~0.0~0~0.0~0.0~0.0~7.5~352.0~197.0*
%ADD42D42*%
%ADD43R,0.031500X0.035400*%
%ADD44R,0.021700X0.021700*%
%ADD45R,0.021700X0.021700*%
%ADD46R,0.031500X0.031500*%
%LNpower_pcb-1*%
%LPD*%
G36*
X0173Y00624D02*
X01725Y00623D01*
X01722Y00627*
X01647Y00702*
X01641Y00706*
X01635Y00707*
X01555*
Y00756*
X01529*
X01527Y00759*
X01529Y00763*
X01555*
Y00815*
X01547*
Y00829*
X01558*
Y0087*
X01517*
X01517*
X01512*
X01471*
Y00853*
X01459Y00842*
X01353*
X01346Y0084*
X01341Y00837*
X01327Y00823*
X01323Y00817*
X01322Y00814*
X01248*
Y00809*
X01238*
Y00815*
X01197*
X01197*
X01192*
X01192*
X01158*
X01153Y00819*
X01145Y00821*
X01136Y00819*
X0113Y00815*
X01125Y00808*
X01123Y008*
X01125Y00791*
X0113Y00785*
X01136Y0078*
X01145Y00778*
X01146Y00779*
X01151Y00775*
Y00774*
X01192*
X01192*
X01197*
X01197*
X01238*
Y00775*
X01248*
Y0077*
X01314*
X01316Y00766*
X01294Y00743*
X01291Y00739*
X01248*
Y00735*
X01243Y00733*
X01243Y00733*
X01238Y00735*
X01199*
X01195Y0074*
X01196Y00745*
X01194Y00753*
X0119Y0076*
X01183Y00764*
X01175Y00766*
X01166Y00764*
X0116Y0076*
X01155Y00753*
X01153Y00745*
X01154Y0074*
X01151Y00735*
Y00694*
X01192*
X01192*
X01197*
X01197*
X01208*
X0121Y00689*
X01205Y00685*
X01199Y00677*
X01195Y00669*
X01194Y0066*
X01195Y0065*
X01199Y00642*
X01205Y00635*
X01212Y00629*
X0122Y00625*
X0123Y00624*
X01239Y00625*
X01247Y00629*
X01255Y00635*
X0126Y00642*
X01264Y0065*
X01265Y0066*
X01264Y00669*
X0126Y00677*
X01257Y00681*
Y00695*
X01323*
Y0072*
X01323Y00722*
Y00724*
X01342Y00742*
X01346Y0074*
Y00695*
X01387*
X01388Y0069*
X01392Y00684*
X01399Y00677*
X01405Y00674*
X01411Y00672*
X01627*
X01692Y00607*
Y00442*
X01655Y00405*
X01611*
X01609Y00409*
X01603Y00418*
X01594Y00424*
X01585Y00428*
X01575Y00429*
X01564Y00428*
X01555Y00424*
X01546Y00418*
X0154Y00409*
X01539Y00407*
X01232*
X0119Y00448*
X01185Y00452*
X01178Y00453*
X01108*
X01102Y00452*
X01096Y00448*
X01083Y00435*
X01024*
X00992Y00437*
X00988Y0037*
X00984Y00367*
X00982Y00367*
X0098Y00367*
X00976Y00371*
X00978Y00401*
X00979Y00402*
X00981Y00409*
Y00428*
X0098Y0043*
X00981Y00438*
X00977Y00438*
X00976Y00441*
X0097Y00444*
X00963Y00446*
X00957Y00444*
X00951Y00441*
X00951Y0044*
X00933Y00441*
X00933Y00437*
X00928Y00434*
X00926Y00436*
X0092Y00437*
X00913Y00436*
X00907Y00432*
X0086*
X0086Y00432*
X00855Y0044*
X00847Y00445*
X00839Y00449*
X0083Y0045*
X0082Y00449*
X00812Y00445*
X00805Y0044*
X00799Y00432*
X00795Y00424*
X00794Y00415*
X00795Y00405*
X00799Y00397*
X00805Y0039*
X00812Y00384*
X0082Y0038*
X0083Y00379*
X00839Y0038*
X00847Y00384*
X00855Y0039*
X0086Y00397*
X0086Y00397*
X00866*
X00869Y00394*
X00867Y00355*
X00926Y00351*
X00926Y00358*
X00928Y00362*
X0095Y00361*
X00953Y00356*
X00948Y00351*
X00944Y00342*
X00942Y00332*
X00942Y00322*
X00946Y00313*
X00951Y00305*
X00959Y00298*
X00967Y00294*
X00977Y00292*
X00987Y00292*
X00996Y00296*
X01005Y00301*
X01011Y00309*
X01015Y00317*
X01017Y00327*
X01017Y00337*
X01014Y00346*
X0101Y00352*
X01013Y00357*
X01035Y00355*
X01038Y00401*
X0109*
X01097Y00402*
X01102Y00406*
X01104Y00407*
X01109Y00405*
X01106Y00362*
X01102Y00359*
X011Y0036*
X0109Y00359*
X01081Y00356*
X01072Y0035*
X01066Y00343*
X01062Y00334*
X0106Y00324*
X0106Y00314*
X01063Y00305*
X01069Y00297*
X01076Y0029*
X01085Y00286*
X01095Y00284*
X01105Y00285*
X01114Y00288*
X01122Y00293*
X01129Y00301*
X01133Y0031*
X01135Y00319*
X01135Y00329*
X01131Y00339*
X01128Y00344*
X0113Y00349*
X01149Y00348*
X01154Y00343*
X01153Y00336*
X01213Y00332*
X01215Y0037*
X0122Y00373*
X01225Y00372*
X01539*
X0154Y0037*
X01546Y00361*
X01555Y00355*
X01564Y00351*
X01575Y0035*
X01585Y00351*
X01594Y00355*
X01603Y00361*
X01609Y0037*
X01611Y00374*
X01657*
X01658Y00374*
X01665Y00372*
X01671Y00374*
X01677Y00377*
X01722Y00422*
X01725Y00426*
X0173Y00425*
Y00223*
X01726Y0022*
X01208Y00254*
X0121Y00297*
X01151Y00301*
X01149Y00262*
X01145Y00258*
X00921Y00273*
X00924Y00316*
X00892Y00318*
Y00318*
X00892Y00318*
X00891Y00319*
X0089Y00321*
X00888Y00322*
X00887Y00322*
X00887Y00323*
X00885Y00324*
X00883Y00324*
X00882Y00325*
X00881Y00325*
X00361Y0037*
X003Y00807*
X00303Y00811*
X00399Y0082*
X004Y00819*
X00398Y00813*
X00397Y00812*
X00394Y00806*
X00393Y00806*
X00387Y0081*
X00387Y00813*
X00334Y00806*
X00338Y00776*
X00326Y00774*
X00329Y00751*
X00333Y00721*
X00335Y00704*
X00338Y00685*
X00338Y00681*
X00344Y00639*
X00345Y00634*
X00348Y0061*
X00352Y00581*
X00354Y00564*
X00356Y00545*
X00357Y0054*
X00361Y0051*
X00364Y00487*
X00376Y00488*
X0038Y00458*
X00433Y00465*
X00428Y00501*
X00414Y00499*
X0041Y00536*
X00409Y0054*
X00408Y00545*
X00406Y00564*
X00405Y00567*
X0043Y00592*
X00434Y00597*
X00435Y00603*
Y00616*
X00438Y00622*
X0044Y0063*
X00438Y00637*
X00434Y00644*
X00427Y00648*
X00421Y0065*
X00414Y00657*
X00409Y0066*
X00403Y00661*
X00393*
X00391Y00676*
X0039Y00681*
X0039Y00686*
X00387Y00704*
Y00705*
X00391Y00707*
X00415Y00731*
X00416Y00731*
X00422Y00735*
X00439Y00752*
X00441Y00754*
X00443Y00755*
X00446Y00753*
X00452Y00708*
X00455Y00684*
X00461Y00637*
X00464Y00614*
X00468Y00591*
X00472Y00557*
X00495Y0056*
X00519Y00563*
X0052Y00564*
X00527Y00566*
X00529Y00567*
X00534Y00564*
Y00475*
X00535Y00469*
X00539Y00464*
X00554Y00449*
X00549Y00442*
X00545Y00434*
X00544Y00425*
X00545Y00415*
X00549Y00407*
X00555Y004*
X00562Y00394*
X0057Y0039*
X0058Y00389*
X00589Y0039*
X00597Y00394*
X00605Y004*
X0061Y00407*
X00614Y00415*
X00615Y00425*
X00614Y00434*
X0061Y00442*
X00605Y0045*
X00604Y0045*
X00606Y00455*
X00609Y00455*
X00617Y00459*
X00625Y00465*
X0063Y00472*
X00634Y0048*
X00635Y0049*
X00634Y00499*
X0063Y00507*
X00625Y00515*
X00617Y0052*
X00609Y00524*
X006Y00525*
Y00568*
X00599Y00574*
X00595Y00579*
X0059Y00582*
X0059*
X00589Y00584*
X00582Y00588*
X00575Y0059*
X0057Y00589*
X00565Y00593*
Y00595*
X00564Y006*
X0056Y00605*
X00556Y0061*
X00558Y00614*
X0056Y00614*
X00569Y00615*
X00577Y00619*
X00585Y00625*
X0059Y00632*
X00594Y0064*
X00595Y00649*
X00599Y00651*
X00601Y0065*
X00602Y00647*
X00608Y00644*
X00615Y00642*
X00622*
X00625Y00638*
X00624Y00635*
X00626Y00627*
X00629Y00621*
Y00583*
X00629Y0058*
X0063Y00574*
X00633Y00569*
X00638Y00565*
X00644Y00564*
X0065Y00565*
X00655Y00569*
X00655Y00569*
X00659Y00574*
X0066Y0058*
Y00621*
X00663Y00627*
X00665Y00633*
X0067Y00635*
X00825Y0048*
X0083Y00476*
X00837Y00475*
X01445*
X01452Y00476*
X01457Y0048*
X01482Y00505*
X01483Y00504*
X01492Y00503*
X01501Y00504*
X0151Y00508*
X01518Y00514*
X01523Y00521*
X01527Y0053*
X01528Y00539*
X01527Y00548*
X01525Y00553*
X01528Y00559*
X01533Y0056*
X01535Y00558*
X01537Y00556*
X01535Y00547*
X01537Y00538*
X01542Y0053*
X0155Y00525*
X01559Y00523*
X01568Y00525*
X01576Y0053*
X01581Y00538*
X01583Y00547*
X01581Y00556*
X01576Y00564*
X01568Y00569*
X01559Y00571*
X01557Y00571*
X01554Y00575*
X01555Y00576*
X01558Y00585*
X0156Y00594*
X01558Y00604*
X01555Y00612*
X01549Y0062*
X01542Y00625*
X01533Y00629*
X01524Y0063*
X01514Y00629*
X01506Y00625*
X01498Y0062*
X01495Y00616*
X01489*
X01486Y0062*
X01479Y00625*
X0147Y00629*
X01461Y0063*
X01451Y00629*
X01443Y00625*
X01435Y0062*
X01432Y00616*
X01426*
X01423Y0062*
X01416Y00625*
X01407Y00629*
X01403Y0063*
Y00594*
X01398*
Y00589*
X01362*
X01363Y00585*
X01367Y00576*
X01367Y00575*
X01364Y00571*
X01362Y00571*
X01353Y00569*
X01345Y00564*
X0134Y00556*
X01338Y00547*
X0134Y00539*
X01337Y00534*
X00856*
X00734Y00655*
X00736Y0066*
X00739Y0066*
X00747Y00664*
X00748Y00665*
X00759Y00654*
X00764Y0065*
X0077Y00649*
X00832*
X00833Y00649*
X0084Y00647*
X00949*
X00976Y00621*
Y00604*
X00988*
X00988Y00599*
X00987Y00598*
X00981Y00595*
X00925*
X00919Y00594*
X00914Y0059*
X00911Y00585*
X0091Y0058*
X00911Y00574*
X00914Y00569*
X00919Y00565*
X00925Y00564*
X00981*
X00987Y00561*
X00995Y00559*
X01002Y00561*
X01009Y00565*
X01013Y00572*
X01015Y0058*
X01013Y00587*
X01009Y00594*
X01002Y00598*
X01001Y00599*
X01001Y00604*
X01017*
X01022*
X01022*
X01051*
X01054Y006*
X01054Y006*
X01055Y0059*
X01059Y00582*
X01065Y00575*
X01072Y00569*
X0108Y00565*
X0109Y00564*
X01099Y00565*
X01107Y00569*
X01115Y00575*
X0112Y00582*
X01124Y0059*
X01125Y006*
X01124Y00609*
X0112Y00617*
X01115Y00625*
X01107Y0063*
X01107Y0063*
X01106Y00635*
X01102Y00641*
X0105Y00692*
Y00723*
X01042*
Y00746*
X01067*
X01074Y00739*
X01075Y0073*
X01079Y00722*
X01085Y00715*
X01092Y00709*
X011Y00705*
X0111Y00704*
X01119Y00705*
X01127Y00709*
X01135Y00715*
X0114Y00722*
X01144Y0073*
X01145Y0074*
X01144Y00749*
X0114Y00757*
X01135Y00765*
X01127Y0077*
X01119Y00774*
X0111Y00775*
X011Y00774*
X01092Y0077*
X01088Y00775*
Y00802*
X01055*
X01053Y00802*
X01052Y00802*
X0104*
X01037Y00806*
X01022Y00821*
X01017Y00825*
X0101Y00826*
X01003*
X00997Y00832*
X00991Y00836*
X00985Y00837*
X00943*
X00913Y00867*
X00912Y00869*
X00913Y00874*
X00914Y00874*
X00914Y00875*
X00915Y00877*
X00916Y00878*
X00917Y00879*
X00917Y0088*
X00917Y00882*
X00918Y00884*
X00918Y00885*
X0173*
Y00624*
G37*
%LNpower_pcb-2*%
%LPC*%
G36*
X01393Y0063D02*
X01388Y00629D01*
X0138Y00625*
X01372Y0062*
X01367Y00612*
X01363Y00604*
X01362Y00599*
X01393*
Y0063*
G37*
G36*
X00519Y00553D02*
X00496Y0055D01*
X00473Y00547*
X00474Y00544*
X00475Y00534*
X00498Y00537*
X0052Y0054*
X0052Y00543*
X00519Y00553*
G37*
G36*
X00522Y0053D02*
X00504Y00527D01*
X00505Y00517*
X00523Y0052*
X00522Y0053*
G37*
G36*
X00494Y00526D02*
X00476Y00524D01*
X00478Y00514*
X00495Y00516*
X00494Y00526*
G37*
G36*
X01614Y00329D02*
X01535D01*
Y0025*
X01614*
Y00329*
G37*
%LNpower_pcb-3*%
%LPD*%
G54D12*
X00576Y00696D02*
X00612Y0066D01*
X00615*
X00477Y00696D02*
X00576D01*
X0073Y00695D02*
X0074D01*
X0077Y00665*
X0084*
X0042Y00603D02*
Y0063D01*
X00395Y00578D02*
X0042Y00603D01*
X00381Y00578D02*
X00395D01*
X00378Y00575D02*
X00381Y00578D01*
X00403Y00646D02*
X0042Y0063D01*
X00369Y00646D02*
X00403D01*
X0047Y00755D02*
X00505D01*
X0047Y00743D02*
Y00755D01*
X00469Y00744D02*
Y00764D01*
Y00744D02*
X0047Y00743D01*
X00467Y00766D02*
X00469Y00764D01*
X00517Y00585D02*
X0052D01*
X00513Y0058D02*
X00517Y00585D01*
X00494Y0058D02*
X00513D01*
X00492Y00579D02*
X00494Y0058D01*
X0052Y00624D02*
X0055Y00595D01*
X00483Y00649D02*
X00488D01*
X0055Y00475D02*
X0058Y00445D01*
X0055Y00475D02*
Y00595D01*
X0058Y00425D02*
Y00445D01*
X00484Y00647D02*
X0049D01*
X00488Y00649D02*
X0049Y00647D01*
X00499Y00624D02*
X0052D01*
X00576Y00568D02*
X00585D01*
X00575Y0057D02*
X00576Y00568D01*
X00484Y00627D02*
X00487Y00624D01*
X00499*
X00484Y00627D02*
Y00647D01*
X00499Y00624D02*
X00499Y00624D01*
X00557Y0065D02*
X0056D01*
X00534Y00672D02*
X00557Y0065D01*
X0048Y00672D02*
X00534D01*
X00559Y00649D02*
X0056Y0065D01*
X00995Y0058D02*
X01D01*
X00925D02*
X00995D01*
X00644D02*
X00645Y0058D01*
Y00635*
X00585Y00505D02*
Y00568D01*
Y00505D02*
X006Y0049D01*
X0158Y0038D02*
X0159Y0039D01*
X01665*
X01575Y00385D02*
X0158Y0038D01*
X01575Y00385D02*
Y0039D01*
X01172Y00742D02*
X01175Y00745D01*
X01172Y00715D02*
Y00742D01*
X01145Y008D02*
X0115Y00795D01*
X01172*
X0146Y00773D02*
X01463Y00769D01*
X00474Y00719D02*
X00564D01*
X00395Y00785D02*
X0041Y008D01*
X00395Y0078D02*
Y00785D01*
X00382Y00767D02*
X00395Y0078D01*
X0037Y00767D02*
X00382D01*
X00368Y00765D02*
X0037Y00767D01*
X00356Y00765D02*
X00368D01*
X00354Y00763D02*
X00356Y00765D01*
X00381Y00718D02*
X0041Y00747D01*
X00362Y00718D02*
X00381D01*
X0036Y00716D02*
X00362Y00718D01*
G54D24*
X00627Y0075D03*
G54D27*
X01415Y00539D02*
Y00543D01*
X00704Y00747D02*
X00721D01*
X00679Y00771D02*
X00704Y00747D01*
X00679Y00771D02*
Y00772D01*
X00609Y00695D02*
X0067D01*
X00585Y00718D02*
X00609Y00695D01*
X00435Y00814D02*
X00582D01*
X00566Y00718D02*
X00585D01*
X00703Y00781D02*
X0071Y00775D01*
X00703Y00781D02*
Y00782D01*
X00659Y00827D02*
X00703Y00782D01*
X00595Y00827D02*
X00659D01*
X00582Y00814D02*
X00595Y00827D01*
X00649Y00803D02*
X00679Y00772D01*
X00605Y00803D02*
X00649D01*
X00588Y00786D02*
X00605Y00803D01*
X00588Y00786D02*
D01*
X00584Y0079D02*
X00588Y00786D01*
X0067Y00695D02*
X00848Y00516D01*
X00564Y00719D02*
X00566Y00718D01*
X00668Y00662D02*
X00837Y00492D01*
X00633Y00662D02*
X00668D01*
X00631Y0066D02*
X00633Y00662D01*
X00615Y0066D02*
X00631D01*
X00845Y0086D02*
X00896D01*
X00829Y00844D02*
X00845Y0086D01*
X00829Y00784D02*
Y00844D01*
X00825Y0078D02*
X00829Y00784D01*
X00825Y00773D02*
Y0078D01*
X00815Y00763D02*
X00825Y00773D01*
Y00739D02*
X00849Y00763D01*
Y0077*
X00877Y00798*
Y00811*
X00729Y00739D02*
X00825D01*
X00727Y00775D02*
X00739Y00763D01*
X00815*
X0071Y00775D02*
X00727D01*
X00848Y00516D02*
X01393D01*
X00721Y00747D02*
X00729Y00739D01*
X00427Y00772D02*
X00445Y0079D01*
X00427Y00765D02*
Y00772D01*
X0041Y00747D02*
X00427Y00765D01*
X00445Y0079D02*
X00584D01*
X0084Y00665D02*
X00957D01*
X00837Y00492D02*
X01445D01*
X00896Y0086D02*
X00936Y0082D01*
X00421Y008D02*
X00435Y00814D01*
X0041Y008D02*
X00421D01*
X01436Y00769D02*
X01463D01*
X01422Y00755D02*
X01432Y00765D01*
X0092Y0042D02*
X00927Y00412D01*
X00915Y00415D02*
X0092Y0042D01*
X0083Y00415D02*
X00915D01*
X00957Y00665D02*
X00997Y00625D01*
X01432Y00765D02*
X01436Y00769D01*
X01384Y00755D02*
X01422D01*
X01665Y0039D02*
X0171Y00435D01*
X01225Y0039D02*
X01575D01*
X0143Y00765D02*
X01432D01*
X0146Y0069D02*
X01635D01*
X01477Y008D02*
X01497Y00781D01*
X01408Y008D02*
X01477D01*
X01466Y00824D02*
X01492Y0085D01*
X01353Y00824D02*
X01466D01*
X01635Y0069D02*
X0171Y00615D01*
X01339Y00811D02*
X01353Y00824D01*
X01384Y00792D02*
X014D01*
X01497Y00763D02*
Y00781D01*
X014Y00792D02*
X01408Y008D01*
X01507Y00752D02*
X0153Y0073D01*
X01507Y00752D02*
Y00753D01*
X01497Y00763D02*
X01507Y00753D01*
X01108Y00436D02*
X01178D01*
X0109Y00418D02*
X01108Y00436D01*
X01022Y00418D02*
X0109D01*
X01014Y00409D02*
X01022Y00418D01*
X01014Y00396D02*
Y00409D01*
X01404Y00697D02*
Y00712D01*
X01399Y00717D02*
X01404Y00712D01*
X01384Y00717D02*
X01399D01*
X0125D02*
X01285D01*
X0124Y0067D02*
Y00715D01*
X01247*
X01218D02*
X0124D01*
X01247D02*
X0125Y00717D01*
X0123Y0066D02*
X0124Y0067D01*
X0109Y006D02*
Y00629D01*
X0171Y00435D02*
Y00615D01*
X01411Y0069D02*
X0146D01*
X01404Y00697D02*
X01411Y0069D01*
X0146D02*
Y00727D01*
X01445Y00492D02*
X01492Y00539D01*
X01393Y00516D02*
X01415Y00539D01*
Y00543D02*
X01419Y00539D01*
X01178Y00436D02*
X01225Y0039D01*
X01062Y00776D02*
X01098Y0074D01*
X01053Y00785D02*
X01062Y00776D01*
X01098Y0074D02*
X0111D01*
X00985Y0082D02*
X00995Y00809D01*
X00936Y0082D02*
X00985D01*
X00995Y00809D02*
X0101D01*
X01025Y00794*
Y00695D02*
Y00794D01*
X00354Y00743D02*
X00357Y0074D01*
X00354Y00743D02*
Y00763D01*
X01025Y00694D02*
X0109Y00629D01*
X00927Y00412D02*
X00946D01*
X00955Y00403*
Y004D02*
Y00403D01*
X01419Y00539D02*
X01429D01*
X00963Y00409D02*
Y00428D01*
X00955Y004D02*
X00963Y00409D01*
X01062Y00774D02*
Y00776D01*
X00992Y0067D02*
Y00769D01*
Y0067D02*
X01002Y0066D01*
X01007*
X01043Y00625*
X00987Y00774D02*
X00992Y00769D01*
X01218Y00795D02*
X0122Y00792D01*
X01285*
X01025Y00694D02*
Y00695D01*
X01306Y00722D02*
Y00731D01*
X01301Y00717D02*
X01306Y00722D01*
X01285Y00717D02*
X01301D01*
X01306Y00731D02*
X01339Y00764D01*
Y00811*
X0153Y00842D02*
X01538Y0085D01*
X0153Y00789D02*
Y00842D01*
G54D28*
X00877Y00811D03*
G54D29*
X00777Y00811D03*
G54D30*
X01492Y00539D03*
X01524Y00594D03*
X01461D03*
X01398D03*
X01429Y00539D03*
G54D31*
X01097Y00322D03*
X0098Y0033D03*
G54D32*
X01575Y0039D03*
G54D33*
X01575Y0029D03*
G54D34*
X0073Y00695D03*
X0083Y00415D03*
X006Y0049D03*
X0058Y00425D03*
X0123Y0066D03*
X0109Y006D03*
X0056Y0065D03*
X0111Y0074D03*
G54D35*
X0042Y0063D03*
X00505Y00755D03*
X0052Y00585D03*
X00575Y0057D03*
X00995Y0058D03*
X00645Y00635D03*
G54D36*
X01175Y00745D03*
X01145Y008D03*
X0143Y00765D03*
G54D37*
X01285Y00792D03*
Y00717D03*
X01384D03*
Y00755D03*
Y00792D03*
G54D38*
X01131Y00389D03*
X01014Y00396D03*
X00955Y004D03*
G54D39*
X01185Y0036D03*
X01179Y00273D03*
X00898Y00378D03*
X00892Y00292D03*
G54D40*
X00388Y00505D03*
X00385Y00529D03*
X00381Y00552D03*
X00378Y00575D03*
X00375Y00599D03*
X00372Y00622D03*
X00369Y00646D03*
X00366Y00669D03*
X00363Y00693D03*
X0036Y00716D03*
X00357Y00739D03*
X00354Y00763D03*
G54D41*
X00498Y00532D03*
X00495Y00555D03*
X00492Y00579D03*
X00489Y00602D03*
X00486Y00625D03*
X00483Y00649D03*
X0048Y00672D03*
X00477Y00696D03*
X00474Y00719D03*
X0047Y00743D03*
X00467Y00766D03*
G54D42*
X00404Y0048D03*
X00363Y00792D03*
G54D43*
X01025Y00695D03*
X01062Y00774D03*
X00987D03*
G54D44*
X00997Y00625D03*
X01043D03*
X01218Y00715D03*
X01172D03*
Y00795D03*
X01218D03*
X01538Y0085D03*
X01492D03*
G54D45*
X0146Y00727D03*
Y00773D03*
G54D46*
X0153Y00789D03*
Y0073D03*
M02*