%FSTAX23Y23*%
%MOIN*%
%SFA1B1*%

%IPPOS*%
%ADD16C,0.006000*%
%ADD67C,0.048000*%
%ADD70C,0.047200*%
%ADD72R,0.059100X0.059100*%
%ADD73C,0.011800*%
%LNpower_pcb-1*%
%LPD*%
G36*
X0199Y01456D02*
X01985Y01456D01*
Y01456*
X01981Y01461*
X01976Y01465*
X01975Y01465*
Y0145*
Y01434*
X01976Y01435*
X01981Y01438*
X01985Y01443*
Y01443*
X0199Y01443*
Y01342*
X01985Y01341*
X01984Y01343*
X01984Y01343*
Y01344*
X01982Y01347*
X01978Y01349*
X01975Y0135*
X01971Y01349*
X01967Y01347*
X01965Y01343*
X01964Y0134*
X01965Y01336*
X01967Y01332*
X01971Y0133*
X01975Y01329*
X01978Y0133*
X01982Y01332*
X01984Y01335*
X01984Y01336*
X01984Y01336*
X01985Y01338*
X0199Y01337*
Y01185*
X0023*
Y015*
X00367*
X00368Y01495*
X00366Y01494*
X00366Y01494*
X00366*
X00362Y01492*
X0036Y01488*
X00359Y01485*
X0036Y01481*
X00362Y01477*
X00366Y01475*
X0037Y01474*
X00373Y01475*
X00377Y01477*
X00379Y01481*
X0038Y01485*
X00379Y01488*
X00377Y01492*
X00374Y01494*
X00373Y01494*
X00373Y01494*
X00371Y01495*
X00372Y015*
X00437*
X00438Y01495*
X00436Y01493*
X00433Y01489*
X00432Y01485*
X00433Y0148*
X00436Y01476*
X0044Y01473*
X00445Y01472*
X00449Y01473*
X00453Y01476*
X00456Y0148*
X00457Y01485*
X00456Y01489*
X00453Y01493*
X00451Y01495*
X00452Y015*
X00542*
X00543Y01495*
X00541Y01494*
X00541Y01494*
X00541*
X00537Y01492*
X00535Y01488*
X00534Y01485*
X00535Y01481*
X00537Y01477*
X00541Y01475*
X00545Y01474*
X00548Y01475*
X00552Y01477*
X00554Y01481*
X00555Y01485*
X00554Y01488*
X00552Y01492*
X00549Y01494*
X00548Y01494*
X00548Y01494*
X00546Y01495*
X00547Y015*
X0062*
X0062Y01499*
X00622Y01495*
X0062Y01491*
X00619Y0149*
X0065*
X0065Y01491*
X00647Y01495*
X00649Y01499*
X00649Y015*
X01217*
X01218Y01495*
X01216Y01494*
X01216Y01494*
X01216*
X01212Y01492*
X0121Y01488*
X01209Y01485*
X0121Y01481*
X01212Y01477*
X01216Y01475*
X0122Y01474*
X01223Y01475*
X01227Y01477*
X01229Y01481*
X0123Y01485*
X01229Y01488*
X01227Y01492*
X01224Y01494*
X01223Y01494*
X01223Y01494*
X01221Y01495*
X01222Y015*
X01394*
X01394Y01495*
X01391Y01494*
X01387Y01492*
X01385Y01488*
X01384Y01485*
X01385Y01481*
X01387Y01477*
X01391Y01475*
X01395Y01474*
X01398Y01475*
X01402Y01477*
X01407*
X01411Y01475*
X01415Y01474*
X01418Y01475*
X01421Y01477*
X01423Y01473*
X01428Y0147*
X0143Y01469*
Y01485*
X01435*
Y0149*
X0145*
X0145Y01491*
X01447Y01495*
X01449Y01499*
X01449Y015*
X01537*
X0154Y01495*
X01538Y01492*
X01538Y01492*
X01534Y01492*
X01531Y01489*
X01528Y01486*
X01528Y01482*
X01528Y01478*
X01531Y01475*
X01534Y01473*
X01538Y01472*
X01542Y01473*
X01543Y01474*
X01543Y01473*
X01548Y0147*
X0155Y01469*
Y01485*
X01555*
Y0149*
X0157*
X0157Y01491*
X01567Y01495*
X01569Y01499*
X01569Y015*
X01583*
X01586Y01495*
X01585Y01493*
X01584Y0149*
X01585Y01486*
X01587Y01482*
X01591Y0148*
X01595Y01479*
X01598Y0148*
X01602Y01482*
X01604Y01486*
X01604Y01486*
X01609*
X0161Y01483*
X01613Y01478*
X01618Y01475*
X0162Y01474*
Y0149*
X0163*
Y01474*
X01631Y01475*
X01631Y01475*
X01633Y01473*
X01636Y01472*
X01637Y01463*
X01643Y01456*
X0165Y0145*
X0166Y01448*
X01669Y0145*
X01676Y01456*
X01682Y01463*
X01683Y0147*
X01685Y01471*
Y0149*
X0169*
Y01495*
X01705*
X01708Y015*
X01768*
X01771Y01495*
X0177Y01493*
X01769Y0149*
X0177Y01486*
X01772Y01482*
X01776Y0148*
X0178Y01479*
X01783Y0148*
X01787Y01482*
X01789Y01486*
X0179Y0149*
X01789Y01493*
X01788Y01495*
X01791Y015*
X0199*
Y01456*
G37*
%LNpower_pcb-2*%
%LPC*%
G36*
X01705Y01485D02*
X01695D01*
Y01474*
X01696Y01475*
X01701Y01478*
X01705Y01483*
X01705Y01485*
G37*
G36*
X0097Y0149D02*
X00966Y01489D01*
X00962Y01487*
X0096Y01483*
X00959Y0148*
X0096Y01476*
X00962Y01472*
X00966Y0147*
X0097Y01469*
X00973Y0147*
X00977Y01472*
X00979Y01476*
X0098Y0148*
X00979Y01483*
X00977Y01487*
X00973Y01489*
X0097Y0149*
G37*
G36*
X0065Y0148D02*
X0064D01*
Y01469*
X00641Y0147*
X00646Y01473*
X0065Y01478*
X0065Y0148*
G37*
G36*
X0063D02*
X00619D01*
X0062Y01478*
X00623Y01473*
X00628Y0147*
X0063Y01469*
Y0148*
G37*
G36*
X0157D02*
X0156D01*
Y01469*
X01561Y0147*
X01566Y01473*
X0157Y01478*
X0157Y0148*
G37*
G36*
X0145D02*
X0144D01*
Y01469*
X01441Y0147*
X01446Y01473*
X0145Y01478*
X0145Y0148*
G37*
G36*
X01089Y0147D02*
X01086Y01469D01*
X01082Y01467*
X01077*
X01073Y01469*
X0107Y0147*
X01066Y01469*
X01062Y01467*
X0106Y01463*
X01059Y0146*
X0106Y01456*
X01062Y01452*
X01066Y0145*
X0107Y01449*
X01073Y0145*
X01077Y01452*
X01082*
X01086Y0145*
X01089Y01449*
X01093Y0145*
X01097Y01452*
X01099Y01456*
X011Y0146*
X01099Y01463*
X01097Y01467*
X01093Y01469*
X01089Y0147*
G37*
G36*
X0117Y01485D02*
X01166Y01484D01*
X01162Y01482*
X0116Y01478*
X01159Y01475*
X0116Y01471*
X01162Y01467*
X01166Y01465*
X0117Y01464*
X01173Y01465*
X01177Y01467*
X01179Y01471*
X0118Y01475*
X01179Y01478*
X01177Y01482*
X01173Y01484*
X0117Y01485*
G37*
G36*
X01296Y01483D02*
X01293Y01482D01*
X01289Y0148*
X01287Y01477*
X01286Y01473*
X01287Y01469*
X01289Y01466*
X01293Y01463*
X01296Y01463*
X013Y01463*
X01304Y01466*
X01306Y01469*
X01307Y01473*
X01306Y01477*
X01304Y0148*
X013Y01482*
X01296Y01483*
G37*
G36*
X0112Y01481D02*
X01116Y0148D01*
X01112Y01478*
X0111Y01475*
X01109Y01471*
X0111Y01467*
X01112Y01464*
X01116Y01461*
X0112Y01461*
X01123Y01461*
X01127Y01464*
X01129Y01467*
X0113Y01471*
X01129Y01475*
X01127Y01478*
X01123Y0148*
X0112Y01481*
G37*
G36*
X00395Y0147D02*
Y0146D01*
X00405*
X00405Y01461*
X00401Y01466*
X00396Y0147*
X00395Y0147*
G37*
G36*
X00385D02*
X00383Y0147D01*
X00378Y01466*
X00375Y01461*
X00374Y0146*
X00385*
Y0147*
G37*
G36*
X00265D02*
Y0146D01*
X00275*
X00275Y01461*
X00271Y01466*
X00266Y0147*
X00265Y0147*
G37*
G36*
X00255D02*
X00253Y0147D01*
X00248Y01466*
X00245Y01461*
X00244Y0146*
X00255*
Y0147*
G37*
G36*
X00815Y0148D02*
X00811Y01479D01*
X00807Y01477*
X00805Y01473*
X00804Y0147*
X00805Y01466*
X00807Y01462*
X00811Y0146*
X00815Y01459*
X00818Y0146*
X00822Y01462*
X00824Y01466*
X00825Y0147*
X00824Y01473*
X00822Y01477*
X00818Y01479*
X00815Y0148*
G37*
G36*
X01965Y01465D02*
X01963Y01465D01*
X01958Y01461*
X01955Y01456*
X01954Y01455*
X01965*
Y01465*
G37*
G36*
X01015Y0146D02*
X01011Y01459D01*
X01007Y01457*
X01005Y01453*
X01005Y01452*
X01Y01451*
X00998Y01454*
X00992Y01458*
X00991Y01458*
Y01443*
Y01428*
X00992Y01428*
X00998Y01431*
X01001Y01437*
X01002Y01441*
X01007Y01443*
X01007Y01442*
X01011Y0144*
X01015Y01439*
X01018Y0144*
X01022Y01442*
X01024Y01446*
X01025Y0145*
X01024Y01453*
X01022Y01457*
X01018Y01459*
X01015Y0146*
G37*
G36*
X01335Y01471D02*
X01331Y0147D01*
X01327Y01468*
X01325Y01465*
X01324Y01461*
X01325Y01457*
X01327Y01454*
X01331Y01451*
X01335Y01451*
X01338Y01451*
X01341Y01453*
X01342Y01454*
X01347Y01453*
X01347Y01452*
X01351Y0145*
X01355Y01449*
X01358Y0145*
X01362Y01452*
X01364Y01456*
X01365Y0146*
X01364Y01463*
X01362Y01467*
X01358Y01469*
X01355Y0147*
X01351Y01469*
X01348Y01467*
X01347Y01467*
X01342Y01468*
X01342Y01468*
X01338Y0147*
X01335Y01471*
G37*
G36*
X00981Y01458D02*
X0098Y01458D01*
X00975Y01454*
X00971Y01449*
X00971Y01448*
X00981*
Y01458*
G37*
G36*
X01285Y01455D02*
Y01445D01*
X01295*
X01295Y01446*
X01291Y01451*
X01286Y01455*
X01285Y01455*
G37*
G36*
X01275D02*
X01273Y01455D01*
X01268Y01451*
X01265Y01446*
X01264Y01445*
X01275*
Y01455*
G37*
G36*
X0146Y01456D02*
X0145Y01455D01*
X01443Y01449*
X01438Y01443*
X01433Y01443*
X01433Y01443*
X01432Y01445*
X01429Y01447*
X01425Y01448*
X01421Y01447*
X01418Y01445*
X01415Y01442*
X01415Y01438*
X01415Y01434*
X01418Y01431*
X01421Y01428*
X01425Y01428*
X01429Y01428*
X01431Y0143*
X01435Y01429*
X01436Y01428*
X01437Y01423*
X01443Y01416*
X0145Y0141*
X01458Y01409*
X0146Y01405*
X0146Y01404*
X0146Y01403*
X01459Y014*
X0146Y01396*
X01462Y01392*
X01466Y0139*
X0147Y01389*
X01473Y0139*
X01477Y01392*
X01479Y01396*
X0148Y014*
X01479Y01403*
X01477Y01407*
X01474Y01408*
X01474Y01412*
X01474Y01414*
X01476Y01416*
X01482Y01423*
X01484Y01432*
X01482Y01442*
X01476Y01449*
X01469Y01455*
X0146Y01456*
G37*
G36*
X0104Y0146D02*
X01036Y01459D01*
X01032Y01457*
X0103Y01453*
X01029Y0145*
X0103Y01446*
X01032Y01442*
X01036Y0144*
X0104Y01439*
X01043Y0144*
X01047Y01442*
X01049Y01446*
X0105Y0145*
X01049Y01453*
X01047Y01457*
X01043Y01459*
X0104Y0146*
G37*
G36*
X00405Y0145D02*
X00395D01*
Y01439*
X00396Y0144*
X00401Y01443*
X00405Y01448*
X00405Y0145*
G37*
G36*
X00385D02*
X00374D01*
X00375Y01448*
X00378Y01443*
X00383Y0144*
X00385Y01439*
Y0145*
G37*
G36*
X00275D02*
X00265D01*
Y01439*
X00266Y0144*
X00271Y01443*
X00275Y01448*
X00275Y0145*
G37*
G36*
X00255D02*
X00244D01*
X00245Y01448*
X00248Y01443*
X00253Y0144*
X00255Y01439*
Y0145*
G37*
G36*
X01965Y01445D02*
X01954D01*
X01955Y01443*
X01958Y01438*
X01963Y01435*
X01965Y01434*
Y01445*
G37*
G36*
X01913Y01454D02*
X01909Y01453D01*
X01906Y01451*
X01903Y01447*
X01903Y01443*
X01903Y0144*
X01906Y01436*
X01909Y01434*
X01913Y01433*
X01917Y01434*
X0192Y01436*
X01922Y0144*
X01923Y01443*
X01922Y01447*
X0192Y01451*
X01917Y01453*
X01913Y01454*
G37*
G36*
X01205Y0145D02*
X01201Y01449D01*
X01197Y01447*
X01195Y01443*
X01194Y0144*
X01195Y01436*
X01197Y01432*
X01201Y0143*
X01205Y01429*
X01208Y0143*
X01212Y01432*
X01214Y01436*
X01215Y0144*
X01214Y01443*
X01212Y01447*
X01208Y01449*
X01205Y0145*
G37*
G36*
X00815D02*
X00811Y01449D01*
X00807Y01447*
X00805Y01443*
X00804Y0144*
X00805Y01436*
X00807Y01432*
X00811Y0143*
X00815Y01429*
X00818Y0143*
X00822Y01432*
X00824Y01436*
X00825Y0144*
X00824Y01443*
X00822Y01447*
X00818Y01449*
X00815Y0145*
G37*
G36*
X01576Y01448D02*
X01572Y01447D01*
X01569Y01445*
X01567Y01442*
X01566Y01438*
X01567Y01434*
X01569Y01431*
X01572Y01429*
X01576Y01428*
X0158Y01429*
X01583Y01431*
X01585Y01434*
X01586Y01438*
X01585Y01442*
X01583Y01445*
X0158Y01447*
X01576Y01448*
G37*
G36*
X00981Y01438D02*
X00971D01*
X00971Y01437*
X00975Y01431*
X0098Y01428*
X00981Y01428*
Y01438*
G37*
G36*
X00425Y01445D02*
X00421Y01444D01*
X00417Y01442*
X00415Y01438*
X00414Y01435*
X00415Y01431*
X00417Y01427*
X00421Y01425*
X00425Y01424*
X00428Y01425*
X00432Y01427*
X00434Y01431*
X00435Y01435*
X00434Y01438*
X00432Y01442*
X00428Y01444*
X00425Y01445*
G37*
G36*
X01295Y01435D02*
X01285D01*
Y01424*
X01286Y01425*
X01291Y01428*
X01295Y01433*
X01295Y01435*
G37*
G36*
X01275D02*
X01264D01*
X01265Y01433*
X01268Y01428*
X01273Y01425*
X01275Y01424*
Y01435*
G37*
G36*
X00325Y0144D02*
X00321Y01439D01*
X00317Y01437*
X00315Y01433*
X00314Y0143*
X00315Y01426*
X00317Y01422*
X00321Y0142*
X00325Y01419*
X00328Y0142*
X00332Y01422*
X00334Y01426*
X00335Y0143*
X00334Y01433*
X00332Y01437*
X00328Y01439*
X00325Y0144*
G37*
G36*
X00963Y01425D02*
X00962Y01424D01*
X00957Y01421*
X00953Y01416*
X00953Y01414*
X00963*
Y01425*
G37*
G36*
X00475Y01435D02*
X00471Y01434D01*
X00467Y01432*
X00465Y01428*
X00464Y01425*
X00465Y01421*
X00467Y01417*
X00471Y01415*
X00475Y01414*
X00478Y01415*
X00482Y01417*
X00484Y01421*
X00485Y01425*
X00484Y01428*
X00482Y01432*
X00478Y01434*
X00475Y01435*
G37*
G36*
X0186Y0142D02*
Y0141D01*
X0187*
X0187Y01411*
X01866Y01416*
X01861Y0142*
X0186Y0142*
G37*
G36*
X0185D02*
X01848Y0142D01*
X01843Y01416*
X0184Y01411*
X01839Y0141*
X0185*
Y0142*
G37*
G36*
X0166Y01416D02*
X0165Y01415D01*
X01643Y01409*
X01639Y01405*
X01634Y01406*
X01634Y01408*
X01632Y01412*
X01628Y01414*
X01625Y01415*
X01621Y01414*
X01617Y01412*
X01615Y01408*
X01614Y01405*
X01615Y01401*
X01617Y01397*
X01616Y01392*
X01615Y01392*
X01615*
X01615Y01392*
X01611Y01395*
X0161Y01395*
Y0138*
X01605*
Y01375*
X01589*
X0159Y01373*
X01593Y01368*
X01598Y01365*
X01602Y01364*
X01602Y01364*
X01602Y01359*
X01598Y01356*
X01595Y01351*
X01594Y0135*
X01625*
X01625Y01351*
X01621Y01356*
X01616Y0136*
X01613Y0136*
X01612Y0136*
X01612Y01365*
X01616Y01368*
X0162Y01373*
X01622Y01374*
X01623Y01374*
X01626Y01373*
X0163Y01374*
X01634Y01376*
X01635Y01378*
X01639Y01379*
X01641Y01378*
X01643Y01376*
X0165Y0137*
X0166Y01368*
X01669Y0137*
X01676Y01376*
X01682Y01383*
X01684Y01392*
X01682Y01402*
X01676Y01409*
X01669Y01415*
X0166Y01416*
G37*
G36*
X00865Y01425D02*
X00861Y01424D01*
X00857Y01422*
X00855Y01418*
X00854Y01415*
X00855Y01411*
X00857Y01407*
X00861Y01405*
X00865Y01404*
X00868Y01405*
X00872Y01407*
X00874Y01411*
X00875Y01415*
X00874Y01418*
X00872Y01422*
X00868Y01424*
X00865Y01425*
G37*
G36*
X00695D02*
X00691Y01424D01*
X00687Y01422*
X00685Y01418*
X00684Y01415*
X00685Y01411*
X00687Y01407*
X00691Y01405*
X00695Y01404*
X00698Y01405*
X00702Y01407*
X00704Y01411*
X00705Y01415*
X00704Y01418*
X00702Y01422*
X00698Y01424*
X00695Y01425*
G37*
G36*
X0035D02*
X00346Y01424D01*
X00342Y01422*
X0034Y01418*
X00339Y01415*
X0034Y01411*
X00342Y01407*
X00346Y01405*
X0035Y01404*
X00353Y01405*
X00357Y01407*
X00359Y01411*
X0036Y01415*
X00359Y01418*
X00357Y01422*
X00353Y01424*
X0035Y01425*
G37*
G36*
X01158Y01406D02*
X01157Y01406D01*
X01152Y01403*
X01151Y01402*
X01147*
X01146Y01403*
X01141Y01406*
X0114Y01406*
Y01391*
Y01376*
X01141Y01376*
X01146Y0138*
X01146Y0138*
X01151*
X01152Y0138*
X01157Y01376*
X01158Y01376*
Y01391*
Y01406*
G37*
G36*
X0113Y01406D02*
X01128Y01406D01*
X01123Y01403*
X01123Y01402*
X01117*
X01116Y01403*
X01111Y01406*
X0111Y01406*
Y01391*
Y01376*
X01111Y01376*
X01116Y0138*
X01117Y0138*
X01123*
X01123Y0138*
X01128Y01376*
X0113Y01376*
Y01391*
Y01406*
G37*
G36*
X011D02*
X01098Y01406D01*
X01093Y01403*
X01093Y01402*
X01087*
X01086Y01403*
X01081Y01406*
X0108Y01406*
Y01391*
Y01376*
X01081Y01376*
X01086Y0138*
X01087Y0138*
X01093*
X01093Y0138*
X01098Y01376*
X011Y01376*
Y01391*
Y01406*
G37*
G36*
X01168Y01406D02*
Y01396D01*
X01179*
X01178Y01397*
X01175Y01403*
X0117Y01406*
X01168Y01406*
G37*
G36*
X0107Y01406D02*
X01068Y01406D01*
X01063Y01403*
X0106Y01397*
X01059Y01396*
X0107*
Y01406*
G37*
G36*
X00963Y01404D02*
X00953D01*
X00953Y01403*
X00957Y01398*
X00962Y01394*
X00963Y01394*
Y01404*
G37*
G36*
X00805Y014D02*
X00803Y014D01*
X00798Y01396*
X00795Y01391*
X00794Y0139*
X00805*
Y014*
G37*
G36*
X016Y01395D02*
X01598Y01395D01*
X01593Y01391*
X0159Y01386*
X01589Y01385*
X016*
Y01395*
G37*
G36*
X0154D02*
Y01385D01*
X0155*
X0155Y01386*
X01546Y01391*
X01541Y01395*
X0154Y01395*
G37*
G36*
X0153D02*
X01528Y01395D01*
X01523Y01391*
X0152Y01386*
X01519Y01385*
X0153*
Y01395*
G37*
G36*
X00755D02*
X00753Y01395D01*
X00748Y01391*
X00745Y01386*
X00744Y01385*
X00755*
Y01395*
G37*
G36*
X00548Y014D02*
X00545Y01399D01*
X00541Y01397*
X00539Y01393*
X00538Y0139*
X00539Y01386*
X00541Y01382*
X00545Y0138*
X00548Y01379*
X00552Y0138*
X00556Y01382*
X00558Y01386*
X00559Y0139*
X00558Y01393*
X00556Y01397*
X00552Y01399*
X00548Y014*
G37*
G36*
X01179Y01386D02*
X01168D01*
Y01376*
X0117Y01376*
X01175Y0138*
X01178Y01385*
X01179Y01386*
G37*
G36*
X0107D02*
X01059D01*
X0106Y01385*
X01063Y0138*
X01068Y01376*
X0107Y01376*
Y01386*
G37*
G36*
X00973Y01425D02*
Y01409D01*
Y01394*
X00975Y01394*
X00977Y01396*
X00983Y01395*
X00984Y01393*
X00984Y01393*
X00983Y01393*
X00981Y0139*
X0098Y01386*
X00981Y01382*
X00983Y01379*
X00987Y01377*
X00991Y01376*
X00994Y01377*
X00998Y01379*
X01Y01382*
X01001Y01386*
X01Y0139*
X01Y0139*
X00998Y01394*
X01001Y01396*
X01001Y01397*
X01003Y014*
X01004Y01404*
X01003Y01408*
X01001Y01411*
X00998Y01413*
X00994Y01414*
X0099Y01413*
X00989Y01412*
X00984Y01414*
X00983Y01416*
X0098Y01421*
X00975Y01424*
X00973Y01425*
G37*
G36*
X0187Y014D02*
X01839D01*
X0184Y01398*
X01843Y01393*
X01848Y0139*
X01848Y01389*
X01848Y01385*
X01848Y01384*
X01843Y01381*
X0184Y01376*
X01839Y01375*
X0187*
X0187Y01376*
X01866Y01381*
X01861Y01385*
X01861Y01385*
X01861Y01389*
X01861Y0139*
X01866Y01393*
X0187Y01398*
X0187Y014*
G37*
G36*
X01265Y01391D02*
X01261Y0139D01*
X01257Y01388*
X01255Y01385*
X01254Y01381*
X01255Y01377*
X01257Y01374*
X01261Y01372*
X01265Y01371*
X01268Y01372*
X01272Y01374*
X01274Y01377*
X01275Y01381*
X01274Y01385*
X01272Y01388*
X01268Y0139*
X01265Y01391*
G37*
G36*
X00815Y014D02*
Y01385D01*
X0081*
Y0138*
X00794*
X00795Y01378*
X00792Y01375*
X0079Y01372*
X00789Y0137*
X00789Y01369*
X00784Y01368*
X00784Y01368*
X00783Y01369*
X00782Y01372*
X00778Y01374*
X00775Y01375*
X00776Y0138*
X00775Y01386*
X00771Y01391*
X00766Y01395*
X00765Y01395*
Y0138*
X0076*
Y01375*
X00744*
X00745Y01373*
X00748Y01368*
X00753Y01365*
X0076Y01363*
X00764Y01364*
X00765Y01361*
X00767Y01357*
X00771Y01355*
X00775Y01354*
X00778Y01355*
X00782Y01357*
X00784Y01361*
X00784Y01363*
X00785Y01364*
X00789Y01365*
X0079Y01364*
X0079Y01364*
X00792Y01361*
X00795Y01359*
X00799Y01358*
X00803Y01359*
X00805Y0136*
X00806Y01361*
X00811Y01359*
X00814Y01357*
X00818Y01356*
X00822Y01357*
X00825Y01359*
X00827Y01362*
X00828Y01366*
X00827Y0137*
X00825Y01373*
X00824Y01378*
X00825Y01378*
X00825Y01383*
X00831Y01384*
X00832Y01382*
X00835Y0138*
X00839Y01379*
X00843Y0138*
X00846Y01382*
X00848Y01386*
X00849Y0139*
X00848Y01393*
X00846Y01397*
X00843Y01399*
X00839Y014*
X00835Y01399*
X00832Y01397*
X00829Y01393*
X00829Y01392*
X00827Y01391*
X00824Y01392*
X00821Y01396*
X00816Y014*
X00815Y014*
G37*
G36*
X01786Y01386D02*
X01782Y01385D01*
X01779Y01383*
X01776Y0138*
X01776Y01376*
X01776Y01372*
X01779Y01369*
X01782Y01367*
X01786Y01366*
X0179Y01367*
X01793Y01369*
X01795Y01372*
X01796Y01376*
X01795Y0138*
X01793Y01383*
X0179Y01385*
X01786Y01386*
G37*
G36*
X0058Y01385D02*
X00576Y01384D01*
X00572Y01382*
X0057Y01378*
X00569Y01375*
X0057Y01371*
X00572Y01367*
X00576Y01365*
X0058Y01364*
X00583Y01365*
X00587Y01367*
X00589Y01371*
X0059Y01375*
X00589Y01378*
X00587Y01382*
X00583Y01384*
X0058Y01385*
G37*
G36*
X0155Y01375D02*
X0154D01*
Y01364*
X01541Y01365*
X01546Y01368*
X0155Y01373*
X0155Y01375*
G37*
G36*
X0153D02*
X01519D01*
X0152Y01373*
X01523Y01368*
X01528Y01365*
X0153Y01364*
Y01375*
G37*
G36*
X0116Y0136D02*
X01158Y0136D01*
X01153Y01356*
X01153Y01355*
X01147*
X01146Y01356*
X01141Y0136*
X0114Y0136*
Y01345*
Y01329*
X01141Y0133*
X01146Y01333*
X01147Y01334*
X01153*
X01153Y01333*
X01158Y0133*
X0116Y01329*
Y01345*
Y0136*
G37*
G36*
X0113D02*
X01128Y0136D01*
X01123Y01356*
X01123Y01355*
X01117*
X01116Y01356*
X01111Y0136*
X0111Y0136*
Y01345*
Y01329*
X01111Y0133*
X01116Y01333*
X01117Y01334*
X01123*
X01123Y01333*
X01128Y0133*
X0113Y01329*
Y01345*
Y0136*
G37*
G36*
X00974Y01373D02*
X0097Y01372D01*
X00967Y0137*
X00965Y01367*
X00964Y01363*
X00965Y01359*
X00967Y01356*
X0097Y01354*
X00974Y01353*
X00978Y01354*
X00981Y01356*
X00984Y01359*
Y01359*
X00984Y0136*
X00985Y01363*
X00984Y01366*
X00984Y01367*
Y01367*
X00981Y0137*
X00978Y01372*
X00974Y01373*
G37*
G36*
X011Y0136D02*
X01098Y0136D01*
X01093Y01356*
X01091Y01354*
X01086Y01353*
X01085Y01353*
X01081Y01356*
X0108Y01356*
Y01341*
Y01326*
X01081Y01326*
X01086Y0133*
X01088Y01332*
X01093Y01333*
X01094Y01333*
X01098Y0133*
X011Y01329*
Y01345*
Y0136*
G37*
G36*
X0117D02*
Y0135D01*
X0118*
X0118Y01351*
X01176Y01356*
X01171Y0136*
X0117Y0136*
G37*
G36*
X0107Y01356D02*
X01068Y01356D01*
X01063Y01353*
X0106Y01347*
X01059Y01346*
X0107*
Y01356*
G37*
G36*
X01915Y01355D02*
Y01345D01*
X01925*
X01925Y01346*
X01921Y01351*
X01916Y01355*
X01915Y01355*
G37*
G36*
X01905D02*
X01903Y01355D01*
X01898Y01351*
X01895Y01346*
X01894Y01345*
X01905*
Y01355*
G37*
G36*
X01445Y01365D02*
X01441Y01364D01*
X01437Y01362*
X01435Y01358*
X01434Y01355*
X01435Y01351*
X01437Y01347*
X01441Y01345*
X01445Y01344*
X01448Y01345*
X01452Y01347*
X01454Y01351*
X01455Y01355*
X01454Y01358*
X01452Y01362*
X01448Y01364*
X01445Y01365*
G37*
G36*
X01325Y0143D02*
X01321Y01429D01*
X01317Y01427*
X01315Y01423*
X01314Y0142*
X01315Y01416*
X01317Y01412*
X0132Y01411*
X01321Y01408*
X01322Y01405*
X0132Y01399*
X01319Y01392*
X0132Y01385*
X01322Y01378*
X01327Y01372*
X01333Y01368*
X01336Y01367*
X01336Y01365*
X01337Y01361*
X01335Y01358*
X01334Y01355*
X01335Y01351*
X01337Y01347*
X01341Y01345*
X01345Y01344*
X01348Y01345*
X01352Y01347*
X01354Y01351*
X01355Y01355*
X01354Y01358*
X01353Y0136*
X01353Y01363*
X01354Y01365*
X01355Y01366*
X01361Y01368*
X01366Y01372*
X01371Y01378*
X01374Y01385*
X01374Y01392*
X01374Y01399*
X01371Y01406*
X01366Y01412*
X01361Y01416*
X01354Y01419*
X01347Y0142*
X01339Y01419*
X01339Y01419*
X01334Y01422*
X01334Y01423*
X01332Y01427*
X01328Y01429*
X01325Y0143*
G37*
G36*
X0187Y01365D02*
X01839D01*
X0184Y01363*
X01843Y01358*
X01848Y01355*
X0185Y01354*
X0185Y01352*
X0185Y01348*
X01853Y01345*
X01856Y01343*
X0186Y01342*
X01864Y01343*
X01867Y01345*
X01869Y01348*
X0187Y01352*
X01869Y01356*
X01867Y01359*
X0187Y01363*
X0187Y01365*
G37*
G36*
X0044Y0136D02*
X00436Y01359D01*
X00432Y01357*
X0043Y01353*
X00429Y0135*
X0043Y01346*
X00432Y01342*
X00436Y0134*
X0044Y01339*
X00443Y0134*
X00447Y01342*
X00449Y01346*
X0045Y0135*
X00449Y01353*
X00447Y01357*
X00443Y01359*
X0044Y0136*
G37*
G36*
X00665Y01355D02*
X00661Y01354D01*
X00657Y01352*
X00655Y01348*
X00654Y01345*
X00655Y01341*
X00657Y01337*
X00661Y01335*
X00665Y01334*
X00668Y01335*
X00672Y01337*
X00674Y01341*
X00675Y01345*
X00674Y01348*
X00672Y01352*
X00668Y01354*
X00665Y01355*
G37*
G36*
X0089Y0135D02*
X00886Y01349D01*
X00882Y01347*
X0088Y01343*
X00879Y0134*
X0088Y01336*
X00882Y01332*
X00886Y0133*
X0089Y01329*
X00893Y0133*
X00897Y01332*
X00899Y01336*
X009Y0134*
X00899Y01343*
X00897Y01347*
X00893Y01349*
X0089Y0135*
G37*
G36*
X00735D02*
X00731Y01349D01*
X00727Y01347*
X00725Y01343*
X00724Y0134*
X00725Y01336*
X00727Y01332*
X00731Y0133*
X00735Y01329*
X00738Y0133*
X00742Y01332*
X00744Y01336*
X00745Y0134*
X00744Y01343*
X00742Y01347*
X00738Y01349*
X00735Y0135*
G37*
G36*
X0118Y0134D02*
X0117D01*
Y01329*
X01171Y0133*
X01176Y01333*
X0118Y01338*
X0118Y0134*
G37*
G36*
X0107Y01336D02*
X01059D01*
X0106Y01335*
X01063Y0133*
X01068Y01326*
X0107Y01326*
Y01336*
G37*
G36*
X01475Y01345D02*
X01471Y01344D01*
X01467Y01342*
X01465Y01338*
X01464Y01335*
X01465Y01331*
X01467Y01327*
X01471Y01325*
X01475Y01324*
X01478Y01325*
X01482Y01327*
X01484Y01331*
X01485Y01335*
X01484Y01338*
X01482Y01342*
X01478Y01344*
X01475Y01345*
G37*
G36*
X00855D02*
X00851Y01344D01*
X00847Y01342*
X00845Y01338*
X00844Y01335*
X00845Y01331*
X00847Y01327*
X00851Y01325*
X00855Y01324*
X00858Y01325*
X00862Y01327*
X00864Y01331*
X00865Y01335*
X00864Y01338*
X00862Y01342*
X00858Y01344*
X00855Y01345*
G37*
G36*
X01925Y01335D02*
X01915D01*
Y01324*
X01916Y01325*
X01921Y01328*
X01925Y01333*
X01925Y01335*
G37*
G36*
X01905D02*
X01894D01*
X01895Y01333*
X01898Y01328*
X01903Y01325*
X01905Y01324*
Y01335*
G37*
G36*
X00602Y01341D02*
X00598Y0134D01*
X00595Y01338*
X00593Y01335*
X00592Y01331*
X00593Y01327*
X00595Y01324*
X00598Y01321*
X00602Y01321*
X00606Y01321*
X00609Y01324*
X00611Y01327*
X00612Y01331*
X00611Y01335*
X00609Y01338*
X00606Y0134*
X00602Y01341*
G37*
G36*
X00685Y01326D02*
Y01316D01*
X00696*
X00695Y01317*
X00692Y01322*
X00686Y01326*
X00685Y01326*
G37*
G36*
X00675D02*
X00674Y01326D01*
X00669Y01322*
X00665Y01317*
X00665Y01316*
X00675*
Y01326*
G37*
G36*
X0081Y01325D02*
Y01315D01*
X0082*
X0082Y01316*
X00816Y01321*
X00811Y01325*
X0081Y01325*
G37*
G36*
X008D02*
X00798Y01325D01*
X00793Y01321*
X0079Y01316*
X00789Y01315*
X008*
Y01325*
G37*
G36*
X01397Y0137D02*
X01389Y01369D01*
X01383Y01366*
X01377Y01362*
X01372Y01356*
X0137Y01349*
X01369Y01342*
X0137Y01335*
X01372Y01328*
X01377Y01322*
X01383Y01318*
X01389Y01315*
X01397Y01314*
X01404Y01315*
X01411Y01318*
X01416Y01322*
X01421Y01328*
X01424Y01335*
X01424Y01342*
X01424Y01349*
X01421Y01356*
X01416Y01362*
X01411Y01366*
X01404Y01369*
X01397Y0137*
G37*
G36*
X0123Y01405D02*
X01226Y01404D01*
X01222Y01402*
X0122Y01398*
X01219Y01395*
X0122Y01391*
X01222Y01387*
X01222Y01382*
X0122Y01378*
X01219Y01375*
X0122Y01371*
X01222Y01367*
X01226Y01365*
X01227Y01365*
X01227Y01361*
X01227Y0136*
X01224Y01358*
X01222Y01355*
X01221Y01351*
X01222Y01347*
X01224Y01344*
X01227Y01341*
X01231Y01341*
X01235Y01341*
X01238Y01344*
X0124Y01347*
X01241Y0135*
X01242Y01353*
X01247Y01354*
X01251Y01351*
X01252Y01349*
X01254Y01345*
X01257Y01343*
X01261Y01342*
X01264Y01343*
X01265Y01343*
X01267Y01341*
X01269Y0134*
X0127Y01335*
X01272Y01328*
X01277Y01322*
X01283Y01318*
X01289Y01315*
X01297Y01314*
X01304Y01315*
X01311Y01318*
X01316Y01322*
X01321Y01328*
X01324Y01335*
X01324Y01342*
X01324Y01349*
X01321Y01356*
X01316Y01362*
X01311Y01366*
X01304Y01369*
X01297Y0137*
X01289Y01369*
X01283Y01366*
X01277Y01362*
X01275Y01359*
X01269Y01359*
X01268Y0136*
X01265Y01362*
X01261Y01363*
X01258Y01362*
X01255Y01364*
X01253Y01365*
X01253Y01368*
X0125Y01372*
X01247Y01374*
X01243Y01375*
X01239Y01378*
X01237Y01382*
Y01387*
X01239Y01391*
X0124Y01395*
X01239Y01398*
X01237Y01402*
X01233Y01404*
X0123Y01405*
G37*
G36*
X0185Y0133D02*
X01846Y01329D01*
X01842Y01327*
X0184Y01323*
X01839Y0132*
X0184Y01316*
X01842Y01312*
X01846Y0131*
X0185Y01309*
X01853Y0131*
X01857Y01312*
X01859Y01316*
X0186Y0132*
X01859Y01323*
X01857Y01327*
X01853Y01329*
X0185Y0133*
G37*
G36*
X01158Y01311D02*
X01157Y01311D01*
X01152Y01308*
X01151Y01307*
X01147*
X01146Y01308*
X01141Y01311*
X0114Y01311*
Y01296*
Y01281*
X01141Y01281*
X01146Y01285*
X01147Y01285*
X01151*
X01152Y01285*
X01157Y01281*
X01158Y01281*
Y01296*
Y01311*
G37*
G36*
X0113Y01311D02*
X01128Y01311D01*
X01123Y01308*
X01123Y01307*
X01117*
X01116Y01308*
X01111Y01311*
X0111Y01311*
Y01296*
Y01281*
X01111Y01281*
X01116Y01285*
X01117Y01285*
X01123*
X01123Y01285*
X01128Y01281*
X0113Y01281*
Y01296*
Y01311*
G37*
G36*
X011D02*
X01098Y01311D01*
X01093Y01308*
X01093Y01307*
X01087*
X01086Y01308*
X01081Y01311*
X0108Y01311*
Y01296*
Y01281*
X01081Y01281*
X01086Y01285*
X01087Y01285*
X01093*
X01093Y01285*
X01098Y01281*
X011Y01281*
Y01296*
Y01311*
G37*
G36*
X01743Y01333D02*
Y01305D01*
X01771*
X01771Y01308*
X01767Y01317*
X01762Y01324*
X01755Y01329*
X01747Y01333*
X01743Y01333*
G37*
G36*
X00475Y01315D02*
Y01305D01*
X00485*
X00485Y01306*
X00481Y01311*
X00476Y01315*
X00475Y01315*
G37*
G36*
X00465D02*
X00463Y01315D01*
X00458Y01311*
X00455Y01306*
X00454Y01305*
X00465*
Y01315*
G37*
G36*
X0036D02*
Y01305D01*
X0037*
X0037Y01306*
X00366Y01311*
X00361Y01315*
X0036Y01315*
G37*
G36*
X0035D02*
X00348Y01315D01*
X00343Y01311*
X0034Y01306*
X00339Y01305*
X0035*
Y01315*
G37*
G36*
X0123Y01325D02*
X01226Y01324D01*
X01222Y01322*
X0122Y01318*
X01219Y01315*
X0122Y01311*
X01222Y01307*
X01226Y01305*
X0123Y01304*
X01233Y01305*
X01237Y01307*
X01239Y01311*
X0124Y01315*
X01239Y01318*
X01237Y01322*
X01233Y01324*
X0123Y01325*
G37*
G36*
X0044D02*
X00436Y01324D01*
X00432Y01322*
X0043Y01318*
X00429Y01315*
X0043Y01311*
X00432Y01307*
X00436Y01305*
X0044Y01304*
X00443Y01305*
X00447Y01307*
X00449Y01311*
X0045Y01315*
X00449Y01318*
X00447Y01322*
X00443Y01324*
X0044Y01325*
G37*
G36*
X01168Y01311D02*
Y01301D01*
X01179*
X01178Y01302*
X01175Y01308*
X0117Y01311*
X01168Y01311*
G37*
G36*
X0107Y01311D02*
X01068Y01311D01*
X01063Y01308*
X0106Y01302*
X01059Y01301*
X0107*
Y01311*
G37*
G36*
X0074Y0132D02*
X00736Y01319D01*
X00732Y01317*
X0073Y01313*
X00729Y0131*
X0073Y01306*
X00732Y01302*
X00736Y013*
X0074Y01299*
X00743Y013*
X00747Y01302*
X00749Y01306*
X0075Y0131*
X00749Y01313*
X00747Y01317*
X00743Y01319*
X0074Y0132*
G37*
G36*
X01352Y01325D02*
Y01297D01*
X0138*
X01379Y01301*
X01376Y01309*
X01371Y01316*
X01364Y01321*
X01355Y01325*
X01352Y01325*
G37*
G36*
X01342D02*
X01338Y01325D01*
X0133Y01321*
X01323Y01316*
X01317Y01309*
X01314Y01301*
X01313Y01297*
X01342*
Y01325*
G37*
G36*
X00696Y01306D02*
X00685D01*
Y01295*
X00686Y01296*
X00692Y01299*
X00695Y01304*
X00696Y01306*
G37*
G36*
X00675D02*
X00665D01*
X00665Y01304*
X00669Y01299*
X00674Y01296*
X00675Y01295*
Y01306*
G37*
G36*
X0082Y01305D02*
X0081D01*
Y01294*
X00811Y01295*
X00816Y01298*
X0082Y01303*
X0082Y01305*
G37*
G36*
X008D02*
X00789D01*
X0079Y01303*
X00793Y01298*
X00798Y01295*
X008Y01294*
Y01305*
G37*
G36*
X00425Y01301D02*
X00418Y01299D01*
X00413Y01296*
X0041Y01291*
X00409Y01289*
X00405Y0129*
X00404Y0129*
X00404Y01293*
X00402Y01297*
X00398Y01299*
X00395Y013*
X00391Y01299*
X00387Y01297*
X00385Y01293*
X00384Y0129*
X00385Y01286*
X00387Y01282*
X00391Y0128*
X00395Y01279*
X00398Y0128*
X00402Y01282*
X00403Y01285*
X00404Y01286*
X00408Y01285*
X0041Y01278*
X00413Y01273*
X00418Y0127*
X00425Y01268*
X00431Y0127*
X00436Y01273*
X00439Y01278*
X00441Y01285*
X00439Y01291*
X00436Y01296*
X00431Y01299*
X00425Y01301*
G37*
G36*
X0127Y01305D02*
X01266Y01304D01*
X01262Y01302*
X0126Y01298*
X01259Y01295*
X0126Y01291*
X01262Y01287*
X01266Y01285*
X0127Y01284*
X01273Y01285*
X01277Y01287*
X01279Y01291*
X0128Y01295*
X01279Y01298*
X01277Y01302*
X01273Y01304*
X0127Y01305*
G37*
G36*
X00485Y01295D02*
X00475D01*
Y01284*
X00476Y01285*
X00481Y01288*
X00485Y01293*
X00485Y01295*
G37*
G36*
X00465D02*
X00454D01*
X00455Y01293*
X00458Y01288*
X00463Y01285*
X00465Y01284*
Y01295*
G37*
G36*
X01179Y01291D02*
X01168D01*
Y01281*
X0117Y01281*
X01175Y01285*
X01178Y0129*
X01179Y01291*
G37*
G36*
X0107D02*
X01059D01*
X0106Y0129*
X01063Y01285*
X01068Y01281*
X0107Y01281*
Y01291*
G37*
G36*
X00598Y013D02*
X00594Y01299D01*
X00591Y01297*
X00589Y01294*
X00588Y0129*
X00589Y01286*
X00591Y01283*
X00594Y01281*
X00598Y0128*
X00602Y01281*
X00605Y01283*
X00608Y01286*
X00608Y0129*
X00608Y01294*
X00605Y01297*
X00602Y01299*
X00598Y013*
G37*
G36*
X01795Y0129D02*
X01793Y0129D01*
X01788Y01286*
X01785Y01281*
X01784Y0128*
X01795*
Y0129*
G37*
G36*
X0057Y01285D02*
Y01275D01*
X0058*
X0058Y01276*
X00576Y01281*
X00571Y01285*
X0057Y01285*
G37*
G36*
X0056D02*
X00558Y01285D01*
X00553Y01281*
X0055Y01276*
X00549Y01275*
X0056*
Y01285*
G37*
G36*
X01771Y01295D02*
X01743D01*
Y01266*
X01747Y01266*
X01755Y0127*
X01762Y01275*
X01767Y01282*
X01771Y01291*
X01771Y01295*
G37*
G36*
X015Y01345D02*
X01496Y01344D01*
X01492Y01342*
X0149Y01338*
X01489Y01335*
X0149Y01331*
X01491Y01329*
X0149Y01324*
X0149Y01323*
X01487Y01322*
X01481Y01318*
X01477Y01312*
X01474Y01305*
X01473Y01298*
X01474Y0129*
X01477Y01283*
X01481Y01278*
X01487Y01273*
X01494Y0127*
X01501Y01269*
X01509Y0127*
X01516Y01273*
X01521Y01278*
X01526Y01283*
X01529Y0129*
X01529Y0129*
X01534Y01291*
X01536Y01285*
X01541Y0128*
X01546Y01275*
X01553Y01272*
X0156Y01271*
X01568Y01272*
X01575Y01275*
X0158Y0128*
X01585Y01285*
X01587Y01291*
X0159Y01292*
X01593Y01291*
X01595Y01285*
X016Y0128*
X01605Y01275*
X01612Y01272*
X0162Y01271*
X01627Y01272*
X01634Y01275*
X0164Y0128*
X01644Y01285*
X01646Y01291*
X01649Y01292*
X01652Y01291*
X01654Y01285*
X01659Y0128*
X01664Y01275*
X01671Y01272*
X01679Y01271*
X01686Y01272*
X01693Y01275*
X01699Y0128*
X01702Y01284*
X01707Y01284*
X01708Y01282*
X01713Y01275*
X01721Y0127*
X01729Y01266*
X01733Y01266*
Y013*
Y01333*
X01729Y01333*
X01721Y01329*
X01713Y01324*
X01708Y01317*
X01707Y01315*
X01702Y01315*
X01699Y0132*
X01693Y01324*
X01686Y01327*
X01679Y01328*
X01671Y01327*
X01664Y01324*
X01659Y0132*
X01654Y01314*
X01652Y01308*
X01649Y01307*
X01646Y01308*
X01644Y01314*
X0164Y0132*
X01634Y01324*
X01627Y01327*
X01622Y01328*
X0162Y01333*
X01621Y01333*
X01625Y01338*
X01625Y0134*
X01594*
X01595Y01338*
X01598Y01333*
X01603Y0133*
X01605Y01329*
X01606Y01324*
X01605*
X016Y0132*
X01595Y01314*
X01593Y01308*
X0159Y01307*
X01587Y01308*
X01585Y01314*
X0158Y0132*
X01575Y01324*
X01568Y01327*
X0156Y01328*
X01553Y01327*
X01546Y01324*
X01541Y0132*
X01536Y01314*
X01533Y01307*
X01533Y01307*
X01528Y01306*
X01526Y01312*
X01521Y01318*
X01516Y01322*
X0151Y01324*
X01508Y01328*
X01508Y0133*
X01509Y01331*
X0151Y01335*
X01509Y01338*
X01507Y01342*
X01503Y01344*
X015Y01345*
G37*
G36*
X0035Y01296D02*
X00344Y01295D01*
X00339*
X0034Y01293*
X0034Y01292*
X00338Y01291*
X00335Y01286*
X00333Y0128*
X00335Y01273*
X00338Y01268*
X00343Y01265*
X0035Y01263*
X00356Y01265*
X00361Y01268*
X00364Y01273*
X00366Y0128*
X00364Y01286*
X00365Y01287*
X00366Y01288*
X0037Y01293*
X0037Y01295*
X00355*
X00355Y01295*
X0035Y01296*
G37*
G36*
X01795Y0127D02*
X01784D01*
X01785Y01268*
X01788Y01263*
X01793Y0126*
X01795Y01259*
Y0127*
G37*
G36*
X0138Y01287D02*
X01352D01*
Y01259*
X01355Y01259*
X01364Y01263*
X01371Y01268*
X01376Y01275*
X01379Y01283*
X0138Y01287*
G37*
G36*
X01342D02*
X01313D01*
X01314Y01283*
X01317Y01275*
X01323Y01268*
X0133Y01263*
X01338Y01259*
X01342Y01259*
Y01287*
G37*
G36*
X0127Y01275D02*
X01266Y01274D01*
X01262Y01272*
X0126Y01268*
X01259Y01265*
X0126Y01261*
X01262Y01257*
X01266Y01255*
X0127Y01254*
X01273Y01255*
X01277Y01257*
X01279Y01261*
X0128Y01265*
X01279Y01268*
X01277Y01272*
X01273Y01274*
X0127Y01275*
G37*
G36*
X0058Y01265D02*
X0057D01*
Y01254*
X00571Y01255*
X00576Y01258*
X0058Y01263*
X0058Y01265*
G37*
G36*
X0056D02*
X00549D01*
X0055Y01263*
X00553Y01258*
X00558Y01255*
X0056Y01254*
Y01265*
G37*
G36*
X01979Y01284D02*
X01945D01*
Y0125*
X01979*
Y01284*
G37*
G36*
X01935D02*
X019D01*
Y0125*
X01935*
Y01284*
G37*
G36*
X00925Y0125D02*
X00921Y01249D01*
X00917Y01247*
X00912*
X00908Y01249*
X00905Y0125*
X00901Y01249*
X00897Y01247*
X00895Y01243*
X00894Y0124*
X00895Y01236*
X00897Y01232*
X00901Y0123*
X00905Y01229*
X00908Y0123*
X00912Y01232*
X00917*
X00921Y0123*
X00925Y01229*
X00928Y0123*
X00932Y01232*
X00934Y01236*
X00935Y0124*
X00934Y01243*
X00932Y01247*
X00928Y01249*
X00925Y0125*
G37*
G36*
X01Y01265D02*
X00996Y01264D01*
X00992Y01262*
X0099Y01258*
X00989Y01255*
X0099Y01251*
X00992Y01247*
X00996Y01245*
X01Y01244*
X01003Y01245*
X01007Y01247*
X01009Y01251*
X0101Y01255*
X01009Y01258*
X01007Y01262*
X01003Y01264*
X01Y01265*
G37*
G36*
X0147Y01263D02*
X01466Y01262D01*
X01462Y0126*
X0146Y01257*
X01459Y01253*
X0146Y01249*
X01462Y01246*
X01466Y01244*
X0147Y01243*
X01473Y01244*
X01477Y01246*
X01479Y01249*
X0148Y01253*
X01479Y01257*
X01477Y0126*
X01473Y01262*
X0147Y01263*
G37*
G36*
X00295Y0125D02*
Y0124D01*
X00305*
X00305Y01241*
X00301Y01246*
X00296Y0125*
X00295Y0125*
G37*
G36*
X00285D02*
X00283Y0125D01*
X00278Y01246*
X00275Y01241*
X00274Y0124*
X00285*
Y0125*
G37*
G36*
X01205Y01255D02*
X01201Y01254D01*
X01197Y01252*
X01195Y01248*
X01194Y01245*
X01195Y01241*
X01197Y01237*
X01201Y01235*
X01205Y01234*
X01208Y01235*
X01212Y01237*
X01214Y01241*
X01215Y01245*
X01214Y01248*
X01212Y01252*
X01208Y01254*
X01205Y01255*
G37*
G36*
X00585D02*
X00581Y01254D01*
X00577Y01252*
X00575Y01248*
X00574Y01245*
X00575Y01241*
X00577Y01237*
X00581Y01235*
X00585Y01234*
X00588Y01235*
X00592Y01237*
X00594Y01241*
X00595Y01245*
X00594Y01248*
X00592Y01252*
X00588Y01254*
X00585Y01255*
G37*
G36*
X01255Y0125D02*
X01251Y01249D01*
X01247Y01247*
X01245Y01243*
X01244Y0124*
X01245Y01236*
X01247Y01232*
X01251Y0123*
X01255Y01229*
X01258Y0123*
X01262Y01232*
X01264Y01236*
X01265Y0124*
X01264Y01243*
X01262Y01247*
X01258Y01249*
X01255Y0125*
G37*
G36*
X00385Y01235D02*
Y01225D01*
X00395*
X00395Y01226*
X00391Y01231*
X00386Y01235*
X00385Y01235*
G37*
G36*
X00375D02*
X00373Y01235D01*
X00368Y01231*
X00365Y01226*
X00364Y01225*
X00375*
Y01235*
G37*
G36*
X00485Y0125D02*
X00481Y01249D01*
X00477Y01247*
X00475Y01243*
X00474Y0124*
X00475Y01236*
X00477Y01232*
X00481Y0123*
X00485Y01229*
X00488Y0123*
X0049Y01231*
X00494Y01231*
X00496Y0123*
X00497Y01227*
X00501Y01225*
X00505Y01224*
X00508Y01225*
X00512Y01227*
X00514Y01231*
X00515Y01235*
X00514Y01238*
X00512Y01242*
X00508Y01244*
X00505Y01245*
X00501Y01244*
X00499Y01243*
X00495Y01243*
X00493Y01244*
X00492Y01247*
X00488Y01249*
X00485Y0125*
G37*
G36*
X00545Y0124D02*
X00541Y01239D01*
X00537Y01237*
X00535Y01233*
X00534Y0123*
X00535Y01226*
X00537Y01222*
X00541Y0122*
X00545Y01219*
X00548Y0122*
X00552Y01222*
X00554Y01226*
X00555Y0123*
X00554Y01233*
X00552Y01237*
X00548Y01239*
X00545Y0124*
G37*
G36*
X00305Y0123D02*
X00295D01*
Y01219*
X00296Y0122*
X00301Y01223*
X00305Y01228*
X00305Y0123*
G37*
G36*
X00285D02*
X00274D01*
X00275Y01228*
X00278Y01223*
X00283Y0122*
X00285Y01219*
Y0123*
G37*
G36*
X0109Y01236D02*
X01086Y01235D01*
X01082Y01233*
X0108Y01229*
X01079Y01225*
X0108Y01222*
X01082Y01218*
X01086Y01216*
X0109Y01215*
X01093Y01216*
X01097Y01218*
X01099Y01222*
X011Y01225*
X01099Y01229*
X01097Y01233*
X01093Y01235*
X0109Y01236*
G37*
G36*
X0117Y01235D02*
X01166Y01234D01*
X01162Y01232*
X0116Y01228*
X01159Y01225*
X0116Y01221*
X01162Y01217*
X01166Y01215*
X0117Y01214*
X01173Y01215*
X01177Y01217*
X01179Y01221*
X0118Y01225*
X01179Y01228*
X01177Y01232*
X01173Y01234*
X0117Y01235*
G37*
G36*
X0113D02*
X01126Y01234D01*
X01122Y01232*
X0112Y01228*
X01119Y01225*
X0112Y01221*
X01122Y01217*
X01126Y01215*
X0113Y01214*
X01133Y01215*
X01137Y01217*
X01139Y01221*
X0114Y01225*
X01139Y01228*
X01137Y01232*
X01133Y01234*
X0113Y01235*
G37*
G36*
X00854Y01276D02*
X00845Y01275D01*
X00838Y01272*
X00831Y01267*
X00826Y0126*
X00823Y01253*
X00822Y01245*
X00823Y01236*
X00826Y01229*
X00831Y01222*
X00838Y01217*
X00845Y01214*
X00854Y01213*
X00862Y01214*
X0087Y01217*
X00876Y01222*
X00881Y01229*
X00884Y01236*
X00885Y01245*
X00884Y01253*
X00881Y0126*
X00876Y01267*
X0087Y01272*
X00862Y01275*
X00854Y01276*
G37*
G36*
X00735D02*
X00727Y01275D01*
X0072Y01272*
X00713Y01267*
X00708Y0126*
X00705Y01253*
X00704Y01245*
X00705Y01236*
X00708Y01229*
X00713Y01222*
X0072Y01217*
X00727Y01214*
X00735Y01213*
X00744Y01214*
X00751Y01217*
X00758Y01222*
X00763Y01229*
X00766Y01236*
X00767Y01245*
X00766Y01253*
X00763Y0126*
X00758Y01267*
X00751Y01272*
X00744Y01275*
X00735Y01276*
G37*
G36*
X01805Y0129D02*
Y01275D01*
Y01259*
X01808Y01255*
X01808Y01255*
X01807Y01253*
X01806Y01245*
X01807Y01236*
X0181Y01228*
X01816Y01221*
X01823Y01215*
X01831Y01212*
X0184Y01211*
X01848Y01212*
X01856Y01215*
X01863Y01221*
X01869Y01228*
X01872Y01236*
X01873Y01245*
X01872Y01253*
X01869Y01261*
X01863Y01268*
X01856Y01274*
X01848Y01277*
X0184Y01278*
X01831Y01277*
X01823Y01274*
X0182Y01272*
X01816Y01275*
X01815Y01281*
X01811Y01286*
X01806Y0129*
X01805Y0129*
G37*
G36*
X01979Y0124D02*
X01945D01*
Y01205*
X01979*
Y0124*
G37*
G36*
X01935D02*
X019D01*
Y01205*
X01935*
Y0124*
G37*
G36*
X0172Y01225D02*
X01716Y01224D01*
X01712Y01222*
X0171Y01218*
X01709Y01215*
X0171Y01211*
X01712Y01207*
X01716Y01205*
X0172Y01204*
X01723Y01205*
X01727Y01207*
X01729Y01211*
X0173Y01215*
X01729Y01218*
X01727Y01222*
X01723Y01224*
X0172Y01225*
G37*
G36*
X00445D02*
X00441Y01224D01*
X00437Y01222*
X00435Y01218*
X00434Y01215*
X00435Y01211*
X00437Y01207*
X00441Y01205*
X00445Y01204*
X00448Y01205*
X00452Y01207*
X00454Y01211*
X00455Y01215*
X00454Y01218*
X00452Y01222*
X00448Y01224*
X00445Y01225*
G37*
G36*
X00395Y01215D02*
X00385D01*
Y01204*
X00386Y01205*
X00391Y01208*
X00395Y01213*
X00395Y01215*
G37*
G36*
X00375D02*
X00364D01*
X00365Y01213*
X00368Y01208*
X00373Y01205*
X00375Y01204*
Y01215*
G37*
G36*
X00417Y01224D02*
X00414Y01223D01*
X0041Y01221*
X00408Y01217*
X00407Y01213*
X00408Y0121*
X0041Y01206*
X00414Y01204*
X00417Y01203*
X00421Y01204*
X00425Y01206*
X00427Y0121*
X00428Y01213*
X00427Y01217*
X00425Y01221*
X00421Y01223*
X00417Y01224*
G37*
G36*
X00795Y0122D02*
X00791Y01219D01*
X00787Y01217*
X00785Y01213*
X00784Y0121*
X00785Y01206*
X00787Y01202*
X00791Y012*
X00795Y01199*
X00798Y012*
X00802Y01202*
X00804Y01206*
X00805Y0121*
X00804Y01213*
X00802Y01217*
X00798Y01219*
X00795Y0122*
G37*
G36*
X01305Y01215D02*
X01301Y01214D01*
X01297Y01212*
X01295Y01208*
X01294Y01205*
X01295Y01201*
X01297Y01197*
X01301Y01195*
X01305Y01194*
X01308Y01195*
X01312Y01197*
X01314Y01201*
X01315Y01205*
X01314Y01208*
X01312Y01212*
X01308Y01214*
X01305Y01215*
G37*
%LNpower_pcb-3*%
%LPD*%
G54D16*
X00974Y01363D02*
X00978D01*
G54D67*
X01738Y013D03*
G54D70*
X01347Y01292D03*
G54D72*
X0194Y01245D03*
G54D73*
X018Y01275D03*
X0191Y0134D03*
X01855Y01405D03*
X0161Y01345D03*
X0128Y0144D03*
X00565Y0127D03*
X01605Y0138D03*
X01555Y01485D03*
X01435D03*
X0169Y0149D03*
X00986Y01443D03*
X00968Y01409D03*
X0081Y01385D03*
X00635Y01485D03*
X01535Y0138D03*
X0038Y0122D03*
X00805Y0131D03*
X0076Y0138D03*
X01105Y01345D03*
X01165D03*
X01135D03*
Y01391D03*
X01105D03*
X01075D03*
X01163D03*
X01075Y01341D03*
X01135Y01296D03*
X01105D03*
X01075D03*
X01163D03*
X01625Y0149D03*
X0068Y01311D03*
X01855Y0137D03*
X0197Y0145D03*
X00974Y01363D03*
X0039Y01455D03*
X0026D03*
X00355Y013D03*
X0029Y01235D03*
X0047Y013D03*
M02*