%FSTAX23Y23*%
%MOIN*%
%SFA1B1*%

%IPPOS*%
%ADD13C,0.010000*%
%ADD14C,0.008000*%
%ADD16C,0.006000*%
%ADD18R,0.033500X0.013800*%
%ADD26R,0.023600X0.024400*%
%ADD33R,0.021700X0.021700*%
%ADD34R,0.021700X0.021700*%
%ADD62C,0.004000*%
%ADD65C,0.014000*%
%ADD66C,0.016000*%
%ADD67C,0.048000*%
%ADD68C,0.019500*%
%ADD69C,0.055100*%
%ADD70C,0.047200*%
%ADD71C,0.059100*%
%ADD72R,0.059100X0.059100*%
%ADD73C,0.011800*%
%ADD74C,0.015700*%
%ADD75C,0.023600*%
%ADD76R,0.031500X0.011800*%
%ADD77R,0.068900X0.061000*%
%ADD78R,0.033500X0.009800*%
%ADD79R,0.009800X0.033500*%
%ADD80R,0.141700X0.141700*%
%ADD81R,0.027600X0.029500*%
%ADD82R,0.058100X0.017700*%
%ADD83R,0.024400X0.023600*%
%ADD84R,0.011800X0.031500*%
%ADD85R,0.009800X0.031500*%
%ADD86R,0.068900X0.070900*%
%ADD87R,0.031500X0.031500*%
%ADD88C,0.020000*%
%LNpower_pcb-1*%
%LPD*%
G54D13*
X01264Y01402D02*
X0127Y01397D01*
X01262Y01384D02*
Y01402D01*
X01243D02*
X01262D01*
X01765Y01472D02*
X01768Y0147D01*
X01765Y01473D02*
X01765Y01472D01*
X0177*
X0173D02*
X01765D01*
X0173Y01473D02*
X0173Y01472D01*
X01894Y01365D02*
X01906D01*
X01917*
X01935Y0141D02*
X01945D01*
X01888D02*
X01933D01*
X0185Y01422D02*
X0185D01*
X01855Y01405D02*
Y01417D01*
X01888Y01413D02*
Y0143D01*
X0185Y01422D02*
X01855Y01417D01*
X01733Y0143D02*
X01805D01*
X01284Y01442D02*
X01295Y01453D01*
X0128Y01442D02*
X01284D01*
X01118Y01346D02*
X01187Y01414D01*
X01089Y01375D02*
X01118Y01346D01*
X01049Y01277D02*
X01118Y01346D01*
X01262Y01402D02*
Y01405D01*
Y01402D02*
X01264D01*
X01238Y01407D02*
X01243Y01402D01*
X01238Y01407D02*
D01*
X01236Y01409D02*
X01238Y01407D01*
X01231Y01409D02*
X01236D01*
X01226Y01414D02*
X01231Y01409D01*
X01279Y0144D02*
X0128Y0144D01*
X01262Y0144D02*
X01279D01*
X0126Y01442D02*
X01262Y0144D01*
X0127Y01397D02*
X01295D01*
X00991Y01386D02*
X00991Y01386D01*
X01003Y01361D02*
X01008Y01355D01*
X01001Y01361D02*
X01003D01*
X00996Y01367D02*
X01001Y01361D01*
X00996Y01367D02*
Y01368D01*
X00991Y01373D02*
X00996Y01368D01*
X01008Y01355D02*
X01022D01*
X00809Y01382D02*
X0081Y01382D01*
Y01385*
X00325Y01441D02*
X00328Y01438D01*
X00313Y01453D02*
X00325Y01441D01*
X00991Y01373D02*
Y01386D01*
X00998Y01256D02*
X01Y01255D01*
X0047Y013D02*
X00473Y01297D01*
X0051*
X01888Y0141D02*
Y01413D01*
X01945Y0133D02*
Y0141D01*
X01262Y01384D02*
X01265Y01381D01*
X0173Y01427D02*
X01733Y0143D01*
X00347Y01457D02*
Y01475D01*
X00328Y01438D02*
X00347Y01457D01*
X00323Y0143D02*
X00325D01*
X00319Y01425D02*
X00323Y0143D01*
X00279Y01425D02*
X00319D01*
X00278Y01425D02*
X00279Y01425D01*
X00325Y0143D02*
Y01441D01*
X00313Y01453D02*
Y01475D01*
X00998Y01256D02*
Y01259D01*
X00985Y01273D02*
X00998Y01259D01*
X01003Y01223D02*
X01022Y01205D01*
X00985Y01227D02*
X00988Y01223D01*
X01003*
X01049Y01264D02*
Y01277D01*
X01049Y01264D02*
X01049Y01264D01*
X01049Y01249D02*
Y01264D01*
X01049Y01249D02*
X01049Y01249D01*
X01022Y01375D02*
X01089D01*
X01187Y01414D02*
Y01427D01*
X01187Y01427*
Y01442*
Y01442*
X00989Y01277D02*
X01022D01*
X00985Y01273D02*
X00989Y01277D01*
X00278Y01399D02*
Y01425D01*
G54D14*
X01913Y01443D02*
X01914D01*
X01916Y01441*
X01943Y01438D02*
X0196Y01421D01*
D01*
X01916Y01441D02*
X0192Y01438D01*
X01943*
X01909Y01449D02*
X01916Y01441D01*
X01889Y01449D02*
X01909D01*
X01888Y0145D02*
X01889Y01449D01*
X01888Y0145D02*
Y01453D01*
Y0147*
X01935Y01458D02*
X0197D01*
X01226Y01415D02*
Y01414D01*
X01215Y01415D02*
X01226D01*
X01966Y01271D02*
Y01286D01*
X01933Y0141D02*
X01935Y01412D01*
X0197Y01372D02*
Y01412D01*
G54D16*
X00246Y01287D02*
X00248D01*
X00259Y01232D02*
X00267Y01225D01*
X00259Y01232D02*
Y0124D01*
X0025Y0125D02*
X00259Y0124D01*
X0025Y0125D02*
Y01251D01*
X00242Y01258D02*
X0025Y01251D01*
X00242Y01258D02*
Y01283D01*
X00246Y01287*
X00248D02*
X00258Y01297D01*
X00278*
X00564Y01429D02*
X00586D01*
X01041Y01456D02*
X01049Y01448D01*
X01963Y01365D02*
X0197Y01372D01*
X00721Y01496D02*
X00826D01*
X00682Y01457D02*
X00721Y01496D01*
X00642Y01457D02*
X00682D01*
X01299Y0134D02*
X01351D01*
X01861Y0132D02*
X01881Y0134D01*
X0185Y0132D02*
X01861D01*
X01871*
X01881Y0131*
X00772Y01232D02*
X00855Y01314D01*
X00772Y01229D02*
Y01232D01*
X00751Y01208D02*
X00772Y01229D01*
X00472Y01208D02*
X00751D01*
X00855Y01314D02*
Y01335D01*
X01918Y0131D02*
Y0134D01*
X01829Y01443D02*
X0185Y01422D01*
X0172Y01215D02*
X0174D01*
X01626Y01383D02*
X01626Y01383D01*
X01625Y01405D02*
X01626Y01406D01*
X0161Y01398D02*
X01618Y0139D01*
X0161Y01398D02*
Y01416D01*
X01598Y01393D02*
Y01403D01*
X01592Y01408D02*
X01598Y01403D01*
X01556Y01484D02*
Y01485D01*
X01555Y01485D02*
X01556D01*
X01435Y01482D02*
D01*
X01433Y01483D02*
X01435Y01482D01*
X01431Y01483D02*
X01434Y01481D01*
X01435Y01482*
X01603Y0138D02*
Y01388D01*
X01535Y01385D02*
X01545D01*
X01344Y01206D02*
X01585D01*
X01679Y013*
X00559Y01472D02*
X0057Y01483D01*
X00539Y01472D02*
X00559D01*
X00474Y01485D02*
X00545D01*
X00425Y01436D02*
X00474Y01485D01*
X00425Y01435D02*
Y01436D01*
X00536Y01475D02*
X00539Y01472D01*
X00504Y01475D02*
X00536D01*
X00595Y01456D02*
X00641D01*
X0059Y01432D02*
Y01451D01*
X00702Y0145D02*
X00736Y01484D01*
X00641Y01456D02*
X00642Y01457D01*
X0059Y01451D02*
X00595Y01456D01*
X00595Y01468D02*
X0061Y01483D01*
X0059Y01468D02*
X00595D01*
X00581Y0146D02*
X0059Y01468D01*
X00538Y0146D02*
X00581D01*
X00548Y01388D02*
Y0139D01*
X00542Y01407D02*
X00564Y01429D01*
X00537Y01407D02*
X00542D01*
X0053Y0143D02*
Y01451D01*
X00524Y01425D02*
X0053Y0143D01*
X00578Y01375D02*
X0058D01*
X00601D02*
X00661D01*
X00592Y01365D02*
X00601Y01375D01*
X00592Y01362D02*
Y01365D01*
X00582Y01352D02*
X00592Y01362D01*
X00485Y01456D02*
X00504Y01475D01*
X00485Y01455D02*
Y01456D01*
X00465Y01455D02*
X00485D01*
X00458Y01428D02*
X00485Y01455D01*
X00458Y01418D02*
Y01428D01*
X00552Y01384D02*
Y01385D01*
X00548Y01388D02*
X00552Y01385D01*
Y01384D02*
X00556Y0138D01*
X00573*
X00578Y01375*
X0057Y01352D02*
X00582D01*
X00461Y01219D02*
X00472Y01208D01*
X00395Y0129D02*
Y013D01*
X00321Y01373D02*
X00395Y013D01*
X00986Y01349D02*
X00998Y01338D01*
X00996Y01406D02*
X01007Y01395D01*
X00974Y01361D02*
X00986Y01349D01*
X01556Y01471D02*
Y01484D01*
X01524Y0149D02*
X01532Y01497D01*
X01255Y01295D02*
X0127D01*
X01251Y01265D02*
X0127D01*
X0078Y01425D02*
X00795Y0144D01*
X00815*
Y0147D02*
X00816D01*
X00821Y01465*
X00835*
X0051Y01425D02*
X00524D01*
X00475D02*
X0051D01*
X00779Y01484D02*
X00821D01*
X00736D02*
X00779D01*
X01111Y01204D02*
X01285D01*
X01299Y01217*
X01333D02*
X01344Y01206D01*
X01299Y01217D02*
X01333D01*
X01626Y01406D02*
X01631D01*
X01639Y01414*
Y01424*
X0164Y01425*
X01091Y01223D02*
X01111Y01204D01*
X0117Y01225D02*
Y0123D01*
X00944Y01415D02*
Y01426D01*
X00995Y01318D02*
X0102D01*
X01261Y01351D02*
Y01353D01*
X01576Y01438D02*
Y0144D01*
X01574Y01441D02*
X01576Y0144D01*
X01574Y01441D02*
Y01469D01*
X01603Y0138D02*
X01605D01*
X01598Y01393D02*
X01603Y01388D01*
X01567Y01485D02*
X01571Y01482D01*
X01572*
X01574Y0148*
Y01469D02*
Y0148D01*
X0156Y01497D02*
X01567Y0149D01*
Y01485D02*
Y0149D01*
X01532Y01497D02*
X0156D01*
X01523Y0149D02*
X01524D01*
X01507Y01475D02*
X01523Y0149D01*
X01556Y01485D02*
X01556Y01485D01*
X01555Y01469D02*
X01556Y01471D01*
X01556Y01485D02*
X01556Y01484D01*
X01488Y01475D02*
X01507D01*
X01435Y01482D02*
Y01485D01*
X01336Y01449D02*
X0138Y01405D01*
X01431Y01483D02*
X01433D01*
X01351Y0134D02*
X01364Y01353D01*
X01686Y01486D02*
X0169Y0149D01*
X0194Y01245D02*
X01966Y01271D01*
Y01286D02*
X0197Y0129D01*
Y01291*
X01364Y01358D02*
X0138Y01373D01*
X0126Y0135D02*
X01261Y01351D01*
X01364Y01353D02*
Y01358D01*
X00993Y01428D02*
X01Y01435D01*
X00976Y01428D02*
X00993D01*
X0097Y01435D02*
X00976Y01428D01*
X00944Y01415D02*
X00953Y01406D01*
Y01403D02*
Y01406D01*
Y01403D02*
X00955Y01402D01*
Y01398D02*
Y01402D01*
Y01398D02*
X00957Y01396D01*
Y01356D02*
Y01396D01*
X00839Y0139D02*
Y01411D01*
X0053Y01451D02*
X00538Y0146D01*
X01336Y01449D02*
Y0146D01*
X01335Y01461D02*
X01336Y0146D01*
X00828Y01494D02*
X0091D01*
X00826Y01496D02*
X00828Y01494D01*
X00823Y01482D02*
X00945D01*
X00821Y01484D02*
X00823Y01482D01*
X01614Y0144D02*
X01618Y01436D01*
X01626Y01383D02*
Y01384D01*
X0155Y01405D02*
X01555Y0141D01*
X01612Y0144D02*
X01614D01*
X0161Y01416D02*
X01618Y01424D01*
X01545Y01385D02*
X0155Y01391D01*
X01604Y0144D02*
X01612D01*
X01621Y0139D02*
X01626Y01384D01*
X01535Y0138D02*
Y01385D01*
X01618Y0139D02*
X01621D01*
X01592Y01408D02*
X01594Y0141D01*
X01618Y01424D02*
Y01436D01*
X0155Y01391D02*
Y01405D01*
X01435Y01482D02*
X01442Y01475D01*
X0038Y0122D02*
X00385Y01225D01*
X00393*
X00395*
X00839Y01411D02*
X00877Y0145D01*
X0044Y01315D02*
Y01325D01*
X00947Y0148D02*
X00969D01*
X00786Y01353D02*
X00805D01*
X00775Y01365D02*
X00786Y01353D01*
X00805D02*
X00818Y01366D01*
X00676Y01311D02*
X0068D01*
X0067Y01304D02*
X00676Y01311D01*
X0067Y013D02*
Y01304D01*
X0066Y0129D02*
X0067Y013D01*
X00645Y0129D02*
X0066D01*
X0144Y01473D02*
X01442Y01475D01*
X01614Y01441D02*
X01671D01*
X01855Y0137D02*
X01855D01*
X0197Y0145D02*
Y01458D01*
X00974Y01361D02*
Y01363D01*
X00957Y01356D02*
X00995Y01318D01*
X00964Y01334D02*
X01Y01298D01*
X00932Y01334D02*
X00964D01*
X01089Y01455D02*
Y0146D01*
X01297Y01342D02*
X01299Y0134D01*
X01089Y01454D02*
X0109Y01455D01*
X01089Y01455D02*
X0109Y01455D01*
X01089Y01442D02*
Y01454D01*
X0039Y01455D02*
X00393Y01458D01*
Y01475*
X0026Y01455D02*
X00267Y01462D01*
Y01475*
X00442Y01398D02*
X00443D01*
X00422Y01378D02*
X00432Y01388D01*
X00442Y01398D02*
X0046Y01416D01*
X00432Y01388D02*
X00442Y01398D01*
X00432Y01388D02*
X00432D01*
X00383Y0125D02*
X00432D01*
X00358Y01225D02*
X00383Y0125D01*
X00432D02*
X00461Y0122D01*
Y01219D02*
Y0122D01*
X00422Y01342D02*
X0044Y01325D01*
X00443Y01398D02*
X0046Y01415D01*
X00422Y01342D02*
Y01378D01*
X00795Y0121D02*
X00808Y01223D01*
X00838Y01281D02*
X00869D01*
X00808Y01251D02*
X00838Y01281D01*
X01003Y01223D02*
X01033D01*
X01045Y01235*
X01047*
X0105Y01238*
Y0124*
X01049Y0124D02*
X0105Y0124D01*
X01049Y0124D02*
Y01249D01*
X01696Y01466D02*
Y01473D01*
X01671Y01441D02*
X01696Y01466D01*
X01778Y01491D02*
X0178Y0149D01*
X01772Y01491D02*
X01778D01*
X01612Y0144D02*
X01614Y01441D01*
X01189Y01245D02*
X01205D01*
X01187Y01246D02*
X01189Y01245D01*
X01187Y01246D02*
Y01249D01*
X01069Y01206D02*
Y01249D01*
X01068Y01205D02*
X01069Y01206D01*
X01696Y01473D02*
X01715Y01492D01*
X01771*
X01772Y01491*
X00696Y0145D02*
X00702D01*
X00693Y01446D02*
X00696Y0145D01*
X00689Y01442D02*
X00693Y01446D01*
X00677Y01442D02*
X00689D01*
X00655D02*
X00677D01*
X00905Y01361D02*
X00932Y01334D01*
X00905Y01361D02*
Y01373D01*
X00657Y01345D02*
X00665D01*
X0065Y01352D02*
X00657Y01345D01*
X01216Y01295D02*
X01255D01*
X00458Y01418D02*
X0046Y01416D01*
X01049Y01447D02*
Y01448D01*
X01Y01435D02*
X01009Y01425D01*
X00586Y01429D02*
X0059Y01432D01*
X00869Y01281D02*
X0087Y0128D01*
X00808Y01223D02*
Y01251D01*
X0087Y0128D02*
X00905D01*
X01169Y0123D02*
X0117Y0123D01*
X01169Y0123D02*
Y01247D01*
X01167Y01249D02*
X01169Y01247D01*
X00347Y01225D02*
X00358D01*
X00278Y01373D02*
X00321D01*
X01128Y01226D02*
X0113Y01225D01*
X01128Y01226D02*
Y01249D01*
X00905Y0128D02*
X00915Y0129D01*
X00926*
X01Y01298D02*
X0102D01*
X00998Y01338D02*
X0102D01*
X01007Y01395D02*
X01022D01*
X01011Y01415D02*
X01022D01*
X01009Y01416D02*
X01011Y01415D01*
X01009Y01416D02*
Y01425D01*
X01429Y01293D02*
X0147Y01253D01*
X01215Y01296D02*
X01216Y01295D01*
X01232Y01265D02*
X01251D01*
X01228Y01268D02*
X01232Y01265D01*
X01228Y01268D02*
Y01275D01*
X01226Y01277D02*
X01228Y01275D01*
X01215Y01277D02*
X01226D01*
X0102Y01298D02*
X01022Y01296D01*
X0102Y01338D02*
X01022Y01336D01*
X0102Y01318D02*
X01022Y01316D01*
X0046Y0139D02*
Y01415D01*
Y0139D02*
X00475Y01374D01*
X00509*
X0051Y01373*
X00313Y01225D02*
X00347D01*
X0053Y01399D02*
X00537Y01407D01*
X0061Y01437D02*
X0065D01*
X00548Y01373D02*
X0057Y01352D01*
X0051Y01373D02*
X00548D01*
X0061Y01398D02*
X0065D01*
X0057D02*
X0061D01*
X0051Y01399D02*
X0053D01*
G54D18*
X01604Y0144D03*
X01525D03*
G54D26*
X01918Y0134D03*
X01881D03*
X01918Y0131D03*
X01881D03*
G54D33*
X0197Y01458D03*
Y01412D03*
X0173Y01473D03*
Y01427D03*
X0126Y01443D03*
Y01397D03*
X01295D03*
Y01443D03*
X0061Y01352D03*
Y01398D03*
X0065Y01352D03*
Y01398D03*
X00985Y01273D03*
Y01227D03*
X0065Y01483D03*
Y01437D03*
X0061D03*
Y01483D03*
X0057D03*
Y01437D03*
Y01398D03*
Y01352D03*
X01935Y01458D03*
Y01412D03*
G54D34*
X01968Y0137D03*
X01922D03*
X01442Y01475D03*
X01488D03*
X01068Y01205D03*
X01022D03*
X00758Y0145D03*
X00712D03*
X00393Y01475D03*
X00347D03*
X00313D03*
X00267D03*
X00313Y01225D03*
X00267D03*
X00347D03*
X00393D03*
G54D62*
X01402Y01405D02*
Y01412D01*
X01392Y01401D02*
X01423Y0137D01*
X01392Y01401D02*
Y01408D01*
X01806Y01351D02*
X01858D01*
X0186Y01352*
X0122Y01485D02*
X01232D01*
X01227Y0148D02*
X01232Y01485D01*
X00491Y0123D02*
X00505D01*
X01318Y01426D02*
X01325Y0142D01*
X01304Y01418D02*
X01337Y01384D01*
X01243Y01418D02*
X01304D01*
X01246Y01426D02*
X01318D01*
X0132Y01374D02*
X01333Y0136D01*
X01283Y01374D02*
X0132D01*
X01337Y0136D02*
X01342Y01355D01*
X01333Y0136D02*
X01337D01*
X01337Y01384D02*
X01345Y01392D01*
X00407Y01261D02*
X00435D01*
X00881Y01347D02*
X00888Y0134D01*
X00833Y01347D02*
X00881D01*
X00811Y01326D02*
X00833Y01347D01*
X01801Y01355D02*
X01806Y01351D01*
X01558Y01366D02*
X01754D01*
X01479Y01318D02*
X01488Y01327D01*
X01469Y01318D02*
X01479D01*
X01459Y01328D02*
Y01346D01*
Y01328D02*
X01469Y01318D01*
X01488Y01327D02*
Y01339D01*
X01538Y01346D02*
X01558Y01366D01*
X01488Y01339D02*
X01495Y01346D01*
X01538*
X01446Y0139D02*
X01475Y01361D01*
Y01335D02*
Y01361D01*
X01457Y01348D02*
X01458Y01349D01*
X01457Y01348D02*
D01*
X01459Y01346D01*
X01458Y01349D02*
Y01363D01*
X01485Y01365D02*
X01545D01*
X01456Y01394D02*
X01485Y01365D01*
X01443Y01356D02*
X01445Y01355D01*
X01423Y01369D02*
X01429Y01362D01*
Y01293D02*
Y01362D01*
X01679Y01311D02*
X01717Y0135D01*
X01759*
X01679Y013D02*
Y01311D01*
X01411Y01462D02*
X01415Y01466D01*
Y01485*
X01205Y0144D02*
X01205Y0144D01*
Y01455*
X01234Y01425*
X01194Y01465D02*
X01205Y01455D01*
X01296Y01473D02*
X01306D01*
X0131Y0147*
X01234Y01425D02*
X01235D01*
X01206Y01466D02*
Y01467D01*
X01248Y01466D02*
X01268Y01485D01*
X01189Y01495D02*
X01218Y01466D01*
X01248*
X01233Y0148D02*
X0125Y01497D01*
X01231Y0148D02*
X01233D01*
X01225D02*
X01227D01*
X01198Y01475D02*
X01206Y01467D01*
X0117Y01475D02*
X01198D01*
X0118Y01465D02*
X01194D01*
X01175Y0146D02*
X0118Y01465D01*
X01113Y01495D02*
X01189D01*
X0131Y0147D02*
X01321D01*
X0125Y01497D02*
X01362D01*
X01345Y01392D02*
X01347D01*
X01206Y01466D02*
X01246Y01426D01*
X01268Y01485D02*
X01319D01*
X01235Y01425D02*
X01243Y01418D01*
X01175Y01459D02*
Y0146D01*
X01172Y01457D02*
X01175Y01459D01*
X0117Y01457D02*
X01172D01*
X01167Y01454D02*
X0117Y01457D01*
X01167Y01442D02*
Y01454D01*
X00454Y0127D02*
Y01325D01*
X0043Y01305D02*
X00442Y01292D01*
X00415Y01305D02*
X0043D01*
X00442Y01282D02*
Y01292D01*
X00454Y0127D02*
X00485Y0124D01*
X0044Y0134D02*
X00454Y01325D01*
X00603Y01352D02*
X0061D01*
X00584Y01333D02*
X00603Y01352D01*
X00597Y01331D02*
X00602D01*
X00735Y01339D02*
X00737Y01337D01*
X00735Y01339D02*
Y0134D01*
X00695Y01349D02*
X00718Y01326D01*
X00811*
X00695Y01349D02*
Y01361D01*
X00589Y01323D02*
X00597Y01331D01*
X00554Y01333D02*
X00584D01*
X00505Y0123D02*
Y01235D01*
X00478Y01218D02*
X00683D01*
X00489Y01228D02*
X00491Y0123D01*
X0048Y01228D02*
X00489D01*
X00446Y01261D02*
X0048Y01228D01*
X00446Y01261D02*
Y01278D01*
X00442Y01282D02*
X00446Y01278D01*
X00435Y01261D02*
X00478Y01218D01*
X0037Y01349D02*
X00415Y01305D01*
X00352Y01322D02*
X00383Y01291D01*
X00278Y01322D02*
X00352D01*
X00383Y01285D02*
X00407Y01261D01*
X00383Y01285D02*
Y01291D01*
X0037Y01349D02*
X0037D01*
X00683Y01218D02*
X007Y01235D01*
X01759Y0135D02*
X01786Y01376D01*
X01425Y01438D02*
Y0144D01*
X01427Y01442*
Y01447*
X0143Y0145*
X00598Y01258D02*
Y0129D01*
X00585Y01245D02*
X00598Y01258D01*
X01497Y014D02*
X01525D01*
X0147D02*
X01497D01*
X00955Y0146D02*
X00957Y01458D01*
X01004*
X00915Y0147D02*
X00945D01*
X00959Y01468D02*
X00974D01*
X00975Y01468D02*
X01D01*
X00945Y0147D02*
X00946Y01468D01*
X00958*
X00959Y01468*
X00974D02*
X00975Y01468D01*
X01136Y01464D02*
Y01474D01*
X01126Y01484D02*
X01136Y01474D01*
X01021Y01484D02*
X01126D01*
X01011Y01473D02*
X01021Y01484D01*
X01128Y01455D02*
X01136Y01464D01*
X01421Y01418D02*
Y01423D01*
Y01418D02*
X01446Y01393D01*
X01486Y01444D02*
X0149D01*
X0157Y0139D02*
Y01396D01*
X01545Y01365D02*
X0157Y0139D01*
X01574Y01399D02*
Y0141D01*
X0157Y01396D02*
X01571D01*
X01574Y01399*
X01111Y01444D02*
Y01462D01*
X01229Y01375D02*
X0123Y01375D01*
X01215Y01375D02*
X01229D01*
X01243Y01365D02*
X01245Y01366D01*
X00735Y0134D02*
X0075Y01355D01*
X00926Y0129D02*
X00936Y013D01*
X00975*
X0051Y01425D02*
Y0146D01*
X01671Y01441D02*
X01683Y0143D01*
X01685*
X00233Y01328D02*
X00253Y01348D01*
X00233Y01225D02*
Y01328D01*
X00779Y01484D02*
X00785Y01478D01*
Y01465D02*
Y01478D01*
X01594Y01469D02*
X01595Y0147D01*
X0162*
X00254Y01204D02*
X00261Y01198D01*
X00233Y01225D02*
X00254Y01204D01*
X00252D02*
X00254D01*
X00248Y012D02*
X00252Y01204D01*
X00245Y012D02*
X00248D01*
X01165Y01213D02*
X01183D01*
X0119Y0122*
X01251*
X01271Y0124*
X0115Y0123D02*
Y01247D01*
X01148Y01249D02*
X0115Y01247D01*
X01095Y01205D02*
X01105Y01195D01*
X0115Y0123D02*
X01158Y01221D01*
Y0122D02*
Y01221D01*
Y0122D02*
X01165Y01213D01*
X01105Y01195D02*
X01295D01*
X01305Y01205*
X01271Y0124D02*
X01285D01*
X0024Y01391D02*
Y01445D01*
X00249Y01382D02*
X00251D01*
X0024Y01391D02*
X00249Y01382D01*
X00251Y0138D02*
Y01382D01*
Y0138D02*
X00258Y01373D01*
X00278*
X01305Y01205D02*
X01306D01*
X01311Y012*
X0133*
X01089Y01226D02*
X0109Y01225D01*
X01091Y01223*
X01068Y01205D02*
X01095D01*
X01456Y01394D02*
Y01397D01*
X01432Y01421D02*
X01456Y01397D01*
X01446Y0139D02*
Y01393D01*
X01435Y01386D02*
X01458Y01363D01*
X01435Y01386D02*
Y0139D01*
X01412Y01413D02*
X01435Y0139D01*
X01754Y01366D02*
X01779Y01392D01*
X01538Y01482D02*
Y01486D01*
X00877Y0145D02*
X00953D01*
X01471Y0146D02*
Y01463D01*
Y0146D02*
X01486Y01444D01*
X00968Y01435D02*
X0097D01*
X00953Y0145D02*
X00968Y01435D01*
X0149Y01444D02*
X01515D01*
X0152Y0144D02*
X01525D01*
X01515Y01444D02*
X0152Y0144D01*
X01408Y01498D02*
X01451D01*
X0146Y01489*
Y01474D02*
X01471Y01463D01*
X0146Y01474D02*
Y01489D01*
X01412Y01413D02*
Y01417D01*
X01432Y01421D02*
Y01428D01*
X01391Y01424D02*
X01402Y01412D01*
X01401Y01428D02*
X01412Y01417D01*
X0142Y01423D02*
X01421D01*
X01411Y01432D02*
X0142Y01423D01*
X01411Y01432D02*
Y01443D01*
X01427Y01433D02*
X01432Y01428D01*
X01427Y01433D02*
Y01437D01*
X0138Y01373D02*
Y01405D01*
X01411Y01443D02*
X01411Y01444D01*
Y01462*
X01401Y01428D02*
Y01448D01*
X01401Y01448*
Y01458*
X01391Y01424D02*
Y01452D01*
X01391Y01452*
Y01453*
X01381Y01419D02*
X01392Y01408D01*
X01358Y01487D02*
X01391Y01453D01*
X01381Y01419D02*
Y01448D01*
X01352Y01477D02*
X01381Y01448D01*
X01342Y01355D02*
X01345D01*
X01423Y01369D02*
Y0137D01*
X01402Y01405D02*
X01443Y01364D01*
X01255Y01366D02*
X01276D01*
X01255Y01366D02*
X01255Y01366D01*
X01245Y01366D02*
X01255D01*
X01276Y01366D02*
X01283Y01374D01*
X01004Y01458D02*
X01009Y01463D01*
X01Y01468D02*
X01005Y01473D01*
X00796Y01377D02*
X00797Y01375D01*
Y0137D02*
Y01375D01*
X00796Y01377D02*
Y01398D01*
X00825Y01413D02*
X00873Y01461D01*
X00796Y01398D02*
X00869Y01471D01*
X00797Y0137D02*
X00799Y01368D01*
X00832Y01361D02*
Y01377D01*
X00825Y01384D02*
X00832Y01377D01*
X00825Y01384D02*
Y01413D01*
X00869Y01471D02*
X00914D01*
X00808Y01336D02*
X00832Y01361D01*
X01352Y01467D02*
X01355Y01465D01*
X01395Y01485D02*
X01408Y01498D01*
X01362Y01497D02*
X01401Y01458D01*
X0132Y01487D02*
X01358D01*
X01328Y01477D02*
X01352D01*
X01321Y0147D02*
X01328Y01477D01*
X01319Y01485D02*
X0132Y01487D01*
X01352Y01467D02*
Y01477D01*
X01535Y01404D02*
Y0141D01*
X01531Y014D02*
X01535Y01404D01*
X01525Y014D02*
X01531D01*
X01535Y01469D02*
X01535Y01469D01*
X01525Y014D02*
X01525Y014D01*
X00434Y01197D02*
X005D01*
X00502Y01196D02*
X00879D01*
X005Y01197D02*
X00502Y01196D01*
X00417Y01213D02*
X00434Y01197D01*
X00408Y01186D02*
X00883D01*
X00397Y01198D02*
X00408Y01186D01*
X00261Y01198D02*
X00397D01*
X00548Y01323D02*
X00589D01*
X00544Y01343D02*
X00554Y01333D01*
X00548Y01322D02*
X00548Y01323D01*
X00873Y01461D02*
X0091D01*
X00737Y01337D02*
X008D01*
X008Y01336D02*
X00808D01*
X008Y01337D02*
X008Y01336D01*
X00945Y01482D02*
X00947Y0148D01*
X00969D02*
X0097Y0148D01*
X00911Y0146D02*
X00955D01*
X01005Y01473D02*
X01011D01*
X01009Y01463D02*
X01018D01*
X01Y01435D02*
X01015Y0145D01*
X01443Y01356D02*
Y01364D01*
X00818Y01366D02*
Y01366D01*
X0091Y01461D02*
X00911Y0146D01*
X00914Y01471D02*
X00915Y0147D01*
X0104Y0145D02*
X01046D01*
X01076Y01473D02*
X01089Y0146D01*
X01028Y01473D02*
X01076D01*
X01046Y0145D02*
X01049Y01447D01*
X01018Y01463D02*
X01028Y01473D01*
X01108Y01442D02*
X01111Y01444D01*
Y01462D02*
X0112Y01471D01*
X01108Y01448D02*
X0111Y0145D01*
X01108Y01442D02*
Y01448D01*
X01128Y01442D02*
Y01455D01*
X01089Y01226D02*
Y01249D01*
X01089Y01249D02*
X01089Y01249D01*
X0037Y01349D02*
Y01485D01*
X007Y01235D02*
Y01295D01*
X00707Y01302*
X00732*
X0074Y0131*
X00883Y01186D02*
X00925Y01227D01*
X00879Y01196D02*
X00905Y01221D01*
X00888Y0134D02*
X0089D01*
X0044Y0134D02*
Y0135D01*
X0051Y01322D02*
X00548D01*
X00905Y01221D02*
Y0124D01*
X00925Y01227D02*
Y0124D01*
X01797Y01392D02*
X01802Y01387D01*
Y01369D02*
Y01387D01*
X01801Y01368D02*
X01802Y01369D01*
X01786Y01404D02*
X01805D01*
X01783Y01407D02*
X01786Y01404D01*
X01783Y01407D02*
Y01409D01*
X01779Y01413D02*
X01783Y01409D01*
X0177Y01413D02*
X01779D01*
X01805Y01404D02*
X01808Y01401D01*
X01808*
X01801Y01368D02*
X01801Y01368D01*
Y01355D02*
Y01368D01*
X01779Y01392D02*
X01797D01*
X0182Y01375D02*
Y01389D01*
X01808Y01401D02*
X0182Y01389D01*
X00677Y01439D02*
Y01442D01*
X00669Y01431D02*
X00677Y01439D01*
X00669Y01426D02*
Y01431D01*
X00669Y01425D02*
X00669Y01426D01*
X00669Y01412D02*
Y01425D01*
X00668Y01412D02*
X00669Y01412D01*
X00679Y01426D02*
X00683Y0143D01*
X00679Y01359D02*
Y01421D01*
X00679Y01421D02*
Y01426D01*
X00679Y01421D02*
X00679Y01421D01*
X00665Y01345D02*
X00679Y01359D01*
X00695Y01376D02*
Y01415D01*
X00694Y01375D02*
X00695Y01376D01*
X00694Y01362D02*
Y01375D01*
Y01362D02*
X00695Y01361D01*
X00668Y01382D02*
Y01412D01*
X00661Y01375D02*
X00668Y01382D01*
X00683Y0143D02*
X00738D01*
X00693Y01446D02*
X00693D01*
X00738Y0143D02*
X00758Y0145D01*
X0065Y01437D02*
X00655Y01442D01*
X00702Y0145D02*
X00712D01*
X01049Y01442D02*
Y01447D01*
X00911Y01495D02*
X01113D01*
X0091Y01494D02*
X00911Y01495D01*
X00514Y01343D02*
X00544D01*
X00253Y01348D02*
X00276D01*
X0051D02*
X00514Y01343D01*
X00514Y01318D02*
X00544D01*
X0051Y01322D02*
X00514Y01318D01*
G54D65*
X01945Y01293D02*
Y0133D01*
X01936Y01285D02*
X01945Y01293D01*
X019Y01285D02*
X01936D01*
X01899Y01284D02*
X019Y01285D01*
G54D66*
X0186Y01245D02*
X01899Y01284D01*
G54D67*
X01738Y013D03*
X01679D03*
X01501Y01298D03*
X0156Y013D03*
X0162D03*
G54D68*
X0166Y01392D03*
Y01472D03*
X0146Y01432D03*
G54D69*
X00854Y01245D03*
X00735D03*
G54D70*
X01397Y01342D03*
X01347Y01392D03*
X01297Y01342D03*
X01347Y01292D03*
G54D71*
X0184Y01245D03*
G54D72*
X0194Y01245D03*
G54D73*
X0186Y01352D03*
X01913Y01443D03*
X01325Y0142D03*
X0185Y0132D03*
X018Y01275D03*
X0191Y0134D03*
X01855Y01405D03*
X0172Y01215D03*
X01626Y01383D03*
X01625Y01405D03*
X0161Y01345D03*
X015Y01335D03*
X01475D03*
X01445Y01355D03*
X01205Y0144D03*
X01296Y01473D03*
X0122Y01485D03*
X0123Y01395D03*
X0128Y0144D03*
X0117Y01475D03*
X00545Y01485D03*
X00548Y0139D03*
X0058Y01375D03*
X00425Y01435D03*
X00602Y01331D03*
X00505Y01235D03*
X00485Y0124D03*
X00395Y0129D03*
X00545Y0123D03*
X00565Y0127D03*
X01786Y01376D03*
X00991Y01386D03*
X01231Y01351D03*
X0123Y01315D03*
Y01375D03*
X01243Y01365D03*
X0117Y01225D03*
X0109Y01225D03*
X0035Y01415D03*
X0147Y014D03*
X01261Y01353D03*
X01576Y01438D03*
X01605Y0138D03*
X01555Y01485D03*
X01538Y01482D03*
X01415Y01485D03*
X01435D03*
X01425Y01438D03*
X01345Y01355D03*
X0169Y0149D03*
X00986Y01443D03*
X00968Y01409D03*
X0081Y01385D03*
X00839Y0139D03*
X00635Y01485D03*
X00815Y0147D03*
X01355Y0146D03*
X01395Y01485D03*
X01335Y01461D03*
X01535Y0138D03*
X00445Y01215D03*
X00417Y01213D03*
X0038Y0122D03*
X00598Y0129D03*
X00585Y01245D03*
X00815Y0144D03*
X0044Y01315D03*
X0097Y0148D03*
X01015Y0145D03*
X00855Y01335D03*
X00818Y01366D03*
X00775Y01365D03*
X00735Y0134D03*
X00799Y01368D03*
X00805Y0131D03*
X0076Y0138D03*
X01105Y01345D03*
X01165D03*
X01135D03*
Y01391D03*
X01105D03*
X01075D03*
X01163D03*
X01075Y01341D03*
X01135Y01296D03*
X01105D03*
X01075D03*
X01163D03*
X01625Y0149D03*
X0068Y01311D03*
X01255Y0124D03*
X01855Y0137D03*
X0197Y0145D03*
X00974Y01363D03*
X00994Y01404D03*
X0104Y0145D03*
X0107Y0146D03*
X01089D03*
X01265Y01381D03*
X0112Y01471D03*
X0039Y01455D03*
X0026D03*
X0037Y01485D03*
X00355Y013D03*
X0029Y01235D03*
X0044Y0135D03*
X00475Y01425D03*
X00795Y0121D03*
X00905Y0124D03*
X00925D03*
X01Y01255D03*
X0047Y013D03*
X0178Y0149D03*
X01595D03*
X00865Y01415D03*
X00325Y0143D03*
X01305Y01205D03*
X01205Y01245D03*
X01975Y0134D03*
X00695Y01415D03*
X0089Y0134D03*
X00665Y01345D03*
X0127Y01295D03*
X0074Y0131D03*
X0113Y01225D03*
X0147Y01253D03*
X0127Y01265D03*
G54D74*
X01285Y0124D03*
X0133Y012D03*
X0174Y01215D03*
X01685Y0143D03*
X0164Y01425D03*
X01497Y014D03*
X0149Y01444D03*
X0162Y0147D03*
X0143Y0145D03*
X01231Y0148D03*
X0131Y0147D03*
X00975Y013D03*
X00986Y01349D03*
X0075Y01355D03*
X0078Y01425D03*
X00785Y01465D03*
X00835D03*
X0051Y0146D03*
X00465Y01455D03*
X0024Y01445D03*
X0025Y0125D03*
X00245Y012D03*
X01251Y01265D03*
X01255Y01295D03*
X00445Y01485D03*
G54D75*
X00425Y01285D03*
X0035Y0128D03*
G54D76*
X01888Y01472D03*
Y01453D03*
Y01433D03*
Y01413D03*
X0177D03*
Y01433D03*
Y01453D03*
Y01472D03*
G54D77*
X01829Y01443D03*
G54D78*
X01022Y01277D03*
Y01296D03*
Y01316D03*
Y01336D03*
Y01355D03*
Y01375D03*
Y01395D03*
Y01415D03*
X01215D03*
Y01395D03*
Y01375D03*
Y01355D03*
Y01336D03*
Y01316D03*
Y01296D03*
Y01277D03*
G54D79*
X01049Y01442D03*
X01069D03*
X01089D03*
X01108D03*
X01128D03*
X01148D03*
X01167D03*
X01187D03*
Y01249D03*
X01167D03*
X01148D03*
X01128D03*
X01108D03*
X01089D03*
X01069D03*
X01049D03*
G54D80*
X01118Y01346D03*
G54D81*
X00895Y01426D03*
Y01373D03*
X00934D03*
Y01426D03*
G54D82*
X0051Y01425D03*
Y01399D03*
Y01373D03*
Y01348D03*
Y01322D03*
Y01297D03*
Y01271D03*
X00278D03*
Y01297D03*
Y01322D03*
Y01348D03*
Y01373D03*
Y01399D03*
Y01425D03*
G54D83*
X0197Y01291D03*
Y01328D03*
G54D84*
X01594Y01469D03*
X01535D03*
Y0141D03*
X01594D03*
G54D85*
X01574Y01469D03*
X01555D03*
Y0141D03*
X01574D03*
G54D86*
X00926Y0129D03*
X00645D03*
G54D87*
X0183Y01375D03*
X01889D03*
G54D88*
X0184Y01245D02*
X0186D01*
M02*