%FSTAX23Y23*%
%MOIN*%
%SFA1B1*%

%IPPOS*%
%ADD12C,0.010000*%
%ADD24C,0.070900*%
%ADD25O,0.025000X0.100000*%
%ADD26R,0.025000X0.100000*%
%ADD27C,0.014000*%
%ADD28C,0.062000*%
%ADD29R,0.062000X0.062000*%
%ADD30O,0.051200X0.051200*%
%ADD31C,0.055100*%
%ADD32C,0.059100*%
%ADD33R,0.059100X0.059100*%
%ADD34C,0.050000*%
%ADD35C,0.020000*%
%ADD36C,0.021600*%
%LNpower_pcb-1*%
%LPD*%
G36*
X0173Y00223D02*
X01726Y0022D01*
X00899Y00275*
X00895Y00321*
X00894Y00323*
X00894Y00324*
X00893Y00325*
X00893Y00327*
X00892Y00328*
X00891Y0033*
X0089Y0033*
X00889Y00331*
X00888Y00332*
X00886Y00333*
X00885Y00334*
X00884Y00334*
X00882Y00334*
X00881Y00335*
X00361Y00374*
X00301Y00802*
X00304Y00806*
X00891Y00879*
X00893Y0088*
X00895Y0088*
X00896Y00881*
X00897Y00881*
X00899Y00883*
X009Y00884*
X00901Y00885*
X00901*
X0173*
Y00223*
G37*
%LNpower_pcb-2*%
%LPC*%
G36*
X00818Y00852D02*
X00782D01*
Y00816*
X00818*
Y00852*
G37*
G36*
X00772D02*
X00736D01*
Y00816*
X00772*
Y00852*
G37*
G36*
X01062Y00865D02*
X01045D01*
Y0081*
X01062*
Y00865*
G37*
G36*
X0115Y0082D02*
Y00805D01*
X01165*
X01164Y00808*
X0116Y00815*
X01153Y00819*
X0115Y0082*
G37*
G36*
X0114D02*
X01136Y00819D01*
X0113Y00815*
X01125Y00808*
X01124Y00805*
X0114*
Y0082*
G37*
G36*
X01165Y00795D02*
X0115D01*
Y00779*
X01153Y0078*
X0116Y00785*
X01164Y00791*
X01165Y00795*
G37*
G36*
X0114D02*
X01124D01*
X01125Y00791*
X0113Y00785*
X01136Y0078*
X0114Y00779*
Y00795*
G37*
G36*
X00772Y00806D02*
X00736D01*
Y0077*
X00772*
Y00806*
G37*
G36*
X01435Y00785D02*
Y0077D01*
X0145*
X01449Y00773*
X01445Y0078*
X01438Y00784*
X01435Y00785*
G37*
G36*
X01425D02*
X01421Y00784D01*
X01415Y0078*
X0141Y00773*
X01409Y0077*
X01425*
Y00785*
G37*
G36*
X0099Y00865D02*
X00981Y00863D01*
X00973Y00858*
X00968Y00851*
X00967Y00842*
Y00767*
X00968Y00758*
X00973Y00751*
X00981Y00746*
X00989Y00744*
X01008Y00725*
X01013Y00722*
X0102Y0072*
X01076*
X01076Y0072*
X01073Y00715*
X00819*
X00815Y00714*
X0081Y00717*
Y00722*
X00861Y00773*
X00866Y00771*
X00877Y00769*
X00887Y00771*
X00897Y00775*
X00906Y00782*
X00912Y0079*
X00917Y008*
X00918Y00811*
X00917Y00822*
X00912Y00831*
X00906Y0084*
X00897Y00847*
X00887Y00851*
X00877Y00852*
X00866Y00851*
X00856Y00847*
X00847Y0084*
X00841Y00831*
X00837Y00822*
X00835Y00811*
X00837Y008*
X00839Y00795*
X00822Y00778*
X00818Y0078*
Y00806*
X00782*
Y0077*
X00808*
X00809Y00765*
X00784Y00739*
X0078Y00735*
X00779Y00729*
Y00709*
X00769Y00699*
X00764Y007*
X00764Y00704*
X0076Y00712*
X00755Y0072*
X00747Y00725*
X00739Y00729*
X0073Y0073*
X0072Y00729*
X00712Y00725*
X00705Y0072*
X00699Y00712*
X00698Y0071*
X00657*
X00655Y00715*
X00659Y00718*
X00667Y00727*
X00671Y00738*
X00673Y0075*
X00671Y00762*
X00667Y00773*
X00659Y00783*
X0065Y0079*
X00639Y00795*
X00627Y00796*
X00615Y00795*
X00604Y0079*
X00595Y00783*
X00587Y00773*
X00583Y00762*
X00581Y0075*
X00583Y00738*
X00587Y00727*
X00595Y00718*
X006Y00714*
X00599Y00709*
X00594Y00705*
X00571Y00683*
X00569Y00684*
X0056Y00685*
X0055Y00684*
X00542Y0068*
X00535Y00675*
X00529Y00667*
X00525Y00659*
X00524Y0065*
X00525Y0064*
X00529Y00632*
X00535Y00625*
X00542Y00619*
X0055Y00615*
X0056Y00614*
X00569Y00615*
X00577Y00619*
X00585Y00625*
X0059Y00632*
X00594Y0064*
X00595Y0065*
X00594Y00659*
X00593Y00661*
X00611Y00679*
X00698*
X00699Y00677*
X00701Y00674*
X00699Y0067*
X00665*
X0066Y00669*
X00655Y00665*
X00644Y00655*
X00637Y00653*
X0063Y00649*
X00626Y00642*
X00624Y00635*
X00626Y00627*
X0063Y0062*
X00637Y00616*
X00645Y00614*
X00652Y00616*
X00659Y0062*
X00663Y00627*
X00664Y00632*
X0067Y00638*
X00672Y00639*
X0068*
X00682Y00635*
X00589Y00541*
X00585Y00537*
X00584Y00531*
Y00521*
X00582Y0052*
X00575Y00515*
X00569Y00507*
X00565Y00499*
X00564Y0049*
X00565Y0048*
X00569Y00472*
X00575Y00465*
X00575Y00464*
X00574Y00459*
X0057Y00459*
X00562Y00455*
X00555Y0045*
X00549Y00442*
X00545Y00434*
X00544Y00425*
X00545Y00415*
X00549Y00407*
X00555Y004*
X00562Y00394*
X0057Y0039*
X0058Y00389*
X00589Y0039*
X00597Y00394*
X00605Y004*
X0061Y00407*
X00614Y00415*
X00615Y00425*
X00614Y00427*
X00617Y0043*
X00624Y00432*
X00629Y00435*
X00654Y0046*
X00658Y00466*
X00659Y00472*
Y00494*
X00712Y00547*
X00925*
X00931Y00549*
X00937Y00552*
X0097Y00586*
X00973Y00585*
X0099*
Y00601*
X00988Y00604*
X01017Y00632*
X01066*
X01068Y00627*
X01065Y00625*
X01059Y00617*
X01055Y00609*
X01054Y006*
Y00599*
X01051Y00599*
X01045Y00595*
X01014Y00564*
X01014Y00564*
X01011Y00568*
X01013Y00572*
X01014Y00575*
X01*
Y0056*
X01002Y00561*
X01007Y00563*
X0101Y0056*
X0101Y0056*
X00882Y00432*
X0086*
X0086Y00432*
X00855Y0044*
X00847Y00445*
X00839Y00449*
X0083Y0045*
X0082Y00449*
X00812Y00445*
X00805Y0044*
X00799Y00432*
X00795Y00424*
X00794Y00415*
X00795Y00405*
X00799Y00397*
X00805Y0039*
X00812Y00384*
X0082Y0038*
X0083Y00379*
X00839Y0038*
X00847Y00384*
X00855Y0039*
X0086Y00397*
X0086Y00397*
X0089*
X00896Y00399*
X00902Y00402*
X01065Y00565*
X01081*
X0109Y00564*
X01099Y00565*
X01107Y00569*
X01115Y00575*
X0112Y00582*
X01124Y0059*
X01125Y006*
X01124Y00609*
X0112Y00617*
X01115Y00625*
X01111Y00627*
X01113Y00632*
X01203*
X01207Y00633*
X01212Y00629*
X0122Y00625*
X0123Y00624*
X01239Y00625*
X01247Y00629*
X01255Y00635*
X0126Y00642*
X01264Y0065*
X01265Y0066*
X01264Y00669*
X0126Y00677*
X01258Y0068*
X0126Y00684*
X01349*
X01399Y00635*
X01396Y0063*
X01388Y00629*
X0138Y00625*
X01372Y0062*
X01367Y00612*
X01363Y00604*
X01362Y00594*
X01363Y00585*
X01367Y00576*
X01367Y00575*
X01364Y00571*
X01362Y00571*
X01353Y00569*
X01345Y00564*
X0134Y00556*
X01338Y00547*
X0134Y00538*
X01345Y0053*
X01353Y00525*
X01362Y00523*
X01372Y00525*
X01379Y0053*
X01385Y00538*
X01386Y00547*
X01385Y00556*
X01387Y00558*
X01388Y0056*
X01393Y00559*
X01397Y00553*
X01394Y00548*
X01393Y00539*
X01394Y0053*
X01398Y00521*
X01404Y00514*
X01411Y00508*
X0142Y00504*
X01429Y00503*
X01438Y00504*
X01447Y00508*
X01455Y00514*
X01458Y00518*
X01464*
X01467Y00514*
X01474Y00508*
X01483Y00504*
X01492Y00503*
X01501Y00504*
X0151Y00508*
X01518Y00514*
X01523Y00521*
X01527Y0053*
X01528Y00539*
X01527Y00548*
X01525Y00553*
X01528Y00559*
X01533Y0056*
X01535Y00558*
X01537Y00556*
X01535Y00547*
X01537Y00538*
X01542Y0053*
X0155Y00525*
X01559Y00523*
X01568Y00525*
X01576Y0053*
X01581Y00538*
X01583Y00547*
X01581Y00556*
X01576Y00564*
X01568Y00569*
X01559Y00571*
X01557Y00571*
X01554Y00575*
X01555Y00576*
X01558Y00585*
X01559Y00589*
X01524*
Y00594*
X01519*
Y0063*
X01514Y00629*
X01506Y00625*
X01498Y0062*
X01495Y00616*
X01489*
X01486Y0062*
X01479Y00625*
X0147Y00629*
X01461Y0063*
X01451Y00629*
X01449Y00628*
X01366Y0071*
X01361Y00714*
X01355Y00715*
X0114*
X01138Y00719*
X0114Y00722*
X01144Y0073*
X01145Y0074*
X01144Y00749*
X0114Y00757*
X01135Y00765*
X01127Y0077*
X01119Y00774*
X0111Y00775*
X011Y00774*
X01092Y0077*
X01085Y00765*
X01079Y00757*
X01078Y00755*
X01062*
Y008*
X0104*
Y00805*
X01035*
Y00865*
X01017*
Y00845*
X01012Y00844*
X01011Y00851*
X01006Y00858*
X00998Y00863*
X0099Y00865*
G37*
G36*
X0051Y00774D02*
Y0076D01*
X00524*
X00523Y00762*
X00519Y00769*
X00512Y00773*
X0051Y00774*
G37*
G36*
X005D02*
X00497Y00773D01*
X0049Y00769*
X00486Y00762*
X00485Y0076*
X005*
Y00774*
G37*
G36*
X0118Y00765D02*
Y0075D01*
X01195*
X01194Y00753*
X0119Y0076*
X01183Y00764*
X0118Y00765*
G37*
G36*
X0117D02*
X01166Y00764D01*
X0116Y0076*
X01155Y00753*
X01154Y0075*
X0117*
Y00765*
G37*
G36*
X0145Y0076D02*
X01435D01*
Y00744*
X01438Y00745*
X01445Y0075*
X01449Y00756*
X0145Y0076*
G37*
G36*
X01425D02*
X01409D01*
X0141Y00756*
X01415Y0075*
X01421Y00745*
X01425Y00744*
Y0076*
G37*
G36*
X00524Y0075D02*
X0051D01*
Y00735*
X00512Y00736*
X00519Y0074*
X00523Y00747*
X00524Y0075*
G37*
G36*
X005D02*
X00485D01*
X00486Y00747*
X0049Y0074*
X00497Y00736*
X005Y00735*
Y0075*
G37*
G36*
X01195Y0074D02*
X0118D01*
Y00724*
X01183Y00725*
X0119Y0073*
X01194Y00736*
X01195Y0074*
G37*
G36*
X0117D02*
X01154D01*
X01155Y00736*
X0116Y0073*
X01166Y00725*
X0117Y00724*
Y0074*
G37*
G36*
X00425Y00649D02*
Y00635D01*
X00439*
X00438Y00637*
X00434Y00644*
X00427Y00648*
X00425Y00649*
G37*
G36*
X00415D02*
X00412Y00648D01*
X00405Y00644*
X00401Y00637*
X004Y00635*
X00415*
Y00649*
G37*
G36*
X00439Y00625D02*
X00425D01*
Y0061*
X00427Y00611*
X00434Y00615*
X00438Y00622*
X00439Y00625*
G37*
G36*
X00415D02*
X004D01*
X00401Y00622*
X00405Y00615*
X00412Y00611*
X00415Y0061*
Y00625*
G37*
G36*
X01529Y0063D02*
Y00599D01*
X01559*
X01558Y00604*
X01555Y00612*
X01549Y0062*
X01542Y00625*
X01533Y00629*
X01529Y0063*
G37*
G36*
X01Y00599D02*
Y00585D01*
X01014*
X01013Y00587*
X01009Y00594*
X01002Y00598*
X01Y00599*
G37*
G36*
X0099Y00575D02*
X00975D01*
X00976Y00572*
X0098Y00565*
X00987Y00561*
X0099Y0056*
Y00575*
G37*
G36*
X0052Y00605D02*
X00512Y00603D01*
X00505Y00599*
X00501Y00592*
X00499Y00585*
X00501Y00577*
X00505Y0057*
X00512Y00566*
X00518Y00564*
X00524Y00559*
X00529Y00555*
X00535Y00554*
X00561*
X00567Y00551*
X00575Y00549*
X00582Y00551*
X00589Y00555*
X00593Y00562*
X00595Y0057*
X00593Y00577*
X00589Y00584*
X00582Y00588*
X00575Y0059*
X00567Y00588*
X00561Y00585*
X00541*
X0054Y00586*
X00538Y00592*
X00534Y00599*
X00527Y00603*
X0052Y00605*
G37*
G36*
X01575Y00429D02*
X01564Y00428D01*
X01555Y00424*
X01546Y00418*
X0154Y00409*
X01536Y004*
X01535Y0039*
X01536Y00379*
X0154Y0037*
X01546Y00361*
X01555Y00355*
X01564Y00351*
X01575Y0035*
X01585Y00351*
X01594Y00355*
X01603Y00361*
X01609Y0037*
X01613Y00379*
X01614Y0039*
X01613Y004*
X01609Y00409*
X01603Y00418*
X01594Y00424*
X01585Y00428*
X01575Y00429*
G37*
G36*
X01614Y00329D02*
X0158D01*
Y00295*
X01614*
Y00329*
G37*
G36*
X0157D02*
X01535D01*
Y00295*
X0157*
Y00329*
G37*
G36*
X00982Y00367D02*
X00972Y00367D01*
X00963Y00364*
X00955Y00358*
X00948Y00351*
X00944Y00342*
X00942Y00332*
X00942Y00322*
X00946Y00313*
X00951Y00305*
X00959Y00298*
X00967Y00294*
X00977Y00292*
X00987Y00292*
X00996Y00296*
X01005Y00301*
X01011Y00309*
X01015Y00317*
X01017Y00327*
X01017Y00337*
X01014Y00346*
X01008Y00355*
X01001Y00361*
X00992Y00365*
X00982Y00367*
G37*
G36*
X011Y0036D02*
X0109Y00359D01*
X01081Y00356*
X01072Y0035*
X01066Y00343*
X01062Y00334*
X0106Y00324*
X0106Y00314*
X01063Y00305*
X01069Y00297*
X01076Y0029*
X01085Y00286*
X01095Y00284*
X01105Y00285*
X01114Y00288*
X01122Y00293*
X01129Y00301*
X01133Y0031*
X01135Y00319*
X01135Y00329*
X01131Y00339*
X01126Y00347*
X01118Y00353*
X0111Y00358*
X011Y0036*
G37*
G36*
X01614Y00285D02*
X0158D01*
Y0025*
X01614*
Y00285*
G37*
G36*
X0157D02*
X01535D01*
Y0025*
X0157*
Y00285*
G37*
%LNpower_pcb-3*%
%LPD*%
G54D12*
X00605Y00695D02*
X0073D01*
X0056Y0065D02*
X00605Y00695D01*
X00645Y00634D02*
X0066Y00649D01*
X0052Y00585D02*
X00535Y0057D01*
X00575*
X00645Y00635D02*
X00645Y00634D01*
X0066Y00649D02*
X00665Y00655D01*
X00746*
X00703Y00635D02*
X00754D01*
X00746Y00655D02*
X00795Y00703D01*
Y00729*
X00877Y00811*
X00754Y00635D02*
X00819Y007D01*
X01355*
X006Y00531D02*
X00703Y00635D01*
X006Y0049D02*
Y00531D01*
X01355Y007D02*
X01461Y00594D01*
G54D24*
X00627Y0075D03*
G54D25*
X0099Y00805D03*
G54D26*
X0104Y00805D03*
G54D27*
X0083Y00415D02*
X0089D01*
X01058Y00583*
X00642Y00502D02*
X00705Y00565D01*
X00603Y00448D02*
X00617D01*
X0058Y00425D02*
X00603Y00448D01*
X00642Y00472D02*
Y00502D01*
X00617Y00448D02*
X00642Y00472D01*
X00705Y00565D02*
X00925D01*
X0101Y0065*
X01203*
X0109Y0059D02*
Y006D01*
X01083Y00583D02*
X0109Y0059D01*
X01398Y00594D02*
D01*
X00998Y0076D02*
Y00762D01*
Y0076D02*
X0102Y00738D01*
X01108D02*
X0111Y0074D01*
X0102Y00738D02*
X01108D01*
X0099Y0077D02*
X00998Y00762D01*
X0099Y0077D02*
Y00805D01*
Y00839*
X01058Y00583D02*
X01083D01*
G54D28*
X00877Y00811D03*
G54D29*
X00777Y00811D03*
G54D30*
X01492Y00539D03*
X01524Y00594D03*
X01461D03*
X01398D03*
X01429Y00539D03*
G54D31*
X01097Y00322D03*
X0098Y0033D03*
G54D32*
X01575Y0039D03*
G54D33*
X01575Y0029D03*
G54D34*
X0073Y00695D03*
X0083Y00415D03*
X006Y0049D03*
X0058Y00425D03*
X0123Y0066D03*
X0109Y006D03*
X0056Y0065D03*
X0111Y0074D03*
G54D35*
X0042Y0063D03*
X00505Y00755D03*
X0052Y00585D03*
X00575Y0057D03*
X00995Y0058D03*
X00645Y00635D03*
G54D36*
X01175Y00745D03*
X01145Y008D03*
X0143Y00765D03*
M02*