%FSTAX23Y23*%
%MOIN*%
%SFA1B1*%

%IPPOS*%
%AMD17*
4,1,4,-0.015300,0.000000,0.000000,-0.015300,0.015300,0.000000,0.000000,0.015300,-0.015300,0.000000,0.0*
%
%ADD13C,0.010000*%
%ADD16C,0.006000*%
G04~CAMADD=17~10~0.0~216.4~0.0~0.0~0.0~0.0~0~0.0~0.0~0.0~0.0~0~0.0~0.0~0.0~0.0~0~0.0~0.0~0.0~135.0~216.4~0.0*
%ADD17D17*%
%ADD18R,0.033500X0.013800*%
%ADD19R,0.066900X0.096500*%
%ADD20C,0.008200*%
%ADD21R,0.070900X0.039400*%
%ADD22C,0.031000*%
%ADD23R,0.023600X0.029500*%
%ADD24R,0.045300X0.057100*%
%ADD25R,0.037000X0.029500*%
%ADD26R,0.023600X0.024400*%
%ADD27R,0.023600X0.022400*%
%ADD28R,0.039400X0.031500*%
%ADD29R,0.027600X0.059100*%
%ADD30R,0.011800X0.043300*%
%ADD31R,0.026600X0.009800*%
%ADD32R,0.009800X0.022600*%
%ADD33R,0.021700X0.021700*%
%ADD34R,0.021700X0.021700*%
%ADD35O,0.039400X0.019700*%
%ADD62C,0.004000*%
%ADD63C,0.018000*%
%ADD64C,0.012000*%
%ADD65C,0.014000*%
%ADD66C,0.016000*%
%ADD67C,0.048000*%
%ADD68C,0.019500*%
%ADD69C,0.055100*%
%ADD70C,0.047200*%
%ADD71C,0.059100*%
%ADD72R,0.059100X0.059100*%
%ADD73C,0.011800*%
%ADD74C,0.015700*%
%ADD75C,0.023600*%
%LNpower_pcb-1*%
%LPD*%
G54D13*
X015Y01299D02*
Y01335D01*
Y01299D02*
X01501Y01298D01*
X00786Y01393D02*
X00815D01*
X00757Y01421D02*
Y01431D01*
X00635Y01483D02*
Y01485D01*
Y01483D02*
X0064Y01478D01*
Y01456D02*
Y01478D01*
X00566Y01486D02*
X00568Y01485D01*
X00635*
X00566Y01486D02*
X00566D01*
X00563Y01484D02*
X00566Y01486D01*
X00563Y01468D02*
Y01484D01*
X0032Y01275D02*
X00335D01*
X00991Y01386D02*
X00991D01*
X00997Y0138*
X0081Y01385D02*
Y01388D01*
X00809Y01389D02*
X0081Y01388D01*
X00815Y01418D02*
X00823Y0141D01*
X00343Y01273D02*
X00343D01*
X00349Y0128*
X0035*
X00757Y01382D02*
X0076Y0138D01*
X0029Y0131D02*
X00305Y01295D01*
X00997Y0138D02*
X01027D01*
X0034Y013D02*
X00355D01*
X00336Y0128D02*
X00343Y01273D01*
Y0122D02*
Y01273D01*
X00269Y01345D02*
X00273Y01341D01*
X00265Y01345D02*
X00269D01*
X00757Y01421D02*
X00786Y01393D01*
X01Y01255D02*
X01022D01*
X00865Y01413D02*
Y01415D01*
X00862Y0141D02*
X00865Y01413D01*
X01027Y0138D02*
Y01415D01*
X00757Y01382D02*
Y01421D01*
G54D16*
X01801Y01474D02*
X01818D01*
X01575Y01433D02*
Y01439D01*
X0173Y0135D02*
X01743Y01336D01*
X01813*
X0185Y0132D02*
X01863Y01306D01*
Y01297D02*
Y01306D01*
Y01297D02*
X01865Y01295D01*
X01827Y0132D02*
X0185D01*
X01826Y01319D02*
X01827Y0132D01*
X01815Y01319D02*
X01826D01*
X01813Y01317D02*
X01815Y01319D01*
X0192Y01374D02*
X01926D01*
X0191Y0134D02*
Y01364D01*
X0192Y01374*
X0172Y01215D02*
X01722D01*
X01737Y0123*
X01668Y01348D02*
X01727D01*
X0161Y0135D02*
X01631D01*
X01607Y01347D02*
X0161Y0135D01*
X0156Y01316D02*
X01626Y01383D01*
X01679Y01374D02*
X01686Y01381D01*
X0156Y013D02*
Y01316D01*
X01528Y01267D02*
X0156Y013D01*
X0156Y013D02*
X0156Y013D01*
X0185Y01484D02*
X01852Y01482D01*
X01844Y01484D02*
X0185D01*
X01852Y01476D02*
Y01482D01*
X015Y01335D02*
X0151D01*
X01575Y0144D02*
X01575Y01439D01*
X0151Y01335D02*
X0156Y01385D01*
X01569D02*
X01582Y01398D01*
X0156Y01385D02*
X01569D01*
X01582Y01398D02*
Y01417D01*
X01361Y0124D02*
X01505Y01383D01*
Y01403*
X0151Y01407*
X01295Y0124D02*
X01361D01*
X01432Y01342D02*
X01445Y01355D01*
X01808Y01283D02*
X0183D01*
X018Y01275D02*
X01808Y01283D01*
X01654Y01436D02*
X01686Y01403D01*
Y01381D02*
Y01403D01*
X01457Y01267D02*
X01528D01*
X0138Y0119D02*
X01457Y01267D01*
X01603Y01253D02*
X0162Y0127D01*
X0147Y01253D02*
X01603D01*
X0162Y0127D02*
Y013D01*
X01233Y01428D02*
X01265Y01397D01*
Y01381D02*
Y01397D01*
X00518Y01286D02*
X00568D01*
X00494Y0131D02*
X00518Y01286D01*
X0058Y01375D02*
X00584Y0137D01*
X00425Y01285D02*
Y01288D01*
Y01275D02*
Y01285D01*
Y01275D02*
X00425Y01274D01*
Y01252D02*
Y01274D01*
Y01252D02*
X00426Y01251D01*
X00602Y01328D02*
Y01331D01*
Y01328D02*
X00618Y01345D01*
X00584Y0137D02*
X00748D01*
X00544Y0123D02*
X00545Y0123D01*
X00544Y0123D02*
Y01251D01*
X01773Y01371D02*
Y01421D01*
X01746Y01432D02*
X01762D01*
X0173Y01449D02*
X01746Y01432D01*
X01762D02*
X01773Y01421D01*
Y01371D02*
X01787Y01356D01*
X01809*
X0181Y01357*
X01729Y01484D02*
X01733Y0148D01*
X01786Y01458D02*
X01801Y01474D01*
X01786Y01376D02*
Y01458D01*
X0173Y01449D02*
X01735Y01454D01*
X01163Y01295D02*
X01163Y01296D01*
X01163Y01255D02*
Y01295D01*
X00981Y01405D02*
X00993D01*
X00981Y01404D02*
Y01405D01*
X00974Y01397D02*
X00981Y01404D01*
X00967Y01397D02*
X00974D01*
X00965Y01395D02*
X00967Y01397D01*
X0197Y0143D02*
Y0145D01*
Y0143D02*
X01973Y01427D01*
X01866Y01297D02*
Y01305D01*
X01865Y01295D02*
X01866Y01297D01*
X00895Y0138D02*
X0095D01*
X00857Y01341D02*
X00895Y01378D01*
Y0138*
X00857Y01339D02*
Y01341D01*
X00855Y01336D02*
X00857Y01339D01*
X00855Y01335D02*
Y01336D01*
X01259Y01359D02*
X01265Y01365D01*
X01259Y01359D02*
Y01359D01*
Y01359D02*
X0126Y01358D01*
Y01354D02*
Y01358D01*
X01575Y01439D02*
X01576Y01438D01*
X01575Y01424D02*
X01582Y01417D01*
X01575Y01424D02*
Y01432D01*
X01575Y01433*
X01532Y01435D02*
X0156Y01407D01*
X01502Y01435D02*
X01532D01*
X0149Y01422D02*
X01502Y01435D01*
X0126Y01354D02*
X01261Y01353D01*
X0137Y0119D02*
X0138D01*
X0169Y0149D02*
X01696D01*
X01701Y01485*
X01265Y01365D02*
Y01381D01*
X00912Y0147D02*
X00927Y01455D01*
X00908Y0147D02*
X00912D01*
X00927Y01455D02*
X00974D01*
X00986Y01443*
X00965Y01407D02*
X00968Y01409D01*
X0096Y01407D02*
X00965D01*
X00993Y01405D02*
X00994Y01404D01*
X00958Y01405D02*
X0096Y01407D01*
X00908Y01405D02*
X00958D01*
X00839Y01388D02*
Y0139D01*
X00813Y0147D02*
X00815D01*
X00809Y01466D02*
X00813Y0147D01*
X0161Y01407D02*
X01614Y01412D01*
X00445Y01215D02*
X00445Y01215D01*
Y01251*
X00563Y01268D02*
X00565Y0127D01*
X00563Y01251D02*
Y01268D01*
X00781Y0135D02*
X00799Y01368D01*
X0081Y0144D02*
X00815D01*
X00809Y0144D02*
X0081Y0144D01*
X00809Y0144D02*
X00809D01*
X00799Y01368D02*
Y01368D01*
X00818Y01366D02*
X00822D01*
X00748Y0137D02*
X00753Y01365D01*
X00775*
X00822Y01366D02*
X00834Y01378D01*
X00776Y0135D02*
X00781D01*
X0074Y01313D02*
X00776Y0135D01*
X00839Y01388D02*
X0084Y01387D01*
X01075Y01391D02*
Y01393D01*
X01073Y01395D02*
X01075Y01393D01*
X01073Y01395D02*
Y01415D01*
X01612Y01477D02*
X01625Y0149D01*
X01612Y0146D02*
Y01477D01*
X0161Y01457D02*
X01612Y0146D01*
X01238Y0124D02*
X01255D01*
X01235Y01243D02*
X01238Y0124D01*
X01851Y01376D02*
X01852Y01375D01*
Y01374D02*
Y01375D01*
Y01374D02*
X01855Y01371D01*
Y0137D02*
Y01371D01*
X01813Y01376D02*
X01851D01*
X0095Y0138D02*
X00965Y01395D01*
X01089Y0146D02*
X0109D01*
X01397Y01342D02*
X01432D01*
X00426Y01461D02*
Y01468D01*
X00302Y01225D02*
X00306Y0122D01*
X00298Y01229D02*
X00302Y01225D01*
X0029Y01235D02*
X00291Y01233D01*
X00293*
X00297Y01229*
X00298*
X00306Y0122D02*
Y0122D01*
X0032Y0135D02*
X00335Y01365D01*
X00438Y0133D02*
X00475D01*
X00425Y01343D02*
X00438Y0133D01*
X00425Y01343D02*
Y01427D01*
X0074Y0131D02*
Y01313D01*
X00475Y0133D02*
X00494Y0131D01*
X00965Y01223D02*
X00998Y0119D01*
X0178Y0149D02*
X01838D01*
X01844Y01484*
X01884Y01219D02*
Y01295D01*
X01865Y012D02*
X01884Y01219D01*
X01815Y012D02*
X01865D01*
X01745Y01346D02*
X01748D01*
X01926Y01374D02*
Y01374D01*
X01928Y01376*
X01936*
X0183Y01283D02*
X01835Y01288D01*
X01843*
X01845Y0129*
Y01295*
X01936Y01271D02*
Y01295D01*
X01923Y01271D02*
X01936D01*
X01908Y01286D02*
X01923Y01271D01*
X01906Y01286D02*
X01908D01*
X01904Y01288D02*
X01906Y01286D01*
X01904Y01288D02*
Y01295D01*
X01793Y01221D02*
X01815Y012D01*
X01791Y01221D02*
X01793D01*
X01783Y0123D02*
X01791Y01221D01*
X01733Y0148D02*
X01738Y01484D01*
X01729Y01475D02*
X01733Y0148D01*
X01735Y01478*
Y01454D02*
Y01478D01*
X01729Y01475D02*
Y01484D01*
X01738D02*
Y01485D01*
X0088Y01335D02*
X00883Y01331D01*
X00885Y0134D02*
X0089D01*
X00667Y01393D02*
X00691D01*
X00692Y01393*
X0088Y013D02*
X00883Y01303D01*
Y01313*
X00618Y01345D02*
X00665D01*
X00661Y01398D02*
X00667Y01393D01*
X00658Y01398D02*
X00661D01*
X00834Y01382D02*
X0084Y01387D01*
X00834Y01378D02*
Y01382D01*
X00883Y01313D02*
Y01331D01*
X0088Y01335D02*
X00885Y0134D01*
X0065Y01407D02*
X00658Y01398D01*
X0065Y01407D02*
Y0141D01*
X0127Y01265D02*
X01295Y0124D01*
G54D17*
X01266Y01461D03*
X01233Y01428D03*
G54D18*
X00695Y01466D03*
Y0144D03*
Y01415D03*
Y01389D03*
X00809D03*
Y01415D03*
Y0144D03*
Y01466D03*
G54D19*
X00752Y01427D03*
G54D20*
X00336Y01295D03*
Y0128D03*
X0032Y01295D03*
Y0128D03*
X00305Y01295D03*
Y0128D03*
G54D21*
X0173Y01449D03*
Y0135D03*
G54D22*
X0161Y01457D03*
Y01407D03*
X0156Y01457D03*
Y01407D03*
X0151Y01457D03*
Y01407D03*
G54D23*
X0064Y01456D03*
Y01413D03*
G54D24*
X00335Y01365D03*
X00264D03*
G54D25*
X00255Y01247D03*
Y01302D03*
G54D26*
X00343Y0122D03*
X00306D03*
X01632Y01348D03*
X01668D03*
G54D27*
X01701Y01485D03*
X01738D03*
G54D28*
X00938Y01201D03*
Y01288D03*
X00651Y01201D03*
Y01288D03*
G54D29*
X00883Y01313D03*
X00824D03*
X00706D03*
G54D30*
X00563Y01468D03*
Y01251D03*
X00544Y01468D03*
Y01251D03*
X00524Y01468D03*
Y01251D03*
X00504Y01468D03*
Y01251D03*
X00485Y01468D03*
Y01251D03*
X00465Y01468D03*
Y01251D03*
X00445Y01468D03*
Y01251D03*
X00426Y01468D03*
Y01251D03*
G54D31*
X01813Y01297D03*
X01936Y01295D03*
Y01317D03*
Y01336D03*
Y01356D03*
Y01376D03*
Y01396D03*
Y01415D03*
Y01435D03*
Y01455D03*
Y01475D03*
X01813Y01477D03*
Y01455D03*
Y01435D03*
Y01415D03*
Y01396D03*
Y01376D03*
Y01356D03*
Y01336D03*
Y01317D03*
G54D32*
X01845Y01295D03*
X01865D03*
X01884D03*
X01904D03*
Y01477D03*
X01884D03*
X01865D03*
X01845D03*
G54D33*
X01235Y01197D03*
Y01243D03*
X01973Y01473D03*
Y01427D03*
G54D34*
X01783Y0123D03*
X01737D03*
X01117Y01255D03*
X01163D03*
X01068D03*
X01022D03*
X01073Y0138D03*
X01027D03*
X01073Y01415D03*
X01027D03*
X00862Y01405D03*
X00908D03*
X00862Y0144D03*
X00908D03*
X00862Y0147D03*
X00908D03*
G54D35*
X01205Y0131D03*
X01206Y01346D03*
X01205Y0138D03*
Y0141D03*
G54D62*
X0186Y01352D02*
X01863D01*
X00598Y01288D02*
X006D01*
X0165Y01328D02*
X01679Y013D01*
X0165Y01328D02*
Y01364D01*
X01929Y01455D02*
X01933Y01452D01*
X01905Y01455D02*
X01929D01*
X01897Y01447D02*
X01905Y01455D01*
X01325Y0142D02*
X01326Y01421D01*
X01299Y01391D02*
Y0142D01*
Y01391D02*
X01328Y01361D01*
X01299Y0142D02*
X01315Y01436D01*
X01328Y01329D02*
Y01361D01*
X01897Y01386D02*
Y01447D01*
X01863Y01352D02*
X01897Y01386D01*
X01727Y01348D02*
X0173Y0135D01*
X01651Y01366D02*
X0167D01*
X0165Y01364D02*
X01651Y01366D01*
X0167D02*
X01679Y01374D01*
X0119Y0119D02*
X01235D01*
X01369Y0126D02*
X01468Y01359D01*
X01355Y012D02*
X01475Y0132D01*
Y01335*
X0132Y0126D02*
X01369D01*
X01468Y01359D02*
Y01365D01*
X01486Y01382*
X01601Y01436D02*
X01654D01*
X01262Y01457D02*
X01266Y01461D01*
X01222Y01457D02*
X01262D01*
X01205Y0144D02*
X01222Y01457D01*
X01228Y01465D02*
X01246Y01482D01*
X01108Y01427D02*
X01153D01*
X01191Y01465D02*
X01228D01*
X01153Y01427D02*
X01191Y01465D01*
X01188Y01473D02*
X01224D01*
X01115Y01435D02*
X0115D01*
X01188Y01473*
X01224D02*
X01242Y0149D01*
X01295*
X00988Y01498D02*
X01299D01*
X0097Y0148D02*
X00988Y01498D01*
X01299D02*
X01316Y01481D01*
X01246Y01482D02*
X01292D01*
X01099Y01436D02*
X01108Y01427D01*
X01053Y01436D02*
X01099D01*
X0104Y0145D02*
X01053Y01436D01*
X01296Y01473D02*
Y01478D01*
X01292Y01482D02*
X01296Y01478D01*
X01295Y0149D02*
X01308Y01478D01*
X0132Y01455D02*
Y01463D01*
X01308Y01474D02*
X0132Y01463D01*
X01308Y01474D02*
Y01478D01*
X01316Y01478D02*
X01333Y01461D01*
X01316Y01478D02*
Y01481D01*
X01326Y01421D02*
X01331D01*
X01206Y01488D02*
X0121Y01485D01*
X0122*
X01123Y01488D02*
X01206D01*
X01367Y01436D02*
X01376Y01445D01*
X01327Y01436D02*
X01367D01*
X01326Y01436D02*
X01327Y01436D01*
X01315Y01436D02*
X01326D01*
X01229Y01395D02*
X0123D01*
X01214Y0141D02*
X01229Y01395D01*
X01205Y0141D02*
X01214D01*
X01115Y01329D02*
X01117D01*
X01268*
X01034Y01486D02*
X01121D01*
X01145Y01475D02*
X0117D01*
X01121Y01486D02*
X01123Y01488D01*
X0092Y015D02*
X00939Y01481D01*
X00415Y015D02*
X0092D01*
X004Y01485D02*
X00415Y015D01*
X0057Y01325D02*
Y01368D01*
X00568Y0137D02*
X0057Y01368D01*
X00568Y0137D02*
Y01381D01*
X00568Y01381*
Y01399*
X0056Y01309D02*
Y01384D01*
X0056Y01385*
Y01394*
X00546Y01409D02*
X0056Y01394D01*
X00547Y0139D02*
X00548D01*
X00524Y01443D02*
X00568Y01399D01*
X00546Y01409D02*
Y0141D01*
X00504Y01451D02*
X00546Y0141D01*
X00492Y01444D02*
X00547Y0139D01*
X00425Y01435D02*
X00425Y01434D01*
Y01427D02*
Y01434D01*
X00485Y01452D02*
X00489Y01448D01*
X00492Y01444D02*
Y01446D01*
X0049Y01448D02*
X00492Y01446D01*
X00489Y01448D02*
X0049D01*
X0056Y01309D02*
X00584Y01285D01*
X00504Y01451D02*
Y01468D01*
X00524Y01443D02*
Y01468D01*
X0057Y01325D02*
X0058Y01315D01*
X00584Y01284D02*
Y01285D01*
X00723Y01351D02*
X00735Y0134D01*
X00528Y01218D02*
X0058D01*
X00528D02*
Y01248D01*
X00524Y01251D02*
X00528Y01248D01*
X00465Y0127D02*
Y01275D01*
X00395Y01235D02*
Y0129D01*
X0044Y013D02*
X00465Y01275D01*
X0044Y013D02*
Y01315D01*
X0058Y01218D02*
X00585Y01222D01*
X01011Y01329D02*
X01115D01*
X01117Y01327*
Y01255D02*
Y01327D01*
X01392Y0146D02*
X01471D01*
X01377Y01445D02*
X01392Y0146D01*
X01226Y01351D02*
X01231D01*
X01063Y01363D02*
X01234D01*
X01055Y01355D02*
X01063Y01363D01*
X01009Y01355D02*
X01055D01*
X01Y01365D02*
X01009Y01355D01*
X01376Y01458D02*
Y01467D01*
X01378Y01469*
Y01476*
X01386Y01484*
X01394*
X01395Y01485*
X00657Y01315D02*
X0068Y01338D01*
X01532Y0147D02*
X0156D01*
X0121Y01315D02*
X0123D01*
X01205Y0131D02*
X0121Y01315D01*
X01325Y01329D02*
X01328D01*
X01309Y01312D02*
X01325Y01329D01*
X01284Y01312D02*
X01309D01*
X01268Y01329D02*
X01284Y01312D01*
X00978Y01363D02*
X01011Y01329D01*
X01206Y01346D02*
X01209Y01349D01*
X01224*
X00974Y01363D02*
X00978D01*
X01224Y01349D02*
X01226Y01351D01*
X01234Y01363D02*
X01235Y01363D01*
X01242*
X01227Y01375D02*
X0123D01*
X01225Y01377D02*
X01227Y01375D01*
X01208Y01377D02*
X01225D01*
X01205Y0138D02*
X01208Y01377D01*
X01242Y01363D02*
X01243Y01365D01*
X0115Y01205D02*
X0117Y01225D01*
X00997Y01239D02*
X01011Y01225D01*
X00993Y01229D02*
X01012Y0121D01*
X01085Y01232D02*
X0109Y01227D01*
X01085Y01232D02*
Y0124D01*
X01078Y01246D02*
X01085Y0124D01*
X0109Y01225D02*
Y01227D01*
X01089Y01225D02*
X0109Y01225D01*
X01098Y0121D02*
X01113Y01225D01*
X01012Y0121D02*
X01098D01*
X01108Y01205D02*
X0115D01*
X01103Y012D02*
X01108Y01205D01*
X01004Y012D02*
X01103D01*
X01103Y01446D02*
X01115Y01435D01*
X01064Y01446D02*
X01103D01*
X01127Y01457D02*
X01145Y01475D01*
X01114Y01457D02*
X01127D01*
X01444Y01374D02*
X0147Y014D01*
X01486Y01419D02*
X0149Y01422D01*
X01486Y01382D02*
Y01419D01*
X01588Y01466D02*
X01595Y01473D01*
X01588Y01449D02*
Y01466D01*
Y01449D02*
X01601Y01436D01*
X01595Y01473D02*
Y0149D01*
X0156Y01457D02*
Y0147D01*
X01521Y01481D02*
X01532Y0147D01*
X01496Y01481D02*
X01521D01*
X01523Y01498D02*
X01538Y01484D01*
X01516Y01498D02*
X01523D01*
X01538Y01482D02*
Y01484D01*
X01415Y01485D02*
X01415D01*
X01379Y01374D02*
X01444D01*
X01345Y01355D02*
X0136D01*
X0138Y01435D02*
X01423D01*
X01369Y01424D02*
X0138Y01435D01*
X01333Y01424D02*
X01369D01*
X01376Y01445D02*
X01377D01*
X01373Y01455D02*
X01376Y01458D01*
X01372Y01455D02*
X01373D01*
X0136Y01444D02*
X01372Y01455D01*
X0133Y01444D02*
X0136D01*
X01429Y01471D02*
X01486D01*
X01415Y01485D02*
X01429Y01471D01*
X0136Y01355D02*
X01379Y01374D01*
X01013Y01466D02*
X01034Y01486D01*
X00949Y01481D02*
X00964Y01466D01*
X00939Y01481D02*
X00949D01*
X00964Y01466D02*
X01013D01*
X01355Y01465D02*
X01366Y01476D01*
Y01481*
X01331Y01421D02*
X01333Y01424D01*
X0132Y01455D02*
X0133Y01444D01*
X01333Y01461D02*
X01335D01*
X00416Y01213D02*
X00417D01*
X00568Y01286D02*
X00629Y01225D01*
X00675*
X00584Y01284D02*
X00633Y01235D01*
X00585Y01245D02*
D01*
X0058Y01315D02*
X00657D01*
X00604Y01285D02*
X00636Y01253D01*
X00603Y01285D02*
X00604D01*
X006Y01288D02*
X00603Y01285D01*
X00633Y01235D02*
X00679D01*
X01015Y0145D02*
X01015Y0145D01*
X01486Y01471D02*
X01496Y01481D01*
X01473Y01457D02*
X0151D01*
X01471Y0146D02*
X01473Y01457D01*
X01383Y01498D02*
X01516D01*
X01366Y01481D02*
X01383Y01498D01*
X01046Y01463D02*
X01064Y01446D01*
X01034Y01463D02*
X01046D01*
X01026Y01455D02*
X01034Y01463D01*
X01026Y01452D02*
Y01455D01*
X01023Y0145D02*
X01026Y01452D01*
X01015Y0145D02*
X01023D01*
X00992Y01365D02*
X01D01*
X00977Y0138D02*
X00992Y01365D01*
X00965Y01395D02*
X00977Y01382D01*
Y0138D02*
Y01382D01*
X01084Y01473D02*
X01097D01*
X01076Y01466D02*
X01084Y01473D01*
X01075Y01466D02*
X01076D01*
X0107Y0146D02*
Y01461D01*
X01075Y01466*
X01097Y01473D02*
X01114Y01457D01*
X01285Y01295D02*
X0132Y0126D01*
X0127Y01295D02*
X01285D01*
X01307Y012D02*
X01355D01*
X0112Y01485D02*
X01121Y01486D01*
X0112Y01471D02*
Y01485D01*
X01076Y01246D02*
X01078D01*
X01068Y01255D02*
X01076Y01246D01*
X0037Y01485D02*
X004D01*
X00494Y0131D02*
Y0131D01*
X00679Y01235D02*
X00715Y01199D01*
X00675Y01225D02*
X00711Y01189D01*
X00715Y01199D02*
X00754D01*
X00677Y01253D02*
X00721Y01209D01*
X00636Y01253D02*
X00677D01*
X00711Y01189D02*
X00759D01*
X0044Y0135D02*
X00475Y01385D01*
Y01425*
X00395Y01235D02*
X00416Y01213D01*
X00759Y01189D02*
X00779Y0121D01*
X00795*
X00914Y01226D02*
X00915Y01225D01*
X00911Y01226D02*
X00914D01*
X00884Y01199D02*
X00911Y01226D01*
X00835Y01199D02*
X00884D01*
X00805Y01229D02*
X00835Y01199D01*
X00784Y01229D02*
X00805D01*
X00754Y01199D02*
X00784Y01229D01*
X00585Y01222D02*
Y01245D01*
X00721Y01209D02*
X0075D01*
X0078Y01239*
X00809*
X00839Y01209*
X00868*
X00889Y0123*
Y01244*
X00909Y01263*
X00919*
X0092Y01264*
X00919Y01253D02*
X00964D01*
X00905Y0124D02*
X00919Y01253D01*
X00905Y0124D02*
X00905D01*
X00925D02*
X00964D01*
X00964Y01253D02*
X00989Y01229D01*
X0092Y01264D02*
X00968D01*
X00993Y01239*
X00997*
X00964Y0124D02*
X01004Y012D01*
X00989Y01229D02*
X00993D01*
X01011Y01225D02*
X01089D01*
X00964Y01223D02*
X00965D01*
X00998Y0119D02*
X0114D01*
X01113Y01225D02*
X0113D01*
X01933Y01452D02*
X01936Y01455D01*
X01369Y01189D02*
X0137Y0119D01*
X01235Y01189D02*
X01369D01*
X01305Y01202D02*
Y01205D01*
Y01202D02*
X01307Y012D01*
X01235Y0119D02*
X01235Y01189D01*
X0119Y0123D02*
X01205Y01245D01*
X0119Y0119D02*
Y0123D01*
X0196Y01354D02*
X01975Y0134D01*
X01936Y01354D02*
X0196D01*
X01887Y01485D02*
X01896Y01495D01*
X01887Y01477D02*
Y01485D01*
X01884Y01475D02*
X01887Y01477D01*
X01896Y01495D02*
X01953D01*
X01975Y01473*
X007Y01351D02*
X00723D01*
X00695Y01415D02*
X007D01*
X00689Y01351D02*
X007D01*
X0068Y01343D02*
X00689Y01351D01*
X0068Y01338D02*
Y01343D01*
X00876Y0149D02*
X00886Y0148D01*
X0071Y0149D02*
X00876D01*
X00702Y01482D02*
X0071Y0149D01*
X00886Y01457D02*
Y0148D01*
X00702Y01471D02*
Y01482D01*
X007Y0147D02*
X00702Y01471D01*
X00961Y01225D02*
X00964Y01223D01*
X00915Y01225D02*
X00961D01*
X0114Y0119D02*
X0119D01*
X00886Y01457D02*
X00895Y01447D01*
X009*
X00908Y0144*
G54D63*
X00273Y01327D02*
X0029Y0131D01*
X00273Y01327D02*
Y01341D01*
X00262Y0131D02*
X0029D01*
X00255Y01302D02*
X00262Y0131D01*
G54D64*
X00823Y0141D02*
X00862D01*
X00815Y01444D02*
X00857D01*
X00862Y0144*
X00815Y0147D02*
X00862D01*
G54D65*
X00284Y01242D02*
X00293Y01233D01*
X0028Y01386D02*
X00286D01*
X00264Y0137D02*
X0028Y01386D01*
X00264Y01365D02*
Y0137D01*
X00297Y01229D02*
X00301Y01225D01*
X003Y01257D02*
Y01275D01*
X00284Y01242D02*
X003Y01257D01*
X00255Y01247D02*
X0026Y01242D01*
X00284*
X00301Y01225D02*
X00302D01*
X0032Y01295D02*
Y0135D01*
G54D66*
X00314Y01415D02*
X0035D01*
X00286Y01386D02*
X00314Y01415D01*
G54D67*
X01738Y013D03*
X01679D03*
X01501Y01298D03*
X0156Y013D03*
X0162D03*
G54D68*
X0166Y01392D03*
Y01472D03*
X0146Y01432D03*
G54D69*
X00854Y01245D03*
X00735D03*
G54D70*
X01397Y01342D03*
X01347Y01392D03*
X01297Y01342D03*
X01347Y01292D03*
G54D71*
X0184Y01245D03*
G54D72*
X0194Y01245D03*
G54D73*
X0186Y01352D03*
X01913Y01443D03*
X01325Y0142D03*
X0185Y0132D03*
X018Y01275D03*
X0191Y0134D03*
X01855Y01405D03*
X0172Y01215D03*
X01626Y01383D03*
X01625Y01405D03*
X0161Y01345D03*
X015Y01335D03*
X01475D03*
X01445Y01355D03*
X01205Y0144D03*
X01296Y01473D03*
X0122Y01485D03*
X0123Y01395D03*
X0128Y0144D03*
X0117Y01475D03*
X00545Y01485D03*
X00548Y0139D03*
X0058Y01375D03*
X00425Y01435D03*
X00602Y01331D03*
X00505Y01235D03*
X00485Y0124D03*
X00395Y0129D03*
X00545Y0123D03*
X00565Y0127D03*
X01786Y01376D03*
X00991Y01386D03*
X01231Y01351D03*
X0123Y01315D03*
Y01375D03*
X01243Y01365D03*
X0117Y01225D03*
X0109Y01225D03*
X0035Y01415D03*
X0147Y014D03*
X01261Y01353D03*
X01576Y01438D03*
X01605Y0138D03*
X01555Y01485D03*
X01538Y01482D03*
X01415Y01485D03*
X01435D03*
X01425Y01438D03*
X01345Y01355D03*
X0169Y0149D03*
X00986Y01443D03*
X00968Y01409D03*
X0081Y01385D03*
X00839Y0139D03*
X00635Y01485D03*
X00815Y0147D03*
X01355Y0146D03*
X01395Y01485D03*
X01335Y01461D03*
X01535Y0138D03*
X00445Y01215D03*
X00417Y01213D03*
X0038Y0122D03*
X00598Y0129D03*
X00585Y01245D03*
X00815Y0144D03*
X0044Y01315D03*
X0097Y0148D03*
X01015Y0145D03*
X00855Y01335D03*
X00818Y01366D03*
X00775Y01365D03*
X00735Y0134D03*
X00799Y01368D03*
X00805Y0131D03*
X0076Y0138D03*
X01105Y01345D03*
X01165D03*
X01135D03*
Y01391D03*
X01105D03*
X01075D03*
X01163D03*
X01075Y01341D03*
X01135Y01296D03*
X01105D03*
X01075D03*
X01163D03*
X01625Y0149D03*
X0068Y01311D03*
X01255Y0124D03*
X01855Y0137D03*
X0197Y0145D03*
X00974Y01363D03*
X00994Y01404D03*
X0104Y0145D03*
X0107Y0146D03*
X01089D03*
X01265Y01381D03*
X0112Y01471D03*
X0039Y01455D03*
X0026D03*
X0037Y01485D03*
X00355Y013D03*
X0029Y01235D03*
X0044Y0135D03*
X00475Y01425D03*
X00795Y0121D03*
X00905Y0124D03*
X00925D03*
X01Y01255D03*
X0047Y013D03*
X0178Y0149D03*
X01595D03*
X00865Y01415D03*
X00325Y0143D03*
X01305Y01205D03*
X01205Y01245D03*
X01975Y0134D03*
X00695Y01415D03*
X0089Y0134D03*
X00665Y01345D03*
X0127Y01295D03*
X0074Y0131D03*
X0113Y01225D03*
X0147Y01253D03*
X0127Y01265D03*
G54D74*
X00445Y01485D03*
G54D75*
X00425Y01285D03*
X0035Y0128D03*
M02*