%FSTAX23Y23*%
%MOIN*%
%SFA1B1*%

%IPPOS*%
%AMD48*
4,1,4,-0.015600,0.034600,-0.020000,-0.032300,0.015600,-0.034600,0.020000,0.032300,-0.015600,0.034600,0.0*
%
%AMD49*
4,1,4,-0.024900,-0.018100,0.022400,-0.021200,0.024900,0.018100,-0.022400,0.021200,-0.024900,-0.018100,0.0*
%
%AMD50*
4,1,4,0.018300,0.011600,-0.020700,0.006400,-0.018300,-0.011600,0.020700,-0.006400,0.018300,0.011600,0.0*
%
%AMD51*
4,1,4,0.015500,0.011200,-0.017900,0.006800,-0.015500,-0.011200,0.017900,-0.006800,0.015500,0.011200,0.0*
%
%AMD52*
4,1,4,0.019000,0.014400,-0.022100,0.009000,-0.019000,-0.014400,0.022100,-0.009000,0.019000,0.014400,0.0*
%
%ADD17C,0.070000*%
%ADD18R,0.070000X0.070000*%
%ADD19O,0.059200X0.059200*%
%ADD20C,0.008000*%
%ADD21C,0.063100*%
%ADD22C,0.067100*%
%ADD23R,0.067100X0.067100*%
%ADD24C,0.070900*%
%ADD47R,0.063100X0.031600*%
G04~CAMADD=48~9~0.0~0.0~671.0~356.0~0.0~0.0~0~0.0~0.0~0.0~0.0~0~0.0~0.0~0.0~0.0~0~0.0~0.0~0.0~86.3~400.0~691.0*
%ADD48D48*%
G04~CAMADD=49~9~0.0~0.0~474.0~395.0~0.0~0.0~0~0.0~0.0~0.0~0.0~0~0.0~0.0~0.0~0.0~0~0.0~0.0~0.0~176.3~498.0~423.0*
%ADD49D49*%
G04~CAMADD=50~9~0.0~0.0~395.0~182.0~0.0~0.0~0~0.0~0.0~0.0~0.0~0~0.0~0.0~0.0~0.0~0~0.0~0.0~0.0~7.5~414.0~231.0*
%ADD50D50*%
G04~CAMADD=51~9~0.0~0.0~336.0~182.0~0.0~0.0~0~0.0~0.0~0.0~0.0~0~0.0~0.0~0.0~0.0~0~0.0~0.0~0.0~7.5~358.0~223.0*
%ADD51D51*%
G04~CAMADD=52~9~0.0~0.0~415.0~237.0~0.0~0.0~0~0.0~0.0~0.0~0.0~0~0.0~0.0~0.0~0.0~0~0.0~0.0~0.0~7.5~442.0~287.0*
%ADD52D52*%
%ADD53R,0.039500X0.043400*%
%ADD54R,0.029700X0.029700*%
%ADD55R,0.029700X0.029700*%
%ADD56R,0.039500X0.039500*%
%LNpower_pcb-1*%
%LPD*%
G54D17*
X00877Y00811D03*
G54D18*
X00777Y00811D03*
G54D19*
X01492Y00539D03*
X01524Y00594D03*
X01461D03*
X01398D03*
X01429Y00539D03*
G54D20*
X01559Y00547D03*
X01362D03*
G54D21*
X01097Y00322D03*
X0098Y0033D03*
G54D22*
X01575Y0039D03*
G54D23*
X01575Y0029D03*
G54D24*
X00627Y0075D03*
G54D47*
X01285Y00792D03*
Y00717D03*
X01384D03*
Y00755D03*
Y00792D03*
G54D48*
X01131Y00389D03*
X01014Y00396D03*
X00955Y004D03*
G54D49*
X01185Y0036D03*
X01179Y00273D03*
X00898Y00378D03*
X00892Y00292D03*
G54D50*
X00388Y00505D03*
X00385Y00529D03*
X00381Y00552D03*
X00378Y00575D03*
X00375Y00599D03*
X00372Y00622D03*
X00369Y00646D03*
X00366Y00669D03*
X00363Y00693D03*
X0036Y00716D03*
X00357Y00739D03*
X00354Y00763D03*
G54D51*
X00498Y00532D03*
X00495Y00555D03*
X00492Y00579D03*
X00489Y00602D03*
X00486Y00625D03*
X00483Y00649D03*
X0048Y00672D03*
X00477Y00696D03*
X00474Y00719D03*
X0047Y00743D03*
X00467Y00766D03*
G54D52*
X00404Y0048D03*
X00363Y00792D03*
G54D53*
X01025Y00695D03*
X01062Y00774D03*
X00987D03*
G54D54*
X00997Y00625D03*
X01043D03*
X01218Y00715D03*
X01172D03*
Y00795D03*
X01218D03*
X01538Y0085D03*
X01492D03*
G54D55*
X0146Y00727D03*
Y00773D03*
G54D56*
X0153Y00789D03*
Y0073D03*
M02*