G04*
G04 #@! TF.GenerationSoftware,Altium Limited,Altium Designer,19.1.5 (86)*
G04*
G04 Layer_Physical_Order=2*
G04 Layer_Color=16440176*
%FSLAX25Y25*%
%MOIN*%
G70*
G01*
G75*
%ADD10C,0.01000*%
%ADD41C,0.01600*%
%ADD43C,0.02400*%
%ADD45C,0.02000*%
%ADD46C,0.03000*%
D10*
X260210Y39303D02*
X273683D01*
X274269Y31471D02*
X276200Y29541D01*
Y29300D02*
Y29541D01*
X274269Y31471D02*
Y38717D01*
X273683Y39303D02*
X274269Y38717D01*
D41*
X-257717Y33716D02*
D03*
X-251700Y41200D02*
D03*
X276200Y29300D02*
D03*
X251410Y36290D02*
D03*
X253898Y32991D02*
D03*
X-250850Y35089D02*
D03*
D43*
X241686Y49341D02*
D03*
D45*
X-257717Y33716D02*
Y35177D01*
X-259155Y39898D02*
Y49955D01*
Y39898D02*
X-258370Y39113D01*
X-252622Y41200D02*
X-251700D01*
X-258370Y35830D02*
Y39113D01*
Y35830D02*
X-257717Y35177D01*
X-256342Y40581D02*
X-250850Y35089D01*
X-256342Y40581D02*
Y48407D01*
X-253941Y42320D02*
X-252722Y41100D01*
X-253941Y42320D02*
Y46514D01*
X-54783Y45091D02*
X-51257Y41564D01*
X-56713Y46592D02*
X-54783Y45091D01*
X-51257Y41564D02*
X-42894D01*
X55616Y41423D02*
X58802Y44304D01*
X53281Y38468D02*
X55616Y41423D01*
X58802Y44304D02*
X71702Y52668D01*
X-54884Y41304D02*
X-52515Y38269D01*
X-58003Y43561D02*
X-54884Y41304D01*
X-56713Y46592D02*
Y46592D01*
X-57348Y46592D02*
X-56713D01*
X-58376Y47598D02*
X-57348Y46592D01*
X-62158Y45245D02*
X-58003Y43561D01*
X-68767Y54955D02*
X-58376Y47598D01*
X-74831Y58615D02*
X-68767Y54955D01*
X51879Y41763D02*
X55491Y45375D01*
X43660Y41763D02*
X51879D01*
X58170Y47577D02*
X67661Y54024D01*
X55491Y45375D02*
X58170Y47577D01*
X71702Y52668D02*
X80260Y58141D01*
X67661Y54024D02*
X75597Y58814D01*
X42079Y38468D02*
X53281D01*
X51617Y45207D02*
X52906Y46495D01*
X46104Y45207D02*
X51617D01*
X245816Y63020D02*
X246748Y62545D01*
X244007Y64068D02*
X245816Y63020D01*
X246748Y61667D02*
Y62545D01*
Y61667D02*
X260210Y48204D01*
X236740Y63203D02*
X242279Y61556D01*
X247379Y56456D01*
X247983D01*
X260210Y39303D02*
Y48204D01*
X37929Y53274D02*
X40747Y50457D01*
X40854D01*
X52906Y46593D02*
X53518Y47205D01*
X40854Y50457D02*
X46104Y45207D01*
X52906Y46495D02*
Y46593D01*
X209361Y74525D02*
X227829Y69057D01*
X93886Y71208D02*
X100166Y73659D01*
X63770Y54812D02*
X69074Y58316D01*
X122492Y80051D02*
X129574Y81367D01*
X158711Y83168D02*
X164885Y83173D01*
X187869Y80193D02*
X195078Y78575D01*
X129574Y81367D02*
X137508Y82455D01*
X81353Y65372D02*
X87710Y68495D01*
X58609Y51108D02*
X63770Y54812D01*
X87710Y68495D02*
X93886Y71208D01*
X69074Y58316D02*
X75138Y61976D01*
X107776Y76232D02*
X115489Y78420D01*
X100166Y73659D02*
X107776Y76232D01*
X202503Y76557D02*
X204772Y75884D01*
X197558Y77941D02*
X200028Y77270D01*
X227827Y68910D02*
X236253Y66373D01*
X53518Y47205D02*
X53591D01*
X58609Y51108D01*
X75138Y61976D02*
X81353Y65372D01*
X115489Y78420D02*
X122492Y80051D01*
X145488Y83146D02*
X152099Y83160D01*
X137508Y82455D02*
X145488Y83146D01*
X152099Y83160D02*
X158711Y83168D01*
X164885Y83173D02*
X169111Y82871D01*
X180598Y81492D02*
X187869Y80193D01*
X173327Y82460D02*
X180598Y81492D01*
X169111Y82871D02*
X173327Y82460D01*
X195078Y78575D02*
X197558Y77941D01*
X204772Y75884D02*
X207040Y75212D01*
X236281Y66364D02*
X244007Y64068D01*
X200028Y77270D02*
X202503Y76557D01*
X227827Y68910D02*
X227829Y69057D01*
X207040Y75212D02*
X209361Y74525D01*
X236253Y66373D02*
X236281Y66364D01*
X251410Y36290D02*
X253173Y38054D01*
X253898Y32991D02*
X260210Y39303D01*
X209822Y68143D02*
X226291Y63267D01*
X233329Y56228D01*
Y56140D02*
Y56228D01*
Y56140D02*
X240052Y49417D01*
X241610D01*
X241686Y49341D01*
X253173Y38956D02*
X255678Y41461D01*
X253173Y38054D02*
Y38956D01*
X247983Y56456D02*
X255678Y48760D01*
Y41461D02*
Y48760D01*
X37251Y43295D02*
X37450Y43096D01*
X42079Y38468D01*
X37446Y47978D02*
X43660Y41763D01*
X80260Y58141D02*
X81814Y58990D01*
X209820Y71363D02*
X228287Y65895D01*
X94345Y68046D02*
X100625Y70497D01*
X122950Y76889D02*
X130033Y78205D01*
X188328Y77031D02*
X195537Y75414D01*
X130034Y74985D02*
X137969Y76073D01*
X159171Y76787D02*
X165345Y76791D01*
X94346Y64826D02*
X100627Y67277D01*
X159169Y80006D02*
X165343Y80011D01*
X130033Y78205D02*
X137967Y79294D01*
X188330Y73812D02*
X195538Y72193D01*
X122952Y73669D02*
X130034Y74985D01*
X88169Y65333D02*
X94345Y68046D01*
X75597Y58814D02*
X81812Y62210D01*
X81814Y58990D02*
X88171Y62113D01*
X115948Y75257D02*
X122950Y76889D01*
X108237Y69850D02*
X115949Y72038D01*
X100627Y67277D02*
X108237Y69850D01*
X137969Y76073D02*
X145949Y76765D01*
X152560Y76778D02*
X159171Y76787D01*
X145949Y76765D02*
X152560Y76778D01*
X181057Y78330D02*
X188328Y77031D01*
X169571Y76489D02*
X173787Y76078D01*
X165345Y76791D02*
X169571Y76489D01*
X173787Y76078D02*
X181059Y75110D01*
X202963Y70175D02*
X205232Y69503D01*
X207501Y68831D01*
X81812Y62210D02*
X88169Y65333D01*
X88171Y62113D02*
X94346Y64826D01*
X108235Y73070D02*
X115948Y75257D01*
X100625Y70497D02*
X108235Y73070D01*
X115949Y72038D02*
X122952Y73669D01*
X137967Y79294D02*
X145947Y79984D01*
X152558Y79997D01*
X159169Y80006D01*
X173785Y79298D02*
X181057Y78330D01*
X169569Y79709D02*
X173785Y79298D01*
X165343Y80011D02*
X169569Y79709D01*
X181059Y75110D02*
X188330Y73812D01*
X195537Y75414D02*
X198017Y74779D01*
X200487Y74108D01*
X205230Y72723D02*
X207499Y72050D01*
X202962Y73395D02*
X205230Y72723D01*
X195538Y72193D02*
X198019Y71559D01*
X200488Y70888D01*
X228286Y65748D02*
X236711Y63211D01*
X207501Y68831D02*
X209822Y68143D01*
X200487Y74108D02*
X202962Y73395D01*
X200488Y70888D02*
X202963Y70175D01*
X207499Y72050D02*
X209820Y71363D01*
X228286Y65748D02*
X228287Y65895D01*
X236711Y63211D02*
X236740Y63203D01*
X-252722Y41100D02*
X-252622Y41200D01*
X-256342Y48407D02*
X-247216Y57532D01*
X-259155Y49955D02*
X-247374Y61735D01*
Y61962D01*
X-247216Y57532D02*
Y58499D01*
X-253941Y46514D02*
X-244816Y55639D01*
Y56842D01*
X-40441Y50350D02*
X-37624Y53168D01*
X-42894Y41564D02*
X-36680Y47779D01*
X-41312Y38269D02*
X-36485Y43096D01*
X-70936Y52469D02*
X-62158Y45245D01*
X-79494Y57942D02*
X-70936Y52469D01*
X-52515Y38269D02*
X-41312D01*
X-40548Y50350D02*
X-40441D01*
X-53212Y47099D02*
X-52600Y46486D01*
X-45798Y45100D02*
X-40548Y50350D01*
X-51311Y45100D02*
X-45798D01*
X-52600Y46389D02*
X-51311Y45100D01*
X-52600Y46389D02*
Y46486D01*
X-81048Y58791D02*
X-79494Y57942D01*
X-227521Y65696D02*
X-209054Y71164D01*
X-227523Y62476D02*
X-209056Y67944D01*
X-99859Y70298D02*
X-93578Y67847D01*
X-129267Y78007D02*
X-122184Y76690D01*
X-194770Y75215D02*
X-187562Y76833D01*
X-137203Y75875D02*
X-129268Y74787D01*
X-164579Y76592D02*
X-158405Y76588D01*
X-227523Y68950D02*
X-209056Y74418D01*
X-99861Y73552D02*
X-93580Y71101D01*
X-99861Y67078D02*
X-93580Y64627D01*
X-68769Y58209D02*
X-63464Y54705D01*
X-164577Y79812D02*
X-158403Y79808D01*
X-137201Y79095D02*
X-129267Y78007D01*
X-129268Y81261D02*
X-122186Y79944D01*
X-164579Y83066D02*
X-158405Y83062D01*
X-194772Y78469D02*
X-187564Y80087D01*
X-137203Y82349D02*
X-129268Y81261D01*
X-194772Y71995D02*
X-187564Y73613D01*
X-129268Y74787D02*
X-122186Y73470D01*
X-93578Y67847D02*
X-87403Y65134D01*
X-87405Y68388D02*
X-81048Y65265D01*
X-63464Y54705D02*
X-58303Y51002D01*
X-93580Y71101D02*
X-87405Y68388D01*
X-81046Y62011D02*
X-74831Y58615D01*
X-87405Y61914D02*
X-81048Y58791D01*
X-74833Y61869D02*
X-68769Y58209D01*
X-122184Y76690D02*
X-115182Y75059D01*
X-115183Y71839D02*
X-107470Y69651D01*
X-99861Y67078D01*
X-115183Y78313D02*
X-107470Y76125D01*
X-99861Y73552D01*
X-145182Y76566D02*
X-137203Y75875D01*
X-158405Y76588D02*
X-151794Y76579D01*
X-145182Y76566D01*
X-187562Y76833D02*
X-180291Y78131D01*
X-173021Y75879D02*
X-168805Y76290D01*
X-164579Y76592D01*
X-180293Y74911D02*
X-173021Y75879D01*
X-204466Y69304D02*
X-202197Y69976D01*
X-206735Y68632D02*
X-204466Y69304D01*
Y75778D02*
X-202197Y76450D01*
X-199722Y77163D02*
X-197252Y77834D01*
X-235947Y66266D02*
X-227521Y68803D01*
X-243699Y60707D02*
X-235974Y63004D01*
X-245509Y59660D02*
X-243699Y60707D01*
X-235947Y59792D02*
X-227521Y62329D01*
X-53285Y47099D02*
X-53212D01*
X-58303Y51002D02*
X-53285Y47099D01*
X-87403Y65134D02*
X-81046Y62011D01*
X-93580Y64627D02*
X-87405Y61914D01*
X-81048Y65265D02*
X-74833Y61869D01*
X-122186Y79944D02*
X-115183Y78313D01*
X-115182Y75059D02*
X-107469Y72871D01*
X-99859Y70298D01*
X-122186Y73470D02*
X-115183Y71839D01*
X-145181Y79786D02*
X-137201Y79095D01*
X-151792Y79799D02*
X-145181Y79786D01*
X-158403Y79808D02*
X-151792Y79799D01*
X-151794Y83053D02*
X-145182Y83040D01*
X-137203Y82349D01*
X-158405Y83062D02*
X-151794Y83053D01*
X-180291Y78131D02*
X-173019Y79099D01*
X-168803Y79510D01*
X-164577Y79812D01*
X-168805Y82764D02*
X-164579Y83066D01*
X-187564Y80087D02*
X-180293Y81385D01*
X-173021Y82353D01*
X-168805Y82764D01*
X-187564Y73613D02*
X-180293Y74911D01*
X-197252Y77834D02*
X-194772Y78469D01*
X-197251Y74581D02*
X-194770Y75215D01*
X-199721Y73909D02*
X-197251Y74581D01*
X-206733Y71852D02*
X-204464Y72524D01*
X-202196Y73196D01*
X-197252Y71360D02*
X-194772Y71995D01*
X-199722Y70689D02*
X-197252Y71360D01*
X-206735Y75106D02*
X-204466Y75778D01*
X-235945Y63012D02*
X-227520Y65549D01*
X-245510Y62914D02*
X-243701Y63962D01*
X-235976Y66258D01*
X-247374Y61962D02*
X-245510Y62914D01*
X-246625Y59090D02*
X-245509Y59660D01*
X-244816Y56842D02*
X-243701Y57487D01*
X-235976Y59784D01*
X-202197Y76450D02*
X-199722Y77163D01*
X-209056Y67944D02*
X-206735Y68632D01*
X-227523Y68950D02*
X-227521Y68803D01*
X-202196Y73196D02*
X-199721Y73909D01*
X-202197Y69976D02*
X-199722Y70689D01*
X-209054Y71164D02*
X-206733Y71852D01*
X-209056Y74418D02*
X-206735Y75106D01*
X-227521Y65696D02*
X-227520Y65549D01*
X-227523Y62476D02*
X-227521Y62329D01*
X-235974Y63004D02*
X-235945Y63012D01*
X-235976Y66258D02*
X-235947Y66266D01*
X-235976Y59784D02*
X-235947Y59792D01*
X-247216Y58499D02*
X-246625Y59090D01*
D46*
X37450Y43096D02*
X37825D01*
X-36485D02*
X37450D01*
X-37624Y53168D02*
X36987D01*
X-8661Y47779D02*
X37595D01*
X-8672Y47768D02*
X-8661Y47779D01*
X-10909Y47768D02*
X-8672D01*
X-10920Y47779D02*
X-10909Y47768D01*
X-36680Y47779D02*
X-10920D01*
M02*
