G04*
G04 #@! TF.GenerationSoftware,Altium Limited,Altium Designer,19.1.5 (86)*
G04*
G04 Layer_Color=8388736*
%FSLAX25Y25*%
%MOIN*%
G70*
G01*
G75*
%ADD15R,0.03162X0.03000*%
%ADD16R,0.02965X0.02965*%
%ADD17C,0.01635*%
%ADD18R,0.03000X0.03162*%
G04:AMPARAMS|DCode=19|XSize=47.37mil|YSize=43.43mil|CornerRadius=0mil|HoleSize=0mil|Usage=FLASHONLY|Rotation=250.000|XOffset=0mil|YOffset=0mil|HoleType=Round|Shape=Rectangle|*
%AMROTATEDRECTD19*
4,1,4,-0.01231,0.02968,0.02851,0.01483,0.01231,-0.02968,-0.02851,-0.01483,-0.01231,0.02968,0.0*
%
%ADD19ROTATEDRECTD19*%

G04:AMPARAMS|DCode=20|XSize=39.5mil|YSize=23.75mil|CornerRadius=0mil|HoleSize=0mil|Usage=FLASHONLY|Rotation=340.000|XOffset=0mil|YOffset=0mil|HoleType=Round|Shape=Rectangle|*
%AMROTATEDRECTD20*
4,1,4,-0.02262,-0.00440,-0.01450,0.01791,0.02262,0.00440,0.01450,-0.01791,-0.02262,-0.00440,0.0*
%
%ADD20ROTATEDRECTD20*%

%ADD21R,0.04343X0.04737*%
%ADD22R,0.03950X0.02375*%
G04:AMPARAMS|DCode=23|XSize=47.37mil|YSize=43.43mil|CornerRadius=0mil|HoleSize=0mil|Usage=FLASHONLY|Rotation=110.000|XOffset=0mil|YOffset=0mil|HoleType=Round|Shape=Rectangle|*
%AMROTATEDRECTD23*
4,1,4,0.02851,-0.01483,-0.01231,-0.02968,-0.02851,0.01483,0.01231,0.02968,0.02851,-0.01483,0.0*
%
%ADD23ROTATEDRECTD23*%

G04:AMPARAMS|DCode=24|XSize=39.5mil|YSize=23.75mil|CornerRadius=0mil|HoleSize=0mil|Usage=FLASHONLY|Rotation=200.000|XOffset=0mil|YOffset=0mil|HoleType=Round|Shape=Rectangle|*
%AMROTATEDRECTD24*
4,1,4,0.01450,0.01791,0.02262,-0.00440,-0.01450,-0.01791,-0.02262,0.00440,0.01450,0.01791,0.0*
%
%ADD24ROTATEDRECTD24*%

G04:AMPARAMS|DCode=25|XSize=43.31mil|YSize=66.93mil|CornerRadius=0mil|HoleSize=0mil|Usage=FLASHONLY|Rotation=235.000|XOffset=0mil|YOffset=0mil|HoleType=Round|Shape=Round|*
%AMOVALD25*
21,1,0.02362,0.04331,0.00000,0.00000,325.0*
1,1,0.04331,-0.00968,0.00677*
1,1,0.04331,0.00968,-0.00677*
%
%ADD25OVALD25*%

G04:AMPARAMS|DCode=26|XSize=43.31mil|YSize=66.93mil|CornerRadius=0mil|HoleSize=0mil|Usage=FLASHONLY|Rotation=125.000|XOffset=0mil|YOffset=0mil|HoleType=Round|Shape=Round|*
%AMOVALD26*
21,1,0.02362,0.04331,0.00000,0.00000,215.0*
1,1,0.04331,0.00968,0.00677*
1,1,0.04331,-0.00968,-0.00677*
%
%ADD26OVALD26*%

D15*
X-43861Y34768D02*
D03*
Y38547D02*
D03*
X-49517D02*
D03*
Y34768D02*
D03*
X282136Y33096D02*
D03*
Y36875D02*
D03*
D16*
X44488Y39625D02*
D03*
Y35025D02*
D03*
D17*
X270050Y30450D02*
D03*
X268475D02*
D03*
X266900D02*
D03*
X265325D02*
D03*
X263750D02*
D03*
X270050Y32025D02*
D03*
X268475D02*
D03*
X266900D02*
D03*
X265325D02*
D03*
X263750D02*
D03*
X270050Y33600D02*
D03*
X268475D02*
D03*
X266900D02*
D03*
X265325D02*
D03*
X263750D02*
D03*
X270050Y35175D02*
D03*
X268475D02*
D03*
X266900D02*
D03*
X265325D02*
D03*
X263750D02*
D03*
X270050Y36750D02*
D03*
X268475D02*
D03*
X266900D02*
D03*
X265325D02*
D03*
X263750D02*
D03*
X-273425Y30901D02*
D03*
X-275000D02*
D03*
X-276575D02*
D03*
X-278150D02*
D03*
X-279724D02*
D03*
X-273425Y32476D02*
D03*
X-275000D02*
D03*
X-276575D02*
D03*
X-278150D02*
D03*
X-279724D02*
D03*
X-273425Y34050D02*
D03*
X-275000D02*
D03*
X-276575D02*
D03*
X-278150D02*
D03*
X-279724D02*
D03*
X-273425Y35625D02*
D03*
X-275000D02*
D03*
X-276575D02*
D03*
X-278150D02*
D03*
X-279724D02*
D03*
X-273425Y37200D02*
D03*
X-275000D02*
D03*
X-276575D02*
D03*
X-278150D02*
D03*
X-279724D02*
D03*
D18*
X278526Y29586D02*
D03*
X274746D02*
D03*
X278526Y33186D02*
D03*
X274746D02*
D03*
X278526Y36886D02*
D03*
X274746D02*
D03*
X-255910Y31700D02*
D03*
X-259690D02*
D03*
X-255830Y35821D02*
D03*
X-259609D02*
D03*
X-264650Y31900D02*
D03*
X-268430D02*
D03*
X-268580Y35750D02*
D03*
X-264801D02*
D03*
D19*
X238642Y52519D02*
D03*
X242682Y63618D02*
D03*
D20*
X242865Y58942D02*
D03*
X241788Y55983D02*
D03*
D21*
X253413Y2295D02*
D03*
Y14106D02*
D03*
X-253413D02*
D03*
Y2295D02*
D03*
D22*
X255185Y9776D02*
D03*
Y6626D02*
D03*
X-255185D02*
D03*
Y9776D02*
D03*
D23*
X-242680Y63619D02*
D03*
X-238640Y52520D02*
D03*
D24*
X-241786Y55984D02*
D03*
X-242863Y58943D02*
D03*
D25*
X49715Y23261D02*
D03*
X53328Y28421D02*
D03*
X56941Y33581D02*
D03*
X60554Y38741D02*
D03*
D26*
X-49714Y23260D02*
D03*
X-53327Y28420D02*
D03*
X-56940Y33580D02*
D03*
X-60553Y38740D02*
D03*
M02*
