G04*
G04 #@! TF.GenerationSoftware,Altium Limited,Altium Designer,19.1.5 (86)*
G04*
G04 Layer_Color=32896*
%FSLAX25Y25*%
%MOIN*%
G70*
G01*
G75*
%ADD58C,0.00100*%
%ADD59C,0.00100*%
D58*
X-281816Y27478D02*
G03*
X-281796Y27469I50J86D01*
G01*
X-281816Y27478D02*
G03*
X-281815Y27477I51J86D01*
G01*
X-283279Y28325D02*
G03*
X-283278Y28324I51J86D01*
G01*
X-283296Y28337D02*
G03*
X-283279Y28325I67J74D01*
G01*
X-284560Y29493D02*
G03*
X-284546Y29477I81J58D01*
G01*
X-285539Y30871D02*
G03*
X-285538Y30870I165J116D01*
G01*
X-285576Y30984D02*
G03*
X-285539Y30871I202J3D01*
G01*
X-285576Y30985D02*
G03*
X-285576Y30984I100J1D01*
G01*
X-286503Y50588D02*
G03*
X-286501Y50588I13J99D01*
G01*
X-286527Y50595D02*
G03*
X-286502Y50588I37J93D01*
G01*
X-287449Y50969D02*
G03*
X-287426Y50956I60J80D01*
G01*
X-287449Y50969D02*
G03*
X-287448Y50969I61J79D01*
G01*
X-288240Y51570D02*
G03*
X-288221Y51551I79J61D01*
G01*
X-288848Y52355D02*
G03*
X-288835Y52333I92J39D01*
G01*
X-289231Y53273D02*
G03*
X-289224Y53247I99J14D01*
G01*
X-289363Y54246D02*
G03*
X-289363Y54232I100J0D01*
G01*
X-289268Y63125D02*
G03*
X-289371Y62950I97J-175D01*
G01*
X-289264Y63128D02*
G03*
X-289268Y63125I93J-177D01*
G01*
X-289264Y63128D02*
G03*
X-289268Y63125I46J-88D01*
G01*
X-287538Y64028D02*
G03*
X-287556Y64021I29J-96D01*
G01*
X-287538Y64029D02*
G03*
X-287539Y64028I28J-96D01*
G01*
X-285662Y64595D02*
G03*
X-285663Y64595I28J-96D01*
G01*
X-285644Y64599D02*
G03*
X-285662Y64595I10J-99D01*
G01*
X-283680Y64806D02*
G03*
X-283690Y64805I1J-100D01*
G01*
X-281680Y64631D02*
G03*
X-281881Y64822I-199J-9D01*
G01*
X-281680Y64624D02*
G03*
X-281680Y64631I-100J-1D01*
G01*
X-281662Y62518D02*
G03*
X-281662Y62519I-100J-0D01*
G01*
X-265627Y60480D02*
G03*
X-265828Y60671I-199J-9D01*
G01*
X-265627Y60473D02*
G03*
X-265627Y60480I-100J-1D01*
G01*
X-265491Y44678D02*
G03*
X-265491Y44679I-100J0D01*
G01*
X-262670Y43518D02*
G03*
X-262841Y43319I29J-197D01*
G01*
X-262663Y43519D02*
G03*
X-262670Y43518I22J-198D01*
G01*
X-262663Y43519D02*
G03*
X-262670Y43518I11J-99D01*
G01*
X-262850Y44342D02*
G03*
X-262669Y44145I200J2D01*
G01*
X-262948Y55171D02*
G03*
X-262949Y55156I99J-13D01*
G01*
X-262948Y55171D02*
G03*
X-262948Y55170I99J-13D01*
G01*
X-262884Y55655D02*
G03*
X-262884Y55654I99J-13D01*
G01*
X-262876Y55682D02*
G03*
X-262884Y55655I92J-40D01*
G01*
X-262661Y56166D02*
G03*
X-262675Y56143I78J-62D01*
G01*
X-262661Y56166D02*
G03*
X-262662Y56165I78J-63D01*
G01*
X-262395Y56498D02*
G03*
X-262396Y56497I78J-63D01*
G01*
X-262378Y56514D02*
G03*
X-262396Y56498I61J-79D01*
G01*
X-262023Y56783D02*
G03*
X-262043Y56771I40J-91D01*
G01*
X-261613Y56960D02*
G03*
X-261636Y56953I17J-98D01*
G01*
X-261182Y57035D02*
G03*
X-261198Y57033I2J-100D01*
G01*
X-261031Y57038D02*
G03*
X-261032Y57038I1J-100D01*
G01*
X-254764Y62254D02*
G03*
X-254898Y62065I65J-189D01*
G01*
X-254758Y62256D02*
G03*
X-254764Y62254I60J-190D01*
G01*
X-254758Y62256D02*
G03*
X-254764Y62254I30J-95D01*
G01*
X-243595Y66950D02*
G03*
X-243617Y66941I28J-96D01*
G01*
X-243595Y66950D02*
G03*
X-243596Y66950I28J-96D01*
G01*
X-227401Y71946D02*
G03*
X-227538Y71758I62J-190D01*
G01*
X-227395Y71948D02*
G03*
X-227401Y71946I56J-192D01*
G01*
X-227395Y71948D02*
G03*
X-227401Y71946I28J-96D01*
G01*
X-204337Y78776D02*
G03*
X-204338Y78776I27J-96D01*
G01*
X-202069Y79448D02*
G03*
X-202070Y79448I27J-96D01*
G01*
X-202069Y79448D02*
G03*
X-202071Y79448I28J-96D01*
G01*
X-199593Y80162D02*
G03*
X-199594Y80161I27J-96D01*
G01*
X-199593Y80161D02*
G03*
X-199595Y80161I27J-96D01*
G01*
X-199592Y80162D02*
G03*
X-199593Y80161I26J-96D01*
G01*
X-199592Y80162D02*
G03*
X-199593Y80162I26J-97D01*
G01*
X-197120Y80834D02*
G03*
X-197121Y80834I26J-97D01*
G01*
X-197119Y80834D02*
G03*
X-197120Y80834I25J-97D01*
G01*
X-194634Y81469D02*
G03*
X-194637Y81469I22J-97D01*
G01*
X-194633Y81470D02*
G03*
X-194635Y81469I21J-98D01*
G01*
X-187423Y83088D02*
G03*
X-187425Y83088I21J-98D01*
G01*
X-187418Y83089D02*
G03*
X-187420Y83089I17J-99D01*
G01*
D02*
G03*
X-187424Y83088I18J-98D01*
G01*
X-187419Y83089D02*
G03*
X-187423Y83088I18J-98D01*
G01*
X-180142Y84388D02*
G03*
X-180144Y84388I17J-99D01*
G01*
X-180139Y84389D02*
G03*
X-180143Y84388I13J-99D01*
G01*
X-172859Y85358D02*
G03*
X-172863Y85357I10J-99D01*
G01*
X-168637Y85770D02*
G03*
X-168640Y85769I7J-100D01*
G01*
X-164401Y86072D02*
G03*
X-164408Y86072I-0J-100D01*
G01*
X-144989Y86046D02*
G03*
X-144997Y86046I-9J-100D01*
G01*
X-136995Y85354D02*
G03*
X-137001Y85354I-14J-99D01*
G01*
X-136995Y85353D02*
G03*
X-136996Y85354I-14J-99D01*
G01*
X-129052Y84264D02*
G03*
X-129057Y84265I-18J-98D01*
G01*
X-121959Y82946D02*
G03*
X-121965Y82947I-24J-97D01*
G01*
X-114949Y81313D02*
G03*
X-114955Y81314I-27J-96D01*
G01*
X-107226Y79122D02*
G03*
X-107231Y79124I-32J-95D01*
G01*
X-99608Y76546D02*
G03*
X-99612Y76548I-36J-93D01*
G01*
X-93319Y74092D02*
G03*
X-93323Y74094I-40J-91D01*
G01*
X-93318Y74092D02*
G03*
X-93320Y74093I-41J-91D01*
G01*
X-87137Y71376D02*
G03*
X-87140Y71378I-43J-90D01*
G01*
X-87136Y71376D02*
G03*
X-87137Y71376I-45J-89D01*
G01*
X-80775Y68251D02*
G03*
X-80776Y68251I-45J-89D01*
G01*
X-80772Y68249D02*
G03*
X-80776Y68251I-47J-88D01*
G01*
X-74551Y64851D02*
G03*
X-74553Y64851I-48J-87D01*
G01*
X-74548Y64849D02*
G03*
X-74552Y64851I-52J-85D01*
G01*
X-68477Y61185D02*
G03*
X-68481Y61187I-55J-83D01*
G01*
X-63166Y57676D02*
G03*
X-63170Y57678I-58J-81D01*
G01*
X-58000Y53969D02*
G03*
X-58003Y53971I-61J-79D01*
G01*
X-43631Y55182D02*
G03*
X-43660Y55164I38J-92D01*
G01*
X-41566Y56588D02*
G03*
X-41567Y56587I64J-77D01*
G01*
X-40384Y57567D02*
G03*
X-40385Y57567I128J-154D01*
G01*
X-40167Y57593D02*
G03*
X-40384Y57567I-89J-179D01*
G01*
X-40160Y57589D02*
G03*
X-40167Y57593I-96J-175D01*
G01*
X-40160Y57589D02*
G03*
X-40167Y57593I-48J-87D01*
G01*
X40411Y57573D02*
G03*
X40193Y57589I-121J-158D01*
G01*
X40417Y57568D02*
G03*
X40411Y57573I-64J-77D01*
G01*
X41599Y56589D02*
G03*
X41598Y56589I-64J-77D01*
G01*
X43635Y55201D02*
G03*
X43633Y55202I-38J-92D01*
G01*
X43663Y55183D02*
G03*
X43634Y55201I-66J-75D01*
G01*
X45780Y53301D02*
G03*
X45779Y53302I-67J-74D01*
G01*
X58033Y53968D02*
G03*
X58030Y53966I58J-81D01*
G01*
X63200Y57676D02*
G03*
X63197Y57674I55J-83D01*
G01*
X63200Y57676D02*
G03*
X63197Y57674I55J-83D01*
G01*
X68507Y61182D02*
G03*
X68506Y61182I55J-84D01*
G01*
X68509Y61184D02*
G03*
X68507Y61182I52J-85D01*
G01*
X68510Y61184D02*
G03*
X68507Y61182I52J-85D01*
G01*
X68511Y61184D02*
G03*
X68509Y61184I51J-86D01*
G01*
X74579Y64847D02*
G03*
X74577Y64847I51J-86D01*
G01*
X74582Y64849D02*
G03*
X74578Y64847I48J-88D01*
G01*
X80805Y68250D02*
G03*
X80801Y68248I44J-90D01*
G01*
X87171Y71378D02*
G03*
X87167Y71376I40J-92D01*
G01*
X87171Y71378D02*
G03*
X87171Y71377I40J-92D01*
G01*
X94522Y74573D02*
G03*
X94521Y74572I40J-92D01*
G01*
X94526Y74574D02*
G03*
X94521Y74572I35J-94D01*
G01*
X102031Y77401D02*
G03*
X102026Y77399I31J-95D01*
G01*
X108915Y79629D02*
G03*
X108911Y79628I27J-96D01*
G01*
X115889Y81545D02*
G03*
X115885Y81544I22J-97D01*
G01*
X123677Y83291D02*
G03*
X123672Y83290I17J-98D01*
G01*
X131563Y84650D02*
G03*
X131558Y84649I12J-99D01*
G01*
X138274Y85490D02*
G03*
X138270Y85490I8J-100D01*
G01*
X145011Y86047D02*
G03*
X145010Y86047I8J-100D01*
G01*
X145019Y86048D02*
G03*
X145011Y86047I0J-100D01*
G01*
X164431Y86074D02*
G03*
X164422Y86075I-8J-100D01*
G01*
X172483Y85404D02*
G03*
X172478Y85404I-13J-99D01*
G01*
X180488Y84340D02*
G03*
X180483Y84341I-18J-98D01*
G01*
X187604Y83059D02*
G03*
X187600Y83059I-22J-97D01*
G01*
X187605Y83058D02*
G03*
X187604Y83059I-23J-97D01*
G01*
X194657Y81472D02*
G03*
X194655Y81472I-23J-97D01*
G01*
X194660Y81471D02*
G03*
X194656Y81472I-26J-97D01*
G01*
X197158Y80832D02*
G03*
X197156Y80833I-26J-96D01*
G01*
X199632Y80160D02*
G03*
X199630Y80160I-28J-96D01*
G01*
X199632Y80159D02*
G03*
X199631Y80160I-28J-96D01*
G01*
X202093Y79450D02*
G03*
X202092Y79451I-28J-96D01*
G01*
X202094Y79450D02*
G03*
X202092Y79451I-29J-95D01*
G01*
X204532Y78728D02*
G03*
X204531Y78728I-28J-96D01*
G01*
X227430Y71947D02*
G03*
X227428Y71948I-30J-95D01*
G01*
X227430Y71947D02*
G03*
X227428Y71948I-58J-191D01*
G01*
X227571Y71763D02*
G03*
X227430Y71947I-199J-7D01*
G01*
X227572Y71758D02*
G03*
X227571Y71763I-100J-2D01*
G01*
X227571Y71758D02*
G03*
X227571Y71763I-200J-2D01*
G01*
X243607Y66960D02*
G03*
X243606Y66960I-29J-96D01*
G01*
X243627Y66951D02*
G03*
X243607Y66960I-49J-87D01*
G01*
X254792Y62255D02*
G03*
X254791Y62256I-31J-95D01*
G01*
X254932Y62073D02*
G03*
X254792Y62255I-200J-8D01*
G01*
X254932Y62065D02*
G03*
X254932Y62073I-200J-0D01*
G01*
X254932Y62065D02*
G03*
X254932Y62073I-100J0D01*
G01*
X261214Y57035D02*
G03*
X261198Y57037I-16J-99D01*
G01*
X261215Y57035D02*
G03*
X261213Y57035I-17J-98D01*
G01*
X261623Y56967D02*
G03*
X261621Y56968I-17J-98D01*
G01*
X261645Y56961D02*
G03*
X261622Y56967I-39J-92D01*
G01*
X262055Y56784D02*
G03*
X262034Y56796I-60J-80D01*
G01*
X262410Y56516D02*
G03*
X262393Y56532I-77J-64D01*
G01*
X262694Y56168D02*
G03*
X262680Y56190I-91J-41D01*
G01*
X262901Y55711D02*
G03*
X262901Y55712I-91J-41D01*
G01*
X262909Y55685D02*
G03*
X262901Y55712I-99J-14D01*
G01*
X262982Y55172D02*
G03*
X262981Y55187I-100J0D01*
G01*
X262883Y44342D02*
G03*
X262883Y44343I-200J2D01*
G01*
X262883Y44341D02*
G03*
X262883Y44342I-200J3D01*
G01*
X262707Y44146D02*
G03*
X262883Y44341I-23J198D01*
G01*
X262703Y44145D02*
G03*
X262707Y44146I-10J99D01*
G01*
X262874Y43328D02*
G03*
X262696Y43519I-200J-8D01*
G01*
X262874Y43321D02*
G03*
X262874Y43328I-200J-0D01*
G01*
X262874Y43321D02*
G03*
X262874Y43328I-100J0D01*
G01*
X262874Y43320D02*
G03*
X262874Y43321I-100J1D01*
G01*
X265854Y60671D02*
G03*
X265660Y60473I6J-200D01*
G01*
X265862Y60671D02*
G03*
X265854Y60671I-2J-200D01*
G01*
X265861Y60671D02*
G03*
X265854Y60671I0J-100D01*
G01*
X280417Y62617D02*
G03*
X280346Y62587I0J-100D01*
G01*
X281907Y64821D02*
G03*
X281713Y64624I6J-200D01*
G01*
X281915Y64822D02*
G03*
X281907Y64821I-2J-200D01*
G01*
X281915Y64822D02*
G03*
X281907Y64821I-1J-100D01*
G01*
X283714Y64806D02*
G03*
X283704Y64806I-10J-99D01*
G01*
X285677Y64599D02*
G03*
X285659Y64603I-29J-96D01*
G01*
X285678Y64599D02*
G03*
X285676Y64599I-29J-95D01*
G01*
X287555Y64035D02*
G03*
X287554Y64036I-29J-95D01*
G01*
X287572Y64029D02*
G03*
X287554Y64036I-46J-89D01*
G01*
X289299Y63127D02*
G03*
X289297Y63128I-94J-176D01*
G01*
X289404Y62958D02*
G03*
X289299Y63127I-199J-7D01*
G01*
X289404Y62950D02*
G03*
X289404Y62951I-199J1D01*
G01*
Y62951D02*
G03*
X289404Y62958I-199J0D01*
G01*
X289405Y62951D02*
G03*
X289404Y62958I-100J0D01*
G01*
X289397Y54246D02*
G03*
X289398Y54259I-99J13D01*
G01*
X289265Y53274D02*
G03*
X289272Y53299I-92J38D01*
G01*
X288883Y52357D02*
G03*
X288896Y52380I-79J61D01*
G01*
X288275Y51571D02*
G03*
X288293Y51590I-61J79D01*
G01*
X287483Y50970D02*
G03*
X287506Y50983I-38J92D01*
G01*
X287483Y50970D02*
G03*
X287484Y50970I-37J93D01*
G01*
X286562Y50595D02*
G03*
X286587Y50602I-13J99D01*
G01*
X285724Y44494D02*
G03*
X285724Y44495I-100J1D01*
G01*
X285575Y30875D02*
G03*
X285609Y30985I-164J111D01*
G01*
X285573Y30871D02*
G03*
X285575Y30875I-81J58D01*
G01*
X284594Y29494D02*
G03*
X284609Y29510I-68J74D01*
G01*
X283330Y28338D02*
G03*
X283348Y28350I-50J86D01*
G01*
X283330Y28337D02*
G03*
X283331Y28338I-50J87D01*
G01*
X281850Y27478D02*
G03*
X281870Y27487I-31J95D01*
G01*
X280222Y26952D02*
G03*
X280242Y26957I-10J99D01*
G01*
X278528Y26784D02*
G03*
X278539Y26785I1J100D01*
G01*
X261903Y17087D02*
G03*
X261901Y17087I-4J-200D01*
G01*
X262098Y16895D02*
G03*
X261903Y17087I-200J-7D01*
G01*
X262099Y16887D02*
G03*
X262098Y16895I-100J0D01*
G01*
X262088Y16843D02*
G03*
X262099Y16887I-89J45D01*
G01*
X256790Y-929D02*
G03*
X256991Y-749I2J200D01*
G01*
X248819Y-643D02*
G03*
X249017Y-857I199J-14D01*
G01*
X248820Y-642D02*
G03*
X248819Y-643I199J-16D01*
G01*
X248820Y-642D02*
G03*
X248819Y-643I100J-8D01*
G01*
X247182Y19979D02*
G03*
X247051Y19738I62J-190D01*
G01*
X247188Y19981D02*
G03*
X247182Y19979I56J-192D01*
G01*
X247188Y19981D02*
G03*
X247182Y19979I28J-96D01*
G01*
X248782Y26911D02*
G03*
X248783Y26911I1J100D01*
G01*
X96600Y28295D02*
G03*
X96645Y28306I0J100D01*
G01*
X95100Y28395D02*
G03*
X95200Y28295I100J0D01*
G01*
Y49900D02*
G03*
X95100Y49800I0J-100D01*
G01*
X116671Y49871D02*
G03*
X116600Y49900I-71J-71D01*
G01*
X232644Y46657D02*
G03*
X232823Y46543I181J85D01*
G01*
X53556Y17996D02*
G03*
X53556Y18001I-231J0D01*
G01*
X53452Y17803D02*
G03*
X53556Y17996I-128J193D01*
G01*
X53230Y17776D02*
G03*
X53452Y17803I91J178D01*
G01*
X43618Y18032D02*
G03*
X43810Y17781I193J-52D01*
G01*
X43619Y18036D02*
G03*
X43618Y18032I192J-56D01*
G01*
X43619Y18036D02*
G03*
X43618Y18032I96J-28D01*
G01*
X41358Y30328D02*
G03*
X41359Y30327I57J82D01*
G01*
X-43582Y18022D02*
G03*
X-43586Y18038I-99J-13D01*
G01*
X-43582Y18022D02*
G03*
X-43582Y18024I-211J-29D01*
G01*
X-43580Y17993D02*
G03*
X-43582Y18022I-213J0D01*
G01*
X-43763Y17782D02*
G03*
X-43580Y17993I-31J211D01*
G01*
X-43765Y17782D02*
G03*
X-43763Y17782I-12J99D01*
G01*
X-43778Y17781D02*
G03*
X-43765Y17782I1J100D01*
G01*
X-53411Y17797D02*
G03*
X-53190Y17776I126J155D01*
G01*
X-53519Y17952D02*
G03*
X-53411Y17797I198J24D01*
G01*
X-232960Y46541D02*
G03*
X-232666Y46490I170J105D01*
G01*
X-116600Y49900D02*
G03*
X-116671Y49871I0J-100D01*
G01*
X-95100Y49800D02*
G03*
X-95200Y49900I-100J0D01*
G01*
Y28295D02*
G03*
X-95100Y28395I0J100D01*
G01*
X-96645Y28306D02*
G03*
X-96600Y28295I45J89D01*
G01*
X-247153Y19981D02*
G03*
X-247154Y19981I-29J-95D01*
G01*
X-247010Y19791D02*
G03*
X-247153Y19981I-199J-1D01*
G01*
X-247010Y19790D02*
G03*
X-247010Y19791I-100J0D01*
G01*
X-247014Y19764D02*
G03*
X-247010Y19790I-97J26D01*
G01*
X-248786Y-646D02*
G03*
X-248786Y-641I-100J-3D01*
G01*
X-248786Y-649D02*
G03*
X-248786Y-646I-100J0D01*
G01*
X-248786Y-654D02*
G03*
X-248786Y-646I-204J0D01*
G01*
X-248979Y-857D02*
G03*
X-248786Y-654I-10J203D01*
G01*
X-248983Y-857D02*
G03*
X-248979Y-857I-1J100D01*
G01*
X-256757Y-929D02*
G03*
X-256756Y-929I-1J200D01*
G01*
X-256957Y-749D02*
G03*
X-256757Y-929I199J20D01*
G01*
X-256957Y-748D02*
G03*
X-256957Y-749I100J9D01*
G01*
X-261869Y17087D02*
G03*
X-262043Y16797I4J-200D01*
G01*
X-261867Y17087D02*
G03*
X-261869Y17087I2J-200D01*
G01*
X-261867Y17087D02*
G03*
X-261869Y17087I1J-100D01*
G01*
X-278494Y26784D02*
G03*
X-278484Y26784I10J99D01*
G01*
X-278495Y26784D02*
G03*
X-278493Y26784I11J99D01*
G01*
X-280187Y26952D02*
G03*
X-280166Y26948I31J95D01*
G01*
X-248776Y26891D02*
X-248618Y43111D01*
X248742Y43109D02*
X248863Y26850D01*
X-282292Y58910D02*
X-281760Y59093D01*
X-282758Y58645D02*
X-282292Y58910D01*
X-283144Y58325D02*
X-282758Y58645D01*
X-283476Y57936D02*
X-283144Y58325D01*
X-283737Y57493D02*
X-283476Y57936D01*
X-283916Y57015D02*
X-283737Y57493D01*
X-284009Y56526D02*
X-283916Y57015D01*
X-284019Y56046D02*
X-284009Y56526D01*
X-284019Y56046D02*
X-283992Y55784D01*
X-283943Y55533D01*
X-283761Y55001D01*
X-283496Y54535D01*
X-283176Y54149D01*
X-282786Y53817D01*
X-282343Y53556D01*
X-281866Y53377D01*
X-281376Y53284D01*
X-280897Y53274D01*
X-280635Y53301D01*
X-280384Y53350D01*
X-279852Y53532D01*
X-279386Y53797D01*
X-279001Y54117D01*
X-278669Y54506D01*
X-278408Y54949D01*
X-278229Y55427D01*
X-278136Y55916D01*
X-278125Y56396D01*
X-278153Y56658D02*
X-278125Y56396D01*
X-278202Y56909D02*
X-278153Y56658D01*
X-278384Y57441D02*
X-278202Y56909D01*
X-278649Y57907D02*
X-278384Y57441D01*
X-278969Y58293D02*
X-278649Y57907D01*
X-279358Y58625D02*
X-278969Y58293D01*
X-279802Y58886D02*
X-279358Y58625D01*
X-280279Y59065D02*
X-279802Y58886D01*
X-280768Y59158D02*
X-280279Y59065D01*
X-281248Y59169D02*
X-280768Y59158D01*
X-281510Y59141D02*
X-281248Y59169D01*
X-281760Y59093D02*
X-281510Y59141D01*
X280418Y53350D02*
X280975Y53271D01*
X281510Y53296D01*
X281999Y53407D01*
X282471Y53603D01*
X282905Y53880D01*
X283281Y54224D01*
X283585Y54619D01*
X283812Y55041D01*
X283906Y55287D01*
X283977Y55533D01*
X284055Y56090D01*
X284030Y56626D02*
X284055Y56090D01*
X283920Y57114D02*
X284030Y56626D01*
X283723Y57587D02*
X283920Y57114D01*
X283447Y58021D02*
X283723Y57587D01*
X283102Y58397D02*
X283447Y58021D01*
X282708Y58701D02*
X283102Y58397D01*
X282285Y58928D02*
X282708Y58701D01*
X282039Y59022D02*
X282285Y58928D01*
X281794Y59093D02*
X282039Y59022D01*
X281237Y59171D02*
X281794Y59093D01*
X280702Y59146D02*
X281237Y59171D01*
X280213Y59035D02*
X280702Y59146D01*
X279741Y58839D02*
X280213Y59035D01*
X279307Y58562D02*
X279741Y58839D01*
X278931Y58218D02*
X279307Y58562D01*
X278627Y57824D02*
X278931Y58218D01*
X278400Y57401D02*
X278627Y57824D01*
X278305Y57155D02*
X278400Y57401D01*
X278235Y56909D02*
X278305Y57155D01*
X278157Y56352D02*
X278235Y56909D01*
X278157Y56352D02*
X278182Y55817D01*
X278292Y55328D01*
X278488Y54855D01*
X278765Y54422D01*
X279110Y54045D01*
X279504Y53741D01*
X279926Y53514D01*
X280172Y53420D01*
X280418Y53350D01*
X-281796Y27469D02*
X-280187Y26952D01*
X-281796Y27469D02*
Y27469D01*
X-281816Y27478D02*
X-281816Y27478D01*
X-281816Y27478D02*
X-281815Y27477D01*
X-283278Y28324D02*
X-281816Y27478D01*
X-283279Y28325D02*
X-283278Y28324D01*
X-283279Y28325D02*
X-283278Y28324D01*
X-284546Y29477D02*
X-283296Y28337D01*
X-285538Y30870D02*
X-284560Y29493D01*
X-285538Y30870D02*
X-285538Y30870D01*
X-285653Y40027D02*
X-285576Y30985D01*
X-285691Y44494D02*
X-285653Y40027D01*
X-285699Y45478D02*
X-285691Y44494D01*
X-285737Y49896D02*
X-285699Y45478D01*
X-285742Y50494D02*
X-285737Y49896D01*
X-286501Y50588D02*
X-285742Y50494D01*
X-286503Y50588D02*
X-286501Y50588D01*
X-286502Y50588D02*
X-286501Y50588D01*
X-287426Y50956D02*
X-286527Y50595D01*
X-287449Y50969D02*
X-287449Y50969D01*
X-287448Y50969D01*
X-287449Y50969D02*
X-287449Y50969D01*
X-288221Y51551D02*
X-287449Y50969D01*
X-288221Y51551D02*
X-288221Y51551D01*
X-288835Y52333D02*
X-288240Y51570D01*
X-289224Y53247D02*
X-288848Y52355D01*
X-289363Y54232D02*
X-289231Y53273D01*
X-289371Y62950D02*
X-289363Y54246D01*
X-289268Y63125D02*
X-289264Y63128D01*
X-289264Y63128D02*
X-287556Y64021D01*
X-287538Y64028D02*
X-287538Y64029D01*
X-287539Y64028D02*
X-287538Y64029D01*
X-285663Y64595D01*
X-285662Y64595D01*
X-285663Y64595D02*
X-285662Y64595D01*
X-285644Y64599D02*
X-283690Y64805D01*
X-283680Y64806D02*
X-281881Y64822D01*
X-281881D01*
X-281881Y64822D02*
Y64822D01*
X-281680Y64624D02*
X-281662Y62519D01*
Y62518D02*
Y62518D01*
X-281660Y60537D01*
X-265828Y60671D01*
X-265828Y60671D02*
X-265828Y60671D01*
X-265627Y60473D02*
X-265544Y50841D01*
Y50841D02*
Y50841D01*
X-265537Y50081D01*
X-265499Y45663D01*
Y45663D02*
Y45663D01*
X-265491Y44679D01*
Y44678D02*
Y44679D01*
X-265455Y40442D01*
X-264890Y40525D01*
X-264180Y40841D01*
X-263729Y41188D01*
X-263354Y41622D01*
X-263075Y42122D01*
X-262901Y42669D01*
X-262840Y43247D01*
X-262841Y43319D02*
X-262840Y43247D01*
X-262841Y43319D02*
Y43319D01*
Y43319D02*
X-262841D01*
X-262670Y43518D02*
X-262663Y43519D01*
X-262663Y43519D02*
X-262578Y43529D01*
X-262516Y43549D01*
X-262460Y43582D01*
X-262412Y43626D01*
X-262375Y43679D01*
X-262349Y43739D01*
X-262336Y43803D01*
X-262336Y43868D02*
X-262336Y43803D01*
X-262351Y43931D02*
X-262336Y43868D01*
X-262378Y43990D02*
X-262351Y43931D01*
X-262416Y44043D02*
X-262378Y43990D01*
X-262465Y44086D02*
X-262416Y44043D01*
X-262522Y44118D02*
X-262465Y44086D01*
X-262583Y44137D02*
X-262522Y44118D01*
X-262669Y44145D02*
X-262583Y44137D01*
X-262669Y44145D02*
X-262669D01*
X-262850Y44342D02*
X-262850Y44342D01*
X-262949Y55156D02*
X-262850Y44342D01*
X-262948Y55171D02*
X-262948Y55171D01*
X-262948Y55170D02*
X-262948Y55171D01*
X-262884Y55654D01*
X-262884Y55655D01*
X-262884Y55654D02*
X-262884Y55655D01*
X-262884Y55655D02*
X-262884Y55655D01*
X-262876Y55682D02*
X-262675Y56143D01*
X-262661Y56166D02*
X-262661Y56166D01*
X-262662Y56165D02*
X-262661Y56166D01*
X-262661Y56166D01*
X-262396Y56497D01*
X-262396Y56498D01*
X-262396Y56497D02*
X-262396Y56498D01*
X-262395Y56498D01*
X-262378Y56514D02*
X-262043Y56771D01*
X-262023Y56783D02*
X-261636Y56953D01*
X-261613Y56960D02*
X-261198Y57033D01*
X-261182Y57035D02*
X-261032Y57038D01*
X-261031Y57038D02*
X-254894Y57081D01*
X-254898Y62065D02*
X-254894Y57081D01*
X-254764Y62254D02*
X-254758Y62256D01*
X-254758Y62256D02*
X-254758D01*
X-254758Y62256D02*
X-250346Y63639D01*
X-247274Y64950D01*
X-245421Y65896D01*
X-245424Y65894D02*
X-245421Y65896D01*
X-245424Y65894D02*
X-245421Y65896D01*
X-245419Y65897D01*
X-245421Y65896D02*
X-245419Y65897D01*
X-245421Y65896D02*
X-243617Y66941D01*
X-243595Y66950D02*
X-243595Y66950D01*
X-243596Y66950D02*
X-243595Y66950D01*
X-243595Y66950D01*
X-235849Y69255D01*
X-235848Y69256D01*
X-235849Y69255D02*
X-235848Y69256D01*
X-235849Y69255D02*
X-227538Y71758D01*
X-227401Y71946D02*
X-227395Y71948D01*
X-227395Y71948D02*
X-208928Y77416D01*
X-208928D02*
X-208928D01*
X-208928D02*
X-206607Y78104D01*
X-206607D02*
X-206607D01*
X-206607D02*
X-204338Y78776D01*
X-204337Y78776D01*
X-204338Y78776D02*
X-204337Y78776D01*
X-202071Y79448D01*
X-202069Y79448D01*
X-202071Y79448D02*
X-202070Y79448D01*
X-202069Y79448D02*
X-202069Y79448D01*
X-199595Y80161D01*
X-199594Y80161D01*
X-199593Y80161D02*
X-199593Y80162D01*
X-199595Y80161D02*
X-199593Y80161D01*
X-199592Y80162D02*
X-199592Y80162D01*
X-199593Y80162D02*
X-199592Y80162D01*
X-199592Y80162D01*
X-197121Y80834D01*
X-197120Y80834D01*
X-197121Y80834D02*
X-197120Y80834D01*
X-197120Y80834D01*
X-197119Y80834D02*
X-194637Y81469D01*
X-194634Y81469D02*
X-194633Y81470D01*
X-194635Y81469D02*
X-194634Y81469D01*
X-194633Y81470D01*
X-187425Y83088D01*
X-187424Y83088D01*
X-187425Y83088D02*
X-187424Y83088D01*
X-187423Y83088D02*
X-187420Y83089D01*
X-187419Y83089D01*
X-187418Y83089D01*
X-187424Y83088D02*
X-187423Y83088D01*
X-187419Y83089D02*
X-187418Y83089D01*
X-180144Y84388D01*
X-180143Y84388D01*
X-180144Y84388D02*
X-180143Y84388D01*
X-180142Y84388D01*
X-180139Y84389D02*
X-172863Y85357D01*
X-172859Y85358D02*
X-168640Y85769D01*
X-168637Y85770D02*
X-164408Y86072D01*
X-164401Y86072D02*
X-158220Y86068D01*
X-158220D02*
X-151609Y86059D01*
X-151609D02*
X-144997Y86046D01*
X-144989Y86046D02*
X-137001Y85354D01*
X-136995Y85354D02*
X-136995Y85353D01*
X-136996Y85354D02*
X-136995Y85353D01*
X-129058Y84265D01*
X-129057Y84265D01*
X-129052Y84264D02*
X-121965Y82947D01*
X-121959Y82946D02*
X-114955Y81314D01*
X-114954Y81314D01*
X-114955Y81314D02*
X-114954Y81314D01*
X-114949Y81313D02*
X-107231Y79124D01*
X-107226Y79122D02*
X-99612Y76548D01*
X-99608Y76546D02*
X-93323Y74094D01*
X-93320Y74093D02*
X-93319Y74092D01*
X-93318Y74092D02*
X-87141Y71378D01*
X-87140Y71378D01*
X-87136Y71376D02*
X-80776Y68251D01*
X-80775Y68251D01*
X-80776Y68251D02*
X-80776Y68251D01*
X-80772Y68249D02*
X-80772Y68249D01*
X-80771Y68249D01*
X-74553Y64851D01*
X-74552Y64851D01*
X-74553Y64851D02*
X-74552Y64851D01*
X-74551Y64851D01*
X-74548Y64849D02*
X-68481Y61187D01*
X-68477Y61185D02*
X-63170Y57678D01*
X-63166Y57676D02*
X-58003Y53971D01*
X-58000Y53969D02*
X-53034Y50107D01*
X-49187Y50221D01*
X-45747Y53301D01*
X-45747Y53301D02*
X-43660Y55164D01*
X-43631Y55182D02*
X-43630Y55182D01*
X-42908Y55479D01*
X-41567Y56587D01*
X-41566Y56588D01*
X-41566Y56588D02*
X-41566Y56588D01*
X-41567Y56587D02*
X-41566Y56588D01*
X-41566Y56588D02*
X-40384Y57567D01*
X-40385Y57567D02*
X-40384Y57567D01*
X-40167Y57593D02*
X-40160Y57589D01*
X-40160Y57589D02*
X-38366Y56598D01*
X-38262Y56552D01*
X-37910Y56433D01*
X-37557Y56364D01*
X-37198Y56341D01*
X37232D01*
X37590Y56364D01*
X37944Y56434D01*
X38296Y56552D01*
X38399Y56598D01*
X40193Y57589D01*
X40193Y57589D02*
X40193Y57589D01*
Y57589D02*
X40193D01*
X40411Y57573D02*
X40411D01*
X40417Y57568D02*
X41598Y56589D01*
X41599Y56589D02*
X41599Y56588D01*
X42941Y55479D01*
X43633Y55202D01*
X43634Y55201D01*
X43635Y55201D01*
X43633Y55202D02*
X43634Y55201D01*
X43663Y55183D02*
X45779Y53302D01*
X45780Y53301D02*
X49221Y50221D01*
X53069Y50107D01*
X58030Y53966D01*
X58033Y53968D02*
X63197Y57674D01*
X63200Y57676D01*
X63200Y57676D02*
X63200Y57676D01*
X63200Y57676D02*
X63200Y57676D01*
X63200Y57676D01*
X68506Y61182D01*
X68507Y61182D01*
X68506Y61182D02*
X68507Y61182D01*
X68507Y61182D02*
X68509Y61184D01*
X68507Y61182D02*
X68507Y61182D01*
X68510Y61184D02*
X68511Y61184D01*
X68509Y61184D02*
X68511Y61184D01*
X74577Y64847D01*
X74579Y64847D01*
X74577Y64847D02*
X74579Y64847D01*
X74578Y64847D02*
X74579Y64847D01*
X74582Y64849D02*
X80801Y68248D01*
X80805Y68250D02*
X87167Y71376D01*
X87171Y71378D02*
X87171Y71378D01*
X87171Y71377D02*
X87171Y71378D01*
X94521Y74572D01*
X94522Y74573D01*
X94521Y74572D02*
X94521Y74572D01*
X94526Y74574D02*
X102026Y77399D01*
X102031Y77401D02*
X108911Y79628D01*
X108915Y79629D02*
X115885Y81544D01*
X115889Y81545D02*
X123672Y83290D01*
X123677Y83291D02*
X131558Y84649D01*
X131563Y84650D02*
X138270Y85490D01*
X138274Y85490D02*
X138274Y85490D01*
X138274Y85490D02*
X138274Y85490D01*
X145010Y86047D01*
X145011Y86047D01*
X145010Y86047D02*
X145011Y86047D01*
X145011Y86047D02*
X145011Y86047D01*
X145019Y86048D02*
X151201Y86060D01*
X151201D02*
X157812Y86069D01*
X157812D02*
X164422Y86075D01*
X164431Y86074D02*
X172478Y85404D01*
X172483Y85404D02*
X180483Y84341D01*
X180488Y84340D02*
X187600Y83059D01*
X187604Y83059D02*
X187605Y83058D01*
X187604Y83059D02*
X187604Y83059D01*
X187605Y83058D01*
X194655Y81472D01*
X194656Y81472D01*
X194657Y81472D01*
X194655Y81472D02*
X194656Y81472D01*
X194660Y81471D02*
X197156Y80833D01*
X197157Y80833D01*
X197156Y80833D02*
X197157Y80833D01*
X197158Y80832D02*
X199630Y80160D01*
X199632Y80160D02*
X199632Y80159D01*
X199631Y80160D02*
X199632Y80160D01*
X199632Y80159D01*
X202092Y79451D01*
X202092Y79451D01*
X202092Y79451D02*
X202092Y79451D01*
X202093Y79450D01*
X202094Y79450D02*
X204531Y78728D01*
X204532Y78728D01*
X204531Y78728D02*
X204532Y78728D01*
Y78728D01*
X206801Y78056D01*
X206801D02*
X206801D01*
X206801D02*
X208961Y77416D01*
X208961D02*
X208961D01*
X208961D02*
X227428Y71948D01*
X227430Y71947D01*
X227428Y71948D02*
X227428Y71948D01*
X227571Y71763D02*
X227572Y71758D01*
X227571Y71758D02*
X227572Y71758D01*
X235853Y69264D01*
X235853Y69264D02*
X235853Y69264D01*
X235853Y69264D02*
X243606Y66960D01*
X243627Y66951D02*
X243627Y66951D01*
X243627Y66951D02*
X243627Y66951D01*
X246562Y65316D01*
X248447Y64428D01*
X250378Y63639D01*
X254791Y62256D01*
X254932Y62073D02*
X254932Y62065D01*
X254928Y57081D02*
X254932Y62065D01*
X254928Y57081D02*
X261065Y57038D01*
X261065D02*
X261198Y57037D01*
X261214Y57035D02*
X261215Y57035D01*
X261213Y57035D02*
X261214Y57035D01*
X261215Y57035D01*
X261621Y56968D01*
X261622Y56967D01*
X261623Y56967D01*
X261621Y56968D02*
X261622Y56967D01*
X261645Y56961D02*
X262034Y56796D01*
X262055Y56784D02*
X262393Y56532D01*
X262410Y56516D02*
X262680Y56190D01*
X262694Y56168D02*
X262694Y56167D01*
X262901Y55712D01*
X262901Y55712D02*
X262901Y55711D01*
X262909Y55685D02*
X262981Y55187D01*
X262883Y44342D02*
X262982Y55172D01*
X262883Y44343D02*
X262883Y44342D01*
X262883Y44343D02*
X262883D01*
X262707Y44146D02*
X262707Y44146D01*
X262617Y44137D02*
X262703Y44145D01*
X262555Y44118D02*
X262617Y44137D01*
X262498Y44086D02*
X262555Y44118D01*
X262450Y44043D02*
X262498Y44086D01*
X262411Y43990D02*
X262450Y44043D01*
X262384Y43931D02*
X262411Y43990D01*
X262370Y43868D02*
X262384Y43931D01*
X262369Y43803D02*
X262370Y43868D01*
X262369Y43803D02*
X262382Y43739D01*
X262408Y43679D01*
X262446Y43626D01*
X262494Y43582D01*
X262550Y43549D01*
X262612Y43529D01*
X262696Y43519D01*
X262874Y43328D02*
X262874Y43321D01*
X262873Y43247D02*
X262874Y43320D01*
X262873Y43247D02*
X262935Y42669D01*
X263108Y42122D01*
X263388Y41622D01*
X263762Y41188D01*
X264214Y40841D01*
X264923Y40525D01*
X265489Y40442D01*
X265525Y44679D01*
X265533Y45663D01*
X265571Y50081D01*
X265577Y50841D01*
Y50841D02*
X265660Y60473D01*
X265660D01*
X265854Y60671D02*
X265862Y60671D01*
X265854Y60671D02*
Y60671D01*
X265861Y60671D02*
X278430D01*
X280346Y62587D01*
X280417Y62617D02*
X281696D01*
X281713Y64624D01*
X281713D01*
X281907Y64821D02*
X281915Y64822D01*
X281907Y64821D02*
Y64821D01*
X281915Y64822D02*
X283704Y64806D01*
X283714Y64806D02*
X285659Y64603D01*
X285677Y64599D02*
X285678Y64599D01*
X285677Y64599D02*
X285678Y64599D01*
X285676Y64599D02*
X285677Y64599D01*
X285678Y64599D02*
X287554Y64036D01*
X287554Y64036D02*
X287555Y64035D01*
X287572Y64029D02*
X289297Y63128D01*
X289297Y63128D02*
X289297Y63128D01*
X289404Y62958D02*
X289404Y62950D01*
X289398Y54259D02*
X289405Y62951D01*
X289272Y53299D02*
X289397Y54246D01*
X288896Y52380D02*
X289265Y53274D01*
X288293Y51590D02*
X288883Y52357D01*
X287506Y50983D02*
X288275Y51571D01*
X287483Y50970D02*
X287484Y50970D01*
X286588Y50602D02*
X287483Y50970D01*
X286587Y50602D02*
X286588Y50602D01*
X285775Y50495D02*
X286562Y50595D01*
X285770Y49896D02*
X285775Y50495D01*
X285733Y45478D02*
X285770Y49896D01*
X285724Y44494D02*
X285733Y45478D01*
X285724Y44494D02*
Y44495D01*
X285686Y40027D02*
X285724Y44494D01*
X285609Y30985D02*
X285686Y40027D01*
X285575Y30875D02*
X285575D01*
X284609Y29510D02*
X285573Y30871D01*
X284609Y29510D02*
X284609Y29510D01*
X283348Y28350D02*
X284594Y29494D01*
X283330Y28337D02*
X283330Y28338D01*
X283330Y28337D02*
X283331Y28338D01*
X281870Y27487D02*
X283330Y28337D01*
X281870Y27487D02*
X281870Y27487D01*
X280243Y26957D02*
X281850Y27478D01*
X280242Y26957D02*
X280243Y26957D01*
X278539Y26785D02*
X280222Y26952D01*
X263985Y26917D02*
X278528Y26784D01*
X262524Y26930D02*
X263985Y26917D01*
X254217Y27006D02*
X262524Y26930D01*
X254127Y17158D02*
X254217Y27006D01*
X254127Y17158D02*
X261901Y17087D01*
X261901Y17087D02*
X261901Y17087D01*
X260012Y12670D02*
X262088Y16843D01*
X258465Y8334D02*
X260012Y12670D01*
X257453Y3844D02*
X258465Y8334D01*
X256991Y-749D02*
X257453Y3844D01*
X256991Y-749D02*
X256991Y-749D01*
X256790Y-929D02*
Y-929D01*
X249017Y-857D02*
X256790Y-929D01*
X249017Y-857D02*
X249017Y-857D01*
X248819Y-643D02*
X248820Y-642D01*
X248819Y-643D02*
X248819D01*
X248820Y-642D02*
X249186Y3953D01*
X249106Y8552D02*
X249186Y3953D01*
X248581Y13122D02*
X249106Y8552D01*
X247613Y17624D02*
X248581Y13122D01*
X247613Y17624D02*
X247614Y17622D01*
X247613Y17624D02*
X247614Y17622D01*
X247051Y19738D02*
X247613Y17624D01*
X247182Y19979D02*
X247188Y19981D01*
X247182Y19979D02*
X247182D01*
X247188Y19981D02*
X247976Y20210D01*
X248681Y20586D01*
X249293Y21100D01*
X249787Y21729D01*
X250141Y22445D01*
X250339Y23220D01*
X250373Y24018D01*
X250242Y24807D02*
X250373Y24018D01*
X249952Y25552D02*
X250242Y24807D01*
X249514Y26221D02*
X249952Y25552D01*
X248943Y26790D02*
X249514Y26221D01*
X248783Y26911D02*
X248943Y26790D01*
X243882Y26956D02*
X248782Y26911D01*
X239955Y26992D02*
X243882Y26956D01*
X226592Y27114D02*
X239955Y26992D01*
X198036Y27376D02*
X226592Y27114D01*
X96645Y28306D02*
X198036Y27376D01*
X95200Y28295D02*
X96600D01*
X95100Y28395D02*
Y49800D01*
X95200Y49900D02*
X116600D01*
X116671Y49871D02*
X122272Y44269D01*
X198354Y43571D01*
X226892Y43310D01*
X240103Y43189D01*
X244035Y43153D01*
X248797Y43109D01*
X248816Y45181D01*
X248786Y45465D02*
X248816Y45181D01*
X248696Y45724D02*
X248786Y45465D01*
X248550Y45956D02*
X248696Y45724D01*
X248356Y46149D02*
X248550Y45956D01*
X248123Y46292D02*
X248356Y46149D01*
X247863Y46380D02*
X248123Y46292D01*
X247576Y46407D02*
X247863Y46380D01*
X235618Y46517D02*
X247576Y46407D01*
X232823Y46543D02*
X235618Y46517D01*
X232823Y46543D02*
X232823Y46543D01*
X223147Y54038D02*
X232644Y46657D01*
X219015Y56758D02*
X223147Y54038D01*
X215025Y58980D02*
X219015Y56758D01*
X215025Y58980D02*
X215027Y58979D01*
X215025Y58980D02*
X215027Y58979D01*
X211899Y60471D02*
X215025Y58980D01*
X211897Y60472D02*
X211899Y60471D01*
X211897Y60472D02*
X211899Y60471D01*
X211902Y60470D01*
X211899Y60471D02*
X211902Y60470D01*
X208693Y61790D02*
X211899Y60471D01*
X208693Y61790D02*
X208695Y61789D01*
X208693Y61790D02*
X208695Y61789D01*
X207014Y62400D02*
X208693Y61790D01*
X207013Y62401D02*
X207014Y62400D01*
X207013Y62401D02*
X207014Y62400D01*
X207015Y62400D01*
X207014Y62400D02*
X207015Y62400D01*
X206113Y62706D02*
X207014Y62400D01*
X206113Y62706D02*
X206113Y62706D01*
X206113Y62706D02*
X206113Y62706D01*
X206114Y62706D01*
X206113Y62706D02*
X206114Y62706D01*
X205207Y62999D02*
X206113Y62706D01*
X205207Y62999D02*
X205208Y62998D01*
X205207Y62999D02*
X205208Y62998D01*
X202123Y63947D02*
X205207Y62999D01*
X202123Y63947D02*
X202124Y63947D01*
X202123Y63947D02*
X202124Y63947D01*
X202122Y63947D02*
X202123Y63947D01*
X202122Y63947D02*
X202123Y63947D01*
X199028Y64856D02*
X202123Y63947D01*
X199028Y64856D02*
X199028Y64856D01*
X199028Y64856D02*
X199028Y64856D01*
X199027Y64856D02*
X199028Y64856D01*
X199027Y64856D02*
X199028Y64856D01*
X194861Y66011D02*
X199028Y64856D01*
X194861Y66011D02*
X194862Y66011D01*
X194861Y66011D02*
X194862Y66011D01*
X186172Y68171D02*
X194861Y66011D01*
X186172Y68171D02*
X186174Y68171D01*
X186172Y68171D02*
X186174Y68171D01*
X186170Y68171D02*
X186172Y68171D01*
X186170Y68171D02*
X186172Y68171D01*
X177413Y70012D02*
X186172Y68171D01*
X177411Y70012D02*
X177413Y70012D01*
X177411Y70012D02*
X177413Y70012D01*
X177415Y70012D01*
X177413Y70012D02*
X177415Y70012D01*
X168671Y71517D02*
X177413Y70012D01*
X168669Y71517D02*
X168671Y71517D01*
X168669Y71517D02*
X168671Y71517D01*
X168673Y71517D01*
X168671Y71517D02*
X168673Y71517D01*
X162851Y72336D02*
X168671Y71517D01*
X157012Y73012D02*
X162851Y72336D01*
X157012Y73012D02*
X157014Y73012D01*
X157012Y73012D02*
X157014Y73012D01*
X157010Y73013D02*
X157012Y73012D01*
X157010Y73013D02*
X157012Y73012D01*
X150472Y73487D02*
X157012Y73012D01*
X150469Y73487D02*
X150472Y73487D01*
X150469Y73487D02*
X150472Y73487D01*
X150475Y73487D01*
X150472Y73487D02*
X150475Y73487D01*
X144580Y73573D02*
X150472Y73487D01*
X144580Y73573D02*
X144583Y73573D01*
X144580Y73573D02*
X144583Y73573D01*
X138076Y73289D02*
X144580Y73573D01*
X132212Y72691D02*
X138076Y73289D01*
X132212Y72691D02*
X132215Y72691D01*
X132212Y72691D02*
X132215Y72691D01*
X126409Y71774D02*
X132212Y72691D01*
X120069Y70388D02*
X126409Y71774D01*
X113803Y68610D02*
X120069Y70388D01*
X108250Y66680D02*
X113803Y68610D01*
X108250Y66680D02*
X108252Y66681D01*
X108250Y66680D02*
X108252Y66681D01*
X102826Y64451D02*
X108250Y66680D01*
X102826Y64451D02*
X102829Y64453D01*
X102826Y64451D02*
X102829Y64453D01*
X96966Y61634D02*
X102826Y64451D01*
X96966Y61634D02*
X96969Y61636D01*
X96966Y61634D02*
X96969Y61636D01*
X91243Y58441D02*
X96966Y61634D01*
X86273Y55277D02*
X91243Y58441D01*
X83032Y52998D02*
X86273Y55277D01*
X83032Y52998D02*
X83034Y52999D01*
X83032Y52998D02*
X83034Y52999D01*
X79874Y50597D02*
X83032Y52998D01*
X75946Y47343D02*
X79874Y50597D01*
X75946Y47343D02*
X75948Y47344D01*
X75946Y47343D02*
X75948Y47344D01*
X72177Y43907D02*
X75946Y47343D01*
X68575Y40299D02*
X72177Y43907D01*
X62301Y33098D02*
X68575Y40299D01*
X59430Y29175D02*
X62301Y33098D01*
X56889Y25028D02*
X59430Y29175D01*
X55098Y21553D02*
X56889Y25028D01*
X53556Y18001D02*
X55098Y21553D01*
X49142Y17776D02*
X53230D01*
X43810Y17781D02*
X49142Y17776D01*
X43810Y17781D02*
X43810D01*
X43618Y18032D02*
X43619Y18036D01*
X43619Y18036D02*
Y18036D01*
X43618Y18032D02*
X43618Y18032D01*
X43619Y18036D02*
X44190Y20002D01*
X44431Y21951D01*
X44350Y23876D02*
X44431Y21951D01*
X43953Y25753D02*
X44350Y23876D01*
X43244Y27560D02*
X43953Y25753D01*
X42447Y28953D02*
X43244Y27560D01*
X41461Y30258D02*
X42447Y28953D01*
X41359Y30327D02*
X41461Y30258D01*
X41358Y30328D02*
X41359Y30327D01*
X41359Y30328D02*
X41359Y30327D01*
X41358Y30328D02*
X41359Y30328D01*
X35420Y34412D02*
X41358Y30328D01*
X34686Y34769D02*
X35420Y34412D01*
X34685Y34769D02*
X34686Y34769D01*
X34685Y34769D02*
X34686Y34769D01*
X34686Y34768D01*
X34686Y34769D02*
X34686Y34768D01*
X33115Y35496D02*
X34686Y34769D01*
X28525Y37225D02*
X33115Y35496D01*
X25036Y38177D02*
X28525Y37225D01*
X22803Y38633D02*
X25036Y38177D01*
X22803Y38633D02*
X22806Y38633D01*
X22803Y38633D02*
X22806Y38633D01*
X22801Y38634D02*
X22803Y38633D01*
X22801Y38634D02*
X22803Y38633D01*
X20534Y38978D02*
X22803Y38633D01*
X14843Y39336D02*
X20534Y38978D01*
X-14809Y39336D02*
X14843D01*
X-20499Y38978D02*
X-14809Y39336D01*
X-24117Y38372D02*
X-20499Y38978D01*
X-26325Y37852D02*
X-24117Y38372D01*
X-28490Y37226D02*
X-26325Y37852D01*
X-33082Y35496D02*
X-28490Y37226D01*
X-34651Y34769D02*
X-33082Y35496D01*
X-35386Y34412D02*
X-34651Y34769D01*
X-41324Y30328D02*
X-35386Y34412D01*
X-41325Y30328D02*
X-41324Y30328D01*
X-41426Y30259D02*
X-41325Y30328D01*
X-42626Y28620D02*
X-41426Y30259D01*
X-43528Y26855D02*
X-42626Y28620D01*
X-44114Y25015D02*
X-43528Y26855D01*
X-44374Y23306D02*
X-44114Y25015D01*
X-44375Y21564D02*
X-44374Y23306D01*
X-44375Y21564D02*
X-44115Y19807D01*
X-43586Y18038D01*
X-43582Y18024D02*
X-43582Y18022D01*
X-49108Y17781D02*
X-43778D01*
X-53190Y17776D02*
X-49108Y17781D01*
X-55477Y22408D02*
X-53519Y17952D01*
X-57805Y26671D02*
X-55477Y22408D01*
X-59928Y29956D02*
X-57805Y26671D01*
X-62264Y33096D02*
X-59928Y29956D01*
X-68541Y40299D02*
X-62264Y33096D01*
X-72143Y43907D02*
X-68541Y40299D01*
X-72143Y43907D02*
X-72141Y43905D01*
X-72143Y43907D02*
X-72141Y43905D01*
X-75911Y47342D02*
X-72143Y43907D01*
X-75913Y47343D02*
X-75911Y47342D01*
X-75913Y47343D02*
X-75911Y47342D01*
X-75909Y47340D01*
X-75911Y47342D02*
X-75909Y47340D01*
X-79838Y50595D02*
X-75911Y47342D01*
X-79838Y50595D02*
X-79835Y50593D01*
X-79838Y50595D02*
X-79835Y50593D01*
X-84571Y54125D02*
X-79838Y50595D01*
X-84571Y54125D02*
X-84569Y54124D01*
X-84571Y54125D02*
X-84569Y54124D01*
X-89486Y57386D02*
X-84571Y54125D01*
X-89486Y57386D02*
X-89483Y57385D01*
X-89486Y57386D02*
X-89483Y57385D01*
X-89488Y57388D02*
X-89486Y57386D01*
X-89488Y57388D02*
X-89486Y57386D01*
X-95139Y60681D02*
X-89486Y57386D01*
X-95139Y60681D02*
X-95137Y60680D01*
X-95139Y60681D02*
X-95137Y60680D01*
X-95142Y60683D02*
X-95139Y60681D01*
X-95142Y60683D02*
X-95139Y60681D01*
X-100404Y63354D02*
X-95139Y60681D01*
X-100406Y63355D02*
X-100404Y63354D01*
X-100406Y63355D02*
X-100404Y63354D01*
X-100401Y63353D01*
X-100404Y63354D02*
X-100401Y63353D01*
X-105776Y65719D02*
X-100404Y63354D01*
X-105776Y65719D02*
X-105774Y65718D01*
X-105776Y65719D02*
X-105774Y65718D01*
X-111850Y67979D02*
X-105776Y65719D01*
X-111853Y67980D02*
X-111850Y67979D01*
X-111853Y67980D02*
X-111850Y67979D01*
X-118097Y69879D02*
X-111850Y67979D01*
X-118097Y69879D02*
X-118094Y69879D01*
X-118097Y69879D02*
X-118094Y69879D01*
X-118099Y69880D02*
X-118097Y69879D01*
X-118099Y69880D02*
X-118097Y69879D01*
X-123806Y71259D02*
X-118097Y69879D01*
X-123806Y71259D02*
X-123803Y71258D01*
X-123806Y71259D02*
X-123803Y71258D01*
X-130191Y72412D02*
X-123806Y71259D01*
X-136660Y73175D02*
X-130191Y72412D01*
X-136660Y73175D02*
X-136657Y73175D01*
X-136660Y73175D02*
X-136657Y73175D01*
X-136663Y73175D02*
X-136660Y73175D01*
X-136663Y73175D02*
X-136660Y73175D01*
X-142539Y73525D02*
X-136660Y73175D01*
X-142542Y73525D02*
X-142539Y73525D01*
X-142542Y73525D02*
X-142539Y73525D01*
X-142536Y73525D01*
X-142539Y73525D02*
X-142536Y73525D01*
X-148411Y73551D02*
X-142539Y73525D01*
X-148411Y73551D02*
X-148408Y73551D01*
X-148411Y73551D02*
X-148408Y73551D01*
X-152699Y73367D02*
X-148411Y73551D01*
X-156982Y73011D02*
X-152699Y73367D01*
X-166641Y71813D02*
X-156982Y73011D01*
X-176242Y70226D02*
X-166641Y71813D01*
X-185579Y68298D02*
X-176242Y70226D01*
X-194836Y66009D02*
X-185579Y68298D01*
X-197947Y65154D02*
X-194836Y66009D01*
X-201047Y64259D02*
X-197947Y65154D01*
X-205182Y62997D02*
X-201047Y64259D01*
X-206990Y62398D02*
X-205182Y62997D01*
X-207884Y62080D02*
X-206990Y62398D01*
X-208657Y61792D02*
X-207884Y62080D01*
X-208657Y61792D02*
X-208655Y61793D01*
X-208657Y61792D02*
X-208655Y61793D01*
X-213264Y59832D02*
X-208657Y61792D01*
X-217698Y57517D02*
X-213264Y59832D01*
X-221985Y54831D02*
X-217698Y57517D01*
X-224549Y52985D02*
X-221985Y54831D01*
X-232666Y46490D02*
X-224549Y52985D01*
X-235584Y46517D02*
X-232960Y46541D01*
X-247543Y46407D02*
X-235584Y46517D01*
X-247829Y46380D02*
X-247543Y46407D01*
X-248089Y46292D02*
X-247829Y46380D01*
X-248322Y46149D02*
X-248089Y46292D01*
X-248517Y45956D02*
X-248322Y46149D01*
X-248663Y45724D02*
X-248517Y45956D01*
X-248752Y45465D02*
X-248663Y45724D01*
X-248782Y45181D02*
X-248752Y45465D01*
X-248782Y45181D02*
X-248763Y43109D01*
X-244035Y43153D01*
X-240103Y43189D01*
X-226892Y43310D01*
X-198354Y43571D01*
X-122272Y44269D01*
X-116671Y49871D01*
X-116600Y49900D02*
X-95200D01*
X-95100Y28395D02*
Y49800D01*
X-96600Y28295D02*
X-95200D01*
X-198036Y27376D02*
X-96645Y28306D01*
X-226592Y27114D02*
X-198036Y27376D01*
X-239955Y26992D02*
X-226592Y27114D01*
X-243882Y26956D02*
X-239955Y26992D01*
X-248749Y26911D02*
X-243882Y26956D01*
X-248910Y26790D02*
X-248749Y26911D01*
X-249481Y26221D02*
X-248910Y26790D01*
X-249919Y25552D02*
X-249481Y26221D01*
X-250209Y24807D02*
X-249919Y25552D01*
X-250340Y24018D02*
X-250209Y24807D01*
X-250340Y24018D02*
X-250305Y23220D01*
X-250107Y22445D01*
X-249753Y21729D01*
X-249260Y21100D01*
X-248647Y20586D01*
X-247942Y20210D01*
X-247154Y19981D01*
X-247580Y17624D02*
X-247014Y19764D01*
X-248547Y13122D02*
X-247580Y17624D01*
X-249073Y8552D02*
X-248547Y13122D01*
X-249153Y3953D02*
X-249073Y8552D01*
X-249153Y3953D02*
X-248786Y-641D01*
X-248786Y-646D02*
X-248786Y-649D01*
X-256756Y-929D02*
X-248983Y-857D01*
X-256756Y-929D02*
X-256756D01*
X-256957Y-748D02*
X-256957Y-749D01*
X-256957Y-749D02*
X-256957Y-749D01*
X-256957Y-748D02*
X-256957Y-749D01*
X-257420Y3844D02*
X-256957Y-748D01*
X-258431Y8335D02*
X-257420Y3844D01*
X-259979Y12670D02*
X-258431Y8335D01*
X-262043Y16797D02*
X-259979Y12670D01*
X-261869Y17087D02*
X-261867Y17087D01*
X-261869Y17087D02*
Y17087D01*
X-261867Y17087D02*
X-254093Y17158D01*
X-254183Y27006D02*
X-254093Y17158D01*
X-262490Y26930D02*
X-254183Y27006D01*
X-263951Y26917D02*
X-262490Y26930D01*
X-278484Y26784D02*
X-263951Y26917D01*
X-278495Y26784D02*
X-278494Y26784D01*
X-278493Y26784D01*
X-278495Y26784D02*
X-278494Y26784D01*
X-280165Y26948D02*
X-278495Y26784D01*
X-280166Y26948D02*
X-280165Y26948D01*
D59*
X-285538Y30870D02*
D03*
X-289371Y62950D02*
D03*
X-289264Y63128D02*
D03*
X-281881Y64822D02*
D03*
Y64822D02*
D03*
X-281662Y62518D02*
D03*
X-265828Y60671D02*
D03*
X-265544Y50841D02*
D03*
Y50841D02*
D03*
X-265499Y45663D02*
D03*
X-262841Y43319D02*
D03*
X-262841D02*
D03*
X-262669Y44145D02*
D03*
X-262850Y44342D02*
D03*
X-254898Y62065D02*
D03*
X-254758Y62256D02*
D03*
X-235849Y69255D02*
D03*
X-158220Y86068D02*
D03*
X-151609Y86059D02*
D03*
X-45747Y53301D02*
D03*
X-41566Y56588D02*
D03*
X-40160Y57589D02*
D03*
X40193Y57589D02*
D03*
X63200Y57676D02*
D03*
X138274Y85490D02*
D03*
X151201Y86060D02*
D03*
X157812Y86069D02*
D03*
X227428Y71948D02*
D03*
X243627Y66951D02*
D03*
X254932Y62065D02*
D03*
X261065Y57038D02*
D03*
X262982Y55172D02*
D03*
X262883Y44343D02*
D03*
X265577Y50841D02*
D03*
X281915Y64822D02*
D03*
X289404Y62951D02*
D03*
X289405D02*
D03*
X281850Y27478D02*
D03*
X263985Y26917D02*
D03*
X261901Y17087D02*
D03*
X256991Y-749D02*
D03*
X249017Y-857D02*
D03*
X248820Y-642D02*
D03*
X232823Y46543D02*
D03*
X49142Y17776D02*
D03*
X43619Y18036D02*
D03*
X-41325Y30328D02*
D03*
X-262043Y16797D02*
D03*
X-261867Y17087D02*
D03*
M02*
