G04*
G04 #@! TF.GenerationSoftware,Altium Limited,Altium Designer,19.1.5 (86)*
G04*
G04 Layer_Physical_Order=1*
G04 Layer_Color=255*
%FSLAX25Y25*%
%MOIN*%
G70*
G01*
G75*
%ADD12C,0.00600*%
%ADD28R,0.02362X0.02200*%
%ADD29R,0.02165X0.02165*%
%ADD30C,0.00835*%
%ADD31R,0.02200X0.02362*%
G04:AMPARAMS|DCode=32|XSize=39.37mil|YSize=35.43mil|CornerRadius=0mil|HoleSize=0mil|Usage=FLASHONLY|Rotation=250.000|XOffset=0mil|YOffset=0mil|HoleType=Round|Shape=Rectangle|*
%AMROTATEDRECTD32*
4,1,4,-0.00991,0.02456,0.02338,0.01244,0.00991,-0.02456,-0.02338,-0.01244,-0.00991,0.02456,0.0*
%
%ADD32ROTATEDRECTD32*%

G04:AMPARAMS|DCode=33|XSize=31.5mil|YSize=15.75mil|CornerRadius=0mil|HoleSize=0mil|Usage=FLASHONLY|Rotation=340.000|XOffset=0mil|YOffset=0mil|HoleType=Round|Shape=Rectangle|*
%AMROTATEDRECTD33*
4,1,4,-0.01749,-0.00201,-0.01211,0.01279,0.01749,0.00201,0.01211,-0.01279,-0.01749,-0.00201,0.0*
%
%ADD33ROTATEDRECTD33*%

%ADD34R,0.03543X0.03937*%
%ADD35R,0.03150X0.01575*%
G04:AMPARAMS|DCode=36|XSize=39.37mil|YSize=35.43mil|CornerRadius=0mil|HoleSize=0mil|Usage=FLASHONLY|Rotation=110.000|XOffset=0mil|YOffset=0mil|HoleType=Round|Shape=Rectangle|*
%AMROTATEDRECTD36*
4,1,4,0.02338,-0.01244,-0.00991,-0.02456,-0.02338,0.01244,0.00991,0.02456,0.02338,-0.01244,0.0*
%
%ADD36ROTATEDRECTD36*%

G04:AMPARAMS|DCode=37|XSize=31.5mil|YSize=15.75mil|CornerRadius=0mil|HoleSize=0mil|Usage=FLASHONLY|Rotation=200.000|XOffset=0mil|YOffset=0mil|HoleType=Round|Shape=Rectangle|*
%AMROTATEDRECTD37*
4,1,4,0.01211,0.01279,0.01749,-0.00201,-0.01211,-0.01279,-0.01749,0.00201,0.01211,0.01279,0.0*
%
%ADD37ROTATEDRECTD37*%

%ADD38C,0.00400*%
G04:AMPARAMS|DCode=39|XSize=55.12mil|YSize=78.74mil|CornerRadius=0mil|HoleSize=0mil|Usage=FLASHONLY|Rotation=235.000|XOffset=0mil|YOffset=0mil|HoleType=Round|Shape=Round|*
%AMOVALD39*
21,1,0.02362,0.05512,0.00000,0.00000,325.0*
1,1,0.05512,-0.00968,0.00677*
1,1,0.05512,0.00968,-0.00677*
%
%ADD39OVALD39*%

G04:AMPARAMS|DCode=40|XSize=55.12mil|YSize=78.74mil|CornerRadius=0mil|HoleSize=0mil|Usage=FLASHONLY|Rotation=125.000|XOffset=0mil|YOffset=0mil|HoleType=Round|Shape=Round|*
%AMOVALD40*
21,1,0.02362,0.05512,0.00000,0.00000,215.0*
1,1,0.05512,0.00968,0.00677*
1,1,0.05512,-0.00968,-0.00677*
%
%ADD40OVALD40*%

%ADD41C,0.01600*%
%ADD42C,0.00800*%
%ADD43C,0.02400*%
%ADD44C,0.01200*%
G36*
X-247100Y45800D02*
D01*
D02*
G37*
D12*
X-269699Y33681D02*
X-262320D01*
X-269780Y33600D02*
X-269699Y33681D01*
X-262320D02*
X-261220Y32581D01*
X-259690Y31743D02*
X-257717Y33716D01*
X-277221Y28200D02*
X-253200D01*
X-262060Y36228D02*
Y36499D01*
X-260570Y38202D02*
X-258976Y39796D01*
X-261500Y40100D02*
X-261073D01*
X-261121Y41800D02*
X-260258Y42664D01*
X-261921Y41800D02*
X-261121D01*
X-263002Y40719D02*
X-261921Y41800D01*
X-263002Y37442D02*
Y40719D01*
Y37442D02*
X-262060Y36499D01*
X-278450Y29429D02*
X-277221Y28200D01*
X-255910Y34500D02*
Y35600D01*
X262056Y35258D02*
X263667D01*
X260596Y36718D02*
X262056Y35258D01*
X261472Y37302D02*
X262133D01*
X44488Y28488D02*
X49715Y23261D01*
X44488Y28488D02*
Y35025D01*
X-49292Y38211D02*
X-49031Y37950D01*
X44488Y39625D02*
Y45540D01*
X-40093Y38547D02*
X-38204Y36658D01*
X-43861Y38547D02*
X-40093D01*
X-43942Y34768D02*
X-43861D01*
X-44842Y33868D02*
X-43942Y34768D01*
X-44842Y33787D02*
Y33868D01*
X-49238Y29390D02*
X-44842Y33787D01*
X-52357Y29390D02*
X-49238D01*
X-53327Y28420D02*
X-52357Y29390D01*
X-51844Y38985D02*
Y47066D01*
Y34547D02*
Y38985D01*
X-56940Y33889D02*
X-51844Y38985D01*
X47289Y33089D02*
X53328Y28421D01*
X50214Y39616D02*
X55568Y34262D01*
X249909Y31791D02*
X251909Y29791D01*
X249909Y31791D02*
Y36911D01*
X250044Y37046D02*
Y48523D01*
X249909Y36911D02*
X250044Y37046D01*
X246857Y51710D02*
X250044Y48523D01*
X271055Y32600D02*
X271770D01*
X274746Y29624D01*
Y29586D02*
X275714D01*
X265524Y38221D02*
X266632Y39329D01*
X264208Y38221D02*
X265524D01*
X251900Y28300D02*
X256514D01*
X256711Y28103D01*
X258858D02*
X258986Y28231D01*
X256711Y28103D02*
X258858D01*
X258986Y28231D02*
X260230Y29476D01*
X259456Y31161D02*
X260008Y30609D01*
Y29698D02*
Y30609D01*
X255545Y29603D02*
X258005D01*
X266632Y39329D02*
Y52883D01*
X255348Y29800D02*
X255545Y29603D01*
X260008Y29698D02*
X260230Y29476D01*
Y29476D02*
Y29476D01*
X260525Y36718D02*
X260596D01*
X259800Y37444D02*
X260525Y36718D01*
X260800Y37975D02*
X261472Y37302D01*
X259800Y37444D02*
Y44200D01*
X264208Y37218D02*
Y38221D01*
X253075Y40403D02*
Y42921D01*
X260800Y37975D02*
Y44700D01*
X246781Y58719D02*
X260800Y44700D01*
X249957Y54043D02*
X259800Y44200D01*
X251963Y39290D02*
X253075Y40403D01*
X239451Y51710D02*
X246857D01*
X238642Y52519D02*
X239451Y51710D01*
X251909Y29791D02*
X255340D01*
X255348Y29800D01*
X50214Y39616D02*
Y47468D01*
X47289Y33089D02*
Y48370D01*
X-259690Y31743D02*
Y31781D01*
Y31700D02*
Y31743D01*
X-253200Y28200D02*
X-252200Y27200D01*
X-270230Y34050D02*
X-269780Y33600D01*
X-261220Y32581D02*
X-260490D01*
X-258976Y39796D02*
X-258680D01*
X-255910Y31700D02*
Y34500D01*
X-260490Y32581D02*
X-259690Y31781D01*
X-261073Y40100D02*
X-260887Y39913D01*
X-259176Y41624D01*
X-258680Y39796D02*
Y40706D01*
X-258176Y41210D02*
Y48324D01*
X-258680Y40706D02*
X-258176Y41210D01*
Y48324D02*
X-250517Y55984D01*
X-260258Y42664D02*
Y49342D01*
X-245981Y63619D01*
X-259176Y48924D02*
X-249157Y58943D01*
X-259176Y41624D02*
Y48924D01*
X-250517Y55984D02*
X-241786D01*
X-249157Y58943D02*
X-242863D01*
X-51610Y47300D02*
X-50400D01*
X-11754Y45540D02*
X44488D01*
X-13714Y47500D02*
X-11754Y45540D01*
X-46801Y47500D02*
X-13714D01*
X-51729Y34431D02*
X-49292D01*
X-46801Y38017D02*
Y47500D01*
X-46868Y37950D02*
X-46801Y38017D01*
X-49031Y37950D02*
X-46868D01*
X-51844Y47066D02*
X-51610Y47300D01*
X235529Y57051D02*
X242096Y63618D01*
X242682D01*
X266632Y52883D02*
X267600Y53851D01*
X281158Y30433D02*
X282136Y31410D01*
Y33096D01*
X280311Y29586D02*
X281158Y30433D01*
X278526Y29586D02*
X280311D01*
X263750Y36761D02*
X264208Y37218D01*
X263750Y36750D02*
Y36761D01*
X270050Y33600D02*
X270055D01*
X-280822Y33950D02*
X-280766Y34005D01*
X-278442Y38817D02*
X-278150Y38525D01*
X-280200Y38817D02*
X-278442D01*
X-282000Y35600D02*
X-281900D01*
X-252200Y15320D02*
Y27200D01*
X-278450Y29429D02*
Y29621D01*
X-279724Y30895D02*
X-278450Y29621D01*
X-279724Y30895D02*
Y30901D01*
X-279769Y34005D02*
X-279724Y34050D01*
X-281900Y35600D02*
X-281875Y35625D01*
X251900Y17700D02*
Y28300D01*
X250300Y16100D02*
X251900Y17700D01*
X250300Y10100D02*
Y16100D01*
Y10100D02*
X250731Y9668D01*
Y7580D02*
Y9668D01*
Y7580D02*
X250900Y7411D01*
Y4809D02*
Y7411D01*
Y4809D02*
X251645Y4064D01*
X251842D01*
X253413Y2492D01*
Y2295D02*
Y2492D01*
X252232Y8168D02*
X253274Y7126D01*
X252232Y8168D02*
Y8201D01*
X253274Y7126D02*
X254685D01*
X255185Y6626D01*
X253200Y10800D02*
X253637Y10363D01*
X243069Y54638D02*
X243664Y54043D01*
X243069Y54638D02*
Y54810D01*
X241896Y55983D02*
X243069Y54810D01*
X241788Y55983D02*
X241896D01*
X243480Y58719D02*
X246781D01*
X243664Y54043D02*
X249957D01*
X-255185Y6626D02*
X-252626D01*
X-253224Y9776D02*
X-252700Y10300D01*
X-255185Y9776D02*
X-253224D01*
X-245981Y63619D02*
X-242680D01*
D28*
X-43861Y34768D02*
D03*
Y38547D02*
D03*
X-49517D02*
D03*
Y34768D02*
D03*
X282136Y33096D02*
D03*
Y36875D02*
D03*
D29*
X44488Y39625D02*
D03*
Y35025D02*
D03*
D30*
X270050Y30450D02*
D03*
X268475D02*
D03*
X266900D02*
D03*
X265325D02*
D03*
X263750D02*
D03*
X270050Y32025D02*
D03*
X268475D02*
D03*
X266900D02*
D03*
X265325D02*
D03*
X263750D02*
D03*
X270050Y33600D02*
D03*
X268475D02*
D03*
X266900D02*
D03*
X265325D02*
D03*
X263750D02*
D03*
X270050Y35175D02*
D03*
X268475D02*
D03*
X266900D02*
D03*
X265325D02*
D03*
X263750D02*
D03*
X270050Y36750D02*
D03*
X268475D02*
D03*
X266900D02*
D03*
X265325D02*
D03*
X263750D02*
D03*
X-273425Y30901D02*
D03*
X-275000D02*
D03*
X-276575D02*
D03*
X-278150D02*
D03*
X-279724D02*
D03*
X-273425Y32476D02*
D03*
X-275000D02*
D03*
X-276575D02*
D03*
X-278150D02*
D03*
X-279724D02*
D03*
X-273425Y34050D02*
D03*
X-275000D02*
D03*
X-276575D02*
D03*
X-278150D02*
D03*
X-279724D02*
D03*
X-273425Y35625D02*
D03*
X-275000D02*
D03*
X-276575D02*
D03*
X-278150D02*
D03*
X-279724D02*
D03*
X-273425Y37200D02*
D03*
X-275000D02*
D03*
X-276575D02*
D03*
X-278150D02*
D03*
X-279724D02*
D03*
D31*
X278526Y29586D02*
D03*
X274746D02*
D03*
X278526Y33186D02*
D03*
X274746D02*
D03*
X278526Y36886D02*
D03*
X274746D02*
D03*
X-255910Y31700D02*
D03*
X-259690D02*
D03*
X-255830Y35821D02*
D03*
X-259609D02*
D03*
X-264650Y31900D02*
D03*
X-268430D02*
D03*
X-268580Y35750D02*
D03*
X-264801D02*
D03*
D32*
X238642Y52519D02*
D03*
X242682Y63618D02*
D03*
D33*
X242865Y58942D02*
D03*
X241788Y55983D02*
D03*
D34*
X253413Y2295D02*
D03*
Y14106D02*
D03*
X-253413D02*
D03*
Y2295D02*
D03*
D35*
X255185Y9776D02*
D03*
Y6626D02*
D03*
X-255185D02*
D03*
Y9776D02*
D03*
D36*
X-242680Y63619D02*
D03*
X-238640Y52520D02*
D03*
D37*
X-241786Y55984D02*
D03*
X-242863Y58943D02*
D03*
D38*
X-270838Y37500D02*
X-266260D01*
X-272424Y29900D02*
X-254581D01*
X-273082Y29100D02*
X-253850D01*
X-273425Y30901D02*
X-272424Y29900D01*
X-274882Y30901D02*
X-273082Y29100D01*
X-254070Y41730D02*
X-251600Y44200D01*
X-254110Y30370D02*
Y41369D01*
X-254070Y41409D02*
Y41730D01*
X-254110Y41369D02*
X-254070Y41409D01*
X271621Y29906D02*
X271851Y29677D01*
X271621Y29906D02*
Y30454D01*
X270050Y32025D02*
X271621Y30454D01*
X268475Y32025D02*
X270050D01*
X267117Y30804D02*
X268121Y31808D01*
X268140D01*
X268357Y32025D01*
X268475D01*
X267117Y30785D02*
Y30804D01*
X266900Y30568D02*
X267117Y30785D01*
X266900Y30450D02*
Y30568D01*
X-56940Y33580D02*
Y33889D01*
X265325Y36750D02*
X267149Y38573D01*
X260908Y30071D02*
Y32009D01*
X261708Y30403D02*
Y32341D01*
Y30403D02*
X262777Y29333D01*
X262708Y30817D02*
X262991Y30534D01*
X262777Y29333D02*
X267363D01*
X260908Y30071D02*
X262446Y28533D01*
X262991Y30534D02*
X263667D01*
X260800Y34900D02*
X261387Y34313D01*
X259066Y34995D02*
X260587Y33475D01*
Y33462D02*
Y33475D01*
Y33462D02*
X261708Y32341D01*
X257533Y35156D02*
X258494Y34196D01*
X258734D01*
X259787Y33143D01*
Y33130D02*
Y33143D01*
Y33130D02*
X260908Y32009D01*
X268060Y37773D02*
X270947D01*
X267253Y36967D02*
X268060Y37773D01*
X267149Y38573D02*
X271600D01*
X264875Y31675D02*
X265226Y32025D01*
X262446Y28533D02*
X267996D01*
X262700Y33900D02*
X262727Y33873D01*
X261387Y33793D02*
X262780Y32400D01*
X261387Y33793D02*
Y34313D01*
X258928Y34995D02*
X259066D01*
X262727Y33873D02*
X263414D01*
X263687Y33600D01*
X263750D01*
X262780Y32400D02*
X263280D01*
X263303Y32423D02*
X263701Y32025D01*
X263303Y32423D02*
X263303D01*
X263280Y32400D02*
X263303Y32423D01*
X263667Y30534D02*
X263750Y30450D01*
X255374Y36143D02*
Y38045D01*
X255229Y35156D02*
X257533D01*
X251963Y38423D02*
X255229Y35156D01*
X258900Y35024D02*
X258928Y34995D01*
X258900Y35024D02*
Y35909D01*
X258666Y36143D02*
X258900Y35909D01*
X255374Y36143D02*
X258666D01*
X265325Y32025D02*
X265443D01*
X265226D02*
X265325D01*
X251963Y38423D02*
Y39290D01*
X-254581Y29900D02*
X-254110Y30370D01*
X-253850Y29100D02*
X-250516Y32434D01*
X-255910Y35600D02*
X-255810Y35700D01*
X-265000Y32310D02*
X-264110Y31420D01*
X-265705D02*
X-264110D01*
X-250516Y32434D02*
Y32639D01*
X-265000Y32310D02*
X-264610Y32700D01*
X-265241Y36481D02*
X-264413D01*
X-266260Y37500D02*
X-265241Y36481D01*
X-270800Y31800D02*
X-267490D01*
X-264610Y32700D02*
X-263710Y31800D01*
X-51844Y34547D02*
X-51729Y34431D01*
X267996Y28533D02*
X269696Y30233D01*
X269715D01*
X269932Y30450D01*
X270050D01*
X267363Y29333D02*
X268475Y30445D01*
Y30450D01*
X271400Y33700D02*
X272510D01*
X273110Y33100D01*
X270947Y37773D02*
X271120Y37600D01*
X267235Y36967D02*
X267253D01*
X266900Y36724D02*
X266925Y36750D01*
X263667Y35258D02*
X263750Y35175D01*
X271600Y38573D02*
X271700Y38674D01*
Y53228D01*
X272023Y53551D02*
X275679D01*
X271700Y53228D02*
X272023Y53551D01*
X272504Y37773D02*
X273398Y38667D01*
X272453Y37773D02*
X272504D01*
X272280Y37600D02*
X272453Y37773D01*
X271120Y37600D02*
X272280D01*
X273398Y38667D02*
X280345D01*
X276726Y37359D02*
X278053D01*
X276618Y35175D02*
X278526Y33267D01*
X276547Y35105D02*
X276618Y35175D01*
X275521Y36111D02*
X276693D01*
X273398Y35105D02*
X276547D01*
X280345Y38667D02*
X281155Y37857D01*
Y37775D02*
Y37857D01*
Y37775D02*
X282055Y36875D01*
X282136D01*
X274746Y36886D02*
X275521Y36111D01*
X278053Y37359D02*
X278526Y36886D01*
X273110Y33100D02*
X274661D01*
X274746Y33186D01*
X273327Y35175D02*
X273398Y35105D01*
X270050Y35175D02*
X273327D01*
X278526Y33186D02*
Y33267D01*
X266900Y36750D02*
X267018D01*
X267235Y36967D01*
X271036Y32600D02*
X271055D01*
X270450Y33186D02*
X271036Y32600D01*
X270450Y33186D02*
Y33205D01*
X270055Y33600D02*
X270450Y33205D01*
X263679Y36821D02*
X263750Y36750D01*
X254120Y13400D02*
X255800D01*
X253413Y14106D02*
X254120Y13400D01*
X268475Y33600D02*
X270050D01*
X266900D02*
X268475D01*
X266900Y35175D02*
Y36724D01*
X-282024Y32476D02*
X-279724D01*
X-278150Y37200D02*
Y38525D01*
X-283200Y38800D02*
X-281600Y37200D01*
X-281875Y35625D02*
X-279724D01*
X-281600Y37200D02*
X-279724D01*
X-273425Y34050D02*
X-270230D01*
X-273425Y37200D02*
X-271670D01*
X-270951Y36481D01*
X-255890Y34500D02*
X-255810Y35700D01*
X-271738Y38400D02*
X-270838Y37500D01*
X-267590Y35500D02*
Y35581D01*
X-268571Y36481D02*
X-267590Y35500D01*
X-270951Y36481D02*
X-268571D01*
X-273800Y38400D02*
X-271738D01*
X-275000Y37200D02*
X-273800Y38400D01*
X-275000Y30901D02*
X-274882D01*
X-282100Y32400D02*
X-282024Y32476D01*
X-239200Y48600D02*
Y48875D01*
X-238640Y49434D01*
Y52520D01*
X-255300Y4100D02*
X-254700Y3500D01*
Y3300D02*
Y3500D01*
Y3300D02*
X-253695Y2295D01*
X-253413D01*
X-276587Y29713D02*
Y30888D01*
X-276575Y30901D01*
Y30901D01*
X-280766Y34005D02*
X-279769D01*
X252700Y10900D02*
X252800Y10800D01*
X253200D01*
X253637Y10363D02*
X254598D01*
X255185Y9776D01*
X265325Y35175D02*
Y35175D01*
X-253413Y14106D02*
X-252200Y15320D01*
X-276575Y35625D02*
Y37200D01*
Y30901D02*
X-275000Y32476D01*
X-273425D01*
X-275000Y34050D02*
X-273425D01*
X-276575D02*
X-275000D01*
D39*
X49715Y23261D02*
D03*
X53328Y28421D02*
D03*
X56941Y33581D02*
D03*
X60554Y38741D02*
D03*
D40*
X-49714Y23260D02*
D03*
X-53327Y28420D02*
D03*
X-56940Y33580D02*
D03*
X-60553Y38740D02*
D03*
D41*
X-257717Y33716D02*
D03*
X-257300Y31300D02*
D03*
X-262060Y36228D02*
D03*
X-260570Y38202D02*
D03*
X-261500Y40100D02*
D03*
X-260392Y34362D02*
D03*
X-251700Y41200D02*
D03*
X262133Y37302D02*
D03*
X276200Y29300D02*
D03*
X259456Y31161D02*
D03*
X258005Y29603D02*
D03*
X251410Y36290D02*
D03*
X253898Y32991D02*
D03*
X255374Y38045D02*
D03*
X253075Y42921D02*
D03*
X50214Y47468D02*
D03*
X47289Y48370D02*
D03*
X-265705Y31420D02*
D03*
X-250516Y32639D02*
D03*
X-250850Y35089D02*
D03*
X-251600Y44200D02*
D03*
X-270800Y31800D02*
D03*
X-9790Y50468D02*
D03*
X-50400Y47300D02*
D03*
X-239200Y48600D02*
D03*
X235529Y57051D02*
D03*
X271851Y29677D02*
D03*
X281158Y30433D02*
D03*
X267600Y53851D02*
D03*
X275679Y53551D02*
D03*
X255800Y13400D02*
D03*
X275200Y55900D02*
D03*
X-280200Y38817D02*
D03*
X-283200Y38800D02*
D03*
X-282000Y35600D02*
D03*
X-282100Y32400D02*
D03*
X-276200Y55700D02*
D03*
X-255300Y4100D02*
D03*
X-46801Y47500D02*
D03*
X252232Y8201D02*
D03*
X252700Y10900D02*
D03*
X-252626Y6626D02*
D03*
X-252700Y10300D02*
D03*
D42*
X269010Y36730D02*
D03*
X264875Y34775D02*
D03*
X266475Y34875D02*
D03*
X268900Y35400D02*
D03*
X262708Y30817D02*
D03*
X260800Y34900D02*
D03*
X264875Y31675D02*
D03*
X262700Y33900D02*
D03*
X271400Y33700D02*
D03*
X270524Y36721D02*
D03*
X276726Y37359D02*
D03*
X276693Y36111D02*
D03*
X264875Y33275D02*
D03*
X-278497Y33900D02*
D03*
X-280822Y33950D02*
D03*
X-278500Y35900D02*
D03*
X-276300Y35300D02*
D03*
X-274700D02*
D03*
X-273100D02*
D03*
X-277800Y32900D02*
D03*
D43*
X-38204Y36658D02*
D03*
X241686Y49341D02*
D03*
D44*
X-276587Y29713D02*
D03*
M02*
