G04*
G04 #@! TF.GenerationSoftware,Altium Limited,Altium Designer,19.1.5 (86)*
G04*
G04 Layer_Color=65535*
%FSLAX25Y25*%
%MOIN*%
G70*
G01*
G75*
%ADD10C,0.01000*%
%ADD11C,0.00787*%
%ADD12C,0.00600*%
%ADD13C,0.00394*%
%ADD14C,0.00800*%
D10*
X45348Y21891D02*
G03*
X45348Y21891I-197J0D01*
G01*
X-60083Y43497D02*
G03*
X-60083Y43497I-197J0D01*
G01*
X239368Y62406D02*
G03*
X236888Y55573I178J-3931D01*
G01*
X241516Y51365D02*
G03*
X241516Y51365I-47J0D01*
G01*
X250714Y11834D02*
G03*
X250721Y4565I1512J-3633D01*
G01*
X256512Y2177D02*
G03*
X256512Y2177I-47J0D01*
G01*
X-250714Y4568D02*
G03*
X-250721Y11836I-1512J3633D01*
G01*
X-256417Y14224D02*
G03*
X-256417Y14224I-47J0D01*
G01*
X-236881Y55579D02*
G03*
X-239373Y62407I-2664J2897D01*
G01*
X-245540Y62686D02*
G03*
X-245540Y62686I-47J0D01*
G01*
X42126Y33781D02*
Y40868D01*
X46850Y33781D02*
Y40868D01*
D11*
X-114370Y27760D02*
G03*
X-113976Y27760I197J0D01*
G01*
D02*
G03*
X-114370Y27760I-197J0D01*
G01*
D02*
G03*
X-113976Y27760I197J0D01*
G01*
X114370Y50595D02*
G03*
X113976Y50595I-197J0D01*
G01*
D02*
G03*
X114370Y50595I197J0D01*
G01*
D02*
G03*
X113976Y50595I-197J0D01*
G01*
X262349Y38545D02*
G03*
X262349Y38545I-394J0D01*
G01*
X-281126Y38995D02*
G03*
X-281126Y38995I-394J0D01*
G01*
X261955Y36750D02*
X263750Y38545D01*
X261955Y28655D02*
Y36750D01*
Y28655D02*
X271845D01*
Y38545D01*
X263750D02*
X271845D01*
X-281520Y37200D02*
X-279724Y38995D01*
X-281520Y29105D02*
Y37200D01*
Y29105D02*
X-271630D01*
Y38995D01*
X-279724D02*
X-271630D01*
D12*
X-45829Y40398D02*
X-41892D01*
X-45829Y32917D02*
Y40398D01*
Y32917D02*
X-41892D01*
Y40398D01*
X-51486Y32917D02*
X-47549D01*
Y40398D01*
X-51486D02*
X-47549D01*
X-51486Y32917D02*
Y40398D01*
X280167Y31245D02*
Y38726D01*
X284104D01*
Y31245D02*
Y38726D01*
X280167Y31245D02*
X284104D01*
X272896Y27617D02*
X280376D01*
X272896D02*
Y31554D01*
X280376D01*
Y27617D02*
Y31554D01*
X272896Y31217D02*
X280376D01*
X272896D02*
Y35154D01*
X280376D01*
Y31217D02*
Y35154D01*
X272896Y34917D02*
X280376D01*
X272896D02*
Y38854D01*
X280376D01*
Y34917D02*
Y38854D01*
X-261540Y29732D02*
X-254060D01*
X-261540D02*
Y33669D01*
X-254060D01*
Y29732D02*
Y33669D01*
X-261460Y33852D02*
X-253979D01*
X-261460D02*
Y37789D01*
X-253979D01*
Y33852D02*
Y37789D01*
X-270280Y29932D02*
X-262800D01*
X-270280D02*
Y33869D01*
X-262800D01*
Y29932D02*
Y33869D01*
X-270431Y37718D02*
X-262950D01*
Y33781D02*
Y37718D01*
X-270431Y33781D02*
X-262950D01*
X-270431D02*
Y37718D01*
X-52176Y42484D02*
Y45483D01*
X-50677D01*
X-50177Y44983D01*
Y43983D01*
X-50677Y43483D01*
X-52176D01*
X-51177D02*
X-50177Y42484D01*
X-47178Y45483D02*
X-48178Y44983D01*
X-49177Y43983D01*
Y42984D01*
X-48678Y42484D01*
X-47678D01*
X-47178Y42984D01*
Y43483D01*
X-47678Y43983D01*
X-49177D01*
X-45435Y42200D02*
Y45199D01*
X-43935D01*
X-43435Y44699D01*
Y43699D01*
X-43935Y43200D01*
X-45435D01*
X-44435D02*
X-43435Y42200D01*
X-40436Y45199D02*
X-42436D01*
Y43699D01*
X-41436Y44199D01*
X-40936D01*
X-40436Y43699D01*
Y42700D01*
X-40936Y42200D01*
X-41936D01*
X-42436Y42700D01*
X42244Y43944D02*
Y46943D01*
X43743D01*
X44243Y46443D01*
Y45443D01*
X43743Y44943D01*
X42244D01*
X43243D02*
X44243Y43944D01*
X46742D02*
Y46943D01*
X45243Y45443D01*
X47242D01*
X-34890Y43499D02*
X-35390Y43999D01*
X-36389D01*
X-36889Y43499D01*
Y41500D01*
X-36389Y41000D01*
X-35390D01*
X-34890Y41500D01*
X-32391Y43999D02*
X-33390D01*
X-33890Y43499D01*
Y41500D01*
X-33390Y41000D01*
X-32391D01*
X-31891Y41500D01*
Y43499D01*
X-32391Y43999D01*
X-30891Y41000D02*
Y43999D01*
X-28892Y41000D01*
Y43999D01*
X-27892Y41000D02*
Y43999D01*
X-25893Y41000D01*
Y43999D01*
X-24893Y40500D02*
X-22894D01*
X-19895Y41000D02*
X-21894D01*
X-19895Y42999D01*
Y43499D01*
X-20395Y43999D01*
X-21394D01*
X-21894Y43499D01*
X25245Y42762D02*
X24745Y43261D01*
X23745D01*
X23245Y42762D01*
Y40762D01*
X23745Y40262D01*
X24745D01*
X25245Y40762D01*
X27744Y43261D02*
X26744D01*
X26244Y42762D01*
Y40762D01*
X26744Y40262D01*
X27744D01*
X28244Y40762D01*
Y42762D01*
X27744Y43261D01*
X29243Y40262D02*
Y43261D01*
X31243Y40262D01*
Y43261D01*
X32242Y40262D02*
Y43261D01*
X34242Y40262D01*
Y43261D01*
X35241Y39762D02*
X37241D01*
X38241Y40262D02*
X39240D01*
X38740D01*
Y43261D01*
X38241Y42762D01*
X-250420Y37420D02*
X-250920Y37920D01*
X-251920D01*
X-252420Y37420D01*
Y35420D01*
X-251920Y34921D01*
X-250920D01*
X-250420Y35420D01*
X-249421Y34921D02*
X-248421D01*
X-248921D01*
Y37920D01*
X-249421Y37420D01*
X-121832Y41710D02*
X-122832D01*
X-122332D01*
Y39211D01*
X-122832Y38711D01*
X-123332D01*
X-123832Y39211D01*
X-120833Y38711D02*
X-119833D01*
X-120333D01*
Y41710D01*
X-120833Y41210D01*
X244733Y54083D02*
Y51083D01*
X246732D01*
X249731Y54083D02*
X247732D01*
Y51083D01*
X249731D01*
X247732Y52583D02*
X248732D01*
X250731Y54083D02*
Y51083D01*
X252231D01*
X252730Y51583D01*
Y53583D01*
X252231Y54083D01*
X250731D01*
X255230Y51083D02*
Y54083D01*
X253730Y52583D01*
X255730D01*
X251993Y36337D02*
X252993D01*
X252493D01*
Y33338D01*
X251993D01*
X252993D01*
X256491Y35837D02*
X255992Y36337D01*
X254992D01*
X254492Y35837D01*
Y33838D01*
X254992Y33338D01*
X255992D01*
X256491Y33838D01*
X259490Y33338D02*
X257491D01*
X259490Y35337D01*
Y35837D01*
X258991Y36337D01*
X257991D01*
X257491Y35837D01*
X275608Y42671D02*
X275108Y43170D01*
X274109D01*
X273609Y42671D01*
Y40671D01*
X274109Y40171D01*
X275108D01*
X275608Y40671D01*
X278108Y40171D02*
Y43170D01*
X276608Y41671D01*
X278607D01*
X275576Y46988D02*
X275076Y47488D01*
X274076D01*
X273576Y46988D01*
Y44989D01*
X274076Y44489D01*
X275076D01*
X275576Y44989D01*
X276575Y46988D02*
X277075Y47488D01*
X278075D01*
X278575Y46988D01*
Y46489D01*
X278075Y45989D01*
X278575Y45489D01*
Y44989D01*
X278075Y44489D01*
X277075D01*
X276575Y44989D01*
Y45489D01*
X277075Y45989D01*
X276575Y46489D01*
Y46988D01*
X277075Y45989D02*
X278075D01*
X275515Y51063D02*
X275015Y51562D01*
X274016D01*
X273516Y51063D01*
Y49063D01*
X274016Y48564D01*
X275015D01*
X275515Y49063D01*
X278514Y51562D02*
X277515Y51063D01*
X276515Y50063D01*
Y49063D01*
X277015Y48564D01*
X278014D01*
X278514Y49063D01*
Y49563D01*
X278014Y50063D01*
X276515D01*
X281209Y42014D02*
X280709Y41514D01*
Y40514D01*
X281209Y40015D01*
X283208D01*
X283708Y40514D01*
Y41514D01*
X283208Y42014D01*
X283708Y45013D02*
Y43014D01*
X281709Y45013D01*
X281209D01*
X280709Y44513D01*
Y43513D01*
X281209Y43014D01*
X253199Y27000D02*
X251200D01*
Y25667D01*
X253199Y23668D02*
Y25001D01*
X251200D01*
Y23668D01*
X252200Y25001D02*
Y24334D01*
X253199Y23001D02*
X251200D01*
Y22002D01*
X251533Y21668D01*
X252866D01*
X253199Y22002D01*
Y23001D01*
X251200Y19669D02*
Y21002D01*
X252533Y19669D01*
X252866D01*
X253199Y20002D01*
Y20669D01*
X252866Y21002D01*
X-255200Y53499D02*
Y50500D01*
X-253201D01*
X-250202Y53499D02*
X-252201D01*
Y50500D01*
X-250202D01*
X-252201Y51999D02*
X-251201D01*
X-249202Y53499D02*
Y50500D01*
X-247702D01*
X-247203Y51000D01*
Y52999D01*
X-247702Y53499D01*
X-249202D01*
X-246203Y52999D02*
X-245703Y53499D01*
X-244703D01*
X-244204Y52999D01*
Y52499D01*
X-244703Y51999D01*
X-245203D01*
X-244703D01*
X-244204Y51500D01*
Y51000D01*
X-244703Y50500D01*
X-245703D01*
X-246203Y51000D01*
X-251101Y24500D02*
X-253100D01*
Y23167D01*
X-251101Y21168D02*
Y22501D01*
X-253100D01*
Y21168D01*
X-252100Y22501D02*
Y21834D01*
X-251101Y20501D02*
X-253100D01*
Y19502D01*
X-252767Y19168D01*
X-251434D01*
X-251101Y19502D01*
Y20501D01*
X-253100Y18502D02*
Y17835D01*
Y18169D01*
X-251101D01*
X-251434Y18502D01*
X-271141Y44699D02*
X-271640Y45199D01*
X-272640D01*
X-273140Y44699D01*
Y42700D01*
X-272640Y42200D01*
X-271640D01*
X-271141Y42700D01*
X-270141Y45199D02*
X-268142D01*
Y44699D01*
X-270141Y42700D01*
Y42200D01*
X-271191Y48649D02*
X-271691Y49149D01*
X-272691D01*
X-273191Y48649D01*
Y46650D01*
X-272691Y46150D01*
X-271691D01*
X-271191Y46650D01*
X-268192Y49149D02*
X-270192D01*
Y47649D01*
X-269192Y48149D01*
X-268692D01*
X-268192Y47649D01*
Y46650D01*
X-268692Y46150D01*
X-269692D01*
X-270192Y46650D01*
X-250401Y33049D02*
X-250901Y33549D01*
X-251900D01*
X-252400Y33049D01*
Y31050D01*
X-251900Y30550D01*
X-250901D01*
X-250401Y31050D01*
X-249401Y33049D02*
X-248901Y33549D01*
X-247902D01*
X-247402Y33049D01*
Y32549D01*
X-247902Y32050D01*
X-248401D01*
X-247902D01*
X-247402Y31550D01*
Y31050D01*
X-247902Y30550D01*
X-248901D01*
X-249401Y31050D01*
X121028Y41326D02*
X120029D01*
X120528D01*
Y38827D01*
X120029Y38327D01*
X119529D01*
X119029Y38827D01*
X124027Y38327D02*
X122028D01*
X124027Y40326D01*
Y40826D01*
X123528Y41326D01*
X122528D01*
X122028Y40826D01*
X-283400Y43699D02*
X-282400D01*
X-282900D01*
Y40700D01*
X-283400D01*
X-282400D01*
X-278902Y43199D02*
X-279401Y43699D01*
X-280401D01*
X-280901Y43199D01*
Y41200D01*
X-280401Y40700D01*
X-279401D01*
X-278902Y41200D01*
X-277902Y40700D02*
X-276902D01*
X-277402D01*
Y43699D01*
X-277902Y43199D01*
D13*
X-117618Y33606D02*
Y44748D01*
Y33606D02*
Y44748D01*
X-96161Y33606D02*
Y44748D01*
Y33606D02*
Y44748D01*
X-117618Y33606D02*
X-116732D01*
X-117618D02*
X-116732D01*
X-97047D02*
X-96161D01*
X-97047D02*
X-96161D01*
X-97047Y44748D02*
X-96161D01*
X-97047D02*
X-96161D01*
X-117618D02*
X-116732D01*
X-117618D02*
X-116732D01*
X116732Y33606D02*
X117618D01*
X116732D02*
X117618D01*
X96161D02*
X97047D01*
X96161D02*
X97047D01*
X96161Y44748D02*
X97047D01*
X96161D02*
X97047D01*
X116732D02*
X117618D01*
X116732D02*
X117618D01*
X96161Y33606D02*
Y44748D01*
Y33606D02*
Y44748D01*
X117618Y33606D02*
Y44748D01*
Y33606D02*
Y44748D01*
D14*
X-71102Y53934D02*
X-73559Y52214D01*
X-72699Y50986D01*
X-72003Y50863D01*
X-71593Y51149D01*
X-71471Y51846D01*
X-72331Y53074D01*
X-71471Y51846D01*
X-70775Y51723D01*
X-70365Y52010D01*
X-70242Y52706D01*
X-71102Y53934D01*
X-69382Y51477D02*
X-71839Y49757D01*
X-70692Y48120D01*
X-67662Y49021D02*
X-67089Y48202D01*
X-67375Y48611D01*
X-69832Y46891D01*
X-70119Y47301D01*
X-69545Y46482D01*
X-68685Y45253D02*
X-66229Y46973D01*
X-67538Y43616D01*
X-65082Y45336D01*
X-64508Y44517D02*
X-66965Y42797D01*
X-66146Y43370D01*
X-63362Y42879D01*
X-65450Y43247D01*
X-65818Y41159D01*
X63209Y43252D02*
X64356Y44890D01*
X63782Y44071D01*
X66239Y42351D01*
X64929Y45709D02*
X67386Y43988D01*
X66157Y44848D01*
X67304Y46486D01*
X66076Y47346D01*
X68532Y45626D01*
X67796Y49803D02*
X66649Y48165D01*
X69106Y46445D01*
X70253Y48083D01*
X67877Y47305D02*
X68451Y48124D01*
X70826Y48902D02*
X68369Y50622D01*
X69229Y51850D01*
X69925Y51973D01*
X70744Y51399D01*
X70867Y50703D01*
X70007Y49475D01*
X70580Y50294D02*
X71973Y50539D01*
X72546Y51358D02*
X70090Y53079D01*
X71482Y53324D01*
X71236Y54716D01*
X73693Y52996D01*
X72670Y56763D02*
X72096Y55945D01*
X72219Y55248D01*
X73857Y54102D01*
X74553Y54224D01*
X75126Y55043D01*
X75004Y55739D01*
X73366Y56886D01*
X72670Y56763D01*
M02*
