M48
;Layer_Color=9474304
;FILE_FORMAT=2:4
INCH
;TYPE=PLATED
T1F00S00C0.0120
T3F00S00C0.0276
T4F00S00C0.0630
T5F00S00C0.0945
;TYPE=NON_PLATED
T6F00S00C0.0945
%
T01
X069600Y027600
X070800
X072000
X072600Y028800
X072000Y030000
X072600Y031200
X071400
X047400Y026400
X046756Y029260
X046036Y029120
X045575Y030199
X045315Y030231
X045140Y030424
X044896Y030300
X044807Y030600
X044796Y030860
X044996Y031060
X045596Y030660
X044016Y030580
X043356
Y031240
X044016
X041916Y030840
X042016Y030480
X041756Y030200
X041516Y030700
X042636Y029900
X042616Y029500
X042696Y028700
X042416Y028760
X042976Y028820
X043736Y028480
X044376Y028940
X044746Y028600
X041400Y028800
X040200
Y026400
X039600Y025200
Y022800
X038400
X018000Y027600
X016800
X017400Y031200
X015600Y027600
X014400
Y032400
X015600
X015000Y033600
X015600Y034800
X014400
X015000Y036000
X017496Y035850
X017396Y036300
X017600Y036550
X017850Y036700
X017200Y036750
X017146Y034700
X016656Y034860
X016200Y033600
X017346Y032600
X018096Y034020
X019096Y034160
X018146Y035400
X031946Y035450
X042525Y033961
X043163Y033431
X043428Y033610
X044436Y033884
X045491Y033371
X045856Y032560
X045816Y032260
X046096Y032688
X046429Y032795
X046496Y032520
X046796Y032540
X044656Y032160
X044416Y032000
X044476Y031660
X044796Y031500
X044996Y031320
X043336Y032200
X042416Y031620
X041356Y031680
Y032320
X041676Y032800
X047076Y032560
X068546Y034100
X068946Y034050
X069346Y034150
X070246Y034400
X070546Y034350
X070956Y034380
X070696Y033500
X070946Y033150
X072000Y032400
X073200
X072600Y033600
X069596Y031550
X069376Y035480
X069936Y036020
X070096Y036500
X069800Y036550
X069550Y036700
X070396Y036750
T03
X038667Y023550
X039350Y023367
X039533Y024050
X038850Y024233
T04
X070814Y028625
X016586
Y035828
X070814
T05
X041087Y027872
X046313
T06
X040977Y031068
X046415
X019046Y035300
X032955Y034985
X054438
X068346Y035300
M30
