%FSTAX23Y23*%
%MOIN*%
%SFA1B1*%

%IPPOS*%
%ADD69C,0.001970*%
%LNfront_flex-1*%
%LPD*%
G54D69*
X-0049Y00119D02*
X-00485Y00119D01*
X-00479Y00117*
X-00474Y00115*
X-0047Y00112*
X-00466Y00108*
X-00463Y00103*
X-00462Y00101*
X-00461Y00098*
X-0046Y00093*
X-0046Y00088*
X-00461Y00082D02*
X-0046Y00088D01*
X-00463Y00077D02*
X-00461Y00082D01*
X-00465Y00072D02*
X-00463Y00077D01*
X-00469Y00068D02*
X-00465Y00072D01*
X-00473Y00065D02*
X-00469Y00068D01*
X-00478Y00062D02*
X-00473Y00065D01*
X-00483Y00061D02*
X-00478Y00062D01*
X-00489Y0006D02*
X-00483Y00061D01*
X-00494Y00061D02*
X-00489Y0006D01*
X-00499Y00062D02*
X-00494Y00061D01*
X-00504Y00064D02*
X-00499Y00062D01*
X-00509Y00067D02*
X-00504Y00064D01*
X-00512Y00071D02*
X-00509Y00067D01*
X-00515Y00076D02*
X-00512Y00071D01*
X-00517Y00078D02*
X-00515Y00076D01*
X-00518Y00081D02*
X-00517Y00078D01*
X-00519Y00086D02*
X-00518Y00081D01*
X-00519Y00092D02*
X-00519Y00086D01*
X-00519Y00092D02*
X-00518Y00097D01*
X-00516Y00102*
X-00513Y00107*
X-0051Y00111*
X-00505Y00114*
X-00501Y00117*
X-00495Y00118*
X-0049Y00119*
X-02752Y00881D02*
X-02747Y0088D01*
X-02742Y00879*
X-02737Y00877*
X-02732Y00874*
X-02729Y0087*
X-02725Y00865*
X-02723Y0086*
X-02722Y00855*
X-02722Y0085*
X-02723Y00844D02*
X-02722Y0085D01*
X-02724Y00839D02*
X-02723Y00844D01*
X-02727Y00834D02*
X-02724Y00839D01*
X-0273Y0083D02*
X-02727Y00834D01*
X-02735Y00827D02*
X-0273Y0083D01*
X-02739Y00824D02*
X-02735Y00827D01*
X-02744Y00822D02*
X-02739Y00824D01*
X-02747Y00822D02*
X-02744Y00822D01*
X-0275Y00822D02*
X-02747Y00822D01*
X-02756Y00822D02*
X-0275Y00822D01*
X-02761Y00823D02*
X-02756Y00822D01*
X-02766Y00825D02*
X-02761Y00823D01*
X-0277Y00828D02*
X-02766Y00825D01*
X-02774Y00832D02*
X-0277Y00828D01*
X-02777Y00837D02*
X-02774Y00832D01*
X-02779Y00842D02*
X-02777Y00837D01*
X-02781Y00847D02*
X-02779Y00842D01*
X-02781Y00852D02*
X-02781Y00847D01*
X-02781Y00852D02*
X-0278Y00858D01*
X-02778Y00863*
X-02776Y00868*
X-02772Y00872*
X-02768Y00875*
X-02763Y00878*
X-02758Y0088*
X-02755Y0088*
X-02752Y00881*
X02753Y00881D02*
X02758Y0088D01*
X02761Y00879*
X02764Y00878*
X02768Y00875*
X02773Y00872*
X02776Y00867*
X02779Y00863*
X0278Y00857*
X02781Y00852*
X02781Y00847D02*
X02781Y00852D01*
X02779Y00841D02*
X02781Y00847D01*
X02777Y00836D02*
X02779Y00841D01*
X02774Y00832D02*
X02777Y00836D01*
X0277Y00828D02*
X02774Y00832D01*
X02766Y00825D02*
X0277Y00828D01*
X02761Y00823D02*
X02766Y00825D01*
X02755Y00822D02*
X02761Y00823D01*
X0275Y00822D02*
X02755Y00822D01*
X02744Y00822D02*
X0275Y00822D01*
X02742Y00823D02*
X02744Y00822D01*
X02739Y00824D02*
X02742Y00823D01*
X02734Y00827D02*
X02739Y00824D01*
X0273Y0083D02*
X02734Y00827D01*
X02727Y00835D02*
X0273Y0083D01*
X02724Y00839D02*
X02727Y00835D01*
X02723Y00845D02*
X02724Y00839D01*
X02722Y0085D02*
X02723Y00845D01*
X02722Y0085D02*
X02722Y00855D01*
X02723Y00861*
X02726Y00866*
X02729Y0087*
X02733Y00874*
X02737Y00877*
X02742Y00879*
X02747Y0088*
X02753Y00881*
X-00344Y00864D02*
X-00343Y00864D01*
X-00344Y00864D02*
X-00343Y00864D01*
X-00344Y00864D02*
X-00344Y00864D01*
X01585Y01149D02*
X01665Y01142D01*
X0139Y01148D02*
X01585Y01149D01*
X01316Y01142D02*
X0139Y01148D01*
X01242Y01132D02*
X01316Y01142D01*
X01163Y01118D02*
X01242Y01132D01*
X01093Y01102D02*
X01163Y01118D01*
X01023Y01082D02*
X01093Y01102D01*
X00947Y01057D02*
X01023Y01082D01*
X00879Y01031D02*
X00947Y01057D01*
X00812Y01002D02*
X00879Y01031D01*
X00749Y0097D02*
X00812Y01002D01*
X00687Y00936D02*
X00749Y0097D01*
X00626Y009D02*
X00687Y00936D01*
X00573Y00865D02*
X00626Y009D01*
X00521Y00828D02*
X00573Y00865D01*
X00471Y00789D02*
X00521Y00828D01*
X00432Y0079D02*
X00471Y00789D01*
X00397Y00821D02*
X00432Y0079D01*
X00376Y0084D02*
X00397Y00821D01*
X00369Y00843D02*
X00376Y0084D01*
X00356Y00854D02*
X00369Y00843D01*
X00344Y00864D02*
X00356Y00854D01*
X00343Y00864D02*
X00344Y00864D01*
X00325Y00854D02*
X00343Y00864D01*
X00324Y00853D02*
X00325Y00854D01*
X0032Y00852D02*
X00324Y00853D01*
X00316Y00851D02*
X0032Y00852D01*
X00313Y00851D02*
X00316Y00851D01*
X-00313Y00851D02*
X00313D01*
X-00316Y00851D02*
X-00313Y00851D01*
X-0032Y00852D02*
X-00316Y00851D01*
X-00324Y00853D02*
X-0032Y00852D01*
X-00325Y00854D02*
X-00324Y00853D01*
X-00343Y00864D02*
X-00325Y00854D01*
X-00344Y00864D02*
X-00343Y00864D01*
X-00344Y00864D02*
D01*
D01*
D01*
X-00356Y00854D02*
X-00344Y00864D01*
X-00369Y00843D02*
X-00356Y00854D01*
X-00377Y0084D02*
X-00369Y00843D01*
X-00397Y00821D02*
X-00377Y0084D01*
X-00432Y0079D02*
X-00397Y00821D01*
X-00471Y00789D02*
X-00432Y0079D01*
X-00496Y00809D02*
X-00471Y00789D01*
X-00536Y00839D02*
X-00496Y00809D01*
X-00578Y00868D02*
X-00536Y00839D01*
X-00583Y00872D02*
X-00578Y00868D01*
X-00626Y009D02*
X-00583Y00872D01*
X-00687Y00937D02*
X-00626Y009D01*
X-00749Y00971D02*
X-00687Y00937D01*
X-00812Y01002D02*
X-00749Y00971D01*
X-00874Y01029D02*
X-00812Y01002D01*
X-00938Y01054D02*
X-00874Y01029D01*
X-01006Y01077D02*
X-00938Y01054D01*
X-01083Y01099D02*
X-01006Y01077D01*
X-01161Y01117D02*
X-01083Y01099D01*
X-01231Y0113D02*
X-01161Y01117D01*
X-01311Y01141D02*
X-01231Y0113D01*
X-01391Y01148D02*
X-01311Y01141D01*
X-01585Y01149D02*
X-01391Y01148D01*
X-01627Y01146D02*
X-01585Y01149D01*
X-01669Y01141D02*
X-01627Y01146D01*
X-01742Y01132D02*
X-01669Y01141D01*
X-01815Y01119D02*
X-01742Y01132D01*
X-01887Y01103D02*
X-01815Y01119D01*
X-01961Y01082D02*
X-01887Y01103D01*
X-01984Y01076D02*
X-01961Y01082D01*
X-02006Y01069D02*
X-01984Y01076D01*
X-0203Y01062D02*
X-02006Y01069D01*
X-02214Y01007D02*
X-0203Y01062D01*
X-02215Y01007D02*
X-02214Y01007D01*
X-02215Y01006D02*
X-02215Y01007D01*
X-02299Y0098D02*
X-02215Y01006D01*
X-02376Y00957D02*
X-02299Y0098D01*
X-02398Y00945D02*
X-02376Y00957D01*
X-0242Y00934D02*
X-02398Y00945D01*
X-02453Y00921D02*
X-0242Y00934D01*
X-02488Y0091D02*
X-02453Y00921D01*
X-02488Y0091D02*
X-02488Y0091D01*
X-02489Y00859D02*
X-02488Y0091D01*
X-02551Y00858D02*
X-02489Y00859D01*
X-02552Y00858D02*
X-02551Y00858D01*
X-02556Y00858D02*
X-02552Y00858D01*
X-0256Y00856D02*
X-02556Y00858D01*
X-02563Y00854D02*
X-0256Y00856D01*
X-02566Y00851D02*
X-02563Y00854D01*
X-02568Y00848D02*
X-02566Y00851D01*
X-02569Y00844D02*
X-02568Y00848D01*
X-02569Y0084D02*
X-02569Y00844D01*
X-02569Y0084D02*
X-02568Y00732D01*
X-02568Y00732*
X-02567Y00731*
X-02566Y00731*
X-02565Y00731*
X-02565Y0073*
X-02564Y0073*
X-02564Y00729*
X-02563Y00728*
X-02563Y00728*
X-02563Y00727*
X-02563Y00726D02*
X-02563Y00727D01*
X-02563Y00725D02*
X-02563Y00726D01*
X-02564Y00724D02*
X-02563Y00725D01*
X-02565Y00724D02*
X-02564Y00724D01*
X-02565Y00723D02*
X-02565Y00724D01*
X-02566Y00723D02*
X-02565Y00723D01*
X-02567Y00723D02*
X-02566Y00723D01*
X-02568Y00723D02*
X-02567Y00723D01*
X-02569Y00715D02*
X-02568Y00723D01*
X-02571Y00709D02*
X-02569Y00715D01*
X-02574Y00703D02*
X-02571Y00709D01*
X-02579Y00699D02*
X-02574Y00703D01*
X-02584Y00695D02*
X-02579Y00699D01*
X-02591Y00693D02*
X-02584Y00695D01*
X-02596Y00692D02*
X-02591Y00693D01*
X-02597Y00736D02*
X-02596Y00692D01*
X-02597Y00745D02*
X-02597Y00736D01*
X-02597Y0079D02*
X-02597Y00745D01*
X-02597Y00797D02*
X-02597Y0079D01*
X-02598Y00894D02*
X-02597Y00797D01*
X-02598Y00894D02*
X-02598Y00894D01*
X-02599Y00895D02*
X-02598Y00894D01*
X-02758Y00893D02*
X-02599Y00895D01*
X-02758Y00914D02*
X-02758Y00893D01*
X-02758Y00935D02*
X-02758Y00914D01*
X-02759Y00936D02*
X-02758Y00935D01*
X-02759Y00936D02*
X-02759Y00936D01*
X-02777Y00936D02*
X-02759Y00936D01*
X-02797Y00934D02*
X-02777Y00936D01*
X-02816Y00928D02*
X-02797Y00934D01*
X-02833Y00919D02*
X-02816Y00928D01*
X-02833Y00918D02*
X-02833Y00919D01*
X-02833Y00918D02*
X-02833Y00831D01*
X-02832Y00823*
X-02829Y00815*
X-02825Y00808*
X-02819Y00802*
X-02812Y00798*
X-02804Y00795*
X-02797Y00795*
X-02797Y00788*
X-02797Y00744*
X-02797Y00734*
X-02796Y00689*
X-02795Y00599*
X-02795Y00598*
X-02785Y00584*
X-02773Y00573*
X-02758Y00564*
X-02742Y00559*
X-02725Y00558*
X-0258Y00559*
X-02566Y00559*
X-02481Y0056*
X-02481Y00459*
X-02559Y00459D02*
X-02481Y00459D01*
X-0256Y00458D02*
X-02559Y00459D01*
X-0256Y00457D02*
X-0256Y00458D01*
X-0256Y00457D02*
X-02539Y00416D01*
X-02524Y00372*
X-02514Y00327*
X-02509Y00281*
X-02509Y00281*
X-02508Y00281*
X-0243Y00281*
X-0243Y00281*
X-02429Y00282*
X-02433Y00328D02*
X-02429Y00282D01*
X-02433Y00328D02*
X-02432Y00374D01*
X-02427Y0042*
X-02417Y00465*
X-02412Y00487*
X-02412Y00487D02*
X-02412Y00487D01*
X-02421Y0049D02*
X-02412Y00487D01*
X-02428Y00494D02*
X-02421Y0049D01*
X-02434Y005D02*
X-02428Y00494D01*
X-0244Y00506D02*
X-02434Y005D01*
X-02443Y00514D02*
X-0244Y00506D01*
X-02445Y00522D02*
X-02443Y00514D01*
X-02445Y00531D02*
X-02445Y00522D01*
X-02445Y00531D02*
X-02443Y00539D01*
X-0244Y00547*
X-02435Y00554*
X-02428Y00559*
X-02379Y00559*
X-0234Y0056*
X-02207Y00561*
X-01921Y00564*
X-01052Y00572*
X-01051Y00572*
X-01051Y00572*
Y00845D02*
Y00572D01*
X-01051Y00846D02*
X-01051Y00845D01*
X-01052Y00846D02*
X-01051Y00846D01*
X-01053Y00846D02*
X-01052Y00846D01*
X-01313Y00846D02*
X-01053Y00846D01*
X-01313Y00846D02*
X-01313Y00846D01*
X-01325Y00834D02*
X-01313Y00846D01*
X-01325Y00834D02*
X-01325Y00834D01*
X-01325Y00729D02*
Y00834D01*
X-01924Y00724D02*
X-01325Y00729D01*
X-0221Y00721D02*
X-01924Y00724D01*
X-02342Y0072D02*
X-0221Y00721D01*
X-02381Y00719D02*
X-02342Y0072D01*
X-02429Y00719D02*
X-02381Y00719D01*
X-02429Y00741D02*
X-02429Y00719D01*
X-02429Y00741D02*
X-02429Y00744D01*
X-02428Y00746*
X-02427Y00749*
X-02424Y00751*
X-02422Y00753*
X-02419Y00754*
X-02416Y00754*
X-02296Y00755*
X-02269Y00755*
X-02268Y00755*
X-02213Y00802*
X-02213Y008*
X-02213Y008*
X-02212Y00799*
X-02212Y00799*
X-02184Y00821*
X-02156Y00841*
X-02118Y00865*
X-02074Y00888*
X-02028Y00908*
X-01993Y0092*
X-01889Y0095*
X-01797Y00973*
X-01703Y00992*
X-01607Y01008*
X-01511Y0102*
X-01465Y01024*
X-01419Y01025*
X-0136Y01025*
X-01301Y01021*
X-01243Y01014*
X-01179Y01002*
X-01122Y00989*
X-01059Y0097*
X-00998Y00947*
X-00944Y00923*
X-00892Y00897*
X-00835Y00864*
X-00786Y00831*
X-00738Y00796*
X-00699Y00763*
X-00661Y00729*
X-00625Y00692*
X-00562Y0062*
X-00539Y00589*
X-00518Y00556*
X-00494Y00513*
X-00475Y00469*
X-00475Y00468*
X-00473Y00463*
X-00463Y0045*
X-00449Y0044*
X-00438Y00436*
X-00602Y00408D02*
X-00438Y00436D01*
X-00603Y00408D02*
X-00602Y00408D01*
X-00603Y00407D02*
X-00603Y00408D01*
X-00603Y00407D02*
X-00582Y00283D01*
X-00639Y00273D02*
X-00582Y00283D01*
X-00643Y00272D02*
X-00639Y00273D01*
X-00646Y0027D02*
X-00643Y00272D01*
X-00649Y00268D02*
X-00646Y0027D01*
X-00652Y00265D02*
X-00649Y00268D01*
X-00654Y00262D02*
X-00652Y00265D01*
X-00655Y00259D02*
X-00654Y00262D01*
X-00656Y00255D02*
X-00655Y00259D01*
X-00657Y00252D02*
X-00656Y00255D01*
X-00657Y00252D02*
X-00638Y00139D01*
X-00634Y00135*
X-00632Y00132*
X-00629Y0013*
X-00625Y00128*
X-00622Y00127*
X-00618Y00127*
X-00614Y00127*
X-00576Y00134*
X-00573Y00134*
X-00569Y00134*
X-00566Y00133*
X-00563Y00131*
X-0056Y00129*
X-00558Y00127*
X-00556Y00124*
X-00555Y00121*
X-00554Y00119*
X-00548Y0008*
X-00546Y00073*
X-00542Y00062*
X-00536Y00053*
X-00528Y00046*
X-00519Y0004*
X-00508Y00035*
X-00498Y00033*
X-0049Y00033*
X-00483Y00034*
X-00477Y00035*
X-00466Y00038*
X-00456Y00043*
X-00448Y00049*
X-00441Y00058*
X-00435Y00067*
X-00432Y00078*
X-0043Y00089*
X-00431Y00099D02*
X-0043Y00089D01*
X-00468Y00316D02*
X-00431Y00099D01*
X-00468Y00316D02*
X-00415Y00325D01*
X-00396Y00325*
X-00378Y00325*
X-00331Y00325*
X-00327Y00326*
X-00324Y00327*
X-0032Y00329*
X-00317Y00331*
X-00315Y00334*
X-00313Y00337*
X-00312Y0034*
X-00311Y00344*
X-00311Y00347*
X-00311Y0035D02*
X-00311Y00347D01*
X-00319Y00389D02*
X-00311Y0035D01*
X-00319Y00389D02*
X-00319Y00389D01*
X-00332Y00399D02*
X-00319Y00389D01*
X-00344Y0041D02*
X-00332Y00399D01*
X-00359Y00429D02*
X-00344Y0041D01*
X-00371Y0045D02*
X-00359Y00429D01*
X-00377Y00466D02*
X-00371Y0045D01*
X-00377Y00469D02*
X-00377Y00466D01*
X-00383Y00487D02*
X-00377Y00469D01*
X-00385Y00504D02*
X-00383Y00487D01*
X-00385Y00504D02*
X-00385Y00522D01*
X-00383Y00539*
X-00377Y00558*
X-00368Y00576*
X-00356Y00592*
X-00354Y00593*
X-00295Y00634*
X-00288Y00637*
X-00272Y00645*
X-00226Y00662*
X-00204Y00668*
X-00182Y00674*
X-00146Y0068*
X-00089Y00683*
X00089*
X00146Y0068*
X00169Y00676*
X00191Y00672*
X00226Y00662*
X00272Y00645*
X00288Y00637*
X00295Y00634*
X00354Y00593*
X00356Y00592*
X00366Y00579*
X00374Y00565*
X00381Y00547*
X00385Y00528*
X00386Y00508*
X00383Y00489D02*
X00386Y00508D01*
X00377Y00469D02*
X00383Y00489D01*
X00375Y0045D02*
X00377Y00469D01*
X00369Y00431D02*
X00375Y0045D01*
X0036Y00415D02*
X00369Y00431D01*
X00353Y00409D02*
X0036Y00415D01*
X00345Y00403D02*
X00353Y00409D01*
X00307Y00375D02*
X00345Y00403D01*
X00302Y00371D02*
X00307Y00375D01*
X00298Y00367D02*
X00302Y00371D01*
X00296Y00362D02*
X00298Y00367D01*
X00294Y00356D02*
X00296Y00362D01*
X00293Y0035D02*
X00294Y00356D01*
X00293Y0035D02*
X00293Y00344D01*
X00293Y00341*
X00294Y00337*
X00322Y00253*
X00323Y00251*
X00324Y00249*
X00326Y00247*
X00406Y00147*
X0041Y00143*
X00414Y00141*
X00419Y0014*
X00423Y00139*
X00428Y0014*
X00563Y00189*
X00582Y00198*
X00598Y00211*
X00613Y00226*
X00623Y00244*
X0063Y00264*
X00633Y00285*
X00632Y00306D02*
X00633Y00285D01*
X00627Y00327D02*
X00632Y00306D01*
X00627Y00327D02*
X00627Y00327D01*
X00618Y00346D02*
X00627Y00327D01*
X00605Y00363D02*
X00618Y00346D01*
X00589Y00377D02*
X00605Y00363D01*
X00571Y00388D02*
X00589Y00377D01*
X00551Y00395D02*
X00571Y00388D01*
X0053Y00398D02*
X00551Y00395D01*
X00509Y00397D02*
X0053Y00398D01*
X00489Y00392D02*
X00509Y00397D01*
X00433Y00371D02*
X00489Y00392D01*
X00433Y00371D02*
X00437Y00375D01*
X0044Y00379*
X00443Y00383*
X00446Y00387*
X00448Y00392*
X0045Y00397*
X00458Y00425*
X00473Y00466*
X00475Y00468*
X00475Y00469*
X00491Y00507*
X00511Y00544*
X00534Y00581*
X00563Y0062*
X00625Y00692*
X00661Y00729*
X00699Y00763*
X00738Y00796*
X00789Y00833*
X00842Y00868*
X00893Y00897*
X00951Y00927*
X01011Y00952*
X01066Y00972*
X01129Y00991*
X01192Y01005*
X01256Y01016*
X01321Y01023*
X01386Y01026*
X01445Y01025*
X01511Y0102*
X01569Y01013*
X01627Y01005*
X01714Y0099*
X01802Y00972*
X01889Y0095*
X01993Y0092*
X02028Y00908*
X0206Y00894*
X02091Y00879*
X02131Y00857*
X02172Y0083*
X02212Y008*
X02212Y00799*
X02213Y008*
X02213Y008*
X02213Y00802*
X02268Y00755*
X02268Y00755*
X02296Y00755*
X02416Y00754*
X02419Y00754*
X02422Y00753*
X02424Y00751*
X02427Y00749*
X02428Y00746*
X02429Y00744*
X02429Y00741*
X02429Y00719D02*
X02429Y00741D01*
X02381Y00719D02*
X02429Y00719D01*
X02342Y0072D02*
X02381Y00719D01*
X0221Y00721D02*
X02342Y0072D01*
X01924Y00724D02*
X0221Y00721D01*
X01325Y00729D02*
X01924Y00724D01*
X01325Y00729D02*
Y00833D01*
X01325Y00833*
X01325Y00834D02*
X01325Y00833D01*
X01313Y00846D02*
X01325Y00834D01*
X01312Y00846D02*
X01313Y00846D01*
X01053Y00846D02*
X01312D01*
X01052Y00846D02*
X01053Y00846D01*
X01051Y00846D02*
X01052Y00846D01*
X01051Y00846D02*
X01051Y00846D01*
X01051Y00573D02*
Y00846D01*
Y00573D02*
X01051Y00572D01*
X01052Y00572*
X01921Y00564*
X02207Y00561*
X0234Y0056*
X02379Y00559*
X02428Y00559*
X02435Y00554*
X0244Y00547*
X02443Y00539*
X02445Y00531*
X02445Y00522D02*
X02445Y00531D01*
X02443Y00514D02*
X02445Y00522D01*
X0244Y00506D02*
X02443Y00514D01*
X02434Y005D02*
X0244Y00506D01*
X02428Y00494D02*
X02434Y005D01*
X02421Y0049D02*
X02428Y00494D01*
X02412Y00488D02*
X02421Y0049D01*
X02412Y00487D02*
X02412Y00488D01*
X02412Y00487D02*
Y00486D01*
X02417Y00465*
X02427Y0042*
X02432Y00374*
X02433Y00328*
X02429Y00282D02*
X02433Y00328D01*
X02429Y00282D02*
X0243Y00282D01*
X0243Y00281*
X02508Y00281*
X02509Y00281*
X02509Y00281*
X02514Y00327*
X02524Y00372*
X02539Y00416*
X0256Y00458*
X0256Y00458D02*
X0256Y00458D01*
X02559Y00459D02*
X0256Y00458D01*
X02481Y00459D02*
X02559Y00459D01*
X02481Y00459D02*
X02481Y0056D01*
X02566Y00559*
X0258Y00559*
X02726Y00558*
X02742Y00559*
X02758Y00565*
X02773Y00573*
X02786Y00584*
X02795Y00598*
X02795Y00599*
X02796Y00689*
X02797Y00734*
X02797Y00744*
X02797Y00788*
X02797Y00795*
X02804Y00795*
X02812Y00798*
X02819Y00803*
X02825Y00808*
X0283Y00815*
X02832Y00823*
X02833Y00831*
X02833Y00918*
X02833Y00919D02*
X02833Y00918D01*
X02816Y00928D02*
X02833Y00919D01*
X02797Y00934D02*
X02816Y00928D01*
X02777Y00936D02*
X02797Y00934D01*
X02759Y00936D02*
X02777Y00936D01*
X02759Y00936D02*
X02759Y00936D01*
X02758Y00935D02*
X02759Y00936D01*
X02758Y00914D02*
X02758Y00935D01*
X02758Y00893D02*
X02758Y00914D01*
X02599Y00895D02*
X02758Y00893D01*
X02598Y00894D02*
X02599Y00895D01*
X02598Y00894D02*
X02598Y00894D01*
X02597Y00797D02*
X02598Y00894D01*
X02597Y0079D02*
X02597Y00797D01*
X02597Y00745D02*
X02597Y0079D01*
X02597Y00736D02*
X02597Y00745D01*
X02596Y00692D02*
X02597Y00736D01*
X02591Y00693D02*
X02596Y00692D01*
X02584Y00695D02*
X02591Y00693D01*
X02579Y00699D02*
X02584Y00695D01*
X02574Y00703D02*
X02579Y00699D01*
X02571Y00709D02*
X02574Y00703D01*
X02569Y00715D02*
X02571Y00709D01*
X02568Y00722D02*
X02569Y00715D01*
X02567Y00723D02*
X02568Y00722D01*
X02567Y00723D02*
X02568Y00723D01*
X02567Y00723D02*
X02568Y00723D01*
X02566Y00723D02*
X02567Y00723D01*
X02565Y00723D02*
X02566Y00723D01*
X02565Y00724D02*
X02565Y00723D01*
X02564Y00724D02*
X02565Y00724D01*
X02564Y00725D02*
X02564Y00724D01*
X02563Y00726D02*
X02564Y00725D01*
X02563Y00727D02*
X02563Y00726D01*
X02563Y00727D02*
Y00728D01*
X02563Y00728*
X02564Y00729*
X02564Y0073*
X02565Y0073*
X02565Y00731*
X02566Y00731*
X02567Y00731*
X02568Y00731*
X02568Y00732*
X02569Y0084*
X02569Y00844D02*
X02569Y0084D01*
X02567Y00848D02*
X02569Y00844D01*
X02565Y00851D02*
X02567Y00848D01*
X02563Y00854D02*
X02565Y00851D01*
X0256Y00856D02*
X02563Y00854D01*
X02556Y00858D02*
X0256Y00856D01*
X02552Y00858D02*
X02556Y00858D01*
X02551Y00858D02*
X02552Y00858D01*
X02489Y00859D02*
X02551Y00858D01*
X02489Y00859D02*
X02489Y00909D01*
X02488Y0091D02*
X02489Y00909D01*
X02468Y00916D02*
X02488Y0091D01*
X02448Y00923D02*
X02468Y00916D01*
X02411Y00938D02*
X02448Y00923D01*
X02376Y00957D02*
X02411Y00938D01*
X02299Y0098D02*
X02376Y00957D01*
X02215Y01006D02*
X02299Y0098D01*
X02215Y01006D02*
X02215Y01006D01*
X02215Y01007D02*
X02215Y01006D01*
X0203Y01062D02*
X02215Y01007D01*
X02008Y01068D02*
X0203Y01062D01*
X01985Y01075D02*
X02008Y01068D01*
X01961Y01082D02*
X01985Y01075D01*
X01887Y01103D02*
X01961Y01082D01*
X01816Y01118D02*
X01887Y01103D01*
X01745Y01131D02*
X01816Y01118D01*
X01665Y01142D02*
X01745Y01131D01*
M02*