G04*
G04 #@! TF.GenerationSoftware,Altium Limited,Altium Designer,20.0.13 (296)*
G04*
G04 Layer_Physical_Order=1*
G04 Layer_Color=255*
%FSLAX25Y25*%
%MOIN*%
G70*
G01*
G75*
%ADD14P,0.06960X4X90.0*%
%ADD15R,0.02165X0.02165*%
%ADD16R,0.01575X0.02362*%
%ADD17R,0.02362X0.01575*%
%ADD18R,0.22441X0.22441*%
%ADD19R,0.01181X0.03347*%
%ADD20R,0.03347X0.01181*%
%ADD21R,0.02165X0.02165*%
%ADD22P,0.03062X4X180.0*%
%ADD23P,0.03062X4X90.0*%
%ADD24R,0.05709X0.04528*%
G04:AMPARAMS|DCode=25|XSize=29.53mil|YSize=23.62mil|CornerRadius=0mil|HoleSize=0mil|Usage=FLASHONLY|Rotation=45.000|XOffset=0mil|YOffset=0mil|HoleType=Round|Shape=Rectangle|*
%AMROTATEDRECTD25*
4,1,4,-0.00209,-0.01879,-0.01879,-0.00209,0.00209,0.01879,0.01879,0.00209,-0.00209,-0.01879,0.0*
%
%ADD25ROTATEDRECTD25*%

%ADD26R,0.07087X0.03937*%
%ADD27R,0.03937X0.03543*%
%ADD43C,0.00800*%
%ADD44C,0.00400*%
%ADD45C,0.00600*%
%ADD46C,0.01772*%
%ADD47C,0.06299*%
G36*
X48943Y18053D02*
X49217Y17566D01*
Y17017D01*
X51723D01*
X51972Y16417D01*
X51181Y15626D01*
X52300Y14507D01*
X53773Y15980D01*
X54480Y15273D01*
X53007Y13800D01*
X53951Y12857D01*
X53548Y12319D01*
X52895Y12449D01*
X50874Y14470D01*
X49231Y12828D01*
X48943Y12947D01*
Y12947D01*
X45649D01*
Y14000D01*
X45459Y14459D01*
X42420Y17498D01*
X42650Y18053D01*
X48943D01*
D02*
G37*
G36*
X33025Y12360D02*
X33209Y12230D01*
Y12142D01*
X33399Y11682D01*
X34866Y10216D01*
X34513Y9730D01*
X34201Y9792D01*
X33889Y9730D01*
X33624Y9553D01*
X33561Y9459D01*
X33218D01*
Y6494D01*
Y3541D01*
X34155D01*
X34189Y3500D01*
X34289Y2998D01*
X34573Y2573D01*
X34998Y2289D01*
X35500Y2189D01*
X36002Y2289D01*
X36427Y2573D01*
X36711Y2998D01*
X36801Y3452D01*
X36811Y3500D01*
X37320Y4017D01*
X39683D01*
Y6617D01*
X40583D01*
Y7906D01*
X41057Y8210D01*
X48760D01*
X49022Y7643D01*
X48364Y7073D01*
X45777Y5277D01*
X44799Y4743D01*
X44283Y5049D01*
Y6983D01*
X41317D01*
Y4017D01*
X42048D01*
X42167Y3417D01*
X40104Y2562D01*
X37082Y1675D01*
X33982Y1116D01*
X33247Y1063D01*
X33238Y1135D01*
X32799Y2194D01*
X32655Y2382D01*
X29636Y-636D01*
X28364Y636D01*
X31382Y3655D01*
X31194Y3799D01*
X30136Y4238D01*
X29000Y4387D01*
X27865Y4238D01*
X27636Y4143D01*
X26995Y4527D01*
X26964Y4841D01*
X30380Y8257D01*
X30571Y8717D01*
Y12052D01*
X31171Y12372D01*
X31296Y12289D01*
X31798Y12189D01*
X32299Y12289D01*
X32609Y12496D01*
X33025Y12360D01*
D02*
G37*
G36*
X41630Y57870D02*
X41400Y57316D01*
X38437D01*
X38125Y57254D01*
X37860Y57077D01*
X37860Y57077D01*
X36641Y55858D01*
X36465Y55593D01*
X36427Y55404D01*
X36118Y55176D01*
X35518Y55187D01*
Y55187D01*
X34347D01*
Y56197D01*
X32559D01*
Y56697D01*
X32059D01*
Y58878D01*
X30772D01*
Y58278D01*
X29228D01*
Y58878D01*
X27941D01*
Y56697D01*
X26941D01*
Y58878D01*
X26854D01*
X26822Y59478D01*
X28741Y59684D01*
X30316D01*
X30316Y59684D01*
X39816Y59684D01*
X41630Y57870D01*
D02*
G37*
G36*
X41990Y55130D02*
X36666Y49806D01*
X36540Y49500D01*
X36666Y49194D01*
X49194Y36666D01*
X49500Y36540D01*
X49806Y36666D01*
X56320Y43180D01*
X59693Y39806D01*
X59693Y34795D01*
X59483Y34283D01*
X56517D01*
Y33514D01*
X55869D01*
Y34821D01*
X51131D01*
X51131Y34821D01*
X50729Y34942D01*
X50455Y34996D01*
X44307D01*
X44153Y35180D01*
X43930Y35596D01*
X44006Y35978D01*
X43906Y36480D01*
X43622Y36905D01*
X43196Y37189D01*
X42695Y37289D01*
X42646Y37279D01*
X42131Y37353D01*
X41994Y37715D01*
X41964Y37865D01*
X41680Y38290D01*
X41255Y38574D01*
X40753Y38674D01*
X40656Y38754D01*
Y40235D01*
X39918D01*
X39602Y40835D01*
X39711Y40998D01*
X39811Y41500D01*
X39711Y42002D01*
X39427Y42427D01*
X39050Y42679D01*
X38959Y42898D01*
X37125Y44732D01*
X36666Y44923D01*
X34876D01*
X34339Y45012D01*
X34200Y45477D01*
X34191Y45522D01*
X33907Y45947D01*
X33482Y46231D01*
X32980Y46331D01*
X32478Y46231D01*
X32053Y45947D01*
X31883Y45692D01*
X31283Y45874D01*
Y48483D01*
X28317D01*
Y46623D01*
X27717Y46226D01*
X27495Y46270D01*
X27283Y46228D01*
X26683Y46629D01*
Y48483D01*
X25127D01*
X24583Y48617D01*
Y50200D01*
X22500D01*
Y51200D01*
X24583D01*
X24583Y52502D01*
X25183Y52744D01*
X25654Y52517D01*
Y51803D01*
X27441D01*
Y51303D01*
X27941D01*
Y49122D01*
X29228D01*
Y49722D01*
X30772D01*
Y49122D01*
X32059D01*
Y51303D01*
X32559D01*
Y51803D01*
X34347D01*
Y52813D01*
X35518D01*
Y53184D01*
X36331D01*
X36331Y53184D01*
X36643Y53246D01*
X36908Y53423D01*
X37795Y54311D01*
X37795Y54311D01*
X37972Y54575D01*
X38034Y54887D01*
Y54943D01*
X38775Y55684D01*
X41761D01*
X41990Y55130D01*
D02*
G37*
%LPC*%
G36*
X34347Y58878D02*
X33059D01*
Y57197D01*
X34347D01*
Y58878D01*
D02*
G37*
G36*
Y50803D02*
X33059D01*
Y49122D01*
X34347D01*
Y50803D01*
D02*
G37*
G36*
X26941D02*
X25654D01*
Y49122D01*
X26941D01*
Y50803D01*
D02*
G37*
%LPD*%
D14*
X49500Y55764D02*
D03*
X43236Y49500D02*
D03*
X55764D02*
D03*
X49500Y43236D02*
D03*
D15*
X38200Y5500D02*
D03*
X42800D02*
D03*
X14700Y7500D02*
D03*
X19300D02*
D03*
X50700Y22000D02*
D03*
X55300D02*
D03*
X48800Y32500D02*
D03*
X44200D02*
D03*
X29800Y47000D02*
D03*
X25200D02*
D03*
X55300Y18500D02*
D03*
X50700D02*
D03*
X48800Y28500D02*
D03*
X44200D02*
D03*
X48800Y25000D02*
D03*
X44200D02*
D03*
X34701Y7976D02*
D03*
Y5024D02*
D03*
X24268D02*
D03*
Y7976D02*
D03*
X20800Y47000D02*
D03*
X16200D02*
D03*
D16*
X27441Y56697D02*
D03*
X30000D02*
D03*
X32559D02*
D03*
X27441Y51303D02*
D03*
X30000D02*
D03*
X32559D02*
D03*
D17*
X33937Y54000D02*
D03*
X26063D02*
D03*
D18*
X25000Y28417D02*
D03*
D19*
X35827Y14835D02*
D03*
X33858D02*
D03*
X31890D02*
D03*
X29921D02*
D03*
X27953D02*
D03*
X25984D02*
D03*
X24016D02*
D03*
X22047D02*
D03*
X20079D02*
D03*
X18110D02*
D03*
X16142D02*
D03*
X14173D02*
D03*
Y42000D02*
D03*
X16142D02*
D03*
X18110D02*
D03*
X20079D02*
D03*
X22047D02*
D03*
X24016D02*
D03*
X25984D02*
D03*
X27953D02*
D03*
X29921D02*
D03*
X31890D02*
D03*
X33858D02*
D03*
X35827D02*
D03*
D20*
X11417Y17591D02*
D03*
Y19559D02*
D03*
Y21528D02*
D03*
Y23496D02*
D03*
Y25465D02*
D03*
Y27433D02*
D03*
Y29402D02*
D03*
Y31370D02*
D03*
Y33339D02*
D03*
Y35307D02*
D03*
Y37276D02*
D03*
Y39244D02*
D03*
X38583D02*
D03*
Y37276D02*
D03*
Y35307D02*
D03*
Y33339D02*
D03*
Y31370D02*
D03*
Y29402D02*
D03*
Y27433D02*
D03*
Y25465D02*
D03*
Y23496D02*
D03*
Y21528D02*
D03*
Y19559D02*
D03*
Y17591D02*
D03*
D21*
X10000Y43700D02*
D03*
Y48300D02*
D03*
X38500Y8700D02*
D03*
Y13300D02*
D03*
X58000Y28200D02*
D03*
Y32800D02*
D03*
X3500Y38800D02*
D03*
Y34200D02*
D03*
X22500Y55300D02*
D03*
Y50700D02*
D03*
D22*
X9374Y13126D02*
D03*
X12626Y9874D02*
D03*
D23*
X54126Y15626D02*
D03*
X50874Y12374D02*
D03*
D24*
X5500Y20957D02*
D03*
Y28043D02*
D03*
D25*
X14469Y51469D02*
D03*
X17531Y54531D02*
D03*
D26*
X45000Y20421D02*
D03*
Y10579D02*
D03*
D27*
X53500Y26350D02*
D03*
Y32650D02*
D03*
D43*
X14260Y50155D02*
X14469Y49947D01*
Y48731D02*
Y49947D01*
Y48731D02*
X16200Y47000D01*
X14260Y50155D02*
Y51260D01*
X14469Y51469D01*
X15707Y44285D02*
Y44548D01*
X12385Y44316D02*
Y45498D01*
X37000Y14500D02*
X38000Y15500D01*
X38583Y19449D02*
X39329D01*
X3665Y36734D02*
X3830Y36568D01*
X19000Y48500D02*
X19300D01*
X20800Y47000D01*
X19000Y48500D02*
X19644D01*
X37000Y13649D02*
X37651D01*
X36186D02*
X37000D01*
X41036Y15541D02*
Y16221D01*
X37756Y17591D02*
X37947Y17400D01*
X37000Y13649D02*
Y14500D01*
X41036Y15541D02*
X41221Y15355D01*
X37947Y17400D02*
X39856D01*
X41036Y16221D01*
X27441Y56697D02*
Y57091D01*
X27054Y57478D02*
X27441Y57091D01*
X9374Y10258D02*
Y13126D01*
Y10258D02*
X9500Y10131D01*
X16200Y47000D02*
X16821Y46379D01*
X14469Y50827D02*
Y51469D01*
X56814Y20314D02*
X57000Y20500D01*
X54617Y17817D02*
X55300Y18500D01*
Y20250D01*
X56127Y20314D02*
X56814D01*
X56063Y20250D02*
X56127Y20314D01*
X55300Y20250D02*
X56063D01*
X48821Y28479D02*
X50437D01*
X57664Y28536D02*
X58000Y28200D01*
X48800Y28500D02*
X48821Y28479D01*
X50437D02*
X50458Y28458D01*
X57516Y25431D02*
Y27716D01*
X58000Y28200D01*
X12359Y19559D02*
X12370Y19549D01*
X12168Y19749D02*
X12359Y19559D01*
X11417Y19831D02*
Y21528D01*
X12359Y19559D02*
X12361D01*
X11417D02*
X12359D01*
X12370Y19549D02*
X12372D01*
X12168Y19749D02*
Y19831D01*
X12361Y19559D02*
X12372Y19549D01*
X10500Y19500D02*
X10559Y19559D01*
X11417D01*
X12626Y9695D02*
X16375D01*
X17448Y10768D02*
X19888Y13209D01*
X16375Y9695D02*
X17448Y10768D01*
X18021D02*
X18618Y10171D01*
X17448Y10768D02*
X18021D01*
X15951Y42191D02*
X16142Y42000D01*
X15951Y42191D02*
Y44040D01*
X15707Y44285D02*
X15951Y44040D01*
X24620Y46420D02*
X25200Y47000D01*
X50500Y28314D02*
X51340D01*
X21844Y50700D02*
X22500D01*
X17920Y40917D02*
Y42000D01*
X11417Y25465D02*
X21220D01*
X10591D02*
X11417D01*
X22238Y42191D02*
Y45141D01*
X22047Y42000D02*
X22238Y42191D01*
Y45141D02*
X23517Y46420D01*
X24620D01*
X48800Y25500D02*
Y28500D01*
X53303Y26350D02*
X53500D01*
X51340Y28314D02*
X53303Y26350D01*
X3665Y36734D02*
Y38635D01*
X3500Y38800D02*
X3665Y38635D01*
X44087Y32696D02*
X44200Y32583D01*
Y32500D02*
Y32583D01*
X21940Y54740D02*
X22500Y55300D01*
X17740Y54740D02*
X21940D01*
X22500Y55300D02*
X24763D01*
X25282Y54781D01*
Y54387D02*
Y54781D01*
Y54387D02*
X25669Y54000D01*
X26063D01*
X17531Y54531D02*
X17740Y54740D01*
X36331Y54000D02*
X37218Y54887D01*
X33937Y54000D02*
X36331D01*
X19888Y13209D02*
Y14685D01*
X14165Y6465D02*
X14465D01*
X14500Y6500D01*
X15500Y31500D02*
Y35619D01*
X15390Y35730D02*
X15500Y35619D01*
X21899Y8601D02*
Y8626D01*
X17841Y46379D02*
X19969Y44251D01*
X16821Y46379D02*
X17841D01*
X37218Y55281D02*
X38437Y56500D01*
X47458Y54764D02*
X48500D01*
X45722Y56500D02*
X47458Y54764D01*
X38437Y56500D02*
X45722D01*
X37218Y54887D02*
Y55281D01*
X34201Y6024D02*
Y8976D01*
X9551Y40449D02*
Y40551D01*
Y40449D02*
X10500Y39500D01*
X19969Y42110D02*
Y44251D01*
Y42110D02*
X20079Y42000D01*
X17920Y40917D02*
X18110Y40727D01*
Y34480D02*
Y40727D01*
Y34480D02*
X24173Y28417D01*
X13673Y42327D02*
X14024Y42677D01*
X12385Y44316D02*
X14024Y42677D01*
Y42677D02*
Y42677D01*
X46421Y19000D02*
X50700D01*
X45000Y20421D02*
X46421Y19000D01*
X21220Y25465D02*
X24173Y28417D01*
X37651Y13649D02*
X38000Y13300D01*
X36180Y13654D02*
X36186Y13649D01*
D44*
X14071Y45832D02*
X14737Y45166D01*
X14071Y45832D02*
Y46196D01*
X13083Y47184D02*
X14071Y46196D01*
X11116Y47184D02*
X13083D01*
X7000Y39420D02*
X7232Y39652D01*
X7145Y45000D02*
X7500D01*
X10000Y48300D02*
X11116Y47184D01*
X7000Y38000D02*
Y39420D01*
X40443Y18781D02*
X40505D01*
X39665Y19559D02*
X40443Y18781D01*
X38583Y19559D02*
X39665D01*
X40505Y18781D02*
X40856Y18430D01*
Y18144D02*
Y18430D01*
Y18144D02*
X41347Y17653D01*
X41347D01*
X45000Y14000D01*
X8344Y31166D02*
X9718Y29792D01*
X11027D01*
X8344Y31166D02*
Y34656D01*
X11027Y29792D02*
X11417Y29402D01*
X9752Y43948D02*
X10000Y43700D01*
X8552Y43948D02*
X9752D01*
X7500Y45000D02*
X8552Y43948D01*
X14737Y44831D02*
X15364Y44205D01*
X24000Y41500D02*
Y44484D01*
X16049Y13563D02*
Y15000D01*
X15049Y11897D02*
X15279Y11667D01*
X45609Y7132D02*
Y7391D01*
X45500Y7500D02*
X45609Y7391D01*
X38500Y8700D02*
X39700Y7500D01*
X45500D01*
X37336Y6364D02*
X38200Y5500D01*
X37336Y6364D02*
Y6850D01*
X36817Y7369D02*
X37336Y6850D01*
X36817Y7369D02*
Y9183D01*
X33858Y12142D02*
X36817Y9183D01*
X33858Y12142D02*
Y14835D01*
X24000Y44484D02*
X24008Y44492D01*
Y42008D02*
X24016Y42000D01*
X24008Y42008D02*
Y44492D01*
X45000Y10579D02*
Y14000D01*
X5500Y29043D02*
X5543Y29000D01*
X5500Y29043D02*
Y32200D01*
Y28043D02*
Y29043D01*
X3500Y34200D02*
X5500Y32200D01*
X5183Y37817D02*
Y41183D01*
Y37817D02*
X8344Y34656D01*
X9557Y28211D02*
X10335Y27433D01*
X9158Y28211D02*
X9557D01*
X5543Y29000D02*
X8369D01*
X9158Y28211D01*
X38659Y33339D02*
X39049Y33729D01*
X40722Y33804D02*
X42695Y35776D01*
X40290Y33804D02*
X40722D01*
X39049Y33729D02*
X40216D01*
X42695Y35776D02*
Y35978D01*
X40216Y33729D02*
X40290Y33804D01*
X21987Y3500D02*
X22777D01*
X21980Y3492D02*
X21987Y3500D01*
X25951Y4746D02*
X29921Y8717D01*
X25951Y3692D02*
Y4746D01*
X25599Y3341D02*
X25951Y3692D01*
X22937Y3341D02*
X25599D01*
X22777Y3500D02*
X22937Y3341D01*
X24268Y5024D02*
Y7976D01*
X35500Y3500D02*
Y3539D01*
X35039Y4000D02*
X35500Y3539D01*
X34701Y4338D02*
X35039Y4000D01*
X34701Y4338D02*
Y5024D01*
X14173Y12717D02*
Y14835D01*
Y12717D02*
X14993Y11897D01*
X15049D01*
X16049Y13563D02*
X16232Y13381D01*
X10335Y27433D02*
X11417D01*
X20183Y8383D02*
Y9011D01*
X21284Y10112D01*
X23119D01*
X19300Y7500D02*
X20183Y8383D01*
X23119Y10112D02*
X23254Y9976D01*
X34132Y44039D02*
X34366Y44273D01*
X33858Y42000D02*
X34132Y42273D01*
Y44039D01*
X34366Y44273D02*
X36666D01*
X38500Y41500D02*
Y42439D01*
X36666Y44273D02*
X38500Y42439D01*
X31999Y44039D02*
X32980Y45020D01*
X31999Y42109D02*
Y44039D01*
X31890Y42000D02*
X31999Y42109D01*
X38583Y35307D02*
X40089D01*
X38583Y37276D02*
X38626Y37319D01*
X40709D02*
X40753Y37363D01*
X38626Y37319D02*
X40709D01*
X40089Y35307D02*
X40107Y35289D01*
X29921Y8717D02*
Y14835D01*
X20097Y5000D02*
X21120Y6024D01*
X27953Y10500D02*
Y14835D01*
X27429Y9976D02*
X27953Y10500D01*
X23254Y9976D02*
X27429D01*
X42500Y27999D02*
Y28000D01*
X29531Y42391D02*
X29921Y42000D01*
X29531Y42391D02*
Y43534D01*
X29143Y43921D02*
X29531Y43534D01*
X29143Y43921D02*
Y43922D01*
X28792Y44273D02*
X29143Y43922D01*
X28791Y44273D02*
X28792D01*
X28287Y44778D02*
X28791Y44273D01*
X27676Y44778D02*
X28287D01*
X27495Y44959D02*
X27676Y44778D01*
X24000Y11500D02*
Y12044D01*
X24169Y11875D01*
X25984Y13752D02*
Y14835D01*
X25594Y13361D02*
X25984Y13752D01*
X25486Y13361D02*
X25594D01*
X25206Y13082D02*
X25486Y13361D01*
X25206Y12913D02*
Y13082D01*
X24169Y11875D02*
X25206Y12913D01*
X9144Y32500D02*
Y35856D01*
Y32500D02*
X9496Y32148D01*
X10335Y31370D02*
X11417D01*
X9944Y31761D02*
X10335Y31370D01*
X9944Y31761D02*
Y31914D01*
X9710Y32148D02*
X9944Y31914D01*
X9496Y32148D02*
X9710D01*
X7000Y38000D02*
X9144Y35856D01*
X6000Y42000D02*
Y42000D01*
X5183Y41183D02*
X6000Y42000D01*
X4500Y22957D02*
X9795D01*
X10335Y23496D01*
X11417D01*
X14737Y44831D02*
Y45166D01*
X45000Y10579D02*
X49079D01*
X50874Y12374D01*
X21120Y6024D02*
X23768D01*
X40854Y22918D02*
X41125Y23190D01*
X48875D02*
X49252Y22813D01*
X38839Y23496D02*
X39417Y22918D01*
X37756Y23496D02*
X38839D01*
X49252Y22813D02*
X50387D01*
X39417Y22918D02*
X40854D01*
X50387Y22813D02*
X50700Y22500D01*
X41125Y23190D02*
X48875D01*
X53338Y32650D02*
X53500D01*
X37756Y21528D02*
X37803Y21481D01*
X39795D01*
X40591Y20685D01*
X44236D02*
X44500Y20421D01*
X40591Y20685D02*
X44236D01*
D45*
X38583Y29402D02*
X41402D01*
X42217Y33931D02*
X42569Y34283D01*
X42217Y32717D02*
Y33931D01*
X50455Y34283D02*
X50983Y33755D01*
X42569Y34283D02*
X50455D01*
X50983Y33755D02*
X52394D01*
X43417Y31717D02*
X44200Y32500D01*
X52394Y33755D02*
X53500Y32650D01*
X41586Y27586D02*
X42569Y28569D01*
X41805Y25500D02*
X44200D01*
X41805Y24906D02*
Y25500D01*
X37791D02*
X41805D01*
X40870Y31370D02*
X42217Y32717D01*
X42745Y30983D02*
X42983D01*
X42217Y30455D02*
X42745Y30983D01*
X43417Y31417D02*
Y31717D01*
X42983Y30983D02*
X43417Y31417D01*
X42217Y30217D02*
Y30455D01*
X41402Y29402D02*
X42217Y30217D01*
X53338Y32650D02*
X53489Y32800D01*
X58000D01*
X37756Y31370D02*
X40870D01*
X37756Y27433D02*
X41433D01*
X43769Y28569D02*
X44200Y29000D01*
X42569Y28569D02*
X43769D01*
D46*
X18494Y51221D02*
D03*
X15707Y44548D02*
D03*
X7232Y39652D02*
D03*
X7145Y45000D02*
D03*
X12385Y45498D02*
D03*
X38000Y15500D02*
D03*
X19000Y38000D02*
D03*
X22000Y15500D02*
D03*
X3830Y36568D02*
D03*
X2402Y31570D02*
D03*
X36046Y48623D02*
D03*
X37985Y46616D02*
D03*
X39756Y44293D02*
D03*
X19000Y48500D02*
D03*
X57000Y20500D02*
D03*
X49165Y31965D02*
D03*
X48165Y14465D02*
D03*
X17500Y18500D02*
D03*
X29165Y34965D02*
D03*
X33000Y35000D02*
D03*
X28665Y29465D02*
D03*
X25500Y35000D02*
D03*
X15665Y32465D02*
D03*
X19665Y27465D02*
D03*
X34665Y18465D02*
D03*
X17665Y21965D02*
D03*
X39000Y54132D02*
D03*
X9500Y10131D02*
D03*
X41000Y58631D02*
D03*
X36500D02*
D03*
Y51631D02*
D03*
X42000Y41631D02*
D03*
X44000Y39500D02*
D03*
X46219Y37150D02*
D03*
X58500Y39132D02*
D03*
X52000Y37132D02*
D03*
X56500Y36500D02*
D03*
X55000Y40000D02*
D03*
X50458Y28458D02*
D03*
X12168Y19831D02*
D03*
X18618Y10171D02*
D03*
X38000Y3131D02*
D03*
X38568Y29342D02*
D03*
X12279Y15667D02*
D03*
X16049Y15000D02*
D03*
X18030Y15890D02*
D03*
X15279Y11667D02*
D03*
X45609Y7132D02*
D03*
X24000Y41500D02*
D03*
X25131Y47069D02*
D03*
X41221Y15355D02*
D03*
X21980Y3492D02*
D03*
X31798Y13500D02*
D03*
X35500Y3500D02*
D03*
X14165Y6465D02*
D03*
X57516Y25431D02*
D03*
X21899Y8626D02*
D03*
X38500Y41500D02*
D03*
X32980Y45020D02*
D03*
X42695Y35978D02*
D03*
X40753Y37363D02*
D03*
X40107Y35289D02*
D03*
X20097Y5000D02*
D03*
X42500Y28000D02*
D03*
X41805Y24906D02*
D03*
X27495Y44959D02*
D03*
X24000Y11500D02*
D03*
X9551Y40551D02*
D03*
X6000Y42000D02*
D03*
D47*
X29000Y0D02*
D03*
X4000Y14500D02*
D03*
M02*
