G04*
G04 #@! TF.GenerationSoftware,Altium Limited,Altium Designer,20.0.13 (296)*
G04*
G04 Layer_Physical_Order=4*
G04 Layer_Color=1930808*
%FSLAX25Y25*%
%MOIN*%
G70*
G01*
G75*
%ADD15R,0.02165X0.02165*%
%ADD21R,0.02165X0.02165*%
%ADD43C,0.00800*%
%ADD44C,0.00400*%
%ADD45C,0.00600*%
%ADD46C,0.01772*%
%ADD47C,0.06299*%
%ADD49R,0.02953X0.04724*%
%ADD50P,0.07795X4X90.0*%
%ADD51R,0.02559X0.02362*%
%ADD52R,0.04331X0.06693*%
%ADD53R,0.02559X0.01378*%
%ADD54R,0.00591X0.01968*%
%ADD55R,0.02756X0.02953*%
%ADD56R,0.00984X0.07087*%
D15*
X33200Y37500D02*
D03*
X37800D02*
D03*
X37800Y32000D02*
D03*
X33200D02*
D03*
X41700Y31000D02*
D03*
X46300D02*
D03*
X8800Y19500D02*
D03*
X4200D02*
D03*
D21*
X57500Y27800D02*
D03*
Y23200D02*
D03*
X22000Y37300D02*
D03*
Y32700D02*
D03*
X18500Y42200D02*
D03*
Y46800D02*
D03*
X12000Y26800D02*
D03*
Y22200D02*
D03*
X3890Y27124D02*
D03*
Y22524D02*
D03*
X12000Y13300D02*
D03*
Y8700D02*
D03*
X8500Y12200D02*
D03*
Y16800D02*
D03*
D43*
X18494Y51221D02*
X21505Y54233D01*
X15500Y44341D02*
X15707Y44548D01*
X12385Y45498D02*
Y47074D01*
X19317Y30955D02*
Y35183D01*
X15500Y39000D02*
Y44341D01*
Y39000D02*
X19317Y35183D01*
X3830Y36568D02*
X3853Y36546D01*
X19000Y48500D02*
X19644D01*
X20614Y49470D01*
X19000Y48500D02*
X19644D01*
X20879Y49735D01*
X21505Y54233D02*
X23938D01*
X8500Y12200D02*
X11317Y9383D01*
X52577Y26174D02*
X52734Y26331D01*
X52577Y17302D02*
Y26174D01*
Y17302D02*
X52734Y17144D01*
X54560Y26500D02*
X56200D01*
X54391Y26331D02*
X54560Y26500D01*
X52734Y26331D02*
X54391D01*
X56200Y26500D02*
X57500Y27800D01*
X52734Y16541D02*
Y17144D01*
X42176Y16307D02*
X52500D01*
X41224Y15355D02*
X42176Y16307D01*
X41221Y15355D02*
X41224D01*
X52500Y16307D02*
X52734Y16541D01*
X18363Y23651D02*
X19351Y22663D01*
X15000Y24000D02*
X15469Y23531D01*
X19351Y19649D02*
X19984Y19016D01*
X16967Y23651D02*
X18363D01*
X19984Y19016D02*
X31516D01*
X15469Y23531D02*
X16847D01*
X19351Y19649D02*
Y22663D01*
X16847Y23531D02*
X16967Y23651D01*
X15000Y22000D02*
Y24000D01*
X19500Y30000D02*
Y30772D01*
X19317Y30955D02*
X19500Y30772D01*
Y30000D02*
X20500Y29000D01*
X12000Y20000D02*
X12168Y19831D01*
X38568Y29080D02*
Y29342D01*
Y29080D02*
X38835Y28812D01*
Y28665D02*
Y28812D01*
X39766Y24466D02*
X39858Y24374D01*
X39766Y24466D02*
Y27734D01*
X38835Y28665D02*
X39766Y27734D01*
X23434Y28066D02*
X23831Y27669D01*
X23434Y28066D02*
Y28249D01*
X22683Y29000D02*
X23434Y28249D01*
X20500Y29000D02*
X22683D01*
X18500Y46800D02*
Y48300D01*
Y42200D02*
X20262D01*
X25131Y47069D01*
X12279Y15667D02*
X16492Y19880D01*
X4142Y35559D02*
X4732D01*
X3853Y35848D02*
X4142Y35559D01*
X3853Y35848D02*
Y36546D01*
X43483Y34382D02*
X44701Y35599D01*
X42290Y31590D02*
Y33283D01*
X41700Y31000D02*
X42290Y31590D01*
Y33283D02*
X43389Y34382D01*
X43393Y37664D02*
X44701Y36356D01*
X43389Y34382D02*
X43483D01*
X44701Y35599D02*
Y36356D01*
X46300Y28700D02*
X48669Y26331D01*
X46300Y28700D02*
Y31000D01*
X31798Y13500D02*
X31968D01*
X31984Y13484D01*
Y8626D02*
Y13484D01*
X14165Y6465D02*
Y6535D01*
X12000Y8700D02*
X14165Y6535D01*
X11317Y9383D02*
X11317D01*
X11609Y9091D01*
X15000Y22000D02*
X16492Y20508D01*
Y19880D02*
Y20508D01*
X15000Y24000D02*
Y28652D01*
X13211Y30441D02*
X15000Y28652D01*
X13000Y30441D02*
X13211D01*
X31984Y19484D02*
Y24374D01*
X31516Y19016D02*
X31984Y19484D01*
X18500Y48300D02*
X19670Y49470D01*
X20614D01*
X57500Y23200D02*
X57508Y23208D01*
Y25424D01*
X57516Y25431D01*
X21899Y8626D02*
X22142D01*
X37802Y39814D02*
X40686D01*
X42836Y37664D01*
X36814Y40802D02*
Y43686D01*
X32392Y48108D02*
X36814Y43686D01*
Y40802D02*
X37802Y39814D01*
X30062Y48108D02*
X32392D01*
X42836Y37664D02*
X43393D01*
X29772Y32244D02*
X33200D01*
X9032Y42343D02*
X9551Y41824D01*
Y40551D02*
Y41824D01*
X12385Y47074D02*
X12969Y47657D01*
X23056Y32244D02*
X26228D01*
X22300Y33000D02*
X23056Y32244D01*
X48669Y26331D02*
X52734D01*
D44*
X17169Y43883D02*
X17883D01*
X16817Y43531D02*
X17169Y43883D01*
X16817Y40869D02*
Y43531D01*
X7232Y39652D02*
X7383Y39500D01*
X6616Y38166D02*
X12088D01*
X5514Y39268D02*
X6616Y38166D01*
X5134Y37366D02*
X11757D01*
X7145Y45000D02*
X7500D01*
X7383Y39500D02*
X8500D01*
X5514Y39268D02*
Y40794D01*
X4400Y38100D02*
X5134Y37366D01*
X14852Y37648D02*
X14859D01*
X15679Y36821D02*
X18300Y34200D01*
X14859Y37648D02*
X15679Y36828D01*
X9000Y39000D02*
X13500D01*
X14852Y37648D01*
X18300Y28201D02*
Y34200D01*
X15679Y36821D02*
Y36828D01*
X14879Y36121D02*
Y36496D01*
X14528Y36848D02*
X14879Y36496D01*
X14152Y36848D02*
X14528D01*
X17500Y28533D02*
Y33500D01*
X12454Y37800D02*
X13200D01*
X14879Y36121D02*
X17500Y33500D01*
X13200Y37800D02*
X14152Y36848D01*
X16817Y40869D02*
X17735Y39951D01*
X21049D01*
X16421Y15000D02*
X17406Y14014D01*
X22615D01*
X23006Y14404D02*
X27153D01*
X22615Y14014D02*
X23006Y14404D01*
X22000Y15500D02*
X32406D01*
X32906Y16000D01*
X2402Y31570D02*
X2956D01*
X1500Y32769D02*
Y37000D01*
X916Y32185D02*
X1500Y32769D01*
X916Y30954D02*
Y32185D01*
Y30954D02*
X1400Y30470D01*
Y25469D02*
Y30470D01*
X2600Y38100D02*
X4400D01*
X1500Y37000D02*
X2600Y38100D01*
X1400Y25469D02*
X2207Y24662D01*
X29416Y54084D02*
X33780Y49720D01*
Y49136D02*
Y49720D01*
X34060Y48440D02*
X37500Y45000D01*
X34060Y48440D02*
Y48856D01*
X33780Y49136D02*
X34060Y48856D01*
X19500Y44500D02*
X29084Y54084D01*
X29416D01*
X38500Y41500D02*
Y43500D01*
X37500Y44500D02*
Y45000D01*
Y44500D02*
X38500Y43500D01*
X8500Y16800D02*
X9000Y16300D01*
Y15027D02*
X10317Y13710D01*
X9000Y15027D02*
Y16300D01*
X39486Y12923D02*
Y15721D01*
Y12923D02*
X39858Y12551D01*
X39486Y15721D02*
X42165Y18400D01*
X42265D01*
X19369Y24059D02*
X19441D01*
X19686Y24874D02*
X22142D01*
X18300Y25685D02*
X18534Y25451D01*
X18778Y24651D02*
X19369Y24059D01*
X18300Y25685D02*
Y26729D01*
X17500Y24885D02*
Y26397D01*
X17734Y24651D02*
X18778D01*
X19109Y25451D02*
X19686Y24874D01*
X18534Y25451D02*
X19109D01*
X17500Y24885D02*
X17734Y24651D01*
X33037Y17000D02*
X34753Y15284D01*
X23101Y17000D02*
X33037D01*
X21384Y17486D02*
X22615D01*
X20399Y16500D02*
X21384Y17486D01*
X22615D02*
X23101Y17000D01*
X18000Y15921D02*
X18030Y15890D01*
X18000Y15921D02*
Y16500D01*
X18030D02*
X20399D01*
X33817Y30317D02*
X34531D01*
X30308Y28308D02*
X31500Y29500D01*
X33000D02*
X33817Y30317D01*
X31500Y29500D02*
X33000D01*
X35000Y30786D02*
Y38714D01*
X34531Y30317D02*
X35000Y30786D01*
X30308Y24666D02*
Y28308D01*
X22000Y37300D02*
Y39000D01*
X21049Y39951D02*
X22000Y39000D01*
X18179Y28080D02*
X18300Y28201D01*
X18179Y26850D02*
X18300Y26729D01*
X18179Y26850D02*
Y28080D01*
X17379Y28412D02*
X17500Y28533D01*
X17379Y26518D02*
Y28412D01*
Y26518D02*
X17500Y26397D01*
X20317Y31369D02*
X21686Y30000D01*
X20317Y31369D02*
Y34425D01*
X20892Y35000D01*
X19441Y24059D02*
X21050Y22450D01*
Y20582D02*
Y22450D01*
Y20582D02*
X21401Y20231D01*
X23269D01*
X23484Y20016D02*
X26605D01*
X23269Y20231D02*
X23484Y20016D01*
X3462Y31711D02*
X4732Y30441D01*
X3204Y31711D02*
X3462D01*
X2956Y31570D02*
X3151Y31765D01*
X24158Y3790D02*
X25651Y5283D01*
X25787D01*
X37890Y3890D02*
X38000Y3780D01*
Y3131D02*
Y3780D01*
X21686Y30000D02*
X24500D01*
X26079Y28421D01*
Y24374D02*
Y28421D01*
X17883Y43883D02*
X18500Y44500D01*
X19500D01*
X20892Y35000D02*
X22500D01*
X31817Y41897D02*
X35000Y38714D01*
X36000Y30000D02*
Y40202D01*
X35814Y40387D02*
X36000Y40202D01*
X22500Y35000D02*
X23117Y35617D01*
X24000Y36286D02*
Y41500D01*
X23331Y35617D02*
X24000Y36286D01*
X23117Y35617D02*
X23331D01*
X2207Y21193D02*
Y24662D01*
X2200Y25800D02*
Y28449D01*
Y25800D02*
X3890Y24110D01*
Y22524D02*
Y24110D01*
X2207Y21193D02*
X2558Y20842D01*
X2200Y28449D02*
X2500Y28749D01*
Y29000D01*
X6108D01*
X8866Y31819D02*
Y33000D01*
X6901Y29853D02*
X8866Y31819D01*
X6846Y29853D02*
X6901D01*
X6612Y29619D02*
X6846Y29853D01*
X6612Y29504D02*
Y29619D01*
X6108Y29000D02*
X6612Y29504D01*
X6197Y19923D02*
X7244Y20970D01*
X4623Y19923D02*
X6197D01*
X13663Y11183D02*
X16357Y8488D01*
X12680Y11183D02*
X13663D01*
X13683Y9049D02*
Y10031D01*
X13331Y10383D02*
X13683Y10031D01*
X12349Y10383D02*
X13331D01*
X16049Y15000D02*
X16421D01*
X8500Y19200D02*
X8800Y19500D01*
X8500Y16800D02*
Y19200D01*
X15279Y11667D02*
X19167D01*
X7244Y20970D02*
Y22494D01*
X5866Y22811D02*
Y23244D01*
X5771Y22716D02*
X5866Y22811D01*
X4081Y22716D02*
X5771D01*
X3890Y22524D02*
X4081Y22716D01*
X4200Y19500D02*
X4623Y19923D01*
X3317Y20383D02*
X3317D01*
X2858Y20842D02*
X3317Y20383D01*
X2558Y20842D02*
X2858D01*
X3317Y20383D02*
X4200Y19500D01*
X39858Y9126D02*
Y12551D01*
X3151Y31765D02*
X3204Y31711D01*
X5738Y41737D02*
X6000Y42000D01*
X5738Y41017D02*
Y41737D01*
X5514Y40794D02*
X5738Y41017D01*
X12038Y27498D02*
X12366D01*
X12550Y27683D01*
X8318Y27584D02*
X9217Y28483D01*
X11992Y28717D02*
Y29952D01*
X9217Y28483D02*
X11757D01*
X11992Y28717D01*
X12550Y27683D02*
Y27910D01*
X5038Y27300D02*
X5322Y27584D01*
X8318D01*
X8717Y26852D02*
X9364Y27498D01*
X9370D01*
X9456Y27584D02*
X10544D01*
X9370Y27498D02*
X9456Y27584D01*
X11965Y27571D02*
X12038Y27498D01*
X10557Y27571D02*
X11965D01*
X10544Y27584D02*
X10557Y27571D01*
X3000Y27300D02*
X5038D01*
X8622Y26000D02*
X8717Y26095D01*
Y26852D01*
X11757Y37366D02*
X11992Y37132D01*
X12088Y38166D02*
X12454Y37800D01*
X11992Y36048D02*
Y37132D01*
X29588Y11969D02*
X29724D01*
X27153Y14404D02*
X29588Y11969D01*
X21980Y3492D02*
X22242Y3755D01*
X22865D01*
X22900Y3790D01*
X24158D01*
X26079Y5575D02*
Y8626D01*
X25787Y5283D02*
X26079Y5575D01*
X18995Y4000D02*
X20989Y2007D01*
X24999D02*
X27006Y4014D01*
X20989Y2007D02*
X24999D01*
X27006Y4014D02*
X34986D01*
X34753Y12710D02*
Y15284D01*
X35921Y8626D02*
Y11677D01*
X35629Y11969D02*
X35921Y11677D01*
X35279Y11969D02*
X35629D01*
X35045Y12204D02*
X35279Y11969D01*
X35045Y12204D02*
Y12418D01*
X34753Y12710D02*
X35045Y12418D01*
X33953Y8626D02*
Y14953D01*
X32906Y16000D02*
X33953Y14953D01*
X20486Y12986D02*
X27280D01*
X19167Y11667D02*
X20486Y12986D01*
X27280D02*
X27965Y12301D01*
Y8708D02*
X28047Y8626D01*
X27965Y8708D02*
Y12301D01*
X30055Y9718D02*
Y11638D01*
X29724Y11969D02*
X30055Y11638D01*
X34986Y4014D02*
X35500Y3500D01*
X10317Y11969D02*
Y13710D01*
X11786Y24000D02*
X15000D01*
X10000Y25324D02*
Y26000D01*
Y25324D02*
X10095Y25229D01*
X10557D01*
X11786Y24000D01*
X8800Y19500D02*
Y22377D01*
X8622Y22555D02*
X8800Y22377D01*
X8622Y22555D02*
Y23244D01*
X10000D01*
X12481Y30441D02*
X13000D01*
X11992Y29952D02*
X12481Y30441D01*
X4732Y35559D02*
X4802Y35489D01*
X6901D01*
X8866Y33523D01*
Y33000D02*
Y33523D01*
X12481Y35559D02*
X13000D01*
X11992Y36048D02*
X12481Y35559D01*
X12000Y26800D02*
X12500Y27300D01*
X16357Y8488D02*
X16608D01*
X13683Y9049D02*
X18731Y4000D01*
X18995D01*
X16608Y8488D02*
X20097Y5000D01*
X12148Y11714D02*
Y13152D01*
Y11714D02*
X12680Y11183D01*
X10317Y11969D02*
X10669Y11617D01*
X11114D01*
X12349Y10383D01*
X12000Y13300D02*
X12148Y13152D01*
X7244Y26000D02*
X8622D01*
X5866D02*
X7244D01*
X26605Y20016D02*
X27171Y20582D01*
X36035Y20465D02*
X37300Y19200D01*
X41933D01*
X35921Y24374D02*
X36035Y24260D01*
Y20465D02*
Y24260D01*
X27755Y21031D02*
X28047Y21323D01*
X27171Y20796D02*
X27405Y21031D01*
X28047Y21323D02*
Y24374D01*
X27405Y21031D02*
X27755D01*
X27171Y20582D02*
Y20796D01*
X35814Y40387D02*
Y42186D01*
X32980Y45020D02*
X35814Y42186D01*
X40017Y32517D02*
X42436Y34936D01*
Y35719D02*
X42695Y35978D01*
X42436Y34936D02*
Y35719D01*
X24110Y11500D02*
Y11890D01*
Y11500D02*
Y11890D01*
X8500Y39500D02*
X9000Y39000D01*
X41000Y27399D02*
Y28686D01*
X40017Y29669D02*
X41000Y28686D01*
X40017Y29669D02*
Y32517D01*
X41885Y26514D02*
X42854D01*
X41000Y27399D02*
X41885Y26514D01*
X42500Y28000D02*
X45000Y25500D01*
X42500Y28000D02*
Y28000D01*
X42854Y26514D02*
X43291Y26077D01*
X42636Y23636D02*
X43291Y24291D01*
Y26077D01*
X42636Y19903D02*
Y23636D01*
X41836Y20234D02*
Y24876D01*
X41805Y24906D02*
X41836Y24876D01*
X45000Y21135D02*
Y25500D01*
X42265Y18400D02*
X45000Y21135D01*
X41933Y19200D02*
X42636Y19903D01*
X33953Y24374D02*
X34205Y24627D01*
Y28205D02*
X36000Y30000D01*
X34205Y24627D02*
Y28205D01*
X30016Y24374D02*
X30308Y24666D01*
X27495Y44959D02*
X27676Y44778D01*
X28646D01*
X31528Y41897D01*
X31817D01*
X32944Y37756D02*
X33200Y37500D01*
X24000Y11500D02*
Y11904D01*
X24014Y11890D01*
X24110Y9126D02*
Y11890D01*
X24014D02*
X24110D01*
X38000Y20234D02*
Y24764D01*
X38234Y20000D02*
X41602D01*
X38000Y20234D02*
X38234Y20000D01*
X41602D02*
X41836Y20234D01*
D45*
X50458Y28458D02*
X51324D01*
X52500Y29634D01*
Y29693D01*
X37890Y3890D02*
Y8626D01*
X24064Y24420D02*
X24110Y24374D01*
X10583Y18127D02*
Y20783D01*
X10500Y18045D02*
X10583Y18127D01*
X10500Y14800D02*
Y18045D01*
X10583Y20783D02*
X12000Y22200D01*
X10500Y14800D02*
X12000Y13300D01*
X25131Y44142D02*
Y47069D01*
Y44142D02*
X26386Y42887D01*
X26228Y37756D02*
Y39854D01*
X26386Y40012D01*
Y42887D01*
X40107Y35107D02*
Y35289D01*
X37800Y37500D02*
X40616D01*
X40753Y37363D01*
X40083Y35083D02*
X40107Y35107D01*
X37800Y32000D02*
X40083Y34283D01*
Y35083D01*
X29772Y37756D02*
X32944D01*
D46*
X18494Y51221D02*
D03*
X15707Y44548D02*
D03*
X7232Y39652D02*
D03*
X7145Y45000D02*
D03*
X12385Y45498D02*
D03*
X38000Y15500D02*
D03*
X19000Y38000D02*
D03*
X22000Y15500D02*
D03*
X3830Y36568D02*
D03*
X2402Y31570D02*
D03*
X36046Y48623D02*
D03*
X37985Y46616D02*
D03*
X39756Y44293D02*
D03*
X19000Y48500D02*
D03*
X57000Y20500D02*
D03*
X49165Y31965D02*
D03*
X48165Y14465D02*
D03*
X17500Y18500D02*
D03*
X29165Y34965D02*
D03*
X33000Y35000D02*
D03*
X28665Y29465D02*
D03*
X25500Y35000D02*
D03*
X15665Y32465D02*
D03*
X19665Y27465D02*
D03*
X34665Y18465D02*
D03*
X17665Y21965D02*
D03*
X39000Y54132D02*
D03*
X9500Y10131D02*
D03*
X41000Y58631D02*
D03*
X36500D02*
D03*
Y51631D02*
D03*
X42000Y41631D02*
D03*
X44000Y39500D02*
D03*
X46219Y37150D02*
D03*
X58500Y39132D02*
D03*
X52000Y37132D02*
D03*
X56500Y36500D02*
D03*
X55000Y40000D02*
D03*
X50458Y28458D02*
D03*
X12168Y19831D02*
D03*
X18618Y10171D02*
D03*
X38000Y3131D02*
D03*
X38568Y29342D02*
D03*
X12279Y15667D02*
D03*
X16049Y15000D02*
D03*
X18030Y15890D02*
D03*
X15279Y11667D02*
D03*
X45609Y7132D02*
D03*
X24000Y41500D02*
D03*
X25131Y47069D02*
D03*
X41221Y15355D02*
D03*
X21980Y3492D02*
D03*
X31798Y13500D02*
D03*
X35500Y3500D02*
D03*
X14165Y6465D02*
D03*
X57516Y25431D02*
D03*
X21899Y8626D02*
D03*
X38500Y41500D02*
D03*
X32980Y45020D02*
D03*
X42695Y35978D02*
D03*
X40753Y37363D02*
D03*
X40107Y35289D02*
D03*
X20097Y5000D02*
D03*
X42500Y28000D02*
D03*
X41805Y24906D02*
D03*
X27495Y44959D02*
D03*
X24000Y11500D02*
D03*
X9551Y40551D02*
D03*
X6000Y42000D02*
D03*
D47*
X29000Y0D02*
D03*
X4000Y14500D02*
D03*
D49*
X52500Y29693D02*
D03*
Y16307D02*
D03*
D50*
X23438Y54733D02*
D03*
X29562Y48608D02*
D03*
D51*
X26228Y32244D02*
D03*
X29772D02*
D03*
Y37756D02*
D03*
X26228D02*
D03*
D52*
X8866Y33000D02*
D03*
D53*
X13000Y30441D02*
D03*
Y33000D02*
D03*
Y35559D02*
D03*
X4732D02*
D03*
Y33000D02*
D03*
Y30441D02*
D03*
D54*
X10000Y26000D02*
D03*
X8622D02*
D03*
X7244D02*
D03*
X5866D02*
D03*
Y23244D02*
D03*
X7244D02*
D03*
X8622D02*
D03*
X10000D02*
D03*
D55*
X9032Y47657D02*
D03*
Y42343D02*
D03*
X12969D02*
D03*
Y47657D02*
D03*
D56*
X22142Y24374D02*
D03*
Y8626D02*
D03*
X24110Y24374D02*
D03*
Y8626D02*
D03*
X26079Y24374D02*
D03*
Y8626D02*
D03*
X28047Y24374D02*
D03*
Y8626D02*
D03*
X30016Y24374D02*
D03*
Y8626D02*
D03*
X31984Y24374D02*
D03*
Y8626D02*
D03*
X33953Y24374D02*
D03*
Y8626D02*
D03*
X35921Y24374D02*
D03*
Y8626D02*
D03*
X37890Y24374D02*
D03*
Y8626D02*
D03*
X39858Y24374D02*
D03*
Y8626D02*
D03*
M02*
