%FSTAX23Y23*%
%MOIN*%
%SFA1B1*%

%IPPOS*%
%ADD9500C,0.011810*%
%ADD9501C,0.015000*%
%ADD9502C,0.019680*%
%ADD9503C,0.027560*%
%ADD9504C,0.028000*%
%ADD9505C,0.031500*%
%ADD9506C,0.035430*%
%ADD9507C,0.039370*%
%ADD9508C,0.043310*%
%ADD9509C,0.039020*%
%LNdev_board_layout-roundholes-1*%
%LPD*%
G54D9500*
X0026Y0016D03*
X0031Y00165D03*
X00435D03*
X00495Y00205D03*
X00515Y00245D03*
X00535Y00115D03*
X0025Y00305D03*
X00155Y00365D03*
X00045Y00375D03*
X004Y00515D03*
X00386Y00548D03*
X0057Y00515D03*
X00655Y00415D03*
X00665Y00135D03*
X006Y0011D03*
X0076Y00135D03*
X0103Y00125D03*
X01015Y00249D03*
X00961Y00317D03*
X00959Y00387D03*
X0092Y00385D03*
X00956Y00448D03*
X01067Y00414D03*
X0107Y00375D03*
Y0033D03*
X01115D03*
X01116Y00372D03*
X01115Y00415D03*
X0116D03*
Y0037D03*
Y0033D03*
X01225Y0028D03*
X01325Y00295D03*
X0142Y00265D03*
X0148Y00245D03*
X01468Y00346D03*
X01525Y00355D03*
X01535Y00385D03*
X01516Y00416D03*
X01575Y0042D03*
X0156Y00475D03*
X01629Y00516D03*
X0168Y00513D03*
X01745Y0048D03*
X0181Y0044D03*
X01815Y00525D03*
X0192Y00455D03*
X01899Y00395D03*
X01875Y00335D03*
X0203Y0032D03*
Y00255D03*
X0201Y0023D03*
X0192Y00155D03*
X019Y00075D03*
X0159Y0008D03*
X016Y00045D03*
X01615Y0011D03*
X01595Y0027D03*
X0161Y00305D03*
X0173Y00379D03*
X01465Y0044D03*
X01425Y0042D03*
X013Y0045D03*
X0124Y0053D03*
X01115Y00545D03*
X0109Y00503D03*
X00885Y0029D03*
X01365Y0019D03*
X01465Y0006D03*
X0214Y0028D03*
X02215D03*
X02236Y00259D03*
X0226Y0024D03*
X0242D03*
X0248Y00262D03*
X0245Y0032D03*
X0248Y00355D03*
X02485Y0046D03*
X02545Y00475D03*
X0253Y0051D03*
X0266Y00495D03*
X02675Y0046D03*
X0268Y0031D03*
X0265Y0024D03*
X02685Y00195D03*
X02705Y001D03*
X02776Y00125D03*
X02386Y00332D03*
X023Y0042D03*
Y00475D03*
Y00535D03*
X0224D03*
X0218D03*
X0213D03*
Y00475D03*
X0218D03*
Y0042D03*
X0213D03*
X0224D03*
Y00475D03*
X02165Y00335D03*
X0218Y0059D03*
X0213D03*
X0224D03*
X023D03*
X02292Y0067D03*
X02245Y00675D03*
X02204Y00663D03*
X02189Y00757D03*
Y00805D03*
Y00854D03*
Y00902D03*
Y00951D03*
X02246Y00949D03*
X02305D03*
X02364D03*
X02423D03*
X02482D03*
X02541D03*
X026D03*
X02659D03*
X02718D03*
X02777D03*
X02836D03*
X02896D03*
X02925Y0089D03*
X02866D03*
X02807D03*
X02748D03*
X02689D03*
X0263D03*
X02571D03*
X02512D03*
X02453D03*
X02394D03*
X02335D03*
X02275D03*
X02246Y0083D03*
X02132Y00843D03*
Y00892D03*
Y0094D03*
X02135Y00988D03*
X02168Y01024D03*
X02202Y01058D03*
X02237Y01092D03*
X02216Y01126D03*
X02271Y01127D03*
X02308Y01158D03*
X02356Y01159D03*
X02367Y01102D03*
X02364Y01067D03*
X02319Y01094D03*
X02285Y01059D03*
X02275Y01008D03*
X02251Y01025D03*
X02216Y00991D03*
X02335Y01008D03*
X02394D03*
X02453D03*
X02512D03*
X02571D03*
X0263D03*
X02689D03*
X02748D03*
X02807D03*
X02777Y01067D03*
X026D03*
X02541D03*
X02441Y01172D03*
X02157Y01126D03*
X02128Y01067D03*
X02132Y00795D03*
Y00746D03*
X02315Y0074D03*
Y0071D03*
X02411Y00627D03*
X02423Y0083D03*
X02482D03*
X02541D03*
X026D03*
X02659D03*
X02718D03*
X02777D03*
X02836D03*
X02896D03*
X02925Y00771D03*
X02866D03*
X02807D03*
X02748D03*
X02689D03*
X0263D03*
X02571D03*
X026Y00712D03*
X02659D03*
X02718D03*
X02777D03*
X02836D03*
X02896D03*
X02925Y00653D03*
X02866D03*
X02807D03*
X02748D03*
X02689D03*
X02718Y00594D03*
X02777D03*
X02836D03*
X02896D03*
X0202Y00565D03*
X01905Y00562D03*
X01867Y00622D03*
X01845Y0065D03*
X01855Y0068D03*
X01935Y007D03*
X0194Y00734D03*
X0197Y0075D03*
X01975Y0072D03*
X01978Y00779D03*
X02025Y00775D03*
X02098Y00771D03*
X02069Y0083D03*
X02098Y0089D03*
X02069Y00949D03*
X02005Y00926D03*
X0199Y009D03*
X0194Y00935D03*
X01835Y00945D03*
X01875Y00885D03*
X01815Y0079D03*
X01783Y00764D03*
X0173Y00794D03*
X0172Y00745D03*
X0174Y0062D03*
X01807Y00592D03*
X01565Y00575D03*
X015Y00585D03*
X01398Y00568D03*
X0141Y0069D03*
X0154Y0071D03*
X01595Y00835D03*
X01575Y0092D03*
X01535Y0089D03*
X015Y0086D03*
X01465Y0088D03*
X014Y00975D03*
X0157Y01D03*
X0161Y0099D03*
X0168Y00915D03*
X02005Y0099D03*
X02098Y01008D03*
Y01126D03*
X01275Y01095D03*
X0127Y0082D03*
X01185Y00815D03*
X0118Y0076D03*
X0121Y0071D03*
X01145Y00645D03*
X0108D03*
X01062Y00599D03*
X0119Y00595D03*
X01235Y0057D03*
X0097Y0067D03*
X0094Y0069D03*
X00925Y00725D03*
X00945Y0078D03*
X0092Y0084D03*
X00937Y0089D03*
X00925Y0096D03*
X00825Y0094D03*
X00773Y0099D03*
X0075Y0085D03*
X0058D03*
X00655Y0062D03*
X01036Y00888D03*
X01085Y00915D03*
X01125Y0096D03*
X0051Y01185D03*
X00405Y0084D03*
X00365Y00855D03*
X00295Y0082D03*
X00255Y0067D03*
X0019D03*
X00375Y0059D03*
X005Y00594D03*
X00475Y00635D03*
X00485Y0068D03*
G54D9501*
X01005Y0047D03*
X01365Y00345D03*
G54D9502*
X0071Y0028D03*
X01648Y00181D03*
G54D9503*
X0285Y00091D03*
Y00288D03*
X0063Y0094D03*
X0058Y0099D03*
X0068D03*
X0063Y0104D03*
X00195Y00975D03*
X00095D03*
X00145Y00925D03*
Y01025D03*
G54D9504*
X00405Y0006D03*
X0057Y0036D03*
X00708Y0056D03*
X0088Y0054D03*
X0132Y00175D03*
X01525Y00215D03*
X02323Y0082D03*
X00685Y00755D03*
G54D9505*
X02842Y00158D03*
Y00221D03*
X02897Y00252D03*
Y0019D03*
Y00127D03*
G54D9506*
X00065Y00065D03*
X00165D03*
X00575D03*
X00675D03*
X0097D03*
X01089D03*
G54D9507*
X0005Y0054D03*
Y00603D03*
Y00666D03*
Y00729D03*
X0005Y01155D03*
X00113D03*
X00176D03*
X00239D03*
G54D9508*
X00825Y0105D03*
Y01149D03*
X00925D03*
Y0105D03*
X01025D03*
Y01149D03*
X01125D03*
Y0105D03*
X01225D03*
Y01149D03*
X01325D03*
Y0105D03*
X01425D03*
Y01149D03*
X01525D03*
Y0105D03*
X01625D03*
Y01149D03*
X01725D03*
Y0105D03*
X01825D03*
Y01149D03*
X01925D03*
Y0105D03*
X02025D03*
Y01149D03*
G54D9509*
X01655Y0005D03*
Y0013D03*
X01855Y0009D03*
X01402Y00385D03*
X01322D03*
X01362Y00585D03*
M02*