%FSTAX23Y23*%
%MOIN*%
%SFA1B1*%

%IPPOS*%
%AMD127*
4,1,8,-0.012800,-0.021700,0.012800,-0.021700,0.025700,-0.008900,0.025700,0.008900,0.012800,0.021700,-0.012800,0.021700,-0.025700,0.008900,-0.025700,-0.008900,-0.012800,-0.021700,0.0*
1,1,0.025717,-0.012800,-0.008900*
1,1,0.025717,0.012800,-0.008900*
1,1,0.025717,0.012800,0.008900*
1,1,0.025717,-0.012800,0.008900*
%
%ADD69R,0.078866X0.076897*%
%ADD70R,0.078866X0.076897*%
%ADD71R,0.066071X0.025716*%
%ADD72R,0.029653X0.029653*%
%ADD73R,0.023748X0.031622*%
%ADD74R,0.031622X0.023748*%
%ADD75R,0.037527X0.031622*%
%ADD76R,0.037527X0.045401*%
%ADD77R,0.025716X0.025716*%
%ADD78R,0.023748X0.025716*%
%ADD79C,0.023748*%
%ADD80O,0.047370X0.027685*%
%ADD81R,0.023748X0.061149*%
%ADD82R,0.094614X0.070992*%
%ADD83R,0.078866X0.082803*%
%ADD84R,0.082803X0.082803*%
%ADD85R,0.029653X0.029653*%
%ADD86C,0.074929*%
%ADD87R,0.078866X0.047370*%
%ADD88R,0.047370X0.043433*%
%ADD89R,0.232409X0.232409*%
%ADD90R,0.019811X0.041464*%
%ADD91R,0.041464X0.019811*%
%ADD92R,0.035559X0.019811*%
%ADD93R,0.047370X0.074929*%
%ADD94R,0.032409X0.031622*%
%ADD95R,0.047370X0.078866*%
%ADD96R,0.017842X0.034575*%
%ADD97R,0.030638X0.017842*%
%ADD98R,0.035559X0.037527*%
%ADD99R,0.065086X0.053275*%
%ADD100R,0.031622X0.055244*%
%ADD101C,0.038984*%
%ADD102R,0.039496X0.019811*%
%ADD103R,0.039496X0.017842*%
%ADD104R,0.021779X0.041464*%
%ADD105R,0.041464X0.041464*%
%ADD106C,0.016189*%
%ADD107R,0.041464X0.017842*%
%ADD108R,0.017842X0.041464*%
%ADD109R,0.149732X0.149732*%
%ADD110R,0.037527X0.035559*%
%ADD111R,0.031622X0.032409*%
%ADD112R,0.047370X0.039496*%
%ADD113R,0.035559X0.067055*%
%ADD114R,0.039496X0.039496*%
%ADD115R,0.076897X0.069023*%
%ADD116R,0.104456X0.074929*%
%ADD117R,0.031622X0.037527*%
%ADD118R,0.049338X0.047370*%
%ADD119R,0.023748X0.039496*%
%ADD120C,0.055244*%
%ADD121O,0.059181X0.059181*%
%ADD122C,0.008000*%
%ADD123C,0.027488*%
%ADD124C,0.063118*%
%ADD125R,0.067055X0.067055*%
%ADD126C,0.067055*%
G04~CAMADD=127~8~0.0~0.0~513.1~434.3~128.6~0.0~15~0.0~0.0~0.0~0.0~0~0.0~0.0~0.0~0.0~0~0.0~0.0~0.0~180.0~514.0~435.0*
%ADD127D127*%
%ADD128R,0.072960X0.072960*%
%ADD129C,0.072960*%
%ADD130O,0.043307X0.066929*%
%ADD131O,0.066929X0.043307*%
%ADD132C,0.031622*%
%LNdev_board_layout-1*%
%LPD*%
G54D69*
X01465Y00659D03*
Y0094D03*
G54D70*
X0102Y0094D03*
Y00659D03*
X0125D03*
Y0094D03*
G54D71*
X00534Y00818D03*
Y00792D03*
Y00767D03*
Y00741D03*
Y00716D03*
Y0069D03*
Y00665D03*
X00765D03*
Y0069D03*
Y00716D03*
Y00741D03*
Y00767D03*
Y00792D03*
Y00818D03*
G54D72*
X0246Y01098D03*
Y01052D03*
X02415D03*
Y01098D03*
X0267Y01093D03*
Y01047D03*
X0272Y01093D03*
Y01047D03*
X0254Y00121D03*
Y00167D03*
X02655Y00122D03*
Y00168D03*
X02505Y00512D03*
Y00558D03*
X01959Y00806D03*
Y00852D03*
X01904D03*
Y00806D03*
X01805Y00963D03*
Y00917D03*
X0176D03*
Y00963D03*
X01675Y00797D03*
Y00843D03*
X0163D03*
Y00797D03*
X01905Y00487D03*
Y00533D03*
X01835Y00452D03*
Y00498D03*
X0158Y00257D03*
Y00303D03*
X01294Y00311D03*
Y00265D03*
X01254D03*
Y00311D03*
X01202Y00565D03*
Y00519D03*
X01086Y00575D03*
Y00529D03*
X01036D03*
Y00575D03*
X00925Y00452D03*
Y00498D03*
X00927Y0036D03*
Y00314D03*
X00887Y0036D03*
Y00314D03*
X00842D03*
Y0036D03*
X00785Y00193D03*
Y00147D03*
X00555Y00193D03*
Y00147D03*
X0047Y00228D03*
Y00182D03*
X00466Y0014D03*
Y00094D03*
X00276Y0014D03*
Y00094D03*
X0028Y00348D03*
Y00302D03*
X00045Y00348D03*
Y00302D03*
X00445Y00667D03*
Y00713D03*
X00405D03*
Y00667D03*
X00365D03*
Y00713D03*
X00325D03*
Y00667D03*
X00445Y00808D03*
Y00762D03*
X00405Y00808D03*
Y00762D03*
X00365D03*
Y00808D03*
X0089Y00723D03*
Y00677D03*
X0085Y00723D03*
Y00677D03*
X0089Y00838D03*
Y00792D03*
X0085D03*
Y00838D03*
G54D73*
X02549Y01166D03*
X02575D03*
X026D03*
X02549Y01113D03*
X02575D03*
X026D03*
G54D74*
X02614Y0114D03*
X02535D03*
G54D75*
X02673Y0114D03*
X02716D03*
X02418D03*
X02461D03*
G54D76*
X02881Y0119D03*
X02948D03*
G54D77*
X01548Y00938D03*
X01601D03*
Y00971D03*
X01548D03*
G54D78*
X01575Y00938D03*
Y00971D03*
G54D79*
X0029Y00975D03*
X00475Y0002D03*
X00815Y00645D03*
X0097Y00275D03*
X01135Y0082D03*
X01555Y0036D03*
X01075Y00965D03*
X0135Y0009D03*
X003Y0076D03*
X0049Y0086D03*
X0186Y00745D03*
X01785Y00625D03*
X00765Y0028D03*
X00685Y0061D03*
X01215Y0019D03*
X00935Y0064D03*
X01553Y00067D03*
X0122Y00485D03*
X013Y00505D03*
X01135Y0076D03*
Y0071D03*
X01844Y00893D03*
X0157Y00865D03*
X02395Y0067D03*
X01855Y0079D03*
X0188Y00975D03*
X01955Y0025D03*
Y002D03*
X02475Y0072D03*
X016Y00335D03*
X02045Y00975D03*
X00955Y00965D03*
X02115Y0029D03*
X02165Y0026D03*
X02285Y0027D03*
X0268Y00275D03*
X0251Y00485D03*
X0252Y0061D03*
X01897Y00105D03*
X0183Y00345D03*
X0165Y00315D03*
X01635Y0027D03*
G54D80*
X0127Y0043D03*
Y004D03*
Y0037D03*
Y0034D03*
G54D81*
X02166Y0016D03*
X02191D03*
X02217D03*
X02242D03*
X02268D03*
G54D82*
X02093Y00155D03*
X02341D03*
G54D83*
X02059Y00055D03*
X02374D03*
G54D84*
X0217Y00055D03*
X02264D03*
G54D85*
X02312Y0025D03*
X02358D03*
X02458Y0051D03*
X02412D03*
Y0046D03*
X02458D03*
Y0036D03*
X02412D03*
X02678Y00335D03*
X02632D03*
X02678Y00435D03*
X02632D03*
X02283Y0071D03*
X02237D03*
X02239Y00747D03*
X02285D03*
X02019Y0069D03*
X02065D03*
X02019Y0073D03*
X02065D03*
X01953Y0091D03*
X01907D03*
X01482Y0047D03*
X01528D03*
X01947Y0041D03*
X01993D03*
X01947Y00365D03*
X01993D03*
X01392Y00055D03*
X01438D03*
X00557Y00245D03*
X00603D03*
X00187Y00405D03*
X00233D03*
X00047D03*
X00093D03*
X00508Y00555D03*
X00462D03*
X00343Y00505D03*
X00297D03*
Y0055D03*
X00343D03*
X00697Y00245D03*
X00743D03*
G54D86*
X02655Y00059D03*
X0254D03*
G54D87*
X02555Y00434D03*
Y00335D03*
G54D88*
X02445Y00626D03*
Y00563D03*
X00469Y01187D03*
X0035D03*
G54D89*
X02214Y00499D03*
G54D90*
X02322Y00364D03*
X02302D03*
X02283D03*
X02263D03*
X02243D03*
X02224D03*
X02204D03*
X02184D03*
X02164D03*
X02145D03*
X02125D03*
X02105D03*
Y00635D03*
X02125D03*
X02145D03*
X02164D03*
X02184D03*
X02204D03*
X02224D03*
X02243D03*
X02263D03*
X02283D03*
X02302D03*
X02322D03*
G54D91*
X02078Y00391D03*
Y00411D03*
Y0043D03*
Y0045D03*
Y0047D03*
Y0049D03*
Y00509D03*
Y00529D03*
Y00549D03*
Y00568D03*
Y00588D03*
Y00608D03*
X0235D03*
Y00588D03*
Y00568D03*
Y00549D03*
Y00529D03*
Y00509D03*
Y0049D03*
Y0047D03*
Y0045D03*
Y0043D03*
Y00411D03*
Y00391D03*
G54D92*
X01737Y00875D03*
Y00855D03*
Y00835D03*
Y00815D03*
X0182D03*
Y00835D03*
Y00855D03*
Y00875D03*
G54D93*
X01778Y00845D03*
G54D94*
X01525Y00558D03*
Y00521D03*
X01485Y00553D03*
Y00516D03*
X01566Y00708D03*
Y00671D03*
X01783Y00708D03*
Y00671D03*
G54D95*
X01724Y0069D03*
X01625D03*
G54D96*
X01596Y00569D03*
X01593Y00446D03*
X01616D03*
X01635D03*
X01655D03*
X01675D03*
X01694D03*
X01714D03*
X01734D03*
X01753D03*
X01774D03*
X01776Y00569D03*
X01753D03*
X01734D03*
X01714D03*
X01694D03*
X01675D03*
X01655D03*
X01635D03*
X01616D03*
G54D97*
X01593Y00537D03*
Y00517D03*
Y00498D03*
Y00478D03*
X01776D03*
Y00498D03*
Y00517D03*
Y00537D03*
G54D98*
X0192Y00666D03*
Y00613D03*
X01959D03*
Y00666D03*
G54D99*
X0197Y00464D03*
Y00535D03*
X01514Y00099D03*
Y0017D03*
X00715Y00424D03*
Y00495D03*
G54D100*
X01777Y00245D03*
X0174D03*
X01702D03*
Y00344D03*
X0174D03*
X01777D03*
G54D101*
X01705Y00065D03*
Y00115D03*
X01755Y00065D03*
Y00115D03*
X01805Y00065D03*
Y00115D03*
X01387Y00435D03*
X01337D03*
X01387Y00485D03*
X01337D03*
X01387Y00535D03*
X01337D03*
G54D102*
X01465Y00334D03*
Y00275D03*
X01524D03*
Y00334D03*
X00606Y002D03*
Y0018D03*
Y0016D03*
Y0014D03*
X00725D03*
Y0016D03*
Y0018D03*
Y002D03*
X00095Y00354D03*
Y00334D03*
Y00315D03*
Y00295D03*
X00214D03*
Y00315D03*
Y00334D03*
Y00354D03*
G54D103*
X01465Y00314D03*
Y00295D03*
X01524D03*
Y00314D03*
G54D104*
X01494Y00265D03*
Y00344D03*
X00408Y00222D03*
X00382D03*
X00357D03*
X00331D03*
Y00107D03*
X00357D03*
X00382D03*
X00408D03*
G54D105*
X01383Y00225D03*
X01444D03*
G54D106*
X01425Y00114D03*
X01409D03*
X01425Y0013D03*
X01409D03*
X01425Y00145D03*
X01409D03*
X00625Y00454D03*
X0061D03*
X00625Y0047D03*
X0061D03*
X00625Y00485D03*
X0061D03*
G54D107*
X01016Y0044D03*
Y00421D03*
Y00401D03*
Y00381D03*
Y00362D03*
Y00342D03*
Y00322D03*
Y00303D03*
X01209D03*
Y00322D03*
Y00342D03*
Y00362D03*
Y00381D03*
Y00401D03*
Y00421D03*
Y0044D03*
G54D108*
X01043Y00275D03*
X01063D03*
X01083D03*
X01102D03*
X01122D03*
X01142D03*
X01161D03*
X01181D03*
Y00468D03*
X01161D03*
X01142D03*
X01122D03*
X01102D03*
X01083D03*
X01063D03*
X01043D03*
G54D109*
X01112Y00372D03*
G54D110*
X0081Y00433D03*
X00863D03*
Y00472D03*
X0081D03*
G54D111*
X00597Y00385D03*
X00633D03*
X01596Y0039D03*
X01633D03*
G54D112*
X01173Y00021D03*
Y00108D03*
X00886Y00021D03*
Y00108D03*
G54D113*
X01118Y00133D03*
X01059D03*
X00941D03*
G54D114*
X0083Y00145D03*
Y00204D03*
X00335Y00305D03*
Y00364D03*
G54D115*
X00665Y0017D03*
X00155Y00325D03*
G54D116*
X0037Y00165D03*
G54D117*
X00276Y00185D03*
Y00228D03*
G54D118*
X00586Y00565D03*
X00645D03*
G54D119*
X00394Y0117D03*
X00425D03*
G54D120*
X00095Y00975D03*
X00145Y00925D03*
X00195Y00975D03*
X00145Y01025D03*
X0058Y0099D03*
X0063Y0094D03*
X0068Y0099D03*
X0063Y0104D03*
G54D121*
X02842Y00221D03*
X02897Y00252D03*
Y0019D03*
Y00127D03*
X02842Y00158D03*
G54D122*
X0285Y00288D03*
Y00091D03*
G54D123*
X01655Y0013D03*
Y0005D03*
X01855Y0009D03*
X01322Y00385D03*
X01402D03*
X01362Y00585D03*
G54D124*
X01089Y00065D03*
X0097D03*
G54D125*
X00675Y00065D03*
X00065D03*
G54D126*
X00575Y00065D03*
X00165D03*
G54D127*
X0023Y00715D03*
Y00549D03*
X0016Y00715D03*
Y00549D03*
G54D128*
X00825Y0105D03*
G54D129*
X00825Y01149D03*
X00925Y0105D03*
Y01149D03*
X01025Y0105D03*
Y01149D03*
X01125Y0105D03*
Y01149D03*
X01225Y0105D03*
Y01149D03*
X01325Y0105D03*
Y01149D03*
X01425Y0105D03*
Y01149D03*
X01525Y0105D03*
Y01149D03*
X01625Y0105D03*
Y01149D03*
X01725Y0105D03*
Y01149D03*
X01825Y0105D03*
Y01149D03*
X01925Y0105D03*
Y01149D03*
X02025Y0105D03*
Y01149D03*
G54D130*
X00239Y01155D03*
X00176D03*
X00113D03*
X0005D03*
G54D131*
X0005Y00729D03*
Y00666D03*
Y00603D03*
Y0054D03*
G54D132*
X0218Y00535D03*
X0213Y00475D03*
X0218D03*
X0224Y00535D03*
X023Y00475D03*
Y0042D03*
Y00535D03*
X0218Y0059D03*
X0224D03*
X023D03*
X0213Y00535D03*
Y0059D03*
X0224Y0042D03*
X0213D03*
X0218D03*
X0224Y00475D03*
X0116Y0037D03*
X01116Y00372D03*
X01115Y0033D03*
X0107D03*
Y00375D03*
X0116Y0033D03*
Y00415D03*
X01115D03*
X01067Y00414D03*
M02*