%FSTAX23Y23*%
%MOIN*%
%SFA1B1*%

%IPPOS*%
%AMD127*
4,1,8,-0.012800,-0.021700,0.012800,-0.021700,0.025700,-0.008900,0.025700,0.008900,0.012800,0.021700,-0.012800,0.021700,-0.025700,0.008900,-0.025700,-0.008900,-0.012800,-0.021700,0.0*
1,1,0.025717,-0.012800,-0.008900*
1,1,0.025717,0.012800,-0.008900*
1,1,0.025717,0.012800,0.008900*
1,1,0.025717,-0.012800,0.008900*
%
%ADD120C,0.055244*%
%ADD121O,0.059181X0.059181*%
%ADD122C,0.008000*%
%ADD123C,0.027488*%
%ADD124C,0.063118*%
%ADD125R,0.067055X0.067055*%
%ADD126C,0.067055*%
G04~CAMADD=127~8~0.0~0.0~513.1~434.3~128.6~0.0~15~0.0~0.0~0.0~0.0~0~0.0~0.0~0.0~0.0~0~0.0~0.0~0.0~180.0~514.0~435.0*
%ADD127D127*%
%ADD128R,0.072960X0.072960*%
%ADD129C,0.072960*%
%ADD130O,0.043307X0.066929*%
%ADD131O,0.066929X0.043307*%
%LNdev_board_layout-1*%
%LPD*%
G54D120*
X00095Y00975D03*
X00145Y00925D03*
X00195Y00975D03*
X00145Y01025D03*
X0058Y0099D03*
X0063Y0094D03*
X0068Y0099D03*
X0063Y0104D03*
G54D121*
X02842Y00221D03*
X02897Y00252D03*
Y0019D03*
Y00127D03*
X02842Y00158D03*
G54D122*
X0285Y00288D03*
Y00091D03*
G54D123*
X01655Y0013D03*
Y0005D03*
X01855Y0009D03*
X01322Y00385D03*
X01402D03*
X01362Y00585D03*
G54D124*
X01089Y00065D03*
X0097D03*
G54D125*
X00675Y00065D03*
X00065D03*
G54D126*
X00575Y00065D03*
X00165D03*
G54D127*
X0023Y00715D03*
Y00549D03*
X0016Y00715D03*
Y00549D03*
G54D128*
X00825Y0105D03*
G54D129*
X00825Y01149D03*
X00925Y0105D03*
Y01149D03*
X01025Y0105D03*
Y01149D03*
X01125Y0105D03*
Y01149D03*
X01225Y0105D03*
Y01149D03*
X01325Y0105D03*
Y01149D03*
X01425Y0105D03*
Y01149D03*
X01525Y0105D03*
Y01149D03*
X01625Y0105D03*
Y01149D03*
X01725Y0105D03*
Y01149D03*
X01825Y0105D03*
Y01149D03*
X01925Y0105D03*
Y01149D03*
X02025Y0105D03*
Y01149D03*
G54D130*
X00239Y01155D03*
X00176D03*
X00113D03*
X0005D03*
G54D131*
X0005Y00729D03*
Y00666D03*
Y00603D03*
Y0054D03*
M02*