%FSTAX23Y23*%
%MOIN*%
%SFA1B1*%

%IPPOS*%
%ADD10C,0.003937*%
%ADD11C,0.007874*%
%ADD12C,0.010000*%
%ADD13C,0.009843*%
%ADD14C,0.005118*%
%ADD15C,0.006000*%
%ADD16C,0.015748*%
%ADD17C,0.005905*%
%LNdev_board_layout-1*%
%LPD*%
G54D10*
X01524Y00902D02*
D01*
X01524Y00902*
X01524Y00902*
X01523Y00902*
X01523Y00902*
X01523Y00902*
X01523Y00903*
X01523Y00903*
X01523Y00903*
X01523Y00903*
X01523Y00903*
X01523Y00903*
X01523Y00903*
X01523Y00903*
X01523Y00903*
X01523Y00903*
X01522Y00903*
X01522Y00904*
X01522Y00904*
X01522Y00904*
X01522Y00904*
X01522Y00904*
X01522Y00904*
X01521*
X01521Y00904*
X01521Y00904*
X01521Y00904*
X01521Y00904*
X01521Y00904*
X01521Y00903*
X01521Y00903*
X0152Y00903*
X0152Y00903*
X0152Y00903*
X0152Y00903*
X0152Y00903*
X0152Y00903*
X0152Y00903*
X0152Y00903*
X0152Y00903*
X0152Y00902*
X0152Y00902*
X0152Y00902*
X0152Y00902*
X0152Y00902*
X0152Y00902*
X0152Y00902*
X0152Y00901*
X0152Y00901*
X0152Y00901*
X0152Y00901*
X0152Y00901*
X0152Y00901*
X0152Y00901*
X0152Y00901*
X0152Y009*
X0152Y009*
X0152Y009*
X0152Y009*
X0152Y009*
X01521Y009*
X01521Y009*
X01521Y009*
X01521Y009*
X01521Y009*
X01521Y009*
X01521Y009*
X01521Y009*
X01522*
X01522Y009*
X01522Y009*
X01522Y009*
X01522Y009*
X01522Y009*
X01522Y009*
X01523Y009*
X01523Y009*
X01523Y009*
X01523Y009*
X01523Y009*
X01523Y009*
X01523Y00901*
X01523Y00901*
X01523Y00901*
X01523Y00901*
X01523Y00901*
X01523Y00901*
X01523Y00901*
X01524Y00901*
X01524Y00902*
X01524Y00902*
X02168Y00194D02*
D01*
X02168Y00194*
X02168Y00195*
X02167Y00195*
X02167Y00195*
X02167Y00195*
X02167Y00195*
X02167Y00195*
X02167Y00195*
X02167Y00195*
X02167Y00196*
X02167Y00196*
X02167Y00196*
X02167Y00196*
X02167Y00196*
X02167Y00196*
X02166Y00196*
X02166Y00196*
X02166Y00196*
X02166Y00196*
X02166Y00196*
X02166Y00196*
X02166Y00196*
X02165*
X02165Y00196*
X02165Y00196*
X02165Y00196*
X02165Y00196*
X02165Y00196*
X02165Y00196*
X02165Y00196*
X02164Y00196*
X02164Y00196*
X02164Y00196*
X02164Y00196*
X02164Y00196*
X02164Y00195*
X02164Y00195*
X02164Y00195*
X02164Y00195*
X02164Y00195*
X02164Y00195*
X02164Y00195*
X02164Y00195*
X02164Y00194*
X02164Y00194*
D01*
X02164Y00194*
X02164Y00194*
X02164Y00194*
X02164Y00194*
X02164Y00194*
X02164Y00193*
X02164Y00193*
X02164Y00193*
X02164Y00193*
X02164Y00193*
X02164Y00193*
X02164Y00193*
X02164Y00193*
X02164Y00193*
X02165Y00193*
X02165Y00192*
X02165Y00192*
X02165Y00192*
X02165Y00192*
X02165Y00192*
X02165Y00192*
X02165Y00192*
X02166*
X02166Y00192*
X02166Y00192*
X02166Y00192*
X02166Y00192*
X02166Y00192*
X02166Y00192*
X02167Y00193*
X02167Y00193*
X02167Y00193*
X02167Y00193*
X02167Y00193*
X02167Y00193*
X02167Y00193*
X02167Y00193*
X02167Y00193*
X02167Y00193*
X02167Y00194*
X02167Y00194*
X02167Y00194*
X02168Y00194*
X02168Y00194*
X02168Y00194*
X01598Y00594D02*
D01*
X01598Y00594*
X01598Y00594*
X01598Y00595*
X01598Y00595*
X01598Y00595*
X01598Y00595*
X01598Y00595*
X01598Y00595*
X01598Y00595*
X01597Y00595*
X01597Y00596*
X01597Y00596*
X01597Y00596*
X01597Y00596*
X01597Y00596*
X01597Y00596*
X01597Y00596*
X01597Y00596*
X01596Y00596*
X01596Y00596*
X01596Y00596*
X01596Y00596*
X01596*
X01596Y00596*
X01596Y00596*
X01595Y00596*
X01595Y00596*
X01595Y00596*
X01595Y00596*
X01595Y00596*
X01595Y00596*
X01595Y00596*
X01595Y00596*
X01595Y00596*
X01594Y00595*
X01594Y00595*
X01594Y00595*
X01594Y00595*
X01594Y00595*
X01594Y00595*
X01594Y00595*
X01594Y00595*
X01594Y00594*
X01594Y00594*
X01594Y00594*
D01*
X01594Y00594*
X01594Y00594*
X01594Y00594*
X01594Y00594*
X01594Y00594*
X01594Y00593*
X01594Y00593*
X01594Y00593*
X01594Y00593*
X01594Y00593*
X01595Y00593*
X01595Y00593*
X01595Y00593*
X01595Y00593*
X01595Y00593*
X01595Y00592*
X01595Y00592*
X01595Y00592*
X01595Y00592*
X01596Y00592*
X01596Y00592*
X01596Y00592*
X01596*
X01596Y00592*
X01596Y00592*
X01596Y00592*
X01597Y00592*
X01597Y00592*
X01597Y00592*
X01597Y00593*
X01597Y00593*
X01597Y00593*
X01597Y00593*
X01597Y00593*
X01597Y00593*
X01598Y00593*
X01598Y00593*
X01598Y00593*
X01598Y00593*
X01598Y00594*
X01598Y00594*
X01598Y00594*
X01598Y00594*
X01598Y00594*
X01598Y00594*
X01896Y00667D02*
D01*
X01896Y00667*
X01896Y00667*
X01896Y00667*
X01896Y00668*
X01896Y00668*
X01896Y00668*
X01896Y00668*
X01896Y00668*
X01896Y00668*
X01896Y00668*
X01896Y00668*
X01896Y00669*
X01895Y00669*
X01895Y00669*
X01895Y00669*
X01895Y00669*
X01895Y00669*
X01895Y00669*
X01895Y00669*
X01895Y00669*
X01894Y00669*
X01894Y00669*
X01894*
X01894Y00669*
X01894Y00669*
X01894Y00669*
X01894Y00669*
X01893Y00669*
X01893Y00669*
X01893Y00669*
X01893Y00669*
X01893Y00669*
X01893Y00669*
X01893Y00668*
X01893Y00668*
X01893Y00668*
X01893Y00668*
X01892Y00668*
X01892Y00668*
X01892Y00668*
X01892Y00668*
X01892Y00667*
X01892Y00667*
X01892Y00667*
X01892Y00667*
D01*
X01892Y00667*
X01892Y00667*
X01892Y00667*
X01892Y00667*
X01892Y00666*
X01892Y00666*
X01892Y00666*
X01893Y00666*
X01893Y00666*
X01893Y00666*
X01893Y00666*
X01893Y00666*
X01893Y00666*
X01893Y00665*
X01893Y00665*
X01893Y00665*
X01893Y00665*
X01894Y00665*
X01894Y00665*
X01894Y00665*
X01894Y00665*
X01894Y00665*
X01894*
X01894Y00665*
X01895Y00665*
X01895Y00665*
X01895Y00665*
X01895Y00665*
X01895Y00665*
X01895Y00665*
X01895Y00665*
X01895Y00666*
X01896Y00666*
X01896Y00666*
X01896Y00666*
X01896Y00666*
X01896Y00666*
X01896Y00666*
X01896Y00666*
X01896Y00666*
X01896Y00667*
X01896Y00667*
X01896Y00667*
X01896Y00667*
X01896Y00667*
X01836Y00155D02*
D01*
X01836Y00155*
X01836Y00155*
X01836Y00155*
X01836Y00155*
X01836Y00155*
X01836Y00155*
X01836Y00155*
X01836Y00156*
X01836Y00156*
X01836Y00156*
X01836Y00156*
X01836Y00156*
X01836Y00156*
X01836Y00156*
X01835Y00156*
X01835Y00156*
X01835Y00156*
X01835Y00156*
X01835Y00156*
X01835Y00156*
X01835Y00156*
X01835Y00156*
X01834*
X01834Y00156*
X01834Y00156*
X01834Y00156*
X01834Y00156*
X01834Y00156*
X01834Y00156*
X01834Y00156*
X01833Y00156*
X01833Y00156*
X01833Y00156*
X01833Y00156*
X01833Y00156*
X01833Y00156*
X01833Y00156*
X01833Y00155*
X01833Y00155*
X01833Y00155*
X01833Y00155*
X01833Y00155*
X01833Y00155*
X01833Y00155*
X01833Y00155*
D01*
X01833Y00154*
X01833Y00154*
X01833Y00154*
X01833Y00154*
X01833Y00154*
X01833Y00154*
X01833Y00154*
X01833Y00153*
X01833Y00153*
X01833Y00153*
X01833Y00153*
X01833Y00153*
X01833Y00153*
X01833Y00153*
X01834Y00153*
X01834Y00153*
X01834Y00153*
X01834Y00153*
X01834Y00153*
X01834Y00153*
X01834Y00153*
X01834Y00153*
X01835*
X01835Y00153*
X01835Y00153*
X01835Y00153*
X01835Y00153*
X01835Y00153*
X01835Y00153*
X01835Y00153*
X01836Y00153*
X01836Y00153*
X01836Y00153*
X01836Y00153*
X01836Y00153*
X01836Y00153*
X01836Y00153*
X01836Y00154*
X01836Y00154*
X01836Y00154*
X01836Y00154*
X01836Y00154*
X01836Y00154*
X01836Y00154*
X01836Y00155*
X01439Y00332D02*
D01*
X01439Y00332*
X01439Y00332*
X01439Y00332*
X01439Y00332*
X0144Y00332*
X0144Y00332*
X0144Y00332*
X0144Y00332*
X0144Y00332*
X0144Y00332*
X0144Y00332*
X0144Y00333*
X0144Y00333*
X01441Y00333*
X01441Y00333*
X01441Y00333*
X01441Y00333*
X01441Y00333*
X01441Y00333*
X01441Y00334*
X01441Y00334*
X01441Y00334*
Y00334*
X01441Y00334*
X01441Y00334*
X01441Y00334*
X01441Y00334*
X01441Y00335*
X01441Y00335*
X01441Y00335*
X01441Y00335*
X0144Y00335*
X0144Y00335*
X0144Y00335*
X0144Y00335*
X0144Y00335*
X0144Y00336*
X0144Y00336*
X0144Y00336*
X0144Y00336*
X01439Y00336*
X01439Y00336*
X01439Y00336*
X01439Y00336*
X01439Y00336*
D01*
X01439Y00336*
X01439Y00336*
X01439Y00336*
X01438Y00336*
X01438Y00336*
X01438Y00336*
X01438Y00336*
X01438Y00336*
X01438Y00335*
X01438Y00335*
X01438Y00335*
X01437Y00335*
X01437Y00335*
X01437Y00335*
X01437Y00335*
X01437Y00335*
X01437Y00335*
X01437Y00334*
X01437Y00334*
X01437Y00334*
X01437Y00334*
X01437Y00334*
Y00334*
X01437Y00334*
X01437Y00334*
X01437Y00333*
X01437Y00333*
X01437Y00333*
X01437Y00333*
X01437Y00333*
X01437Y00333*
X01437Y00333*
X01437Y00333*
X01438Y00332*
X01438Y00332*
X01438Y00332*
X01438Y00332*
X01438Y00332*
X01438Y00332*
X01438Y00332*
X01438Y00332*
X01439Y00332*
X01439Y00332*
X01439Y00332*
X01439Y00332*
X00809Y00409D02*
D01*
X00809Y00409*
X00809Y00409*
X00809Y00409*
X00809Y00409*
X00809Y00409*
X00808Y00409*
X00808Y00409*
X00808Y00409*
X00808Y00409*
X00808Y00408*
X00808Y00408*
X00808Y00408*
X00808Y00408*
X00808Y00408*
X00807Y00408*
X00807Y00408*
X00807Y00408*
X00807Y00408*
X00807Y00407*
X00807Y00407*
X00807Y00407*
X00807Y00407*
Y00407*
X00807Y00407*
X00807Y00407*
X00807Y00406*
X00807Y00406*
X00807Y00406*
X00807Y00406*
X00807Y00406*
X00808Y00406*
X00808Y00406*
X00808Y00406*
X00808Y00406*
X00808Y00405*
X00808Y00405*
X00808Y00405*
X00808Y00405*
X00808Y00405*
X00809Y00405*
X00809Y00405*
X00809Y00405*
X00809Y00405*
X00809Y00405*
X00809Y00405*
D01*
X00809Y00405*
X00809Y00405*
X0081Y00405*
X0081Y00405*
X0081Y00405*
X0081Y00405*
X0081Y00405*
X0081Y00405*
X0081Y00405*
X0081Y00405*
X00811Y00406*
X00811Y00406*
X00811Y00406*
X00811Y00406*
X00811Y00406*
X00811Y00406*
X00811Y00406*
X00811Y00406*
X00811Y00406*
X00811Y00407*
X00811Y00407*
X00811Y00407*
Y00407*
X00811Y00407*
X00811Y00407*
X00811Y00407*
X00811Y00408*
X00811Y00408*
X00811Y00408*
X00811Y00408*
X00811Y00408*
X00811Y00408*
X00811Y00408*
X00811Y00408*
X0081Y00408*
X0081Y00409*
X0081Y00409*
X0081Y00409*
X0081Y00409*
X0081Y00409*
X0081Y00409*
X0081Y00409*
X00809Y00409*
X00809Y00409*
X00809Y00409*
X01302Y00586D02*
D01*
X01302Y00586*
X01302Y00586*
X01302Y00586*
X01302Y00586*
X01302Y00586*
X01302Y00586*
X01301Y00586*
X01301Y00586*
X01301Y00586*
X01301Y00586*
X01301Y00586*
X01301Y00586*
X01301Y00586*
X01301Y00586*
X01301Y00585*
X01301Y00585*
X01301Y00585*
X01301Y00585*
X01301Y00585*
X013Y00585*
X013Y00585*
X013Y00585*
Y00584*
X013Y00584*
X013Y00584*
X01301Y00584*
X01301Y00584*
X01301Y00584*
X01301Y00584*
X01301Y00584*
X01301Y00583*
X01301Y00583*
X01301Y00583*
X01301Y00583*
X01301Y00583*
X01301Y00583*
X01301Y00583*
X01301Y00583*
X01302Y00583*
X01302Y00583*
X01302Y00583*
X01302Y00583*
X01302Y00583*
X01302Y00583*
X01302Y00583*
D01*
X01303Y00583*
X01303Y00583*
X01303Y00583*
X01303Y00583*
X01303Y00583*
X01303Y00583*
X01303Y00583*
X01303Y00583*
X01304Y00583*
X01304Y00583*
X01304Y00583*
X01304Y00583*
X01304Y00583*
X01304Y00583*
X01304Y00584*
X01304Y00584*
X01304Y00584*
X01304Y00584*
X01304Y00584*
X01304Y00584*
X01304Y00584*
X01304Y00584*
Y00585*
X01304Y00585*
X01304Y00585*
X01304Y00585*
X01304Y00585*
X01304Y00585*
X01304Y00585*
X01304Y00585*
X01304Y00586*
X01304Y00586*
X01304Y00586*
X01304Y00586*
X01304Y00586*
X01304Y00586*
X01303Y00586*
X01303Y00586*
X01303Y00586*
X01303Y00586*
X01303Y00586*
X01303Y00586*
X01303Y00586*
X01303Y00586*
X01302Y00586*
X01386Y00796D02*
Y00803D01*
X01543Y00796D02*
Y00803D01*
X01096Y00713D02*
Y00886D01*
X00943Y00713D02*
X01096D01*
X00943D02*
Y00886D01*
X01096*
X01173D02*
X01326D01*
X01173Y00713D02*
Y00886D01*
Y00713D02*
X01326D01*
Y00886*
X02535Y01115D02*
Y01164D01*
Y01115D02*
X02613D01*
X02535Y01165D02*
X02613D01*
X02615Y01115D02*
Y01165D01*
X02069Y-00029D02*
Y00009D01*
Y-00029D02*
X02364D01*
Y00009*
X01659Y0066D02*
X0169D01*
X01659Y00719D02*
X0169D01*
X01582Y00433D02*
Y00464D01*
X01787Y00433D02*
Y00464D01*
Y00551D02*
Y00582D01*
X01582Y00551D02*
Y00582D01*
X00268Y00575D02*
Y00689D01*
X00268Y00689D02*
X00268Y00689D01*
X00163Y00689D02*
X00268D01*
X00126Y00652D02*
X00163Y00689D01*
X00126Y00575D02*
Y00652D01*
Y00575D02*
X00268D01*
X00248Y0067D02*
Y00595D01*
X00247Y0067D02*
X00248Y0067D01*
X00216Y0067D02*
X00247D01*
X00216Y00595D02*
Y0067D01*
Y00595D02*
X00248D01*
X0015Y00596D02*
X00182D01*
X0015D02*
Y00671D01*
X00181*
X00182Y00596D02*
Y0067D01*
G54D11*
X01023Y00992D02*
D01*
X01023Y00993*
X01023Y00993*
X01023Y00993*
X01023Y00993*
X01023Y00994*
X01023Y00994*
X01023Y00994*
X01023Y00994*
X01023Y00995*
X01023Y00995*
X01022Y00995*
X01022Y00995*
X01022Y00996*
X01022Y00996*
X01021Y00996*
X01021Y00996*
X01021Y00996*
X01021Y00996*
X0102Y00996*
X0102Y00996*
X0102Y00996*
X0102Y00996*
X01019*
X01019Y00996*
X01019Y00996*
X01019Y00996*
X01018Y00996*
X01018Y00996*
X01018Y00996*
X01018Y00996*
X01017Y00996*
X01017Y00996*
X01017Y00995*
X01017Y00995*
X01016Y00995*
X01016Y00995*
X01016Y00994*
X01016Y00994*
X01016Y00994*
X01016Y00994*
X01016Y00993*
X01016Y00993*
X01016Y00993*
X01016Y00993*
X01016Y00992*
D01*
X01016Y00992*
X01016Y00992*
X01016Y00992*
X01016Y00991*
X01016Y00991*
X01016Y00991*
X01016Y00991*
X01016Y0099*
X01016Y0099*
X01016Y0099*
X01017Y0099*
X01017Y00989*
X01017Y00989*
X01017Y00989*
X01018Y00989*
X01018Y00989*
X01018Y00989*
X01018Y00989*
X01019Y00989*
X01019Y00989*
X01019Y00988*
X01019Y00988*
X0102*
X0102Y00988*
X0102Y00989*
X0102Y00989*
X01021Y00989*
X01021Y00989*
X01021Y00989*
X01021Y00989*
X01022Y00989*
X01022Y00989*
X01022Y00989*
X01022Y0099*
X01023Y0099*
X01023Y0099*
X01023Y0099*
X01023Y00991*
X01023Y00991*
X01023Y00991*
X01023Y00991*
X01023Y00992*
X01023Y00992*
X01023Y00992*
X01023Y00992*
X01246D02*
D01*
X01246Y00992*
X01246Y00992*
X01246Y00992*
X01246Y00991*
X01246Y00991*
X01246Y00991*
X01246Y00991*
X01246Y0099*
X01246Y0099*
X01246Y0099*
X01247Y0099*
X01247Y00989*
X01247Y00989*
X01247Y00989*
X01248Y00989*
X01248Y00989*
X01248Y00989*
X01248Y00989*
X01249Y00989*
X01249Y00989*
X01249Y00988*
X01249Y00988*
X0125*
X0125Y00988*
X0125Y00989*
X0125Y00989*
X01251Y00989*
X01251Y00989*
X01251Y00989*
X01251Y00989*
X01252Y00989*
X01252Y00989*
X01252Y00989*
X01252Y0099*
X01253Y0099*
X01253Y0099*
X01253Y0099*
X01253Y00991*
X01253Y00991*
X01253Y00991*
X01253Y00991*
X01253Y00992*
X01253Y00992*
X01253Y00992*
X01253Y00992*
D01*
X01253Y00993*
X01253Y00993*
X01253Y00993*
X01253Y00993*
X01253Y00994*
X01253Y00994*
X01253Y00994*
X01253Y00994*
X01253Y00995*
X01253Y00995*
X01252Y00995*
X01252Y00995*
X01252Y00996*
X01252Y00996*
X01251Y00996*
X01251Y00996*
X01251Y00996*
X01251Y00996*
X0125Y00996*
X0125Y00996*
X0125Y00996*
X0125Y00996*
X01249*
X01249Y00996*
X01249Y00996*
X01249Y00996*
X01248Y00996*
X01248Y00996*
X01248Y00996*
X01248Y00996*
X01247Y00996*
X01247Y00996*
X01247Y00995*
X01247Y00995*
X01246Y00995*
X01246Y00995*
X01246Y00994*
X01246Y00994*
X01246Y00994*
X01246Y00994*
X01246Y00993*
X01246Y00993*
X01246Y00993*
X01246Y00993*
X01246Y00992*
X01446Y00096D02*
D01*
X01446Y00096*
X01446Y00096*
X01446Y00097*
X01446Y00097*
X01446Y00097*
X01446Y00097*
X01446Y00098*
X01446Y00098*
X01446Y00098*
X01445Y00098*
X01445Y00099*
X01445Y00099*
X01445Y00099*
X01445Y00099*
X01444Y00099*
X01444Y00099*
X01444Y001*
X01444Y001*
X01443Y001*
X01443Y001*
X01443Y001*
X01443Y001*
X01442*
X01442Y001*
X01442Y001*
X01441Y001*
X01441Y001*
X01441Y001*
X01441Y00099*
X0144Y00099*
X0144Y00099*
X0144Y00099*
X0144Y00099*
X0144Y00099*
X01439Y00098*
X01439Y00098*
X01439Y00098*
X01439Y00098*
X01439Y00097*
X01439Y00097*
X01439Y00097*
X01439Y00097*
X01438Y00096*
X01438Y00096*
X01438Y00096*
X01438Y00096*
X01438Y00095*
X01439Y00095*
X01439Y00095*
X01439Y00095*
X01439Y00094*
X01439Y00094*
X01439Y00094*
X01439Y00094*
X01439Y00093*
X0144Y00093*
X0144Y00093*
X0144Y00093*
X0144Y00093*
X0144Y00092*
X01441Y00092*
X01441Y00092*
X01441Y00092*
X01441Y00092*
X01442Y00092*
X01442Y00092*
X01442Y00092*
X01443*
X01443Y00092*
X01443Y00092*
X01443Y00092*
X01444Y00092*
X01444Y00092*
X01444Y00092*
X01444Y00092*
X01445Y00093*
X01445Y00093*
X01445Y00093*
X01445Y00093*
X01445Y00093*
X01446Y00094*
X01446Y00094*
X01446Y00094*
X01446Y00094*
X01446Y00095*
X01446Y00095*
X01446Y00095*
X01446Y00095*
X01446Y00096*
X01446Y00096*
X00647Y00436D02*
D01*
X00647Y00436*
X00647Y00436*
X00647Y00437*
X00647Y00437*
X00647Y00437*
X00647Y00437*
X00647Y00438*
X00646Y00438*
X00646Y00438*
X00646Y00438*
X00646Y00439*
X00646Y00439*
X00646Y00439*
X00645Y00439*
X00645Y00439*
X00645Y00439*
X00645Y0044*
X00644Y0044*
X00644Y0044*
X00644Y0044*
X00644Y0044*
X00643Y0044*
X00643*
X00643Y0044*
X00642Y0044*
X00642Y0044*
X00642Y0044*
X00642Y0044*
X00641Y00439*
X00641Y00439*
X00641Y00439*
X00641Y00439*
X0064Y00439*
X0064Y00439*
X0064Y00438*
X0064Y00438*
X0064Y00438*
X0064Y00438*
X0064Y00437*
X00639Y00437*
X00639Y00437*
X00639Y00437*
X00639Y00436*
X00639Y00436*
X00639Y00436*
X00639Y00436*
X00639Y00435*
X00639Y00435*
X00639Y00435*
X00639Y00435*
X0064Y00434*
X0064Y00434*
X0064Y00434*
X0064Y00434*
X0064Y00433*
X0064Y00433*
X0064Y00433*
X00641Y00433*
X00641Y00433*
X00641Y00432*
X00641Y00432*
X00642Y00432*
X00642Y00432*
X00642Y00432*
X00642Y00432*
X00643Y00432*
X00643Y00432*
X00643*
X00644Y00432*
X00644Y00432*
X00644Y00432*
X00644Y00432*
X00645Y00432*
X00645Y00432*
X00645Y00432*
X00645Y00433*
X00646Y00433*
X00646Y00433*
X00646Y00433*
X00646Y00433*
X00646Y00434*
X00646Y00434*
X00647Y00434*
X00647Y00434*
X00647Y00435*
X00647Y00435*
X00647Y00435*
X00647Y00435*
X00647Y00436*
X00647Y00436*
X00577Y0084D02*
X00723D01*
Y00643D02*
Y0084D01*
X00577Y00643D02*
X00723D01*
X00577D02*
Y0084D01*
X00505Y00841D02*
X00563D01*
X02695Y01134D02*
Y01145D01*
X02852Y01222D02*
X02948D01*
X02852Y01157D02*
Y01222D01*
Y01157D02*
X02948D01*
X02433Y00595D02*
X02456D01*
X01949Y005D02*
X0199D01*
X01802Y0032D02*
Y00367D01*
X01682Y00306D02*
X01797D01*
X01682Y00283D02*
Y00306D01*
Y00283D02*
X01797D01*
Y00306*
X01391Y00096D02*
X01425D01*
X01391D02*
Y00163D01*
X01442*
Y00114D02*
Y00163D01*
X01425Y00096D02*
X01442Y00114D01*
X01493Y00135D02*
X01534D01*
X00694Y0046D02*
X00735D01*
X00525Y00015D02*
Y00115D01*
X00725*
Y00015D02*
Y00115D01*
X00525Y00015D02*
X00725D01*
X00592Y00436D02*
X00625D01*
X00592D02*
Y00503D01*
X00643*
Y00454D02*
Y00503D01*
X00625Y00436D02*
X00643Y00454D01*
X00778Y01D02*
Y0105D01*
Y01D02*
X02071D01*
Y01199*
X00825D02*
X02071D01*
X0244Y01134D02*
Y01145D01*
X00215Y00015D02*
Y00115D01*
X00015Y00015D02*
X00215D01*
X00015D02*
Y00115D01*
X00215*
G54D12*
X00146Y01105D02*
D01*
X00146Y01105*
X00146Y01105*
X00146Y01105*
X00146Y01106*
X00146Y01106*
X00145Y01106*
X00145Y01106*
X00145Y01106*
X00145Y01106*
X00145Y01106*
X00145Y01106*
X00145Y01106*
X00145Y01106*
X00145Y01106*
X00145Y01106*
X00145Y01106*
X00145Y01106*
X00145Y01106*
X00145Y01106*
X00145Y01106*
X00144Y01106*
X00144Y01106*
X00144*
X00144Y01106*
X00144Y01106*
X00144Y01106*
X00144Y01106*
X00144Y01106*
X00144Y01106*
X00144Y01106*
X00144Y01106*
X00144Y01106*
X00143Y01106*
X00143Y01106*
X00143Y01106*
X00143Y01106*
X00143Y01106*
X00143Y01106*
X00143Y01106*
X00143Y01106*
X00143Y01106*
X00143Y01105*
X00143Y01105*
X00143Y01105*
X00143Y01105*
X00143Y01105*
X00143Y01105*
X00143Y01105*
X00143Y01105*
X00143Y01105*
X00143Y01105*
X00143Y01105*
X00143Y01105*
X00143Y01104*
X00143Y01104*
X00143Y01104*
X00143Y01104*
X00144Y01104*
X00144Y01104*
X00144Y01104*
X00144Y01104*
X00144Y01104*
X00144Y01104*
X00144Y01104*
X00144Y01104*
X00144Y01104*
X00144Y01104*
X00144*
X00144Y01104*
X00145Y01104*
X00145Y01104*
X00145Y01104*
X00145Y01104*
X00145Y01104*
X00145Y01104*
X00145Y01104*
X00145Y01104*
X00145Y01104*
X00145Y01104*
X00145Y01104*
X00145Y01104*
X00145Y01105*
X00145Y01105*
X00145Y01105*
X00146Y01105*
X00146Y01105*
X00146Y01105*
X00146Y01105*
X00146Y01105*
X00146Y01105*
X00251Y00975D02*
D01*
X00251Y00982*
X0025Y00989*
X00248Y00997*
X00247Y01004*
X00244Y01011*
X00242Y01018*
X00238Y01024*
X00235Y01031*
X0023Y01037*
X00226Y01043*
X00221Y01048*
X00216Y01053*
X0021Y01058*
X00204Y01063*
X00198Y01067*
X00191Y0107*
X00184Y01073*
X00177Y01076*
X0017Y01078*
X00163Y01079*
X00156Y0108*
X00148Y01081*
X00141*
X00133Y0108*
X00126Y01079*
X00119Y01078*
X00112Y01076*
X00105Y01073*
X00098Y0107*
X00091Y01067*
X00085Y01063*
X00079Y01058*
X00073Y01053*
X00068Y01048*
X00063Y01043*
X00059Y01037*
X00054Y01031*
X00051Y01024*
X00047Y01018*
X00045Y01011*
X00042Y01004*
X00041Y00997*
X00039Y00989*
X00038Y00982*
X00038Y00975*
X00038Y00967*
X00039Y0096*
X00041Y00952*
X00042Y00945*
X00045Y00938*
X00047Y00931*
X00051Y00925*
X00054Y00918*
X00059Y00912*
X00063Y00906*
X00068Y00901*
X00073Y00896*
X00079Y00891*
X00085Y00886*
X00091Y00882*
X00098Y00879*
X00105Y00876*
X00112Y00873*
X00119Y00871*
X00126Y0087*
X00133Y00869*
X00141Y00868*
X00148*
X00156Y00869*
X00163Y0087*
X0017Y00871*
X00177Y00873*
X00184Y00876*
X00191Y00879*
X00198Y00882*
X00204Y00886*
X0021Y00891*
X00216Y00896*
X00221Y00901*
X00226Y00906*
X0023Y00912*
X00235Y00918*
X00238Y00925*
X00242Y00931*
X00244Y00938*
X00247Y00945*
X00248Y00952*
X0025Y0096*
X00251Y00967*
X00251Y00975*
X00946Y00191D02*
D01*
X00946Y00191*
X00946Y00192*
X00946Y00192*
X00946Y00192*
X00946Y00192*
X00946Y00193*
X00946Y00193*
X00946Y00193*
X00945Y00193*
X00945Y00194*
X00945Y00194*
X00945Y00194*
X00945Y00194*
X00944Y00194*
X00944Y00195*
X00944Y00195*
X00944Y00195*
X00943Y00195*
X00943Y00195*
X00943Y00195*
X00942Y00195*
X00942Y00195*
X00942*
X00942Y00195*
X00941Y00195*
X00941Y00195*
X00941Y00195*
X00941Y00195*
X0094Y00195*
X0094Y00195*
X0094Y00194*
X0094Y00194*
X00939Y00194*
X00939Y00194*
X00939Y00194*
X00939Y00193*
X00939Y00193*
X00938Y00193*
X00938Y00193*
X00938Y00192*
X00938Y00192*
X00938Y00192*
X00938Y00192*
X00938Y00191*
X00938Y00191*
X00938Y00191*
X00938Y00191*
X00938Y0019*
X00938Y0019*
X00938Y0019*
X00938Y00189*
X00938Y00189*
X00939Y00189*
X00939Y00189*
X00939Y00188*
X00939Y00188*
X00939Y00188*
X0094Y00188*
X0094Y00188*
X0094Y00188*
X0094Y00187*
X00941Y00187*
X00941Y00187*
X00941Y00187*
X00941Y00187*
X00942Y00187*
X00942Y00187*
X00942*
X00942Y00187*
X00943Y00187*
X00943Y00187*
X00943Y00187*
X00944Y00187*
X00944Y00187*
X00944Y00188*
X00944Y00188*
X00945Y00188*
X00945Y00188*
X00945Y00188*
X00945Y00188*
X00945Y00189*
X00946Y00189*
X00946Y00189*
X00946Y00189*
X00946Y0019*
X00946Y0019*
X00946Y0019*
X00946Y00191*
X00946Y00191*
X00946Y00191*
X00631Y0112D02*
D01*
X00631Y0112*
X00631Y0112*
X00631Y0112*
X00631Y01121*
X00631Y01121*
X0063Y01121*
X0063Y01121*
X0063Y01121*
X0063Y01121*
X0063Y01121*
X0063Y01121*
X0063Y01121*
X0063Y01121*
X0063Y01121*
X0063Y01121*
X0063Y01121*
X0063Y01121*
X0063Y01121*
X0063Y01121*
X0063Y01121*
X00629Y01121*
X00629Y01121*
X00629*
X00629Y01121*
X00629Y01121*
X00629Y01121*
X00629Y01121*
X00629Y01121*
X00629Y01121*
X00629Y01121*
X00629Y01121*
X00629Y01121*
X00628Y01121*
X00628Y01121*
X00628Y01121*
X00628Y01121*
X00628Y01121*
X00628Y01121*
X00628Y01121*
X00628Y01121*
X00628Y01121*
X00628Y0112*
X00628Y0112*
X00628Y0112*
X00628Y0112*
X00628Y0112*
X00628Y0112*
X00628Y0112*
X00628Y0112*
X00628Y0112*
X00628Y0112*
X00628Y0112*
X00628Y0112*
X00628Y01119*
X00628Y01119*
X00628Y01119*
X00628Y01119*
X00629Y01119*
X00629Y01119*
X00629Y01119*
X00629Y01119*
X00629Y01119*
X00629Y01119*
X00629Y01119*
X00629Y01119*
X00629Y01119*
X00629Y01119*
X00629*
X00629Y01119*
X0063Y01119*
X0063Y01119*
X0063Y01119*
X0063Y01119*
X0063Y01119*
X0063Y01119*
X0063Y01119*
X0063Y01119*
X0063Y01119*
X0063Y01119*
X0063Y01119*
X0063Y01119*
X0063Y0112*
X0063Y0112*
X0063Y0112*
X00631Y0112*
X00631Y0112*
X00631Y0112*
X00631Y0112*
X00631Y0112*
X00631Y0112*
X00736Y0099D02*
D01*
X00736Y00997*
X00735Y01004*
X00733Y01012*
X00732Y01019*
X00729Y01026*
X00727Y01033*
X00723Y01039*
X0072Y01046*
X00715Y01052*
X00711Y01058*
X00706Y01063*
X00701Y01068*
X00695Y01073*
X00689Y01078*
X00683Y01082*
X00676Y01085*
X00669Y01088*
X00662Y01091*
X00655Y01093*
X00648Y01094*
X00641Y01095*
X00633Y01096*
X00626*
X00618Y01095*
X00611Y01094*
X00604Y01093*
X00597Y01091*
X0059Y01088*
X00583Y01085*
X00576Y01082*
X0057Y01078*
X00564Y01073*
X00558Y01068*
X00553Y01063*
X00548Y01058*
X00544Y01052*
X00539Y01046*
X00536Y01039*
X00532Y01033*
X0053Y01026*
X00527Y01019*
X00526Y01012*
X00524Y01004*
X00523Y00997*
X00523Y0099*
X00523Y00982*
X00524Y00975*
X00526Y00967*
X00527Y0096*
X0053Y00953*
X00532Y00946*
X00536Y0094*
X00539Y00933*
X00544Y00927*
X00548Y00921*
X00553Y00916*
X00558Y00911*
X00564Y00906*
X0057Y00901*
X00576Y00897*
X00583Y00894*
X0059Y00891*
X00597Y00888*
X00604Y00886*
X00611Y00885*
X00618Y00884*
X00626Y00883*
X00633*
X00641Y00884*
X00648Y00885*
X00655Y00886*
X00662Y00888*
X00669Y00891*
X00676Y00894*
X00683Y00897*
X00689Y00901*
X00695Y00906*
X00701Y00911*
X00706Y00916*
X00711Y00921*
X00715Y00927*
X0072Y00933*
X00723Y0094*
X00727Y00946*
X00729Y00953*
X00732Y0096*
X00733Y00967*
X00735Y00975*
X00736Y00982*
X00736Y0099*
X0035Y01157D02*
D01*
X0035Y01157*
X0035Y01157*
X0035Y01157*
X0035Y01157*
X0035Y01157*
X0035Y01157*
X0035Y01157*
X0035Y01157*
X0035Y01157*
X0035Y01157*
X0035Y01157*
X0035Y01157*
X0035Y01157*
X0035Y01157*
X0035Y01157*
X00349Y01157*
X00349Y01157*
X00349Y01157*
X00349Y01157*
X00349Y01157*
X00349Y01157*
X00349Y01157*
X00349*
X00349Y01157*
X00349Y01157*
X00349Y01157*
X00349Y01157*
X00349Y01157*
X00349Y01157*
X00349Y01157*
X00349Y01157*
X00349Y01157*
X00349Y01157*
X00349Y01157*
X00349Y01157*
X00349Y01157*
X00349Y01157*
X00349Y01157*
X00349Y01157*
X00349Y01157*
X00349Y01157*
X00349Y01157*
X00349Y01157*
X00349Y01157*
X00349Y01157*
X00349Y01157*
X00349Y01157*
X00349Y01157*
X00349Y01157*
X00349Y01157*
X00349Y01157*
X00349Y01157*
X00349Y01157*
X00349Y01157*
X00349Y01157*
X00349Y01157*
X00349Y01157*
X00349Y01156*
X00349Y01156*
X00349Y01156*
X00349Y01156*
X00349Y01156*
X00349Y01156*
X00349Y01156*
X00349Y01156*
X00349Y01156*
X00349Y01156*
X00349*
X00349Y01156*
X00349Y01156*
X00349Y01156*
X00349Y01156*
X00349Y01156*
X00349Y01156*
X0035Y01156*
X0035Y01156*
X0035Y01156*
X0035Y01157*
X0035Y01157*
X0035Y01157*
X0035Y01157*
X0035Y01157*
X0035Y01157*
X0035Y01157*
X0035Y01157*
X0035Y01157*
X0035Y01157*
X0035Y01157*
X0035Y01157*
X0035Y01157*
X00446Y01214D02*
D01*
X00445Y01217*
X00443Y01219*
X00442Y01222*
X0044Y01224*
X00438Y01226*
X00437Y01228*
X00434Y0123*
X00432Y01231*
X0043Y01233*
X00428Y01234*
X00425Y01235*
X00423Y01236*
X0042Y01237*
X00417Y01238*
X00415Y01238*
X00412Y01239*
X00409Y01239*
X00406Y01238*
X00404Y01238*
X00401Y01238*
X00398Y01237*
X00396Y01236*
X00393Y01235*
X00391Y01234*
X00388Y01232*
X00386Y01231*
X00384Y01229*
X00382Y01227*
X0038Y01225*
X00378Y01223*
X00377Y01221*
X00375Y01219*
X00374Y01216*
X00373Y01214*
X00015Y01184D02*
D01*
X00015Y01184*
X00015Y01184*
X00015Y01184*
X00015Y01185*
X00014Y01185*
X00014Y01185*
X00014Y01185*
X00014Y01185*
X00014Y01185*
X00014Y01185*
X00014Y01185*
X00014Y01185*
X00014Y01186*
X00014Y01186*
X00014Y01186*
X00013Y01186*
X00013Y01186*
X00013Y01186*
X00013Y01186*
X00013Y01186*
X00013Y01186*
X00013Y01186*
X00013*
X00012Y01186*
X00012Y01186*
X00012Y01186*
X00012Y01186*
X00012Y01186*
X00012Y01186*
X00012Y01186*
X00012Y01186*
X00011Y01186*
X00011Y01185*
X00011Y01185*
X00011Y01185*
X00011Y01185*
X00011Y01185*
X00011Y01185*
X00011Y01185*
X00011Y01185*
X00011Y01185*
X00011Y01184*
X00011Y01184*
X00011Y01184*
X00011Y01184*
X00011Y01184*
X00011Y01184*
X00011Y01184*
X00011Y01183*
X00011Y01183*
X00011Y01183*
X00011Y01183*
X00011Y01183*
X00011Y01183*
X00011Y01183*
X00011Y01183*
X00011Y01183*
X00011Y01182*
X00012Y01182*
X00012Y01182*
X00012Y01182*
X00012Y01182*
X00012Y01182*
X00012Y01182*
X00012Y01182*
X00012Y01182*
X00013Y01182*
X00013*
X00013Y01182*
X00013Y01182*
X00013Y01182*
X00013Y01182*
X00013Y01182*
X00013Y01182*
X00014Y01182*
X00014Y01182*
X00014Y01182*
X00014Y01183*
X00014Y01183*
X00014Y01183*
X00014Y01183*
X00014Y01183*
X00014Y01183*
X00014Y01183*
X00014Y01183*
X00015Y01183*
X00015Y01184*
X00015Y01184*
X00015Y01184*
X00015Y01184*
X00022Y00503D02*
D01*
X00022Y00503*
X00022Y00503*
X00022Y00503*
X00022Y00503*
X00022Y00503*
X00022Y00503*
X00022Y00504*
X00022Y00504*
X00022Y00504*
X00021Y00504*
X00021Y00504*
X00021Y00504*
X00021Y00504*
X00021Y00504*
X00021Y00504*
X00021Y00504*
X00021Y00504*
X00021Y00504*
X0002Y00505*
X0002Y00505*
X0002Y00505*
X0002Y00505*
X0002*
X0002Y00505*
X0002Y00505*
X00019Y00505*
X00019Y00504*
X00019Y00504*
X00019Y00504*
X00019Y00504*
X00019Y00504*
X00019Y00504*
X00019Y00504*
X00019Y00504*
X00018Y00504*
X00018Y00504*
X00018Y00504*
X00018Y00504*
X00018Y00503*
X00018Y00503*
X00018Y00503*
X00018Y00503*
X00018Y00503*
X00018Y00503*
X00018Y00503*
X00018Y00502*
X00018Y00502*
X00018Y00502*
X00018Y00502*
X00018Y00502*
X00018Y00502*
X00018Y00502*
X00018Y00502*
X00018Y00501*
X00018Y00501*
X00019Y00501*
X00019Y00501*
X00019Y00501*
X00019Y00501*
X00019Y00501*
X00019Y00501*
X00019Y00501*
X00019Y00501*
X00019Y00501*
X0002Y00501*
X0002Y00501*
X0002Y00501*
X0002*
X0002Y00501*
X0002Y00501*
X0002Y00501*
X00021Y00501*
X00021Y00501*
X00021Y00501*
X00021Y00501*
X00021Y00501*
X00021Y00501*
X00021Y00501*
X00021Y00501*
X00021Y00501*
X00022Y00501*
X00022Y00502*
X00022Y00502*
X00022Y00502*
X00022Y00502*
X00022Y00502*
X00022Y00502*
X00022Y00502*
X00022Y00502*
X00022Y00503*
X00053Y0109D02*
X0008Y01064D01*
X0003Y01067D02*
X00053Y0109D01*
X0003Y01067D02*
X00059Y01038D01*
X0245Y01074D02*
X0247D01*
X02405Y01075D02*
X02425D01*
X0266Y01069D02*
X0268D01*
X0271D02*
X0273D01*
X02335Y0024D02*
Y0026D01*
X02564Y00109D02*
Y00179D01*
X02516Y00109D02*
Y00179D01*
X02678Y00109D02*
Y0018D01*
X02631Y00109D02*
Y0018D01*
X02434Y005D02*
Y0052D01*
X02399Y00436D02*
X0247D01*
X02399Y00483D02*
X0247D01*
X02495Y00535D02*
X02515D01*
X02434Y0035D02*
Y0037D01*
X02654Y00325D02*
Y00345D01*
X02525Y00365D02*
Y00404D01*
X02584Y00365D02*
Y00404D01*
X02654Y00425D02*
Y00445D01*
X02259Y007D02*
Y0072D01*
X02227Y00723D02*
X02297D01*
X02227Y00771D02*
X02297D01*
X02042Y0068D02*
Y007D01*
Y0072D02*
Y0074D01*
X01982Y00794D02*
Y00865D01*
X01935Y00794D02*
Y00865D01*
X01929Y009D02*
Y0092D01*
X0188Y00794D02*
Y00865D01*
X01927Y00794D02*
Y00865D01*
X01795Y0094D02*
X01815D01*
X01783Y00904D02*
Y00975D01*
X01736Y00904D02*
Y00975D01*
X01665Y0082D02*
X01685D01*
X01606Y00784D02*
Y00855D01*
X01653Y00784D02*
Y00855D01*
X01469Y00446D02*
X0154D01*
X01469Y00493D02*
X0154D01*
X01895Y0051D02*
X01915D01*
X01858Y00439D02*
Y0051D01*
X01811Y00439D02*
Y0051D01*
X0197Y004D02*
Y0042D01*
X01934Y00341D02*
X02005D01*
X01934Y00388D02*
X02005D01*
X0157Y0028D02*
X0159D01*
X01415Y00045D02*
Y00065D01*
X01284Y00288D02*
X01304D01*
X01244Y00288D02*
X01264D01*
X01178Y00507D02*
Y00578D01*
X01225Y00507D02*
Y00578D01*
X01062Y00517D02*
Y00588D01*
X01109Y00517D02*
Y00588D01*
X01059Y00517D02*
Y00588D01*
X01012Y00517D02*
Y00588D01*
X00915Y00475D02*
X00935D01*
X00917Y00337D02*
X00937D01*
X00877D02*
X00897D01*
X00832Y00337D02*
X00852D01*
X01161Y00049D02*
Y0008D01*
X00898Y00049D02*
Y0008D01*
X00967Y00116D02*
X01033D01*
X00898Y-00045D02*
Y-00007D01*
X01161Y-00045D02*
Y-00008D01*
X00898Y-00045D02*
X01161D01*
X00761Y00134D02*
Y00205D01*
X00808Y00134D02*
Y00205D01*
X0058Y00235D02*
Y00255D01*
X00545Y00169D02*
X00565D01*
X00446Y00169D02*
Y0024D01*
X00493Y00169D02*
Y0024D01*
X00456Y00117D02*
X00476D01*
X00266D02*
X00286D01*
X00256Y00289D02*
Y0036D01*
X00303Y00289D02*
Y0036D01*
X00174Y00381D02*
X00245D01*
X00174Y00428D02*
X00245D01*
X00035Y00324D02*
X00055D01*
X0007Y00395D02*
Y00415D01*
X00435Y0069D02*
X00455D01*
X00382Y00654D02*
Y00725D01*
X00429Y00654D02*
Y00725D01*
X00389Y00654D02*
Y00725D01*
X00342Y00654D02*
Y00725D01*
X00315Y00689D02*
X00335D01*
X00449Y00578D02*
X0052D01*
X00449Y00531D02*
X0052D01*
X00284Y00528D02*
X00355D01*
X00284Y00481D02*
X00355D01*
X0032Y0054D02*
Y0056D01*
X00435Y00784D02*
X00455D01*
X00395D02*
X00415D01*
X00355Y00785D02*
X00375D01*
X0088Y00699D02*
X009D01*
X00827Y00664D02*
Y00735D01*
X00874Y00664D02*
Y00735D01*
X0088Y00814D02*
X009D01*
X0084Y00815D02*
X0086D01*
X00538Y01105D02*
X00565Y01079D01*
X00515Y01082D02*
X00538Y01105D01*
X00515Y01082D02*
X00544Y01053D01*
X00684Y00221D02*
X00755D01*
X00684Y00268D02*
X00755D01*
G54D13*
X02528Y01176D02*
D01*
X02528Y01176*
X02528Y01177*
X02528Y01177*
X02528Y01177*
X02528Y01178*
X02528Y01178*
X02528Y01178*
X02527Y01179*
X02527Y01179*
X02527Y01179*
X02527Y01179*
X02527Y0118*
X02526Y0118*
X02526Y0118*
X02526Y0118*
X02525Y0118*
X02525Y0118*
X02525Y01181*
X02525Y01181*
X02524Y01181*
X02524Y01181*
X02523Y01181*
X02523*
X02523Y01181*
X02522Y01181*
X02522Y01181*
X02522Y01181*
X02521Y0118*
X02521Y0118*
X02521Y0118*
X02521Y0118*
X0252Y0118*
X0252Y0118*
X0252Y01179*
X0252Y01179*
X02519Y01179*
X02519Y01179*
X02519Y01178*
X02519Y01178*
X02519Y01178*
X02519Y01177*
X02519Y01177*
X02518Y01177*
X02518Y01176*
X02518Y01176*
X02518Y01176*
X02518Y01175*
X02519Y01175*
X02519Y01175*
X02519Y01174*
X02519Y01174*
X02519Y01174*
X02519Y01173*
X02519Y01173*
X0252Y01173*
X0252Y01172*
X0252Y01172*
X0252Y01172*
X02521Y01172*
X02521Y01172*
X02521Y01171*
X02521Y01171*
X02522Y01171*
X02522Y01171*
X02522Y01171*
X02523Y01171*
X02523Y01171*
X02523*
X02524Y01171*
X02524Y01171*
X02525Y01171*
X02525Y01171*
X02525Y01171*
X02525Y01171*
X02526Y01172*
X02526Y01172*
X02526Y01172*
X02527Y01172*
X02527Y01172*
X02527Y01173*
X02527Y01173*
X02527Y01173*
X02528Y01174*
X02528Y01174*
X02528Y01174*
X02528Y01175*
X02528Y01175*
X02528Y01175*
X02528Y01176*
X02528Y01176*
X02371Y00362D02*
D01*
X02371Y00362*
X02371Y00362*
X02371Y00363*
X02371Y00363*
X02371Y00363*
X02371Y00364*
X02371Y00364*
X0237Y00364*
X0237Y00364*
X0237Y00365*
X0237Y00365*
X0237Y00365*
X02369Y00365*
X02369Y00366*
X02369Y00366*
X02368Y00366*
X02368Y00366*
X02368Y00366*
X02367Y00366*
X02367Y00366*
X02367Y00366*
X02366Y00366*
X02366*
X02366Y00366*
X02365Y00366*
X02365Y00366*
X02365Y00366*
X02364Y00366*
X02364Y00366*
X02364Y00366*
X02363Y00366*
X02363Y00365*
X02363Y00365*
X02363Y00365*
X02362Y00365*
X02362Y00364*
X02362Y00364*
X02362Y00364*
X02362Y00364*
X02362Y00363*
X02362Y00363*
X02361Y00363*
X02361Y00362*
X02361Y00362*
X02361Y00362*
X02361Y00361*
X02361Y00361*
X02361Y00361*
X02362Y0036*
X02362Y0036*
X02362Y0036*
X02362Y00359*
X02362Y00359*
X02362Y00359*
X02362Y00358*
X02363Y00358*
X02363Y00358*
X02363Y00358*
X02363Y00357*
X02364Y00357*
X02364Y00357*
X02364Y00357*
X02365Y00357*
X02365Y00357*
X02365Y00357*
X02366Y00357*
X02366Y00357*
X02366*
X02367Y00357*
X02367Y00357*
X02367Y00357*
X02368Y00357*
X02368Y00357*
X02368Y00357*
X02369Y00357*
X02369Y00357*
X02369Y00358*
X0237Y00358*
X0237Y00358*
X0237Y00358*
X0237Y00359*
X0237Y00359*
X02371Y00359*
X02371Y0036*
X02371Y0036*
X02371Y0036*
X02371Y00361*
X02371Y00361*
X02371Y00361*
X02371Y00362*
X01728Y009D02*
D01*
X01728Y009*
X01728Y00901*
X01728Y00901*
X01728Y00901*
X01728Y00902*
X01728Y00902*
X01727Y00902*
X01727Y00903*
X01727Y00903*
X01727Y00903*
X01727Y00904*
X01726Y00904*
X01726Y00904*
X01726Y00904*
X01726Y00904*
X01725Y00905*
X01725Y00905*
X01725Y00905*
X01724Y00905*
X01724Y00905*
X01724Y00905*
X01723Y00905*
X01723*
X01723Y00905*
X01722Y00905*
X01722Y00905*
X01722Y00905*
X01721Y00905*
X01721Y00905*
X01721Y00904*
X0172Y00904*
X0172Y00904*
X0172Y00904*
X0172Y00904*
X01719Y00903*
X01719Y00903*
X01719Y00903*
X01719Y00902*
X01719Y00902*
X01718Y00902*
X01718Y00901*
X01718Y00901*
X01718Y00901*
X01718Y009*
X01718Y009*
X01718Y009*
X01718Y00899*
X01718Y00899*
X01718Y00899*
X01718Y00898*
X01719Y00898*
X01719Y00898*
X01719Y00897*
X01719Y00897*
X01719Y00897*
X0172Y00897*
X0172Y00896*
X0172Y00896*
X0172Y00896*
X01721Y00896*
X01721Y00896*
X01721Y00896*
X01722Y00895*
X01722Y00895*
X01722Y00895*
X01723Y00895*
X01723Y00895*
X01723*
X01724Y00895*
X01724Y00895*
X01724Y00895*
X01725Y00895*
X01725Y00896*
X01725Y00896*
X01726Y00896*
X01726Y00896*
X01726Y00896*
X01726Y00896*
X01727Y00897*
X01727Y00897*
X01727Y00897*
X01727Y00897*
X01727Y00898*
X01728Y00898*
X01728Y00898*
X01728Y00899*
X01728Y00899*
X01728Y00899*
X01728Y009*
X01728Y009*
X01004Y0047D02*
D01*
X01004Y0047*
X01004Y00471*
X01004Y00471*
X01004Y00471*
X01004Y00472*
X01004Y00472*
X01003Y00472*
X01003Y00473*
X01003Y00473*
X01003Y00473*
X01003Y00473*
X01002Y00474*
X01002Y00474*
X01002Y00474*
X01001Y00474*
X01001Y00474*
X01001Y00475*
X01001Y00475*
X01Y00475*
X01Y00475*
X01Y00475*
X00999Y00475*
X00999*
X00999Y00475*
X00998Y00475*
X00998Y00475*
X00998Y00475*
X00997Y00475*
X00997Y00474*
X00997Y00474*
X00996Y00474*
X00996Y00474*
X00996Y00474*
X00995Y00473*
X00995Y00473*
X00995Y00473*
X00995Y00473*
X00995Y00472*
X00995Y00472*
X00994Y00472*
X00994Y00471*
X00994Y00471*
X00994Y00471*
X00994Y0047*
X00994Y0047*
X00994Y0047*
X00994Y00469*
X00994Y00469*
X00994Y00469*
X00994Y00468*
X00995Y00468*
X00995Y00468*
X00995Y00467*
X00995Y00467*
X00995Y00467*
X00995Y00467*
X00996Y00466*
X00996Y00466*
X00996Y00466*
X00997Y00466*
X00997Y00466*
X00997Y00465*
X00998Y00465*
X00998Y00465*
X00998Y00465*
X00999Y00465*
X00999Y00465*
X00999*
X01Y00465*
X01Y00465*
X01Y00465*
X01001Y00465*
X01001Y00465*
X01001Y00466*
X01001Y00466*
X01002Y00466*
X01002Y00466*
X01002Y00466*
X01003Y00467*
X01003Y00467*
X01003Y00467*
X01003Y00467*
X01003Y00468*
X01004Y00468*
X01004Y00468*
X01004Y00469*
X01004Y00469*
X01004Y00469*
X01004Y0047*
X01004Y0047*
X00596Y00225D02*
D01*
X00596Y00225*
X00596Y00226*
X00595Y00226*
X00595Y00226*
X00595Y00227*
X00595Y00227*
X00595Y00227*
X00595Y00228*
X00595Y00228*
X00594Y00228*
X00594Y00229*
X00594Y00229*
X00594Y00229*
X00593Y00229*
X00593Y00229*
X00593Y0023*
X00592Y0023*
X00592Y0023*
X00592Y0023*
X00591Y0023*
X00591Y0023*
X00591Y0023*
X0059*
X0059Y0023*
X0059Y0023*
X00589Y0023*
X00589Y0023*
X00589Y0023*
X00588Y0023*
X00588Y00229*
X00588Y00229*
X00588Y00229*
X00587Y00229*
X00587Y00229*
X00587Y00228*
X00587Y00228*
X00586Y00228*
X00586Y00227*
X00586Y00227*
X00586Y00227*
X00586Y00226*
X00586Y00226*
X00586Y00226*
X00586Y00225*
X00586Y00225*
X00586Y00225*
X00586Y00224*
X00586Y00224*
X00586Y00224*
X00586Y00223*
X00586Y00223*
X00586Y00223*
X00586Y00222*
X00587Y00222*
X00587Y00222*
X00587Y00222*
X00587Y00221*
X00588Y00221*
X00588Y00221*
X00588Y00221*
X00588Y00221*
X00589Y00221*
X00589Y0022*
X00589Y0022*
X0059Y0022*
X0059Y0022*
X0059Y0022*
X00591*
X00591Y0022*
X00591Y0022*
X00592Y0022*
X00592Y0022*
X00592Y00221*
X00593Y00221*
X00593Y00221*
X00593Y00221*
X00594Y00221*
X00594Y00221*
X00594Y00222*
X00594Y00222*
X00595Y00222*
X00595Y00222*
X00595Y00223*
X00595Y00223*
X00595Y00223*
X00595Y00224*
X00595Y00224*
X00596Y00224*
X00596Y00225*
X00596Y00225*
X00439Y00238D02*
D01*
X00439Y00239*
X00439Y00239*
X00439Y00239*
X00439Y0024*
X00439Y0024*
X00439Y0024*
X00439Y00241*
X00439Y00241*
X00438Y00241*
X00438Y00241*
X00438Y00242*
X00438Y00242*
X00437Y00242*
X00437Y00242*
X00437Y00243*
X00437Y00243*
X00436Y00243*
X00436Y00243*
X00436Y00243*
X00435Y00243*
X00435Y00243*
X00435Y00243*
X00434*
X00434Y00243*
X00434Y00243*
X00433Y00243*
X00433Y00243*
X00433Y00243*
X00432Y00243*
X00432Y00243*
X00432Y00242*
X00431Y00242*
X00431Y00242*
X00431Y00242*
X00431Y00241*
X0043Y00241*
X0043Y00241*
X0043Y00241*
X0043Y0024*
X0043Y0024*
X0043Y0024*
X0043Y00239*
X0043Y00239*
X0043Y00239*
X0043Y00238*
X0043Y00238*
X0043Y00238*
X0043Y00237*
X0043Y00237*
X0043Y00237*
X0043Y00236*
X0043Y00236*
X0043Y00236*
X0043Y00235*
X00431Y00235*
X00431Y00235*
X00431Y00235*
X00431Y00234*
X00432Y00234*
X00432Y00234*
X00432Y00234*
X00433Y00234*
X00433Y00234*
X00433Y00234*
X00434Y00233*
X00434Y00233*
X00434Y00233*
X00435*
X00435Y00233*
X00435Y00233*
X00436Y00234*
X00436Y00234*
X00436Y00234*
X00437Y00234*
X00437Y00234*
X00437Y00234*
X00437Y00234*
X00438Y00235*
X00438Y00235*
X00438Y00235*
X00438Y00235*
X00439Y00236*
X00439Y00236*
X00439Y00236*
X00439Y00237*
X00439Y00237*
X00439Y00237*
X00439Y00238*
X00439Y00238*
X00439Y00238*
X00085Y0038D02*
D01*
X00085Y0038*
X00085Y0038*
X00085Y00381*
X00084Y00381*
X00084Y00381*
X00084Y00382*
X00084Y00382*
X00084Y00382*
X00084Y00383*
X00083Y00383*
X00083Y00383*
X00083Y00383*
X00083Y00383*
X00082Y00384*
X00082Y00384*
X00082Y00384*
X00082Y00384*
X00081Y00384*
X00081Y00384*
X00081Y00384*
X0008Y00385*
X0008Y00385*
X0008*
X00079Y00385*
X00079Y00384*
X00079Y00384*
X00078Y00384*
X00078Y00384*
X00078Y00384*
X00077Y00384*
X00077Y00384*
X00077Y00383*
X00076Y00383*
X00076Y00383*
X00076Y00383*
X00076Y00383*
X00076Y00382*
X00075Y00382*
X00075Y00382*
X00075Y00381*
X00075Y00381*
X00075Y00381*
X00075Y0038*
X00075Y0038*
X00075Y0038*
X00075Y00379*
X00075Y00379*
X00075Y00379*
X00075Y00378*
X00075Y00378*
X00075Y00378*
X00075Y00377*
X00076Y00377*
X00076Y00377*
X00076Y00376*
X00076Y00376*
X00076Y00376*
X00077Y00376*
X00077Y00376*
X00077Y00375*
X00078Y00375*
X00078Y00375*
X00078Y00375*
X00079Y00375*
X00079Y00375*
X00079Y00375*
X0008Y00375*
X0008*
X0008Y00375*
X00081Y00375*
X00081Y00375*
X00081Y00375*
X00082Y00375*
X00082Y00375*
X00082Y00375*
X00082Y00376*
X00083Y00376*
X00083Y00376*
X00083Y00376*
X00083Y00376*
X00084Y00377*
X00084Y00377*
X00084Y00377*
X00084Y00378*
X00084Y00378*
X00084Y00378*
X00085Y00379*
X00085Y00379*
X00085Y00379*
X00085Y0038*
G54D14*
X00301Y00975D02*
D01*
X00301Y00975*
X00301Y00976*
X00301Y00977*
X00301Y00978*
X00301Y00979*
X003Y00979*
X003Y0098*
X003Y00981*
X00299Y00981*
X00299Y00982*
X00298Y00983*
X00297Y00983*
X00297Y00984*
X00296Y00984*
X00295Y00985*
X00295Y00985*
X00294Y00985*
X00293Y00986*
X00292Y00986*
X00292Y00986*
X00291Y00986*
X0029Y00986*
X00289*
X00288Y00986*
X00287Y00986*
X00287Y00986*
X00286Y00986*
X00285Y00985*
X00284Y00985*
X00284Y00985*
X00283Y00984*
X00282Y00984*
X00282Y00983*
X00281Y00983*
X0028Y00982*
X0028Y00981*
X00279Y00981*
X00279Y0098*
X00279Y00979*
X00278Y00979*
X00278Y00978*
X00278Y00977*
X00278Y00976*
X00278Y00975*
X00278Y00975*
X00278Y00974*
X00278Y00973*
X00278Y00972*
X00278Y00971*
X00278Y0097*
X00279Y0097*
X00279Y00969*
X00279Y00968*
X0028Y00968*
X0028Y00967*
X00281Y00966*
X00282Y00966*
X00282Y00965*
X00283Y00965*
X00284Y00964*
X00284Y00964*
X00285Y00964*
X00286Y00963*
X00287Y00963*
X00287Y00963*
X00288Y00963*
X00289Y00963*
X0029*
X00291Y00963*
X00292Y00963*
X00292Y00963*
X00293Y00963*
X00294Y00964*
X00295Y00964*
X00295Y00964*
X00296Y00965*
X00297Y00965*
X00297Y00966*
X00298Y00966*
X00299Y00967*
X00299Y00968*
X003Y00968*
X003Y00969*
X003Y0097*
X00301Y0097*
X00301Y00971*
X00301Y00972*
X00301Y00973*
X00301Y00974*
X00301Y00975*
X00486Y0002D02*
D01*
X00486Y0002*
X00486Y00021*
X00486Y00022*
X00486Y00023*
X00486Y00024*
X00485Y00024*
X00485Y00025*
X00485Y00026*
X00484Y00026*
X00484Y00027*
X00483Y00028*
X00482Y00028*
X00482Y00029*
X00481Y00029*
X0048Y0003*
X0048Y0003*
X00479Y0003*
X00478Y00031*
X00477Y00031*
X00477Y00031*
X00476Y00031*
X00475Y00031*
X00474*
X00473Y00031*
X00472Y00031*
X00472Y00031*
X00471Y00031*
X0047Y0003*
X00469Y0003*
X00469Y0003*
X00468Y00029*
X00467Y00029*
X00467Y00028*
X00466Y00028*
X00465Y00027*
X00465Y00026*
X00464Y00026*
X00464Y00025*
X00464Y00024*
X00463Y00024*
X00463Y00023*
X00463Y00022*
X00463Y00021*
X00463Y0002*
X00463Y0002*
X00463Y00019*
X00463Y00018*
X00463Y00017*
X00463Y00016*
X00463Y00015*
X00464Y00015*
X00464Y00014*
X00464Y00013*
X00465Y00013*
X00465Y00012*
X00466Y00011*
X00467Y00011*
X00467Y0001*
X00468Y0001*
X00469Y00009*
X00469Y00009*
X0047Y00009*
X00471Y00008*
X00472Y00008*
X00472Y00008*
X00473Y00008*
X00474Y00008*
X00475*
X00476Y00008*
X00477Y00008*
X00477Y00008*
X00478Y00008*
X00479Y00009*
X0048Y00009*
X0048Y00009*
X00481Y0001*
X00482Y0001*
X00482Y00011*
X00483Y00011*
X00484Y00012*
X00484Y00013*
X00485Y00013*
X00485Y00014*
X00485Y00015*
X00486Y00015*
X00486Y00016*
X00486Y00017*
X00486Y00018*
X00486Y00019*
X00486Y0002*
X00826Y00645D02*
D01*
X00826Y00645*
X00826Y00646*
X00826Y00647*
X00826Y00648*
X00826Y00649*
X00825Y00649*
X00825Y0065*
X00825Y00651*
X00824Y00651*
X00824Y00652*
X00823Y00653*
X00822Y00653*
X00822Y00654*
X00821Y00654*
X0082Y00655*
X0082Y00655*
X00819Y00655*
X00818Y00656*
X00817Y00656*
X00817Y00656*
X00816Y00656*
X00815Y00656*
X00814*
X00813Y00656*
X00812Y00656*
X00812Y00656*
X00811Y00656*
X0081Y00655*
X00809Y00655*
X00809Y00655*
X00808Y00654*
X00807Y00654*
X00807Y00653*
X00806Y00653*
X00805Y00652*
X00805Y00651*
X00804Y00651*
X00804Y0065*
X00804Y00649*
X00803Y00649*
X00803Y00648*
X00803Y00647*
X00803Y00646*
X00803Y00645*
X00803Y00645*
X00803Y00644*
X00803Y00643*
X00803Y00642*
X00803Y00641*
X00803Y0064*
X00804Y0064*
X00804Y00639*
X00804Y00638*
X00805Y00638*
X00805Y00637*
X00806Y00636*
X00807Y00636*
X00807Y00635*
X00808Y00635*
X00809Y00634*
X00809Y00634*
X0081Y00634*
X00811Y00633*
X00812Y00633*
X00812Y00633*
X00813Y00633*
X00814Y00633*
X00815*
X00816Y00633*
X00817Y00633*
X00817Y00633*
X00818Y00633*
X00819Y00634*
X0082Y00634*
X0082Y00634*
X00821Y00635*
X00822Y00635*
X00822Y00636*
X00823Y00636*
X00824Y00637*
X00824Y00638*
X00825Y00638*
X00825Y00639*
X00825Y0064*
X00826Y0064*
X00826Y00641*
X00826Y00642*
X00826Y00643*
X00826Y00644*
X00826Y00645*
X00981Y00275D02*
D01*
X00981Y00275*
X00981Y00276*
X00981Y00277*
X00981Y00278*
X00981Y00279*
X0098Y00279*
X0098Y0028*
X0098Y00281*
X00979Y00281*
X00979Y00282*
X00978Y00283*
X00977Y00283*
X00977Y00284*
X00976Y00284*
X00975Y00285*
X00975Y00285*
X00974Y00285*
X00973Y00286*
X00972Y00286*
X00972Y00286*
X00971Y00286*
X0097Y00286*
X00969*
X00968Y00286*
X00967Y00286*
X00967Y00286*
X00966Y00286*
X00965Y00285*
X00964Y00285*
X00964Y00285*
X00963Y00284*
X00962Y00284*
X00962Y00283*
X00961Y00283*
X0096Y00282*
X0096Y00281*
X00959Y00281*
X00959Y0028*
X00959Y00279*
X00958Y00279*
X00958Y00278*
X00958Y00277*
X00958Y00276*
X00958Y00275*
X00958Y00275*
X00958Y00274*
X00958Y00273*
X00958Y00272*
X00958Y00271*
X00958Y0027*
X00959Y0027*
X00959Y00269*
X00959Y00268*
X0096Y00268*
X0096Y00267*
X00961Y00266*
X00962Y00266*
X00962Y00265*
X00963Y00265*
X00964Y00264*
X00964Y00264*
X00965Y00264*
X00966Y00263*
X00967Y00263*
X00967Y00263*
X00968Y00263*
X00969Y00263*
X0097*
X00971Y00263*
X00972Y00263*
X00972Y00263*
X00973Y00263*
X00974Y00264*
X00975Y00264*
X00975Y00264*
X00976Y00265*
X00977Y00265*
X00977Y00266*
X00978Y00266*
X00979Y00267*
X00979Y00268*
X0098Y00268*
X0098Y00269*
X0098Y0027*
X00981Y0027*
X00981Y00271*
X00981Y00272*
X00981Y00273*
X00981Y00274*
X00981Y00275*
X01146Y0082D02*
D01*
X01146Y0082*
X01146Y00821*
X01146Y00822*
X01146Y00823*
X01146Y00824*
X01145Y00824*
X01145Y00825*
X01145Y00826*
X01144Y00826*
X01144Y00827*
X01143Y00828*
X01142Y00828*
X01142Y00829*
X01141Y00829*
X0114Y0083*
X0114Y0083*
X01139Y0083*
X01138Y00831*
X01137Y00831*
X01137Y00831*
X01136Y00831*
X01135Y00831*
X01134*
X01133Y00831*
X01132Y00831*
X01132Y00831*
X01131Y00831*
X0113Y0083*
X01129Y0083*
X01129Y0083*
X01128Y00829*
X01127Y00829*
X01127Y00828*
X01126Y00828*
X01125Y00827*
X01125Y00826*
X01124Y00826*
X01124Y00825*
X01124Y00824*
X01123Y00824*
X01123Y00823*
X01123Y00822*
X01123Y00821*
X01123Y0082*
X01123Y0082*
X01123Y00819*
X01123Y00818*
X01123Y00817*
X01123Y00816*
X01123Y00815*
X01124Y00815*
X01124Y00814*
X01124Y00813*
X01125Y00813*
X01125Y00812*
X01126Y00811*
X01127Y00811*
X01127Y0081*
X01128Y0081*
X01129Y00809*
X01129Y00809*
X0113Y00809*
X01131Y00808*
X01132Y00808*
X01132Y00808*
X01133Y00808*
X01134Y00808*
X01135*
X01136Y00808*
X01137Y00808*
X01137Y00808*
X01138Y00808*
X01139Y00809*
X0114Y00809*
X0114Y00809*
X01141Y0081*
X01142Y0081*
X01142Y00811*
X01143Y00811*
X01144Y00812*
X01144Y00813*
X01145Y00813*
X01145Y00814*
X01145Y00815*
X01146Y00815*
X01146Y00816*
X01146Y00817*
X01146Y00818*
X01146Y00819*
X01146Y0082*
X01566Y0036D02*
D01*
X01566Y0036*
X01566Y00361*
X01566Y00362*
X01566Y00363*
X01566Y00364*
X01565Y00364*
X01565Y00365*
X01565Y00366*
X01564Y00366*
X01564Y00367*
X01563Y00368*
X01562Y00368*
X01562Y00369*
X01561Y00369*
X0156Y0037*
X0156Y0037*
X01559Y0037*
X01558Y00371*
X01557Y00371*
X01557Y00371*
X01556Y00371*
X01555Y00371*
X01554*
X01553Y00371*
X01552Y00371*
X01552Y00371*
X01551Y00371*
X0155Y0037*
X01549Y0037*
X01549Y0037*
X01548Y00369*
X01547Y00369*
X01547Y00368*
X01546Y00368*
X01545Y00367*
X01545Y00366*
X01544Y00366*
X01544Y00365*
X01544Y00364*
X01543Y00364*
X01543Y00363*
X01543Y00362*
X01543Y00361*
X01543Y0036*
X01543Y0036*
X01543Y00359*
X01543Y00358*
X01543Y00357*
X01543Y00356*
X01543Y00355*
X01544Y00355*
X01544Y00354*
X01544Y00353*
X01545Y00353*
X01545Y00352*
X01546Y00351*
X01547Y00351*
X01547Y0035*
X01548Y0035*
X01549Y00349*
X01549Y00349*
X0155Y00349*
X01551Y00348*
X01552Y00348*
X01552Y00348*
X01553Y00348*
X01554Y00348*
X01555*
X01556Y00348*
X01557Y00348*
X01557Y00348*
X01558Y00348*
X01559Y00349*
X0156Y00349*
X0156Y00349*
X01561Y0035*
X01562Y0035*
X01562Y00351*
X01563Y00351*
X01564Y00352*
X01564Y00353*
X01565Y00353*
X01565Y00354*
X01565Y00355*
X01566Y00355*
X01566Y00356*
X01566Y00357*
X01566Y00358*
X01566Y00359*
X01566Y0036*
X01086Y00965D02*
D01*
X01086Y00965*
X01086Y00966*
X01086Y00967*
X01086Y00968*
X01086Y00969*
X01085Y00969*
X01085Y0097*
X01085Y00971*
X01084Y00971*
X01084Y00972*
X01083Y00973*
X01082Y00973*
X01082Y00974*
X01081Y00974*
X0108Y00975*
X0108Y00975*
X01079Y00975*
X01078Y00976*
X01077Y00976*
X01077Y00976*
X01076Y00976*
X01075Y00976*
X01074*
X01073Y00976*
X01072Y00976*
X01072Y00976*
X01071Y00976*
X0107Y00975*
X01069Y00975*
X01069Y00975*
X01068Y00974*
X01067Y00974*
X01067Y00973*
X01066Y00973*
X01065Y00972*
X01065Y00971*
X01064Y00971*
X01064Y0097*
X01064Y00969*
X01063Y00969*
X01063Y00968*
X01063Y00967*
X01063Y00966*
X01063Y00965*
X01063Y00965*
X01063Y00964*
X01063Y00963*
X01063Y00962*
X01063Y00961*
X01063Y0096*
X01064Y0096*
X01064Y00959*
X01064Y00958*
X01065Y00958*
X01065Y00957*
X01066Y00956*
X01067Y00956*
X01067Y00955*
X01068Y00955*
X01069Y00954*
X01069Y00954*
X0107Y00954*
X01071Y00953*
X01072Y00953*
X01072Y00953*
X01073Y00953*
X01074Y00953*
X01075*
X01076Y00953*
X01077Y00953*
X01077Y00953*
X01078Y00953*
X01079Y00954*
X0108Y00954*
X0108Y00954*
X01081Y00955*
X01082Y00955*
X01082Y00956*
X01083Y00956*
X01084Y00957*
X01084Y00958*
X01085Y00958*
X01085Y00959*
X01085Y0096*
X01086Y0096*
X01086Y00961*
X01086Y00962*
X01086Y00963*
X01086Y00964*
X01086Y00965*
X01361Y0009D02*
D01*
X01361Y0009*
X01361Y00091*
X01361Y00092*
X01361Y00093*
X01361Y00094*
X0136Y00094*
X0136Y00095*
X0136Y00096*
X01359Y00096*
X01359Y00097*
X01358Y00098*
X01357Y00098*
X01357Y00099*
X01356Y00099*
X01355Y001*
X01355Y001*
X01354Y001*
X01353Y00101*
X01352Y00101*
X01352Y00101*
X01351Y00101*
X0135Y00101*
X01349*
X01348Y00101*
X01347Y00101*
X01347Y00101*
X01346Y00101*
X01345Y001*
X01344Y001*
X01344Y001*
X01343Y00099*
X01342Y00099*
X01342Y00098*
X01341Y00098*
X0134Y00097*
X0134Y00096*
X01339Y00096*
X01339Y00095*
X01339Y00094*
X01338Y00094*
X01338Y00093*
X01338Y00092*
X01338Y00091*
X01338Y0009*
X01338Y0009*
X01338Y00089*
X01338Y00088*
X01338Y00087*
X01338Y00086*
X01338Y00085*
X01339Y00085*
X01339Y00084*
X01339Y00083*
X0134Y00083*
X0134Y00082*
X01341Y00081*
X01342Y00081*
X01342Y0008*
X01343Y0008*
X01344Y00079*
X01344Y00079*
X01345Y00079*
X01346Y00078*
X01347Y00078*
X01347Y00078*
X01348Y00078*
X01349Y00078*
X0135*
X01351Y00078*
X01352Y00078*
X01352Y00078*
X01353Y00078*
X01354Y00079*
X01355Y00079*
X01355Y00079*
X01356Y0008*
X01357Y0008*
X01357Y00081*
X01358Y00081*
X01359Y00082*
X01359Y00083*
X0136Y00083*
X0136Y00084*
X0136Y00085*
X01361Y00085*
X01361Y00086*
X01361Y00087*
X01361Y00088*
X01361Y00089*
X01361Y0009*
X00311Y0076D02*
D01*
X00311Y0076*
X00311Y00761*
X00311Y00762*
X00311Y00763*
X00311Y00764*
X0031Y00764*
X0031Y00765*
X0031Y00766*
X00309Y00766*
X00309Y00767*
X00308Y00768*
X00307Y00768*
X00307Y00769*
X00306Y00769*
X00305Y0077*
X00305Y0077*
X00304Y0077*
X00303Y00771*
X00302Y00771*
X00302Y00771*
X00301Y00771*
X003Y00771*
X00299*
X00298Y00771*
X00297Y00771*
X00297Y00771*
X00296Y00771*
X00295Y0077*
X00294Y0077*
X00294Y0077*
X00293Y00769*
X00292Y00769*
X00292Y00768*
X00291Y00768*
X0029Y00767*
X0029Y00766*
X00289Y00766*
X00289Y00765*
X00289Y00764*
X00288Y00764*
X00288Y00763*
X00288Y00762*
X00288Y00761*
X00288Y0076*
X00288Y0076*
X00288Y00759*
X00288Y00758*
X00288Y00757*
X00288Y00756*
X00288Y00755*
X00289Y00755*
X00289Y00754*
X00289Y00753*
X0029Y00753*
X0029Y00752*
X00291Y00751*
X00292Y00751*
X00292Y0075*
X00293Y0075*
X00294Y00749*
X00294Y00749*
X00295Y00749*
X00296Y00748*
X00297Y00748*
X00297Y00748*
X00298Y00748*
X00299Y00748*
X003*
X00301Y00748*
X00302Y00748*
X00302Y00748*
X00303Y00748*
X00304Y00749*
X00305Y00749*
X00305Y00749*
X00306Y0075*
X00307Y0075*
X00307Y00751*
X00308Y00751*
X00309Y00752*
X00309Y00753*
X0031Y00753*
X0031Y00754*
X0031Y00755*
X00311Y00755*
X00311Y00756*
X00311Y00757*
X00311Y00758*
X00311Y00759*
X00311Y0076*
X00501Y0086D02*
D01*
X00501Y0086*
X00501Y00861*
X00501Y00862*
X00501Y00863*
X00501Y00864*
X005Y00864*
X005Y00865*
X005Y00866*
X00499Y00866*
X00499Y00867*
X00498Y00868*
X00497Y00868*
X00497Y00869*
X00496Y00869*
X00495Y0087*
X00495Y0087*
X00494Y0087*
X00493Y00871*
X00492Y00871*
X00492Y00871*
X00491Y00871*
X0049Y00871*
X00489*
X00488Y00871*
X00487Y00871*
X00487Y00871*
X00486Y00871*
X00485Y0087*
X00484Y0087*
X00484Y0087*
X00483Y00869*
X00482Y00869*
X00482Y00868*
X00481Y00868*
X0048Y00867*
X0048Y00866*
X00479Y00866*
X00479Y00865*
X00479Y00864*
X00478Y00864*
X00478Y00863*
X00478Y00862*
X00478Y00861*
X00478Y0086*
X00478Y0086*
X00478Y00859*
X00478Y00858*
X00478Y00857*
X00478Y00856*
X00478Y00855*
X00479Y00855*
X00479Y00854*
X00479Y00853*
X0048Y00853*
X0048Y00852*
X00481Y00851*
X00482Y00851*
X00482Y0085*
X00483Y0085*
X00484Y00849*
X00484Y00849*
X00485Y00849*
X00486Y00848*
X00487Y00848*
X00487Y00848*
X00488Y00848*
X00489Y00848*
X0049*
X00491Y00848*
X00492Y00848*
X00492Y00848*
X00493Y00848*
X00494Y00849*
X00495Y00849*
X00495Y00849*
X00496Y0085*
X00497Y0085*
X00497Y00851*
X00498Y00851*
X00499Y00852*
X00499Y00853*
X005Y00853*
X005Y00854*
X005Y00855*
X00501Y00855*
X00501Y00856*
X00501Y00857*
X00501Y00858*
X00501Y00859*
X00501Y0086*
X01871Y00745D02*
D01*
X01871Y00745*
X01871Y00746*
X01871Y00747*
X01871Y00748*
X01871Y00749*
X0187Y00749*
X0187Y0075*
X0187Y00751*
X01869Y00751*
X01869Y00752*
X01868Y00753*
X01867Y00753*
X01867Y00754*
X01866Y00754*
X01865Y00755*
X01865Y00755*
X01864Y00755*
X01863Y00756*
X01862Y00756*
X01862Y00756*
X01861Y00756*
X0186Y00756*
X01859*
X01858Y00756*
X01857Y00756*
X01857Y00756*
X01856Y00756*
X01855Y00755*
X01854Y00755*
X01854Y00755*
X01853Y00754*
X01852Y00754*
X01852Y00753*
X01851Y00753*
X0185Y00752*
X0185Y00751*
X01849Y00751*
X01849Y0075*
X01849Y00749*
X01848Y00749*
X01848Y00748*
X01848Y00747*
X01848Y00746*
X01848Y00745*
X01848Y00745*
X01848Y00744*
X01848Y00743*
X01848Y00742*
X01848Y00741*
X01848Y0074*
X01849Y0074*
X01849Y00739*
X01849Y00738*
X0185Y00738*
X0185Y00737*
X01851Y00736*
X01852Y00736*
X01852Y00735*
X01853Y00735*
X01854Y00734*
X01854Y00734*
X01855Y00734*
X01856Y00733*
X01857Y00733*
X01857Y00733*
X01858Y00733*
X01859Y00733*
X0186*
X01861Y00733*
X01862Y00733*
X01862Y00733*
X01863Y00733*
X01864Y00734*
X01865Y00734*
X01865Y00734*
X01866Y00735*
X01867Y00735*
X01867Y00736*
X01868Y00736*
X01869Y00737*
X01869Y00738*
X0187Y00738*
X0187Y00739*
X0187Y0074*
X01871Y0074*
X01871Y00741*
X01871Y00742*
X01871Y00743*
X01871Y00744*
X01871Y00745*
X01796Y00625D02*
D01*
X01796Y00625*
X01796Y00626*
X01796Y00627*
X01796Y00628*
X01796Y00629*
X01795Y00629*
X01795Y0063*
X01795Y00631*
X01794Y00631*
X01794Y00632*
X01793Y00633*
X01792Y00633*
X01792Y00634*
X01791Y00634*
X0179Y00635*
X0179Y00635*
X01789Y00635*
X01788Y00636*
X01787Y00636*
X01787Y00636*
X01786Y00636*
X01785Y00636*
X01784*
X01783Y00636*
X01782Y00636*
X01782Y00636*
X01781Y00636*
X0178Y00635*
X01779Y00635*
X01779Y00635*
X01778Y00634*
X01777Y00634*
X01777Y00633*
X01776Y00633*
X01775Y00632*
X01775Y00631*
X01774Y00631*
X01774Y0063*
X01774Y00629*
X01773Y00629*
X01773Y00628*
X01773Y00627*
X01773Y00626*
X01773Y00625*
X01773Y00625*
X01773Y00624*
X01773Y00623*
X01773Y00622*
X01773Y00621*
X01773Y0062*
X01774Y0062*
X01774Y00619*
X01774Y00618*
X01775Y00618*
X01775Y00617*
X01776Y00616*
X01777Y00616*
X01777Y00615*
X01778Y00615*
X01779Y00614*
X01779Y00614*
X0178Y00614*
X01781Y00613*
X01782Y00613*
X01782Y00613*
X01783Y00613*
X01784Y00613*
X01785*
X01786Y00613*
X01787Y00613*
X01787Y00613*
X01788Y00613*
X01789Y00614*
X0179Y00614*
X0179Y00614*
X01791Y00615*
X01792Y00615*
X01792Y00616*
X01793Y00616*
X01794Y00617*
X01794Y00618*
X01795Y00618*
X01795Y00619*
X01795Y0062*
X01796Y0062*
X01796Y00621*
X01796Y00622*
X01796Y00623*
X01796Y00624*
X01796Y00625*
X00776Y0028D02*
D01*
X00776Y0028*
X00776Y00281*
X00776Y00282*
X00776Y00283*
X00776Y00284*
X00775Y00284*
X00775Y00285*
X00775Y00286*
X00774Y00286*
X00774Y00287*
X00773Y00288*
X00772Y00288*
X00772Y00289*
X00771Y00289*
X0077Y0029*
X0077Y0029*
X00769Y0029*
X00768Y00291*
X00767Y00291*
X00767Y00291*
X00766Y00291*
X00765Y00291*
X00764*
X00763Y00291*
X00762Y00291*
X00762Y00291*
X00761Y00291*
X0076Y0029*
X00759Y0029*
X00759Y0029*
X00758Y00289*
X00757Y00289*
X00757Y00288*
X00756Y00288*
X00755Y00287*
X00755Y00286*
X00754Y00286*
X00754Y00285*
X00754Y00284*
X00753Y00284*
X00753Y00283*
X00753Y00282*
X00753Y00281*
X00753Y0028*
X00753Y0028*
X00753Y00279*
X00753Y00278*
X00753Y00277*
X00753Y00276*
X00753Y00275*
X00754Y00275*
X00754Y00274*
X00754Y00273*
X00755Y00273*
X00755Y00272*
X00756Y00271*
X00757Y00271*
X00757Y0027*
X00758Y0027*
X00759Y00269*
X00759Y00269*
X0076Y00269*
X00761Y00268*
X00762Y00268*
X00762Y00268*
X00763Y00268*
X00764Y00268*
X00765*
X00766Y00268*
X00767Y00268*
X00767Y00268*
X00768Y00268*
X00769Y00269*
X0077Y00269*
X0077Y00269*
X00771Y0027*
X00772Y0027*
X00772Y00271*
X00773Y00271*
X00774Y00272*
X00774Y00273*
X00775Y00273*
X00775Y00274*
X00775Y00275*
X00776Y00275*
X00776Y00276*
X00776Y00277*
X00776Y00278*
X00776Y00279*
X00776Y0028*
X00696Y0061D02*
D01*
X00696Y0061*
X00696Y00611*
X00696Y00612*
X00696Y00613*
X00696Y00614*
X00695Y00614*
X00695Y00615*
X00695Y00616*
X00694Y00616*
X00694Y00617*
X00693Y00618*
X00692Y00618*
X00692Y00619*
X00691Y00619*
X0069Y0062*
X0069Y0062*
X00689Y0062*
X00688Y00621*
X00687Y00621*
X00687Y00621*
X00686Y00621*
X00685Y00621*
X00684*
X00683Y00621*
X00682Y00621*
X00682Y00621*
X00681Y00621*
X0068Y0062*
X00679Y0062*
X00679Y0062*
X00678Y00619*
X00677Y00619*
X00677Y00618*
X00676Y00618*
X00675Y00617*
X00675Y00616*
X00674Y00616*
X00674Y00615*
X00674Y00614*
X00673Y00614*
X00673Y00613*
X00673Y00612*
X00673Y00611*
X00673Y0061*
X00673Y0061*
X00673Y00609*
X00673Y00608*
X00673Y00607*
X00673Y00606*
X00673Y00605*
X00674Y00605*
X00674Y00604*
X00674Y00603*
X00675Y00603*
X00675Y00602*
X00676Y00601*
X00677Y00601*
X00677Y006*
X00678Y006*
X00679Y00599*
X00679Y00599*
X0068Y00599*
X00681Y00598*
X00682Y00598*
X00682Y00598*
X00683Y00598*
X00684Y00598*
X00685*
X00686Y00598*
X00687Y00598*
X00687Y00598*
X00688Y00598*
X00689Y00599*
X0069Y00599*
X0069Y00599*
X00691Y006*
X00692Y006*
X00692Y00601*
X00693Y00601*
X00694Y00602*
X00694Y00603*
X00695Y00603*
X00695Y00604*
X00695Y00605*
X00696Y00605*
X00696Y00606*
X00696Y00607*
X00696Y00608*
X00696Y00609*
X00696Y0061*
X01226Y0019D02*
D01*
X01226Y0019*
X01226Y00191*
X01226Y00192*
X01226Y00193*
X01226Y00194*
X01225Y00194*
X01225Y00195*
X01225Y00196*
X01224Y00196*
X01224Y00197*
X01223Y00198*
X01222Y00198*
X01222Y00199*
X01221Y00199*
X0122Y002*
X0122Y002*
X01219Y002*
X01218Y00201*
X01217Y00201*
X01217Y00201*
X01216Y00201*
X01215Y00201*
X01214*
X01213Y00201*
X01212Y00201*
X01212Y00201*
X01211Y00201*
X0121Y002*
X01209Y002*
X01209Y002*
X01208Y00199*
X01207Y00199*
X01207Y00198*
X01206Y00198*
X01205Y00197*
X01205Y00196*
X01204Y00196*
X01204Y00195*
X01204Y00194*
X01203Y00194*
X01203Y00193*
X01203Y00192*
X01203Y00191*
X01203Y0019*
X01203Y0019*
X01203Y00189*
X01203Y00188*
X01203Y00187*
X01203Y00186*
X01203Y00185*
X01204Y00185*
X01204Y00184*
X01204Y00183*
X01205Y00183*
X01205Y00182*
X01206Y00181*
X01207Y00181*
X01207Y0018*
X01208Y0018*
X01209Y00179*
X01209Y00179*
X0121Y00179*
X01211Y00178*
X01212Y00178*
X01212Y00178*
X01213Y00178*
X01214Y00178*
X01215*
X01216Y00178*
X01217Y00178*
X01217Y00178*
X01218Y00178*
X01219Y00179*
X0122Y00179*
X0122Y00179*
X01221Y0018*
X01222Y0018*
X01222Y00181*
X01223Y00181*
X01224Y00182*
X01224Y00183*
X01225Y00183*
X01225Y00184*
X01225Y00185*
X01226Y00185*
X01226Y00186*
X01226Y00187*
X01226Y00188*
X01226Y00189*
X01226Y0019*
X00946Y0064D02*
D01*
X00946Y0064*
X00946Y00641*
X00946Y00642*
X00946Y00643*
X00946Y00644*
X00945Y00644*
X00945Y00645*
X00945Y00646*
X00944Y00646*
X00944Y00647*
X00943Y00648*
X00942Y00648*
X00942Y00649*
X00941Y00649*
X0094Y0065*
X0094Y0065*
X00939Y0065*
X00938Y00651*
X00937Y00651*
X00937Y00651*
X00936Y00651*
X00935Y00651*
X00934*
X00933Y00651*
X00932Y00651*
X00932Y00651*
X00931Y00651*
X0093Y0065*
X00929Y0065*
X00929Y0065*
X00928Y00649*
X00927Y00649*
X00927Y00648*
X00926Y00648*
X00925Y00647*
X00925Y00646*
X00924Y00646*
X00924Y00645*
X00924Y00644*
X00923Y00644*
X00923Y00643*
X00923Y00642*
X00923Y00641*
X00923Y0064*
X00923Y0064*
X00923Y00639*
X00923Y00638*
X00923Y00637*
X00923Y00636*
X00923Y00635*
X00924Y00635*
X00924Y00634*
X00924Y00633*
X00925Y00633*
X00925Y00632*
X00926Y00631*
X00927Y00631*
X00927Y0063*
X00928Y0063*
X00929Y00629*
X00929Y00629*
X0093Y00629*
X00931Y00628*
X00932Y00628*
X00932Y00628*
X00933Y00628*
X00934Y00628*
X00935*
X00936Y00628*
X00937Y00628*
X00937Y00628*
X00938Y00628*
X00939Y00629*
X0094Y00629*
X0094Y00629*
X00941Y0063*
X00942Y0063*
X00942Y00631*
X00943Y00631*
X00944Y00632*
X00944Y00633*
X00945Y00633*
X00945Y00634*
X00945Y00635*
X00946Y00635*
X00946Y00636*
X00946Y00637*
X00946Y00638*
X00946Y00639*
X00946Y0064*
X01565Y00067D02*
D01*
X01565Y00067*
X01565Y00068*
X01565Y00069*
X01564Y0007*
X01564Y00071*
X01564Y00071*
X01564Y00072*
X01563Y00073*
X01563Y00074*
X01562Y00074*
X01562Y00075*
X01561Y00075*
X0156Y00076*
X0156Y00076*
X01559Y00077*
X01558Y00077*
X01558Y00078*
X01557Y00078*
X01556Y00078*
X01555Y00078*
X01554Y00078*
X01554Y00078*
X01553*
X01552Y00078*
X01551Y00078*
X0155Y00078*
X01549Y00078*
X01549Y00078*
X01548Y00077*
X01547Y00077*
X01547Y00076*
X01546Y00076*
X01545Y00075*
X01545Y00075*
X01544Y00074*
X01544Y00074*
X01543Y00073*
X01543Y00072*
X01542Y00071*
X01542Y00071*
X01542Y0007*
X01542Y00069*
X01541Y00068*
X01541Y00067*
X01541Y00067*
X01541Y00066*
X01541Y00065*
X01542Y00064*
X01542Y00063*
X01542Y00063*
X01542Y00062*
X01543Y00061*
X01543Y0006*
X01544Y0006*
X01544Y00059*
X01545Y00058*
X01545Y00058*
X01546Y00057*
X01547Y00057*
X01547Y00056*
X01548Y00056*
X01549Y00056*
X01549Y00055*
X0155Y00055*
X01551Y00055*
X01552Y00055*
X01553Y00055*
X01554*
X01554Y00055*
X01555Y00055*
X01556Y00055*
X01557Y00055*
X01558Y00056*
X01558Y00056*
X01559Y00056*
X0156Y00057*
X0156Y00057*
X01561Y00058*
X01562Y00058*
X01562Y00059*
X01563Y0006*
X01563Y0006*
X01564Y00061*
X01564Y00062*
X01564Y00063*
X01564Y00063*
X01565Y00064*
X01565Y00065*
X01565Y00066*
X01565Y00067*
X01231Y00485D02*
D01*
X01231Y00485*
X01231Y00486*
X01231Y00487*
X01231Y00488*
X01231Y00489*
X0123Y00489*
X0123Y0049*
X0123Y00491*
X01229Y00491*
X01229Y00492*
X01228Y00493*
X01227Y00493*
X01227Y00494*
X01226Y00494*
X01225Y00495*
X01225Y00495*
X01224Y00495*
X01223Y00496*
X01222Y00496*
X01222Y00496*
X01221Y00496*
X0122Y00496*
X01219*
X01218Y00496*
X01217Y00496*
X01217Y00496*
X01216Y00496*
X01215Y00495*
X01214Y00495*
X01214Y00495*
X01213Y00494*
X01212Y00494*
X01212Y00493*
X01211Y00493*
X0121Y00492*
X0121Y00491*
X01209Y00491*
X01209Y0049*
X01209Y00489*
X01208Y00489*
X01208Y00488*
X01208Y00487*
X01208Y00486*
X01208Y00485*
X01208Y00485*
X01208Y00484*
X01208Y00483*
X01208Y00482*
X01208Y00481*
X01208Y0048*
X01209Y0048*
X01209Y00479*
X01209Y00478*
X0121Y00478*
X0121Y00477*
X01211Y00476*
X01212Y00476*
X01212Y00475*
X01213Y00475*
X01214Y00474*
X01214Y00474*
X01215Y00474*
X01216Y00473*
X01217Y00473*
X01217Y00473*
X01218Y00473*
X01219Y00473*
X0122*
X01221Y00473*
X01222Y00473*
X01222Y00473*
X01223Y00473*
X01224Y00474*
X01225Y00474*
X01225Y00474*
X01226Y00475*
X01227Y00475*
X01227Y00476*
X01228Y00476*
X01229Y00477*
X01229Y00478*
X0123Y00478*
X0123Y00479*
X0123Y0048*
X01231Y0048*
X01231Y00481*
X01231Y00482*
X01231Y00483*
X01231Y00484*
X01231Y00485*
X01311Y00505D02*
D01*
X01311Y00505*
X01311Y00506*
X01311Y00507*
X01311Y00508*
X01311Y00509*
X0131Y00509*
X0131Y0051*
X0131Y00511*
X01309Y00511*
X01309Y00512*
X01308Y00513*
X01307Y00513*
X01307Y00514*
X01306Y00514*
X01305Y00515*
X01305Y00515*
X01304Y00515*
X01303Y00516*
X01302Y00516*
X01302Y00516*
X01301Y00516*
X013Y00516*
X01299*
X01298Y00516*
X01297Y00516*
X01297Y00516*
X01296Y00516*
X01295Y00515*
X01294Y00515*
X01294Y00515*
X01293Y00514*
X01292Y00514*
X01292Y00513*
X01291Y00513*
X0129Y00512*
X0129Y00511*
X01289Y00511*
X01289Y0051*
X01289Y00509*
X01288Y00509*
X01288Y00508*
X01288Y00507*
X01288Y00506*
X01288Y00505*
X01288Y00505*
X01288Y00504*
X01288Y00503*
X01288Y00502*
X01288Y00501*
X01288Y005*
X01289Y005*
X01289Y00499*
X01289Y00498*
X0129Y00498*
X0129Y00497*
X01291Y00496*
X01292Y00496*
X01292Y00495*
X01293Y00495*
X01294Y00494*
X01294Y00494*
X01295Y00494*
X01296Y00493*
X01297Y00493*
X01297Y00493*
X01298Y00493*
X01299Y00493*
X013*
X01301Y00493*
X01302Y00493*
X01302Y00493*
X01303Y00493*
X01304Y00494*
X01305Y00494*
X01305Y00494*
X01306Y00495*
X01307Y00495*
X01307Y00496*
X01308Y00496*
X01309Y00497*
X01309Y00498*
X0131Y00498*
X0131Y00499*
X0131Y005*
X01311Y005*
X01311Y00501*
X01311Y00502*
X01311Y00503*
X01311Y00504*
X01311Y00505*
X01146Y0076D02*
D01*
X01146Y0076*
X01146Y00761*
X01146Y00762*
X01146Y00763*
X01146Y00764*
X01145Y00764*
X01145Y00765*
X01145Y00766*
X01144Y00766*
X01144Y00767*
X01143Y00768*
X01142Y00768*
X01142Y00769*
X01141Y00769*
X0114Y0077*
X0114Y0077*
X01139Y0077*
X01138Y00771*
X01137Y00771*
X01137Y00771*
X01136Y00771*
X01135Y00771*
X01134*
X01133Y00771*
X01132Y00771*
X01132Y00771*
X01131Y00771*
X0113Y0077*
X01129Y0077*
X01129Y0077*
X01128Y00769*
X01127Y00769*
X01127Y00768*
X01126Y00768*
X01125Y00767*
X01125Y00766*
X01124Y00766*
X01124Y00765*
X01124Y00764*
X01123Y00764*
X01123Y00763*
X01123Y00762*
X01123Y00761*
X01123Y0076*
X01123Y0076*
X01123Y00759*
X01123Y00758*
X01123Y00757*
X01123Y00756*
X01123Y00755*
X01124Y00755*
X01124Y00754*
X01124Y00753*
X01125Y00753*
X01125Y00752*
X01126Y00751*
X01127Y00751*
X01127Y0075*
X01128Y0075*
X01129Y00749*
X01129Y00749*
X0113Y00749*
X01131Y00748*
X01132Y00748*
X01132Y00748*
X01133Y00748*
X01134Y00748*
X01135*
X01136Y00748*
X01137Y00748*
X01137Y00748*
X01138Y00748*
X01139Y00749*
X0114Y00749*
X0114Y00749*
X01141Y0075*
X01142Y0075*
X01142Y00751*
X01143Y00751*
X01144Y00752*
X01144Y00753*
X01145Y00753*
X01145Y00754*
X01145Y00755*
X01146Y00755*
X01146Y00756*
X01146Y00757*
X01146Y00758*
X01146Y00759*
X01146Y0076*
Y0071D02*
D01*
X01146Y0071*
X01146Y00711*
X01146Y00712*
X01146Y00713*
X01146Y00714*
X01145Y00714*
X01145Y00715*
X01145Y00716*
X01144Y00716*
X01144Y00717*
X01143Y00718*
X01142Y00718*
X01142Y00719*
X01141Y00719*
X0114Y0072*
X0114Y0072*
X01139Y0072*
X01138Y00721*
X01137Y00721*
X01137Y00721*
X01136Y00721*
X01135Y00721*
X01134*
X01133Y00721*
X01132Y00721*
X01132Y00721*
X01131Y00721*
X0113Y0072*
X01129Y0072*
X01129Y0072*
X01128Y00719*
X01127Y00719*
X01127Y00718*
X01126Y00718*
X01125Y00717*
X01125Y00716*
X01124Y00716*
X01124Y00715*
X01124Y00714*
X01123Y00714*
X01123Y00713*
X01123Y00712*
X01123Y00711*
X01123Y0071*
X01123Y0071*
X01123Y00709*
X01123Y00708*
X01123Y00707*
X01123Y00706*
X01123Y00705*
X01124Y00705*
X01124Y00704*
X01124Y00703*
X01125Y00703*
X01125Y00702*
X01126Y00701*
X01127Y00701*
X01127Y007*
X01128Y007*
X01129Y00699*
X01129Y00699*
X0113Y00699*
X01131Y00698*
X01132Y00698*
X01132Y00698*
X01133Y00698*
X01134Y00698*
X01135*
X01136Y00698*
X01137Y00698*
X01137Y00698*
X01138Y00698*
X01139Y00699*
X0114Y00699*
X0114Y00699*
X01141Y007*
X01142Y007*
X01142Y00701*
X01143Y00701*
X01144Y00702*
X01144Y00703*
X01145Y00703*
X01145Y00704*
X01145Y00705*
X01146Y00705*
X01146Y00706*
X01146Y00707*
X01146Y00708*
X01146Y00709*
X01146Y0071*
X01856Y00893D02*
D01*
X01856Y00893*
X01856Y00894*
X01856Y00895*
X01856Y00896*
X01855Y00897*
X01855Y00897*
X01855Y00898*
X01854Y00899*
X01854Y009*
X01853Y009*
X01853Y00901*
X01852Y00901*
X01852Y00902*
X01851Y00902*
X0185Y00903*
X01849Y00903*
X01849Y00904*
X01848Y00904*
X01847Y00904*
X01846Y00904*
X01846Y00904*
X01845Y00904*
X01844*
X01843Y00904*
X01842Y00904*
X01841Y00904*
X01841Y00904*
X0184Y00904*
X01839Y00903*
X01838Y00903*
X01838Y00902*
X01837Y00902*
X01836Y00901*
X01836Y00901*
X01835Y009*
X01835Y009*
X01834Y00899*
X01834Y00898*
X01834Y00897*
X01833Y00897*
X01833Y00896*
X01833Y00895*
X01833Y00894*
X01833Y00893*
X01832Y00893*
X01833Y00892*
X01833Y00891*
X01833Y0089*
X01833Y00889*
X01833Y00889*
X01834Y00888*
X01834Y00887*
X01834Y00886*
X01835Y00886*
X01835Y00885*
X01836Y00884*
X01836Y00884*
X01837Y00883*
X01838Y00883*
X01838Y00882*
X01839Y00882*
X0184Y00882*
X01841Y00881*
X01841Y00881*
X01842Y00881*
X01843Y00881*
X01844Y00881*
X01845*
X01846Y00881*
X01846Y00881*
X01847Y00881*
X01848Y00881*
X01849Y00882*
X01849Y00882*
X0185Y00882*
X01851Y00883*
X01852Y00883*
X01852Y00884*
X01853Y00884*
X01853Y00885*
X01854Y00886*
X01854Y00886*
X01855Y00887*
X01855Y00888*
X01855Y00889*
X01856Y00889*
X01856Y0089*
X01856Y00891*
X01856Y00892*
X01856Y00893*
X01581Y00865D02*
D01*
X01581Y00865*
X01581Y00866*
X01581Y00867*
X01581Y00868*
X01581Y00869*
X0158Y00869*
X0158Y0087*
X0158Y00871*
X01579Y00871*
X01579Y00872*
X01578Y00873*
X01577Y00873*
X01577Y00874*
X01576Y00874*
X01575Y00875*
X01575Y00875*
X01574Y00875*
X01573Y00876*
X01572Y00876*
X01572Y00876*
X01571Y00876*
X0157Y00876*
X01569*
X01568Y00876*
X01567Y00876*
X01567Y00876*
X01566Y00876*
X01565Y00875*
X01564Y00875*
X01564Y00875*
X01563Y00874*
X01562Y00874*
X01562Y00873*
X01561Y00873*
X0156Y00872*
X0156Y00871*
X01559Y00871*
X01559Y0087*
X01559Y00869*
X01558Y00869*
X01558Y00868*
X01558Y00867*
X01558Y00866*
X01558Y00865*
X01558Y00865*
X01558Y00864*
X01558Y00863*
X01558Y00862*
X01558Y00861*
X01558Y0086*
X01559Y0086*
X01559Y00859*
X01559Y00858*
X0156Y00858*
X0156Y00857*
X01561Y00856*
X01562Y00856*
X01562Y00855*
X01563Y00855*
X01564Y00854*
X01564Y00854*
X01565Y00854*
X01566Y00853*
X01567Y00853*
X01567Y00853*
X01568Y00853*
X01569Y00853*
X0157*
X01571Y00853*
X01572Y00853*
X01572Y00853*
X01573Y00853*
X01574Y00854*
X01575Y00854*
X01575Y00854*
X01576Y00855*
X01577Y00855*
X01577Y00856*
X01578Y00856*
X01579Y00857*
X01579Y00858*
X0158Y00858*
X0158Y00859*
X0158Y0086*
X01581Y0086*
X01581Y00861*
X01581Y00862*
X01581Y00863*
X01581Y00864*
X01581Y00865*
X02406Y0067D02*
D01*
X02406Y0067*
X02406Y00671*
X02406Y00672*
X02406Y00673*
X02406Y00674*
X02405Y00674*
X02405Y00675*
X02405Y00676*
X02404Y00676*
X02404Y00677*
X02403Y00678*
X02402Y00678*
X02402Y00679*
X02401Y00679*
X024Y0068*
X024Y0068*
X02399Y0068*
X02398Y00681*
X02397Y00681*
X02397Y00681*
X02396Y00681*
X02395Y00681*
X02394*
X02393Y00681*
X02392Y00681*
X02392Y00681*
X02391Y00681*
X0239Y0068*
X02389Y0068*
X02389Y0068*
X02388Y00679*
X02387Y00679*
X02387Y00678*
X02386Y00678*
X02385Y00677*
X02385Y00676*
X02384Y00676*
X02384Y00675*
X02384Y00674*
X02383Y00674*
X02383Y00673*
X02383Y00672*
X02383Y00671*
X02383Y0067*
X02383Y0067*
X02383Y00669*
X02383Y00668*
X02383Y00667*
X02383Y00666*
X02383Y00665*
X02384Y00665*
X02384Y00664*
X02384Y00663*
X02385Y00663*
X02385Y00662*
X02386Y00661*
X02387Y00661*
X02387Y0066*
X02388Y0066*
X02389Y00659*
X02389Y00659*
X0239Y00659*
X02391Y00658*
X02392Y00658*
X02392Y00658*
X02393Y00658*
X02394Y00658*
X02395*
X02396Y00658*
X02397Y00658*
X02397Y00658*
X02398Y00658*
X02399Y00659*
X024Y00659*
X024Y00659*
X02401Y0066*
X02402Y0066*
X02402Y00661*
X02403Y00661*
X02404Y00662*
X02404Y00663*
X02405Y00663*
X02405Y00664*
X02405Y00665*
X02406Y00665*
X02406Y00666*
X02406Y00667*
X02406Y00668*
X02406Y00669*
X02406Y0067*
X01866Y0079D02*
D01*
X01866Y0079*
X01866Y00791*
X01866Y00792*
X01866Y00793*
X01866Y00794*
X01865Y00794*
X01865Y00795*
X01865Y00796*
X01864Y00796*
X01864Y00797*
X01863Y00798*
X01862Y00798*
X01862Y00799*
X01861Y00799*
X0186Y008*
X0186Y008*
X01859Y008*
X01858Y00801*
X01857Y00801*
X01857Y00801*
X01856Y00801*
X01855Y00801*
X01854*
X01853Y00801*
X01852Y00801*
X01852Y00801*
X01851Y00801*
X0185Y008*
X01849Y008*
X01849Y008*
X01848Y00799*
X01847Y00799*
X01847Y00798*
X01846Y00798*
X01845Y00797*
X01845Y00796*
X01844Y00796*
X01844Y00795*
X01844Y00794*
X01843Y00794*
X01843Y00793*
X01843Y00792*
X01843Y00791*
X01843Y0079*
X01843Y0079*
X01843Y00789*
X01843Y00788*
X01843Y00787*
X01843Y00786*
X01843Y00785*
X01844Y00785*
X01844Y00784*
X01844Y00783*
X01845Y00783*
X01845Y00782*
X01846Y00781*
X01847Y00781*
X01847Y0078*
X01848Y0078*
X01849Y00779*
X01849Y00779*
X0185Y00779*
X01851Y00778*
X01852Y00778*
X01852Y00778*
X01853Y00778*
X01854Y00778*
X01855*
X01856Y00778*
X01857Y00778*
X01857Y00778*
X01858Y00778*
X01859Y00779*
X0186Y00779*
X0186Y00779*
X01861Y0078*
X01862Y0078*
X01862Y00781*
X01863Y00781*
X01864Y00782*
X01864Y00783*
X01865Y00783*
X01865Y00784*
X01865Y00785*
X01866Y00785*
X01866Y00786*
X01866Y00787*
X01866Y00788*
X01866Y00789*
X01866Y0079*
X01891Y00975D02*
D01*
X01891Y00975*
X01891Y00976*
X01891Y00977*
X01891Y00978*
X01891Y00979*
X0189Y00979*
X0189Y0098*
X0189Y00981*
X01889Y00981*
X01889Y00982*
X01888Y00983*
X01887Y00983*
X01887Y00984*
X01886Y00984*
X01885Y00985*
X01885Y00985*
X01884Y00985*
X01883Y00986*
X01882Y00986*
X01882Y00986*
X01881Y00986*
X0188Y00986*
X01879*
X01878Y00986*
X01877Y00986*
X01877Y00986*
X01876Y00986*
X01875Y00985*
X01874Y00985*
X01874Y00985*
X01873Y00984*
X01872Y00984*
X01872Y00983*
X01871Y00983*
X0187Y00982*
X0187Y00981*
X01869Y00981*
X01869Y0098*
X01869Y00979*
X01868Y00979*
X01868Y00978*
X01868Y00977*
X01868Y00976*
X01868Y00975*
X01868Y00975*
X01868Y00974*
X01868Y00973*
X01868Y00972*
X01868Y00971*
X01868Y0097*
X01869Y0097*
X01869Y00969*
X01869Y00968*
X0187Y00968*
X0187Y00967*
X01871Y00966*
X01872Y00966*
X01872Y00965*
X01873Y00965*
X01874Y00964*
X01874Y00964*
X01875Y00964*
X01876Y00963*
X01877Y00963*
X01877Y00963*
X01878Y00963*
X01879Y00963*
X0188*
X01881Y00963*
X01882Y00963*
X01882Y00963*
X01883Y00963*
X01884Y00964*
X01885Y00964*
X01885Y00964*
X01886Y00965*
X01887Y00965*
X01887Y00966*
X01888Y00966*
X01889Y00967*
X01889Y00968*
X0189Y00968*
X0189Y00969*
X0189Y0097*
X01891Y0097*
X01891Y00971*
X01891Y00972*
X01891Y00973*
X01891Y00974*
X01891Y00975*
X01966Y0025D02*
D01*
X01966Y0025*
X01966Y00251*
X01966Y00252*
X01966Y00253*
X01966Y00254*
X01965Y00254*
X01965Y00255*
X01965Y00256*
X01964Y00256*
X01964Y00257*
X01963Y00258*
X01962Y00258*
X01962Y00259*
X01961Y00259*
X0196Y0026*
X0196Y0026*
X01959Y0026*
X01958Y00261*
X01957Y00261*
X01957Y00261*
X01956Y00261*
X01955Y00261*
X01954*
X01953Y00261*
X01952Y00261*
X01952Y00261*
X01951Y00261*
X0195Y0026*
X01949Y0026*
X01949Y0026*
X01948Y00259*
X01947Y00259*
X01947Y00258*
X01946Y00258*
X01945Y00257*
X01945Y00256*
X01944Y00256*
X01944Y00255*
X01944Y00254*
X01943Y00254*
X01943Y00253*
X01943Y00252*
X01943Y00251*
X01943Y0025*
X01943Y0025*
X01943Y00249*
X01943Y00248*
X01943Y00247*
X01943Y00246*
X01943Y00245*
X01944Y00245*
X01944Y00244*
X01944Y00243*
X01945Y00243*
X01945Y00242*
X01946Y00241*
X01947Y00241*
X01947Y0024*
X01948Y0024*
X01949Y00239*
X01949Y00239*
X0195Y00239*
X01951Y00238*
X01952Y00238*
X01952Y00238*
X01953Y00238*
X01954Y00238*
X01955*
X01956Y00238*
X01957Y00238*
X01957Y00238*
X01958Y00238*
X01959Y00239*
X0196Y00239*
X0196Y00239*
X01961Y0024*
X01962Y0024*
X01962Y00241*
X01963Y00241*
X01964Y00242*
X01964Y00243*
X01965Y00243*
X01965Y00244*
X01965Y00245*
X01966Y00245*
X01966Y00246*
X01966Y00247*
X01966Y00248*
X01966Y00249*
X01966Y0025*
Y002D02*
D01*
X01966Y002*
X01966Y00201*
X01966Y00202*
X01966Y00203*
X01966Y00204*
X01965Y00204*
X01965Y00205*
X01965Y00206*
X01964Y00206*
X01964Y00207*
X01963Y00208*
X01962Y00208*
X01962Y00209*
X01961Y00209*
X0196Y0021*
X0196Y0021*
X01959Y0021*
X01958Y00211*
X01957Y00211*
X01957Y00211*
X01956Y00211*
X01955Y00211*
X01954*
X01953Y00211*
X01952Y00211*
X01952Y00211*
X01951Y00211*
X0195Y0021*
X01949Y0021*
X01949Y0021*
X01948Y00209*
X01947Y00209*
X01947Y00208*
X01946Y00208*
X01945Y00207*
X01945Y00206*
X01944Y00206*
X01944Y00205*
X01944Y00204*
X01943Y00204*
X01943Y00203*
X01943Y00202*
X01943Y00201*
X01943Y002*
X01943Y002*
X01943Y00199*
X01943Y00198*
X01943Y00197*
X01943Y00196*
X01943Y00195*
X01944Y00195*
X01944Y00194*
X01944Y00193*
X01945Y00193*
X01945Y00192*
X01946Y00191*
X01947Y00191*
X01947Y0019*
X01948Y0019*
X01949Y00189*
X01949Y00189*
X0195Y00189*
X01951Y00188*
X01952Y00188*
X01952Y00188*
X01953Y00188*
X01954Y00188*
X01955*
X01956Y00188*
X01957Y00188*
X01957Y00188*
X01958Y00188*
X01959Y00189*
X0196Y00189*
X0196Y00189*
X01961Y0019*
X01962Y0019*
X01962Y00191*
X01963Y00191*
X01964Y00192*
X01964Y00193*
X01965Y00193*
X01965Y00194*
X01965Y00195*
X01966Y00195*
X01966Y00196*
X01966Y00197*
X01966Y00198*
X01966Y00199*
X01966Y002*
X02486Y0072D02*
D01*
X02486Y0072*
X02486Y00721*
X02486Y00722*
X02486Y00723*
X02486Y00724*
X02485Y00724*
X02485Y00725*
X02485Y00726*
X02484Y00726*
X02484Y00727*
X02483Y00728*
X02482Y00728*
X02482Y00729*
X02481Y00729*
X0248Y0073*
X0248Y0073*
X02479Y0073*
X02478Y00731*
X02477Y00731*
X02477Y00731*
X02476Y00731*
X02475Y00731*
X02474*
X02473Y00731*
X02472Y00731*
X02472Y00731*
X02471Y00731*
X0247Y0073*
X02469Y0073*
X02469Y0073*
X02468Y00729*
X02467Y00729*
X02467Y00728*
X02466Y00728*
X02465Y00727*
X02465Y00726*
X02464Y00726*
X02464Y00725*
X02464Y00724*
X02463Y00724*
X02463Y00723*
X02463Y00722*
X02463Y00721*
X02463Y0072*
X02463Y0072*
X02463Y00719*
X02463Y00718*
X02463Y00717*
X02463Y00716*
X02463Y00715*
X02464Y00715*
X02464Y00714*
X02464Y00713*
X02465Y00713*
X02465Y00712*
X02466Y00711*
X02467Y00711*
X02467Y0071*
X02468Y0071*
X02469Y00709*
X02469Y00709*
X0247Y00709*
X02471Y00708*
X02472Y00708*
X02472Y00708*
X02473Y00708*
X02474Y00708*
X02475*
X02476Y00708*
X02477Y00708*
X02477Y00708*
X02478Y00708*
X02479Y00709*
X0248Y00709*
X0248Y00709*
X02481Y0071*
X02482Y0071*
X02482Y00711*
X02483Y00711*
X02484Y00712*
X02484Y00713*
X02485Y00713*
X02485Y00714*
X02485Y00715*
X02486Y00715*
X02486Y00716*
X02486Y00717*
X02486Y00718*
X02486Y00719*
X02486Y0072*
X01611Y00335D02*
D01*
X01611Y00335*
X01611Y00336*
X01611Y00337*
X01611Y00338*
X01611Y00339*
X0161Y00339*
X0161Y0034*
X0161Y00341*
X01609Y00341*
X01609Y00342*
X01608Y00343*
X01607Y00343*
X01607Y00344*
X01606Y00344*
X01605Y00345*
X01605Y00345*
X01604Y00345*
X01603Y00346*
X01602Y00346*
X01602Y00346*
X01601Y00346*
X016Y00346*
X01599*
X01598Y00346*
X01597Y00346*
X01597Y00346*
X01596Y00346*
X01595Y00345*
X01594Y00345*
X01594Y00345*
X01593Y00344*
X01592Y00344*
X01592Y00343*
X01591Y00343*
X0159Y00342*
X0159Y00341*
X01589Y00341*
X01589Y0034*
X01589Y00339*
X01588Y00339*
X01588Y00338*
X01588Y00337*
X01588Y00336*
X01588Y00335*
X01588Y00335*
X01588Y00334*
X01588Y00333*
X01588Y00332*
X01588Y00331*
X01588Y0033*
X01589Y0033*
X01589Y00329*
X01589Y00328*
X0159Y00328*
X0159Y00327*
X01591Y00326*
X01592Y00326*
X01592Y00325*
X01593Y00325*
X01594Y00324*
X01594Y00324*
X01595Y00324*
X01596Y00323*
X01597Y00323*
X01597Y00323*
X01598Y00323*
X01599Y00323*
X016*
X01601Y00323*
X01602Y00323*
X01602Y00323*
X01603Y00323*
X01604Y00324*
X01605Y00324*
X01605Y00324*
X01606Y00325*
X01607Y00325*
X01607Y00326*
X01608Y00326*
X01609Y00327*
X01609Y00328*
X0161Y00328*
X0161Y00329*
X0161Y0033*
X01611Y0033*
X01611Y00331*
X01611Y00332*
X01611Y00333*
X01611Y00334*
X01611Y00335*
X02056Y00975D02*
D01*
X02056Y00975*
X02056Y00976*
X02056Y00977*
X02056Y00978*
X02056Y00979*
X02055Y00979*
X02055Y0098*
X02055Y00981*
X02054Y00981*
X02054Y00982*
X02053Y00983*
X02052Y00983*
X02052Y00984*
X02051Y00984*
X0205Y00985*
X0205Y00985*
X02049Y00985*
X02048Y00986*
X02047Y00986*
X02047Y00986*
X02046Y00986*
X02045Y00986*
X02044*
X02043Y00986*
X02042Y00986*
X02042Y00986*
X02041Y00986*
X0204Y00985*
X02039Y00985*
X02039Y00985*
X02038Y00984*
X02037Y00984*
X02037Y00983*
X02036Y00983*
X02035Y00982*
X02035Y00981*
X02034Y00981*
X02034Y0098*
X02034Y00979*
X02033Y00979*
X02033Y00978*
X02033Y00977*
X02033Y00976*
X02033Y00975*
X02033Y00975*
X02033Y00974*
X02033Y00973*
X02033Y00972*
X02033Y00971*
X02033Y0097*
X02034Y0097*
X02034Y00969*
X02034Y00968*
X02035Y00968*
X02035Y00967*
X02036Y00966*
X02037Y00966*
X02037Y00965*
X02038Y00965*
X02039Y00964*
X02039Y00964*
X0204Y00964*
X02041Y00963*
X02042Y00963*
X02042Y00963*
X02043Y00963*
X02044Y00963*
X02045*
X02046Y00963*
X02047Y00963*
X02047Y00963*
X02048Y00963*
X02049Y00964*
X0205Y00964*
X0205Y00964*
X02051Y00965*
X02052Y00965*
X02052Y00966*
X02053Y00966*
X02054Y00967*
X02054Y00968*
X02055Y00968*
X02055Y00969*
X02055Y0097*
X02056Y0097*
X02056Y00971*
X02056Y00972*
X02056Y00973*
X02056Y00974*
X02056Y00975*
X00966Y00965D02*
D01*
X00966Y00965*
X00966Y00966*
X00966Y00967*
X00966Y00968*
X00966Y00969*
X00965Y00969*
X00965Y0097*
X00965Y00971*
X00964Y00971*
X00964Y00972*
X00963Y00973*
X00962Y00973*
X00962Y00974*
X00961Y00974*
X0096Y00975*
X0096Y00975*
X00959Y00975*
X00958Y00976*
X00957Y00976*
X00957Y00976*
X00956Y00976*
X00955Y00976*
X00954*
X00953Y00976*
X00952Y00976*
X00952Y00976*
X00951Y00976*
X0095Y00975*
X00949Y00975*
X00949Y00975*
X00948Y00974*
X00947Y00974*
X00947Y00973*
X00946Y00973*
X00945Y00972*
X00945Y00971*
X00944Y00971*
X00944Y0097*
X00944Y00969*
X00943Y00969*
X00943Y00968*
X00943Y00967*
X00943Y00966*
X00943Y00965*
X00943Y00965*
X00943Y00964*
X00943Y00963*
X00943Y00962*
X00943Y00961*
X00943Y0096*
X00944Y0096*
X00944Y00959*
X00944Y00958*
X00945Y00958*
X00945Y00957*
X00946Y00956*
X00947Y00956*
X00947Y00955*
X00948Y00955*
X00949Y00954*
X00949Y00954*
X0095Y00954*
X00951Y00953*
X00952Y00953*
X00952Y00953*
X00953Y00953*
X00954Y00953*
X00955*
X00956Y00953*
X00957Y00953*
X00957Y00953*
X00958Y00953*
X00959Y00954*
X0096Y00954*
X0096Y00954*
X00961Y00955*
X00962Y00955*
X00962Y00956*
X00963Y00956*
X00964Y00957*
X00964Y00958*
X00965Y00958*
X00965Y00959*
X00965Y0096*
X00966Y0096*
X00966Y00961*
X00966Y00962*
X00966Y00963*
X00966Y00964*
X00966Y00965*
X02126Y0029D02*
D01*
X02126Y0029*
X02126Y00291*
X02126Y00292*
X02126Y00293*
X02126Y00294*
X02125Y00294*
X02125Y00295*
X02125Y00296*
X02124Y00296*
X02124Y00297*
X02123Y00298*
X02122Y00298*
X02122Y00299*
X02121Y00299*
X0212Y003*
X0212Y003*
X02119Y003*
X02118Y00301*
X02117Y00301*
X02117Y00301*
X02116Y00301*
X02115Y00301*
X02114*
X02113Y00301*
X02112Y00301*
X02112Y00301*
X02111Y00301*
X0211Y003*
X02109Y003*
X02109Y003*
X02108Y00299*
X02107Y00299*
X02107Y00298*
X02106Y00298*
X02105Y00297*
X02105Y00296*
X02104Y00296*
X02104Y00295*
X02104Y00294*
X02103Y00294*
X02103Y00293*
X02103Y00292*
X02103Y00291*
X02103Y0029*
X02103Y0029*
X02103Y00289*
X02103Y00288*
X02103Y00287*
X02103Y00286*
X02103Y00285*
X02104Y00285*
X02104Y00284*
X02104Y00283*
X02105Y00283*
X02105Y00282*
X02106Y00281*
X02107Y00281*
X02107Y0028*
X02108Y0028*
X02109Y00279*
X02109Y00279*
X0211Y00279*
X02111Y00278*
X02112Y00278*
X02112Y00278*
X02113Y00278*
X02114Y00278*
X02115*
X02116Y00278*
X02117Y00278*
X02117Y00278*
X02118Y00278*
X02119Y00279*
X0212Y00279*
X0212Y00279*
X02121Y0028*
X02122Y0028*
X02122Y00281*
X02123Y00281*
X02124Y00282*
X02124Y00283*
X02125Y00283*
X02125Y00284*
X02125Y00285*
X02126Y00285*
X02126Y00286*
X02126Y00287*
X02126Y00288*
X02126Y00289*
X02126Y0029*
X02176Y0026D02*
D01*
X02176Y0026*
X02176Y00261*
X02176Y00262*
X02176Y00263*
X02176Y00264*
X02175Y00264*
X02175Y00265*
X02175Y00266*
X02174Y00266*
X02174Y00267*
X02173Y00268*
X02172Y00268*
X02172Y00269*
X02171Y00269*
X0217Y0027*
X0217Y0027*
X02169Y0027*
X02168Y00271*
X02167Y00271*
X02167Y00271*
X02166Y00271*
X02165Y00271*
X02164*
X02163Y00271*
X02162Y00271*
X02162Y00271*
X02161Y00271*
X0216Y0027*
X02159Y0027*
X02159Y0027*
X02158Y00269*
X02157Y00269*
X02157Y00268*
X02156Y00268*
X02155Y00267*
X02155Y00266*
X02154Y00266*
X02154Y00265*
X02154Y00264*
X02153Y00264*
X02153Y00263*
X02153Y00262*
X02153Y00261*
X02153Y0026*
X02153Y0026*
X02153Y00259*
X02153Y00258*
X02153Y00257*
X02153Y00256*
X02153Y00255*
X02154Y00255*
X02154Y00254*
X02154Y00253*
X02155Y00253*
X02155Y00252*
X02156Y00251*
X02157Y00251*
X02157Y0025*
X02158Y0025*
X02159Y00249*
X02159Y00249*
X0216Y00249*
X02161Y00248*
X02162Y00248*
X02162Y00248*
X02163Y00248*
X02164Y00248*
X02165*
X02166Y00248*
X02167Y00248*
X02167Y00248*
X02168Y00248*
X02169Y00249*
X0217Y00249*
X0217Y00249*
X02171Y0025*
X02172Y0025*
X02172Y00251*
X02173Y00251*
X02174Y00252*
X02174Y00253*
X02175Y00253*
X02175Y00254*
X02175Y00255*
X02176Y00255*
X02176Y00256*
X02176Y00257*
X02176Y00258*
X02176Y00259*
X02176Y0026*
X02296Y0027D02*
D01*
X02296Y0027*
X02296Y00271*
X02296Y00272*
X02296Y00273*
X02296Y00274*
X02295Y00274*
X02295Y00275*
X02295Y00276*
X02294Y00276*
X02294Y00277*
X02293Y00278*
X02292Y00278*
X02292Y00279*
X02291Y00279*
X0229Y0028*
X0229Y0028*
X02289Y0028*
X02288Y00281*
X02287Y00281*
X02287Y00281*
X02286Y00281*
X02285Y00281*
X02284*
X02283Y00281*
X02282Y00281*
X02282Y00281*
X02281Y00281*
X0228Y0028*
X02279Y0028*
X02279Y0028*
X02278Y00279*
X02277Y00279*
X02277Y00278*
X02276Y00278*
X02275Y00277*
X02275Y00276*
X02274Y00276*
X02274Y00275*
X02274Y00274*
X02273Y00274*
X02273Y00273*
X02273Y00272*
X02273Y00271*
X02273Y0027*
X02273Y0027*
X02273Y00269*
X02273Y00268*
X02273Y00267*
X02273Y00266*
X02273Y00265*
X02274Y00265*
X02274Y00264*
X02274Y00263*
X02275Y00263*
X02275Y00262*
X02276Y00261*
X02277Y00261*
X02277Y0026*
X02278Y0026*
X02279Y00259*
X02279Y00259*
X0228Y00259*
X02281Y00258*
X02282Y00258*
X02282Y00258*
X02283Y00258*
X02284Y00258*
X02285*
X02286Y00258*
X02287Y00258*
X02287Y00258*
X02288Y00258*
X02289Y00259*
X0229Y00259*
X0229Y00259*
X02291Y0026*
X02292Y0026*
X02292Y00261*
X02293Y00261*
X02294Y00262*
X02294Y00263*
X02295Y00263*
X02295Y00264*
X02295Y00265*
X02296Y00265*
X02296Y00266*
X02296Y00267*
X02296Y00268*
X02296Y00269*
X02296Y0027*
X02691Y00275D02*
D01*
X02691Y00275*
X02691Y00276*
X02691Y00277*
X02691Y00278*
X02691Y00279*
X0269Y00279*
X0269Y0028*
X0269Y00281*
X02689Y00281*
X02689Y00282*
X02688Y00283*
X02687Y00283*
X02687Y00284*
X02686Y00284*
X02685Y00285*
X02685Y00285*
X02684Y00285*
X02683Y00286*
X02682Y00286*
X02682Y00286*
X02681Y00286*
X0268Y00286*
X02679*
X02678Y00286*
X02677Y00286*
X02677Y00286*
X02676Y00286*
X02675Y00285*
X02674Y00285*
X02674Y00285*
X02673Y00284*
X02672Y00284*
X02672Y00283*
X02671Y00283*
X0267Y00282*
X0267Y00281*
X02669Y00281*
X02669Y0028*
X02669Y00279*
X02668Y00279*
X02668Y00278*
X02668Y00277*
X02668Y00276*
X02668Y00275*
X02668Y00275*
X02668Y00274*
X02668Y00273*
X02668Y00272*
X02668Y00271*
X02668Y0027*
X02669Y0027*
X02669Y00269*
X02669Y00268*
X0267Y00268*
X0267Y00267*
X02671Y00266*
X02672Y00266*
X02672Y00265*
X02673Y00265*
X02674Y00264*
X02674Y00264*
X02675Y00264*
X02676Y00263*
X02677Y00263*
X02677Y00263*
X02678Y00263*
X02679Y00263*
X0268*
X02681Y00263*
X02682Y00263*
X02682Y00263*
X02683Y00263*
X02684Y00264*
X02685Y00264*
X02685Y00264*
X02686Y00265*
X02687Y00265*
X02687Y00266*
X02688Y00266*
X02689Y00267*
X02689Y00268*
X0269Y00268*
X0269Y00269*
X0269Y0027*
X02691Y0027*
X02691Y00271*
X02691Y00272*
X02691Y00273*
X02691Y00274*
X02691Y00275*
X02521Y00485D02*
D01*
X02521Y00485*
X02521Y00486*
X02521Y00487*
X02521Y00488*
X02521Y00489*
X0252Y00489*
X0252Y0049*
X0252Y00491*
X02519Y00491*
X02519Y00492*
X02518Y00493*
X02517Y00493*
X02517Y00494*
X02516Y00494*
X02515Y00495*
X02515Y00495*
X02514Y00495*
X02513Y00496*
X02512Y00496*
X02512Y00496*
X02511Y00496*
X0251Y00496*
X02509*
X02508Y00496*
X02507Y00496*
X02507Y00496*
X02506Y00496*
X02505Y00495*
X02504Y00495*
X02504Y00495*
X02503Y00494*
X02502Y00494*
X02502Y00493*
X02501Y00493*
X025Y00492*
X025Y00491*
X02499Y00491*
X02499Y0049*
X02499Y00489*
X02498Y00489*
X02498Y00488*
X02498Y00487*
X02498Y00486*
X02498Y00485*
X02498Y00485*
X02498Y00484*
X02498Y00483*
X02498Y00482*
X02498Y00481*
X02498Y0048*
X02499Y0048*
X02499Y00479*
X02499Y00478*
X025Y00478*
X025Y00477*
X02501Y00476*
X02502Y00476*
X02502Y00475*
X02503Y00475*
X02504Y00474*
X02504Y00474*
X02505Y00474*
X02506Y00473*
X02507Y00473*
X02507Y00473*
X02508Y00473*
X02509Y00473*
X0251*
X02511Y00473*
X02512Y00473*
X02512Y00473*
X02513Y00473*
X02514Y00474*
X02515Y00474*
X02515Y00474*
X02516Y00475*
X02517Y00475*
X02517Y00476*
X02518Y00476*
X02519Y00477*
X02519Y00478*
X0252Y00478*
X0252Y00479*
X0252Y0048*
X02521Y0048*
X02521Y00481*
X02521Y00482*
X02521Y00483*
X02521Y00484*
X02521Y00485*
X02531Y0061D02*
D01*
X02531Y0061*
X02531Y00611*
X02531Y00612*
X02531Y00613*
X02531Y00614*
X0253Y00614*
X0253Y00615*
X0253Y00616*
X02529Y00616*
X02529Y00617*
X02528Y00618*
X02527Y00618*
X02527Y00619*
X02526Y00619*
X02525Y0062*
X02525Y0062*
X02524Y0062*
X02523Y00621*
X02522Y00621*
X02522Y00621*
X02521Y00621*
X0252Y00621*
X02519*
X02518Y00621*
X02517Y00621*
X02517Y00621*
X02516Y00621*
X02515Y0062*
X02514Y0062*
X02514Y0062*
X02513Y00619*
X02512Y00619*
X02512Y00618*
X02511Y00618*
X0251Y00617*
X0251Y00616*
X02509Y00616*
X02509Y00615*
X02509Y00614*
X02508Y00614*
X02508Y00613*
X02508Y00612*
X02508Y00611*
X02508Y0061*
X02508Y0061*
X02508Y00609*
X02508Y00608*
X02508Y00607*
X02508Y00606*
X02508Y00605*
X02509Y00605*
X02509Y00604*
X02509Y00603*
X0251Y00603*
X0251Y00602*
X02511Y00601*
X02512Y00601*
X02512Y006*
X02513Y006*
X02514Y00599*
X02514Y00599*
X02515Y00599*
X02516Y00598*
X02517Y00598*
X02517Y00598*
X02518Y00598*
X02519Y00598*
X0252*
X02521Y00598*
X02522Y00598*
X02522Y00598*
X02523Y00598*
X02524Y00599*
X02525Y00599*
X02525Y00599*
X02526Y006*
X02527Y006*
X02527Y00601*
X02528Y00601*
X02529Y00602*
X02529Y00603*
X0253Y00603*
X0253Y00604*
X0253Y00605*
X02531Y00605*
X02531Y00606*
X02531Y00607*
X02531Y00608*
X02531Y00609*
X02531Y0061*
X01909Y00105D02*
D01*
X01909Y00105*
X01909Y00106*
X01908Y00107*
X01908Y00108*
X01908Y00109*
X01908Y00109*
X01907Y0011*
X01907Y00111*
X01906Y00111*
X01906Y00112*
X01905Y00113*
X01905Y00113*
X01904Y00114*
X01903Y00114*
X01903Y00115*
X01902Y00115*
X01901Y00115*
X01901Y00116*
X019Y00116*
X01899Y00116*
X01898Y00116*
X01897Y00116*
X01896*
X01896Y00116*
X01895Y00116*
X01894Y00116*
X01893Y00116*
X01892Y00115*
X01892Y00115*
X01891Y00115*
X0189Y00114*
X0189Y00114*
X01889Y00113*
X01888Y00113*
X01888Y00112*
X01887Y00111*
X01887Y00111*
X01886Y0011*
X01886Y00109*
X01886Y00109*
X01886Y00108*
X01885Y00107*
X01885Y00106*
X01885Y00105*
X01885Y00105*
X01885Y00104*
X01885Y00103*
X01885Y00102*
X01886Y00101*
X01886Y001*
X01886Y001*
X01886Y00099*
X01887Y00098*
X01887Y00098*
X01888Y00097*
X01888Y00096*
X01889Y00096*
X0189Y00095*
X0189Y00095*
X01891Y00094*
X01892Y00094*
X01892Y00094*
X01893Y00093*
X01894Y00093*
X01895Y00093*
X01896Y00093*
X01896Y00093*
X01897*
X01898Y00093*
X01899Y00093*
X019Y00093*
X01901Y00093*
X01901Y00094*
X01902Y00094*
X01903Y00094*
X01903Y00095*
X01904Y00095*
X01905Y00096*
X01905Y00096*
X01906Y00097*
X01906Y00098*
X01907Y00098*
X01907Y00099*
X01908Y001*
X01908Y001*
X01908Y00101*
X01908Y00102*
X01909Y00103*
X01909Y00104*
X01909Y00105*
X01841Y00345D02*
D01*
X01841Y00345*
X01841Y00346*
X01841Y00347*
X01841Y00348*
X01841Y00349*
X0184Y00349*
X0184Y0035*
X0184Y00351*
X01839Y00351*
X01839Y00352*
X01838Y00353*
X01837Y00353*
X01837Y00354*
X01836Y00354*
X01835Y00355*
X01835Y00355*
X01834Y00355*
X01833Y00356*
X01832Y00356*
X01832Y00356*
X01831Y00356*
X0183Y00356*
X01829*
X01828Y00356*
X01827Y00356*
X01827Y00356*
X01826Y00356*
X01825Y00355*
X01824Y00355*
X01824Y00355*
X01823Y00354*
X01822Y00354*
X01822Y00353*
X01821Y00353*
X0182Y00352*
X0182Y00351*
X01819Y00351*
X01819Y0035*
X01819Y00349*
X01818Y00349*
X01818Y00348*
X01818Y00347*
X01818Y00346*
X01818Y00345*
X01818Y00345*
X01818Y00344*
X01818Y00343*
X01818Y00342*
X01818Y00341*
X01818Y0034*
X01819Y0034*
X01819Y00339*
X01819Y00338*
X0182Y00338*
X0182Y00337*
X01821Y00336*
X01822Y00336*
X01822Y00335*
X01823Y00335*
X01824Y00334*
X01824Y00334*
X01825Y00334*
X01826Y00333*
X01827Y00333*
X01827Y00333*
X01828Y00333*
X01829Y00333*
X0183*
X01831Y00333*
X01832Y00333*
X01832Y00333*
X01833Y00333*
X01834Y00334*
X01835Y00334*
X01835Y00334*
X01836Y00335*
X01837Y00335*
X01837Y00336*
X01838Y00336*
X01839Y00337*
X01839Y00338*
X0184Y00338*
X0184Y00339*
X0184Y0034*
X01841Y0034*
X01841Y00341*
X01841Y00342*
X01841Y00343*
X01841Y00344*
X01841Y00345*
X01661Y00315D02*
D01*
X01661Y00315*
X01661Y00316*
X01661Y00317*
X01661Y00318*
X01661Y00319*
X0166Y00319*
X0166Y0032*
X0166Y00321*
X01659Y00321*
X01659Y00322*
X01658Y00323*
X01657Y00323*
X01657Y00324*
X01656Y00324*
X01655Y00325*
X01655Y00325*
X01654Y00325*
X01653Y00326*
X01652Y00326*
X01652Y00326*
X01651Y00326*
X0165Y00326*
X01649*
X01648Y00326*
X01647Y00326*
X01647Y00326*
X01646Y00326*
X01645Y00325*
X01644Y00325*
X01644Y00325*
X01643Y00324*
X01642Y00324*
X01642Y00323*
X01641Y00323*
X0164Y00322*
X0164Y00321*
X01639Y00321*
X01639Y0032*
X01639Y00319*
X01638Y00319*
X01638Y00318*
X01638Y00317*
X01638Y00316*
X01638Y00315*
X01638Y00315*
X01638Y00314*
X01638Y00313*
X01638Y00312*
X01638Y00311*
X01638Y0031*
X01639Y0031*
X01639Y00309*
X01639Y00308*
X0164Y00308*
X0164Y00307*
X01641Y00306*
X01642Y00306*
X01642Y00305*
X01643Y00305*
X01644Y00304*
X01644Y00304*
X01645Y00304*
X01646Y00303*
X01647Y00303*
X01647Y00303*
X01648Y00303*
X01649Y00303*
X0165*
X01651Y00303*
X01652Y00303*
X01652Y00303*
X01653Y00303*
X01654Y00304*
X01655Y00304*
X01655Y00304*
X01656Y00305*
X01657Y00305*
X01657Y00306*
X01658Y00306*
X01659Y00307*
X01659Y00308*
X0166Y00308*
X0166Y00309*
X0166Y0031*
X01661Y0031*
X01661Y00311*
X01661Y00312*
X01661Y00313*
X01661Y00314*
X01661Y00315*
X01646Y0027D02*
D01*
X01646Y0027*
X01646Y00271*
X01646Y00272*
X01646Y00273*
X01646Y00274*
X01645Y00274*
X01645Y00275*
X01645Y00276*
X01644Y00276*
X01644Y00277*
X01643Y00278*
X01642Y00278*
X01642Y00279*
X01641Y00279*
X0164Y0028*
X0164Y0028*
X01639Y0028*
X01638Y00281*
X01637Y00281*
X01637Y00281*
X01636Y00281*
X01635Y00281*
X01634*
X01633Y00281*
X01632Y00281*
X01632Y00281*
X01631Y00281*
X0163Y0028*
X01629Y0028*
X01629Y0028*
X01628Y00279*
X01627Y00279*
X01627Y00278*
X01626Y00278*
X01625Y00277*
X01625Y00276*
X01624Y00276*
X01624Y00275*
X01624Y00274*
X01623Y00274*
X01623Y00273*
X01623Y00272*
X01623Y00271*
X01623Y0027*
X01623Y0027*
X01623Y00269*
X01623Y00268*
X01623Y00267*
X01623Y00266*
X01623Y00265*
X01624Y00265*
X01624Y00264*
X01624Y00263*
X01625Y00263*
X01625Y00262*
X01626Y00261*
X01627Y00261*
X01627Y0026*
X01628Y0026*
X01629Y00259*
X01629Y00259*
X0163Y00259*
X01631Y00258*
X01632Y00258*
X01632Y00258*
X01633Y00258*
X01634Y00258*
X01635*
X01636Y00258*
X01637Y00258*
X01637Y00258*
X01638Y00258*
X01639Y00259*
X0164Y00259*
X0164Y00259*
X01641Y0026*
X01642Y0026*
X01642Y00261*
X01643Y00261*
X01644Y00262*
X01644Y00263*
X01645Y00263*
X01645Y00264*
X01645Y00265*
X01646Y00265*
X01646Y00266*
X01646Y00267*
X01646Y00268*
X01646Y00269*
X01646Y0027*
G54D15*
X01414Y00209D02*
Y0024D01*
X0047Y0049D02*
Y00519D01*
X00484*
X00489Y00514*
Y00504*
X00484Y00499*
X0047*
X00479D02*
X00489Y0049D01*
X00499D02*
X00509D01*
X00504*
Y00519*
X00499Y00514*
X01505Y00871D02*
X01535D01*
Y00891*
X01505Y00921D02*
Y00901D01*
X01535*
Y00921*
X0152Y00901D02*
Y00911D01*
X01505Y00931D02*
X01535D01*
Y00946*
X0153Y00951*
X0151*
X01505Y00946*
Y00931*
X01535Y00981D02*
Y00961D01*
X01515Y00981*
X0151*
X01505Y00976*
Y00966*
X0151Y00961*
X0039Y01134D02*
Y01105D01*
X00409*
X00439Y01134D02*
X00419D01*
Y01105*
X00439*
X00419Y01119D02*
X00429D01*
X00449Y01134D02*
Y01105D01*
X00464*
X00469Y0111*
Y01129*
X00464Y01134*
X00449*
X00479Y01105D02*
X00489D01*
X00484*
Y01134*
X00479Y01129*
X00719Y01185D02*
X00709D01*
X00714*
Y0116*
X00709Y01155*
X00704*
X00699Y0116*
X00729Y0118D02*
X00734Y01185D01*
X00744*
X00749Y0118*
Y01175*
X00744Y0117*
X00749Y01165*
Y0116*
X00744Y01155*
X00734*
X00729Y0116*
Y01165*
X00734Y0117*
X00729Y01175*
Y0118*
X00734Y0117D02*
X00744D01*
X0149Y00064D02*
Y00035D01*
X01509*
X01534D02*
Y00064D01*
X01519Y00049*
X01539*
X0069Y00394D02*
Y00365D01*
X00709*
X00739Y00394D02*
X00719D01*
Y00379*
X00729Y00384*
X00734*
X00739Y00379*
Y0037*
X00734Y00365*
X00724*
X00719Y0037*
X00609Y00624D02*
X00604Y00629D01*
X00595*
X0059Y00624*
Y00605*
X00595Y006*
X00604*
X00609Y00605*
X00634Y006D02*
Y00629D01*
X00619Y00614*
X00639*
X00649Y006D02*
X00659D01*
X00654*
Y00629*
X00649Y00624*
X0061Y00357D02*
X00605Y00362D01*
X00595*
X0059Y00357*
Y00337*
X00595Y00332*
X00605*
X0061Y00337*
X00635Y00332D02*
Y00362D01*
X0062Y00347*
X0064*
X0065Y00357D02*
X00655Y00362D01*
X00665*
X0067Y00357*
Y00337*
X00665Y00332*
X00655*
X0065Y00337*
Y00357*
X00305Y00045D02*
Y00074D01*
X00319*
X00324Y00069*
Y00059*
X00319Y00054*
X00305*
X00354Y00069D02*
X00349Y00074D01*
X00339*
X00334Y00069*
Y00064*
X00339Y00059*
X00349*
X00354Y00054*
Y0005*
X00349Y00045*
X00339*
X00334Y0005*
X00364Y00045D02*
X00374D01*
X00369*
Y00074*
X00364Y00069*
X0011Y00274D02*
X00119D01*
X00115*
Y00245*
X0011*
X00119*
X00154Y00269D02*
X00149Y00274D01*
X00139*
X00134Y00269*
Y0025*
X00139Y00245*
X00149*
X00154Y0025*
X00164Y00245D02*
X00174D01*
X00169*
Y00274*
X00164Y00269*
X00189D02*
X00194Y00274D01*
X00204*
X00209Y00269*
Y0025*
X00204Y00245*
X00194*
X00189Y0025*
Y00269*
X0071Y00634D02*
X00719D01*
X00715*
Y00605*
X0071*
X00719*
X00754Y00629D02*
X00749Y00634D01*
X00739*
X00734Y00629*
Y0061*
X00739Y00605*
X00749*
X00754Y0061*
X00764D02*
X00769Y00605D01*
X00779*
X00784Y0061*
Y00629*
X00779Y00634*
X00769*
X00764Y00629*
Y00624*
X00769Y00619*
X00784*
X0049Y00459D02*
X00499D01*
X00495*
Y0043*
X0049*
X00499*
X00534Y00454D02*
X00529Y00459D01*
X00519*
X00514Y00454*
Y00435*
X00519Y0043*
X00529*
X00534Y00435*
X00564Y00459D02*
X00554Y00454D01*
X00544Y00444*
Y00435*
X00549Y0043*
X00559*
X00564Y00435*
Y00439*
X00559Y00444*
X00544*
X013Y00134D02*
X01309D01*
X01305*
Y00105*
X013*
X01309*
X01344Y00129D02*
X01339Y00134D01*
X01329*
X01324Y00129*
Y0011*
X01329Y00105*
X01339*
X01344Y0011*
X01374Y00134D02*
X01354D01*
Y00119*
X01364Y00124*
X01369*
X01374Y00119*
Y0011*
X01369Y00105*
X01359*
X01354Y0011*
X01385Y00929D02*
Y009D01*
X01399*
X01404Y00905*
Y00924*
X01399Y00929*
X01385*
X01414Y009D02*
X01424D01*
X01419*
Y00929*
X01414Y00924*
X0165Y00764D02*
Y00759D01*
X01659Y00749*
X01669Y00759*
Y00764*
X01659Y00749D02*
Y00735D01*
X01699Y00764D02*
X01679D01*
Y00749*
X01689Y00754*
X01694*
X01699Y00749*
Y0074*
X01694Y00735*
X01684*
X01679Y0074*
X0163Y00595D02*
Y00614D01*
X01639Y00624*
X01649Y00614*
Y00595*
Y00609*
X0163*
X01679Y00619D02*
X01674Y00624D01*
X01664*
X01659Y00619*
Y006*
X01664Y00595*
X01674*
X01679Y006*
X01689Y00595D02*
X01699D01*
X01694*
Y00624*
X01689Y00619*
X00225Y00779D02*
Y00755D01*
X0023Y0075*
X00239*
X00244Y00755*
Y00779*
X00254Y0075D02*
X00264D01*
X00259*
Y00779*
X00254Y00774*
X0037Y0048D02*
Y00509D01*
X00384*
X00389Y00504*
Y00494*
X00384Y00489*
X0037*
X00379D02*
X00389Y0048D01*
X00399Y00504D02*
X00404Y00509D01*
X00414*
X00419Y00504*
Y00499*
X00414Y00494*
X00409*
X00414*
X00419Y00489*
Y00485*
X00414Y0048*
X00404*
X00399Y00485*
X0037Y00525D02*
Y00554D01*
X00384*
X00389Y00549*
Y00539*
X00384Y00534*
X0037*
X00379D02*
X00389Y00525D01*
X00419D02*
X00399D01*
X00419Y00544*
Y00549*
X00414Y00554*
X00404*
X00399Y00549*
X01753Y00784D02*
X01763D01*
X01758*
Y00754*
X01753*
X01763*
X01798Y00779D02*
X01793Y00784D01*
X01783*
X01778Y00779*
Y00759*
X01783Y00754*
X01793*
X01798Y00759*
X01808Y00784D02*
X01828D01*
Y00779*
X01808Y00759*
Y00754*
X02525Y01079D02*
Y0105D01*
X02544*
X02554D02*
Y01079D01*
X02569*
X02574Y01074*
Y01064*
X02569Y01059*
X02554*
X02604Y01079D02*
X02584D01*
Y01064*
X02594*
X02584*
Y0105*
X02614D02*
X02624D01*
X02619*
Y01079*
X02614Y01074*
X00795Y00529D02*
Y00524D01*
X00804Y00514*
X00814Y00524*
Y00529*
X00804Y00514D02*
Y005D01*
X00824Y00524D02*
X00829Y00529D01*
X00839*
X00844Y00524*
Y00519*
X00839Y00514*
X00834*
X00839*
X00844Y00509*
Y00505*
X00839Y005*
X00829*
X00824Y00505*
X0193Y00719D02*
Y00714D01*
X01939Y00704*
X01949Y00714*
Y00719*
X01939Y00704D02*
Y0069D01*
X01979D02*
X01959D01*
X01979Y00709*
Y00714*
X01974Y00719*
X01964*
X01959Y00714*
X0254Y00304D02*
Y00299D01*
X02549Y00289*
X02559Y00299*
Y00304*
X02549Y00289D02*
Y00275D01*
X02569D02*
X02579D01*
X02574*
Y00304*
X02569Y00299*
X01435Y00389D02*
Y00384D01*
X01444Y00374*
X01454Y00384*
Y00389*
X01444Y00374D02*
Y0036D01*
X01479D02*
Y00389D01*
X01464Y00374*
X01484*
X0026Y01044D02*
Y0102D01*
X00265Y01015*
X00274*
X00279Y0102*
Y01044*
X00309Y01015D02*
X00289D01*
X00309Y01034*
Y01039*
X00304Y01044*
X00294*
X00289Y01039*
X00455D02*
Y01015D01*
X0046Y0101*
X00469*
X00474Y01015*
Y01039*
X00484Y01034D02*
X00489Y01039D01*
X00499*
X00504Y01034*
Y01029*
X00499Y01024*
X00494*
X00499*
X00504Y01019*
Y01015*
X00499Y0101*
X00489*
X00484Y01015*
X00999Y00174D02*
X00994Y00179D01*
X00985*
X0098Y00174*
Y00169*
X00985Y00164*
X00994*
X00999Y00159*
Y00155*
X00994Y0015*
X00985*
X0098Y00155*
X01009Y0015D02*
X01019D01*
X01014*
Y00179*
X01009Y00174*
X01Y0052D02*
X0097D01*
Y00534*
X00975Y00539*
X00985*
X0099Y00534*
Y0052*
Y00529D02*
X01Y00539D01*
Y00549D02*
Y00559D01*
Y00554*
X0097*
X00975Y00549*
X0097Y00574D02*
Y00594D01*
X00975*
X00995Y00574*
X01*
X01155Y0052D02*
X01125D01*
Y00534*
X0113Y00539*
X0114*
X01145Y00534*
Y0052*
Y00529D02*
X01155Y00539D01*
Y00549D02*
Y00559D01*
Y00554*
X01125*
X0113Y00549*
X01125Y00594D02*
X0113Y00584D01*
X0114Y00574*
X0115*
X01155Y00579*
Y00589*
X0115Y00594*
X01145*
X0114Y00589*
Y00574*
X02025Y008D02*
X01995D01*
Y00814*
X02Y00819*
X0201*
X02015Y00814*
Y008*
Y00809D02*
X02025Y00819D01*
Y00829D02*
Y00839D01*
Y00834*
X01995*
X02Y00829*
X02025Y00869D02*
X01995D01*
X0201Y00854*
Y00874*
X01275Y00505D02*
X01245D01*
Y00519*
X0125Y00524*
X0126*
X01265Y00519*
Y00505*
Y00514D02*
X01275Y00524D01*
Y00534D02*
Y00544D01*
Y00539*
X01245*
X0125Y00534*
X01245Y00579D02*
Y00559D01*
X0126*
X01255Y00569*
Y00574*
X0126Y00579*
X0127*
X01275Y00574*
Y00564*
X0127Y00559*
X01917Y00712D02*
X01887D01*
Y00727*
X01892Y00732*
X01902*
X01907Y00727*
Y00712*
Y00722D02*
X01917Y00732D01*
Y00742D02*
Y00752D01*
Y00747*
X01887*
X01892Y00742*
Y00767D02*
X01887Y00772D01*
Y00782*
X01892Y00787*
X01897*
X01902Y00782*
Y00777*
Y00782*
X01907Y00787*
X01912*
X01917Y00782*
Y00772*
X01912Y00767*
X01845Y0052D02*
X01815D01*
Y00534*
X0182Y00539*
X0183*
X01835Y00534*
Y0052*
Y00529D02*
X01845Y00539D01*
Y00569D02*
Y00549D01*
X01825Y00569*
X0182*
X01815Y00564*
Y00554*
X0182Y00549*
X01815Y00579D02*
Y00599D01*
X0182*
X0184Y00579*
X01845*
X01645Y0087D02*
X01615D01*
Y00884*
X0162Y00889*
X0163*
X01635Y00884*
Y0087*
Y00879D02*
X01645Y00889D01*
Y00899D02*
Y00909D01*
Y00904*
X01615*
X0162Y00899*
X01645Y00944D02*
Y00924D01*
X01625Y00944*
X0162*
X01615Y00939*
Y00929*
X0162Y00924*
X0146Y00405D02*
Y00434D01*
X01474*
X01479Y00429*
Y00419*
X01474Y00414*
X0146*
X01469D02*
X01479Y00405D01*
X01509D02*
X01489D01*
X01509Y00424*
Y00429*
X01504Y00434*
X01494*
X01489Y00429*
X01539Y00434D02*
X01529Y00429D01*
X01519Y00419*
Y0041*
X01524Y00405*
X01534*
X01539Y0041*
Y00414*
X01534Y00419*
X01519*
X01725Y0092D02*
X01695D01*
Y00934*
X017Y00939*
X0171*
X01715Y00934*
Y0092*
Y00929D02*
X01725Y00939D01*
Y00949D02*
Y00959D01*
Y00954*
X01695*
X017Y00949*
X01725Y00974D02*
Y00984D01*
Y00979*
X01695*
X017Y00974*
X008Y0005D02*
X0077D01*
Y00064*
X00775Y00069*
X00785*
X0079Y00064*
Y0005*
Y00059D02*
X008Y00069D01*
Y00079D02*
Y00089D01*
Y00084*
X0077*
X00775Y00079*
Y00104D02*
X0077Y00109D01*
Y00119*
X00775Y00124*
X00795*
X008Y00119*
Y00109*
X00795Y00104*
X00775*
X00686Y003D02*
Y00329D01*
X007*
X00705Y00324*
Y00314*
X007Y00309*
X00686*
X00695D02*
X00705Y003D01*
X00715Y00305D02*
X0072Y003D01*
X0073*
X00735Y00305*
Y00324*
X0073Y00329*
X0072*
X00715Y00324*
Y00319*
X0072Y00314*
X00735*
X00865Y00575D02*
X00835D01*
Y00589*
X0084Y00594*
X0085*
X00855Y00589*
Y00575*
Y00584D02*
X00865Y00594D01*
Y00624D02*
Y00604D01*
X00845Y00624*
X0084*
X00835Y00619*
Y00609*
X0084Y00604*
Y00634D02*
X00835Y00639D01*
Y00649*
X0084Y00654*
X00845*
X0085Y00649*
Y00644*
Y00649*
X00855Y00654*
X0086*
X00865Y00649*
Y00639*
X0086Y00634*
X0241Y00395D02*
Y00424D01*
X02424*
X02429Y00419*
Y00409*
X02424Y00404*
X0241*
X02419D02*
X02429Y00395D01*
X02439Y00419D02*
X02444Y00424D01*
X02454*
X02459Y00419*
Y00414*
X02454Y00409*
X02459Y00404*
Y004*
X02454Y00395*
X02444*
X02439Y004*
Y00404*
X02444Y00409*
X02439Y00414*
Y00419*
X02444Y00409D02*
X02454D01*
X00295Y00375D02*
X00265D01*
Y00389*
X0027Y00394*
X0028*
X00285Y00389*
Y00375*
Y00384D02*
X00295Y00394D01*
Y00424D02*
Y00404D01*
X00275Y00424*
X0027*
X00265Y00419*
Y00409*
X0027Y00404*
X00295Y00454D02*
Y00434D01*
X00275Y00454*
X0027*
X00265Y00449*
Y00439*
X0027Y00434*
X01875Y0035D02*
Y00379D01*
X01889*
X01894Y00374*
Y00364*
X01889Y00359*
X01875*
X01884D02*
X01894Y0035D01*
X01904Y00379D02*
X01924D01*
Y00374*
X01904Y00355*
Y0035*
X00175Y00445D02*
Y00474D01*
X00189*
X00194Y00469*
Y00459*
X00189Y00454*
X00175*
X00184D02*
X00194Y00445D01*
X00224D02*
X00204D01*
X00224Y00464*
Y00469*
X00219Y00474*
X00209*
X00204Y00469*
X00234Y00445D02*
X00244D01*
X00239*
Y00474*
X00234Y00469*
X02325Y0074D02*
Y00769D01*
X02339*
X02344Y00764*
Y00754*
X02339Y00749*
X02325*
X02334D02*
X02344Y0074D01*
X02374Y00769D02*
X02364Y00764D01*
X02354Y00754*
Y00745*
X02359Y0074*
X02369*
X02374Y00745*
Y00749*
X02369Y00754*
X02354*
X00255Y0017D02*
X00225D01*
Y00184*
X0023Y00189*
X0024*
X00245Y00184*
Y0017*
Y00179D02*
X00255Y00189D01*
Y00219D02*
Y00199D01*
X00235Y00219*
X0023*
X00225Y00214*
Y00204*
X0023Y00199*
Y00229D02*
X00225Y00234D01*
Y00244*
X0023Y00249*
X0025*
X00255Y00244*
Y00234*
X0025Y00229*
X0023*
X02515Y00195D02*
Y00224D01*
X02529*
X02534Y00219*
Y00209*
X02529Y00204*
X02515*
X02524D02*
X02534Y00195D01*
X02564Y00224D02*
X02544D01*
Y00209*
X02554Y00214*
X02559*
X02564Y00209*
Y002*
X02559Y00195*
X02549*
X02544Y002*
X00483Y00252D02*
X00453D01*
Y00267*
X00458Y00272*
X00468*
X00473Y00267*
Y00252*
Y00262D02*
X00483Y00272D01*
Y00282D02*
Y00292D01*
Y00287*
X00453*
X00458Y00282*
X00478Y00307D02*
X00483Y00312D01*
Y00322*
X00478Y00327*
X00458*
X00453Y00322*
Y00312*
X00458Y00307*
X00463*
X00468Y00312*
Y00327*
X02629Y0019D02*
Y0022D01*
X02644*
X02649Y00215*
Y00205*
X02644Y002*
X02629*
X02639D02*
X02649Y0019D01*
X02674D02*
Y0022D01*
X02659Y00205*
X02679*
X00735Y0001D02*
Y00039D01*
X00749*
X00754Y00034*
Y00024*
X00749Y00019*
X00735*
X00764Y00034D02*
X00769Y00039D01*
X00779*
X00784Y00034*
Y00029*
X00779Y00024*
X00774*
X00779*
X00784Y00019*
Y00015*
X00779Y0001*
X00769*
X00764Y00015*
X0244Y00045D02*
Y00074D01*
X02454*
X02459Y00069*
Y00059*
X02454Y00054*
X0244*
X02489Y00045D02*
X02469D01*
X02489Y00064*
Y00069*
X02484Y00074*
X02474*
X02469Y00069*
X0271Y00045D02*
Y00074D01*
X02724*
X02729Y00069*
Y00059*
X02724Y00054*
X0271*
X02739Y00045D02*
X02749D01*
X02744*
Y00074*
X02739Y00069*
X00017Y00145D02*
Y00174D01*
X00031*
X00036Y00169*
Y00159*
X00031Y00154*
X00017*
X00061Y00145D02*
Y00174D01*
X00046Y00159*
X00066*
X0199Y00599D02*
Y0057D01*
X02009*
X02019Y00594D02*
X02024Y00599D01*
X02034*
X02039Y00594*
Y00589*
X02034Y00584*
X02029*
X02034*
X02039Y00579*
Y00575*
X02034Y0057*
X02024*
X02019Y00575*
X0267Y01194D02*
Y01165D01*
X02689*
X02719D02*
X02699D01*
X02719Y01184*
Y01189*
X02714Y01194*
X02704*
X02699Y01189*
X0242Y01194D02*
Y01165D01*
X02439*
X02449D02*
X02459D01*
X02454*
Y01194*
X02449Y01189*
X01834Y00264D02*
X01824D01*
X01829*
Y0024*
X01824Y00235*
X0182*
X01815Y0024*
X01864Y00264D02*
X01844D01*
Y00249*
X01854Y00254*
X01859*
X01864Y00249*
Y0024*
X01859Y00235*
X01849*
X01844Y0024*
X01939Y00049D02*
X01929D01*
X01934*
Y00025*
X01929Y0002*
X01925*
X0192Y00025*
X01964Y0002D02*
Y00049D01*
X01949Y00034*
X01969*
X01324Y0066D02*
X01314D01*
X01319*
Y00636*
X01314Y00631*
X01309*
X01304Y00636*
X01354Y0066D02*
X01344Y00655D01*
X01334Y00645*
Y00636*
X01339Y00631*
X01349*
X01354Y00636*
Y0064*
X01349Y00645*
X01334*
X01075Y00239D02*
X01084D01*
X0108*
Y0021*
X01075*
X01084*
X01119Y00234D02*
X01114Y00239D01*
X01104*
X01099Y00234*
Y00215*
X01104Y0021*
X01114*
X01119Y00215*
X01129Y00234D02*
X01134Y00239D01*
X01144*
X01149Y00234*
Y00229*
X01144Y00224*
X01149Y00219*
Y00215*
X01144Y0021*
X01134*
X01129Y00215*
Y00219*
X01134Y00224*
X01129Y00229*
Y00234*
X01134Y00224D02*
X01144D01*
X00498Y00882D02*
X00508D01*
X00503*
Y00852*
X00498*
X00508*
X00543Y00877D02*
X00538Y00882D01*
X00528*
X00523Y00877*
Y00857*
X00528Y00852*
X00538*
X00543Y00857*
X00553Y00852D02*
X00563D01*
X00558*
Y00882*
X00553Y00877*
X00578Y00852D02*
X00588D01*
X00583*
Y00882*
X00578Y00877*
X02297Y00689D02*
X02307D01*
X02302*
Y00659*
X02297*
X02307*
X02342Y00684D02*
X02337Y00689D01*
X02327*
X02322Y00684*
Y00664*
X02327Y00659*
X02337*
X02342Y00664*
X02367Y00659D02*
Y00689D01*
X02352Y00674*
X02372*
X01725Y00204D02*
X01734D01*
X0173*
Y00175*
X01725*
X01734*
X01769Y00199D02*
X01764Y00204D01*
X01754*
X01749Y00199*
Y0018*
X01754Y00175*
X01764*
X01769Y0018*
X01779Y00199D02*
X01784Y00204D01*
X01794*
X01799Y00199*
Y00194*
X01794Y00189*
X01789*
X01794*
X01799Y00184*
Y0018*
X01794Y00175*
X01784*
X01779Y0018*
X02795Y00354D02*
Y00325D01*
Y00339*
X02814*
Y00354*
Y00325*
X02824D02*
X02834D01*
X02829*
Y00354*
X02824Y00349*
X02434Y00689D02*
X02415D01*
Y00674*
X02424*
X02415*
Y0066*
X02444Y00689D02*
Y0066D01*
X02459*
X02464Y00665*
Y00669*
X02459Y00674*
X02444*
X02459*
X02464Y00679*
Y00684*
X02459Y00689*
X02444*
X02474Y0066D02*
X02484D01*
X02479*
Y00689*
X02474Y00684*
X0086Y0015D02*
X0089D01*
Y00164*
X00885Y00169*
X00865*
X0086Y00164*
Y0015*
X00865Y00199D02*
X0086Y00194D01*
Y00184*
X00865Y00179*
X0087*
X00875Y00184*
Y00194*
X0088Y00199*
X00885*
X0089Y00194*
Y00184*
X00885Y00179*
X0089Y00209D02*
Y00219D01*
Y00214*
X0086*
X00865Y00209*
X00365Y003D02*
X00395D01*
Y00314*
X0039Y00319*
X0037*
X00365Y00314*
Y003*
X0037Y00349D02*
X00365Y00344D01*
Y00334*
X0037Y00329*
X00375*
X0038Y00334*
Y00344*
X00385Y00349*
X0039*
X00395Y00344*
Y00334*
X0039Y00329*
X00395Y00379D02*
Y00359D01*
X00375Y00379*
X0037*
X00365Y00374*
Y00364*
X0037Y00359*
X01155Y00934D02*
Y00905D01*
X01169*
X01174Y0091*
Y00929*
X01169Y00934*
X01155*
X01204Y00905D02*
X01184D01*
X01204Y00924*
Y00929*
X01199Y00934*
X01189*
X01184Y00929*
X00924Y00932D02*
Y00902D01*
X00939*
X00944Y00907*
Y00927*
X00939Y00932*
X00924*
X00954Y00927D02*
X00959Y00932D01*
X00969*
X00974Y00927*
Y00922*
X00969Y00917*
X00964*
X00969*
X00974Y00912*
Y00907*
X00969Y00902*
X00959*
X00954Y00907*
X00036Y00813D02*
X00031Y00818D01*
X00021*
X00016Y00813*
Y00793*
X00021Y00788*
X00031*
X00036Y00793*
X00061Y00818D02*
X00051D01*
X00046Y00813*
Y00793*
X00051Y00788*
X00061*
X00066Y00793*
Y00813*
X00061Y00818*
X00076Y00788D02*
Y00818D01*
X00096Y00788*
Y00818*
X00106Y00788D02*
Y00818D01*
X00126Y00788*
Y00818*
X00136Y00783D02*
X00156D01*
X00186Y00788D02*
X00166D01*
X00186Y00808*
Y00813*
X00181Y00818*
X00171*
X00166Y00813*
X00229Y01099D02*
X00224Y01104D01*
X00215*
X0021Y01099*
Y0108*
X00215Y01075*
X00224*
X00229Y0108*
X00254Y01104D02*
X00244D01*
X00239Y01099*
Y0108*
X00244Y01075*
X00254*
X00259Y0108*
Y01099*
X00254Y01104*
X00269Y01075D02*
Y01104D01*
X00289Y01075*
Y01104*
X00299Y01075D02*
Y01104D01*
X00319Y01075*
Y01104*
X00329Y0107D02*
X00349D01*
X00359Y01075D02*
X00369D01*
X00364*
Y01104*
X00359Y01099*
X01285Y00179D02*
X0128Y00174D01*
Y00165*
X01285Y0016*
X01305*
X0131Y00165*
Y00174*
X01305Y00179*
X01285Y00189D02*
X0128Y00194D01*
Y00204*
X01285Y00209*
X0129*
X01295Y00204*
Y00199*
Y00204*
X013Y00209*
X01305*
X0131Y00204*
Y00194*
X01305Y00189*
X0131Y00234D02*
X0128D01*
X01295Y00219*
Y00239*
X0124Y00179D02*
X01235Y00174D01*
Y00165*
X0124Y0016*
X0126*
X01265Y00165*
Y00174*
X0126Y00179*
X0124Y00189D02*
X01235Y00194D01*
Y00204*
X0124Y00209*
X01245*
X0125Y00204*
Y00199*
Y00204*
X01255Y00209*
X0126*
X01265Y00204*
Y00194*
X0126Y00189*
X0124Y00219D02*
X01235Y00224D01*
Y00234*
X0124Y00239*
X01245*
X0125Y00234*
Y00229*
Y00234*
X01255Y00239*
X0126*
X01265Y00234*
Y00224*
X0126Y00219*
X0166Y00889D02*
X01655Y00884D01*
Y00875*
X0166Y0087*
X0168*
X01685Y00875*
Y00884*
X0168Y00889*
X0166Y00899D02*
X01655Y00904D01*
Y00914*
X0166Y00919*
X01665*
X0167Y00914*
Y00909*
Y00914*
X01675Y00919*
X0168*
X01685Y00914*
Y00904*
X0168Y00899*
X0166Y00929D02*
X01655Y00934D01*
Y00944*
X0166Y00949*
X0168*
X01685Y00944*
Y00934*
X0168Y00929*
X0166*
X01833Y00931D02*
X01828Y00926D01*
Y00916*
X01833Y00911*
X01853*
X01858Y00916*
Y00926*
X01853Y00931*
X01858Y00961D02*
Y00941D01*
X01838Y00961*
X01833*
X01828Y00956*
Y00946*
X01833Y00941*
X01853Y00971D02*
X01858Y00976D01*
Y00986*
X01853Y00991*
X01833*
X01828Y00986*
Y00976*
X01833Y00971*
X01838*
X01843Y00976*
Y00991*
X00925Y00544D02*
X0092Y00539D01*
Y0053*
X00925Y00525*
X00945*
X0095Y0053*
Y00539*
X00945Y00544*
X00925Y00554D02*
X0092Y00559D01*
Y00569*
X00925Y00574*
X0093*
X00935Y00569*
Y00564*
Y00569*
X0094Y00574*
X00945*
X0095Y00569*
Y00559*
X00945Y00554*
X0095Y00584D02*
Y00594D01*
Y00589*
X0092*
X00925Y00584*
X01914Y00964D02*
X01909Y00969D01*
X019*
X01895Y00964*
Y00945*
X019Y0094*
X01909*
X01914Y00945*
X01944Y0094D02*
X01924D01*
X01944Y00959*
Y00964*
X01939Y00969*
X01929*
X01924Y00964*
X01954D02*
X01959Y00969D01*
X01969*
X01974Y00964*
Y00959*
X01969Y00954*
X01974Y00949*
Y00945*
X01969Y0094*
X01959*
X01954Y00945*
Y00949*
X01959Y00954*
X01954Y00959*
Y00964*
X01959Y00954D02*
X01969D01*
X0182Y00669D02*
X01815Y00664D01*
Y00655*
X0182Y0065*
X0184*
X01845Y00655*
Y00664*
X0184Y00669*
X01815Y00699D02*
Y00679D01*
X0183*
X01825Y00689*
Y00694*
X0183Y00699*
X0184*
X01845Y00694*
Y00684*
X0184Y00679*
X01815Y00729D02*
X0182Y00719D01*
X0183Y00709*
X0184*
X01845Y00714*
Y00724*
X0184Y00729*
X01835*
X0183Y00724*
Y00709*
X0051Y00149D02*
X00505Y00144D01*
Y00135*
X0051Y0013*
X0053*
X00535Y00135*
Y00144*
X0053Y00149*
X00535Y00179D02*
Y00159D01*
X00515Y00179*
X0051*
X00505Y00174*
Y00164*
X0051Y00159*
X00505Y00189D02*
Y00209D01*
X0051*
X0053Y00189*
X00535*
X01555Y00754D02*
X0155Y00749D01*
Y0074*
X01555Y00735*
X01575*
X0158Y0074*
Y00749*
X01575Y00754*
X0155Y00784D02*
Y00764D01*
X01565*
X0156Y00774*
Y00779*
X01565Y00784*
X01575*
X0158Y00779*
Y00769*
X01575Y00764*
X0155Y00814D02*
Y00794D01*
X01565*
X0156Y00804*
Y00809*
X01565Y00814*
X01575*
X0158Y00809*
Y00799*
X01575Y00794*
X00554Y00289D02*
X00549Y00294D01*
X0054*
X00535Y00289*
Y0027*
X0054Y00265*
X00549*
X00554Y0027*
X00584Y00265D02*
X00564D01*
X00584Y00284*
Y00289*
X00579Y00294*
X00569*
X00564Y00289*
X00614Y00294D02*
X00604Y00289D01*
X00594Y00279*
Y0027*
X00599Y00265*
X00609*
X00614Y0027*
Y00274*
X00609Y00279*
X00594*
X01603Y00459D02*
X01598Y00464D01*
X01589*
X01584Y00459*
Y0044*
X01589Y00435*
X01598*
X01603Y0044*
X01633Y00464D02*
X01613D01*
Y00449*
X01623Y00454*
X01628*
X01633Y00449*
Y0044*
X01628Y00435*
X01618*
X01613Y0044*
X01658Y00435D02*
Y00464D01*
X01643Y00449*
X01663*
X01368Y00277D02*
X01363Y00282D01*
X01353*
X01348Y00277*
Y00257*
X01353Y00252*
X01363*
X01368Y00257*
X01398Y00252D02*
X01378D01*
X01398Y00272*
Y00277*
X01393Y00282*
X01383*
X01378Y00277*
X01428Y00282D02*
X01408D01*
Y00267*
X01418Y00272*
X01423*
X01428Y00267*
Y00257*
X01423Y00252*
X01413*
X01408Y00257*
X01438Y0052D02*
X01433Y00515D01*
Y00505*
X01438Y005*
X01458*
X01463Y00505*
Y00515*
X01458Y0052*
X01433Y0055D02*
Y0053D01*
X01448*
X01443Y0054*
Y00545*
X01448Y0055*
X01458*
X01463Y00545*
Y00535*
X01458Y0053*
X01438Y0056D02*
X01433Y00565D01*
Y00575*
X01438Y0058*
X01443*
X01448Y00575*
Y0057*
Y00575*
X01453Y0058*
X01458*
X01463Y00575*
Y00565*
X01458Y0056*
X01309Y00064D02*
X01304Y00069D01*
X01295*
X0129Y00064*
Y00045*
X01295Y0004*
X01304*
X01309Y00045*
X01339Y0004D02*
X01319D01*
X01339Y00059*
Y00064*
X01334Y00069*
X01324*
X01319Y00064*
X01364Y0004D02*
Y00069D01*
X01349Y00054*
X01369*
X01515Y00604D02*
X0151Y00599D01*
Y0059*
X01515Y00585*
X01535*
X0154Y0059*
Y00599*
X01535Y00604*
X0151Y00634D02*
Y00614D01*
X01525*
X0152Y00624*
Y00629*
X01525Y00634*
X01535*
X0154Y00629*
Y00619*
X01535Y00614*
X0154Y00664D02*
Y00644D01*
X0152Y00664*
X01515*
X0151Y00659*
Y00649*
X01515Y00644*
X02019Y00778D02*
X02014Y00783D01*
X02004*
X01999Y00778*
Y00758*
X02004Y00753*
X02014*
X02019Y00758*
X02049Y00753D02*
X02029D01*
X02049Y00773*
Y00778*
X02044Y00783*
X02034*
X02029Y00778*
X02059D02*
X02064Y00783D01*
X02074*
X02079Y00778*
Y00773*
X02074Y00768*
X02069*
X02074*
X02079Y00763*
Y00758*
X02074Y00753*
X02064*
X02059Y00758*
X02024Y00662D02*
X02019Y00667D01*
X02009*
X02004Y00662*
Y00642*
X02009Y00637*
X02019*
X02024Y00642*
X02054Y00637D02*
X02034D01*
X02054Y00657*
Y00662*
X02049Y00667*
X02039*
X02034Y00662*
X02084Y00637D02*
X02064D01*
X02084Y00657*
Y00662*
X02079Y00667*
X02069*
X02064Y00662*
X02342Y00723D02*
X02337Y00728D01*
X02327*
X02322Y00723*
Y00703*
X02327Y00698*
X02337*
X02342Y00703*
X02372Y00698D02*
X02352D01*
X02372Y00718*
Y00723*
X02367Y00728*
X02357*
X02352Y00723*
X02382Y00698D02*
X02392D01*
X02387*
Y00728*
X02382Y00723*
X00885Y00594D02*
X0088Y00589D01*
Y0058*
X00885Y00575*
X00905*
X0091Y0058*
Y00589*
X00905Y00594*
X0091Y00619D02*
X0088D01*
X00895Y00604*
Y00624*
X00905Y00634D02*
X0091Y00639D01*
Y00649*
X00905Y00654*
X00885*
X0088Y00649*
Y00639*
X00885Y00634*
X0089*
X00895Y00639*
Y00654*
X02386Y00549D02*
X02381Y00544D01*
Y00534*
X02386Y00529*
X02406*
X02411Y00534*
Y00544*
X02406Y00549*
X02411Y00579D02*
Y00559D01*
X02391Y00579*
X02386*
X02381Y00574*
Y00564*
X02386Y00559*
Y00589D02*
X02381Y00594D01*
Y00604*
X02386Y00609*
X02406*
X02411Y00604*
Y00594*
X02406Y00589*
X02386*
X0035Y00854D02*
X00345Y00849D01*
Y0084*
X0035Y00835*
X0037*
X00375Y0084*
Y00849*
X0037Y00854*
X00375Y00879D02*
X00345D01*
X0036Y00864*
Y00884*
X0035Y00894D02*
X00345Y00899D01*
Y00909*
X0035Y00914*
X00355*
X0036Y00909*
X00365Y00914*
X0037*
X00375Y00909*
Y00899*
X0037Y00894*
X00365*
X0036Y00899*
X00355Y00894*
X0035*
X0036Y00899D02*
Y00909D01*
X01869Y00419D02*
X01864Y00424D01*
X01855*
X0185Y00419*
Y004*
X01855Y00395*
X01864*
X01869Y004*
X01879Y00395D02*
X01889D01*
X01884*
Y00424*
X01879Y00419*
X01904Y004D02*
X01909Y00395D01*
X01919*
X01924Y004*
Y00419*
X01919Y00424*
X01909*
X01904Y00419*
Y00414*
X01909Y00409*
X01924*
X0044Y00854D02*
X00435Y00849D01*
Y0084*
X0044Y00835*
X0046*
X00465Y0084*
Y00849*
X0046Y00854*
X00465Y00879D02*
X00435D01*
X0045Y00864*
Y00884*
X00435Y00894D02*
Y00914D01*
X0044*
X0046Y00894*
X00465*
X02535Y00529D02*
X0253Y00524D01*
Y00515*
X02535Y0051*
X02555*
X0256Y00515*
Y00524*
X02555Y00529*
X0256Y00539D02*
Y00549D01*
Y00544*
X0253*
X02535Y00539*
Y00564D02*
X0253Y00569D01*
Y00579*
X02535Y00584*
X0254*
X02545Y00579*
X0255Y00584*
X02555*
X0256Y00579*
Y00569*
X02555Y00564*
X0255*
X02545Y00569*
X0254Y00564*
X02535*
X02545Y00569D02*
Y00579D01*
X0088Y00884D02*
X00875Y00879D01*
Y0087*
X0088Y00865*
X009*
X00905Y0087*
Y00879*
X009Y00884*
X00905Y00909D02*
X00875D01*
X0089Y00894*
Y00914*
X00875Y00944D02*
X0088Y00934D01*
X0089Y00924*
X009*
X00905Y00929*
Y00939*
X009Y00944*
X00895*
X0089Y00939*
Y00924*
X02419Y00329D02*
X02414Y00334D01*
X02405*
X024Y00329*
Y0031*
X02405Y00305*
X02414*
X02419Y0031*
X02429Y00305D02*
X02439D01*
X02434*
Y00334*
X02429Y00329*
X02454Y00334D02*
X02474D01*
Y00329*
X02454Y0031*
Y00305*
X00835Y00884D02*
X0083Y00879D01*
Y0087*
X00835Y00865*
X00855*
X0086Y0087*
Y00879*
X00855Y00884*
X0086Y00909D02*
X0083D01*
X00845Y00894*
Y00914*
X0083Y00944D02*
Y00924D01*
X00845*
X0084Y00934*
Y00939*
X00845Y00944*
X00855*
X0086Y00939*
Y00929*
X00855Y00924*
X0186Y00544D02*
X01855Y00539D01*
Y0053*
X0186Y00525*
X0188*
X01885Y0053*
Y00539*
X0188Y00544*
X01885Y00554D02*
Y00564D01*
Y00559*
X01855*
X0186Y00554*
X01855Y00599D02*
X0186Y00589D01*
X0187Y00579*
X0188*
X01885Y00584*
Y00594*
X0188Y00599*
X01875*
X0187Y00594*
Y00579*
X00395Y00854D02*
X0039Y00849D01*
Y0084*
X00395Y00835*
X00415*
X0042Y0084*
Y00849*
X00415Y00854*
X0042Y00879D02*
X0039D01*
X00405Y00864*
Y00884*
X0042Y00909D02*
X0039D01*
X00405Y00894*
Y00914*
X0271Y00959D02*
X02705Y00954D01*
Y00945*
X0271Y0094*
X0273*
X02735Y00945*
Y00954*
X0273Y00959*
X02735Y00969D02*
Y00979D01*
Y00974*
X02705*
X0271Y00969*
X02705Y01014D02*
Y00994D01*
X0272*
X02715Y01004*
Y01009*
X0272Y01014*
X0273*
X02735Y01009*
Y00999*
X0273Y00994*
X00035Y00214D02*
X0003Y00209D01*
Y002*
X00035Y00195*
X00055*
X0006Y002*
Y00209*
X00055Y00214*
X0006Y00239D02*
X0003D01*
X00045Y00224*
Y00244*
X00035Y00254D02*
X0003Y00259D01*
Y00269*
X00035Y00274*
X0004*
X00045Y00269*
Y00264*
Y00269*
X0005Y00274*
X00055*
X0006Y00269*
Y00259*
X00055Y00254*
X0266Y00959D02*
X02655Y00954D01*
Y00945*
X0266Y0094*
X0268*
X02685Y00945*
Y00954*
X0268Y00959*
X02685Y00969D02*
Y00979D01*
Y00974*
X02655*
X0266Y00969*
X02685Y01009D02*
X02655D01*
X0267Y00994*
Y01014*
X00054Y00454D02*
X00049Y00459D01*
X0004*
X00035Y00454*
Y00435*
X0004Y0043*
X00049*
X00054Y00435*
X00079Y0043D02*
Y00459D01*
X00064Y00444*
X00084*
X00114Y0043D02*
X00094D01*
X00114Y00449*
Y00454*
X00109Y00459*
X00099*
X00094Y00454*
X0245Y00964D02*
X02445Y00959D01*
Y0095*
X0245Y00945*
X0247*
X02475Y0095*
Y00959*
X0247Y00964*
X02475Y00974D02*
Y00984D01*
Y00979*
X02445*
X0245Y00974*
Y00999D02*
X02445Y01004D01*
Y01014*
X0245Y01019*
X02455*
X0246Y01014*
Y01009*
Y01014*
X02465Y01019*
X0247*
X02475Y01014*
Y01004*
X0247Y00999*
X02405Y00964D02*
X024Y00959D01*
Y0095*
X02405Y00945*
X02425*
X0243Y0095*
Y00959*
X02425Y00964*
X0243Y00974D02*
Y00984D01*
Y00979*
X024*
X02405Y00974*
X0243Y01019D02*
Y00999D01*
X0241Y01019*
X02405*
X024Y01014*
Y01004*
X02405Y00999*
X02719Y00449D02*
X02714Y00454D01*
X02705*
X027Y00449*
Y0043*
X02705Y00425*
X02714*
X02719Y0043*
X02729Y00425D02*
X02739D01*
X02734*
Y00454*
X02729Y00449*
X02754Y00425D02*
X02764D01*
X02759*
Y00454*
X02754Y00449*
X0158Y00174D02*
X01575Y00169D01*
Y0016*
X0158Y00155*
X016*
X01605Y0016*
Y00169*
X016Y00174*
X0158Y00184D02*
X01575Y00189D01*
Y00199*
X0158Y00204*
X01585*
X0159Y00199*
Y00194*
Y00199*
X01595Y00204*
X016*
X01605Y00199*
Y00189*
X016Y00184*
Y00214D02*
X01605Y00219D01*
Y00229*
X016Y00234*
X0158*
X01575Y00229*
Y00219*
X0158Y00214*
X01585*
X0159Y00219*
Y00234*
X02639Y00384D02*
X02634Y00389D01*
X02625*
X0262Y00384*
Y00365*
X02625Y0036*
X02634*
X02639Y00365*
X02649Y0036D02*
X02659D01*
X02654*
Y00389*
X02649Y00384*
X02674D02*
X02679Y00389D01*
X02689*
X02694Y00384*
Y00365*
X02689Y0036*
X02679*
X02674Y00365*
Y00384*
X0023Y00094D02*
X00225Y00089D01*
Y0008*
X0023Y00075*
X0025*
X00255Y0008*
Y00089*
X0025Y00094*
X0023Y00104D02*
X00225Y00109D01*
Y00119*
X0023Y00124*
X00235*
X0024Y00119*
Y00114*
Y00119*
X00245Y00124*
X0025*
X00255Y00119*
Y00109*
X0025Y00104*
X0023Y00134D02*
X00225Y00139D01*
Y00149*
X0023Y00154*
X00235*
X0024Y00149*
X00245Y00154*
X0025*
X00255Y00149*
Y00139*
X0025Y00134*
X00245*
X0024Y00139*
X00235Y00134*
X0023*
X0024Y00139D02*
Y00149D01*
X02399Y00259D02*
X02394Y00264D01*
X02385*
X0238Y00259*
Y0024*
X02385Y00235*
X02394*
X02399Y0024*
X02409D02*
X02414Y00235D01*
X02424*
X02429Y0024*
Y00259*
X02424Y00264*
X02414*
X02409Y00259*
Y00254*
X02414Y00249*
X02429*
X00454Y00069D02*
X00449Y00074D01*
X0044*
X00435Y00069*
Y0005*
X0044Y00045*
X00449*
X00454Y0005*
X00464Y00069D02*
X00469Y00074D01*
X00479*
X00484Y00069*
Y00064*
X00479Y00059*
X00474*
X00479*
X00484Y00054*
Y0005*
X00479Y00045*
X00469*
X00464Y0005*
X00494Y00074D02*
X00514D01*
Y00069*
X00494Y0005*
Y00045*
X0285Y0097D02*
Y00989D01*
X02859Y00999*
X02869Y00989*
Y0097*
Y00984*
X0285*
X02879Y0097D02*
Y00999D01*
X02899Y0097*
Y00999*
X02909D02*
X02929D01*
X02919*
Y0097*
X02939D02*
X02949D01*
X02944*
Y00999*
X02939Y00994*
G54D16*
X00814Y0011D02*
X00845D01*
X00319Y0027D02*
X0035D01*
G54D17*
X00375Y0059D02*
X00355D01*
Y00599*
X00358Y00603*
X00365*
X00368Y00599*
Y0059*
Y00596D02*
X00375Y00603D01*
Y00622D02*
Y00609D01*
X00361Y00622*
X00358*
X00355Y00619*
Y00612*
X00358Y00609*
X00355Y00642D02*
Y00629D01*
X00365*
X00361Y00635*
Y00639*
X00365Y00642*
X00371*
X00375Y00639*
Y00632*
X00371Y00629*
X00415Y0059D02*
X00395D01*
Y00599*
X00398Y00603*
X00405*
X00408Y00599*
Y0059*
Y00596D02*
X00415Y00603D01*
Y00622D02*
Y00609D01*
X00401Y00622*
X00398*
X00395Y00619*
Y00612*
X00398Y00609*
X00415Y00639D02*
X00395D01*
X00405Y00629*
Y00642*
X0088Y0025D02*
X00876Y00246D01*
Y00238*
X0088Y00235*
X00896*
X009Y00238*
Y00246*
X00896Y0025*
X0088Y00258D02*
X00876Y00262D01*
Y0027*
X0088Y00274*
X00884*
X00888Y0027*
Y00266*
Y0027*
X00892Y00274*
X00896*
X009Y0027*
Y00262*
X00896Y00258*
X00876Y00297D02*
X0088Y0029D01*
X00888Y00282*
X00896*
X009Y00286*
Y00294*
X00896Y00297*
X00892*
X00888Y00294*
Y00282*
X0092Y0025D02*
X00916Y00246D01*
Y00238*
X0092Y00235*
X00936*
X0094Y00238*
Y00246*
X00936Y0025*
X0092Y00258D02*
X00916Y00262D01*
Y0027*
X0092Y00274*
X00924*
X00928Y0027*
Y00266*
Y0027*
X00932Y00274*
X00936*
X0094Y0027*
Y00262*
X00936Y00258*
X00916Y00297D02*
Y00282D01*
X00928*
X00924Y0029*
Y00294*
X00928Y00297*
X00936*
X0094Y00294*
Y00286*
X00936Y00282*
X00835Y0025D02*
X00831Y00246D01*
Y00238*
X00835Y00235*
X00851*
X00855Y00238*
Y00246*
X00851Y0025*
X00835Y00258D02*
X00831Y00262D01*
Y0027*
X00835Y00274*
X00839*
X00843Y0027*
Y00266*
Y0027*
X00847Y00274*
X00851*
X00855Y0027*
Y00262*
X00851Y00258*
X00855Y00297D02*
Y00282D01*
X00839Y00297*
X00835*
X00831Y00294*
Y00286*
X00835Y00282*
X00318Y00608D02*
X00315Y00604D01*
Y00598*
X00318Y00595*
X00331*
X00335Y00598*
Y00604*
X00331Y00608*
X00315Y00627D02*
Y00614D01*
X00325*
X00321Y00621*
Y00624*
X00325Y00627*
X00331*
X00335Y00624*
Y00617*
X00331Y00614*
X00335Y00634D02*
Y0064D01*
Y00637*
X00315*
X00318Y00634*
X00438Y00603D02*
X00435Y00599D01*
Y00593*
X00438Y0059*
X00451*
X00455Y00593*
Y00599*
X00451Y00603*
X00435Y00622D02*
Y00609D01*
X00445*
X00441Y00616*
Y00619*
X00445Y00622*
X00451*
X00455Y00619*
Y00612*
X00451Y00609*
X00438Y00629D02*
X00435Y00632D01*
Y00639*
X00438Y00642*
X00451*
X00455Y00639*
Y00632*
X00451Y00629*
X00438*
M02*