%FSTAX23Y23*%
%MOIN*%
%SFA1B1*%

%IPPOS*%
%AMD51*
4,1,4,-0.006100,-0.029300,0.025400,0.015800,0.006100,0.029300,-0.025400,-0.015800,-0.006100,-0.029300,0.0*
1,1,0.055120,0.009700,-0.006800*
1,1,0.055120,-0.009700,0.006800*
%
%AMD52*
4,1,4,-0.025400,0.015800,0.006100,-0.029300,0.025400,-0.015800,-0.006100,0.029300,-0.025400,0.015800,0.0*
1,1,0.055120,-0.009700,-0.006800*
1,1,0.055120,0.009700,0.006800*
%
%ADD10C,0.010000*%
%ADD36C,0.018000*%
G04~CAMADD=51~3~0.0~0.0~551.2~787.4~0.0~0.0~0~0.0~0.0~0.0~0.0~0~0.0~0.0~0.0~0.0~0~0.0~0.0~0.0~235.0~740.0~682.0*
%ADD51D51*%
G04~CAMADD=52~3~0.0~0.0~551.2~787.4~0.0~0.0~0~0.0~0.0~0.0~0.0~0~0.0~0.0~0.0~0.0~0~0.0~0.0~0.0~125.0~740.0~682.0*
%ADD52D52*%
%ADD53C,0.047240*%
%ADD54C,0.016000*%
%ADD56C,0.024000*%
%ADD57C,0.020000*%
%ADD59C,0.020000*%
%LNfront_flex-1*%
%LPD*%
G36*
X-00514Y00276D02*
X-00514Y00271D01*
X-00525Y00273*
X-00525Y00273*
X-00525Y00274*
X-00524Y00274*
X-00524Y00274*
X-00524Y00275*
X-00524Y00275*
X-00524Y00277*
X-00524Y00279*
X-00514Y00276*
G37*
G36*
X-00472Y00636D02*
X-00475Y00636D01*
X-00477Y00636*
X-00478Y00635*
X-0048Y00635*
X-00481Y00635*
X-00482Y00634*
X-00483Y00633*
X-00484Y00633*
X-00484Y00632*
X-00484Y00631*
X-00483Y00651*
X-00483Y0065*
X-00483Y00649*
X-00482Y00648*
X-00482Y00648*
X-00481Y00647*
X-00479Y00647*
X-00478Y00646*
X-00476Y00646*
X-00474Y00646*
X-00472Y00646*
X-00472Y00636*
G37*
G36*
X00441Y00316D02*
X00443Y00316D01*
X00445Y00316*
X00447Y00317*
X00449Y00318*
X00451Y00319*
X00453Y0032*
X00455Y00322*
X00457Y00323*
X00461Y00327*
Y00294*
X00459Y00297*
X00455Y003*
X00453Y00302*
X00451Y00303*
X00449Y00304*
X00447Y00305*
X00445Y00305*
X00443Y00306*
X00441Y00306*
Y00316*
G37*
G36*
X00472Y0064D02*
X00474Y0064D01*
X00476Y00641*
X00478Y00641*
X00479Y00641*
X0048Y00642*
X00481Y00642*
X00482Y00643*
X00482Y00644*
X00482Y00644*
X00482Y00645*
X00488Y00625*
X00487Y00626*
X00487Y00627*
X00486Y00628*
X00485Y00629*
X00484Y00629*
X00482Y0063*
X0048Y0063*
X00479Y0063*
X00477Y0063*
X00474Y0063*
X00472Y0064*
G37*
G36*
X02551Y00701D02*
X02552Y00698D01*
X02552Y00695*
X02553Y00692*
X02554Y0069*
X02555Y00688*
X02556Y00687*
X02558Y00686*
X02559Y00685*
X0256Y00685*
X02563Y00685*
X02566Y00685*
Y00675*
X02563Y00675*
X02554Y00674*
X02552Y00674*
X02551Y00674*
X02549Y00673*
X02549Y00673*
X02548Y00672*
Y00681*
X02541Y0068*
X02517Y0067*
X0252Y00673*
X02522Y00676*
X02524Y00679*
X02526Y00682*
X02528Y00685*
X02529Y00689*
X0253Y00693*
X02531Y00696*
X02531Y007*
X02531Y00704*
X02551Y00705*
X02551Y00701*
G37*
G36*
X02703Y00588D02*
X02693Y00582D01*
X02693Y00582*
X02693Y00582*
X02693Y00582*
X02693Y00583*
X02693Y00583*
X02692Y00584*
X02691Y00585*
X0269Y00586*
X02699Y00591*
X02703Y00588*
G37*
G54D10*
X00454Y00638D02*
D01*
X00454Y00637*
X00455Y00637*
X00455Y00637*
X00456Y00636*
X00456Y00636*
X00457Y00636*
X00457Y00636*
X00458Y00636*
X00459Y00635*
X00459Y00635*
X0046Y00635*
X0046Y00635*
X00454Y00638D02*
D01*
X00452Y00638*
X0045Y00638*
X00448Y00637*
X00446Y00637*
X00444Y00636*
X00442Y00635*
X0044Y00634*
X00439Y00633*
X00437Y00632*
X00435Y00631*
X00434Y0063*
X00434Y00629*
X00407Y00603D02*
D01*
X00405Y00601*
X00404Y00599*
X00403Y00598*
X00402Y00596*
X00401Y00594*
X004Y00592*
X004Y00591*
X00399Y00589*
X00399Y00587*
X00398Y00585*
X00398Y00583*
X00398Y00582*
X00412Y00318D02*
D01*
X00413Y00317*
X00415Y00316*
X00416Y00315*
X00417Y00314*
X00419Y00313*
X0042Y00312*
X00422Y00312*
X00423Y00312*
X00425Y00311*
X00426Y00311*
X00428Y00311*
X00428*
X00398Y00351D02*
D01*
X00398Y00348*
X00399Y00345*
X00399Y00341*
X004Y00338*
X00401Y00335*
X00402Y00332*
X00404Y00329*
X00405Y00326*
X00407Y00323*
X00409Y00321*
X00412Y00318*
X00412Y00318*
X-00506Y00641D02*
D01*
X-00507Y00641*
X-00508Y00641*
X-00509Y0064*
X-00511Y0064*
X-00512Y0064*
X-00513Y00639*
X-00514Y00639*
X-00515Y00638*
X-00517Y00637*
X-00518Y00636*
X-00519Y00636*
X-00519Y00635*
X-0043Y00623D02*
D01*
X-0043Y00625*
X-0043Y00626*
X-0043Y00628*
X-00431Y00629*
X-00431Y0063*
X-00432Y00632*
X-00432Y00633*
X-00433Y00634*
X-00434Y00635*
X-00435Y00636*
X-00436Y00638*
X-00436Y00638*
D01*
X-00436Y00638*
X-00437Y00639*
X-00438Y00639*
X-00438Y0064*
X-00439Y0064*
X-00439Y0064*
X-0044Y0064*
X-00441Y00641*
X-00442Y00641*
X-00442Y00641*
X-00443Y00641*
X-00443Y00641*
X-00396Y00539D02*
D01*
X-00396Y00541*
X-00396Y00543*
X-00397Y00544*
X-00397Y00546*
X-00398Y00548*
X-00398Y0055*
X-00399Y00552*
X-004Y00553*
X-00401Y00555*
X-00402Y00556*
X-00404Y00558*
X-00404Y00558*
X-0043Y00621D02*
D01*
X-0043Y00615*
X-00429Y00608*
X-00428Y00602*
X-00426Y00596*
X-00425Y00591*
X-00422Y00585*
X-0042Y00579*
X-00416Y00574*
X-00413Y00569*
X-00409Y00564*
X-00405Y00559*
X-00404Y00558*
X-00407Y00421D02*
D01*
X-00405Y00423*
X-00404Y00425*
X-00402Y00427*
X-004Y0043*
X-00399Y00432*
X-00398Y00435*
X-00397Y00437*
X-00396Y0044*
X-00396Y00443*
X-00396Y00446*
X-00395Y00449*
X-00395Y00449*
X-00396Y00538D02*
D01*
X-00396Y00537*
X-00397Y00537*
X-00397Y00537*
X-00397Y00536*
X-00397Y00536*
X-00397Y00536*
X-00397Y00535*
X-00397Y00535*
X-00398Y00535*
X-00398Y00534*
X-00398Y00534*
X-00398Y00534*
X-00459Y00399D02*
D01*
X-00454Y00399*
X-00449Y004*
X-00444Y00401*
X-00439Y00402*
X-00434Y00404*
X-00429Y00406*
X-00425Y00408*
X-0042Y0041*
X-00416Y00413*
X-00412Y00416*
X-00408Y0042*
X-00407Y00421*
X-00462Y00399D02*
D01*
X-00467Y00399*
X-00472Y00399*
X-00476Y00398*
X-00481Y00397*
X-00485Y00395*
X-0049Y00393*
X-00494Y00391*
X-00497Y0039*
D01*
X-005Y00386*
X-00504Y00382*
X-00507Y00377*
X-00509Y00373*
X-00512Y00368*
X-00514Y00363*
X-00516Y00358*
X-00517Y00353*
X-00518Y00348*
X-00519Y00342*
X-00519Y00337*
X-00519Y00336*
X02541Y0068D02*
X02676D01*
X0046Y00635D02*
X00519D01*
X00428Y00311D02*
X00478D01*
X00407Y00603D02*
X00434Y00629D01*
X00398Y0052D02*
Y00582D01*
Y00351D02*
Y00497D01*
X-00506Y00641D02*
X-00443D01*
X-00404Y00558D02*
D01*
X-0043Y00621D02*
Y00623D01*
X-00404Y00558D02*
X-00404Y00558D01*
X-00396Y00538D02*
D01*
Y00539*
X-00462Y00399D02*
X-00459D01*
X-00519Y00267D02*
Y00336D01*
X00399Y00498D02*
Y0052D01*
X00398Y00497D02*
X00399Y00498D01*
X00399Y00521D02*
X00399Y0052D01*
X-0052Y00267D02*
X-00519D01*
X-00398Y00494D02*
X-00395Y00449D01*
X-00398Y00494D02*
Y00534D01*
X02682Y00602D02*
X02701Y00582D01*
Y0058D02*
Y00582D01*
X02682Y00602D02*
Y00674D01*
X02676Y0068D02*
X02682Y00674D01*
G54D36*
X02461Y00659D03*
G54D51*
X00519Y00635D03*
G54D52*
X-00519Y00635D03*
G54D53*
X00478Y00311D03*
G54D54*
X02478Y00617D03*
X-0052Y00267D03*
X02701Y0058D03*
G54D56*
X-02447Y0064D03*
X02356Y0078D03*
G54D57*
X-02524Y00618D03*
X-02455Y00701D03*
G54D59*
X00342Y00736D02*
D01*
X00337Y00741*
X00332Y00745*
X00326Y00749*
X0032Y00753*
X00314Y00756*
X00307Y00759*
X00301Y00761*
X00294Y00763*
X00287Y00764*
X0028Y00765*
X00273Y00765*
X00271Y00765*
X-00264D02*
D01*
X-00271Y00765*
X-00278Y00764*
X-00285Y00763*
X-00291Y00762*
X-00298Y00759*
X-00305Y00757*
X-00311Y00754*
X-00317Y0075*
X-00323Y00746*
X-00328Y00742*
X-00333Y00737*
X-00335Y00736*
X-00407Y00705D02*
D01*
X-004Y00705*
X-00393Y00706*
X-00386Y00707*
X-0038Y00709*
X-00373Y00711*
X-00367Y00714*
X-0036Y00717*
X-00354Y0072*
X-00348Y00724*
X-00343Y00728*
X-00338Y00733*
X-00336Y00734*
X00344Y00734D02*
D01*
X00349Y00729*
X00355Y00725*
X0036Y00721*
X00366Y00717*
X00372Y00714*
X00379Y00712*
X00385Y00709*
X00392Y00708*
X00399Y00706*
X00406Y00705*
X00413Y00705*
X00414Y00705*
X-0049Y00732D02*
D01*
X-0049Y00732*
X-0049Y00733*
X-0049Y00733*
X-0049Y00733*
X-0049Y00733*
X-0049Y00733*
X-0049Y00734*
X-0049Y00734*
X-0049Y00734*
X-0049Y00734*
X-0049Y00734*
X-00491Y00734*
X-00476Y00712D02*
D01*
X-00476Y00713*
X-00476Y00714*
X-00476Y00715*
X-00476Y00716*
X-00477Y00717*
X-00477Y00718*
X-00478Y00719*
X-00478Y0072*
X-00479Y00721*
X-00479Y00722*
X-0048Y00723*
X-0048Y00723*
X-00476Y00712D02*
D01*
X-00475Y00711*
X-00473Y0071*
X-00472Y00709*
X-00471Y00708*
X-00469Y00707*
X-00468Y00706*
X-00466Y00706*
X-00465Y00705*
X-00463Y00705*
X-00461Y00705*
X-0046Y00705*
X-00459Y00705*
X0033Y00806D02*
D01*
X00327Y00809*
X00325Y00811*
X00322Y00812*
X00319Y00814*
X00317Y00816*
X00314Y00817*
X00311Y00818*
X00308Y00819*
X00304Y00819*
X00301Y0082*
X00298Y0082*
X00297Y0082*
X-00292D02*
D01*
X-00296Y0082*
X-00299Y00819*
X-00303Y00819*
X-00307Y00818*
X-0031Y00817*
X-00314Y00815*
X-00317Y00814*
X-0032Y00812*
X-00323Y0081*
X-00326Y00807*
X-00329Y00805*
X-0033Y00804*
X-00413Y0074D02*
D01*
X-0041Y0074*
X-00407Y00741*
X-00404Y00741*
X-00401Y00742*
X-00398Y00743*
X-00395Y00744*
X-00392Y00745*
X-0039Y00747*
X-00387Y00749*
X-00385Y0075*
X-00383Y00752*
X-00382Y00753*
X00378Y00759D02*
D01*
X00382Y00756*
X00385Y00753*
X00389Y0075*
X00393Y00748*
X00397Y00746*
X00401Y00744*
X00406Y00742*
X0041Y00741*
X00415Y0074*
X0042Y0074*
X00424Y00739*
X00425Y00739*
X-00464Y0075D02*
D01*
X-00462Y00748*
X-00461Y00747*
X-00459Y00745*
X-00457Y00744*
X-00455Y00743*
X-00453Y00742*
X-00451Y00742*
X-00449Y00741*
X-00446Y00741*
X-00444Y0074*
X-00442Y0074*
X-00441Y0074*
X-00485Y0068D02*
D01*
X-00484Y00678*
X-00483Y00677*
X-00481Y00676*
X-0048Y00675*
X-00478Y00674*
X-00476Y00674*
X-00474Y00673*
X-00473Y00673*
X-00471Y00672*
X-00469Y00672*
X-00467Y00672*
X-00467Y00672*
X-00502Y00708D02*
D01*
X-00502Y00706*
X-00502Y00704*
X-00501Y00702*
X-00501Y007*
X-005Y00698*
X-00499Y00696*
X-00499Y00695*
X-00498Y00693*
X-00497Y00691*
X-00495Y0069*
X-00494Y00688*
X-00494Y00688*
X-00382Y00753D02*
D01*
X-00382Y00753*
X-00382Y00753*
X-00382Y00753*
X-00382Y00753*
X-00382Y00753*
X00378Y00759D02*
D01*
X00378Y00759*
X00378Y00759*
X00378Y00759*
X00378Y00759*
X00378Y00759*
X00334Y00695D02*
D01*
X0033Y00699*
X00325Y00703*
X00321Y00706*
X00316Y00709*
X0031Y00712*
X00305Y00714*
X003Y00716*
X00294Y00718*
X00288Y00719*
X00282Y00719*
X00277Y0072*
X00275Y0072*
X00334Y00695D02*
D01*
X00338Y00691*
X00343Y00688*
X00347Y00685*
X00352Y00682*
X00357Y00679*
X00362Y00677*
X00367Y00676*
X00372Y00674*
X00378Y00673*
X00383Y00672*
X00389Y00672*
X0039Y00672*
X00344Y00734D02*
D01*
X00344Y00734*
X00344Y00734*
X00344Y00734*
X00344Y00734*
X00344Y00734*
X-00269Y0072D02*
D01*
X-00274Y00719*
X-0028Y00719*
X-00286Y00718*
X-00291Y00717*
X-00296Y00715*
X-00302Y00713*
X-00307Y0071*
X-00312Y00707*
X-00316Y00704*
X-00321Y00701*
X-00325Y00697*
X-00326Y00696*
X-00384Y00672D02*
D01*
X-00378Y00672*
X-00373Y00673*
X-00367Y00674*
X-00361Y00675*
X-00356Y00677*
X-00351Y00679*
X-00345Y00682*
X-0034Y00684*
X-00336Y00688*
X-00331Y00691*
X-00327Y00695*
X-00326Y00696*
X00334Y00695D02*
D01*
X00334Y00695*
X00334Y00695*
X00334Y00695*
X00334Y00695*
X00334Y00695*
X-00264Y00765D02*
X00271D01*
X00342Y00736D02*
X00344Y00734D01*
X-00336Y00734D02*
X-00335Y00736D01*
X00414Y00705D02*
X00455D01*
X-00503Y00747D02*
X-00491Y00734D01*
X-0049Y00732D02*
X-0048Y00723D01*
X-00459Y00705D02*
X-00407D01*
X02471Y00668D02*
Y00676D01*
X02496Y00701*
X02464Y00662D02*
X02471Y00668D01*
X02478Y00617D02*
X02541Y0068D01*
X0033Y00806D02*
X00344Y00792D01*
X-00292Y0082D02*
X00297D01*
X00425Y00739D02*
X00453D01*
X-00441Y0074D02*
X-00413Y0074D01*
X-02451Y0064D02*
X-02447D01*
X-02468Y00699D02*
X-02465Y00701D01*
X-02455*
X-02504Y00694D02*
X-02451Y0064D01*
X02304Y0092D02*
X02496Y00756D01*
X02355Y00781D02*
X02356Y0078D01*
X0222Y00945D02*
X02304Y0092D01*
X-00571Y00836D02*
X-00471Y00757D01*
X-00464Y0075*
X-00685Y00875D02*
X-00655Y00857D01*
X-00556Y00773*
X-00544Y00766*
X-00526Y0076*
X-00517Y00756*
X-00503Y00747*
X-00467Y00672D02*
X-00384D01*
X-00519Y00728D02*
X-00502Y00708D01*
X-00558Y00742D02*
X-00543Y00738D01*
X-00519Y00728*
X-00494Y00688D02*
X-00485Y0068D01*
X-00382Y00753D02*
X-00342Y00793D01*
X00345Y00792D02*
X00378Y00759D01*
X0039Y00672D02*
X00469D01*
X-00326Y00696D02*
X-00326Y00696D01*
X-00269Y0072D02*
X00275D01*
X-00341Y00793D02*
X-0033Y00804D01*
X-02518Y00625D02*
Y0064D01*
X-02524Y00646D02*
Y00679D01*
Y00646D02*
X-02518Y0064D01*
X-02504Y00771D02*
X-02413Y00863D01*
X-02504Y00694D02*
Y00771D01*
X-02429Y0089D02*
X-02378Y00927D01*
X-02532Y00787D02*
X-02429Y0089D01*
X-02413Y00863D02*
X-023Y00918D01*
X-02406Y00827D02*
X-02225Y00909D01*
X-02212Y00913*
X-0248Y00753D02*
X-02406Y00827D01*
X-02532Y00687D02*
Y00787D01*
Y00687D02*
X-02524Y00679D01*
X-0248Y00711D02*
X-02468Y00699D01*
X-0248Y00711D02*
Y00753D01*
X0222Y00945D02*
X0222Y00946D01*
X02012Y01008D02*
X02035Y01001D01*
X01942Y00996D02*
X01966Y00989D01*
X01942Y01028D02*
X01966Y01021D01*
X02012Y00976D02*
X02035Y00969D01*
X01917Y01003D02*
X01942Y00996D01*
X01892Y01009D02*
X01917Y01003D01*
X01966Y01021D02*
X01989Y01015D01*
X02012Y01008*
X01917Y01035D02*
X01942Y01028D01*
X01892Y01042D02*
X01917Y01035D01*
X01747Y01038D02*
X0182Y01026D01*
X0159Y01088D02*
X01632Y01084D01*
X01675Y0108*
X01747Y01071*
X01462Y01087D02*
X01528Y01087D01*
X01396Y01087D02*
X01462Y01087D01*
X01316Y0108D02*
X01396Y01087D01*
X01096Y01008D02*
X01166Y01024D01*
X00943Y00992D02*
X01019Y01018D01*
X01096Y0104*
X00818Y00909D02*
X0088Y00936D01*
X00755Y00909D02*
X00818Y00941D01*
X01989Y00982D02*
X02012Y00976D01*
X01966Y00989D02*
X01989Y00982D01*
X01675Y01048D02*
X01747Y01038D01*
X0159Y01055D02*
X01632Y01052D01*
X01675Y01048*
X01747Y01071D02*
X0182Y01058D01*
X01396Y01055D02*
X01462Y01055D01*
X01528Y01055*
X01316Y01048D02*
X01396Y01055D01*
X00943Y0096D02*
X01019Y00986D01*
X01096Y01008*
X01096Y0104D02*
X01166Y01056D01*
X00755Y00877D02*
X00818Y00909D01*
X00693Y00876D02*
X00755Y00909D01*
X00818Y00941D02*
X0088Y00968D01*
X01166Y01024D02*
X01237Y01037D01*
X0182Y01026D02*
X01892Y01009D01*
X01237Y01069D02*
X01316Y0108D01*
X01528Y01087D02*
X0159Y01088D01*
X0088Y00936D02*
X00943Y0096D01*
X01528Y01055D02*
X0159Y01055D01*
X01237Y01037D02*
X01316Y01048D01*
X0182Y01058D02*
X01892Y01042D01*
X01166Y01056D02*
X01237Y01069D01*
X0088Y00968D02*
X00943Y00992D01*
X02035Y01001D02*
X0222Y00946D01*
X00739Y00869D02*
X00755Y00877D01*
X022Y0092D02*
X0227Y0085D01*
X02035Y00969D02*
X022Y0092D01*
X02007Y0104D02*
X0203Y01033D01*
X02215Y00976D02*
X02215Y00978D01*
X01937Y0106D02*
X01962Y01053D01*
X01984Y01046D02*
X02007Y0104D01*
X01887Y01073D02*
X01912Y01067D01*
X01628Y01116D02*
X0167Y01112D01*
X01743Y01102*
X01815Y01089*
X01586Y01119D02*
X01628Y01116D01*
X01458Y01119D02*
X01524Y01119D01*
X01312Y01112D02*
X01392Y01119D01*
X01458Y01119*
X01092Y01072D02*
X01162Y01088D01*
X00688Y00907D02*
X0075Y00941D01*
X00473Y00759D02*
X00523Y00798D01*
X00472Y00759D02*
X00473D01*
X02215Y00976D02*
X02299Y00951D01*
X01912Y01067D02*
X01937Y0106D01*
X01962Y01053D02*
X01984Y01046D01*
X00938Y01024D02*
X01014Y0105D01*
X01092Y01072*
X00627Y00871D02*
X00688Y00907D01*
X00814Y00972D02*
X00876Y00999D01*
X00523Y00798D02*
X00574Y00836D01*
X0075Y00941D02*
X00814Y00972D01*
X01232Y01101D02*
X01312Y01112D01*
X01815Y01089D02*
X01887Y01073D01*
X01524Y01119D02*
X01586Y01119D01*
X01162Y01088D02*
X01232Y01101D01*
X00574Y00836D02*
X00627Y00871D01*
X00876Y00999D02*
X00938Y01024D01*
X0203Y01033D02*
X02215Y00978D01*
X00466Y00752D02*
Y00753D01*
X00472Y00759*
X00344Y00792D02*
X00345D01*
X00453Y00739D02*
X00466Y00752D01*
X00613Y00828D02*
X00693Y00876D01*
X00654Y00814D02*
X00739Y00869D01*
X00492Y00741D02*
X00518Y00763D01*
X00613Y00828*
X00455Y00705D02*
X00492Y00741D01*
X00525Y0073D02*
X00654Y00814D01*
X00469Y00672D02*
X00493Y00702D01*
X00525Y0073*
X-02212Y00914D02*
X-02212Y00913D01*
Y00946D02*
X-02212Y00945D01*
X-02027Y01033D02*
X-02004Y0104D01*
X-02027Y01001D02*
X-02004Y01008D01*
X-01959Y00989D02*
X-01934Y00996D01*
X-01959Y01021D02*
X-01934Y01028D01*
X-02212Y00979D02*
X-02212Y00977D01*
X-02027Y00969D02*
X-02004Y00976D01*
X-01959Y01054D02*
X-01934Y01061D01*
X-02296Y00919D02*
X-02212Y00945D01*
X-02004Y0104D02*
X-01982Y01047D01*
X-01934Y00996D02*
X-01909Y01003D01*
X-01885Y01009*
X-01981Y01014D02*
X-01959Y01021D01*
X-02004Y01008D02*
X-01981Y01014D01*
X-01934Y01028D02*
X-01909Y01035D01*
X-01885Y01041*
X-01909Y01068D02*
X-01885Y01074D01*
X-01812Y01025D02*
X-0174Y01038D01*
X-01667Y01113D02*
X-01625Y01117D01*
X-0174Y01103D02*
X-01667Y01113D01*
X-01812Y0109D02*
X-0174Y01103D01*
X-01625Y01117D02*
X-01583Y0112D01*
X-01625Y01084D02*
X-01583Y01087D01*
X-01667Y0108D02*
X-01625Y01084D01*
X-0174Y01071D02*
X-01667Y0108D01*
X-01521Y0112D02*
X-01455Y0112D01*
X-01389Y0112D02*
X-01309Y01113D01*
X-01455Y0112D02*
X-01389Y0112D01*
X-01521Y01087D02*
X-01455Y01087D01*
X-01389Y01087*
X-01309Y0108*
X-01159Y01024D02*
X-01089Y01008D01*
X-01012Y01018D02*
X-00935Y00992D01*
X-01089Y0104D02*
X-01012Y01018D01*
X-01159Y01089D02*
X-01089Y01072D01*
X-00747Y00942D02*
X-00685Y00908D01*
X-00873Y00936D02*
X-00811Y00908D01*
X-00811Y00941D02*
X-00747Y00909D01*
X-02296Y00952D02*
X-02212Y00977D01*
X-01934Y01061D02*
X-01909Y01068D01*
X-01982Y01047D02*
X-01959Y01054D01*
X-02004Y00976D02*
X-01982Y00982D01*
X-01959Y00989*
X-0174Y01038D02*
X-01667Y01048D01*
X-01625Y01052D02*
X-01583Y01055D01*
X-01667Y01048D02*
X-01625Y01052D01*
X-01812Y01058D02*
X-0174Y01071D01*
X-01455Y01055D02*
X-01389Y01055D01*
X-01521Y01055D02*
X-01455Y01055D01*
X-01389Y01055D02*
X-01309Y01048D01*
X-01012Y01051D02*
X-00935Y01025D01*
X-01089Y01072D02*
X-01012Y01051D01*
Y00986D02*
X-00935Y0096D01*
X-01089Y01008D02*
X-01012Y00986D01*
X-01159Y01056D02*
X-01089Y0104D01*
X-00685Y00908D02*
X-00625Y00871D01*
X-00811Y00908D02*
X-00747Y00877D01*
X-00747Y00909D02*
X-00685Y00875D01*
X-00873Y01D02*
X-00811Y00973D01*
X-00747Y00942*
X-00873Y00968D02*
X-00811Y00941D01*
X-0123Y01037D02*
X-01159Y01024D01*
X-01885Y01009D02*
X-01812Y01025D01*
X-01309Y01113D02*
X-0123Y01102D01*
X-01885Y01074D02*
X-01812Y0109D01*
X-01583Y0112D02*
X-01521Y0112D01*
X-0123Y01102D02*
X-01159Y01089D01*
X-01309Y0108D02*
X-0123Y01069D01*
X-01583Y01087D02*
X-01521Y01087D01*
X-00625Y00871D02*
X-00571Y00836D01*
X-00935Y0096D02*
X-00873Y00936D01*
X-00935Y01025D02*
X-00873Y01D01*
X-02212Y00979D02*
X-02027Y01033D01*
X-01583Y01055D02*
X-01521Y01055D01*
X-01309Y01048D02*
X-0123Y01037D01*
X-01885Y01041D02*
X-01812Y01058D01*
X-0123Y01069D02*
X-01159Y01056D01*
X-00935Y00992D02*
X-00873Y00968D01*
X-02212Y00914D02*
X-02027Y00969D01*
X-02212Y00946D02*
X-02027Y01001D01*
X-00747Y00877D02*
X-00732Y00869D01*
X-00342Y00793D02*
X-00341D01*
X-00732Y00869D02*
X-00646Y00814D01*
X-00558Y00742*
X02397Y00917D02*
X02407Y00912D01*
X02379Y00927D02*
X02397Y00917D01*
X02407Y00903D02*
Y00912D01*
Y00903D02*
X02541Y00769D01*
Y0068D02*
Y00769D01*
X02302Y0095D02*
X02379Y00927D01*
X02302Y00951D02*
X02302Y0095D01*
X02272Y00848D02*
Y00849D01*
Y00848D02*
X0234Y00781D01*
X02355*
X02496Y00701D02*
Y00756D01*
X-02378Y00927D02*
X-023Y0095D01*
X-023Y00918D02*
X-023Y00918D01*
X-023Y0095D02*
X-023Y0095D01*
M02*