%FSTAX23Y23*%
%MOIN*%
%SFA1B1*%

%IPPOS*%
%ADD13C,0.010000*%
%ADD47C,0.017720*%
%ADD48C,0.062990*%
%LNlogger_layout_v2_5mil-1*%
%LPD*%
G36*
X00431Y00569D02*
X00431Y00564D01*
X00368Y00501*
X00367Y00498*
X00366Y00497*
X00368Y00493*
X00368*
X00493Y00368*
X00496Y00367*
X00497Y00366*
X00501Y00368*
X00568Y00435*
X006Y00405*
Y003*
Y00283*
X00596Y00251*
X00589Y0022*
X00579Y0019*
X00566Y0016*
X00549Y00133*
X0053Y00107*
X00508Y00083*
X00484Y00062*
X00457Y00044*
X00429Y00028*
X00399Y00016*
X00369Y00007*
X00338Y00002*
X00333Y00004*
X00332Y00011*
X00327Y00021*
X00326Y00023*
X00296Y-00006*
X0029Y0*
X00283Y-00006*
X00253Y00023*
X00252Y00021*
X00247Y00011*
X00247Y00008*
X00243Y00005*
X00241Y00005*
X00217Y00011*
X00218Y00016*
X0022Y00016*
X00224Y0002*
X00228Y00024*
X00229Y0003*
X00228Y00035*
X00224Y00039*
X0022Y00043*
X00216Y00043*
X00215Y00044*
X00216Y0005*
X00215Y00055*
X00212Y0006*
X00208Y00063*
X00202Y00064*
X00197Y00063*
X00192Y0006*
X00189Y00055*
X00188Y0005*
X00189Y00044*
X00192Y0004*
X00197Y00037*
X00197Y00037*
X00201Y00031*
X002Y0003*
X00201Y00024*
X00204Y0002*
X00203Y00017*
X00201Y00016*
X0018Y00024*
X00151Y00038*
X00124Y00056*
X00099Y00076*
X00076Y00099*
X00064Y00113*
X00065Y00118*
X00066Y00118*
X00071Y00126*
X00075Y00135*
X00076Y00145*
X00075Y00154*
X00071Y00163*
X00066Y00171*
X00058Y00176*
X00049Y0018*
X0004Y00181*
X0003Y0018*
X00029Y0018*
X00023Y00183*
X00013Y0021*
X00005Y00241*
X0Y00273*
X0Y00305*
X00001Y00337*
X00007Y00369*
X00016Y00399*
X00028Y00429*
X00044Y00457*
X00062Y00484*
X00083Y00508*
X00107Y0053*
X00133Y00549*
X0016Y00566*
X0019Y00579*
X0022Y00589*
X00251Y00596*
X00283Y006*
X004*
X00431Y00569*
G37*
%LNlogger_layout_v2_5mil-2*%
%LPC*%
G36*
X00251Y00484D02*
X00245Y00483D01*
X00241Y0048*
X00238Y00476*
X00237Y0047*
X00238Y00465*
X00241Y0046*
X00245Y00457*
X00251Y00456*
X00256Y00457*
X00261Y0046*
X00264Y00465*
X00265Y0047*
X00264Y00476*
X00261Y0048*
X00256Y00483*
X00251Y00484*
G37*
G36*
X00125Y00479D02*
X00119Y00478D01*
X00115Y00474*
X00111Y0047*
X0011Y00465*
X00111Y00459*
X00115Y00455*
X00119Y00451*
X00125Y0045*
X0013Y00451*
X00134Y00455*
X00138Y00459*
X00139Y00465*
X00138Y0047*
X00134Y00474*
X0013Y00478*
X00125Y00479*
G37*
G36*
X00326Y00464D02*
X0032Y00463D01*
X00316Y0046*
X00313Y00455*
X00311Y0045*
X00313Y00444*
X00316Y0044*
X0032Y00437*
X00326Y00436*
X00331Y00437*
X00336Y0044*
X00339Y00444*
X0034Y0045*
X00339Y00455*
X00336Y0046*
X00331Y00463*
X00326Y00464*
G37*
G36*
X0016Y00457D02*
X00154Y00456D01*
X0015Y00453*
X00147Y00449*
X00146Y00443*
X00147Y00438*
X0015Y00433*
X00154Y0043*
X0016Y00429*
X00165Y0043*
X0017Y00433*
X00173Y00438*
X00174Y00443*
X00173Y00449*
X0017Y00453*
X00165Y00456*
X0016Y00457*
G37*
G36*
X0038Y00444D02*
X00374Y00443D01*
X0037Y0044*
X00367Y00435*
X00366Y0043*
X00367Y00424*
X0037Y0042*
X00374Y00417*
X0038Y00416*
X00385Y00417*
X0039Y0042*
X00393Y00424*
X00394Y0043*
X00393Y00435*
X0039Y0044*
X00385Y00443*
X0038Y00444*
G37*
G36*
X00299Y00439D02*
X00293Y00438D01*
X00289Y00434*
X00285Y0043*
X00284Y00425*
X00285Y00419*
X00289Y00415*
X00293Y00411*
X00299Y0041*
X00304Y00411*
X00308Y00415*
X00312Y00419*
X00313Y00425*
X00312Y0043*
X00308Y00434*
X00304Y00438*
X00299Y00439*
G37*
G36*
X0024Y00429D02*
X00234Y00428D01*
X0023Y00424*
X00226Y0042*
X00225Y00415*
X00226Y00409*
X0023Y00405*
X00234Y00401*
X0024Y004*
X00245Y00401*
X00249Y00405*
X00253Y00409*
X00254Y00415*
X00253Y0042*
X00249Y00424*
X00245Y00428*
X0024Y00429*
G37*
G36*
X0006Y00434D02*
X00054Y00433D01*
X0005Y00429*
X00046Y00425*
X00045Y0042*
X00046Y00414*
X0005Y0041*
X00054Y00406*
X00055Y00406*
X00059Y00403*
X00058Y00398*
X00059Y00392*
X00062Y00388*
X00066Y00384*
X00072Y00383*
X00077Y00384*
X00082Y00388*
X00085Y00392*
X00085Y00395*
X00088Y00398*
X00091Y00398*
X00095Y00398*
X001Y00399*
X00104Y00402*
X00108Y00406*
X00109Y00412*
X00108Y00417*
X00104Y00422*
X001Y00425*
X00095Y00426*
X00089Y00425*
X00085Y00422*
X00081Y00417*
X00081Y00414*
X00078Y00411*
X00076Y00411*
X00073Y00414*
X00074Y0042*
X00073Y00425*
X00069Y00429*
X00065Y00433*
X0006Y00434*
G37*
G36*
X00039Y00385D02*
Y00372D01*
X00052*
X00052Y00374*
X00047Y00381*
X00041Y00385*
X00039Y00385*
G37*
G36*
X00029D02*
X00026Y00385D01*
X0002Y00381*
X00016Y00374*
X00016Y00372*
X00029*
Y00385*
G37*
G36*
X00408Y00386D02*
X00402Y00385D01*
X00398Y00382*
X00395Y00378*
X00394Y00372*
X00394Y00371*
X0039Y00367*
X0039Y00367*
X00384Y00366*
X0038Y00362*
X00376Y00358*
X00375Y00353*
X00376Y00347*
X0038Y00343*
X00384Y00339*
X0039Y00338*
X00395Y00339*
X00399Y00343*
X00403Y00347*
X00404Y00353*
X00403Y00354*
X00408Y00358*
X00408Y00358*
X00413Y00359*
X00418Y00362*
X00421Y00367*
X00422Y00372*
X00421Y00378*
X00418Y00382*
X00413Y00385*
X00408Y00386*
G37*
G36*
X00052Y00362D02*
X00039D01*
Y00349*
X00041Y00349*
X00047Y00353*
X00052Y0036*
X00052Y00362*
G37*
G36*
X00029D02*
X00016D01*
X00016Y0036*
X0002Y00353*
X00026Y00349*
X00029Y00349*
Y00362*
G37*
G36*
X00538Y00372D02*
X00533Y00371D01*
X00528Y00368*
X00525Y00363*
X00524Y00358*
X00525Y00352*
X00528Y00348*
X00533Y00345*
X00538Y00343*
X00544Y00345*
X00548Y00348*
X00551Y00352*
X00553Y00358*
X00551Y00363*
X00548Y00368*
X00544Y00371*
X00538Y00372*
G37*
G36*
X00024Y00329D02*
X00018Y00328D01*
X00014Y00324*
X0001Y0032*
X00009Y00315*
X0001Y00309*
X00014Y00305*
X00018Y00301*
X00024Y003*
X00029Y00301*
X00034Y00305*
X00037Y00309*
X00038Y00315*
X00037Y0032*
X00034Y00324*
X00029Y00328*
X00024Y00329*
G37*
G36*
X0041Y00306D02*
X00404Y00305D01*
X004Y00302*
X00397Y00297*
X00396Y00292*
X00397Y00286*
X004Y00282*
X00404Y00279*
X0041Y00278*
X00415Y00279*
X0042Y00282*
X00423Y00286*
X00424Y00292*
X00423Y00297*
X0042Y00302*
X00415Y00305*
X0041Y00306*
G37*
G36*
X00504Y00298D02*
X00499Y00297D01*
X00494Y00294*
X00491Y00289*
X0049Y00284*
X00491Y00279*
X00494Y00274*
X00499Y00271*
X00504Y0027*
X00509Y00271*
X00514Y00274*
X00517Y00279*
X00518Y00284*
X00517Y00289*
X00514Y00294*
X00509Y00297*
X00504Y00298*
G37*
G36*
X0045Y00294D02*
X00444Y00293D01*
X0044Y00289*
X00436Y00285*
X00435Y0028*
X00436Y00274*
X0044Y0027*
X00444Y00266*
X0045Y00265*
X00455Y00266*
X00459Y0027*
X00463Y00274*
X00464Y0028*
X00463Y00285*
X00459Y00289*
X00455Y00293*
X0045Y00294*
G37*
G36*
X00417Y00263D02*
X00411Y00262D01*
X00407Y00258*
X00404Y00254*
X00403Y00248*
X00404Y00243*
X00407Y00238*
X00411Y00235*
X00417Y00234*
X00422Y00235*
X00427Y00238*
X0043Y00243*
X00431Y00248*
X0043Y00254*
X00427Y00258*
X00422Y00262*
X00417Y00263*
G37*
G36*
X00121Y00212D02*
X00116Y00211D01*
X00111Y00208*
X00108Y00203*
X00107Y00198*
X00108Y00192*
X00111Y00188*
X00116Y00185*
X00121Y00184*
X00127Y00185*
X00131Y00188*
X00134Y00192*
X00135Y00198*
X00134Y00203*
X00131Y00208*
X00127Y00211*
X00121Y00212*
G37*
G36*
X00181Y00172D02*
X00175Y00171D01*
X00171Y00167*
X00167Y00163*
X00166Y00158*
X00162Y00155*
X00161Y00156*
X00155Y00155*
X00151Y00151*
X00148Y00147*
X00147Y00142*
X00148Y00136*
X00151Y00132*
X00153Y0013*
X00155Y00128*
X00155Y00124*
X00154Y00123*
X00153Y00117*
X00154Y00112*
X00157Y00107*
X00162Y00104*
X00167Y00103*
X00169Y00098*
X0017Y00094*
X00173Y0009*
X00178Y00087*
X00183Y00086*
X00188Y00087*
X00193Y0009*
X00196Y00094*
X00197Y001*
X00196Y00105*
X00193Y0011*
X00188Y00113*
X00183Y00114*
X00181Y00116*
X00181Y00117*
X0018Y00123*
X00177Y00127*
X00175Y00129*
X00172Y0013*
X00173Y00135*
X00174Y00136*
X00175Y00142*
X0018Y00144*
X00181Y00143*
X00186Y00144*
X0019Y00148*
X00194Y00152*
X00195Y00158*
X00194Y00163*
X0019Y00167*
X00186Y00171*
X00181Y00172*
G37*
G36*
X00122Y0017D02*
X00117Y00169D01*
X00112Y00166*
X00109Y00162*
X00108Y00156*
X00109Y00151*
X00112Y00146*
X00117Y00143*
X00122Y00142*
X00128Y00143*
X00132Y00146*
X00135Y00151*
X00136Y00156*
X00135Y00162*
X00132Y00166*
X00128Y00169*
X00122Y0017*
G37*
G36*
X00378Y00169D02*
X00373Y00168D01*
X00368Y00164*
X00365Y0016*
X00364Y00155*
X00365Y00149*
X00368Y00145*
X00373Y00141*
X00378Y0014*
X00383Y00141*
X00388Y00145*
X00391Y00149*
X00392Y00155*
X00391Y0016*
X00388Y00164*
X00383Y00168*
X00378Y00169*
G37*
G36*
X0022D02*
X00214Y00168D01*
X0021Y00164*
X00206Y0016*
X00205Y00155*
X00206Y00149*
X0021Y00145*
X00214Y00141*
X0022Y0014*
X00225Y00141*
X00229Y00145*
X00233Y00149*
X00234Y00155*
X00233Y0016*
X00229Y00164*
X00225Y00168*
X0022Y00169*
G37*
G36*
X00413Y00166D02*
X00407Y00165D01*
X00403Y00162*
X004Y00157*
X00399Y00152*
X004Y00147*
X00403Y00142*
X00407Y00139*
X00413Y00138*
X00418Y00139*
X00423Y00142*
X00426Y00147*
X00427Y00152*
X00426Y00157*
X00423Y00162*
X00418Y00165*
X00413Y00166*
G37*
G36*
X00319Y00149D02*
X00313Y00148D01*
X00309Y00144*
X00305Y0014*
X00304Y00135*
X00305Y00129*
X00309Y00125*
X00313Y00121*
X00319Y0012*
X00324Y00121*
X00328Y00125*
X00332Y00129*
X00333Y00135*
X00332Y0014*
X00328Y00144*
X00324Y00148*
X00319Y00149*
G37*
G36*
X0024Y00129D02*
X00234Y00128D01*
X0023Y00124*
X00226Y0012*
X00225Y00115*
X00226Y00109*
X0023Y00105*
X00234Y00101*
X0024Y001*
X00245Y00101*
X00249Y00105*
X00253Y00109*
X00254Y00115*
X00253Y0012*
X00249Y00124*
X00245Y00128*
X0024Y00129*
G37*
G36*
X00355Y00049D02*
X00349Y00048D01*
X00345Y00044*
X00341Y0004*
X0034Y00035*
X00341Y00029*
X00345Y00025*
X00349Y00021*
X00355Y0002*
X0036Y00021*
X00364Y00025*
X00368Y00029*
X00369Y00035*
X00368Y0004*
X00364Y00044*
X0036Y00048*
X00355Y00049*
G37*
G36*
X0029Y00043D02*
X00278Y00042D01*
X00268Y00037*
X00266Y00036*
X0029Y00012*
X00313Y00036*
X00311Y00037*
X00301Y00042*
X0029Y00043*
G37*
%LNlogger_layout_v2_5mil-3*%
%LPD*%
G54D13*
X00022Y00317D02*
X00024Y00315D01*
G54D47*
X00034Y00367D03*
X0019Y0038D03*
X00255Y0035D03*
X00062Y00442D03*
X00168Y00215D03*
X00151Y00538D03*
X00167Y00466D03*
X0052Y00375D03*
X0047D03*
X00024Y00315D03*
X00217Y00086D03*
X0038Y0003D03*
X00445Y004D03*
X00141Y00064D03*
X00424Y0042D03*
X00398Y00443D03*
X0038Y00467D03*
X00491Y00319D03*
X00156Y00325D03*
X00095Y00101D03*
X0036Y00495D03*
X00575Y00243D03*
X0057Y00205D03*
X00481Y00144D03*
X00175Y00185D03*
X00291Y00349D03*
X0033Y0035D03*
X00286Y00294D03*
X00196Y00274D03*
X00346Y00184D03*
X0039Y00541D03*
X0041Y00586D03*
X00365D03*
Y00516D03*
X00585Y00391D03*
X00565Y00365D03*
X0055Y004D03*
X00456Y00071D03*
G54D48*
X0029Y0D03*
M02*