G04*
G04 #@! TF.GenerationSoftware,Altium Limited,Altium Designer,20.0.13 (296)*
G04*
G04 Layer_Physical_Order=2*
G04 Layer_Color=36540*
%FSLAX25Y25*%
%MOIN*%
G70*
G01*
G75*
%ADD13C,0.01000*%
%ADD47C,0.01772*%
%ADD48C,0.06299*%
%ADD49C,0.02000*%
G36*
X39640Y58900D02*
X39587Y58631D01*
X39695Y58091D01*
X40001Y57632D01*
X40459Y57326D01*
X41000Y57218D01*
X41541Y57326D01*
X41920Y57580D01*
X43108Y56392D01*
X40995Y54279D01*
X40344Y54476D01*
X40305Y54672D01*
X39999Y55131D01*
X39541Y55437D01*
X39000Y55545D01*
X38459Y55437D01*
X38001Y55131D01*
X37695Y54672D01*
X37587Y54132D01*
X37695Y53591D01*
X38001Y53132D01*
X38459Y52826D01*
X38655Y52787D01*
X38826Y52225D01*
X38406Y51806D01*
X37844Y51977D01*
X37805Y52172D01*
X37499Y52631D01*
X37041Y52937D01*
X36500Y53044D01*
X35959Y52937D01*
X35501Y52631D01*
X35195Y52172D01*
X35087Y51631D01*
X35195Y51091D01*
X35408Y50771D01*
X35001Y50499D01*
X34695Y50041D01*
X34587Y49500D01*
X34695Y48959D01*
X35001Y48501D01*
X35459Y48195D01*
X36000Y48087D01*
X36541Y48195D01*
X36941Y48462D01*
X37060Y48422D01*
X37155Y48160D01*
X37158Y47956D01*
X37092Y47722D01*
X36786Y47263D01*
X36678Y46722D01*
X36786Y46182D01*
X37092Y45723D01*
X37550Y45417D01*
X38091Y45309D01*
X38169Y44729D01*
X38186Y44581D01*
X38013Y44426D01*
X37472Y44318D01*
X37014Y44012D01*
X36707Y43554D01*
X36600Y43013D01*
X36707Y42472D01*
X37014Y42014D01*
X37472Y41707D01*
X38013Y41600D01*
X38554Y41707D01*
X39012Y42014D01*
X39318Y42472D01*
X39844Y42944D01*
X40384Y43052D01*
X40843Y43358D01*
X41149Y43817D01*
X41199Y44066D01*
X41754Y44275D01*
X42030Y44030D01*
X42097Y43934D01*
X41912Y43401D01*
X41905Y43383D01*
X41448Y43078D01*
X41142Y42619D01*
X41034Y42079D01*
X41142Y41538D01*
X41448Y41079D01*
X41906Y40773D01*
X42447Y40666D01*
X42652Y40706D01*
X43163Y40224D01*
X43126Y40039D01*
X43234Y39499D01*
X43540Y39040D01*
X43999Y38734D01*
X44539Y38626D01*
X45080Y38734D01*
X45538Y39040D01*
X45688Y39264D01*
X46343Y39360D01*
X46361Y39355D01*
X46376Y39271D01*
X46262Y38673D01*
X46001Y38499D01*
X45695Y38041D01*
X45587Y37500D01*
X45695Y36959D01*
X46001Y36501D01*
X46459Y36195D01*
X47000Y36087D01*
X47541Y36195D01*
X47999Y36501D01*
X48305Y36959D01*
X48321Y37038D01*
X48972Y37235D01*
X49372Y36835D01*
X49583Y36748D01*
X49755Y36677D01*
X50117Y36827D01*
X50182Y36843D01*
X50861Y36710D01*
X51001Y36501D01*
X51459Y36195D01*
X52000Y36087D01*
X52475Y35807D01*
X52512Y35624D01*
X52583Y35266D01*
X52889Y34808D01*
X53347Y34502D01*
X53888Y34394D01*
X54429Y34502D01*
X54887Y34808D01*
X55089Y35109D01*
X55257Y35269D01*
X55811Y35294D01*
X55959Y35195D01*
X56500Y35087D01*
X57041Y35195D01*
X57499Y35501D01*
X57805Y35959D01*
X57913Y36500D01*
X57805Y37041D01*
X57604Y37342D01*
X57872Y37707D01*
X58009Y37816D01*
X58500Y37718D01*
X58900Y37798D01*
X59343Y37553D01*
X59500Y37411D01*
X59500Y30000D01*
X59500Y28419D01*
X59175Y25395D01*
X58900Y25268D01*
X58544Y25259D01*
X58507Y25315D01*
X58048Y25621D01*
X57508Y25729D01*
X56967Y25621D01*
X56509Y25315D01*
X56202Y24857D01*
X56095Y24316D01*
X56202Y23775D01*
X56509Y23317D01*
X56967Y23010D01*
X57508Y22903D01*
X58048Y23010D01*
X58057Y23016D01*
X58591Y22651D01*
X58490Y22184D01*
X58396Y21903D01*
X57697Y21701D01*
X57541Y21805D01*
X57000Y21913D01*
X56459Y21805D01*
X56001Y21499D01*
X55695Y21041D01*
X55587Y20500D01*
X55695Y19959D01*
X56001Y19501D01*
X56459Y19195D01*
X56805Y19126D01*
X57136Y18664D01*
X57184Y18512D01*
X56177Y16307D01*
X54564Y13587D01*
X52668Y11056D01*
X50513Y8741D01*
X48123Y6670D01*
X47311Y6106D01*
X46876Y6534D01*
X46914Y6592D01*
X47022Y7132D01*
X46914Y7673D01*
X46608Y8132D01*
X46150Y8438D01*
X45609Y8546D01*
X45068Y8438D01*
X44610Y8132D01*
X44303Y7673D01*
X44196Y7132D01*
X44303Y6592D01*
X44610Y6133D01*
X45068Y5827D01*
X45609Y5720D01*
X45740Y5746D01*
X45980Y5182D01*
X45526Y4866D01*
X42750Y3351D01*
X39829Y2140D01*
X39806Y2134D01*
X39642Y2240D01*
X39338Y2622D01*
X39413Y3000D01*
X39305Y3541D01*
X38999Y3999D01*
X38541Y4305D01*
X38000Y4413D01*
X37459Y4305D01*
X37346Y4230D01*
X36913Y4078D01*
X36577Y4383D01*
X36499Y4499D01*
X36041Y4805D01*
X35500Y4913D01*
X34959Y4805D01*
X34501Y4499D01*
X34195Y4041D01*
X34087Y3500D01*
X34195Y2959D01*
X34501Y2501D01*
X34959Y2195D01*
X35500Y2087D01*
X36041Y2195D01*
X36154Y2270D01*
X36587Y2422D01*
X36923Y2117D01*
X37001Y2001D01*
X37069Y1956D01*
X36969Y1301D01*
X36794Y1249D01*
X33682Y688D01*
X32601Y611D01*
X32556Y953D01*
X32188Y1840D01*
X31603Y2603D01*
X30841Y3188D01*
X29953Y3556D01*
X29000Y3681D01*
X28047Y3556D01*
X27160Y3188D01*
X26397Y2603D01*
X25812Y1840D01*
X25444Y953D01*
X25332Y868D01*
X24237Y1025D01*
X22704Y1416D01*
X22605Y1700D01*
X22549Y2075D01*
X22805Y2459D01*
X22913Y3000D01*
X22805Y3541D01*
X22499Y3999D01*
X22041Y4305D01*
X21609Y4391D01*
X21568Y4491D01*
X21675Y5032D01*
X21568Y5572D01*
X21261Y6031D01*
X20803Y6337D01*
X20262Y6444D01*
X19722Y6337D01*
X19263Y6031D01*
X18957Y5572D01*
X18849Y5032D01*
X18957Y4491D01*
X19263Y4032D01*
X19722Y3726D01*
X20100Y3064D01*
X20087Y3000D01*
X20119Y2841D01*
X19595Y2396D01*
X18210Y2912D01*
X15382Y4328D01*
X14905Y4634D01*
X14947Y5321D01*
X15164Y5466D01*
X15470Y5924D01*
X15578Y6465D01*
X15470Y7006D01*
X15164Y7464D01*
X14706Y7770D01*
X14165Y7878D01*
X13624Y7770D01*
X13166Y7464D01*
X12860Y7006D01*
X12807Y6739D01*
X12186Y6469D01*
X10259Y8022D01*
X10023Y8257D01*
X10198Y8931D01*
X10499Y9132D01*
X10805Y9591D01*
X10913Y10131D01*
X10805Y10672D01*
X10499Y11131D01*
X10041Y11437D01*
X9500Y11545D01*
X8959Y11437D01*
X8501Y11131D01*
X8315Y10852D01*
X7752Y10751D01*
X7604Y10778D01*
X6651Y11960D01*
X7188Y12659D01*
X7556Y13547D01*
X7633Y14138D01*
X12279D01*
X12865Y14254D01*
X13361Y14586D01*
X13692Y15082D01*
X13809Y15667D01*
X13692Y16252D01*
X13361Y16749D01*
X12865Y17080D01*
X12279Y17197D01*
X6601D01*
X6506Y17178D01*
X5841Y17688D01*
X4953Y18056D01*
X4000Y18181D01*
X3047Y18056D01*
X2771Y18590D01*
X1808Y21172D01*
X1025Y24236D01*
X575Y27367D01*
X463Y30527D01*
X688Y33681D01*
X1250Y36794D01*
X2141Y39828D01*
X3351Y42750D01*
X4278Y44448D01*
X4818Y44283D01*
X4858Y44257D01*
X4962Y43731D01*
X5269Y43273D01*
X5076Y43049D01*
X5001Y42999D01*
X4695Y42541D01*
X4587Y42000D01*
X4695Y41459D01*
X5001Y41001D01*
X5459Y40695D01*
X5926Y40342D01*
X5819Y39802D01*
X5926Y39261D01*
X6232Y38802D01*
X6691Y38496D01*
X7232Y38389D01*
X7772Y38496D01*
X8231Y38802D01*
X8537Y39261D01*
X8577Y39460D01*
X8881Y39831D01*
X9224Y39873D01*
X9500Y39819D01*
X10041Y39926D01*
X10499Y40232D01*
X10805Y40691D01*
X10913Y41232D01*
X10805Y41772D01*
X10499Y42231D01*
X10041Y42537D01*
X9500Y42645D01*
X8959Y42537D01*
X8501Y42231D01*
X8195Y41772D01*
X8173Y41664D01*
X8021Y41574D01*
X7386Y41582D01*
X7339Y41627D01*
X7413Y42000D01*
X7305Y42541D01*
X6999Y42999D01*
X7192Y43223D01*
X7267Y43273D01*
X7573Y43731D01*
X7681Y44272D01*
X7573Y44812D01*
X7267Y45271D01*
X6808Y45577D01*
X6268Y45685D01*
X5727Y45577D01*
X5551Y45459D01*
X5123Y45895D01*
X6670Y48123D01*
X8741Y50513D01*
X11056Y52668D01*
X13191Y54267D01*
X13734Y53924D01*
X13721Y53857D01*
X13829Y53316D01*
X14135Y52858D01*
X14593Y52552D01*
X15134Y52444D01*
X15675Y52552D01*
X16133Y52858D01*
X16439Y53316D01*
X16547Y53857D01*
X16439Y54398D01*
X16133Y54856D01*
X15721Y55132D01*
X15662Y55391D01*
X15640Y55781D01*
X16307Y56177D01*
X19184Y57491D01*
X22184Y58490D01*
X25274Y59162D01*
X28419Y59500D01*
X30000D01*
X30000Y59500D01*
X34747D01*
X35140Y58900D01*
X35087Y58631D01*
X35195Y58091D01*
X35501Y57632D01*
X35959Y57326D01*
X36500Y57218D01*
X37041Y57326D01*
X37499Y57632D01*
X37805Y58091D01*
X37913Y58631D01*
X37860Y58900D01*
X38253Y59500D01*
X39247D01*
X39640Y58900D01*
D02*
G37*
%LPC*%
G36*
X16753Y48050D02*
X16213Y47942D01*
X15754Y47636D01*
X15448Y47177D01*
X15340Y46637D01*
X15448Y46096D01*
X15754Y45638D01*
X16213Y45331D01*
X16753Y45224D01*
X17294Y45331D01*
X17752Y45638D01*
X18059Y46096D01*
X18166Y46637D01*
X18059Y47177D01*
X17752Y47636D01*
X17294Y47942D01*
X16753Y48050D01*
D02*
G37*
G36*
X12500Y47913D02*
X11959Y47805D01*
X11501Y47499D01*
X11195Y47041D01*
X11087Y46500D01*
X11195Y45959D01*
X11501Y45501D01*
X11959Y45195D01*
X12500Y45087D01*
X13041Y45195D01*
X13499Y45501D01*
X13805Y45959D01*
X13913Y46500D01*
X13805Y47041D01*
X13499Y47499D01*
X13041Y47805D01*
X12500Y47913D01*
D02*
G37*
G36*
X32609Y46435D02*
X32069Y46327D01*
X31610Y46021D01*
X31304Y45563D01*
X31196Y45022D01*
X31304Y44481D01*
X31610Y44023D01*
X32069Y43716D01*
X32609Y43609D01*
X33150Y43716D01*
X33609Y44023D01*
X33915Y44481D01*
X34022Y45022D01*
X33915Y45563D01*
X33609Y46021D01*
X33150Y46327D01*
X32609Y46435D01*
D02*
G37*
G36*
X29900Y43913D02*
X29359Y43805D01*
X28901Y43499D01*
X28595Y43041D01*
X28487Y42500D01*
X28595Y41959D01*
X28901Y41501D01*
X29359Y41195D01*
X29900Y41087D01*
X30441Y41195D01*
X30899Y41501D01*
X31205Y41959D01*
X31313Y42500D01*
X31205Y43041D01*
X30899Y43499D01*
X30441Y43805D01*
X29900Y43913D01*
D02*
G37*
G36*
X24000Y42913D02*
X23459Y42805D01*
X23001Y42499D01*
X22695Y42041D01*
X22587Y41500D01*
X22695Y40959D01*
X23001Y40501D01*
X23459Y40195D01*
X24000Y40087D01*
X24541Y40195D01*
X24999Y40501D01*
X25305Y40959D01*
X25413Y41500D01*
X25305Y42041D01*
X24999Y42499D01*
X24541Y42805D01*
X24000Y42913D01*
D02*
G37*
G36*
X19000Y39413D02*
X18459Y39305D01*
X18001Y38999D01*
X17695Y38541D01*
X17587Y38000D01*
X17695Y37459D01*
X18001Y37001D01*
X18459Y36695D01*
X19000Y36587D01*
X19541Y36695D01*
X19999Y37001D01*
X20305Y37459D01*
X20413Y38000D01*
X20305Y38541D01*
X19999Y38999D01*
X19541Y39305D01*
X19000Y39413D01*
D02*
G37*
G36*
X3429Y38153D02*
X2888Y38045D01*
X2429Y37739D01*
X2123Y37281D01*
X2015Y36740D01*
X2123Y36199D01*
X2429Y35741D01*
X2888Y35435D01*
X3429Y35327D01*
X3969Y35435D01*
X4428Y35741D01*
X4734Y36199D01*
X4841Y36740D01*
X4734Y37281D01*
X4428Y37739D01*
X3969Y38045D01*
X3429Y38153D01*
D02*
G37*
G36*
X40838Y38688D02*
X40297Y38581D01*
X39839Y38275D01*
X39533Y37816D01*
X39425Y37275D01*
X39432Y37239D01*
X39000Y36713D01*
X38459Y36605D01*
X38001Y36299D01*
X37695Y35841D01*
X37587Y35300D01*
X37695Y34759D01*
X38001Y34301D01*
X38459Y33995D01*
X39000Y33887D01*
X39541Y33995D01*
X39999Y34301D01*
X40305Y34759D01*
X40413Y35300D01*
X40406Y35337D01*
X40838Y35862D01*
X41379Y35970D01*
X41837Y36276D01*
X42143Y36735D01*
X42251Y37275D01*
X42143Y37816D01*
X41837Y38275D01*
X41379Y38581D01*
X40838Y38688D01*
D02*
G37*
G36*
X33000Y36413D02*
X32459Y36305D01*
X32001Y35999D01*
X31695Y35541D01*
X31587Y35000D01*
X31695Y34459D01*
X32001Y34001D01*
X32459Y33695D01*
X33000Y33587D01*
X33541Y33695D01*
X33999Y34001D01*
X34305Y34459D01*
X34413Y35000D01*
X34305Y35541D01*
X33999Y35999D01*
X33541Y36305D01*
X33000Y36413D01*
D02*
G37*
G36*
X25500D02*
X24959Y36305D01*
X24501Y35999D01*
X24195Y35541D01*
X24087Y35000D01*
X24195Y34459D01*
X24501Y34001D01*
X24959Y33695D01*
X25500Y33587D01*
X26041Y33695D01*
X26499Y34001D01*
X26805Y34459D01*
X26913Y35000D01*
X26805Y35541D01*
X26499Y35999D01*
X26041Y36305D01*
X25500Y36413D01*
D02*
G37*
G36*
X29165Y36378D02*
X28624Y36270D01*
X28166Y35964D01*
X27860Y35506D01*
X27752Y34965D01*
X27860Y34424D01*
X28166Y33966D01*
X28624Y33660D01*
X29165Y33552D01*
X29706Y33660D01*
X30164Y33966D01*
X30470Y34424D01*
X30578Y34965D01*
X30470Y35506D01*
X30164Y35964D01*
X29706Y36270D01*
X29165Y36378D01*
D02*
G37*
G36*
X15600Y33913D02*
X15059Y33805D01*
X14601Y33499D01*
X14295Y33041D01*
X14187Y32500D01*
X14295Y31959D01*
X14601Y31501D01*
X15059Y31195D01*
X15600Y31087D01*
X16141Y31195D01*
X16599Y31501D01*
X16905Y31959D01*
X17013Y32500D01*
X16905Y33041D01*
X16599Y33499D01*
X16141Y33805D01*
X15600Y33913D01*
D02*
G37*
G36*
X49165Y33378D02*
X48624Y33270D01*
X48166Y32964D01*
X47860Y32506D01*
X47752Y31965D01*
X47860Y31424D01*
X48166Y30966D01*
X48624Y30660D01*
X49165Y30552D01*
X49706Y30660D01*
X50164Y30966D01*
X50470Y31424D01*
X50578Y31965D01*
X50470Y32506D01*
X50164Y32964D01*
X49706Y33270D01*
X49165Y33378D01*
D02*
G37*
G36*
X28665Y30878D02*
X28124Y30770D01*
X27666Y30464D01*
X27360Y30006D01*
X27252Y29465D01*
X27360Y28924D01*
X27666Y28466D01*
X28124Y28160D01*
X28665Y28052D01*
X29206Y28160D01*
X29664Y28466D01*
X29970Y28924D01*
X30078Y29465D01*
X29970Y30006D01*
X29664Y30464D01*
X29206Y30770D01*
X28665Y30878D01*
D02*
G37*
G36*
X41025Y30627D02*
X40484Y30520D01*
X40026Y30213D01*
X39720Y29755D01*
X39612Y29214D01*
X39720Y28673D01*
X40026Y28215D01*
X40484Y27909D01*
X41025Y27801D01*
X41566Y27909D01*
X42024Y28215D01*
X42331Y28673D01*
X42438Y29214D01*
X42331Y29755D01*
X42024Y30213D01*
X41566Y30520D01*
X41025Y30627D01*
D02*
G37*
G36*
X45000Y29413D02*
X44459Y29305D01*
X44001Y28999D01*
X43695Y28541D01*
X43587Y28000D01*
X43695Y27459D01*
X44001Y27001D01*
X44459Y26695D01*
X45000Y26587D01*
X45541Y26695D01*
X45999Y27001D01*
X46305Y27459D01*
X46413Y28000D01*
X46305Y28541D01*
X45999Y28999D01*
X45541Y29305D01*
X45000Y29413D01*
D02*
G37*
G36*
X19665Y28878D02*
X19124Y28770D01*
X18666Y28464D01*
X18360Y28006D01*
X18252Y27465D01*
X18360Y26924D01*
X18666Y26466D01*
X19124Y26160D01*
X19665Y26052D01*
X20206Y26160D01*
X20664Y26466D01*
X20970Y26924D01*
X21078Y27465D01*
X20970Y28006D01*
X20664Y28464D01*
X20206Y28770D01*
X19665Y28878D01*
D02*
G37*
G36*
X41736Y26307D02*
X41195Y26200D01*
X40737Y25894D01*
X40431Y25435D01*
X40323Y24894D01*
X40431Y24354D01*
X40737Y23895D01*
X41195Y23589D01*
X41736Y23482D01*
X42277Y23589D01*
X42735Y23895D01*
X43042Y24354D01*
X43149Y24894D01*
X43042Y25435D01*
X42735Y25894D01*
X42277Y26200D01*
X41736Y26307D01*
D02*
G37*
G36*
X34665Y19878D02*
X34124Y19770D01*
X33666Y19464D01*
X33360Y19006D01*
X33252Y18465D01*
X33360Y17924D01*
X33666Y17466D01*
X34124Y17160D01*
X34665Y17052D01*
X35206Y17160D01*
X35664Y17466D01*
X35970Y17924D01*
X36078Y18465D01*
X35970Y19006D01*
X35664Y19464D01*
X35206Y19770D01*
X34665Y19878D01*
D02*
G37*
G36*
X22000Y16913D02*
X21459Y16805D01*
X21001Y16499D01*
X20695Y16041D01*
X20587Y15500D01*
X20695Y14959D01*
X21001Y14501D01*
X21459Y14195D01*
X22000Y14087D01*
X22541Y14195D01*
X22999Y14501D01*
X23305Y14959D01*
X23413Y15500D01*
X23305Y16041D01*
X22999Y16499D01*
X22541Y16805D01*
X22000Y16913D01*
D02*
G37*
G36*
X41327Y16662D02*
X40787Y16554D01*
X40328Y16248D01*
X40022Y15790D01*
X39915Y15249D01*
X40022Y14708D01*
X40328Y14250D01*
X40787Y13943D01*
X41327Y13836D01*
X41868Y13943D01*
X42327Y14250D01*
X42633Y14708D01*
X42740Y15249D01*
X42633Y15790D01*
X42327Y16248D01*
X41868Y16554D01*
X41327Y16662D01*
D02*
G37*
G36*
X48165Y15878D02*
X47624Y15770D01*
X47166Y15464D01*
X46860Y15006D01*
X46752Y14465D01*
X46860Y13924D01*
X47166Y13466D01*
X47624Y13160D01*
X48165Y13052D01*
X48706Y13160D01*
X49164Y13466D01*
X49470Y13924D01*
X49578Y14465D01*
X49470Y15006D01*
X49164Y15464D01*
X48706Y15770D01*
X48165Y15878D01*
D02*
G37*
G36*
X31900Y14913D02*
X31359Y14805D01*
X30901Y14499D01*
X30595Y14041D01*
X30487Y13500D01*
X30595Y12959D01*
X30901Y12501D01*
X31359Y12195D01*
X31900Y12087D01*
X32441Y12195D01*
X32899Y12501D01*
X33205Y12959D01*
X33313Y13500D01*
X33205Y14041D01*
X32899Y14499D01*
X32441Y14805D01*
X31900Y14913D01*
D02*
G37*
G36*
X16847Y22944D02*
X16307Y22837D01*
X15848Y22531D01*
X15542Y22072D01*
X15434Y21531D01*
X15542Y20991D01*
X15848Y20532D01*
X16307Y20226D01*
X16462Y20195D01*
X16589Y19558D01*
X16501Y19499D01*
X16195Y19041D01*
X16087Y18500D01*
X16195Y17959D01*
X16501Y17501D01*
X16786Y17310D01*
X16959Y17030D01*
X16957Y16583D01*
X16795Y16341D01*
X16687Y15800D01*
X16122Y15614D01*
X16113Y15611D01*
X15579Y15505D01*
X15121Y15199D01*
X14815Y14741D01*
X14707Y14200D01*
X14815Y13659D01*
X15121Y13201D01*
X15292Y13086D01*
X15579Y12892D01*
X15445Y12317D01*
X15445Y12316D01*
X15337Y11776D01*
X15445Y11235D01*
X15751Y10776D01*
X16209Y10470D01*
X16750Y10363D01*
X17291Y10470D01*
X17749Y10776D01*
X18055Y11235D01*
X18163Y11776D01*
X18055Y12316D01*
X17749Y12775D01*
X17578Y12889D01*
X17291Y13084D01*
X17425Y13658D01*
X17425Y13659D01*
X17533Y14200D01*
X18098Y14386D01*
X18107Y14389D01*
X18641Y14495D01*
X19099Y14801D01*
X19405Y15259D01*
X19513Y15800D01*
X19405Y16341D01*
X19099Y16799D01*
X18814Y16990D01*
X18641Y17270D01*
X18643Y17717D01*
X18805Y17959D01*
X18913Y18500D01*
X18805Y19041D01*
X18499Y19499D01*
X18041Y19805D01*
X17885Y19836D01*
X17758Y20473D01*
X17846Y20532D01*
X18153Y20991D01*
X18260Y21531D01*
X18153Y22072D01*
X17846Y22531D01*
X17388Y22837D01*
X16847Y22944D01*
D02*
G37*
G36*
X24000Y12913D02*
X23459Y12805D01*
X23001Y12499D01*
X22695Y12041D01*
X22587Y11500D01*
X22695Y10959D01*
X23001Y10501D01*
X23459Y10195D01*
X24000Y10087D01*
X24541Y10195D01*
X24999Y10501D01*
X25305Y10959D01*
X25413Y11500D01*
X25305Y12041D01*
X24999Y12499D01*
X24541Y12805D01*
X24000Y12913D01*
D02*
G37*
G36*
X21799Y10039D02*
X21259Y9931D01*
X20800Y9625D01*
X20494Y9167D01*
X20386Y8626D01*
X20494Y8085D01*
X20800Y7627D01*
X21259Y7321D01*
X21799Y7213D01*
X22340Y7321D01*
X22798Y7627D01*
X23105Y8085D01*
X23212Y8626D01*
X23105Y9167D01*
X22798Y9625D01*
X22340Y9931D01*
X21799Y10039D01*
D02*
G37*
%LPD*%
D13*
X18030Y15890D02*
X18110D01*
X31798Y13500D02*
X31998D01*
X5434Y14500D02*
X6601Y15667D01*
X4000Y14500D02*
X5434D01*
D47*
X16032Y44365D02*
D03*
X2402Y31500D02*
D03*
X18358Y10031D02*
D03*
X25131Y47069D02*
D03*
X18100Y15800D02*
D03*
X31900Y13500D02*
D03*
X12168Y19831D02*
D03*
X37850Y15500D02*
D03*
X50458Y28458D02*
D03*
X12279Y15667D02*
D03*
D48*
X4000Y14500D02*
D03*
D49*
X6601Y15667D02*
X12279D01*
M02*
