G04*
G04 #@! TF.GenerationSoftware,Altium Limited,Altium Designer,20.0.13 (296)*
G04*
G04 Layer_Color=16711935*
%FSLAX25Y25*%
%MOIN*%
G70*
G01*
G75*
%ADD34R,0.02965X0.02965*%
%ADD39R,0.02965X0.02965*%
%ADD42C,0.07099*%
%ADD58R,0.03359X0.02178*%
%ADD59R,0.05131X0.07493*%
%ADD60R,0.03556X0.03753*%
%ADD61R,0.01391X0.02769*%
%ADD62R,0.01784X0.07887*%
%ADD63P,0.08926X4X90.0*%
%ADD64R,0.03753X0.05524*%
%ADD65R,0.03359X0.03162*%
D34*
X33200Y38000D02*
D03*
X37800D02*
D03*
X37800Y32000D02*
D03*
X33200D02*
D03*
X41700D02*
D03*
X46300D02*
D03*
X8800Y19500D02*
D03*
X4200D02*
D03*
D39*
X22200Y32545D02*
D03*
Y37145D02*
D03*
X57500Y27800D02*
D03*
Y23200D02*
D03*
X18500Y42200D02*
D03*
Y46800D02*
D03*
X12000Y27000D02*
D03*
Y22400D02*
D03*
X3890Y27124D02*
D03*
Y22524D02*
D03*
X12350Y13212D02*
D03*
Y8612D02*
D03*
X8600Y12200D02*
D03*
Y16800D02*
D03*
D42*
X29000Y0D02*
D03*
X4000Y14500D02*
D03*
D58*
X4732Y30441D02*
D03*
Y33000D02*
D03*
Y35559D02*
D03*
X13000D02*
D03*
Y33000D02*
D03*
Y30441D02*
D03*
D59*
X8866Y33000D02*
D03*
D60*
X12968Y48158D02*
D03*
Y42843D02*
D03*
X9031D02*
D03*
Y48158D02*
D03*
D61*
X10000Y23244D02*
D03*
X8622D02*
D03*
X7244D02*
D03*
X5866D02*
D03*
Y26000D02*
D03*
X7244D02*
D03*
X8622D02*
D03*
X10000D02*
D03*
D62*
X22142Y24374D02*
D03*
Y8626D02*
D03*
X24110Y24374D02*
D03*
Y8626D02*
D03*
X26079Y24374D02*
D03*
Y8626D02*
D03*
X28047Y24374D02*
D03*
Y8626D02*
D03*
X30016Y24374D02*
D03*
Y8626D02*
D03*
X31984Y24374D02*
D03*
Y8626D02*
D03*
X33953Y24374D02*
D03*
Y8626D02*
D03*
X35921Y24374D02*
D03*
Y8626D02*
D03*
X37890Y24374D02*
D03*
Y8626D02*
D03*
X39858Y24374D02*
D03*
Y8626D02*
D03*
D63*
X29562Y48608D02*
D03*
X23438Y54733D02*
D03*
D64*
X52500Y29693D02*
D03*
Y16307D02*
D03*
D65*
X26228Y32244D02*
D03*
X29772D02*
D03*
Y37756D02*
D03*
X26228D02*
D03*
M02*
