G04*
G04 #@! TF.GenerationSoftware,Altium Limited,Altium Designer,20.0.13 (296)*
G04*
G04 Layer_Physical_Order=3*
G04 Layer_Color=16440176*
%FSLAX25Y25*%
%MOIN*%
G70*
G01*
G75*
%ADD13C,0.01000*%
%ADD47C,0.01772*%
%ADD48C,0.06299*%
G36*
X43146Y56933D02*
X43149Y56433D01*
X36844Y50128D01*
X36719Y49825D01*
X36686Y49745D01*
X36844Y49363D01*
X36845Y49363D01*
X49372Y36835D01*
X49675Y36709D01*
X49755Y36677D01*
X50137Y36835D01*
X50137Y36835D01*
X56862Y43560D01*
X60000Y40500D01*
Y30000D01*
Y28392D01*
X59656Y25194D01*
X58973Y22052D01*
X57957Y19000D01*
X56621Y16075D01*
X54980Y13309D01*
X53053Y10734D01*
X50861Y8381D01*
X48430Y6274D01*
X45789Y4440D01*
X42966Y2899D01*
X39995Y1668D01*
X36909Y762D01*
X33856Y211D01*
X33328Y451D01*
X33238Y1135D01*
X32799Y2194D01*
X32655Y2382D01*
X29636Y-636D01*
X29000Y0D01*
X28364Y-636D01*
X25345Y2382D01*
X25201Y2194D01*
X24762Y1135D01*
X24720Y810D01*
X24321Y508D01*
X24139Y534D01*
X21787Y1134D01*
X21801Y1647D01*
X22041Y1695D01*
X22499Y2001D01*
X22805Y2459D01*
X22913Y3000D01*
X22805Y3541D01*
X22499Y3999D01*
X22041Y4305D01*
X21609Y4391D01*
X21568Y4491D01*
X21675Y5032D01*
X21568Y5572D01*
X21261Y6031D01*
X20803Y6337D01*
X20262Y6444D01*
X19722Y6337D01*
X19263Y6031D01*
X18957Y5572D01*
X18849Y5032D01*
X18957Y4491D01*
X19263Y4032D01*
X19722Y3726D01*
X19758Y3719D01*
X20119Y3162D01*
X20087Y3000D01*
X20195Y2459D01*
X20450Y2077D01*
X20310Y1784D01*
X20185Y1642D01*
X18009Y2454D01*
X15134Y3893D01*
X12428Y5632D01*
X9924Y7650D01*
X7650Y9924D01*
X6492Y11361D01*
X6551Y11857D01*
X6603Y11897D01*
X7188Y12659D01*
X7556Y13547D01*
X7681Y14500D01*
X7556Y15453D01*
X7188Y16341D01*
X6603Y17103D01*
X5841Y17688D01*
X4953Y18056D01*
X4000Y18181D01*
X3047Y18056D01*
X2915Y18001D01*
X2343Y18304D01*
X1330Y21023D01*
X534Y24139D01*
X77Y27322D01*
X-38Y30536D01*
X191Y33744D01*
X762Y36909D01*
X1668Y39995D01*
X2899Y42966D01*
X4440Y45789D01*
X6274Y48430D01*
X8381Y50861D01*
X10734Y53053D01*
X13309Y54980D01*
X16075Y56621D01*
X19000Y57957D01*
X22052Y58973D01*
X25194Y59656D01*
X28392Y60000D01*
X40000D01*
X43146Y56933D01*
D02*
G37*
%LPC*%
G36*
X25131Y48482D02*
X24590Y48375D01*
X24132Y48068D01*
X23826Y47610D01*
X23718Y47069D01*
X23826Y46528D01*
X24132Y46070D01*
X24590Y45764D01*
X25131Y45656D01*
X25672Y45764D01*
X26130Y46070D01*
X26436Y46528D01*
X26544Y47069D01*
X26436Y47610D01*
X26130Y48068D01*
X25672Y48375D01*
X25131Y48482D01*
D02*
G37*
G36*
X12500Y47913D02*
X11959Y47805D01*
X11501Y47499D01*
X11195Y47041D01*
X11087Y46500D01*
X11195Y45959D01*
X11501Y45501D01*
X11959Y45195D01*
X12500Y45087D01*
X13041Y45195D01*
X13499Y45501D01*
X13805Y45959D01*
X13913Y46500D01*
X13805Y47041D01*
X13499Y47499D01*
X13041Y47805D01*
X12500Y47913D01*
D02*
G37*
G36*
X32609Y46435D02*
X32069Y46327D01*
X31610Y46021D01*
X31304Y45563D01*
X31196Y45022D01*
X31304Y44481D01*
X31610Y44023D01*
X32069Y43716D01*
X32609Y43609D01*
X33150Y43716D01*
X33609Y44023D01*
X33915Y44481D01*
X34022Y45022D01*
X33915Y45563D01*
X33609Y46021D01*
X33150Y46327D01*
X32609Y46435D01*
D02*
G37*
G36*
X16032Y45778D02*
X15491Y45671D01*
X15033Y45364D01*
X14726Y44906D01*
X14619Y44365D01*
X14726Y43824D01*
X15033Y43366D01*
X15491Y43060D01*
X16032Y42952D01*
X16572Y43060D01*
X17031Y43366D01*
X17337Y43824D01*
X17445Y44365D01*
X17337Y44906D01*
X17031Y45364D01*
X16572Y45671D01*
X16032Y45778D01*
D02*
G37*
G36*
X38013Y44426D02*
X37472Y44318D01*
X37014Y44012D01*
X36707Y43554D01*
X36600Y43013D01*
X36707Y42472D01*
X37014Y42014D01*
X37472Y41707D01*
X38013Y41600D01*
X38554Y41707D01*
X39012Y42014D01*
X39318Y42472D01*
X39426Y43013D01*
X39318Y43554D01*
X39012Y44012D01*
X38554Y44318D01*
X38013Y44426D01*
D02*
G37*
G36*
X29900Y43913D02*
X29359Y43805D01*
X28901Y43499D01*
X28595Y43041D01*
X28487Y42500D01*
X28595Y41959D01*
X28901Y41501D01*
X29359Y41195D01*
X29900Y41087D01*
X30441Y41195D01*
X30899Y41501D01*
X31205Y41959D01*
X31313Y42500D01*
X31205Y43041D01*
X30899Y43499D01*
X30441Y43805D01*
X29900Y43913D01*
D02*
G37*
G36*
X24000Y42913D02*
X23459Y42805D01*
X23001Y42499D01*
X22695Y42041D01*
X22587Y41500D01*
X22695Y40959D01*
X23001Y40501D01*
X23459Y40195D01*
X24000Y40087D01*
X24541Y40195D01*
X24999Y40501D01*
X25305Y40959D01*
X25413Y41500D01*
X25305Y42041D01*
X24999Y42499D01*
X24541Y42805D01*
X24000Y42913D01*
D02*
G37*
G36*
X6000Y43413D02*
X5459Y43305D01*
X5001Y42999D01*
X4695Y42541D01*
X4587Y42000D01*
X4695Y41459D01*
X5001Y41001D01*
X5459Y40695D01*
X5548Y40677D01*
X5926Y40342D01*
X5819Y39802D01*
X5926Y39261D01*
X6232Y38802D01*
X6691Y38496D01*
X7232Y38389D01*
X7772Y38496D01*
X8231Y38802D01*
X8537Y39261D01*
X8598Y39566D01*
X8877Y39844D01*
X9133Y39891D01*
X9500Y39819D01*
X10041Y39926D01*
X10499Y40232D01*
X10805Y40691D01*
X10913Y41232D01*
X10805Y41772D01*
X10499Y42231D01*
X10041Y42537D01*
X9500Y42645D01*
X8959Y42537D01*
X8501Y42231D01*
X8195Y41772D01*
X8134Y41467D01*
X7854Y41189D01*
X7656Y41152D01*
X7310Y41480D01*
X7413Y42000D01*
X7305Y42541D01*
X6999Y42999D01*
X6541Y43305D01*
X6000Y43413D01*
D02*
G37*
G36*
X3929Y38563D02*
Y37240D01*
X5252D01*
X5205Y37476D01*
X4788Y38100D01*
X4164Y38517D01*
X3929Y38563D01*
D02*
G37*
G36*
X2929D02*
X2693Y38517D01*
X2069Y38100D01*
X1652Y37476D01*
X1605Y37240D01*
X2929D01*
Y38563D01*
D02*
G37*
G36*
X40838Y38688D02*
X40297Y38581D01*
X39839Y38275D01*
X39533Y37816D01*
X39425Y37275D01*
X39453Y37133D01*
X39028Y36707D01*
X39000Y36713D01*
X38459Y36605D01*
X38001Y36299D01*
X37695Y35841D01*
X37587Y35300D01*
X37695Y34759D01*
X38001Y34301D01*
X38459Y33995D01*
X39000Y33887D01*
X39541Y33995D01*
X39999Y34301D01*
X40305Y34759D01*
X40413Y35300D01*
X40385Y35443D01*
X40810Y35868D01*
X40838Y35862D01*
X41379Y35970D01*
X41837Y36276D01*
X42143Y36735D01*
X42251Y37275D01*
X42143Y37816D01*
X41837Y38275D01*
X41379Y38581D01*
X40838Y38688D01*
D02*
G37*
G36*
X5252Y36240D02*
X3929D01*
Y34917D01*
X4164Y34964D01*
X4788Y35381D01*
X5205Y36004D01*
X5252Y36240D01*
D02*
G37*
G36*
X2929D02*
X1605D01*
X1652Y36004D01*
X2069Y35381D01*
X2693Y34964D01*
X2929Y34917D01*
Y36240D01*
D02*
G37*
G36*
X53888Y37220D02*
X53347Y37113D01*
X52889Y36806D01*
X52583Y36348D01*
X52475Y35807D01*
X52583Y35266D01*
X52889Y34808D01*
X53347Y34502D01*
X53888Y34394D01*
X54429Y34502D01*
X54887Y34808D01*
X55194Y35266D01*
X55301Y35807D01*
X55194Y36348D01*
X54887Y36806D01*
X54429Y37113D01*
X53888Y37220D01*
D02*
G37*
G36*
X2402Y32913D02*
X1861Y32805D01*
X1403Y32499D01*
X1097Y32041D01*
X989Y31500D01*
X1097Y30959D01*
X1403Y30501D01*
X1861Y30195D01*
X2402Y30087D01*
X2943Y30195D01*
X3401Y30501D01*
X3707Y30959D01*
X3815Y31500D01*
X3707Y32041D01*
X3401Y32499D01*
X2943Y32805D01*
X2402Y32913D01*
D02*
G37*
G36*
X41025Y30627D02*
X40484Y30520D01*
X40026Y30213D01*
X39720Y29755D01*
X39612Y29214D01*
X39720Y28673D01*
X40026Y28215D01*
X40484Y27909D01*
X41025Y27801D01*
X41566Y27909D01*
X42024Y28215D01*
X42331Y28673D01*
X42438Y29214D01*
X42331Y29755D01*
X42024Y30213D01*
X41566Y30520D01*
X41025Y30627D01*
D02*
G37*
G36*
X50458Y29871D02*
X49917Y29763D01*
X49459Y29457D01*
X49152Y28999D01*
X49045Y28458D01*
X49152Y27917D01*
X49459Y27459D01*
X49917Y27152D01*
X50458Y27045D01*
X50999Y27152D01*
X51457Y27459D01*
X51763Y27917D01*
X51871Y28458D01*
X51763Y28999D01*
X51457Y29457D01*
X50999Y29763D01*
X50458Y29871D01*
D02*
G37*
G36*
X45000Y29413D02*
X44459Y29305D01*
X44001Y28999D01*
X43695Y28541D01*
X43587Y28000D01*
X43695Y27459D01*
X44001Y27001D01*
X44459Y26695D01*
X45000Y26587D01*
X45541Y26695D01*
X45999Y27001D01*
X46305Y27459D01*
X46413Y28000D01*
X46305Y28541D01*
X45999Y28999D01*
X45541Y29305D01*
X45000Y29413D01*
D02*
G37*
G36*
X41736Y26307D02*
X41195Y26200D01*
X40737Y25894D01*
X40431Y25435D01*
X40323Y24894D01*
X40431Y24354D01*
X40737Y23895D01*
X41195Y23589D01*
X41736Y23482D01*
X42277Y23589D01*
X42735Y23895D01*
X43042Y24354D01*
X43149Y24894D01*
X43042Y25435D01*
X42735Y25894D01*
X42277Y26200D01*
X41736Y26307D01*
D02*
G37*
G36*
X12168Y21245D02*
X11628Y21137D01*
X11169Y20831D01*
X10863Y20372D01*
X10756Y19831D01*
X10863Y19291D01*
X11169Y18832D01*
X11628Y18526D01*
X12168Y18418D01*
X12709Y18526D01*
X13168Y18832D01*
X13474Y19291D01*
X13581Y19831D01*
X13474Y20372D01*
X13168Y20831D01*
X12709Y21137D01*
X12168Y21245D01*
D02*
G37*
G36*
X18100Y17213D02*
X17559Y17105D01*
X17101Y16799D01*
X16795Y16341D01*
X16687Y15800D01*
X16218Y15593D01*
X16120Y15613D01*
X15579Y15505D01*
X15121Y15199D01*
X14815Y14741D01*
X14707Y14200D01*
X14815Y13659D01*
X15121Y13201D01*
X15369Y13035D01*
X15579Y12892D01*
X15501Y12400D01*
X15445Y12316D01*
X15337Y11776D01*
X15445Y11235D01*
X15751Y10776D01*
X16209Y10470D01*
X16750Y10363D01*
X16971Y9897D01*
X17052Y9491D01*
X17358Y9032D01*
X17817Y8726D01*
X18358Y8619D01*
X18898Y8726D01*
X19357Y9032D01*
X19663Y9491D01*
X19771Y10031D01*
X19663Y10572D01*
X19357Y11031D01*
X18898Y11337D01*
X18358Y11444D01*
X18140Y11662D01*
X18163Y11776D01*
X18055Y12316D01*
X17749Y12775D01*
X17501Y12941D01*
X17291Y13084D01*
X17369Y13575D01*
X17425Y13659D01*
X17533Y14200D01*
X18002Y14407D01*
X18100Y14387D01*
X18641Y14495D01*
X19099Y14801D01*
X19405Y15259D01*
X19513Y15800D01*
X19405Y16341D01*
X19099Y16799D01*
X18641Y17105D01*
X18100Y17213D01*
D02*
G37*
G36*
X12279Y17080D02*
X11738Y16973D01*
X11280Y16666D01*
X10974Y16208D01*
X10866Y15667D01*
X10974Y15127D01*
X11280Y14668D01*
X11738Y14362D01*
X12279Y14254D01*
X12820Y14362D01*
X13278Y14668D01*
X13585Y15127D01*
X13692Y15667D01*
X13585Y16208D01*
X13278Y16666D01*
X12820Y16973D01*
X12279Y17080D01*
D02*
G37*
G36*
X37850Y16913D02*
X37309Y16805D01*
X36851Y16499D01*
X36545Y16041D01*
X36437Y15500D01*
X36545Y14959D01*
X36851Y14501D01*
X37309Y14195D01*
X37850Y14087D01*
X38391Y14195D01*
X38849Y14501D01*
X39155Y14959D01*
X39263Y15500D01*
X39155Y16041D01*
X38849Y16499D01*
X38391Y16805D01*
X37850Y16913D01*
D02*
G37*
G36*
X22000D02*
X21459Y16805D01*
X21001Y16499D01*
X20695Y16041D01*
X20587Y15500D01*
X20695Y14959D01*
X21001Y14501D01*
X21459Y14195D01*
X22000Y14087D01*
X22541Y14195D01*
X22999Y14501D01*
X23305Y14959D01*
X23413Y15500D01*
X23305Y16041D01*
X22999Y16499D01*
X22541Y16805D01*
X22000Y16913D01*
D02*
G37*
G36*
X41327Y16662D02*
X40787Y16554D01*
X40328Y16248D01*
X40022Y15790D01*
X39915Y15249D01*
X40022Y14708D01*
X40328Y14250D01*
X40787Y13943D01*
X41327Y13836D01*
X41868Y13943D01*
X42327Y14250D01*
X42633Y14708D01*
X42740Y15249D01*
X42633Y15790D01*
X42327Y16248D01*
X41868Y16554D01*
X41327Y16662D01*
D02*
G37*
G36*
X31900Y14913D02*
X31359Y14805D01*
X30901Y14499D01*
X30595Y14041D01*
X30487Y13500D01*
X30595Y12959D01*
X30901Y12501D01*
X31359Y12195D01*
X31900Y12087D01*
X32441Y12195D01*
X32899Y12501D01*
X33205Y12959D01*
X33313Y13500D01*
X33205Y14041D01*
X32899Y14499D01*
X32441Y14805D01*
X31900Y14913D01*
D02*
G37*
G36*
X24000Y12913D02*
X23459Y12805D01*
X23001Y12499D01*
X22695Y12041D01*
X22587Y11500D01*
X22695Y10959D01*
X23001Y10501D01*
X23459Y10195D01*
X24000Y10087D01*
X24541Y10195D01*
X24999Y10501D01*
X25305Y10959D01*
X25413Y11500D01*
X25305Y12041D01*
X24999Y12499D01*
X24541Y12805D01*
X24000Y12913D01*
D02*
G37*
G36*
X35500Y4913D02*
X34959Y4805D01*
X34501Y4499D01*
X34195Y4041D01*
X34087Y3500D01*
X34195Y2959D01*
X34501Y2501D01*
X34959Y2195D01*
X35500Y2087D01*
X36041Y2195D01*
X36499Y2501D01*
X36805Y2959D01*
X36913Y3500D01*
X36805Y4041D01*
X36499Y4499D01*
X36041Y4805D01*
X35500Y4913D01*
D02*
G37*
G36*
X29000Y4387D02*
X27865Y4238D01*
X26806Y3799D01*
X26618Y3655D01*
X29000Y1273D01*
X31382Y3655D01*
X31194Y3799D01*
X30136Y4238D01*
X29000Y4387D01*
D02*
G37*
%LPD*%
D13*
X2224Y31747D02*
X2402Y31570D01*
D47*
X3429Y36740D02*
D03*
X19000Y38000D02*
D03*
X25500Y35000D02*
D03*
X6268Y44272D02*
D03*
X16847Y21531D02*
D03*
X15134Y53857D02*
D03*
X16753Y46637D02*
D03*
X52000Y37500D02*
D03*
X47000D02*
D03*
X2402Y31500D02*
D03*
X21799Y8626D02*
D03*
X38000Y3000D02*
D03*
X44539Y40039D02*
D03*
X14165Y6465D02*
D03*
X42447Y42079D02*
D03*
X39844Y44357D02*
D03*
X38091Y46722D02*
D03*
X49165Y31965D02*
D03*
X15600Y32500D02*
D03*
X9500Y10131D02*
D03*
X36000Y49500D02*
D03*
X57508Y24316D02*
D03*
X57000Y20500D02*
D03*
X48165Y14465D02*
D03*
X17500Y18500D02*
D03*
X29165Y34965D02*
D03*
X33000Y35000D02*
D03*
X28665Y29465D02*
D03*
X19665Y27465D02*
D03*
X34665Y18465D02*
D03*
X39000Y54132D02*
D03*
X41000Y58631D02*
D03*
X36500D02*
D03*
Y51631D02*
D03*
X58500Y39132D02*
D03*
X56500Y36500D02*
D03*
X55000Y40000D02*
D03*
X45609Y7132D02*
D03*
D48*
X29000Y0D02*
D03*
M02*
