G04*
G04 #@! TF.GenerationSoftware,Altium Limited,Altium Designer,20.0.13 (296)*
G04*
G04 Layer_Color=65280*
%FSLAX25Y25*%
%MOIN*%
G70*
G01*
G75*
%ADD10C,0.00984*%
%ADD11C,0.00787*%
%ADD12C,0.00394*%
%ADD13C,0.01000*%
%ADD46C,0.00600*%
D10*
X3945Y27784D02*
G03*
X3945Y27784I-492J0D01*
G01*
D11*
X32903Y45824D02*
G03*
X32346Y45267I-278J-278D01*
G01*
D02*
G03*
X32903Y45824I278J278D01*
G01*
D12*
X15724Y48256D02*
G03*
X15331Y48256I-197J0D01*
G01*
D02*
G03*
X15724Y48256I197J0D01*
G01*
X9901Y21472D02*
G03*
X10295Y21472I197J0D01*
G01*
D02*
G03*
X9901Y21472I-197J0D01*
G01*
X13677Y5870D02*
X19189D01*
X13677D02*
Y27130D01*
X19189D01*
X42811Y5870D02*
X48323D01*
Y27130D01*
X42811D02*
X48323D01*
X25526Y59604D02*
X34434Y50696D01*
X18566Y52645D02*
X27474Y43736D01*
D13*
X25126Y29961D02*
G03*
X25126Y29958I197J0D01*
G01*
X56500Y25501D02*
X58500D01*
X17500Y44499D02*
X19500D01*
X2890Y24825D02*
X4890D01*
X11350Y10913D02*
X13350D01*
X7600Y14499D02*
X9600D01*
D46*
X57567Y39605D02*
X57900Y39939D01*
X58567D01*
X58900Y39605D01*
Y38272D01*
X58567Y37939D01*
X57900D01*
X57567Y38272D01*
X56901Y39939D02*
Y37939D01*
Y38939D01*
X55568D01*
Y39939D01*
Y37939D01*
X54901Y39939D02*
Y37939D01*
X54235Y38606D01*
X53568Y37939D01*
Y39939D01*
X52902Y37939D02*
Y39272D01*
X52236Y39939D01*
X51569Y39272D01*
Y37939D01*
Y38939D01*
X52902D01*
X50903Y39939D02*
Y37939D01*
X49570D01*
X47570Y39939D02*
X48903D01*
Y37939D01*
X47570D01*
X48903Y38939D02*
X48237D01*
X46904Y39939D02*
Y37939D01*
Y38606D01*
X45571Y39939D01*
X46571Y38939D01*
X45571Y37939D01*
X58900Y34100D02*
Y36099D01*
X57900D01*
X57567Y35766D01*
Y35100D01*
X57900Y34766D01*
X58900D01*
X56901Y34100D02*
Y36099D01*
X55901D01*
X55568Y35766D01*
Y35100D01*
X55901Y34766D01*
X56901D01*
X56234D02*
X55568Y34100D01*
X53902Y36099D02*
X54568D01*
X54901Y35766D01*
Y34433D01*
X54568Y34100D01*
X53902D01*
X53568Y34433D01*
Y35766D01*
X53902Y36099D01*
X51569D02*
X52236D01*
X51902D01*
Y34433D01*
X52236Y34100D01*
X52569D01*
X52902Y34433D01*
X48903Y36099D02*
Y34100D01*
Y34766D01*
X47570Y36099D01*
X48570Y35100D01*
X47570Y34100D01*
X45904Y36099D02*
X46571D01*
X46904Y35766D01*
Y34433D01*
X46571Y34100D01*
X45904D01*
X45571Y34433D01*
Y35766D01*
X45904Y36099D01*
X43905D02*
X44571D01*
X44905Y35766D01*
Y34433D01*
X44571Y34100D01*
X43905D01*
X43572Y34433D01*
Y35766D01*
X43905Y36099D01*
X41572Y35766D02*
X41906Y36099D01*
X42572D01*
X42905Y35766D01*
Y35433D01*
X42572Y35100D01*
X41906D01*
X41572Y34766D01*
Y34433D01*
X41906Y34100D01*
X42572D01*
X42905Y34433D01*
X40906Y36099D02*
Y34100D01*
Y35100D01*
X39573D01*
Y36099D01*
Y34100D01*
X41900Y56100D02*
Y58099D01*
X40900D01*
X40567Y57766D01*
Y57100D01*
X40900Y56766D01*
X41900D01*
X41234D02*
X40567Y56100D01*
X38901D02*
X39567D01*
X39901Y56433D01*
Y57100D01*
X39567Y57433D01*
X38901D01*
X38568Y57100D01*
Y56766D01*
X39901D01*
X37901Y56100D02*
X36902D01*
X36568Y56433D01*
X36902Y56766D01*
X37568D01*
X37901Y57100D01*
X37568Y57433D01*
X36568D01*
X34569Y58099D02*
X35902D01*
Y56100D01*
X34569D01*
X35902Y57100D02*
X35236D01*
X33903Y56100D02*
Y57433D01*
X32903D01*
X32570Y57100D01*
Y56100D01*
X31903Y57433D02*
X31237Y56100D01*
X30570Y57433D01*
X38644Y42080D02*
X38311Y42413D01*
X37644D01*
X37311Y42080D01*
Y41747D01*
X37644Y41414D01*
X37977D01*
X37644D01*
X37311Y41081D01*
Y40747D01*
X37644Y40414D01*
X38311D01*
X38644Y40747D01*
X36644Y40414D02*
X35311Y41747D01*
X34645Y40414D02*
X33979D01*
X34312D01*
Y42413D01*
X34645Y42080D01*
X32979Y40747D02*
X32646Y40414D01*
X31979D01*
X31646Y40747D01*
Y42080D01*
X31979Y42413D01*
X32646D01*
X32979Y42080D01*
Y41747D01*
X32646Y41414D01*
X31646D01*
X30980Y40414D02*
X29647Y41747D01*
X27647Y40414D02*
X28980D01*
X27647Y41747D01*
Y42080D01*
X27981Y42413D01*
X28647D01*
X28980Y42080D01*
X26981D02*
X26648Y42413D01*
X25981D01*
X25648Y42080D01*
Y40747D01*
X25981Y40414D01*
X26648D01*
X26981Y40747D01*
Y42080D01*
X23649Y40414D02*
X24982D01*
X23649Y41747D01*
Y42080D01*
X23982Y42413D01*
X24648D01*
X24982Y42080D01*
X22982D02*
X22649Y42413D01*
X21982D01*
X21649Y42080D01*
Y40747D01*
X21982Y40414D01*
X22649D01*
X22982Y40747D01*
Y42080D01*
M02*
