G04*
G04 #@! TF.GenerationSoftware,Altium Limited,Altium Designer,20.0.13 (296)*
G04*
G04 Layer_Color=65535*
%FSLAX25Y25*%
%MOIN*%
G70*
G01*
G75*
%ADD10C,0.00984*%
%ADD11C,0.00787*%
%ADD12C,0.00394*%
%ADD13C,0.01000*%
D10*
X40748Y14638D02*
G03*
X40748Y14638I-492J0D01*
G01*
X25374Y57642D02*
G03*
X25374Y57642I-492J0D01*
G01*
D11*
X21610Y7681D02*
G03*
X21610Y8468I0J394D01*
G01*
D02*
G03*
X21610Y7681I0J-394D01*
G01*
X3119Y24141D02*
X7190Y24859D01*
X52319Y29500D02*
X54681D01*
X20582Y49918D02*
X21418Y49082D01*
D12*
X24366Y9650D02*
X34602D01*
X24268Y3350D02*
X34701D01*
X26000Y51500D02*
Y56421D01*
Y51500D02*
X33874D01*
X26000Y56500D02*
X33874D01*
X34000Y51579D02*
Y56500D01*
D13*
X42447Y13431D02*
Y17368D01*
X48353Y13431D02*
Y17368D01*
X52999Y17500D02*
Y19500D01*
X16999Y6500D02*
Y8500D01*
X9000Y46001D02*
X11000D01*
X46499Y31500D02*
Y33500D01*
X37500Y11001D02*
X39500D01*
X27499Y46000D02*
Y48000D01*
X10293Y10792D02*
X11708Y12207D01*
X51792Y14707D02*
X53207Y13292D01*
X57000Y30501D02*
X59000D01*
X2500Y36499D02*
X4500D01*
X15501Y50500D02*
Y52500D01*
X19999Y54000D02*
Y56000D01*
M02*
