M48
;Layer_Color=9474304
;FILE_FORMAT=2:5
INCH
;TYPE=PLATED
T1F00S00C0.01000
T2F00S00C0.02000
T3F00S00C0.03150
T4F00S00C0.03543
T5F00S00C0.04134
T6F00S00C0.04528
%
T01
X0120500Y0128500
X0124000Y0131500
X0144500Y0135500
X0153000Y0139000
X0151000Y0143500
X0153000Y0131500
X0162500Y0136500
X0166300Y0139700
X0157500Y0142000
X0162000Y0147000
X0179984Y0144516
X0178500Y0137500
X0194000Y0132000
X0194500Y0128500
X0193500Y0125500
X0204500Y0131000
X0205000Y0136000
X0208500
X0210000Y0130500
X0209000Y0127000
X0208500Y0123000
X0226500Y0130000
X0231500Y0131000
X0230500Y0126000
X0239500Y0133000
X0255000Y0132500
X0251000Y0118500
X0246500Y0122500
X0248000Y0147500
X0229000Y0150500
X0201000Y0156000
X0275500Y0155000
X0279500Y0143500
X0285500Y0137000
X0287500Y0133500
X0289000Y0121900
X0280500Y0120394
X0275500Y0119000
X0273500Y0114000
X0266500Y0113000
X0272500Y0134500
X0298500Y0129000
Y0123500
X0302000Y0121000
X0308500Y0118500
X0309500Y0128500
X0310500Y0132000
X0310000Y0136500
X0306000
X0320000Y0131417
X0323000Y0128000
X0337500Y0125500
X0343000Y0125400
Y0130000
X0346500Y0131000
X0349500Y0130500
X0350500Y0136000
X0345400Y0135266
X0336000Y0132500
X0336500Y0120000
X0350727Y0121767
X0349500Y0116000
X0348869Y0112000
X0357000Y0113500
X0363500Y0112500
X0366500Y0112000
X0368500Y0114300
X0372000Y0110500
X0374000Y0112500
X0377000Y0112000
X0380500Y0114000
X0374500Y0124000
X0369500
X0365000
X0360500
X0369500Y0148000
X0372100Y0148400
X0372500Y0151000
X0373500Y0155000
X0370718Y0154282
X0377100Y0149777
X0378503Y0147316
X0380600Y0145277
X0383000Y0144000
X0385500Y0137000
X0384742Y0134242
X0389000Y0132000
X0391000Y0129500
X0394000Y0128500
X0395000Y0143500
X0404500Y0143000
X0408000Y0131500
X0411000Y0134500
X0410500Y0125500
X0413000Y0116000
Y0112000
X0421500Y0134000
X0425500Y0139000
X0428500Y0151000
X0442500Y0141500
X0444000Y0133500
X0453500Y0137000
X0451500Y0127000
X0448500Y0114000
X0442500
X0459500Y0117500
X0462000Y0111000
X0465500Y0133500
X0461500Y0155000
X0454000Y0149500
X0330000Y0148500
X0470000Y0139740
X0477500Y0134500
X0472000Y0125500
X0488800Y0111700
X0486665Y0143500
X0443000Y0157500
X0447000Y0169500
X0428500Y0164000
X0427000Y0173500
X0411500Y0168500
X0413000Y0166000
X0411582Y0163000
X0401500Y0165000
Y0169000
X0399500Y0167000
X0401575Y0173228
X0393701
X0385827
X0377953
X0370079
X0363080Y0177232
X0366142Y0181103
X0374016
X0381890
X0389764
X0397638
X0401575Y0188977
X0393701
X0385827
X0377953
X0370079
X0362205
X0363034Y0186232
X0358268Y0181103
X0354331Y0173228
X0346457
X0338583
X0330709
X0334646Y0165354
X0342520
X0350394
X0355853Y0163925
X0363311Y0164303
X0363720Y0159822
X0374016Y0165354
X0394500Y0160500
X0356422Y0192065
X0199500Y0169500
X0199000Y0166500
X0195000Y0163000
X0193700Y0160500
X0197500Y0158000
X0162500Y0167000
X0150500Y0160500
X0143000Y0156500
T02
X0318500Y0160000
X0338500Y0159500
T03
X0418157Y0122000
X0428000
X0437843
Y0145622
X0428000
X0418157
T04
X0486000Y0126500
Y0136500
T05
X0130000Y0125000
X0140000
X0115000Y0140500
Y0150500
X0478000Y0190500
X0468000
X0458000
X0448000
X0438000
X0428000
X0418000
X0408000
X0140500Y0165500
X0130500
T06
X0153500Y0115000
X0163500
X0173500
X0183500
X0193500
X0228000Y0140500
X0238000
X0248000
X0258000
X0268000
X0283500Y0153000
X0293500
X0303500
X0303000Y0114500
X0313000
X0323000
X0333000
X0343000
X0323500Y0153000
X0313500
X0315000Y0171000
X0325000
X0305000
X0295000
X0285000
X0268000Y0176500
X0258000
X0248000
X0238000
X0228000
Y0165500
X0238000
X0248000
X0258000
X0268000
X0193000Y0177000
X0183000
X0173000
X0163000
X0153000
M30
