G04*
G04 #@! TF.GenerationSoftware,Altium Limited,Altium Designer,19.1.5 (86)*
G04*
G04 Layer_Color=2752767*
%FSLAX25Y25*%
%MOIN*%
G70*
G01*
G75*
%ADD126C,0.00200*%
%ADD127C,0.00267*%
D126*
X477200Y189700D02*
Y191300D01*
X478800D01*
Y189700D01*
X477200D01*
X467200D02*
Y191300D01*
X468800D01*
Y189700D01*
X467200D01*
X457200D02*
Y191300D01*
X458800D01*
Y189700D01*
X457200D01*
X447200D02*
Y191300D01*
X448800D01*
Y189700D01*
X447200D01*
X437200D02*
Y191300D01*
X438800D01*
Y189700D01*
X437200D01*
X427200D02*
Y191300D01*
X428800D01*
Y189700D01*
X427200D01*
X417200D02*
Y191300D01*
X418800D01*
Y189700D01*
X417200D01*
X407200D02*
Y191300D01*
X408800D01*
Y189700D01*
X407200D01*
X486000Y135700D02*
X485200Y137300D01*
X486800D01*
X486000Y135700D01*
Y125700D02*
X485200Y127300D01*
X486800D01*
X486000Y125700D01*
X437843Y144822D02*
X438243Y145222D01*
X438643D01*
X438243Y145622D01*
X438643Y146022D01*
X438243D01*
X437843Y146422D01*
X437443Y146022D01*
X437043D01*
X437443Y145622D01*
X437043Y145222D01*
X437443D01*
X437843Y144822D01*
X428000D02*
X428400Y145222D01*
X428800D01*
X428400Y145622D01*
X428800Y146022D01*
X428400D01*
X428000Y146422D01*
X427600Y146022D01*
X427200D01*
X427600Y145622D01*
X427200Y145222D01*
X427600D01*
X428000Y144822D01*
X418157D02*
X418557Y145222D01*
X418957D01*
X418557Y145622D01*
X418957Y146022D01*
X418557D01*
X418157Y146422D01*
X417757Y146022D01*
X417357D01*
X417757Y145622D01*
X417357Y145222D01*
X417757D01*
X418157Y144822D01*
Y121200D02*
X418557Y121600D01*
X418957D01*
X418557Y122000D01*
X418957Y122400D01*
X418557D01*
X418157Y122800D01*
X417757Y122400D01*
X417357D01*
X417757Y122000D01*
X417357Y121600D01*
X417757D01*
X418157Y121200D01*
X428000D02*
X428400Y121600D01*
X428800D01*
X428400Y122000D01*
X428800Y122400D01*
X428400D01*
X428000Y122800D01*
X427600Y122400D01*
X427200D01*
X427600Y122000D01*
X427200Y121600D01*
X427600D01*
X428000Y121200D01*
X437843D02*
X438243Y121600D01*
X438643D01*
X438243Y122000D01*
X438643Y122400D01*
X438243D01*
X437843Y122800D01*
X437443Y122400D01*
X437043D01*
X437443Y122000D01*
X437043Y121600D01*
X437443D01*
X437843Y121200D01*
X139200Y124200D02*
Y125800D01*
X140800D01*
Y124200D01*
X139200D01*
X129200D02*
Y125800D01*
X130800D01*
Y124200D01*
X129200D01*
X114200Y139700D02*
Y141300D01*
X115800D01*
Y139700D01*
X114200D01*
Y149700D02*
Y151300D01*
X115800D01*
Y149700D01*
X114200D01*
X129700Y164700D02*
Y166300D01*
X131300D01*
Y164700D01*
X129700D01*
X139700D02*
Y166300D01*
X141300D01*
Y164700D01*
X139700D01*
X365700Y111200D02*
X366100Y112000D01*
X365700Y112800D01*
X366500Y112400D01*
X367300Y112800D01*
X366900Y112000D01*
X367300Y111200D01*
X366500Y111600D01*
X365700Y111200D01*
X371200Y109700D02*
X371600Y110500D01*
X371200Y111300D01*
X372000Y110900D01*
X372800Y111300D01*
X372400Y110500D01*
X372800Y109700D01*
X372000Y110100D01*
X371200Y109700D01*
X373200Y111700D02*
X373600Y112500D01*
X373200Y113300D01*
X374000Y112900D01*
X374800Y113300D01*
X374400Y112500D01*
X374800Y111700D01*
X374000Y112100D01*
X373200Y111700D01*
X376200Y111200D02*
X376600Y112000D01*
X376200Y112800D01*
X377000Y112400D01*
X377800Y112800D01*
X377400Y112000D01*
X377800Y111200D01*
X377000Y111600D01*
X376200Y111200D01*
X362700Y111700D02*
X363100Y112500D01*
X362700Y113300D01*
X363500Y112900D01*
X364300Y113300D01*
X363900Y112500D01*
X364300Y111700D01*
X363500Y112100D01*
X362700Y111700D01*
X367700Y113500D02*
X368100Y114300D01*
X367700Y115100D01*
X368500Y114700D01*
X369300Y115100D01*
X368900Y114300D01*
X369300Y113500D01*
X368500Y113900D01*
X367700Y113500D01*
X379700Y113200D02*
X380100Y114000D01*
X379700Y114800D01*
X380500Y114400D01*
X381300Y114800D01*
X380900Y114000D01*
X381300Y113200D01*
X380500Y113600D01*
X379700Y113200D01*
X225700Y129200D02*
X226100Y130000D01*
X225700Y130800D01*
X226500Y130400D01*
X227300Y130800D01*
X226900Y130000D01*
X227300Y129200D01*
X226500Y129600D01*
X225700Y129200D01*
X355053Y163125D02*
X355453Y163925D01*
X355053Y164725D01*
X355853Y164325D01*
X356653Y164725D01*
X356253Y163925D01*
X356653Y163125D01*
X355853Y163525D01*
X355053Y163125D01*
X362920Y159022D02*
X363320Y159822D01*
X362920Y160622D01*
X363720Y160222D01*
X364520Y160622D01*
X364120Y159822D01*
X364520Y159022D01*
X363720Y159422D01*
X362920Y159022D01*
X362511Y163503D02*
X362911Y164303D01*
X362511Y165103D01*
X363311Y164703D01*
X364111Y165103D01*
X363711Y164303D01*
X364111Y163503D01*
X363311Y163903D01*
X362511Y163503D01*
X362280Y176432D02*
X362680Y177232D01*
X362280Y178032D01*
X363080Y177632D01*
X363880Y178032D01*
X363480Y177232D01*
X363880Y176432D01*
X363080Y176832D01*
X362280Y176432D01*
X362234Y185432D02*
X362634Y186232D01*
X362234Y187032D01*
X363034Y186632D01*
X363834Y187032D01*
X363434Y186232D01*
X363834Y185432D01*
X363034Y185832D01*
X362234Y185432D01*
X355622Y191265D02*
X356022Y192065D01*
X355622Y192865D01*
X356422Y192465D01*
X357222Y192865D01*
X356822Y192065D01*
X357222Y191265D01*
X356422Y191665D01*
X355622Y191265D01*
X400775Y188177D02*
X401175Y188977D01*
X400775Y189777D01*
X401575Y189376D01*
X402375Y189777D01*
X401975Y188977D01*
X402375Y188177D01*
X401575Y188576D01*
X400775Y188177D01*
Y172428D02*
X401175Y173228D01*
X400775Y174028D01*
X401575Y173628D01*
X402375Y174028D01*
X401975Y173228D01*
X402375Y172428D01*
X401575Y172828D01*
X400775Y172428D01*
X392901Y188177D02*
X393301Y188977D01*
X392901Y189777D01*
X393701Y189376D01*
X394501Y189777D01*
X394101Y188977D01*
X394501Y188177D01*
X393701Y188576D01*
X392901Y188177D01*
X396838Y180303D02*
X397238Y181103D01*
X396838Y181903D01*
X397638Y181502D01*
X398438Y181903D01*
X398038Y181103D01*
X398438Y180303D01*
X397638Y180702D01*
X396838Y180303D01*
X392901Y172428D02*
X393301Y173228D01*
X392901Y174028D01*
X393701Y173628D01*
X394501Y174028D01*
X394101Y173228D01*
X394501Y172428D01*
X393701Y172828D01*
X392901Y172428D01*
X385027Y188177D02*
X385427Y188977D01*
X385027Y189777D01*
X385827Y189376D01*
X386627Y189777D01*
X386227Y188977D01*
X386627Y188177D01*
X385827Y188576D01*
X385027Y188177D01*
X388964Y180303D02*
X389364Y181103D01*
X388964Y181903D01*
X389764Y181502D01*
X390564Y181903D01*
X390164Y181103D01*
X390564Y180303D01*
X389764Y180702D01*
X388964Y180303D01*
X385027Y172428D02*
X385427Y173228D01*
X385027Y174028D01*
X385827Y173628D01*
X386627Y174028D01*
X386227Y173228D01*
X386627Y172428D01*
X385827Y172828D01*
X385027Y172428D01*
X377153Y188177D02*
X377553Y188977D01*
X377153Y189777D01*
X377953Y189376D01*
X378753Y189777D01*
X378353Y188977D01*
X378753Y188177D01*
X377953Y188576D01*
X377153Y188177D01*
X381090Y180303D02*
X381490Y181103D01*
X381090Y181903D01*
X381890Y181502D01*
X382690Y181903D01*
X382290Y181103D01*
X382690Y180303D01*
X381890Y180702D01*
X381090Y180303D01*
X377153Y172428D02*
X377553Y173228D01*
X377153Y174028D01*
X377953Y173628D01*
X378753Y174028D01*
X378353Y173228D01*
X378753Y172428D01*
X377953Y172828D01*
X377153Y172428D01*
X369279Y188177D02*
X369679Y188977D01*
X369279Y189777D01*
X370079Y189376D01*
X370879Y189777D01*
X370479Y188977D01*
X370879Y188177D01*
X370079Y188576D01*
X369279Y188177D01*
X373216Y180303D02*
X373616Y181103D01*
X373216Y181903D01*
X374016Y181502D01*
X374816Y181903D01*
X374416Y181103D01*
X374816Y180303D01*
X374016Y180702D01*
X373216Y180303D01*
X369279Y172428D02*
X369679Y173228D01*
X369279Y174028D01*
X370079Y173628D01*
X370879Y174028D01*
X370479Y173228D01*
X370879Y172428D01*
X370079Y172828D01*
X369279Y172428D01*
X373216Y164554D02*
X373616Y165354D01*
X373216Y166154D01*
X374016Y165754D01*
X374816Y166154D01*
X374416Y165354D01*
X374816Y164554D01*
X374016Y164954D01*
X373216Y164554D01*
X361405Y188177D02*
X361805Y188977D01*
X361405Y189777D01*
X362205Y189376D01*
X363005Y189777D01*
X362605Y188977D01*
X363005Y188177D01*
X362205Y188576D01*
X361405Y188177D01*
X365342Y180303D02*
X365742Y181103D01*
X365342Y181903D01*
X366142Y181502D01*
X366942Y181903D01*
X366542Y181103D01*
X366942Y180303D01*
X366142Y180702D01*
X365342Y180303D01*
X357468D02*
X357868Y181103D01*
X357468Y181903D01*
X358268Y181502D01*
X359068Y181903D01*
X358668Y181103D01*
X359068Y180303D01*
X358268Y180702D01*
X357468Y180303D01*
X353531Y172428D02*
X353931Y173228D01*
X353531Y174028D01*
X354331Y173628D01*
X355131Y174028D01*
X354731Y173228D01*
X355131Y172428D01*
X354331Y172828D01*
X353531Y172428D01*
X345657D02*
X346057Y173228D01*
X345657Y174028D01*
X346457Y173628D01*
X347257Y174028D01*
X346857Y173228D01*
X347257Y172428D01*
X346457Y172828D01*
X345657Y172428D01*
X349594Y164554D02*
X349994Y165354D01*
X349594Y166154D01*
X350394Y165754D01*
X351194Y166154D01*
X350794Y165354D01*
X351194Y164554D01*
X350394Y164954D01*
X349594Y164554D01*
X337783Y172428D02*
X338183Y173228D01*
X337783Y174028D01*
X338583Y173628D01*
X339383Y174028D01*
X338983Y173228D01*
X339383Y172428D01*
X338583Y172828D01*
X337783Y172428D01*
X341720Y164554D02*
X342120Y165354D01*
X341720Y166154D01*
X342520Y165754D01*
X343320Y166154D01*
X342920Y165354D01*
X343320Y164554D01*
X342520Y164954D01*
X341720Y164554D01*
X329909Y172428D02*
X330309Y173228D01*
X329909Y174028D01*
X330709Y173628D01*
X331509Y174028D01*
X331109Y173228D01*
X331509Y172428D01*
X330709Y172828D01*
X329909Y172428D01*
X333846Y164554D02*
X334246Y165354D01*
X333846Y166154D01*
X334646Y165754D01*
X335446Y166154D01*
X335046Y165354D01*
X335446Y164554D01*
X334646Y164954D01*
X333846Y164554D01*
X412200Y111200D02*
X412600Y112000D01*
X412200Y112800D01*
X413000Y112400D01*
X413800Y112800D01*
X413400Y112000D01*
X413800Y111200D01*
X413000Y111600D01*
X412200Y111200D01*
X393700Y159700D02*
X394100Y160500D01*
X393700Y161300D01*
X394500Y160900D01*
X395300Y161300D01*
X394900Y160500D01*
X395300Y159700D01*
X394500Y160100D01*
X393700Y159700D01*
X348069Y111200D02*
X348469Y112000D01*
X348069Y112800D01*
X348869Y112400D01*
X349669Y112800D01*
X349269Y112000D01*
X349669Y111200D01*
X348869Y111600D01*
X348069Y111200D01*
X348700Y115200D02*
X349100Y116000D01*
X348700Y116800D01*
X349500Y116400D01*
X350300Y116800D01*
X349900Y116000D01*
X350300Y115200D01*
X349500Y115600D01*
X348700Y115200D01*
X349927Y120967D02*
X350327Y121767D01*
X349927Y122567D01*
X350727Y122167D01*
X351527Y122567D01*
X351127Y121767D01*
X351527Y120967D01*
X350727Y121367D01*
X349927Y120967D01*
X274700Y154200D02*
X275100Y155000D01*
X274700Y155800D01*
X275500Y155400D01*
X276300Y155800D01*
X275900Y155000D01*
X276300Y154200D01*
X275500Y154600D01*
X274700Y154200D01*
X228200Y149700D02*
X228600Y150500D01*
X228200Y151300D01*
X229000Y150900D01*
X229800Y151300D01*
X229400Y150500D01*
X229800Y149700D01*
X229000Y150100D01*
X228200Y149700D01*
X409700Y124700D02*
X410100Y125500D01*
X409700Y126300D01*
X410500Y125900D01*
X411300Y126300D01*
X410900Y125500D01*
X411300Y124700D01*
X410500Y125100D01*
X409700Y124700D01*
X488000Y110900D02*
X488400Y111700D01*
X488000Y112500D01*
X488800Y112100D01*
X489600Y112500D01*
X489200Y111700D01*
X489600Y110900D01*
X488800Y111300D01*
X488000Y110900D01*
X453200Y148700D02*
X453600Y149500D01*
X453200Y150300D01*
X454000Y149900D01*
X454800Y150300D01*
X454400Y149500D01*
X454800Y148700D01*
X454000Y149100D01*
X453200Y148700D01*
X469200Y138940D02*
X469600Y139740D01*
X469200Y140540D01*
X470000Y140140D01*
X470800Y140540D01*
X470400Y139740D01*
X470800Y138940D01*
X470000Y139340D01*
X469200Y138940D01*
X485865Y142700D02*
X486265Y143500D01*
X485865Y144300D01*
X486665Y143900D01*
X487465Y144300D01*
X487065Y143500D01*
X487465Y142700D01*
X486665Y143100D01*
X485865Y142700D01*
X476700Y133700D02*
X477100Y134500D01*
X476700Y135300D01*
X477500Y134900D01*
X478300Y135300D01*
X477900Y134500D01*
X478300Y133700D01*
X477500Y134100D01*
X476700Y133700D01*
X471200Y124700D02*
X471600Y125500D01*
X471200Y126300D01*
X472000Y125900D01*
X472800Y126300D01*
X472400Y125500D01*
X472800Y124700D01*
X472000Y125100D01*
X471200Y124700D01*
X461200Y110200D02*
X461600Y111000D01*
X461200Y111800D01*
X462000Y111400D01*
X462800Y111800D01*
X462400Y111000D01*
X462800Y110200D01*
X462000Y110600D01*
X461200Y110200D01*
X403700Y142200D02*
X404100Y143000D01*
X403700Y143800D01*
X404500Y143400D01*
X405300Y143800D01*
X404900Y143000D01*
X405300Y142200D01*
X404500Y142600D01*
X403700Y142200D01*
X394200Y142700D02*
X394600Y143500D01*
X394200Y144300D01*
X395000Y143900D01*
X395800Y144300D01*
X395400Y143500D01*
X395800Y142700D01*
X395000Y143100D01*
X394200Y142700D01*
X342200Y124600D02*
X342600Y125400D01*
X342200Y126200D01*
X343000Y125800D01*
X343800Y126200D01*
X343400Y125400D01*
X343800Y124600D01*
X343000Y125000D01*
X342200Y124600D01*
Y129200D02*
X342600Y130000D01*
X342200Y130800D01*
X343000Y130400D01*
X343800Y130800D01*
X343400Y130000D01*
X343800Y129200D01*
X343000Y129600D01*
X342200Y129200D01*
X335200Y131700D02*
X335600Y132500D01*
X335200Y133300D01*
X336000Y132900D01*
X336800Y133300D01*
X336400Y132500D01*
X336800Y131700D01*
X336000Y132100D01*
X335200Y131700D01*
X329200Y147700D02*
X329600Y148500D01*
X329200Y149300D01*
X330000Y148900D01*
X330800Y149300D01*
X330400Y148500D01*
X330800Y147700D01*
X330000Y148100D01*
X329200Y147700D01*
X345700Y130200D02*
X346100Y131000D01*
X345700Y131800D01*
X346500Y131400D01*
X347300Y131800D01*
X346900Y131000D01*
X347300Y130200D01*
X346500Y130600D01*
X345700Y130200D01*
X359700Y123200D02*
X360100Y124000D01*
X359700Y124800D01*
X360500Y124400D01*
X361300Y124800D01*
X360900Y124000D01*
X361300Y123200D01*
X360500Y123600D01*
X359700Y123200D01*
X364200D02*
X364600Y124000D01*
X364200Y124800D01*
X365000Y124400D01*
X365800Y124800D01*
X365400Y124000D01*
X365800Y123200D01*
X365000Y123600D01*
X364200Y123200D01*
X368700D02*
X369100Y124000D01*
X368700Y124800D01*
X369500Y124400D01*
X370300Y124800D01*
X369900Y124000D01*
X370300Y123200D01*
X369500Y123600D01*
X368700Y123200D01*
X373700D02*
X374100Y124000D01*
X373700Y124800D01*
X374500Y124400D01*
X375300Y124800D01*
X374900Y124000D01*
X375300Y123200D01*
X374500Y123600D01*
X373700Y123200D01*
X307700Y117700D02*
X308100Y118500D01*
X307700Y119300D01*
X308500Y118900D01*
X309300Y119300D01*
X308900Y118500D01*
X309300Y117700D01*
X308500Y118100D01*
X307700Y117700D01*
X335700Y119200D02*
X336100Y120000D01*
X335700Y120800D01*
X336500Y120400D01*
X337300Y120800D01*
X336900Y120000D01*
X337300Y119200D01*
X336500Y119600D01*
X335700Y119200D01*
X336700Y124700D02*
X337100Y125500D01*
X336700Y126300D01*
X337500Y125900D01*
X338300Y126300D01*
X337900Y125500D01*
X338300Y124700D01*
X337500Y125100D01*
X336700Y124700D01*
X349700Y135200D02*
X350100Y136000D01*
X349700Y136800D01*
X350500Y136400D01*
X351300Y136800D01*
X350900Y136000D01*
X351300Y135200D01*
X350500Y135600D01*
X349700Y135200D01*
X344600Y134466D02*
X345000Y135266D01*
X344600Y136066D01*
X345400Y135666D01*
X346200Y136066D01*
X345800Y135266D01*
X346200Y134466D01*
X345400Y134866D01*
X344600Y134466D01*
X348700Y129700D02*
X349100Y130500D01*
X348700Y131300D01*
X349500Y130900D01*
X350300Y131300D01*
X349900Y130500D01*
X350300Y129700D01*
X349500Y130100D01*
X348700Y129700D01*
X279700Y119594D02*
X280100Y120394D01*
X279700Y121194D01*
X280500Y120794D01*
X281300Y121194D01*
X280900Y120394D01*
X281300Y119594D01*
X280500Y119994D01*
X279700Y119594D01*
X272700Y113200D02*
X273100Y114000D01*
X272700Y114800D01*
X273500Y114400D01*
X274300Y114800D01*
X273900Y114000D01*
X274300Y113200D01*
X273500Y113600D01*
X272700Y113200D01*
X265700Y112200D02*
X266100Y113000D01*
X265700Y113800D01*
X266500Y113400D01*
X267300Y113800D01*
X266900Y113000D01*
X267300Y112200D01*
X266500Y112600D01*
X265700Y112200D01*
X250200Y117700D02*
X250600Y118500D01*
X250200Y119300D01*
X251000Y118900D01*
X251800Y119300D01*
X251400Y118500D01*
X251800Y117700D01*
X251000Y118100D01*
X250200Y117700D01*
X229700Y125200D02*
X230100Y126000D01*
X229700Y126800D01*
X230500Y126400D01*
X231300Y126800D01*
X230900Y126000D01*
X231300Y125200D01*
X230500Y125600D01*
X229700Y125200D01*
X193200Y131200D02*
X193600Y132000D01*
X193200Y132800D01*
X194000Y132400D01*
X194800Y132800D01*
X194400Y132000D01*
X194800Y131200D01*
X194000Y131600D01*
X193200Y131200D01*
X192700Y124700D02*
X193100Y125500D01*
X192700Y126300D01*
X193500Y125900D01*
X194300Y126300D01*
X193900Y125500D01*
X194300Y124700D01*
X193500Y125100D01*
X192700Y124700D01*
X177700Y136700D02*
X178100Y137500D01*
X177700Y138300D01*
X178500Y137900D01*
X179300Y138300D01*
X178900Y137500D01*
X179300Y136700D01*
X178500Y137100D01*
X177700Y136700D01*
X179184Y143716D02*
X179584Y144516D01*
X179184Y145316D01*
X179984Y144916D01*
X180784Y145316D01*
X180384Y144516D01*
X180784Y143716D01*
X179984Y144116D01*
X179184Y143716D01*
X165500Y138900D02*
X165900Y139700D01*
X165500Y140500D01*
X166300Y140100D01*
X167100Y140500D01*
X166700Y139700D01*
X167100Y138900D01*
X166300Y139300D01*
X165500Y138900D01*
X356200Y112700D02*
X356600Y113500D01*
X356200Y114300D01*
X357000Y113900D01*
X357800Y114300D01*
X357400Y113500D01*
X357800Y112700D01*
X357000Y113100D01*
X356200Y112700D01*
X427700Y163200D02*
X428100Y164000D01*
X427700Y164800D01*
X428500Y164400D01*
X429300Y164800D01*
X428900Y164000D01*
X429300Y163200D01*
X428500Y163600D01*
X427700Y163200D01*
X338100Y159100D02*
Y158700D01*
X338900D01*
Y159100D01*
X339300D01*
Y159900D01*
X338900D01*
Y160300D01*
X338100D01*
Y159900D01*
X337700D01*
Y159100D01*
X338100D01*
X318100Y159600D02*
Y159200D01*
X318900D01*
Y159600D01*
X319300D01*
Y160400D01*
X318900D01*
Y160800D01*
X318100D01*
Y160400D01*
X317700D01*
Y159600D01*
X318100D01*
X198200Y165700D02*
X198600Y166500D01*
X198200Y167300D01*
X199000Y166900D01*
X199800Y167300D01*
X199400Y166500D01*
X199800Y165700D01*
X199000Y166100D01*
X198200Y165700D01*
X200200Y155200D02*
X200600Y156000D01*
X200200Y156800D01*
X201000Y156400D01*
X201800Y156800D01*
X201400Y156000D01*
X201800Y155200D01*
X201000Y155600D01*
X200200Y155200D01*
X410782Y162200D02*
X411182Y163000D01*
X410782Y163800D01*
X411582Y163400D01*
X412382Y163800D01*
X411982Y163000D01*
X412382Y162200D01*
X411582Y162600D01*
X410782Y162200D01*
X412200Y165200D02*
X412600Y166000D01*
X412200Y166800D01*
X413000Y166400D01*
X413800Y166800D01*
X413400Y166000D01*
X413800Y165200D01*
X413000Y165600D01*
X412200Y165200D01*
X301200Y120200D02*
X301600Y121000D01*
X301200Y121800D01*
X302000Y121400D01*
X302800Y121800D01*
X302400Y121000D01*
X302800Y120200D01*
X302000Y120600D01*
X301200Y120200D01*
X319200Y130617D02*
X319600Y131417D01*
X319200Y132217D01*
X320000Y131817D01*
X320800Y132217D01*
X320400Y131417D01*
X320800Y130617D01*
X320000Y131017D01*
X319200Y130617D01*
X309700Y131200D02*
X310100Y132000D01*
X309700Y132800D01*
X310500Y132400D01*
X311300Y132800D01*
X310900Y132000D01*
X311300Y131200D01*
X310500Y131600D01*
X309700Y131200D01*
X308700Y127700D02*
X309100Y128500D01*
X308700Y129300D01*
X309500Y128900D01*
X310300Y129300D01*
X309900Y128500D01*
X310300Y127700D01*
X309500Y128100D01*
X308700Y127700D01*
X322200Y127200D02*
X322600Y128000D01*
X322200Y128800D01*
X323000Y128400D01*
X323800Y128800D01*
X323400Y128000D01*
X323800Y127200D01*
X323000Y127600D01*
X322200Y127200D01*
X284700Y136200D02*
X285100Y137000D01*
X284700Y137800D01*
X285500Y137400D01*
X286300Y137800D01*
X285900Y137000D01*
X286300Y136200D01*
X285500Y136600D01*
X284700Y136200D01*
X297700Y128200D02*
X298100Y129000D01*
X297700Y129800D01*
X298500Y129400D01*
X299300Y129800D01*
X298900Y129000D01*
X299300Y128200D01*
X298500Y128600D01*
X297700Y128200D01*
Y122700D02*
X298100Y123500D01*
X297700Y124300D01*
X298500Y123900D01*
X299300Y124300D01*
X298900Y123500D01*
X299300Y122700D01*
X298500Y123100D01*
X297700Y122700D01*
X305200Y135700D02*
X305600Y136500D01*
X305200Y137300D01*
X306000Y136900D01*
X306800Y137300D01*
X306400Y136500D01*
X306800Y135700D01*
X306000Y136100D01*
X305200Y135700D01*
X309200D02*
X309600Y136500D01*
X309200Y137300D01*
X310000Y136900D01*
X310800Y137300D01*
X310400Y136500D01*
X310800Y135700D01*
X310000Y136100D01*
X309200Y135700D01*
X443200Y132700D02*
X443600Y133500D01*
X443200Y134300D01*
X444000Y133900D01*
X444800Y134300D01*
X444400Y133500D01*
X444800Y132700D01*
X444000Y133100D01*
X443200Y132700D01*
X441700Y113200D02*
X442100Y114000D01*
X441700Y114800D01*
X442500Y114400D01*
X443300Y114800D01*
X442900Y114000D01*
X443300Y113200D01*
X442500Y113600D01*
X441700Y113200D01*
X400700Y164200D02*
X401100Y165000D01*
X400700Y165800D01*
X401500Y165400D01*
X402300Y165800D01*
X401900Y165000D01*
X402300Y164200D01*
X401500Y164600D01*
X400700Y164200D01*
Y168200D02*
X401100Y169000D01*
X400700Y169800D01*
X401500Y169400D01*
X402300Y169800D01*
X401900Y169000D01*
X402300Y168200D01*
X401500Y168600D01*
X400700Y168200D01*
X398700Y166200D02*
X399100Y167000D01*
X398700Y167800D01*
X399500Y167400D01*
X400300Y167800D01*
X399900Y167000D01*
X400300Y166200D01*
X399500Y166600D01*
X398700Y166200D01*
X369918Y153482D02*
X370318Y154282D01*
X369918Y155082D01*
X370718Y154682D01*
X371518Y155082D01*
X371118Y154282D01*
X371518Y153482D01*
X370718Y153882D01*
X369918Y153482D01*
X371700Y150200D02*
X372100Y151000D01*
X371700Y151800D01*
X372500Y151400D01*
X373300Y151800D01*
X372900Y151000D01*
X373300Y150200D01*
X372500Y150600D01*
X371700Y150200D01*
X371300Y147600D02*
X371700Y148400D01*
X371300Y149200D01*
X372100Y148800D01*
X372900Y149200D01*
X372500Y148400D01*
X372900Y147600D01*
X372100Y148000D01*
X371300Y147600D01*
X368700Y147200D02*
X369100Y148000D01*
X368700Y148800D01*
X369500Y148400D01*
X370300Y148800D01*
X369900Y148000D01*
X370300Y147200D01*
X369500Y147600D01*
X368700Y147200D01*
X372700Y154200D02*
X373100Y155000D01*
X372700Y155800D01*
X373500Y155400D01*
X374300Y155800D01*
X373900Y155000D01*
X374300Y154200D01*
X373500Y154600D01*
X372700Y154200D01*
X377703Y146516D02*
X378103Y147316D01*
X377703Y148116D01*
X378503Y147716D01*
X379303Y148116D01*
X378903Y147316D01*
X379303Y146516D01*
X378503Y146916D01*
X377703Y146516D01*
X376300Y148977D02*
X376700Y149777D01*
X376300Y150577D01*
X377100Y150177D01*
X377900Y150577D01*
X377500Y149777D01*
X377900Y148977D01*
X377100Y149377D01*
X376300Y148977D01*
X426200Y172700D02*
X426600Y173500D01*
X426200Y174300D01*
X427000Y173900D01*
X427800Y174300D01*
X427400Y173500D01*
X427800Y172700D01*
X427000Y173100D01*
X426200Y172700D01*
X410700Y167700D02*
X411100Y168500D01*
X410700Y169300D01*
X411500Y168900D01*
X412300Y169300D01*
X411900Y168500D01*
X412300Y167700D01*
X411500Y168100D01*
X410700Y167700D01*
X446200Y168700D02*
X446600Y169500D01*
X446200Y170300D01*
X447000Y169900D01*
X447800Y170300D01*
X447400Y169500D01*
X447800Y168700D01*
X447000Y169100D01*
X446200Y168700D01*
X424700Y138200D02*
X425100Y139000D01*
X424700Y139800D01*
X425500Y139400D01*
X426300Y139800D01*
X425900Y139000D01*
X426300Y138200D01*
X425500Y138600D01*
X424700Y138200D01*
X420700Y133200D02*
X421100Y134000D01*
X420700Y134800D01*
X421500Y134400D01*
X422300Y134800D01*
X421900Y134000D01*
X422300Y133200D01*
X421500Y133600D01*
X420700Y133200D01*
X407200Y130700D02*
X407600Y131500D01*
X407200Y132300D01*
X408000Y131900D01*
X408800Y132300D01*
X408400Y131500D01*
X408800Y130700D01*
X408000Y131100D01*
X407200Y130700D01*
X410200Y133700D02*
X410600Y134500D01*
X410200Y135300D01*
X411000Y134900D01*
X411800Y135300D01*
X411400Y134500D01*
X411800Y133700D01*
X411000Y134100D01*
X410200Y133700D01*
X452700Y136200D02*
X453100Y137000D01*
X452700Y137800D01*
X453500Y137400D01*
X454300Y137800D01*
X453900Y137000D01*
X454300Y136200D01*
X453500Y136600D01*
X452700Y136200D01*
X441700Y140700D02*
X442100Y141500D01*
X441700Y142300D01*
X442500Y141900D01*
X443300Y142300D01*
X442900Y141500D01*
X443300Y140700D01*
X442500Y141100D01*
X441700Y140700D01*
X447700Y113200D02*
X448100Y114000D01*
X447700Y114800D01*
X448500Y114400D01*
X449300Y114800D01*
X448900Y114000D01*
X449300Y113200D01*
X448500Y113600D01*
X447700Y113200D01*
X412200Y115200D02*
X412600Y116000D01*
X412200Y116800D01*
X413000Y116400D01*
X413800Y116800D01*
X413400Y116000D01*
X413800Y115200D01*
X413000Y115600D01*
X412200Y115200D01*
X286700Y132700D02*
X287100Y133500D01*
X286700Y134300D01*
X287500Y133900D01*
X288300Y134300D01*
X287900Y133500D01*
X288300Y132700D01*
X287500Y133100D01*
X286700Y132700D01*
X390200Y128700D02*
X390600Y129500D01*
X390200Y130300D01*
X391000Y129900D01*
X391800Y130300D01*
X391400Y129500D01*
X391800Y128700D01*
X391000Y129100D01*
X390200Y128700D01*
X393200Y127700D02*
X393600Y128500D01*
X393200Y129300D01*
X394000Y128900D01*
X394800Y129300D01*
X394400Y128500D01*
X394800Y127700D01*
X394000Y128100D01*
X393200Y127700D01*
X247200Y146700D02*
X247600Y147500D01*
X247200Y148300D01*
X248000Y147900D01*
X248800Y148300D01*
X248400Y147500D01*
X248800Y146700D01*
X248000Y147100D01*
X247200Y146700D01*
X278700Y142700D02*
X279100Y143500D01*
X278700Y144300D01*
X279500Y143900D01*
X280300Y144300D01*
X279900Y143500D01*
X280300Y142700D01*
X279500Y143100D01*
X278700Y142700D01*
X379800Y144477D02*
X380200Y145277D01*
X379800Y146077D01*
X380600Y145677D01*
X381400Y146077D01*
X381000Y145277D01*
X381400Y144477D01*
X380600Y144877D01*
X379800Y144477D01*
X382200Y143200D02*
X382600Y144000D01*
X382200Y144800D01*
X383000Y144400D01*
X383800Y144800D01*
X383400Y144000D01*
X383800Y143200D01*
X383000Y143600D01*
X382200Y143200D01*
X383942Y133442D02*
X384342Y134242D01*
X383942Y135042D01*
X384742Y134642D01*
X385542Y135042D01*
X385142Y134242D01*
X385542Y133442D01*
X384742Y133842D01*
X383942Y133442D01*
X388200Y131200D02*
X388600Y132000D01*
X388200Y132800D01*
X389000Y132400D01*
X389800Y132800D01*
X389400Y132000D01*
X389800Y131200D01*
X389000Y131600D01*
X388200Y131200D01*
X384700Y136200D02*
X385100Y137000D01*
X384700Y137800D01*
X385500Y137400D01*
X386300Y137800D01*
X385900Y137000D01*
X386300Y136200D01*
X385500Y136600D01*
X384700Y136200D01*
X271700Y133700D02*
X272100Y134500D01*
X271700Y135300D01*
X272500Y134900D01*
X273300Y135300D01*
X272900Y134500D01*
X273300Y133700D01*
X272500Y134100D01*
X271700Y133700D01*
X288200Y121100D02*
X288600Y121900D01*
X288200Y122700D01*
X289000Y122300D01*
X289800Y122700D01*
X289400Y121900D01*
X289800Y121100D01*
X289000Y121500D01*
X288200Y121100D01*
X274700Y118200D02*
X275100Y119000D01*
X274700Y119800D01*
X275500Y119400D01*
X276300Y119800D01*
X275900Y119000D01*
X276300Y118200D01*
X275500Y118600D01*
X274700Y118200D01*
X152200Y130700D02*
X152600Y131500D01*
X152200Y132300D01*
X153000Y131900D01*
X153800Y132300D01*
X153400Y131500D01*
X153800Y130700D01*
X153000Y131100D01*
X152200Y130700D01*
Y138200D02*
X152600Y139000D01*
X152200Y139800D01*
X153000Y139400D01*
X153800Y139800D01*
X153400Y139000D01*
X153800Y138200D01*
X153000Y138600D01*
X152200Y138200D01*
X161700Y135700D02*
X162100Y136500D01*
X161700Y137300D01*
X162500Y136900D01*
X163300Y137300D01*
X162900Y136500D01*
X163300Y135700D01*
X162500Y136100D01*
X161700Y135700D01*
X203700Y130200D02*
X204100Y131000D01*
X203700Y131800D01*
X204500Y131400D01*
X205300Y131800D01*
X204900Y131000D01*
X205300Y130200D01*
X204500Y130600D01*
X203700Y130200D01*
X245700Y121700D02*
X246100Y122500D01*
X245700Y123300D01*
X246500Y122900D01*
X247300Y123300D01*
X246900Y122500D01*
X247300Y121700D01*
X246500Y122100D01*
X245700Y121700D01*
X196700Y157200D02*
X197100Y158000D01*
X196700Y158800D01*
X197500Y158400D01*
X198300Y158800D01*
X197900Y158000D01*
X198300Y157200D01*
X197500Y157600D01*
X196700Y157200D01*
X192900Y159700D02*
X193300Y160500D01*
X192900Y161300D01*
X193700Y160900D01*
X194500Y161300D01*
X194100Y160500D01*
X194500Y159700D01*
X193700Y160100D01*
X192900Y159700D01*
X194200Y162200D02*
X194600Y163000D01*
X194200Y163800D01*
X195000Y163400D01*
X195800Y163800D01*
X195400Y163000D01*
X195800Y162200D01*
X195000Y162600D01*
X194200Y162200D01*
X464700Y132700D02*
X465100Y133500D01*
X464700Y134300D01*
X465500Y133900D01*
X466300Y134300D01*
X465900Y133500D01*
X466300Y132700D01*
X465500Y133100D01*
X464700Y132700D01*
X458700Y116700D02*
X459100Y117500D01*
X458700Y118300D01*
X459500Y117900D01*
X460300Y118300D01*
X459900Y117500D01*
X460300Y116700D01*
X459500Y117100D01*
X458700Y116700D01*
X207700Y122200D02*
X208100Y123000D01*
X207700Y123800D01*
X208500Y123400D01*
X209300Y123800D01*
X208900Y123000D01*
X209300Y122200D01*
X208500Y122600D01*
X207700Y122200D01*
X208200Y126200D02*
X208600Y127000D01*
X208200Y127800D01*
X209000Y127400D01*
X209800Y127800D01*
X209400Y127000D01*
X209800Y126200D01*
X209000Y126600D01*
X208200Y126200D01*
X156700Y141200D02*
X157100Y142000D01*
X156700Y142800D01*
X157500Y142400D01*
X158300Y142800D01*
X157900Y142000D01*
X158300Y141200D01*
X157500Y141600D01*
X156700Y141200D01*
X161200Y146200D02*
X161600Y147000D01*
X161200Y147800D01*
X162000Y147400D01*
X162800Y147800D01*
X162400Y147000D01*
X162800Y146200D01*
X162000Y146600D01*
X161200Y146200D01*
X209200Y129700D02*
X209600Y130500D01*
X209200Y131300D01*
X210000Y130900D01*
X210800Y131300D01*
X210400Y130500D01*
X210800Y129700D01*
X210000Y130100D01*
X209200Y129700D01*
X427700Y150200D02*
X428100Y151000D01*
X427700Y151800D01*
X428500Y151400D01*
X429300Y151800D01*
X428900Y151000D01*
X429300Y150200D01*
X428500Y150600D01*
X427700Y150200D01*
X230700Y130200D02*
X231100Y131000D01*
X230700Y131800D01*
X231500Y131400D01*
X232300Y131800D01*
X231900Y131000D01*
X232300Y130200D01*
X231500Y130600D01*
X230700Y130200D01*
X442200Y156700D02*
X442600Y157500D01*
X442200Y158300D01*
X443000Y157900D01*
X443800Y158300D01*
X443400Y157500D01*
X443800Y156700D01*
X443000Y157100D01*
X442200Y156700D01*
X460700Y154200D02*
X461100Y155000D01*
X460700Y155800D01*
X461500Y155400D01*
X462300Y155800D01*
X461900Y155000D01*
X462300Y154200D01*
X461500Y154600D01*
X460700Y154200D01*
X450700Y126200D02*
X451100Y127000D01*
X450700Y127800D01*
X451500Y127400D01*
X452300Y127800D01*
X451900Y127000D01*
X452300Y126200D01*
X451500Y126600D01*
X450700Y126200D01*
X150200Y142700D02*
X150600Y143500D01*
X150200Y144300D01*
X151000Y143900D01*
X151800Y144300D01*
X151400Y143500D01*
X151800Y142700D01*
X151000Y143100D01*
X150200Y142700D01*
X193700Y127700D02*
X194100Y128500D01*
X193700Y129300D01*
X194500Y128900D01*
X195300Y129300D01*
X194900Y128500D01*
X195300Y127700D01*
X194500Y128100D01*
X193700Y127700D01*
X207700Y135200D02*
X208100Y136000D01*
X207700Y136800D01*
X208500Y136400D01*
X209300Y136800D01*
X208900Y136000D01*
X209300Y135200D01*
X208500Y135600D01*
X207700Y135200D01*
X204200D02*
X204600Y136000D01*
X204200Y136800D01*
X205000Y136400D01*
X205800Y136800D01*
X205400Y136000D01*
X205800Y135200D01*
X205000Y135600D01*
X204200Y135200D01*
X238700Y132200D02*
X239100Y133000D01*
X238700Y133800D01*
X239500Y133400D01*
X240300Y133800D01*
X239900Y133000D01*
X240300Y132200D01*
X239500Y132600D01*
X238700Y132200D01*
X149700Y159700D02*
X150100Y160500D01*
X149700Y161300D01*
X150500Y160900D01*
X151300Y161300D01*
X150900Y160500D01*
X151300Y159700D01*
X150500Y160100D01*
X149700Y159700D01*
X198700Y168700D02*
X199100Y169500D01*
X198700Y170300D01*
X199500Y169900D01*
X200300Y170300D01*
X199900Y169500D01*
X200300Y168700D01*
X199500Y169100D01*
X198700Y168700D01*
X161700Y166200D02*
X162100Y167000D01*
X161700Y167800D01*
X162500Y167400D01*
X163300Y167800D01*
X162900Y167000D01*
X163300Y166200D01*
X162500Y166600D01*
X161700Y166200D01*
X254200Y131700D02*
X254600Y132500D01*
X254200Y133300D01*
X255000Y132900D01*
X255800Y133300D01*
X255400Y132500D01*
X255800Y131700D01*
X255000Y132100D01*
X254200Y131700D01*
X123200Y130700D02*
X123600Y131500D01*
X123200Y132300D01*
X124000Y131900D01*
X124800Y132300D01*
X124400Y131500D01*
X124800Y130700D01*
X124000Y131100D01*
X123200Y130700D01*
X119700Y127700D02*
X120100Y128500D01*
X119700Y129300D01*
X120500Y128900D01*
X121300Y129300D01*
X120900Y128500D01*
X121300Y127700D01*
X120500Y128100D01*
X119700Y127700D01*
X142200Y155700D02*
X142600Y156500D01*
X142200Y157300D01*
X143000Y156900D01*
X143800Y157300D01*
X143400Y156500D01*
X143800Y155700D01*
X143000Y156100D01*
X142200Y155700D01*
X143700Y134700D02*
X144100Y135500D01*
X143700Y136300D01*
X144500Y135900D01*
X145300Y136300D01*
X144900Y135500D01*
X145300Y134700D01*
X144500Y135100D01*
X143700Y134700D01*
D127*
X284300Y153000D02*
G03*
X284300Y153000I-800J0D01*
G01*
X294300D02*
G03*
X294300Y153000I-800J0D01*
G01*
X304300D02*
G03*
X304300Y153000I-800J0D01*
G01*
X314300D02*
G03*
X314300Y153000I-800J0D01*
G01*
X324300D02*
G03*
X324300Y153000I-800J0D01*
G01*
X285800Y171000D02*
G03*
X285800Y171000I-800J0D01*
G01*
X295800D02*
G03*
X295800Y171000I-800J0D01*
G01*
X305800D02*
G03*
X305800Y171000I-800J0D01*
G01*
X315800D02*
G03*
X315800Y171000I-800J0D01*
G01*
X325800D02*
G03*
X325800Y171000I-800J0D01*
G01*
X268800Y176500D02*
G03*
X268800Y176500I-800J0D01*
G01*
X258800D02*
G03*
X258800Y176500I-800J0D01*
G01*
X248800D02*
G03*
X248800Y176500I-800J0D01*
G01*
X238800D02*
G03*
X238800Y176500I-800J0D01*
G01*
X228800D02*
G03*
X228800Y176500I-800J0D01*
G01*
X268800Y165500D02*
G03*
X268800Y165500I-800J0D01*
G01*
X258800D02*
G03*
X258800Y165500I-800J0D01*
G01*
X248800D02*
G03*
X248800Y165500I-800J0D01*
G01*
X238800D02*
G03*
X238800Y165500I-800J0D01*
G01*
X228800D02*
G03*
X228800Y165500I-800J0D01*
G01*
X343800Y114500D02*
G03*
X343800Y114500I-800J0D01*
G01*
X333800D02*
G03*
X333800Y114500I-800J0D01*
G01*
X323800D02*
G03*
X323800Y114500I-800J0D01*
G01*
X313800D02*
G03*
X313800Y114500I-800J0D01*
G01*
X303800D02*
G03*
X303800Y114500I-800J0D01*
G01*
X153800Y177000D02*
G03*
X153800Y177000I-800J0D01*
G01*
X163800D02*
G03*
X163800Y177000I-800J0D01*
G01*
X173800D02*
G03*
X173800Y177000I-800J0D01*
G01*
X183800D02*
G03*
X183800Y177000I-800J0D01*
G01*
X193800D02*
G03*
X193800Y177000I-800J0D01*
G01*
X228800Y140500D02*
G03*
X228800Y140500I-800J0D01*
G01*
X238800D02*
G03*
X238800Y140500I-800J0D01*
G01*
X248800D02*
G03*
X248800Y140500I-800J0D01*
G01*
X258800D02*
G03*
X258800Y140500I-800J0D01*
G01*
X268800D02*
G03*
X268800Y140500I-800J0D01*
G01*
X154300Y115000D02*
G03*
X154300Y115000I-800J0D01*
G01*
X164300D02*
G03*
X164300Y115000I-800J0D01*
G01*
X174300D02*
G03*
X174300Y115000I-800J0D01*
G01*
X184300D02*
G03*
X184300Y115000I-800J0D01*
G01*
X194300D02*
G03*
X194300Y115000I-800J0D01*
G01*
M02*
