G04*
G04 #@! TF.GenerationSoftware,Altium Limited,Altium Designer,19.1.5 (86)*
G04*
G04 Layer_Color=65535*
%FSLAX25Y25*%
%MOIN*%
G70*
G01*
G75*
%ADD10C,0.01181*%
%ADD11C,0.00984*%
%ADD12C,0.00394*%
%ADD13C,0.01000*%
%ADD14C,0.00787*%
%ADD15C,0.01575*%
%ADD16C,0.00600*%
%ADD17C,0.00598*%
D10*
X340394Y183500D02*
G03*
X340394Y183500I-394J0D01*
G01*
D11*
X357350Y164382D02*
G03*
X357350Y164382I-492J0D01*
G01*
X275779Y127949D02*
G03*
X275779Y127949I-492J0D01*
G01*
X320905Y125480D02*
G03*
X320905Y125480I-492J0D01*
G01*
X383331Y116831D02*
G03*
X383331Y116831I-492J0D01*
G01*
X447512Y113626D02*
G03*
X447512Y113626I-492J0D01*
G01*
X461095Y134240D02*
G03*
X461095Y134240I-492J0D01*
G01*
X167693Y148453D02*
G03*
X167693Y148453I-492J0D01*
G01*
D12*
X340776Y143756D02*
G03*
X341169Y143756I197J0D01*
G01*
D02*
G03*
X340776Y143756I-197J0D01*
G01*
X358000Y173500D02*
X362921D01*
X358000Y165500D02*
Y173374D01*
X363000Y165500D02*
Y173374D01*
X358079Y165500D02*
X363000D01*
X250654Y117766D02*
X252654D01*
Y119266D01*
X287654Y117766D02*
Y119266D01*
Y117766D02*
X289654D01*
X252654Y125266D02*
Y127266D01*
X254154D01*
X286154D02*
X287654D01*
Y125266D02*
Y127266D01*
X412252Y118063D02*
X443748D01*
X412252D02*
Y149559D01*
X443748D01*
Y118063D02*
Y149559D01*
D13*
X448638Y160457D02*
Y167543D01*
X453362Y160457D02*
Y167543D01*
X332000Y149999D02*
X334000D01*
X355500Y150499D02*
X357500D01*
X388999Y159500D02*
Y161500D01*
X384457Y144638D02*
X391543D01*
X384457Y149362D02*
X391543D01*
X393500Y140499D02*
X395500D01*
X402499Y140500D02*
Y142500D01*
X390499Y113500D02*
Y115500D01*
Y110000D02*
Y112000D01*
X399999Y113000D02*
Y115000D01*
X395453Y117547D02*
X399390D01*
X395453Y123453D02*
X399390D01*
X402499Y125500D02*
Y127500D01*
X398957Y132452D02*
X406043D01*
X398957Y127728D02*
X406043D01*
X398957Y131455D02*
X406043D01*
X398957Y136179D02*
X406043D01*
X398957Y134638D02*
X406043D01*
X398957Y139362D02*
X406043D01*
X465501Y110000D02*
Y112000D01*
X461957Y117862D02*
X469043D01*
X461957Y113138D02*
X469043D01*
X488000Y147001D02*
X490000D01*
X483500D02*
X485500D01*
X477500Y139001D02*
X479500D01*
X451457Y142862D02*
X458543D01*
X451457Y138138D02*
X458543D01*
X448957Y143638D02*
X456043D01*
X448957Y148362D02*
X456043D01*
X448957Y147138D02*
X456043D01*
X448957Y151862D02*
X456043D01*
X443638Y160457D02*
Y167543D01*
X448362Y160457D02*
Y167543D01*
X438638Y160457D02*
Y167543D01*
X443362Y160457D02*
Y167543D01*
X433638Y160457D02*
Y167543D01*
X438362Y160457D02*
Y167543D01*
X428638Y160457D02*
Y167543D01*
X433362Y160457D02*
Y167543D01*
X423638Y160457D02*
Y167543D01*
X428362Y160457D02*
Y167543D01*
X418638Y160457D02*
Y167543D01*
X423362Y160457D02*
Y167543D01*
X413638Y160457D02*
Y167543D01*
X418362Y160457D02*
Y167543D01*
X225999Y127500D02*
Y129500D01*
X173499Y135500D02*
Y137500D01*
X164500Y142001D02*
X166500D01*
X160000D02*
X162000D01*
X486501Y118000D02*
Y120000D01*
X482957Y111638D02*
X490043D01*
X482957Y116362D02*
X490043D01*
X351500Y115001D02*
X353500D01*
X345501Y120500D02*
Y122500D01*
D14*
X448782Y172851D02*
Y179150D01*
X451932Y172851D02*
Y180921D01*
X352000Y188409D02*
Y189591D01*
X278500Y148098D02*
Y153000D01*
Y148098D02*
X328500D01*
Y157902D01*
X283500D02*
X328500D01*
X280000Y166098D02*
Y171000D01*
Y166098D02*
X330000D01*
Y175902D01*
X285000D02*
X330000D01*
X273000Y176500D02*
Y181402D01*
X223000D02*
X273000D01*
X223000Y171598D02*
Y181402D01*
Y171598D02*
X268000D01*
X273000Y165500D02*
Y170402D01*
X223000D02*
X273000D01*
X223000Y160598D02*
Y170402D01*
Y160598D02*
X268000D01*
X322000Y140933D02*
Y145067D01*
X348000Y114500D02*
Y119402D01*
X359909Y158165D02*
X361091D01*
X388319Y139000D02*
X390681D01*
X470213Y120291D02*
X471787D01*
X470213D02*
Y131709D01*
X471787D01*
Y120291D02*
Y131709D01*
X473165Y120094D02*
X478677D01*
X463854Y137236D02*
Y141764D01*
X463953Y143142D02*
X475567D01*
Y145701D01*
X463953D02*
X475567D01*
X463953Y143142D02*
Y145701D01*
X481000Y121500D02*
Y141500D01*
Y121500D02*
X491000D01*
Y141500D01*
X481000D02*
X491000D01*
X457650Y120122D02*
X460248D01*
Y116913D02*
Y120122D01*
X448752D02*
X451350D01*
X448752Y116913D02*
Y120122D01*
X450169Y128039D02*
X451547D01*
X450169D02*
Y130945D01*
X457453Y128039D02*
X458831D01*
Y130945D01*
X428854Y172851D02*
Y179150D01*
X432003Y172851D02*
Y180921D01*
X415568Y172851D02*
Y179150D01*
X418718Y172851D02*
Y180921D01*
X422211Y172851D02*
Y179150D01*
X425360Y172851D02*
Y180921D01*
X435497Y172851D02*
Y179150D01*
X438646Y172851D02*
Y180921D01*
X442139Y172851D02*
Y179150D01*
X445289Y172851D02*
Y180921D01*
X455425Y172851D02*
Y179150D01*
X458575Y172851D02*
Y180921D01*
X408925Y172851D02*
Y179150D01*
X412075Y172851D02*
Y180921D01*
X148000Y172098D02*
Y177000D01*
Y172098D02*
X198000D01*
Y181902D01*
X153000D02*
X198000D01*
X223000Y135598D02*
Y140500D01*
Y135598D02*
X273000D01*
Y145402D01*
X228000D02*
X273000D01*
X197083Y134906D02*
X202594D01*
X203972Y123094D02*
Y134906D01*
Y123094D02*
X213028D01*
Y134906D01*
X203972D02*
X213028D01*
X125748Y125000D02*
Y134055D01*
X144252D01*
Y113976D02*
Y134055D01*
X148500Y110098D02*
Y115000D01*
Y110098D02*
X198500D01*
Y119902D01*
X153500D02*
X198500D01*
X115000Y154752D02*
X124055D01*
Y136248D02*
Y154752D01*
X103976Y136248D02*
X124055D01*
X144752Y156445D02*
Y165500D01*
X126248Y156445D02*
X144752D01*
X126248D02*
Y176524D01*
D15*
X482496Y113425D02*
Y116575D01*
D16*
X242000Y151500D02*
Y153499D01*
X243000Y154499D01*
X243999Y153499D01*
Y151500D01*
Y152999D01*
X242000D01*
X244999Y154499D02*
Y151500D01*
X246498D01*
X246998Y152000D01*
Y153999D01*
X246498Y154499D01*
X244999D01*
X249997Y153999D02*
X249498Y154499D01*
X248498D01*
X247998Y153999D01*
Y152000D01*
X248498Y151500D01*
X249498D01*
X249997Y152000D01*
X225999Y148999D02*
X225500Y149499D01*
X224500D01*
X224000Y148999D01*
Y147000D01*
X224500Y146500D01*
X225500D01*
X225999Y147000D01*
Y148000D01*
X225000D01*
X226999Y146500D02*
Y149499D01*
X228998Y146500D01*
Y149499D01*
X229998D02*
Y146500D01*
X231498D01*
X231997Y147000D01*
Y148999D01*
X231498Y149499D01*
X229998D01*
X267500Y148999D02*
X268000Y149499D01*
X269000D01*
X269499Y148999D01*
Y148499D01*
X269000Y148000D01*
X268500D01*
X269000D01*
X269499Y147500D01*
Y147000D01*
X269000Y146500D01*
X268000D01*
X267500Y147000D01*
X258999Y146500D02*
X257000D01*
X258999Y148499D01*
Y148999D01*
X258500Y149499D01*
X257500D01*
X257000Y148999D01*
X247500Y146500D02*
X248500D01*
X248000D01*
Y149499D01*
X247500Y148999D01*
X237500D02*
X238000Y149499D01*
X239000D01*
X239499Y148999D01*
Y147000D01*
X239000Y146500D01*
X238000D01*
X237500Y147000D01*
Y148999D01*
X480999Y184999D02*
X480500Y185499D01*
X479500D01*
X479000Y184999D01*
Y184499D01*
X479500Y184000D01*
X480500D01*
X480999Y183500D01*
Y183000D01*
X480500Y182500D01*
X479500D01*
X479000Y183000D01*
X481999Y182500D02*
Y185499D01*
X483498D01*
X483998Y184999D01*
Y184000D01*
X483498Y183500D01*
X481999D01*
X482999D02*
X483998Y182500D01*
X484998Y182000D02*
X486997D01*
X487997Y185499D02*
X489996D01*
Y184999D01*
X487997Y183000D01*
Y182500D01*
X393499Y191499D02*
X393000Y191999D01*
X392000D01*
X391500Y191499D01*
Y190999D01*
X392000Y190499D01*
X393000D01*
X393499Y190000D01*
Y189500D01*
X393000Y189000D01*
X392000D01*
X391500Y189500D01*
X394499Y189000D02*
Y191999D01*
X395999D01*
X396498Y191499D01*
Y190499D01*
X395999Y190000D01*
X394499D01*
X395499D02*
X396498Y189000D01*
X397498Y188500D02*
X399497D01*
X400497Y191499D02*
X400997Y191999D01*
X401997D01*
X402496Y191499D01*
Y189500D01*
X401997Y189000D01*
X400997D01*
X400497Y189500D01*
Y191499D01*
X333999Y119000D02*
X332000D01*
X333999Y120999D01*
Y121499D01*
X333500Y121999D01*
X332500D01*
X332000Y121499D01*
X322000D02*
X322500Y121999D01*
X323499D01*
X323999Y121499D01*
Y120999D01*
X323499Y120500D01*
X323000D01*
X323499D01*
X323999Y120000D01*
Y119500D01*
X323499Y119000D01*
X322500D01*
X322000Y119500D01*
X313499Y119000D02*
Y121999D01*
X312000Y120500D01*
X313999D01*
X301499Y121499D02*
X300999Y121999D01*
X300000D01*
X299500Y121499D01*
Y119500D01*
X300000Y119000D01*
X300999D01*
X301499Y119500D01*
X302499Y121999D02*
Y119000D01*
Y120500D01*
X304498D01*
Y121999D01*
Y119000D01*
X307497Y121499D02*
X306998Y121999D01*
X305998D01*
X305498Y121499D01*
Y119500D01*
X305998Y119000D01*
X306998D01*
X307497Y119500D01*
Y120500D01*
X306498D01*
X349499Y109999D02*
X349000Y110499D01*
X348000D01*
X347500Y109999D01*
Y108000D01*
X348000Y107500D01*
X349000D01*
X349499Y108000D01*
Y109000D01*
X348500D01*
X350499Y107500D02*
Y110499D01*
X352498Y107500D01*
Y110499D01*
X353498D02*
Y107500D01*
X354998D01*
X355497Y108000D01*
Y109999D01*
X354998Y110499D01*
X353498D01*
X311500Y110499D02*
X313499D01*
X312500D01*
Y107500D01*
X315999Y110499D02*
X314999D01*
X314499Y109999D01*
Y108000D01*
X314999Y107500D01*
X315999D01*
X316498Y108000D01*
Y109999D01*
X315999Y110499D01*
X317498D02*
Y108000D01*
X317998Y107500D01*
X318998D01*
X319497Y108000D01*
Y110499D01*
X322496Y109999D02*
X321997Y110499D01*
X320997D01*
X320497Y109999D01*
Y108000D01*
X320997Y107500D01*
X321997D01*
X322496Y108000D01*
X323496Y110499D02*
Y107500D01*
Y109000D01*
X325496D01*
Y110499D01*
Y107500D01*
X320500Y160500D02*
Y163499D01*
X322000D01*
X322499Y162999D01*
Y161999D01*
X322000Y161500D01*
X320500D01*
X323499Y160500D02*
Y162499D01*
X324499Y163499D01*
X325498Y162499D01*
Y160500D01*
Y161999D01*
X323499D01*
X327998Y160500D02*
Y163499D01*
X326498Y161999D01*
X328497D01*
X309000Y160500D02*
Y163499D01*
X310500D01*
X310999Y162999D01*
Y161999D01*
X310500Y161500D01*
X309000D01*
X311999Y160500D02*
Y162499D01*
X312999Y163499D01*
X313998Y162499D01*
Y160500D01*
Y161999D01*
X311999D01*
X316997Y160500D02*
X314998D01*
X316997Y162499D01*
Y162999D01*
X316498Y163499D01*
X315498D01*
X314998Y162999D01*
X305000Y137000D02*
X302001D01*
Y138499D01*
X302501Y138999D01*
X303501D01*
X304000Y138499D01*
Y137000D01*
X305000Y139999D02*
X303001D01*
X302001Y140999D01*
X303001Y141998D01*
X305000D01*
X303501D01*
Y139999D01*
X305000Y144997D02*
Y142998D01*
X303001Y144997D01*
X302501D01*
X302001Y144498D01*
Y143498D01*
X302501Y142998D01*
X295000Y137000D02*
X292001D01*
Y138499D01*
X292501Y138999D01*
X293500D01*
X294000Y138499D01*
Y137000D01*
X295000Y139999D02*
X293001D01*
X292001Y140999D01*
X293001Y141998D01*
X295000D01*
X293500D01*
Y139999D01*
X292501Y142998D02*
X292001Y143498D01*
Y144498D01*
X292501Y144997D01*
X294500D01*
X295000Y144498D01*
Y143498D01*
X294500Y142998D01*
X292501D01*
X284000Y135500D02*
X281001D01*
Y136999D01*
X281501Y137499D01*
X282501D01*
X283000Y136999D01*
Y135500D01*
X284000Y138499D02*
X282001D01*
X281001Y139499D01*
X282001Y140498D01*
X284000D01*
X282501D01*
Y138499D01*
X284000Y141498D02*
Y142498D01*
Y141998D01*
X281001D01*
X281501Y141498D01*
Y143997D02*
X281001Y144497D01*
Y145497D01*
X281501Y145997D01*
X283500D01*
X284000Y145497D01*
Y144497D01*
X283500Y143997D01*
X281501D01*
X321500Y180999D02*
Y179000D01*
X322500Y178000D01*
X323499Y179000D01*
Y180999D01*
X326498Y180499D02*
X325998Y180999D01*
X324999D01*
X324499Y180499D01*
Y178500D01*
X324999Y178000D01*
X325998D01*
X326498Y178500D01*
X329497Y180499D02*
X328998Y180999D01*
X327998D01*
X327498Y180499D01*
Y178500D01*
X327998Y178000D01*
X328998D01*
X329497Y178500D01*
X310500Y180999D02*
Y179000D01*
X311500Y178000D01*
X312499Y179000D01*
Y180999D01*
X315498Y180499D02*
X314999Y180999D01*
X313999D01*
X313499Y180499D01*
Y178500D01*
X313999Y178000D01*
X314999D01*
X315498Y178500D01*
X318497Y180499D02*
X317998Y180999D01*
X316998D01*
X316498Y180499D01*
Y178500D01*
X316998Y178000D01*
X317998D01*
X318497Y178500D01*
X303501Y178000D02*
X306500D01*
Y179499D01*
X306000Y179999D01*
X305500D01*
X305000Y179499D01*
Y178000D01*
Y179499D01*
X304501Y179999D01*
X304001D01*
X303501Y179499D01*
Y178000D01*
X306500Y180999D02*
X304501D01*
X303501Y181999D01*
X304501Y182998D01*
X306500D01*
X305000D01*
Y180999D01*
X303501Y183998D02*
Y185997D01*
Y184998D01*
X306500D01*
X293501Y179999D02*
X293001Y179499D01*
Y178500D01*
X293501Y178000D01*
X295500D01*
X296000Y178500D01*
Y179499D01*
X295500Y179999D01*
X294500D01*
Y179000D01*
X296000Y180999D02*
X293001D01*
X296000Y182998D01*
X293001D01*
Y183998D02*
X296000D01*
Y185498D01*
X295500Y185997D01*
X293501D01*
X293001Y185498D01*
Y183998D01*
X283501Y179999D02*
X283001Y179499D01*
Y178500D01*
X283501Y178000D01*
X285500D01*
X286000Y178500D01*
Y179499D01*
X285500Y179999D01*
X284501D01*
Y179000D01*
X286000Y180999D02*
X283001D01*
X286000Y182998D01*
X283001D01*
Y183998D02*
X286000D01*
Y185498D01*
X285500Y185997D01*
X283501D01*
X283001Y185498D01*
Y183998D01*
X267501Y188499D02*
X267001Y187999D01*
Y187000D01*
X267501Y186500D01*
X269500D01*
X270000Y187000D01*
Y187999D01*
X269500Y188499D01*
X268500D01*
Y187500D01*
X270000Y189499D02*
X267001D01*
X270000Y191498D01*
X267001D01*
Y192498D02*
X270000D01*
Y193998D01*
X269500Y194497D01*
X267501D01*
X267001Y193998D01*
Y192498D01*
X257501Y188499D02*
X257001Y187999D01*
Y187000D01*
X257501Y186500D01*
X258001D01*
X258501Y187000D01*
Y187999D01*
X259000Y188499D01*
X259500D01*
X260000Y187999D01*
Y187000D01*
X259500Y186500D01*
X257501Y191498D02*
X257001Y190999D01*
Y189999D01*
X257501Y189499D01*
X259500D01*
X260000Y189999D01*
Y190999D01*
X259500Y191498D01*
X257001Y192498D02*
X260000D01*
Y194497D01*
X247001Y187999D02*
X246501Y187499D01*
Y186500D01*
X247001Y186000D01*
X247501D01*
X248001Y186500D01*
Y187499D01*
X248500Y187999D01*
X249000D01*
X249500Y187499D01*
Y186500D01*
X249000Y186000D01*
X246501Y188999D02*
X249500D01*
Y190499D01*
X249000Y190998D01*
X247001D01*
X246501Y190499D01*
Y188999D01*
X249500Y191998D02*
X247501D01*
X246501Y192998D01*
X247501Y193997D01*
X249500D01*
X248001D01*
Y191998D01*
X227001Y186000D02*
X229000D01*
X230000Y187000D01*
X229000Y187999D01*
X227001D01*
X227501Y190998D02*
X227001Y190499D01*
Y189499D01*
X227501Y188999D01*
X229500D01*
X230000Y189499D01*
Y190499D01*
X229500Y190998D01*
X227501Y193997D02*
X227001Y193498D01*
Y192498D01*
X227501Y191998D01*
X229500D01*
X230000Y192498D01*
Y193498D01*
X229500Y193997D01*
X160000Y184999D02*
X160500Y185499D01*
X161500D01*
X161999Y184999D01*
Y184499D01*
X161500Y184000D01*
X161000D01*
X161500D01*
X161999Y183500D01*
Y183000D01*
X161500Y182500D01*
X160500D01*
X160000Y183000D01*
X162999Y182500D02*
Y185499D01*
X164499D01*
X164998Y184999D01*
Y184000D01*
X164499Y183500D01*
X162999D01*
X170000Y184999D02*
X170500Y185499D01*
X171500D01*
X171999Y184999D01*
Y184499D01*
X171500Y184000D01*
X171000D01*
X171500D01*
X171999Y183500D01*
Y183000D01*
X171500Y182500D01*
X170500D01*
X170000Y183000D01*
X172999Y182500D02*
Y185499D01*
X174998Y182500D01*
Y185499D01*
X180500Y184999D02*
X181000Y185499D01*
X182000D01*
X182499Y184999D01*
Y184499D01*
X182000Y184000D01*
X181500D01*
X182000D01*
X182499Y183500D01*
Y183000D01*
X182000Y182500D01*
X181000D01*
X180500Y183000D01*
X184999Y185499D02*
X183999D01*
X183499Y184999D01*
Y183000D01*
X183999Y182500D01*
X184999D01*
X185498Y183000D01*
Y184999D01*
X184999Y185499D01*
X202000Y178999D02*
Y177000D01*
X203000Y176000D01*
X203999Y177000D01*
Y178999D01*
X206998Y178499D02*
X206499Y178999D01*
X205499D01*
X204999Y178499D01*
Y176500D01*
X205499Y176000D01*
X206499D01*
X206998Y176500D01*
X209997Y178499D02*
X209498Y178999D01*
X208498D01*
X207998Y178499D01*
Y176500D01*
X208498Y176000D01*
X209498D01*
X209997Y176500D01*
X138499Y177499D02*
X137999Y177999D01*
X137000D01*
X136500Y177499D01*
Y175500D01*
X137000Y175000D01*
X137999D01*
X138499Y175500D01*
Y176499D01*
X137500D01*
X139499Y175000D02*
Y177999D01*
X141498Y175000D01*
Y177999D01*
X142498D02*
Y175000D01*
X143998D01*
X144497Y175500D01*
Y177499D01*
X143998Y177999D01*
X142498D01*
X201500Y116999D02*
Y115000D01*
X202500Y114000D01*
X203499Y115000D01*
Y116999D01*
X206498Y116499D02*
X205998Y116999D01*
X204999D01*
X204499Y116499D01*
Y114500D01*
X204999Y114000D01*
X205998D01*
X206498Y114500D01*
X209497Y116499D02*
X208998Y116999D01*
X207998D01*
X207498Y116499D01*
Y114500D01*
X207998Y114000D01*
X208998D01*
X209497Y114500D01*
X137999Y115499D02*
X137499Y115999D01*
X136500D01*
X136000Y115499D01*
Y113500D01*
X136500Y113000D01*
X137499D01*
X137999Y113500D01*
Y114499D01*
X137000D01*
X138999Y113000D02*
Y115999D01*
X140998Y113000D01*
Y115999D01*
X141998D02*
Y113000D01*
X143498D01*
X143997Y113500D01*
Y115499D01*
X143498Y115999D01*
X141998D01*
X182500Y122000D02*
Y124999D01*
X181000Y123500D01*
X182999D01*
X185499Y124999D02*
X184499D01*
X183999Y124499D01*
Y122500D01*
X184499Y122000D01*
X185499D01*
X185998Y122500D01*
Y124499D01*
X185499Y124999D01*
X172000Y122000D02*
Y124999D01*
X170500Y123500D01*
X172499D01*
X173499Y122000D02*
Y124999D01*
X175498Y122000D01*
Y124999D01*
X161999Y122000D02*
Y124999D01*
X160500Y123500D01*
X162499D01*
X163499Y122000D02*
Y124999D01*
X164999D01*
X165498Y124499D01*
Y123500D01*
X164999Y123000D01*
X163499D01*
X347900Y196899D02*
Y193900D01*
X349899D01*
X350899Y196399D02*
X351399Y196899D01*
X352398D01*
X352898Y196399D01*
Y195899D01*
X352398Y195399D01*
X351899D01*
X352398D01*
X352898Y194900D01*
Y194400D01*
X352398Y193900D01*
X351399D01*
X350899Y194400D01*
X350199Y192299D02*
X349699Y192799D01*
X348700D01*
X348200Y192299D01*
Y190300D01*
X348700Y189800D01*
X349699D01*
X350199Y190300D01*
X353198Y189800D02*
X351199D01*
X353198Y191799D01*
Y192299D01*
X352698Y192799D01*
X351699D01*
X351199Y192299D01*
X354198D02*
X354698Y192799D01*
X355698D01*
X356197Y192299D01*
Y191799D01*
X355698Y191299D01*
X356197Y190800D01*
Y190300D01*
X355698Y189800D01*
X354698D01*
X354198Y190300D01*
Y190800D01*
X354698Y191299D01*
X354198Y191799D01*
Y192299D01*
X354698Y191299D02*
X355698D01*
X355199Y192299D02*
X354699Y192799D01*
X353700D01*
X353200Y192299D01*
Y190300D01*
X353700Y189800D01*
X354699D01*
X355199Y190300D01*
X358198Y189800D02*
X356199D01*
X358198Y191799D01*
Y192299D01*
X357698Y192799D01*
X356699D01*
X356199Y192299D01*
X359198Y192799D02*
X361197D01*
Y192299D01*
X359198Y190300D01*
Y189800D01*
X294500Y190500D02*
Y192499D01*
X295500Y193499D01*
X296499Y192499D01*
Y190500D01*
Y191999D01*
X294500D01*
X297499Y190500D02*
Y193499D01*
X299498Y190500D01*
Y193499D01*
X300498D02*
X302497D01*
X301498D01*
Y190500D01*
X303497D02*
X304497D01*
X303997D01*
Y193499D01*
X303497Y192999D01*
X356500Y180599D02*
Y177600D01*
X358499D01*
X359499D02*
Y180599D01*
X360999D01*
X361498Y180099D01*
Y179100D01*
X360999Y178600D01*
X359499D01*
X364497Y180599D02*
X362498D01*
Y179100D01*
X363498D01*
X362498D01*
Y177600D01*
X365497D02*
X366497D01*
X365997D01*
Y180599D01*
X365497Y180099D01*
X457000Y144000D02*
Y146999D01*
X458499D01*
X458999Y146499D01*
Y145500D01*
X458499Y145000D01*
X457000D01*
X458000D02*
X458999Y144000D01*
X461998D02*
X459999D01*
X461998Y145999D01*
Y146499D01*
X461498Y146999D01*
X460499D01*
X459999Y146499D01*
X462998Y144000D02*
X463998D01*
X463498D01*
Y146999D01*
X462998Y146499D01*
X204500Y140499D02*
X205500D01*
X205000D01*
Y137500D01*
X204500D01*
X205500D01*
X208998Y139999D02*
X208499Y140499D01*
X207499D01*
X206999Y139999D01*
Y138000D01*
X207499Y137500D01*
X208499D01*
X208998Y138000D01*
X211998Y140499D02*
X209998D01*
Y138999D01*
X210998Y139499D01*
X211498D01*
X211998Y138999D01*
Y138000D01*
X211498Y137500D01*
X210498D01*
X209998Y138000D01*
X223999Y124999D02*
X223499Y125499D01*
X222500D01*
X222000Y124999D01*
Y123000D01*
X222500Y122500D01*
X223499D01*
X223999Y123000D01*
X226998Y122500D02*
X224999D01*
X226998Y124499D01*
Y124999D01*
X226499Y125499D01*
X225499D01*
X224999Y124999D01*
X229997Y122500D02*
X227998D01*
X229997Y124499D01*
Y124999D01*
X229498Y125499D01*
X228498D01*
X227998Y124999D01*
X343500Y149499D02*
Y148999D01*
X344500Y148000D01*
X345499Y148999D01*
Y149499D01*
X344500Y148000D02*
Y146500D01*
X348498D02*
X346499D01*
X348498Y148499D01*
Y148999D01*
X347998Y149499D01*
X346999D01*
X346499Y148999D01*
X393000Y128499D02*
Y127999D01*
X394000Y126999D01*
X394999Y127999D01*
Y128499D01*
X394000Y126999D02*
Y125500D01*
X395999D02*
X396999D01*
X396499D01*
Y128499D01*
X395999Y127999D01*
X325999Y125999D02*
X325500Y126499D01*
X324500D01*
X324000Y125999D01*
Y125499D01*
X324500Y124999D01*
X325500D01*
X325999Y124500D01*
Y124000D01*
X325500Y123500D01*
X324500D01*
X324000Y124000D01*
X326999Y126499D02*
Y123500D01*
X328499D01*
X328998Y124000D01*
Y124500D01*
X328499Y124999D01*
X326999D01*
X328499D01*
X328998Y125499D01*
Y125999D01*
X328499Y126499D01*
X326999D01*
X331997Y123500D02*
X329998D01*
X331997Y125499D01*
Y125999D01*
X331498Y126499D01*
X330498D01*
X329998Y125999D01*
X334996Y123500D02*
X332997D01*
X334996Y125499D01*
Y125999D01*
X334497Y126499D01*
X333497D01*
X332997Y125999D01*
X185001Y154499D02*
X184501Y153999D01*
Y153000D01*
X185001Y152500D01*
X185501D01*
X186001Y153000D01*
Y153999D01*
X186500Y154499D01*
X187000D01*
X187500Y153999D01*
Y153000D01*
X187000Y152500D01*
X184501Y155499D02*
X187500D01*
Y156999D01*
X187000Y157498D01*
X186500D01*
X186001Y156999D01*
Y155499D01*
Y156999D01*
X185501Y157498D01*
X185001D01*
X184501Y156999D01*
Y155499D01*
X187500Y158498D02*
Y159498D01*
Y158998D01*
X184501D01*
X185001Y158498D01*
Y160997D02*
X184501Y161497D01*
Y162497D01*
X185001Y162997D01*
X185501D01*
X186001Y162497D01*
X186500Y162997D01*
X187000D01*
X187500Y162497D01*
Y161497D01*
X187000Y160997D01*
X186500D01*
X186001Y161497D01*
X185501Y160997D01*
X185001D01*
X186001Y161497D02*
Y162497D01*
X164501Y153999D02*
X164001Y153499D01*
Y152500D01*
X164501Y152000D01*
X165001D01*
X165500Y152500D01*
Y153499D01*
X166000Y153999D01*
X166500D01*
X167000Y153499D01*
Y152500D01*
X166500Y152000D01*
X164001Y154999D02*
X167000D01*
Y156499D01*
X166500Y156998D01*
X166000D01*
X165500Y156499D01*
Y154999D01*
Y156499D01*
X165001Y156998D01*
X164501D01*
X164001Y156499D01*
Y154999D01*
X167000Y157998D02*
Y158998D01*
Y158498D01*
X164001D01*
X164501Y157998D01*
X164001Y160497D02*
Y162497D01*
X164501D01*
X166500Y160497D01*
X167000D01*
X184499Y148999D02*
X184000Y149499D01*
X183000D01*
X182500Y148999D01*
Y148499D01*
X183000Y148000D01*
X184000D01*
X184499Y147500D01*
Y147000D01*
X184000Y146500D01*
X183000D01*
X182500Y147000D01*
X185499Y149499D02*
Y146500D01*
X186999D01*
X187498Y147000D01*
Y147500D01*
X186999Y148000D01*
X185499D01*
X186999D01*
X187498Y148499D01*
Y148999D01*
X186999Y149499D01*
X185499D01*
X188498Y146500D02*
X189498D01*
X188998D01*
Y149499D01*
X188498Y148999D01*
X192997Y149499D02*
X191997Y148999D01*
X190997Y148000D01*
Y147000D01*
X191497Y146500D01*
X192497D01*
X192997Y147000D01*
Y147500D01*
X192497Y148000D01*
X190997D01*
X394001Y161999D02*
X393501Y161500D01*
Y160500D01*
X394001Y160000D01*
X394501D01*
X395001Y160500D01*
Y161500D01*
X395500Y161999D01*
X396000D01*
X396500Y161500D01*
Y160500D01*
X396000Y160000D01*
X393501Y162999D02*
X396500D01*
Y164499D01*
X396000Y164998D01*
X395500D01*
X395001Y164499D01*
Y162999D01*
Y164499D01*
X394501Y164998D01*
X394001D01*
X393501Y164499D01*
Y162999D01*
X396500Y165998D02*
Y166998D01*
Y166498D01*
X393501D01*
X394001Y165998D01*
X396500Y169997D02*
X393501D01*
X395001Y168497D01*
Y170497D01*
X401499Y161999D02*
X400999Y162499D01*
X400000D01*
X399500Y161999D01*
Y161499D01*
X400000Y161000D01*
X400999D01*
X401499Y160500D01*
Y160000D01*
X400999Y159500D01*
X400000D01*
X399500Y160000D01*
X402499Y162499D02*
Y159500D01*
X403999D01*
X404498Y160000D01*
Y160500D01*
X403999Y161000D01*
X402499D01*
X403999D01*
X404498Y161499D01*
Y161999D01*
X403999Y162499D01*
X402499D01*
X405498Y159500D02*
X406498D01*
X405998D01*
Y162499D01*
X405498Y161999D01*
X407997D02*
X408497Y162499D01*
X409497D01*
X409997Y161999D01*
Y161499D01*
X409497Y161000D01*
X408997D01*
X409497D01*
X409997Y160500D01*
Y160000D01*
X409497Y159500D01*
X408497D01*
X407997Y160000D01*
X372999Y162499D02*
X372499Y162999D01*
X371500D01*
X371000Y162499D01*
Y161999D01*
X371500Y161500D01*
X372499D01*
X372999Y161000D01*
Y160500D01*
X372499Y160000D01*
X371500D01*
X371000Y160500D01*
X373999Y162999D02*
Y160000D01*
X375499D01*
X375998Y160500D01*
Y161000D01*
X375499Y161500D01*
X373999D01*
X375499D01*
X375998Y161999D01*
Y162499D01*
X375499Y162999D01*
X373999D01*
X376998Y160000D02*
X377998D01*
X377498D01*
Y162999D01*
X376998Y162499D01*
X381497Y160000D02*
X379497D01*
X381497Y161999D01*
Y162499D01*
X380997Y162999D01*
X379997D01*
X379497Y162499D01*
X338001Y148999D02*
X337501Y148500D01*
Y147500D01*
X338001Y147000D01*
X338501D01*
X339001Y147500D01*
Y148500D01*
X339500Y148999D01*
X340000D01*
X340500Y148500D01*
Y147500D01*
X340000Y147000D01*
X337501Y149999D02*
X340500D01*
Y151499D01*
X340000Y151998D01*
X339500D01*
X339001Y151499D01*
Y149999D01*
Y151499D01*
X338501Y151998D01*
X338001D01*
X337501Y151499D01*
Y149999D01*
X340500Y152998D02*
Y153998D01*
Y153498D01*
X337501D01*
X338001Y152998D01*
X340500Y155497D02*
Y156497D01*
Y155997D01*
X337501D01*
X338001Y155497D01*
X427999Y134999D02*
X427499Y135499D01*
X426500D01*
X426000Y134999D01*
Y134499D01*
X426500Y134000D01*
X427499D01*
X427999Y133500D01*
Y133000D01*
X427499Y132500D01*
X426500D01*
X426000Y133000D01*
X428999Y132500D02*
X429999D01*
X429499D01*
Y135499D01*
X428999Y134999D01*
X458000Y160000D02*
X455001D01*
Y161500D01*
X455501Y161999D01*
X456500D01*
X457000Y161500D01*
Y160000D01*
Y161000D02*
X458000Y161999D01*
X455501Y162999D02*
X455001Y163499D01*
Y164499D01*
X455501Y164998D01*
X456001D01*
X456500Y164499D01*
Y163999D01*
Y164499D01*
X457000Y164998D01*
X457500D01*
X458000Y164499D01*
Y163499D01*
X457500Y162999D01*
X455001Y167997D02*
X455501Y166998D01*
X456500Y165998D01*
X457500D01*
X458000Y166498D01*
Y167498D01*
X457500Y167997D01*
X457000D01*
X456500Y167498D01*
Y165998D01*
X447500Y151000D02*
X444501D01*
Y152499D01*
X445001Y152999D01*
X446000D01*
X446500Y152499D01*
Y151000D01*
Y152000D02*
X447500Y152999D01*
X445001Y153999D02*
X444501Y154499D01*
Y155499D01*
X445001Y155998D01*
X445501D01*
X446000Y155499D01*
Y154999D01*
Y155499D01*
X446500Y155998D01*
X447000D01*
X447500Y155499D01*
Y154499D01*
X447000Y153999D01*
X444501Y158997D02*
Y156998D01*
X446000D01*
X445501Y157998D01*
Y158498D01*
X446000Y158997D01*
X447000D01*
X447500Y158498D01*
Y157498D01*
X447000Y156998D01*
X442500Y151000D02*
X439501D01*
Y152499D01*
X440001Y152999D01*
X441001D01*
X441500Y152499D01*
Y151000D01*
Y152000D02*
X442500Y152999D01*
X440001Y153999D02*
X439501Y154499D01*
Y155499D01*
X440001Y155998D01*
X440501D01*
X441001Y155499D01*
Y154999D01*
Y155499D01*
X441500Y155998D01*
X442000D01*
X442500Y155499D01*
Y154499D01*
X442000Y153999D01*
X442500Y158498D02*
X439501D01*
X441001Y156998D01*
Y158997D01*
X437500Y151000D02*
X434501D01*
Y152499D01*
X435001Y152999D01*
X436000D01*
X436500Y152499D01*
Y151000D01*
Y152000D02*
X437500Y152999D01*
X435001Y153999D02*
X434501Y154499D01*
Y155499D01*
X435001Y155998D01*
X435501D01*
X436000Y155499D01*
Y154999D01*
Y155499D01*
X436500Y155998D01*
X437000D01*
X437500Y155499D01*
Y154499D01*
X437000Y153999D01*
X435001Y156998D02*
X434501Y157498D01*
Y158498D01*
X435001Y158997D01*
X435501D01*
X436000Y158498D01*
Y157998D01*
Y158498D01*
X436500Y158997D01*
X437000D01*
X437500Y158498D01*
Y157498D01*
X437000Y156998D01*
X432500Y151000D02*
X429501D01*
Y152499D01*
X430001Y152999D01*
X431001D01*
X431500Y152499D01*
Y151000D01*
Y152000D02*
X432500Y152999D01*
X430001Y153999D02*
X429501Y154499D01*
Y155499D01*
X430001Y155998D01*
X430501D01*
X431001Y155499D01*
Y154999D01*
Y155499D01*
X431500Y155998D01*
X432000D01*
X432500Y155499D01*
Y154499D01*
X432000Y153999D01*
X432500Y158997D02*
Y156998D01*
X430501Y158997D01*
X430001D01*
X429501Y158498D01*
Y157498D01*
X430001Y156998D01*
X427500Y151500D02*
X424501D01*
Y152999D01*
X425001Y153499D01*
X426000D01*
X426500Y152999D01*
Y151500D01*
Y152500D02*
X427500Y153499D01*
X425001Y154499D02*
X424501Y154999D01*
Y155999D01*
X425001Y156498D01*
X425501D01*
X426000Y155999D01*
Y155499D01*
Y155999D01*
X426500Y156498D01*
X427000D01*
X427500Y155999D01*
Y154999D01*
X427000Y154499D01*
X427500Y157498D02*
Y158498D01*
Y157998D01*
X424501D01*
X425001Y157498D01*
X422000Y151000D02*
X419001D01*
Y152499D01*
X419501Y152999D01*
X420501D01*
X421000Y152499D01*
Y151000D01*
Y152000D02*
X422000Y152999D01*
X419501Y153999D02*
X419001Y154499D01*
Y155499D01*
X419501Y155998D01*
X420001D01*
X420501Y155499D01*
Y154999D01*
Y155499D01*
X421000Y155998D01*
X421500D01*
X422000Y155499D01*
Y154499D01*
X421500Y153999D01*
X419501Y156998D02*
X419001Y157498D01*
Y158498D01*
X419501Y158997D01*
X421500D01*
X422000Y158498D01*
Y157498D01*
X421500Y156998D01*
X419501D01*
X417000Y151000D02*
X414001D01*
Y152499D01*
X414501Y152999D01*
X415500D01*
X416000Y152499D01*
Y151000D01*
Y152000D02*
X417000Y152999D01*
Y155998D02*
Y153999D01*
X415001Y155998D01*
X414501D01*
X414001Y155499D01*
Y154499D01*
X414501Y153999D01*
X416500Y156998D02*
X417000Y157498D01*
Y158498D01*
X416500Y158997D01*
X414501D01*
X414001Y158498D01*
Y157498D01*
X414501Y156998D01*
X415001D01*
X415500Y157498D01*
Y158997D01*
X460604Y148200D02*
X457605D01*
Y149699D01*
X458105Y150199D01*
X459104D01*
X459604Y149699D01*
Y148200D01*
Y149200D02*
X460604Y150199D01*
Y153198D02*
Y151199D01*
X458604Y153198D01*
X458105D01*
X457605Y152699D01*
Y151699D01*
X458105Y151199D01*
X460604Y156197D02*
Y154198D01*
X458604Y156197D01*
X458105D01*
X457605Y155698D01*
Y154698D01*
X458105Y154198D01*
X442000Y139000D02*
Y141999D01*
X443500D01*
X443999Y141499D01*
Y140499D01*
X443500Y140000D01*
X442000D01*
X443000D02*
X443999Y139000D01*
X446998D02*
X444999D01*
X446998Y140999D01*
Y141499D01*
X446498Y141999D01*
X445499D01*
X444999Y141499D01*
X447998D02*
X448498Y141999D01*
X449498D01*
X449997Y141499D01*
Y139500D01*
X449498Y139000D01*
X448498D01*
X447998Y139500D01*
Y141499D01*
X483100Y119500D02*
Y122499D01*
X484599D01*
X485099Y121999D01*
Y121000D01*
X484599Y120500D01*
X483100D01*
X484100D02*
X485099Y119500D01*
X486099D02*
X487099D01*
X486599D01*
Y122499D01*
X486099Y121999D01*
X488598Y120000D02*
X489098Y119500D01*
X490098D01*
X490598Y120000D01*
Y121999D01*
X490098Y122499D01*
X489098D01*
X488598Y121999D01*
Y121499D01*
X489098Y121000D01*
X490598D01*
X462000Y117000D02*
Y119999D01*
X463499D01*
X463999Y119499D01*
Y118500D01*
X463499Y118000D01*
X462000D01*
X463000D02*
X463999Y117000D01*
X464999D02*
X465999D01*
X465499D01*
Y119999D01*
X464999Y119499D01*
X467498D02*
X467998Y119999D01*
X468998D01*
X469498Y119499D01*
Y118999D01*
X468998Y118500D01*
X469498Y118000D01*
Y117500D01*
X468998Y117000D01*
X467998D01*
X467498Y117500D01*
Y118000D01*
X467998Y118500D01*
X467498Y118999D01*
Y119499D01*
X467998Y118500D02*
X468998D01*
X408000Y128000D02*
Y130999D01*
X409500D01*
X409999Y130499D01*
Y129499D01*
X409500Y129000D01*
X408000D01*
X409000D02*
X409999Y128000D01*
X410999D02*
X411999D01*
X411499D01*
Y130999D01*
X410999Y130499D01*
X413498Y130999D02*
X415498D01*
Y130499D01*
X413498Y128500D01*
Y128000D01*
X408000Y132500D02*
Y135499D01*
X409500D01*
X409999Y134999D01*
Y134000D01*
X409500Y133500D01*
X408000D01*
X409000D02*
X409999Y132500D01*
X410999D02*
X411999D01*
X411499D01*
Y135499D01*
X410999Y134999D01*
X415498Y135499D02*
X414498Y134999D01*
X413498Y134000D01*
Y133000D01*
X413998Y132500D01*
X414998D01*
X415498Y133000D01*
Y133500D01*
X414998Y134000D01*
X413498D01*
X408000Y136500D02*
Y139499D01*
X409500D01*
X409999Y138999D01*
Y137999D01*
X409500Y137500D01*
X408000D01*
X409000D02*
X409999Y136500D01*
X410999D02*
X411999D01*
X411499D01*
Y139499D01*
X410999Y138999D01*
X415498Y139499D02*
X413498D01*
Y137999D01*
X414498Y138499D01*
X414998D01*
X415498Y137999D01*
Y137000D01*
X414998Y136500D01*
X413998D01*
X413498Y137000D01*
X384500Y149000D02*
Y151999D01*
X385999D01*
X386499Y151499D01*
Y150499D01*
X385999Y150000D01*
X384500D01*
X385500D02*
X386499Y149000D01*
X387499D02*
X388499D01*
X387999D01*
Y151999D01*
X387499Y151499D01*
X391498Y149000D02*
Y151999D01*
X389998Y150499D01*
X391998D01*
X447499Y122000D02*
Y123999D01*
X447000Y124499D01*
X446000D01*
X445500Y123999D01*
Y122000D01*
X446000Y121500D01*
X447000D01*
X446500Y122500D02*
X447499Y121500D01*
X447000D02*
X447499Y122000D01*
X450498Y121500D02*
X448499D01*
X450498Y123499D01*
Y123999D01*
X449999Y124499D01*
X448999D01*
X448499Y123999D01*
X447507Y133376D02*
Y135375D01*
X447007Y135875D01*
X446007D01*
X445507Y135375D01*
Y133376D01*
X446007Y132876D01*
X447007D01*
X446507Y133875D02*
X447507Y132876D01*
X447007D02*
X447507Y133376D01*
X448506Y132876D02*
X449506D01*
X449006D01*
Y135875D01*
X448506Y135375D01*
X483500Y130000D02*
Y132999D01*
X485000D01*
X485499Y132499D01*
Y131500D01*
X485000Y131000D01*
X483500D01*
X486499Y130000D02*
X487499D01*
X486999D01*
Y132999D01*
X486499Y132499D01*
X310156Y137599D02*
Y134600D01*
X312156D01*
X315155Y137599D02*
X313156D01*
Y134600D01*
X315155D01*
X313156Y136100D02*
X314155D01*
X316155Y137599D02*
Y134600D01*
X317654D01*
X318154Y135100D01*
Y137099D01*
X317654Y137599D01*
X316155D01*
X319154Y135100D02*
X319653Y134600D01*
X320653D01*
X321153Y135100D01*
Y137099D01*
X320653Y137599D01*
X319653D01*
X319154Y137099D01*
Y136599D01*
X319653Y136100D01*
X321153D01*
X460001Y171000D02*
X463000D01*
Y172999D01*
X460001Y175998D02*
Y173999D01*
X463000D01*
Y175998D01*
X461501Y173999D02*
Y174999D01*
X460001Y176998D02*
X463000D01*
Y178498D01*
X462500Y178997D01*
X460501D01*
X460001Y178498D01*
Y176998D01*
X460501Y179997D02*
X460001Y180497D01*
Y181497D01*
X460501Y181996D01*
X461001D01*
X461501Y181497D01*
X462000Y181996D01*
X462500D01*
X463000Y181497D01*
Y180497D01*
X462500Y179997D01*
X462000D01*
X461501Y180497D01*
X461001Y179997D01*
X460501D01*
X461501Y180497D02*
Y181497D01*
X404501Y171500D02*
X407500D01*
Y173499D01*
X404501Y176498D02*
Y174499D01*
X407500D01*
Y176498D01*
X406001Y174499D02*
Y175499D01*
X404501Y177498D02*
X407500D01*
Y178998D01*
X407000Y179497D01*
X405001D01*
X404501Y178998D01*
Y177498D01*
X407500Y180497D02*
Y181497D01*
Y180997D01*
X404501D01*
X405001Y180497D01*
X310000Y144999D02*
Y142000D01*
X311999D01*
X314998D02*
X312999D01*
X314998Y143999D01*
Y144499D01*
X314498Y144999D01*
X313499D01*
X312999Y144499D01*
X362501Y156000D02*
X365500D01*
Y157999D01*
Y158999D02*
Y159999D01*
Y159499D01*
X362501D01*
X363001Y158999D01*
X246999Y122499D02*
X246000D01*
X246499D01*
Y120000D01*
X246000Y119500D01*
X245500D01*
X245000Y120000D01*
X247999Y119500D02*
X248999D01*
X248499D01*
Y122499D01*
X247999Y121999D01*
X250498Y119500D02*
X251498D01*
X250998D01*
Y122499D01*
X250498Y121999D01*
X276999Y164499D02*
X276000D01*
X276500D01*
Y162000D01*
X276000Y161500D01*
X275500D01*
X275000Y162000D01*
X277999Y161500D02*
X278999D01*
X278499D01*
Y164499D01*
X277999Y163999D01*
X280498D02*
X280998Y164499D01*
X281998D01*
X282498Y163999D01*
Y162000D01*
X281998Y161500D01*
X280998D01*
X280498Y162000D01*
Y163999D01*
X274999Y154499D02*
X274000D01*
X274500D01*
Y152000D01*
X274000Y151500D01*
X273500D01*
X273000Y152000D01*
X275999Y153999D02*
X276499Y154499D01*
X277499D01*
X277998Y153999D01*
Y153499D01*
X277499Y152999D01*
X277998Y152500D01*
Y152000D01*
X277499Y151500D01*
X276499D01*
X275999Y152000D01*
Y152500D01*
X276499Y152999D01*
X275999Y153499D01*
Y153999D01*
X276499Y152999D02*
X277499D01*
X399999Y185999D02*
X399000D01*
X399500D01*
Y183500D01*
X399000Y183000D01*
X398500D01*
X398000Y183500D01*
X400999Y185999D02*
X402998D01*
Y185499D01*
X400999Y183500D01*
Y183000D01*
X219499Y141999D02*
X218500D01*
X219000D01*
Y139500D01*
X218500Y139000D01*
X218000D01*
X217500Y139500D01*
X222498Y141999D02*
X221499Y141499D01*
X220499Y140499D01*
Y139500D01*
X220999Y139000D01*
X221999D01*
X222498Y139500D01*
Y140000D01*
X221999Y140499D01*
X220499D01*
X137999Y110999D02*
X137000D01*
X137499D01*
Y108500D01*
X137000Y108000D01*
X136500D01*
X136000Y108500D01*
X140998Y110999D02*
X138999D01*
Y109500D01*
X139999Y109999D01*
X140499D01*
X140998Y109500D01*
Y108500D01*
X140499Y108000D01*
X139499D01*
X138999Y108500D01*
X293999Y115999D02*
X293000D01*
X293499D01*
Y113500D01*
X293000Y113000D01*
X292500D01*
X292000Y113500D01*
X294999Y115499D02*
X295499Y115999D01*
X296498D01*
X296998Y115499D01*
Y114999D01*
X296498Y114499D01*
X295999D01*
X296498D01*
X296998Y114000D01*
Y113500D01*
X296498Y113000D01*
X295499D01*
X294999Y113500D01*
X217999Y178499D02*
X217000D01*
X217499D01*
Y176000D01*
X217000Y175500D01*
X216500D01*
X216000Y176000D01*
X220998Y175500D02*
X218999D01*
X220998Y177499D01*
Y177999D01*
X220498Y178499D01*
X219499D01*
X218999Y177999D01*
X217999Y166499D02*
X217000D01*
X217499D01*
Y164000D01*
X217000Y163500D01*
X216500D01*
X216000Y164000D01*
X218999Y163500D02*
X219999D01*
X219499D01*
Y166499D01*
X218999Y165999D01*
X467000Y135499D02*
X468000D01*
X467500D01*
Y132500D01*
X467000D01*
X468000D01*
X471498Y134999D02*
X470999Y135499D01*
X469999D01*
X469499Y134999D01*
Y133000D01*
X469999Y132500D01*
X470999D01*
X471498Y133000D01*
X472498Y134999D02*
X472998Y135499D01*
X473998D01*
X474498Y134999D01*
Y134499D01*
X473998Y134000D01*
X473498D01*
X473998D01*
X474498Y133500D01*
Y133000D01*
X473998Y132500D01*
X472998D01*
X472498Y133000D01*
X466500Y155999D02*
X467500D01*
X467000D01*
Y153000D01*
X466500D01*
X467500D01*
X470998Y155499D02*
X470499Y155999D01*
X469499D01*
X468999Y155499D01*
Y153500D01*
X469499Y153000D01*
X470499D01*
X470998Y153500D01*
X473998Y153000D02*
X471998D01*
X473998Y154999D01*
Y155499D01*
X473498Y155999D01*
X472498D01*
X471998Y155499D01*
X366000Y149999D02*
X367000D01*
X366500D01*
Y147000D01*
X366000D01*
X367000D01*
X370498Y149499D02*
X369999Y149999D01*
X368999D01*
X368499Y149499D01*
Y147500D01*
X368999Y147000D01*
X369999D01*
X370498Y147500D01*
X371498Y147000D02*
X372498D01*
X371998D01*
Y149999D01*
X371498Y149499D01*
X386501Y127999D02*
Y126000D01*
X388000D01*
Y127000D01*
Y126000D01*
X389500D01*
X386501Y128999D02*
X389500D01*
Y130499D01*
X389000Y130998D01*
X388500D01*
X388000Y130499D01*
Y128999D01*
Y130499D01*
X387501Y130998D01*
X387001D01*
X386501Y130499D01*
Y128999D01*
X389500Y131998D02*
Y132998D01*
Y132498D01*
X386501D01*
X387001Y131998D01*
X472500Y119999D02*
Y117000D01*
X474000D01*
X474499Y117500D01*
Y119499D01*
X474000Y119999D01*
X472500D01*
X477498Y119499D02*
X476999Y119999D01*
X475999D01*
X475499Y119499D01*
Y118999D01*
X475999Y118500D01*
X476999D01*
X477498Y118000D01*
Y117500D01*
X476999Y117000D01*
X475999D01*
X475499Y117500D01*
X478498Y117000D02*
X479498D01*
X478998D01*
Y119999D01*
X478498Y119499D01*
X105500Y159999D02*
Y157000D01*
X107000D01*
X107499Y157500D01*
Y159499D01*
X107000Y159999D01*
X105500D01*
X109999Y157000D02*
Y159999D01*
X108499Y158500D01*
X110498D01*
X126500Y138499D02*
Y135500D01*
X127999D01*
X128499Y136000D01*
Y137999D01*
X127999Y138499D01*
X126500D01*
X129499Y137999D02*
X129999Y138499D01*
X130999D01*
X131498Y137999D01*
Y137499D01*
X130999Y136999D01*
X130499D01*
X130999D01*
X131498Y136500D01*
Y136000D01*
X130999Y135500D01*
X129999D01*
X129499Y136000D01*
X119000Y174999D02*
Y172000D01*
X120500D01*
X120999Y172500D01*
Y174499D01*
X120500Y174999D01*
X119000D01*
X123998Y172000D02*
X121999D01*
X123998Y173999D01*
Y174499D01*
X123499Y174999D01*
X122499D01*
X121999Y174499D01*
X171499Y132999D02*
X171000Y133499D01*
X170000D01*
X169500Y132999D01*
Y131000D01*
X170000Y130500D01*
X171000D01*
X171499Y131000D01*
X174498Y130500D02*
X172499D01*
X174498Y132499D01*
Y132999D01*
X173999Y133499D01*
X172999D01*
X172499Y132999D01*
X177497Y133499D02*
X175498D01*
Y132000D01*
X176498Y132499D01*
X176998D01*
X177497Y132000D01*
Y131000D01*
X176998Y130500D01*
X175998D01*
X175498Y131000D01*
X159001Y130499D02*
X158501Y129999D01*
Y129000D01*
X159001Y128500D01*
X161000D01*
X161500Y129000D01*
Y129999D01*
X161000Y130499D01*
X161500Y133498D02*
Y131499D01*
X159501Y133498D01*
X159001D01*
X158501Y132999D01*
Y131999D01*
X159001Y131499D01*
X161500Y135998D02*
X158501D01*
X160001Y134498D01*
Y136497D01*
X165001Y130499D02*
X164501Y129999D01*
Y129000D01*
X165001Y128500D01*
X167000D01*
X167500Y129000D01*
Y129999D01*
X167000Y130499D01*
X167500Y133498D02*
Y131499D01*
X165501Y133498D01*
X165001D01*
X164501Y132999D01*
Y131999D01*
X165001Y131499D01*
Y134498D02*
X164501Y134998D01*
Y135998D01*
X165001Y136497D01*
X165501D01*
X166000Y135998D01*
Y135498D01*
Y135998D01*
X166500Y136497D01*
X167000D01*
X167500Y135998D01*
Y134998D01*
X167000Y134498D01*
X485299Y125599D02*
X484799Y126099D01*
X483800D01*
X483300Y125599D01*
Y123600D01*
X483800Y123100D01*
X484799D01*
X485299Y123600D01*
X486299Y123100D02*
X487299D01*
X486799D01*
Y126099D01*
X486299Y125599D01*
X488798D02*
X489298Y126099D01*
X490298D01*
X490798Y125599D01*
Y125099D01*
X490298Y124600D01*
X490798Y124100D01*
Y123600D01*
X490298Y123100D01*
X489298D01*
X488798Y123600D01*
Y124100D01*
X489298Y124600D01*
X488798Y125099D01*
Y125599D01*
X489298Y124600D02*
X490298D01*
X472499Y110999D02*
X472000Y111499D01*
X471000D01*
X470500Y110999D01*
Y109000D01*
X471000Y108500D01*
X472000D01*
X472499Y109000D01*
X473499Y108500D02*
X474499D01*
X473999D01*
Y111499D01*
X473499Y110999D01*
X475998Y111499D02*
X477998D01*
Y110999D01*
X475998Y109000D01*
Y108500D01*
X477501Y145999D02*
X477001Y145500D01*
Y144500D01*
X477501Y144000D01*
X479500D01*
X480000Y144500D01*
Y145500D01*
X479500Y145999D01*
X480000Y146999D02*
Y147999D01*
Y147499D01*
X477001D01*
X477501Y146999D01*
X477001Y151498D02*
X477501Y150498D01*
X478501Y149498D01*
X479500D01*
X480000Y149998D01*
Y150998D01*
X479500Y151498D01*
X479000D01*
X478501Y150998D01*
Y149498D01*
X483501Y153999D02*
X483001Y153499D01*
Y152500D01*
X483501Y152000D01*
X485500D01*
X486000Y152500D01*
Y153499D01*
X485500Y153999D01*
X486000Y154999D02*
Y155999D01*
Y155499D01*
X483001D01*
X483501Y154999D01*
X483001Y159498D02*
Y157498D01*
X484501D01*
X484001Y158498D01*
Y158998D01*
X484501Y159498D01*
X485500D01*
X486000Y158998D01*
Y157998D01*
X485500Y157498D01*
X488001Y153999D02*
X487501Y153499D01*
Y152500D01*
X488001Y152000D01*
X490000D01*
X490500Y152500D01*
Y153499D01*
X490000Y153999D01*
X490500Y154999D02*
Y155999D01*
Y155499D01*
X487501D01*
X488001Y154999D01*
X490500Y158998D02*
X487501D01*
X489001Y157498D01*
Y159498D01*
X353582Y123882D02*
X353082Y124382D01*
X352082D01*
X351583Y123882D01*
Y121882D01*
X352082Y121383D01*
X353082D01*
X353582Y121882D01*
X354582Y121383D02*
X355581D01*
X355082D01*
Y124382D01*
X354582Y123882D01*
X357081D02*
X357581Y124382D01*
X358580D01*
X359080Y123882D01*
Y123382D01*
X358580Y122882D01*
X358081D01*
X358580D01*
X359080Y122382D01*
Y121882D01*
X358580Y121383D01*
X357581D01*
X357081Y121882D01*
X359001Y148499D02*
X358501Y148000D01*
Y147000D01*
X359001Y146500D01*
X361000D01*
X361500Y147000D01*
Y148000D01*
X361000Y148499D01*
X361500Y149499D02*
Y150499D01*
Y149999D01*
X358501D01*
X359001Y149499D01*
X361500Y153998D02*
Y151998D01*
X359501Y153998D01*
X359001D01*
X358501Y153498D01*
Y152498D01*
X359001Y151998D01*
X344299Y128099D02*
X343799Y128599D01*
X342800D01*
X342300Y128099D01*
Y126100D01*
X342800Y125600D01*
X343799D01*
X344299Y126100D01*
X345299Y125600D02*
X346299D01*
X345799D01*
Y128599D01*
X345299Y128099D01*
X347798Y125600D02*
X348798D01*
X348298D01*
Y128599D01*
X347798Y128099D01*
X395001Y146499D02*
X394501Y146000D01*
Y145000D01*
X395001Y144500D01*
X397000D01*
X397500Y145000D01*
Y146000D01*
X397000Y146499D01*
X397500Y147499D02*
Y148499D01*
Y147999D01*
X394501D01*
X395001Y147499D01*
Y149998D02*
X394501Y150498D01*
Y151498D01*
X395001Y151998D01*
X397000D01*
X397500Y151498D01*
Y150498D01*
X397000Y149998D01*
X395001D01*
X409999Y143499D02*
X409500Y143999D01*
X408500D01*
X408000Y143499D01*
Y141500D01*
X408500Y141000D01*
X409500D01*
X409999Y141500D01*
X410999D02*
X411499Y141000D01*
X412499D01*
X412998Y141500D01*
Y143499D01*
X412499Y143999D01*
X411499D01*
X410999Y143499D01*
Y142999D01*
X411499Y142499D01*
X412998D01*
X388499Y165499D02*
X388000Y165999D01*
X387000D01*
X386500Y165499D01*
Y163500D01*
X387000Y163000D01*
X388000D01*
X388499Y163500D01*
X389499Y165499D02*
X389999Y165999D01*
X390999D01*
X391498Y165499D01*
Y164999D01*
X390999Y164499D01*
X391498Y164000D01*
Y163500D01*
X390999Y163000D01*
X389999D01*
X389499Y163500D01*
Y164000D01*
X389999Y164499D01*
X389499Y164999D01*
Y165499D01*
X389999Y164499D02*
X390999D01*
X383999Y116499D02*
X383500Y116999D01*
X382500D01*
X382000Y116499D01*
Y114500D01*
X382500Y114000D01*
X383500D01*
X383999Y114500D01*
X384999Y116999D02*
X386998D01*
Y116499D01*
X384999Y114500D01*
Y114000D01*
X331999Y156999D02*
X331500Y157499D01*
X330500D01*
X330000Y156999D01*
Y155000D01*
X330500Y154500D01*
X331500D01*
X331999Y155000D01*
X334998Y157499D02*
X333999Y156999D01*
X332999Y156000D01*
Y155000D01*
X333499Y154500D01*
X334499D01*
X334998Y155000D01*
Y155500D01*
X334499Y156000D01*
X332999D01*
X347499Y161999D02*
X347000Y162499D01*
X346000D01*
X345500Y161999D01*
Y160000D01*
X346000Y159500D01*
X347000D01*
X347499Y160000D01*
X350498Y162499D02*
X348499D01*
Y161000D01*
X349499Y161499D01*
X349998D01*
X350498Y161000D01*
Y160000D01*
X349998Y159500D01*
X348999D01*
X348499Y160000D01*
X347499Y157499D02*
X347000Y157999D01*
X346000D01*
X345500Y157499D01*
Y155500D01*
X346000Y155000D01*
X347000D01*
X347499Y155500D01*
X349998Y155000D02*
Y157999D01*
X348499Y156500D01*
X350498D01*
X409499Y125999D02*
X408999Y126499D01*
X408000D01*
X407500Y125999D01*
Y124000D01*
X408000Y123500D01*
X408999D01*
X409499Y124000D01*
X410499Y125999D02*
X410999Y126499D01*
X411999D01*
X412498Y125999D01*
Y125499D01*
X411999Y124999D01*
X411499D01*
X411999D01*
X412498Y124500D01*
Y124000D01*
X411999Y123500D01*
X410999D01*
X410499Y124000D01*
X406999Y114999D02*
X406499Y115499D01*
X405500D01*
X405000Y114999D01*
Y113000D01*
X405500Y112500D01*
X406499D01*
X406999Y113000D01*
X409998Y112500D02*
X407999D01*
X409998Y114499D01*
Y114999D01*
X409499Y115499D01*
X408499D01*
X407999Y114999D01*
X383999Y111999D02*
X383500Y112499D01*
X382500D01*
X382000Y111999D01*
Y110000D01*
X382500Y109500D01*
X383500D01*
X383999Y110000D01*
X384999Y109500D02*
X385999D01*
X385499D01*
Y112499D01*
X384999Y111999D01*
X154000Y148000D02*
Y149999D01*
X155000Y150999D01*
X155999Y149999D01*
Y148000D01*
Y149499D01*
X154000D01*
X158998Y150499D02*
X158499Y150999D01*
X157499D01*
X156999Y150499D01*
Y148500D01*
X157499Y148000D01*
X158499D01*
X158998Y148500D01*
X159998Y148000D02*
X160998D01*
X160498D01*
Y150999D01*
X159998Y150499D01*
D17*
X140999Y183499D02*
X140000D01*
X140499D01*
Y181000D01*
X140000Y180500D01*
X139500D01*
X139000Y181000D01*
X143499Y180500D02*
Y183499D01*
X141999Y182000D01*
X143998D01*
M02*
