G04*
G04 #@! TF.GenerationSoftware,Altium Limited,Altium Designer,19.1.5 (86)*
G04*
G04 Layer_Color=128*
%FSLAX25Y25*%
%MOIN*%
G70*
G01*
G75*
%ADD20R,0.02165X0.02165*%
%ADD32O,0.04000X0.02000*%
%ADD33O,0.02000X0.04000*%
%ADD40R,0.02165X0.02165*%
%ADD46R,0.03150X0.03543*%
%ADD105O,0.01181X0.03347*%
%ADD106O,0.03347X0.01181*%
%ADD107R,0.08465X0.04528*%
%ADD108R,0.10000X0.02500*%
%ADD109O,0.10000X0.02500*%
%ADD110R,0.07800X0.02200*%
%ADD111R,0.05158X0.13976*%
%ADD123R,0.04075X0.11575*%
%ADD124O,0.04075X0.11575*%
D20*
X319000Y135300D02*
D03*
Y130700D02*
D03*
X295000Y115300D02*
D03*
Y110700D02*
D03*
X155000Y139700D02*
D03*
Y144300D02*
D03*
Y134300D02*
D03*
Y129700D02*
D03*
X160000D02*
D03*
Y134300D02*
D03*
Y144300D02*
D03*
Y139700D02*
D03*
X155000Y154700D02*
D03*
Y159300D02*
D03*
X160000D02*
D03*
Y154700D02*
D03*
D32*
X199500Y126750D02*
D03*
Y133250D02*
D03*
X217000D02*
D03*
Y126750D02*
D03*
X287000Y131250D02*
D03*
Y124750D02*
D03*
X279000Y131500D02*
D03*
Y125000D02*
D03*
D33*
X437250Y162000D02*
D03*
X430750D02*
D03*
X431250Y154000D02*
D03*
X437750D02*
D03*
X139750Y149000D02*
D03*
X146250D02*
D03*
D40*
X420700Y174000D02*
D03*
X425300D02*
D03*
X308700Y132500D02*
D03*
X313300D02*
D03*
X325500Y131000D02*
D03*
X330100D02*
D03*
X338800Y122500D02*
D03*
X334200D02*
D03*
X328300Y122000D02*
D03*
X323700D02*
D03*
X318800D02*
D03*
X314200D02*
D03*
X159800Y149500D02*
D03*
X155200D02*
D03*
D46*
X286000Y118937D02*
D03*
X282260Y111063D02*
D03*
X289740D02*
D03*
D105*
X432079Y180724D02*
D03*
X434047D02*
D03*
X436016D02*
D03*
X437984D02*
D03*
X439953D02*
D03*
X441921D02*
D03*
Y171276D02*
D03*
X439953D02*
D03*
X437984D02*
D03*
X436016D02*
D03*
X434047D02*
D03*
X432079D02*
D03*
D106*
X443693Y176984D02*
D03*
Y175016D02*
D03*
X430307D02*
D03*
Y176984D02*
D03*
D107*
X437000Y176000D02*
D03*
D108*
X113000Y112000D02*
D03*
D109*
Y117000D02*
D03*
Y122000D02*
D03*
Y127000D02*
D03*
Y132000D02*
D03*
D110*
X168800Y129500D02*
D03*
Y134500D02*
D03*
Y139500D02*
D03*
Y144500D02*
D03*
Y149500D02*
D03*
Y154500D02*
D03*
Y159500D02*
D03*
X188200D02*
D03*
Y154500D02*
D03*
Y149500D02*
D03*
Y144500D02*
D03*
Y139500D02*
D03*
Y134500D02*
D03*
Y129500D02*
D03*
D111*
X197500Y144894D02*
D03*
X207500Y169106D02*
D03*
X217500Y144894D02*
D03*
D123*
X267500Y122500D02*
D03*
D124*
X272500D02*
D03*
M02*
